<?xml version="1.0" encoding="UTF-8" standalone="no"?>
<!DOCTYPE svg PUBLIC "-//W3C//DTD SVG 1.1//EN"
 "http://www.w3.org/Graphics/SVG/1.1/DTD/svg11.dtd">
<!-- Generated by graphviz version 2.34.0 (20131025.1349)
 -->
<!-- Title: constants.h Pages: 1 -->
<!--zoomable 378 -->
<svg id="main" version="1.1" xmlns="http://www.w3.org/2000/svg" xmlns:xlink="http://www.w3.org/1999/xlink" xml:space="preserve" onload="init(evt)">
<style type="text/css"><![CDATA[
.edge:hover path { stroke: red; }
.edge:hover polygon { stroke: red; fill: red; }
]]></style>
<script type="text/javascript"><![CDATA[
var edges = document.getElementsByTagName('g');
if (edges && edges.length) {
  for (var i=0;i<edges.length;i++) {
    if (edges[i].id.substr(0,4)=='edge') {
      edges[i].setAttribute('class','edge');
    }
  }
}
]]></script>
        <defs>
                <circle id="rim" cx="0" cy="0" r="7"/>
                <circle id="rim2" cx="0" cy="0" r="3.5"/>
                <g id="zoomPlus">
                        <use xlink:href="#rim" fill="#404040">
                                <set attributeName="fill" to="#808080" begin="zoomplus.mouseover" end="zoomplus.mouseout"/>
                        </use>
                        <path d="M-4,0h8M0,-4v8" fill="none" stroke="white" stroke-width="1.5" pointer-events="none"/>
                </g>
                <g id="zoomMin">
                        <use xlink:href="#rim" fill="#404040">
                                <set attributeName="fill" to="#808080" begin="zoomminus.mouseover" end="zoomminus.mouseout"/>
                        </use>
                        <path d="M-4,0h8" fill="none" stroke="white" stroke-width="1.5" pointer-events="none"/>
                </g>
                <g id="dirArrow">
                        <path fill="none" stroke="white" stroke-width="1.5" d="M0,-3.0v7 M-2.5,-0.5L0,-3.0L2.5,-0.5"/>
                </g>
               <g id="resetDef">
                       <use xlink:href="#rim2" fill="#404040">
                               <set attributeName="fill" to="#808080" begin="reset.mouseover" end="reset.mouseout"/>
                       </use>
               </g>
        </defs>

<script type="text/javascript">
var viewWidth = 1638;
var viewHeight = 378;
var sectionId = 'dynsection-1';
</script>
<script xlink:href="svgpan.js"/>
<svg id="graph" class="graph">
<g id="viewport">
<title>constants.h</title>
<!-- Node1 -->
<g id="node1" class="node"><title>Node1</title>
<polygon fill="#bfbfbf" stroke="black" points="428.429,-349 428.429,-369 495.571,-369 495.571,-349 428.429,-349"/>
<text text-anchor="middle" x="462" y="-355" font-family="Helvetica,sans-Serif" font-size="10.00">constants.h</text>
</g>
<!-- Node2 -->
<g id="node2" class="node"><title>Node2</title>
<g id="a_node2"><a xlink:href="a00233.html" target="_top" xlink:title="Handle read/write of Model data from/to files. ">
<polygon fill="none" stroke="black" points="1029.97,-291 1029.97,-311 1136.03,-311 1136.03,-291 1029.97,-291"/>
<text text-anchor="middle" x="1083" y="-297" font-family="Helvetica,sans-Serif" font-size="10.00">NodeConstHandle.h</text>
</a>
</g>
</g>
<!-- Node1&#45;&gt;Node2 -->
<g id="edge1" class="edge"><title>Node1&#45;&gt;Node2</title>
<path fill="none" stroke="midnightblue" d="M506.058,-355.323C599.978,-349.401 826.763,-333.955 1016,-312 1020.44,-311.485 1025.04,-310.902 1029.65,-310.284"/>
<polygon fill="midnightblue" stroke="midnightblue" points="505.563,-351.847 495.801,-355.965 506.001,-358.834 505.563,-351.847"/>
</g>
<!-- Node4 -->
<g id="node4" class="node"><title>Node4</title>
<g id="a_node4"><a xlink:href="a00173.html" target="_top" xlink:title="Helper functions for manipulating RMF files. ">
<polygon fill="none" stroke="black" points="499.547,-117 499.547,-137 544.453,-137 544.453,-117 499.547,-117"/>
<text text-anchor="middle" x="522" y="-123" font-family="Helvetica,sans-Serif" font-size="10.00">alias.h</text>
</a>
</g>
</g>
<!-- Node1&#45;&gt;Node4 -->
<g id="edge71" class="edge"><title>Node1&#45;&gt;Node4</title>
<path fill="none" stroke="midnightblue" d="M450.872,-340.138C430.786,-305.381 393.532,-227.39 427,-174 442.767,-148.847 476.622,-137.108 499.358,-131.878"/>
<polygon fill="midnightblue" stroke="midnightblue" points="447.876,-341.948 456.009,-348.738 453.886,-338.358 447.876,-341.948"/>
</g>
<!-- Node6 -->
<g id="node6" class="node"><title>Node6</title>
<g id="a_node6"><a xlink:href="a00237.html" target="_top" xlink:title="Helper functions for manipulating RMF files. ">
<polygon fill="none" stroke="black" points="610.158,-59 610.158,-79 667.842,-79 667.842,-59 610.158,-59"/>
<text text-anchor="middle" x="639" y="-65" font-family="Helvetica,sans-Serif" font-size="10.00">physics.h</text>
</a>
</g>
</g>
<!-- Node1&#45;&gt;Node6 -->
<g id="edge74" class="edge"><title>Node1&#45;&gt;Node6</title>
<path fill="none" stroke="midnightblue" d="M418.168,-356.488C302.882,-351.327 0,-329.621 0,-244 0,-244 0,-244 0,-184 0,-124.622 58.4667,-134.158 115,-116 208.36,-86.0139 513.824,-73.9664 609.841,-70.8624"/>
<polygon fill="midnightblue" stroke="midnightblue" points="418.262,-359.995 428.402,-356.924 418.56,-353.001 418.262,-359.995"/>
</g>
<!-- Node9 -->
<g id="node9" class="node"><title>Node9</title>
<g id="a_node9"><a xlink:href="a00205.html" target="_top" xlink:title="Helper functions for manipulating RMF files. ">
<polygon fill="none" stroke="black" points="384.042,-117 384.042,-137 443.958,-137 443.958,-117 384.042,-117"/>
<text text-anchor="middle" x="414" y="-123" font-family="Helvetica,sans-Serif" font-size="10.00">external.h</text>
</a>
</g>
</g>
<!-- Node1&#45;&gt;Node9 -->
<g id="edge72" class="edge"><title>Node1&#45;&gt;Node9</title>
<path fill="none" stroke="midnightblue" d="M418.435,-348.935C350.707,-332.189 222.589,-289.239 171,-196 110.417,-86.506 86.1827,-200.416 375,-138 377.87,-137.38 380.847,-136.694 383.82,-135.981"/>
<polygon fill="midnightblue" stroke="midnightblue" points="417.83,-352.389 428.37,-351.31 419.457,-345.581 417.83,-352.389"/>
</g>
<!-- Node10 -->
<g id="node10" class="node"><title>Node10</title>
<g id="a_node10"><a xlink:href="a00207.html" target="_top" xlink:title="Helper functions for manipulating RMF files. ">
<polygon fill="none" stroke="black" points="562.264,-117 562.264,-137 617.736,-137 617.736,-117 562.264,-117"/>
<text text-anchor="middle" x="590" y="-123" font-family="Helvetica,sans-Serif" font-size="10.00">feature.h</text>
</a>
</g>
</g>
<!-- Node1&#45;&gt;Node10 -->
<g id="edge73" class="edge"><title>Node1&#45;&gt;Node10</title>
<path fill="none" stroke="midnightblue" d="M471.962,-340.1C497.686,-293.876 565.667,-171.724 584.878,-137.204"/>
<polygon fill="midnightblue" stroke="midnightblue" points="468.822,-338.544 467.018,-348.984 474.939,-341.948 468.822,-338.544"/>
</g>
<!-- Node11 -->
<g id="node11" class="node"><title>Node11</title>
<g id="a_node11"><a xlink:href="a00239.html" target="_top" xlink:title="Helper functions for manipulating RMF files. ">
<polygon fill="none" stroke="black" points="123.924,-117 123.924,-137 196.076,-137 196.076,-117 123.924,-117"/>
<text text-anchor="middle" x="160" y="-123" font-family="Helvetica,sans-Serif" font-size="10.00">publication.h</text>
</a>
</g>
</g>
<!-- Node1&#45;&gt;Node11 -->
<g id="edge75" class="edge"><title>Node1&#45;&gt;Node11</title>
<path fill="none" stroke="midnightblue" d="M418.025,-354.867C350.327,-349.351 224.468,-336.137 187,-312 139.655,-281.501 141.735,-252.026 136,-196 135.004,-186.273 133.672,-183.496 136,-174 139.346,-160.352 147.526,-146.256 153.406,-137.326"/>
<polygon fill="midnightblue" stroke="midnightblue" points="418.123,-358.386 428.369,-355.687 418.676,-351.408 418.123,-358.386"/>
</g>
<!-- Node12 -->
<g id="node12" class="node"><title>Node12</title>
<g id="a_node12"><a xlink:href="a00248.html" target="_top" xlink:title="Helper functions for manipulating RMF files. ">
<polygon fill="none" stroke="black" points="876.146,-117 876.146,-137 943.854,-137 943.854,-117 876.146,-117"/>
<text text-anchor="middle" x="910" y="-123" font-family="Helvetica,sans-Serif" font-size="10.00">sequence.h</text>
</a>
</g>
</g>
<!-- Node1&#45;&gt;Node12 -->
<g id="edge76" class="edge"><title>Node1&#45;&gt;Node12</title>
<path fill="none" stroke="midnightblue" d="M506.079,-353.297C550.538,-347.476 620.493,-335.334 677,-312 779.429,-269.702 874.153,-168.669 901.867,-137.392"/>
<polygon fill="midnightblue" stroke="midnightblue" points="505.383,-349.857 495.898,-354.578 506.257,-356.802 505.383,-349.857"/>
</g>
<!-- Node13 -->
<g id="node13" class="node"><title>Node13</title>
<g id="a_node13"><a xlink:href="a00250.html" target="_top" xlink:title="Helper functions for manipulating RMF files. ">
<polygon fill="none" stroke="black" points="806.207,-117 806.207,-137 857.793,-137 857.793,-117 806.207,-117"/>
<text text-anchor="middle" x="832" y="-123" font-family="Helvetica,sans-Serif" font-size="10.00">shape.h</text>
</a>
</g>
</g>
<!-- Node1&#45;&gt;Node13 -->
<g id="edge77" class="edge"><title>Node1&#45;&gt;Node13</title>
<path fill="none" stroke="midnightblue" d="M505.764,-350.952C564.831,-339.536 670.745,-312.139 741,-254 783.408,-218.905 816.014,-159.732 827.511,-137.14"/>
<polygon fill="midnightblue" stroke="midnightblue" points="504.838,-347.564 495.649,-352.838 506.121,-354.445 504.838,-347.564"/>
</g>
<!-- Node14 -->
<g id="node14" class="node"><title>Node14</title>
<g id="a_node14"><a xlink:href="a00179.html" target="_top" xlink:title="Helper functions for manipulating RMF files. ">
<polygon fill="none" stroke="black" points="213.707,-117 213.707,-137 260.293,-137 260.293,-117 213.707,-117"/>
<text text-anchor="middle" x="237" y="-123" font-family="Helvetica,sans-Serif" font-size="10.00">bond.h</text>
</a>
</g>
</g>
<!-- Node1&#45;&gt;Node14 -->
<g id="edge78" class="edge"><title>Node1&#45;&gt;Node14</title>
<path fill="none" stroke="midnightblue" d="M417.895,-357.321C367.671,-354.848 284.498,-345.475 222,-312 190.14,-294.935 183.545,-285.022 165,-254 146.3,-222.719 127.977,-205.086 147,-174 154.511,-161.727 189.334,-146.3 213.394,-136.797"/>
<polygon fill="midnightblue" stroke="midnightblue" points="417.954,-360.826 428.092,-357.75 418.249,-353.833 417.954,-360.826"/>
</g>
<!-- Node15 -->
<g id="node15" class="node"><title>Node15</title>
<g id="a_node15"><a xlink:href="a00244.html" target="_top" xlink:title="Helper functions for manipulating RMF files. ">
<polygon fill="none" stroke="black" points="277.865,-117 277.865,-137 366.135,-137 366.135,-117 277.865,-117"/>
<text text-anchor="middle" x="322" y="-123" font-family="Helvetica,sans-Serif" font-size="10.00">representation.h</text>
</a>
</g>
</g>
<!-- Node1&#45;&gt;Node15 -->
<g id="edge79" class="edge"><title>Node1&#45;&gt;Node15</title>
<path fill="none" stroke="midnightblue" d="M418.311,-353.333C377.327,-347.686 315.156,-335.803 266,-312 201.5,-280.767 174.903,-264.548 154,-196 151.148,-186.647 148.069,-181.773 154,-174 161.681,-163.933 231.232,-147.347 278.403,-137.082"/>
<polygon fill="midnightblue" stroke="midnightblue" points="417.883,-356.806 428.253,-354.637 418.794,-349.866 417.883,-356.806"/>
</g>
<!-- Node16 -->
<g id="node16" class="node"><title>Node16</title>
<g id="a_node16"><a xlink:href="a00175.html" target="_top" xlink:title="Helper functions for manipulating RMF files. ">
<polygon fill="none" stroke="black" points="712.261,-117 712.261,-137 787.739,-137 787.739,-117 712.261,-117"/>
<text text-anchor="middle" x="750" y="-123" font-family="Helvetica,sans-Serif" font-size="10.00">alternatives.h</text>
</a>
</g>
</g>
<!-- Node1&#45;&gt;Node16 -->
<g id="edge80" class="edge"><title>Node1&#45;&gt;Node16</title>
<path fill="none" stroke="midnightblue" d="M502.143,-345.876C552.808,-329.532 641.485,-297.4 709,-254 741.015,-233.42 756.713,-230.854 772,-196 780.971,-175.547 766.45,-150.238 757.038,-137.013"/>
<polygon fill="midnightblue" stroke="midnightblue" points="501.003,-342.566 492.534,-348.933 503.125,-349.237 501.003,-342.566"/>
</g>
<!-- Node22 -->
<g id="node22" class="node"><title>Node22</title>
<g id="a_node22"><a xlink:href="a00209.html" target="_top" xlink:title="Handle read/write of Model data from/to files. ">
<polygon fill="none" stroke="black" points="1219.87,-233 1219.87,-253 1318.13,-253 1318.13,-233 1219.87,-233"/>
<text text-anchor="middle" x="1269" y="-239" font-family="Helvetica,sans-Serif" font-size="10.00">FileConstHandle.h</text>
</a>
</g>
</g>
<!-- Node1&#45;&gt;Node22 -->
<g id="edge70" class="edge"><title>Node1&#45;&gt;Node22</title>
<path fill="none" stroke="midnightblue" d="M505.763,-357.511C636.794,-355.66 1024.36,-347.27 1145,-312 1189.3,-299.048 1235.41,-268.446 1256.78,-253.103"/>
<polygon fill="midnightblue" stroke="midnightblue" points="505.644,-354.012 495.692,-357.647 505.739,-361.011 505.644,-354.012"/>
</g>
<!-- Node3 -->
<g id="node3" class="node"><title>Node3</title>
<g id="a_node3"><a xlink:href="a00198.html" target="_top" xlink:title="Helper functions for manipulating RMF files. ">
<polygon fill="none" stroke="black" points="436.15,-175 436.15,-195 503.85,-195 503.85,-175 436.15,-175"/>
<text text-anchor="middle" x="470" y="-181" font-family="Helvetica,sans-Serif" font-size="10.00">Decorator.h</text>
</a>
</g>
</g>
<!-- Node2&#45;&gt;Node3 -->
<g id="edge2" class="edge"><title>Node2&#45;&gt;Node3</title>
<path fill="none" stroke="midnightblue" d="M1019.4,-300.742C927.682,-300.263 753.737,-293.529 612,-254 562.765,-240.269 509.69,-210.314 484.656,-195.164"/>
<polygon fill="midnightblue" stroke="midnightblue" points="1019.62,-304.243 1029.63,-300.771 1019.64,-297.243 1019.62,-304.243"/>
</g>
<!-- Node8 -->
<g id="node8" class="node"><title>Node8</title>
<g id="a_node8"><a xlink:href="a00177_source.html" target="_top" xlink:title="benchmark_rmf.cpp">
<polygon fill="none" stroke="black" points="938.815,-1 938.815,-21 1043.18,-21 1043.18,-1 938.815,-1"/>
<text text-anchor="middle" x="991" y="-7" font-family="Helvetica,sans-Serif" font-size="10.00">benchmark_rmf.cpp</text>
</a>
</g>
</g>
<!-- Node2&#45;&gt;Node8 -->
<g id="edge69" class="edge"><title>Node2&#45;&gt;Node8</title>
<path fill="none" stroke="midnightblue" d="M1085.9,-280.476C1087.37,-266.775 1088.24,-248.101 1085,-232 1067.54,-145.27 1014.06,-50.5635 996.588,-21.1949"/>
<polygon fill="midnightblue" stroke="midnightblue" points="1082.4,-280.285 1084.6,-290.648 1089.34,-281.173 1082.4,-280.285"/>
</g>
<!-- Node17 -->
<g id="node17" class="node"><title>Node17</title>
<g id="a_node17"><a xlink:href="a00234.html" target="_top" xlink:title="Handle read/write of Model data from/to files. ">
<polygon fill="none" stroke="black" points="621.032,-233 621.032,-253 700.968,-253 700.968,-233 621.032,-233"/>
<text text-anchor="middle" x="661" y="-239" font-family="Helvetica,sans-Serif" font-size="10.00">NodeHandle.h</text>
</a>
</g>
</g>
<!-- Node2&#45;&gt;Node17 -->
<g id="edge30" class="edge"><title>Node2&#45;&gt;Node17</title>
<path fill="none" stroke="midnightblue" d="M1019.42,-291.563C931.295,-279.868 774.602,-259.075 701.124,-249.325"/>
<polygon fill="midnightblue" stroke="midnightblue" points="1019.18,-295.062 1029.55,-292.908 1020.1,-288.122 1019.18,-295.062"/>
</g>
<!-- Node19 -->
<g id="node19" class="node"><title>Node19</title>
<g id="a_node19"><a xlink:href="a00258.html" target="_top" xlink:title="Handle read/write of Model data from/to files. ">
<polygon fill="none" stroke="black" points="1093.6,-117 1093.6,-137 1152.4,-137 1152.4,-117 1093.6,-117"/>
<text text-anchor="middle" x="1123" y="-123" font-family="Helvetica,sans-Serif" font-size="10.00">validate.h</text>
</a>
</g>
</g>
<!-- Node2&#45;&gt;Node19 -->
<g id="edge68" class="edge"><title>Node2&#45;&gt;Node19</title>
<path fill="none" stroke="midnightblue" d="M1099.73,-283.242C1106.73,-275.119 1114.12,-264.794 1118,-254 1132.88,-212.59 1127.48,-158.531 1124.47,-137.214"/>
<polygon fill="midnightblue" stroke="midnightblue" points="1096.94,-281.107 1092.75,-290.838 1102.1,-285.844 1096.94,-281.107"/>
</g>
<!-- Node2&#45;&gt;Node22 -->
<g id="edge59" class="edge"><title>Node2&#45;&gt;Node22</title>
<path fill="none" stroke="midnightblue" d="M1123.14,-287.914C1157.96,-277.431 1207.57,-262.494 1239.02,-253.025"/>
<polygon fill="midnightblue" stroke="midnightblue" points="1121.86,-284.644 1113.3,-290.878 1123.88,-291.346 1121.86,-284.644"/>
</g>
<!-- Node27 -->
<g id="node27" class="node"><title>Node27</title>
<g id="a_node27"><a xlink:href="a00257.html" target="_top" xlink:title="Helper functions for manipulating RMF files. ">
<polygon fill="none" stroke="black" points="1029.81,-233 1029.81,-253 1076.19,-253 1076.19,-233 1029.81,-233"/>
<text text-anchor="middle" x="1053" y="-239" font-family="Helvetica,sans-Serif" font-size="10.00">utility.h</text>
</a>
</g>
</g>
<!-- Node2&#45;&gt;Node27 -->
<g id="edge67" class="edge"><title>Node2&#45;&gt;Node27</title>
<path fill="none" stroke="midnightblue" d="M1073.31,-281.92C1068.15,-272.285 1062.03,-260.85 1057.86,-253.075"/>
<polygon fill="midnightblue" stroke="midnightblue" points="1070.24,-283.591 1078.05,-290.753 1076.41,-280.285 1070.24,-283.591"/>
</g>
<!-- Node3&#45;&gt;Node4 -->
<g id="edge3" class="edge"><title>Node3&#45;&gt;Node4</title>
<path fill="none" stroke="midnightblue" d="M485.405,-167.41C494.62,-157.486 505.977,-145.255 513.573,-137.075"/>
<polygon fill="midnightblue" stroke="midnightblue" points="482.826,-165.043 478.587,-174.753 487.956,-169.806 482.826,-165.043"/>
</g>
<!-- Node3&#45;&gt;Node6 -->
<g id="edge13" class="edge"><title>Node3&#45;&gt;Node6</title>
<path fill="none" stroke="midnightblue" d="M471.216,-164.39C473.175,-149.263 478.201,-128.822 491,-116 522.935,-84.0072 576.693,-74.1944 609.879,-71.2285"/>
<polygon fill="midnightblue" stroke="midnightblue" points="467.697,-164.422 470.238,-174.707 474.666,-165.082 467.697,-164.422"/>
</g>
<!-- Node3&#45;&gt;Node9 -->
<g id="edge9" class="edge"><title>Node3&#45;&gt;Node9</title>
<path fill="none" stroke="midnightblue" d="M453.41,-167.41C443.486,-157.486 431.255,-145.255 423.075,-137.075"/>
<polygon fill="midnightblue" stroke="midnightblue" points="451.207,-170.157 460.753,-174.753 456.157,-165.207 451.207,-170.157"/>
</g>
<!-- Node3&#45;&gt;Node10 -->
<g id="edge11" class="edge"><title>Node3&#45;&gt;Node10</title>
<path fill="none" stroke="midnightblue" d="M498.813,-170.554C520.985,-160.207 551.026,-146.188 570.461,-137.118"/>
<polygon fill="midnightblue" stroke="midnightblue" points="497.129,-167.477 489.547,-174.878 500.089,-173.821 497.129,-167.477"/>
</g>
<!-- Node3&#45;&gt;Node11 -->
<g id="edge14" class="edge"><title>Node3&#45;&gt;Node11</title>
<path fill="none" stroke="midnightblue" d="M426.012,-177.011C373.341,-168.494 282.515,-153.332 205,-138 202.174,-137.441 199.252,-136.841 196.319,-136.224"/>
<polygon fill="midnightblue" stroke="midnightblue" points="425.593,-180.489 436.022,-178.624 426.706,-173.578 425.593,-180.489"/>
</g>
<!-- Node3&#45;&gt;Node12 -->
<g id="edge16" class="edge"><title>Node3&#45;&gt;Node12</title>
<path fill="none" stroke="midnightblue" d="M514.337,-180.421C587.791,-174.141 739.207,-159.707 866,-138 869.243,-137.445 872.606,-136.803 875.963,-136.117"/>
<polygon fill="midnightblue" stroke="midnightblue" points="513.748,-176.959 504.078,-181.289 514.337,-183.934 513.748,-176.959"/>
</g>
<!-- Node3&#45;&gt;Node13 -->
<g id="edge20" class="edge"><title>Node3&#45;&gt;Node13</title>
<path fill="none" stroke="midnightblue" d="M514.018,-179.638C576.953,-172.983 696.088,-158.832 796,-138 799.302,-137.311 802.748,-136.49 806.143,-135.618"/>
<polygon fill="midnightblue" stroke="midnightblue" points="513.625,-176.16 504.043,-180.679 514.352,-183.122 513.625,-176.16"/>
</g>
<!-- Node3&#45;&gt;Node14 -->
<g id="edge23" class="edge"><title>Node3&#45;&gt;Node14</title>
<path fill="none" stroke="midnightblue" d="M426.106,-174.985C385.222,-166.345 322.682,-152.507 269,-138 266.191,-137.241 263.258,-136.397 260.357,-135.53"/>
<polygon fill="midnightblue" stroke="midnightblue" points="425.509,-178.436 436.015,-177.067 426.948,-171.586 425.509,-178.436"/>
</g>
<!-- Node3&#45;&gt;Node15 -->
<g id="edge25" class="edge"><title>Node3&#45;&gt;Node15</title>
<path fill="none" stroke="midnightblue" d="M436.288,-171.244C408.786,-160.838 370.605,-146.391 346.098,-137.118"/>
<polygon fill="midnightblue" stroke="midnightblue" points="435.3,-174.613 445.892,-174.878 437.778,-168.066 435.3,-174.613"/>
</g>
<!-- Node3&#45;&gt;Node16 -->
<g id="edge27" class="edge"><title>Node3&#45;&gt;Node16</title>
<path fill="none" stroke="midnightblue" d="M514.118,-175.176C568.691,-164.262 660.675,-145.865 712.17,-135.566"/>
<polygon fill="midnightblue" stroke="midnightblue" points="513.173,-171.796 504.054,-177.189 514.546,-178.66 513.173,-171.796"/>
</g>
<!-- Node5 -->
<g id="node5" class="node"><title>Node5</title>
<g id="a_node5"><a xlink:href="a00199.html" target="_top" xlink:title="Import all the decorators headers. ">
<polygon fill="none" stroke="black" points="486.207,-1 486.207,-21 557.793,-21 557.793,-1 486.207,-1"/>
<text text-anchor="middle" x="522" y="-7" font-family="Helvetica,sans-Serif" font-size="10.00">decorators.h</text>
</a>
</g>
</g>
<!-- Node4&#45;&gt;Node5 -->
<g id="edge4" class="edge"><title>Node4&#45;&gt;Node5</title>
<path fill="none" stroke="midnightblue" d="M522,-106.603C522,-81.7305 522,-39.6088 522,-21.1394"/>
<polygon fill="midnightblue" stroke="midnightblue" points="518.5,-106.671 522,-116.671 525.5,-106.671 518.5,-106.671"/>
</g>
<!-- Node4&#45;&gt;Node6 -->
<g id="edge5" class="edge"><title>Node4&#45;&gt;Node6</title>
<path fill="none" stroke="midnightblue" d="M550.093,-112.554C571.711,-102.207 601,-88.1879 619.95,-79.1181"/>
<polygon fill="midnightblue" stroke="midnightblue" points="548.567,-109.404 541.058,-116.878 551.59,-115.718 548.567,-109.404"/>
</g>
<!-- Node6&#45;&gt;Node5 -->
<g id="edge6" class="edge"><title>Node6&#45;&gt;Node5</title>
<path fill="none" stroke="midnightblue" d="M610.907,-54.5538C589.289,-44.2069 560,-30.1879 541.05,-21.1181"/>
<polygon fill="midnightblue" stroke="midnightblue" points="609.41,-57.7177 619.942,-58.878 612.433,-51.4036 609.41,-57.7177"/>
</g>
<!-- Node7 -->
<g id="node7" class="node"><title>Node7</title>
<g id="a_node7"><a xlink:href="a00254.html" target="_top" xlink:title="Helper functions for manipulating RMF files. ">
<polygon fill="none" stroke="black" points="735.831,-1 735.831,-21 828.169,-21 828.169,-1 735.831,-1"/>
<text text-anchor="middle" x="782" y="-7" font-family="Helvetica,sans-Serif" font-size="10.00">TraverseHelper.h</text>
</a>
</g>
</g>
<!-- Node6&#45;&gt;Node7 -->
<g id="edge7" class="edge"><title>Node6&#45;&gt;Node7</title>
<path fill="none" stroke="midnightblue" d="M671.923,-55.1069C698.469,-44.7114 735.141,-30.3505 758.716,-21.1181"/>
<polygon fill="midnightblue" stroke="midnightblue" points="670.329,-51.9725 662.294,-58.878 672.881,-58.4905 670.329,-51.9725"/>
</g>
<!-- Node6&#45;&gt;Node8 -->
<g id="edge8" class="edge"><title>Node6&#45;&gt;Node8</title>
<path fill="none" stroke="midnightblue" d="M678.117,-61.7768C741.643,-51.6704 867.289,-31.6813 938.514,-20.35"/>
<polygon fill="midnightblue" stroke="midnightblue" points="677.431,-58.3419 668.105,-63.3696 678.531,-65.2549 677.431,-58.3419"/>
</g>
<!-- Node9&#45;&gt;Node5 -->
<g id="edge10" class="edge"><title>Node9&#45;&gt;Node5</title>
<path fill="none" stroke="midnightblue" d="M429.894,-109.223C453.034,-84.797 495.214,-40.2743 513.342,-21.1394"/>
<polygon fill="midnightblue" stroke="midnightblue" points="427.175,-107.004 422.838,-116.671 432.256,-111.818 427.175,-107.004"/>
</g>
<!-- Node10&#45;&gt;Node5 -->
<g id="edge12" class="edge"><title>Node10&#45;&gt;Node5</title>
<path fill="none" stroke="midnightblue" d="M579.222,-107.931C564.504,-83.2561 538.667,-39.9416 527.452,-21.1394"/>
<polygon fill="midnightblue" stroke="midnightblue" points="576.307,-109.876 584.435,-116.671 582.318,-106.29 576.307,-109.876"/>
</g>
<!-- Node11&#45;&gt;Node5 -->
<g id="edge15" class="edge"><title>Node11&#45;&gt;Node5</title>
<path fill="none" stroke="midnightblue" d="M191.511,-113.147C227.704,-98.6532 289.047,-74.906 343,-58 391.989,-42.6494 449.664,-28.5183 486.031,-20.0787"/>
<polygon fill="midnightblue" stroke="midnightblue" points="189.966,-109.996 181.996,-116.976 192.58,-116.49 189.966,-109.996"/>
</g>
<!-- Node12&#45;&gt;Node5 -->
<g id="edge17" class="edge"><title>Node12&#45;&gt;Node5</title>
<path fill="none" stroke="midnightblue" d="M881.466,-112.519C848.67,-97.4662 792.931,-73.2241 743,-58 679.085,-38.5121 602.277,-24.5782 558.1,-17.4445"/>
<polygon fill="midnightblue" stroke="midnightblue" points="880.33,-115.85 890.875,-116.875 883.271,-109.498 880.33,-115.85"/>
</g>
<!-- Node12&#45;&gt;Node7 -->
<g id="edge18" class="edge"><title>Node12&#45;&gt;Node7</title>
<path fill="none" stroke="midnightblue" d="M903.12,-107.338C896.87,-92.4629 886.419,-71.8939 872,-58 854.183,-40.8322 828.69,-28.6212 809.382,-21.1149"/>
<polygon fill="midnightblue" stroke="midnightblue" points="900.001,-108.968 906.925,-116.986 906.513,-106.399 900.001,-108.968"/>
</g>
<!-- Node12&#45;&gt;Node8 -->
<g id="edge19" class="edge"><title>Node12&#45;&gt;Node8</title>
<path fill="none" stroke="midnightblue" d="M922.47,-108.256C932.137,-94.5188 945.883,-75.0276 958,-58 967.118,-45.1873 977.729,-30.4217 984.405,-21.1493"/>
<polygon fill="midnightblue" stroke="midnightblue" points="919.389,-106.552 916.499,-116.745 925.115,-110.579 919.389,-106.552"/>
</g>
<!-- Node13&#45;&gt;Node5 -->
<g id="edge21" class="edge"><title>Node13&#45;&gt;Node5</title>
<path fill="none" stroke="midnightblue" d="M809.022,-111.462C784.193,-96.2943 743.06,-72.7152 705,-58 655.501,-38.8622 595.366,-25.5249 557.879,-18.3106"/>
<polygon fill="midnightblue" stroke="midnightblue" points="807.353,-114.545 817.699,-116.827 811.034,-108.591 807.353,-114.545"/>
</g>
<!-- Node13&#45;&gt;Node7 -->
<g id="edge22" class="edge"><title>Node13&#45;&gt;Node7</title>
<path fill="none" stroke="midnightblue" d="M823.786,-107.271C812.917,-82.4914 794.182,-39.7752 786.009,-21.1394"/>
<polygon fill="midnightblue" stroke="midnightblue" points="820.686,-108.919 827.908,-116.671 827.097,-106.107 820.686,-108.919"/>
</g>
<!-- Node14&#45;&gt;Node5 -->
<g id="edge24" class="edge"><title>Node14&#45;&gt;Node5</title>
<path fill="none" stroke="midnightblue" d="M267.644,-112.974C300.506,-99.0803 354.273,-76.5644 401,-58 434.208,-44.8064 472.842,-30.2569 497.352,-21.1253"/>
<polygon fill="midnightblue" stroke="midnightblue" points="265.991,-109.873 258.147,-116.995 268.721,-116.319 265.991,-109.873"/>
</g>
<!-- Node15&#45;&gt;Node5 -->
<g id="edge26" class="edge"><title>Node15&#45;&gt;Node5</title>
<path fill="none" stroke="midnightblue" d="M346.735,-111.901C388.408,-88.1473 471.457,-40.8094 506.173,-21.0217"/>
<polygon fill="midnightblue" stroke="midnightblue" points="344.983,-108.871 338.029,-116.864 348.45,-114.952 344.983,-108.871"/>
</g>
<!-- Node16&#45;&gt;Node5 -->
<g id="edge28" class="edge"><title>Node16&#45;&gt;Node5</title>
<path fill="none" stroke="midnightblue" d="M735.58,-108.911C721.753,-93.5419 699.551,-71.382 676,-58 638.639,-36.771 590.499,-24.4368 558.068,-17.9781"/>
<polygon fill="midnightblue" stroke="midnightblue" points="733.136,-111.433 742.356,-116.653 738.403,-106.823 733.136,-111.433"/>
</g>
<!-- Node16&#45;&gt;Node7 -->
<g id="edge29" class="edge"><title>Node16&#45;&gt;Node7</title>
<path fill="none" stroke="midnightblue" d="M755.351,-106.939C762.32,-82.1105 774.227,-39.692 779.435,-21.1394"/>
<polygon fill="midnightblue" stroke="midnightblue" points="751.952,-106.097 752.619,-116.671 758.691,-107.989 751.952,-106.097"/>
</g>
<!-- Node17&#45;&gt;Node3 -->
<g id="edge31" class="edge"><title>Node17&#45;&gt;Node3</title>
<path fill="none" stroke="midnightblue" d="M620.236,-230.048C584.462,-219.56 533.218,-204.535 500.783,-195.025"/>
<polygon fill="midnightblue" stroke="midnightblue" points="619.307,-233.423 629.887,-232.878 621.276,-226.706 619.307,-233.423"/>
</g>
<!-- Node17&#45;&gt;Node4 -->
<g id="edge32" class="edge"><title>Node17&#45;&gt;Node4</title>
<path fill="none" stroke="midnightblue" d="M641.697,-226.169C612.183,-201.963 556.779,-156.524 533.144,-137.139"/>
<polygon fill="midnightblue" stroke="midnightblue" points="639.673,-229.036 649.625,-232.671 644.112,-223.623 639.673,-229.036"/>
</g>
<!-- Node17&#45;&gt;Node6 -->
<g id="edge48" class="edge"><title>Node17&#45;&gt;Node6</title>
<path fill="none" stroke="midnightblue" d="M658.541,-222.776C653.823,-185.886 643.658,-106.417 640.189,-79.2932"/>
<polygon fill="midnightblue" stroke="midnightblue" points="655.077,-223.277 659.817,-232.753 662.02,-222.389 655.077,-223.277"/>
</g>
<!-- Node17&#45;&gt;Node8 -->
<g id="edge58" class="edge"><title>Node17&#45;&gt;Node8</title>
<path fill="none" stroke="midnightblue" d="M711.423,-239.437C780.617,-233.17 904.433,-211.659 975,-138 1006.27,-105.358 997.72,-44.1968 993.071,-21.1232"/>
<polygon fill="midnightblue" stroke="midnightblue" points="710.888,-235.969 701.213,-240.287 711.469,-242.945 710.888,-235.969"/>
</g>
<!-- Node17&#45;&gt;Node9 -->
<g id="edge46" class="edge"><title>Node17&#45;&gt;Node9</title>
<path fill="none" stroke="midnightblue" d="M610.614,-238.593C549.698,-233.404 452.188,-221.319 427,-196 411.403,-180.321 411.511,-152.052 412.805,-137.39"/>
<polygon fill="midnightblue" stroke="midnightblue" points="610.546,-242.099 620.798,-239.425 611.117,-235.122 610.546,-242.099"/>
</g>
<!-- Node17&#45;&gt;Node10 -->
<g id="edge47" class="edge"><title>Node17&#45;&gt;Node10</title>
<path fill="none" stroke="midnightblue" d="M649.703,-224.166C644.323,-215.651 637.81,-205.311 632,-196 618.924,-175.046 603.727,-150.356 595.68,-137.256"/>
<polygon fill="midnightblue" stroke="midnightblue" points="646.894,-226.272 655.198,-232.852 652.81,-222.529 646.894,-226.272"/>
</g>
<!-- Node17&#45;&gt;Node11 -->
<g id="edge49" class="edge"><title>Node17&#45;&gt;Node11</title>
<path fill="none" stroke="midnightblue" d="M610.924,-239.818C542.66,-235.843 417.091,-224.954 314,-196 261.664,-181.301 204.083,-152.065 176.507,-137.175"/>
<polygon fill="midnightblue" stroke="midnightblue" points="610.795,-243.316 620.974,-240.377 611.183,-236.327 610.795,-243.316"/>
</g>
<!-- Node17&#45;&gt;Node12 -->
<g id="edge50" class="edge"><title>Node17&#45;&gt;Node12</title>
<path fill="none" stroke="midnightblue" d="M705.056,-230.11C732.652,-221.985 768.618,-210.144 799,-196 836.493,-178.546 877.104,-151.297 897.216,-137.177"/>
<polygon fill="midnightblue" stroke="midnightblue" points="703.928,-226.793 695.293,-232.932 705.872,-233.517 703.928,-226.793"/>
</g>
<!-- Node17&#45;&gt;Node13 -->
<g id="edge51" class="edge"><title>Node17&#45;&gt;Node13</title>
<path fill="none" stroke="midnightblue" d="M703.233,-229.595C724.995,-221.985 751.246,-210.827 772,-196 795.572,-179.16 816.255,-151.398 826.025,-137.115"/>
<polygon fill="midnightblue" stroke="midnightblue" points="701.946,-226.335 693.585,-232.843 704.18,-232.969 701.946,-226.335"/>
</g>
<!-- Node17&#45;&gt;Node14 -->
<g id="edge52" class="edge"><title>Node17&#45;&gt;Node14</title>
<path fill="none" stroke="midnightblue" d="M610.55,-238.784C551.805,-233.954 452.428,-222.394 371,-196 324.841,-181.038 275.019,-151.921 251.224,-137.116"/>
<polygon fill="midnightblue" stroke="midnightblue" points="610.435,-242.286 620.679,-239.583 610.985,-235.308 610.435,-242.286"/>
</g>
<!-- Node17&#45;&gt;Node15 -->
<g id="edge53" class="edge"><title>Node17&#45;&gt;Node15</title>
<path fill="none" stroke="midnightblue" d="M610.707,-239.512C558.947,-235.418 476.926,-224.595 412,-196 378.665,-181.318 346.259,-152.074 331.03,-137.179"/>
<polygon fill="midnightblue" stroke="midnightblue" points="610.729,-243.023 620.959,-240.266 611.243,-236.042 610.729,-243.023"/>
</g>
<!-- Node17&#45;&gt;Node16 -->
<g id="edge54" class="edge"><title>Node17&#45;&gt;Node16</title>
<path fill="none" stroke="midnightblue" d="M710.593,-229.518C727.681,-222.584 745.019,-211.997 755,-196 766.405,-177.722 759.066,-151.064 753.871,-137.179"/>
<polygon fill="midnightblue" stroke="midnightblue" points="709.336,-226.251 701.173,-233.005 711.767,-232.815 709.336,-226.251"/>
</g>
<!-- Node18 -->
<g id="node18" class="node"><title>Node18</title>
<g id="a_node18"><a xlink:href="a00211.html" target="_top" xlink:title="Handle read/write of Model data from/to files. ">
<polygon fill="none" stroke="black" points="673.929,-175 673.929,-195 746.071,-195 746.071,-175 673.929,-175"/>
<text text-anchor="middle" x="710" y="-181" font-family="Helvetica,sans-Serif" font-size="10.00">FileHandle.h</text>
</a>
</g>
</g>
<!-- Node17&#45;&gt;Node18 -->
<g id="edge33" class="edge"><title>Node17&#45;&gt;Node18</title>
<path fill="none" stroke="midnightblue" d="M675.775,-225.114C684.411,-215.244 694.973,-203.174 702.059,-195.075"/>
<polygon fill="midnightblue" stroke="midnightblue" points="673.042,-222.922 669.091,-232.753 678.31,-227.532 673.042,-222.922"/>
</g>
<!-- Node20 -->
<g id="node20" class="node"><title>Node20</title>
<g id="a_node20"><a xlink:href="a00222.html" target="_top" xlink:title="Helper functions for manipulating RMF files. ">
<polygon fill="none" stroke="black" points="179.596,-175 179.596,-195 228.404,-195 228.404,-175 179.596,-175"/>
<text text-anchor="middle" x="204" y="-181" font-family="Helvetica,sans-Serif" font-size="10.00">Label.h</text>
</a>
</g>
</g>
<!-- Node17&#45;&gt;Node20 -->
<g id="edge55" class="edge"><title>Node17&#45;&gt;Node20</title>
<path fill="none" stroke="midnightblue" d="M610.692,-238.892C531.673,-233.469 373.871,-220.451 242,-196 237.573,-195.179 232.903,-194.117 228.409,-192.992"/>
<polygon fill="midnightblue" stroke="midnightblue" points="610.637,-242.396 620.849,-239.577 611.107,-235.412 610.637,-242.396"/>
</g>
<!-- Node18&#45;&gt;Node4 -->
<g id="edge34" class="edge"><title>Node18&#45;&gt;Node4</title>
<path fill="none" stroke="midnightblue" d="M668.539,-172.183C636.833,-163.067 592.07,-150.023 553,-138 550.298,-137.168 547.468,-136.28 544.665,-135.389"/>
<polygon fill="midnightblue" stroke="midnightblue" points="667.772,-175.604 678.35,-174.999 669.703,-168.876 667.772,-175.604"/>
</g>
<!-- Node18&#45;&gt;Node6 -->
<g id="edge37" class="edge"><title>Node18&#45;&gt;Node6</title>
<path fill="none" stroke="midnightblue" d="M698.746,-165.931C683.379,-141.256 656.402,-97.9416 644.692,-79.1394"/>
<polygon fill="midnightblue" stroke="midnightblue" points="695.932,-168.033 704.19,-174.671 701.874,-164.332 695.932,-168.033"/>
</g>
<!-- Node18&#45;&gt;Node8 -->
<g id="edge45" class="edge"><title>Node18&#45;&gt;Node8</title>
<path fill="none" stroke="midnightblue" d="M756.592,-180.788C818.603,-175.589 923.738,-163.253 952,-138 987.005,-106.722 990.956,-44.7401 991.141,-21.2856"/>
<polygon fill="midnightblue" stroke="midnightblue" points="755.972,-177.327 746.286,-181.62 756.535,-184.304 755.972,-177.327"/>
</g>
<!-- Node18&#45;&gt;Node9 -->
<g id="edge35" class="edge"><title>Node18&#45;&gt;Node9</title>
<path fill="none" stroke="midnightblue" d="M663.541,-175.21C602.277,-163.62 496.191,-143.55 444.321,-133.736"/>
<polygon fill="midnightblue" stroke="midnightblue" points="663.228,-178.713 673.705,-177.133 664.53,-171.835 663.228,-178.713"/>
</g>
<!-- Node18&#45;&gt;Node10 -->
<g id="edge36" class="edge"><title>Node18&#45;&gt;Node10</title>
<path fill="none" stroke="midnightblue" d="M681.187,-170.554C659.015,-160.207 628.974,-146.188 609.539,-137.118"/>
<polygon fill="midnightblue" stroke="midnightblue" points="679.911,-173.821 690.453,-174.878 682.871,-167.477 679.911,-173.821"/>
</g>
<!-- Node18&#45;&gt;Node11 -->
<g id="edge38" class="edge"><title>Node18&#45;&gt;Node11</title>
<path fill="none" stroke="midnightblue" d="M663.614,-181.762C574.373,-177.017 372.762,-164.171 205,-138 202.153,-137.556 199.217,-137.039 196.274,-136.478"/>
<polygon fill="midnightblue" stroke="midnightblue" points="663.508,-185.261 673.677,-182.288 663.873,-178.27 663.508,-185.261"/>
</g>
<!-- Node18&#45;&gt;Node12 -->
<g id="edge39" class="edge"><title>Node18&#45;&gt;Node12</title>
<path fill="none" stroke="midnightblue" d="M752.685,-172.048C790.144,-161.56 843.803,-146.535 877.767,-137.025"/>
<polygon fill="midnightblue" stroke="midnightblue" points="751.264,-168.811 742.579,-174.878 753.152,-175.552 751.264,-168.811"/>
</g>
<!-- Node18&#45;&gt;Node13 -->
<g id="edge40" class="edge"><title>Node18&#45;&gt;Node13</title>
<path fill="none" stroke="midnightblue" d="M738.991,-170.693C761.561,-160.333 792.288,-146.229 812.136,-137.118"/>
<polygon fill="midnightblue" stroke="midnightblue" points="737.501,-167.525 729.873,-174.878 740.421,-173.887 737.501,-167.525"/>
</g>
<!-- Node18&#45;&gt;Node14 -->
<g id="edge41" class="edge"><title>Node18&#45;&gt;Node14</title>
<path fill="none" stroke="midnightblue" d="M663.567,-182.194C582.67,-178.374 410.958,-167.28 269,-138 266.264,-137.436 263.429,-136.731 260.628,-135.959"/>
<polygon fill="midnightblue" stroke="midnightblue" points="663.754,-185.706 673.903,-182.665 664.073,-178.713 663.754,-185.706"/>
</g>
<!-- Node18&#45;&gt;Node15 -->
<g id="edge42" class="edge"><title>Node18&#45;&gt;Node15</title>
<path fill="none" stroke="midnightblue" d="M663.435,-178.353C598.631,-170.325 477.637,-154.719 375,-138 372.135,-137.533 369.187,-137.033 366.217,-136.514"/>
<polygon fill="midnightblue" stroke="midnightblue" points="663.37,-181.872 673.723,-179.623 664.227,-174.924 663.37,-181.872"/>
</g>
<!-- Node18&#45;&gt;Node16 -->
<g id="edge43" class="edge"><title>Node18&#45;&gt;Node16</title>
<path fill="none" stroke="midnightblue" d="M722.486,-166.52C729.455,-156.763 737.848,-145.012 743.518,-137.075"/>
<polygon fill="midnightblue" stroke="midnightblue" points="719.57,-164.581 716.605,-174.753 725.266,-168.65 719.57,-164.581"/>
</g>
<!-- Node18&#45;&gt;Node19 -->
<g id="edge44" class="edge"><title>Node18&#45;&gt;Node19</title>
<path fill="none" stroke="midnightblue" d="M756.234,-177.731C841.762,-166.134 1022.43,-141.637 1093.44,-132.008"/>
<polygon fill="midnightblue" stroke="midnightblue" points="755.728,-174.267 746.289,-179.079 756.669,-181.204 755.728,-174.267"/>
</g>
<!-- Node21 -->
<g id="node21" class="node"><title>Node21</title>
<g id="a_node21"><a xlink:href="a00223.html" target="_top" xlink:title="Helper functions for manipulating RMF files. ">
<polygon fill="none" stroke="black" points="77.7661,-59 77.7661,-79 128.234,-79 128.234,-59 77.7661,-59"/>
<text text-anchor="middle" x="103" y="-65" font-family="Helvetica,sans-Serif" font-size="10.00">labels.h</text>
</a>
</g>
</g>
<!-- Node20&#45;&gt;Node21 -->
<g id="edge56" class="edge"><title>Node20&#45;&gt;Node21</title>
<path fill="none" stroke="midnightblue" d="M169.654,-174.547C150.646,-167.539 128.252,-156.016 115,-138 102.072,-120.425 101.461,-93.4699 102.188,-79.3552"/>
<polygon fill="midnightblue" stroke="midnightblue" points="168.625,-177.893 179.219,-177.81 170.885,-171.268 168.625,-177.893"/>
</g>
<!-- Node21&#45;&gt;Node5 -->
<g id="edge57" class="edge"><title>Node21&#45;&gt;Node5</title>
<path fill="none" stroke="midnightblue" d="M138.181,-63.298C216.916,-52.775 406.631,-27.4193 486.067,-16.8025"/>
<polygon fill="midnightblue" stroke="midnightblue" points="137.715,-59.8291 128.267,-64.6231 138.642,-66.7674 137.715,-59.8291"/>
</g>
<!-- Node22&#45;&gt;Node8 -->
<g id="edge66" class="edge"><title>Node22&#45;&gt;Node8</title>
<path fill="none" stroke="midnightblue" d="M1240.23,-227.878C1226.41,-219.988 1210.41,-209.099 1199,-196 1173.15,-166.314 1186.25,-146.197 1161,-116 1132.6,-82.0327 1117.77,-81.1141 1080,-58 1056.86,-43.8356 1028.87,-29.8525 1010.54,-21.0895"/>
<polygon fill="midnightblue" stroke="midnightblue" points="1238.91,-231.146 1249.37,-232.851 1242.26,-224.997 1238.91,-231.146"/>
</g>
<!-- Node22&#45;&gt;Node18 -->
<g id="edge60" class="edge"><title>Node22&#45;&gt;Node18</title>
<path fill="none" stroke="midnightblue" d="M1209.27,-236.016C1093.24,-224.392 840.51,-199.074 746.332,-189.64"/>
<polygon fill="midnightblue" stroke="midnightblue" points="1209.09,-239.516 1219.39,-237.03 1209.79,-232.551 1209.09,-239.516"/>
</g>
<!-- Node22&#45;&gt;Node19 -->
<g id="edge65" class="edge"><title>Node22&#45;&gt;Node19</title>
<path fill="none" stroke="midnightblue" d="M1328.62,-240.615C1400.56,-237.538 1515.23,-227.658 1542,-196 1548.31,-188.534 1548.53,-181.281 1542,-174 1516.02,-145.015 1243.84,-132.436 1152.61,-129.013"/>
<polygon fill="midnightblue" stroke="midnightblue" points="1328.19,-237.129 1318.33,-241.021 1328.46,-244.124 1328.19,-237.129"/>
</g>
<!-- Node23 -->
<g id="node23" class="node"><title>Node23</title>
<g id="a_node23"><a xlink:href="a00218.html" target="_top" xlink:title="Helper functions for manipulating RMF files. ">
<polygon fill="none" stroke="black" points="1589.77,-175 1589.77,-195 1630.23,-195 1630.23,-175 1589.77,-175"/>
<text text-anchor="middle" x="1610" y="-181" font-family="Helvetica,sans-Serif" font-size="10.00">info.h</text>
</a>
</g>
</g>
<!-- Node22&#45;&gt;Node23 -->
<g id="edge61" class="edge"><title>Node22&#45;&gt;Node23</title>
<path fill="none" stroke="midnightblue" d="M1328.32,-235.563C1390.48,-228.247 1490.76,-214.829 1576,-196 1580.45,-195.018 1585.16,-193.768 1589.62,-192.487"/>
<polygon fill="midnightblue" stroke="midnightblue" points="1327.83,-232.096 1318.3,-236.728 1328.64,-239.049 1327.83,-232.096"/>
</g>
<!-- Node24 -->
<g id="node24" class="node"><title>Node24</title>
<g id="a_node24"><a xlink:href="a00245.html" target="_top" xlink:title="Handle read/write of Model data from/to files. ">
<polygon fill="none" stroke="black" points="1208.2,-175 1208.2,-195 1329.8,-195 1329.8,-175 1208.2,-175"/>
<text text-anchor="middle" x="1269" y="-181" font-family="Helvetica,sans-Serif" font-size="10.00">RestoreCurrentFrame.h</text>
</a>
</g>
</g>
<!-- Node22&#45;&gt;Node24 -->
<g id="edge62" class="edge"><title>Node22&#45;&gt;Node24</title>
<path fill="none" stroke="midnightblue" d="M1269,-222.707C1269,-213.338 1269,-202.526 1269,-195.075"/>
<polygon fill="midnightblue" stroke="midnightblue" points="1265.5,-222.753 1269,-232.753 1272.5,-222.753 1265.5,-222.753"/>
</g>
<!-- Node25 -->
<g id="node25" class="node"><title>Node25</title>
<g id="a_node25"><a xlink:href="a00249.html" target="_top" xlink:title="Handle read/write of Model data from/to files. ">
<polygon fill="none" stroke="black" points="1348.21,-175 1348.21,-195 1449.79,-195 1449.79,-175 1348.21,-175"/>
<text text-anchor="middle" x="1399" y="-181" font-family="Helvetica,sans-Serif" font-size="10.00">SetCurrentFrame.h</text>
</a>
</g>
</g>
<!-- Node22&#45;&gt;Node25 -->
<g id="edge63" class="edge"><title>Node22&#45;&gt;Node25</title>
<path fill="none" stroke="midnightblue" d="M1299.57,-228.831C1323.65,-218.459 1356.59,-204.269 1377.83,-195.118"/>
<polygon fill="midnightblue" stroke="midnightblue" points="1297.98,-225.707 1290.18,-232.878 1300.74,-232.136 1297.98,-225.707"/>
</g>
<!-- Node26 -->
<g id="node26" class="node"><title>Node26</title>
<g id="a_node26"><a xlink:href="a00252.html" target="_top" xlink:title="Helper functions for manipulating RMF files. ">
<polygon fill="none" stroke="black" points="1468.26,-175 1468.26,-195 1533.74,-195 1533.74,-175 1468.26,-175"/>
<text text-anchor="middle" x="1501" y="-181" font-family="Helvetica,sans-Serif" font-size="10.00">signature.h</text>
</a>
</g>
</g>
<!-- Node22&#45;&gt;Node26 -->
<g id="edge64" class="edge"><title>Node22&#45;&gt;Node26</title>
<path fill="none" stroke="midnightblue" d="M1316.39,-230.562C1361.55,-219.659 1428.38,-203.528 1468.03,-193.959"/>
<polygon fill="midnightblue" stroke="midnightblue" points="1315.43,-227.192 1306.53,-232.94 1317.07,-233.996 1315.43,-227.192"/>
</g>
</g>
</svg>
        <g id="navigator" transform="translate(0 0)" fill="#404254">
                <rect fill="#f2f5e9" fill-opacity="0.5" stroke="#606060" stroke-width=".5" x="0" y="0" width="60" height="60"/>
                <use id="zoomplus" xlink:href="#zoomPlus" x="17" y="9" onmousedown="handleZoom(evt,'in')"/>
                <use id="zoomminus" xlink:href="#zoomMin" x="42" y="9" onmousedown="handleZoom(evt,'out')"/>
                <use id="reset" xlink:href="#resetDef" x="30" y="36" onmousedown="handleReset()"/>
                <g id="arrowUp" xlink:href="#dirArrow" transform="translate(30 24)" onmousedown="handlePan(0,-1)">
                  <use xlink:href="#rim" fill="#404040">
                        <set attributeName="fill" to="#808080" begin="arrowUp.mouseover" end="arrowUp.mouseout"/>
                  </use>
                  <path fill="none" stroke="white" stroke-width="1.5" d="M0,-3.0v7 M-2.5,-0.5L0,-3.0L2.5,-0.5"/>
                </g>
                <g id="arrowRight" xlink:href="#dirArrow" transform="rotate(90) translate(36 -43)" onmousedown="handlePan(1,0)">
                  <use xlink:href="#rim" fill="#404040">
                        <set attributeName="fill" to="#808080" begin="arrowRight.mouseover" end="arrowRight.mouseout"/>
                  </use>
                  <path fill="none" stroke="white" stroke-width="1.5" d="M0,-3.0v7 M-2.5,-0.5L0,-3.0L2.5,-0.5"/>
                </g>
                <g id="arrowDown" xlink:href="#dirArrow" transform="rotate(180) translate(-30 -48)" onmousedown="handlePan(0,1)">
                  <use xlink:href="#rim" fill="#404040">
                        <set attributeName="fill" to="#808080" begin="arrowDown.mouseover" end="arrowDown.mouseout"/>
                  </use>
                  <path fill="none" stroke="white" stroke-width="1.5" d="M0,-3.0v7 M-2.5,-0.5L0,-3.0L2.5,-0.5"/>
                </g>
                <g id="arrowLeft" xlink:href="#dirArrow" transform="rotate(270) translate(-36 17)" onmousedown="handlePan(-1,0)">
                  <use xlink:href="#rim" fill="#404040">
                        <set attributeName="fill" to="#808080" begin="arrowLeft.mouseover" end="arrowLeft.mouseout"/>
                  </use>
                  <path fill="none" stroke="white" stroke-width="1.5" d="M0,-3.0v7 M-2.5,-0.5L0,-3.0L2.5,-0.5"/>
                </g>
        </g>
        <svg viewBox="0 0 15 15" width="100%" height="30px" preserveAspectRatio="xMaxYMin meet">
         <g id="arrow_out" transform="scale(0.3 0.3)">
          <a xlink:href="a00299_org.svg" target="_base">
           <rect id="button" ry="5" rx="5" y="6" x="6" height="38" width="38"
                fill="#f2f5e9" fill-opacity="0.5" stroke="#606060" stroke-width="1.0"/>
           <path id="arrow"
             d="M 11.500037,31.436501 C 11.940474,20.09759 22.043105,11.32322 32.158766,21.979434 L 37.068811,17.246167 C 37.068811,17.246167 37.088388,32 37.088388,32 L 22.160133,31.978069 C 22.160133,31.978069 26.997745,27.140456 26.997745,27.140456 C 18.528582,18.264221 13.291696,25.230495 11.500037,31.436501 z"
             style="fill:#404040;"/>
          </a>
         </g>
        </svg>
</svg>
