<?xml version="1.0" encoding="UTF-8" standalone="no"?>
<!DOCTYPE svg PUBLIC "-//W3C//DTD SVG 1.1//EN"
 "http://www.w3.org/Graphics/SVG/1.1/DTD/svg11.dtd">
<!-- Generated by graphviz version 2.34.0 (20131025.1349)
 -->
<!-- Title: constants.h Pages: 1 -->
<svg width="1223pt" height="262pt"
 viewBox="0.00 0.00 1223.00 262.00" xmlns="http://www.w3.org/2000/svg" xmlns:xlink="http://www.w3.org/1999/xlink">
<g id="graph0" class="graph" transform="scale(1 1) rotate(0) translate(4 258)">
<title>constants.h</title>
<!-- Node1 -->
<g id="node1" class="node"><title>Node1</title>
<polygon fill="#bfbfbf" stroke="black" points="1070.43,-233 1070.43,-253 1137.57,-253 1137.57,-233 1070.43,-233"/>
<text text-anchor="middle" x="1104" y="-239" font-family="Helvetica,sans-Serif" font-size="10.00">constants.h</text>
</g>
<!-- Node2 -->
<g id="node2" class="node"><title>Node2</title>
<g id="a_node2"><a xlink:href="a00186_source.html" target="_top" xlink:title="RMF/config.h">
<polygon fill="none" stroke="black" points="1139.27,-59 1139.27,-79 1214.73,-79 1214.73,-59 1139.27,-59"/>
<text text-anchor="middle" x="1177" y="-65" font-family="Helvetica,sans-Serif" font-size="10.00">RMF/config.h</text>
</a>
</g>
</g>
<!-- Node1&#45;&gt;Node2 -->
<g id="edge1" class="edge"><title>Node1&#45;&gt;Node2</title>
<path fill="none" stroke="midnightblue" d="M1107.92,-232.753C1119.46,-205.571 1153.43,-125.538 1169.02,-88.8111"/>
<polygon fill="midnightblue" stroke="midnightblue" points="1172.37,-89.8659 1173.06,-79.2932 1165.93,-87.131 1172.37,-89.8659"/>
</g>
<!-- Node4 -->
<g id="node4" class="node"><title>Node4</title>
<g id="a_node4"><a xlink:href="a00217.html" target="_top" xlink:title="Handle read/write of Model data from/to files. ">
<polygon fill="none" stroke="black" points="1027.83,-175 1027.83,-195 1062.17,-195 1062.17,-175 1027.83,-175"/>
<text text-anchor="middle" x="1045" y="-181" font-family="Helvetica,sans-Serif" font-size="10.00">ID.h</text>
</a>
</g>
</g>
<!-- Node1&#45;&gt;Node4 -->
<g id="edge3" class="edge"><title>Node1&#45;&gt;Node4</title>
<path fill="none" stroke="midnightblue" d="M1094.26,-232.753C1085.49,-224.435 1072.43,-212.031 1061.95,-202.089"/>
<polygon fill="midnightblue" stroke="midnightblue" points="1064.22,-199.421 1054.56,-195.075 1059.4,-204.498 1064.22,-199.421"/>
</g>
<!-- Node3 -->
<g id="node3" class="node"><title>Node3</title>
<g id="a_node3"><a xlink:href="a00185.html" target="_top" xlink:title="Various compiler workarounds. ">
<polygon fill="none" stroke="black" points="674.544,-1 674.544,-21 799.456,-21 799.456,-1 674.544,-1"/>
<text text-anchor="middle" x="737" y="-7" font-family="Helvetica,sans-Serif" font-size="10.00">RMF/compiler_macros.h</text>
</a>
</g>
</g>
<!-- Node2&#45;&gt;Node3 -->
<g id="edge2" class="edge"><title>Node2&#45;&gt;Node3</title>
<path fill="none" stroke="midnightblue" d="M1139.09,-59.618C1136.02,-59.0358 1132.96,-58.4876 1130,-58 1018.91,-39.721 888.985,-25.993 809.873,-18.4807"/>
<polygon fill="midnightblue" stroke="midnightblue" points="809.815,-14.9598 799.531,-17.5066 809.159,-21.929 809.815,-14.9598"/>
</g>
<!-- Node4&#45;&gt;Node2 -->
<g id="edge4" class="edge"><title>Node4&#45;&gt;Node2</title>
<path fill="none" stroke="midnightblue" d="M1045.1,-174.883C1045.74,-160.597 1048.99,-132.832 1064,-116 1074.15,-104.617 1108.65,-91.4832 1136.88,-82.1709"/>
<polygon fill="midnightblue" stroke="midnightblue" points="1138.11,-85.45 1146.55,-79.0455 1135.96,-78.7889 1138.11,-85.45"/>
</g>
<!-- Node5 -->
<g id="node5" class="node"><title>Node5</title>
<g id="a_node5"><a xlink:href="a00219.html" target="_top" xlink:title="Various general useful macros for IMP. ">
<polygon fill="none" stroke="black" points="365.48,-117 365.48,-137 486.52,-137 486.52,-117 365.48,-117"/>
<text text-anchor="middle" x="426" y="-123" font-family="Helvetica,sans-Serif" font-size="10.00">infrastructure_macros.h</text>
</a>
</g>
</g>
<!-- Node4&#45;&gt;Node5 -->
<g id="edge5" class="edge"><title>Node4&#45;&gt;Node5</title>
<path fill="none" stroke="midnightblue" d="M1027.8,-182.444C951.22,-175.516 638.861,-147.257 496.862,-134.411"/>
<polygon fill="midnightblue" stroke="midnightblue" points="496.803,-130.891 486.528,-133.476 496.172,-137.863 496.803,-130.891"/>
</g>
<!-- Node14 -->
<g id="node14" class="node"><title>Node14</title>
<g id="a_node14"><a xlink:href="a00204.html" target="_top" xlink:title="Various general useful macros for IMP. ">
<polygon fill="none" stroke="black" points="932.926,-117 932.926,-137 1005.07,-137 1005.07,-117 932.926,-117"/>
<text text-anchor="middle" x="969" y="-123" font-family="Helvetica,sans-Serif" font-size="10.00">exceptions.h</text>
</a>
</g>
</g>
<!-- Node4&#45;&gt;Node14 -->
<g id="edge15" class="edge"><title>Node4&#45;&gt;Node14</title>
<path fill="none" stroke="midnightblue" d="M1032.45,-174.753C1020.83,-166.19 1003.33,-153.298 989.654,-143.219"/>
<polygon fill="midnightblue" stroke="midnightblue" points="991.443,-140.19 981.316,-137.075 987.291,-145.825 991.443,-140.19"/>
</g>
<!-- Node18 -->
<g id="node18" class="node"><title>Node18</title>
<polygon fill="none" stroke="#bfbfbf" points="1072.61,-117 1072.61,-137 1111.39,-137 1111.39,-117 1072.61,-117"/>
<text text-anchor="middle" x="1092" y="-123" font-family="Helvetica,sans-Serif" font-size="10.00">limits</text>
</g>
<!-- Node4&#45;&gt;Node18 -->
<g id="edge22" class="edge"><title>Node4&#45;&gt;Node18</title>
<path fill="none" stroke="midnightblue" d="M1052.76,-174.753C1059.54,-166.68 1069.54,-154.757 1077.76,-144.973"/>
<polygon fill="midnightblue" stroke="midnightblue" points="1080.64,-146.985 1084.38,-137.075 1075.27,-142.485 1080.64,-146.985"/>
</g>
<!-- Node5&#45;&gt;Node3 -->
<g id="edge9" class="edge"><title>Node5&#45;&gt;Node3</title>
<path fill="none" stroke="midnightblue" d="M484.126,-116.986C523.642,-109.732 576.601,-97.7818 621,-80 625.832,-78.0647 680.258,-45.8069 712.813,-26.4261"/>
<polygon fill="midnightblue" stroke="midnightblue" points="714.946,-29.2295 721.746,-21.1047 711.363,-23.2157 714.946,-29.2295"/>
</g>
<!-- Node6 -->
<g id="node6" class="node"><title>Node6</title>
<polygon fill="none" stroke="#bfbfbf" points="287.219,-59 287.219,-79 338.781,-79 338.781,-59 287.219,-59"/>
<text text-anchor="middle" x="313" y="-65" font-family="Helvetica,sans-Serif" font-size="10.00">sstream</text>
</g>
<!-- Node5&#45;&gt;Node6 -->
<g id="edge6" class="edge"><title>Node5&#45;&gt;Node6</title>
<path fill="none" stroke="midnightblue" d="M407.593,-116.878C389.371,-107.847 361.253,-93.9132 340.405,-83.5812"/>
<polygon fill="midnightblue" stroke="midnightblue" points="341.913,-80.4225 331.399,-79.1181 338.805,-86.6946 341.913,-80.4225"/>
</g>
<!-- Node7 -->
<g id="node7" class="node"><title>Node7</title>
<polygon fill="none" stroke="#bfbfbf" points="356.828,-59 356.828,-79 411.172,-79 411.172,-59 356.828,-59"/>
<text text-anchor="middle" x="384" y="-65" font-family="Helvetica,sans-Serif" font-size="10.00">iostream</text>
</g>
<!-- Node5&#45;&gt;Node7 -->
<g id="edge7" class="edge"><title>Node5&#45;&gt;Node7</title>
<path fill="none" stroke="midnightblue" d="M419.065,-116.753C413.071,-108.761 404.248,-96.9975 396.952,-87.2698"/>
<polygon fill="midnightblue" stroke="midnightblue" points="399.606,-84.9752 390.806,-79.0752 394.006,-89.1752 399.606,-84.9752"/>
</g>
<!-- Node8 -->
<g id="node8" class="node"><title>Node8</title>
<polygon fill="none" stroke="#bfbfbf" points="668.773,-59 668.773,-79 709.227,-79 709.227,-59 668.773,-59"/>
<text text-anchor="middle" x="689" y="-65" font-family="Helvetica,sans-Serif" font-size="10.00">string</text>
</g>
<!-- Node5&#45;&gt;Node8 -->
<g id="edge8" class="edge"><title>Node5&#45;&gt;Node8</title>
<path fill="none" stroke="midnightblue" d="M477.674,-116.96C524.276,-108.491 594.57,-94.9256 655,-80 656.243,-79.6929 657.509,-79.3697 658.785,-79.035"/>
<polygon fill="midnightblue" stroke="midnightblue" points="659.88,-82.3636 668.583,-76.3209 658.011,-75.6177 659.88,-82.3636"/>
</g>
<!-- Node9 -->
<g id="node9" class="node"><title>Node9</title>
<polygon fill="none" stroke="#bfbfbf" points="428.98,-59 428.98,-79 505.02,-79 505.02,-59 428.98,-59"/>
<text text-anchor="middle" x="467" y="-65" font-family="Helvetica,sans-Serif" font-size="10.00">internal/use.h</text>
</g>
<!-- Node5&#45;&gt;Node9 -->
<g id="edge10" class="edge"><title>Node5&#45;&gt;Node9</title>
<path fill="none" stroke="midnightblue" d="M432.77,-116.753C438.621,-108.761 447.234,-96.9975 454.356,-87.2698"/>
<polygon fill="midnightblue" stroke="midnightblue" points="457.272,-89.2114 460.356,-79.0752 451.624,-85.0762 457.272,-89.2114"/>
</g>
<!-- Node10 -->
<g id="node10" class="node"><title>Node10</title>
<polygon fill="none" stroke="#bfbfbf" points="523.306,-59 523.306,-79 612.694,-79 612.694,-59 523.306,-59"/>
<text text-anchor="middle" x="568" y="-65" font-family="Helvetica,sans-Serif" font-size="10.00">boost/config.hpp</text>
</g>
<!-- Node5&#45;&gt;Node10 -->
<g id="edge11" class="edge"><title>Node5&#45;&gt;Node10</title>
<path fill="none" stroke="midnightblue" d="M449.131,-116.878C472.545,-107.644 508.961,-93.283 535.318,-82.8887"/>
<polygon fill="midnightblue" stroke="midnightblue" points="536.86,-86.0428 544.879,-79.1181 534.292,-79.5309 536.86,-86.0428"/>
</g>
<!-- Node11 -->
<g id="node11" class="node"><title>Node11</title>
<polygon fill="none" stroke="#bfbfbf" points="-0.470215,-59 -0.470215,-79 94.4702,-79 94.4702,-59 -0.470215,-59"/>
<text text-anchor="middle" x="47" y="-65" font-family="Helvetica,sans-Serif" font-size="10.00">boost/version.hpp</text>
</g>
<!-- Node5&#45;&gt;Node11 -->
<g id="edge12" class="edge"><title>Node5&#45;&gt;Node11</title>
<path fill="none" stroke="midnightblue" d="M365.182,-117.989C302.34,-109.565 201.156,-95.5923 104.573,-80.2141"/>
<polygon fill="midnightblue" stroke="midnightblue" points="105.067,-76.7487 94.6395,-78.6248 103.961,-83.6608 105.067,-76.7487"/>
</g>
<!-- Node12 -->
<g id="node12" class="node"><title>Node12</title>
<polygon fill="none" stroke="#bfbfbf" points="111.971,-59 111.971,-79 208.029,-79 208.029,-59 111.971,-59"/>
<text text-anchor="middle" x="160" y="-65" font-family="Helvetica,sans-Serif" font-size="10.00">boost/foreach.hpp</text>
</g>
<!-- Node5&#45;&gt;Node12 -->
<g id="edge13" class="edge"><title>Node5&#45;&gt;Node12</title>
<path fill="none" stroke="midnightblue" d="M382.967,-116.94C336.609,-107.181 262.798,-91.6416 212.922,-81.1415"/>
<polygon fill="midnightblue" stroke="midnightblue" points="213.478,-77.6818 202.971,-79.0466 212.036,-84.5317 213.478,-77.6818"/>
</g>
<!-- Node13 -->
<g id="node13" class="node"><title>Node13</title>
<polygon fill="none" stroke="#bfbfbf" points="226.384,-59 226.384,-79 269.616,-79 269.616,-59 226.384,-59"/>
<text text-anchor="middle" x="248" y="-65" font-family="Helvetica,sans-Serif" font-size="10.00">vector</text>
</g>
<!-- Node5&#45;&gt;Node13 -->
<g id="edge14" class="edge"><title>Node5&#45;&gt;Node13</title>
<path fill="none" stroke="midnightblue" d="M396.179,-116.927C368.237,-108.382 325.069,-95.0728 279.658,-80.4981"/>
<polygon fill="midnightblue" stroke="midnightblue" points="280.53,-77.1019 269.938,-77.37 278.385,-83.7654 280.53,-77.1019"/>
</g>
<!-- Node14&#45;&gt;Node2 -->
<g id="edge19" class="edge"><title>Node14&#45;&gt;Node2</title>
<path fill="none" stroke="midnightblue" d="M1002.88,-116.878C1038.49,-107.29 1094.64,-92.1748 1133.5,-81.7116"/>
<polygon fill="midnightblue" stroke="midnightblue" points="1134.73,-85.0048 1143.48,-79.0253 1132.91,-78.2455 1134.73,-85.0048"/>
</g>
<!-- Node14&#45;&gt;Node3 -->
<g id="edge20" class="edge"><title>Node14&#45;&gt;Node3</title>
<path fill="none" stroke="midnightblue" d="M932.622,-122.655C878.679,-116.97 781.129,-103.67 756,-80 742.789,-67.5558 738.504,-46.7596 737.239,-31.4351"/>
<polygon fill="midnightblue" stroke="midnightblue" points="740.735,-31.2651 736.767,-21.4413 733.743,-31.5952 740.735,-31.2651"/>
</g>
<!-- Node14&#45;&gt;Node8 -->
<g id="edge18" class="edge"><title>Node14&#45;&gt;Node8</title>
<path fill="none" stroke="midnightblue" d="M932.908,-120.426C884.744,-112.721 796.937,-97.7378 723,-80 721.755,-79.7013 720.487,-79.385 719.209,-79.0561"/>
<polygon fill="midnightblue" stroke="midnightblue" points="719.976,-75.6371 709.406,-76.3658 718.123,-82.3875 719.976,-75.6371"/>
</g>
<!-- Node15 -->
<g id="node15" class="node"><title>Node15</title>
<polygon fill="none" stroke="#bfbfbf" points="893.451,-59 893.451,-79 1044.55,-79 1044.55,-59 893.451,-59"/>
<text text-anchor="middle" x="969" y="-65" font-family="Helvetica,sans-Serif" font-size="10.00">boost/exception/exception.hpp</text>
</g>
<!-- Node14&#45;&gt;Node15 -->
<g id="edge16" class="edge"><title>Node14&#45;&gt;Node15</title>
<path fill="none" stroke="midnightblue" d="M969,-116.753C969,-109.25 969,-98.4238 969,-89.0781"/>
<polygon fill="midnightblue" stroke="midnightblue" points="972.5,-89.0752 969,-79.0752 965.5,-89.0752 972.5,-89.0752"/>
</g>
<!-- Node16 -->
<g id="node16" class="node"><title>Node16</title>
<polygon fill="none" stroke="#bfbfbf" points="1062.6,-59 1062.6,-79 1121.4,-79 1121.4,-59 1062.6,-59"/>
<text text-anchor="middle" x="1092" y="-65" font-family="Helvetica,sans-Serif" font-size="10.00">exception</text>
</g>
<!-- Node14&#45;&gt;Node16 -->
<g id="edge17" class="edge"><title>Node14&#45;&gt;Node16</title>
<path fill="none" stroke="midnightblue" d="M989.036,-116.878C1009.05,-107.766 1040.03,-93.6617 1062.78,-83.3028"/>
<polygon fill="midnightblue" stroke="midnightblue" points="1064.32,-86.4472 1071.97,-79.1181 1061.42,-80.0764 1064.32,-86.4472"/>
</g>
<!-- Node17 -->
<g id="node17" class="node"><title>Node17</title>
<polygon fill="none" stroke="#bfbfbf" points="764.766,-59 764.766,-79 875.234,-79 875.234,-59 764.766,-59"/>
<text text-anchor="middle" x="820" y="-65" font-family="Helvetica,sans-Serif" font-size="10.00">RMF/internal/errors.h</text>
</g>
<!-- Node14&#45;&gt;Node17 -->
<g id="edge21" class="edge"><title>Node14&#45;&gt;Node17</title>
<path fill="none" stroke="midnightblue" d="M944.729,-116.878C920.052,-107.603 881.613,-93.1564 853.928,-82.7515"/>
<polygon fill="midnightblue" stroke="midnightblue" points="854.853,-79.36 844.261,-79.1181 852.39,-85.9125 854.853,-79.36"/>
</g>
</g>
</svg>
