<?xml version="1.0" encoding="UTF-8" standalone="no"?>
<!DOCTYPE svg PUBLIC "-//W3C//DTD SVG 1.1//EN"
 "http://www.w3.org/Graphics/SVG/1.1/DTD/svg11.dtd">
<!-- Generated by graphviz version 2.34.0 (20131025.1349)
 -->
<!-- Title: BufferHandle.h Pages: 1 -->
<svg width="1238pt" height="262pt"
 viewBox="0.00 0.00 1238.00 262.00" xmlns="http://www.w3.org/2000/svg" xmlns:xlink="http://www.w3.org/1999/xlink">
<g id="graph0" class="graph" transform="scale(1 1) rotate(0) translate(4 258)">
<title>BufferHandle.h</title>
<!-- Node1 -->
<g id="node1" class="node"><title>Node1</title>
<polygon fill="#bfbfbf" stroke="black" points="1007.73,-233 1007.73,-253 1090.27,-253 1090.27,-233 1007.73,-233"/>
<text text-anchor="middle" x="1049" y="-239" font-family="Helvetica,sans-Serif" font-size="10.00">BufferHandle.h</text>
</g>
<!-- Node2 -->
<g id="node2" class="node"><title>Node2</title>
<g id="a_node2"><a xlink:href="a00186_source.html" target="_top" xlink:title="RMF/config.h">
<polygon fill="none" stroke="black" points="1155.27,-59 1155.27,-79 1230.73,-79 1230.73,-59 1155.27,-59"/>
<text text-anchor="middle" x="1193" y="-65" font-family="Helvetica,sans-Serif" font-size="10.00">RMF/config.h</text>
</a>
</g>
</g>
<!-- Node1&#45;&gt;Node2 -->
<g id="edge1" class="edge"><title>Node1&#45;&gt;Node2</title>
<path fill="none" stroke="midnightblue" d="M1071.41,-232.958C1103.96,-218.449 1163.17,-186.572 1188,-138 1195.65,-123.03 1196.35,-103.74 1195.46,-89.5309"/>
<polygon fill="midnightblue" stroke="midnightblue" points="1198.93,-89.0316 1194.5,-79.4048 1191.96,-89.6895 1198.93,-89.0316"/>
</g>
<!-- Node4 -->
<g id="node4" class="node"><title>Node4</title>
<g id="a_node4"><a xlink:href="a00219.html" target="_top" xlink:title="Various general useful macros for IMP. ">
<polygon fill="none" stroke="black" points="326.48,-117 326.48,-137 447.52,-137 447.52,-117 326.48,-117"/>
<text text-anchor="middle" x="387" y="-123" font-family="Helvetica,sans-Serif" font-size="10.00">infrastructure_macros.h</text>
</a>
</g>
</g>
<!-- Node1&#45;&gt;Node4 -->
<g id="edge3" class="edge"><title>Node1&#45;&gt;Node4</title>
<path fill="none" stroke="midnightblue" d="M1007.62,-236.24C949.046,-227.974 838.661,-211.976 745,-196 637.116,-177.598 511.561,-153.015 441.481,-139.008"/>
<polygon fill="midnightblue" stroke="midnightblue" points="442.045,-135.551 431.552,-137.02 440.671,-142.415 442.045,-135.551"/>
</g>
<!-- Node13 -->
<g id="node13" class="node"><title>Node13</title>
<g id="a_node13"><a xlink:href="a00204.html" target="_top" xlink:title="Various general useful macros for IMP. ">
<polygon fill="none" stroke="black" points="1012.93,-117 1012.93,-137 1085.07,-137 1085.07,-117 1012.93,-117"/>
<text text-anchor="middle" x="1049" y="-123" font-family="Helvetica,sans-Serif" font-size="10.00">exceptions.h</text>
</a>
</g>
</g>
<!-- Node1&#45;&gt;Node13 -->
<g id="edge13" class="edge"><title>Node1&#45;&gt;Node13</title>
<path fill="none" stroke="midnightblue" d="M1049,-232.671C1049,-214.041 1049,-171.898 1049,-147.143"/>
<polygon fill="midnightblue" stroke="midnightblue" points="1052.5,-147.139 1049,-137.139 1045.5,-147.139 1052.5,-147.139"/>
</g>
<!-- Node17 -->
<g id="node17" class="node"><title>Node17</title>
<g id="a_node17"><a xlink:href="a00181.html" target="_top" xlink:title="Manage a memory buffer for reading/writing RMF files. ">
<polygon fill="none" stroke="black" points="753.672,-175 753.672,-195 862.328,-195 862.328,-175 753.672,-175"/>
<text text-anchor="middle" x="808" y="-181" font-family="Helvetica,sans-Serif" font-size="10.00">BufferConstHandle.h</text>
</a>
</g>
</g>
<!-- Node1&#45;&gt;Node17 -->
<g id="edge20" class="edge"><title>Node1&#45;&gt;Node17</title>
<path fill="none" stroke="midnightblue" d="M1010.01,-232.94C968.273,-223.242 901.973,-207.836 856.8,-197.339"/>
<polygon fill="midnightblue" stroke="midnightblue" points="857.465,-193.901 846.933,-195.047 855.881,-200.719 857.465,-193.901"/>
</g>
<!-- Node21 -->
<g id="node21" class="node"><title>Node21</title>
<polygon fill="none" stroke="#bfbfbf" points="1140.61,-117 1140.61,-137 1179.39,-137 1179.39,-117 1140.61,-117"/>
<text text-anchor="middle" x="1160" y="-123" font-family="Helvetica,sans-Serif" font-size="10.00">limits</text>
</g>
<!-- Node1&#45;&gt;Node21 -->
<g id="edge31" class="edge"><title>Node1&#45;&gt;Node21</title>
<path fill="none" stroke="midnightblue" d="M1058.08,-232.671C1076.88,-213.369 1120.24,-168.83 1143.9,-144.536"/>
<polygon fill="midnightblue" stroke="midnightblue" points="1146.63,-146.746 1151.1,-137.139 1141.62,-141.862 1146.63,-146.746"/>
</g>
<!-- Node3 -->
<g id="node3" class="node"><title>Node3</title>
<g id="a_node3"><a xlink:href="a00185.html" target="_top" xlink:title="Various compiler workarounds. ">
<polygon fill="none" stroke="black" points="690.544,-1 690.544,-21 815.456,-21 815.456,-1 690.544,-1"/>
<text text-anchor="middle" x="753" y="-7" font-family="Helvetica,sans-Serif" font-size="10.00">RMF/compiler_macros.h</text>
</a>
</g>
</g>
<!-- Node2&#45;&gt;Node3 -->
<g id="edge2" class="edge"><title>Node2&#45;&gt;Node3</title>
<path fill="none" stroke="midnightblue" d="M1155.09,-59.618C1152.02,-59.0358 1148.96,-58.4876 1146,-58 1034.91,-39.721 904.985,-25.993 825.873,-18.4807"/>
<polygon fill="midnightblue" stroke="midnightblue" points="825.815,-14.9598 815.531,-17.5066 825.159,-21.929 825.815,-14.9598"/>
</g>
<!-- Node4&#45;&gt;Node3 -->
<g id="edge7" class="edge"><title>Node4&#45;&gt;Node3</title>
<path fill="none" stroke="midnightblue" d="M431.365,-116.944C465.404,-109.23 513.157,-96.731 553,-80 570.993,-72.4443 573.031,-65.6127 591,-58 626.344,-43.0262 668.045,-31.3122 700.286,-23.4528"/>
<polygon fill="midnightblue" stroke="midnightblue" points="701.488,-26.7643 710.401,-21.0373 699.862,-19.9558 701.488,-26.7643"/>
</g>
<!-- Node5 -->
<g id="node5" class="node"><title>Node5</title>
<polygon fill="none" stroke="#bfbfbf" points="600.219,-59 600.219,-79 651.781,-79 651.781,-59 600.219,-59"/>
<text text-anchor="middle" x="626" y="-65" font-family="Helvetica,sans-Serif" font-size="10.00">sstream</text>
</g>
<!-- Node4&#45;&gt;Node5 -->
<g id="edge4" class="edge"><title>Node4&#45;&gt;Node5</title>
<path fill="none" stroke="midnightblue" d="M427.071,-116.958C467.294,-107.829 531.011,-93.2281 586,-80 587.435,-79.6547 588.899,-79.3001 590.377,-78.94"/>
<polygon fill="midnightblue" stroke="midnightblue" points="591.323,-82.3119 600.196,-76.5227 589.649,-75.5149 591.323,-82.3119"/>
</g>
<!-- Node6 -->
<g id="node6" class="node"><title>Node6</title>
<polygon fill="none" stroke="#bfbfbf" points="175.828,-59 175.828,-79 230.172,-79 230.172,-59 175.828,-59"/>
<text text-anchor="middle" x="203" y="-65" font-family="Helvetica,sans-Serif" font-size="10.00">iostream</text>
</g>
<!-- Node4&#45;&gt;Node6 -->
<g id="edge5" class="edge"><title>Node4&#45;&gt;Node6</title>
<path fill="none" stroke="midnightblue" d="M357.028,-116.878C325.052,-107.146 274.363,-91.7193 239.942,-81.2431"/>
<polygon fill="midnightblue" stroke="midnightblue" points="240.843,-77.859 230.257,-78.2957 238.805,-84.5558 240.843,-77.859"/>
</g>
<!-- Node7 -->
<g id="node7" class="node"><title>Node7</title>
<polygon fill="none" stroke="#bfbfbf" points="669.773,-59 669.773,-79 710.227,-79 710.227,-59 669.773,-59"/>
<text text-anchor="middle" x="690" y="-65" font-family="Helvetica,sans-Serif" font-size="10.00">string</text>
</g>
<!-- Node4&#45;&gt;Node7 -->
<g id="edge6" class="edge"><title>Node4&#45;&gt;Node7</title>
<path fill="none" stroke="midnightblue" d="M447.107,-116.985C510.634,-107.273 607.628,-91.8745 659.679,-79.6996"/>
<polygon fill="midnightblue" stroke="midnightblue" points="660.582,-83.082 669.467,-77.3102 658.922,-76.2817 660.582,-83.082"/>
</g>
<!-- Node8 -->
<g id="node8" class="node"><title>Node8</title>
<polygon fill="none" stroke="#bfbfbf" points="247.98,-59 247.98,-79 324.02,-79 324.02,-59 247.98,-59"/>
<text text-anchor="middle" x="286" y="-65" font-family="Helvetica,sans-Serif" font-size="10.00">internal/use.h</text>
</g>
<!-- Node4&#45;&gt;Node8 -->
<g id="edge8" class="edge"><title>Node4&#45;&gt;Node8</title>
<path fill="none" stroke="midnightblue" d="M370.322,-116.753C354.217,-107.823 329.619,-94.1848 311.14,-83.9388"/>
<polygon fill="midnightblue" stroke="midnightblue" points="312.811,-80.8633 302.368,-79.0752 309.416,-86.9853 312.811,-80.8633"/>
</g>
<!-- Node9 -->
<g id="node9" class="node"><title>Node9</title>
<polygon fill="none" stroke="#bfbfbf" points="342.306,-59 342.306,-79 431.694,-79 431.694,-59 342.306,-59"/>
<text text-anchor="middle" x="387" y="-65" font-family="Helvetica,sans-Serif" font-size="10.00">boost/config.hpp</text>
</g>
<!-- Node4&#45;&gt;Node9 -->
<g id="edge9" class="edge"><title>Node4&#45;&gt;Node9</title>
<path fill="none" stroke="midnightblue" d="M387,-116.753C387,-109.25 387,-98.4238 387,-89.0781"/>
<polygon fill="midnightblue" stroke="midnightblue" points="390.5,-89.0752 387,-79.0752 383.5,-89.0752 390.5,-89.0752"/>
</g>
<!-- Node10 -->
<g id="node10" class="node"><title>Node10</title>
<polygon fill="none" stroke="#bfbfbf" points="449.53,-59 449.53,-79 544.47,-79 544.47,-59 449.53,-59"/>
<text text-anchor="middle" x="497" y="-65" font-family="Helvetica,sans-Serif" font-size="10.00">boost/version.hpp</text>
</g>
<!-- Node4&#45;&gt;Node10 -->
<g id="edge10" class="edge"><title>Node4&#45;&gt;Node10</title>
<path fill="none" stroke="midnightblue" d="M405.164,-116.753C422.864,-107.742 449.984,-93.9353 470.17,-83.6589"/>
<polygon fill="midnightblue" stroke="midnightblue" points="471.85,-86.7312 479.174,-79.0752 468.674,-80.493 471.85,-86.7312"/>
</g>
<!-- Node11 -->
<g id="node11" class="node"><title>Node11</title>
<polygon fill="none" stroke="#bfbfbf" points="-0.0292969,-59 -0.0292969,-79 96.0293,-79 96.0293,-59 -0.0292969,-59"/>
<text text-anchor="middle" x="48" y="-65" font-family="Helvetica,sans-Serif" font-size="10.00">boost/foreach.hpp</text>
</g>
<!-- Node4&#45;&gt;Node11 -->
<g id="edge11" class="edge"><title>Node4&#45;&gt;Node11</title>
<path fill="none" stroke="midnightblue" d="M330.52,-116.991C275.734,-108.206 189.973,-94.3324 106.142,-80.1792"/>
<polygon fill="midnightblue" stroke="midnightblue" points="106.639,-76.7137 96.1951,-78.4971 105.471,-83.6157 106.639,-76.7137"/>
</g>
<!-- Node12 -->
<g id="node12" class="node"><title>Node12</title>
<polygon fill="none" stroke="#bfbfbf" points="114.384,-59 114.384,-79 157.616,-79 157.616,-59 114.384,-59"/>
<text text-anchor="middle" x="136" y="-65" font-family="Helvetica,sans-Serif" font-size="10.00">vector</text>
</g>
<!-- Node4&#45;&gt;Node12 -->
<g id="edge12" class="edge"><title>Node4&#45;&gt;Node12</title>
<path fill="none" stroke="midnightblue" d="M336.402,-116.999C293.769,-109.058 231.016,-96.5421 167.685,-79.9749"/>
<polygon fill="midnightblue" stroke="midnightblue" points="168.493,-76.5683 157.93,-77.3916 166.701,-83.335 168.493,-76.5683"/>
</g>
<!-- Node13&#45;&gt;Node2 -->
<g id="edge17" class="edge"><title>Node13&#45;&gt;Node2</title>
<path fill="none" stroke="midnightblue" d="M1072.46,-116.878C1096.31,-107.603 1133.45,-93.1564 1160.21,-82.7515"/>
<polygon fill="midnightblue" stroke="midnightblue" points="1161.5,-86.0046 1169.55,-79.1181 1158.96,-79.4806 1161.5,-86.0046"/>
</g>
<!-- Node13&#45;&gt;Node3 -->
<g id="edge18" class="edge"><title>Node13&#45;&gt;Node3</title>
<path fill="none" stroke="midnightblue" d="M1012.88,-117.936C1009.55,-117.255 1006.21,-116.599 1003,-116 951.927,-106.478 810.836,-114.509 772,-80 758.286,-67.8137 754.113,-46.6331 753.013,-31.1408"/>
<polygon fill="midnightblue" stroke="midnightblue" points="756.508,-30.9474 752.662,-21.0754 749.512,-31.1912 756.508,-30.9474"/>
</g>
<!-- Node13&#45;&gt;Node7 -->
<g id="edge16" class="edge"><title>Node13&#45;&gt;Node7</title>
<path fill="none" stroke="midnightblue" d="M1012.89,-117.87C1009.56,-117.203 1006.22,-116.569 1003,-116 886.385,-95.4062 855.744,-99.8503 739,-80 732.968,-78.9744 726.544,-77.7557 720.401,-76.5279"/>
<polygon fill="midnightblue" stroke="midnightblue" points="720.946,-73.0669 710.447,-74.4856 719.539,-79.9241 720.946,-73.0669"/>
</g>
<!-- Node14 -->
<g id="node14" class="node"><title>Node14</title>
<polygon fill="none" stroke="#bfbfbf" points="986.451,-59 986.451,-79 1137.55,-79 1137.55,-59 986.451,-59"/>
<text text-anchor="middle" x="1062" y="-65" font-family="Helvetica,sans-Serif" font-size="10.00">boost/exception/exception.hpp</text>
</g>
<!-- Node13&#45;&gt;Node14 -->
<g id="edge14" class="edge"><title>Node13&#45;&gt;Node14</title>
<path fill="none" stroke="midnightblue" d="M1051.15,-116.753C1052.89,-109.25 1055.4,-98.4238 1057.57,-89.0781"/>
<polygon fill="midnightblue" stroke="midnightblue" points="1061.04,-89.6076 1059.89,-79.0752 1054.22,-88.0247 1061.04,-89.6076"/>
</g>
<!-- Node15 -->
<g id="node15" class="node"><title>Node15</title>
<polygon fill="none" stroke="#bfbfbf" points="780.596,-59 780.596,-79 839.404,-79 839.404,-59 780.596,-59"/>
<text text-anchor="middle" x="810" y="-65" font-family="Helvetica,sans-Serif" font-size="10.00">exception</text>
</g>
<!-- Node13&#45;&gt;Node15 -->
<g id="edge15" class="edge"><title>Node13&#45;&gt;Node15</title>
<path fill="none" stroke="midnightblue" d="M1012.81,-117.96C974.732,-109.44 912.816,-95.4075 849.895,-80.1747"/>
<polygon fill="midnightblue" stroke="midnightblue" points="850.335,-76.6798 839.791,-77.7202 848.683,-83.482 850.335,-76.6798"/>
</g>
<!-- Node16 -->
<g id="node16" class="node"><title>Node16</title>
<polygon fill="none" stroke="#bfbfbf" points="857.766,-59 857.766,-79 968.234,-79 968.234,-59 857.766,-59"/>
<text text-anchor="middle" x="913" y="-65" font-family="Helvetica,sans-Serif" font-size="10.00">RMF/internal/errors.h</text>
</g>
<!-- Node13&#45;&gt;Node16 -->
<g id="edge19" class="edge"><title>Node13&#45;&gt;Node16</title>
<path fill="none" stroke="midnightblue" d="M1026.85,-116.878C1004.52,-107.685 969.852,-93.4095 944.635,-83.0263"/>
<polygon fill="midnightblue" stroke="midnightblue" points="945.723,-79.6893 935.144,-79.1181 943.058,-86.162 945.723,-79.6893"/>
</g>
<!-- Node17&#45;&gt;Node2 -->
<g id="edge21" class="edge"><title>Node17&#45;&gt;Node2</title>
<path fill="none" stroke="midnightblue" d="M862.594,-182.32C921.589,-178.903 1017.43,-168.643 1094,-138 1110.55,-131.376 1149.16,-103.261 1172.98,-85.321"/>
<polygon fill="midnightblue" stroke="midnightblue" points="1175.16,-88.06 1181.02,-79.2305 1170.93,-82.481 1175.16,-88.06"/>
</g>
<!-- Node17&#45;&gt;Node4 -->
<g id="edge22" class="edge"><title>Node17&#45;&gt;Node4</title>
<path fill="none" stroke="midnightblue" d="M753.396,-177.105C686.198,-168.565 568.326,-153.412 457.581,-138.205"/>
<polygon fill="midnightblue" stroke="midnightblue" points="457.959,-134.724 447.575,-136.828 457.005,-141.659 457.959,-134.724"/>
</g>
<!-- Node17&#45;&gt;Node5 -->
<g id="edge24" class="edge"><title>Node17&#45;&gt;Node5</title>
<path fill="none" stroke="midnightblue" d="M753.542,-176.231C724.745,-169.871 690.234,-158.432 665,-138 649.188,-125.196 638.543,-104.156 632.423,-88.8664"/>
<polygon fill="midnightblue" stroke="midnightblue" points="635.661,-87.5301 628.901,-79.3716 629.098,-89.9646 635.661,-87.5301"/>
</g>
<!-- Node17&#45;&gt;Node7 -->
<g id="edge25" class="edge"><title>Node17&#45;&gt;Node7</title>
<path fill="none" stroke="midnightblue" d="M753.362,-179.973C724.751,-174.76 692.009,-163.222 674,-138 663.479,-123.264 670.671,-102.588 678.494,-87.9126"/>
<polygon fill="midnightblue" stroke="midnightblue" points="681.528,-89.6585 683.547,-79.2578 675.483,-86.1293 681.528,-89.6585"/>
</g>
<!-- Node17&#45;&gt;Node13 -->
<g id="edge26" class="edge"><title>Node17&#45;&gt;Node13</title>
<path fill="none" stroke="midnightblue" d="M846.989,-174.94C889.594,-165.04 957.792,-149.194 1002.99,-138.692"/>
<polygon fill="midnightblue" stroke="midnightblue" points="1003.88,-142.078 1012.83,-136.406 1002.29,-135.26 1003.88,-142.078"/>
</g>
<!-- Node18 -->
<g id="node18" class="node"><title>Node18</title>
<polygon fill="none" stroke="#bfbfbf" points="748.853,-117 748.853,-137 867.147,-137 867.147,-117 748.853,-117"/>
<text text-anchor="middle" x="808" y="-123" font-family="Helvetica,sans-Serif" font-size="10.00">boost/exception/all.hpp</text>
</g>
<!-- Node17&#45;&gt;Node18 -->
<g id="edge23" class="edge"><title>Node17&#45;&gt;Node18</title>
<path fill="none" stroke="midnightblue" d="M808,-174.753C808,-167.25 808,-156.424 808,-147.078"/>
<polygon fill="midnightblue" stroke="midnightblue" points="811.5,-147.075 808,-137.075 804.5,-147.075 811.5,-147.075"/>
</g>
<!-- Node19 -->
<g id="node19" class="node"><title>Node19</title>
<polygon fill="none" stroke="#bfbfbf" points="885.018,-117 885.018,-137 994.982,-137 994.982,-117 885.018,-117"/>
<text text-anchor="middle" x="940" y="-123" font-family="Helvetica,sans-Serif" font-size="10.00">boost/shared_ptr.hpp</text>
</g>
<!-- Node17&#45;&gt;Node19 -->
<g id="edge27" class="edge"><title>Node17&#45;&gt;Node19</title>
<path fill="none" stroke="midnightblue" d="M829.502,-174.878C851.172,-165.685 884.821,-151.409 909.295,-141.026"/>
<polygon fill="midnightblue" stroke="midnightblue" points="910.668,-144.246 918.507,-137.118 907.935,-137.802 910.668,-144.246"/>
</g>
<!-- Node20 -->
<g id="node20" class="node"><title>Node20</title>
<polygon fill="none" stroke="#bfbfbf" points="465.353,-117 465.353,-137 588.647,-137 588.647,-117 465.353,-117"/>
<text text-anchor="middle" x="527" y="-123" font-family="Helvetica,sans-Serif" font-size="10.00">boost/make_shared.hpp</text>
</g>
<!-- Node17&#45;&gt;Node20 -->
<g id="edge28" class="edge"><title>Node17&#45;&gt;Node20</title>
<path fill="none" stroke="midnightblue" d="M762.54,-174.94C713.363,-165.14 634.943,-149.512 582.248,-139.01"/>
<polygon fill="midnightblue" stroke="midnightblue" points="582.886,-135.569 572.394,-137.047 581.518,-142.434 582.886,-135.569"/>
</g>
<!-- Node17&#45;&gt;Node21 -->
<g id="edge29" class="edge"><title>Node17&#45;&gt;Node21</title>
<path fill="none" stroke="midnightblue" d="M862.353,-178.691C926.207,-171.874 1035.1,-158.428 1127,-138 1128.25,-137.722 1129.52,-137.421 1130.8,-137.103"/>
<polygon fill="midnightblue" stroke="midnightblue" points="1131.87,-140.439 1140.59,-134.415 1130.02,-133.689 1131.87,-140.439"/>
</g>
<!-- Node22 -->
<g id="node22" class="node"><title>Node22</title>
<polygon fill="none" stroke="#bfbfbf" points="682.879,-117 682.879,-137 731.121,-137 731.121,-117 682.879,-117"/>
<text text-anchor="middle" x="707" y="-123" font-family="Helvetica,sans-Serif" font-size="10.00">stdint.h</text>
</g>
<!-- Node17&#45;&gt;Node22 -->
<g id="edge30" class="edge"><title>Node17&#45;&gt;Node22</title>
<path fill="none" stroke="midnightblue" d="M791.322,-174.753C775.217,-165.823 750.619,-152.185 732.14,-141.939"/>
<polygon fill="midnightblue" stroke="midnightblue" points="733.811,-138.863 723.368,-137.075 730.416,-144.985 733.811,-138.863"/>
</g>
</g>
</svg>
