<?xml version="1.0" encoding="UTF-8" standalone="no"?>
<!DOCTYPE svg PUBLIC "-//W3C//DTD SVG 1.1//EN"
 "http://www.w3.org/Graphics/SVG/1.1/DTD/svg11.dtd">
<!-- Generated by graphviz version 2.34.0 (20131025.1349)
 -->
<!-- Title: TraverseHelper.h Pages: 1 -->
<svg width="2851pt" height="762pt"
 viewBox="0.00 0.00 2851.00 762.00" xmlns="http://www.w3.org/2000/svg" xmlns:xlink="http://www.w3.org/1999/xlink">
<g id="graph0" class="graph" transform="scale(1 1) rotate(0) translate(4 758)">
<title>TraverseHelper.h</title>
<!-- Node1 -->
<g id="node1" class="node"><title>Node1</title>
<polygon fill="#bfbfbf" stroke="black" points="1064.83,-733 1064.83,-753 1157.17,-753 1157.17,-733 1064.83,-733"/>
<text text-anchor="middle" x="1111" y="-739" font-family="Helvetica,sans-Serif" font-size="10.00">TraverseHelper.h</text>
</g>
<!-- Node2 -->
<g id="node2" class="node"><title>Node2</title>
<g id="a_node2"><a xlink:href="a00186_source.html" target="_top" xlink:title="RMF/config.h">
<polygon fill="none" stroke="black" points="498.269,-59 498.269,-79 573.731,-79 573.731,-59 498.269,-59"/>
<text text-anchor="middle" x="536" y="-65" font-family="Helvetica,sans-Serif" font-size="10.00">RMF/config.h</text>
</a>
</g>
</g>
<!-- Node1&#45;&gt;Node2 -->
<g id="edge1" class="edge"><title>Node1&#45;&gt;Node2</title>
<path fill="none" stroke="midnightblue" d="M1064.55,-742.018C858.599,-741.498 38,-732.848 38,-628 38,-628 38,-628 38,-184 38,-143.4 62.8433,-134.469 99,-116 166.01,-81.772 389.235,-72.9803 488.133,-70.7479"/>
<polygon fill="midnightblue" stroke="midnightblue" points="488.229,-74.2467 498.153,-70.5347 488.08,-67.2483 488.229,-74.2467"/>
</g>
<!-- Node4 -->
<g id="node4" class="node"><title>Node4</title>
<g id="a_node4"><a xlink:href="a00193.html" target="_top" xlink:title="Handle read/write of Model data from/to files. ">
<polygon fill="none" stroke="black" points="2447.6,-617 2447.6,-637 2574.4,-637 2574.4,-617 2447.6,-617"/>
<text text-anchor="middle" x="2511" y="-623" font-family="Helvetica,sans-Serif" font-size="10.00">CoordinateTransformer.h</text>
</a>
</g>
</g>
<!-- Node1&#45;&gt;Node4 -->
<g id="edge3" class="edge"><title>Node1&#45;&gt;Node4</title>
<path fill="none" stroke="midnightblue" d="M1157.22,-739.104C1264.55,-732.307 1538.92,-714.5 1768,-696 2013.38,-676.184 2303.91,-648.313 2437.33,-635.268"/>
<polygon fill="midnightblue" stroke="midnightblue" points="2437.82,-638.737 2447.43,-634.279 2437.14,-631.77 2437.82,-638.737"/>
</g>
<!-- Node28 -->
<g id="node28" class="node"><title>Node28</title>
<g id="a_node28"><a xlink:href="a00235.html" target="_top" xlink:title="Handle read/write of Model data from/to files. ">
<polygon fill="none" stroke="black" points="1403.76,-373 1403.76,-393 1464.24,-393 1464.24,-373 1403.76,-373"/>
<text text-anchor="middle" x="1434" y="-379" font-family="Helvetica,sans-Serif" font-size="10.00">Nullable.h</text>
</a>
</g>
</g>
<!-- Node1&#45;&gt;Node28 -->
<g id="edge36" class="edge"><title>Node1&#45;&gt;Node28</title>
<path fill="none" stroke="midnightblue" d="M1157.24,-738.699C1304.68,-727.564 1754,-688.654 1754,-628 1754,-628 1754,-628 1754,-568 1754,-531.455 1759.52,-515.094 1735,-488 1666.29,-412.09 1539.47,-391.582 1474.58,-386.046"/>
<polygon fill="midnightblue" stroke="midnightblue" points="1474.57,-382.535 1464.33,-385.253 1474.03,-389.514 1474.57,-382.535"/>
</g>
<!-- Node35 -->
<g id="node35" class="node"><title>Node35</title>
<g id="a_node35"><a xlink:href="a00237.html" target="_top" xlink:title="Helper functions for manipulating RMF files. ">
<polygon fill="none" stroke="black" points="1094.43,-675 1094.43,-695 1221.57,-695 1221.57,-675 1094.43,-675"/>
<text text-anchor="middle" x="1158" y="-681" font-family="Helvetica,sans-Serif" font-size="10.00">RMF/decorator/physics.h</text>
</a>
</g>
</g>
<!-- Node1&#45;&gt;Node35 -->
<g id="edge58" class="edge"><title>Node1&#45;&gt;Node35</title>
<path fill="none" stroke="midnightblue" d="M1118.76,-732.753C1125.54,-724.68 1135.54,-712.757 1143.76,-702.973"/>
<polygon fill="midnightblue" stroke="midnightblue" points="1146.64,-704.985 1150.38,-695.075 1141.27,-700.485 1146.64,-704.985"/>
</g>
<!-- Node37 -->
<g id="node37" class="node"><title>Node37</title>
<polygon fill="none" stroke="#bfbfbf" points="712.018,-373 712.018,-393 821.982,-393 821.982,-373 712.018,-373"/>
<text text-anchor="middle" x="767" y="-379" font-family="Helvetica,sans-Serif" font-size="10.00">boost/shared_ptr.hpp</text>
</g>
<!-- Node1&#45;&gt;Node37 -->
<g id="edge172" class="edge"><title>Node1&#45;&gt;Node37</title>
<path fill="none" stroke="midnightblue" d="M1064.72,-738.024C927.828,-725.187 529.905,-679.751 457,-580 383.857,-479.923 601.219,-418.711 709.559,-395.126"/>
<polygon fill="midnightblue" stroke="midnightblue" points="710.328,-398.54 719.375,-393.027 708.864,-391.695 710.328,-398.54"/>
</g>
<!-- Node48 -->
<g id="node48" class="node"><title>Node48</title>
<g id="a_node48"><a xlink:href="a00248.html" target="_top" xlink:title="Helper functions for manipulating RMF files. ">
<polygon fill="none" stroke="black" points="992.414,-617 992.414,-637 1129.59,-637 1129.59,-617 992.414,-617"/>
<text text-anchor="middle" x="1061" y="-623" font-family="Helvetica,sans-Serif" font-size="10.00">RMF/decorator/sequence.h</text>
</a>
</g>
</g>
<!-- Node1&#45;&gt;Node48 -->
<g id="edge139" class="edge"><title>Node1&#45;&gt;Node48</title>
<path fill="none" stroke="midnightblue" d="M1105.12,-732.738C1099.5,-723.624 1091,-709.194 1085,-696 1077.72,-679.994 1071.2,-661.083 1066.8,-647.272"/>
<polygon fill="midnightblue" stroke="midnightblue" points="1070.06,-645.957 1063.76,-637.442 1063.38,-648.03 1070.06,-645.957"/>
</g>
<!-- Node49 -->
<g id="node49" class="node"><title>Node49</title>
<g id="a_node49"><a xlink:href="a00250.html" target="_top" xlink:title="Helper functions for manipulating RMF files. ">
<polygon fill="none" stroke="black" points="1320.48,-617 1320.48,-637 1441.52,-637 1441.52,-617 1320.48,-617"/>
<text text-anchor="middle" x="1381" y="-623" font-family="Helvetica,sans-Serif" font-size="10.00">RMF/decorator/shape.h</text>
</a>
</g>
</g>
<!-- Node1&#45;&gt;Node49 -->
<g id="edge151" class="edge"><title>Node1&#45;&gt;Node49</title>
<path fill="none" stroke="midnightblue" d="M1135.77,-732.873C1159.95,-723.858 1197.71,-709.499 1230,-696 1273.08,-677.987 1322.28,-655.459 1352.49,-641.395"/>
<polygon fill="midnightblue" stroke="midnightblue" points="1354.02,-644.544 1361.6,-637.143 1351.06,-638.201 1354.02,-644.544"/>
</g>
<!-- Node50 -->
<g id="node50" class="node"><title>Node50</title>
<g id="a_node50"><a xlink:href="a00175.html" target="_top" xlink:title="Helper functions for manipulating RMF files. ">
<polygon fill="none" stroke="black" points="661.53,-617 661.53,-637 806.47,-637 806.47,-617 661.53,-617"/>
<text text-anchor="middle" x="734" y="-623" font-family="Helvetica,sans-Serif" font-size="10.00">RMF/decorator/alternatives.h</text>
</a>
</g>
</g>
<!-- Node1&#45;&gt;Node50 -->
<g id="edge163" class="edge"><title>Node1&#45;&gt;Node50</title>
<path fill="none" stroke="midnightblue" d="M1081.1,-732.959C1013.6,-712.547 849.379,-662.889 773.562,-639.963"/>
<polygon fill="midnightblue" stroke="midnightblue" points="774.486,-636.586 763.901,-637.042 772.46,-643.286 774.486,-636.586"/>
</g>
<!-- Node3 -->
<g id="node3" class="node"><title>Node3</title>
<g id="a_node3"><a xlink:href="a00185.html" target="_top" xlink:title="Various compiler workarounds. ">
<polygon fill="none" stroke="black" points="1068.54,-1 1068.54,-21 1193.46,-21 1193.46,-1 1068.54,-1"/>
<text text-anchor="middle" x="1131" y="-7" font-family="Helvetica,sans-Serif" font-size="10.00">RMF/compiler_macros.h</text>
</a>
</g>
</g>
<!-- Node2&#45;&gt;Node3 -->
<g id="edge2" class="edge"><title>Node2&#45;&gt;Node3</title>
<path fill="none" stroke="midnightblue" d="M574.125,-64.4118C671.519,-55.2453 930.745,-30.8476 1058.19,-18.8524"/>
<polygon fill="midnightblue" stroke="midnightblue" points="1058.62,-22.3274 1068.25,-17.9057 1057.97,-15.3582 1058.62,-22.3274"/>
</g>
<!-- Node4&#45;&gt;Node2 -->
<g id="edge31" class="edge"><title>Node4&#45;&gt;Node2</title>
<path fill="none" stroke="midnightblue" d="M2447.55,-625.135C2190.73,-621.468 1235.72,-606.184 1103,-580 1075.54,-574.583 1071.1,-564.978 1044,-558 938.269,-530.778 904.143,-557.799 801,-522 710.207,-490.487 460,-352.106 460,-256 460,-256 460,-256 460,-184 460,-143.325 493.91,-106.124 516.428,-85.9052"/>
<polygon fill="midnightblue" stroke="midnightblue" points="518.85,-88.4378 524.125,-79.2493 514.272,-83.1429 518.85,-88.4378"/>
</g>
<!-- Node4&#45;&gt;Node3 -->
<g id="edge30" class="edge"><title>Node4&#45;&gt;Node3</title>
<path fill="none" stroke="midnightblue" d="M2574.41,-620.783C2644.23,-614.106 2751.23,-600.846 2786,-580 2821.61,-558.653 2843,-547.515 2843,-506 2843,-506 2843,-506 2843,-126 2843,-42.5455 1530.74,-17.8387 1204,-12.9804"/>
<polygon fill="midnightblue" stroke="midnightblue" points="1203.76,-9.47652 1193.71,-12.8291 1203.65,-16.4758 1203.76,-9.47652"/>
</g>
<!-- Node5 -->
<g id="node5" class="node"><title>Node5</title>
<polygon fill="none" stroke="#bfbfbf" points="1864.38,-59 1864.38,-79 1907.62,-79 1907.62,-59 1864.38,-59"/>
<text text-anchor="middle" x="1886" y="-65" font-family="Helvetica,sans-Serif" font-size="10.00">vector</text>
</g>
<!-- Node4&#45;&gt;Node5 -->
<g id="edge4" class="edge"><title>Node4&#45;&gt;Node5</title>
<path fill="none" stroke="midnightblue" d="M2511.91,-616.996C2513.62,-603.341 2518.27,-576.978 2530,-558 2620.57,-411.449 2773,-428.278 2773,-256 2773,-256 2773,-256 2773,-184 2773,-92.3795 2045.84,-91.9573 1955,-80 1942.87,-78.4035 1929.57,-76.509 1917.9,-74.8007"/>
<polygon fill="midnightblue" stroke="midnightblue" points="1918.14,-71.2975 1907.73,-73.298 1917.11,-78.2223 1918.14,-71.2975"/>
</g>
<!-- Node6 -->
<g id="node6" class="node"><title>Node6</title>
<g id="a_node6"><a xlink:href="a00259.html" target="_top" xlink:title="Represent coordinates. ">
<polygon fill="none" stroke="black" points="1781.71,-559 1781.71,-579 1858.29,-579 1858.29,-559 1781.71,-559"/>
<text text-anchor="middle" x="1820" y="-565" font-family="Helvetica,sans-Serif" font-size="10.00">RMF/Vector.h</text>
</a>
</g>
</g>
<!-- Node4&#45;&gt;Node6 -->
<g id="edge5" class="edge"><title>Node4&#45;&gt;Node6</title>
<path fill="none" stroke="midnightblue" d="M2447.54,-620.857C2310.73,-609.77 1990.55,-583.822 1868.46,-573.928"/>
<polygon fill="midnightblue" stroke="midnightblue" points="1868.55,-570.423 1858.3,-573.104 1867.99,-577.401 1868.55,-570.423"/>
</g>
<!-- Node7 -->
<g id="node7" class="node"><title>Node7</title>
<g id="a_node7"><a xlink:href="a00219.html" target="_top" xlink:title="Various general useful macros for IMP. ">
<polygon fill="none" stroke="black" points="2062.48,-117 2062.48,-137 2183.52,-137 2183.52,-117 2062.48,-117"/>
<text text-anchor="middle" x="2123" y="-123" font-family="Helvetica,sans-Serif" font-size="10.00">infrastructure_macros.h</text>
</a>
</g>
</g>
<!-- Node4&#45;&gt;Node7 -->
<g id="edge34" class="edge"><title>Node4&#45;&gt;Node7</title>
<path fill="none" stroke="midnightblue" d="M2574.58,-623.253C2609.17,-618.473 2650.23,-606.941 2677,-580 2701.01,-555.833 2697,-540.069 2697,-506 2697,-506 2697,-506 2697,-254 2697,-152.084 2347.41,-132.502 2193.88,-128.816"/>
<polygon fill="midnightblue" stroke="midnightblue" points="2193.69,-125.311 2183.61,-128.586 2193.53,-132.309 2193.69,-125.311"/>
</g>
<!-- Node25 -->
<g id="node25" class="node"><title>Node25</title>
<polygon fill="none" stroke="#bfbfbf" points="2539.23,-559 2539.23,-579 2668.77,-579 2668.77,-559 2539.23,-559"/>
<text text-anchor="middle" x="2604" y="-565" font-family="Helvetica,sans-Serif" font-size="10.00">RMF/internal/Transform.h</text>
</g>
<!-- Node4&#45;&gt;Node25 -->
<g id="edge32" class="edge"><title>Node4&#45;&gt;Node25</title>
<path fill="none" stroke="midnightblue" d="M2526.36,-616.753C2540.98,-607.946 2563.22,-594.558 2580.15,-584.362"/>
<polygon fill="midnightblue" stroke="midnightblue" points="2582.17,-587.232 2588.93,-579.075 2578.56,-581.235 2582.17,-587.232"/>
</g>
<!-- Node26 -->
<g id="node26" class="node"><title>Node26</title>
<polygon fill="none" stroke="#bfbfbf" points="2724.94,-559 2724.94,-579 2777.06,-579 2777.06,-559 2724.94,-559"/>
<text text-anchor="middle" x="2751" y="-565" font-family="Helvetica,sans-Serif" font-size="10.00">ostream</text>
</g>
<!-- Node4&#45;&gt;Node26 -->
<g id="edge33" class="edge"><title>Node4&#45;&gt;Node26</title>
<path fill="none" stroke="midnightblue" d="M2551.28,-616.972C2591.7,-607.854 2655.74,-593.261 2711,-580 2712.25,-579.699 2713.53,-579.392 2714.81,-579.079"/>
<polygon fill="midnightblue" stroke="midnightblue" points="2715.89,-582.419 2724.77,-576.633 2714.22,-575.621 2715.89,-582.419"/>
</g>
<!-- Node27 -->
<g id="node27" class="node"><title>Node27</title>
<polygon fill="none" stroke="#bfbfbf" points="1848.33,-233 1848.33,-277 1957.67,-277 1957.67,-233 1848.33,-233"/>
<text text-anchor="start" x="1856.33" y="-263" font-family="Helvetica,sans-Serif" font-size="10.00">/Users/drussel/src</text>
<text text-anchor="start" x="1856.33" y="-251" font-family="Helvetica,sans-Serif" font-size="10.00">/rmf/rmf/include/RMF</text>
<text text-anchor="middle" x="1903" y="-239" font-family="Helvetica,sans-Serif" font-size="10.00">/types.h</text>
</g>
<!-- Node4&#45;&gt;Node27 -->
<g id="edge35" class="edge"><title>Node4&#45;&gt;Node27</title>
<path fill="none" stroke="midnightblue" d="M2497.4,-616.701C2464.22,-594.084 2376.29,-534.634 2301,-488 2175.55,-410.297 2024.2,-324.092 1949.44,-281.999"/>
<polygon fill="midnightblue" stroke="midnightblue" points="1951.14,-278.941 1940.71,-277.088 1947.71,-285.042 1951.14,-278.941"/>
</g>
<!-- Node6&#45;&gt;Node2 -->
<g id="edge6" class="edge"><title>Node6&#45;&gt;Node2</title>
<path fill="none" stroke="midnightblue" d="M1781.67,-566.123C1634.58,-558.853 1112.83,-532.446 1079,-522 972.742,-489.189 958.478,-452.662 864,-394 848.709,-384.506 846.839,-378.357 830,-372 698.584,-322.386 536,-396.47 536,-256 536,-256 536,-256 536,-184 536,-150.798 536,-112.157 536,-89.4623"/>
<polygon fill="midnightblue" stroke="midnightblue" points="539.5,-89.1616 536,-79.1617 532.5,-89.1617 539.5,-89.1616"/>
</g>
<!-- Node6&#45;&gt;Node7 -->
<g id="edge7" class="edge"><title>Node6&#45;&gt;Node7</title>
<path fill="none" stroke="midnightblue" d="M1858.43,-567.366C1970.15,-565.131 2288.92,-555.819 2320,-522 2361.5,-476.837 2321,-445.335 2321,-384 2321,-384 2321,-384 2321,-254 2321,-187.559 2240.66,-154.637 2182.34,-139.491"/>
<polygon fill="midnightblue" stroke="midnightblue" points="2183,-136.05 2172.45,-137.038 2181.32,-142.844 2183,-136.05"/>
</g>
<!-- Node15 -->
<g id="node15" class="node"><title>Node15</title>
<g id="a_node15"><a xlink:href="a00204.html" target="_top" xlink:title="Various general useful macros for IMP. ">
<polygon fill="none" stroke="black" points="1278.93,-117 1278.93,-137 1351.07,-137 1351.07,-117 1278.93,-117"/>
<text text-anchor="middle" x="1315" y="-123" font-family="Helvetica,sans-Serif" font-size="10.00">exceptions.h</text>
</a>
</g>
</g>
<!-- Node6&#45;&gt;Node15 -->
<g id="edge17" class="edge"><title>Node6&#45;&gt;Node15</title>
<path fill="none" stroke="midnightblue" d="M1815.06,-558.802C1807.02,-542.443 1793.67,-508.122 1811,-488 1881.38,-406.27 1969.16,-522.256 2051,-452 2128.55,-385.423 2068.95,-288.839 1984,-232 1881.28,-163.268 1495.84,-137.277 1361.52,-130.188"/>
<polygon fill="midnightblue" stroke="midnightblue" points="1361.33,-126.674 1351.17,-129.653 1360.97,-133.665 1361.33,-126.674"/>
</g>
<!-- Node19 -->
<g id="node19" class="node"><title>Node19</title>
<polygon fill="none" stroke="#bfbfbf" points="2177.24,-495 2177.24,-515 2292.76,-515 2292.76,-495 2177.24,-495"/>
<text text-anchor="middle" x="2235" y="-501" font-family="Helvetica,sans-Serif" font-size="10.00">boost/range/begin.hpp</text>
</g>
<!-- Node6&#45;&gt;Node19 -->
<g id="edge24" class="edge"><title>Node6&#45;&gt;Node19</title>
<path fill="none" stroke="midnightblue" d="M1858.45,-564.165C1922.66,-557.478 2055.67,-542.424 2167,-522 2174.38,-520.646 2182.17,-519.011 2189.73,-517.311"/>
<polygon fill="midnightblue" stroke="midnightblue" points="2190.54,-520.717 2199.5,-515.056 2188.96,-513.896 2190.54,-520.717"/>
</g>
<!-- Node20 -->
<g id="node20" class="node"><title>Node20</title>
<polygon fill="none" stroke="#bfbfbf" points="1820.13,-495 1820.13,-515 1927.87,-515 1927.87,-495 1820.13,-495"/>
<text text-anchor="middle" x="1874" y="-501" font-family="Helvetica,sans-Serif" font-size="10.00">boost/range/end.hpp</text>
</g>
<!-- Node6&#45;&gt;Node20 -->
<g id="edge25" class="edge"><title>Node6&#45;&gt;Node20</title>
<path fill="none" stroke="midnightblue" d="M1827.97,-558.852C1836.18,-549.419 1849.18,-534.495 1859.27,-522.907"/>
<polygon fill="midnightblue" stroke="midnightblue" points="1862.07,-525.025 1866,-515.186 1856.79,-520.428 1862.07,-525.025"/>
</g>
<!-- Node21 -->
<g id="node21" class="node"><title>Node21</title>
<polygon fill="none" stroke="#bfbfbf" points="1946.31,-489 1946.31,-521 2045.69,-521 2045.69,-489 1946.31,-489"/>
<text text-anchor="start" x="1954.31" y="-507" font-family="Helvetica,sans-Serif" font-size="10.00">boost/type_traits/is</text>
<text text-anchor="middle" x="1996" y="-495" font-family="Helvetica,sans-Serif" font-size="10.00">_convertible.hpp</text>
</g>
<!-- Node6&#45;&gt;Node21 -->
<g id="edge26" class="edge"><title>Node6&#45;&gt;Node21</title>
<path fill="none" stroke="midnightblue" d="M1845.59,-558.985C1871.17,-549.975 1911.23,-535.862 1943.58,-524.467"/>
<polygon fill="midnightblue" stroke="midnightblue" points="1945.08,-527.65 1953.35,-521.026 1942.75,-521.047 1945.08,-527.65"/>
</g>
<!-- Node22 -->
<g id="node22" class="node"><title>Node22</title>
<polygon fill="none" stroke="#bfbfbf" points="2063.25,-495 2063.25,-515 2158.75,-515 2158.75,-495 2063.25,-495"/>
<text text-anchor="middle" x="2111" y="-501" font-family="Helvetica,sans-Serif" font-size="10.00">boost/mpl/not.hpp</text>
</g>
<!-- Node6&#45;&gt;Node22 -->
<g id="edge27" class="edge"><title>Node6&#45;&gt;Node22</title>
<path fill="none" stroke="midnightblue" d="M1858.3,-561.437C1904.81,-553.245 1985.53,-538.312 2054,-522 2059.44,-520.705 2065.14,-519.238 2070.74,-517.731"/>
<polygon fill="midnightblue" stroke="midnightblue" points="2071.94,-521.032 2080.65,-515.003 2070.08,-514.283 2071.94,-521.032"/>
</g>
<!-- Node23 -->
<g id="node23" class="node"><title>Node23</title>
<polygon fill="none" stroke="#bfbfbf" points="1641.62,-495 1641.62,-515 1726.38,-515 1726.38,-495 1641.62,-495"/>
<text text-anchor="middle" x="1684" y="-501" font-family="Helvetica,sans-Serif" font-size="10.00">boost/array.hpp</text>
</g>
<!-- Node6&#45;&gt;Node23 -->
<g id="edge28" class="edge"><title>Node6&#45;&gt;Node23</title>
<path fill="none" stroke="midnightblue" d="M1800.22,-558.985C1777.36,-548.561 1739.51,-531.307 1713.24,-519.332"/>
<polygon fill="midnightblue" stroke="midnightblue" points="1714.35,-515.99 1703.8,-515.026 1711.45,-522.359 1714.35,-515.99"/>
</g>
<!-- Node24 -->
<g id="node24" class="node"><title>Node24</title>
<polygon fill="none" stroke="#bfbfbf" points="2090.44,-175 2090.44,-195 2147.56,-195 2147.56,-175 2090.44,-175"/>
<text text-anchor="middle" x="2119" y="-181" font-family="Helvetica,sans-Serif" font-size="10.00">algorithm</text>
</g>
<!-- Node6&#45;&gt;Node24 -->
<g id="edge29" class="edge"><title>Node6&#45;&gt;Node24</title>
<path fill="none" stroke="midnightblue" d="M1858.53,-567.226C1967.41,-564.642 2271.41,-554.552 2301,-522 2349.48,-468.658 2184.51,-263.759 2133.54,-203.047"/>
<polygon fill="midnightblue" stroke="midnightblue" points="2136.01,-200.551 2126.88,-195.171 2130.66,-205.068 2136.01,-200.551"/>
</g>
<!-- Node7&#45;&gt;Node3 -->
<g id="edge11" class="edge"><title>Node7&#45;&gt;Node3</title>
<path fill="none" stroke="midnightblue" d="M2078.51,-116.967C2044.06,-109.229 1995.55,-96.6882 1955,-80 1936.6,-72.4259 1935.09,-63.6157 1916,-58 1783.8,-19.1154 1371.94,-12.9526 1203.7,-12.0847"/>
<polygon fill="midnightblue" stroke="midnightblue" points="1203.72,-8.58486 1193.7,-12.0379 1203.68,-15.5848 1203.72,-8.58486"/>
</g>
<!-- Node7&#45;&gt;Node5 -->
<g id="edge16" class="edge"><title>Node7&#45;&gt;Node5</title>
<path fill="none" stroke="midnightblue" d="M2080.9,-116.956C2040.14,-108.06 1976.66,-93.8378 1922,-80 1920.55,-79.6318 1919.06,-79.2486 1917.56,-78.856"/>
<polygon fill="midnightblue" stroke="midnightblue" points="1918.23,-75.41 1907.66,-76.19 1916.41,-82.1694 1918.23,-75.41"/>
</g>
<!-- Node8 -->
<g id="node8" class="node"><title>Node8</title>
<polygon fill="none" stroke="#bfbfbf" points="1964.22,-59 1964.22,-79 2015.78,-79 2015.78,-59 1964.22,-59"/>
<text text-anchor="middle" x="1990" y="-65" font-family="Helvetica,sans-Serif" font-size="10.00">sstream</text>
</g>
<!-- Node7&#45;&gt;Node8 -->
<g id="edge8" class="edge"><title>Node7&#45;&gt;Node8</title>
<path fill="none" stroke="midnightblue" d="M2101.34,-116.878C2079.5,-107.685 2045.6,-93.4095 2020.94,-83.0263"/>
<polygon fill="midnightblue" stroke="midnightblue" points="2022.23,-79.773 2011.66,-79.1181 2019.51,-86.2245 2022.23,-79.773"/>
</g>
<!-- Node9 -->
<g id="node9" class="node"><title>Node9</title>
<polygon fill="none" stroke="#bfbfbf" points="1640.83,-59 1640.83,-79 1695.17,-79 1695.17,-59 1640.83,-59"/>
<text text-anchor="middle" x="1668" y="-65" font-family="Helvetica,sans-Serif" font-size="10.00">iostream</text>
</g>
<!-- Node7&#45;&gt;Node9 -->
<g id="edge9" class="edge"><title>Node7&#45;&gt;Node9</title>
<path fill="none" stroke="midnightblue" d="M2062.11,-118.506C1966.59,-106.75 1784.34,-84.3182 1705.68,-74.6376"/>
<polygon fill="midnightblue" stroke="midnightblue" points="1705.64,-71.1065 1695.29,-73.3586 1704.79,-78.0541 1705.64,-71.1065"/>
</g>
<!-- Node10 -->
<g id="node10" class="node"><title>Node10</title>
<polygon fill="none" stroke="#bfbfbf" points="971.773,-59 971.773,-79 1012.23,-79 1012.23,-59 971.773,-59"/>
<text text-anchor="middle" x="992" y="-65" font-family="Helvetica,sans-Serif" font-size="10.00">string</text>
</g>
<!-- Node7&#45;&gt;Node10 -->
<g id="edge10" class="edge"><title>Node7&#45;&gt;Node10</title>
<path fill="none" stroke="midnightblue" d="M2062.35,-123.47C1909.32,-117.012 1495.1,-99.077 1150,-80 1105.62,-77.5466 1054.26,-74.2023 1022.45,-72.0717"/>
<polygon fill="midnightblue" stroke="midnightblue" points="1022.66,-68.5781 1012.45,-71.3987 1022.19,-75.5623 1022.66,-68.5781"/>
</g>
<!-- Node11 -->
<g id="node11" class="node"><title>Node11</title>
<polygon fill="none" stroke="#bfbfbf" points="2033.98,-59 2033.98,-79 2110.02,-79 2110.02,-59 2033.98,-59"/>
<text text-anchor="middle" x="2072" y="-65" font-family="Helvetica,sans-Serif" font-size="10.00">internal/use.h</text>
</g>
<!-- Node7&#45;&gt;Node11 -->
<g id="edge12" class="edge"><title>Node7&#45;&gt;Node11</title>
<path fill="none" stroke="midnightblue" d="M2114.58,-116.753C2107.15,-108.598 2096.15,-96.5158 2087.19,-86.6769"/>
<polygon fill="midnightblue" stroke="midnightblue" points="2089.59,-84.112 2080.26,-79.0752 2084.41,-88.8253 2089.59,-84.112"/>
</g>
<!-- Node12 -->
<g id="node12" class="node"><title>Node12</title>
<polygon fill="none" stroke="#bfbfbf" points="2128.31,-59 2128.31,-79 2217.69,-79 2217.69,-59 2128.31,-59"/>
<text text-anchor="middle" x="2173" y="-65" font-family="Helvetica,sans-Serif" font-size="10.00">boost/config.hpp</text>
</g>
<!-- Node7&#45;&gt;Node12 -->
<g id="edge13" class="edge"><title>Node7&#45;&gt;Node12</title>
<path fill="none" stroke="midnightblue" d="M2131.26,-116.753C2138.54,-108.598 2149.33,-96.5158 2158.11,-86.6769"/>
<polygon fill="midnightblue" stroke="midnightblue" points="2160.85,-88.8657 2164.9,-79.0752 2155.63,-84.2035 2160.85,-88.8657"/>
</g>
<!-- Node13 -->
<g id="node13" class="node"><title>Node13</title>
<polygon fill="none" stroke="#bfbfbf" points="2349.53,-59 2349.53,-79 2444.47,-79 2444.47,-59 2349.53,-59"/>
<text text-anchor="middle" x="2397" y="-65" font-family="Helvetica,sans-Serif" font-size="10.00">boost/version.hpp</text>
</g>
<!-- Node7&#45;&gt;Node13 -->
<g id="edge14" class="edge"><title>Node7&#45;&gt;Node13</title>
<path fill="none" stroke="midnightblue" d="M2167.33,-116.94C2215.18,-107.16 2291.43,-91.5767 2342.81,-81.0758"/>
<polygon fill="midnightblue" stroke="midnightblue" points="2343.64,-84.4782 2352.74,-79.0466 2342.24,-77.62 2343.64,-84.4782"/>
</g>
<!-- Node14 -->
<g id="node14" class="node"><title>Node14</title>
<polygon fill="none" stroke="#bfbfbf" points="2235.97,-59 2235.97,-79 2332.03,-79 2332.03,-59 2235.97,-59"/>
<text text-anchor="middle" x="2284" y="-65" font-family="Helvetica,sans-Serif" font-size="10.00">boost/foreach.hpp</text>
</g>
<!-- Node7&#45;&gt;Node14 -->
<g id="edge15" class="edge"><title>Node7&#45;&gt;Node14</title>
<path fill="none" stroke="midnightblue" d="M2149.23,-116.878C2176.2,-107.494 2218.41,-92.8155 2248.39,-82.3857"/>
<polygon fill="midnightblue" stroke="midnightblue" points="2249.76,-85.6163 2258.05,-79.0253 2247.46,-79.0048 2249.76,-85.6163"/>
</g>
<!-- Node15&#45;&gt;Node2 -->
<g id="edge21" class="edge"><title>Node15&#45;&gt;Node2</title>
<path fill="none" stroke="midnightblue" d="M1278.77,-118.16C1274.15,-117.336 1269.48,-116.586 1265,-116 1009.9,-82.5956 701.289,-73.2466 584.192,-70.8051"/>
<polygon fill="midnightblue" stroke="midnightblue" points="584.188,-67.3044 574.12,-70.6024 584.047,-74.303 584.188,-67.3044"/>
</g>
<!-- Node15&#45;&gt;Node3 -->
<g id="edge22" class="edge"><title>Node15&#45;&gt;Node3</title>
<path fill="none" stroke="midnightblue" d="M1278.66,-117.861C1232.93,-107.316 1159.2,-89.1971 1150,-80 1137.29,-67.2949 1132.9,-46.8364 1131.48,-31.6739"/>
<polygon fill="midnightblue" stroke="midnightblue" points="1134.95,-31.1074 1130.88,-21.3276 1127.96,-31.514 1134.95,-31.1074"/>
</g>
<!-- Node15&#45;&gt;Node10 -->
<g id="edge20" class="edge"><title>Node15&#45;&gt;Node10</title>
<path fill="none" stroke="midnightblue" d="M1278.7,-118.606C1274.1,-117.707 1269.44,-116.818 1265,-116 1176.96,-99.7828 1072.52,-82.8142 1022.15,-74.7718"/>
<polygon fill="midnightblue" stroke="midnightblue" points="1022.67,-71.311 1012.24,-73.1945 1021.57,-78.2238 1022.67,-71.311"/>
</g>
<!-- Node16 -->
<g id="node16" class="node"><title>Node16</title>
<polygon fill="none" stroke="#bfbfbf" points="1159.45,-59 1159.45,-79 1310.55,-79 1310.55,-59 1159.45,-59"/>
<text text-anchor="middle" x="1235" y="-65" font-family="Helvetica,sans-Serif" font-size="10.00">boost/exception/exception.hpp</text>
</g>
<!-- Node15&#45;&gt;Node16 -->
<g id="edge18" class="edge"><title>Node15&#45;&gt;Node16</title>
<path fill="none" stroke="midnightblue" d="M1301.79,-116.753C1289.44,-108.109 1270.79,-95.0518 1256.33,-84.9314"/>
<polygon fill="midnightblue" stroke="midnightblue" points="1258.16,-81.9425 1247.96,-79.0752 1254.15,-87.6772 1258.16,-81.9425"/>
</g>
<!-- Node17 -->
<g id="node17" class="node"><title>Node17</title>
<polygon fill="none" stroke="#bfbfbf" points="1328.6,-59 1328.6,-79 1387.4,-79 1387.4,-59 1328.6,-59"/>
<text text-anchor="middle" x="1358" y="-65" font-family="Helvetica,sans-Serif" font-size="10.00">exception</text>
</g>
<!-- Node15&#45;&gt;Node17 -->
<g id="edge19" class="edge"><title>Node15&#45;&gt;Node17</title>
<path fill="none" stroke="midnightblue" d="M1322.1,-116.753C1328.24,-108.761 1337.27,-96.9975 1344.74,-87.2698"/>
<polygon fill="midnightblue" stroke="midnightblue" points="1347.72,-89.1383 1351.03,-79.0752 1342.17,-84.8751 1347.72,-89.1383"/>
</g>
<!-- Node18 -->
<g id="node18" class="node"><title>Node18</title>
<polygon fill="none" stroke="#bfbfbf" points="1405.77,-59 1405.77,-79 1516.23,-79 1516.23,-59 1405.77,-59"/>
<text text-anchor="middle" x="1461" y="-65" font-family="Helvetica,sans-Serif" font-size="10.00">RMF/internal/errors.h</text>
</g>
<!-- Node15&#45;&gt;Node18 -->
<g id="edge23" class="edge"><title>Node15&#45;&gt;Node18</title>
<path fill="none" stroke="midnightblue" d="M1338.78,-116.878C1362.96,-107.603 1400.63,-93.1564 1427.75,-82.7515"/>
<polygon fill="midnightblue" stroke="midnightblue" points="1429.14,-85.9672 1437.23,-79.1181 1426.64,-79.4315 1429.14,-85.9672"/>
</g>
<!-- Node28&#45;&gt;Node2 -->
<g id="edge37" class="edge"><title>Node28&#45;&gt;Node2</title>
<path fill="none" stroke="midnightblue" d="M1403.6,-375.791C1368.78,-368.241 1310.3,-354.216 1262,-336 1110.24,-278.766 1086.34,-232.325 935,-174 846.647,-139.95 821.643,-139.817 730,-116 680.382,-103.105 623.242,-89.7335 583.891,-80.7534"/>
<polygon fill="midnightblue" stroke="midnightblue" points="584.563,-77.3169 574.036,-78.5113 583.011,-84.1425 584.563,-77.3169"/>
</g>
<!-- Node28&#45;&gt;Node7 -->
<g id="edge55" class="edge"><title>Node28&#45;&gt;Node7</title>
<path fill="none" stroke="midnightblue" d="M1453.43,-372.849C1520.12,-341.704 1746.28,-238.191 1941,-174 1983.86,-159.87 2033.61,-147.567 2070.25,-139.248"/>
<polygon fill="midnightblue" stroke="midnightblue" points="2071.23,-142.615 2080.22,-137.01 2069.7,-135.785 2071.23,-142.615"/>
</g>
<!-- Node28&#45;&gt;Node15 -->
<g id="edge56" class="edge"><title>Node28&#45;&gt;Node15</title>
<path fill="none" stroke="midnightblue" d="M1445.05,-372.85C1480.86,-342.133 1588.29,-240.882 1534,-174 1512.69,-147.751 1419.13,-135.931 1361.41,-131.054"/>
<polygon fill="midnightblue" stroke="midnightblue" points="1361.67,-127.564 1351.42,-130.249 1361.11,-134.541 1361.67,-127.564"/>
</g>
<!-- Node29 -->
<g id="node29" class="node"><title>Node29</title>
<g id="a_node29"><a xlink:href="a00253.html" target="_top" xlink:title="Handle read/write of Model data from/to files. ">
<polygon fill="none" stroke="black" points="1411,-315 1411,-335 1457,-335 1457,-315 1411,-315"/>
<text text-anchor="middle" x="1434" y="-321" font-family="Helvetica,sans-Serif" font-size="10.00">traits.h</text>
</a>
</g>
</g>
<!-- Node28&#45;&gt;Node29 -->
<g id="edge38" class="edge"><title>Node28&#45;&gt;Node29</title>
<path fill="none" stroke="midnightblue" d="M1434,-372.753C1434,-365.25 1434,-354.424 1434,-345.078"/>
<polygon fill="midnightblue" stroke="midnightblue" points="1437.5,-345.075 1434,-335.075 1430.5,-345.075 1437.5,-345.075"/>
</g>
<!-- Node31 -->
<g id="node31" class="node"><title>Node31</title>
<polygon fill="none" stroke="#bfbfbf" points="1095.61,-117 1095.61,-137 1134.39,-137 1134.39,-117 1095.61,-117"/>
<text text-anchor="middle" x="1115" y="-123" font-family="Helvetica,sans-Serif" font-size="10.00">limits</text>
</g>
<!-- Node28&#45;&gt;Node31 -->
<g id="edge57" class="edge"><title>Node28&#45;&gt;Node31</title>
<path fill="none" stroke="midnightblue" d="M1403.42,-373.241C1357.62,-358.999 1270.17,-327.348 1210,-278 1165.44,-241.455 1135.3,-178.287 1122.28,-146.872"/>
<polygon fill="midnightblue" stroke="midnightblue" points="1125.36,-145.16 1118.39,-137.18 1118.87,-147.765 1125.36,-145.16"/>
</g>
<!-- Node29&#45;&gt;Node2 -->
<g id="edge39" class="edge"><title>Node29&#45;&gt;Node2</title>
<path fill="none" stroke="midnightblue" d="M1410.97,-321.086C1369.85,-315.488 1281.42,-301.642 1210,-278 1048.42,-224.515 1026.18,-164.387 863,-116 766.678,-87.4378 648.996,-76.4241 584.335,-72.3178"/>
<polygon fill="midnightblue" stroke="midnightblue" points="584.235,-68.8054 574.042,-71.6943 583.812,-75.7926 584.235,-68.8054"/>
</g>
<!-- Node29&#45;&gt;Node27 -->
<g id="edge40" class="edge"><title>Node29&#45;&gt;Node27</title>
<path fill="none" stroke="midnightblue" d="M1457.26,-320.628C1526.37,-310.607 1732.29,-280.751 1838.32,-265.378"/>
<polygon fill="midnightblue" stroke="midnightblue" points="1838.87,-268.835 1848.26,-263.936 1837.87,-261.907 1838.87,-268.835"/>
</g>
<!-- Node30 -->
<g id="node30" class="node"><title>Node30</title>
<polygon fill="none" stroke="#bfbfbf" points="1434.2,-175 1434.2,-195 1525.8,-195 1525.8,-175 1434.2,-175"/>
<text text-anchor="middle" x="1480" y="-181" font-family="Helvetica,sans-Serif" font-size="10.00">boost/cstdint.hpp</text>
</g>
<!-- Node29&#45;&gt;Node30 -->
<g id="edge41" class="edge"><title>Node29&#45;&gt;Node30</title>
<path fill="none" stroke="midnightblue" d="M1454.84,-314.872C1469.3,-307.295 1487.44,-295.001 1496,-278 1507.86,-254.431 1498.17,-223.646 1489.54,-204.346"/>
<polygon fill="midnightblue" stroke="midnightblue" points="1492.61,-202.655 1485.12,-195.162 1486.31,-205.69 1492.61,-202.655"/>
</g>
<!-- Node29&#45;&gt;Node31 -->
<g id="edge42" class="edge"><title>Node29&#45;&gt;Node31</title>
<path fill="none" stroke="midnightblue" d="M1410.85,-320.127C1379.27,-314.208 1321.5,-301.091 1277,-278 1211.69,-244.11 1153.24,-176.709 1128.08,-145.105"/>
<polygon fill="midnightblue" stroke="midnightblue" points="1130.81,-142.913 1121.89,-137.198 1125.3,-147.229 1130.81,-142.913"/>
</g>
<!-- Node32 -->
<g id="node32" class="node"><title>Node32</title>
<polygon fill="none" stroke="#bfbfbf" points="1444.38,-245 1444.38,-265 1487.62,-265 1487.62,-245 1444.38,-245"/>
<text text-anchor="middle" x="1466" y="-251" font-family="Helvetica,sans-Serif" font-size="10.00">cmath</text>
</g>
<!-- Node29&#45;&gt;Node32 -->
<g id="edge43" class="edge"><title>Node29&#45;&gt;Node32</title>
<path fill="none" stroke="midnightblue" d="M1438.32,-314.829C1443.21,-304.429 1451.31,-287.215 1457.49,-274.087"/>
<polygon fill="midnightblue" stroke="midnightblue" points="1460.66,-275.564 1461.75,-265.025 1454.33,-272.583 1460.66,-275.564"/>
</g>
<!-- Node33 -->
<g id="node33" class="node"><title>Node33</title>
<g id="a_node33"><a xlink:href="a00256.html" target="_top" xlink:title="Handle read/write of Model data from/to files. ">
<polygon fill="none" stroke="red" points="1286.21,-245 1286.21,-265 1387.79,-265 1387.79,-245 1286.21,-245"/>
<text text-anchor="middle" x="1337" y="-251" font-family="Helvetica,sans-Serif" font-size="10.00">RMF/HDF5/types.h</text>
</a>
</g>
</g>
<!-- Node29&#45;&gt;Node33 -->
<g id="edge44" class="edge"><title>Node29&#45;&gt;Node33</title>
<path fill="none" stroke="midnightblue" d="M1420.92,-314.829C1404.85,-303.563 1377.37,-284.298 1358.25,-270.897"/>
<polygon fill="midnightblue" stroke="midnightblue" points="1360.07,-267.9 1349.87,-265.025 1356.05,-273.632 1360.07,-267.9"/>
</g>
<!-- Node33&#45;&gt;Node2 -->
<g id="edge45" class="edge"><title>Node33&#45;&gt;Node2</title>
<path fill="none" stroke="midnightblue" d="M1320.99,-244.924C1301.97,-233.964 1269.49,-214.666 1243,-196 1196.47,-163.218 1195.96,-136.857 1143,-116 1041.5,-76.0239 708.954,-70.6085 584.017,-70.0099"/>
<polygon fill="midnightblue" stroke="midnightblue" points="583.995,-66.5099 573.982,-69.9701 583.968,-73.5098 583.995,-66.5099"/>
</g>
<!-- Node33&#45;&gt;Node18 -->
<g id="edge46" class="edge"><title>Node33&#45;&gt;Node18</title>
<path fill="none" stroke="midnightblue" d="M1343.15,-244.875C1362.61,-215.997 1423.1,-126.24 1449.02,-87.7832"/>
<polygon fill="midnightblue" stroke="midnightblue" points="1452.13,-89.4283 1454.81,-79.1797 1446.32,-85.5163 1452.13,-89.4283"/>
</g>
<!-- Node33&#45;&gt;Node24 -->
<g id="edge52" class="edge"><title>Node33&#45;&gt;Node24</title>
<path fill="none" stroke="midnightblue" d="M1371.23,-244.959C1389.94,-240.361 1413.6,-235.103 1435,-232 1678.69,-196.666 1975.25,-188.399 2080.05,-186.528"/>
<polygon fill="midnightblue" stroke="midnightblue" points="2080.22,-190.026 2090.16,-186.357 2080.1,-183.027 2080.22,-190.026"/>
</g>
<!-- Node33&#45;&gt;Node30 -->
<g id="edge53" class="edge"><title>Node33&#45;&gt;Node30</title>
<path fill="none" stroke="midnightblue" d="M1355.99,-244.97C1380.46,-233.336 1423.2,-213.008 1451.56,-199.525"/>
<polygon fill="midnightblue" stroke="midnightblue" points="1453.4,-202.523 1460.93,-195.067 1450.4,-196.201 1453.4,-202.523"/>
</g>
<!-- Node33&#45;&gt;Node31 -->
<g id="edge54" class="edge"><title>Node33&#45;&gt;Node31</title>
<path fill="none" stroke="midnightblue" d="M1313.39,-244.821C1287.37,-234.341 1244.61,-216.04 1210,-196 1182.42,-180.032 1152.91,-158.051 1134.23,-143.452"/>
<polygon fill="midnightblue" stroke="midnightblue" points="1136.23,-140.576 1126.22,-137.124 1131.89,-146.069 1136.23,-140.576"/>
</g>
<!-- Node34 -->
<g id="node34" class="node"><title>Node34</title>
<g id="a_node34"><a xlink:href="a00217.html" target="_top" xlink:title="Handle read/write of Model data from/to files. ">
<polygon fill="none" stroke="black" points="867.611,-175 867.611,-195 926.389,-195 926.389,-175 867.611,-175"/>
<text text-anchor="middle" x="897" y="-181" font-family="Helvetica,sans-Serif" font-size="10.00">RMF/ID.h</text>
</a>
</g>
</g>
<!-- Node33&#45;&gt;Node34 -->
<g id="edge47" class="edge"><title>Node33&#45;&gt;Node34</title>
<path fill="none" stroke="midnightblue" d="M1286.1,-246.133C1197.44,-232.432 1016.54,-204.474 936.547,-192.112"/>
<polygon fill="midnightblue" stroke="midnightblue" points="936.818,-188.612 926.401,-190.544 935.749,-195.53 936.818,-188.612"/>
</g>
<!-- Node34&#45;&gt;Node2 -->
<g id="edge48" class="edge"><title>Node34&#45;&gt;Node2</title>
<path fill="none" stroke="midnightblue" d="M868.627,-174.941C827.66,-161.87 749.55,-136.986 683,-116 646.225,-104.403 604.238,-91.2759 574.58,-82.0217"/>
<polygon fill="midnightblue" stroke="midnightblue" points="575.608,-78.6762 565.019,-79.0396 573.523,-85.3587 575.608,-78.6762"/>
</g>
<!-- Node34&#45;&gt;Node7 -->
<g id="edge49" class="edge"><title>Node34&#45;&gt;Node7</title>
<path fill="none" stroke="midnightblue" d="M926.397,-182.657C1082.84,-175.511 1819.24,-141.875 2052.17,-131.235"/>
<polygon fill="midnightblue" stroke="midnightblue" points="2052.4,-134.729 2062.23,-130.776 2052.08,-127.736 2052.4,-134.729"/>
</g>
<!-- Node34&#45;&gt;Node15 -->
<g id="edge50" class="edge"><title>Node34&#45;&gt;Node15</title>
<path fill="none" stroke="midnightblue" d="M926.393,-180.062C998,-170.469 1181.94,-145.826 1268.56,-134.221"/>
<polygon fill="midnightblue" stroke="midnightblue" points="1269.19,-137.669 1278.63,-132.872 1268.26,-130.731 1269.19,-137.669"/>
</g>
<!-- Node34&#45;&gt;Node31 -->
<g id="edge51" class="edge"><title>Node34&#45;&gt;Node31</title>
<path fill="none" stroke="midnightblue" d="M926.4,-176.448C968.078,-165.741 1043.89,-146.266 1085.58,-135.557"/>
<polygon fill="midnightblue" stroke="midnightblue" points="1086.59,-138.912 1095.4,-133.034 1084.85,-132.132 1086.59,-138.912"/>
</g>
<!-- Node35&#45;&gt;Node2 -->
<g id="edge59" class="edge"><title>Node35&#45;&gt;Node2</title>
<path fill="none" stroke="midnightblue" d="M1094.16,-683.232C932.027,-680.806 507.613,-671.368 371,-638 231.464,-603.918 76,-649.638 76,-506 76,-506 76,-506 76,-184 76,-138.009 111.977,-134.687 154,-116 212.785,-89.8593 399.378,-77.0137 488.164,-72.2555"/>
<polygon fill="midnightblue" stroke="midnightblue" points="488.433,-75.7463 498.236,-71.7281 488.067,-68.7559 488.433,-75.7463"/>
</g>
<!-- Node35&#45;&gt;Node6 -->
<g id="edge122" class="edge"><title>Node35&#45;&gt;Node6</title>
<path fill="none" stroke="midnightblue" d="M1222.03,-681.691C1344.08,-676.764 1605.55,-663.529 1692,-638 1732.23,-626.12 1774.34,-600.877 1798.83,-584.713"/>
<polygon fill="midnightblue" stroke="midnightblue" points="1800.96,-587.494 1807.31,-579.009 1797.06,-581.686 1800.96,-587.494"/>
</g>
<!-- Node35&#45;&gt;Node7 -->
<g id="edge60" class="edge"><title>Node35&#45;&gt;Node7</title>
<path fill="none" stroke="midnightblue" d="M1221.92,-684.022C1462.74,-683.781 2315.22,-679.919 2583,-638 2675.7,-623.488 2729.49,-654.911 2786,-580 2799.64,-561.911 2892.92,-522.56 2711,-232 2689.19,-197.172 2677.11,-189.376 2639,-174 2560.08,-142.158 2315.89,-132.256 2193.88,-129.257"/>
<polygon fill="midnightblue" stroke="midnightblue" points="2193.61,-125.75 2183.53,-129.012 2193.45,-132.748 2193.61,-125.75"/>
</g>
<!-- Node35&#45;&gt;Node23 -->
<g id="edge125" class="edge"><title>Node35&#45;&gt;Node23</title>
<path fill="none" stroke="midnightblue" d="M1221.74,-679.067C1287.3,-673.027 1391.96,-660.68 1480,-638 1550.42,-619.859 1575.77,-624.865 1633,-580 1652.12,-565.013 1666.84,-540.886 1675.45,-524.279"/>
<polygon fill="midnightblue" stroke="midnightblue" points="1678.71,-525.575 1680,-515.059 1672.44,-522.476 1678.71,-525.575"/>
</g>
<!-- Node36 -->
<g id="node36" class="node"><title>Node36</title>
<g id="a_node36"><a xlink:href="a00234.html" target="_top" xlink:title="Handle read/write of Model data from/to files. ">
<polygon fill="none" stroke="red" points="1087.81,-495 1087.81,-515 1192.19,-515 1192.19,-495 1087.81,-495"/>
<text text-anchor="middle" x="1140" y="-501" font-family="Helvetica,sans-Serif" font-size="10.00">RMF/NodeHandle.h</text>
</a>
</g>
</g>
<!-- Node35&#45;&gt;Node36 -->
<g id="edge61" class="edge"><title>Node35&#45;&gt;Node36</title>
<path fill="none" stroke="midnightblue" d="M1098.37,-674.961C1057.45,-667.67 1002.38,-655.684 956,-638 906.186,-619.005 878.092,-625.916 851,-580 846.031,-571.579 844.728,-565.501 851,-558 879.265,-524.196 1001.14,-512.334 1077.31,-508.195"/>
<polygon fill="midnightblue" stroke="midnightblue" points="1077.93,-511.668 1087.74,-507.661 1077.57,-504.677 1077.93,-511.668"/>
</g>
<!-- Node39 -->
<g id="node39" class="node"><title>Node39</title>
<g id="a_node39"><a xlink:href="a00187.html" target="_top" xlink:title="Various utilities for rmfing. ">
<polygon fill="none" stroke="black" points="336.209,-373 336.209,-393 427.791,-393 427.791,-373 336.209,-373"/>
<text text-anchor="middle" x="382" y="-379" font-family="Helvetica,sans-Serif" font-size="10.00">RMF/constants.h</text>
</a>
</g>
</g>
<!-- Node35&#45;&gt;Node39 -->
<g id="edge121" class="edge"><title>Node35&#45;&gt;Node39</title>
<path fill="none" stroke="midnightblue" d="M1094.42,-681.365C900.724,-672.685 327.805,-641.94 274,-580 228.827,-527.997 263.91,-478.323 313,-430 325.671,-417.527 342.175,-406.383 355.865,-398.188"/>
<polygon fill="midnightblue" stroke="midnightblue" points="357.912,-401.047 364.811,-393.006 354.404,-394.99 357.912,-401.047"/>
</g>
<!-- Node42 -->
<g id="node42" class="node"><title>Node42</title>
<g id="a_node42"><a xlink:href="a00211.html" target="_top" xlink:title="Handle read/write of Model data from/to files. ">
<polygon fill="none" stroke="red" points="597.709,-559 597.709,-579 694.291,-579 694.291,-559 597.709,-559"/>
<text text-anchor="middle" x="646" y="-565" font-family="Helvetica,sans-Serif" font-size="10.00">RMF/FileHandle.h</text>
</a>
</g>
</g>
<!-- Node35&#45;&gt;Node42 -->
<g id="edge96" class="edge"><title>Node35&#45;&gt;Node42</title>
<path fill="none" stroke="midnightblue" d="M1094.32,-682.64C965.548,-679.261 683.799,-668.44 653,-638 640.502,-625.648 640.119,-604.837 642.018,-589.484"/>
<polygon fill="midnightblue" stroke="midnightblue" points="645.496,-589.904 643.664,-579.468 638.589,-588.769 645.496,-589.904"/>
</g>
<!-- Node43 -->
<g id="node43" class="node"><title>Node43</title>
<g id="a_node43"><a xlink:href="a00198.html" target="_top" xlink:title="Helper functions for manipulating RMF files. ">
<polygon fill="none" stroke="red" points="1111.93,-559 1111.93,-579 1204.07,-579 1204.07,-559 1111.93,-559"/>
<text text-anchor="middle" x="1158" y="-565" font-family="Helvetica,sans-Serif" font-size="10.00">RMF/Decorator.h</text>
</a>
</g>
</g>
<!-- Node35&#45;&gt;Node43 -->
<g id="edge106" class="edge"><title>Node35&#45;&gt;Node43</title>
<path fill="none" stroke="midnightblue" d="M1158,-674.671C1158,-656.041 1158,-613.898 1158,-589.143"/>
<polygon fill="midnightblue" stroke="midnightblue" points="1161.5,-589.139 1158,-579.139 1154.5,-589.139 1161.5,-589.139"/>
</g>
<!-- Node44 -->
<g id="node44" class="node"><title>Node44</title>
<polygon fill="none" stroke="#bfbfbf" points="1467.8,-559 1467.8,-579 1574.2,-579 1574.2,-559 1467.8,-559"/>
<text text-anchor="middle" x="1521" y="-565" font-family="Helvetica,sans-Serif" font-size="10.00">RMF/internal/utility.h</text>
</g>
<!-- Node35&#45;&gt;Node44 -->
<g id="edge123" class="edge"><title>Node35&#45;&gt;Node44</title>
<path fill="none" stroke="midnightblue" d="M1221.81,-678.439C1295.31,-671.256 1410.97,-657.339 1450,-638 1474,-626.108 1495.26,-603.241 1508.12,-587.324"/>
<polygon fill="midnightblue" stroke="midnightblue" points="1510.97,-589.35 1514.36,-579.311 1505.45,-585.049 1510.97,-589.35"/>
</g>
<!-- Node45 -->
<g id="node45" class="node"><title>Node45</title>
<polygon fill="none" stroke="#bfbfbf" points="871.591,-559 871.591,-579 980.409,-579 980.409,-559 871.591,-559"/>
<text text-anchor="middle" x="926" y="-565" font-family="Helvetica,sans-Serif" font-size="10.00">RMF/internal/paths.h</text>
</g>
<!-- Node35&#45;&gt;Node45 -->
<g id="edge124" class="edge"><title>Node35&#45;&gt;Node45</title>
<path fill="none" stroke="midnightblue" d="M1094.31,-676.859C1059.34,-670.671 1016.43,-659.196 983,-638 962.961,-625.294 946.401,-603.26 936.388,-587.723"/>
<polygon fill="midnightblue" stroke="midnightblue" points="939.255,-585.705 931.027,-579.031 933.297,-589.379 939.255,-585.705"/>
</g>
<!-- Node46 -->
<g id="node46" class="node"><title>Node46</title>
<polygon fill="none" stroke="#bfbfbf" points="1335.8,-559 1335.8,-579 1450.2,-579 1450.2,-559 1335.8,-559"/>
<text text-anchor="middle" x="1393" y="-565" font-family="Helvetica,sans-Serif" font-size="10.00">boost/lexical_cast.hpp</text>
</g>
<!-- Node35&#45;&gt;Node46 -->
<g id="edge126" class="edge"><title>Node35&#45;&gt;Node46</title>
<path fill="none" stroke="midnightblue" d="M1176.83,-674.864C1218.1,-654.844 1316.67,-607.027 1365.14,-583.517"/>
<polygon fill="midnightblue" stroke="midnightblue" points="1366.93,-586.535 1374.4,-579.022 1363.88,-580.237 1366.93,-586.535"/>
</g>
<!-- Node47 -->
<g id="node47" class="node"><title>Node47</title>
<g id="a_node47"><a xlink:href="a00173.html" target="_top" xlink:title="Helper functions for manipulating RMF files. ">
<polygon fill="none" stroke="black" points="1185.55,-617 1185.55,-637 1230.45,-637 1230.45,-617 1185.55,-617"/>
<text text-anchor="middle" x="1208" y="-623" font-family="Helvetica,sans-Serif" font-size="10.00">alias.h</text>
</a>
</g>
</g>
<!-- Node35&#45;&gt;Node47 -->
<g id="edge127" class="edge"><title>Node35&#45;&gt;Node47</title>
<path fill="none" stroke="midnightblue" d="M1166.26,-674.753C1173.54,-666.598 1184.33,-654.516 1193.11,-644.677"/>
<polygon fill="midnightblue" stroke="midnightblue" points="1195.85,-646.866 1199.9,-637.075 1190.63,-642.204 1195.85,-646.866"/>
</g>
<!-- Node36&#45;&gt;Node2 -->
<g id="edge91" class="edge"><title>Node36&#45;&gt;Node2</title>
<path fill="none" stroke="midnightblue" d="M1122.11,-494.938C1078.43,-472.933 962.744,-415.306 864,-372 736.871,-316.245 574,-394.818 574,-256 574,-256 574,-256 574,-184 574,-148.541 557.249,-109.914 545.99,-87.9569"/>
<polygon fill="midnightblue" stroke="midnightblue" points="549.071,-86.2963 541.284,-79.1127 542.892,-89.5848 549.071,-86.2963"/>
</g>
<!-- Node36&#45;&gt;Node5 -->
<g id="edge64" class="edge"><title>Node36&#45;&gt;Node5</title>
<path fill="none" stroke="midnightblue" d="M1169.41,-494.982C1178.22,-492.486 1187.95,-489.934 1197,-488 1372.2,-450.535 1438.45,-491.119 1589,-394 1725.1,-306.202 1839.69,-141.262 1874.87,-87.4571"/>
<polygon fill="midnightblue" stroke="midnightblue" points="1877.84,-89.3055 1880.34,-79.0082 1871.97,-85.503 1877.84,-89.3055"/>
</g>
<!-- Node36&#45;&gt;Node7 -->
<g id="edge94" class="edge"><title>Node36&#45;&gt;Node7</title>
<path fill="none" stroke="midnightblue" d="M1192.66,-500.54C1325.43,-491.632 1666.81,-467.523 1716,-452 1845.1,-411.264 1863.52,-366.452 1966,-278 2019.51,-231.818 2078.85,-172.823 2106.78,-144.555"/>
<polygon fill="midnightblue" stroke="midnightblue" points="2109.58,-146.705 2114.1,-137.124 2104.59,-141.794 2109.58,-146.705"/>
</g>
<!-- Node36&#45;&gt;Node10 -->
<g id="edge63" class="edge"><title>Node36&#45;&gt;Node10</title>
<path fill="none" stroke="midnightblue" d="M1134.26,-494.579C1124.45,-479.186 1103.09,-448.508 1078,-430 1024.46,-390.501 1002.59,-394.552 940,-372 888.015,-353.27 853.933,-380.37 821,-336 760.526,-254.524 805.605,-182.778 882,-116 904.943,-95.9447 937.875,-83.7435 961.721,-76.9954"/>
<polygon fill="midnightblue" stroke="midnightblue" points="962.886,-80.307 971.648,-74.3501 961.084,-73.543 962.886,-80.307"/>
</g>
<!-- Node36&#45;&gt;Node15 -->
<g id="edge93" class="edge"><title>Node36&#45;&gt;Node15</title>
<path fill="none" stroke="midnightblue" d="M1143.5,-494.783C1157.28,-459.06 1210.35,-327.013 1277,-232 1289.64,-213.983 1302.27,-216.203 1311,-196 1317.66,-180.581 1318.16,-161.34 1317.29,-147.264"/>
<polygon fill="midnightblue" stroke="midnightblue" points="1320.77,-146.899 1316.38,-137.254 1313.8,-147.529 1320.77,-146.899"/>
</g>
<!-- Node36&#45;&gt;Node27 -->
<g id="edge95" class="edge"><title>Node36&#45;&gt;Node27</title>
<path fill="none" stroke="midnightblue" d="M1173.74,-494.931C1184.04,-492.404 1195.43,-489.848 1206,-488 1464.97,-442.723 1569,-536.387 1790,-394 1827.59,-369.783 1822.5,-348.451 1851,-314 1859.08,-304.231 1868.22,-293.839 1876.55,-284.59"/>
<polygon fill="midnightblue" stroke="midnightblue" points="1879.2,-286.886 1883.32,-277.128 1874.01,-282.181 1879.2,-286.886"/>
</g>
<!-- Node36&#45;&gt;Node28 -->
<g id="edge90" class="edge"><title>Node36&#45;&gt;Node28</title>
<path fill="none" stroke="midnightblue" d="M1160.92,-494.903C1193.66,-480.726 1259.04,-452.64 1315,-430 1343.57,-418.442 1376.23,-405.861 1400.1,-396.782"/>
<polygon fill="midnightblue" stroke="midnightblue" points="1401.65,-399.939 1409.75,-393.119 1399.16,-393.394 1401.65,-399.939"/>
</g>
<!-- Node36&#45;&gt;Node34 -->
<g id="edge65" class="edge"><title>Node36&#45;&gt;Node34</title>
<path fill="none" stroke="midnightblue" d="M1142.06,-494.688C1144.8,-479.977 1148.11,-450.886 1137,-430 1078.57,-320.19 952.703,-391.585 902,-278 891.535,-254.556 892.227,-224.346 894.199,-205.069"/>
<polygon fill="midnightblue" stroke="midnightblue" points="897.676,-205.471 895.434,-195.117 890.729,-204.61 897.676,-205.471"/>
</g>
<!-- Node36&#45;&gt;Node37 -->
<g id="edge62" class="edge"><title>Node36&#45;&gt;Node37</title>
<path fill="none" stroke="midnightblue" d="M1111.96,-494.98C1045.86,-473.715 880.195,-420.417 805.084,-396.252"/>
<polygon fill="midnightblue" stroke="midnightblue" points="805.697,-392.773 795.106,-393.042 803.554,-399.437 805.697,-392.773"/>
</g>
<!-- Node38 -->
<g id="node38" class="node"><title>Node38</title>
<g id="a_node38"><a xlink:href="a00233.html" target="_top" xlink:title="Handle read/write of Model data from/to files. ">
<polygon fill="none" stroke="red" points="1323.97,-431 1323.97,-451 1430.03,-451 1430.03,-431 1323.97,-431"/>
<text text-anchor="middle" x="1377" y="-437" font-family="Helvetica,sans-Serif" font-size="10.00">NodeConstHandle.h</text>
</a>
</g>
</g>
<!-- Node36&#45;&gt;Node38 -->
<g id="edge66" class="edge"><title>Node36&#45;&gt;Node38</title>
<path fill="none" stroke="midnightblue" d="M1174.46,-494.985C1216.24,-484.056 1286.72,-465.618 1332.54,-453.63"/>
<polygon fill="midnightblue" stroke="midnightblue" points="1333.71,-456.943 1342.5,-451.026 1331.94,-450.171 1333.71,-456.943"/>
</g>
<!-- Node40 -->
<g id="node40" class="node"><title>Node40</title>
<g id="a_node40"><a xlink:href="a00203.html" target="_top" xlink:title="Handle read/write of Model data from/to files. ">
<polygon fill="none" stroke="black" points="829.604,-315 829.604,-335 908.396,-335 908.396,-315 829.604,-315"/>
<text text-anchor="middle" x="869" y="-321" font-family="Helvetica,sans-Serif" font-size="10.00">RMF/enums.h</text>
</a>
</g>
</g>
<!-- Node36&#45;&gt;Node40 -->
<g id="edge92" class="edge"><title>Node36&#45;&gt;Node40</title>
<path fill="none" stroke="midnightblue" d="M1139.14,-494.811C1137.3,-479.752 1131.78,-449.543 1116,-430 1083.72,-390.03 1063.03,-392.689 1016,-372 983.485,-357.696 945.133,-345.851 915.757,-337.765"/>
<polygon fill="midnightblue" stroke="midnightblue" points="916.332,-334.294 905.765,-335.063 914.505,-341.052 916.332,-334.294"/>
</g>
<!-- Node38&#45;&gt;Node2 -->
<g id="edge73" class="edge"><title>Node38&#45;&gt;Node2</title>
<path fill="none" stroke="midnightblue" d="M1323.85,-432.452C1265.75,-423.99 1170.01,-409.422 1088,-394 1028.33,-382.779 874.706,-364.323 821,-336 695.023,-269.563 693.129,-212.084 588,-116 576.879,-105.836 564.22,-94.6301 554.177,-85.8236"/>
<polygon fill="midnightblue" stroke="midnightblue" points="556.28,-83.0127 546.448,-79.0659 551.673,-88.2828 556.28,-83.0127"/>
</g>
<!-- Node38&#45;&gt;Node5 -->
<g id="edge70" class="edge"><title>Node38&#45;&gt;Node5</title>
<path fill="none" stroke="midnightblue" d="M1430.07,-435.407C1468.54,-430.083 1520.53,-418.623 1560,-394 1690.92,-312.321 1645.94,-210.409 1768,-116 1793.68,-96.1369 1828.99,-83.884 1854.28,-77.0704"/>
<polygon fill="midnightblue" stroke="midnightblue" points="1855.29,-80.4252 1864.11,-74.5583 1853.56,-73.6431 1855.29,-80.4252"/>
</g>
<!-- Node38&#45;&gt;Node7 -->
<g id="edge75" class="edge"><title>Node38&#45;&gt;Node7</title>
<path fill="none" stroke="midnightblue" d="M1430.04,-436.443C1506.97,-430.571 1645.11,-417.138 1689,-394 1694.43,-391.14 1833.9,-235.399 1839,-232 1860.34,-217.79 2014.43,-164.726 2086.29,-140.367"/>
<polygon fill="midnightblue" stroke="midnightblue" points="2087.51,-143.648 2095.86,-137.127 2085.26,-137.018 2087.51,-143.648"/>
</g>
<!-- Node38&#45;&gt;Node9 -->
<g id="edge68" class="edge"><title>Node38&#45;&gt;Node9</title>
<path fill="none" stroke="midnightblue" d="M1428.8,-430.967C1459.7,-424.031 1498.85,-412.438 1530,-394 1561.64,-375.27 1569.14,-366.944 1589,-336 1641.78,-253.779 1660.51,-134.883 1666.02,-89.0277"/>
<polygon fill="midnightblue" stroke="midnightblue" points="1669.51,-89.3389 1667.15,-79.0101 1662.55,-88.5557 1669.51,-89.3389"/>
</g>
<!-- Node38&#45;&gt;Node10 -->
<g id="edge69" class="edge"><title>Node38&#45;&gt;Node10</title>
<path fill="none" stroke="midnightblue" d="M1363.01,-430.932C1327.78,-407.764 1233.35,-343.585 1165,-278 1098.14,-213.845 1031.59,-125.045 1004.58,-87.6834"/>
<polygon fill="midnightblue" stroke="midnightblue" points="1007.26,-85.4206 998.585,-79.3394 1001.58,-89.5036 1007.26,-85.4206"/>
</g>
<!-- Node38&#45;&gt;Node15 -->
<g id="edge74" class="edge"><title>Node38&#45;&gt;Node15</title>
<path fill="none" stroke="midnightblue" d="M1405.29,-430.899C1425.69,-423.334 1453.05,-411.045 1473,-394 1552.22,-326.324 1620.35,-254.338 1554,-174 1530.04,-144.99 1423.76,-134.081 1361.28,-130.128"/>
<polygon fill="midnightblue" stroke="midnightblue" points="1361.47,-126.633 1351.28,-129.53 1361.05,-133.62 1361.47,-126.633"/>
</g>
<!-- Node38&#45;&gt;Node18 -->
<g id="edge76" class="edge"><title>Node38&#45;&gt;Node18</title>
<path fill="none" stroke="midnightblue" d="M1412.19,-430.977C1437.59,-423.484 1472.01,-411.25 1499,-394 1554.68,-358.414 1574.69,-341.77 1592,-278 1604.25,-232.868 1600.54,-213.811 1576,-174 1552.37,-135.668 1510.52,-103.026 1484.35,-85.004"/>
<polygon fill="midnightblue" stroke="midnightblue" points="1486.05,-81.9317 1475.8,-79.254 1482.15,-87.7398 1486.05,-81.9317"/>
</g>
<!-- Node38&#45;&gt;Node27 -->
<g id="edge89" class="edge"><title>Node38&#45;&gt;Node27</title>
<path fill="none" stroke="midnightblue" d="M1430.28,-439.383C1523.37,-437.386 1710.89,-429.002 1765,-394 1799.81,-371.478 1784.15,-343.786 1813,-314 1824.67,-301.947 1839.3,-291.183 1853.35,-282.297"/>
<polygon fill="midnightblue" stroke="midnightblue" points="1855.29,-285.215 1862,-277.012 1851.64,-279.243 1855.29,-285.215"/>
</g>
<!-- Node38&#45;&gt;Node28 -->
<g id="edge72" class="edge"><title>Node38&#45;&gt;Node28</title>
<path fill="none" stroke="midnightblue" d="M1386.41,-430.753C1394.88,-422.435 1407.5,-410.031 1417.62,-400.089"/>
<polygon fill="midnightblue" stroke="midnightblue" points="1420.08,-402.58 1424.76,-393.075 1415.18,-397.587 1420.08,-402.58"/>
</g>
<!-- Node38&#45;&gt;Node29 -->
<g id="edge88" class="edge"><title>Node38&#45;&gt;Node29</title>
<path fill="none" stroke="midnightblue" d="M1378.13,-430.732C1380.06,-417.189 1384.83,-391.488 1395,-372 1400.59,-361.279 1409.08,-350.869 1416.71,-342.671"/>
<polygon fill="midnightblue" stroke="midnightblue" points="1419.44,-344.885 1423.91,-335.281 1414.43,-339.998 1419.44,-344.885"/>
</g>
<!-- Node38&#45;&gt;Node34 -->
<g id="edge71" class="edge"><title>Node38&#45;&gt;Node34</title>
<path fill="none" stroke="midnightblue" d="M1347.34,-430.953C1264.37,-405.65 1036,-336 1036,-336 979.016,-300.295 930.264,-235.313 908.756,-203.922"/>
<polygon fill="midnightblue" stroke="midnightblue" points="911.462,-201.673 902.977,-195.327 905.653,-205.579 911.462,-201.673"/>
</g>
<!-- Node38&#45;&gt;Node37 -->
<g id="edge67" class="edge"><title>Node38&#45;&gt;Node37</title>
<path fill="none" stroke="midnightblue" d="M1323.93,-435.128C1212.4,-424.889 953.951,-401.163 832.405,-390.004"/>
<polygon fill="midnightblue" stroke="midnightblue" points="832.411,-386.49 822.133,-389.061 831.771,-393.461 832.411,-386.49"/>
</g>
<!-- Node38&#45;&gt;Node39 -->
<g id="edge77" class="edge"><title>Node38&#45;&gt;Node39</title>
<path fill="none" stroke="midnightblue" d="M1323.86,-437.009C1152.2,-427.348 613.546,-397.032 437.952,-387.149"/>
<polygon fill="midnightblue" stroke="midnightblue" points="438.077,-383.651 427.896,-386.583 437.683,-390.64 438.077,-383.651"/>
</g>
<!-- Node38&#45;&gt;Node40 -->
<g id="edge80" class="edge"><title>Node38&#45;&gt;Node40</title>
<path fill="none" stroke="midnightblue" d="M1340.64,-430.946C1286.55,-417.562 1181.63,-391.932 1092,-372 1032.45,-358.757 963.654,-344.763 918.404,-335.737"/>
<polygon fill="midnightblue" stroke="midnightblue" points="919.046,-332.296 908.555,-333.777 917.68,-339.162 919.046,-332.296"/>
</g>
<!-- Node39&#45;&gt;Node2 -->
<g id="edge78" class="edge"><title>Node39&#45;&gt;Node2</title>
<path fill="none" stroke="midnightblue" d="M377.441,-372.775C367.753,-352.298 346,-301.273 346,-256 346,-256 346,-256 346,-184 346,-151.951 346.57,-137.868 370,-116 401.974,-86.1581 451.593,-75.3998 488.261,-71.6602"/>
<polygon fill="midnightblue" stroke="midnightblue" points="488.58,-75.1457 498.234,-70.7815 487.965,-68.1727 488.58,-75.1457"/>
</g>
<!-- Node39&#45;&gt;Node34 -->
<g id="edge79" class="edge"><title>Node39&#45;&gt;Node34</title>
<path fill="none" stroke="midnightblue" d="M399.069,-372.882C447.116,-347.516 588.087,-275.16 712,-232 760.995,-214.935 819.356,-201.52 857.24,-193.685"/>
<polygon fill="midnightblue" stroke="midnightblue" points="858.257,-197.05 867.358,-191.624 856.861,-190.191 858.257,-197.05"/>
</g>
<!-- Node40&#45;&gt;Node2 -->
<g id="edge81" class="edge"><title>Node40&#45;&gt;Node2</title>
<path fill="none" stroke="midnightblue" d="M861.354,-314.91C834.552,-283.525 741.267,-178.23 645,-116 623.011,-101.786 595.893,-90.3214 574.207,-82.3929"/>
<polygon fill="midnightblue" stroke="midnightblue" points="575.258,-79.052 564.664,-79.0018 572.915,-85.648 575.258,-79.052"/>
</g>
<!-- Node40&#45;&gt;Node9 -->
<g id="edge87" class="edge"><title>Node40&#45;&gt;Node9</title>
<path fill="none" stroke="midnightblue" d="M908.672,-323.104C1024.89,-320.13 1358.73,-308.948 1396,-278 1432.92,-247.346 1393.39,-210.102 1425,-174 1479.27,-112.018 1576.93,-85.8223 1630.43,-75.7034"/>
<polygon fill="midnightblue" stroke="midnightblue" points="1631.3,-79.1043 1640.52,-73.8882 1630.06,-72.215 1631.3,-79.1043"/>
</g>
<!-- Node40&#45;&gt;Node10 -->
<g id="edge86" class="edge"><title>Node40&#45;&gt;Node10</title>
<path fill="none" stroke="midnightblue" d="M865.439,-314.955C856.476,-290.664 835.327,-222.563 859,-174 880.359,-130.185 930.091,-99.4084 962.322,-83.22"/>
<polygon fill="midnightblue" stroke="midnightblue" points="964.241,-86.179 971.711,-78.666 961.186,-79.8807 964.241,-86.179"/>
</g>
<!-- Node41 -->
<g id="node41" class="node"><title>Node41</title>
<g id="a_node41"><a xlink:href="a00202.html" target="_top" xlink:title="Handle read/write of Model data from/to files. ">
<polygon fill="none" stroke="red" points="1251.77,-175 1251.77,-195 1302.23,-195 1302.23,-175 1251.77,-175"/>
<text text-anchor="middle" x="1277" y="-181" font-family="Helvetica,sans-Serif" font-size="10.00">Enum.h</text>
</a>
</g>
</g>
<!-- Node40&#45;&gt;Node41 -->
<g id="edge82" class="edge"><title>Node40&#45;&gt;Node41</title>
<path fill="none" stroke="midnightblue" d="M895.77,-314.945C967.175,-290.794 1162.16,-224.844 1242.1,-197.804"/>
<polygon fill="midnightblue" stroke="midnightblue" points="1243.36,-201.074 1251.71,-194.554 1241.11,-194.443 1243.36,-201.074"/>
</g>
<!-- Node41&#45;&gt;Node2 -->
<g id="edge83" class="edge"><title>Node41&#45;&gt;Node2</title>
<path fill="none" stroke="midnightblue" d="M1273.4,-174.959C1266.8,-159.71 1251.15,-129.247 1227,-116 1170.96,-85.2657 731.242,-73.8512 583.918,-70.8666"/>
<polygon fill="midnightblue" stroke="midnightblue" points="583.893,-67.3655 573.826,-70.6661 583.754,-74.3641 583.893,-67.3655"/>
</g>
<!-- Node41&#45;&gt;Node7 -->
<g id="edge84" class="edge"><title>Node41&#45;&gt;Node7</title>
<path fill="none" stroke="midnightblue" d="M1302.4,-182.271C1331.88,-180.267 1381.96,-176.872 1425,-174 1654.24,-158.702 1925.85,-140.893 2052.02,-132.639"/>
<polygon fill="midnightblue" stroke="midnightblue" points="2052.56,-136.111 2062.31,-131.966 2052.1,-129.126 2052.56,-136.111"/>
</g>
<!-- Node41&#45;&gt;Node15 -->
<g id="edge85" class="edge"><title>Node41&#45;&gt;Node15</title>
<path fill="none" stroke="midnightblue" d="M1283.27,-174.753C1288.64,-166.843 1296.52,-155.237 1303.08,-145.568"/>
<polygon fill="midnightblue" stroke="midnightblue" points="1306.12,-147.315 1308.84,-137.075 1300.33,-143.385 1306.12,-147.315"/>
</g>
<!-- Node42&#45;&gt;Node2 -->
<g id="edge102" class="edge"><title>Node42&#45;&gt;Node2</title>
<path fill="none" stroke="midnightblue" d="M604.216,-558.963C513.783,-536.688 308,-470.16 308,-326 308,-326 308,-326 308,-184 308,-104.29 420.863,-80.3116 487.774,-73.1003"/>
<polygon fill="midnightblue" stroke="midnightblue" points="488.487,-76.547 498.094,-72.0809 487.799,-69.5809 488.487,-76.547"/>
</g>
<!-- Node42&#45;&gt;Node3 -->
<g id="edge103" class="edge"><title>Node42&#45;&gt;Node3</title>
<path fill="none" stroke="midnightblue" d="M597.709,-567.014C447.735,-561.157 0,-521.444 0,-256 0,-256 0,-256 0,-126 0,-19.2461 807.978,-11.512 1058.1,-11.6753"/>
<polygon fill="midnightblue" stroke="midnightblue" points="1058.17,-15.1753 1068.18,-11.6864 1058.18,-8.17531 1058.17,-15.1753"/>
</g>
<!-- Node42&#45;&gt;Node5 -->
<g id="edge99" class="edge"><title>Node42&#45;&gt;Node5</title>
<path fill="none" stroke="midnightblue" d="M694.72,-565.326C824.357,-558.081 1175.71,-537.576 1291,-522 1367.36,-511.683 1384.92,-500.2 1461,-488 1592.29,-466.946 1631.32,-492.394 1758,-452 1878.77,-413.489 1960.21,-402.514 1984,-278 1998.57,-201.732 1934.42,-121.279 1902.76,-87.0329"/>
<polygon fill="midnightblue" stroke="midnightblue" points="1904.9,-84.2024 1895.48,-79.3525 1899.82,-89.018 1904.9,-84.2024"/>
</g>
<!-- Node42&#45;&gt;Node10 -->
<g id="edge98" class="edge"><title>Node42&#45;&gt;Node10</title>
<path fill="none" stroke="midnightblue" d="M639.804,-558.97C634.038,-550.027 625.782,-535.72 622,-522 604.283,-457.731 595.816,-433.309 622,-372 682.425,-230.515 726.158,-200.076 855,-116 888.123,-94.3855 932.402,-81.948 961.537,-75.5814"/>
<polygon fill="midnightblue" stroke="midnightblue" points="962.458,-78.9649 971.538,-73.5047 961.035,-72.1111 962.458,-78.9649"/>
</g>
<!-- Node42&#45;&gt;Node27 -->
<g id="edge105" class="edge"><title>Node42&#45;&gt;Node27</title>
<path fill="none" stroke="midnightblue" d="M694.519,-566.244C791.32,-562.241 1015.12,-550.489 1201,-522 1269,-511.578 1284.09,-498.961 1352,-488 1512.49,-462.096 1561.18,-501.581 1716,-452 1765.3,-436.212 1779.74,-429.938 1817,-394 1849.45,-362.698 1874.88,-316.739 1889.43,-286.596"/>
<polygon fill="midnightblue" stroke="midnightblue" points="1892.66,-287.942 1893.76,-277.404 1886.33,-284.957 1892.66,-287.942"/>
</g>
<!-- Node42&#45;&gt;Node34 -->
<g id="edge100" class="edge"><title>Node42&#45;&gt;Node34</title>
<path fill="none" stroke="midnightblue" d="M642.703,-558.641C633.072,-529.767 607.189,-439.934 632,-372 659.916,-295.562 682.24,-277.062 750,-232 782.709,-210.248 826.281,-198.313 857.48,-192.091"/>
<polygon fill="midnightblue" stroke="midnightblue" points="858.373,-195.484 867.553,-190.194 857.078,-188.605 858.373,-195.484"/>
</g>
<!-- Node42&#45;&gt;Node36 -->
<g id="edge101" class="edge"><title>Node42&#45;&gt;Node36</title>
<path fill="none" stroke="midnightblue" d="M694.719,-561.886C784.969,-550.559 978.014,-526.33 1077.65,-513.826"/>
<polygon fill="midnightblue" stroke="midnightblue" points="1078.09,-517.298 1087.58,-512.58 1077.22,-510.352 1078.09,-517.298"/>
</g>
<!-- Node42&#45;&gt;Node37 -->
<g id="edge97" class="edge"><title>Node42&#45;&gt;Node37</title>
<path fill="none" stroke="midnightblue" d="M652,-558.875C670.991,-529.997 730.016,-440.24 755.306,-401.783"/>
<polygon fill="midnightblue" stroke="midnightblue" points="758.393,-403.458 760.963,-393.18 752.544,-399.612 758.393,-403.458"/>
</g>
<!-- Node42&#45;&gt;Node40 -->
<g id="edge104" class="edge"><title>Node42&#45;&gt;Node40</title>
<path fill="none" stroke="midnightblue" d="M645.746,-558.647C645.43,-527.393 648.784,-425.532 703,-372 733.733,-341.654 782.622,-330.907 819.4,-327.304"/>
<polygon fill="midnightblue" stroke="midnightblue" points="819.753,-330.787 829.427,-326.467 819.17,-323.811 819.753,-330.787"/>
</g>
<!-- Node43&#45;&gt;Node2 -->
<g id="edge107" class="edge"><title>Node43&#45;&gt;Node2</title>
<path fill="none" stroke="midnightblue" d="M1111.82,-560.265C1107.15,-559.495 1102.48,-558.729 1098,-558 997.175,-541.603 967.852,-554.469 871,-522 850.169,-515.016 535.922,-352.996 522,-336 498.477,-307.283 498,-293.121 498,-256 498,-256 498,-256 498,-184 498,-148.541 514.751,-109.914 526.01,-87.9569"/>
<polygon fill="midnightblue" stroke="midnightblue" points="529.108,-89.5848 530.716,-79.1127 522.929,-86.2963 529.108,-89.5848"/>
</g>
<!-- Node43&#45;&gt;Node7 -->
<g id="edge108" class="edge"><title>Node43&#45;&gt;Node7</title>
<path fill="none" stroke="midnightblue" d="M1204.16,-560.106C1208.83,-559.367 1213.51,-558.652 1218,-558 1346.97,-539.284 1386.44,-566.286 1509,-522 1535.32,-512.49 1535.45,-496.855 1562,-488 1665.36,-453.525 1953.92,-501.483 2051,-452 2160.56,-396.152 2140.97,-318.055 2156,-196 2157.19,-186.295 2158.99,-183.308 2156,-174 2152.56,-163.306 2145.61,-152.991 2138.98,-144.849"/>
<polygon fill="midnightblue" stroke="midnightblue" points="2141.54,-142.466 2132.33,-137.226 2136.27,-147.065 2141.54,-142.466"/>
</g>
<!-- Node43&#45;&gt;Node10 -->
<g id="edge111" class="edge"><title>Node43&#45;&gt;Node10</title>
<path fill="none" stroke="midnightblue" d="M1170.92,-558.717C1181.25,-550.425 1194.98,-537.253 1201,-522 1206.55,-507.944 1204.52,-502.695 1201,-488 1180.66,-403.145 1060.88,-216.605 1023,-138 1015.01,-121.422 1006.36,-102.338 1000.23,-88.6159"/>
<polygon fill="midnightblue" stroke="midnightblue" points="1003.35,-87.0141 996.087,-79.2973 996.95,-89.857 1003.35,-87.0141"/>
</g>
<!-- Node43&#45;&gt;Node13 -->
<g id="edge114" class="edge"><title>Node43&#45;&gt;Node13</title>
<path fill="none" stroke="midnightblue" d="M1204.21,-562.481C1216.49,-561.019 1229.75,-559.445 1242,-558 1378.87,-541.854 1416.55,-556.441 1550,-522 1588.6,-512.038 1594.23,-497.255 1633,-488 1828.16,-441.417 1888.06,-499.469 2083,-452 2147.64,-436.26 2171.67,-438.64 2221,-394 2320.69,-303.789 2375.27,-143.515 2391.66,-88.8636"/>
<polygon fill="midnightblue" stroke="midnightblue" points="2395.06,-89.7099 2394.5,-79.1295 2388.34,-87.7459 2395.06,-89.7099"/>
</g>
<!-- Node43&#45;&gt;Node24 -->
<g id="edge117" class="edge"><title>Node43&#45;&gt;Node24</title>
<path fill="none" stroke="midnightblue" d="M1204.17,-560.207C1208.84,-559.448 1213.51,-558.701 1218,-558 1327.61,-540.88 1360.18,-558.343 1465,-522 1493.59,-512.085 1495.06,-496.871 1524,-488 1630.08,-455.478 1923.63,-503.332 2022,-452 2112.75,-404.641 2120.04,-258.309 2119.61,-205.368"/>
<polygon fill="midnightblue" stroke="midnightblue" points="2123.1,-204.973 2119.41,-195.042 2116.1,-205.107 2123.1,-204.973"/>
</g>
<!-- Node43&#45;&gt;Node27 -->
<g id="edge115" class="edge"><title>Node43&#45;&gt;Node27</title>
<path fill="none" stroke="midnightblue" d="M1204.44,-558.934C1244.84,-550.639 1304.78,-537.347 1356,-522 1397.76,-509.487 1405.48,-497.627 1448,-488 1533.53,-468.633 1765.83,-497.17 1841,-452 1896.63,-418.575 1904.51,-333.747 1904.41,-287.403"/>
<polygon fill="midnightblue" stroke="midnightblue" points="1907.91,-287.262 1904.26,-277.316 1900.91,-287.367 1907.91,-287.262"/>
</g>
<!-- Node43&#45;&gt;Node29 -->
<g id="edge118" class="edge"><title>Node43&#45;&gt;Node29</title>
<path fill="none" stroke="midnightblue" d="M1196.21,-558.969C1227.66,-550.958 1273.07,-538.05 1311,-522 1339.58,-509.905 1344.77,-502.901 1372,-488 1401.65,-471.771 1414.66,-475.455 1439,-452 1466.82,-425.194 1486.31,-408.27 1473,-372 1468.89,-360.794 1460.71,-350.447 1452.89,-342.415"/>
<polygon fill="midnightblue" stroke="midnightblue" points="1455.01,-339.597 1445.37,-335.21 1450.17,-344.653 1455.01,-339.597"/>
</g>
<!-- Node43&#45;&gt;Node30 -->
<g id="edge116" class="edge"><title>Node43&#45;&gt;Node30</title>
<path fill="none" stroke="midnightblue" d="M1204.22,-560.098C1275.71,-547.827 1405.99,-525.253 1416,-522 1448.89,-511.308 1452.7,-497.331 1486,-488 1567.89,-465.056 1794.17,-495.906 1867,-452 1895.92,-434.568 1960.23,-301.372 1966,-278 1970.9,-258.152 1979.76,-247.122 1966,-232 1951.68,-216.261 1660.66,-196.903 1535.95,-189.293"/>
<polygon fill="midnightblue" stroke="midnightblue" points="1536.03,-185.792 1525.83,-188.679 1535.6,-192.779 1536.03,-185.792"/>
</g>
<!-- Node43&#45;&gt;Node34 -->
<g id="edge109" class="edge"><title>Node43&#45;&gt;Node34</title>
<path fill="none" stroke="midnightblue" d="M1124.15,-558.966C1098.57,-551.299 1063.18,-538.85 1035,-522 948.236,-470.112 940.763,-437.786 864,-372 845.075,-355.781 831.546,-358.583 821,-336 797.854,-286.435 849.311,-229.064 878.558,-201.87"/>
<polygon fill="midnightblue" stroke="midnightblue" points="881.057,-204.329 886.138,-195.031 876.368,-199.131 881.057,-204.329"/>
</g>
<!-- Node43&#45;&gt;Node36 -->
<g id="edge120" class="edge"><title>Node43&#45;&gt;Node36</title>
<path fill="none" stroke="midnightblue" d="M1155.34,-558.852C1152.77,-549.969 1148.77,-536.215 1145.51,-524.964"/>
<polygon fill="midnightblue" stroke="midnightblue" points="1148.82,-523.813 1142.67,-515.186 1142.09,-525.765 1148.82,-523.813"/>
</g>
<!-- Node43&#45;&gt;Node37 -->
<g id="edge110" class="edge"><title>Node43&#45;&gt;Node37</title>
<path fill="none" stroke="midnightblue" d="M1111.69,-560.07C1037.53,-547.335 900.158,-523.581 898,-522 860.802,-494.735 882.198,-463.02 850,-430 836.251,-415.9 817.245,-404.938 800.889,-397.258"/>
<polygon fill="midnightblue" stroke="midnightblue" points="802.182,-394.003 791.625,-393.116 799.325,-400.393 802.182,-394.003"/>
</g>
<!-- Node43&#45;&gt;Node38 -->
<g id="edge119" class="edge"><title>Node43&#45;&gt;Node38</title>
<path fill="none" stroke="midnightblue" d="M1186.61,-558.851C1210.28,-550.729 1244.36,-537.726 1272,-522 1304.94,-503.257 1339.14,-475.345 1359.23,-457.932"/>
<polygon fill="midnightblue" stroke="midnightblue" points="1361.72,-460.398 1366.92,-451.169 1357.1,-455.139 1361.72,-460.398"/>
</g>
<!-- Node43&#45;&gt;Node39 -->
<g id="edge112" class="edge"><title>Node43&#45;&gt;Node39</title>
<path fill="none" stroke="midnightblue" d="M1111.84,-560.137C1107.17,-559.392 1102.49,-558.667 1098,-558 975.636,-539.829 940.874,-556.237 822,-522 727.979,-494.921 715.171,-459.871 622,-430 560.522,-410.29 487.328,-397.758 438.071,-390.835"/>
<polygon fill="midnightblue" stroke="midnightblue" points="438.319,-387.337 427.936,-389.443 437.366,-394.272 438.319,-387.337"/>
</g>
<!-- Node43&#45;&gt;Node40 -->
<g id="edge113" class="edge"><title>Node43&#45;&gt;Node40</title>
<path fill="none" stroke="midnightblue" d="M1139.71,-558.855C1123.22,-550.264 1098.62,-536.579 1079,-522 1000.07,-463.342 918.136,-378.757 884.659,-342.991"/>
<polygon fill="midnightblue" stroke="midnightblue" points="886.942,-340.307 877.568,-335.369 881.816,-345.075 886.942,-340.307"/>
</g>
<!-- Node47&#45;&gt;Node2 -->
<g id="edge128" class="edge"><title>Node47&#45;&gt;Node2</title>
<path fill="none" stroke="midnightblue" d="M1185.36,-622.245C1171.69,-620.106 1153.88,-617.551 1138,-616 1062.59,-608.635 525.002,-613.425 457,-580 331.193,-518.162 270,-466.183 270,-326 270,-326 270,-326 270,-184 270,-90.3075 411.144,-72.6223 487.804,-69.9266"/>
<polygon fill="midnightblue" stroke="midnightblue" points="488.272,-73.4151 498.171,-69.6394 488.078,-66.4178 488.272,-73.4151"/>
</g>
<!-- Node47&#45;&gt;Node6 -->
<g id="edge134" class="edge"><title>Node47&#45;&gt;Node6</title>
<path fill="none" stroke="midnightblue" d="M1230.5,-623.772C1251.36,-621.716 1283.27,-618.599 1311,-616 1480.1,-600.15 1680.9,-582.284 1771.45,-574.279"/>
<polygon fill="midnightblue" stroke="midnightblue" points="1772.03,-577.742 1781.68,-573.375 1771.41,-570.769 1772.03,-577.742"/>
</g>
<!-- Node47&#45;&gt;Node7 -->
<g id="edge129" class="edge"><title>Node47&#45;&gt;Node7</title>
<path fill="none" stroke="midnightblue" d="M1230.47,-623.408C1251.31,-621.101 1283.21,-617.818 1311,-616 1369.91,-612.146 2321.55,-608.939 2373,-580 2431.61,-547.038 2435,-509.239 2435,-442 2435,-442 2435,-442 2435,-254 2435,-209.017 2411.43,-197.387 2373,-174 2343.54,-156.07 2256.86,-142.887 2193.82,-135.338"/>
<polygon fill="midnightblue" stroke="midnightblue" points="2193.86,-131.819 2183.52,-134.13 2193.04,-138.772 2193.86,-131.819"/>
</g>
<!-- Node47&#45;&gt;Node23 -->
<g id="edge137" class="edge"><title>Node47&#45;&gt;Node23</title>
<path fill="none" stroke="midnightblue" d="M1223.17,-616.877C1252.71,-599.189 1315.99,-561.639 1327,-558 1454.93,-515.734 1495.92,-548.591 1628,-522 1633.84,-520.824 1639.96,-519.341 1645.92,-517.756"/>
<polygon fill="midnightblue" stroke="midnightblue" points="1647.03,-521.08 1655.73,-515.026 1645.15,-514.337 1647.03,-521.08"/>
</g>
<!-- Node47&#45;&gt;Node36 -->
<g id="edge130" class="edge"><title>Node47&#45;&gt;Node36</title>
<path fill="none" stroke="midnightblue" d="M1185.35,-623.274C1160.33,-618.919 1121.18,-607.82 1103,-580 1090.69,-561.162 1107.31,-537.662 1122.06,-522.264"/>
<polygon fill="midnightblue" stroke="midnightblue" points="1124.75,-524.522 1129.43,-515.018 1119.85,-519.527 1124.75,-524.522"/>
</g>
<!-- Node47&#45;&gt;Node39 -->
<g id="edge133" class="edge"><title>Node47&#45;&gt;Node39</title>
<path fill="none" stroke="midnightblue" d="M1185.36,-622.255C1171.68,-620.12 1153.88,-617.566 1138,-616 1065.13,-608.816 541.21,-620.182 480,-580 447.681,-558.784 404.909,-447.716 388.653,-402.839"/>
<polygon fill="midnightblue" stroke="midnightblue" points="391.859,-401.41 385.193,-393.175 385.269,-403.77 391.859,-401.41"/>
</g>
<!-- Node47&#45;&gt;Node42 -->
<g id="edge131" class="edge"><title>Node47&#45;&gt;Node42</title>
<path fill="none" stroke="midnightblue" d="M1185.34,-622.478C1171.65,-620.421 1153.85,-617.872 1138,-616 981.769,-597.548 796.912,-581.928 704.602,-574.551"/>
<polygon fill="midnightblue" stroke="midnightblue" points="704.863,-571.061 694.617,-573.756 704.308,-578.038 704.863,-571.061"/>
</g>
<!-- Node47&#45;&gt;Node43 -->
<g id="edge132" class="edge"><title>Node47&#45;&gt;Node43</title>
<path fill="none" stroke="midnightblue" d="M1199.74,-616.753C1192.46,-608.598 1181.67,-596.516 1172.89,-586.677"/>
<polygon fill="midnightblue" stroke="midnightblue" points="1175.37,-584.204 1166.1,-579.075 1170.15,-588.866 1175.37,-584.204"/>
</g>
<!-- Node47&#45;&gt;Node44 -->
<g id="edge135" class="edge"><title>Node47&#45;&gt;Node44</title>
<path fill="none" stroke="midnightblue" d="M1230.51,-621.973C1278.07,-613.463 1390.18,-593.406 1460.39,-580.845"/>
<polygon fill="midnightblue" stroke="midnightblue" points="1461.2,-584.254 1470.43,-579.048 1459.97,-577.364 1461.2,-584.254"/>
</g>
<!-- Node47&#45;&gt;Node45 -->
<g id="edge136" class="edge"><title>Node47&#45;&gt;Node45</title>
<path fill="none" stroke="midnightblue" d="M1185.4,-621.512C1141.51,-612.796 1043.61,-593.355 981.423,-581.006"/>
<polygon fill="midnightblue" stroke="midnightblue" points="981.875,-577.527 971.385,-579.013 980.511,-584.393 981.875,-577.527"/>
</g>
<!-- Node47&#45;&gt;Node46 -->
<g id="edge138" class="edge"><title>Node47&#45;&gt;Node46</title>
<path fill="none" stroke="midnightblue" d="M1230.68,-619.133C1261.24,-609.884 1316.1,-593.278 1353.5,-581.956"/>
<polygon fill="midnightblue" stroke="midnightblue" points="1354.53,-585.303 1363.08,-579.056 1352.5,-578.603 1354.53,-585.303"/>
</g>
<!-- Node48&#45;&gt;Node2 -->
<g id="edge140" class="edge"><title>Node48&#45;&gt;Node2</title>
<path fill="none" stroke="midnightblue" d="M992.395,-622.809C806.255,-614.034 304.614,-589.56 290,-580 208.162,-526.463 190,-481.794 190,-384 190,-384 190,-384 190,-184 190,-141.883 218.673,-135.508 256,-116 295.452,-95.3819 418.743,-80.9497 487.84,-74.2449"/>
<polygon fill="midnightblue" stroke="midnightblue" points="488.411,-77.7064 498.034,-73.2736 487.747,-70.738 488.411,-77.7064"/>
</g>
<!-- Node48&#45;&gt;Node6 -->
<g id="edge146" class="edge"><title>Node48&#45;&gt;Node6</title>
<path fill="none" stroke="midnightblue" d="M1129.69,-619.912C1145.24,-618.58 1161.69,-617.208 1177,-616 1398.89,-598.5 1664.09,-580.428 1771.39,-573.235"/>
<polygon fill="midnightblue" stroke="midnightblue" points="1771.83,-576.713 1781.57,-572.553 1771.36,-569.729 1771.83,-576.713"/>
</g>
<!-- Node48&#45;&gt;Node7 -->
<g id="edge141" class="edge"><title>Node48&#45;&gt;Node7</title>
<path fill="none" stroke="midnightblue" d="M1129.67,-619.693C1145.22,-618.372 1161.67,-617.06 1177,-616 1436.33,-598.062 2121.27,-657.685 2343,-522 2379.59,-499.609 2397,-484.898 2397,-442 2397,-442 2397,-442 2397,-324 2397,-243.877 2362.18,-220.595 2297,-174 2266.94,-152.51 2227.52,-141.058 2193.8,-134.956"/>
<polygon fill="midnightblue" stroke="midnightblue" points="2193.98,-131.437 2183.53,-133.229 2192.82,-138.34 2193.98,-131.437"/>
</g>
<!-- Node48&#45;&gt;Node23 -->
<g id="edge149" class="edge"><title>Node48&#45;&gt;Node23</title>
<path fill="none" stroke="midnightblue" d="M1113.21,-616.935C1150.92,-609.453 1202.64,-597.251 1246,-580 1264.49,-572.643 1266.04,-564.054 1285,-558 1431.02,-511.373 1477.52,-551.165 1628,-522 1633.91,-520.854 1640.11,-519.375 1646.13,-517.779"/>
<polygon fill="midnightblue" stroke="midnightblue" points="1647.34,-521.078 1656.03,-515.023 1645.46,-514.334 1647.34,-521.078"/>
</g>
<!-- Node48&#45;&gt;Node36 -->
<g id="edge142" class="edge"><title>Node48&#45;&gt;Node36</title>
<path fill="none" stroke="midnightblue" d="M992.113,-624.016C920.598,-619.461 824.184,-604.781 863,-558 889.745,-525.767 1004.6,-513.39 1077.75,-508.727"/>
<polygon fill="midnightblue" stroke="midnightblue" points="1078.02,-512.217 1087.79,-508.119 1077.59,-505.23 1078.02,-512.217"/>
</g>
<!-- Node48&#45;&gt;Node39 -->
<g id="edge145" class="edge"><title>Node48&#45;&gt;Node39</title>
<path fill="none" stroke="midnightblue" d="M992.249,-622.963C835.448,-615.758 463.234,-596.96 442,-580 387.218,-536.245 381.219,-443.752 381.363,-403.452"/>
<polygon fill="midnightblue" stroke="midnightblue" points="384.864,-403.406 381.538,-393.347 377.866,-403.285 384.864,-403.406"/>
</g>
<!-- Node48&#45;&gt;Node42 -->
<g id="edge143" class="edge"><title>Node48&#45;&gt;Node42</title>
<path fill="none" stroke="midnightblue" d="M993.862,-616.94C913.782,-606.134 781.195,-588.243 704.925,-577.951"/>
<polygon fill="midnightblue" stroke="midnightblue" points="704.926,-574.42 694.548,-576.551 703.99,-581.357 704.926,-574.42"/>
</g>
<!-- Node48&#45;&gt;Node43 -->
<g id="edge144" class="edge"><title>Node48&#45;&gt;Node43</title>
<path fill="none" stroke="midnightblue" d="M1077.02,-616.753C1092.41,-607.864 1115.89,-594.309 1133.61,-584.079"/>
<polygon fill="midnightblue" stroke="midnightblue" points="1135.37,-587.106 1142.28,-579.075 1131.87,-581.044 1135.37,-587.106"/>
</g>
<!-- Node48&#45;&gt;Node44 -->
<g id="edge147" class="edge"><title>Node48&#45;&gt;Node44</title>
<path fill="none" stroke="midnightblue" d="M1129.79,-618.996C1207.05,-610.916 1336.45,-596.746 1457.41,-580.174"/>
<polygon fill="midnightblue" stroke="midnightblue" points="1458.16,-583.603 1467.59,-578.771 1457.2,-576.669 1458.16,-583.603"/>
</g>
<!-- Node48&#45;&gt;Node45 -->
<g id="edge148" class="edge"><title>Node48&#45;&gt;Node45</title>
<path fill="none" stroke="midnightblue" d="M1039.01,-616.878C1016.85,-607.685 982.434,-593.409 957.403,-583.026"/>
<polygon fill="midnightblue" stroke="midnightblue" points="958.559,-579.717 947.981,-579.118 955.877,-586.183 958.559,-579.717"/>
</g>
<!-- Node48&#45;&gt;Node46 -->
<g id="edge150" class="edge"><title>Node48&#45;&gt;Node46</title>
<path fill="none" stroke="midnightblue" d="M1114.71,-616.94C1173.38,-607.044 1267.29,-591.205 1329.55,-580.703"/>
<polygon fill="midnightblue" stroke="midnightblue" points="1330.36,-584.115 1339.64,-579 1329.2,-577.212 1330.36,-584.115"/>
</g>
<!-- Node49&#45;&gt;Node2 -->
<g id="edge152" class="edge"><title>Node49&#45;&gt;Node2</title>
<path fill="none" stroke="midnightblue" d="M1320.2,-621.518C1295.07,-619.717 1265.64,-617.676 1239,-616 1166.81,-611.459 650.741,-617.685 589,-580 481.71,-514.514 478.928,-457.307 446,-336 420.386,-241.637 394.964,-199.401 446,-116 455.571,-100.36 472.323,-89.8239 488.799,-82.8307"/>
<polygon fill="midnightblue" stroke="midnightblue" points="490.349,-85.984 498.412,-79.1109 487.823,-79.4557 490.349,-85.984"/>
</g>
<!-- Node49&#45;&gt;Node6 -->
<g id="edge158" class="edge"><title>Node49&#45;&gt;Node6</title>
<path fill="none" stroke="midnightblue" d="M1441.58,-618.272C1529.48,-607.059 1690.68,-586.496 1771.34,-576.207"/>
<polygon fill="midnightblue" stroke="midnightblue" points="1772.22,-579.623 1781.7,-574.886 1771.34,-572.679 1772.22,-579.623"/>
</g>
<!-- Node49&#45;&gt;Node7 -->
<g id="edge153" class="edge"><title>Node49&#45;&gt;Node7</title>
<path fill="none" stroke="midnightblue" d="M1441.63,-626.337C1649.57,-627.078 2325.81,-625.899 2411,-580 2477.68,-544.074 2511,-517.744 2511,-442 2511,-442 2511,-442 2511,-254 2511,-209.017 2487.91,-196.579 2449,-174 2406.88,-149.558 2276.41,-137.274 2193.85,-131.792"/>
<polygon fill="midnightblue" stroke="midnightblue" points="2193.99,-128.293 2183.78,-131.141 2193.54,-135.279 2193.99,-128.293"/>
</g>
<!-- Node49&#45;&gt;Node23 -->
<g id="edge161" class="edge"><title>Node49&#45;&gt;Node23</title>
<path fill="none" stroke="midnightblue" d="M1441.99,-621.957C1488.04,-616.904 1551.68,-605.543 1602,-580 1629.52,-566.031 1654.85,-540.378 1669.86,-523.253"/>
<polygon fill="midnightblue" stroke="midnightblue" points="1672.92,-525.066 1676.73,-515.182 1667.58,-520.529 1672.92,-525.066"/>
</g>
<!-- Node49&#45;&gt;Node36 -->
<g id="edge154" class="edge"><title>Node49&#45;&gt;Node36</title>
<path fill="none" stroke="midnightblue" d="M1441.8,-624.417C1515.84,-620.395 1626.04,-606.385 1583,-558 1558.15,-530.058 1318.57,-514.677 1202.46,-508.81"/>
<polygon fill="midnightblue" stroke="midnightblue" points="1202.46,-505.305 1192.3,-508.305 1202.11,-512.297 1202.46,-505.305"/>
</g>
<!-- Node49&#45;&gt;Node39 -->
<g id="edge157" class="edge"><title>Node49&#45;&gt;Node39</title>
<path fill="none" stroke="midnightblue" d="M1320.42,-619.195C1257.47,-611.62 1156.28,-598.032 1070,-580 1033.48,-572.369 1025.51,-565.636 989,-558 882.133,-535.653 851.656,-549.511 746,-522 617.446,-488.526 471.714,-425.101 410.969,-397.452"/>
<polygon fill="midnightblue" stroke="midnightblue" points="412.181,-394.157 401.631,-393.178 409.267,-400.522 412.181,-394.157"/>
</g>
<!-- Node49&#45;&gt;Node42 -->
<g id="edge155" class="edge"><title>Node49&#45;&gt;Node42</title>
<path fill="none" stroke="midnightblue" d="M1320.23,-621.37C1181.28,-610.784 841.861,-584.923 704.819,-574.481"/>
<polygon fill="midnightblue" stroke="midnightblue" points="704.765,-570.967 694.528,-573.697 704.233,-577.947 704.765,-570.967"/>
</g>
<!-- Node49&#45;&gt;Node43 -->
<g id="edge156" class="edge"><title>Node49&#45;&gt;Node43</title>
<path fill="none" stroke="midnightblue" d="M1344.67,-616.878C1306.25,-607.229 1245.53,-591.982 1203.84,-581.512"/>
<polygon fill="midnightblue" stroke="midnightblue" points="1204.49,-578.066 1193.94,-579.025 1202.79,-584.856 1204.49,-578.066"/>
</g>
<!-- Node49&#45;&gt;Node44 -->
<g id="edge159" class="edge"><title>Node49&#45;&gt;Node44</title>
<path fill="none" stroke="midnightblue" d="M1403.81,-616.878C1426.89,-607.644 1462.79,-593.283 1488.78,-582.889"/>
<polygon fill="midnightblue" stroke="midnightblue" points="1490.22,-586.082 1498.2,-579.118 1487.62,-579.582 1490.22,-586.082"/>
</g>
<!-- Node49&#45;&gt;Node45 -->
<g id="edge160" class="edge"><title>Node49&#45;&gt;Node45</title>
<path fill="none" stroke="midnightblue" d="M1320.11,-618.506C1234.27,-607.941 1078.39,-588.756 990.593,-577.95"/>
<polygon fill="midnightblue" stroke="midnightblue" points="990.846,-574.455 980.493,-576.707 989.99,-581.402 990.846,-574.455"/>
</g>
<!-- Node49&#45;&gt;Node46 -->
<g id="edge162" class="edge"><title>Node49&#45;&gt;Node46</title>
<path fill="none" stroke="midnightblue" d="M1382.98,-616.753C1384.59,-609.25 1386.91,-598.424 1388.91,-589.078"/>
<polygon fill="midnightblue" stroke="midnightblue" points="1392.38,-589.587 1391.06,-579.075 1385.54,-588.12 1392.38,-589.587"/>
</g>
<!-- Node50&#45;&gt;Node2 -->
<g id="edge164" class="edge"><title>Node50&#45;&gt;Node2</title>
<path fill="none" stroke="midnightblue" d="M661.361,-625.127C549.174,-622.719 339.812,-613.701 274,-580 201.133,-542.687 152,-523.865 152,-442 152,-442 152,-442 152,-184 152,-151.951 151.065,-136.135 176,-116 222.93,-78.1043 401.037,-71.1628 487.851,-70.0713"/>
<polygon fill="midnightblue" stroke="midnightblue" points="488.007,-73.5699 497.97,-69.9655 487.934,-66.5703 488.007,-73.5699"/>
</g>
<!-- Node50&#45;&gt;Node6 -->
<g id="edge171" class="edge"><title>Node50&#45;&gt;Node6</title>
<path fill="none" stroke="midnightblue" d="M806.519,-622.261C1012.7,-611.629 1598.51,-581.421 1771.4,-572.506"/>
<polygon fill="midnightblue" stroke="midnightblue" points="1771.66,-575.997 1781.47,-571.987 1771.3,-569.007 1771.66,-575.997"/>
</g>
<!-- Node50&#45;&gt;Node7 -->
<g id="edge165" class="edge"><title>Node50&#45;&gt;Node7</title>
<path fill="none" stroke="midnightblue" d="M806.83,-623.346C921.878,-618.427 1140.1,-605.942 1213,-580 1229.61,-574.09 1229.46,-564.093 1246,-558 1373.67,-510.972 1418.29,-556.099 1550,-522 1588.59,-512.009 1594.23,-497.255 1633,-488 1730.58,-464.709 1992.11,-494.454 2083,-452 2192.01,-401.085 2166.61,-316.232 2171,-196 2171.36,-186.229 2174.84,-182.993 2171,-174 2165.81,-161.848 2155.67,-151.366 2146.04,-143.491"/>
<polygon fill="midnightblue" stroke="midnightblue" points="2147.92,-140.527 2137.84,-137.264 2143.69,-146.101 2147.92,-140.527"/>
</g>
<!-- Node50&#45;&gt;Node36 -->
<g id="edge166" class="edge"><title>Node50&#45;&gt;Node36</title>
<path fill="none" stroke="midnightblue" d="M738.977,-616.668C747.58,-601.553 766.762,-572 792,-558 839.803,-531.482 990.857,-516.627 1077.43,-510.088"/>
<polygon fill="midnightblue" stroke="midnightblue" points="1077.94,-513.56 1087.65,-509.331 1077.42,-506.579 1077.94,-513.56"/>
</g>
<!-- Node50&#45;&gt;Node39 -->
<g id="edge169" class="edge"><title>Node50&#45;&gt;Node39</title>
<path fill="none" stroke="midnightblue" d="M661.347,-623.695C541.804,-619.146 314.359,-607.014 290,-580 239.707,-524.227 323.948,-436.131 363.367,-400.132"/>
<polygon fill="midnightblue" stroke="midnightblue" points="365.915,-402.548 371.034,-393.272 361.248,-397.332 365.915,-402.548"/>
</g>
<!-- Node50&#45;&gt;Node41 -->
<g id="edge170" class="edge"><title>Node50&#45;&gt;Node41</title>
<path fill="none" stroke="midnightblue" d="M729.022,-616.792C710.82,-581.756 651.571,-454.585 703,-372 717.758,-348.302 963.207,-245.697 1009,-232 1090.24,-207.7 1189.42,-194.854 1241.36,-189.351"/>
<polygon fill="midnightblue" stroke="midnightblue" points="1241.82,-192.823 1251.41,-188.317 1241.1,-185.86 1241.82,-192.823"/>
</g>
<!-- Node50&#45;&gt;Node42 -->
<g id="edge167" class="edge"><title>Node50&#45;&gt;Node42</title>
<path fill="none" stroke="midnightblue" d="M719.469,-616.753C705.757,-608.027 684.979,-594.805 669.015,-584.646"/>
<polygon fill="midnightblue" stroke="midnightblue" points="670.577,-581.491 660.261,-579.075 666.819,-587.397 670.577,-581.491"/>
</g>
<!-- Node50&#45;&gt;Node43 -->
<g id="edge168" class="edge"><title>Node50&#45;&gt;Node43</title>
<path fill="none" stroke="midnightblue" d="M802.594,-616.94C885.812,-605.949 1024.53,-587.628 1101.75,-577.429"/>
<polygon fill="midnightblue" stroke="midnightblue" points="1102.31,-580.886 1111.77,-576.106 1101.4,-573.946 1102.31,-580.886"/>
</g>
</g>
</svg>
