<?xml version="1.0" encoding="UTF-8" standalone="no"?>
<!DOCTYPE svg PUBLIC "-//W3C//DTD SVG 1.1//EN"
 "http://www.w3.org/Graphics/SVG/1.1/DTD/svg11.dtd">
<!-- Generated by graphviz version 2.34.0 (20131025.1349)
 -->
<!-- Title: Enum.h Pages: 1 -->
<svg width="1223pt" height="216pt"
 viewBox="0.00 0.00 1223.00 216.00" xmlns="http://www.w3.org/2000/svg" xmlns:xlink="http://www.w3.org/1999/xlink">
<g id="graph0" class="graph" transform="scale(1 1) rotate(0) translate(4 212)">
<title>Enum.h</title>
<!-- Node1 -->
<g id="node1" class="node"><title>Node1</title>
<polygon fill="#bfbfbf" stroke="black" points="488.769,-187 488.769,-207 539.231,-207 539.231,-187 488.769,-187"/>
<text text-anchor="middle" x="514" y="-193" font-family="Helvetica,sans-Serif" font-size="10.00">Enum.h</text>
</g>
<!-- Node2 -->
<g id="node2" class="node"><title>Node2</title>
<g id="a_node2"><a xlink:href="a00186_source.html" target="_top" xlink:title="RMF/config.h">
<polygon fill="none" stroke="black" points="-0.731445,-59 -0.731445,-79 74.7314,-79 74.7314,-59 -0.731445,-59"/>
<text text-anchor="middle" x="37" y="-65" font-family="Helvetica,sans-Serif" font-size="10.00">RMF/config.h</text>
</a>
</g>
</g>
<!-- Node1&#45;&gt;Node2 -->
<g id="edge1" class="edge"><title>Node1&#45;&gt;Node2</title>
<path fill="none" stroke="midnightblue" d="M488.711,-191.89C446.273,-184.777 358.18,-169.087 285,-150 207.554,-129.8 118.708,-99.3126 71.2065,-82.4037"/>
<polygon fill="midnightblue" stroke="midnightblue" points="72.3112,-79.0818 61.7167,-79.0102 69.9542,-85.673 72.3112,-79.0818"/>
</g>
<!-- Node4 -->
<g id="node4" class="node"><title>Node4</title>
<g id="a_node4"><a xlink:href="a00219.html" target="_top" xlink:title="Various general useful macros for IMP. ">
<polygon fill="none" stroke="black" points="638.48,-123 638.48,-143 759.52,-143 759.52,-123 638.48,-123"/>
<text text-anchor="middle" x="699" y="-129" font-family="Helvetica,sans-Serif" font-size="10.00">infrastructure_macros.h</text>
</a>
</g>
</g>
<!-- Node1&#45;&gt;Node4 -->
<g id="edge3" class="edge"><title>Node1&#45;&gt;Node4</title>
<path fill="none" stroke="midnightblue" d="M539.336,-187.509C571.085,-176.869 625.739,-158.552 662.125,-146.358"/>
<polygon fill="midnightblue" stroke="midnightblue" points="663.5,-149.589 671.87,-143.092 661.276,-142.952 663.5,-149.589"/>
</g>
<!-- Node13 -->
<g id="node13" class="node"><title>Node13</title>
<g id="a_node13"><a xlink:href="a00204.html" target="_top" xlink:title="Various general useful macros for IMP. ">
<polygon fill="none" stroke="black" points="293.926,-123 293.926,-143 366.074,-143 366.074,-123 293.926,-123"/>
<text text-anchor="middle" x="330" y="-129" font-family="Helvetica,sans-Serif" font-size="10.00">exceptions.h</text>
</a>
</g>
</g>
<!-- Node1&#45;&gt;Node13 -->
<g id="edge13" class="edge"><title>Node1&#45;&gt;Node13</title>
<path fill="none" stroke="midnightblue" d="M488.416,-187.379C456.734,-176.704 402.553,-158.447 366.511,-146.303"/>
<polygon fill="midnightblue" stroke="midnightblue" points="367.454,-142.927 356.86,-143.051 365.219,-149.561 367.454,-142.927"/>
</g>
<!-- Node17 -->
<g id="node17" class="node"><title>Node17</title>
<polygon fill="none" stroke="#bfbfbf" points="777.094,-117 777.094,-149 870.906,-149 870.906,-117 777.094,-117"/>
<text text-anchor="start" x="785.094" y="-135" font-family="Helvetica,sans-Serif" font-size="10.00">internal/small_set</text>
<text text-anchor="middle" x="824" y="-123" font-family="Helvetica,sans-Serif" font-size="10.00">_map.h</text>
</g>
<!-- Node1&#45;&gt;Node17 -->
<g id="edge20" class="edge"><title>Node1&#45;&gt;Node17</title>
<path fill="none" stroke="midnightblue" d="M539.407,-192.254C583.666,-185.545 677.932,-170.45 767.038,-150.095"/>
<polygon fill="midnightblue" stroke="midnightblue" points="768.08,-153.447 777.034,-147.784 766.503,-146.627 768.08,-153.447"/>
</g>
<!-- Node3 -->
<g id="node3" class="node"><title>Node3</title>
<g id="a_node3"><a xlink:href="a00185.html" target="_top" xlink:title="Various compiler workarounds. ">
<polygon fill="none" stroke="black" points="40.5444,-1 40.5444,-21 165.456,-21 165.456,-1 40.5444,-1"/>
<text text-anchor="middle" x="103" y="-7" font-family="Helvetica,sans-Serif" font-size="10.00">RMF/compiler_macros.h</text>
</a>
</g>
</g>
<!-- Node2&#45;&gt;Node3 -->
<g id="edge2" class="edge"><title>Node2&#45;&gt;Node3</title>
<path fill="none" stroke="midnightblue" d="M47.8986,-58.7527C57.7978,-50.3534 72.6078,-37.7874 84.3814,-27.7976"/>
<polygon fill="midnightblue" stroke="midnightblue" points="86.9436,-30.2138 92.3042,-21.0752 82.4147,-24.8762 86.9436,-30.2138"/>
</g>
<!-- Node4&#45;&gt;Node3 -->
<g id="edge7" class="edge"><title>Node4&#45;&gt;Node3</title>
<path fill="none" stroke="midnightblue" d="M679.65,-122.998C658.245,-112.927 622.835,-95.9302 593,-80 575.785,-70.8082 573.566,-64.011 555,-58 486.392,-35.7875 285.194,-21.8382 175.817,-15.6801"/>
<polygon fill="midnightblue" stroke="midnightblue" points="175.705,-12.1686 165.526,-15.1085 175.317,-19.1578 175.705,-12.1686"/>
</g>
<!-- Node5 -->
<g id="node5" class="node"><title>Node5</title>
<polygon fill="none" stroke="#bfbfbf" points="602.219,-59 602.219,-79 653.781,-79 653.781,-59 602.219,-59"/>
<text text-anchor="middle" x="628" y="-65" font-family="Helvetica,sans-Serif" font-size="10.00">sstream</text>
</g>
<!-- Node4&#45;&gt;Node5 -->
<g id="edge4" class="edge"><title>Node4&#45;&gt;Node5</title>
<path fill="none" stroke="midnightblue" d="M688.524,-122.852C677.407,-113.144 659.63,-97.6205 646.212,-85.9034"/>
<polygon fill="midnightblue" stroke="midnightblue" points="648.354,-83.1271 638.519,-79.1858 643.749,-88.3997 648.354,-83.1271"/>
</g>
<!-- Node6 -->
<g id="node6" class="node"><title>Node6</title>
<polygon fill="none" stroke="#bfbfbf" points="671.828,-59 671.828,-79 726.172,-79 726.172,-59 671.828,-59"/>
<text text-anchor="middle" x="699" y="-65" font-family="Helvetica,sans-Serif" font-size="10.00">iostream</text>
</g>
<!-- Node4&#45;&gt;Node6 -->
<g id="edge5" class="edge"><title>Node4&#45;&gt;Node6</title>
<path fill="none" stroke="midnightblue" d="M699,-122.852C699,-114.06 699,-100.498 699,-89.3131"/>
<polygon fill="midnightblue" stroke="midnightblue" points="702.5,-89.1858 699,-79.1858 695.5,-89.1859 702.5,-89.1858"/>
</g>
<!-- Node7 -->
<g id="node7" class="node"><title>Node7</title>
<polygon fill="none" stroke="#bfbfbf" points="505.773,-59 505.773,-79 546.227,-79 546.227,-59 505.773,-59"/>
<text text-anchor="middle" x="526" y="-65" font-family="Helvetica,sans-Serif" font-size="10.00">string</text>
</g>
<!-- Node4&#45;&gt;Node7 -->
<g id="edge6" class="edge"><title>Node4&#45;&gt;Node7</title>
<path fill="none" stroke="midnightblue" d="M673.844,-122.985C642.591,-111.784 589.325,-92.6946 555.983,-80.7455"/>
<polygon fill="midnightblue" stroke="midnightblue" points="556.917,-77.362 546.322,-77.2831 554.555,-83.9516 556.917,-77.362"/>
</g>
<!-- Node8 -->
<g id="node8" class="node"><title>Node8</title>
<polygon fill="none" stroke="#bfbfbf" points="743.98,-59 743.98,-79 820.02,-79 820.02,-59 743.98,-59"/>
<text text-anchor="middle" x="782" y="-65" font-family="Helvetica,sans-Serif" font-size="10.00">internal/use.h</text>
</g>
<!-- Node4&#45;&gt;Node8 -->
<g id="edge8" class="edge"><title>Node4&#45;&gt;Node8</title>
<path fill="none" stroke="midnightblue" d="M711.247,-122.852C724.487,-112.961 745.811,-97.0326 761.592,-85.2443"/>
<polygon fill="midnightblue" stroke="midnightblue" points="763.786,-87.9745 769.703,-79.1858 759.597,-82.3664 763.786,-87.9745"/>
</g>
<!-- Node9 -->
<g id="node9" class="node"><title>Node9</title>
<polygon fill="none" stroke="#bfbfbf" points="838.306,-59 838.306,-79 927.694,-79 927.694,-59 838.306,-59"/>
<text text-anchor="middle" x="883" y="-65" font-family="Helvetica,sans-Serif" font-size="10.00">boost/config.hpp</text>
</g>
<!-- Node4&#45;&gt;Node9 -->
<g id="edge9" class="edge"><title>Node4&#45;&gt;Node9</title>
<path fill="none" stroke="midnightblue" d="M725.755,-122.985C757.642,-112.24 811.074,-94.2359 846.676,-82.2395"/>
<polygon fill="midnightblue" stroke="midnightblue" points="847.854,-85.5362 856.213,-79.0262 845.618,-78.9027 847.854,-85.5362"/>
</g>
<!-- Node10 -->
<g id="node10" class="node"><title>Node10</title>
<polygon fill="none" stroke="#bfbfbf" points="945.53,-59 945.53,-79 1040.47,-79 1040.47,-59 945.53,-59"/>
<text text-anchor="middle" x="993" y="-65" font-family="Helvetica,sans-Serif" font-size="10.00">boost/version.hpp</text>
</g>
<!-- Node4&#45;&gt;Node10 -->
<g id="edge10" class="edge"><title>Node4&#45;&gt;Node10</title>
<path fill="none" stroke="midnightblue" d="M737.282,-122.935C747.269,-120.622 758.028,-118.175 768,-116 825.402,-103.479 891.27,-90.1317 936.839,-81.0576"/>
<polygon fill="midnightblue" stroke="midnightblue" points="937.691,-84.4566 946.817,-79.0743 936.327,-77.5909 937.691,-84.4566"/>
</g>
<!-- Node11 -->
<g id="node11" class="node"><title>Node11</title>
<polygon fill="none" stroke="#bfbfbf" points="1057.97,-59 1057.97,-79 1154.03,-79 1154.03,-59 1057.97,-59"/>
<text text-anchor="middle" x="1106" y="-65" font-family="Helvetica,sans-Serif" font-size="10.00">boost/foreach.hpp</text>
</g>
<!-- Node4&#45;&gt;Node11 -->
<g id="edge11" class="edge"><title>Node4&#45;&gt;Node11</title>
<path fill="none" stroke="midnightblue" d="M735.027,-122.926C745.606,-120.457 757.228,-117.934 768,-116 888.782,-94.316 922.801,-98.6406 1047.86,-80.1091"/>
<polygon fill="midnightblue" stroke="midnightblue" points="1048.45,-83.5594 1057.82,-78.6133 1047.41,-76.6369 1048.45,-83.5594"/>
</g>
<!-- Node12 -->
<g id="node12" class="node"><title>Node12</title>
<polygon fill="none" stroke="#bfbfbf" points="1172.38,-59 1172.38,-79 1215.62,-79 1215.62,-59 1172.38,-59"/>
<text text-anchor="middle" x="1194" y="-65" font-family="Helvetica,sans-Serif" font-size="10.00">vector</text>
</g>
<!-- Node4&#45;&gt;Node12 -->
<g id="edge12" class="edge"><title>Node4&#45;&gt;Node12</title>
<path fill="none" stroke="midnightblue" d="M733.919,-122.924C744.777,-120.367 756.83,-117.795 768,-116 938.82,-88.5432 988.449,-114.283 1162.16,-79.7363"/>
<polygon fill="midnightblue" stroke="midnightblue" points="1163.04,-83.1288 1172.14,-77.7115 1161.65,-76.2684 1163.04,-83.1288"/>
</g>
<!-- Node13&#45;&gt;Node2 -->
<g id="edge17" class="edge"><title>Node13&#45;&gt;Node2</title>
<path fill="none" stroke="midnightblue" d="M293.779,-124.335C241.203,-113.21 143.651,-92.5678 85.0991,-80.178"/>
<polygon fill="midnightblue" stroke="midnightblue" points="85.5005,-76.6855 74.9925,-78.0394 84.0513,-83.5338 85.5005,-76.6855"/>
</g>
<!-- Node13&#45;&gt;Node3 -->
<g id="edge18" class="edge"><title>Node13&#45;&gt;Node3</title>
<path fill="none" stroke="midnightblue" d="M293.558,-127.336C240.645,-119.848 146.212,-103.555 122,-80 109.118,-67.4671 104.759,-46.9835 103.387,-31.7682"/>
<polygon fill="midnightblue" stroke="midnightblue" points="106.86,-31.1761 102.827,-21.3789 99.87,-31.5526 106.86,-31.1761"/>
</g>
<!-- Node13&#45;&gt;Node7 -->
<g id="edge16" class="edge"><title>Node13&#45;&gt;Node7</title>
<path fill="none" stroke="midnightblue" d="M359.952,-122.972C391.544,-113.383 442.997,-97.5834 496.155,-80.216"/>
<polygon fill="midnightblue" stroke="midnightblue" points="497.333,-83.5132 505.745,-77.0718 495.152,-76.8617 497.333,-83.5132"/>
</g>
<!-- Node14 -->
<g id="node14" class="node"><title>Node14</title>
<polygon fill="none" stroke="#bfbfbf" points="131.451,-59 131.451,-79 282.549,-79 282.549,-59 131.451,-59"/>
<text text-anchor="middle" x="207" y="-65" font-family="Helvetica,sans-Serif" font-size="10.00">boost/exception/exception.hpp</text>
</g>
<!-- Node13&#45;&gt;Node14 -->
<g id="edge14" class="edge"><title>Node13&#45;&gt;Node14</title>
<path fill="none" stroke="midnightblue" d="M312.115,-122.985C291.619,-112.653 257.807,-95.6101 234.079,-83.6496"/>
<polygon fill="midnightblue" stroke="midnightblue" points="235.412,-80.402 224.907,-79.0262 232.261,-86.6528 235.412,-80.402"/>
</g>
<!-- Node15 -->
<g id="node15" class="node"><title>Node15</title>
<polygon fill="none" stroke="#bfbfbf" points="300.596,-59 300.596,-79 359.404,-79 359.404,-59 300.596,-59"/>
<text text-anchor="middle" x="330" y="-65" font-family="Helvetica,sans-Serif" font-size="10.00">exception</text>
</g>
<!-- Node13&#45;&gt;Node15 -->
<g id="edge15" class="edge"><title>Node13&#45;&gt;Node15</title>
<path fill="none" stroke="midnightblue" d="M330,-122.852C330,-114.06 330,-100.498 330,-89.3131"/>
<polygon fill="midnightblue" stroke="midnightblue" points="333.5,-89.1858 330,-79.1858 326.5,-89.1859 333.5,-89.1858"/>
</g>
<!-- Node16 -->
<g id="node16" class="node"><title>Node16</title>
<polygon fill="none" stroke="#bfbfbf" points="377.766,-59 377.766,-79 488.234,-79 488.234,-59 377.766,-59"/>
<text text-anchor="middle" x="433" y="-65" font-family="Helvetica,sans-Serif" font-size="10.00">RMF/internal/errors.h</text>
</g>
<!-- Node13&#45;&gt;Node16 -->
<g id="edge19" class="edge"><title>Node13&#45;&gt;Node16</title>
<path fill="none" stroke="midnightblue" d="M345.198,-122.852C362.009,-112.732 389.322,-96.2919 409.024,-84.4324"/>
<polygon fill="midnightblue" stroke="midnightblue" points="410.977,-87.3417 417.74,-79.1858 407.367,-81.3444 410.977,-87.3417"/>
</g>
</g>
</svg>
