<?xml version="1.0" encoding="UTF-8" standalone="no"?>
<!DOCTYPE svg PUBLIC "-//W3C//DTD SVG 1.1//EN"
 "http://www.w3.org/Graphics/SVG/1.1/DTD/svg11.dtd">
<!-- Generated by graphviz version 2.34.0 (20131025.1349)
 -->
<!-- Title: show_hierarchy.h Pages: 1 -->
<svg width="180pt" height="146pt"
 viewBox="0.00 0.00 180.00 146.00" xmlns="http://www.w3.org/2000/svg" xmlns:xlink="http://www.w3.org/1999/xlink">
<g id="graph0" class="graph" transform="scale(1 1) rotate(0) translate(4 142)">
<title>show_hierarchy.h</title>
<!-- Node1 -->
<g id="node1" class="node"><title>Node1</title>
<polygon fill="#bfbfbf" stroke="black" points="56.1816,-117 56.1816,-137 149.818,-137 149.818,-117 56.1816,-117"/>
<text text-anchor="middle" x="103" y="-123" font-family="Helvetica,sans-Serif" font-size="10.00">show_hierarchy.h</text>
</g>
<!-- Node2 -->
<g id="node2" class="node"><title>Node2</title>
<g id="a_node2"><a xlink:href="a00186_source.html" target="_top" xlink:title="RMF/config.h">
<polygon fill="none" stroke="black" points="24.2686,-59 24.2686,-79 99.7314,-79 99.7314,-59 24.2686,-59"/>
<text text-anchor="middle" x="62" y="-65" font-family="Helvetica,sans-Serif" font-size="10.00">RMF/config.h</text>
</a>
</g>
</g>
<!-- Node1&#45;&gt;Node2 -->
<g id="edge1" class="edge"><title>Node1&#45;&gt;Node2</title>
<path fill="none" stroke="midnightblue" d="M96.2297,-116.753C90.3787,-108.761 81.7661,-96.9975 74.644,-87.2698"/>
<polygon fill="midnightblue" stroke="midnightblue" points="77.3758,-85.0762 68.6443,-79.0752 71.7277,-89.2114 77.3758,-85.0762"/>
</g>
<!-- Node4 -->
<g id="node4" class="node"><title>Node4</title>
<polygon fill="none" stroke="#bfbfbf" points="117.828,-59 117.828,-79 172.172,-79 172.172,-59 117.828,-59"/>
<text text-anchor="middle" x="145" y="-65" font-family="Helvetica,sans-Serif" font-size="10.00">iostream</text>
</g>
<!-- Node1&#45;&gt;Node4 -->
<g id="edge3" class="edge"><title>Node1&#45;&gt;Node4</title>
<path fill="none" stroke="midnightblue" d="M109.935,-116.753C115.929,-108.761 124.752,-96.9975 132.048,-87.2698"/>
<polygon fill="midnightblue" stroke="midnightblue" points="134.994,-89.1752 138.194,-79.0752 129.394,-84.9752 134.994,-89.1752"/>
</g>
<!-- Node3 -->
<g id="node3" class="node"><title>Node3</title>
<g id="a_node3"><a xlink:href="a00185.html" target="_top" xlink:title="Various compiler workarounds. ">
<polygon fill="none" stroke="black" points="-0.455566,-1 -0.455566,-21 124.456,-21 124.456,-1 -0.455566,-1"/>
<text text-anchor="middle" x="62" y="-7" font-family="Helvetica,sans-Serif" font-size="10.00">RMF/compiler_macros.h</text>
</a>
</g>
</g>
<!-- Node2&#45;&gt;Node3 -->
<g id="edge2" class="edge"><title>Node2&#45;&gt;Node3</title>
<path fill="none" stroke="midnightblue" d="M62,-58.7527C62,-51.2504 62,-40.4238 62,-31.0781"/>
<polygon fill="midnightblue" stroke="midnightblue" points="65.5001,-31.0752 62,-21.0752 58.5001,-31.0752 65.5001,-31.0752"/>
</g>
</g>
</svg>
