<?xml version="1.0" encoding="UTF-8" standalone="no"?>
<!DOCTYPE svg PUBLIC "-//W3C//DTD SVG 1.1//EN"
 "http://www.w3.org/Graphics/SVG/1.1/DTD/svg11.dtd">
<!-- Generated by graphviz version 2.34.0 (20131025.1349)
 -->
<!-- Title: FileConstHandle.h Pages: 1 -->
<!--zoomable 262 -->
<svg id="main" version="1.1" xmlns="http://www.w3.org/2000/svg" xmlns:xlink="http://www.w3.org/1999/xlink" xml:space="preserve" onload="init(evt)">
<style type="text/css"><![CDATA[
.edge:hover path { stroke: red; }
.edge:hover polygon { stroke: red; fill: red; }
]]></style>
<script type="text/javascript"><![CDATA[
var edges = document.getElementsByTagName('g');
if (edges && edges.length) {
  for (var i=0;i<edges.length;i++) {
    if (edges[i].id.substr(0,4)=='edge') {
      edges[i].setAttribute('class','edge');
    }
  }
}
]]></script>
        <defs>
                <circle id="rim" cx="0" cy="0" r="7"/>
                <circle id="rim2" cx="0" cy="0" r="3.5"/>
                <g id="zoomPlus">
                        <use xlink:href="#rim" fill="#404040">
                                <set attributeName="fill" to="#808080" begin="zoomplus.mouseover" end="zoomplus.mouseout"/>
                        </use>
                        <path d="M-4,0h8M0,-4v8" fill="none" stroke="white" stroke-width="1.5" pointer-events="none"/>
                </g>
                <g id="zoomMin">
                        <use xlink:href="#rim" fill="#404040">
                                <set attributeName="fill" to="#808080" begin="zoomminus.mouseover" end="zoomminus.mouseout"/>
                        </use>
                        <path d="M-4,0h8" fill="none" stroke="white" stroke-width="1.5" pointer-events="none"/>
                </g>
                <g id="dirArrow">
                        <path fill="none" stroke="white" stroke-width="1.5" d="M0,-3.0v7 M-2.5,-0.5L0,-3.0L2.5,-0.5"/>
                </g>
               <g id="resetDef">
                       <use xlink:href="#rim2" fill="#404040">
                               <set attributeName="fill" to="#808080" begin="reset.mouseover" end="reset.mouseout"/>
                       </use>
               </g>
        </defs>

<script type="text/javascript">
var viewWidth = 1119;
var viewHeight = 262;
var sectionId = 'dynsection-1';
</script>
<script xlink:href="svgpan.js"/>
<svg id="graph" class="graph">
<g id="viewport">
<title>FileConstHandle.h</title>
<!-- Node1 -->
<g id="node1" class="node"><title>Node1</title>
<polygon fill="#bfbfbf" stroke="black" points="697.867,-233 697.867,-253 796.133,-253 796.133,-233 697.867,-233"/>
<text text-anchor="middle" x="747" y="-239" font-family="Helvetica,sans-Serif" font-size="10.00">FileConstHandle.h</text>
</g>
<!-- Node2 -->
<g id="node2" class="node"><title>Node2</title>
<g id="a_node2"><a xlink:href="a00211.html" target="_top" xlink:title="Handle read/write of Model data from/to files. ">
<polygon fill="none" stroke="black" points="374.929,-175 374.929,-195 447.071,-195 447.071,-175 374.929,-175"/>
<text text-anchor="middle" x="411" y="-181" font-family="Helvetica,sans-Serif" font-size="10.00">FileHandle.h</text>
</a>
</g>
</g>
<!-- Node1&#45;&gt;Node2 -->
<g id="edge1" class="edge"><title>Node1&#45;&gt;Node2</title>
<path fill="none" stroke="midnightblue" d="M687.856,-232.143C618.344,-220.557 505.17,-201.695 447.413,-192.069"/>
<polygon fill="midnightblue" stroke="midnightblue" points="687.344,-235.605 697.783,-233.797 688.494,-228.701 687.344,-235.605"/>
</g>
<!-- Node7 -->
<g id="node7" class="node"><title>Node7</title>
<g id="a_node7"><a xlink:href="a00177_source.html" target="_top" xlink:title="benchmark_rmf.cpp">
<polygon fill="none" stroke="black" points="568.815,-1 568.815,-21 673.185,-21 673.185,-1 568.815,-1"/>
<text text-anchor="middle" x="621" y="-7" font-family="Helvetica,sans-Serif" font-size="10.00">benchmark_rmf.cpp</text>
</a>
</g>
</g>
<!-- Node1&#45;&gt;Node7 -->
<g id="edge36" class="edge"><title>Node1&#45;&gt;Node7</title>
<path fill="none" stroke="midnightblue" d="M735.032,-224.12C729.594,-215.725 723.224,-205.495 718,-196 699.026,-161.512 697.727,-151.145 680,-116 666.837,-89.9029 663.493,-83.3824 649,-58 641.583,-45.0097 632.499,-30.2885 626.73,-21.0744"/>
<polygon fill="midnightblue" stroke="midnightblue" points="732.246,-226.252 740.665,-232.683 738.094,-222.405 732.246,-226.252"/>
</g>
<!-- Node16 -->
<g id="node16" class="node"><title>Node16</title>
<g id="a_node16"><a xlink:href="a00258.html" target="_top" xlink:title="Handle read/write of Model data from/to files. ">
<polygon fill="none" stroke="black" points="612.596,-117 612.596,-137 671.404,-137 671.404,-117 612.596,-117"/>
<text text-anchor="middle" x="642" y="-123" font-family="Helvetica,sans-Serif" font-size="10.00">validate.h</text>
</a>
</g>
</g>
<!-- Node1&#45;&gt;Node16 -->
<g id="edge35" class="edge"><title>Node1&#45;&gt;Node16</title>
<path fill="none" stroke="midnightblue" d="M723.301,-227.461C710.994,-219.195 696.226,-208.094 685,-196 667.706,-177.368 653.268,-150.859 646.367,-137.09"/>
<polygon fill="midnightblue" stroke="midnightblue" points="721.451,-230.432 731.742,-232.952 725.268,-224.565 721.451,-230.432"/>
</g>
<!-- Node17 -->
<g id="node17" class="node"><title>Node17</title>
<g id="a_node17"><a xlink:href="a00218.html" target="_top" xlink:title="Helper functions for manipulating RMF files. ">
<polygon fill="none" stroke="black" points="726.769,-175 726.769,-195 767.231,-195 767.231,-175 726.769,-175"/>
<text text-anchor="middle" x="747" y="-181" font-family="Helvetica,sans-Serif" font-size="10.00">info.h</text>
</a>
</g>
</g>
<!-- Node1&#45;&gt;Node17 -->
<g id="edge31" class="edge"><title>Node1&#45;&gt;Node17</title>
<path fill="none" stroke="midnightblue" d="M747,-222.707C747,-213.338 747,-202.526 747,-195.075"/>
<polygon fill="midnightblue" stroke="midnightblue" points="743.5,-222.753 747,-232.753 750.5,-222.753 743.5,-222.753"/>
</g>
<!-- Node18 -->
<g id="node18" class="node"><title>Node18</title>
<g id="a_node18"><a xlink:href="a00245.html" target="_top" xlink:title="Handle read/write of Model data from/to files. ">
<polygon fill="none" stroke="black" points="785.205,-175 785.205,-195 906.795,-195 906.795,-175 785.205,-175"/>
<text text-anchor="middle" x="846" y="-181" font-family="Helvetica,sans-Serif" font-size="10.00">RestoreCurrentFrame.h</text>
</a>
</g>
</g>
<!-- Node1&#45;&gt;Node18 -->
<g id="edge32" class="edge"><title>Node1&#45;&gt;Node18</title>
<path fill="none" stroke="midnightblue" d="M772.242,-227.722C790.403,-217.449 814.35,-203.903 829.956,-195.075"/>
<polygon fill="midnightblue" stroke="midnightblue" points="770.329,-224.783 763.348,-232.753 773.775,-230.876 770.329,-224.783"/>
</g>
<!-- Node19 -->
<g id="node19" class="node"><title>Node19</title>
<g id="a_node19"><a xlink:href="a00249.html" target="_top" xlink:title="Handle read/write of Model data from/to files. ">
<polygon fill="none" stroke="black" points="925.207,-175 925.207,-195 1026.79,-195 1026.79,-175 925.207,-175"/>
<text text-anchor="middle" x="976" y="-181" font-family="Helvetica,sans-Serif" font-size="10.00">SetCurrentFrame.h</text>
</a>
</g>
</g>
<!-- Node1&#45;&gt;Node19 -->
<g id="edge33" class="edge"><title>Node1&#45;&gt;Node19</title>
<path fill="none" stroke="midnightblue" d="M793.97,-230.514C836.898,-220.016 899.533,-204.699 939.006,-195.047"/>
<polygon fill="midnightblue" stroke="midnightblue" points="792.93,-227.165 784.047,-232.94 794.593,-233.965 792.93,-227.165"/>
</g>
<!-- Node20 -->
<g id="node20" class="node"><title>Node20</title>
<g id="a_node20"><a xlink:href="a00252.html" target="_top" xlink:title="Helper functions for manipulating RMF files. ">
<polygon fill="none" stroke="black" points="1045.26,-175 1045.26,-195 1110.74,-195 1110.74,-175 1045.26,-175"/>
<text text-anchor="middle" x="1078" y="-181" font-family="Helvetica,sans-Serif" font-size="10.00">signature.h</text>
</a>
</g>
</g>
<!-- Node1&#45;&gt;Node20 -->
<g id="edge34" class="edge"><title>Node1&#45;&gt;Node20</title>
<path fill="none" stroke="midnightblue" d="M806.511,-233.739C864.899,-225.341 956.367,-211.403 1035,-196 1038.31,-195.352 1041.75,-194.631 1045.18,-193.882"/>
<polygon fill="midnightblue" stroke="midnightblue" points="805.765,-230.31 796.362,-235.191 806.757,-237.239 805.765,-230.31"/>
</g>
<!-- Node3 -->
<g id="node3" class="node"><title>Node3</title>
<g id="a_node3"><a xlink:href="a00173.html" target="_top" xlink:title="Helper functions for manipulating RMF files. ">
<polygon fill="none" stroke="black" points="338.547,-117 338.547,-137 383.453,-137 383.453,-117 338.547,-117"/>
<text text-anchor="middle" x="361" y="-123" font-family="Helvetica,sans-Serif" font-size="10.00">alias.h</text>
</a>
</g>
</g>
<!-- Node2&#45;&gt;Node3 -->
<g id="edge2" class="edge"><title>Node2&#45;&gt;Node3</title>
<path fill="none" stroke="midnightblue" d="M395.924,-167.114C387.111,-157.244 376.334,-145.174 369.103,-137.075"/>
<polygon fill="midnightblue" stroke="midnightblue" points="393.473,-169.624 402.744,-174.753 398.694,-164.962 393.473,-169.624"/>
</g>
<!-- Node5 -->
<g id="node5" class="node"><title>Node5</title>
<g id="a_node5"><a xlink:href="a00237.html" target="_top" xlink:title="Helper functions for manipulating RMF files. ">
<polygon fill="none" stroke="black" points="480.158,-59 480.158,-79 537.842,-79 537.842,-59 480.158,-59"/>
<text text-anchor="middle" x="509" y="-65" font-family="Helvetica,sans-Serif" font-size="10.00">physics.h</text>
</a>
</g>
</g>
<!-- Node2&#45;&gt;Node5 -->
<g id="edge12" class="edge"><title>Node2&#45;&gt;Node5</title>
<path fill="none" stroke="midnightblue" d="M425.697,-166.904C446.752,-142.41 484.766,-98.1911 501.143,-79.1394"/>
<polygon fill="midnightblue" stroke="midnightblue" points="422.885,-164.806 419.02,-174.671 428.193,-169.369 422.885,-164.806"/>
</g>
<!-- Node2&#45;&gt;Node7 -->
<g id="edge30" class="edge"><title>Node2&#45;&gt;Node7</title>
<path fill="none" stroke="midnightblue" d="M457.369,-177.182C510.257,-166.637 594.276,-140.805 632,-80 643.474,-61.5049 633.074,-34.9381 626.102,-21.1246"/>
<polygon fill="midnightblue" stroke="midnightblue" points="456.408,-173.802 447.229,-179.093 457.704,-180.681 456.408,-173.802"/>
</g>
<!-- Node8 -->
<g id="node8" class="node"><title>Node8</title>
<g id="a_node8"><a xlink:href="a00205.html" target="_top" xlink:title="Helper functions for manipulating RMF files. ">
<polygon fill="none" stroke="black" points="162.042,-59 162.042,-79 221.958,-79 221.958,-59 162.042,-59"/>
<text text-anchor="middle" x="192" y="-65" font-family="Helvetica,sans-Serif" font-size="10.00">external.h</text>
</a>
</g>
</g>
<!-- Node2&#45;&gt;Node8 -->
<g id="edge8" class="edge"><title>Node2&#45;&gt;Node8</title>
<path fill="none" stroke="midnightblue" d="M364.678,-180.376C327.78,-175.545 276.305,-164.277 239,-138 217.177,-122.628 202.255,-93.6969 195.726,-79.0243"/>
<polygon fill="midnightblue" stroke="midnightblue" points="364.329,-183.859 374.675,-181.575 365.163,-176.909 364.329,-183.859"/>
</g>
<!-- Node9 -->
<g id="node9" class="node"><title>Node9</title>
<g id="a_node9"><a xlink:href="a00207.html" target="_top" xlink:title="Helper functions for manipulating RMF files. ">
<polygon fill="none" stroke="black" points="50.2637,-59 50.2637,-79 105.736,-79 105.736,-59 50.2637,-59"/>
<text text-anchor="middle" x="78" y="-65" font-family="Helvetica,sans-Serif" font-size="10.00">feature.h</text>
</a>
</g>
</g>
<!-- Node2&#45;&gt;Node9 -->
<g id="edge10" class="edge"><title>Node2&#45;&gt;Node9</title>
<path fill="none" stroke="midnightblue" d="M364.804,-183.403C286.823,-181.425 133.763,-173.053 95,-138 78.2121,-122.819 76.845,-93.801 77.3525,-79.067"/>
<polygon fill="midnightblue" stroke="midnightblue" points="364.759,-186.903 374.837,-183.633 364.92,-179.905 364.759,-186.903"/>
</g>
<!-- Node10 -->
<g id="node10" class="node"><title>Node10</title>
<g id="a_node10"><a xlink:href="a00239.html" target="_top" xlink:title="Helper functions for manipulating RMF files. ">
<polygon fill="none" stroke="black" points="247.924,-117 247.924,-137 320.076,-137 320.076,-117 247.924,-117"/>
<text text-anchor="middle" x="284" y="-123" font-family="Helvetica,sans-Serif" font-size="10.00">publication.h</text>
</a>
</g>
</g>
<!-- Node2&#45;&gt;Node10 -->
<g id="edge13" class="edge"><title>Node2&#45;&gt;Node10</title>
<path fill="none" stroke="midnightblue" d="M381.135,-170.831C357.612,-160.459 325.432,-146.269 304.679,-137.118"/>
<polygon fill="midnightblue" stroke="midnightblue" points="379.75,-174.046 390.313,-174.878 382.575,-167.641 379.75,-174.046"/>
</g>
<!-- Node11 -->
<g id="node11" class="node"><title>Node11</title>
<g id="a_node11"><a xlink:href="a00248.html" target="_top" xlink:title="Helper functions for manipulating RMF files. ">
<polygon fill="none" stroke="black" points="556.146,-59 556.146,-79 623.854,-79 623.854,-59 556.146,-59"/>
<text text-anchor="middle" x="590" y="-65" font-family="Helvetica,sans-Serif" font-size="10.00">sequence.h</text>
</a>
</g>
</g>
<!-- Node2&#45;&gt;Node11 -->
<g id="edge15" class="edge"><title>Node2&#45;&gt;Node11</title>
<path fill="none" stroke="midnightblue" d="M434.062,-169.312C471.55,-145.437 544.626,-98.8973 575.586,-79.1799"/>
<polygon fill="midnightblue" stroke="midnightblue" points="431.9,-166.54 425.346,-174.864 435.661,-172.444 431.9,-166.54"/>
</g>
<!-- Node12 -->
<g id="node12" class="node"><title>Node12</title>
<g id="a_node12"><a xlink:href="a00250.html" target="_top" xlink:title="Helper functions for manipulating RMF files. ">
<polygon fill="none" stroke="black" points="316.207,-59 316.207,-79 367.793,-79 367.793,-59 316.207,-59"/>
<text text-anchor="middle" x="342" y="-65" font-family="Helvetica,sans-Serif" font-size="10.00">shape.h</text>
</a>
</g>
</g>
<!-- Node2&#45;&gt;Node12 -->
<g id="edge19" class="edge"><title>Node2&#45;&gt;Node12</title>
<path fill="none" stroke="midnightblue" d="M408.464,-164.395C405.948,-150.149 401.096,-130.845 392,-116 382.633,-100.713 366.762,-87.3624 355.413,-79.0381"/>
<polygon fill="midnightblue" stroke="midnightblue" points="405.046,-165.198 410.019,-174.553 411.966,-164.139 405.046,-165.198"/>
</g>
<!-- Node13 -->
<g id="node13" class="node"><title>Node13</title>
<g id="a_node13"><a xlink:href="a00179.html" target="_top" xlink:title="Helper functions for manipulating RMF files. ">
<polygon fill="none" stroke="black" points="-0.292969,-117 -0.292969,-137 46.293,-137 46.293,-117 -0.292969,-117"/>
<text text-anchor="middle" x="23" y="-123" font-family="Helvetica,sans-Serif" font-size="10.00">bond.h</text>
</a>
</g>
</g>
<!-- Node2&#45;&gt;Node13 -->
<g id="edge22" class="edge"><title>Node2&#45;&gt;Node13</title>
<path fill="none" stroke="midnightblue" d="M364.608,-179.674C297.475,-173.011 169.504,-158.79 62,-138 56.9216,-137.018 51.5204,-135.768 46.4074,-134.487"/>
<polygon fill="midnightblue" stroke="midnightblue" points="364.554,-183.186 374.848,-180.679 365.238,-176.219 364.554,-183.186"/>
</g>
<!-- Node14 -->
<g id="node14" class="node"><title>Node14</title>
<g id="a_node14"><a xlink:href="a00244.html" target="_top" xlink:title="Helper functions for manipulating RMF files. ">
<polygon fill="none" stroke="black" points="103.865,-117 103.865,-137 192.135,-137 192.135,-117 103.865,-117"/>
<text text-anchor="middle" x="148" y="-123" font-family="Helvetica,sans-Serif" font-size="10.00">representation.h</text>
</a>
</g>
</g>
<!-- Node2&#45;&gt;Node14 -->
<g id="edge24" class="edge"><title>Node2&#45;&gt;Node14</title>
<path fill="none" stroke="midnightblue" d="M364.64,-174.129C315.38,-163.64 238.158,-147.197 190.444,-137.037"/>
<polygon fill="midnightblue" stroke="midnightblue" points="364.197,-177.613 374.707,-176.272 365.655,-170.766 364.197,-177.613"/>
</g>
<!-- Node15 -->
<g id="node15" class="node"><title>Node15</title>
<g id="a_node15"><a xlink:href="a00175.html" target="_top" xlink:title="Helper functions for manipulating RMF files. ">
<polygon fill="none" stroke="black" points="386.261,-59 386.261,-79 461.739,-79 461.739,-59 386.261,-59"/>
<text text-anchor="middle" x="424" y="-65" font-family="Helvetica,sans-Serif" font-size="10.00">alternatives.h</text>
</a>
</g>
</g>
<!-- Node2&#45;&gt;Node15 -->
<g id="edge26" class="edge"><title>Node2&#45;&gt;Node15</title>
<path fill="none" stroke="midnightblue" d="M418.159,-165.011C420.881,-156.828 423.65,-147.071 425,-138 428.093,-117.213 426.401,-92.4575 425.083,-79.3021"/>
<polygon fill="midnightblue" stroke="midnightblue" points="414.776,-164.079 414.731,-174.673 421.373,-166.419 414.776,-164.079"/>
</g>
<!-- Node2&#45;&gt;Node16 -->
<g id="edge29" class="edge"><title>Node2&#45;&gt;Node16</title>
<path fill="none" stroke="midnightblue" d="M456.862,-172.882C503.078,-161.678 573.032,-144.72 612.391,-135.178"/>
<polygon fill="midnightblue" stroke="midnightblue" points="455.988,-169.492 447.094,-175.25 457.637,-176.295 455.988,-169.492"/>
</g>
<!-- Node4 -->
<g id="node4" class="node"><title>Node4</title>
<g id="a_node4"><a xlink:href="a00199.html" target="_top" xlink:title="Import all the decorators headers. ">
<polygon fill="none" stroke="black" points="233.207,-1 233.207,-21 304.793,-21 304.793,-1 233.207,-1"/>
<text text-anchor="middle" x="269" y="-7" font-family="Helvetica,sans-Serif" font-size="10.00">decorators.h</text>
</a>
</g>
</g>
<!-- Node3&#45;&gt;Node4 -->
<g id="edge3" class="edge"><title>Node3&#45;&gt;Node4</title>
<path fill="none" stroke="midnightblue" d="M339.812,-110.83C329.144,-102.517 316.496,-91.5664 307,-80 291.553,-61.1855 279.042,-35.2108 272.975,-21.4464"/>
<polygon fill="midnightblue" stroke="midnightblue" points="337.755,-113.662 347.845,-116.893 341.972,-108.075 337.755,-113.662"/>
</g>
<!-- Node3&#45;&gt;Node5 -->
<g id="edge4" class="edge"><title>Node3&#45;&gt;Node5</title>
<path fill="none" stroke="midnightblue" d="M393.067,-113.867C420.648,-103.431 459.829,-88.6052 484.832,-79.1445"/>
<polygon fill="midnightblue" stroke="midnightblue" points="391.592,-110.682 383.478,-117.495 394.07,-117.229 391.592,-110.682"/>
</g>
<!-- Node5&#45;&gt;Node4 -->
<g id="edge5" class="edge"><title>Node5&#45;&gt;Node4</title>
<path fill="none" stroke="midnightblue" d="M470.306,-58.0743C470.204,-58.0495 470.102,-58.0247 470,-58 412.424,-44.0327 345.286,-28.8994 305.012,-19.9451"/>
<polygon fill="midnightblue" stroke="midnightblue" points="469.508,-61.4824 480.057,-60.4894 471.191,-54.6877 469.508,-61.4824"/>
</g>
<!-- Node6 -->
<g id="node6" class="node"><title>Node6</title>
<g id="a_node6"><a xlink:href="a00254.html" target="_top" xlink:title="Helper functions for manipulating RMF files. ">
<polygon fill="none" stroke="black" points="417.831,-1 417.831,-21 510.169,-21 510.169,-1 417.831,-1"/>
<text text-anchor="middle" x="464" y="-7" font-family="Helvetica,sans-Serif" font-size="10.00">TraverseHelper.h</text>
</a>
</g>
</g>
<!-- Node5&#45;&gt;Node6 -->
<g id="edge6" class="edge"><title>Node5&#45;&gt;Node6</title>
<path fill="none" stroke="midnightblue" d="M495.193,-50.8177C487.306,-41.0032 477.736,-29.0932 471.293,-21.0752"/>
<polygon fill="midnightblue" stroke="midnightblue" points="492.577,-53.15 501.569,-58.7527 498.034,-48.7652 492.577,-53.15"/>
</g>
<!-- Node5&#45;&gt;Node7 -->
<g id="edge7" class="edge"><title>Node5&#45;&gt;Node7</title>
<path fill="none" stroke="midnightblue" d="M536.713,-54.1437C557.355,-43.8227 584.951,-30.0245 602.85,-21.0752"/>
<polygon fill="midnightblue" stroke="midnightblue" points="534.874,-51.1501 527.495,-58.7527 538.004,-57.411 534.874,-51.1501"/>
</g>
<!-- Node8&#45;&gt;Node4 -->
<g id="edge9" class="edge"><title>Node8&#45;&gt;Node4</title>
<path fill="none" stroke="midnightblue" d="M212.809,-52.8661C226.778,-42.7069 244.717,-29.6601 256.522,-21.0752"/>
<polygon fill="midnightblue" stroke="midnightblue" points="210.744,-50.0404 204.715,-58.7527 214.861,-55.7016 210.744,-50.0404"/>
</g>
<!-- Node9&#45;&gt;Node4 -->
<g id="edge11" class="edge"><title>Node9&#45;&gt;Node4</title>
<path fill="none" stroke="midnightblue" d="M115.371,-57.0431C151.163,-46.5492 204.536,-30.9004 238.024,-21.082"/>
<polygon fill="midnightblue" stroke="midnightblue" points="114.384,-53.6849 105.773,-59.8571 116.354,-60.4022 114.384,-53.6849"/>
</g>
<!-- Node10&#45;&gt;Node4 -->
<g id="edge14" class="edge"><title>Node10&#45;&gt;Node4</title>
<path fill="none" stroke="midnightblue" d="M279.273,-107.142C277.361,-98.863 275.302,-88.9983 274,-80 270.982,-59.1466 269.744,-34.4172 269.269,-21.2837"/>
<polygon fill="midnightblue" stroke="midnightblue" points="275.881,-108.003 281.626,-116.905 282.686,-106.363 275.881,-108.003"/>
</g>
<!-- Node11&#45;&gt;Node4 -->
<g id="edge16" class="edge"><title>Node11&#45;&gt;Node4</title>
<path fill="none" stroke="midnightblue" d="M546.303,-58.0596C546.202,-58.0397 546.101,-58.0198 546,-58 459.898,-41.0818 357.933,-25.2131 304.979,-17.2822"/>
<polygon fill="midnightblue" stroke="midnightblue" points="545.431,-61.4533 555.932,-60.049 546.847,-54.5981 545.431,-61.4533"/>
</g>
<!-- Node11&#45;&gt;Node6 -->
<g id="edge17" class="edge"><title>Node11&#45;&gt;Node6</title>
<path fill="none" stroke="midnightblue" d="M560.059,-54.6927C536.749,-44.3328 505.014,-30.2285 484.516,-21.1181"/>
<polygon fill="midnightblue" stroke="midnightblue" points="558.916,-58.0149 569.475,-58.878 561.759,-51.6182 558.916,-58.0149"/>
</g>
<!-- Node11&#45;&gt;Node7 -->
<g id="edge18" class="edge"><title>Node11&#45;&gt;Node7</title>
<path fill="none" stroke="midnightblue" d="M600.009,-49.9199C605.342,-40.2849 611.672,-28.8502 615.976,-21.0752"/>
<polygon fill="midnightblue" stroke="midnightblue" points="596.9,-48.3087 595.119,-58.7527 603.024,-51.6989 596.9,-48.3087"/>
</g>
<!-- Node12&#45;&gt;Node4 -->
<g id="edge20" class="edge"><title>Node12&#45;&gt;Node4</title>
<path fill="none" stroke="midnightblue" d="M321.896,-52.5778C308.708,-42.4611 291.916,-29.5791 280.83,-21.0752"/>
<polygon fill="midnightblue" stroke="midnightblue" points="319.881,-55.4431 329.946,-58.7527 324.142,-49.8891 319.881,-55.4431"/>
</g>
<!-- Node12&#45;&gt;Node6 -->
<g id="edge21" class="edge"><title>Node12&#45;&gt;Node6</title>
<path fill="none" stroke="midnightblue" d="M370.991,-54.6927C393.561,-44.3328 424.288,-30.2285 444.136,-21.1181"/>
<polygon fill="midnightblue" stroke="midnightblue" points="369.501,-51.5254 361.873,-58.878 372.421,-57.8872 369.501,-51.5254"/>
</g>
<!-- Node13&#45;&gt;Node4 -->
<g id="edge23" class="edge"><title>Node13&#45;&gt;Node4</title>
<path fill="none" stroke="midnightblue" d="M22.8821,-106.54C23.8802,-91.2019 27.8385,-70.3984 41,-58 68.262,-32.3186 175.729,-19.7025 232.852,-14.7014"/>
<polygon fill="midnightblue" stroke="midnightblue" points="19.3834,-106.447 22.5892,-116.545 26.3804,-106.652 19.3834,-106.447"/>
</g>
<!-- Node14&#45;&gt;Node4 -->
<g id="edge25" class="edge"><title>Node14&#45;&gt;Node4</title>
<path fill="none" stroke="midnightblue" d="M144.277,-106.546C142.587,-91.822 142.839,-71.8384 153,-58 171.592,-32.6787 206.337,-21.2842 232.973,-16.1635"/>
<polygon fill="midnightblue" stroke="midnightblue" points="140.842,-107.238 145.816,-116.592 147.761,-106.178 140.842,-107.238"/>
</g>
<!-- Node15&#45;&gt;Node4 -->
<g id="edge27" class="edge"><title>Node15&#45;&gt;Node4</title>
<path fill="none" stroke="midnightblue" d="M389.041,-55.3698C360.118,-44.92 319.74,-30.3319 293.981,-21.0253"/>
<polygon fill="midnightblue" stroke="midnightblue" points="388.157,-58.7718 398.752,-58.878 390.536,-52.1882 388.157,-58.7718"/>
</g>
<!-- Node15&#45;&gt;Node6 -->
<g id="edge28" class="edge"><title>Node15&#45;&gt;Node6</title>
<path fill="none" stroke="midnightblue" d="M436.486,-50.5197C443.455,-40.763 451.848,-29.0122 457.518,-21.0752"/>
<polygon fill="midnightblue" stroke="midnightblue" points="433.57,-48.581 430.605,-58.7527 439.266,-52.6497 433.57,-48.581"/>
</g>
</g>
</svg>
        <g id="navigator" transform="translate(0 0)" fill="#404254">
                <rect fill="#f2f5e9" fill-opacity="0.5" stroke="#606060" stroke-width=".5" x="0" y="0" width="60" height="60"/>
                <use id="zoomplus" xlink:href="#zoomPlus" x="17" y="9" onmousedown="handleZoom(evt,'in')"/>
                <use id="zoomminus" xlink:href="#zoomMin" x="42" y="9" onmousedown="handleZoom(evt,'out')"/>
                <use id="reset" xlink:href="#resetDef" x="30" y="36" onmousedown="handleReset()"/>
                <g id="arrowUp" xlink:href="#dirArrow" transform="translate(30 24)" onmousedown="handlePan(0,-1)">
                  <use xlink:href="#rim" fill="#404040">
                        <set attributeName="fill" to="#808080" begin="arrowUp.mouseover" end="arrowUp.mouseout"/>
                  </use>
                  <path fill="none" stroke="white" stroke-width="1.5" d="M0,-3.0v7 M-2.5,-0.5L0,-3.0L2.5,-0.5"/>
                </g>
                <g id="arrowRight" xlink:href="#dirArrow" transform="rotate(90) translate(36 -43)" onmousedown="handlePan(1,0)">
                  <use xlink:href="#rim" fill="#404040">
                        <set attributeName="fill" to="#808080" begin="arrowRight.mouseover" end="arrowRight.mouseout"/>
                  </use>
                  <path fill="none" stroke="white" stroke-width="1.5" d="M0,-3.0v7 M-2.5,-0.5L0,-3.0L2.5,-0.5"/>
                </g>
                <g id="arrowDown" xlink:href="#dirArrow" transform="rotate(180) translate(-30 -48)" onmousedown="handlePan(0,1)">
                  <use xlink:href="#rim" fill="#404040">
                        <set attributeName="fill" to="#808080" begin="arrowDown.mouseover" end="arrowDown.mouseout"/>
                  </use>
                  <path fill="none" stroke="white" stroke-width="1.5" d="M0,-3.0v7 M-2.5,-0.5L0,-3.0L2.5,-0.5"/>
                </g>
                <g id="arrowLeft" xlink:href="#dirArrow" transform="rotate(270) translate(-36 17)" onmousedown="handlePan(-1,0)">
                  <use xlink:href="#rim" fill="#404040">
                        <set attributeName="fill" to="#808080" begin="arrowLeft.mouseover" end="arrowLeft.mouseout"/>
                  </use>
                  <path fill="none" stroke="white" stroke-width="1.5" d="M0,-3.0v7 M-2.5,-0.5L0,-3.0L2.5,-0.5"/>
                </g>
        </g>
        <svg viewBox="0 0 15 15" width="100%" height="30px" preserveAspectRatio="xMaxYMin meet">
         <g id="arrow_out" transform="scale(0.3 0.3)">
          <a xlink:href="a00336_org.svg" target="_base">
           <rect id="button" ry="5" rx="5" y="6" x="6" height="38" width="38"
                fill="#f2f5e9" fill-opacity="0.5" stroke="#606060" stroke-width="1.0"/>
           <path id="arrow"
             d="M 11.500037,31.436501 C 11.940474,20.09759 22.043105,11.32322 32.158766,21.979434 L 37.068811,17.246167 C 37.068811,17.246167 37.088388,32 37.088388,32 L 22.160133,31.978069 C 22.160133,31.978069 26.997745,27.140456 26.997745,27.140456 C 18.528582,18.264221 13.291696,25.230495 11.500037,31.436501 z"
             style="fill:#404040;"/>
          </a>
         </g>
        </svg>
</svg>
