<?xml version="1.0" encoding="UTF-8" standalone="no"?>
<!DOCTYPE svg PUBLIC "-//W3C//DTD SVG 1.1//EN"
 "http://www.w3.org/Graphics/SVG/1.1/DTD/svg11.dtd">
<!-- Generated by graphviz version 2.34.0 (20131025.1349)
 -->
<!-- Title: types.h Pages: 1 -->
<svg width="1399pt" height="332pt"
 viewBox="0.00 0.00 1399.00 332.00" xmlns="http://www.w3.org/2000/svg" xmlns:xlink="http://www.w3.org/1999/xlink">
<g id="graph0" class="graph" transform="scale(1 1) rotate(0) translate(4 328)">
<title>types.h</title>
<!-- Node1 -->
<g id="node1" class="node"><title>Node1</title>
<polygon fill="#bfbfbf" stroke="black" points="53.8794,-303 53.8794,-323 102.121,-323 102.121,-303 53.8794,-303"/>
<text text-anchor="middle" x="78" y="-309" font-family="Helvetica,sans-Serif" font-size="10.00">types.h</text>
</g>
<!-- Node2 -->
<g id="node2" class="node"><title>Node2</title>
<g id="a_node2"><a xlink:href="a00186_source.html" target="_top" xlink:title="RMF/config.h">
<polygon fill="none" stroke="black" points="-0.731445,-59 -0.731445,-79 74.7314,-79 74.7314,-59 -0.731445,-59"/>
<text text-anchor="middle" x="37" y="-65" font-family="Helvetica,sans-Serif" font-size="10.00">RMF/config.h</text>
</a>
</g>
</g>
<!-- Node1&#45;&gt;Node2 -->
<g id="edge1" class="edge"><title>Node1&#45;&gt;Node2</title>
<path fill="none" stroke="midnightblue" d="M72.4447,-302.862C67.2507,-293.839 59.7492,-279.475 56,-266 38.5455,-203.267 36.5462,-125.385 36.6664,-89.6223"/>
<polygon fill="midnightblue" stroke="midnightblue" points="40.1704,-89.2257 36.7692,-79.1917 33.1707,-89.1567 40.1704,-89.2257"/>
</g>
<!-- Node4 -->
<g id="node4" class="node"><title>Node4</title>
<g id="a_node4"><a xlink:href="a00201.html" target="_top" xlink:title="Default implementation for types.h. ">
<polygon fill="none" stroke="black" points="64.8672,-245 64.8672,-265 173.133,-265 173.133,-245 64.8672,-245"/>
<text text-anchor="middle" x="119" y="-251" font-family="Helvetica,sans-Serif" font-size="10.00">RMF/default_types.h</text>
</a>
</g>
</g>
<!-- Node1&#45;&gt;Node4 -->
<g id="edge3" class="edge"><title>Node1&#45;&gt;Node4</title>
<path fill="none" stroke="midnightblue" d="M84.7703,-302.753C90.6213,-294.761 99.2339,-282.998 106.356,-273.27"/>
<polygon fill="midnightblue" stroke="midnightblue" points="109.272,-275.211 112.356,-265.075 103.624,-271.076 109.272,-275.211"/>
</g>
<!-- Node3 -->
<g id="node3" class="node"><title>Node3</title>
<g id="a_node3"><a xlink:href="a00185.html" target="_top" xlink:title="Various compiler workarounds. ">
<polygon fill="none" stroke="black" points="40.5444,-1 40.5444,-21 165.456,-21 165.456,-1 40.5444,-1"/>
<text text-anchor="middle" x="103" y="-7" font-family="Helvetica,sans-Serif" font-size="10.00">RMF/compiler_macros.h</text>
</a>
</g>
</g>
<!-- Node2&#45;&gt;Node3 -->
<g id="edge2" class="edge"><title>Node2&#45;&gt;Node3</title>
<path fill="none" stroke="midnightblue" d="M47.8986,-58.7527C57.7978,-50.3534 72.6078,-37.7874 84.3814,-27.7976"/>
<polygon fill="midnightblue" stroke="midnightblue" points="86.9436,-30.2138 92.3042,-21.0752 82.4147,-24.8762 86.9436,-30.2138"/>
</g>
<!-- Node4&#45;&gt;Node2 -->
<g id="edge4" class="edge"><title>Node4&#45;&gt;Node2</title>
<path fill="none" stroke="midnightblue" d="M114.934,-244.875C102.173,-216.241 62.7395,-127.757 45.3657,-88.7719"/>
<polygon fill="midnightblue" stroke="midnightblue" points="48.3585,-86.889 41.0909,-79.1797 41.9647,-89.7384 48.3585,-86.889"/>
</g>
<!-- Node5 -->
<g id="node5" class="node"><title>Node5</title>
<g id="a_node5"><a xlink:href="a00259.html" target="_top" xlink:title="Represent coordinates. ">
<polygon fill="none" stroke="black" points="837.926,-187 837.926,-207 890.074,-207 890.074,-187 837.926,-187"/>
<text text-anchor="middle" x="864" y="-193" font-family="Helvetica,sans-Serif" font-size="10.00">Vector.h</text>
</a>
</g>
</g>
<!-- Node4&#45;&gt;Node5 -->
<g id="edge5" class="edge"><title>Node4&#45;&gt;Node5</title>
<path fill="none" stroke="midnightblue" d="M173.179,-249.928C317.166,-239.104 706.599,-209.832 827.615,-200.735"/>
<polygon fill="midnightblue" stroke="midnightblue" points="828.115,-204.207 837.824,-199.968 827.59,-197.227 828.115,-204.207"/>
</g>
<!-- Node5&#45;&gt;Node2 -->
<g id="edge6" class="edge"><title>Node5&#45;&gt;Node2</title>
<path fill="none" stroke="midnightblue" d="M837.735,-196.075C755.38,-195.853 495.191,-191.659 285,-150 205.207,-134.185 115.158,-101.12 68.6241,-82.8389"/>
<polygon fill="midnightblue" stroke="midnightblue" points="69.6909,-79.4969 59.1048,-79.0661 67.1118,-86.0044 69.6909,-79.4969"/>
</g>
<!-- Node6 -->
<g id="node6" class="node"><title>Node6</title>
<g id="a_node6"><a xlink:href="a00219.html" target="_top" xlink:title="Various general useful macros for IMP. ">
<polygon fill="none" stroke="black" points="602.48,-123 602.48,-143 723.52,-143 723.52,-123 602.48,-123"/>
<text text-anchor="middle" x="663" y="-129" font-family="Helvetica,sans-Serif" font-size="10.00">infrastructure_macros.h</text>
</a>
</g>
</g>
<!-- Node5&#45;&gt;Node6 -->
<g id="edge7" class="edge"><title>Node5&#45;&gt;Node6</title>
<path fill="none" stroke="midnightblue" d="M837.723,-187.895C803.094,-177.213 741.901,-158.338 701.901,-145.999"/>
<polygon fill="midnightblue" stroke="midnightblue" points="702.804,-142.615 692.217,-143.012 700.741,-149.304 702.804,-142.615"/>
</g>
<!-- Node15 -->
<g id="node15" class="node"><title>Node15</title>
<g id="a_node15"><a xlink:href="a00204.html" target="_top" xlink:title="Various general useful macros for IMP. ">
<polygon fill="none" stroke="black" points="293.926,-123 293.926,-143 366.074,-143 366.074,-123 293.926,-123"/>
<text text-anchor="middle" x="330" y="-129" font-family="Helvetica,sans-Serif" font-size="10.00">exceptions.h</text>
</a>
</g>
</g>
<!-- Node5&#45;&gt;Node15 -->
<g id="edge17" class="edge"><title>Node5&#45;&gt;Node15</title>
<path fill="none" stroke="midnightblue" d="M837.883,-192.968C753.09,-183.123 484.734,-151.965 376.212,-139.365"/>
<polygon fill="midnightblue" stroke="midnightblue" points="376.557,-135.882 366.22,-138.205 375.75,-142.835 376.557,-135.882"/>
</g>
<!-- Node19 -->
<g id="node19" class="node"><title>Node19</title>
<polygon fill="none" stroke="#bfbfbf" points="741.237,-123 741.237,-143 856.763,-143 856.763,-123 741.237,-123"/>
<text text-anchor="middle" x="799" y="-129" font-family="Helvetica,sans-Serif" font-size="10.00">boost/range/begin.hpp</text>
</g>
<!-- Node5&#45;&gt;Node19 -->
<g id="edge24" class="edge"><title>Node5&#45;&gt;Node19</title>
<path fill="none" stroke="midnightblue" d="M854.409,-186.852C844.328,-177.236 828.263,-161.913 816.022,-150.236"/>
<polygon fill="midnightblue" stroke="midnightblue" points="818.282,-147.555 808.63,-143.186 813.451,-152.621 818.282,-147.555"/>
</g>
<!-- Node20 -->
<g id="node20" class="node"><title>Node20</title>
<polygon fill="none" stroke="#bfbfbf" points="875.128,-123 875.128,-143 982.872,-143 982.872,-123 875.128,-123"/>
<text text-anchor="middle" x="929" y="-129" font-family="Helvetica,sans-Serif" font-size="10.00">boost/range/end.hpp</text>
</g>
<!-- Node5&#45;&gt;Node20 -->
<g id="edge25" class="edge"><title>Node5&#45;&gt;Node20</title>
<path fill="none" stroke="midnightblue" d="M873.591,-186.852C883.672,-177.236 899.737,-161.913 911.978,-150.236"/>
<polygon fill="midnightblue" stroke="midnightblue" points="914.549,-152.621 919.37,-143.186 909.718,-147.555 914.549,-152.621"/>
</g>
<!-- Node21 -->
<g id="node21" class="node"><title>Node21</title>
<polygon fill="none" stroke="#bfbfbf" points="1001.31,-117 1001.31,-149 1100.69,-149 1100.69,-117 1001.31,-117"/>
<text text-anchor="start" x="1009.31" y="-135" font-family="Helvetica,sans-Serif" font-size="10.00">boost/type_traits/is</text>
<text text-anchor="middle" x="1051" y="-123" font-family="Helvetica,sans-Serif" font-size="10.00">_convertible.hpp</text>
</g>
<!-- Node5&#45;&gt;Node21 -->
<g id="edge26" class="edge"><title>Node5&#45;&gt;Node21</title>
<path fill="none" stroke="midnightblue" d="M890.396,-187.248C917.727,-178.187 961.228,-163.764 996.066,-152.213"/>
<polygon fill="midnightblue" stroke="midnightblue" points="997.252,-155.508 1005.64,-149.038 995.049,-148.863 997.252,-155.508"/>
</g>
<!-- Node22 -->
<g id="node22" class="node"><title>Node22</title>
<polygon fill="none" stroke="#bfbfbf" points="1118.25,-123 1118.25,-143 1213.75,-143 1213.75,-123 1118.25,-123"/>
<text text-anchor="middle" x="1166" y="-129" font-family="Helvetica,sans-Serif" font-size="10.00">boost/mpl/not.hpp</text>
</g>
<!-- Node5&#45;&gt;Node22 -->
<g id="edge27" class="edge"><title>Node5&#45;&gt;Node22</title>
<path fill="none" stroke="midnightblue" d="M890.265,-191.849C935.286,-184.561 1029.98,-168.47 1109,-150 1114.44,-148.728 1120.14,-147.274 1125.75,-145.774"/>
<polygon fill="midnightblue" stroke="midnightblue" points="1126.94,-149.076 1135.66,-143.051 1125.09,-142.326 1126.94,-149.076"/>
</g>
<!-- Node23 -->
<g id="node23" class="node"><title>Node23</title>
<polygon fill="none" stroke="#bfbfbf" points="1231.62,-123 1231.62,-143 1316.38,-143 1316.38,-123 1231.62,-123"/>
<text text-anchor="middle" x="1274" y="-129" font-family="Helvetica,sans-Serif" font-size="10.00">boost/array.hpp</text>
</g>
<!-- Node5&#45;&gt;Node23 -->
<g id="edge28" class="edge"><title>Node5&#45;&gt;Node23</title>
<path fill="none" stroke="midnightblue" d="M890.314,-194.165C949.904,-189.675 1099.51,-176.511 1222,-150 1227.18,-148.88 1232.58,-147.483 1237.86,-145.984"/>
<polygon fill="midnightblue" stroke="midnightblue" points="1239.2,-149.238 1247.78,-143.023 1237.19,-142.531 1239.2,-149.238"/>
</g>
<!-- Node24 -->
<g id="node24" class="node"><title>Node24</title>
<polygon fill="none" stroke="#bfbfbf" points="1334.44,-123 1334.44,-143 1391.56,-143 1391.56,-123 1334.44,-123"/>
<text text-anchor="middle" x="1363" y="-129" font-family="Helvetica,sans-Serif" font-size="10.00">algorithm</text>
</g>
<!-- Node5&#45;&gt;Node24 -->
<g id="edge29" class="edge"><title>Node5&#45;&gt;Node24</title>
<path fill="none" stroke="midnightblue" d="M890.21,-196.1C961.329,-195.793 1163.44,-191.078 1325,-150 1328.26,-149.171 1331.6,-148.107 1334.89,-146.922"/>
<polygon fill="midnightblue" stroke="midnightblue" points="1336.45,-150.071 1344.44,-143.121 1333.86,-143.567 1336.45,-150.071"/>
</g>
<!-- Node6&#45;&gt;Node3 -->
<g id="edge11" class="edge"><title>Node6&#45;&gt;Node3</title>
<path fill="none" stroke="midnightblue" d="M651.43,-122.973C628.112,-104.968 575.916,-65.6602 555,-58 487.284,-33.1998 285.704,-20.3594 176.035,-15.0463"/>
<polygon fill="midnightblue" stroke="midnightblue" points="175.872,-11.5347 165.717,-14.5555 175.539,-18.5268 175.872,-11.5347"/>
</g>
<!-- Node7 -->
<g id="node7" class="node"><title>Node7</title>
<polygon fill="none" stroke="#bfbfbf" points="602.219,-59 602.219,-79 653.781,-79 653.781,-59 602.219,-59"/>
<text text-anchor="middle" x="628" y="-65" font-family="Helvetica,sans-Serif" font-size="10.00">sstream</text>
</g>
<!-- Node6&#45;&gt;Node7 -->
<g id="edge8" class="edge"><title>Node6&#45;&gt;Node7</title>
<path fill="none" stroke="midnightblue" d="M657.836,-122.852C652.666,-113.694 644.574,-99.3592 638.121,-87.9279"/>
<polygon fill="midnightblue" stroke="midnightblue" points="641.149,-86.1735 633.186,-79.1858 635.054,-89.6147 641.149,-86.1735"/>
</g>
<!-- Node8 -->
<g id="node8" class="node"><title>Node8</title>
<polygon fill="none" stroke="#bfbfbf" points="671.828,-59 671.828,-79 726.172,-79 726.172,-59 671.828,-59"/>
<text text-anchor="middle" x="699" y="-65" font-family="Helvetica,sans-Serif" font-size="10.00">iostream</text>
</g>
<!-- Node6&#45;&gt;Node8 -->
<g id="edge9" class="edge"><title>Node6&#45;&gt;Node8</title>
<path fill="none" stroke="midnightblue" d="M668.312,-122.852C673.629,-113.694 681.953,-99.3592 688.59,-87.9279"/>
<polygon fill="midnightblue" stroke="midnightblue" points="691.672,-89.5912 693.666,-79.1858 685.618,-86.0763 691.672,-89.5912"/>
</g>
<!-- Node9 -->
<g id="node9" class="node"><title>Node9</title>
<polygon fill="none" stroke="#bfbfbf" points="505.773,-59 505.773,-79 546.227,-79 546.227,-59 505.773,-59"/>
<text text-anchor="middle" x="526" y="-65" font-family="Helvetica,sans-Serif" font-size="10.00">string</text>
</g>
<!-- Node6&#45;&gt;Node9 -->
<g id="edge10" class="edge"><title>Node6&#45;&gt;Node9</title>
<path fill="none" stroke="midnightblue" d="M643.079,-122.985C619.946,-112.516 581.583,-95.1544 555.11,-83.1739"/>
<polygon fill="midnightblue" stroke="midnightblue" points="556.499,-79.9606 545.945,-79.0262 553.612,-86.3379 556.499,-79.9606"/>
</g>
<!-- Node10 -->
<g id="node10" class="node"><title>Node10</title>
<polygon fill="none" stroke="#bfbfbf" points="743.98,-59 743.98,-79 820.02,-79 820.02,-59 743.98,-59"/>
<text text-anchor="middle" x="782" y="-65" font-family="Helvetica,sans-Serif" font-size="10.00">internal/use.h</text>
</g>
<!-- Node6&#45;&gt;Node10 -->
<g id="edge12" class="edge"><title>Node6&#45;&gt;Node10</title>
<path fill="none" stroke="midnightblue" d="M680.304,-122.985C700.133,-112.653 732.845,-95.6101 755.802,-83.6496"/>
<polygon fill="midnightblue" stroke="midnightblue" points="757.424,-86.7508 764.675,-79.0262 754.19,-80.5429 757.424,-86.7508"/>
</g>
<!-- Node11 -->
<g id="node11" class="node"><title>Node11</title>
<polygon fill="none" stroke="#bfbfbf" points="838.306,-59 838.306,-79 927.694,-79 927.694,-59 838.306,-59"/>
<text text-anchor="middle" x="883" y="-65" font-family="Helvetica,sans-Serif" font-size="10.00">boost/config.hpp</text>
</g>
<!-- Node6&#45;&gt;Node11 -->
<g id="edge13" class="edge"><title>Node6&#45;&gt;Node11</title>
<path fill="none" stroke="midnightblue" d="M694.99,-122.985C733.605,-112.102 798.644,-93.7731 841.196,-81.7811"/>
<polygon fill="midnightblue" stroke="midnightblue" points="842.296,-85.1076 850.972,-79.0262 840.397,-78.37 842.296,-85.1076"/>
</g>
<!-- Node12 -->
<g id="node12" class="node"><title>Node12</title>
<polygon fill="none" stroke="#bfbfbf" points="945.53,-59 945.53,-79 1040.47,-79 1040.47,-59 945.53,-59"/>
<text text-anchor="middle" x="993" y="-65" font-family="Helvetica,sans-Serif" font-size="10.00">boost/version.hpp</text>
</g>
<!-- Node6&#45;&gt;Node12 -->
<g id="edge14" class="edge"><title>Node6&#45;&gt;Node12</title>
<path fill="none" stroke="midnightblue" d="M700.163,-122.999C710.451,-120.612 721.638,-118.113 732,-116 736.985,-114.983 859.748,-93.3999 935.108,-80.1637"/>
<polygon fill="midnightblue" stroke="midnightblue" points="936.166,-83.5315 945.41,-78.3544 934.955,-76.637 936.166,-83.5315"/>
</g>
<!-- Node13 -->
<g id="node13" class="node"><title>Node13</title>
<polygon fill="none" stroke="#bfbfbf" points="1057.97,-59 1057.97,-79 1154.03,-79 1154.03,-59 1057.97,-59"/>
<text text-anchor="middle" x="1106" y="-65" font-family="Helvetica,sans-Serif" font-size="10.00">boost/foreach.hpp</text>
</g>
<!-- Node6&#45;&gt;Node13 -->
<g id="edge15" class="edge"><title>Node6&#45;&gt;Node13</title>
<path fill="none" stroke="midnightblue" d="M698.298,-122.994C709.065,-120.469 720.972,-117.898 732,-116 868.464,-92.5092 906.873,-99.8883 1047.52,-80.1322"/>
<polygon fill="midnightblue" stroke="midnightblue" points="1048.43,-83.5392 1057.83,-78.6621 1047.44,-76.6094 1048.43,-83.5392"/>
</g>
<!-- Node14 -->
<g id="node14" class="node"><title>Node14</title>
<polygon fill="none" stroke="#bfbfbf" points="1172.38,-59 1172.38,-79 1215.62,-79 1215.62,-59 1172.38,-59"/>
<text text-anchor="middle" x="1194" y="-65" font-family="Helvetica,sans-Serif" font-size="10.00">vector</text>
</g>
<!-- Node6&#45;&gt;Node14 -->
<g id="edge16" class="edge"><title>Node6&#45;&gt;Node14</title>
<path fill="none" stroke="midnightblue" d="M697.557,-122.956C708.506,-120.368 720.702,-117.772 732,-116 918.655,-86.7207 972.683,-116.693 1162.14,-79.7224"/>
<polygon fill="midnightblue" stroke="midnightblue" points="1163.02,-83.1158 1172.15,-77.7326 1161.66,-76.2502 1163.02,-83.1158"/>
</g>
<!-- Node15&#45;&gt;Node2 -->
<g id="edge21" class="edge"><title>Node15&#45;&gt;Node2</title>
<path fill="none" stroke="midnightblue" d="M293.779,-124.335C241.203,-113.21 143.651,-92.5678 85.0991,-80.178"/>
<polygon fill="midnightblue" stroke="midnightblue" points="85.5005,-76.6855 74.9925,-78.0394 84.0513,-83.5338 85.5005,-76.6855"/>
</g>
<!-- Node15&#45;&gt;Node3 -->
<g id="edge22" class="edge"><title>Node15&#45;&gt;Node3</title>
<path fill="none" stroke="midnightblue" d="M293.558,-127.336C240.645,-119.848 146.212,-103.555 122,-80 109.118,-67.4671 104.759,-46.9835 103.387,-31.7682"/>
<polygon fill="midnightblue" stroke="midnightblue" points="106.86,-31.1761 102.827,-21.3789 99.87,-31.5526 106.86,-31.1761"/>
</g>
<!-- Node15&#45;&gt;Node9 -->
<g id="edge20" class="edge"><title>Node15&#45;&gt;Node9</title>
<path fill="none" stroke="midnightblue" d="M359.952,-122.972C391.544,-113.383 442.997,-97.5834 496.155,-80.216"/>
<polygon fill="midnightblue" stroke="midnightblue" points="497.333,-83.5132 505.745,-77.0718 495.152,-76.8617 497.333,-83.5132"/>
</g>
<!-- Node16 -->
<g id="node16" class="node"><title>Node16</title>
<polygon fill="none" stroke="#bfbfbf" points="131.451,-59 131.451,-79 282.549,-79 282.549,-59 131.451,-59"/>
<text text-anchor="middle" x="207" y="-65" font-family="Helvetica,sans-Serif" font-size="10.00">boost/exception/exception.hpp</text>
</g>
<!-- Node15&#45;&gt;Node16 -->
<g id="edge18" class="edge"><title>Node15&#45;&gt;Node16</title>
<path fill="none" stroke="midnightblue" d="M312.115,-122.985C291.619,-112.653 257.807,-95.6101 234.079,-83.6496"/>
<polygon fill="midnightblue" stroke="midnightblue" points="235.412,-80.402 224.907,-79.0262 232.261,-86.6528 235.412,-80.402"/>
</g>
<!-- Node17 -->
<g id="node17" class="node"><title>Node17</title>
<polygon fill="none" stroke="#bfbfbf" points="300.596,-59 300.596,-79 359.404,-79 359.404,-59 300.596,-59"/>
<text text-anchor="middle" x="330" y="-65" font-family="Helvetica,sans-Serif" font-size="10.00">exception</text>
</g>
<!-- Node15&#45;&gt;Node17 -->
<g id="edge19" class="edge"><title>Node15&#45;&gt;Node17</title>
<path fill="none" stroke="midnightblue" d="M330,-122.852C330,-114.06 330,-100.498 330,-89.3131"/>
<polygon fill="midnightblue" stroke="midnightblue" points="333.5,-89.1858 330,-79.1858 326.5,-89.1859 333.5,-89.1858"/>
</g>
<!-- Node18 -->
<g id="node18" class="node"><title>Node18</title>
<polygon fill="none" stroke="#bfbfbf" points="377.766,-59 377.766,-79 488.234,-79 488.234,-59 377.766,-59"/>
<text text-anchor="middle" x="433" y="-65" font-family="Helvetica,sans-Serif" font-size="10.00">RMF/internal/errors.h</text>
</g>
<!-- Node15&#45;&gt;Node18 -->
<g id="edge23" class="edge"><title>Node15&#45;&gt;Node18</title>
<path fill="none" stroke="midnightblue" d="M345.198,-122.852C362.009,-112.732 389.322,-96.2919 409.024,-84.4324"/>
<polygon fill="midnightblue" stroke="midnightblue" points="410.977,-87.3417 417.74,-79.1858 407.367,-81.3444 410.977,-87.3417"/>
</g>
</g>
</svg>
