<?xml version="1.0" encoding="UTF-8" standalone="no"?>
<!DOCTYPE svg PUBLIC "-//W3C//DTD SVG 1.1//EN"
 "http://www.w3.org/Graphics/SVG/1.1/DTD/svg11.dtd">
<!-- Generated by graphviz version 2.34.0 (20131025.1349)
 -->
<!-- Title: traits.h Pages: 1 -->
<svg width="1528pt" height="436pt"
 viewBox="0.00 0.00 1527.85 436.00" xmlns="http://www.w3.org/2000/svg" xmlns:xlink="http://www.w3.org/1999/xlink">
<g id="graph0" class="graph" transform="scale(1 1) rotate(0) translate(4 432)">
<title>traits.h</title>
<!-- Node1 -->
<g id="node1" class="node"><title>Node1</title>
<polygon fill="#bfbfbf" stroke="black" points="839.842,-407 839.842,-427 885.852,-427 885.852,-407 839.842,-407"/>
<text text-anchor="middle" x="862.847" y="-413" font-family="Helvetica,sans-Serif" font-size="10.00">traits.h</text>
</g>
<!-- Node2 -->
<g id="node2" class="node"><title>Node2</title>
<g id="a_node2"><a xlink:href="a00221.html" target="_top" xlink:title="Handle read/write of Model data from/to files. ">
<polygon fill="none" stroke="black" points="840.396,-349 840.396,-369 885.297,-369 885.297,-349 840.396,-349"/>
<text text-anchor="middle" x="862.847" y="-355" font-family="Helvetica,sans-Serif" font-size="10.00">keys.h</text>
</a>
</g>
</g>
<!-- Node1&#45;&gt;Node2 -->
<g id="edge1" class="edge"><title>Node1&#45;&gt;Node2</title>
<path fill="none" stroke="midnightblue" d="M862.847,-396.707C862.847,-387.338 862.847,-376.526 862.847,-369.075"/>
<polygon fill="midnightblue" stroke="midnightblue" points="859.347,-396.753 862.847,-406.753 866.347,-396.753 859.347,-396.753"/>
</g>
<!-- Node3 -->
<g id="node3" class="node"><title>Node3</title>
<g id="a_node3"><a xlink:href="a00233.html" target="_top" xlink:title="Handle read/write of Model data from/to files. ">
<polygon fill="none" stroke="black" points="779.817,-291 779.817,-311 885.876,-311 885.876,-291 779.817,-291"/>
<text text-anchor="middle" x="832.847" y="-297" font-family="Helvetica,sans-Serif" font-size="10.00">NodeConstHandle.h</text>
</a>
</g>
</g>
<!-- Node1&#45;&gt;Node3 -->
<g id="edge75" class="edge"><title>Node1&#45;&gt;Node3</title>
<path fill="none" stroke="midnightblue" d="M847.626,-398.738C841.45,-390.607 835.029,-380.416 831.847,-370 825.637,-349.675 828.654,-324.314 830.993,-311.047"/>
<polygon fill="midnightblue" stroke="midnightblue" points="845.046,-401.112 854.068,-406.666 850.479,-396.698 845.046,-401.112"/>
</g>
<!-- Node29 -->
<g id="node29" class="node"><title>Node29</title>
<g id="a_node29"><a xlink:href="a00235.html" target="_top" xlink:title="Handle read/write of Model data from/to files. ">
<polygon fill="none" stroke="black" points="903.61,-349 903.61,-369 964.083,-369 964.083,-349 903.61,-349"/>
<text text-anchor="middle" x="933.847" y="-355" font-family="Helvetica,sans-Serif" font-size="10.00">Nullable.h</text>
</a>
</g>
</g>
<!-- Node1&#45;&gt;Node29 -->
<g id="edge71" class="edge"><title>Node1&#45;&gt;Node29</title>
<path fill="none" stroke="midnightblue" d="M882.767,-400.288C895.537,-390.216 911.662,-377.498 922.341,-369.075"/>
<polygon fill="midnightblue" stroke="midnightblue" points="880.255,-397.812 874.571,-406.753 884.59,-403.308 880.255,-397.812"/>
</g>
<!-- Node2&#45;&gt;Node3 -->
<g id="edge2" class="edge"><title>Node2&#45;&gt;Node3</title>
<path fill="none" stroke="midnightblue" d="M853.161,-339.92C847.999,-330.285 841.874,-318.85 837.708,-311.075"/>
<polygon fill="midnightblue" stroke="midnightblue" points="850.085,-341.591 857.893,-348.753 856.256,-338.285 850.085,-341.591"/>
</g>
<!-- Node4 -->
<g id="node4" class="node"><title>Node4</title>
<g id="a_node4"><a xlink:href="a00198.html" target="_top" xlink:title="Helper functions for manipulating RMF files. ">
<polygon fill="none" stroke="black" points="999.997,-175 999.997,-195 1067.7,-195 1067.7,-175 999.997,-175"/>
<text text-anchor="middle" x="1033.85" y="-181" font-family="Helvetica,sans-Serif" font-size="10.00">Decorator.h</text>
</a>
</g>
</g>
<!-- Node3&#45;&gt;Node4 -->
<g id="edge3" class="edge"><title>Node3&#45;&gt;Node4</title>
<path fill="none" stroke="midnightblue" d="M895.781,-289.62C923.927,-282.796 956.416,-271.725 981.847,-254 1004.28,-238.364 1021.33,-210.076 1029.14,-195.401"/>
<polygon fill="midnightblue" stroke="midnightblue" points="894.988,-286.211 886.025,-291.861 896.555,-293.034 894.988,-286.211"/>
</g>
<!-- Node9 -->
<g id="node9" class="node"><title>Node9</title>
<g id="a_node9"><a xlink:href="a00177_source.html" target="_top" xlink:title="benchmark_rmf.cpp">
<polygon fill="none" stroke="black" points="506.662,-1 506.662,-21 611.031,-21 611.031,-1 506.662,-1"/>
<text text-anchor="middle" x="558.847" y="-7" font-family="Helvetica,sans-Serif" font-size="10.00">benchmark_rmf.cpp</text>
</a>
</g>
</g>
<!-- Node3&#45;&gt;Node9 -->
<g id="edge70" class="edge"><title>Node3&#45;&gt;Node9</title>
<path fill="none" stroke="midnightblue" d="M769.765,-291.403C673.72,-276.522 501.847,-242.059 501.847,-186 501.847,-186 501.847,-186 501.847,-126 501.847,-83.0722 534.581,-39.7389 550.436,-21.2673"/>
<polygon fill="midnightblue" stroke="midnightblue" points="769.253,-294.866 779.666,-292.91 770.306,-287.945 769.253,-294.866"/>
</g>
<!-- Node18 -->
<g id="node18" class="node"><title>Node18</title>
<g id="a_node18"><a xlink:href="a00234.html" target="_top" xlink:title="Handle read/write of Model data from/to files. ">
<polygon fill="none" stroke="black" points="893.879,-233 893.879,-253 973.814,-253 973.814,-233 893.879,-233"/>
<text text-anchor="middle" x="933.847" y="-239" font-family="Helvetica,sans-Serif" font-size="10.00">NodeHandle.h</text>
</a>
</g>
</g>
<!-- Node3&#45;&gt;Node18 -->
<g id="edge31" class="edge"><title>Node3&#45;&gt;Node18</title>
<path fill="none" stroke="midnightblue" d="M858.344,-285.863C876.902,-275.573 901.484,-261.944 917.479,-253.075"/>
<polygon fill="midnightblue" stroke="midnightblue" points="856.573,-282.843 849.525,-290.753 859.968,-288.965 856.573,-282.843"/>
</g>
<!-- Node20 -->
<g id="node20" class="node"><title>Node20</title>
<g id="a_node20"><a xlink:href="a00258.html" target="_top" xlink:title="Handle read/write of Model data from/to files. ">
<polygon fill="none" stroke="black" points="59.4429,-117 59.4429,-137 118.251,-137 118.251,-117 59.4429,-117"/>
<text text-anchor="middle" x="88.8467" y="-123" font-family="Helvetica,sans-Serif" font-size="10.00">validate.h</text>
</a>
</g>
</g>
<!-- Node3&#45;&gt;Node20 -->
<g id="edge69" class="edge"><title>Node3&#45;&gt;Node20</title>
<path fill="none" stroke="midnightblue" d="M769.27,-300.487C652.56,-300.277 396.755,-294.68 185.847,-254 102.902,-238.002 54.6376,-264.24 4.8467,-196 -14.0094,-170.157 29.5119,-148.575 60.686,-137.041"/>
<polygon fill="midnightblue" stroke="midnightblue" points="769.45,-303.987 779.452,-300.492 769.454,-296.987 769.45,-303.987"/>
</g>
<!-- Node23 -->
<g id="node23" class="node"><title>Node23</title>
<g id="a_node23"><a xlink:href="a00209.html" target="_top" xlink:title="Handle read/write of Model data from/to files. ">
<polygon fill="none" stroke="black" points="194.714,-233 194.714,-253 292.98,-253 292.98,-233 194.714,-233"/>
<text text-anchor="middle" x="243.847" y="-239" font-family="Helvetica,sans-Serif" font-size="10.00">FileConstHandle.h</text>
</a>
</g>
</g>
<!-- Node3&#45;&gt;Node23 -->
<g id="edge60" class="edge"><title>Node3&#45;&gt;Node23</title>
<path fill="none" stroke="midnightblue" d="M769.834,-294.009C651.888,-282.795 400.083,-258.854 293.328,-248.704"/>
<polygon fill="midnightblue" stroke="midnightblue" points="769.512,-297.494 779.799,-294.956 770.175,-290.525 769.512,-297.494"/>
</g>
<!-- Node28 -->
<g id="node28" class="node"><title>Node28</title>
<g id="a_node28"><a xlink:href="a00257.html" target="_top" xlink:title="Helper functions for manipulating RMF files. ">
<polygon fill="none" stroke="black" points="809.654,-233 809.654,-253 856.04,-253 856.04,-233 809.654,-233"/>
<text text-anchor="middle" x="832.847" y="-239" font-family="Helvetica,sans-Serif" font-size="10.00">utility.h</text>
</a>
</g>
</g>
<!-- Node3&#45;&gt;Node28 -->
<g id="edge68" class="edge"><title>Node3&#45;&gt;Node28</title>
<path fill="none" stroke="midnightblue" d="M832.847,-280.707C832.847,-271.338 832.847,-260.526 832.847,-253.075"/>
<polygon fill="midnightblue" stroke="midnightblue" points="829.347,-280.753 832.847,-290.753 836.347,-280.753 829.347,-280.753"/>
</g>
<!-- Node5 -->
<g id="node5" class="node"><title>Node5</title>
<g id="a_node5"><a xlink:href="a00173.html" target="_top" xlink:title="Helper functions for manipulating RMF files. ">
<polygon fill="none" stroke="black" points="717.394,-117 717.394,-137 762.3,-137 762.3,-117 717.394,-117"/>
<text text-anchor="middle" x="739.847" y="-123" font-family="Helvetica,sans-Serif" font-size="10.00">alias.h</text>
</a>
</g>
</g>
<!-- Node4&#45;&gt;Node5 -->
<g id="edge4" class="edge"><title>Node4&#45;&gt;Node5</title>
<path fill="none" stroke="midnightblue" d="M989.727,-175.596C926.228,-163.501 811.364,-141.622 762.661,-132.346"/>
<polygon fill="midnightblue" stroke="midnightblue" points="989.356,-179.088 999.834,-177.521 990.665,-172.212 989.356,-179.088"/>
</g>
<!-- Node7 -->
<g id="node7" class="node"><title>Node7</title>
<g id="a_node7"><a xlink:href="a00237.html" target="_top" xlink:title="Helper functions for manipulating RMF files. ">
<polygon fill="none" stroke="black" points="768.004,-59 768.004,-79 825.689,-79 825.689,-59 768.004,-59"/>
<text text-anchor="middle" x="796.847" y="-65" font-family="Helvetica,sans-Serif" font-size="10.00">physics.h</text>
</a>
</g>
</g>
<!-- Node4&#45;&gt;Node7 -->
<g id="edge14" class="edge"><title>Node4&#45;&gt;Node7</title>
<path fill="none" stroke="midnightblue" d="M1055.78,-168.556C1073.43,-154.271 1093.11,-132.777 1078.85,-116 1046.56,-78.0165 891.128,-71.3213 825.832,-70.1977"/>
<polygon fill="midnightblue" stroke="midnightblue" points="1053.26,-166.081 1047.44,-174.937 1057.51,-171.64 1053.26,-166.081"/>
</g>
<!-- Node10 -->
<g id="node10" class="node"><title>Node10</title>
<g id="a_node10"><a xlink:href="a00205.html" target="_top" xlink:title="Helper functions for manipulating RMF files. ">
<polygon fill="none" stroke="black" points="919.889,-117 919.889,-137 979.805,-137 979.805,-117 919.889,-117"/>
<text text-anchor="middle" x="949.847" y="-123" font-family="Helvetica,sans-Serif" font-size="10.00">external.h</text>
</a>
</g>
</g>
<!-- Node4&#45;&gt;Node10 -->
<g id="edge10" class="edge"><title>Node4&#45;&gt;Node10</title>
<path fill="none" stroke="midnightblue" d="M1011.58,-169.153C996.277,-158.953 976.458,-145.741 963.459,-137.075"/>
<polygon fill="midnightblue" stroke="midnightblue" points="1009.71,-172.118 1019.98,-174.753 1013.6,-166.294 1009.71,-172.118"/>
</g>
<!-- Node11 -->
<g id="node11" class="node"><title>Node11</title>
<g id="a_node11"><a xlink:href="a00207.html" target="_top" xlink:title="Helper functions for manipulating RMF files. ">
<polygon fill="none" stroke="black" points="644.11,-117 644.11,-137 699.583,-137 699.583,-117 644.11,-117"/>
<text text-anchor="middle" x="671.847" y="-123" font-family="Helvetica,sans-Serif" font-size="10.00">feature.h</text>
</a>
</g>
</g>
<!-- Node4&#45;&gt;Node11 -->
<g id="edge12" class="edge"><title>Node4&#45;&gt;Node11</title>
<path fill="none" stroke="midnightblue" d="M989.595,-179.489C926.777,-172.688 808.32,-158.401 708.847,-138 705.848,-137.385 702.733,-136.668 699.639,-135.906"/>
<polygon fill="midnightblue" stroke="midnightblue" points="989.609,-183.01 999.925,-180.593 990.354,-176.05 989.609,-183.01"/>
</g>
<!-- Node12 -->
<g id="node12" class="node"><title>Node12</title>
<g id="a_node12"><a xlink:href="a00239.html" target="_top" xlink:title="Helper functions for manipulating RMF files. ">
<polygon fill="none" stroke="black" points="997.771,-117 997.771,-137 1069.92,-137 1069.92,-117 997.771,-117"/>
<text text-anchor="middle" x="1033.85" y="-123" font-family="Helvetica,sans-Serif" font-size="10.00">publication.h</text>
</a>
</g>
</g>
<!-- Node4&#45;&gt;Node12 -->
<g id="edge15" class="edge"><title>Node4&#45;&gt;Node12</title>
<path fill="none" stroke="midnightblue" d="M1033.85,-164.707C1033.85,-155.338 1033.85,-144.526 1033.85,-137.075"/>
<polygon fill="midnightblue" stroke="midnightblue" points="1030.35,-164.753 1033.85,-174.753 1037.35,-164.753 1030.35,-164.753"/>
</g>
<!-- Node13 -->
<g id="node13" class="node"><title>Node13</title>
<g id="a_node13"><a xlink:href="a00248.html" target="_top" xlink:title="Helper functions for manipulating RMF files. ">
<polygon fill="none" stroke="black" points="1075.99,-59 1075.99,-79 1143.7,-79 1143.7,-59 1075.99,-59"/>
<text text-anchor="middle" x="1109.85" y="-65" font-family="Helvetica,sans-Serif" font-size="10.00">sequence.h</text>
</a>
</g>
</g>
<!-- Node4&#45;&gt;Node13 -->
<g id="edge17" class="edge"><title>Node4&#45;&gt;Node13</title>
<path fill="none" stroke="midnightblue" d="M1077.67,-179.534C1127.77,-173.419 1205.13,-160.544 1222.85,-138 1247.67,-106.405 1185.35,-86.1713 1143.71,-76.5705"/>
<polygon fill="midnightblue" stroke="midnightblue" points="1077.26,-176.058 1067.74,-180.703 1078.08,-183.011 1077.26,-176.058"/>
</g>
<!-- Node14 -->
<g id="node14" class="node"><title>Node14</title>
<g id="a_node14"><a xlink:href="a00250.html" target="_top" xlink:title="Helper functions for manipulating RMF files. ">
<polygon fill="none" stroke="black" points="1270.05,-117 1270.05,-137 1321.64,-137 1321.64,-117 1270.05,-117"/>
<text text-anchor="middle" x="1295.85" y="-123" font-family="Helvetica,sans-Serif" font-size="10.00">shape.h</text>
</a>
</g>
</g>
<!-- Node4&#45;&gt;Node14 -->
<g id="edge21" class="edge"><title>Node4&#45;&gt;Node14</title>
<path fill="none" stroke="midnightblue" d="M1077.77,-175.446C1122.64,-166.58 1194.26,-152.072 1255.85,-138 1260.31,-136.979 1265.05,-135.844 1269.63,-134.715"/>
<polygon fill="midnightblue" stroke="midnightblue" points="1076.92,-172.046 1067.79,-177.413 1078.28,-178.914 1076.92,-172.046"/>
</g>
<!-- Node15 -->
<g id="node15" class="node"><title>Node15</title>
<g id="a_node15"><a xlink:href="a00179.html" target="_top" xlink:title="Helper functions for manipulating RMF files. ">
<polygon fill="none" stroke="black" points="855.554,-117 855.554,-137 902.14,-137 902.14,-117 855.554,-117"/>
<text text-anchor="middle" x="878.847" y="-123" font-family="Helvetica,sans-Serif" font-size="10.00">bond.h</text>
</a>
</g>
</g>
<!-- Node4&#45;&gt;Node15 -->
<g id="edge24" class="edge"><title>Node4&#45;&gt;Node15</title>
<path fill="none" stroke="midnightblue" d="M999.091,-171.443C969.58,-160.781 928.034,-145.771 902.307,-136.476"/>
<polygon fill="midnightblue" stroke="midnightblue" points="998.004,-174.772 1008.6,-174.878 1000.38,-168.188 998.004,-174.772"/>
</g>
<!-- Node16 -->
<g id="node16" class="node"><title>Node16</title>
<g id="a_node16"><a xlink:href="a00244.html" target="_top" xlink:title="Helper functions for manipulating RMF files. ">
<polygon fill="none" stroke="black" points="1125.71,-117 1125.71,-137 1213.98,-137 1213.98,-117 1125.71,-117"/>
<text text-anchor="middle" x="1169.85" y="-123" font-family="Helvetica,sans-Serif" font-size="10.00">representation.h</text>
</a>
</g>
</g>
<!-- Node4&#45;&gt;Node16 -->
<g id="edge26" class="edge"><title>Node4&#45;&gt;Node16</title>
<path fill="none" stroke="midnightblue" d="M1065.49,-170.969C1090.71,-160.585 1125.38,-146.31 1147.7,-137.118"/>
<polygon fill="midnightblue" stroke="midnightblue" points="1063.91,-167.834 1056,-174.878 1066.58,-174.307 1063.91,-167.834"/>
</g>
<!-- Node17 -->
<g id="node17" class="node"><title>Node17</title>
<g id="a_node17"><a xlink:href="a00175.html" target="_top" xlink:title="Helper functions for manipulating RMF files. ">
<polygon fill="none" stroke="black" points="1378.11,-117 1378.11,-137 1453.59,-137 1453.59,-117 1378.11,-117"/>
<text text-anchor="middle" x="1415.85" y="-123" font-family="Helvetica,sans-Serif" font-size="10.00">alternatives.h</text>
</a>
</g>
</g>
<!-- Node4&#45;&gt;Node17 -->
<g id="edge28" class="edge"><title>Node4&#45;&gt;Node17</title>
<path fill="none" stroke="midnightblue" d="M1077.89,-177.543C1153.57,-166.448 1307,-143.956 1378.1,-133.533"/>
<polygon fill="midnightblue" stroke="midnightblue" points="1077.13,-174.117 1067.75,-179.03 1078.15,-181.043 1077.13,-174.117"/>
</g>
<!-- Node6 -->
<g id="node6" class="node"><title>Node6</title>
<g id="a_node6"><a xlink:href="a00199.html" target="_top" xlink:title="Import all the decorators headers. ">
<polygon fill="none" stroke="black" points="974.054,-1 974.054,-21 1045.64,-21 1045.64,-1 974.054,-1"/>
<text text-anchor="middle" x="1009.85" y="-7" font-family="Helvetica,sans-Serif" font-size="10.00">decorators.h</text>
</a>
</g>
</g>
<!-- Node5&#45;&gt;Node6 -->
<g id="edge5" class="edge"><title>Node5&#45;&gt;Node6</title>
<path fill="none" stroke="midnightblue" d="M739.944,-106.953C741.096,-91.5178 745.296,-70.368 758.847,-58 789.769,-29.7769 911.842,-18.1543 973.622,-14.0037"/>
<polygon fill="midnightblue" stroke="midnightblue" points="736.446,-106.847 739.554,-116.975 743.44,-107.119 736.446,-106.847"/>
</g>
<!-- Node5&#45;&gt;Node7 -->
<g id="edge6" class="edge"><title>Node5&#45;&gt;Node7</title>
<path fill="none" stroke="midnightblue" d="M756.434,-109.704C766.587,-99.7286 779.201,-87.3361 787.609,-79.0752"/>
<polygon fill="midnightblue" stroke="midnightblue" points="753.94,-107.248 749.259,-116.753 758.845,-112.241 753.94,-107.248"/>
</g>
<!-- Node7&#45;&gt;Node6 -->
<g id="edge7" class="edge"><title>Node7&#45;&gt;Node6</title>
<path fill="none" stroke="midnightblue" d="M835.925,-57.7259C875.847,-47.23 937.236,-31.0901 975.393,-21.0581"/>
<polygon fill="midnightblue" stroke="midnightblue" points="834.798,-54.4031 826.017,-60.3309 836.578,-61.1731 834.798,-54.4031"/>
</g>
<!-- Node8 -->
<g id="node8" class="node"><title>Node8</title>
<g id="a_node8"><a xlink:href="a00254.html" target="_top" xlink:title="Helper functions for manipulating RMF files. ">
<polygon fill="none" stroke="black" points="1269.68,-1 1269.68,-21 1362.02,-21 1362.02,-1 1269.68,-1"/>
<text text-anchor="middle" x="1315.85" y="-7" font-family="Helvetica,sans-Serif" font-size="10.00">TraverseHelper.h</text>
</a>
</g>
</g>
<!-- Node7&#45;&gt;Node8 -->
<g id="edge8" class="edge"><title>Node7&#45;&gt;Node8</title>
<path fill="none" stroke="midnightblue" d="M835.805,-63.7964C929.777,-53.6568 1168.58,-27.8896 1269.6,-16.9902"/>
<polygon fill="midnightblue" stroke="midnightblue" points="835.429,-60.3165 825.862,-64.8692 836.18,-67.2761 835.429,-60.3165"/>
</g>
<!-- Node7&#45;&gt;Node9 -->
<g id="edge9" class="edge"><title>Node7&#45;&gt;Node9</title>
<path fill="none" stroke="midnightblue" d="M757.824,-58.8182C713.457,-48.3789 641.477,-31.4424 597.333,-21.0557"/>
<polygon fill="midnightblue" stroke="midnightblue" points="757.127,-62.2498 767.663,-61.1333 758.731,-55.4359 757.127,-62.2498"/>
</g>
<!-- Node10&#45;&gt;Node6 -->
<g id="edge11" class="edge"><title>Node10&#45;&gt;Node6</title>
<path fill="none" stroke="midnightblue" d="M959.53,-107.602C972.545,-82.8733 995.184,-39.8584 1005.04,-21.1394"/>
<polygon fill="midnightblue" stroke="midnightblue" points="956.317,-106.192 954.757,-116.671 962.511,-109.452 956.317,-106.192"/>
</g>
<!-- Node11&#45;&gt;Node6 -->
<g id="edge13" class="edge"><title>Node11&#45;&gt;Node6</title>
<path fill="none" stroke="midnightblue" d="M684.533,-108.748C697.197,-92.8833 718.146,-70.0527 741.847,-58 818.011,-19.2683 920.446,-12.3106 973.929,-11.5581"/>
<polygon fill="midnightblue" stroke="midnightblue" points="681.713,-106.673 678.385,-116.732 687.259,-110.944 681.713,-106.673"/>
</g>
<!-- Node12&#45;&gt;Node6 -->
<g id="edge16" class="edge"><title>Node12&#45;&gt;Node6</title>
<path fill="none" stroke="midnightblue" d="M1029.76,-106.603C1024.53,-81.7305 1015.66,-39.6088 1011.77,-21.1394"/>
<polygon fill="midnightblue" stroke="midnightblue" points="1026.4,-107.606 1031.88,-116.671 1033.25,-106.164 1026.4,-107.606"/>
</g>
<!-- Node13&#45;&gt;Node6 -->
<g id="edge18" class="edge"><title>Node13&#45;&gt;Node6</title>
<path fill="none" stroke="midnightblue" d="M1084.6,-53.8627C1066.23,-43.5733 1041.89,-29.9436 1026.05,-21.0752"/>
<polygon fill="midnightblue" stroke="midnightblue" points="1082.9,-56.9204 1093.33,-58.7527 1086.32,-50.8129 1082.9,-56.9204"/>
</g>
<!-- Node13&#45;&gt;Node8 -->
<g id="edge19" class="edge"><title>Node13&#45;&gt;Node8</title>
<path fill="none" stroke="midnightblue" d="M1153.32,-56.1825C1191.92,-45.6881 1247.51,-30.5757 1282.65,-21.0253"/>
<polygon fill="midnightblue" stroke="midnightblue" points="1152.13,-52.8773 1143.4,-58.878 1153.97,-59.6321 1152.13,-52.8773"/>
</g>
<!-- Node13&#45;&gt;Node9 -->
<g id="edge20" class="edge"><title>Node13&#45;&gt;Node9</title>
<path fill="none" stroke="midnightblue" d="M1065.67,-63.5105C965.08,-53.2869 719.322,-28.3097 611.273,-17.3282"/>
<polygon fill="midnightblue" stroke="midnightblue" points="1065.49,-67.0101 1075.8,-64.5392 1066.2,-60.0459 1065.49,-67.0101"/>
</g>
<!-- Node14&#45;&gt;Node6 -->
<g id="edge22" class="edge"><title>Node14&#45;&gt;Node6</title>
<path fill="none" stroke="midnightblue" d="M1266.25,-112.692C1246.29,-103.639 1219.39,-91.2964 1195.85,-80 1176.13,-70.5414 1172.08,-66.2812 1151.85,-58 1115.15,-42.9825 1071.6,-29.4848 1042.49,-21.0543"/>
<polygon fill="midnightblue" stroke="midnightblue" points="1264.9,-115.921 1275.45,-116.854 1267.79,-109.543 1264.9,-115.921"/>
</g>
<!-- Node14&#45;&gt;Node8 -->
<g id="edge23" class="edge"><title>Node14&#45;&gt;Node8</title>
<path fill="none" stroke="midnightblue" d="M1299.25,-106.603C1303.61,-81.7305 1311,-39.6088 1314.24,-21.1394"/>
<polygon fill="midnightblue" stroke="midnightblue" points="1295.76,-106.217 1297.48,-116.671 1302.66,-107.426 1295.76,-106.217"/>
</g>
<!-- Node15&#45;&gt;Node6 -->
<g id="edge25" class="edge"><title>Node15&#45;&gt;Node6</title>
<path fill="none" stroke="midnightblue" d="M897.398,-109.856C925.302,-85.5733 977.165,-40.4407 999.344,-21.1394"/>
<polygon fill="midnightblue" stroke="midnightblue" points="894.813,-107.466 889.567,-116.671 899.408,-112.746 894.813,-107.466"/>
</g>
<!-- Node16&#45;&gt;Node6 -->
<g id="edge27" class="edge"><title>Node16&#45;&gt;Node6</title>
<path fill="none" stroke="midnightblue" d="M1130.84,-113.384C1110.56,-105.679 1086.06,-94.4999 1066.85,-80 1044.22,-62.9233 1024.68,-35.2654 1015.47,-21.0587"/>
<polygon fill="midnightblue" stroke="midnightblue" points="1129.83,-116.739 1140.42,-116.887 1132.23,-110.165 1129.83,-116.739"/>
</g>
<!-- Node17&#45;&gt;Node6 -->
<g id="edge29" class="edge"><title>Node17&#45;&gt;Node6</title>
<path fill="none" stroke="midnightblue" d="M1367.83,-115.629C1321.21,-105.302 1253.92,-89.6356 1228.85,-80 1209.54,-72.5828 1207.11,-65.53 1187.85,-58 1140.14,-39.3466 1082.28,-26.0016 1045.76,-18.6408"/>
<polygon fill="midnightblue" stroke="midnightblue" points="1367.21,-119.077 1377.73,-117.812 1368.72,-112.242 1367.21,-119.077"/>
</g>
<!-- Node17&#45;&gt;Node8 -->
<g id="edge30" class="edge"><title>Node17&#45;&gt;Node8</title>
<path fill="none" stroke="midnightblue" d="M1400.85,-108.904C1379.36,-84.4104 1340.58,-40.1911 1323.86,-21.1394"/>
<polygon fill="midnightblue" stroke="midnightblue" points="1398.44,-111.461 1407.66,-116.671 1403.7,-106.845 1398.44,-111.461"/>
</g>
<!-- Node18&#45;&gt;Node4 -->
<g id="edge32" class="edge"><title>Node18&#45;&gt;Node4</title>
<path fill="none" stroke="midnightblue" d="M959.092,-227.863C977.466,-217.573 1001.8,-203.944 1017.64,-195.075"/>
<polygon fill="midnightblue" stroke="midnightblue" points="957.375,-224.813 950.36,-232.753 960.795,-230.92 957.375,-224.813"/>
</g>
<!-- Node18&#45;&gt;Node5 -->
<g id="edge33" class="edge"><title>Node18&#45;&gt;Node5</title>
<path fill="none" stroke="midnightblue" d="M883.551,-235.528C852.357,-229.474 812.843,-217.907 783.847,-196 763.203,-180.403 749.504,-152.098 743.432,-137.41"/>
<polygon fill="midnightblue" stroke="midnightblue" points="883.32,-239.043 893.783,-237.377 884.565,-232.155 883.32,-239.043"/>
</g>
<!-- Node18&#45;&gt;Node7 -->
<g id="edge49" class="edge"><title>Node18&#45;&gt;Node7</title>
<path fill="none" stroke="midnightblue" d="M883.952,-233.307C831.097,-223.711 751.411,-208.033 722.847,-196 679.679,-177.815 657.058,-179.241 634.847,-138 606.86,-86.0354 713.736,-73.7767 767.589,-70.8883"/>
<polygon fill="midnightblue" stroke="midnightblue" points="883.354,-236.755 893.817,-235.084 884.595,-229.866 883.354,-236.755"/>
</g>
<!-- Node18&#45;&gt;Node9 -->
<g id="edge59" class="edge"><title>Node18&#45;&gt;Node9</title>
<path fill="none" stroke="midnightblue" d="M883.5,-234.219C808.318,-222.482 674.449,-201.074 664.847,-196 606.669,-165.256 597.209,-141.126 572.847,-80 564.814,-59.8461 561.156,-34.4155 559.692,-21.0923"/>
<polygon fill="midnightblue" stroke="midnightblue" points="883.281,-237.727 893.7,-235.809 884.359,-230.811 883.281,-237.727"/>
</g>
<!-- Node18&#45;&gt;Node10 -->
<g id="edge47" class="edge"><title>Node18&#45;&gt;Node10</title>
<path fill="none" stroke="midnightblue" d="M936.569,-222.603C940.06,-197.731 945.972,-155.609 948.564,-137.139"/>
<polygon fill="midnightblue" stroke="midnightblue" points="933.08,-222.281 935.156,-232.671 940.012,-223.254 933.08,-222.281"/>
</g>
<!-- Node18&#45;&gt;Node11 -->
<g id="edge48" class="edge"><title>Node18&#45;&gt;Node11</title>
<path fill="none" stroke="midnightblue" d="M883.66,-234.055C848.098,-227.155 799.953,-215.188 760.847,-196 728.726,-180.239 696.801,-152.006 681.384,-137.371"/>
<polygon fill="midnightblue" stroke="midnightblue" points="883.33,-237.554 893.803,-235.952 884.617,-230.673 883.33,-237.554"/>
</g>
<!-- Node18&#45;&gt;Node12 -->
<g id="edge50" class="edge"><title>Node18&#45;&gt;Node12</title>
<path fill="none" stroke="midnightblue" d="M947.789,-224.851C959.178,-210.969 975.794,-191.001 990.847,-174 1002.44,-160.904 1016.34,-146.209 1025.13,-137.03"/>
<polygon fill="midnightblue" stroke="midnightblue" points="945.053,-222.668 941.435,-232.626 950.473,-227.098 945.053,-222.668"/>
</g>
<!-- Node18&#45;&gt;Node13 -->
<g id="edge51" class="edge"><title>Node18&#45;&gt;Node13</title>
<path fill="none" stroke="midnightblue" d="M984.178,-236.603C1081.46,-224.994 1289.3,-194.055 1329.85,-138 1335.58,-130.078 1336.01,-123.589 1329.85,-116 1318.16,-101.615 1202.63,-83.2441 1143.84,-74.7276"/>
<polygon fill="midnightblue" stroke="midnightblue" points="983.523,-233.156 973.998,-237.795 984.337,-240.108 983.523,-233.156"/>
</g>
<!-- Node18&#45;&gt;Node14 -->
<g id="edge52" class="edge"><title>Node18&#45;&gt;Node14</title>
<path fill="none" stroke="midnightblue" d="M981.785,-230.542C1016.92,-221.851 1065.64,-209.185 1107.85,-196 1168.14,-177.166 1237.73,-150.742 1272.92,-137.04"/>
<polygon fill="midnightblue" stroke="midnightblue" points="980.674,-227.211 971.798,-232.996 982.344,-234.008 980.674,-227.211"/>
</g>
<!-- Node18&#45;&gt;Node15 -->
<g id="edge53" class="edge"><title>Node18&#45;&gt;Node15</title>
<path fill="none" stroke="midnightblue" d="M924.971,-223.602C913.04,-198.873 892.287,-155.858 883.256,-137.139"/>
<polygon fill="midnightblue" stroke="midnightblue" points="921.848,-225.185 929.346,-232.671 928.153,-222.143 921.848,-225.185"/>
</g>
<!-- Node18&#45;&gt;Node16 -->
<g id="edge54" class="edge"><title>Node18&#45;&gt;Node16</title>
<path fill="none" stroke="midnightblue" d="M982.5,-230.307C1010.63,-222.56 1046.21,-211.045 1075.85,-196 1108.89,-179.223 1143,-151.434 1159.56,-137.13"/>
<polygon fill="midnightblue" stroke="midnightblue" points="981.249,-227.019 972.497,-232.99 983.062,-233.78 981.249,-227.019"/>
</g>
<!-- Node18&#45;&gt;Node17 -->
<g id="edge55" class="edge"><title>Node18&#45;&gt;Node17</title>
<path fill="none" stroke="midnightblue" d="M984.073,-241.53C1083.2,-239.816 1299.93,-231.942 1363.85,-196 1387.94,-182.451 1404.47,-152.694 1411.71,-137.433"/>
<polygon fill="midnightblue" stroke="midnightblue" points="983.946,-238.031 974.002,-241.69 984.057,-245.03 983.946,-238.031"/>
</g>
<!-- Node19 -->
<g id="node19" class="node"><title>Node19</title>
<g id="a_node19"><a xlink:href="a00211.html" target="_top" xlink:title="Handle read/write of Model data from/to files. ">
<polygon fill="none" stroke="black" points="792.775,-175 792.775,-195 864.918,-195 864.918,-175 792.775,-175"/>
<text text-anchor="middle" x="828.847" y="-181" font-family="Helvetica,sans-Serif" font-size="10.00">FileHandle.h</text>
</a>
</g>
</g>
<!-- Node18&#45;&gt;Node19 -->
<g id="edge34" class="edge"><title>Node18&#45;&gt;Node19</title>
<path fill="none" stroke="midnightblue" d="M907.603,-228.003C888.28,-217.698 862.567,-203.984 845.863,-195.075"/>
<polygon fill="midnightblue" stroke="midnightblue" points="906.037,-231.135 916.508,-232.753 909.332,-224.959 906.037,-231.135"/>
</g>
<!-- Node21 -->
<g id="node21" class="node"><title>Node21</title>
<g id="a_node21"><a xlink:href="a00222.html" target="_top" xlink:title="Helper functions for manipulating RMF files. ">
<polygon fill="none" stroke="black" points="1436.44,-175 1436.44,-195 1485.25,-195 1485.25,-175 1436.44,-175"/>
<text text-anchor="middle" x="1460.85" y="-181" font-family="Helvetica,sans-Serif" font-size="10.00">Label.h</text>
</a>
</g>
</g>
<!-- Node18&#45;&gt;Node21 -->
<g id="edge56" class="edge"><title>Node18&#45;&gt;Node21</title>
<path fill="none" stroke="midnightblue" d="M984.143,-238.681C1071.04,-232.601 1254.79,-218.222 1408.85,-196 1417.85,-194.701 1427.67,-192.911 1436.33,-191.204"/>
<polygon fill="midnightblue" stroke="midnightblue" points="983.768,-235.199 974.034,-239.382 984.252,-242.182 983.768,-235.199"/>
</g>
<!-- Node19&#45;&gt;Node5 -->
<g id="edge35" class="edge"><title>Node19&#45;&gt;Node5</title>
<path fill="none" stroke="midnightblue" d="M805.25,-169.153C789.041,-158.953 768.042,-145.741 754.27,-137.075"/>
<polygon fill="midnightblue" stroke="midnightblue" points="803.822,-172.389 814.15,-174.753 807.55,-166.465 803.822,-172.389"/>
</g>
<!-- Node19&#45;&gt;Node7 -->
<g id="edge38" class="edge"><title>Node19&#45;&gt;Node7</title>
<path fill="none" stroke="midnightblue" d="M822.454,-165.403C819.672,-157.065 816.459,-147.082 813.847,-138 807.859,-117.184 801.979,-92.4397 798.952,-79.2939"/>
<polygon fill="midnightblue" stroke="midnightblue" points="819.145,-166.546 825.668,-174.894 825.775,-164.3 819.145,-166.546"/>
</g>
<!-- Node19&#45;&gt;Node9 -->
<g id="edge46" class="edge"><title>Node19&#45;&gt;Node9</title>
<path fill="none" stroke="midnightblue" d="M782.486,-182.951C740.325,-179.846 678.242,-169.669 634.847,-138 592.544,-107.128 569.257,-44.902 561.657,-21.3339"/>
<polygon fill="midnightblue" stroke="midnightblue" points="782.286,-186.445 792.487,-183.582 782.728,-179.459 782.286,-186.445"/>
</g>
<!-- Node19&#45;&gt;Node10 -->
<g id="edge36" class="edge"><title>Node19&#45;&gt;Node10</title>
<path fill="none" stroke="midnightblue" d="M857.9,-170.554C880.257,-160.207 910.548,-146.188 930.145,-137.118"/>
<polygon fill="midnightblue" stroke="midnightblue" points="856.162,-167.502 848.557,-174.878 859.102,-173.854 856.162,-167.502"/>
</g>
<!-- Node19&#45;&gt;Node11 -->
<g id="edge37" class="edge"><title>Node19&#45;&gt;Node11</title>
<path fill="none" stroke="midnightblue" d="M793.82,-171.506C764.498,-161.048 723.355,-146.373 697.15,-137.025"/>
<polygon fill="midnightblue" stroke="midnightblue" points="792.678,-174.815 803.273,-174.878 795.03,-168.222 792.678,-174.815"/>
</g>
<!-- Node19&#45;&gt;Node12 -->
<g id="edge39" class="edge"><title>Node19&#45;&gt;Node12</title>
<path fill="none" stroke="midnightblue" d="M872.107,-172.183C910.524,-161.688 965.846,-146.576 1000.81,-137.025"/>
<polygon fill="midnightblue" stroke="midnightblue" points="870.964,-168.866 862.24,-174.878 872.809,-175.619 870.964,-168.866"/>
</g>
<!-- Node19&#45;&gt;Node13 -->
<g id="edge40" class="edge"><title>Node19&#45;&gt;Node13</title>
<path fill="none" stroke="midnightblue" d="M828.614,-164.949C829.508,-149.511 833.381,-128.36 846.847,-116 879.801,-85.7533 1012.55,-74.9677 1075.89,-71.491"/>
<polygon fill="midnightblue" stroke="midnightblue" points="825.114,-164.899 828.395,-174.973 832.112,-165.052 825.114,-164.899"/>
</g>
<!-- Node19&#45;&gt;Node14 -->
<g id="edge41" class="edge"><title>Node19&#45;&gt;Node14</title>
<path fill="none" stroke="midnightblue" d="M875.325,-178.877C949.055,-170.682 1097.33,-153.922 1222.85,-138 1238.46,-136.02 1255.92,-133.634 1269.85,-131.689"/>
<polygon fill="midnightblue" stroke="midnightblue" points="874.553,-175.441 865,-180.023 875.325,-182.398 874.553,-175.441"/>
</g>
<!-- Node19&#45;&gt;Node15 -->
<g id="edge42" class="edge"><title>Node19&#45;&gt;Node15</title>
<path fill="none" stroke="midnightblue" d="M843.923,-167.114C852.736,-157.244 863.513,-145.174 870.744,-137.075"/>
<polygon fill="midnightblue" stroke="midnightblue" points="841.153,-164.962 837.103,-174.753 846.374,-169.624 841.153,-164.962"/>
</g>
<!-- Node19&#45;&gt;Node16 -->
<g id="edge43" class="edge"><title>Node19&#45;&gt;Node16</title>
<path fill="none" stroke="midnightblue" d="M875.098,-176.405C940.902,-165.598 1060.73,-145.919 1125.48,-135.285"/>
<polygon fill="midnightblue" stroke="midnightblue" points="874.317,-172.986 865.017,-178.06 875.452,-179.893 874.317,-172.986"/>
</g>
<!-- Node19&#45;&gt;Node17 -->
<g id="edge44" class="edge"><title>Node19&#45;&gt;Node17</title>
<path fill="none" stroke="midnightblue" d="M874.991,-180.139C963.345,-172.663 1162.5,-155.409 1329.85,-138 1345.54,-136.367 1362.83,-134.391 1377.77,-132.629"/>
<polygon fill="midnightblue" stroke="midnightblue" points="874.697,-176.651 865.027,-180.98 875.286,-183.627 874.697,-176.651"/>
</g>
<!-- Node19&#45;&gt;Node20 -->
<g id="edge45" class="edge"><title>Node19&#45;&gt;Node20</title>
<path fill="none" stroke="midnightblue" d="M782.333,-180.48C643.07,-169.941 232.055,-138.837 118.313,-130.23"/>
<polygon fill="midnightblue" stroke="midnightblue" points="782.418,-183.996 792.654,-181.261 782.947,-177.016 782.418,-183.996"/>
</g>
<!-- Node22 -->
<g id="node22" class="node"><title>Node22</title>
<g id="a_node22"><a xlink:href="a00223.html" target="_top" xlink:title="Helper functions for manipulating RMF files. ">
<polygon fill="none" stroke="black" points="1237.61,-59 1237.61,-79 1288.08,-79 1288.08,-59 1237.61,-59"/>
<text text-anchor="middle" x="1262.85" y="-65" font-family="Helvetica,sans-Serif" font-size="10.00">labels.h</text>
</a>
</g>
</g>
<!-- Node21&#45;&gt;Node22 -->
<g id="edge57" class="edge"><title>Node21&#45;&gt;Node22</title>
<path fill="none" stroke="midnightblue" d="M1467.03,-165.225C1470.69,-150.285 1472.73,-129.683 1461.85,-116 1440.44,-89.0786 1337.2,-76.5431 1288.44,-72.0503"/>
<polygon fill="midnightblue" stroke="midnightblue" points="1463.64,-164.346 1464.25,-174.924 1470.37,-166.278 1463.64,-164.346"/>
</g>
<!-- Node22&#45;&gt;Node6 -->
<g id="edge58" class="edge"><title>Node22&#45;&gt;Node6</title>
<path fill="none" stroke="midnightblue" d="M1227.57,-58.8895C1226.32,-58.5859 1225.07,-58.2885 1223.85,-58 1161.52,-43.3168 1088.53,-28.034 1045.91,-19.3022"/>
<polygon fill="midnightblue" stroke="midnightblue" points="1226.74,-62.2888 1237.29,-61.2936 1228.42,-55.4938 1226.74,-62.2888"/>
</g>
<!-- Node23&#45;&gt;Node9 -->
<g id="edge67" class="edge"><title>Node23&#45;&gt;Node9</title>
<path fill="none" stroke="midnightblue" d="M208.268,-228.996C180.649,-216.789 149.438,-196.996 164.847,-174 242.245,-58.4904 418.452,-25.2679 506.6,-15.7683"/>
<polygon fill="midnightblue" stroke="midnightblue" points="207.229,-232.356 217.805,-232.991 209.934,-225.899 207.229,-232.356"/>
</g>
<!-- Node23&#45;&gt;Node19 -->
<g id="edge61" class="edge"><title>Node23&#45;&gt;Node19</title>
<path fill="none" stroke="midnightblue" d="M303.388,-236.3C424.141,-224.741 694.678,-198.843 792.595,-189.47"/>
<polygon fill="midnightblue" stroke="midnightblue" points="302.84,-232.837 293.219,-237.274 303.507,-239.805 302.84,-232.837"/>
</g>
<!-- Node23&#45;&gt;Node20 -->
<g id="edge66" class="edge"><title>Node23&#45;&gt;Node20</title>
<path fill="none" stroke="midnightblue" d="M196.864,-229.879C175.357,-222.63 150.556,-211.705 131.847,-196 112.162,-179.476 98.5601,-151.576 92.4662,-137.19"/>
<polygon fill="midnightblue" stroke="midnightblue" points="195.89,-233.242 206.481,-232.955 198.022,-226.575 195.89,-233.242"/>
</g>
<!-- Node24 -->
<g id="node24" class="node"><title>Node24</title>
<g id="a_node24"><a xlink:href="a00218.html" target="_top" xlink:title="Helper functions for manipulating RMF files. ">
<polygon fill="none" stroke="black" points="173.615,-175 173.615,-195 214.078,-195 214.078,-175 173.615,-175"/>
<text text-anchor="middle" x="193.847" y="-181" font-family="Helvetica,sans-Serif" font-size="10.00">info.h</text>
</a>
</g>
</g>
<!-- Node23&#45;&gt;Node24 -->
<g id="edge62" class="edge"><title>Node23&#45;&gt;Node24</title>
<path fill="none" stroke="midnightblue" d="M228.77,-225.114C219.958,-215.244 209.181,-203.174 201.95,-195.075"/>
<polygon fill="midnightblue" stroke="midnightblue" points="226.319,-227.624 235.59,-232.753 231.541,-222.962 226.319,-227.624"/>
</g>
<!-- Node25 -->
<g id="node25" class="node"><title>Node25</title>
<g id="a_node25"><a xlink:href="a00245.html" target="_top" xlink:title="Handle read/write of Model data from/to files. ">
<polygon fill="none" stroke="black" points="232.051,-175 232.051,-195 353.642,-195 353.642,-175 232.051,-175"/>
<text text-anchor="middle" x="292.847" y="-181" font-family="Helvetica,sans-Serif" font-size="10.00">RestoreCurrentFrame.h</text>
</a>
</g>
</g>
<!-- Node23&#45;&gt;Node25 -->
<g id="edge63" class="edge"><title>Node23&#45;&gt;Node25</title>
<path fill="none" stroke="midnightblue" d="M258.622,-225.114C267.258,-215.244 277.819,-203.174 284.906,-195.075"/>
<polygon fill="midnightblue" stroke="midnightblue" points="255.889,-222.922 251.938,-232.753 261.157,-227.532 255.889,-222.922"/>
</g>
<!-- Node26 -->
<g id="node26" class="node"><title>Node26</title>
<g id="a_node26"><a xlink:href="a00249.html" target="_top" xlink:title="Handle read/write of Model data from/to files. ">
<polygon fill="none" stroke="black" points="372.054,-175 372.054,-195 473.64,-195 473.64,-175 372.054,-175"/>
<text text-anchor="middle" x="422.847" y="-181" font-family="Helvetica,sans-Serif" font-size="10.00">SetCurrentFrame.h</text>
</a>
</g>
</g>
<!-- Node23&#45;&gt;Node26 -->
<g id="edge64" class="edge"><title>Node23&#45;&gt;Node26</title>
<path fill="none" stroke="midnightblue" d="M282.912,-229.778C316.396,-219.303 363.86,-204.454 393.998,-195.025"/>
<polygon fill="midnightblue" stroke="midnightblue" points="281.503,-226.552 273.005,-232.878 283.593,-233.232 281.503,-226.552"/>
</g>
<!-- Node27 -->
<g id="node27" class="node"><title>Node27</title>
<g id="a_node27"><a xlink:href="a00252.html" target="_top" xlink:title="Helper functions for manipulating RMF files. ">
<polygon fill="none" stroke="black" points="14.1079,-175 14.1079,-195 79.5855,-195 79.5855,-175 14.1079,-175"/>
<text text-anchor="middle" x="46.8467" y="-181" font-family="Helvetica,sans-Serif" font-size="10.00">signature.h</text>
</a>
</g>
</g>
<!-- Node23&#45;&gt;Node27 -->
<g id="edge65" class="edge"><title>Node23&#45;&gt;Node27</title>
<path fill="none" stroke="midnightblue" d="M201.802,-230.048C164.905,-219.56 112.05,-204.535 78.5964,-195.025"/>
<polygon fill="midnightblue" stroke="midnightblue" points="201.181,-233.51 211.757,-232.878 203.095,-226.777 201.181,-233.51"/>
</g>
<!-- Node29&#45;&gt;Node3 -->
<g id="edge72" class="edge"><title>Node29&#45;&gt;Node3</title>
<path fill="none" stroke="midnightblue" d="M908.349,-343.863C889.791,-333.573 865.209,-319.944 849.214,-311.075"/>
<polygon fill="midnightblue" stroke="midnightblue" points="906.726,-346.965 917.169,-348.753 910.12,-340.843 906.726,-346.965"/>
</g>
<!-- Node29&#45;&gt;Node8 -->
<g id="edge74" class="edge"><title>Node29&#45;&gt;Node8</title>
<path fill="none" stroke="midnightblue" d="M974.255,-358.739C1106.79,-360.094 1519.85,-355.38 1519.85,-244 1519.85,-244 1519.85,-244 1519.85,-126 1519.85,-54.1884 1422.33,-27.1819 1362.14,-17.3525"/>
<polygon fill="midnightblue" stroke="midnightblue" points="974.16,-355.238 964.119,-358.618 974.076,-362.237 974.16,-355.238"/>
</g>
<!-- Node29&#45;&gt;Node18 -->
<g id="edge73" class="edge"><title>Node29&#45;&gt;Node18</title>
<path fill="none" stroke="midnightblue" d="M933.847,-338.603C933.847,-313.731 933.847,-271.609 933.847,-253.139"/>
<polygon fill="midnightblue" stroke="midnightblue" points="930.347,-338.671 933.847,-348.671 937.347,-338.671 930.347,-338.671"/>
</g>
</g>
</svg>
