<?xml version="1.0" encoding="UTF-8" standalone="no"?>
<!DOCTYPE svg PUBLIC "-//W3C//DTD SVG 1.1//EN"
 "http://www.w3.org/Graphics/SVG/1.1/DTD/svg11.dtd">
<!-- Generated by graphviz version 2.34.0 (20131025.1349)
 -->
<!-- Title: shape.h Pages: 1 -->
<svg width="189pt" height="88pt"
 viewBox="0.00 0.00 189.00 88.00" xmlns="http://www.w3.org/2000/svg" xmlns:xlink="http://www.w3.org/1999/xlink">
<g id="graph0" class="graph" transform="scale(1 1) rotate(0) translate(4 84)">
<title>shape.h</title>
<!-- Node1 -->
<g id="node1" class="node"><title>Node1</title>
<polygon fill="#bfbfbf" stroke="black" points="59.207,-59 59.207,-79 110.793,-79 110.793,-59 59.207,-59"/>
<text text-anchor="middle" x="85" y="-65" font-family="Helvetica,sans-Serif" font-size="10.00">shape.h</text>
</g>
<!-- Node2 -->
<g id="node2" class="node"><title>Node2</title>
<g id="a_node2"><a xlink:href="a00199.html" target="_top" xlink:title="Import all the decorators headers. ">
<polygon fill="none" stroke="black" points="-0.792969,-1 -0.792969,-21 70.793,-21 70.793,-1 -0.792969,-1"/>
<text text-anchor="middle" x="35" y="-7" font-family="Helvetica,sans-Serif" font-size="10.00">decorators.h</text>
</a>
</g>
</g>
<!-- Node1&#45;&gt;Node2 -->
<g id="edge1" class="edge"><title>Node1&#45;&gt;Node2</title>
<path fill="none" stroke="midnightblue" d="M69.9237,-51.1145C61.1109,-41.2442 50.3341,-29.1742 43.1028,-21.0752"/>
<polygon fill="midnightblue" stroke="midnightblue" points="67.4725,-53.6244 76.7435,-58.7527 72.6941,-48.9623 67.4725,-53.6244"/>
</g>
<!-- Node3 -->
<g id="node3" class="node"><title>Node3</title>
<g id="a_node3"><a xlink:href="a00254.html" target="_top" xlink:title="Helper functions for manipulating RMF files. ">
<polygon fill="none" stroke="black" points="88.8311,-1 88.8311,-21 181.169,-21 181.169,-1 88.8311,-1"/>
<text text-anchor="middle" x="135" y="-7" font-family="Helvetica,sans-Serif" font-size="10.00">TraverseHelper.h</text>
</a>
</g>
</g>
<!-- Node1&#45;&gt;Node3 -->
<g id="edge2" class="edge"><title>Node1&#45;&gt;Node3</title>
<path fill="none" stroke="midnightblue" d="M100.076,-51.1145C108.889,-41.2442 119.666,-29.1742 126.897,-21.0752"/>
<polygon fill="midnightblue" stroke="midnightblue" points="97.3059,-48.9623 93.2565,-58.7527 102.527,-53.6244 97.3059,-48.9623"/>
</g>
</g>
</svg>
