<?xml version="1.0" encoding="UTF-8" standalone="no"?>
<!DOCTYPE svg PUBLIC "-//W3C//DTD SVG 1.1//EN"
 "http://www.w3.org/Graphics/SVG/1.1/DTD/svg11.dtd">
<!-- Generated by graphviz version 2.34.0 (20131025.1349)
 -->
<!-- Title: FileHandle.h Pages: 1 -->
<svg width="769pt" height="204pt"
 viewBox="0.00 0.00 769.00 204.00" xmlns="http://www.w3.org/2000/svg" xmlns:xlink="http://www.w3.org/1999/xlink">
<g id="graph0" class="graph" transform="scale(1 1) rotate(0) translate(4 200)">
<title>FileHandle.h</title>
<!-- Node1 -->
<g id="node1" class="node"><title>Node1</title>
<polygon fill="#bfbfbf" stroke="black" points="347.929,-175 347.929,-195 420.071,-195 420.071,-175 347.929,-175"/>
<text text-anchor="middle" x="384" y="-181" font-family="Helvetica,sans-Serif" font-size="10.00">FileHandle.h</text>
</g>
<!-- Node2 -->
<g id="node2" class="node"><title>Node2</title>
<g id="a_node2"><a xlink:href="a00173.html" target="_top" xlink:title="Helper functions for manipulating RMF files. ">
<polygon fill="none" stroke="black" points="336.547,-117 336.547,-137 381.453,-137 381.453,-117 336.547,-117"/>
<text text-anchor="middle" x="359" y="-123" font-family="Helvetica,sans-Serif" font-size="10.00">alias.h</text>
</a>
</g>
</g>
<!-- Node1&#45;&gt;Node2 -->
<g id="edge1" class="edge"><title>Node1&#45;&gt;Node2</title>
<path fill="none" stroke="midnightblue" d="M375.794,-165.618C371.521,-156.047 366.486,-144.769 363.051,-137.075"/>
<polygon fill="midnightblue" stroke="midnightblue" points="372.599,-167.048 379.872,-174.753 378.991,-164.195 372.599,-167.048"/>
</g>
<!-- Node4 -->
<g id="node4" class="node"><title>Node4</title>
<g id="a_node4"><a xlink:href="a00237.html" target="_top" xlink:title="Helper functions for manipulating RMF files. ">
<polygon fill="none" stroke="black" points="503.158,-59 503.158,-79 560.842,-79 560.842,-59 503.158,-59"/>
<text text-anchor="middle" x="532" y="-65" font-family="Helvetica,sans-Serif" font-size="10.00">physics.h</text>
</a>
</g>
</g>
<!-- Node1&#45;&gt;Node4 -->
<g id="edge11" class="edge"><title>Node1&#45;&gt;Node4</title>
<path fill="none" stroke="midnightblue" d="M403.863,-168.7C435.085,-144.65 494.701,-98.7303 520.082,-79.1799"/>
<polygon fill="midnightblue" stroke="midnightblue" points="401.648,-165.988 395.861,-174.864 405.919,-171.534 401.648,-165.988"/>
</g>
<!-- Node6 -->
<g id="node6" class="node"><title>Node6</title>
<g id="a_node6"><a xlink:href="a00177_source.html" target="_top" xlink:title="benchmark_rmf.cpp">
<polygon fill="none" stroke="black" points="560.815,-1 560.815,-21 665.185,-21 665.185,-1 560.815,-1"/>
<text text-anchor="middle" x="613" y="-7" font-family="Helvetica,sans-Serif" font-size="10.00">benchmark_rmf.cpp</text>
</a>
</g>
</g>
<!-- Node1&#45;&gt;Node6 -->
<g id="edge29" class="edge"><title>Node1&#45;&gt;Node6</title>
<path fill="none" stroke="midnightblue" d="M430.627,-181.617C493.987,-175.562 605.09,-154.299 655,-80 668.85,-59.3822 642.798,-34.3514 625.872,-21.1591"/>
<polygon fill="midnightblue" stroke="midnightblue" points="430.169,-178.144 420.508,-182.494 430.773,-185.118 430.169,-178.144"/>
</g>
<!-- Node7 -->
<g id="node7" class="node"><title>Node7</title>
<g id="a_node7"><a xlink:href="a00205.html" target="_top" xlink:title="Helper functions for manipulating RMF files. ">
<polygon fill="none" stroke="black" points="111.042,-59 111.042,-79 170.958,-79 170.958,-59 111.042,-59"/>
<text text-anchor="middle" x="141" y="-65" font-family="Helvetica,sans-Serif" font-size="10.00">external.h</text>
</a>
</g>
</g>
<!-- Node1&#45;&gt;Node7 -->
<g id="edge7" class="edge"><title>Node1&#45;&gt;Node7</title>
<path fill="none" stroke="midnightblue" d="M337.615,-176.419C303.855,-169.618 257.8,-157.618 221,-138 191.403,-122.222 163.023,-93.9959 149.401,-79.3668"/>
<polygon fill="midnightblue" stroke="midnightblue" points="337.19,-179.902 347.673,-178.365 338.52,-173.029 337.19,-179.902"/>
</g>
<!-- Node8 -->
<g id="node8" class="node"><title>Node8</title>
<g id="a_node8"><a xlink:href="a00207.html" target="_top" xlink:title="Helper functions for manipulating RMF files. ">
<polygon fill="none" stroke="black" points="189.264,-59 189.264,-79 244.736,-79 244.736,-59 189.264,-59"/>
<text text-anchor="middle" x="217" y="-65" font-family="Helvetica,sans-Serif" font-size="10.00">feature.h</text>
</a>
</g>
</g>
<!-- Node1&#45;&gt;Node8 -->
<g id="edge9" class="edge"><title>Node1&#45;&gt;Node8</title>
<path fill="none" stroke="midnightblue" d="M337.499,-180.748C305.201,-176.076 263.387,-164.845 237,-138 221.128,-121.852 217.74,-93.788 217.09,-79.2791"/>
<polygon fill="midnightblue" stroke="midnightblue" points="337.255,-184.245 347.619,-182.045 338.145,-177.302 337.255,-184.245"/>
</g>
<!-- Node9 -->
<g id="node9" class="node"><title>Node9</title>
<g id="a_node9"><a xlink:href="a00239.html" target="_top" xlink:title="Helper functions for manipulating RMF files. ">
<polygon fill="none" stroke="black" points="245.924,-117 245.924,-137 318.076,-137 318.076,-117 245.924,-117"/>
<text text-anchor="middle" x="282" y="-123" font-family="Helvetica,sans-Serif" font-size="10.00">publication.h</text>
</a>
</g>
</g>
<!-- Node1&#45;&gt;Node9 -->
<g id="edge12" class="edge"><title>Node1&#45;&gt;Node9</title>
<path fill="none" stroke="midnightblue" d="M358.25,-169.863C339.509,-159.573 314.683,-145.944 298.53,-137.075"/>
<polygon fill="midnightblue" stroke="midnightblue" points="356.707,-173.008 367.157,-174.753 360.075,-166.872 356.707,-173.008"/>
</g>
<!-- Node10 -->
<g id="node10" class="node"><title>Node10</title>
<g id="a_node10"><a xlink:href="a00248.html" target="_top" xlink:title="Helper functions for manipulating RMF files. ">
<polygon fill="none" stroke="black" points="579.146,-59 579.146,-79 646.854,-79 646.854,-59 579.146,-59"/>
<text text-anchor="middle" x="613" y="-65" font-family="Helvetica,sans-Serif" font-size="10.00">sequence.h</text>
</a>
</g>
</g>
<!-- Node1&#45;&gt;Node10 -->
<g id="edge14" class="edge"><title>Node1&#45;&gt;Node10</title>
<path fill="none" stroke="midnightblue" d="M411.425,-170.347C458.837,-146.745 554.878,-98.9342 594.878,-79.0217"/>
<polygon fill="midnightblue" stroke="midnightblue" points="409.745,-167.274 402.353,-174.864 412.865,-173.54 409.745,-167.274"/>
</g>
<!-- Node11 -->
<g id="node11" class="node"><title>Node11</title>
<g id="a_node11"><a xlink:href="a00250.html" target="_top" xlink:title="Helper functions for manipulating RMF files. ">
<polygon fill="none" stroke="black" points="339.207,-59 339.207,-79 390.793,-79 390.793,-59 339.207,-59"/>
<text text-anchor="middle" x="365" y="-65" font-family="Helvetica,sans-Serif" font-size="10.00">shape.h</text>
</a>
</g>
</g>
<!-- Node1&#45;&gt;Node11 -->
<g id="edge18" class="edge"><title>Node1&#45;&gt;Node11</title>
<path fill="none" stroke="midnightblue" d="M389.07,-164.806C391.896,-151.032 394.101,-132.133 390,-116 386.507,-102.258 377.988,-88.1822 371.865,-79.2827"/>
<polygon fill="midnightblue" stroke="midnightblue" points="385.648,-164.068 386.779,-174.603 392.464,-165.662 385.648,-164.068"/>
</g>
<!-- Node12 -->
<g id="node12" class="node"><title>Node12</title>
<g id="a_node12"><a xlink:href="a00179.html" target="_top" xlink:title="Helper functions for manipulating RMF files. ">
<polygon fill="none" stroke="black" points="-0.292969,-117 -0.292969,-137 46.293,-137 46.293,-117 -0.292969,-117"/>
<text text-anchor="middle" x="23" y="-123" font-family="Helvetica,sans-Serif" font-size="10.00">bond.h</text>
</a>
</g>
</g>
<!-- Node1&#45;&gt;Node12 -->
<g id="edge21" class="edge"><title>Node1&#45;&gt;Node12</title>
<path fill="none" stroke="midnightblue" d="M337.436,-179.917C273.298,-173.744 154.413,-160.325 55,-138 52.1605,-137.362 49.2094,-136.592 46.2987,-135.766"/>
<polygon fill="midnightblue" stroke="midnightblue" points="337.341,-183.423 347.626,-180.881 338,-176.455 337.341,-183.423"/>
</g>
<!-- Node13 -->
<g id="node13" class="node"><title>Node13</title>
<g id="a_node13"><a xlink:href="a00244.html" target="_top" xlink:title="Helper functions for manipulating RMF files. ">
<polygon fill="none" stroke="black" points="63.8647,-117 63.8647,-137 152.135,-137 152.135,-117 63.8647,-117"/>
<text text-anchor="middle" x="108" y="-123" font-family="Helvetica,sans-Serif" font-size="10.00">representation.h</text>
</a>
</g>
</g>
<!-- Node1&#45;&gt;Node13 -->
<g id="edge23" class="edge"><title>Node1&#45;&gt;Node13</title>
<path fill="none" stroke="midnightblue" d="M338.034,-174.674C286.418,-164.201 203.233,-147.323 152.306,-136.99"/>
<polygon fill="midnightblue" stroke="midnightblue" points="337.422,-178.121 347.918,-176.679 338.814,-171.26 337.422,-178.121"/>
</g>
<!-- Node14 -->
<g id="node14" class="node"><title>Node14</title>
<g id="a_node14"><a xlink:href="a00175.html" target="_top" xlink:title="Helper functions for manipulating RMF files. ">
<polygon fill="none" stroke="black" points="409.261,-59 409.261,-79 484.739,-79 484.739,-59 409.261,-59"/>
<text text-anchor="middle" x="447" y="-65" font-family="Helvetica,sans-Serif" font-size="10.00">alternatives.h</text>
</a>
</g>
</g>
<!-- Node1&#45;&gt;Node14 -->
<g id="edge25" class="edge"><title>Node1&#45;&gt;Node14</title>
<path fill="none" stroke="midnightblue" d="M394.167,-165.602C407.833,-140.873 431.605,-97.8584 441.949,-79.1394"/>
<polygon fill="midnightblue" stroke="midnightblue" points="390.929,-164.226 389.156,-174.671 397.056,-167.611 390.929,-164.226"/>
</g>
<!-- Node15 -->
<g id="node15" class="node"><title>Node15</title>
<g id="a_node15"><a xlink:href="a00258.html" target="_top" xlink:title="Handle read/write of Model data from/to files. ">
<polygon fill="none" stroke="black" points="702.596,-117 702.596,-137 761.404,-137 761.404,-117 702.596,-117"/>
<text text-anchor="middle" x="732" y="-123" font-family="Helvetica,sans-Serif" font-size="10.00">validate.h</text>
</a>
</g>
</g>
<!-- Node1&#45;&gt;Node15 -->
<g id="edge28" class="edge"><title>Node1&#45;&gt;Node15</title>
<path fill="none" stroke="midnightblue" d="M430.588,-178.135C490.579,-170.317 597.953,-155.425 689,-138 693.366,-137.164 697.961,-136.194 702.457,-135.193"/>
<polygon fill="midnightblue" stroke="midnightblue" points="429.777,-174.711 420.309,-179.466 430.676,-181.653 429.777,-174.711"/>
</g>
<!-- Node3 -->
<g id="node3" class="node"><title>Node3</title>
<g id="a_node3"><a xlink:href="a00199.html" target="_top" xlink:title="Import all the decorators headers. ">
<polygon fill="none" stroke="black" points="256.207,-1 256.207,-21 327.793,-21 327.793,-1 256.207,-1"/>
<text text-anchor="middle" x="292" y="-7" font-family="Helvetica,sans-Serif" font-size="10.00">decorators.h</text>
</a>
</g>
</g>
<!-- Node2&#45;&gt;Node3 -->
<g id="edge2" class="edge"><title>Node2&#45;&gt;Node3</title>
<path fill="none" stroke="midnightblue" d="M347.52,-108.277C342.1,-99.7871 335.605,-89.4354 330,-80 317.705,-59.3041 304.136,-34.5132 297.009,-21.3275"/>
<polygon fill="midnightblue" stroke="midnightblue" points="344.727,-110.405 353.079,-116.924 350.615,-106.619 344.727,-110.405"/>
</g>
<!-- Node2&#45;&gt;Node4 -->
<g id="edge3" class="edge"><title>Node2&#45;&gt;Node4</title>
<path fill="none" stroke="midnightblue" d="M391.502,-115.479C423.912,-104.988 473.175,-89.0415 503.931,-79.0859"/>
<polygon fill="midnightblue" stroke="midnightblue" points="390.053,-112.269 381.617,-118.679 392.209,-118.929 390.053,-112.269"/>
</g>
<!-- Node4&#45;&gt;Node3 -->
<g id="edge4" class="edge"><title>Node4&#45;&gt;Node3</title>
<path fill="none" stroke="midnightblue" d="M493.306,-58.0743C493.204,-58.0495 493.102,-58.0247 493,-58 435.424,-44.0327 368.286,-28.8994 328.012,-19.9451"/>
<polygon fill="midnightblue" stroke="midnightblue" points="492.508,-61.4824 503.057,-60.4894 494.191,-54.6877 492.508,-61.4824"/>
</g>
<!-- Node5 -->
<g id="node5" class="node"><title>Node5</title>
<g id="a_node5"><a xlink:href="a00254.html" target="_top" xlink:title="Helper functions for manipulating RMF files. ">
<polygon fill="none" stroke="black" points="425.831,-1 425.831,-21 518.169,-21 518.169,-1 425.831,-1"/>
<text text-anchor="middle" x="472" y="-7" font-family="Helvetica,sans-Serif" font-size="10.00">TraverseHelper.h</text>
</a>
</g>
</g>
<!-- Node4&#45;&gt;Node5 -->
<g id="edge5" class="edge"><title>Node4&#45;&gt;Node5</title>
<path fill="none" stroke="midnightblue" d="M514.54,-51.704C503.852,-41.7286 490.574,-29.3361 481.723,-21.0752"/>
<polygon fill="midnightblue" stroke="midnightblue" points="512.394,-54.4882 522.092,-58.7527 517.17,-49.3708 512.394,-54.4882"/>
</g>
<!-- Node4&#45;&gt;Node6 -->
<g id="edge6" class="edge"><title>Node4&#45;&gt;Node6</title>
<path fill="none" stroke="midnightblue" d="M553.89,-52.8661C568.585,-42.7069 587.456,-29.6601 599.873,-21.0752"/>
<polygon fill="midnightblue" stroke="midnightblue" points="551.611,-50.1869 545.376,-58.7527 555.591,-55.9448 551.611,-50.1869"/>
</g>
<!-- Node7&#45;&gt;Node3 -->
<g id="edge8" class="edge"><title>Node7&#45;&gt;Node3</title>
<path fill="none" stroke="midnightblue" d="M175.027,-55.3808C203.113,-44.9649 242.3,-30.4319 267.414,-21.1181"/>
<polygon fill="midnightblue" stroke="midnightblue" points="173.756,-52.1191 165.597,-58.878 176.19,-58.6823 173.756,-52.1191"/>
</g>
<!-- Node8&#45;&gt;Node3 -->
<g id="edge10" class="edge"><title>Node8&#45;&gt;Node3</title>
<path fill="none" stroke="midnightblue" d="M237.655,-52.5778C251.204,-42.4611 268.457,-29.5791 279.846,-21.0752"/>
<polygon fill="midnightblue" stroke="midnightblue" points="235.304,-49.9653 229.385,-58.7527 239.492,-55.5743 235.304,-49.9653"/>
</g>
<!-- Node9&#45;&gt;Node3 -->
<g id="edge13" class="edge"><title>Node9&#45;&gt;Node3</title>
<path fill="none" stroke="midnightblue" d="M283.701,-106.603C285.883,-81.7305 289.578,-39.6088 291.198,-21.1394"/>
<polygon fill="midnightblue" stroke="midnightblue" points="280.206,-106.403 282.818,-116.671 287.179,-107.015 280.206,-106.403"/>
</g>
<!-- Node10&#45;&gt;Node3 -->
<g id="edge15" class="edge"><title>Node10&#45;&gt;Node3</title>
<path fill="none" stroke="midnightblue" d="M569.303,-58.0596C569.202,-58.0397 569.101,-58.0198 569,-58 482.898,-41.0818 380.933,-25.2131 327.979,-17.2822"/>
<polygon fill="midnightblue" stroke="midnightblue" points="568.431,-61.4533 578.932,-60.049 569.847,-54.5981 568.431,-61.4533"/>
</g>
<!-- Node10&#45;&gt;Node5 -->
<g id="edge16" class="edge"><title>Node10&#45;&gt;Node5</title>
<path fill="none" stroke="midnightblue" d="M580.537,-55.1069C554.363,-44.7114 518.204,-30.3505 494.958,-21.1181"/>
<polygon fill="midnightblue" stroke="midnightblue" points="579.446,-58.4396 590.032,-58.878 582.03,-51.9339 579.446,-58.4396"/>
</g>
<!-- Node10&#45;&gt;Node6 -->
<g id="edge17" class="edge"><title>Node10&#45;&gt;Node6</title>
<path fill="none" stroke="midnightblue" d="M613,-48.7065C613,-39.3384 613,-28.5262 613,-21.0752"/>
<polygon fill="midnightblue" stroke="midnightblue" points="609.5,-48.7527 613,-58.7527 616.5,-48.7528 609.5,-48.7527"/>
</g>
<!-- Node11&#45;&gt;Node3 -->
<g id="edge19" class="edge"><title>Node11&#45;&gt;Node3</title>
<path fill="none" stroke="midnightblue" d="M344.896,-52.5778C331.708,-42.4611 314.916,-29.5791 303.83,-21.0752"/>
<polygon fill="midnightblue" stroke="midnightblue" points="342.881,-55.4431 352.946,-58.7527 347.142,-49.8891 342.881,-55.4431"/>
</g>
<!-- Node11&#45;&gt;Node5 -->
<g id="edge20" class="edge"><title>Node11&#45;&gt;Node5</title>
<path fill="none" stroke="midnightblue" d="M391.743,-54.0034C411.434,-43.6979 437.638,-29.9841 454.66,-21.0752"/>
<polygon fill="midnightblue" stroke="midnightblue" points="389.906,-51.0147 382.669,-58.7527 393.152,-57.2167 389.906,-51.0147"/>
</g>
<!-- Node12&#45;&gt;Node3 -->
<g id="edge22" class="edge"><title>Node12&#45;&gt;Node3</title>
<path fill="none" stroke="midnightblue" d="M35.7113,-108.593C48.0771,-92.9502 68.2837,-70.5635 91,-58 143.785,-28.8069 214.163,-18.1151 256.106,-14.2168"/>
<polygon fill="midnightblue" stroke="midnightblue" points="32.6581,-106.825 29.3769,-116.899 38.2241,-111.07 32.6581,-106.825"/>
</g>
<!-- Node13&#45;&gt;Node3 -->
<g id="edge24" class="edge"><title>Node13&#45;&gt;Node3</title>
<path fill="none" stroke="midnightblue" d="M99.9129,-107.283C94.8574,-92.376 91.1496,-71.7908 102,-58 120.782,-34.1276 206.191,-21.1496 255.871,-15.5022"/>
<polygon fill="midnightblue" stroke="midnightblue" points="96.7794,-108.885 103.643,-116.956 103.311,-106.366 96.7794,-108.885"/>
</g>
<!-- Node14&#45;&gt;Node3 -->
<g id="edge26" class="edge"><title>Node14&#45;&gt;Node3</title>
<path fill="none" stroke="midnightblue" d="M412.041,-55.3698C383.118,-44.92 342.74,-30.3319 316.981,-21.0253"/>
<polygon fill="midnightblue" stroke="midnightblue" points="411.157,-58.7718 421.752,-58.878 413.536,-52.1882 411.157,-58.7718"/>
</g>
<!-- Node14&#45;&gt;Node5 -->
<g id="edge27" class="edge"><title>Node14&#45;&gt;Node5</title>
<path fill="none" stroke="midnightblue" d="M455.206,-49.6182C459.479,-40.0471 464.514,-28.7692 467.949,-21.0752"/>
<polygon fill="midnightblue" stroke="midnightblue" points="452.009,-48.1946 451.128,-58.7527 458.401,-51.0482 452.009,-48.1946"/>
</g>
</g>
</svg>
