<?xml version="1.0" encoding="UTF-8" standalone="no"?>
<!DOCTYPE svg PUBLIC "-//W3C//DTD SVG 1.1//EN"
 "http://www.w3.org/Graphics/SVG/1.1/DTD/svg11.dtd">
<!-- Generated by graphviz version 2.34.0 (20131025.1349)
 -->
<!-- Title: RMF::decorator::Ball Pages: 1 -->
<svg width="140pt" height="146pt"
 viewBox="0.00 0.00 140.00 146.00" xmlns="http://www.w3.org/2000/svg" xmlns:xlink="http://www.w3.org/1999/xlink">
<g id="graph0" class="graph" transform="scale(1 1) rotate(0) translate(4 142)">
<title>RMF::decorator::Ball</title>
<!-- Node1 -->
<g id="node1" class="node"><title>Node1</title>
<polygon fill="#bfbfbf" stroke="black" points="12.1528,-1 12.1528,-21 119.847,-21 119.847,-1 12.1528,-1"/>
<text text-anchor="middle" x="66" y="-7" font-family="Helvetica,sans-Serif" font-size="10.00">RMF::decorator::Ball</text>
</g>
<!-- Node2 -->
<g id="node2" class="node"><title>Node2</title>
<g id="a_node2"><a xlink:href="a00066.html" target="_top" xlink:title="RMF::decorator::BallConst">
<polygon fill="none" stroke="black" points="-0.908691,-59 -0.908691,-79 132.909,-79 132.909,-59 -0.908691,-59"/>
<text text-anchor="middle" x="66" y="-65" font-family="Helvetica,sans-Serif" font-size="10.00">RMF::decorator::BallConst</text>
</a>
</g>
</g>
<!-- Node2&#45;&gt;Node1 -->
<g id="edge1" class="edge"><title>Node2&#45;&gt;Node1</title>
<path fill="none" stroke="midnightblue" d="M66,-48.7065C66,-39.3384 66,-28.5262 66,-21.0752"/>
<polygon fill="midnightblue" stroke="midnightblue" points="62.5001,-48.7527 66,-58.7527 69.5001,-48.7528 62.5001,-48.7527"/>
</g>
<!-- Node3 -->
<g id="node3" class="node"><title>Node3</title>
<g id="a_node3"><a xlink:href="a00094.html" target="_top" xlink:title="RMF::Decorator">
<polygon fill="none" stroke="black" points="22.4385,-117 22.4385,-137 109.562,-137 109.562,-117 22.4385,-117"/>
<text text-anchor="middle" x="66" y="-123" font-family="Helvetica,sans-Serif" font-size="10.00">RMF::Decorator</text>
</a>
</g>
</g>
<!-- Node3&#45;&gt;Node2 -->
<g id="edge2" class="edge"><title>Node3&#45;&gt;Node2</title>
<path fill="none" stroke="midnightblue" d="M66,-106.707C66,-97.3384 66,-86.5262 66,-79.0752"/>
<polygon fill="midnightblue" stroke="midnightblue" points="62.5001,-106.753 66,-116.753 69.5001,-106.753 62.5001,-106.753"/>
</g>
</g>
</svg>
