<?xml version="1.0" encoding="UTF-8" standalone="no"?>
<!DOCTYPE svg PUBLIC "-//W3C//DTD SVG 1.1//EN"
 "http://www.w3.org/Graphics/SVG/1.1/DTD/svg11.dtd">
<!-- Generated by graphviz version 2.34.0 (20131025.1349)
 -->
<!-- Title: RMF::Label Pages: 1 -->
<svg width="291pt" height="88pt"
 viewBox="0.00 0.00 291.00 88.00" xmlns="http://www.w3.org/2000/svg" xmlns:xlink="http://www.w3.org/1999/xlink">
<g id="graph0" class="graph" transform="scale(1 1) rotate(0) translate(4 84)">
<title>RMF::Label</title>
<!-- Node1 -->
<g id="node1" class="node"><title>Node1</title>
<polygon fill="#bfbfbf" stroke="black" points="108.158,-59 108.158,-79 175.842,-79 175.842,-59 108.158,-59"/>
<text text-anchor="middle" x="142" y="-65" font-family="Helvetica,sans-Serif" font-size="10.00">RMF::Label</text>
</g>
<!-- Node2 -->
<g id="node2" class="node"><title>Node2</title>
<g id="a_node2"><a xlink:href="a00061.html" target="_top" xlink:title="RMF::decorator::Assembly">
<polygon fill="none" stroke="black" points="-0.182129,-1 -0.182129,-21 134.182,-21 134.182,-1 -0.182129,-1"/>
<text text-anchor="middle" x="67" y="-7" font-family="Helvetica,sans-Serif" font-size="10.00">RMF::decorator::Assembly</text>
</a>
</g>
</g>
<!-- Node1&#45;&gt;Node2 -->
<g id="edge1" class="edge"><title>Node1&#45;&gt;Node2</title>
<path fill="none" stroke="midnightblue" d="M121.345,-52.5778C107.796,-42.4611 90.5434,-29.5791 79.1543,-21.0752"/>
<polygon fill="midnightblue" stroke="midnightblue" points="119.508,-55.5743 129.615,-58.7527 123.696,-49.9653 119.508,-55.5743"/>
</g>
<!-- Node3 -->
<g id="node3" class="node"><title>Node3</title>
<g id="a_node3"><a xlink:href="a00132.html" target="_top" xlink:title="RMF::decorator::Molecule">
<polygon fill="none" stroke="black" points="152.48,-1 152.48,-21 283.52,-21 283.52,-1 152.48,-1"/>
<text text-anchor="middle" x="218" y="-7" font-family="Helvetica,sans-Serif" font-size="10.00">RMF::decorator::Molecule</text>
</a>
</g>
</g>
<!-- Node1&#45;&gt;Node3 -->
<g id="edge2" class="edge"><title>Node1&#45;&gt;Node3</title>
<path fill="none" stroke="midnightblue" d="M162.93,-52.5778C176.66,-42.4611 194.143,-29.5791 205.684,-21.0752"/>
<polygon fill="midnightblue" stroke="midnightblue" points="160.524,-50.003 154.55,-58.7527 164.677,-55.6384 160.524,-50.003"/>
</g>
</g>
</svg>
