<?xml version="1.0" encoding="UTF-8" standalone="no"?>
<!DOCTYPE svg PUBLIC "-//W3C//DTD SVG 1.1//EN"
 "http://www.w3.org/Graphics/SVG/1.1/DTD/svg11.dtd">
<!-- Generated by graphviz version 2.34.0 (20131025.1349)
 -->
<!-- Title: RMF::NodeConstHandle Pages: 1 -->
<svg width="235pt" height="88pt"
 viewBox="0.00 0.00 235.00 88.00" xmlns="http://www.w3.org/2000/svg" xmlns:xlink="http://www.w3.org/1999/xlink">
<g id="graph0" class="graph" transform="scale(1 1) rotate(0) translate(4 84)">
<title>RMF::NodeConstHandle</title>
<!-- Node1 -->
<g id="node1" class="node"><title>Node1</title>
<polygon fill="#bfbfbf" stroke="black" points="47.5322,-59 47.5322,-79 172.468,-79 172.468,-59 47.5322,-59"/>
<text text-anchor="middle" x="110" y="-65" font-family="Helvetica,sans-Serif" font-size="10.00">RMF::NodeConstHandle</text>
</g>
<!-- Node2 -->
<g id="node2" class="node"><title>Node2</title>
<g id="a_node2"><a xlink:href="a00135.html" target="_top" xlink:title="A handle for a particular node in the hierarchy. ">
<polygon fill="none" stroke="black" points="-0.40625,-1 -0.40625,-21 98.4062,-21 98.4062,-1 -0.40625,-1"/>
<text text-anchor="middle" x="49" y="-7" font-family="Helvetica,sans-Serif" font-size="10.00">RMF::NodeHandle</text>
</a>
</g>
</g>
<!-- Node1&#45;&gt;Node2 -->
<g id="edge1" class="edge"><title>Node1&#45;&gt;Node2</title>
<path fill="none" stroke="midnightblue" d="M92.249,-51.704C81.3829,-41.7286 67.884,-29.3361 58.8855,-21.0752"/>
<polygon fill="midnightblue" stroke="midnightblue" points="90.1936,-54.5683 99.9271,-58.7527 94.9275,-49.4117 90.1936,-54.5683"/>
</g>
<!-- Node3 -->
<g id="node3" class="node"><title>Node3</title>
<g id="a_node3"><a xlink:href="a00166.html" target="_top" xlink:title="RMF::TraverseHelper">
<polygon fill="none" stroke="black" points="116.119,-1 116.119,-21 227.881,-21 227.881,-1 116.119,-1"/>
<text text-anchor="middle" x="172" y="-7" font-family="Helvetica,sans-Serif" font-size="10.00">RMF::TraverseHelper</text>
</a>
</g>
</g>
<!-- Node1&#45;&gt;Node3 -->
<g id="edge2" class="edge"><title>Node1&#45;&gt;Node3</title>
<path fill="none" stroke="midnightblue" d="M127.718,-51.9967C138.817,-41.9719 152.717,-29.4171 161.952,-21.0752"/>
<polygon fill="midnightblue" stroke="midnightblue" points="125.313,-49.4525 120.238,-58.7527 130.005,-54.6472 125.313,-49.4525"/>
</g>
</g>
</svg>
