<?xml version="1.0" encoding="UTF-8" standalone="no"?>
<!DOCTYPE svg PUBLIC "-//W3C//DTD SVG 1.1//EN"
 "http://www.w3.org/Graphics/SVG/1.1/DTD/svg11.dtd">
<!-- Generated by graphviz version 2.34.0 (20131025.1349)
 -->
<!-- Title: RMF::Decorator Pages: 1 -->
<!--zoomable 1159 -->
<svg id="main" version="1.1" xmlns="http://www.w3.org/2000/svg" xmlns:xlink="http://www.w3.org/1999/xlink" xml:space="preserve" onload="init(evt)">
<style type="text/css"><![CDATA[
.edge:hover path { stroke: red; }
.edge:hover polygon { stroke: red; fill: red; }
]]></style>
<script type="text/javascript"><![CDATA[
var edges = document.getElementsByTagName('g');
if (edges && edges.length) {
  for (var i=0;i<edges.length;i++) {
    if (edges[i].id.substr(0,4)=='edge') {
      edges[i].setAttribute('class','edge');
    }
  }
}
]]></script>
        <defs>
                <circle id="rim" cx="0" cy="0" r="7"/>
                <circle id="rim2" cx="0" cy="0" r="3.5"/>
                <g id="zoomPlus">
                        <use xlink:href="#rim" fill="#404040">
                                <set attributeName="fill" to="#808080" begin="zoomplus.mouseover" end="zoomplus.mouseout"/>
                        </use>
                        <path d="M-4,0h8M0,-4v8" fill="none" stroke="white" stroke-width="1.5" pointer-events="none"/>
                </g>
                <g id="zoomMin">
                        <use xlink:href="#rim" fill="#404040">
                                <set attributeName="fill" to="#808080" begin="zoomminus.mouseover" end="zoomminus.mouseout"/>
                        </use>
                        <path d="M-4,0h8" fill="none" stroke="white" stroke-width="1.5" pointer-events="none"/>
                </g>
                <g id="dirArrow">
                        <path fill="none" stroke="white" stroke-width="1.5" d="M0,-3.0v7 M-2.5,-0.5L0,-3.0L2.5,-0.5"/>
                </g>
               <g id="resetDef">
                       <use xlink:href="#rim2" fill="#404040">
                               <set attributeName="fill" to="#808080" begin="reset.mouseover" end="reset.mouseout"/>
                       </use>
               </g>
        </defs>

<script type="text/javascript">
var viewWidth = 488;
var viewHeight = 1159;
var sectionId = 'dynsection-0';
</script>
<script xlink:href="svgpan.js"/>
<svg id="graph" class="graph">
<g id="viewport">
<title>RMF::Decorator</title>
<!-- Node1 -->
<g id="node1" class="node"><title>Node1</title>
<polygon fill="#bfbfbf" stroke="black" points="0.438477,-583 0.438477,-603 87.5615,-603 87.5615,-583 0.438477,-583"/>
<text text-anchor="middle" x="44" y="-589" font-family="Helvetica,sans-Serif" font-size="10.00">RMF::Decorator</text>
</g>
<!-- Node2 -->
<g id="node2" class="node"><title>Node2</title>
<g id="a_node2"><a xlink:href="a00056.html" target="_top" xlink:title="RMF::decorator::AliasConst">
<polygon fill="none" stroke="black" points="134.591,-1131 134.591,-1151 273.409,-1151 273.409,-1131 134.591,-1131"/>
<text text-anchor="middle" x="204" y="-1137" font-family="Helvetica,sans-Serif" font-size="10.00">RMF::decorator::AliasConst</text>
</a>
</g>
</g>
<!-- Node1&#45;&gt;Node2 -->
<g id="edge1" class="edge"><title>Node1&#45;&gt;Node2</title>
<path fill="none" stroke="midnightblue" d="M45.1425,-613.253C46.1748,-700.634 54.649,-1044.39 124,-1121 127.608,-1124.99 131.885,-1128.23 136.554,-1130.86"/>
<polygon fill="midnightblue" stroke="midnightblue" points="48.6408,-613.047 45.0437,-603.082 41.6411,-613.115 48.6408,-613.047"/>
</g>
<!-- Node4 -->
<g id="node4" class="node"><title>Node4</title>
<g id="a_node4"><a xlink:href="a00059.html" target="_top" xlink:title="RMF::decorator::Alternatives\lConst">
<polygon fill="none" stroke="black" points="132.367,-1080 132.367,-1112 275.633,-1112 275.633,-1080 132.367,-1080"/>
<text text-anchor="start" x="140.367" y="-1098" font-family="Helvetica,sans-Serif" font-size="10.00">RMF::decorator::Alternatives</text>
<text text-anchor="middle" x="204" y="-1086" font-family="Helvetica,sans-Serif" font-size="10.00">Const</text>
</a>
</g>
</g>
<!-- Node1&#45;&gt;Node4 -->
<g id="edge3" class="edge"><title>Node1&#45;&gt;Node4</title>
<path fill="none" stroke="midnightblue" d="M45.6378,-613.249C48.6082,-694.978 63.6185,-999.535 124,-1070 127.288,-1073.84 131.154,-1077.11 135.378,-1079.9"/>
<polygon fill="midnightblue" stroke="midnightblue" points="49.1354,-613.117 45.2951,-603.243 42.1395,-613.357 49.1354,-613.117"/>
</g>
<!-- Node6 -->
<g id="node6" class="node"><title>Node6</title>
<g id="a_node6"><a xlink:href="a00063.html" target="_top" xlink:title="RMF::decorator::AtomConst">
<polygon fill="none" stroke="black" points="133.759,-1041 133.759,-1061 274.241,-1061 274.241,-1041 133.759,-1041"/>
<text text-anchor="middle" x="204" y="-1047" font-family="Helvetica,sans-Serif" font-size="10.00">RMF::decorator::AtomConst</text>
</a>
</g>
</g>
<!-- Node1&#45;&gt;Node6 -->
<g id="edge5" class="edge"><title>Node1&#45;&gt;Node6</title>
<path fill="none" stroke="midnightblue" d="M45.8448,-613.663C49.4656,-691.956 66.2227,-969.06 124,-1031 127.764,-1035.03 132.214,-1038.3 137.055,-1040.95"/>
<polygon fill="midnightblue" stroke="midnightblue" points="49.3223,-613.07 45.3873,-603.233 42.329,-613.377 49.3223,-613.07"/>
</g>
<!-- Node8 -->
<g id="node8" class="node"><title>Node8</title>
<g id="a_node8"><a xlink:href="a00066.html" target="_top" xlink:title="RMF::decorator::BallConst">
<polygon fill="none" stroke="black" points="137.091,-1002 137.091,-1022 270.909,-1022 270.909,-1002 137.091,-1002"/>
<text text-anchor="middle" x="204" y="-1008" font-family="Helvetica,sans-Serif" font-size="10.00">RMF::decorator::BallConst</text>
</a>
</g>
</g>
<!-- Node1&#45;&gt;Node8 -->
<g id="edge7" class="edge"><title>Node1&#45;&gt;Node8</title>
<path fill="none" stroke="midnightblue" d="M46.2134,-613.229C51.0125,-686.439 71.0578,-936.203 124,-992 127.798,-996.003 132.272,-999.25 137.128,-1001.88"/>
<polygon fill="midnightblue" stroke="midnightblue" points="49.6941,-612.811 45.5714,-603.052 42.708,-613.252 49.6941,-612.811"/>
</g>
<!-- Node10 -->
<g id="node10" class="node"><title>Node10</title>
<g id="a_node10"><a xlink:href="a00069.html" target="_top" xlink:title="RMF::decorator::BondConst">
<polygon fill="none" stroke="black" points="133.751,-963 133.751,-983 274.249,-983 274.249,-963 133.751,-963"/>
<text text-anchor="middle" x="204" y="-969" font-family="Helvetica,sans-Serif" font-size="10.00">RMF::decorator::BondConst</text>
</a>
</g>
</g>
<!-- Node1&#45;&gt;Node10 -->
<g id="edge9" class="edge"><title>Node1&#45;&gt;Node10</title>
<path fill="none" stroke="midnightblue" d="M46.7018,-613.431C52.8349,-682.162 76.0254,-903.468 124,-953 127.937,-957.065 132.573,-960.348 137.592,-962.994"/>
<polygon fill="midnightblue" stroke="midnightblue" points="50.1567,-612.758 45.8071,-603.097 43.1828,-613.362 50.1567,-612.758"/>
</g>
<!-- Node12 -->
<g id="node12" class="node"><title>Node12</title>
<g id="a_node12"><a xlink:href="a00074.html" target="_top" xlink:title="RMF::decorator::ChainConst">
<polygon fill="none" stroke="black" points="132.365,-924 132.365,-944 275.635,-944 275.635,-924 132.365,-924"/>
<text text-anchor="middle" x="204" y="-930" font-family="Helvetica,sans-Serif" font-size="10.00">RMF::decorator::ChainConst</text>
</a>
</g>
</g>
<!-- Node1&#45;&gt;Node12 -->
<g id="edge11" class="edge"><title>Node1&#45;&gt;Node12</title>
<path fill="none" stroke="midnightblue" d="M47.2707,-613.278C54.7905,-676.85 80.8834,-870.596 124,-914 127.988,-918.015 132.659,-921.263 137.701,-923.887"/>
<polygon fill="midnightblue" stroke="midnightblue" points="50.7421,-612.828 46.1174,-603.296 43.7883,-613.632 50.7421,-612.828"/>
</g>
<!-- Node14 -->
<g id="node14" class="node"><title>Node14</title>
<g id="a_node14"><a xlink:href="a00077.html" target="_top" xlink:title="RMF::decorator::ColoredConst">
<polygon fill="none" stroke="black" points="127.919,-885 127.919,-905 280.081,-905 280.081,-885 127.919,-885"/>
<text text-anchor="middle" x="204" y="-891" font-family="Helvetica,sans-Serif" font-size="10.00">RMF::decorator::ColoredConst</text>
</a>
</g>
</g>
<!-- Node1&#45;&gt;Node14 -->
<g id="edge13" class="edge"><title>Node1&#45;&gt;Node14</title>
<path fill="none" stroke="midnightblue" d="M44.2719,-613.456C43.6089,-665.18 49.3785,-802.235 124,-875 128.153,-879.05 133.002,-882.315 138.218,-884.944"/>
<polygon fill="midnightblue" stroke="midnightblue" points="47.7757,-613.327 44.5057,-603.249 40.7775,-613.166 47.7757,-613.327"/>
</g>
<!-- Node16 -->
<g id="node16" class="node"><title>Node16</title>
<g id="a_node16"><a xlink:href="a00085.html" target="_top" xlink:title="RMF::decorator::CopyConst">
<polygon fill="none" stroke="black" points="133.756,-846 133.756,-866 274.244,-866 274.244,-846 133.756,-846"/>
<text text-anchor="middle" x="204" y="-852" font-family="Helvetica,sans-Serif" font-size="10.00">RMF::decorator::CopyConst</text>
</a>
</g>
</g>
<!-- Node1&#45;&gt;Node16 -->
<g id="edge15" class="edge"><title>Node1&#45;&gt;Node16</title>
<path fill="none" stroke="midnightblue" d="M45.3455,-613.12C47.2781,-659.568 58.7655,-774.958 124,-836 128.339,-840.06 133.38,-843.326 138.777,-845.95"/>
<polygon fill="midnightblue" stroke="midnightblue" points="48.8434,-612.993 45.0376,-603.105 41.8467,-613.208 48.8434,-612.993"/>
</g>
<!-- Node18 -->
<g id="node18" class="node"><title>Node18</title>
<g id="a_node18"><a xlink:href="a00088.html" target="_top" xlink:title="RMF::decorator::Cylinder\lConst">
<polygon fill="none" stroke="black" points="140.15,-795 140.15,-827 267.85,-827 267.85,-795 140.15,-795"/>
<text text-anchor="start" x="148.15" y="-813" font-family="Helvetica,sans-Serif" font-size="10.00">RMF::decorator::Cylinder</text>
<text text-anchor="middle" x="204" y="-801" font-family="Helvetica,sans-Serif" font-size="10.00">Const</text>
</a>
</g>
</g>
<!-- Node1&#45;&gt;Node18 -->
<g id="edge17" class="edge"><title>Node1&#45;&gt;Node18</title>
<path fill="none" stroke="midnightblue" d="M47.66,-613.032C53.8573,-651.791 72.8334,-737.41 124,-785 128.652,-789.327 134.039,-792.934 139.77,-795.942"/>
<polygon fill="midnightblue" stroke="midnightblue" points="51.1028,-612.387 46.1796,-603.006 44.1778,-613.41 51.1028,-612.387"/>
</g>
<!-- Node20 -->
<g id="node20" class="node"><title>Node20</title>
<g id="a_node20"><a xlink:href="a00096.html" target="_top" xlink:title="RMF::decorator::Diffuser\lConst">
<polygon fill="none" stroke="black" points="141.352,-744 141.352,-776 266.648,-776 266.648,-744 141.352,-744"/>
<text text-anchor="start" x="149.352" y="-762" font-family="Helvetica,sans-Serif" font-size="10.00">RMF::decorator::Diffuser</text>
<text text-anchor="middle" x="204" y="-750" font-family="Helvetica,sans-Serif" font-size="10.00">Const</text>
</a>
</g>
</g>
<!-- Node1&#45;&gt;Node20 -->
<g id="edge19" class="edge"><title>Node1&#45;&gt;Node20</title>
<path fill="none" stroke="midnightblue" d="M51.0093,-613.104C61.1344,-643.597 84.4567,-701.429 124,-734 129.127,-738.223 134.962,-741.768 141.085,-744.741"/>
<polygon fill="midnightblue" stroke="midnightblue" points="54.2291,-611.679 47.8704,-603.204 47.5564,-613.794 54.2291,-611.679"/>
</g>
<!-- Node22 -->
<g id="node22" class="node"><title>Node22</title>
<g id="a_node22"><a xlink:href="a00099.html" target="_top" xlink:title="RMF::decorator::DomainConst">
<polygon fill="none" stroke="black" points="128.2,-705 128.2,-725 279.8,-725 279.8,-705 128.2,-705"/>
<text text-anchor="middle" x="204" y="-711" font-family="Helvetica,sans-Serif" font-size="10.00">RMF::decorator::DomainConst</text>
</a>
</g>
</g>
<!-- Node1&#45;&gt;Node22 -->
<g id="edge21" class="edge"><title>Node1&#45;&gt;Node22</title>
<path fill="none" stroke="midnightblue" d="M54.6363,-612.123C67.3316,-635.328 91.8659,-673.953 124,-695 130.273,-699.109 137.334,-702.373 144.589,-704.967"/>
<polygon fill="midnightblue" stroke="midnightblue" points="57.6981,-610.426 49.9326,-603.219 51.5085,-613.696 57.6981,-610.426"/>
</g>
<!-- Node24 -->
<g id="node24" class="node"><title>Node24</title>
<g id="a_node24"><a xlink:href="a00102.html" target="_top" xlink:title="RMF::decorator::Ellipsoid\lConst">
<polygon fill="none" stroke="black" points="139.87,-654 139.87,-686 268.13,-686 268.13,-654 139.87,-654"/>
<text text-anchor="start" x="147.87" y="-672" font-family="Helvetica,sans-Serif" font-size="10.00">RMF::decorator::Ellipsoid</text>
<text text-anchor="middle" x="204" y="-660" font-family="Helvetica,sans-Serif" font-size="10.00">Const</text>
</a>
</g>
</g>
<!-- Node1&#45;&gt;Node24 -->
<g id="edge23" class="edge"><title>Node1&#45;&gt;Node24</title>
<path fill="none" stroke="midnightblue" d="M66.6678,-609.148C82.0659,-620.073 103.559,-634.236 124,-644 131.557,-647.609 139.745,-650.918 147.89,-653.877"/>
<polygon fill="midnightblue" stroke="midnightblue" points="68.5159,-606.165 58.3599,-603.147 64.4173,-611.84 68.5159,-606.165"/>
</g>
<!-- Node26 -->
<g id="node26" class="node"><title>Node26</title>
<g id="a_node26"><a xlink:href="a00107.html" target="_top" xlink:title="RMF::decorator::External\lConst">
<polygon fill="none" stroke="black" points="140.148,-603 140.148,-635 267.852,-635 267.852,-603 140.148,-603"/>
<text text-anchor="start" x="148.148" y="-621" font-family="Helvetica,sans-Serif" font-size="10.00">RMF::decorator::External</text>
<text text-anchor="middle" x="204" y="-609" font-family="Helvetica,sans-Serif" font-size="10.00">Const</text>
</a>
</g>
</g>
<!-- Node1&#45;&gt;Node26 -->
<g id="edge25" class="edge"><title>Node1&#45;&gt;Node26</title>
<path fill="none" stroke="midnightblue" d="M97.8449,-601.696C111.371,-603.922 126.05,-606.337 140.029,-608.638"/>
<polygon fill="midnightblue" stroke="midnightblue" points="98.1927,-598.206 87.7571,-600.036 97.056,-605.113 98.1927,-598.206"/>
</g>
<!-- Node28 -->
<g id="node28" class="node"><title>Node28</title>
<g id="a_node28"><a xlink:href="a00114.html" target="_top" xlink:title="RMF::decorator::Fragment\lConst">
<polygon fill="none" stroke="black" points="137.094,-552 137.094,-584 270.906,-584 270.906,-552 137.094,-552"/>
<text text-anchor="start" x="145.094" y="-570" font-family="Helvetica,sans-Serif" font-size="10.00">RMF::decorator::Fragment</text>
<text text-anchor="middle" x="204" y="-558" font-family="Helvetica,sans-Serif" font-size="10.00">Const</text>
</a>
</g>
</g>
<!-- Node1&#45;&gt;Node28 -->
<g id="edge27" class="edge"><title>Node1&#45;&gt;Node28</title>
<path fill="none" stroke="midnightblue" d="M98.0077,-584.613C110.523,-582.632 124.019,-580.497 137.029,-578.438"/>
<polygon fill="midnightblue" stroke="midnightblue" points="97.0872,-581.215 87.7571,-586.235 98.1812,-588.129 97.0872,-581.215"/>
</g>
<!-- Node30 -->
<g id="node30" class="node"><title>Node30</title>
<g id="a_node30"><a xlink:href="a00117.html" target="_top" xlink:title="RMF::decorator::Gaussian\lParticleConst">
<polygon fill="none" stroke="black" points="137.367,-501 137.367,-533 270.633,-533 270.633,-501 137.367,-501"/>
<text text-anchor="start" x="145.367" y="-519" font-family="Helvetica,sans-Serif" font-size="10.00">RMF::decorator::Gaussian</text>
<text text-anchor="middle" x="204" y="-507" font-family="Helvetica,sans-Serif" font-size="10.00">ParticleConst</text>
</a>
</g>
</g>
<!-- Node1&#45;&gt;Node30 -->
<g id="edge29" class="edge"><title>Node1&#45;&gt;Node30</title>
<path fill="none" stroke="midnightblue" d="M66.9935,-577.003C82.3924,-566.332 103.755,-552.558 124,-543 131.704,-539.363 140.052,-536.021 148.34,-533.032"/>
<polygon fill="midnightblue" stroke="midnightblue" points="64.8252,-574.249 58.6695,-582.872 68.8591,-579.97 64.8252,-574.249"/>
</g>
<!-- Node32 -->
<g id="node32" class="node"><title>Node32</title>
<g id="a_node32"><a xlink:href="a00124.html" target="_top" xlink:title="RMF::decorator::Intermediate\lParticleConst">
<polygon fill="none" stroke="black" points="130.697,-450 130.697,-482 277.303,-482 277.303,-450 130.697,-450"/>
<text text-anchor="start" x="138.697" y="-468" font-family="Helvetica,sans-Serif" font-size="10.00">RMF::decorator::Intermediate</text>
<text text-anchor="middle" x="204" y="-456" font-family="Helvetica,sans-Serif" font-size="10.00">ParticleConst</text>
</a>
</g>
</g>
<!-- Node1&#45;&gt;Node32 -->
<g id="edge31" class="edge"><title>Node1&#45;&gt;Node32</title>
<path fill="none" stroke="midnightblue" d="M55.3042,-573.775C68.3975,-551.097 93.0596,-513.739 124,-492 129.435,-488.182 135.467,-484.896 141.706,-482.075"/>
<polygon fill="midnightblue" stroke="midnightblue" points="52.0944,-572.344 50.2687,-582.78 58.2041,-575.76 52.0944,-572.344"/>
</g>
<!-- Node34 -->
<g id="node34" class="node"><title>Node34</title>
<g id="a_node34"><a xlink:href="a00129.html" target="_top" xlink:title="RMF::decorator::JournalArticle\lConst">
<polygon fill="none" stroke="black" points="128.2,-399 128.2,-431 279.8,-431 279.8,-399 128.2,-399"/>
<text text-anchor="start" x="136.2" y="-417" font-family="Helvetica,sans-Serif" font-size="10.00">RMF::decorator::JournalArticle</text>
<text text-anchor="middle" x="204" y="-405" font-family="Helvetica,sans-Serif" font-size="10.00">Const</text>
</a>
</g>
</g>
<!-- Node1&#45;&gt;Node34 -->
<g id="edge33" class="edge"><title>Node1&#45;&gt;Node34</title>
<path fill="none" stroke="midnightblue" d="M50.0411,-573.147C59.2568,-540.821 81.8652,-476.831 124,-441 128.51,-437.165 133.601,-433.891 138.973,-431.098"/>
<polygon fill="midnightblue" stroke="midnightblue" points="46.6602,-572.241 47.4203,-582.809 53.4161,-574.074 46.6602,-572.241"/>
</g>
<!-- Node36 -->
<g id="node36" class="node"><title>Node36</title>
<g id="a_node36"><a xlink:href="a00139.html" target="_top" xlink:title="RMF::decorator::Particle\lConst">
<polygon fill="none" stroke="black" points="141.818,-348 141.818,-380 266.182,-380 266.182,-348 141.818,-348"/>
<text text-anchor="start" x="149.818" y="-366" font-family="Helvetica,sans-Serif" font-size="10.00">RMF::decorator::Particle</text>
<text text-anchor="middle" x="204" y="-354" font-family="Helvetica,sans-Serif" font-size="10.00">Const</text>
</a>
</g>
</g>
<!-- Node1&#45;&gt;Node36 -->
<g id="edge35" class="edge"><title>Node1&#45;&gt;Node36</title>
<path fill="none" stroke="midnightblue" d="M47.1529,-572.937C52.5495,-532.535 70.3195,-440.899 124,-390 129.134,-385.132 135.197,-381.175 141.645,-377.958"/>
<polygon fill="midnightblue" stroke="midnightblue" points="43.6745,-572.547 45.9393,-582.897 50.6231,-573.394 43.6745,-572.547"/>
</g>
<!-- Node38 -->
<g id="node38" class="node"><title>Node38</title>
<g id="a_node38"><a xlink:href="a00142.html" target="_top" xlink:title="RMF::decorator::Reference\lFrameConst">
<polygon fill="none" stroke="black" points="135.421,-297 135.421,-329 272.579,-329 272.579,-297 135.421,-297"/>
<text text-anchor="start" x="143.421" y="-315" font-family="Helvetica,sans-Serif" font-size="10.00">RMF::decorator::Reference</text>
<text text-anchor="middle" x="204" y="-303" font-family="Helvetica,sans-Serif" font-size="10.00">FrameConst</text>
</a>
</g>
</g>
<!-- Node1&#45;&gt;Node38 -->
<g id="edge37" class="edge"><title>Node1&#45;&gt;Node38</title>
<path fill="none" stroke="midnightblue" d="M45.3339,-572.638C47.2305,-525.031 58.6272,-405.454 124,-339 127.747,-335.191 132.06,-331.941 136.699,-329.166"/>
<polygon fill="midnightblue" stroke="midnightblue" points="41.8284,-572.778 45.0336,-582.877 48.8254,-572.984 41.8284,-572.778"/>
</g>
<!-- Node40 -->
<g id="node40" class="node"><title>Node40</title>
<g id="a_node40"><a xlink:href="a00145.html" target="_top" xlink:title="RMF::decorator::Representation\lConst">
<polygon fill="none" stroke="black" points="124.579,-246 124.579,-278 283.421,-278 283.421,-246 124.579,-246"/>
<text text-anchor="start" x="132.579" y="-264" font-family="Helvetica,sans-Serif" font-size="10.00">RMF::decorator::Representation</text>
<text text-anchor="middle" x="204" y="-252" font-family="Helvetica,sans-Serif" font-size="10.00">Const</text>
</a>
</g>
</g>
<!-- Node1&#45;&gt;Node40 -->
<g id="edge39" class="edge"><title>Node1&#45;&gt;Node40</title>
<path fill="none" stroke="midnightblue" d="M47.7031,-572.683C56.2318,-511.444 84.3734,-330.269 124,-288 127.555,-284.208 131.673,-280.968 136.124,-278.2"/>
<polygon fill="midnightblue" stroke="midnightblue" points="44.1851,-572.578 46.3007,-582.96 51.1208,-573.525 44.1851,-572.578"/>
</g>
<!-- Node42 -->
<g id="node42" class="node"><title>Node42</title>
<g id="a_node42"><a xlink:href="a00148.html" target="_top" xlink:title="RMF::decorator::ResidueConst">
<polygon fill="none" stroke="black" points="127.084,-207 127.084,-227 280.916,-227 280.916,-207 127.084,-207"/>
<text text-anchor="middle" x="204" y="-213" font-family="Helvetica,sans-Serif" font-size="10.00">RMF::decorator::ResidueConst</text>
</a>
</g>
</g>
<!-- Node1&#45;&gt;Node42 -->
<g id="edge41" class="edge"><title>Node1&#45;&gt;Node42</title>
<path fill="none" stroke="midnightblue" d="M46.7769,-572.344C53.0806,-503.86 76.5804,-285.844 124,-237 127.942,-232.94 132.581,-229.66 137.603,-227.016"/>
<polygon fill="midnightblue" stroke="midnightblue" points="43.2585,-572.395 45.8542,-582.667 50.2307,-573.018 43.2585,-572.395"/>
</g>
<!-- Node44 -->
<g id="node44" class="node"><title>Node44</title>
<g id="a_node44"><a xlink:href="a00152.html" target="_top" xlink:title="RMF::decorator::RigidParticle\lConst">
<polygon fill="none" stroke="black" points="130.424,-156 130.424,-188 277.576,-188 277.576,-156 130.424,-156"/>
<text text-anchor="start" x="138.424" y="-174" font-family="Helvetica,sans-Serif" font-size="10.00">RMF::decorator::RigidParticle</text>
<text text-anchor="middle" x="204" y="-162" font-family="Helvetica,sans-Serif" font-size="10.00">Const</text>
</a>
</g>
</g>
<!-- Node1&#45;&gt;Node44 -->
<g id="edge43" class="edge"><title>Node1&#45;&gt;Node44</title>
<path fill="none" stroke="midnightblue" d="M46.41,-572.619C51.8291,-499.955 73.589,-254.886 124,-198 127.352,-194.218 131.264,-190.984 135.52,-188.219"/>
<polygon fill="midnightblue" stroke="midnightblue" points="42.9082,-572.519 45.6787,-582.745 49.89,-573.023 42.9082,-572.519"/>
</g>
<!-- Node46 -->
<g id="node46" class="node"><title>Node46</title>
<g id="a_node46"><a xlink:href="a00155.html" target="_top" xlink:title="RMF::decorator::ScoreConst">
<polygon fill="none" stroke="red" points="132.367,-117 132.367,-137 275.633,-137 275.633,-117 132.367,-117"/>
<text text-anchor="middle" x="204" y="-123" font-family="Helvetica,sans-Serif" font-size="10.00">RMF::decorator::ScoreConst</text>
</a>
</g>
</g>
<!-- Node1&#45;&gt;Node46 -->
<g id="edge45" class="edge"><title>Node1&#45;&gt;Node46</title>
<path fill="none" stroke="midnightblue" d="M45.7451,-572.963C49.0651,-494.642 65.0511,-210.395 124,-147 127.757,-142.959 132.203,-139.686 137.041,-137.039"/>
<polygon fill="midnightblue" stroke="midnightblue" points="42.2473,-572.841 45.3436,-582.974 49.2416,-573.122 42.2473,-572.841"/>
</g>
<!-- Node47 -->
<g id="node47" class="node"><title>Node47</title>
<g id="a_node47"><a xlink:href="a00158.html" target="_top" xlink:title="RMF::decorator::SegmentConst">
<polygon fill="none" stroke="red" points="125.417,-78 125.417,-98 282.583,-98 282.583,-78 125.417,-78"/>
<text text-anchor="middle" x="204" y="-84" font-family="Helvetica,sans-Serif" font-size="10.00">RMF::decorator::SegmentConst</text>
</a>
</g>
</g>
<!-- Node1&#45;&gt;Node47 -->
<g id="edge46" class="edge"><title>Node1&#45;&gt;Node47</title>
<path fill="none" stroke="midnightblue" d="M45.4359,-572.83C47.6376,-490.075 60.1192,-177.659 124,-108 127.634,-104.038 131.929,-100.811 136.61,-98.1888"/>
<polygon fill="midnightblue" stroke="midnightblue" points="41.9345,-572.852 45.1892,-582.934 48.9324,-573.023 41.9345,-572.852"/>
</g>
<!-- Node48 -->
<g id="node48" class="node"><title>Node48</title>
<g id="a_node48"><a xlink:href="a00163.html" target="_top" xlink:title="RMF::decorator::StateConst">
<polygon fill="none" stroke="red" points="133.754,-39 133.754,-59 274.246,-59 274.246,-39 133.754,-39"/>
<text text-anchor="middle" x="204" y="-45" font-family="Helvetica,sans-Serif" font-size="10.00">RMF::decorator::StateConst</text>
</a>
</g>
</g>
<!-- Node1&#45;&gt;Node48 -->
<g id="edge47" class="edge"><title>Node1&#45;&gt;Node48</title>
<path fill="none" stroke="midnightblue" d="M45.1661,-572.899C46.2964,-486.174 55.1203,-145.008 124,-69 127.61,-65.0162 131.889,-61.7744 136.559,-59.1422"/>
<polygon fill="midnightblue" stroke="midnightblue" points="41.6653,-572.956 45.0556,-582.994 48.6649,-573.033 41.6653,-572.956"/>
</g>
<!-- Node49 -->
<g id="node49" class="node"><title>Node49</title>
<g id="a_node49"><a xlink:href="a00168.html" target="_top" xlink:title="RMF::decorator::TypedConst">
<polygon fill="none" stroke="red" points="131.806,-0 131.806,-20 276.194,-20 276.194,-0 131.806,-0"/>
<text text-anchor="middle" x="204" y="-6" font-family="Helvetica,sans-Serif" font-size="10.00">RMF::decorator::TypedConst</text>
</a>
</g>
</g>
<!-- Node1&#45;&gt;Node49 -->
<g id="edge48" class="edge"><title>Node1&#45;&gt;Node49</title>
<path fill="none" stroke="midnightblue" d="M44.9347,-572.572C45.0663,-481.366 50.2139,-112.264 124,-30 127.59,-25.9978 131.854,-22.7431 136.515,-20.1021"/>
<polygon fill="midnightblue" stroke="midnightblue" points="41.4347,-572.707 44.9404,-582.705 48.4347,-572.703 41.4347,-572.707"/>
</g>
<!-- Node3 -->
<g id="node3" class="node"><title>Node3</title>
<g id="a_node3"><a xlink:href="a00055.html" target="_top" xlink:title="RMF::decorator::Alias">
<polygon fill="none" stroke="black" points="343.653,-1131 343.653,-1151 456.347,-1151 456.347,-1131 343.653,-1131"/>
<text text-anchor="middle" x="400" y="-1137" font-family="Helvetica,sans-Serif" font-size="10.00">RMF::decorator::Alias</text>
</a>
</g>
</g>
<!-- Node2&#45;&gt;Node3 -->
<g id="edge2" class="edge"><title>Node2&#45;&gt;Node3</title>
<path fill="none" stroke="midnightblue" d="M283.722,-1141C303.772,-1141 324.902,-1141 343.518,-1141"/>
<polygon fill="midnightblue" stroke="midnightblue" points="283.67,-1137.5 273.67,-1141 283.67,-1144.5 283.67,-1137.5"/>
</g>
<!-- Node5 -->
<g id="node5" class="node"><title>Node5</title>
<g id="a_node5"><a xlink:href="a00058.html" target="_top" xlink:title="RMF::decorator::Alternatives">
<polygon fill="none" stroke="black" points="328.367,-1086 328.367,-1106 471.633,-1106 471.633,-1086 328.367,-1086"/>
<text text-anchor="middle" x="400" y="-1092" font-family="Helvetica,sans-Serif" font-size="10.00">RMF::decorator::Alternatives</text>
</a>
</g>
</g>
<!-- Node4&#45;&gt;Node5 -->
<g id="edge4" class="edge"><title>Node4&#45;&gt;Node5</title>
<path fill="none" stroke="midnightblue" d="M285.999,-1096C300.057,-1096 314.576,-1096 328.33,-1096"/>
<polygon fill="midnightblue" stroke="midnightblue" points="285.862,-1092.5 275.862,-1096 285.862,-1099.5 285.862,-1092.5"/>
</g>
<!-- Node7 -->
<g id="node7" class="node"><title>Node7</title>
<g id="a_node7"><a xlink:href="a00062.html" target="_top" xlink:title="RMF::decorator::Atom">
<polygon fill="none" stroke="black" points="342.82,-1041 342.82,-1061 457.18,-1061 457.18,-1041 342.82,-1041"/>
<text text-anchor="middle" x="400" y="-1047" font-family="Helvetica,sans-Serif" font-size="10.00">RMF::decorator::Atom</text>
</a>
</g>
</g>
<!-- Node6&#45;&gt;Node7 -->
<g id="edge6" class="edge"><title>Node6&#45;&gt;Node7</title>
<path fill="none" stroke="midnightblue" d="M284.588,-1051C304.099,-1051 324.582,-1051 342.739,-1051"/>
<polygon fill="midnightblue" stroke="midnightblue" points="284.491,-1047.5 274.49,-1051 284.49,-1054.5 284.491,-1047.5"/>
</g>
<!-- Node9 -->
<g id="node9" class="node"><title>Node9</title>
<g id="a_node9"><a xlink:href="a00065.html" target="_top" xlink:title="RMF::decorator::Ball">
<polygon fill="none" stroke="black" points="346.153,-1002 346.153,-1022 453.847,-1022 453.847,-1002 346.153,-1002"/>
<text text-anchor="middle" x="400" y="-1008" font-family="Helvetica,sans-Serif" font-size="10.00">RMF::decorator::Ball</text>
</a>
</g>
</g>
<!-- Node8&#45;&gt;Node9 -->
<g id="edge8" class="edge"><title>Node8&#45;&gt;Node9</title>
<path fill="none" stroke="midnightblue" d="M281.144,-1012C302.872,-1012 326.064,-1012 346.077,-1012"/>
<polygon fill="midnightblue" stroke="midnightblue" points="280.95,-1008.5 270.95,-1012 280.95,-1015.5 280.95,-1008.5"/>
</g>
<!-- Node11 -->
<g id="node11" class="node"><title>Node11</title>
<g id="a_node11"><a xlink:href="a00068.html" target="_top" xlink:title="RMF::decorator::Bond">
<polygon fill="none" stroke="black" points="342.813,-963 342.813,-983 457.187,-983 457.187,-963 342.813,-963"/>
<text text-anchor="middle" x="400" y="-969" font-family="Helvetica,sans-Serif" font-size="10.00">RMF::decorator::Bond</text>
</a>
</g>
</g>
<!-- Node10&#45;&gt;Node11 -->
<g id="edge10" class="edge"><title>Node10&#45;&gt;Node11</title>
<path fill="none" stroke="midnightblue" d="M284.588,-973C304.099,-973 324.582,-973 342.739,-973"/>
<polygon fill="midnightblue" stroke="midnightblue" points="284.491,-969.5 274.49,-973 284.49,-976.5 284.491,-969.5"/>
</g>
<!-- Node13 -->
<g id="node13" class="node"><title>Node13</title>
<g id="a_node13"><a xlink:href="a00073.html" target="_top" xlink:title="RMF::decorator::Chain">
<polygon fill="none" stroke="black" points="341.426,-924 341.426,-944 458.574,-944 458.574,-924 341.426,-924"/>
<text text-anchor="middle" x="400" y="-930" font-family="Helvetica,sans-Serif" font-size="10.00">RMF::decorator::Chain</text>
</a>
</g>
</g>
<!-- Node12&#45;&gt;Node13 -->
<g id="edge12" class="edge"><title>Node12&#45;&gt;Node13</title>
<path fill="none" stroke="midnightblue" d="M286.077,-934C304.644,-934 324.012,-934 341.357,-934"/>
<polygon fill="midnightblue" stroke="midnightblue" points="285.862,-930.5 275.862,-934 285.862,-937.5 285.862,-930.5"/>
</g>
<!-- Node15 -->
<g id="node15" class="node"><title>Node15</title>
<g id="a_node15"><a xlink:href="a00076.html" target="_top" xlink:title="RMF::decorator::Colored">
<polygon fill="none" stroke="black" points="336.98,-885 336.98,-905 463.02,-905 463.02,-885 336.98,-885"/>
<text text-anchor="middle" x="400" y="-891" font-family="Helvetica,sans-Serif" font-size="10.00">RMF::decorator::Colored</text>
</a>
</g>
</g>
<!-- Node14&#45;&gt;Node15 -->
<g id="edge14" class="edge"><title>Node14&#45;&gt;Node15</title>
<path fill="none" stroke="midnightblue" d="M290.481,-895C306.115,-895 322.154,-895 336.942,-895"/>
<polygon fill="midnightblue" stroke="midnightblue" points="290.283,-891.5 280.283,-895 290.283,-898.5 290.283,-891.5"/>
</g>
<!-- Node17 -->
<g id="node17" class="node"><title>Node17</title>
<g id="a_node17"><a xlink:href="a00084.html" target="_top" xlink:title="RMF::decorator::Copy">
<polygon fill="none" stroke="black" points="342.818,-846 342.818,-866 457.182,-866 457.182,-846 342.818,-846"/>
<text text-anchor="middle" x="400" y="-852" font-family="Helvetica,sans-Serif" font-size="10.00">RMF::decorator::Copy</text>
</a>
</g>
</g>
<!-- Node16&#45;&gt;Node17 -->
<g id="edge16" class="edge"><title>Node16&#45;&gt;Node17</title>
<path fill="none" stroke="midnightblue" d="M284.588,-856C304.099,-856 324.582,-856 342.739,-856"/>
<polygon fill="midnightblue" stroke="midnightblue" points="284.491,-852.5 274.49,-856 284.49,-859.5 284.491,-852.5"/>
</g>
<!-- Node19 -->
<g id="node19" class="node"><title>Node19</title>
<g id="a_node19"><a xlink:href="a00087.html" target="_top" xlink:title="RMF::decorator::Cylinder">
<polygon fill="none" stroke="black" points="336.15,-801 336.15,-821 463.85,-821 463.85,-801 336.15,-801"/>
<text text-anchor="middle" x="400" y="-807" font-family="Helvetica,sans-Serif" font-size="10.00">RMF::decorator::Cylinder</text>
</a>
</g>
</g>
<!-- Node18&#45;&gt;Node19 -->
<g id="edge18" class="edge"><title>Node18&#45;&gt;Node19</title>
<path fill="none" stroke="midnightblue" d="M278.112,-811C297.161,-811 317.522,-811 335.998,-811"/>
<polygon fill="midnightblue" stroke="midnightblue" points="277.986,-807.5 267.986,-811 277.986,-814.5 277.986,-807.5"/>
</g>
<!-- Node21 -->
<g id="node21" class="node"><title>Node21</title>
<g id="a_node21"><a xlink:href="a00095.html" target="_top" xlink:title="RMF::decorator::Diffuser">
<polygon fill="none" stroke="black" points="337.352,-750 337.352,-770 462.648,-770 462.648,-750 337.352,-750"/>
<text text-anchor="middle" x="400" y="-756" font-family="Helvetica,sans-Serif" font-size="10.00">RMF::decorator::Diffuser</text>
</a>
</g>
</g>
<!-- Node20&#45;&gt;Node21 -->
<g id="edge20" class="edge"><title>Node20&#45;&gt;Node21</title>
<path fill="none" stroke="midnightblue" d="M276.855,-760C296.668,-760 317.986,-760 337.178,-760"/>
<polygon fill="midnightblue" stroke="midnightblue" points="276.649,-756.5 266.649,-760 276.649,-763.5 276.649,-756.5"/>
</g>
<!-- Node23 -->
<g id="node23" class="node"><title>Node23</title>
<g id="a_node23"><a xlink:href="a00098.html" target="_top" xlink:title="RMF::decorator::Domain">
<polygon fill="none" stroke="black" points="337.261,-705 337.261,-725 462.739,-725 462.739,-705 337.261,-705"/>
<text text-anchor="middle" x="400" y="-711" font-family="Helvetica,sans-Serif" font-size="10.00">RMF::decorator::Domain</text>
</a>
</g>
</g>
<!-- Node22&#45;&gt;Node23 -->
<g id="edge22" class="edge"><title>Node22&#45;&gt;Node23</title>
<path fill="none" stroke="midnightblue" d="M290.275,-715C306.02,-715 322.185,-715 337.074,-715"/>
<polygon fill="midnightblue" stroke="midnightblue" points="290.005,-711.5 280.005,-715 290.005,-718.5 290.005,-711.5"/>
</g>
<!-- Node25 -->
<g id="node25" class="node"><title>Node25</title>
<g id="a_node25"><a xlink:href="a00101.html" target="_top" xlink:title="RMF::decorator::Ellipsoid">
<polygon fill="none" stroke="black" points="335.87,-660 335.87,-680 464.13,-680 464.13,-660 335.87,-660"/>
<text text-anchor="middle" x="400" y="-666" font-family="Helvetica,sans-Serif" font-size="10.00">RMF::decorator::Ellipsoid</text>
</a>
</g>
</g>
<!-- Node24&#45;&gt;Node25 -->
<g id="edge24" class="edge"><title>Node24&#45;&gt;Node25</title>
<path fill="none" stroke="midnightblue" d="M278.32,-670C297.252,-670 317.467,-670 335.832,-670"/>
<polygon fill="midnightblue" stroke="midnightblue" points="278.254,-666.5 268.254,-670 278.254,-673.5 278.254,-666.5"/>
</g>
<!-- Node27 -->
<g id="node27" class="node"><title>Node27</title>
<g id="a_node27"><a xlink:href="a00106.html" target="_top" xlink:title="RMF::decorator::External">
<polygon fill="none" stroke="black" points="336.148,-609 336.148,-629 463.852,-629 463.852,-609 336.148,-609"/>
<text text-anchor="middle" x="400" y="-615" font-family="Helvetica,sans-Serif" font-size="10.00">RMF::decorator::External</text>
</a>
</g>
</g>
<!-- Node26&#45;&gt;Node27 -->
<g id="edge26" class="edge"><title>Node26&#45;&gt;Node27</title>
<path fill="none" stroke="midnightblue" d="M278.112,-619C297.161,-619 317.522,-619 335.998,-619"/>
<polygon fill="midnightblue" stroke="midnightblue" points="277.986,-615.5 267.986,-619 277.986,-622.5 277.986,-615.5"/>
</g>
<!-- Node29 -->
<g id="node29" class="node"><title>Node29</title>
<g id="a_node29"><a xlink:href="a00113.html" target="_top" xlink:title="RMF::decorator::Fragment">
<polygon fill="none" stroke="black" points="333.094,-558 333.094,-578 466.906,-578 466.906,-558 333.094,-558"/>
<text text-anchor="middle" x="400" y="-564" font-family="Helvetica,sans-Serif" font-size="10.00">RMF::decorator::Fragment</text>
</a>
</g>
</g>
<!-- Node28&#45;&gt;Node29 -->
<g id="edge28" class="edge"><title>Node28&#45;&gt;Node29</title>
<path fill="none" stroke="midnightblue" d="M281.413,-568C298.433,-568 316.339,-568 332.903,-568"/>
<polygon fill="midnightblue" stroke="midnightblue" points="280.95,-564.5 270.95,-568 280.95,-571.5 280.95,-564.5"/>
</g>
<!-- Node31 -->
<g id="node31" class="node"><title>Node31</title>
<g id="a_node31"><a xlink:href="a00116.html" target="_top" xlink:title="RMF::decorator::Gaussian\lParticle">
<polygon fill="none" stroke="black" points="333.367,-501 333.367,-533 466.633,-533 466.633,-501 333.367,-501"/>
<text text-anchor="start" x="341.367" y="-519" font-family="Helvetica,sans-Serif" font-size="10.00">RMF::decorator::Gaussian</text>
<text text-anchor="middle" x="400" y="-507" font-family="Helvetica,sans-Serif" font-size="10.00">Particle</text>
</a>
</g>
</g>
<!-- Node30&#45;&gt;Node31 -->
<g id="edge30" class="edge"><title>Node30&#45;&gt;Node31</title>
<path fill="none" stroke="midnightblue" d="M280.725,-517C298.003,-517 316.228,-517 333.058,-517"/>
<polygon fill="midnightblue" stroke="midnightblue" points="280.68,-513.5 270.68,-517 280.68,-520.5 280.68,-513.5"/>
</g>
<!-- Node33 -->
<g id="node33" class="node"><title>Node33</title>
<g id="a_node33"><a xlink:href="a00123.html" target="_top" xlink:title="RMF::decorator::Intermediate\lParticle">
<polygon fill="none" stroke="black" points="326.697,-450 326.697,-482 473.303,-482 473.303,-450 326.697,-450"/>
<text text-anchor="start" x="334.697" y="-468" font-family="Helvetica,sans-Serif" font-size="10.00">RMF::decorator::Intermediate</text>
<text text-anchor="middle" x="400" y="-456" font-family="Helvetica,sans-Serif" font-size="10.00">Particle</text>
</a>
</g>
</g>
<!-- Node32&#45;&gt;Node33 -->
<g id="edge32" class="edge"><title>Node32&#45;&gt;Node33</title>
<path fill="none" stroke="midnightblue" d="M287.772,-466C300.676,-466 313.923,-466 326.574,-466"/>
<polygon fill="midnightblue" stroke="midnightblue" points="287.514,-462.5 277.514,-466 287.514,-469.5 287.514,-462.5"/>
</g>
<!-- Node35 -->
<g id="node35" class="node"><title>Node35</title>
<g id="a_node35"><a xlink:href="a00128.html" target="_top" xlink:title="RMF::decorator::JournalArticle">
<polygon fill="none" stroke="black" points="324.2,-405 324.2,-425 475.8,-425 475.8,-405 324.2,-405"/>
<text text-anchor="middle" x="400" y="-411" font-family="Helvetica,sans-Serif" font-size="10.00">RMF::decorator::JournalArticle</text>
</a>
</g>
</g>
<!-- Node34&#45;&gt;Node35 -->
<g id="edge34" class="edge"><title>Node34&#45;&gt;Node35</title>
<path fill="none" stroke="midnightblue" d="M290.298,-415C301.59,-415 313.097,-415 324.194,-415"/>
<polygon fill="midnightblue" stroke="midnightblue" points="290.005,-411.5 280.005,-415 290.005,-418.5 290.005,-411.5"/>
</g>
<!-- Node37 -->
<g id="node37" class="node"><title>Node37</title>
<g id="a_node37"><a xlink:href="a00138.html" target="_top" xlink:title="RMF::decorator::Particle">
<polygon fill="none" stroke="black" points="337.818,-354 337.818,-374 462.182,-374 462.182,-354 337.818,-354"/>
<text text-anchor="middle" x="400" y="-360" font-family="Helvetica,sans-Serif" font-size="10.00">RMF::decorator::Particle</text>
</a>
</g>
</g>
<!-- Node36&#45;&gt;Node37 -->
<g id="edge36" class="edge"><title>Node36&#45;&gt;Node37</title>
<path fill="none" stroke="midnightblue" d="M276.422,-364C296.532,-364 318.221,-364 337.684,-364"/>
<polygon fill="midnightblue" stroke="midnightblue" points="276.383,-360.5 266.383,-364 276.383,-367.5 276.383,-360.5"/>
</g>
<!-- Node39 -->
<g id="node39" class="node"><title>Node39</title>
<g id="a_node39"><a xlink:href="a00141.html" target="_top" xlink:title="RMF::decorator::Reference\lFrame">
<polygon fill="none" stroke="black" points="331.421,-297 331.421,-329 468.579,-329 468.579,-297 331.421,-297"/>
<text text-anchor="start" x="339.421" y="-315" font-family="Helvetica,sans-Serif" font-size="10.00">RMF::decorator::Reference</text>
<text text-anchor="middle" x="400" y="-303" font-family="Helvetica,sans-Serif" font-size="10.00">Frame</text>
</a>
</g>
</g>
<!-- Node38&#45;&gt;Node39 -->
<g id="edge38" class="edge"><title>Node38&#45;&gt;Node39</title>
<path fill="none" stroke="midnightblue" d="M282.979,-313C298.99,-313 315.722,-313 331.334,-313"/>
<polygon fill="midnightblue" stroke="midnightblue" points="282.579,-309.5 272.579,-313 282.579,-316.5 282.579,-309.5"/>
</g>
<!-- Node41 -->
<g id="node41" class="node"><title>Node41</title>
<g id="a_node41"><a xlink:href="a00144.html" target="_top" xlink:title="RMF::decorator::Representation">
<polygon fill="none" stroke="black" points="320.579,-252 320.579,-272 479.421,-272 479.421,-252 320.579,-252"/>
<text text-anchor="middle" x="400" y="-258" font-family="Helvetica,sans-Serif" font-size="10.00">RMF::decorator::Representation</text>
</a>
</g>
</g>
<!-- Node40&#45;&gt;Node41 -->
<g id="edge40" class="edge"><title>Node40&#45;&gt;Node41</title>
<path fill="none" stroke="midnightblue" d="M293.696,-262C302.663,-262 311.727,-262 320.576,-262"/>
<polygon fill="midnightblue" stroke="midnightblue" points="293.628,-258.5 283.628,-262 293.628,-265.5 293.628,-258.5"/>
</g>
<!-- Node43 -->
<g id="node43" class="node"><title>Node43</title>
<g id="a_node43"><a xlink:href="a00147.html" target="_top" xlink:title="RMF::decorator::Residue">
<polygon fill="none" stroke="black" points="336.146,-207 336.146,-227 463.854,-227 463.854,-207 336.146,-207"/>
<text text-anchor="middle" x="400" y="-213" font-family="Helvetica,sans-Serif" font-size="10.00">RMF::decorator::Residue</text>
</a>
</g>
</g>
<!-- Node42&#45;&gt;Node43 -->
<g id="edge42" class="edge"><title>Node42&#45;&gt;Node43</title>
<path fill="none" stroke="midnightblue" d="M291.418,-217C306.401,-217 321.725,-217 335.937,-217"/>
<polygon fill="midnightblue" stroke="midnightblue" points="291.117,-213.5 281.117,-217 291.117,-220.5 291.117,-213.5"/>
</g>
<!-- Node45 -->
<g id="node45" class="node"><title>Node45</title>
<g id="a_node45"><a xlink:href="a00151.html" target="_top" xlink:title="RMF::decorator::RigidParticle">
<polygon fill="none" stroke="black" points="326.424,-162 326.424,-182 473.576,-182 473.576,-162 326.424,-162"/>
<text text-anchor="middle" x="400" y="-168" font-family="Helvetica,sans-Serif" font-size="10.00">RMF::decorator::RigidParticle</text>
</a>
</g>
</g>
<!-- Node44&#45;&gt;Node45 -->
<g id="edge44" class="edge"><title>Node44&#45;&gt;Node45</title>
<path fill="none" stroke="midnightblue" d="M287.897,-172C300.609,-172 313.651,-172 326.124,-172"/>
<polygon fill="midnightblue" stroke="midnightblue" points="287.79,-168.5 277.79,-172 287.79,-175.5 287.79,-168.5"/>
</g>
</g>
</svg>
        <g id="navigator" transform="translate(0 0)" fill="#404254">
                <rect fill="#f2f5e9" fill-opacity="0.5" stroke="#606060" stroke-width=".5" x="0" y="0" width="60" height="60"/>
                <use id="zoomplus" xlink:href="#zoomPlus" x="17" y="9" onmousedown="handleZoom(evt,'in')"/>
                <use id="zoomminus" xlink:href="#zoomMin" x="42" y="9" onmousedown="handleZoom(evt,'out')"/>
                <use id="reset" xlink:href="#resetDef" x="30" y="36" onmousedown="handleReset()"/>
                <g id="arrowUp" xlink:href="#dirArrow" transform="translate(30 24)" onmousedown="handlePan(0,-1)">
                  <use xlink:href="#rim" fill="#404040">
                        <set attributeName="fill" to="#808080" begin="arrowUp.mouseover" end="arrowUp.mouseout"/>
                  </use>
                  <path fill="none" stroke="white" stroke-width="1.5" d="M0,-3.0v7 M-2.5,-0.5L0,-3.0L2.5,-0.5"/>
                </g>
                <g id="arrowRight" xlink:href="#dirArrow" transform="rotate(90) translate(36 -43)" onmousedown="handlePan(1,0)">
                  <use xlink:href="#rim" fill="#404040">
                        <set attributeName="fill" to="#808080" begin="arrowRight.mouseover" end="arrowRight.mouseout"/>
                  </use>
                  <path fill="none" stroke="white" stroke-width="1.5" d="M0,-3.0v7 M-2.5,-0.5L0,-3.0L2.5,-0.5"/>
                </g>
                <g id="arrowDown" xlink:href="#dirArrow" transform="rotate(180) translate(-30 -48)" onmousedown="handlePan(0,1)">
                  <use xlink:href="#rim" fill="#404040">
                        <set attributeName="fill" to="#808080" begin="arrowDown.mouseover" end="arrowDown.mouseout"/>
                  </use>
                  <path fill="none" stroke="white" stroke-width="1.5" d="M0,-3.0v7 M-2.5,-0.5L0,-3.0L2.5,-0.5"/>
                </g>
                <g id="arrowLeft" xlink:href="#dirArrow" transform="rotate(270) translate(-36 17)" onmousedown="handlePan(-1,0)">
                  <use xlink:href="#rim" fill="#404040">
                        <set attributeName="fill" to="#808080" begin="arrowLeft.mouseover" end="arrowLeft.mouseout"/>
                  </use>
                  <path fill="none" stroke="white" stroke-width="1.5" d="M0,-3.0v7 M-2.5,-0.5L0,-3.0L2.5,-0.5"/>
                </g>
        </g>
        <svg viewBox="0 0 15 15" width="100%" height="30px" preserveAspectRatio="xMaxYMin meet">
         <g id="arrow_out" transform="scale(0.3 0.3)">
          <a xlink:href="a00402_org.svg" target="_base">
           <rect id="button" ry="5" rx="5" y="6" x="6" height="38" width="38"
                fill="#f2f5e9" fill-opacity="0.5" stroke="#606060" stroke-width="1.0"/>
           <path id="arrow"
             d="M 11.500037,31.436501 C 11.940474,20.09759 22.043105,11.32322 32.158766,21.979434 L 37.068811,17.246167 C 37.068811,17.246167 37.088388,32 37.088388,32 L 22.160133,31.978069 C 22.160133,31.978069 26.997745,27.140456 26.997745,27.140456 C 18.528582,18.264221 13.291696,25.230495 11.500037,31.436501 z"
             style="fill:#404040;"/>
          </a>
         </g>
        </svg>
</svg>
