<?xml version="1.0" encoding="UTF-8" standalone="no"?>
<!DOCTYPE svg PUBLIC "-//W3C//DTD SVG 1.1//EN"
 "http://www.w3.org/Graphics/SVG/1.1/DTD/svg11.dtd">
<!-- Generated by graphviz version 2.34.0 (20131025.1349)
 -->
<!-- Title: RMF::decorator::Colored Pages: 1 -->
<svg width="160pt" height="146pt"
 viewBox="0.00 0.00 160.00 146.00" xmlns="http://www.w3.org/2000/svg" xmlns:xlink="http://www.w3.org/1999/xlink">
<g id="graph0" class="graph" transform="scale(1 1) rotate(0) translate(4 142)">
<title>RMF::decorator::Colored</title>
<!-- Node1 -->
<g id="node1" class="node"><title>Node1</title>
<polygon fill="#bfbfbf" stroke="black" points="12.9805,-1 12.9805,-21 139.02,-21 139.02,-1 12.9805,-1"/>
<text text-anchor="middle" x="76" y="-7" font-family="Helvetica,sans-Serif" font-size="10.00">RMF::decorator::Colored</text>
</g>
<!-- Node2 -->
<g id="node2" class="node"><title>Node2</title>
<g id="a_node2"><a xlink:href="a00077.html" target="_top" xlink:title="RMF::decorator::ColoredConst">
<polygon fill="none" stroke="black" points="-0.0810547,-59 -0.0810547,-79 152.081,-79 152.081,-59 -0.0810547,-59"/>
<text text-anchor="middle" x="76" y="-65" font-family="Helvetica,sans-Serif" font-size="10.00">RMF::decorator::ColoredConst</text>
</a>
</g>
</g>
<!-- Node2&#45;&gt;Node1 -->
<g id="edge1" class="edge"><title>Node2&#45;&gt;Node1</title>
<path fill="none" stroke="midnightblue" d="M76,-48.7065C76,-39.3384 76,-28.5262 76,-21.0752"/>
<polygon fill="midnightblue" stroke="midnightblue" points="72.5001,-48.7527 76,-58.7527 79.5001,-48.7528 72.5001,-48.7527"/>
</g>
<!-- Node3 -->
<g id="node3" class="node"><title>Node3</title>
<g id="a_node3"><a xlink:href="a00094.html" target="_top" xlink:title="RMF::Decorator">
<polygon fill="none" stroke="black" points="32.4385,-117 32.4385,-137 119.562,-137 119.562,-117 32.4385,-117"/>
<text text-anchor="middle" x="76" y="-123" font-family="Helvetica,sans-Serif" font-size="10.00">RMF::Decorator</text>
</a>
</g>
</g>
<!-- Node3&#45;&gt;Node2 -->
<g id="edge2" class="edge"><title>Node3&#45;&gt;Node2</title>
<path fill="none" stroke="midnightblue" d="M76,-106.707C76,-97.3384 76,-86.5262 76,-79.0752"/>
<polygon fill="midnightblue" stroke="midnightblue" points="72.5001,-106.753 76,-116.753 79.5001,-106.753 72.5001,-106.753"/>
</g>
</g>
</svg>
