<?xml version="1.0" encoding="UTF-8" standalone="no"?>
<!DOCTYPE svg PUBLIC "-//W3C//DTD SVG 1.1//EN"
 "http://www.w3.org/Graphics/SVG/1.1/DTD/svg11.dtd">
<!-- Generated by graphviz version 2.34.0 (20131025.1349)
 -->
<!-- Title: RMF::ID&lt; TagT &gt; Pages: 1 -->
<svg width="342pt" height="422pt"
 viewBox="0.00 0.00 342.00 422.00" xmlns="http://www.w3.org/2000/svg" xmlns:xlink="http://www.w3.org/1999/xlink">
<g id="graph0" class="graph" transform="scale(1 1) rotate(0) translate(4 418)">
<title>RMF::ID&lt; TagT &gt;</title>
<!-- Node1 -->
<g id="node1" class="node"><title>Node1</title>
<polygon fill="#bfbfbf" stroke="black" points="-0.166504,-195 -0.166504,-215 92.1665,-215 92.1665,-195 -0.166504,-195"/>
<text text-anchor="middle" x="46" y="-201" font-family="Helvetica,sans-Serif" font-size="10.00">RMF::ID&lt; TagT &gt;</text>
</g>
<!-- Node2 -->
<g id="node2" class="node"><title>Node2</title>
<g id="a_node2"><a xlink:href="a00121.html" target="_top" xlink:title="RMF::ID\&lt; IntsTag \&gt;">
<polygon fill="none" stroke="black" points="218.653,-390 218.653,-410 321.347,-410 321.347,-390 218.653,-390"/>
<text text-anchor="middle" x="270" y="-396" font-family="Helvetica,sans-Serif" font-size="10.00">RMF::ID&lt; IntsTag &gt;</text>
</a>
</g>
</g>
<!-- Node1&#45;&gt;Node2 -->
<g id="edge1" class="edge"><title>Node1&#45;&gt;Node2</title>
<path fill="none" stroke="orange" stroke-dasharray="5,2" d="M48.1551,-225.293C51.3842,-261.513 63.6263,-337.043 110,-375 140.057,-399.602 184.349,-404.858 218.557,-404.524"/>
<polygon fill="orange" stroke="orange" points="51.6227,-224.726 47.3916,-215.012 44.6419,-225.244 51.6227,-224.726"/>
<text text-anchor="middle" x="149" y="-404" font-family="Helvetica,sans-Serif" font-size="10.00"> &lt; IntsTag &gt;</text>
</g>
<!-- Node3 -->
<g id="node3" class="node"><title>Node3</title>
<g id="a_node3"><a xlink:href="a00121.html" target="_top" xlink:title="RMF::ID\&lt; IntTag \&gt;">
<polygon fill="none" stroke="black" points="221.153,-351 221.153,-371 318.847,-371 318.847,-351 221.153,-351"/>
<text text-anchor="middle" x="270" y="-357" font-family="Helvetica,sans-Serif" font-size="10.00">RMF::ID&lt; IntTag &gt;</text>
</a>
</g>
</g>
<!-- Node1&#45;&gt;Node3 -->
<g id="edge2" class="edge"><title>Node1&#45;&gt;Node3</title>
<path fill="none" stroke="orange" stroke-dasharray="5,2" d="M51.2338,-224.895C58.2992,-252.967 75.2833,-303.704 110,-330 141.722,-354.028 186.954,-360.965 221.068,-362.363"/>
<polygon fill="orange" stroke="orange" points="54.6108,-223.965 48.9262,-215.025 47.7946,-225.559 54.6108,-223.965"/>
<text text-anchor="middle" x="149" y="-361" font-family="Helvetica,sans-Serif" font-size="10.00"> &lt; IntTag &gt;</text>
</g>
<!-- Node4 -->
<g id="node4" class="node"><title>Node4</title>
<g id="a_node4"><a xlink:href="a00121.html" target="_top" xlink:title="RMF::ID\&lt; Vector3sTag \&gt;">
<polygon fill="none" stroke="black" points="207.254,-312 207.254,-332 332.746,-332 332.746,-312 207.254,-312"/>
<text text-anchor="middle" x="270" y="-318" font-family="Helvetica,sans-Serif" font-size="10.00">RMF::ID&lt; Vector3sTag &gt;</text>
</a>
</g>
</g>
<!-- Node1&#45;&gt;Node4 -->
<g id="edge3" class="edge"><title>Node1&#45;&gt;Node4</title>
<path fill="none" stroke="orange" stroke-dasharray="5,2" d="M56.5212,-224.11C66.9902,-243.079 85.6148,-271.501 110,-287 138.864,-305.346 175.964,-314.168 207.065,-318.371"/>
<polygon fill="orange" stroke="orange" points="59.5659,-222.38 51.8027,-215.17 53.3753,-225.648 59.5659,-222.38"/>
<text text-anchor="middle" x="149" y="-316" font-family="Helvetica,sans-Serif" font-size="10.00"> &lt; Vector3sTag &gt;</text>
</g>
<!-- Node5 -->
<g id="node5" class="node"><title>Node5</title>
<g id="a_node5"><a xlink:href="a00121.html" target="_top" xlink:title="RMF::ID\&lt; FrameTag \&gt;">
<polygon fill="none" stroke="black" points="212.266,-273 212.266,-293 327.734,-293 327.734,-273 212.266,-273"/>
<text text-anchor="middle" x="270" y="-279" font-family="Helvetica,sans-Serif" font-size="10.00">RMF::ID&lt; FrameTag &gt;</text>
</a>
</g>
</g>
<!-- Node1&#45;&gt;Node5 -->
<g id="edge4" class="edge"><title>Node1&#45;&gt;Node5</title>
<path fill="none" stroke="orange" stroke-dasharray="5,2" d="M66.5473,-221.73C78.4054,-231.062 94.2482,-242.151 110,-249 142.359,-263.07 181.026,-271.506 212.125,-276.456"/>
<polygon fill="orange" stroke="orange" points="68.6429,-218.923 58.6754,-215.331 64.2275,-224.355 68.6429,-218.923"/>
<text text-anchor="middle" x="149" y="-273" font-family="Helvetica,sans-Serif" font-size="10.00"> &lt; FrameTag &gt;</text>
</g>
<!-- Node6 -->
<g id="node6" class="node"><title>Node6</title>
<g id="a_node6"><a xlink:href="a00121.html" target="_top" xlink:title="RMF::ID\&lt; StringsTag \&gt;">
<polygon fill="none" stroke="black" points="211.15,-234 211.15,-254 328.85,-254 328.85,-234 211.15,-234"/>
<text text-anchor="middle" x="270" y="-240" font-family="Helvetica,sans-Serif" font-size="10.00">RMF::ID&lt; StringsTag &gt;</text>
</a>
</g>
</g>
<!-- Node1&#45;&gt;Node6 -->
<g id="edge5" class="edge"><title>Node1&#45;&gt;Node6</title>
<path fill="none" stroke="orange" stroke-dasharray="5,2" d="M93.6214,-217.422C99.1231,-218.715 104.673,-219.941 110,-221 143.238,-227.606 180.741,-233.122 210.974,-237.095"/>
<polygon fill="orange" stroke="orange" points="94.3733,-214.003 83.8297,-215.044 92.7211,-220.805 94.3733,-214.003"/>
<text text-anchor="middle" x="149" y="-235" font-family="Helvetica,sans-Serif" font-size="10.00"> &lt; StringsTag &gt;</text>
</g>
<!-- Node7 -->
<g id="node7" class="node"><title>Node7</title>
<g id="a_node7"><a xlink:href="a00121.html" target="_top" xlink:title="RMF::ID\&lt; CategoryTag \&gt;">
<polygon fill="none" stroke="black" points="206.424,-195 206.424,-215 333.576,-215 333.576,-195 206.424,-195"/>
<text text-anchor="middle" x="270" y="-201" font-family="Helvetica,sans-Serif" font-size="10.00">RMF::ID&lt; CategoryTag &gt;</text>
</a>
</g>
</g>
<!-- Node1&#45;&gt;Node7 -->
<g id="edge6" class="edge"><title>Node1&#45;&gt;Node7</title>
<path fill="none" stroke="orange" stroke-dasharray="5,2" d="M102.548,-205C134.052,-205 173.575,-205 206.203,-205"/>
<polygon fill="orange" stroke="orange" points="102.193,-201.5 92.1926,-205 102.193,-208.5 102.193,-201.5"/>
<text text-anchor="middle" x="149" y="-207" font-family="Helvetica,sans-Serif" font-size="10.00"> &lt; CategoryTag &gt;</text>
</g>
<!-- Node8 -->
<g id="node8" class="node"><title>Node8</title>
<g id="a_node8"><a xlink:href="a00121.html" target="_top" xlink:title="RMF::ID\&lt; NodeTag \&gt;">
<polygon fill="none" stroke="black" points="214.759,-156 214.759,-176 325.241,-176 325.241,-156 214.759,-156"/>
<text text-anchor="middle" x="270" y="-162" font-family="Helvetica,sans-Serif" font-size="10.00">RMF::ID&lt; NodeTag &gt;</text>
</a>
</g>
</g>
<!-- Node1&#45;&gt;Node8 -->
<g id="edge7" class="edge"><title>Node1&#45;&gt;Node8</title>
<path fill="none" stroke="orange" stroke-dasharray="5,2" d="M93.6214,-192.578C99.1231,-191.285 104.673,-190.059 110,-189 144.606,-182.122 183.835,-176.426 214.669,-172.422"/>
<polygon fill="orange" stroke="orange" points="92.7211,-189.195 83.8297,-194.956 94.3733,-195.997 92.7211,-189.195"/>
<text text-anchor="middle" x="149" y="-191" font-family="Helvetica,sans-Serif" font-size="10.00"> &lt; NodeTag &gt;</text>
</g>
<!-- Node9 -->
<g id="node9" class="node"><title>Node9</title>
<g id="a_node9"><a xlink:href="a00121.html" target="_top" xlink:title="RMF::ID\&lt; Vector4Tag \&gt;">
<polygon fill="none" stroke="black" points="209.754,-117 209.754,-137 330.246,-137 330.246,-117 209.754,-117"/>
<text text-anchor="middle" x="270" y="-123" font-family="Helvetica,sans-Serif" font-size="10.00">RMF::ID&lt; Vector4Tag &gt;</text>
</a>
</g>
</g>
<!-- Node1&#45;&gt;Node9 -->
<g id="edge8" class="edge"><title>Node1&#45;&gt;Node9</title>
<path fill="none" stroke="orange" stroke-dasharray="5,2" d="M66.0296,-188.197C77.9075,-178.563 93.9475,-167.024 110,-160 141.381,-146.269 178.79,-138.139 209.437,-133.385"/>
<polygon fill="orange" stroke="orange" points="63.5884,-185.677 58.1756,-194.784 68.0867,-191.04 63.5884,-185.677"/>
<text text-anchor="middle" x="149" y="-162" font-family="Helvetica,sans-Serif" font-size="10.00"> &lt; Vector4Tag &gt;</text>
</g>
<!-- Node10 -->
<g id="node10" class="node"><title>Node10</title>
<g id="a_node10"><a xlink:href="a00121.html" target="_top" xlink:title="RMF::ID\&lt; Vector3Tag \&gt;">
<polygon fill="none" stroke="black" points="209.754,-78 209.754,-98 330.246,-98 330.246,-78 209.754,-78"/>
<text text-anchor="middle" x="270" y="-84" font-family="Helvetica,sans-Serif" font-size="10.00">RMF::ID&lt; Vector3Tag &gt;</text>
</a>
</g>
</g>
<!-- Node1&#45;&gt;Node10 -->
<g id="edge9" class="edge"><title>Node1&#45;&gt;Node10</title>
<path fill="none" stroke="orange" stroke-dasharray="5,2" d="M56.201,-185.673C66.5129,-166.193 85.1048,-136.816 110,-121 139.626,-102.178 178.042,-93.8588 209.692,-90.2779"/>
<polygon fill="orange" stroke="orange" points="52.9587,-184.329 51.5737,-194.833 59.2068,-187.485 52.9587,-184.329"/>
<text text-anchor="middle" x="149" y="-123" font-family="Helvetica,sans-Serif" font-size="10.00"> &lt; Vector3Tag &gt;</text>
</g>
<!-- Node11 -->
<g id="node11" class="node"><title>Node11</title>
<g id="a_node11"><a xlink:href="a00121.html" target="_top" xlink:title="RMF::ID\&lt; StringTag \&gt;">
<polygon fill="none" stroke="black" points="213.65,-39 213.65,-59 326.35,-59 326.35,-39 213.65,-39"/>
<text text-anchor="middle" x="270" y="-45" font-family="Helvetica,sans-Serif" font-size="10.00">RMF::ID&lt; StringTag &gt;</text>
</a>
</g>
</g>
<!-- Node1&#45;&gt;Node11 -->
<g id="edge10" class="edge"><title>Node1&#45;&gt;Node11</title>
<path fill="none" stroke="orange" stroke-dasharray="5,2" d="M51.0932,-184.736C57.9868,-156.153 74.7626,-104.53 110,-78 139.365,-55.8907 180.312,-48.8151 213.298,-47.1765"/>
<polygon fill="orange" stroke="orange" points="47.6122,-184.266 48.8503,-194.788 54.4442,-185.79 47.6122,-184.266"/>
<text text-anchor="middle" x="149" y="-80" font-family="Helvetica,sans-Serif" font-size="10.00"> &lt; StringTag &gt;</text>
</g>
<!-- Node12 -->
<g id="node12" class="node"><title>Node12</title>
<g id="a_node12"><a xlink:href="a00121.html" target="_top" xlink:title="RMF::ID\&lt; FloatTag \&gt;">
<polygon fill="none" stroke="black" points="215.596,-0 215.596,-20 324.404,-20 324.404,-0 215.596,-0"/>
<text text-anchor="middle" x="270" y="-6" font-family="Helvetica,sans-Serif" font-size="10.00">RMF::ID&lt; FloatTag &gt;</text>
</a>
</g>
</g>
<!-- Node1&#45;&gt;Node12 -->
<g id="edge11" class="edge"><title>Node1&#45;&gt;Node12</title>
<path fill="none" stroke="orange" stroke-dasharray="5,2" d="M48.0285,-184.418C51.0548,-147.693 62.9836,-71.1508 110,-33 139.13,-9.3626 181.541,-4.21412 215.236,-4.65151"/>
<polygon fill="orange" stroke="orange" points="44.5063,-184.631 47.3256,-194.844 51.4904,-185.102 44.5063,-184.631"/>
<text text-anchor="middle" x="149" y="-35" font-family="Helvetica,sans-Serif" font-size="10.00"> &lt; FloatTag &gt;</text>
</g>
</g>
</svg>
