<?xml version="1.0" encoding="UTF-8" standalone="no"?>
<!DOCTYPE svg PUBLIC "-//W3C//DTD SVG 1.1//EN"
 "http://www.w3.org/Graphics/SVG/1.1/DTD/svg11.dtd">
<!-- Generated by graphviz version 2.34.0 (20131025.1349)
 -->
<!-- Title: RMF::decorator::IntermediateParticleConst Pages: 1 -->
<svg width="154pt" height="170pt"
 viewBox="0.00 0.00 154.00 170.00" xmlns="http://www.w3.org/2000/svg" xmlns:xlink="http://www.w3.org/1999/xlink">
<g id="graph0" class="graph" transform="scale(1 1) rotate(0) translate(4 166)">
<title>RMF::decorator::IntermediateParticleConst</title>
<!-- Node1 -->
<g id="node1" class="node"><title>Node1</title>
<polygon fill="#bfbfbf" stroke="black" points="-0.302734,-71 -0.302734,-103 146.303,-103 146.303,-71 -0.302734,-71"/>
<text text-anchor="start" x="7.69727" y="-89" font-family="Helvetica,sans-Serif" font-size="10.00">RMF::decorator::Intermediate</text>
<text text-anchor="middle" x="73" y="-77" font-family="Helvetica,sans-Serif" font-size="10.00">ParticleConst</text>
</g>
<!-- Node3 -->
<g id="node3" class="node"><title>Node3</title>
<g id="a_node3"><a xlink:href="a00123.html" target="_top" xlink:title="RMF::decorator::Intermediate\lParticle">
<polygon fill="none" stroke="black" points="-0.302734,-1 -0.302734,-33 146.303,-33 146.303,-1 -0.302734,-1"/>
<text text-anchor="start" x="7.69727" y="-19" font-family="Helvetica,sans-Serif" font-size="10.00">RMF::decorator::Intermediate</text>
<text text-anchor="middle" x="73" y="-7" font-family="Helvetica,sans-Serif" font-size="10.00">Particle</text>
</a>
</g>
</g>
<!-- Node1&#45;&gt;Node3 -->
<g id="edge2" class="edge"><title>Node1&#45;&gt;Node3</title>
<path fill="none" stroke="midnightblue" d="M73,-60.6174C73,-51.3378 73,-41.1413 73,-33.0492"/>
<polygon fill="midnightblue" stroke="midnightblue" points="69.5001,-60.9086 73,-70.9086 76.5001,-60.9086 69.5001,-60.9086"/>
</g>
<!-- Node2 -->
<g id="node2" class="node"><title>Node2</title>
<g id="a_node2"><a xlink:href="a00094.html" target="_top" xlink:title="RMF::Decorator">
<polygon fill="none" stroke="black" points="29.4385,-141 29.4385,-161 116.562,-161 116.562,-141 29.4385,-141"/>
<text text-anchor="middle" x="73" y="-147" font-family="Helvetica,sans-Serif" font-size="10.00">RMF::Decorator</text>
</a>
</g>
</g>
<!-- Node2&#45;&gt;Node1 -->
<g id="edge1" class="edge"><title>Node2&#45;&gt;Node1</title>
<path fill="none" stroke="midnightblue" d="M73,-130.775C73,-121.986 73,-111.715 73,-103.44"/>
<polygon fill="midnightblue" stroke="midnightblue" points="69.5001,-130.852 73,-140.852 76.5001,-130.852 69.5001,-130.852"/>
</g>
</g>
</svg>
