<?xml version="1.0" encoding="UTF-8" standalone="no"?>
<!DOCTYPE svg PUBLIC "-//W3C//DTD SVG 1.1//EN"
 "http://www.w3.org/Graphics/SVG/1.1/DTD/svg11.dtd">
<!-- Generated by graphviz version 2.34.0 (20131025.1349)
 -->
<!-- Title: RMF::decorator::SegmentConst Pages: 1 -->
<svg width="164pt" height="146pt"
 viewBox="0.00 0.00 164.00 146.00" xmlns="http://www.w3.org/2000/svg" xmlns:xlink="http://www.w3.org/1999/xlink">
<g id="graph0" class="graph" transform="scale(1 1) rotate(0) translate(4 142)">
<title>RMF::decorator::SegmentConst</title>
<!-- Node1 -->
<g id="node1" class="node"><title>Node1</title>
<polygon fill="#bfbfbf" stroke="black" points="-0.583496,-59 -0.583496,-79 156.583,-79 156.583,-59 -0.583496,-59"/>
<text text-anchor="middle" x="78" y="-65" font-family="Helvetica,sans-Serif" font-size="10.00">RMF::decorator::SegmentConst</text>
</g>
<!-- Node3 -->
<g id="node3" class="node"><title>Node3</title>
<g id="a_node3"><a xlink:href="a00157.html" target="_top" xlink:title="RMF::decorator::Segment">
<polygon fill="none" stroke="black" points="12.478,-1 12.478,-21 143.522,-21 143.522,-1 12.478,-1"/>
<text text-anchor="middle" x="78" y="-7" font-family="Helvetica,sans-Serif" font-size="10.00">RMF::decorator::Segment</text>
</a>
</g>
</g>
<!-- Node1&#45;&gt;Node3 -->
<g id="edge2" class="edge"><title>Node1&#45;&gt;Node3</title>
<path fill="none" stroke="midnightblue" d="M78,-48.7065C78,-39.3384 78,-28.5262 78,-21.0752"/>
<polygon fill="midnightblue" stroke="midnightblue" points="74.5001,-48.7527 78,-58.7527 81.5001,-48.7528 74.5001,-48.7527"/>
</g>
<!-- Node2 -->
<g id="node2" class="node"><title>Node2</title>
<g id="a_node2"><a xlink:href="a00094.html" target="_top" xlink:title="RMF::Decorator">
<polygon fill="none" stroke="black" points="34.4385,-117 34.4385,-137 121.562,-137 121.562,-117 34.4385,-117"/>
<text text-anchor="middle" x="78" y="-123" font-family="Helvetica,sans-Serif" font-size="10.00">RMF::Decorator</text>
</a>
</g>
</g>
<!-- Node2&#45;&gt;Node1 -->
<g id="edge1" class="edge"><title>Node2&#45;&gt;Node1</title>
<path fill="none" stroke="midnightblue" d="M78,-106.707C78,-97.3384 78,-86.5262 78,-79.0752"/>
<polygon fill="midnightblue" stroke="midnightblue" points="74.5001,-106.753 78,-116.753 81.5001,-106.753 74.5001,-106.753"/>
</g>
</g>
</svg>
