<?xml version="1.0" encoding="UTF-8" standalone="no"?>
<!DOCTYPE svg PUBLIC "-//W3C//DTD SVG 1.1//EN"
 "http://www.w3.org/Graphics/SVG/1.1/DTD/svg11.dtd">
<!-- Generated by graphviz version 2.34.0 (20131025.1349)
 -->
<!-- Title: RMF::decorator::ReferenceFrame Pages: 1 -->
<svg width="144pt" height="170pt"
 viewBox="0.00 0.00 144.00 170.00" xmlns="http://www.w3.org/2000/svg" xmlns:xlink="http://www.w3.org/1999/xlink">
<g id="graph0" class="graph" transform="scale(1 1) rotate(0) translate(4 166)">
<title>RMF::decorator::ReferenceFrame</title>
<!-- Node1 -->
<g id="node1" class="node"><title>Node1</title>
<polygon fill="#bfbfbf" stroke="black" points="-0.578613,-1 -0.578613,-33 136.579,-33 136.579,-1 -0.578613,-1"/>
<text text-anchor="start" x="7.42139" y="-19" font-family="Helvetica,sans-Serif" font-size="10.00">RMF::decorator::Reference</text>
<text text-anchor="middle" x="68" y="-7" font-family="Helvetica,sans-Serif" font-size="10.00">Frame</text>
</g>
<!-- Node2 -->
<g id="node2" class="node"><title>Node2</title>
<g id="a_node2"><a xlink:href="a00142.html" target="_top" xlink:title="RMF::decorator::Reference\lFrameConst">
<polygon fill="none" stroke="black" points="-0.578613,-71 -0.578613,-103 136.579,-103 136.579,-71 -0.578613,-71"/>
<text text-anchor="start" x="7.42139" y="-89" font-family="Helvetica,sans-Serif" font-size="10.00">RMF::decorator::Reference</text>
<text text-anchor="middle" x="68" y="-77" font-family="Helvetica,sans-Serif" font-size="10.00">FrameConst</text>
</a>
</g>
</g>
<!-- Node2&#45;&gt;Node1 -->
<g id="edge1" class="edge"><title>Node2&#45;&gt;Node1</title>
<path fill="none" stroke="midnightblue" d="M68,-60.6174C68,-51.3378 68,-41.1413 68,-33.0492"/>
<polygon fill="midnightblue" stroke="midnightblue" points="64.5001,-60.9086 68,-70.9086 71.5001,-60.9086 64.5001,-60.9086"/>
</g>
<!-- Node3 -->
<g id="node3" class="node"><title>Node3</title>
<g id="a_node3"><a xlink:href="a00094.html" target="_top" xlink:title="RMF::Decorator">
<polygon fill="none" stroke="black" points="24.4385,-141 24.4385,-161 111.562,-161 111.562,-141 24.4385,-141"/>
<text text-anchor="middle" x="68" y="-147" font-family="Helvetica,sans-Serif" font-size="10.00">RMF::Decorator</text>
</a>
</g>
</g>
<!-- Node3&#45;&gt;Node2 -->
<g id="edge2" class="edge"><title>Node3&#45;&gt;Node2</title>
<path fill="none" stroke="midnightblue" d="M68,-130.775C68,-121.986 68,-111.715 68,-103.44"/>
<polygon fill="midnightblue" stroke="midnightblue" points="64.5001,-130.852 68,-140.852 71.5001,-130.852 64.5001,-130.852"/>
</g>
</g>
</svg>
