<?xml version="1.0" encoding="UTF-8" standalone="no"?>
<!DOCTYPE svg PUBLIC "-//W3C//DTD SVG 1.1//EN"
 "http://www.w3.org/Graphics/SVG/1.1/DTD/svg11.dtd">
<!-- Generated by graphviz version 2.34.0 (20131025.1349)
 -->
<!-- Title: RMF::decorator::GaussianParticle Pages: 1 -->
<svg width="140pt" height="170pt"
 viewBox="0.00 0.00 140.00 170.00" xmlns="http://www.w3.org/2000/svg" xmlns:xlink="http://www.w3.org/1999/xlink">
<g id="graph0" class="graph" transform="scale(1 1) rotate(0) translate(4 166)">
<title>RMF::decorator::GaussianParticle</title>
<!-- Node1 -->
<g id="node1" class="node"><title>Node1</title>
<polygon fill="#bfbfbf" stroke="black" points="-0.632812,-1 -0.632812,-33 132.633,-33 132.633,-1 -0.632812,-1"/>
<text text-anchor="start" x="7.36719" y="-19" font-family="Helvetica,sans-Serif" font-size="10.00">RMF::decorator::Gaussian</text>
<text text-anchor="middle" x="66" y="-7" font-family="Helvetica,sans-Serif" font-size="10.00">Particle</text>
</g>
<!-- Node2 -->
<g id="node2" class="node"><title>Node2</title>
<g id="a_node2"><a xlink:href="a00117.html" target="_top" xlink:title="RMF::decorator::Gaussian\lParticleConst">
<polygon fill="none" stroke="black" points="-0.632812,-71 -0.632812,-103 132.633,-103 132.633,-71 -0.632812,-71"/>
<text text-anchor="start" x="7.36719" y="-89" font-family="Helvetica,sans-Serif" font-size="10.00">RMF::decorator::Gaussian</text>
<text text-anchor="middle" x="66" y="-77" font-family="Helvetica,sans-Serif" font-size="10.00">ParticleConst</text>
</a>
</g>
</g>
<!-- Node2&#45;&gt;Node1 -->
<g id="edge1" class="edge"><title>Node2&#45;&gt;Node1</title>
<path fill="none" stroke="midnightblue" d="M66,-60.6174C66,-51.3378 66,-41.1413 66,-33.0492"/>
<polygon fill="midnightblue" stroke="midnightblue" points="62.5001,-60.9086 66,-70.9086 69.5001,-60.9086 62.5001,-60.9086"/>
</g>
<!-- Node3 -->
<g id="node3" class="node"><title>Node3</title>
<g id="a_node3"><a xlink:href="a00094.html" target="_top" xlink:title="RMF::Decorator">
<polygon fill="none" stroke="black" points="22.4385,-141 22.4385,-161 109.562,-161 109.562,-141 22.4385,-141"/>
<text text-anchor="middle" x="66" y="-147" font-family="Helvetica,sans-Serif" font-size="10.00">RMF::Decorator</text>
</a>
</g>
</g>
<!-- Node3&#45;&gt;Node2 -->
<g id="edge2" class="edge"><title>Node3&#45;&gt;Node2</title>
<path fill="none" stroke="midnightblue" d="M66,-130.775C66,-121.986 66,-111.715 66,-103.44"/>
<polygon fill="midnightblue" stroke="midnightblue" points="62.5001,-130.852 66,-140.852 69.5001,-130.852 62.5001,-130.852"/>
</g>
</g>
</svg>
