<?xml version="1.0" encoding="UTF-8" standalone="no"?>
<!DOCTYPE svg PUBLIC "-//W3C//DTD SVG 1.1//EN"
 "http://www.w3.org/Graphics/SVG/1.1/DTD/svg11.dtd">
<!-- Generated by graphviz version 2.34.0 (20131025.1349)
 -->
<!-- Title: RMF::HDF5::ConstFile Pages: 1 -->
<svg width="272pt" height="244pt"
 viewBox="0.00 0.00 272.00 244.00" xmlns="http://www.w3.org/2000/svg" xmlns:xlink="http://www.w3.org/1999/xlink">
<g id="graph0" class="graph" transform="scale(1 1) rotate(0) translate(4 240)">
<title>RMF::HDF5::ConstFile</title>
<!-- Node1 -->
<g id="node1" class="node"><title>Node1</title>
<polygon fill="#bfbfbf" stroke="black" points="63.4385,-1 63.4385,-21 180.562,-21 180.562,-1 63.4385,-1"/>
<text text-anchor="middle" x="122" y="-7" font-family="Helvetica,sans-Serif" font-size="10.00">RMF::HDF5::ConstFile</text>
</g>
<!-- Node2 -->
<g id="node2" class="node"><title>Node2</title>
<g id="a_node2"><a xlink:href="a00082.html" target="_top" xlink:title="RMF::HDF5::ConstGroup">
<polygon fill="none" stroke="black" points="57.5986,-61 57.5986,-81 186.401,-81 186.401,-61 57.5986,-61"/>
<text text-anchor="middle" x="122" y="-67" font-family="Helvetica,sans-Serif" font-size="10.00">RMF::HDF5::ConstGroup</text>
</a>
</g>
</g>
<!-- Node2&#45;&gt;Node1 -->
<g id="edge1" class="edge"><title>Node2&#45;&gt;Node1</title>
<path fill="none" stroke="midnightblue" d="M122,-50.7309C122,-40.7807 122,-29.1016 122,-21.1903"/>
<polygon fill="midnightblue" stroke="midnightblue" points="118.5,-50.9375 122,-60.9375 125.5,-50.9375 118.5,-50.9375"/>
</g>
<!-- Node3 -->
<g id="node3" class="node"><title>Node3</title>
<g id="a_node3"><a xlink:href="a00079.html" target="_top" xlink:title="RMF::HDF5::ConstAttributes\l\&lt; Object \&gt;">
<polygon fill="none" stroke="black" points="50.3745,-121 50.3745,-153 193.625,-153 193.625,-121 50.3745,-121"/>
<text text-anchor="start" x="58.3745" y="-139" font-family="Helvetica,sans-Serif" font-size="10.00">RMF::HDF5::ConstAttributes</text>
<text text-anchor="middle" x="122" y="-127" font-family="Helvetica,sans-Serif" font-size="10.00">&lt; Object &gt;</text>
</a>
</g>
</g>
<!-- Node3&#45;&gt;Node2 -->
<g id="edge2" class="edge"><title>Node3&#45;&gt;Node2</title>
<path fill="none" stroke="midnightblue" d="M122,-110.611C122,-100.286 122,-89.0006 122,-81.3126"/>
<polygon fill="midnightblue" stroke="midnightblue" points="118.5,-110.833 122,-120.833 125.5,-110.833 118.5,-110.833"/>
</g>
<!-- Node4 -->
<g id="node4" class="node"><title>Node4</title>
<g id="a_node4"><a xlink:href="a00137.html" target="_top" xlink:title="RMF::HDF5::Object">
<polygon fill="none" stroke="black" points="-0.894043,-209 -0.894043,-229 102.894,-229 102.894,-209 -0.894043,-209"/>
<text text-anchor="middle" x="51" y="-215" font-family="Helvetica,sans-Serif" font-size="10.00">RMF::HDF5::Object</text>
</a>
</g>
</g>
<!-- Node4&#45;&gt;Node3 -->
<g id="edge3" class="edge"><title>Node4&#45;&gt;Node3</title>
<path fill="none" stroke="midnightblue" d="M65.8803,-201.233C78.5088,-187.004 96.4657,-166.771 108.64,-153.053"/>
<polygon fill="midnightblue" stroke="midnightblue" points="63.1647,-199.02 59.1446,-208.823 68.4002,-203.667 63.1647,-199.02"/>
</g>
<!-- Node5 -->
<g id="node5" class="node"><title>Node5</title>
<g id="a_node5"><a xlink:href="a00079.html" target="_top" xlink:title="RMF::HDF5::ConstAttributes\l\&lt; Base \&gt;">
<polygon fill="none" stroke="black" points="121.375,-203 121.375,-235 264.625,-235 264.625,-203 121.375,-203"/>
<text text-anchor="start" x="129.375" y="-221" font-family="Helvetica,sans-Serif" font-size="10.00">RMF::HDF5::ConstAttributes</text>
<text text-anchor="middle" x="193" y="-209" font-family="Helvetica,sans-Serif" font-size="10.00">&lt; Base &gt;</text>
</a>
</g>
</g>
<!-- Node5&#45;&gt;Node3 -->
<g id="edge4" class="edge"><title>Node5&#45;&gt;Node3</title>
<path fill="none" stroke="orange" stroke-dasharray="5,2" d="M172.99,-195.454C161.021,-181.968 146.129,-165.188 135.536,-153.252"/>
<polygon fill="orange" stroke="orange" points="170.39,-197.797 179.645,-202.953 175.625,-193.15 170.39,-197.797"/>
<text text-anchor="middle" x="186.458" y="-174" font-family="Helvetica,sans-Serif" font-size="10.00"> &lt; Object &gt;</text>
</g>
</g>
</svg>
