<?xml version="1.0" encoding="UTF-8" standalone="no"?>
<!DOCTYPE svg PUBLIC "-//W3C//DTD SVG 1.1//EN"
 "http://www.w3.org/Graphics/SVG/1.1/DTD/svg11.dtd">
<!-- Generated by graphviz version 2.34.0 (20131025.1349)
 -->
<!-- Title: RMF::HDF5::ConstDataSetD&lt; TypeTraits, D &gt; Pages: 1 -->
<svg width="272pt" height="340pt"
 viewBox="0.00 0.00 272.00 340.00" xmlns="http://www.w3.org/2000/svg" xmlns:xlink="http://www.w3.org/1999/xlink">
<g id="graph0" class="graph" transform="scale(1 1) rotate(0) translate(4 336)">
<title>RMF::HDF5::ConstDataSetD&lt; TypeTraits, D &gt;</title>
<!-- Node1 -->
<g id="node1" class="node"><title>Node1</title>
<polygon fill="#bfbfbf" stroke="black" points="49.8179,-157 49.8179,-189 194.182,-189 194.182,-157 49.8179,-157"/>
<text text-anchor="start" x="57.8179" y="-175" font-family="Helvetica,sans-Serif" font-size="10.00">RMF::HDF5::ConstDataSetD</text>
<text text-anchor="middle" x="122" y="-163" font-family="Helvetica,sans-Serif" font-size="10.00">&lt; TypeTraits, D &gt;</text>
</g>
<!-- Node5 -->
<g id="node5" class="node"><title>Node5</title>
<g id="a_node5"><a xlink:href="a00133.html" target="_top" xlink:title="MutableAttributes\&lt;\l ConstDataSetD\&lt; TypeTraits,\l D \&gt; \&gt;">
<polygon fill="none" stroke="black" points="49.1025,-73 49.1025,-117 194.897,-117 194.897,-73 49.1025,-73"/>
<text text-anchor="start" x="57.1025" y="-103" font-family="Helvetica,sans-Serif" font-size="10.00">MutableAttributes&lt;</text>
<text text-anchor="start" x="57.1025" y="-91" font-family="Helvetica,sans-Serif" font-size="10.00"> ConstDataSetD&lt; TypeTraits,</text>
<text text-anchor="middle" x="122" y="-79" font-family="Helvetica,sans-Serif" font-size="10.00"> D &gt; &gt;</text>
</a>
</g>
</g>
<!-- Node1&#45;&gt;Node5 -->
<g id="edge4" class="edge"><title>Node1&#45;&gt;Node5</title>
<path fill="none" stroke="midnightblue" d="M122,-146.777C122,-137.13 122,-126.24 122,-117.025"/>
<polygon fill="midnightblue" stroke="midnightblue" points="118.5,-146.985 122,-156.985 125.5,-146.985 118.5,-146.985"/>
</g>
<!-- Node2 -->
<g id="node2" class="node"><title>Node2</title>
<g id="a_node2"><a xlink:href="a00079.html" target="_top" xlink:title="ConstDataSetAttributes">
<polygon fill="none" stroke="black" points="61.7515,-229 61.7515,-249 182.249,-249 182.249,-229 61.7515,-229"/>
<text text-anchor="middle" x="122" y="-235" font-family="Helvetica,sans-Serif" font-size="10.00">ConstDataSetAttributes</text>
</a>
</g>
</g>
<!-- Node2&#45;&gt;Node1 -->
<g id="edge1" class="edge"><title>Node2&#45;&gt;Node1</title>
<path fill="none" stroke="midnightblue" d="M122,-218.751C122,-209.247 122,-197.95 122,-189.084"/>
<polygon fill="midnightblue" stroke="midnightblue" points="118.5,-218.83 122,-228.83 125.5,-218.83 118.5,-218.83"/>
</g>
<!-- Node3 -->
<g id="node3" class="node"><title>Node3</title>
<g id="a_node3"><a xlink:href="a00137.html" target="_top" xlink:title="RMF::HDF5::Object">
<polygon fill="none" stroke="black" points="-0.894043,-305 -0.894043,-325 102.894,-325 102.894,-305 -0.894043,-305"/>
<text text-anchor="middle" x="51" y="-311" font-family="Helvetica,sans-Serif" font-size="10.00">RMF::HDF5::Object</text>
</a>
</g>
</g>
<!-- Node3&#45;&gt;Node2 -->
<g id="edge2" class="edge"><title>Node3&#45;&gt;Node2</title>
<path fill="none" stroke="midnightblue" d="M66.92,-297.407C81.22,-282.503 101.688,-261.17 113.223,-249.148"/>
<polygon fill="midnightblue" stroke="midnightblue" points="64.1038,-295.287 59.706,-304.926 69.1549,-300.133 64.1038,-295.287"/>
</g>
<!-- Node4 -->
<g id="node4" class="node"><title>Node4</title>
<g id="a_node4"><a xlink:href="a00079.html" target="_top" xlink:title="RMF::HDF5::ConstAttributes\l\&lt; Base \&gt;">
<polygon fill="none" stroke="black" points="121.375,-299 121.375,-331 264.625,-331 264.625,-299 121.375,-299"/>
<text text-anchor="start" x="129.375" y="-317" font-family="Helvetica,sans-Serif" font-size="10.00">RMF::HDF5::ConstAttributes</text>
<text text-anchor="middle" x="193" y="-305" font-family="Helvetica,sans-Serif" font-size="10.00">&lt; Base &gt;</text>
</a>
</g>
</g>
<!-- Node4&#45;&gt;Node2 -->
<g id="edge3" class="edge"><title>Node4&#45;&gt;Node2</title>
<path fill="none" stroke="orange" stroke-dasharray="5,2" d="M171.14,-291.217C157.581,-277.085 140.891,-259.689 130.867,-249.241"/>
<polygon fill="orange" stroke="orange" points="168.84,-293.874 178.289,-298.667 173.891,-289.028 168.84,-293.874"/>
<text text-anchor="middle" x="184.458" y="-270" font-family="Helvetica,sans-Serif" font-size="10.00"> &lt; Object &gt;</text>
</g>
<!-- Node6 -->
<g id="node6" class="node"><title>Node6</title>
<g id="a_node6"><a xlink:href="a00092.html" target="_top" xlink:title="RMF::HDF5::DataSetD\l\&lt; TypeTraits, D \&gt;">
<polygon fill="none" stroke="black" points="62.8794,-1 62.8794,-33 181.121,-33 181.121,-1 62.8794,-1"/>
<text text-anchor="start" x="70.8794" y="-19" font-family="Helvetica,sans-Serif" font-size="10.00">RMF::HDF5::DataSetD</text>
<text text-anchor="middle" x="122" y="-7" font-family="Helvetica,sans-Serif" font-size="10.00">&lt; TypeTraits, D &gt;</text>
</a>
</g>
</g>
<!-- Node5&#45;&gt;Node6 -->
<g id="edge5" class="edge"><title>Node5&#45;&gt;Node6</title>
<path fill="none" stroke="midnightblue" d="M122,-62.5532C122,-52.3423 122,-41.4804 122,-33.0379"/>
<polygon fill="midnightblue" stroke="midnightblue" points="118.5,-62.8297 122,-72.8298 125.5,-62.8298 118.5,-62.8297"/>
</g>
</g>
</svg>
