<?xml version="1.0" encoding="UTF-8" standalone="no"?>
<!DOCTYPE svg PUBLIC "-//W3C//DTD SVG 1.1//EN"
 "http://www.w3.org/Graphics/SVG/1.1/DTD/svg11.dtd">
<!-- Generated by graphviz version 2.34.0 (20131025.1349)
 -->
<!-- Title: RMF::decorator::RigidParticleConst Pages: 1 -->
<svg width="154pt" height="158pt"
 viewBox="0.00 0.00 154.00 158.00" xmlns="http://www.w3.org/2000/svg" xmlns:xlink="http://www.w3.org/1999/xlink">
<g id="graph0" class="graph" transform="scale(1 1) rotate(0) translate(4 154)">
<title>RMF::decorator::RigidParticleConst</title>
<!-- Node1 -->
<g id="node1" class="node"><title>Node1</title>
<polygon fill="#bfbfbf" stroke="black" points="-0.576172,-59 -0.576172,-91 146.576,-91 146.576,-59 -0.576172,-59"/>
<text text-anchor="start" x="7.42383" y="-77" font-family="Helvetica,sans-Serif" font-size="10.00">RMF::decorator::RigidParticle</text>
<text text-anchor="middle" x="73" y="-65" font-family="Helvetica,sans-Serif" font-size="10.00">Const</text>
</g>
<!-- Node3 -->
<g id="node3" class="node"><title>Node3</title>
<g id="a_node3"><a xlink:href="a00151.html" target="_top" xlink:title="RMF::decorator::RigidParticle">
<polygon fill="none" stroke="black" points="-0.576172,-1 -0.576172,-21 146.576,-21 146.576,-1 -0.576172,-1"/>
<text text-anchor="middle" x="73" y="-7" font-family="Helvetica,sans-Serif" font-size="10.00">RMF::decorator::RigidParticle</text>
</a>
</g>
</g>
<!-- Node1&#45;&gt;Node3 -->
<g id="edge2" class="edge"><title>Node1&#45;&gt;Node3</title>
<path fill="none" stroke="midnightblue" d="M73,-48.922C73,-39.1719 73,-28.6099 73,-21.2904"/>
<polygon fill="midnightblue" stroke="midnightblue" points="69.5001,-48.9915 73,-58.9915 76.5001,-48.9916 69.5001,-48.9915"/>
</g>
<!-- Node2 -->
<g id="node2" class="node"><title>Node2</title>
<g id="a_node2"><a xlink:href="a00094.html" target="_top" xlink:title="RMF::Decorator">
<polygon fill="none" stroke="black" points="29.4385,-129 29.4385,-149 116.562,-149 116.562,-129 29.4385,-129"/>
<text text-anchor="middle" x="73" y="-135" font-family="Helvetica,sans-Serif" font-size="10.00">RMF::Decorator</text>
</a>
</g>
</g>
<!-- Node2&#45;&gt;Node1 -->
<g id="edge1" class="edge"><title>Node2&#45;&gt;Node1</title>
<path fill="none" stroke="midnightblue" d="M73,-118.775C73,-109.986 73,-99.715 73,-91.4404"/>
<polygon fill="midnightblue" stroke="midnightblue" points="69.5001,-118.852 73,-128.852 76.5001,-118.852 69.5001,-118.852"/>
</g>
</g>
</svg>
