<?xml version="1.0" encoding="UTF-8" standalone="no"?>
<!DOCTYPE svg PUBLIC "-//W3C//DTD SVG 1.1//EN"
 "http://www.w3.org/Graphics/SVG/1.1/DTD/svg11.dtd">
<!-- Generated by graphviz version 2.34.0 (20131025.1349)
 -->
<!-- Title: RMF::decorator::JournalArticle Pages: 1 -->
<svg width="158pt" height="158pt"
 viewBox="0.00 0.00 158.00 158.00" xmlns="http://www.w3.org/2000/svg" xmlns:xlink="http://www.w3.org/1999/xlink">
<g id="graph0" class="graph" transform="scale(1 1) rotate(0) translate(4 154)">
<title>RMF::decorator::JournalArticle</title>
<!-- Node1 -->
<g id="node1" class="node"><title>Node1</title>
<polygon fill="#bfbfbf" stroke="black" points="-0.800293,-1 -0.800293,-21 150.8,-21 150.8,-1 -0.800293,-1"/>
<text text-anchor="middle" x="75" y="-7" font-family="Helvetica,sans-Serif" font-size="10.00">RMF::decorator::JournalArticle</text>
</g>
<!-- Node2 -->
<g id="node2" class="node"><title>Node2</title>
<g id="a_node2"><a xlink:href="a00129.html" target="_top" xlink:title="RMF::decorator::JournalArticle\lConst">
<polygon fill="none" stroke="black" points="-0.800293,-59 -0.800293,-91 150.8,-91 150.8,-59 -0.800293,-59"/>
<text text-anchor="start" x="7.19971" y="-77" font-family="Helvetica,sans-Serif" font-size="10.00">RMF::decorator::JournalArticle</text>
<text text-anchor="middle" x="75" y="-65" font-family="Helvetica,sans-Serif" font-size="10.00">Const</text>
</a>
</g>
</g>
<!-- Node2&#45;&gt;Node1 -->
<g id="edge1" class="edge"><title>Node2&#45;&gt;Node1</title>
<path fill="none" stroke="midnightblue" d="M75,-48.922C75,-39.1719 75,-28.6099 75,-21.2904"/>
<polygon fill="midnightblue" stroke="midnightblue" points="71.5001,-48.9915 75,-58.9915 78.5001,-48.9916 71.5001,-48.9915"/>
</g>
<!-- Node3 -->
<g id="node3" class="node"><title>Node3</title>
<g id="a_node3"><a xlink:href="a00094.html" target="_top" xlink:title="RMF::Decorator">
<polygon fill="none" stroke="black" points="31.4385,-129 31.4385,-149 118.562,-149 118.562,-129 31.4385,-129"/>
<text text-anchor="middle" x="75" y="-135" font-family="Helvetica,sans-Serif" font-size="10.00">RMF::Decorator</text>
</a>
</g>
</g>
<!-- Node3&#45;&gt;Node2 -->
<g id="edge2" class="edge"><title>Node3&#45;&gt;Node2</title>
<path fill="none" stroke="midnightblue" d="M75,-118.775C75,-109.986 75,-99.715 75,-91.4404"/>
<polygon fill="midnightblue" stroke="midnightblue" points="71.5001,-118.852 75,-128.852 78.5001,-118.852 71.5001,-118.852"/>
</g>
</g>
</svg>
