<?xml version="1.0" encoding="UTF-8" standalone="no"?>
<!DOCTYPE svg PUBLIC "-//W3C//DTD SVG 1.1//EN"
 "http://www.w3.org/Graphics/SVG/1.1/DTD/svg11.dtd">
<!-- Generated by graphviz version 2.34.0 (20131025.1349)
 -->
<!-- Title: RMF::decorator::ScoreConst Pages: 1 -->
<svg width="150pt" height="146pt"
 viewBox="0.00 0.00 150.00 146.00" xmlns="http://www.w3.org/2000/svg" xmlns:xlink="http://www.w3.org/1999/xlink">
<g id="graph0" class="graph" transform="scale(1 1) rotate(0) translate(4 142)">
<title>RMF::decorator::ScoreConst</title>
<!-- Node1 -->
<g id="node1" class="node"><title>Node1</title>
<polygon fill="#bfbfbf" stroke="black" points="-0.632812,-59 -0.632812,-79 142.633,-79 142.633,-59 -0.632812,-59"/>
<text text-anchor="middle" x="71" y="-65" font-family="Helvetica,sans-Serif" font-size="10.00">RMF::decorator::ScoreConst</text>
</g>
<!-- Node3 -->
<g id="node3" class="node"><title>Node3</title>
<g id="a_node3"><a xlink:href="a00154.html" target="_top" xlink:title="RMF::decorator::Score">
<polygon fill="none" stroke="black" points="12.4287,-1 12.4287,-21 129.571,-21 129.571,-1 12.4287,-1"/>
<text text-anchor="middle" x="71" y="-7" font-family="Helvetica,sans-Serif" font-size="10.00">RMF::decorator::Score</text>
</a>
</g>
</g>
<!-- Node1&#45;&gt;Node3 -->
<g id="edge2" class="edge"><title>Node1&#45;&gt;Node3</title>
<path fill="none" stroke="midnightblue" d="M71,-48.7065C71,-39.3384 71,-28.5262 71,-21.0752"/>
<polygon fill="midnightblue" stroke="midnightblue" points="67.5001,-48.7527 71,-58.7527 74.5001,-48.7528 67.5001,-48.7527"/>
</g>
<!-- Node2 -->
<g id="node2" class="node"><title>Node2</title>
<g id="a_node2"><a xlink:href="a00094.html" target="_top" xlink:title="RMF::Decorator">
<polygon fill="none" stroke="black" points="27.4385,-117 27.4385,-137 114.562,-137 114.562,-117 27.4385,-117"/>
<text text-anchor="middle" x="71" y="-123" font-family="Helvetica,sans-Serif" font-size="10.00">RMF::Decorator</text>
</a>
</g>
</g>
<!-- Node2&#45;&gt;Node1 -->
<g id="edge1" class="edge"><title>Node2&#45;&gt;Node1</title>
<path fill="none" stroke="midnightblue" d="M71,-106.707C71,-97.3384 71,-86.5262 71,-79.0752"/>
<polygon fill="midnightblue" stroke="midnightblue" points="67.5001,-106.753 71,-116.753 74.5001,-106.753 67.5001,-106.753"/>
</g>
</g>
</svg>
