<?xml version="1.0" encoding="UTF-8" standalone="no"?>
<!DOCTYPE svg PUBLIC "-//W3C//DTD SVG 1.1//EN"
 "http://www.w3.org/Graphics/SVG/1.1/DTD/svg11.dtd">
<!-- Generated by graphviz version 2.34.0 (20131025.1349)
 -->
<!-- Title: RMF::HDF5::DataSetD&lt; TypeTraits, D &gt; Pages: 1 -->
<svg width="419pt" height="350pt"
 viewBox="0.00 0.00 419.41 350.00" xmlns="http://www.w3.org/2000/svg" xmlns:xlink="http://www.w3.org/1999/xlink">
<g id="graph0" class="graph" transform="scale(1 1) rotate(0) translate(4 346)">
<title>RMF::HDF5::DataSetD&lt; TypeTraits, D &gt;</title>
<!-- Node1 -->
<g id="node1" class="node"><title>Node1</title>
<polygon fill="#bfbfbf" stroke="black" points="187.879,-1 187.879,-33 306.121,-33 306.121,-1 187.879,-1"/>
<text text-anchor="start" x="195.879" y="-19" font-family="Helvetica,sans-Serif" font-size="10.00">RMF::HDF5::DataSetD</text>
<text text-anchor="middle" x="247" y="-7" font-family="Helvetica,sans-Serif" font-size="10.00">&lt; TypeTraits, D &gt;</text>
</g>
<!-- Node2 -->
<g id="node2" class="node"><title>Node2</title>
<g id="a_node2"><a xlink:href="a00133.html" target="_top" xlink:title="RMF::HDF5::MutableAttributes\l\&lt; ConstDataSetD\&lt; TypeTraits, D \&gt; \&gt;">
<polygon fill="none" stroke="black" points="157.564,-73 157.564,-105 336.436,-105 336.436,-73 157.564,-73"/>
<text text-anchor="start" x="165.564" y="-91" font-family="Helvetica,sans-Serif" font-size="10.00">RMF::HDF5::MutableAttributes</text>
<text text-anchor="middle" x="247" y="-79" font-family="Helvetica,sans-Serif" font-size="10.00">&lt; ConstDataSetD&lt; TypeTraits, D &gt; &gt;</text>
</a>
</g>
</g>
<!-- Node2&#45;&gt;Node1 -->
<g id="edge1" class="edge"><title>Node2&#45;&gt;Node1</title>
<path fill="none" stroke="midnightblue" d="M247,-62.6823C247,-52.7894 247,-41.7764 247,-33.1593"/>
<polygon fill="midnightblue" stroke="midnightblue" points="243.5,-62.811 247,-72.811 250.5,-62.8111 243.5,-62.811"/>
</g>
<!-- Node3 -->
<g id="node3" class="node"><title>Node3</title>
<g id="a_node3"><a xlink:href="a00080.html" target="_top" xlink:title="RMF::HDF5::ConstDataSetD\l\&lt; TypeTraits, D \&gt;">
<polygon fill="none" stroke="black" points="49.8179,-167 49.8179,-199 194.182,-199 194.182,-167 49.8179,-167"/>
<text text-anchor="start" x="57.8179" y="-185" font-family="Helvetica,sans-Serif" font-size="10.00">RMF::HDF5::ConstDataSetD</text>
<text text-anchor="middle" x="122" y="-173" font-family="Helvetica,sans-Serif" font-size="10.00">&lt; TypeTraits, D &gt;</text>
</a>
</g>
</g>
<!-- Node3&#45;&gt;Node2 -->
<g id="edge2" class="edge"><title>Node3&#45;&gt;Node2</title>
<path fill="none" stroke="midnightblue" d="M150.713,-160.867C173.803,-143.873 205.69,-120.404 226.328,-105.214"/>
<polygon fill="midnightblue" stroke="midnightblue" points="148.62,-158.062 142.641,-166.808 152.77,-163.699 148.62,-158.062"/>
</g>
<!-- Node4 -->
<g id="node4" class="node"><title>Node4</title>
<g id="a_node4"><a xlink:href="a00079.html" target="_top" xlink:title="ConstDataSetAttributes">
<polygon fill="none" stroke="black" points="61.7515,-239 61.7515,-259 182.249,-259 182.249,-239 61.7515,-239"/>
<text text-anchor="middle" x="122" y="-245" font-family="Helvetica,sans-Serif" font-size="10.00">ConstDataSetAttributes</text>
</a>
</g>
</g>
<!-- Node4&#45;&gt;Node3 -->
<g id="edge3" class="edge"><title>Node4&#45;&gt;Node3</title>
<path fill="none" stroke="midnightblue" d="M122,-228.751C122,-219.247 122,-207.95 122,-199.084"/>
<polygon fill="midnightblue" stroke="midnightblue" points="118.5,-228.83 122,-238.83 125.5,-228.83 118.5,-228.83"/>
</g>
<!-- Node5 -->
<g id="node5" class="node"><title>Node5</title>
<g id="a_node5"><a xlink:href="a00137.html" target="_top" xlink:title="RMF::HDF5::Object">
<polygon fill="none" stroke="black" points="-0.894043,-315 -0.894043,-335 102.894,-335 102.894,-315 -0.894043,-315"/>
<text text-anchor="middle" x="51" y="-321" font-family="Helvetica,sans-Serif" font-size="10.00">RMF::HDF5::Object</text>
</a>
</g>
</g>
<!-- Node5&#45;&gt;Node4 -->
<g id="edge4" class="edge"><title>Node5&#45;&gt;Node4</title>
<path fill="none" stroke="midnightblue" d="M66.92,-307.407C81.22,-292.503 101.688,-271.17 113.223,-259.148"/>
<polygon fill="midnightblue" stroke="midnightblue" points="64.1038,-305.287 59.706,-314.926 69.1549,-310.133 64.1038,-305.287"/>
</g>
<!-- Node6 -->
<g id="node6" class="node"><title>Node6</title>
<g id="a_node6"><a xlink:href="a00079.html" target="_top" xlink:title="RMF::HDF5::ConstAttributes\l\&lt; Base \&gt;">
<polygon fill="none" stroke="black" points="121.375,-309 121.375,-341 264.625,-341 264.625,-309 121.375,-309"/>
<text text-anchor="start" x="129.375" y="-327" font-family="Helvetica,sans-Serif" font-size="10.00">RMF::HDF5::ConstAttributes</text>
<text text-anchor="middle" x="193" y="-315" font-family="Helvetica,sans-Serif" font-size="10.00">&lt; Base &gt;</text>
</a>
</g>
</g>
<!-- Node6&#45;&gt;Node4 -->
<g id="edge5" class="edge"><title>Node6&#45;&gt;Node4</title>
<path fill="none" stroke="orange" stroke-dasharray="5,2" d="M171.14,-301.217C157.581,-287.085 140.891,-269.689 130.867,-259.241"/>
<polygon fill="orange" stroke="orange" points="168.84,-303.874 178.289,-308.667 173.891,-299.028 168.84,-303.874"/>
<text text-anchor="middle" x="184.458" y="-280" font-family="Helvetica,sans-Serif" font-size="10.00"> &lt; Object &gt;</text>
</g>
<!-- Node7 -->
<g id="node7" class="node"><title>Node7</title>
<g id="a_node7"><a xlink:href="a00133.html" target="_top" xlink:title="RMF::HDF5::MutableAttributes\l\&lt; Base \&gt;">
<polygon fill="none" stroke="black" points="212.648,-167 212.648,-199 365.352,-199 365.352,-167 212.648,-167"/>
<text text-anchor="start" x="220.648" y="-185" font-family="Helvetica,sans-Serif" font-size="10.00">RMF::HDF5::MutableAttributes</text>
<text text-anchor="middle" x="289" y="-173" font-family="Helvetica,sans-Serif" font-size="10.00">&lt; Base &gt;</text>
</a>
</g>
</g>
<!-- Node7&#45;&gt;Node2 -->
<g id="edge6" class="edge"><title>Node7&#45;&gt;Node2</title>
<path fill="none" stroke="orange" stroke-dasharray="5,2" d="M277.891,-157.667C270.293,-141.022 260.454,-119.472 253.946,-105.214"/>
<polygon fill="orange" stroke="orange" points="274.728,-159.165 282.065,-166.808 281.095,-156.258 274.728,-159.165"/>
<text text-anchor="start" x="273" y="-138" font-family="Helvetica,sans-Serif" font-size="10.00"> &lt; ConstDataSetD&lt; TypeTraits,</text>
<text text-anchor="middle" x="342.207" y="-126" font-family="Helvetica,sans-Serif" font-size="10.00"> D &gt; &gt;</text>
</g>
</g>
</svg>
