<?xml version="1.0" encoding="UTF-8" standalone="no"?>
<!DOCTYPE svg PUBLIC "-//W3C//DTD SVG 1.1//EN"
 "http://www.w3.org/Graphics/SVG/1.1/DTD/svg11.dtd">
<!-- Generated by graphviz version 2.34.0 (20131025.1349)
 -->
<!-- Title: RMF::HDF5::Object Pages: 1 -->
<svg width="944pt" height="142pt"
 viewBox="0.00 0.00 944.00 142.00" xmlns="http://www.w3.org/2000/svg" xmlns:xlink="http://www.w3.org/1999/xlink">
<g id="graph0" class="graph" transform="scale(1 1) rotate(0) translate(4 138)">
<title>RMF::HDF5::Object</title>
<!-- Node1 -->
<g id="node1" class="node"><title>Node1</title>
<polygon fill="#bfbfbf" stroke="black" points="0.105957,-70 0.105957,-90 103.894,-90 103.894,-70 0.105957,-70"/>
<text text-anchor="middle" x="52" y="-76" font-family="Helvetica,sans-Serif" font-size="10.00">RMF::HDF5::Object</text>
</g>
<!-- Node2 -->
<g id="node2" class="node"><title>Node2</title>
<g id="a_node2"><a xlink:href="a00079.html" target="_top" xlink:title="RMF::HDF5::ConstAttributes\l\&lt; Object \&gt;">
<polygon fill="none" stroke="black" points="140.375,-64 140.375,-96 283.625,-96 283.625,-64 140.375,-64"/>
<text text-anchor="start" x="148.375" y="-82" font-family="Helvetica,sans-Serif" font-size="10.00">RMF::HDF5::ConstAttributes</text>
<text text-anchor="middle" x="212" y="-70" font-family="Helvetica,sans-Serif" font-size="10.00">&lt; Object &gt;</text>
</a>
</g>
</g>
<!-- Node1&#45;&gt;Node2 -->
<g id="edge1" class="edge"><title>Node1&#45;&gt;Node2</title>
<path fill="none" stroke="midnightblue" d="M114.417,-80C122.849,-80 131.564,-80 140.148,-80"/>
<polygon fill="midnightblue" stroke="midnightblue" points="114.298,-76.5001 104.298,-80 114.298,-83.5001 114.298,-76.5001"/>
</g>
<!-- Node3 -->
<g id="node3" class="node"><title>Node3</title>
<g id="a_node3"><a xlink:href="a00080.html" target="_top" xlink:title="RMF::HDF5::ConstDataSetD\l\&lt; TypeTraits, D \&gt;">
<polygon fill="none" stroke="black" points="319.818,-90 319.818,-122 464.182,-122 464.182,-90 319.818,-90"/>
<text text-anchor="start" x="327.818" y="-108" font-family="Helvetica,sans-Serif" font-size="10.00">RMF::HDF5::ConstDataSetD</text>
<text text-anchor="middle" x="392" y="-96" font-family="Helvetica,sans-Serif" font-size="10.00">&lt; TypeTraits, D &gt;</text>
</a>
</g>
</g>
<!-- Node2&#45;&gt;Node3 -->
<g id="edge2" class="edge"><title>Node2&#45;&gt;Node3</title>
<path fill="none" stroke="midnightblue" d="M293.928,-91.8209C302.559,-93.0817 311.293,-94.3574 319.8,-95.6"/>
<polygon fill="midnightblue" stroke="midnightblue" points="294.263,-88.3328 283.862,-90.3506 293.251,-95.2593 294.263,-88.3328"/>
</g>
<!-- Node6 -->
<g id="node6" class="node"><title>Node6</title>
<g id="a_node6"><a xlink:href="a00082.html" target="_top" xlink:title="RMF::HDF5::ConstGroup">
<polygon fill="none" stroke="black" points="327.599,-45 327.599,-65 456.401,-65 456.401,-45 327.599,-45"/>
<text text-anchor="middle" x="392" y="-51" font-family="Helvetica,sans-Serif" font-size="10.00">RMF::HDF5::ConstGroup</text>
</a>
</g>
</g>
<!-- Node2&#45;&gt;Node6 -->
<g id="edge5" class="edge"><title>Node2&#45;&gt;Node6</title>
<path fill="none" stroke="midnightblue" d="M294.108,-68.6085C305.339,-67.0311 316.739,-65.4299 327.585,-63.9066"/>
<polygon fill="midnightblue" stroke="midnightblue" points="293.278,-65.1906 283.862,-70.0475 294.251,-72.1226 293.278,-65.1906"/>
</g>
<!-- Node4 -->
<g id="node4" class="node"><title>Node4</title>
<g id="a_node4"><a xlink:href="a00133.html" target="_top" xlink:title="MutableAttributes\&lt;\l ConstDataSetD\&lt; TypeTraits,\l D \&gt; \&gt;">
<polygon fill="none" stroke="black" points="504.103,-90 504.103,-134 649.897,-134 649.897,-90 504.103,-90"/>
<text text-anchor="start" x="512.103" y="-120" font-family="Helvetica,sans-Serif" font-size="10.00">MutableAttributes&lt;</text>
<text text-anchor="start" x="512.103" y="-108" font-family="Helvetica,sans-Serif" font-size="10.00"> ConstDataSetD&lt; TypeTraits,</text>
<text text-anchor="middle" x="577" y="-96" font-family="Helvetica,sans-Serif" font-size="10.00"> D &gt; &gt;</text>
</a>
</g>
</g>
<!-- Node3&#45;&gt;Node4 -->
<g id="edge3" class="edge"><title>Node3&#45;&gt;Node4</title>
<path fill="none" stroke="midnightblue" d="M474.463,-108.671C484.311,-108.994 494.316,-109.322 504.014,-109.64"/>
<polygon fill="midnightblue" stroke="midnightblue" points="474.386,-105.167 464.277,-108.337 474.156,-112.163 474.386,-105.167"/>
</g>
<!-- Node5 -->
<g id="node5" class="node"><title>Node5</title>
<g id="a_node5"><a xlink:href="a00092.html" target="_top" xlink:title="RMF::HDF5::DataSetD\l\&lt; TypeTraits, D \&gt;">
<polygon fill="none" stroke="black" points="689.879,-96 689.879,-128 808.121,-128 808.121,-96 689.879,-96"/>
<text text-anchor="start" x="697.879" y="-114" font-family="Helvetica,sans-Serif" font-size="10.00">RMF::HDF5::DataSetD</text>
<text text-anchor="middle" x="749" y="-102" font-family="Helvetica,sans-Serif" font-size="10.00">&lt; TypeTraits, D &gt;</text>
</a>
</g>
</g>
<!-- Node4&#45;&gt;Node5 -->
<g id="edge4" class="edge"><title>Node4&#45;&gt;Node5</title>
<path fill="none" stroke="midnightblue" d="M660.377,-112C670.281,-112 680.232,-112 689.693,-112"/>
<polygon fill="midnightblue" stroke="midnightblue" points="660.095,-108.5 650.095,-112 660.095,-115.5 660.095,-108.5"/>
</g>
<!-- Node7 -->
<g id="node7" class="node"><title>Node7</title>
<g id="a_node7"><a xlink:href="a00133.html" target="_top" xlink:title="RMF::HDF5::MutableAttributes\l\&lt; ConstGroup \&gt;">
<polygon fill="none" stroke="black" points="500.648,-39 500.648,-71 653.352,-71 653.352,-39 500.648,-39"/>
<text text-anchor="start" x="508.648" y="-57" font-family="Helvetica,sans-Serif" font-size="10.00">RMF::HDF5::MutableAttributes</text>
<text text-anchor="middle" x="577" y="-45" font-family="Helvetica,sans-Serif" font-size="10.00">&lt; ConstGroup &gt;</text>
</a>
</g>
</g>
<!-- Node6&#45;&gt;Node7 -->
<g id="edge6" class="edge"><title>Node6&#45;&gt;Node7</title>
<path fill="none" stroke="midnightblue" d="M466.578,-55C477.696,-55 489.181,-55 500.342,-55"/>
<polygon fill="midnightblue" stroke="midnightblue" points="466.491,-51.5001 456.491,-55 466.491,-58.5001 466.491,-51.5001"/>
</g>
<!-- Node10 -->
<g id="node10" class="node"><title>Node10</title>
<g id="a_node10"><a xlink:href="a00081.html" target="_top" xlink:title="RMF::HDF5::ConstFile">
<polygon fill="none" stroke="black" points="518.438,-0 518.438,-20 635.562,-20 635.562,-0 518.438,-0"/>
<text text-anchor="middle" x="577" y="-6" font-family="Helvetica,sans-Serif" font-size="10.00">RMF::HDF5::ConstFile</text>
</a>
</g>
</g>
<!-- Node6&#45;&gt;Node10 -->
<g id="edge9" class="edge"><title>Node6&#45;&gt;Node10</title>
<path fill="none" stroke="midnightblue" d="M443.934,-42.4752C472.686,-35.4052 508.137,-26.6876 535.068,-20.0652"/>
<polygon fill="midnightblue" stroke="midnightblue" points="442.944,-39.1144 434.069,-44.9011 444.615,-45.9119 442.944,-39.1144"/>
</g>
<!-- Node8 -->
<g id="node8" class="node"><title>Node8</title>
<g id="a_node8"><a xlink:href="a00119.html" target="_top" xlink:title="RMF::HDF5::Group">
<polygon fill="none" stroke="black" points="697.66,-45 697.66,-65 800.34,-65 800.34,-45 697.66,-45"/>
<text text-anchor="middle" x="749" y="-51" font-family="Helvetica,sans-Serif" font-size="10.00">RMF::HDF5::Group</text>
</a>
</g>
</g>
<!-- Node7&#45;&gt;Node8 -->
<g id="edge7" class="edge"><title>Node7&#45;&gt;Node8</title>
<path fill="none" stroke="midnightblue" d="M663.719,-55C675.305,-55 686.873,-55 697.562,-55"/>
<polygon fill="midnightblue" stroke="midnightblue" points="663.555,-51.5001 653.554,-55 663.554,-58.5001 663.555,-51.5001"/>
</g>
<!-- Node9 -->
<g id="node9" class="node"><title>Node9</title>
<g id="a_node9"><a xlink:href="a00110.html" target="_top" xlink:title="RMF::HDF5::File">
<polygon fill="none" stroke="black" points="844.5,-45 844.5,-65 935.5,-65 935.5,-45 844.5,-45"/>
<text text-anchor="middle" x="890" y="-51" font-family="Helvetica,sans-Serif" font-size="10.00">RMF::HDF5::File</text>
</a>
</g>
</g>
<!-- Node8&#45;&gt;Node9 -->
<g id="edge8" class="edge"><title>Node8&#45;&gt;Node9</title>
<path fill="none" stroke="midnightblue" d="M810.774,-55C822.011,-55 833.557,-55 844.212,-55"/>
<polygon fill="midnightblue" stroke="midnightblue" points="810.575,-51.5001 800.575,-55 810.575,-58.5001 810.575,-51.5001"/>
</g>
</g>
</svg>
