<?xml version="1.0" encoding="UTF-8" standalone="no"?>
<!DOCTYPE svg PUBLIC "-//W3C//DTD SVG 1.1//EN"
 "http://www.w3.org/Graphics/SVG/1.1/DTD/svg11.dtd">
<!-- Generated by graphviz version 2.34.0 (20131025.1349)
 -->
<!-- Title: RMF::HDF5::MutableAttributes&lt; Base &gt; Pages: 1 -->
<!--zoomable 91 -->
<svg id="main" version="1.1" xmlns="http://www.w3.org/2000/svg" xmlns:xlink="http://www.w3.org/1999/xlink" xml:space="preserve" onload="init(evt)">
<style type="text/css"><![CDATA[
.edge:hover path { stroke: red; }
.edge:hover polygon { stroke: red; fill: red; }
]]></style>
<script type="text/javascript"><![CDATA[
var edges = document.getElementsByTagName('g');
if (edges && edges.length) {
  for (var i=0;i<edges.length;i++) {
    if (edges[i].id.substr(0,4)=='edge') {
      edges[i].setAttribute('class','edge');
    }
  }
}
]]></script>
        <defs>
                <circle id="rim" cx="0" cy="0" r="7"/>
                <circle id="rim2" cx="0" cy="0" r="3.5"/>
                <g id="zoomPlus">
                        <use xlink:href="#rim" fill="#404040">
                                <set attributeName="fill" to="#808080" begin="zoomplus.mouseover" end="zoomplus.mouseout"/>
                        </use>
                        <path d="M-4,0h8M0,-4v8" fill="none" stroke="white" stroke-width="1.5" pointer-events="none"/>
                </g>
                <g id="zoomMin">
                        <use xlink:href="#rim" fill="#404040">
                                <set attributeName="fill" to="#808080" begin="zoomminus.mouseover" end="zoomminus.mouseout"/>
                        </use>
                        <path d="M-4,0h8" fill="none" stroke="white" stroke-width="1.5" pointer-events="none"/>
                </g>
                <g id="dirArrow">
                        <path fill="none" stroke="white" stroke-width="1.5" d="M0,-3.0v7 M-2.5,-0.5L0,-3.0L2.5,-0.5"/>
                </g>
               <g id="resetDef">
                       <use xlink:href="#rim2" fill="#404040">
                               <set attributeName="fill" to="#808080" begin="reset.mouseover" end="reset.mouseout"/>
                       </use>
               </g>
        </defs>

<script type="text/javascript">
var viewWidth = 802;
var viewHeight = 91;
var sectionId = 'dynsection-0';
</script>
<script xlink:href="svgpan.js"/>
<svg id="graph" class="graph">
<g id="viewport">
<title>RMF::HDF5::MutableAttributes&lt; Base &gt;</title>
<!-- Node1 -->
<g id="node1" class="node"><title>Node1</title>
<polygon fill="#bfbfbf" stroke="black" points="0.647949,-26 0.647949,-58 153.352,-58 153.352,-26 0.647949,-26"/>
<text text-anchor="start" x="8.64795" y="-44" font-family="Helvetica,sans-Serif" font-size="10.00">RMF::HDF5::MutableAttributes</text>
<text text-anchor="middle" x="77" y="-32" font-family="Helvetica,sans-Serif" font-size="10.00">&lt; Base &gt;</text>
</g>
<!-- Node2 -->
<g id="node2" class="node"><title>Node2</title>
<g id="a_node2"><a xlink:href="a00133.html" target="_top" xlink:title="RMF::HDF5::MutableAttributes\l\&lt; ConstGroup \&gt;">
<polygon fill="none" stroke="black" points="341.648,-51 341.648,-83 494.352,-83 494.352,-51 341.648,-51"/>
<text text-anchor="start" x="349.648" y="-69" font-family="Helvetica,sans-Serif" font-size="10.00">RMF::HDF5::MutableAttributes</text>
<text text-anchor="middle" x="418" y="-57" font-family="Helvetica,sans-Serif" font-size="10.00">&lt; ConstGroup &gt;</text>
</a>
</g>
</g>
<!-- Node1&#45;&gt;Node2 -->
<g id="edge1" class="edge"><title>Node1&#45;&gt;Node2</title>
<path fill="none" stroke="orange" stroke-dasharray="5,2" d="M163.698,-48.3199C218.494,-52.3609 288.904,-57.5534 341.575,-61.4377"/>
<polygon fill="orange" stroke="orange" points="163.887,-44.8244 153.656,-47.5794 163.372,-51.8055 163.887,-44.8244"/>
<text text-anchor="middle" x="241" y="-61" font-family="Helvetica,sans-Serif" font-size="10.00"> &lt; ConstGroup &gt;</text>
</g>
<!-- Node5 -->
<g id="node5" class="node"><title>Node5</title>
<g id="a_node5"><a xlink:href="a00133.html" target="_top" xlink:title="RMF::HDF5::MutableAttributes\l\&lt; ConstDataSetD\&lt; TypeTraits, D \&gt; \&gt;">
<polygon fill="none" stroke="black" points="328.564,-0 328.564,-32 507.436,-32 507.436,-0 328.564,-0"/>
<text text-anchor="start" x="336.564" y="-18" font-family="Helvetica,sans-Serif" font-size="10.00">RMF::HDF5::MutableAttributes</text>
<text text-anchor="middle" x="418" y="-6" font-family="Helvetica,sans-Serif" font-size="10.00">&lt; ConstDataSetD&lt; TypeTraits, D &gt; &gt;</text>
</a>
</g>
</g>
<!-- Node1&#45;&gt;Node5 -->
<g id="edge4" class="edge"><title>Node1&#45;&gt;Node5</title>
<path fill="none" stroke="orange" stroke-dasharray="5,2" d="M156.254,-24.2152C161.565,-23.3589 166.85,-22.6056 172,-22 223.658,-15.925 281.85,-14.2838 328.554,-14.2272"/>
<polygon fill="orange" stroke="orange" points="155.297,-20.8286 146.037,-25.9769 156.486,-27.7268 155.297,-20.8286"/>
<text text-anchor="start" x="171.793" y="-36" font-family="Helvetica,sans-Serif" font-size="10.00"> &lt; ConstDataSetD&lt; TypeTraits,</text>
<text text-anchor="middle" x="241" y="-24" font-family="Helvetica,sans-Serif" font-size="10.00"> D &gt; &gt;</text>
</g>
<!-- Node3 -->
<g id="node3" class="node"><title>Node3</title>
<g id="a_node3"><a xlink:href="a00119.html" target="_top" xlink:title="RMF::HDF5::Group">
<polygon fill="none" stroke="black" points="553.66,-57 553.66,-77 656.34,-77 656.34,-57 553.66,-57"/>
<text text-anchor="middle" x="605" y="-63" font-family="Helvetica,sans-Serif" font-size="10.00">RMF::HDF5::Group</text>
</a>
</g>
</g>
<!-- Node2&#45;&gt;Node3 -->
<g id="edge2" class="edge"><title>Node2&#45;&gt;Node3</title>
<path fill="none" stroke="midnightblue" d="M504.842,-67C521.521,-67 538.491,-67 553.567,-67"/>
<polygon fill="midnightblue" stroke="midnightblue" points="504.513,-63.5001 494.513,-67 504.513,-70.5001 504.513,-63.5001"/>
</g>
<!-- Node4 -->
<g id="node4" class="node"><title>Node4</title>
<g id="a_node4"><a xlink:href="a00110.html" target="_top" xlink:title="RMF::HDF5::File">
<polygon fill="none" stroke="black" points="702.5,-57 702.5,-77 793.5,-77 793.5,-57 702.5,-57"/>
<text text-anchor="middle" x="748" y="-63" font-family="Helvetica,sans-Serif" font-size="10.00">RMF::HDF5::File</text>
</a>
</g>
</g>
<!-- Node3&#45;&gt;Node4 -->
<g id="edge3" class="edge"><title>Node3&#45;&gt;Node4</title>
<path fill="none" stroke="midnightblue" d="M666.516,-67C678.583,-67 691.047,-67 702.458,-67"/>
<polygon fill="midnightblue" stroke="midnightblue" points="666.506,-63.5001 656.506,-67 666.506,-70.5001 666.506,-63.5001"/>
</g>
<!-- Node6 -->
<g id="node6" class="node"><title>Node6</title>
<g id="a_node6"><a xlink:href="a00092.html" target="_top" xlink:title="RMF::HDF5::DataSetD\l\&lt; TypeTraits, D \&gt;">
<polygon fill="none" stroke="black" points="545.879,-0 545.879,-32 664.121,-32 664.121,-0 545.879,-0"/>
<text text-anchor="start" x="553.879" y="-18" font-family="Helvetica,sans-Serif" font-size="10.00">RMF::HDF5::DataSetD</text>
<text text-anchor="middle" x="605" y="-6" font-family="Helvetica,sans-Serif" font-size="10.00">&lt; TypeTraits, D &gt;</text>
</a>
</g>
</g>
<!-- Node5&#45;&gt;Node6 -->
<g id="edge5" class="edge"><title>Node5&#45;&gt;Node6</title>
<path fill="none" stroke="midnightblue" d="M517.499,-16C527.142,-16 536.698,-16 545.745,-16"/>
<polygon fill="midnightblue" stroke="midnightblue" points="517.436,-12.5001 507.436,-16 517.436,-19.5001 517.436,-12.5001"/>
</g>
</g>
</svg>
        <g id="navigator" transform="translate(0 0)" fill="#404254">
                <rect fill="#f2f5e9" fill-opacity="0.5" stroke="#606060" stroke-width=".5" x="0" y="0" width="60" height="60"/>
                <use id="zoomplus" xlink:href="#zoomPlus" x="17" y="9" onmousedown="handleZoom(evt,'in')"/>
                <use id="zoomminus" xlink:href="#zoomMin" x="42" y="9" onmousedown="handleZoom(evt,'out')"/>
                <use id="reset" xlink:href="#resetDef" x="30" y="36" onmousedown="handleReset()"/>
                <g id="arrowUp" xlink:href="#dirArrow" transform="translate(30 24)" onmousedown="handlePan(0,-1)">
                  <use xlink:href="#rim" fill="#404040">
                        <set attributeName="fill" to="#808080" begin="arrowUp.mouseover" end="arrowUp.mouseout"/>
                  </use>
                  <path fill="none" stroke="white" stroke-width="1.5" d="M0,-3.0v7 M-2.5,-0.5L0,-3.0L2.5,-0.5"/>
                </g>
                <g id="arrowRight" xlink:href="#dirArrow" transform="rotate(90) translate(36 -43)" onmousedown="handlePan(1,0)">
                  <use xlink:href="#rim" fill="#404040">
                        <set attributeName="fill" to="#808080" begin="arrowRight.mouseover" end="arrowRight.mouseout"/>
                  </use>
                  <path fill="none" stroke="white" stroke-width="1.5" d="M0,-3.0v7 M-2.5,-0.5L0,-3.0L2.5,-0.5"/>
                </g>
                <g id="arrowDown" xlink:href="#dirArrow" transform="rotate(180) translate(-30 -48)" onmousedown="handlePan(0,1)">
                  <use xlink:href="#rim" fill="#404040">
                        <set attributeName="fill" to="#808080" begin="arrowDown.mouseover" end="arrowDown.mouseout"/>
                  </use>
                  <path fill="none" stroke="white" stroke-width="1.5" d="M0,-3.0v7 M-2.5,-0.5L0,-3.0L2.5,-0.5"/>
                </g>
                <g id="arrowLeft" xlink:href="#dirArrow" transform="rotate(270) translate(-36 17)" onmousedown="handlePan(-1,0)">
                  <use xlink:href="#rim" fill="#404040">
                        <set attributeName="fill" to="#808080" begin="arrowLeft.mouseover" end="arrowLeft.mouseout"/>
                  </use>
                  <path fill="none" stroke="white" stroke-width="1.5" d="M0,-3.0v7 M-2.5,-0.5L0,-3.0L2.5,-0.5"/>
                </g>
        </g>
        <svg viewBox="0 0 15 15" width="100%" height="30px" preserveAspectRatio="xMaxYMin meet">
         <g id="arrow_out" transform="scale(0.3 0.3)">
          <a xlink:href="a00616_org.svg" target="_base">
           <rect id="button" ry="5" rx="5" y="6" x="6" height="38" width="38"
                fill="#f2f5e9" fill-opacity="0.5" stroke="#606060" stroke-width="1.0"/>
           <path id="arrow"
             d="M 11.500037,31.436501 C 11.940474,20.09759 22.043105,11.32322 32.158766,21.979434 L 37.068811,17.246167 C 37.068811,17.246167 37.088388,32 37.088388,32 L 22.160133,31.978069 C 22.160133,31.978069 26.997745,27.140456 26.997745,27.140456 C 18.528582,18.264221 13.291696,25.230495 11.500037,31.436501 z"
             style="fill:#404040;"/>
          </a>
         </g>
        </svg>
</svg>
