<?xml version="1.0" encoding="UTF-8" standalone="no"?>
<!DOCTYPE svg PUBLIC "-//W3C//DTD SVG 1.1//EN"
 "http://www.w3.org/Graphics/SVG/1.1/DTD/svg11.dtd">
<!-- Generated by graphviz version 2.36.0 (20140111.2315)
 -->
<!-- Title: alias.h Pages: 1 -->
<svg width="311pt" height="140pt"
 viewBox="0.00 0.00 311.00 140.00" xmlns="http://www.w3.org/2000/svg" xmlns:xlink="http://www.w3.org/1999/xlink">
<g id="graph0" class="graph" transform="scale(1 1) rotate(0) translate(4 136)">
<title>alias.h</title>
<!-- Node1 -->
<g id="node1" class="node"><title>Node1</title>
<polygon fill="#bfbfbf" stroke="black" points="62.5469,-113 62.5469,-131 107.453,-131 107.453,-113 62.5469,-113"/>
<text text-anchor="middle" x="85" y="-119" font-family="Helvetica,sans-Serif" font-size="10.00">alias.h</text>
</g>
<!-- Node2 -->
<g id="node2" class="node"><title>Node2</title>
<g id="a_node2"><a xlink:href="decorators_8h.html" target="_top" xlink:title="Import all the decorators headers. ">
<polygon fill="none" stroke="black" points="-0.792969,-1 -0.792969,-19 70.793,-19 70.793,-1 -0.792969,-1"/>
<text text-anchor="middle" x="35" y="-7" font-family="Helvetica,sans-Serif" font-size="10.00">decorators.h</text>
</a>
</g>
</g>
<!-- Node1&#45;&gt;Node2 -->
<g id="edge1" class="edge"><title>Node1&#45;&gt;Node2</title>
<path fill="none" stroke="midnightblue" d="M76.9695,-103.333C65.9762,-79.1476 46.6915,-36.7213 38.6659,-19.0649"/>
<polygon fill="midnightblue" stroke="midnightblue" points="73.9175,-105.077 81.2419,-112.732 80.2901,-102.18 73.9175,-105.077"/>
</g>
<!-- Node3 -->
<g id="node3" class="node"><title>Node3</title>
<g id="a_node3"><a xlink:href="physics_8h.html" target="_top" xlink:title="Helper functions for manipulating RMF files. ">
<polygon fill="none" stroke="black" points="95.1577,-57 95.1577,-75 152.842,-75 152.842,-57 95.1577,-57"/>
<text text-anchor="middle" x="124" y="-63" font-family="Helvetica,sans-Serif" font-size="10.00">physics.h</text>
</a>
</g>
</g>
<!-- Node1&#45;&gt;Node3 -->
<g id="edge2" class="edge"><title>Node1&#45;&gt;Node3</title>
<path fill="none" stroke="midnightblue" d="M96.963,-104.436C103.963,-94.744 112.494,-82.9319 118.077,-75.2014"/>
<polygon fill="midnightblue" stroke="midnightblue" points="94.1113,-102.406 91.0938,-112.562 99.7861,-106.505 94.1113,-102.406"/>
</g>
<!-- Node3&#45;&gt;Node2 -->
<g id="edge3" class="edge"><title>Node3&#45;&gt;Node2</title>
<path fill="none" stroke="midnightblue" d="M101.827,-51.5465C85.022,-41.3504 62.4842,-27.6758 48.3528,-19.1017"/>
<polygon fill="midnightblue" stroke="midnightblue" points="100.118,-54.6035 110.483,-56.7986 103.749,-48.6189 100.118,-54.6035"/>
</g>
<!-- Node4 -->
<g id="node4" class="node"><title>Node4</title>
<g id="a_node4"><a xlink:href="TraverseHelper_8h.html" target="_top" xlink:title="A helper function for managing data when traversing an RMF. ">
<polygon fill="none" stroke="black" points="88.8311,-1 88.8311,-19 181.169,-19 181.169,-1 88.8311,-1"/>
<text text-anchor="middle" x="135" y="-7" font-family="Helvetica,sans-Serif" font-size="10.00">TraverseHelper.h</text>
</a>
</g>
</g>
<!-- Node3&#45;&gt;Node4 -->
<g id="edge4" class="edge"><title>Node3&#45;&gt;Node4</title>
<path fill="none" stroke="midnightblue" d="M127.741,-46.6333C129.64,-37.3129 131.851,-26.4586 133.329,-19.2014"/>
<polygon fill="midnightblue" stroke="midnightblue" points="124.285,-46.0651 125.719,-56.5625 131.144,-47.4624 124.285,-46.0651"/>
</g>
<!-- Node5 -->
<g id="node5" class="node"><title>Node5</title>
<g id="a_node5"><a xlink:href="benchmark__rmf_8cpp_source.html" target="_top" xlink:title="benchmark_rmf.cpp">
<polygon fill="none" stroke="black" points="198.815,-1 198.815,-19 303.185,-19 303.185,-1 198.815,-1"/>
<text text-anchor="middle" x="251" y="-7" font-family="Helvetica,sans-Serif" font-size="10.00">benchmark_rmf.cpp</text>
</a>
</g>
</g>
<!-- Node3&#45;&gt;Node5 -->
<g id="edge5" class="edge"><title>Node3&#45;&gt;Node5</title>
<path fill="none" stroke="midnightblue" d="M152.397,-52.9258C176.613,-42.6293 210.76,-28.1098 231.857,-19.1396"/>
<polygon fill="midnightblue" stroke="midnightblue" points="150.846,-49.7817 143.013,-56.9157 153.585,-56.2236 150.846,-49.7817"/>
</g>
</g>
</svg>
