<?xml version="1.0" encoding="UTF-8" standalone="no"?>
<!DOCTYPE svg PUBLIC "-//W3C//DTD SVG 1.1//EN"
 "http://www.w3.org/Graphics/SVG/1.1/DTD/svg11.dtd">
<!-- Generated by graphviz version 2.34.0 (20131025.1349)
 -->
<!-- Title: alias.h Pages: 1 -->
<svg width="311pt" height="146pt"
 viewBox="0.00 0.00 311.00 146.00" xmlns="http://www.w3.org/2000/svg" xmlns:xlink="http://www.w3.org/1999/xlink">
<g id="graph0" class="graph" transform="scale(1 1) rotate(0) translate(4 142)">
<title>alias.h</title>
<!-- Node1 -->
<g id="node1" class="node"><title>Node1</title>
<polygon fill="#bfbfbf" stroke="black" points="62.5469,-117 62.5469,-137 107.453,-137 107.453,-117 62.5469,-117"/>
<text text-anchor="middle" x="85" y="-123" font-family="Helvetica,sans-Serif" font-size="10.00">alias.h</text>
</g>
<!-- Node2 -->
<g id="node2" class="node"><title>Node2</title>
<g id="a_node2"><a xlink:href="decorators_8h.html" target="_top" xlink:title="Import all the decorators headers. ">
<polygon fill="none" stroke="black" points="-0.792969,-1 -0.792969,-21 70.793,-21 70.793,-1 -0.792969,-1"/>
<text text-anchor="middle" x="35" y="-7" font-family="Helvetica,sans-Serif" font-size="10.00">decorators.h</text>
</a>
</g>
</g>
<!-- Node1&#45;&gt;Node2 -->
<g id="edge1" class="edge"><title>Node1&#45;&gt;Node2</title>
<path fill="none" stroke="midnightblue" d="M76.7857,-107.271C65.9173,-82.4914 47.1821,-39.7752 39.0085,-21.1394"/>
<polygon fill="midnightblue" stroke="midnightblue" points="73.6864,-108.919 80.9083,-116.671 80.0969,-106.107 73.6864,-108.919"/>
</g>
<!-- Node3 -->
<g id="node3" class="node"><title>Node3</title>
<g id="a_node3"><a xlink:href="physics_8h.html" target="_top" xlink:title="Helper functions for manipulating RMF files. ">
<polygon fill="none" stroke="black" points="95.1577,-59 95.1577,-79 152.842,-79 152.842,-59 95.1577,-59"/>
<text text-anchor="middle" x="124" y="-65" font-family="Helvetica,sans-Serif" font-size="10.00">physics.h</text>
</a>
</g>
</g>
<!-- Node1&#45;&gt;Node3 -->
<g id="edge2" class="edge"><title>Node1&#45;&gt;Node3</title>
<path fill="none" stroke="midnightblue" d="M97.1738,-108.52C103.969,-98.763 112.152,-87.0122 117.68,-79.0752"/>
<polygon fill="midnightblue" stroke="midnightblue" points="94.2829,-106.546 91.4401,-116.753 100.027,-110.547 94.2829,-106.546"/>
</g>
<!-- Node3&#45;&gt;Node2 -->
<g id="edge3" class="edge"><title>Node3&#45;&gt;Node2</title>
<path fill="none" stroke="midnightblue" d="M100.404,-53.1528C84.1938,-42.9534 63.1957,-29.7411 49.4231,-21.0752"/>
<polygon fill="midnightblue" stroke="midnightblue" points="98.9756,-56.3895 109.303,-58.7527 102.704,-50.4647 98.9756,-56.3895"/>
</g>
<!-- Node4 -->
<g id="node4" class="node"><title>Node4</title>
<g id="a_node4"><a xlink:href="TraverseHelper_8h.html" target="_top" xlink:title="A helper function for managing data when traversing an RMF. ">
<polygon fill="none" stroke="black" points="88.8311,-1 88.8311,-21 181.169,-21 181.169,-1 88.8311,-1"/>
<text text-anchor="middle" x="135" y="-7" font-family="Helvetica,sans-Serif" font-size="10.00">TraverseHelper.h</text>
</a>
</g>
</g>
<!-- Node3&#45;&gt;Node4 -->
<g id="edge4" class="edge"><title>Node3&#45;&gt;Node4</title>
<path fill="none" stroke="midnightblue" d="M127.79,-48.7065C129.63,-39.3384 131.754,-28.5262 133.217,-21.0752"/>
<polygon fill="midnightblue" stroke="midnightblue" points="124.31,-48.2656 125.816,-58.7527 131.178,-49.6149 124.31,-48.2656"/>
</g>
<!-- Node5 -->
<g id="node5" class="node"><title>Node5</title>
<g id="a_node5"><a xlink:href="benchmark__rmf_8cpp_source.html" target="_top" xlink:title="benchmark_rmf.cpp">
<polygon fill="none" stroke="black" points="198.815,-1 198.815,-21 303.185,-21 303.185,-1 198.815,-1"/>
<text text-anchor="middle" x="251" y="-7" font-family="Helvetica,sans-Serif" font-size="10.00">benchmark_rmf.cpp</text>
</a>
</g>
</g>
<!-- Node3&#45;&gt;Node5 -->
<g id="edge5" class="edge"><title>Node3&#45;&gt;Node5</title>
<path fill="none" stroke="midnightblue" d="M153.865,-54.8313C177.388,-44.4588 209.568,-30.2692 230.321,-21.1181"/>
<polygon fill="midnightblue" stroke="midnightblue" points="152.425,-51.6408 144.687,-58.878 155.25,-58.0458 152.425,-51.6408"/>
</g>
</g>
</svg>
