<?xml version="1.0" encoding="UTF-8" standalone="no"?>
<!DOCTYPE svg PUBLIC "-//W3C//DTD SVG 1.1//EN"
 "http://www.w3.org/Graphics/SVG/1.1/DTD/svg11.dtd">
<!-- Generated by graphviz version 2.34.0 (20131025.1349)
 -->
<!-- Title: alias.h Pages: 1 -->
<svg width="201pt" height="146pt"
 viewBox="0.00 0.00 201.00 146.00" xmlns="http://www.w3.org/2000/svg" xmlns:xlink="http://www.w3.org/1999/xlink">
<g id="graph0" class="graph" transform="scale(1 1) rotate(0) translate(4 142)">
<title>alias.h</title>
<!-- Node1 -->
<g id="node1" class="node"><title>Node1</title>
<polygon fill="#bfbfbf" stroke="black" points="40.5469,-117 40.5469,-137 85.4531,-137 85.4531,-117 40.5469,-117"/>
<text text-anchor="middle" x="63" y="-123" font-family="Helvetica,sans-Serif" font-size="10.00">alias.h</text>
</g>
<!-- Node2 -->
<g id="node2" class="node"><title>Node2</title>
<g id="a_node2"><a xlink:href="decorators_8h.html" target="_top" xlink:title="Import all the decorators headers. ">
<polygon fill="none" stroke="black" points="-0.792969,-1 -0.792969,-21 70.793,-21 70.793,-1 -0.792969,-1"/>
<text text-anchor="middle" x="35" y="-7" font-family="Helvetica,sans-Serif" font-size="10.00">decorators.h</text>
</a>
</g>
</g>
<!-- Node1&#45;&gt;Node2 -->
<g id="edge1" class="edge"><title>Node1&#45;&gt;Node2</title>
<path fill="none" stroke="midnightblue" d="M58.3182,-106.939C52.2201,-82.1105 41.8015,-39.692 37.2448,-21.1394"/>
<polygon fill="midnightblue" stroke="midnightblue" points="54.9243,-107.794 60.7086,-116.671 61.7223,-106.125 54.9243,-107.794"/>
</g>
<!-- Node3 -->
<g id="node3" class="node"><title>Node3</title>
<g id="a_node3"><a xlink:href="physics_8h.html" target="_top" xlink:title="Helper functions for manipulating RMF files. ">
<polygon fill="none" stroke="black" points="63.1577,-59 63.1577,-79 120.842,-79 120.842,-59 63.1577,-59"/>
<text text-anchor="middle" x="92" y="-65" font-family="Helvetica,sans-Serif" font-size="10.00">physics.h</text>
</a>
</g>
</g>
<!-- Node1&#45;&gt;Node3 -->
<g id="edge2" class="edge"><title>Node1&#45;&gt;Node3</title>
<path fill="none" stroke="midnightblue" d="M72.5191,-107.618C77.4756,-98.0471 83.3159,-86.7692 87.3003,-79.0752"/>
<polygon fill="midnightblue" stroke="midnightblue" points="69.2794,-106.263 67.7888,-116.753 75.4953,-109.482 69.2794,-106.263"/>
</g>
<!-- Node3&#45;&gt;Node2 -->
<g id="edge3" class="edge"><title>Node3&#45;&gt;Node2</title>
<path fill="none" stroke="midnightblue" d="M75.413,-51.704C65.2594,-41.7286 52.6457,-29.3361 44.2372,-21.0752"/>
<polygon fill="midnightblue" stroke="midnightblue" points="73.0013,-54.2412 82.5876,-58.7527 77.9071,-49.2478 73.0013,-54.2412"/>
</g>
<!-- Node4 -->
<g id="node4" class="node"><title>Node4</title>
<g id="a_node4"><a xlink:href="benchmark__rmf_8cpp_source.html" target="_top" xlink:title="benchmark_rmf.cpp">
<polygon fill="none" stroke="black" points="88.8154,-1 88.8154,-21 193.185,-21 193.185,-1 88.8154,-1"/>
<text text-anchor="middle" x="141" y="-7" font-family="Helvetica,sans-Serif" font-size="10.00">benchmark_rmf.cpp</text>
</a>
</g>
</g>
<!-- Node3&#45;&gt;Node4 -->
<g id="edge4" class="edge"><title>Node3&#45;&gt;Node4</title>
<path fill="none" stroke="midnightblue" d="M106.775,-51.1145C115.411,-41.2442 125.973,-29.1742 133.059,-21.0752"/>
<polygon fill="midnightblue" stroke="midnightblue" points="104.042,-48.9222 100.091,-58.7527 109.31,-53.5317 104.042,-48.9222"/>
</g>
</g>
</svg>
