<?xml version="1.0" encoding="UTF-8" standalone="no"?>
<!DOCTYPE svg PUBLIC "-//W3C//DTD SVG 1.1//EN"
 "http://www.w3.org/Graphics/SVG/1.1/DTD/svg11.dtd">
<!-- Generated by graphviz version 2.36.0 (20140111.2315)
 -->
<!-- Title: alternatives.h Pages: 1 -->
<svg width="2211pt" height="608pt"
 viewBox="0.00 0.00 2211.00 608.00" xmlns="http://www.w3.org/2000/svg" xmlns:xlink="http://www.w3.org/1999/xlink">
<g id="graph0" class="graph" transform="scale(1 1) rotate(0) translate(4 604)">
<title>alternatives.h</title>
<!-- Node1 -->
<g id="node1" class="node"><title>Node1</title>
<polygon fill="#bfbfbf" stroke="black" points="1245.26,-581 1245.26,-599 1320.74,-599 1320.74,-581 1245.26,-581"/>
<text text-anchor="middle" x="1283" y="-587" font-family="Helvetica,sans-Serif" font-size="10.00">alternatives.h</text>
</g>
<!-- Node2 -->
<g id="node2" class="node"><title>Node2</title>
<g id="a_node2"><a xlink:href="config_8h_source.html" target="_top" xlink:title="RMF/config.h">
<polygon fill="none" stroke="black" points="1354.27,-57 1354.27,-75 1429.73,-75 1429.73,-57 1354.27,-57"/>
<text text-anchor="middle" x="1392" y="-63" font-family="Helvetica,sans-Serif" font-size="10.00">RMF/config.h</text>
</a>
</g>
</g>
<!-- Node1&#45;&gt;Node2 -->
<g id="edge1" class="edge"><title>Node1&#45;&gt;Node2</title>
<path fill="none" stroke="midnightblue" d="M1320.99,-588.229C1453.08,-585.31 1891.69,-573.569 2029,-544 2110.49,-526.451 2203,-557.357 2203,-474 2203,-474 2203,-474 2203,-187 2203,-126.352 2146.51,-131.261 2089,-112 1968.39,-71.6051 1577.4,-67.1961 1440.15,-66.9207"/>
<polygon fill="midnightblue" stroke="midnightblue" points="1439.96,-63.4206 1429.95,-66.9071 1439.95,-70.4206 1439.96,-63.4206"/>
</g>
<!-- Node4 -->
<g id="node4" class="node"><title>Node4</title>
<g id="a_node4"><a xlink:href="infrastructure__macros_8h.html" target="_top" xlink:title="Various general useful macros for IMP. ">
<polygon fill="none" stroke="black" points="670.604,-113 670.604,-141 769.396,-141 769.396,-113 670.604,-113"/>
<text text-anchor="start" x="678.604" y="-129" font-family="Helvetica,sans-Serif" font-size="10.00">RMF/infrastructure</text>
<text text-anchor="middle" x="720" y="-119" font-family="Helvetica,sans-Serif" font-size="10.00">_macros.h</text>
</a>
</g>
</g>
<!-- Node1&#45;&gt;Node4 -->
<g id="edge3" class="edge"><title>Node1&#45;&gt;Node4</title>
<path fill="none" stroke="midnightblue" d="M1245.21,-588.665C1099.22,-587.122 572.191,-579.184 409,-544 342.278,-529.615 312.32,-538.132 266,-488 123.196,-333.441 516.94,-191.09 665.697,-144.203"/>
<polygon fill="midnightblue" stroke="midnightblue" points="667.052,-147.446 675.553,-141.123 664.964,-140.765 667.052,-147.446"/>
</g>
<!-- Node13 -->
<g id="node12" class="node"><title>Node13</title>
<g id="a_node12"><a xlink:href="NodeHandle_8h.html" target="_top" xlink:title="Declaration of NodeHandle. ">
<polygon fill="none" stroke="black" points="779.813,-464 779.813,-482 884.187,-482 884.187,-464 779.813,-464"/>
<text text-anchor="middle" x="832" y="-470" font-family="Helvetica,sans-Serif" font-size="10.00">RMF/NodeHandle.h</text>
</a>
</g>
</g>
<!-- Node1&#45;&gt;Node13 -->
<g id="edge12" class="edge"><title>Node1&#45;&gt;Node13</title>
<path fill="none" stroke="midnightblue" d="M1251.29,-580.913C1171.46,-560.557 962.228,-507.207 873.13,-484.488"/>
<polygon fill="midnightblue" stroke="midnightblue" points="873.933,-481.081 863.378,-482.001 872.204,-487.864 873.933,-481.081"/>
</g>
<!-- Node22 -->
<g id="node21" class="node"><title>Node22</title>
<g id="a_node21"><a xlink:href="Vector_8h.html" target="_top" xlink:title="Represent coordinates. ">
<polygon fill="none" stroke="red" points="1419.93,-179 1419.93,-197 1472.07,-197 1472.07,-179 1419.93,-179"/>
<text text-anchor="middle" x="1446" y="-185" font-family="Helvetica,sans-Serif" font-size="10.00">Vector.h</text>
</a>
</g>
</g>
<!-- Node1&#45;&gt;Node22 -->
<g id="edge119" class="edge"><title>Node1&#45;&gt;Node22</title>
<path fill="none" stroke="midnightblue" d="M1320.9,-588.112C1489.72,-583.666 2165,-560.476 2165,-474 2165,-474 2165,-474 2165,-355 2165,-213.457 1629.31,-192.585 1482.7,-189.523"/>
<polygon fill="midnightblue" stroke="midnightblue" points="1482.51,-186.019 1472.44,-189.325 1482.37,-193.018 1482.51,-186.019"/>
</g>
<!-- Node26 -->
<g id="node24" class="node"><title>Node26</title>
<g id="a_node24"><a xlink:href="constants_8h.html" target="_top" xlink:title="Various constants. ">
<polygon fill="none" stroke="black" points="1703.21,-347 1703.21,-365 1794.79,-365 1794.79,-347 1703.21,-347"/>
<text text-anchor="middle" x="1749" y="-353" font-family="Helvetica,sans-Serif" font-size="10.00">RMF/constants.h</text>
</a>
</g>
</g>
<!-- Node1&#45;&gt;Node26 -->
<g id="edge117" class="edge"><title>Node1&#45;&gt;Node26</title>
<path fill="none" stroke="midnightblue" d="M1321.13,-588.138C1435.59,-584.669 1772.44,-567.742 1839,-488 1854.57,-469.351 1825.83,-406.967 1822,-402 1811.04,-387.779 1794.21,-376.971 1779.47,-369.516"/>
<polygon fill="midnightblue" stroke="midnightblue" points="1780.7,-366.227 1770.17,-365.099 1777.7,-372.55 1780.7,-366.227"/>
</g>
<!-- Node28 -->
<g id="node26" class="node"><title>Node28</title>
<g id="a_node26"><a xlink:href="Enum_8h.html" target="_top" xlink:title="Declaration of RMF::Enum. ">
<polygon fill="none" stroke="red" points="743.769,-179 743.769,-197 794.231,-197 794.231,-179 743.769,-179"/>
<text text-anchor="middle" x="769" y="-185" font-family="Helvetica,sans-Serif" font-size="10.00">Enum.h</text>
</a>
</g>
</g>
<!-- Node1&#45;&gt;Node28 -->
<g id="edge118" class="edge"><title>Node1&#45;&gt;Node28</title>
<path fill="none" stroke="midnightblue" d="M1245.22,-589.037C1086.31,-588.603 472.753,-580.837 308,-488 274.485,-469.115 265.256,-458.113 252,-422 215.244,-321.869 611.107,-224.315 733.563,-196.713"/>
<polygon fill="midnightblue" stroke="midnightblue" points="734.561,-200.077 743.556,-194.48 733.034,-193.246 734.561,-200.077"/>
</g>
<!-- Node31 -->
<g id="node28" class="node"><title>Node31</title>
<g id="a_node28"><a xlink:href="FileHandle_8h.html" target="_top" xlink:title="Declaration for RMF::FileHandle. ">
<polygon fill="none" stroke="black" points="665.709,-525 665.709,-543 762.291,-543 762.291,-525 665.709,-525"/>
<text text-anchor="middle" x="714" y="-531" font-family="Helvetica,sans-Serif" font-size="10.00">RMF/FileHandle.h</text>
</a>
</g>
</g>
<!-- Node1&#45;&gt;Node31 -->
<g id="edge71" class="edge"><title>Node1&#45;&gt;Node31</title>
<path fill="none" stroke="midnightblue" d="M1245.23,-585.415C1148.13,-576.2 889.29,-551.636 772.551,-540.557"/>
<polygon fill="midnightblue" stroke="midnightblue" points="772.663,-537.052 762.377,-539.591 772.002,-544.02 772.663,-537.052"/>
</g>
<!-- Node33 -->
<g id="node30" class="node"><title>Node33</title>
<g id="a_node30"><a xlink:href="Decorator_8h.html" target="_top" xlink:title="Mostly empty base classes for decorators and factories. ">
<polygon fill="none" stroke="black" points="1411.93,-525 1411.93,-543 1504.07,-543 1504.07,-525 1411.93,-525"/>
<text text-anchor="middle" x="1458" y="-531" font-family="Helvetica,sans-Serif" font-size="10.00">RMF/Decorator.h</text>
</a>
</g>
</g>
<!-- Node1&#45;&gt;Node33 -->
<g id="edge93" class="edge"><title>Node1&#45;&gt;Node33</title>
<path fill="none" stroke="midnightblue" d="M1309.2,-580.916C1339.18,-571.663 1388.47,-556.455 1422.03,-546.098"/>
<polygon fill="midnightblue" stroke="midnightblue" points="1423.38,-549.344 1431.91,-543.051 1421.32,-542.655 1423.38,-549.344"/>
</g>
<!-- Node3 -->
<g id="node3" class="node"><title>Node3</title>
<g id="a_node3"><a xlink:href="compiler__macros_8h.html" target="_top" xlink:title="Various compiler workarounds. ">
<polygon fill="none" stroke="black" points="867.544,-1 867.544,-19 992.456,-19 992.456,-1 867.544,-1"/>
<text text-anchor="middle" x="930" y="-7" font-family="Helvetica,sans-Serif" font-size="10.00">RMF/compiler_macros.h</text>
</a>
</g>
</g>
<!-- Node2&#45;&gt;Node3 -->
<g id="edge2" class="edge"><title>Node2&#45;&gt;Node3</title>
<path fill="none" stroke="midnightblue" d="M1354.19,-60.581C1277.42,-51.607 1102.1,-31.1157 1002.55,-19.4803"/>
<polygon fill="midnightblue" stroke="midnightblue" points="1002.91,-15.9983 992.572,-18.3136 1002.1,-22.951 1002.91,-15.9983"/>
</g>
<!-- Node4&#45;&gt;Node3 -->
<g id="edge7" class="edge"><title>Node4&#45;&gt;Node3</title>
<path fill="none" stroke="midnightblue" d="M766.774,-112.999C793.376,-104.534 826.722,-92.0685 854,-76 877.477,-62.1706 900.731,-40.8691 915.213,-26.4542"/>
<polygon fill="midnightblue" stroke="midnightblue" points="917.786,-28.8298 922.302,-19.2456 912.795,-23.9218 917.786,-28.8298"/>
</g>
<!-- Node5 -->
<g id="node5" class="node"><title>Node5</title>
<polygon fill="none" stroke="#bfbfbf" points="794.219,-57 794.219,-75 845.781,-75 845.781,-57 794.219,-57"/>
<text text-anchor="middle" x="820" y="-63" font-family="Helvetica,sans-Serif" font-size="10.00">sstream</text>
</g>
<!-- Node4&#45;&gt;Node5 -->
<g id="edge4" class="edge"><title>Node4&#45;&gt;Node5</title>
<path fill="none" stroke="midnightblue" d="M742.193,-112.906C758.547,-103.257 780.721,-90.1746 797.214,-80.444"/>
<polygon fill="midnightblue" stroke="midnightblue" points="799.347,-83.2493 806.181,-75.1534 795.79,-77.2204 799.347,-83.2493"/>
</g>
<!-- Node6 -->
<g id="node6" class="node"><title>Node6</title>
<polygon fill="none" stroke="#bfbfbf" points="499.828,-57 499.828,-75 554.172,-75 554.172,-57 499.828,-57"/>
<text text-anchor="middle" x="527" y="-63" font-family="Helvetica,sans-Serif" font-size="10.00">iostream</text>
</g>
<!-- Node4&#45;&gt;Node6 -->
<g id="edge5" class="edge"><title>Node4&#45;&gt;Node6</title>
<path fill="none" stroke="midnightblue" d="M677.167,-112.906C642.996,-102.46 595.661,-87.9896 563.326,-78.1048"/>
<polygon fill="midnightblue" stroke="midnightblue" points="563.977,-74.6439 553.39,-75.0675 561.93,-81.3381 563.977,-74.6439"/>
</g>
<!-- Node7 -->
<g id="node7" class="node"><title>Node7</title>
<polygon fill="none" stroke="#bfbfbf" points="365.773,-57 365.773,-75 406.227,-75 406.227,-57 365.773,-57"/>
<text text-anchor="middle" x="386" y="-63" font-family="Helvetica,sans-Serif" font-size="10.00">string</text>
</g>
<!-- Node4&#45;&gt;Node7 -->
<g id="edge6" class="edge"><title>Node4&#45;&gt;Node7</title>
<path fill="none" stroke="midnightblue" d="M670.357,-117.231C600.217,-104.841 474.227,-82.585 416.454,-72.3796"/>
<polygon fill="midnightblue" stroke="midnightblue" points="416.946,-68.9123 406.489,-70.6193 415.728,-75.8056 416.946,-68.9123"/>
</g>
<!-- Node9 -->
<g id="node8" class="node"><title>Node9</title>
<polygon fill="none" stroke="#bfbfbf" points="193.384,-57 193.384,-75 236.616,-75 236.616,-57 193.384,-57"/>
<text text-anchor="middle" x="215" y="-63" font-family="Helvetica,sans-Serif" font-size="10.00">vector</text>
</g>
<!-- Node4&#45;&gt;Node9 -->
<g id="edge8" class="edge"><title>Node4&#45;&gt;Node9</title>
<path fill="none" stroke="midnightblue" d="M670.197,-120.181C566.989,-108.124 332.281,-80.7021 246.852,-70.7213"/>
<polygon fill="midnightblue" stroke="midnightblue" points="247.07,-67.2231 236.732,-69.539 246.258,-74.1758 247.07,-67.2231"/>
</g>
<!-- Node10 -->
<g id="node9" class="node"><title>Node10</title>
<polygon fill="none" stroke="#bfbfbf" points="572.306,-57 572.306,-75 661.694,-75 661.694,-57 572.306,-57"/>
<text text-anchor="middle" x="617" y="-63" font-family="Helvetica,sans-Serif" font-size="10.00">boost/config.hpp</text>
</g>
<!-- Node4&#45;&gt;Node10 -->
<g id="edge9" class="edge"><title>Node4&#45;&gt;Node10</title>
<path fill="none" stroke="midnightblue" d="M697.141,-112.906C680.139,-103.167 657.03,-89.9298 639.995,-80.172"/>
<polygon fill="midnightblue" stroke="midnightblue" points="641.651,-77.0868 631.234,-75.1534 638.171,-83.1609 641.651,-77.0868"/>
</g>
<!-- Node11 -->
<g id="node10" class="node"><title>Node11</title>
<polygon fill="none" stroke="#bfbfbf" points="1146.53,-57 1146.53,-75 1241.47,-75 1241.47,-57 1146.53,-57"/>
<text text-anchor="middle" x="1194" y="-63" font-family="Helvetica,sans-Serif" font-size="10.00">boost/version.hpp</text>
</g>
<!-- Node4&#45;&gt;Node11 -->
<g id="edge10" class="edge"><title>Node4&#45;&gt;Node11</title>
<path fill="none" stroke="midnightblue" d="M769.83,-119.797C858.264,-108.79 1042.15,-85.9007 1136.07,-74.2102"/>
<polygon fill="midnightblue" stroke="midnightblue" points="1136.76,-77.6524 1146.25,-72.9439 1135.89,-70.706 1136.76,-77.6524"/>
</g>
<!-- Node12 -->
<g id="node11" class="node"><title>Node12</title>
<polygon fill="none" stroke="#bfbfbf" points="679.971,-57 679.971,-75 776.029,-75 776.029,-57 679.971,-57"/>
<text text-anchor="middle" x="728" y="-63" font-family="Helvetica,sans-Serif" font-size="10.00">boost/foreach.hpp</text>
</g>
<!-- Node4&#45;&gt;Node12 -->
<g id="edge11" class="edge"><title>Node4&#45;&gt;Node12</title>
<path fill="none" stroke="midnightblue" d="M721.775,-112.906C722.876,-104.79 724.306,-94.245 725.517,-85.3086"/>
<polygon fill="midnightblue" stroke="midnightblue" points="729.019,-85.533 726.894,-75.1534 722.082,-84.5924 729.019,-85.533"/>
</g>
<!-- Node13&#45;&gt;Node2 -->
<g id="edge66" class="edge"><title>Node13&#45;&gt;Node2</title>
<path fill="none" stroke="midnightblue" d="M884.399,-469.057C935.176,-466.21 1014.36,-461.783 1083,-458 1229.88,-449.904 1605.24,-470.856 1744,-422 1910.89,-363.238 1977.14,-311.766 2027,-142 2030.76,-129.207 2036.09,-121.756 2027,-112 1987.22,-69.3009 1580.83,-66.4278 1439.85,-66.7294"/>
<polygon fill="midnightblue" stroke="midnightblue" points="1439.77,-63.2295 1429.78,-66.7574 1439.79,-70.2295 1439.77,-63.2295"/>
</g>
<!-- Node13&#45;&gt;Node4 -->
<g id="edge69" class="edge"><title>Node13&#45;&gt;Node4</title>
<path fill="none" stroke="midnightblue" d="M816.889,-463.989C790.333,-448.937 736.109,-413.607 715,-366 682.656,-293.052 701.945,-194.756 713.381,-150.844"/>
<polygon fill="midnightblue" stroke="midnightblue" points="716.774,-151.704 716.016,-141.136 710.018,-149.87 716.774,-151.704"/>
</g>
<!-- Node13&#45;&gt;Node7 -->
<g id="edge14" class="edge"><title>Node13&#45;&gt;Node7</title>
<path fill="none" stroke="midnightblue" d="M796.216,-463.961C754.33,-454.439 682.931,-437.863 622,-422 616.469,-420.56 428.36,-369.696 424,-366 378.652,-327.563 367,-304.446 367,-245 367,-245 367,-245 367,-187 367,-150.384 375.737,-108.248 381.361,-84.9154"/>
<polygon fill="midnightblue" stroke="midnightblue" points="384.791,-85.6284 383.82,-75.0781 378,-83.9307 384.791,-85.6284"/>
</g>
<!-- Node13&#45;&gt;Node9 -->
<g id="edge15" class="edge"><title>Node13&#45;&gt;Node9</title>
<path fill="none" stroke="midnightblue" d="M779.488,-464.931C677.418,-450.281 457.155,-413.931 399,-366 300.406,-284.739 239.907,-136.083 221.222,-84.8852"/>
<polygon fill="midnightblue" stroke="midnightblue" points="224.442,-83.4966 217.785,-75.2544 217.85,-85.8491 224.442,-83.4966"/>
</g>
<!-- Node14 -->
<g id="node13" class="node"><title>Node14</title>
<polygon fill="none" stroke="#bfbfbf" points="795.018,-347 795.018,-365 904.982,-365 904.982,-347 795.018,-347"/>
<text text-anchor="middle" x="850" y="-353" font-family="Helvetica,sans-Serif" font-size="10.00">boost/shared_ptr.hpp</text>
</g>
<!-- Node13&#45;&gt;Node14 -->
<g id="edge13" class="edge"><title>Node13&#45;&gt;Node14</title>
<path fill="none" stroke="midnightblue" d="M846.637,-463.891C860.226,-455.436 879.585,-440.795 888,-422 896.038,-404.048 881.499,-384.744 868.146,-371.879"/>
<polygon fill="midnightblue" stroke="midnightblue" points="870.381,-369.182 860.601,-365.107 865.705,-374.391 870.381,-369.182"/>
</g>
<!-- Node15 -->
<g id="node14" class="node"><title>Node15</title>
<g id="a_node14"><a xlink:href="ID_8h.html" target="_top" xlink:title="Declaration of RMF::ID. ">
<polygon fill="none" stroke="red" points="1123.83,-291 1123.83,-309 1158.17,-309 1158.17,-291 1123.83,-291"/>
<text text-anchor="middle" x="1141" y="-297" font-family="Helvetica,sans-Serif" font-size="10.00">ID.h</text>
</a>
</g>
</g>
<!-- Node13&#45;&gt;Node15 -->
<g id="edge16" class="edge"><title>Node13&#45;&gt;Node15</title>
<path fill="none" stroke="midnightblue" d="M846.489,-463.982C895.757,-436.717 1057.1,-347.427 1117.71,-313.887"/>
<polygon fill="midnightblue" stroke="midnightblue" points="1119.49,-316.905 1126.54,-309.001 1116.1,-310.781 1119.49,-316.905"/>
</g>
<!-- Node16 -->
<g id="node15" class="node"><title>Node16</title>
<g id="a_node15"><a xlink:href="exceptions_8h.html" target="_top" xlink:title="Declarations of the various exception types. ">
<polygon fill="none" stroke="red" points="940.926,-118 940.926,-136 1013.07,-136 1013.07,-118 940.926,-118"/>
<text text-anchor="middle" x="977" y="-124" font-family="Helvetica,sans-Serif" font-size="10.00">exceptions.h</text>
</a>
</g>
</g>
<!-- Node13&#45;&gt;Node16 -->
<g id="edge68" class="edge"><title>Node13&#45;&gt;Node16</title>
<path fill="none" stroke="midnightblue" d="M824.487,-463.958C806.251,-443.42 762.793,-387.718 786,-346 800.749,-319.487 821.751,-330.627 844,-310 900.158,-257.934 948.174,-179.124 967.682,-144.878"/>
<polygon fill="midnightblue" stroke="midnightblue" points="970.762,-146.541 972.606,-136.108 964.659,-143.114 970.762,-146.541"/>
</g>
<!-- Node17 -->
<g id="node16" class="node"><title>Node17</title>
<g id="a_node16"><a xlink:href="NodeConstHandle_8h.html" target="_top" xlink:title="Declaration of NodeConstHandlke. ">
<polygon fill="none" stroke="red" points="1026.97,-403 1026.97,-421 1133.03,-421 1133.03,-403 1026.97,-403"/>
<text text-anchor="middle" x="1080" y="-409" font-family="Helvetica,sans-Serif" font-size="10.00">NodeConstHandle.h</text>
</a>
</g>
</g>
<!-- Node13&#45;&gt;Node17 -->
<g id="edge23" class="edge"><title>Node13&#45;&gt;Node17</title>
<path fill="none" stroke="midnightblue" d="M865.704,-463.982C909.968,-453.451 987.76,-434.944 1036.44,-423.362"/>
<polygon fill="midnightblue" stroke="midnightblue" points="1037.45,-426.72 1046.37,-421.001 1035.83,-419.91 1037.45,-426.72"/>
</g>
<!-- Node19 -->
<g id="node18" class="node"><title>Node19</title>
<g id="a_node18"><a xlink:href="Nullable_8h.html" target="_top" xlink:title="A helper class for allowing nice return of possibly null values. ">
<polygon fill="none" stroke="red" points="1524.54,-347 1524.54,-365 1609.46,-365 1609.46,-347 1524.54,-347"/>
<text text-anchor="middle" x="1567" y="-353" font-family="Helvetica,sans-Serif" font-size="10.00">RMF/Nullable.h</text>
</a>
</g>
</g>
<!-- Node13&#45;&gt;Node19 -->
<g id="edge65" class="edge"><title>Node13&#45;&gt;Node19</title>
<path fill="none" stroke="midnightblue" d="M884.318,-464.198C997.207,-447.294 1272.3,-405.734 1514.4,-366.076"/>
<polygon fill="midnightblue" stroke="midnightblue" points="1515.14,-369.5 1524.44,-364.428 1514.01,-362.592 1515.14,-369.5"/>
</g>
<!-- Node21 -->
<g id="node20" class="node"><title>Node21</title>
<g id="a_node20"><a xlink:href="types_8h.html" target="_top" xlink:title="Default implementation for types.h. ">
<polygon fill="none" stroke="black" points="1670.66,-235 1670.66,-253 1743.34,-253 1743.34,-235 1670.66,-235"/>
<text text-anchor="middle" x="1707" y="-241" font-family="Helvetica,sans-Serif" font-size="10.00">RMF/types.h</text>
</a>
</g>
</g>
<!-- Node13&#45;&gt;Node21 -->
<g id="edge70" class="edge"><title>Node13&#45;&gt;Node21</title>
<path fill="none" stroke="midnightblue" d="M884.337,-464.66C900.853,-462.423 919.178,-460.022 936,-458 1128.36,-434.873 1673.44,-510.057 1803,-366 1836.64,-328.596 1769.42,-281.033 1731.1,-258.287"/>
<polygon fill="midnightblue" stroke="midnightblue" points="1732.47,-255.035 1722.06,-253.06 1728.97,-261.095 1732.47,-255.035"/>
</g>
<!-- Node27 -->
<g id="node25" class="node"><title>Node27</title>
<g id="a_node25"><a xlink:href="enums_8h.html" target="_top" xlink:title="The various enums used in RMF. ">
<polygon fill="none" stroke="black" points="432.604,-347 432.604,-365 511.396,-365 511.396,-347 432.604,-347"/>
<text text-anchor="middle" x="472" y="-353" font-family="Helvetica,sans-Serif" font-size="10.00">RMF/enums.h</text>
</a>
</g>
</g>
<!-- Node13&#45;&gt;Node27 -->
<g id="edge67" class="edge"><title>Node13&#45;&gt;Node27</title>
<path fill="none" stroke="midnightblue" d="M808.456,-463.893C769.696,-450.605 689.964,-423.516 622,-402 583.808,-389.909 539.889,-376.829 509.487,-367.904"/>
<polygon fill="midnightblue" stroke="midnightblue" points="510.304,-364.496 499.723,-365.044 508.336,-371.214 510.304,-364.496"/>
</g>
<!-- Node15&#45;&gt;Node2 -->
<g id="edge17" class="edge"><title>Node15&#45;&gt;Node2</title>
<path fill="none" stroke="midnightblue" d="M1144.07,-290.918C1155.38,-262.187 1197.57,-163.935 1264,-112 1287.26,-93.8131 1318.44,-82.6473 1344.19,-75.9874"/>
<polygon fill="midnightblue" stroke="midnightblue" points="1345.25,-79.3336 1354.14,-73.5675 1343.59,-72.5322 1345.25,-79.3336"/>
</g>
<!-- Node15&#45;&gt;Node4 -->
<g id="edge18" class="edge"><title>Node15&#45;&gt;Node4</title>
<path fill="none" stroke="midnightblue" d="M1123.71,-291.978C1062.05,-266.934 851.833,-181.548 761.645,-144.915"/>
<polygon fill="midnightblue" stroke="midnightblue" points="762.859,-141.631 752.277,-141.11 760.225,-148.116 762.859,-141.631"/>
</g>
<!-- Node15&#45;&gt;Node16 -->
<g id="edge19" class="edge"><title>Node15&#45;&gt;Node16</title>
<path fill="none" stroke="midnightblue" d="M1133.23,-290.743C1114.75,-271.108 1066.65,-220.124 1026,-178 1014.68,-166.269 1001.77,-153.103 992.042,-143.228"/>
<polygon fill="midnightblue" stroke="midnightblue" points="994.53,-140.766 985.016,-136.103 989.546,-145.681 994.53,-140.766"/>
</g>
<!-- Node16&#45;&gt;Node2 -->
<g id="edge21" class="edge"><title>Node16&#45;&gt;Node2</title>
<path fill="none" stroke="midnightblue" d="M1008.1,-117.961C1017.06,-115.823 1026.88,-113.653 1036,-112 1145.47,-92.1528 1275.45,-78.0976 1344.05,-71.4118"/>
<polygon fill="midnightblue" stroke="midnightblue" points="1344.5,-74.8846 1354.12,-70.4406 1343.83,-67.917 1344.5,-74.8846"/>
</g>
<!-- Node16&#45;&gt;Node3 -->
<g id="edge22" class="edge"><title>Node16&#45;&gt;Node3</title>
<path fill="none" stroke="midnightblue" d="M973.62,-117.729C966.032,-99.1634 947.504,-53.83 937.204,-28.6275"/>
<polygon fill="midnightblue" stroke="midnightblue" points="940.373,-27.1282 933.349,-19.1956 933.893,-29.7765 940.373,-27.1282"/>
</g>
<!-- Node16&#45;&gt;Node7 -->
<g id="edge20" class="edge"><title>Node16&#45;&gt;Node7</title>
<path fill="none" stroke="midnightblue" d="M940.92,-122.398C833.317,-111.656 515.949,-79.9729 416.297,-70.0245"/>
<polygon fill="midnightblue" stroke="midnightblue" points="416.59,-66.5365 406.291,-69.0257 415.894,-73.5019 416.59,-66.5365"/>
</g>
<!-- Node17&#45;&gt;Node2 -->
<g id="edge44" class="edge"><title>Node17&#45;&gt;Node2</title>
<path fill="none" stroke="midnightblue" d="M1097.45,-402.872C1113.32,-394.931 1136.83,-381.759 1154,-366 1257.09,-271.391 1245.16,-214.877 1340,-112 1350.12,-101.027 1362.75,-90.0414 1373.03,-81.6711"/>
<polygon fill="midnightblue" stroke="midnightblue" points="1375.37,-84.283 1381.01,-75.3131 1371.01,-78.8091 1375.37,-84.283"/>
</g>
<!-- Node17&#45;&gt;Node4 -->
<g id="edge46" class="edge"><title>Node17&#45;&gt;Node4</title>
<path fill="none" stroke="midnightblue" d="M1079.73,-402.783C1078.87,-389.347 1075.33,-362.519 1061,-346 1047.97,-330.975 747.474,-213.493 735,-198 724.503,-184.963 720.899,-166.27 719.841,-151.481"/>
<polygon fill="midnightblue" stroke="midnightblue" points="723.324,-150.954 719.456,-141.09 716.329,-151.213 723.324,-150.954"/>
</g>
<!-- Node17&#45;&gt;Node6 -->
<g id="edge26" class="edge"><title>Node17&#45;&gt;Node6</title>
<path fill="none" stroke="midnightblue" d="M1074.63,-402.735C1065.48,-389.229 1045.66,-362.304 1023,-346 989.365,-321.801 975.093,-326.305 937,-310 879.914,-285.566 863.801,-283.2 809,-254 768.087,-232.2 759.769,-223.418 721,-198 657.043,-156.067 582.284,-104.996 547.165,-80.8805"/>
<polygon fill="midnightblue" stroke="midnightblue" points="548.959,-77.8667 538.735,-75.087 544.994,-83.6356 548.959,-77.8667"/>
</g>
<!-- Node17&#45;&gt;Node7 -->
<g id="edge27" class="edge"><title>Node17&#45;&gt;Node7</title>
<path fill="none" stroke="midnightblue" d="M1070,-402.875C1053.25,-389.57 1018.09,-362.927 985,-346 942.945,-324.489 928.52,-328.367 885,-310 698.467,-231.275 481.977,-118.08 410.367,-80.0331"/>
<polygon fill="midnightblue" stroke="midnightblue" points="411.713,-76.785 401.242,-75.1746 408.424,-82.9638 411.713,-76.785"/>
</g>
<!-- Node17&#45;&gt;Node9 -->
<g id="edge28" class="edge"><title>Node17&#45;&gt;Node9</title>
<path fill="none" stroke="midnightblue" d="M1059.47,-402.836C944.533,-357.126 381.119,-133.063 244.758,-78.8345"/>
<polygon fill="midnightblue" stroke="midnightblue" points="245.923,-75.531 235.337,-75.0878 243.336,-82.0355 245.923,-75.531"/>
</g>
<!-- Node17&#45;&gt;Node14 -->
<g id="edge25" class="edge"><title>Node17&#45;&gt;Node14</title>
<path fill="none" stroke="midnightblue" d="M1045.57,-402.916C1005.22,-393.444 938.298,-377.731 894.167,-367.37"/>
<polygon fill="midnightblue" stroke="midnightblue" points="894.828,-363.93 884.293,-365.051 893.228,-370.744 894.828,-363.93"/>
</g>
<!-- Node17&#45;&gt;Node15 -->
<g id="edge29" class="edge"><title>Node17&#45;&gt;Node15</title>
<path fill="none" stroke="midnightblue" d="M1096.72,-402.863C1110.17,-395.327 1128.23,-382.758 1137,-366 1144.53,-351.599 1144.87,-332.876 1143.71,-319.225"/>
<polygon fill="midnightblue" stroke="midnightblue" points="1147.17,-318.676 1142.52,-309.158 1140.22,-319.501 1147.17,-318.676"/>
</g>
<!-- Node17&#45;&gt;Node16 -->
<g id="edge45" class="edge"><title>Node17&#45;&gt;Node16</title>
<path fill="none" stroke="midnightblue" d="M1085.44,-402.63C1092.78,-390.294 1104.34,-366.478 1099,-346 1087.71,-302.692 1015.33,-187.519 987.696,-144.508"/>
<polygon fill="midnightblue" stroke="midnightblue" points="990.603,-142.556 982.241,-136.05 984.72,-146.35 990.603,-142.556"/>
</g>
<!-- Node18 -->
<g id="node17" class="node"><title>Node18</title>
<polygon fill="none" stroke="#bfbfbf" points="1340.96,-347 1340.96,-365 1419.04,-365 1419.04,-347 1340.96,-347"/>
<text text-anchor="middle" x="1380" y="-353" font-family="Helvetica,sans-Serif" font-size="10.00">boost/any.hpp</text>
</g>
<!-- Node17&#45;&gt;Node18 -->
<g id="edge24" class="edge"><title>Node17&#45;&gt;Node18</title>
<path fill="none" stroke="midnightblue" d="M1124.59,-402.974C1179.87,-393.024 1273.77,-376.122 1331.01,-365.819"/>
<polygon fill="midnightblue" stroke="midnightblue" points="1331.68,-369.253 1340.91,-364.037 1330.44,-362.364 1331.68,-369.253"/>
</g>
<!-- Node17&#45;&gt;Node19 -->
<g id="edge30" class="edge"><title>Node17&#45;&gt;Node19</title>
<path fill="none" stroke="midnightblue" d="M1133.37,-403.654C1137.98,-403.074 1142.57,-402.514 1147,-402 1307.05,-383.428 1350.46,-387.843 1514.52,-365.963"/>
<polygon fill="midnightblue" stroke="midnightblue" points="1515.03,-369.427 1524.47,-364.624 1514.09,-362.489 1515.03,-369.427"/>
</g>
<!-- Node20 -->
<g id="node19" class="node"><title>Node20</title>
<g id="a_node19"><a xlink:href="traits_8h.html" target="_top" xlink:title="Handle read/write of Model data from/to files. ">
<polygon fill="none" stroke="red" points="1684,-291 1684,-309 1730,-309 1730,-291 1684,-291"/>
<text text-anchor="middle" x="1707" y="-297" font-family="Helvetica,sans-Serif" font-size="10.00">traits.h</text>
</a>
</g>
</g>
<!-- Node17&#45;&gt;Node20 -->
<g id="edge63" class="edge"><title>Node17&#45;&gt;Node20</title>
<path fill="none" stroke="midnightblue" d="M1133.43,-408.176C1260.48,-401.227 1573.38,-382.649 1618,-366 1647,-355.178 1674.9,-332.071 1691.5,-316.531"/>
<polygon fill="midnightblue" stroke="midnightblue" points="1694.33,-318.662 1699.1,-309.199 1689.47,-313.625 1694.33,-318.662"/>
</g>
<!-- Node17&#45;&gt;Node21 -->
<g id="edge64" class="edge"><title>Node17&#45;&gt;Node21</title>
<path fill="none" stroke="midnightblue" d="M1110.24,-402.993C1213.18,-375.741 1550.01,-286.564 1666.74,-255.659"/>
<polygon fill="midnightblue" stroke="midnightblue" points="1667.92,-258.966 1676.7,-253.023 1666.13,-252.199 1667.92,-258.966"/>
</g>
<!-- Node17&#45;&gt;Node26 -->
<g id="edge47" class="edge"><title>Node17&#45;&gt;Node26</title>
<path fill="none" stroke="midnightblue" d="M1133.07,-408.423C1239,-402.983 1484.07,-388.908 1689,-366 1690.3,-365.855 1691.61,-365.703 1692.93,-365.545"/>
<polygon fill="midnightblue" stroke="midnightblue" points="1693.71,-368.974 1703.18,-364.234 1692.82,-362.031 1693.71,-368.974"/>
</g>
<!-- Node17&#45;&gt;Node27 -->
<g id="edge50" class="edge"><title>Node17&#45;&gt;Node27</title>
<path fill="none" stroke="midnightblue" d="M1026.84,-406.279C910.541,-395.949 634.885,-371.467 521.761,-361.42"/>
<polygon fill="midnightblue" stroke="midnightblue" points="521.921,-357.92 511.651,-360.522 521.302,-364.893 521.921,-357.92"/>
</g>
<!-- Node29 -->
<g id="node27" class="node"><title>Node29</title>
<g id="a_node27"><a xlink:href="keys_8h.html" target="_top" xlink:title="Declarations of the various key types. ">
<polygon fill="none" stroke="black" points="1437.33,-347 1437.33,-365 1506.67,-365 1506.67,-347 1437.33,-347"/>
<text text-anchor="middle" x="1472" y="-353" font-family="Helvetica,sans-Serif" font-size="10.00">RMF/keys.h</text>
</a>
</g>
</g>
<!-- Node17&#45;&gt;Node29 -->
<g id="edge58" class="edge"><title>Node17&#45;&gt;Node29</title>
<path fill="none" stroke="midnightblue" d="M1133.39,-403.798C1137.99,-403.187 1142.58,-402.58 1147,-402 1268.67,-386.035 1302.11,-386.59 1427.03,-366.056"/>
<polygon fill="midnightblue" stroke="midnightblue" points="1427.69,-369.495 1436.98,-364.408 1426.54,-362.589 1427.69,-369.495"/>
</g>
<!-- Node19&#45;&gt;Node2 -->
<g id="edge31" class="edge"><title>Node19&#45;&gt;Node2</title>
<path fill="none" stroke="midnightblue" d="M1554.64,-346.879C1524.29,-326.187 1446.02,-268.129 1411,-198 1392.58,-161.106 1390.65,-111.568 1391.14,-85.24"/>
<polygon fill="midnightblue" stroke="midnightblue" points="1394.64,-85.3029 1391.47,-75.1927 1387.64,-85.0715 1394.64,-85.3029"/>
</g>
<!-- Node19&#45;&gt;Node4 -->
<g id="edge42" class="edge"><title>Node19&#45;&gt;Node4</title>
<path fill="none" stroke="midnightblue" d="M1526.93,-346.995C1486.02,-338.607 1420.78,-324.635 1365,-310 1169.16,-258.619 1124.43,-230.91 929,-178 878.824,-164.415 821.356,-150.807 779.397,-141.225"/>
<polygon fill="midnightblue" stroke="midnightblue" points="780.143,-137.805 769.616,-139 778.59,-144.631 780.143,-137.805"/>
</g>
<!-- Node19&#45;&gt;Node16 -->
<g id="edge43" class="edge"><title>Node19&#45;&gt;Node16</title>
<path fill="none" stroke="midnightblue" d="M1535.02,-346.955C1504.14,-338.841 1456.26,-325.344 1416,-310 1341.69,-281.676 1327.19,-265.122 1254,-234 1166.71,-196.881 1061.61,-158.294 1009.53,-139.573"/>
<polygon fill="midnightblue" stroke="midnightblue" points="1010.44,-136.18 999.845,-136.1 1008.08,-142.77 1010.44,-136.18"/>
</g>
<!-- Node19&#45;&gt;Node20 -->
<g id="edge32" class="edge"><title>Node19&#45;&gt;Node20</title>
<path fill="none" stroke="midnightblue" d="M1587.96,-346.916C1611.36,-337.889 1649.46,-323.193 1676.24,-312.864"/>
<polygon fill="midnightblue" stroke="midnightblue" points="1677.83,-316.004 1685.9,-309.14 1675.31,-309.473 1677.83,-316.004"/>
</g>
<!-- Node20&#45;&gt;Node2 -->
<g id="edge33" class="edge"><title>Node20&#45;&gt;Node2</title>
<path fill="none" stroke="midnightblue" d="M1719.64,-290.748C1730.53,-282.811 1745.49,-269.72 1752,-254 1755.4,-245.788 1754.13,-242.631 1752,-234 1737.35,-174.548 1737.86,-147.541 1688,-112 1649.12,-84.2857 1513.6,-73.1739 1440.17,-69.1084"/>
<polygon fill="midnightblue" stroke="midnightblue" points="1439.98,-65.5933 1429.81,-68.5586 1439.61,-72.5835 1439.98,-65.5933"/>
</g>
<!-- Node20&#45;&gt;Node21 -->
<g id="edge34" class="edge"><title>Node20&#45;&gt;Node21</title>
<path fill="none" stroke="midnightblue" d="M1707,-290.562C1707,-283.308 1707,-272.588 1707,-263.369"/>
<polygon fill="midnightblue" stroke="midnightblue" points="1710.5,-263.201 1707,-253.201 1703.5,-263.201 1710.5,-263.201"/>
</g>
<!-- Node24 -->
<g id="node23" class="node"><title>Node24</title>
<polygon fill="none" stroke="#bfbfbf" points="1855.2,-235 1855.2,-253 1946.8,-253 1946.8,-235 1855.2,-235"/>
<text text-anchor="middle" x="1901" y="-241" font-family="Helvetica,sans-Serif" font-size="10.00">boost/cstdint.hpp</text>
</g>
<!-- Node20&#45;&gt;Node24 -->
<g id="edge41" class="edge"><title>Node20&#45;&gt;Node24</title>
<path fill="none" stroke="midnightblue" d="M1730.02,-292.593C1762.61,-283.521 1822.64,-266.812 1862.19,-255.802"/>
<polygon fill="midnightblue" stroke="midnightblue" points="1863.33,-259.119 1872.02,-253.066 1861.45,-252.375 1863.33,-259.119"/>
</g>
<!-- Node21&#45;&gt;Node2 -->
<g id="edge35" class="edge"><title>Node21&#45;&gt;Node2</title>
<path fill="none" stroke="midnightblue" d="M1706.9,-234.992C1706.13,-211.878 1700.54,-144.63 1662,-112 1629.27,-84.29 1508.49,-73.2848 1440.08,-69.2033"/>
<polygon fill="midnightblue" stroke="midnightblue" points="1440.16,-65.7024 1429.97,-68.6282 1439.76,-72.691 1440.16,-65.7024"/>
</g>
<!-- Node21&#45;&gt;Node22 -->
<g id="edge36" class="edge"><title>Node21&#45;&gt;Node22</title>
<path fill="none" stroke="midnightblue" d="M1670.43,-235.435C1620.66,-225.137 1532.11,-206.816 1482.42,-196.534"/>
<polygon fill="midnightblue" stroke="midnightblue" points="1482.93,-193.067 1472.43,-194.468 1481.51,-199.922 1482.93,-193.067"/>
</g>
<!-- Node22&#45;&gt;Node2 -->
<g id="edge37" class="edge"><title>Node22&#45;&gt;Node2</title>
<path fill="none" stroke="midnightblue" d="M1442.29,-178.752C1433.58,-159.399 1411.68,-110.731 1399.86,-84.4619"/>
<polygon fill="midnightblue" stroke="midnightblue" points="1403.03,-82.9887 1395.74,-75.3058 1396.65,-85.8613 1403.03,-82.9887"/>
</g>
<!-- Node22&#45;&gt;Node4 -->
<g id="edge38" class="edge"><title>Node22&#45;&gt;Node4</title>
<path fill="none" stroke="midnightblue" d="M1419.73,-184.865C1315.53,-176.397 929.666,-145.039 779.935,-132.871"/>
<polygon fill="midnightblue" stroke="midnightblue" points="779.82,-129.35 769.569,-132.028 779.253,-136.327 779.82,-129.35"/>
</g>
<!-- Node22&#45;&gt;Node16 -->
<g id="edge39" class="edge"><title>Node22&#45;&gt;Node16</title>
<path fill="none" stroke="midnightblue" d="M1419.78,-183.701C1343.47,-174.102 1120.76,-146.085 1023.43,-133.841"/>
<polygon fill="midnightblue" stroke="midnightblue" points="1023.66,-130.342 1013.3,-132.567 1022.79,-137.287 1023.66,-130.342"/>
</g>
<!-- Node23 -->
<g id="node22" class="node"><title>Node23</title>
<polygon fill="none" stroke="#bfbfbf" points="1596.44,-118 1596.44,-136 1653.56,-136 1653.56,-118 1596.44,-118"/>
<text text-anchor="middle" x="1625" y="-124" font-family="Helvetica,sans-Serif" font-size="10.00">algorithm</text>
</g>
<!-- Node22&#45;&gt;Node23 -->
<g id="edge40" class="edge"><title>Node22&#45;&gt;Node23</title>
<path fill="none" stroke="midnightblue" d="M1470.51,-178.92C1501.63,-168.665 1555.47,-150.919 1590.66,-139.319"/>
<polygon fill="midnightblue" stroke="midnightblue" points="1592.09,-142.531 1600.5,-136.077 1589.9,-135.883 1592.09,-142.531"/>
</g>
<!-- Node26&#45;&gt;Node2 -->
<g id="edge48" class="edge"><title>Node26&#45;&gt;Node2</title>
<path fill="none" stroke="midnightblue" d="M1760.51,-346.761C1782.21,-330.17 1827,-290.418 1827,-245 1827,-245 1827,-245 1827,-187 1827,-128.561 1773.44,-133.234 1719,-112 1624.87,-75.286 1505.28,-67.7985 1439.96,-66.6943"/>
<polygon fill="midnightblue" stroke="midnightblue" points="1440,-63.1946 1429.95,-66.5684 1439.91,-70.194 1440,-63.1946"/>
</g>
<!-- Node26&#45;&gt;Node15 -->
<g id="edge49" class="edge"><title>Node26&#45;&gt;Node15</title>
<path fill="none" stroke="midnightblue" d="M1703.05,-350.919C1583.18,-340.273 1263.66,-311.894 1168.26,-303.421"/>
<polygon fill="midnightblue" stroke="midnightblue" points="1168.52,-299.931 1158.25,-302.532 1167.9,-306.903 1168.52,-299.931"/>
</g>
<!-- Node27&#45;&gt;Node2 -->
<g id="edge51" class="edge"><title>Node27&#45;&gt;Node2</title>
<path fill="none" stroke="midnightblue" d="M492.607,-346.889C595.021,-306.618 1046.91,-129.393 1112,-112 1191.93,-90.6415 1287.57,-77.9335 1343.86,-71.7223"/>
<polygon fill="midnightblue" stroke="midnightblue" points="1344.33,-75.1917 1353.9,-70.6375 1343.58,-68.2322 1344.33,-75.1917"/>
</g>
<!-- Node27&#45;&gt;Node6 -->
<g id="edge57" class="edge"><title>Node27&#45;&gt;Node6</title>
<path fill="none" stroke="midnightblue" d="M477.317,-346.743C482.688,-337.987 490.776,-323.572 495,-310 520.258,-228.842 525.582,-126.388 526.702,-85.2843"/>
<polygon fill="midnightblue" stroke="midnightblue" points="530.204,-85.259 526.923,-75.1849 523.205,-85.1059 530.204,-85.259"/>
</g>
<!-- Node27&#45;&gt;Node7 -->
<g id="edge56" class="edge"><title>Node27&#45;&gt;Node7</title>
<path fill="none" stroke="midnightblue" d="M469.61,-346.997C458.062,-308.325 407.923,-140.418 391.344,-84.897"/>
<polygon fill="midnightblue" stroke="midnightblue" points="394.634,-83.6816 388.419,-75.1012 387.927,-85.6846 394.634,-83.6816"/>
</g>
<!-- Node27&#45;&gt;Node28 -->
<g id="edge52" class="edge"><title>Node27&#45;&gt;Node28</title>
<path fill="none" stroke="midnightblue" d="M486.325,-346.993C533.852,-320.43 686.643,-235.031 745.542,-202.111"/>
<polygon fill="midnightblue" stroke="midnightblue" points="747.449,-205.055 754.471,-197.121 744.034,-198.944 747.449,-205.055"/>
</g>
<!-- Node28&#45;&gt;Node2 -->
<g id="edge53" class="edge"><title>Node28&#45;&gt;Node2</title>
<path fill="none" stroke="midnightblue" d="M782.367,-178.958C809.483,-163.081 873.367,-127.873 932,-112 971.065,-101.425 1234.23,-79.5708 1344.03,-70.7823"/>
<polygon fill="midnightblue" stroke="midnightblue" points="1344.48,-74.258 1354.17,-69.9734 1343.92,-67.2802 1344.48,-74.258"/>
</g>
<!-- Node28&#45;&gt;Node4 -->
<g id="edge54" class="edge"><title>Node28&#45;&gt;Node4</title>
<path fill="none" stroke="midnightblue" d="M762.187,-178.796C755.796,-171.101 745.967,-159.266 737.404,-148.956"/>
<polygon fill="midnightblue" stroke="midnightblue" points="739.979,-146.578 730.898,-141.121 734.594,-151.051 739.979,-146.578"/>
</g>
<!-- Node28&#45;&gt;Node16 -->
<g id="edge55" class="edge"><title>Node28&#45;&gt;Node16</title>
<path fill="none" stroke="midnightblue" d="M794.505,-179.765C830.583,-169.532 896.792,-150.751 938.766,-138.845"/>
<polygon fill="midnightblue" stroke="midnightblue" points="939.958,-142.145 948.623,-136.049 938.048,-135.411 939.958,-142.145"/>
</g>
<!-- Node29&#45;&gt;Node2 -->
<g id="edge59" class="edge"><title>Node29&#45;&gt;Node2</title>
<path fill="none" stroke="midnightblue" d="M1474.39,-346.971C1481.58,-321.47 1501.27,-240.325 1481,-178 1467.79,-137.384 1431.82,-100.996 1409.87,-81.6533"/>
<polygon fill="midnightblue" stroke="midnightblue" points="1412.09,-78.9464 1402.21,-75.1015 1407.53,-84.2638 1412.09,-78.9464"/>
</g>
<!-- Node29&#45;&gt;Node4 -->
<g id="edge62" class="edge"><title>Node29&#45;&gt;Node4</title>
<path fill="none" stroke="midnightblue" d="M1439.92,-346.981C1405.65,-338.305 1349.8,-323.847 1302,-310 1114.47,-255.671 1069.44,-235.963 883,-178 846.113,-166.532 804.476,-153.763 772.518,-144"/>
<polygon fill="midnightblue" stroke="midnightblue" points="773.512,-140.644 762.926,-141.071 771.468,-147.339 773.512,-140.644"/>
</g>
<!-- Node29&#45;&gt;Node15 -->
<g id="edge60" class="edge"><title>Node29&#45;&gt;Node15</title>
<path fill="none" stroke="midnightblue" d="M1436.97,-347.66C1433.94,-347.079 1430.92,-346.517 1428,-346 1321.79,-327.186 1294.32,-328.146 1188,-310 1181.7,-308.925 1174.95,-307.685 1168.58,-306.474"/>
<polygon fill="midnightblue" stroke="midnightblue" points="1168.86,-302.964 1158.38,-304.501 1167.53,-309.836 1168.86,-302.964"/>
</g>
<!-- Node29&#45;&gt;Node20 -->
<g id="edge61" class="edge"><title>Node29&#45;&gt;Node20</title>
<path fill="none" stroke="midnightblue" d="M1506.68,-347.032C1551.71,-336.684 1629.77,-318.747 1673.98,-308.588"/>
<polygon fill="midnightblue" stroke="midnightblue" points="1674.96,-311.954 1683.92,-306.303 1673.39,-305.132 1674.96,-311.954"/>
</g>
<!-- Node31&#45;&gt;Node2 -->
<g id="edge89" class="edge"><title>Node31&#45;&gt;Node2</title>
<path fill="none" stroke="midnightblue" d="M762.587,-527.165C799.922,-521.208 851.888,-509.646 893,-488 910.832,-478.611 908.805,-466.665 927,-458 1014.47,-416.344 1058.95,-471.89 1142,-422 1281.31,-338.319 1363.28,-143.824 1385.69,-84.4952"/>
<polygon fill="midnightblue" stroke="midnightblue" points="1389,-85.6406 1389.18,-75.0474 1382.43,-83.2138 1389,-85.6406"/>
</g>
<!-- Node31&#45;&gt;Node3 -->
<g id="edge90" class="edge"><title>Node31&#45;&gt;Node3</title>
<path fill="none" stroke="midnightblue" d="M665.667,-532.581C541.354,-530.999 213.14,-523.483 111,-488 54.7581,-468.462 0,-472.539 0,-413 0,-413 0,-413 0,-126 0,-38.5043 98.461,-74.4009 184,-56 310.915,-28.6984 695.227,-16.5832 856.994,-12.5943"/>
<polygon fill="midnightblue" stroke="midnightblue" points="857.41,-16.0853 867.322,-12.3433 857.24,-9.0874 857.41,-16.0853"/>
</g>
<!-- Node31&#45;&gt;Node7 -->
<g id="edge73" class="edge"><title>Node31&#45;&gt;Node7</title>
<path fill="none" stroke="midnightblue" d="M665.564,-531.498C541.068,-527.281 216.794,-513.914 176,-488 32.976,-397.147 106.476,-217.582 239,-112 273.04,-84.8804 323.358,-74.0516 355.406,-69.7634"/>
<polygon fill="midnightblue" stroke="midnightblue" points="356.014,-73.2156 365.524,-68.5458 355.177,-66.2658 356.014,-73.2156"/>
</g>
<!-- Node31&#45;&gt;Node9 -->
<g id="edge74" class="edge"><title>Node31&#45;&gt;Node9</title>
<path fill="none" stroke="midnightblue" d="M665.257,-531.902C533.918,-528.568 179.595,-516.962 136,-488 101.07,-464.794 63,-305.221 63,-301 63,-301 63,-301 63,-187 63,-126.176 138.907,-91.391 183.438,-76.2175"/>
<polygon fill="midnightblue" stroke="midnightblue" points="184.801,-79.4545 193.222,-73.0257 182.63,-72.7997 184.801,-79.4545"/>
</g>
<!-- Node31&#45;&gt;Node13 -->
<g id="edge88" class="edge"><title>Node31&#45;&gt;Node13</title>
<path fill="none" stroke="midnightblue" d="M730.407,-524.796C750.134,-514.933 783.461,-498.269 806.539,-486.731"/>
<polygon fill="midnightblue" stroke="midnightblue" points="808.353,-489.737 815.732,-482.134 805.222,-483.476 808.353,-489.737"/>
</g>
<!-- Node31&#45;&gt;Node14 -->
<g id="edge72" class="edge"><title>Node31&#45;&gt;Node14</title>
<path fill="none" stroke="midnightblue" d="M720.288,-524.647C730.752,-510.766 752.426,-482.09 771,-458 794.222,-427.882 821.631,-392.983 837.298,-373.097"/>
<polygon fill="midnightblue" stroke="midnightblue" points="840.17,-375.107 843.613,-365.087 834.673,-370.773 840.17,-375.107"/>
</g>
<!-- Node31&#45;&gt;Node15 -->
<g id="edge87" class="edge"><title>Node31&#45;&gt;Node15</title>
<path fill="none" stroke="midnightblue" d="M714.342,-524.954C716.067,-495.492 726.306,-392.778 786,-346 811.687,-325.871 1034.36,-308.47 1113.35,-302.879"/>
<polygon fill="midnightblue" stroke="midnightblue" points="1113.78,-306.358 1123.51,-302.169 1113.29,-299.375 1113.78,-306.358"/>
</g>
<!-- Node31&#45;&gt;Node21 -->
<g id="edge92" class="edge"><title>Node31&#45;&gt;Node21</title>
<path fill="none" stroke="midnightblue" d="M751.958,-524.957C839.439,-506.467 1050.25,-462.197 1083,-458 1228.91,-439.3 1605.24,-470.856 1744,-422 1789.65,-405.925 1830.64,-393.625 1822,-346 1817.26,-319.845 1818.95,-309.602 1801,-290 1786.7,-274.393 1765.85,-263.653 1747.41,-256.591"/>
<polygon fill="midnightblue" stroke="midnightblue" points="1748.35,-253.21 1737.75,-253.133 1745.99,-259.8 1748.35,-253.21"/>
</g>
<!-- Node31&#45;&gt;Node27 -->
<g id="edge91" class="edge"><title>Node31&#45;&gt;Node27</title>
<path fill="none" stroke="midnightblue" d="M665.463,-530.886C566.765,-526.088 350.093,-512.819 328,-488 302.586,-459.451 305.36,-432.795 328,-402 349.419,-372.866 389.616,-362.068 422.108,-358.302"/>
<polygon fill="midnightblue" stroke="midnightblue" points="422.736,-361.758 432.353,-357.312 422.063,-354.79 422.736,-361.758"/>
</g>
<!-- Node32 -->
<g id="node29" class="node"><title>Node32</title>
<g id="a_node29"><a xlink:href="FileConstHandle_8h.html" target="_top" xlink:title="Handle read/write of Model data from/to files. ">
<polygon fill="none" stroke="red" points="554.867,-464 554.867,-482 653.133,-482 653.133,-464 554.867,-464"/>
<text text-anchor="middle" x="604" y="-470" font-family="Helvetica,sans-Serif" font-size="10.00">FileConstHandle.h</text>
</a>
</g>
</g>
<!-- Node31&#45;&gt;Node32 -->
<g id="edge75" class="edge"><title>Node31&#45;&gt;Node32</title>
<path fill="none" stroke="midnightblue" d="M698.705,-524.796C680.398,-514.977 649.525,-498.418 628.024,-486.885"/>
<polygon fill="midnightblue" stroke="midnightblue" points="629.632,-483.776 619.165,-482.134 626.323,-489.945 629.632,-483.776"/>
</g>
<!-- Node32&#45;&gt;Node2 -->
<g id="edge81" class="edge"><title>Node32&#45;&gt;Node2</title>
<path fill="none" stroke="midnightblue" d="M610.818,-463.558C622.294,-449.673 646.612,-421.603 671,-402 708.31,-372.011 721.112,-369.168 763,-346 966.498,-233.446 1014.03,-195.681 1231,-112 1268.75,-97.4404 1313.13,-85.3931 1345.73,-77.4396"/>
<polygon fill="midnightblue" stroke="midnightblue" points="1346.97,-80.7416 1355.87,-75.0031 1345.33,-73.9352 1346.97,-80.7416"/>
</g>
<!-- Node32&#45;&gt;Node4 -->
<g id="edge85" class="edge"><title>Node32&#45;&gt;Node4</title>
<path fill="none" stroke="midnightblue" d="M554.837,-464.428C513.788,-455.516 464.31,-437.229 480,-402 489.731,-380.151 503.377,-383.197 520,-366 593.168,-290.304 670.95,-191.784 703.835,-149.17"/>
<polygon fill="midnightblue" stroke="midnightblue" points="706.655,-151.245 709.976,-141.184 701.106,-146.977 706.655,-151.245"/>
</g>
<!-- Node32&#45;&gt;Node7 -->
<g id="edge77" class="edge"><title>Node32&#45;&gt;Node7</title>
<path fill="none" stroke="midnightblue" d="M554.749,-467.53C466.604,-456.536 291,-419.734 291,-301 291,-301 291,-301 291,-187 291,-140.006 336.342,-100.67 364.376,-80.8406"/>
<polygon fill="midnightblue" stroke="midnightblue" points="366.5,-83.6284 372.791,-75.1029 362.557,-77.845 366.5,-83.6284"/>
</g>
<!-- Node32&#45;&gt;Node9 -->
<g id="edge78" class="edge"><title>Node32&#45;&gt;Node9</title>
<path fill="none" stroke="midnightblue" d="M554.534,-471.316C500.919,-468.594 414.407,-458.3 350,-422 219.634,-348.525 187.365,-289.649 163,-142 160.829,-128.845 157.457,-124.127 163,-112 168.953,-98.9768 180.741,-88.279 191.591,-80.5864"/>
<polygon fill="midnightblue" stroke="midnightblue" points="193.535,-83.4972 199.962,-75.0743 189.685,-77.6509 193.535,-83.4972"/>
</g>
<!-- Node32&#45;&gt;Node14 -->
<g id="edge76" class="edge"><title>Node32&#45;&gt;Node14</title>
<path fill="none" stroke="midnightblue" d="M614.03,-463.8C631.923,-449.513 670.954,-419.88 708,-402 739.355,-386.867 777.003,-375.205 805.653,-367.549"/>
<polygon fill="midnightblue" stroke="midnightblue" points="806.595,-370.921 815.387,-365.009 804.827,-364.148 806.595,-370.921"/>
</g>
<!-- Node32&#45;&gt;Node15 -->
<g id="edge80" class="edge"><title>Node32&#45;&gt;Node15</title>
<path fill="none" stroke="midnightblue" d="M610.248,-463.668C628.784,-439.729 686.351,-370.883 753,-346 819.304,-321.246 1035.44,-306.942 1112.99,-302.504"/>
<polygon fill="midnightblue" stroke="midnightblue" points="1113.6,-305.975 1123.39,-301.921 1113.21,-298.986 1113.6,-305.975"/>
</g>
<!-- Node32&#45;&gt;Node16 -->
<g id="edge84" class="edge"><title>Node32&#45;&gt;Node16</title>
<path fill="none" stroke="midnightblue" d="M607.725,-463.647C614.103,-449.889 628.08,-421.998 645,-402 744.682,-284.185 899.576,-178.152 955.746,-141.555"/>
<polygon fill="midnightblue" stroke="midnightblue" points="957.686,-144.468 964.182,-136.098 953.884,-138.59 957.686,-144.468"/>
</g>
<!-- Node32&#45;&gt;Node17 -->
<g id="edge79" class="edge"><title>Node32&#45;&gt;Node17</title>
<path fill="none" stroke="midnightblue" d="M653.148,-465.908C740.008,-455.142 920.531,-432.766 1016.62,-420.856"/>
<polygon fill="midnightblue" stroke="midnightblue" points="1017.29,-424.3 1026.78,-419.597 1016.42,-417.354 1017.29,-424.3"/>
</g>
<!-- Node32&#45;&gt;Node21 -->
<g id="edge86" class="edge"><title>Node32&#45;&gt;Node21</title>
<path fill="none" stroke="midnightblue" d="M653.37,-467.707C784.164,-456.294 1130.45,-425.813 1142,-422 1158.29,-416.625 1158.68,-407.28 1175,-402 1268.97,-371.59 1531.74,-414.118 1618,-366 1620.8,-364.44 1671.75,-293.968 1695.27,-261.306"/>
<polygon fill="midnightblue" stroke="midnightblue" points="1698.12,-263.346 1701.12,-253.185 1692.44,-259.257 1698.12,-263.346"/>
</g>
<!-- Node32&#45;&gt;Node26 -->
<g id="edge82" class="edge"><title>Node32&#45;&gt;Node26</title>
<path fill="none" stroke="midnightblue" d="M653.483,-467.83C772.863,-457.743 1074.25,-432.114 1175,-422 1365.06,-402.921 1590.03,-376.253 1692.77,-363.848"/>
<polygon fill="midnightblue" stroke="midnightblue" points="1693.41,-367.297 1702.91,-362.622 1692.56,-360.347 1693.41,-367.297"/>
</g>
<!-- Node32&#45;&gt;Node27 -->
<g id="edge83" class="edge"><title>Node32&#45;&gt;Node27</title>
<path fill="none" stroke="midnightblue" d="M554.491,-471.426C516.956,-468.057 467.603,-456.697 442,-422 430.649,-406.618 443.768,-386.255 456.05,-372.449"/>
<polygon fill="midnightblue" stroke="midnightblue" points="458.627,-374.819 462.993,-365.166 453.56,-369.989 458.627,-374.819"/>
</g>
<!-- Node33&#45;&gt;Node2 -->
<g id="edge94" class="edge"><title>Node33&#45;&gt;Node2</title>
<path fill="none" stroke="midnightblue" d="M1504.25,-532.045C1637.86,-528.946 2017.92,-517.595 2065,-488 2119.53,-453.719 2127,-421.414 2127,-357 2127,-357 2127,-357 2127,-187 2127,-136.951 2089.12,-131.441 2043,-112 1934.24,-66.1549 1571.28,-65.1269 1439.95,-66.3321"/>
<polygon fill="midnightblue" stroke="midnightblue" points="1439.76,-62.8337 1429.8,-66.4341 1439.83,-69.8333 1439.76,-62.8337"/>
</g>
<!-- Node33&#45;&gt;Node4 -->
<g id="edge95" class="edge"><title>Node33&#45;&gt;Node4</title>
<path fill="none" stroke="midnightblue" d="M1411.73,-532.197C1220.7,-528.717 501.454,-513.936 461,-488 406.096,-452.8 394.58,-404.206 424,-346 477.138,-240.871 607.515,-174.016 676.135,-144.892"/>
<polygon fill="midnightblue" stroke="midnightblue" points="677.51,-148.11 685.394,-141.032 674.817,-141.649 677.51,-148.11"/>
</g>
<!-- Node33&#45;&gt;Node7 -->
<g id="edge98" class="edge"><title>Node33&#45;&gt;Node7</title>
<path fill="none" stroke="midnightblue" d="M1411.74,-532.813C1222.92,-531.802 516.153,-525.524 424,-488 308.561,-440.993 215,-425.643 215,-301 215,-301 215,-301 215,-243 215,-173.353 249.492,-158.879 301,-112 317,-97.4377 338.578,-86.0886 355.99,-78.4306"/>
<polygon fill="midnightblue" stroke="midnightblue" points="357.825,-81.4555 365.686,-74.3518 355.111,-75.0032 357.825,-81.4555"/>
</g>
<!-- Node33&#45;&gt;Node11 -->
<g id="edge101" class="edge"><title>Node33&#45;&gt;Node11</title>
<path fill="none" stroke="midnightblue" d="M1504.38,-531.531C1623.58,-527.395 1933.97,-514.207 1972,-488 2045.93,-437.061 2040.57,-375.112 2012,-290 1990.09,-224.735 1966.59,-208.755 1905,-178 1804.88,-128.003 1772.09,-132.094 1662,-112 1584.7,-97.8907 1358.94,-79.5499 1251.77,-71.3238"/>
<polygon fill="midnightblue" stroke="midnightblue" points="1252.01,-67.8324 1241.78,-70.5598 1251.48,-74.8121 1252.01,-67.8324"/>
</g>
<!-- Node33&#45;&gt;Node13 -->
<g id="edge116" class="edge"><title>Node33&#45;&gt;Node13</title>
<path fill="none" stroke="midnightblue" d="M1411.61,-528.773C1325.4,-520.9 1134.66,-503.389 974,-488 947.884,-485.499 919.073,-482.671 894.267,-480.215"/>
<polygon fill="midnightblue" stroke="midnightblue" points="894.556,-476.726 884.259,-479.222 893.865,-483.692 894.556,-476.726"/>
</g>
<!-- Node33&#45;&gt;Node14 -->
<g id="edge97" class="edge"><title>Node33&#45;&gt;Node14</title>
<path fill="none" stroke="midnightblue" d="M1411.65,-530.882C1317.53,-526.113 1107.23,-512.955 1040,-488 1002.63,-474.13 908.591,-402.697 868.533,-371.55"/>
<polygon fill="midnightblue" stroke="midnightblue" points="870.455,-368.61 860.419,-365.216 866.148,-374.128 870.455,-368.61"/>
</g>
<!-- Node33&#45;&gt;Node15 -->
<g id="edge96" class="edge"><title>Node33&#45;&gt;Node15</title>
<path fill="none" stroke="midnightblue" d="M1411.57,-530.818C1316.02,-525.852 1104.49,-512.219 1083,-488 1042.81,-442.694 1139.45,-425.601 1142,-422 1161.79,-394.109 1158.79,-379.859 1154,-346 1152.7,-336.819 1149.98,-326.888 1147.36,-318.697"/>
<polygon fill="midnightblue" stroke="midnightblue" points="1150.64,-317.479 1144.11,-309.142 1144.02,-319.736 1150.64,-317.479"/>
</g>
<!-- Node33&#45;&gt;Node17 -->
<g id="edge115" class="edge"><title>Node33&#45;&gt;Node17</title>
<path fill="none" stroke="midnightblue" d="M1411.77,-531.308C1310.01,-527.109 1073.8,-514.574 1050,-488 1034.86,-471.099 1050.84,-445.603 1064.65,-429.127"/>
<polygon fill="midnightblue" stroke="midnightblue" points="1067.47,-431.225 1071.5,-421.427 1062.24,-426.573 1067.47,-431.225"/>
</g>
<!-- Node33&#45;&gt;Node18 -->
<g id="edge112" class="edge"><title>Node33&#45;&gt;Node18</title>
<path fill="none" stroke="midnightblue" d="M1504.31,-533.298C1581.84,-532.7 1732.73,-526.479 1766,-488 1774.72,-477.913 1774.15,-468.554 1766,-458 1745.2,-431.058 1528.81,-385.952 1429.42,-366.453"/>
<polygon fill="midnightblue" stroke="midnightblue" points="1429.81,-362.963 1419.33,-364.481 1428.47,-369.833 1429.81,-362.963"/>
</g>
<!-- Node33&#45;&gt;Node20 -->
<g id="edge114" class="edge"><title>Node33&#45;&gt;Node20</title>
<path fill="none" stroke="midnightblue" d="M1504.07,-530.93C1600.61,-526.119 1817.07,-512.674 1839,-488 1882.25,-439.337 1846.41,-394.526 1803,-346 1786.44,-327.49 1760.67,-315.991 1740,-309.255"/>
<polygon fill="midnightblue" stroke="midnightblue" points="1740.91,-305.873 1730.32,-306.321 1738.88,-312.572 1740.91,-305.873"/>
</g>
<!-- Node33&#45;&gt;Node21 -->
<g id="edge109" class="edge"><title>Node33&#45;&gt;Node21</title>
<path fill="none" stroke="midnightblue" d="M1504.26,-531.669C1596.48,-528.399 1799.75,-517.93 1862,-488 1904.49,-467.574 1937,-460.14 1937,-413 1937,-413 1937,-413 1937,-355 1937,-324.205 1936.23,-310.215 1913,-290 1889.63,-269.668 1807.15,-256.553 1753.91,-249.998"/>
<polygon fill="midnightblue" stroke="midnightblue" points="1754.03,-246.487 1743.68,-248.774 1753.19,-253.437 1754.03,-246.487"/>
</g>
<!-- Node33&#45;&gt;Node23 -->
<g id="edge113" class="edge"><title>Node33&#45;&gt;Node23</title>
<path fill="none" stroke="midnightblue" d="M1504.21,-533.628C1610.63,-534.302 1869.51,-531.304 1943,-488 1973.59,-469.977 1977.23,-455.831 1988,-422 2013.73,-341.163 2014.5,-294.466 1955,-234 1875.07,-152.779 1732.82,-133.718 1664.19,-129.298"/>
<polygon fill="midnightblue" stroke="midnightblue" points="1664.01,-125.782 1653.82,-128.707 1663.61,-132.771 1664.01,-125.782"/>
</g>
<!-- Node33&#45;&gt;Node24 -->
<g id="edge111" class="edge"><title>Node33&#45;&gt;Node24</title>
<path fill="none" stroke="midnightblue" d="M1504.4,-532.325C1603.75,-530.238 1833.63,-521.793 1903,-488 1944.54,-467.765 1975,-459.207 1975,-413 1975,-413 1975,-413 1975,-355 1975,-315.202 1941.24,-278.983 1919.33,-259.664"/>
<polygon fill="midnightblue" stroke="midnightblue" points="1921.49,-256.913 1911.6,-253.115 1916.97,-262.252 1921.49,-256.913"/>
</g>
<!-- Node33&#45;&gt;Node26 -->
<g id="edge99" class="edge"><title>Node33&#45;&gt;Node26</title>
<path fill="none" stroke="midnightblue" d="M1504.24,-530.616C1597.14,-525.351 1799.4,-511.316 1820,-488 1852.41,-451.317 1798.12,-397.297 1767.59,-371.607"/>
<polygon fill="midnightblue" stroke="midnightblue" points="1769.66,-368.775 1759.7,-365.15 1765.23,-374.192 1769.66,-368.775"/>
</g>
<!-- Node33&#45;&gt;Node27 -->
<g id="edge100" class="edge"><title>Node33&#45;&gt;Node27</title>
<path fill="none" stroke="midnightblue" d="M1411.86,-532.018C1238.16,-528.145 629.194,-512.908 546,-488 490.65,-471.428 462.666,-472.165 434,-422 424.242,-404.923 439.082,-385.465 452.977,-372.324"/>
<polygon fill="midnightblue" stroke="midnightblue" points="455.665,-374.62 460.855,-365.383 451.038,-369.368 455.665,-374.62"/>
</g>
<!-- Node33&#45;&gt;Node29 -->
<g id="edge107" class="edge"><title>Node33&#45;&gt;Node29</title>
<path fill="none" stroke="midnightblue" d="M1504.27,-530.237C1592.96,-524.466 1779.86,-509.834 1799,-488 1844.24,-436.396 1753.3,-414.939 1723,-402 1640.06,-366.579 1609.83,-382.19 1517.13,-366.097"/>
<polygon fill="midnightblue" stroke="midnightblue" points="1517.51,-362.609 1507.05,-364.266 1516.26,-369.497 1517.51,-362.609"/>
</g>
<!-- Node34 -->
<g id="node31" class="node"><title>Node34</title>
<polygon fill="none" stroke="#bfbfbf" points="1091.74,-459 1091.74,-487 1202.26,-487 1202.26,-459 1091.74,-459"/>
<text text-anchor="start" x="1099.74" y="-475" font-family="Helvetica,sans-Serif" font-size="10.00">boost/functional/hash</text>
<text text-anchor="middle" x="1147" y="-465" font-family="Helvetica,sans-Serif" font-size="10.00">/hash.hpp</text>
</g>
<!-- Node33&#45;&gt;Node34 -->
<g id="edge102" class="edge"><title>Node33&#45;&gt;Node34</title>
<path fill="none" stroke="midnightblue" d="M1411.93,-525.105C1364.38,-516.846 1287.81,-503.236 1212.6,-488.283"/>
<polygon fill="midnightblue" stroke="midnightblue" points="1212.97,-484.788 1202.48,-486.261 1211.6,-491.652 1212.97,-484.788"/>
</g>
<!-- Node35 -->
<g id="node32" class="node"><title>Node35</title>
<polygon fill="none" stroke="#bfbfbf" points="1220.33,-464 1220.33,-482 1249.67,-482 1249.67,-464 1220.33,-464"/>
<text text-anchor="middle" x="1235" y="-470" font-family="Helvetica,sans-Serif" font-size="10.00">set</text>
</g>
<!-- Node33&#45;&gt;Node35 -->
<g id="edge103" class="edge"><title>Node33&#45;&gt;Node35</title>
<path fill="none" stroke="midnightblue" d="M1411.85,-526.979C1370.47,-520.57 1308.65,-508.469 1258,-488 1257.28,-487.711 1256.57,-487.401 1255.85,-487.074"/>
<polygon fill="midnightblue" stroke="midnightblue" points="1257.25,-483.854 1246.79,-482.183 1253.92,-490.013 1257.25,-483.854"/>
</g>
<!-- Node36 -->
<g id="node33" class="node"><title>Node36</title>
<polygon fill="none" stroke="#bfbfbf" points="1267.27,-464 1267.27,-482 1302.73,-482 1302.73,-464 1267.27,-464"/>
<text text-anchor="middle" x="1285" y="-470" font-family="Helvetica,sans-Serif" font-size="10.00">map</text>
</g>
<!-- Node33&#45;&gt;Node36 -->
<g id="edge104" class="edge"><title>Node33&#45;&gt;Node36</title>
<path fill="none" stroke="midnightblue" d="M1425.24,-524.956C1395.01,-517.073 1349.18,-503.938 1311,-488 1309.98,-487.575 1308.95,-487.123 1307.92,-486.651"/>
<polygon fill="midnightblue" stroke="midnightblue" points="1309.29,-483.425 1298.79,-482.074 1306.16,-489.684 1309.29,-483.425"/>
</g>
<!-- Node37 -->
<g id="node34" class="node"><title>Node37</title>
<polygon fill="none" stroke="#bfbfbf" points="1320.4,-464 1320.4,-482 1447.6,-482 1447.6,-464 1320.4,-464"/>
<text text-anchor="middle" x="1384" y="-470" font-family="Helvetica,sans-Serif" font-size="10.00">boost/unordered_set.hpp</text>
</g>
<!-- Node33&#45;&gt;Node37 -->
<g id="edge105" class="edge"><title>Node33&#45;&gt;Node37</title>
<path fill="none" stroke="midnightblue" d="M1447.71,-524.796C1436,-515.462 1416.65,-500.035 1402.35,-488.627"/>
<polygon fill="midnightblue" stroke="midnightblue" points="1404.2,-485.631 1394.2,-482.134 1399.84,-491.105 1404.2,-485.631"/>
</g>
<!-- Node38 -->
<g id="node35" class="node"><title>Node38</title>
<polygon fill="none" stroke="#bfbfbf" points="1465.35,-464 1465.35,-482 1598.65,-482 1598.65,-464 1465.35,-464"/>
<text text-anchor="middle" x="1532" y="-470" font-family="Helvetica,sans-Serif" font-size="10.00">boost/unordered_map.hpp</text>
</g>
<!-- Node33&#45;&gt;Node38 -->
<g id="edge106" class="edge"><title>Node33&#45;&gt;Node38</title>
<path fill="none" stroke="midnightblue" d="M1468.29,-524.796C1480,-515.462 1499.35,-500.035 1513.65,-488.627"/>
<polygon fill="midnightblue" stroke="midnightblue" points="1516.16,-491.105 1521.8,-482.134 1511.8,-485.631 1516.16,-491.105"/>
</g>
<!-- Node42 -->
<g id="node36" class="node"><title>Node42</title>
<polygon fill="none" stroke="#bfbfbf" points="1617.1,-464 1617.1,-482 1660.9,-482 1660.9,-464 1617.1,-464"/>
<text text-anchor="middle" x="1639" y="-470" font-family="Helvetica,sans-Serif" font-size="10.00">hdf5.h</text>
</g>
<!-- Node33&#45;&gt;Node42 -->
<g id="edge108" class="edge"><title>Node33&#45;&gt;Node42</title>
<path fill="none" stroke="midnightblue" d="M1488.31,-524.987C1518.67,-516.698 1566.56,-502.895 1607,-488 1608.64,-487.395 1610.32,-486.748 1612.01,-486.077"/>
<polygon fill="midnightblue" stroke="midnightblue" points="1613.68,-489.174 1621.55,-482.083 1610.97,-482.717 1613.68,-489.174"/>
</g>
<!-- Node48 -->
<g id="node37" class="node"><title>Node48</title>
<polygon fill="none" stroke="#bfbfbf" points="1678.6,-464 1678.6,-482 1757.4,-482 1757.4,-464 1678.6,-464"/>
<text text-anchor="middle" x="1718" y="-470" font-family="Helvetica,sans-Serif" font-size="10.00">RMF/names.h</text>
</g>
<!-- Node33&#45;&gt;Node48 -->
<g id="edge110" class="edge"><title>Node33&#45;&gt;Node48</title>
<path fill="none" stroke="midnightblue" d="M1499.83,-524.954C1542.54,-516.533 1610.67,-502.536 1669,-488 1673.06,-486.989 1677.28,-485.875 1681.48,-484.729"/>
<polygon fill="midnightblue" stroke="midnightblue" points="1682.44,-488.095 1691.13,-482.034 1680.56,-481.354 1682.44,-488.095"/>
</g>
</g>
</svg>
