<?xml version="1.0" encoding="UTF-8" standalone="no"?>
<!DOCTYPE svg PUBLIC "-//W3C//DTD SVG 1.1//EN"
 "http://www.w3.org/Graphics/SVG/1.1/DTD/svg11.dtd">
<!-- Generated by graphviz version 2.36.0 (20140111.2315)
 -->
<!-- Title: BufferConstHandle.h Pages: 1 -->
<svg width="1219pt" height="214pt"
 viewBox="0.00 0.00 1219.00 214.00" xmlns="http://www.w3.org/2000/svg" xmlns:xlink="http://www.w3.org/1999/xlink">
<g id="graph0" class="graph" transform="scale(1 1) rotate(0) translate(4 210)">
<title>BufferConstHandle.h</title>
<!-- Node1 -->
<g id="node1" class="node"><title>Node1</title>
<polygon fill="#bfbfbf" stroke="black" points="635.672,-187 635.672,-205 744.328,-205 744.328,-187 635.672,-187"/>
<text text-anchor="middle" x="690" y="-193" font-family="Helvetica,sans-Serif" font-size="10.00">BufferConstHandle.h</text>
</g>
<!-- Node2 -->
<g id="node2" class="node"><title>Node2</title>
<g id="a_node2"><a xlink:href="config_8h_source.html" target="_top" xlink:title="RMF/config.h">
<polygon fill="none" stroke="black" points="-0.731445,-66 -0.731445,-84 74.7314,-84 74.7314,-66 -0.731445,-66"/>
<text text-anchor="middle" x="37" y="-72" font-family="Helvetica,sans-Serif" font-size="10.00">RMF/config.h</text>
</a>
</g>
</g>
<!-- Node1&#45;&gt;Node2 -->
<g id="edge1" class="edge"><title>Node1&#45;&gt;Node2</title>
<path fill="none" stroke="midnightblue" d="M635.664,-190.997C528.053,-181.977 281.096,-155.823 83,-94 77.2312,-92.1996 71.1528,-90.0265 65.3723,-87.8223"/>
<polygon fill="midnightblue" stroke="midnightblue" points="66.6198,-84.552 56.0328,-84.1437 64.0544,-91.065 66.6198,-84.552"/>
</g>
<!-- Node4 -->
<g id="node4" class="node"><title>Node4</title>
<g id="a_node4"><a xlink:href="infrastructure__macros_8h.html" target="_top" xlink:title="Various general useful macros for IMP. ">
<polygon fill="none" stroke="black" points="560.48,-131 560.48,-149 681.52,-149 681.52,-131 560.48,-131"/>
<text text-anchor="middle" x="621" y="-137" font-family="Helvetica,sans-Serif" font-size="10.00">infrastructure_macros.h</text>
</a>
</g>
</g>
<!-- Node1&#45;&gt;Node4 -->
<g id="edge3" class="edge"><title>Node1&#45;&gt;Node4</title>
<path fill="none" stroke="midnightblue" d="M679.52,-186.799C668.983,-178.552 652.511,-165.661 639.724,-155.654"/>
<polygon fill="midnightblue" stroke="midnightblue" points="641.61,-152.685 631.578,-149.279 637.296,-158.198 641.61,-152.685"/>
</g>
<!-- Node5 -->
<g id="node5" class="node"><title>Node5</title>
<polygon fill="none" stroke="#bfbfbf" points="506.219,-66 506.219,-84 557.781,-84 557.781,-66 506.219,-66"/>
<text text-anchor="middle" x="532" y="-72" font-family="Helvetica,sans-Serif" font-size="10.00">sstream</text>
</g>
<!-- Node1&#45;&gt;Node5 -->
<g id="edge21" class="edge"><title>Node1&#45;&gt;Node5</title>
<path fill="none" stroke="midnightblue" d="M635.462,-189.922C606.635,-184.462 572.804,-173.194 551,-150 536.827,-134.924 532.872,-110.743 531.945,-94.1517"/>
<polygon fill="midnightblue" stroke="midnightblue" points="535.442,-93.9946 531.698,-84.0834 528.444,-94.1662 535.442,-93.9946"/>
</g>
<!-- Node7 -->
<g id="node7" class="node"><title>Node7</title>
<polygon fill="none" stroke="#bfbfbf" points="447.773,-66 447.773,-84 488.227,-84 488.227,-66 447.773,-66"/>
<text text-anchor="middle" x="468" y="-72" font-family="Helvetica,sans-Serif" font-size="10.00">string</text>
</g>
<!-- Node1&#45;&gt;Node7 -->
<g id="edge22" class="edge"><title>Node1&#45;&gt;Node7</title>
<path fill="none" stroke="midnightblue" d="M637.516,-186.99C606.291,-180.503 566.875,-169.184 536,-150 511.992,-135.083 491.138,-109.412 479.061,-92.5708"/>
<polygon fill="midnightblue" stroke="midnightblue" points="481.864,-90.4711 473.29,-84.2476 476.112,-94.4597 481.864,-90.4711"/>
</g>
<!-- Node13 -->
<g id="node13" class="node"><title>Node13</title>
<g id="a_node13"><a xlink:href="exceptions_8h.html" target="_top" xlink:title="Declarations of the various exception types. ">
<polygon fill="none" stroke="black" points="328.926,-131 328.926,-149 401.074,-149 401.074,-131 328.926,-131"/>
<text text-anchor="middle" x="365" y="-137" font-family="Helvetica,sans-Serif" font-size="10.00">exceptions.h</text>
</a>
</g>
</g>
<!-- Node1&#45;&gt;Node13 -->
<g id="edge13" class="edge"><title>Node1&#45;&gt;Node13</title>
<path fill="none" stroke="midnightblue" d="M641.695,-186.974C579.68,-176.67 472.798,-158.911 411.613,-148.745"/>
<polygon fill="midnightblue" stroke="midnightblue" points="411.908,-145.246 401.47,-147.06 410.761,-152.151 411.908,-145.246"/>
</g>
<!-- Node17 -->
<g id="node17" class="node"><title>Node17</title>
<polygon fill="none" stroke="#bfbfbf" points="699.853,-131 699.853,-149 818.147,-149 818.147,-131 699.853,-131"/>
<text text-anchor="middle" x="759" y="-137" font-family="Helvetica,sans-Serif" font-size="10.00">boost/exception/all.hpp</text>
</g>
<!-- Node1&#45;&gt;Node17 -->
<g id="edge20" class="edge"><title>Node1&#45;&gt;Node17</title>
<path fill="none" stroke="midnightblue" d="M700.48,-186.799C711.017,-178.552 727.489,-165.661 740.276,-155.654"/>
<polygon fill="midnightblue" stroke="midnightblue" points="742.704,-158.198 748.422,-149.279 738.39,-152.685 742.704,-158.198"/>
</g>
<!-- Node18 -->
<g id="node18" class="node"><title>Node18</title>
<polygon fill="none" stroke="#bfbfbf" points="836.018,-131 836.018,-149 945.982,-149 945.982,-131 836.018,-131"/>
<text text-anchor="middle" x="891" y="-137" font-family="Helvetica,sans-Serif" font-size="10.00">boost/shared_ptr.hpp</text>
</g>
<!-- Node1&#45;&gt;Node18 -->
<g id="edge23" class="edge"><title>Node1&#45;&gt;Node18</title>
<path fill="none" stroke="midnightblue" d="M720.092,-186.916C754.976,-177.544 812.606,-162.061 851.177,-151.699"/>
<polygon fill="midnightblue" stroke="midnightblue" points="852.282,-155.026 861.031,-149.051 850.466,-148.266 852.282,-155.026"/>
</g>
<!-- Node19 -->
<g id="node19" class="node"><title>Node19</title>
<polygon fill="none" stroke="#bfbfbf" points="964.353,-131 964.353,-149 1087.65,-149 1087.65,-131 964.353,-131"/>
<text text-anchor="middle" x="1026" y="-137" font-family="Helvetica,sans-Serif" font-size="10.00">boost/make_shared.hpp</text>
</g>
<!-- Node1&#45;&gt;Node19 -->
<g id="edge24" class="edge"><title>Node1&#45;&gt;Node19</title>
<path fill="none" stroke="midnightblue" d="M739.94,-186.974C800.241,-177.283 901.574,-160.997 966.042,-150.636"/>
<polygon fill="midnightblue" stroke="midnightblue" points="966.743,-154.069 976.061,-149.026 965.632,-147.157 966.743,-154.069"/>
</g>
<!-- Node20 -->
<g id="node20" class="node"><title>Node20</title>
<polygon fill="none" stroke="#bfbfbf" points="1105.61,-131 1105.61,-149 1144.39,-149 1144.39,-131 1105.61,-131"/>
<text text-anchor="middle" x="1125" y="-137" font-family="Helvetica,sans-Serif" font-size="10.00">limits</text>
</g>
<!-- Node1&#45;&gt;Node20 -->
<g id="edge25" class="edge"><title>Node1&#45;&gt;Node20</title>
<path fill="none" stroke="midnightblue" d="M744.369,-192.271C820.835,-187.709 964.5,-176.488 1095.66,-149.657"/>
<polygon fill="midnightblue" stroke="midnightblue" points="1096.4,-153.077 1105.48,-147.613 1094.97,-146.224 1096.4,-153.077"/>
</g>
<!-- Node21 -->
<g id="node21" class="node"><title>Node21</title>
<polygon fill="none" stroke="#bfbfbf" points="1162.88,-131 1162.88,-149 1211.12,-149 1211.12,-131 1162.88,-131"/>
<text text-anchor="middle" x="1187" y="-137" font-family="Helvetica,sans-Serif" font-size="10.00">stdint.h</text>
</g>
<!-- Node1&#45;&gt;Node21 -->
<g id="edge26" class="edge"><title>Node1&#45;&gt;Node21</title>
<path fill="none" stroke="midnightblue" d="M744.564,-192.561C829.676,-188.13 999.256,-176.788 1152.52,-149.769"/>
<polygon fill="midnightblue" stroke="midnightblue" points="1153.37,-153.174 1162.59,-147.967 1152.13,-146.283 1153.37,-153.174"/>
</g>
<!-- Node3 -->
<g id="node3" class="node"><title>Node3</title>
<g id="a_node3"><a xlink:href="compiler__macros_8h.html" target="_top" xlink:title="Various compiler workarounds. ">
<polygon fill="none" stroke="black" points="357.544,-1 357.544,-19 482.456,-19 482.456,-1 357.544,-1"/>
<text text-anchor="middle" x="420" y="-7" font-family="Helvetica,sans-Serif" font-size="10.00">RMF/compiler_macros.h</text>
</a>
</g>
</g>
<!-- Node2&#45;&gt;Node3 -->
<g id="edge2" class="edge"><title>Node2&#45;&gt;Node3</title>
<path fill="none" stroke="midnightblue" d="M54.5833,-65.971C63.0207,-62.4179 73.3685,-58.4888 83,-56 172.284,-32.9292 278.103,-21.2579 347.023,-15.6648"/>
<polygon fill="midnightblue" stroke="midnightblue" points="347.644,-19.1267 357.338,-14.8507 347.093,-12.1484 347.644,-19.1267"/>
</g>
<!-- Node4&#45;&gt;Node3 -->
<g id="edge7" class="edge"><title>Node4&#45;&gt;Node3</title>
<path fill="none" stroke="midnightblue" d="M617.823,-130.804C610.957,-114.167 593.13,-76.2956 566,-56 542.93,-38.7415 513.152,-28.0272 486.512,-21.4107"/>
<polygon fill="midnightblue" stroke="midnightblue" points="487.01,-17.9329 476.476,-19.0704 485.42,-24.75 487.01,-17.9329"/>
</g>
<!-- Node4&#45;&gt;Node5 -->
<g id="edge4" class="edge"><title>Node4&#45;&gt;Node5</title>
<path fill="none" stroke="midnightblue" d="M609.365,-130.764C594.76,-120.425 569.483,-102.533 551.809,-90.0222"/>
<polygon fill="midnightblue" stroke="midnightblue" points="553.541,-86.9599 543.357,-84.039 549.497,-92.6734 553.541,-86.9599"/>
</g>
<!-- Node6 -->
<g id="node6" class="node"><title>Node6</title>
<polygon fill="none" stroke="#bfbfbf" points="613.828,-66 613.828,-84 668.172,-84 668.172,-66 613.828,-66"/>
<text text-anchor="middle" x="641" y="-72" font-family="Helvetica,sans-Serif" font-size="10.00">iostream</text>
</g>
<!-- Node4&#45;&gt;Node6 -->
<g id="edge5" class="edge"><title>Node4&#45;&gt;Node6</title>
<path fill="none" stroke="midnightblue" d="M623.615,-130.764C626.596,-121.374 631.555,-105.752 635.415,-93.5914"/>
<polygon fill="midnightblue" stroke="midnightblue" points="638.758,-94.6293 638.448,-84.039 632.086,-92.5112 638.758,-94.6293"/>
</g>
<!-- Node4&#45;&gt;Node7 -->
<g id="edge6" class="edge"><title>Node4&#45;&gt;Node7</title>
<path fill="none" stroke="midnightblue" d="M593.733,-130.905C568.157,-122.896 529.142,-109.598 497,-94 494.16,-92.6215 491.245,-91.0372 488.411,-89.3923"/>
<polygon fill="midnightblue" stroke="midnightblue" points="490.168,-86.3643 479.816,-84.109 486.502,-92.3277 490.168,-86.3643"/>
</g>
<!-- Node8 -->
<g id="node8" class="node"><title>Node8</title>
<polygon fill="none" stroke="black" points="686,-57 686,-93 740,-93 740,-57 686,-57"/>
<text text-anchor="middle" x="712.734" y="-72" font-family="Helvetica,sans-Serif" font-size="10.00">Node8</text>
</g>
<!-- Node4&#45;&gt;Node8 -->
<g id="edge8" class="edge"><title>Node4&#45;&gt;Node8</title>
<path fill="none" stroke="midnightblue" d="M633.027,-130.764C644.89,-122.641 663.562,-109.854 679.882,-98.6789"/>
<polygon fill="midnightblue" stroke="midnightblue" points="681.879,-101.553 688.153,-93.015 677.924,-95.7773 681.879,-101.553"/>
</g>
<!-- Node9 -->
<g id="node9" class="node"><title>Node9</title>
<polygon fill="none" stroke="#bfbfbf" points="758.384,-66 758.384,-84 801.616,-84 801.616,-66 758.384,-66"/>
<text text-anchor="middle" x="780" y="-72" font-family="Helvetica,sans-Serif" font-size="10.00">vector</text>
</g>
<!-- Node4&#45;&gt;Node9 -->
<g id="edge9" class="edge"><title>Node4&#45;&gt;Node9</title>
<path fill="none" stroke="midnightblue" d="M648.555,-130.964C674.883,-122.903 715.416,-109.486 749,-94 752.108,-92.5667 755.312,-90.9184 758.426,-89.2137"/>
<polygon fill="midnightblue" stroke="midnightblue" points="760.402,-92.1148 767.318,-84.0887 756.906,-86.0501 760.402,-92.1148"/>
</g>
<!-- Node10 -->
<g id="node10" class="node"><title>Node10</title>
<polygon fill="none" stroke="#bfbfbf" points="819.306,-66 819.306,-84 908.694,-84 908.694,-66 819.306,-66"/>
<text text-anchor="middle" x="864" y="-72" font-family="Helvetica,sans-Serif" font-size="10.00">boost/config.hpp</text>
</g>
<!-- Node4&#45;&gt;Node10 -->
<g id="edge10" class="edge"><title>Node4&#45;&gt;Node10</title>
<path fill="none" stroke="midnightblue" d="M659.266,-130.926C697.628,-122.589 758.263,-108.751 810,-94 816.96,-92.0157 824.357,-89.6936 831.371,-87.3894"/>
<polygon fill="midnightblue" stroke="midnightblue" points="832.91,-90.5649 841.279,-84.0677 830.685,-83.928 832.91,-90.5649"/>
</g>
<!-- Node11 -->
<g id="node11" class="node"><title>Node11</title>
<polygon fill="none" stroke="#bfbfbf" points="926.53,-66 926.53,-84 1021.47,-84 1021.47,-66 926.53,-66"/>
<text text-anchor="middle" x="974" y="-72" font-family="Helvetica,sans-Serif" font-size="10.00">boost/version.hpp</text>
</g>
<!-- Node4&#45;&gt;Node11 -->
<g id="edge11" class="edge"><title>Node4&#45;&gt;Node11</title>
<path fill="none" stroke="midnightblue" d="M681.311,-130.957C754.462,-121.004 873.395,-104.135 917,-94 925.031,-92.1333 933.568,-89.6915 941.522,-87.2113"/>
<polygon fill="midnightblue" stroke="midnightblue" points="942.762,-90.4893 951.205,-84.0896 940.614,-83.8269 942.762,-90.4893"/>
</g>
<!-- Node12 -->
<g id="node12" class="node"><title>Node12</title>
<polygon fill="none" stroke="#bfbfbf" points="1038.97,-66 1038.97,-84 1135.03,-84 1135.03,-66 1038.97,-66"/>
<text text-anchor="middle" x="1087" y="-72" font-family="Helvetica,sans-Serif" font-size="10.00">boost/foreach.hpp</text>
</g>
<!-- Node4&#45;&gt;Node12 -->
<g id="edge12" class="edge"><title>Node4&#45;&gt;Node12</title>
<path fill="none" stroke="midnightblue" d="M681.696,-131.113C684.842,-130.73 687.958,-130.357 691,-130 841.481,-112.338 881.685,-124.968 1030,-94 1038.38,-92.2508 1047.27,-89.7606 1055.48,-87.1884"/>
<polygon fill="midnightblue" stroke="midnightblue" points="1056.66,-90.4867 1065.08,-84.0544 1054.48,-83.8327 1056.66,-90.4867"/>
</g>
<!-- Node13&#45;&gt;Node2 -->
<g id="edge17" class="edge"><title>Node13&#45;&gt;Node2</title>
<path fill="none" stroke="midnightblue" d="M328.865,-135.741C274.706,-130.297 169.589,-117.556 83,-94 76.9567,-92.356 70.6177,-90.185 64.6437,-87.9216"/>
<polygon fill="midnightblue" stroke="midnightblue" points="65.6363,-84.5497 55.0509,-84.1019 63.0467,-91.053 65.6363,-84.5497"/>
</g>
<!-- Node13&#45;&gt;Node3 -->
<g id="edge18" class="edge"><title>Node13&#45;&gt;Node3</title>
<path fill="none" stroke="midnightblue" d="M373.454,-130.843C381.717,-122.389 394.039,-108.415 401,-94 411.028,-73.234 415.89,-46.9555 418.158,-29.5941"/>
<polygon fill="midnightblue" stroke="midnightblue" points="421.69,-29.5087 419.345,-19.1766 414.735,-28.7159 421.69,-29.5087"/>
</g>
<!-- Node13&#45;&gt;Node7 -->
<g id="edge16" class="edge"><title>Node13&#45;&gt;Node7</title>
<path fill="none" stroke="midnightblue" d="M378.465,-130.764C395.678,-120.236 425.698,-101.874 446.192,-89.3391"/>
<polygon fill="midnightblue" stroke="midnightblue" points="448.152,-92.2427 454.857,-84.039 444.5,-86.2711 448.152,-92.2427"/>
</g>
<!-- Node14 -->
<g id="node14" class="node"><title>Node14</title>
<polygon fill="none" stroke="#bfbfbf" points="92.4512,-66 92.4512,-84 243.549,-84 243.549,-66 92.4512,-66"/>
<text text-anchor="middle" x="168" y="-72" font-family="Helvetica,sans-Serif" font-size="10.00">boost/exception/exception.hpp</text>
</g>
<!-- Node13&#45;&gt;Node14 -->
<g id="edge14" class="edge"><title>Node13&#45;&gt;Node14</title>
<path fill="none" stroke="midnightblue" d="M339.649,-130.893C304.852,-119.765 242.151,-99.7133 202.929,-87.1701"/>
<polygon fill="midnightblue" stroke="midnightblue" points="203.845,-83.7884 193.254,-84.0761 201.712,-90.4558 203.845,-83.7884"/>
</g>
<!-- Node15 -->
<g id="node15" class="node"><title>Node15</title>
<polygon fill="none" stroke="#bfbfbf" points="261.596,-66 261.596,-84 320.404,-84 320.404,-66 261.596,-66"/>
<text text-anchor="middle" x="291" y="-72" font-family="Helvetica,sans-Serif" font-size="10.00">exception</text>
</g>
<!-- Node13&#45;&gt;Node15 -->
<g id="edge15" class="edge"><title>Node13&#45;&gt;Node15</title>
<path fill="none" stroke="midnightblue" d="M355.326,-130.764C343.405,-120.615 322.934,-103.187 308.286,-90.7162"/>
<polygon fill="midnightblue" stroke="midnightblue" points="310.326,-87.8565 300.443,-84.039 305.788,-93.1865 310.326,-87.8565"/>
</g>
<!-- Node16 -->
<g id="node16" class="node"><title>Node16</title>
<polygon fill="none" stroke="black" points="338,-57 338,-93 392,-93 392,-57 338,-57"/>
<text text-anchor="middle" x="364.515" y="-72" font-family="Helvetica,sans-Serif" font-size="10.00">Node16</text>
</g>
<!-- Node13&#45;&gt;Node16 -->
<g id="edge19" class="edge"><title>Node13&#45;&gt;Node16</title>
<path fill="none" stroke="midnightblue" d="M365,-130.764C365,-123.684 365,-113.062 365,-103.051"/>
<polygon fill="midnightblue" stroke="midnightblue" points="368.5,-103.015 365,-93.015 361.5,-103.015 368.5,-103.015"/>
</g>
</g>
</svg>
