<?xml version="1.0" encoding="UTF-8" standalone="no"?>
<!DOCTYPE svg PUBLIC "-//W3C//DTD SVG 1.1//EN"
 "http://www.w3.org/Graphics/SVG/1.1/DTD/svg11.dtd">
<!-- Generated by graphviz version 2.36.0 (20140111.2315)
 -->
<!-- Title: BufferHandle.h Pages: 1 -->
<svg width="1224pt" height="270pt"
 viewBox="0.00 0.00 1224.00 270.00" xmlns="http://www.w3.org/2000/svg" xmlns:xlink="http://www.w3.org/1999/xlink">
<g id="graph0" class="graph" transform="scale(1 1) rotate(0) translate(4 266)">
<title>BufferHandle.h</title>
<!-- Node1 -->
<g id="node1" class="node"><title>Node1</title>
<polygon fill="#bfbfbf" stroke="black" points="993.733,-243 993.733,-261 1076.27,-261 1076.27,-243 993.733,-243"/>
<text text-anchor="middle" x="1035" y="-249" font-family="Helvetica,sans-Serif" font-size="10.00">BufferHandle.h</text>
</g>
<!-- Node2 -->
<g id="node2" class="node"><title>Node2</title>
<g id="a_node2"><a xlink:href="config_8h_source.html" target="_top" xlink:title="RMF/config.h">
<polygon fill="none" stroke="black" points="1141.27,-66 1141.27,-84 1216.73,-84 1216.73,-66 1141.27,-66"/>
<text text-anchor="middle" x="1179" y="-72" font-family="Helvetica,sans-Serif" font-size="10.00">RMF/config.h</text>
</a>
</g>
</g>
<!-- Node1&#45;&gt;Node2 -->
<g id="edge1" class="edge"><title>Node1&#45;&gt;Node2</title>
<path fill="none" stroke="midnightblue" d="M1056.07,-242.979C1088.31,-229.419 1148.81,-198.596 1174,-150 1182.97,-132.706 1183.08,-110.01 1181.67,-94.3353"/>
<polygon fill="midnightblue" stroke="midnightblue" points="1185.14,-93.8578 1180.49,-84.3406 1178.19,-94.6838 1185.14,-93.8578"/>
</g>
<!-- Node4 -->
<g id="node4" class="node"><title>Node4</title>
<g id="a_node4"><a xlink:href="infrastructure__macros_8h.html" target="_top" xlink:title="Various general useful macros for IMP. ">
<polygon fill="none" stroke="black" points="312.48,-131 312.48,-149 433.52,-149 433.52,-131 312.48,-131"/>
<text text-anchor="middle" x="373" y="-137" font-family="Helvetica,sans-Serif" font-size="10.00">infrastructure_macros.h</text>
</a>
</g>
</g>
<!-- Node1&#45;&gt;Node4 -->
<g id="edge3" class="edge"><title>Node1&#45;&gt;Node4</title>
<path fill="none" stroke="midnightblue" d="M993.63,-245.313C935.073,-237.163 824.705,-221.438 731,-206 621.691,-187.991 494.137,-164.152 424.635,-150.922"/>
<polygon fill="midnightblue" stroke="midnightblue" points="425.289,-147.484 414.811,-149.049 423.978,-154.36 425.289,-147.484"/>
</g>
<!-- Node13 -->
<g id="node13" class="node"><title>Node13</title>
<g id="a_node13"><a xlink:href="exceptions_8h.html" target="_top" xlink:title="Declarations of the various exception types. ">
<polygon fill="none" stroke="black" points="998.926,-131 998.926,-149 1071.07,-149 1071.07,-131 998.926,-131"/>
<text text-anchor="middle" x="1035" y="-137" font-family="Helvetica,sans-Serif" font-size="10.00">exceptions.h</text>
</a>
</g>
</g>
<!-- Node1&#45;&gt;Node13 -->
<g id="edge13" class="edge"><title>Node1&#45;&gt;Node13</title>
<path fill="none" stroke="midnightblue" d="M1035,-242.732C1035,-225.127 1035,-183.575 1035,-159.372"/>
<polygon fill="midnightblue" stroke="midnightblue" points="1038.5,-159.065 1035,-149.065 1031.5,-159.065 1038.5,-159.065"/>
</g>
<!-- Node17 -->
<g id="node17" class="node"><title>Node17</title>
<g id="a_node17"><a xlink:href="BufferConstHandle_8h.html" target="_top" xlink:title="Declare RMF::BufferConstHandle. ">
<polygon fill="none" stroke="black" points="739.672,-187 739.672,-205 848.328,-205 848.328,-187 739.672,-187"/>
<text text-anchor="middle" x="794" y="-193" font-family="Helvetica,sans-Serif" font-size="10.00">BufferConstHandle.h</text>
</a>
</g>
</g>
<!-- Node1&#45;&gt;Node17 -->
<g id="edge20" class="edge"><title>Node1&#45;&gt;Node17</title>
<path fill="none" stroke="midnightblue" d="M999.18,-242.974C956.791,-233.476 886.131,-217.644 839.801,-207.263"/>
<polygon fill="midnightblue" stroke="midnightblue" points="840.54,-203.841 830.017,-205.07 839.009,-210.672 840.54,-203.841"/>
</g>
<!-- Node21 -->
<g id="node21" class="node"><title>Node21</title>
<polygon fill="none" stroke="#bfbfbf" points="1126.61,-131 1126.61,-149 1165.39,-149 1165.39,-131 1126.61,-131"/>
<text text-anchor="middle" x="1146" y="-137" font-family="Helvetica,sans-Serif" font-size="10.00">limits</text>
</g>
<!-- Node1&#45;&gt;Node21 -->
<g id="edge31" class="edge"><title>Node1&#45;&gt;Node21</title>
<path fill="none" stroke="midnightblue" d="M1043.34,-242.732C1061.92,-224.327 1106.9,-179.748 1130.68,-156.183"/>
<polygon fill="midnightblue" stroke="midnightblue" points="1133.22,-158.59 1137.86,-149.065 1128.3,-153.618 1133.22,-158.59"/>
</g>
<!-- Node3 -->
<g id="node3" class="node"><title>Node3</title>
<g id="a_node3"><a xlink:href="compiler__macros_8h.html" target="_top" xlink:title="Various compiler workarounds. ">
<polygon fill="none" stroke="black" points="733.544,-1 733.544,-19 858.456,-19 858.456,-1 733.544,-1"/>
<text text-anchor="middle" x="796" y="-7" font-family="Helvetica,sans-Serif" font-size="10.00">RMF/compiler_macros.h</text>
</a>
</g>
</g>
<!-- Node2&#45;&gt;Node3 -->
<g id="edge2" class="edge"><title>Node2&#45;&gt;Node3</title>
<path fill="none" stroke="midnightblue" d="M1161.02,-65.983C1152.39,-62.4325 1141.82,-58.5021 1132,-56 1043.03,-33.336 937.732,-21.5838 869.037,-15.8605"/>
<polygon fill="midnightblue" stroke="midnightblue" points="869.004,-12.3465 858.754,-15.0261 868.438,-19.3236 869.004,-12.3465"/>
</g>
<!-- Node4&#45;&gt;Node3 -->
<g id="edge7" class="edge"><title>Node4&#45;&gt;Node3</title>
<path fill="none" stroke="midnightblue" d="M423.629,-130.942C455.442,-124.339 496.468,-112.914 529,-94 549.922,-81.8362 546.575,-67.2534 568,-56 616.086,-30.743 676.649,-19.6055 723.268,-14.722"/>
<polygon fill="midnightblue" stroke="midnightblue" points="723.682,-18.1984 733.295,-13.745 723.003,-11.2314 723.682,-18.1984"/>
</g>
<!-- Node5 -->
<g id="node5" class="node"><title>Node5</title>
<polygon fill="none" stroke="#bfbfbf" points="577.219,-66 577.219,-84 628.781,-84 628.781,-66 577.219,-66"/>
<text text-anchor="middle" x="603" y="-72" font-family="Helvetica,sans-Serif" font-size="10.00">sstream</text>
</g>
<!-- Node4&#45;&gt;Node5 -->
<g id="edge4" class="edge"><title>Node4&#45;&gt;Node5</title>
<path fill="none" stroke="midnightblue" d="M417.441,-130.965C456.381,-123.339 514.216,-110.585 563,-94 567.795,-92.37 572.797,-90.3722 577.577,-88.3078"/>
<polygon fill="midnightblue" stroke="midnightblue" points="579.267,-91.3845 586.935,-84.0729 576.381,-85.0072 579.267,-91.3845"/>
</g>
<!-- Node6 -->
<g id="node6" class="node"><title>Node6</title>
<polygon fill="none" stroke="#bfbfbf" points="225.828,-66 225.828,-84 280.172,-84 280.172,-66 225.828,-66"/>
<text text-anchor="middle" x="253" y="-72" font-family="Helvetica,sans-Serif" font-size="10.00">iostream</text>
</g>
<!-- Node4&#45;&gt;Node6 -->
<g id="edge5" class="edge"><title>Node4&#45;&gt;Node6</title>
<path fill="none" stroke="midnightblue" d="M357.312,-130.764C336.987,-120.093 301.335,-101.376 277.446,-88.8341"/>
<polygon fill="midnightblue" stroke="midnightblue" points="278.793,-85.5885 268.312,-84.039 275.539,-91.7863 278.793,-85.5885"/>
</g>
<!-- Node7 -->
<g id="node7" class="node"><title>Node7</title>
<polygon fill="none" stroke="#bfbfbf" points="646.773,-66 646.773,-84 687.227,-84 687.227,-66 646.773,-66"/>
<text text-anchor="middle" x="667" y="-72" font-family="Helvetica,sans-Serif" font-size="10.00">string</text>
</g>
<!-- Node4&#45;&gt;Node7 -->
<g id="edge6" class="edge"><title>Node4&#45;&gt;Node7</title>
<path fill="none" stroke="midnightblue" d="M426.487,-130.968C497.88,-120.08 617.625,-101.174 637,-94 640.407,-92.7385 643.859,-91.0839 647.15,-89.2887"/>
<polygon fill="midnightblue" stroke="midnightblue" points="649.063,-92.2229 655.825,-84.0668 645.452,-86.2256 649.063,-92.2229"/>
</g>
<!-- Node8 -->
<g id="node8" class="node"><title>Node8</title>
<polygon fill="none" stroke="black" points="298,-57 298,-93 352,-93 352,-57 298,-57"/>
<text text-anchor="middle" x="324.734" y="-72" font-family="Helvetica,sans-Serif" font-size="10.00">Node8</text>
</g>
<!-- Node4&#45;&gt;Node8 -->
<g id="edge8" class="edge"><title>Node4&#45;&gt;Node8</title>
<path fill="none" stroke="midnightblue" d="M366.725,-130.764C360.99,-123.237 352.205,-111.706 344.172,-101.163"/>
<polygon fill="midnightblue" stroke="midnightblue" points="346.808,-98.8482 337.964,-93.015 341.24,-103.09 346.808,-98.8482"/>
</g>
<!-- Node9 -->
<g id="node9" class="node"><title>Node9</title>
<polygon fill="none" stroke="#bfbfbf" points="370.384,-66 370.384,-84 413.616,-84 413.616,-66 370.384,-66"/>
<text text-anchor="middle" x="392" y="-72" font-family="Helvetica,sans-Serif" font-size="10.00">vector</text>
</g>
<!-- Node4&#45;&gt;Node9 -->
<g id="edge9" class="edge"><title>Node4&#45;&gt;Node9</title>
<path fill="none" stroke="midnightblue" d="M375.484,-130.764C378.287,-121.469 382.932,-106.067 386.583,-93.961"/>
<polygon fill="midnightblue" stroke="midnightblue" points="390.039,-94.6237 389.576,-84.039 383.337,-92.6024 390.039,-94.6237"/>
</g>
<!-- Node10 -->
<g id="node10" class="node"><title>Node10</title>
<polygon fill="none" stroke="#bfbfbf" points="431.306,-66 431.306,-84 520.694,-84 520.694,-66 431.306,-66"/>
<text text-anchor="middle" x="476" y="-72" font-family="Helvetica,sans-Serif" font-size="10.00">boost/config.hpp</text>
</g>
<!-- Node4&#45;&gt;Node10 -->
<g id="edge10" class="edge"><title>Node4&#45;&gt;Node10</title>
<path fill="none" stroke="midnightblue" d="M386.465,-130.764C403.678,-120.236 433.698,-101.874 454.192,-89.3391"/>
<polygon fill="midnightblue" stroke="midnightblue" points="456.152,-92.2427 462.857,-84.039 452.5,-86.2711 456.152,-92.2427"/>
</g>
<!-- Node11 -->
<g id="node11" class="node"><title>Node11</title>
<polygon fill="none" stroke="#bfbfbf" points="-0.470215,-66 -0.470215,-84 94.4702,-84 94.4702,-66 -0.470215,-66"/>
<text text-anchor="middle" x="47" y="-72" font-family="Helvetica,sans-Serif" font-size="10.00">boost/version.hpp</text>
</g>
<!-- Node4&#45;&gt;Node11 -->
<g id="edge11" class="edge"><title>Node4&#45;&gt;Node11</title>
<path fill="none" stroke="midnightblue" d="M312.438,-131.481C257.38,-124.038 174.119,-111.259 103,-94 95.115,-92.0865 86.7302,-89.6269 78.9154,-87.1445"/>
<polygon fill="midnightblue" stroke="midnightblue" points="79.9947,-83.8151 69.4019,-84.0273 77.815,-90.4671 79.9947,-83.8151"/>
</g>
<!-- Node12 -->
<g id="node12" class="node"><title>Node12</title>
<polygon fill="none" stroke="#bfbfbf" points="111.971,-66 111.971,-84 208.029,-84 208.029,-66 111.971,-66"/>
<text text-anchor="middle" x="160" y="-72" font-family="Helvetica,sans-Serif" font-size="10.00">boost/foreach.hpp</text>
</g>
<!-- Node4&#45;&gt;Node12 -->
<g id="edge12" class="edge"><title>Node4&#45;&gt;Node12</title>
<path fill="none" stroke="midnightblue" d="M344.184,-130.921C312.829,-122.076 261.253,-107.368 217,-94 209.76,-91.8131 202.024,-89.4127 194.659,-87.0975"/>
<polygon fill="midnightblue" stroke="midnightblue" points="195.519,-83.6987 184.929,-84.0212 193.409,-90.3731 195.519,-83.6987"/>
</g>
<!-- Node13&#45;&gt;Node2 -->
<g id="edge17" class="edge"><title>Node13&#45;&gt;Node2</title>
<path fill="none" stroke="midnightblue" d="M1053.53,-130.893C1078.26,-120.072 1122.28,-100.813 1151.06,-88.2256"/>
<polygon fill="midnightblue" stroke="midnightblue" points="1152.78,-91.2909 1160.54,-84.0761 1149.98,-84.8778 1152.78,-91.2909"/>
</g>
<!-- Node13&#45;&gt;Node3 -->
<g id="edge18" class="edge"><title>Node13&#45;&gt;Node3</title>
<path fill="none" stroke="midnightblue" d="M998.511,-131.795C936.406,-119.496 816.651,-95.6134 815,-94 797.757,-77.1533 794.772,-48.0888 794.877,-29.2089"/>
<polygon fill="midnightblue" stroke="midnightblue" points="798.375,-29.3202 795.227,-19.2041 791.379,-29.0758 798.375,-29.3202"/>
</g>
<!-- Node13&#45;&gt;Node7 -->
<g id="edge16" class="edge"><title>Node13&#45;&gt;Node7</title>
<path fill="none" stroke="midnightblue" d="M998.858,-131.833C995.527,-131.201 992.203,-130.582 989,-130 882.116,-110.585 754.802,-89.9755 697.549,-80.8407"/>
<polygon fill="midnightblue" stroke="midnightblue" points="697.803,-77.3371 687.377,-79.2209 696.702,-84.25 697.803,-77.3371"/>
</g>
<!-- Node14 -->
<g id="node14" class="node"><title>Node14</title>
<polygon fill="none" stroke="#bfbfbf" points="972.451,-66 972.451,-84 1123.55,-84 1123.55,-66 972.451,-66"/>
<text text-anchor="middle" x="1048" y="-72" font-family="Helvetica,sans-Serif" font-size="10.00">boost/exception/exception.hpp</text>
</g>
<!-- Node13&#45;&gt;Node14 -->
<g id="edge14" class="edge"><title>Node13&#45;&gt;Node14</title>
<path fill="none" stroke="midnightblue" d="M1036.7,-130.764C1038.62,-121.469 1041.8,-106.067 1044.29,-93.961"/>
<polygon fill="midnightblue" stroke="midnightblue" points="1047.75,-94.54 1046.34,-84.039 1040.89,-93.1253 1047.75,-94.54"/>
</g>
<!-- Node15 -->
<g id="node15" class="node"><title>Node15</title>
<polygon fill="none" stroke="#bfbfbf" points="823.596,-66 823.596,-84 882.404,-84 882.404,-66 823.596,-66"/>
<text text-anchor="middle" x="853" y="-72" font-family="Helvetica,sans-Serif" font-size="10.00">exception</text>
</g>
<!-- Node13&#45;&gt;Node15 -->
<g id="edge15" class="edge"><title>Node13&#45;&gt;Node15</title>
<path fill="none" stroke="midnightblue" d="M1005.07,-130.967C975.653,-122.763 929.666,-109.114 891,-94 886.676,-92.3099 882.156,-90.3487 877.803,-88.3554"/>
<polygon fill="midnightblue" stroke="midnightblue" points="879.219,-85.1535 868.684,-84.0333 876.221,-91.479 879.219,-85.1535"/>
</g>
<!-- Node16 -->
<g id="node16" class="node"><title>Node16</title>
<polygon fill="none" stroke="black" points="900,-57 900,-93 954,-93 954,-57 900,-57"/>
<text text-anchor="middle" x="926.515" y="-72" font-family="Helvetica,sans-Serif" font-size="10.00">Node16</text>
</g>
<!-- Node13&#45;&gt;Node16 -->
<g id="edge19" class="edge"><title>Node13&#45;&gt;Node16</title>
<path fill="none" stroke="midnightblue" d="M1020.88,-130.764C1006.3,-122.26 982.965,-108.646 963.206,-97.12"/>
<polygon fill="midnightblue" stroke="midnightblue" points="964.825,-94.0124 954.423,-91.9968 961.297,-100.059 964.825,-94.0124"/>
</g>
<!-- Node17&#45;&gt;Node2 -->
<g id="edge21" class="edge"><title>Node17&#45;&gt;Node2</title>
<path fill="none" stroke="midnightblue" d="M848.562,-194.161C907.738,-191.513 1003.93,-182.072 1080,-150 1113.27,-135.976 1145.56,-108.426 1163.8,-91.1842"/>
<polygon fill="midnightblue" stroke="midnightblue" points="1166.39,-93.5445 1171.14,-84.0733 1161.52,-88.5162 1166.39,-93.5445"/>
</g>
<!-- Node17&#45;&gt;Node4 -->
<g id="edge22" class="edge"><title>Node17&#45;&gt;Node4</title>
<path fill="none" stroke="midnightblue" d="M739.422,-188.067C672.251,-179.523 554.406,-164.504 443.593,-150.203"/>
<polygon fill="midnightblue" stroke="midnightblue" points="443.947,-146.72 433.581,-148.911 443.05,-153.662 443.947,-146.72"/>
</g>
<!-- Node17&#45;&gt;Node5 -->
<g id="edge25" class="edge"><title>Node17&#45;&gt;Node5</title>
<path fill="none" stroke="midnightblue" d="M739.535,-187.279C710.648,-181.022 675.882,-169.836 650,-150 630.793,-135.28 617.314,-110.299 609.857,-93.4813"/>
<polygon fill="midnightblue" stroke="midnightblue" points="613.077,-92.1095 605.995,-84.2296 606.618,-94.8062 613.077,-92.1095"/>
</g>
<!-- Node17&#45;&gt;Node7 -->
<g id="edge26" class="edge"><title>Node17&#45;&gt;Node7</title>
<path fill="none" stroke="midnightblue" d="M739.395,-191.394C710.795,-186.398 678.052,-175.105 660,-150 648.258,-133.67 653.408,-109.795 659.234,-93.6149"/>
<polygon fill="midnightblue" stroke="midnightblue" points="662.516,-94.8344 662.99,-84.2502 656.019,-92.229 662.516,-94.8344"/>
</g>
<!-- Node17&#45;&gt;Node13 -->
<g id="edge23" class="edge"><title>Node17&#45;&gt;Node13</title>
<path fill="none" stroke="midnightblue" d="M829.82,-186.974C872.209,-177.476 942.869,-161.644 989.199,-151.263"/>
<polygon fill="midnightblue" stroke="midnightblue" points="989.991,-154.672 998.983,-149.07 988.46,-147.841 989.991,-154.672"/>
</g>
<!-- Node18 -->
<g id="node18" class="node"><title>Node18</title>
<polygon fill="none" stroke="#bfbfbf" points="734.853,-131 734.853,-149 853.147,-149 853.147,-131 734.853,-131"/>
<text text-anchor="middle" x="794" y="-137" font-family="Helvetica,sans-Serif" font-size="10.00">boost/exception/all.hpp</text>
</g>
<!-- Node17&#45;&gt;Node18 -->
<g id="edge24" class="edge"><title>Node17&#45;&gt;Node18</title>
<path fill="none" stroke="midnightblue" d="M794,-186.562C794,-179.308 794,-168.588 794,-159.369"/>
<polygon fill="midnightblue" stroke="midnightblue" points="797.5,-159.201 794,-149.201 790.5,-159.201 797.5,-159.201"/>
</g>
<!-- Node19 -->
<g id="node19" class="node"><title>Node19</title>
<polygon fill="none" stroke="#bfbfbf" points="871.018,-131 871.018,-149 980.982,-149 980.982,-131 871.018,-131"/>
<text text-anchor="middle" x="926" y="-137" font-family="Helvetica,sans-Serif" font-size="10.00">boost/shared_ptr.hpp</text>
</g>
<!-- Node17&#45;&gt;Node19 -->
<g id="edge27" class="edge"><title>Node17&#45;&gt;Node19</title>
<path fill="none" stroke="midnightblue" d="M813.762,-186.916C835.73,-177.929 871.434,-163.322 896.665,-153"/>
<polygon fill="midnightblue" stroke="midnightblue" points="898.173,-156.165 906.103,-149.14 895.522,-149.687 898.173,-156.165"/>
</g>
<!-- Node20 -->
<g id="node20" class="node"><title>Node20</title>
<polygon fill="none" stroke="#bfbfbf" points="451.353,-131 451.353,-149 574.647,-149 574.647,-131 451.353,-131"/>
<text text-anchor="middle" x="513" y="-137" font-family="Helvetica,sans-Serif" font-size="10.00">boost/make_shared.hpp</text>
</g>
<!-- Node17&#45;&gt;Node20 -->
<g id="edge28" class="edge"><title>Node17&#45;&gt;Node20</title>
<path fill="none" stroke="midnightblue" d="M752.235,-186.974C702.395,-177.396 619.039,-161.378 565.05,-151.003"/>
<polygon fill="midnightblue" stroke="midnightblue" points="565.475,-147.52 554.994,-149.07 564.154,-154.394 565.475,-147.52"/>
</g>
<!-- Node17&#45;&gt;Node21 -->
<g id="edge29" class="edge"><title>Node17&#45;&gt;Node21</title>
<path fill="none" stroke="midnightblue" d="M848.544,-189.425C912.348,-182.416 1020.97,-168.962 1113,-150 1114.24,-149.744 1115.51,-149.468 1116.78,-149.177"/>
<polygon fill="midnightblue" stroke="midnightblue" points="1117.7,-152.556 1126.55,-146.741 1116,-145.764 1117.7,-152.556"/>
</g>
<!-- Node22 -->
<g id="node22" class="node"><title>Node22</title>
<polygon fill="none" stroke="#bfbfbf" points="668.879,-131 668.879,-149 717.121,-149 717.121,-131 668.879,-131"/>
<text text-anchor="middle" x="693" y="-137" font-family="Helvetica,sans-Serif" font-size="10.00">stdint.h</text>
</g>
<!-- Node17&#45;&gt;Node22 -->
<g id="edge30" class="edge"><title>Node17&#45;&gt;Node22</title>
<path fill="none" stroke="midnightblue" d="M778.66,-186.799C762.326,-178.065 736.249,-164.123 717.153,-153.914"/>
<polygon fill="midnightblue" stroke="midnightblue" points="718.622,-150.73 708.153,-149.102 715.322,-156.903 718.622,-150.73"/>
</g>
</g>
</svg>
