<?xml version="1.0" encoding="UTF-8" standalone="no"?>
<!DOCTYPE svg PUBLIC "-//W3C//DTD SVG 1.1//EN"
 "http://www.w3.org/Graphics/SVG/1.1/DTD/svg11.dtd">
<!-- Generated by graphviz version 2.34.0 (20131025.1349)
 -->
<!-- Title: BufferHandle.h Pages: 1 -->
<svg width="816pt" height="320pt"
 viewBox="0.00 0.00 816.00 320.00" xmlns="http://www.w3.org/2000/svg" xmlns:xlink="http://www.w3.org/1999/xlink">
<g id="graph0" class="graph" transform="scale(1 1) rotate(0) translate(4 316)">
<title>BufferHandle.h</title>
<!-- Node1 -->
<g id="node1" class="node"><title>Node1</title>
<polygon fill="#bfbfbf" stroke="black" points="697.733,-291 697.733,-311 780.267,-311 780.267,-291 697.733,-291"/>
<text text-anchor="middle" x="739" y="-297" font-family="Helvetica,sans-Serif" font-size="10.00">BufferHandle.h</text>
</g>
<!-- Node2 -->
<g id="node2" class="node"><title>Node2</title>
<g id="a_node2"><a xlink:href="FileConstHandle_8h.html" target="_top" xlink:title="Handle read/write of Model data from/to files. ">
<polygon fill="none" stroke="black" points="570.867,-233 570.867,-253 669.133,-253 669.133,-233 570.867,-233"/>
<text text-anchor="middle" x="620" y="-239" font-family="Helvetica,sans-Serif" font-size="10.00">FileConstHandle.h</text>
</a>
</g>
</g>
<!-- Node1&#45;&gt;Node2 -->
<g id="edge1" class="edge"><title>Node1&#45;&gt;Node2</title>
<path fill="none" stroke="midnightblue" d="M710.427,-286.554C688.44,-276.207 658.649,-262.188 639.376,-253.118"/>
<polygon fill="midnightblue" stroke="midnightblue" points="709.077,-289.787 719.616,-290.878 712.058,-283.453 709.077,-289.787"/>
</g>
<!-- Node7 -->
<g id="node7" class="node"><title>Node7</title>
<g id="a_node7"><a xlink:href="benchmark__rmf_8cpp_source.html" target="_top" xlink:title="benchmark_rmf.cpp">
<polygon fill="none" stroke="black" points="594.815,-1 594.815,-21 699.185,-21 699.185,-1 594.815,-1"/>
<text text-anchor="middle" x="647" y="-7" font-family="Helvetica,sans-Serif" font-size="10.00">benchmark_rmf.cpp</text>
</a>
</g>
</g>
<!-- Node1&#45;&gt;Node7 -->
<g id="edge34" class="edge"><title>Node1&#45;&gt;Node7</title>
<path fill="none" stroke="midnightblue" d="M756.72,-283.775C777.164,-263.195 808,-225.592 808,-186 808,-186 808,-186 808,-126 808,-66.0643 732.765,-34.7997 685.155,-21.0154"/>
<polygon fill="midnightblue" stroke="midnightblue" points="754.221,-281.323 749.48,-290.798 759.095,-286.348 754.221,-281.323"/>
</g>
<!-- Node3 -->
<g id="node3" class="node"><title>Node3</title>
<g id="a_node3"><a xlink:href="FileHandle_8h.html" target="_top" xlink:title="Handle read/write of Model data from/to files. ">
<polygon fill="none" stroke="black" points="229.929,-175 229.929,-195 302.071,-195 302.071,-175 229.929,-175"/>
<text text-anchor="middle" x="266" y="-181" font-family="Helvetica,sans-Serif" font-size="10.00">FileHandle.h</text>
</a>
</g>
</g>
<!-- Node2&#45;&gt;Node3 -->
<g id="edge2" class="edge"><title>Node2&#45;&gt;Node3</title>
<path fill="none" stroke="midnightblue" d="M560.808,-234.457C498.457,-226.216 397.51,-212.031 311,-196 308.167,-195.475 305.241,-194.9 302.304,-194.299"/>
<polygon fill="midnightblue" stroke="midnightblue" points="560.482,-237.945 570.853,-235.778 561.395,-231.004 560.482,-237.945"/>
</g>
<!-- Node2&#45;&gt;Node7 -->
<g id="edge33" class="edge"><title>Node2&#45;&gt;Node7</title>
<path fill="none" stroke="midnightblue" d="M674.762,-229.863C694.613,-222.95 715.658,-212.288 730,-196 747.671,-175.931 742.412,-164.499 746,-138 747.312,-128.311 749.63,-125.079 746,-116 728.693,-72.7164 683.845,-37.1746 660.927,-21.1598"/>
<polygon fill="midnightblue" stroke="midnightblue" points="673.59,-226.563 665.147,-232.963 675.738,-233.225 673.59,-226.563"/>
</g>
<!-- Node16 -->
<g id="node16" class="node"><title>Node16</title>
<g id="a_node16"><a xlink:href="validate_8h.html" target="_top" xlink:title="Handle read/write of Model data from/to files. ">
<polygon fill="none" stroke="black" points="678.596,-117 678.596,-137 737.404,-137 737.404,-117 678.596,-117"/>
<text text-anchor="middle" x="708" y="-123" font-family="Helvetica,sans-Serif" font-size="10.00">validate.h</text>
</a>
</g>
</g>
<!-- Node2&#45;&gt;Node16 -->
<g id="edge32" class="edge"><title>Node2&#45;&gt;Node16</title>
<path fill="none" stroke="midnightblue" d="M668.626,-229.246C685.334,-222.282 702.269,-211.746 712,-196 723.315,-177.691 716.52,-151.046 711.646,-137.171"/>
<polygon fill="midnightblue" stroke="midnightblue" points="666.979,-226.127 658.87,-232.946 669.462,-232.672 666.979,-226.127"/>
</g>
<!-- Node17 -->
<g id="node17" class="node"><title>Node17</title>
<g id="a_node17"><a xlink:href="info_8h.html" target="_top" xlink:title="Helper functions for manipulating RMF files. ">
<polygon fill="none" stroke="black" points="319.769,-175 319.769,-195 360.231,-195 360.231,-175 319.769,-175"/>
<text text-anchor="middle" x="340" y="-181" font-family="Helvetica,sans-Serif" font-size="10.00">info.h</text>
</a>
</g>
</g>
<!-- Node2&#45;&gt;Node17 -->
<g id="edge28" class="edge"><title>Node2&#45;&gt;Node17</title>
<path fill="none" stroke="midnightblue" d="M560.554,-233.693C509.342,-225.924 433.678,-212.975 369,-196 366.218,-195.27 363.32,-194.403 360.478,-193.489"/>
<polygon fill="midnightblue" stroke="midnightblue" points="560.052,-237.157 570.46,-235.178 561.089,-230.234 560.052,-237.157"/>
</g>
<!-- Node18 -->
<g id="node18" class="node"><title>Node18</title>
<g id="a_node18"><a xlink:href="RestoreCurrentFrame_8h.html" target="_top" xlink:title="Handle read/write of Model data from/to files. ">
<polygon fill="none" stroke="black" points="378.205,-175 378.205,-195 499.795,-195 499.795,-175 378.205,-175"/>
<text text-anchor="middle" x="439" y="-181" font-family="Helvetica,sans-Serif" font-size="10.00">RestoreCurrentFrame.h</text>
</a>
</g>
</g>
<!-- Node2&#45;&gt;Node18 -->
<g id="edge29" class="edge"><title>Node2&#45;&gt;Node18</title>
<path fill="none" stroke="midnightblue" d="M580.935,-229.914C547.055,-219.431 498.777,-204.494 468.171,-195.025"/>
<polygon fill="midnightblue" stroke="midnightblue" points="579.929,-233.266 590.516,-232.878 581.998,-226.579 579.929,-233.266"/>
</g>
<!-- Node19 -->
<g id="node19" class="node"><title>Node19</title>
<g id="a_node19"><a xlink:href="SetCurrentFrame_8h.html" target="_top" xlink:title="Handle read/write of Model data from/to files. ">
<polygon fill="none" stroke="black" points="518.207,-175 518.207,-195 619.793,-195 619.793,-175 518.207,-175"/>
<text text-anchor="middle" x="569" y="-181" font-family="Helvetica,sans-Serif" font-size="10.00">SetCurrentFrame.h</text>
</a>
</g>
</g>
<!-- Node2&#45;&gt;Node19 -->
<g id="edge30" class="edge"><title>Node2&#45;&gt;Node19</title>
<path fill="none" stroke="midnightblue" d="M604.622,-225.114C595.633,-215.244 584.641,-203.174 577.265,-195.075"/>
<polygon fill="midnightblue" stroke="midnightblue" points="602.257,-227.716 611.578,-232.753 607.433,-223.003 602.257,-227.716"/>
</g>
<!-- Node20 -->
<g id="node20" class="node"><title>Node20</title>
<g id="a_node20"><a xlink:href="signature_8h.html" target="_top" xlink:title="Helper functions for manipulating RMF files. ">
<polygon fill="none" stroke="black" points="638.261,-175 638.261,-195 703.739,-195 703.739,-175 638.261,-175"/>
<text text-anchor="middle" x="671" y="-181" font-family="Helvetica,sans-Serif" font-size="10.00">signature.h</text>
</a>
</g>
</g>
<!-- Node2&#45;&gt;Node20 -->
<g id="edge31" class="edge"><title>Node2&#45;&gt;Node20</title>
<path fill="none" stroke="midnightblue" d="M635.378,-225.114C644.367,-215.244 655.359,-203.174 662.735,-195.075"/>
<polygon fill="midnightblue" stroke="midnightblue" points="632.567,-223.003 628.422,-232.753 637.743,-227.716 632.567,-223.003"/>
</g>
<!-- Node4 -->
<g id="node4" class="node"><title>Node4</title>
<g id="a_node4"><a xlink:href="alias_8h.html" target="_top" xlink:title="Helper functions for manipulating RMF files. ">
<polygon fill="none" stroke="black" points="425.547,-117 425.547,-137 470.453,-137 470.453,-117 425.547,-117"/>
<text text-anchor="middle" x="448" y="-123" font-family="Helvetica,sans-Serif" font-size="10.00">alias.h</text>
</a>
</g>
</g>
<!-- Node3&#45;&gt;Node4 -->
<g id="edge3" class="edge"><title>Node3&#45;&gt;Node4</title>
<path fill="none" stroke="midnightblue" d="M305.501,-171.846C342.116,-160.58 395.315,-144.211 425.277,-134.992"/>
<polygon fill="midnightblue" stroke="midnightblue" points="304.175,-168.592 295.647,-174.878 306.234,-175.282 304.175,-168.592"/>
</g>
<!-- Node6 -->
<g id="node6" class="node"><title>Node6</title>
<g id="a_node6"><a xlink:href="physics_8h.html" target="_top" xlink:title="Helper functions for manipulating RMF files. ">
<polygon fill="none" stroke="black" points="475.158,-59 475.158,-79 532.842,-79 532.842,-59 475.158,-59"/>
<text text-anchor="middle" x="504" y="-65" font-family="Helvetica,sans-Serif" font-size="10.00">physics.h</text>
</a>
</g>
</g>
<!-- Node3&#45;&gt;Node6 -->
<g id="edge12" class="edge"><title>Node3&#45;&gt;Node6</title>
<path fill="none" stroke="midnightblue" d="M312.354,-173.898C388.573,-160.07 423.695,-185.999 479,-138 496.669,-122.665 501.86,-93.7171 503.378,-79.0326"/>
<polygon fill="midnightblue" stroke="midnightblue" points="311.464,-170.506 302.344,-175.899 312.836,-177.37 311.464,-170.506"/>
</g>
<!-- Node3&#45;&gt;Node7 -->
<g id="edge27" class="edge"><title>Node3&#45;&gt;Node7</title>
<path fill="none" stroke="midnightblue" d="M312.408,-173.867C411.173,-156.241 442.358,-171.787 533,-138 578.999,-120.854 597.213,-119.021 627,-80 640.59,-62.198 644.965,-35.3388 646.359,-21.2984"/>
<polygon fill="midnightblue" stroke="midnightblue" points="311.505,-170.475 302.312,-175.741 312.783,-177.357 311.505,-170.475"/>
</g>
<!-- Node8 -->
<g id="node8" class="node"><title>Node8</title>
<g id="a_node8"><a xlink:href="external_8h.html" target="_top" xlink:title="Helper functions for manipulating RMF files. ">
<polygon fill="none" stroke="black" points="359.042,-59 359.042,-79 418.958,-79 418.958,-59 359.042,-59"/>
<text text-anchor="middle" x="389" y="-65" font-family="Helvetica,sans-Serif" font-size="10.00">external.h</text>
</a>
</g>
</g>
<!-- Node3&#45;&gt;Node8 -->
<g id="edge8" class="edge"><title>Node3&#45;&gt;Node8</title>
<path fill="none" stroke="midnightblue" d="M306.931,-171.844C334.958,-162.689 368.679,-149.747 378,-138 391.677,-120.762 391.376,-93.1749 390.125,-79.0205"/>
<polygon fill="midnightblue" stroke="midnightblue" points="305.766,-168.542 297.304,-174.917 307.894,-175.211 305.766,-168.542"/>
</g>
<!-- Node9 -->
<g id="node9" class="node"><title>Node9</title>
<g id="a_node9"><a xlink:href="feature_8h.html" target="_top" xlink:title="Helper functions for manipulating RMF files. ">
<polygon fill="none" stroke="black" points="157.264,-59 157.264,-79 212.736,-79 212.736,-59 157.264,-59"/>
<text text-anchor="middle" x="185" y="-65" font-family="Helvetica,sans-Serif" font-size="10.00">feature.h</text>
</a>
</g>
</g>
<!-- Node3&#45;&gt;Node9 -->
<g id="edge10" class="edge"><title>Node3&#45;&gt;Node9</title>
<path fill="none" stroke="midnightblue" d="M253.393,-166.257C235.902,-141.64 204.912,-98.0248 191.494,-79.1394"/>
<polygon fill="midnightblue" stroke="midnightblue" points="250.726,-168.546 259.371,-174.671 256.432,-164.492 250.726,-168.546"/>
</g>
<!-- Node10 -->
<g id="node10" class="node"><title>Node10</title>
<g id="a_node10"><a xlink:href="publication_8h.html" target="_top" xlink:title="Helper functions for manipulating RMF files. ">
<polygon fill="none" stroke="black" points="230.924,-59 230.924,-79 303.076,-79 303.076,-59 230.924,-59"/>
<text text-anchor="middle" x="267" y="-65" font-family="Helvetica,sans-Serif" font-size="10.00">publication.h</text>
</a>
</g>
</g>
<!-- Node3&#45;&gt;Node10 -->
<g id="edge13" class="edge"><title>Node3&#45;&gt;Node10</title>
<path fill="none" stroke="midnightblue" d="M266.17,-164.603C266.388,-139.731 266.758,-97.6088 266.92,-79.1394"/>
<polygon fill="midnightblue" stroke="midnightblue" points="262.67,-164.641 266.082,-174.671 269.67,-164.702 262.67,-164.641"/>
</g>
<!-- Node11 -->
<g id="node11" class="node"><title>Node11</title>
<g id="a_node11"><a xlink:href="sequence_8h.html" target="_top" xlink:title="Helper functions for manipulating RMF files. ">
<polygon fill="none" stroke="black" points="551.146,-59 551.146,-79 618.854,-79 618.854,-59 551.146,-59"/>
<text text-anchor="middle" x="585" y="-65" font-family="Helvetica,sans-Serif" font-size="10.00">sequence.h</text>
</a>
</g>
</g>
<!-- Node3&#45;&gt;Node11 -->
<g id="edge15" class="edge"><title>Node3&#45;&gt;Node11</title>
<path fill="none" stroke="midnightblue" d="M312.144,-173.888C397.26,-157.867 425.835,-172.827 501,-138 532.665,-123.328 562.66,-94.0798 576.696,-79.1814"/>
<polygon fill="midnightblue" stroke="midnightblue" points="311.462,-170.455 302.328,-175.824 312.817,-177.323 311.462,-170.455"/>
</g>
<!-- Node12 -->
<g id="node12" class="node"><title>Node12</title>
<g id="a_node12"><a xlink:href="shape_8h.html" target="_top" xlink:title="Helper functions for manipulating RMF files. ">
<polygon fill="none" stroke="black" points="-0.792969,-59 -0.792969,-79 50.793,-79 50.793,-59 -0.792969,-59"/>
<text text-anchor="middle" x="25" y="-65" font-family="Helvetica,sans-Serif" font-size="10.00">shape.h</text>
</a>
</g>
</g>
<!-- Node3&#45;&gt;Node12 -->
<g id="edge18" class="edge"><title>Node3&#45;&gt;Node12</title>
<path fill="none" stroke="midnightblue" d="M219.681,-180.559C160.838,-175.214 63.9168,-162.839 39,-138 23.2936,-122.342 22.9327,-94.0636 23.9721,-79.3954"/>
<polygon fill="midnightblue" stroke="midnightblue" points="219.578,-184.063 229.844,-181.446 220.187,-177.089 219.578,-184.063"/>
</g>
<!-- Node13 -->
<g id="node13" class="node"><title>Node13</title>
<g id="a_node13"><a xlink:href="bond_8h.html" target="_top" xlink:title="Helper functions for manipulating RMF files. ">
<polygon fill="none" stroke="black" points="47.707,-117 47.707,-137 94.293,-137 94.293,-117 47.707,-117"/>
<text text-anchor="middle" x="71" y="-123" font-family="Helvetica,sans-Serif" font-size="10.00">bond.h</text>
</a>
</g>
</g>
<!-- Node3&#45;&gt;Node13 -->
<g id="edge20" class="edge"><title>Node3&#45;&gt;Node13</title>
<path fill="none" stroke="midnightblue" d="M223.071,-172.236C190.148,-163.129 143.612,-150.074 103,-138 100.21,-137.171 97.2898,-136.284 94.3958,-135.394"/>
<polygon fill="midnightblue" stroke="midnightblue" points="222.259,-175.643 232.83,-174.93 224.122,-168.895 222.259,-175.643"/>
</g>
<!-- Node14 -->
<g id="node14" class="node"><title>Node14</title>
<g id="a_node14"><a xlink:href="representation_8h.html" target="_top" xlink:title="Helper functions for manipulating RMF files. ">
<polygon fill="none" stroke="black" points="111.865,-117 111.865,-137 200.135,-137 200.135,-117 111.865,-117"/>
<text text-anchor="middle" x="156" y="-123" font-family="Helvetica,sans-Serif" font-size="10.00">representation.h</text>
</a>
</g>
</g>
<!-- Node3&#45;&gt;Node14 -->
<g id="edge22" class="edge"><title>Node3&#45;&gt;Node14</title>
<path fill="none" stroke="midnightblue" d="M238.782,-170.144C218.509,-159.823 191.405,-146.025 173.826,-137.075"/>
<polygon fill="midnightblue" stroke="midnightblue" points="237.336,-173.335 247.836,-174.753 240.512,-167.097 237.336,-173.335"/>
</g>
<!-- Node15 -->
<g id="node15" class="node"><title>Node15</title>
<g id="a_node15"><a xlink:href="alternatives_8h.html" target="_top" xlink:title="Helper functions for manipulating RMF files. ">
<polygon fill="none" stroke="black" points="294.261,-117 294.261,-137 369.739,-137 369.739,-117 294.261,-117"/>
<text text-anchor="middle" x="332" y="-123" font-family="Helvetica,sans-Serif" font-size="10.00">alternatives.h</text>
</a>
</g>
</g>
<!-- Node3&#45;&gt;Node15 -->
<g id="edge24" class="edge"><title>Node3&#45;&gt;Node15</title>
<path fill="none" stroke="midnightblue" d="M284.861,-167.997C296.676,-157.972 311.473,-145.417 321.304,-137.075"/>
<polygon fill="midnightblue" stroke="midnightblue" points="282.259,-165.614 276.899,-174.753 286.788,-170.952 282.259,-165.614"/>
</g>
<!-- Node3&#45;&gt;Node16 -->
<g id="edge26" class="edge"><title>Node3&#45;&gt;Node16</title>
<path fill="none" stroke="midnightblue" d="M312.161,-173.974C467.1,-149.527 509.692,-161.808 661,-138 666.686,-137.105 672.722,-135.966 678.505,-134.78"/>
<polygon fill="midnightblue" stroke="midnightblue" points="311.599,-170.519 302.279,-175.558 312.707,-177.431 311.599,-170.519"/>
</g>
<!-- Node5 -->
<g id="node5" class="node"><title>Node5</title>
<g id="a_node5"><a xlink:href="decorators_8h.html" target="_top" xlink:title="Import all the decorators headers. ">
<polygon fill="none" stroke="black" points="263.207,-1 263.207,-21 334.793,-21 334.793,-1 263.207,-1"/>
<text text-anchor="middle" x="299" y="-7" font-family="Helvetica,sans-Serif" font-size="10.00">decorators.h</text>
</a>
</g>
</g>
<!-- Node4&#45;&gt;Node5 -->
<g id="edge4" class="edge"><title>Node4&#45;&gt;Node5</title>
<path fill="none" stroke="midnightblue" d="M446.629,-106.541C444.584,-91.4995 439.516,-71.0982 427,-58 402.774,-32.6471 363.584,-21.229 334.941,-16.1101"/>
<polygon fill="midnightblue" stroke="midnightblue" points="443.178,-107.198 447.678,-116.789 450.142,-106.485 443.178,-107.198"/>
</g>
<!-- Node4&#45;&gt;Node6 -->
<g id="edge5" class="edge"><title>Node4&#45;&gt;Node6</title>
<path fill="none" stroke="midnightblue" d="M464.59,-109.41C474.514,-99.486 486.745,-87.2551 494.925,-79.0752"/>
<polygon fill="midnightblue" stroke="midnightblue" points="461.843,-107.207 457.247,-116.753 466.793,-112.157 461.843,-107.207"/>
</g>
<!-- Node6&#45;&gt;Node5 -->
<g id="edge6" class="edge"><title>Node6&#45;&gt;Node5</title>
<path fill="none" stroke="midnightblue" d="M465.267,-57.4192C426.84,-46.9221 368.576,-31.0062 332.205,-21.0706"/>
<polygon fill="midnightblue" stroke="midnightblue" points="464.494,-60.8364 475.063,-60.0953 466.339,-54.0838 464.494,-60.8364"/>
</g>
<!-- Node6&#45;&gt;Node7 -->
<g id="edge7" class="edge"><title>Node6&#45;&gt;Node7</title>
<path fill="none" stroke="midnightblue" d="M536.923,-55.1069C563.469,-44.7114 600.141,-30.3505 623.716,-21.1181"/>
<polygon fill="midnightblue" stroke="midnightblue" points="535.329,-51.9725 527.294,-58.878 537.881,-58.4905 535.329,-51.9725"/>
</g>
<!-- Node8&#45;&gt;Node5 -->
<g id="edge9" class="edge"><title>Node8&#45;&gt;Node5</title>
<path fill="none" stroke="midnightblue" d="M365.597,-53.438C349.144,-43.2008 327.643,-29.8221 313.585,-21.0752"/>
<polygon fill="midnightblue" stroke="midnightblue" points="363.799,-56.4414 374.138,-58.7527 367.497,-50.498 363.799,-56.4414"/>
</g>
<!-- Node9&#45;&gt;Node5 -->
<g id="edge11" class="edge"><title>Node9&#45;&gt;Node5</title>
<path fill="none" stroke="midnightblue" d="M212.657,-54.4143C233.692,-44.0813 262.058,-30.1472 280.438,-21.1181"/>
<polygon fill="midnightblue" stroke="midnightblue" points="211.002,-51.3275 203.57,-58.878 214.089,-57.6103 211.002,-51.3275"/>
</g>
<!-- Node10&#45;&gt;Node5 -->
<g id="edge14" class="edge"><title>Node10&#45;&gt;Node5</title>
<path fill="none" stroke="midnightblue" d="M277.331,-49.9199C282.837,-40.2849 289.371,-28.8502 293.814,-21.0752"/>
<polygon fill="midnightblue" stroke="midnightblue" points="274.207,-48.3338 272.284,-58.7527 280.284,-51.8068 274.207,-48.3338"/>
</g>
<!-- Node11&#45;&gt;Node5 -->
<g id="edge16" class="edge"><title>Node11&#45;&gt;Node5</title>
<path fill="none" stroke="midnightblue" d="M541.302,-58.0631C541.201,-58.042 541.101,-58.021 541,-58 468.155,-42.8039 382.536,-27.0142 335.16,-18.458"/>
<polygon fill="midnightblue" stroke="midnightblue" points="540.404,-61.45 550.916,-60.1277 541.874,-54.6061 540.404,-61.45"/>
</g>
<!-- Node11&#45;&gt;Node7 -->
<g id="edge17" class="edge"><title>Node11&#45;&gt;Node7</title>
<path fill="none" stroke="midnightblue" d="M602.718,-51.9967C613.817,-41.9719 627.717,-29.4171 636.952,-21.0752"/>
<polygon fill="midnightblue" stroke="midnightblue" points="600.313,-49.4525 595.238,-58.7527 605.005,-54.6472 600.313,-49.4525"/>
</g>
<!-- Node12&#45;&gt;Node5 -->
<g id="edge19" class="edge"><title>Node12&#45;&gt;Node5</title>
<path fill="none" stroke="midnightblue" d="M60.8969,-60.5027C64.9784,-59.6558 69.0789,-58.8075 73,-58 140.062,-44.1895 218.371,-28.3046 262.979,-19.2785"/>
<polygon fill="midnightblue" stroke="midnightblue" points="59.981,-57.1182 50.903,-62.5808 61.4061,-63.9716 59.981,-57.1182"/>
</g>
<!-- Node13&#45;&gt;Node5 -->
<g id="edge21" class="edge"><title>Node13&#45;&gt;Node5</title>
<path fill="none" stroke="midnightblue" d="M84.0247,-108.364C96.3115,-92.9333 116.077,-71.0089 138,-58 177.25,-34.7093 228.911,-22.6849 262.999,-16.8679"/>
<polygon fill="midnightblue" stroke="midnightblue" points="81.0241,-106.524 77.6949,-116.582 86.5698,-110.795 81.0241,-106.524"/>
</g>
<!-- Node14&#45;&gt;Node5 -->
<g id="edge23" class="edge"><title>Node14&#45;&gt;Node5</title>
<path fill="none" stroke="midnightblue" d="M147.167,-106.986C141.75,-92.2272 137.638,-71.989 148,-58 174.262,-22.5457 227.216,-13.4922 262.9,-11.6552"/>
<polygon fill="midnightblue" stroke="midnightblue" points="144.089,-108.701 151.153,-116.597 150.555,-106.019 144.089,-108.701"/>
</g>
<!-- Node15&#45;&gt;Node5 -->
<g id="edge25" class="edge"><title>Node15&#45;&gt;Node5</title>
<path fill="none" stroke="midnightblue" d="M326.482,-106.939C319.295,-82.1105 307.016,-39.692 301.646,-21.1394"/>
<polygon fill="midnightblue" stroke="midnightblue" points="323.157,-108.038 329.299,-116.671 329.881,-106.092 323.157,-108.038"/>
</g>
</g>
</svg>
