<?xml version="1.0" encoding="UTF-8" standalone="no"?>
<!DOCTYPE svg PUBLIC "-//W3C//DTD SVG 1.1//EN"
 "http://www.w3.org/Graphics/SVG/1.1/DTD/svg11.dtd">
<!-- Generated by graphviz version 2.34.0 (20131025.1349)
 -->
<!-- Title: BufferConstHandle.h Pages: 1 -->
<!--zoomable 204 -->
<svg id="main" version="1.1" xmlns="http://www.w3.org/2000/svg" xmlns:xlink="http://www.w3.org/1999/xlink" xml:space="preserve" onload="init(evt)">
<style type="text/css"><![CDATA[
.edge:hover path { stroke: red; }
.edge:hover polygon { stroke: red; fill: red; }
]]></style>
<script type="text/javascript"><![CDATA[
var edges = document.getElementsByTagName('g');
if (edges && edges.length) {
  for (var i=0;i<edges.length;i++) {
    if (edges[i].id.substr(0,4)=='edge') {
      edges[i].setAttribute('class','edge');
    }
  }
}
]]></script>
        <defs>
                <circle id="rim" cx="0" cy="0" r="7"/>
                <circle id="rim2" cx="0" cy="0" r="3.5"/>
                <g id="zoomPlus">
                        <use xlink:href="#rim" fill="#404040">
                                <set attributeName="fill" to="#808080" begin="zoomplus.mouseover" end="zoomplus.mouseout"/>
                        </use>
                        <path d="M-4,0h8M0,-4v8" fill="none" stroke="white" stroke-width="1.5" pointer-events="none"/>
                </g>
                <g id="zoomMin">
                        <use xlink:href="#rim" fill="#404040">
                                <set attributeName="fill" to="#808080" begin="zoomminus.mouseover" end="zoomminus.mouseout"/>
                        </use>
                        <path d="M-4,0h8" fill="none" stroke="white" stroke-width="1.5" pointer-events="none"/>
                </g>
                <g id="dirArrow">
                        <path fill="none" stroke="white" stroke-width="1.5" d="M0,-3.0v7 M-2.5,-0.5L0,-3.0L2.5,-0.5"/>
                </g>
               <g id="resetDef">
                       <use xlink:href="#rim2" fill="#404040">
                               <set attributeName="fill" to="#808080" begin="reset.mouseover" end="reset.mouseout"/>
                       </use>
               </g>
        </defs>

<script type="text/javascript">
var viewWidth = 1276;
var viewHeight = 204;
var sectionId = 'dynsection-0';
</script>
<script xlink:href="svgpan.js"/>
<svg id="graph" class="graph">
<g id="viewport">
<title>BufferConstHandle.h</title>
<!-- Node1 -->
<g id="node1" class="node"><title>Node1</title>
<polygon fill="#bfbfbf" stroke="black" points="692.672,-175 692.672,-195 801.328,-195 801.328,-175 692.672,-175"/>
<text text-anchor="middle" x="747" y="-181" font-family="Helvetica,sans-Serif" font-size="10.00">BufferConstHandle.h</text>
</g>
<!-- Node2 -->
<g id="node2" class="node"><title>Node2</title>
<g id="a_node2"><a xlink:href="config_8h_source.html" target="_top" xlink:title="RMF/config.h">
<polygon fill="none" stroke="black" points="-0.731445,-59 -0.731445,-79 74.7314,-79 74.7314,-59 -0.731445,-59"/>
<text text-anchor="middle" x="37" y="-65" font-family="Helvetica,sans-Serif" font-size="10.00">RMF/config.h</text>
</a>
</g>
</g>
<!-- Node1&#45;&gt;Node2 -->
<g id="edge1" class="edge"><title>Node1&#45;&gt;Node2</title>
<path fill="none" stroke="midnightblue" d="M692.361,-179.42C615.436,-172.579 470.962,-158.287 349,-138 253.621,-122.135 143.387,-96.3245 82.8095,-81.4841"/>
<polygon fill="midnightblue" stroke="midnightblue" points="83.3539,-78.0138 72.8072,-79.0227 81.6811,-84.811 83.3539,-78.0138"/>
</g>
<!-- Node4 -->
<g id="node4" class="node"><title>Node4</title>
<g id="a_node4"><a xlink:href="infrastructure__macros_8h.html" target="_top" xlink:title="Various general useful macros for IMP. ">
<polygon fill="none" stroke="black" points="617.48,-117 617.48,-137 738.52,-137 738.52,-117 617.48,-117"/>
<text text-anchor="middle" x="678" y="-123" font-family="Helvetica,sans-Serif" font-size="10.00">infrastructure_macros.h</text>
</a>
</g>
</g>
<!-- Node1&#45;&gt;Node4 -->
<g id="edge3" class="edge"><title>Node1&#45;&gt;Node4</title>
<path fill="none" stroke="midnightblue" d="M735.606,-174.753C725.156,-166.272 709.473,-153.543 697.107,-143.507"/>
<polygon fill="midnightblue" stroke="midnightblue" points="699.152,-140.659 689.182,-137.075 694.741,-146.095 699.152,-140.659"/>
</g>
<!-- Node5 -->
<g id="node5" class="node"><title>Node5</title>
<polygon fill="none" stroke="#bfbfbf" points="563.219,-59 563.219,-79 614.781,-79 614.781,-59 563.219,-59"/>
<text text-anchor="middle" x="589" y="-65" font-family="Helvetica,sans-Serif" font-size="10.00">sstream</text>
</g>
<!-- Node1&#45;&gt;Node5 -->
<g id="edge21" class="edge"><title>Node1&#45;&gt;Node5</title>
<path fill="none" stroke="midnightblue" d="M692.63,-178.321C663.856,-172.589 630.02,-161.083 608,-138 595.594,-124.995 591.166,-104.58 589.648,-89.5099"/>
<polygon fill="midnightblue" stroke="midnightblue" points="593.121,-88.9859 588.969,-79.2384 586.136,-89.4473 593.121,-88.9859"/>
</g>
<!-- Node7 -->
<g id="node7" class="node"><title>Node7</title>
<polygon fill="none" stroke="#bfbfbf" points="504.773,-59 504.773,-79 545.227,-79 545.227,-59 504.773,-59"/>
<text text-anchor="middle" x="525" y="-65" font-family="Helvetica,sans-Serif" font-size="10.00">string</text>
</g>
<!-- Node1&#45;&gt;Node7 -->
<g id="edge22" class="edge"><title>Node1&#45;&gt;Node7</title>
<path fill="none" stroke="midnightblue" d="M692.967,-174.95C661.858,-168.082 622.925,-156.565 592,-138 570.144,-124.88 550.365,-102.978 538.057,-87.583"/>
<polygon fill="midnightblue" stroke="midnightblue" points="540.602,-85.1531 531.714,-79.3865 535.066,-89.4371 540.602,-85.1531"/>
</g>
<!-- Node13 -->
<g id="node13" class="node"><title>Node13</title>
<g id="a_node13"><a xlink:href="exceptions_8h.html" target="_top" xlink:title="Various general useful macros for IMP. ">
<polygon fill="none" stroke="black" points="357.926,-117 357.926,-137 430.074,-137 430.074,-117 357.926,-117"/>
<text text-anchor="middle" x="394" y="-123" font-family="Helvetica,sans-Serif" font-size="10.00">exceptions.h</text>
</a>
</g>
</g>
<!-- Node1&#45;&gt;Node13 -->
<g id="edge13" class="edge"><title>Node1&#45;&gt;Node13</title>
<path fill="none" stroke="midnightblue" d="M692.617,-175.373C623.409,-164.394 505.067,-145.62 440.083,-135.311"/>
<polygon fill="midnightblue" stroke="midnightblue" points="440.552,-131.841 430.127,-133.731 439.455,-138.755 440.552,-131.841"/>
</g>
<!-- Node17 -->
<g id="node17" class="node"><title>Node17</title>
<polygon fill="none" stroke="#bfbfbf" points="756.853,-117 756.853,-137 875.147,-137 875.147,-117 756.853,-117"/>
<text text-anchor="middle" x="816" y="-123" font-family="Helvetica,sans-Serif" font-size="10.00">boost/exception/all.hpp</text>
</g>
<!-- Node1&#45;&gt;Node17 -->
<g id="edge20" class="edge"><title>Node1&#45;&gt;Node17</title>
<path fill="none" stroke="midnightblue" d="M758.394,-174.753C768.844,-166.272 784.527,-153.543 796.893,-143.507"/>
<polygon fill="midnightblue" stroke="midnightblue" points="799.259,-146.095 804.818,-137.075 794.848,-140.659 799.259,-146.095"/>
</g>
<!-- Node18 -->
<g id="node18" class="node"><title>Node18</title>
<polygon fill="none" stroke="#bfbfbf" points="893.018,-117 893.018,-137 1002.98,-137 1002.98,-117 893.018,-117"/>
<text text-anchor="middle" x="948" y="-123" font-family="Helvetica,sans-Serif" font-size="10.00">boost/shared_ptr.hpp</text>
</g>
<!-- Node1&#45;&gt;Node18 -->
<g id="edge23" class="edge"><title>Node1&#45;&gt;Node18</title>
<path fill="none" stroke="midnightblue" d="M779.741,-174.878C814.155,-165.29 868.408,-150.175 905.964,-139.712"/>
<polygon fill="midnightblue" stroke="midnightblue" points="906.912,-143.081 915.606,-137.025 905.033,-136.338 906.912,-143.081"/>
</g>
<!-- Node19 -->
<g id="node19" class="node"><title>Node19</title>
<polygon fill="none" stroke="#bfbfbf" points="1021.35,-117 1021.35,-137 1144.65,-137 1144.65,-117 1021.35,-117"/>
<text text-anchor="middle" x="1083" y="-123" font-family="Helvetica,sans-Serif" font-size="10.00">boost/make_shared.hpp</text>
</g>
<!-- Node1&#45;&gt;Node19 -->
<g id="edge24" class="edge"><title>Node1&#45;&gt;Node19</title>
<path fill="none" stroke="midnightblue" d="M801.358,-174.94C860.737,-165.044 955.773,-149.205 1018.78,-138.703"/>
<polygon fill="midnightblue" stroke="midnightblue" points="1019.71,-142.097 1029,-137 1018.56,-135.192 1019.71,-142.097"/>
</g>
<!-- Node20 -->
<g id="node20" class="node"><title>Node20</title>
<polygon fill="none" stroke="#bfbfbf" points="1162.61,-117 1162.61,-137 1201.39,-137 1201.39,-117 1162.61,-117"/>
<text text-anchor="middle" x="1182" y="-123" font-family="Helvetica,sans-Serif" font-size="10.00">limits</text>
</g>
<!-- Node1&#45;&gt;Node20 -->
<g id="edge25" class="edge"><title>Node1&#45;&gt;Node20</title>
<path fill="none" stroke="midnightblue" d="M801.482,-181.621C878.084,-177.445 1021.91,-166.561 1152.72,-137.58"/>
<polygon fill="midnightblue" stroke="midnightblue" points="1153.53,-140.985 1162.51,-135.37 1151.99,-134.157 1153.53,-140.985"/>
</g>
<!-- Node21 -->
<g id="node21" class="node"><title>Node21</title>
<polygon fill="none" stroke="#bfbfbf" points="1219.88,-117 1219.88,-137 1268.12,-137 1268.12,-117 1219.88,-117"/>
<text text-anchor="middle" x="1244" y="-123" font-family="Helvetica,sans-Serif" font-size="10.00">stdint.h</text>
</g>
<!-- Node1&#45;&gt;Node21 -->
<g id="edge26" class="edge"><title>Node1&#45;&gt;Node21</title>
<path fill="none" stroke="midnightblue" d="M801.652,-181.88C886.882,-177.85 1056.62,-166.924 1209.57,-137.714"/>
<polygon fill="midnightblue" stroke="midnightblue" points="1210.47,-141.105 1219.62,-135.764 1209.14,-134.233 1210.47,-141.105"/>
</g>
<!-- Node3 -->
<g id="node3" class="node"><title>Node3</title>
<g id="a_node3"><a xlink:href="compiler__macros_8h.html" target="_top" xlink:title="Various compiler workarounds. ">
<polygon fill="none" stroke="black" points="414.544,-1 414.544,-21 539.456,-21 539.456,-1 414.544,-1"/>
<text text-anchor="middle" x="477" y="-7" font-family="Helvetica,sans-Serif" font-size="10.00">RMF/compiler_macros.h</text>
</a>
</g>
</g>
<!-- Node2&#45;&gt;Node3 -->
<g id="edge2" class="edge"><title>Node2&#45;&gt;Node3</title>
<path fill="none" stroke="midnightblue" d="M74.8481,-59.4649C77.6009,-58.9386 80.3397,-58.4434 83,-58 194.332,-39.4453 324.598,-25.7946 403.925,-18.3736"/>
<polygon fill="midnightblue" stroke="midnightblue" points="404.661,-21.8204 414.295,-17.4119 404.015,-14.8504 404.661,-21.8204"/>
</g>
<!-- Node4&#45;&gt;Node3 -->
<g id="edge7" class="edge"><title>Node4&#45;&gt;Node3</title>
<path fill="none" stroke="midnightblue" d="M672.875,-116.621C664.401,-101.976 646.09,-73.728 623,-58 598.45,-41.2777 567.505,-30.3887 540.43,-23.427"/>
<polygon fill="midnightblue" stroke="midnightblue" points="541.194,-20.0108 530.649,-21.0363 539.532,-26.8106 541.194,-20.0108"/>
</g>
<!-- Node4&#45;&gt;Node5 -->
<g id="edge4" class="edge"><title>Node4&#45;&gt;Node5</title>
<path fill="none" stroke="midnightblue" d="M663.303,-116.753C649.436,-108.027 628.422,-94.8051 612.276,-84.6458"/>
<polygon fill="midnightblue" stroke="midnightblue" points="613.751,-81.4385 603.423,-79.0752 610.023,-87.3632 613.751,-81.4385"/>
</g>
<!-- Node6 -->
<g id="node6" class="node"><title>Node6</title>
<polygon fill="none" stroke="#bfbfbf" points="670.828,-59 670.828,-79 725.172,-79 725.172,-59 670.828,-59"/>
<text text-anchor="middle" x="698" y="-65" font-family="Helvetica,sans-Serif" font-size="10.00">iostream</text>
</g>
<!-- Node4&#45;&gt;Node6 -->
<g id="edge5" class="edge"><title>Node4&#45;&gt;Node6</title>
<path fill="none" stroke="midnightblue" d="M681.303,-116.753C684.011,-109.169 687.933,-98.1881 691.295,-88.7739"/>
<polygon fill="midnightblue" stroke="midnightblue" points="694.692,-89.6698 694.759,-79.0752 688.099,-87.3154 694.692,-89.6698"/>
</g>
<!-- Node4&#45;&gt;Node7 -->
<g id="edge6" class="edge"><title>Node4&#45;&gt;Node7</title>
<path fill="none" stroke="midnightblue" d="M653.077,-116.878C626.263,-107.064 583.625,-91.4575 554.993,-80.978"/>
<polygon fill="midnightblue" stroke="midnightblue" points="556.093,-77.6534 545.499,-77.5029 553.687,-84.2269 556.093,-77.6534"/>
</g>
<!-- Node8 -->
<g id="node8" class="node"><title>Node8</title>
<polygon fill="none" stroke="#bfbfbf" points="742.98,-59 742.98,-79 819.02,-79 819.02,-59 742.98,-59"/>
<text text-anchor="middle" x="781" y="-65" font-family="Helvetica,sans-Serif" font-size="10.00">internal/use.h</text>
</g>
<!-- Node4&#45;&gt;Node8 -->
<g id="edge8" class="edge"><title>Node4&#45;&gt;Node8</title>
<path fill="none" stroke="midnightblue" d="M695.008,-116.753C711.432,-107.823 736.517,-94.1848 755.363,-83.9388"/>
<polygon fill="midnightblue" stroke="midnightblue" points="757.194,-86.9267 764.308,-79.0752 753.851,-80.7769 757.194,-86.9267"/>
</g>
<!-- Node9 -->
<g id="node9" class="node"><title>Node9</title>
<polygon fill="none" stroke="#bfbfbf" points="837.384,-59 837.384,-79 880.616,-79 880.616,-59 837.384,-59"/>
<text text-anchor="middle" x="859" y="-65" font-family="Helvetica,sans-Serif" font-size="10.00">vector</text>
</g>
<!-- Node4&#45;&gt;Node9 -->
<g id="edge9" class="edge"><title>Node4&#45;&gt;Node9</title>
<path fill="none" stroke="midnightblue" d="M707.922,-116.963C736.273,-108.37 780.288,-94.951 827.527,-80.1183"/>
<polygon fill="midnightblue" stroke="midnightblue" points="828.844,-83.3733 837.333,-77.0336 826.743,-76.6959 828.844,-83.3733"/>
</g>
<!-- Node10 -->
<g id="node10" class="node"><title>Node10</title>
<polygon fill="none" stroke="#bfbfbf" points="898.306,-59 898.306,-79 987.694,-79 987.694,-59 898.306,-59"/>
<text text-anchor="middle" x="943" y="-65" font-family="Helvetica,sans-Serif" font-size="10.00">boost/config.hpp</text>
</g>
<!-- Node4&#45;&gt;Node10 -->
<g id="edge10" class="edge"><title>Node4&#45;&gt;Node10</title>
<path fill="none" stroke="midnightblue" d="M720.871,-116.94C767.055,-107.181 840.589,-91.6416 890.277,-81.1415"/>
<polygon fill="midnightblue" stroke="midnightblue" points="891.13,-84.5386 900.19,-79.0466 889.683,-77.6898 891.13,-84.5386"/>
</g>
<!-- Node11 -->
<g id="node11" class="node"><title>Node11</title>
<polygon fill="none" stroke="#bfbfbf" points="1005.53,-59 1005.53,-79 1100.47,-79 1100.47,-59 1005.53,-59"/>
<text text-anchor="middle" x="1053" y="-65" font-family="Helvetica,sans-Serif" font-size="10.00">boost/version.hpp</text>
</g>
<!-- Node4&#45;&gt;Node11 -->
<g id="edge11" class="edge"><title>Node4&#45;&gt;Node11</title>
<path fill="none" stroke="midnightblue" d="M738.531,-117.344C817.009,-106.108 948.509,-87.2267 995.414,-80.0232"/>
<polygon fill="midnightblue" stroke="midnightblue" points="996.094,-83.4595 1005.43,-78.4552 995.011,-76.5437 996.094,-83.4595"/>
</g>
<!-- Node12 -->
<g id="node12" class="node"><title>Node12</title>
<polygon fill="none" stroke="#bfbfbf" points="1117.97,-59 1117.97,-79 1214.03,-79 1214.03,-59 1117.97,-59"/>
<text text-anchor="middle" x="1166" y="-65" font-family="Helvetica,sans-Serif" font-size="10.00">boost/foreach.hpp</text>
</g>
<!-- Node4&#45;&gt;Node12 -->
<g id="edge12" class="edge"><title>Node4&#45;&gt;Node12</title>
<path fill="none" stroke="midnightblue" d="M738.686,-117.17C741.834,-116.762 744.953,-116.369 748,-116 904.786,-96.9922 947.521,-101.737 1107.62,-80.1027"/>
<polygon fill="midnightblue" stroke="midnightblue" points="1108.4,-83.529 1117.84,-78.7087 1107.46,-76.5934 1108.4,-83.529"/>
</g>
<!-- Node13&#45;&gt;Node2 -->
<g id="edge17" class="edge"><title>Node13&#45;&gt;Node2</title>
<path fill="none" stroke="midnightblue" d="M357.481,-121.408C301.057,-114.137 189.08,-99.0085 84.9178,-80.2673"/>
<polygon fill="midnightblue" stroke="midnightblue" points="85.3285,-76.7847 74.8642,-78.4425 84.0784,-83.6722 85.3285,-76.7847"/>
</g>
<!-- Node13&#45;&gt;Node3 -->
<g id="edge18" class="edge"><title>Node13&#45;&gt;Node3</title>
<path fill="none" stroke="midnightblue" d="M412.955,-116.889C427.348,-109.034 446.555,-96.3744 458,-80 468.085,-65.5718 472.834,-45.9323 475.06,-31.4687"/>
<polygon fill="midnightblue" stroke="midnightblue" points="478.58,-31.5367 476.359,-21.1772 471.635,-30.6605 478.58,-31.5367"/>
</g>
<!-- Node13&#45;&gt;Node7 -->
<g id="edge16" class="edge"><title>Node13&#45;&gt;Node7</title>
<path fill="none" stroke="midnightblue" d="M415.339,-116.878C437.004,-107.617 470.735,-93.1971 495.068,-82.7956"/>
<polygon fill="midnightblue" stroke="midnightblue" points="496.714,-85.8981 504.533,-78.749 493.963,-79.4615 496.714,-85.8981"/>
</g>
<!-- Node14 -->
<g id="node14" class="node"><title>Node14</title>
<polygon fill="none" stroke="#bfbfbf" points="92.4512,-59 92.4512,-79 243.549,-79 243.549,-59 92.4512,-59"/>
<text text-anchor="middle" x="168" y="-65" font-family="Helvetica,sans-Serif" font-size="10.00">boost/exception/exception.hpp</text>
</g>
<!-- Node13&#45;&gt;Node14 -->
<g id="edge14" class="edge"><title>Node13&#45;&gt;Node14</title>
<path fill="none" stroke="midnightblue" d="M357.689,-117.003C318.761,-107.357 256.841,-92.0137 214.404,-81.4984"/>
<polygon fill="midnightblue" stroke="midnightblue" points="215.144,-78.0758 204.595,-79.0679 213.46,-84.8704 215.144,-78.0758"/>
</g>
<!-- Node15 -->
<g id="node15" class="node"><title>Node15</title>
<polygon fill="none" stroke="#bfbfbf" points="261.596,-59 261.596,-79 320.404,-79 320.404,-59 261.596,-59"/>
<text text-anchor="middle" x="291" y="-65" font-family="Helvetica,sans-Serif" font-size="10.00">exception</text>
</g>
<!-- Node13&#45;&gt;Node15 -->
<g id="edge15" class="edge"><title>Node13&#45;&gt;Node15</title>
<path fill="none" stroke="midnightblue" d="M376.992,-116.753C360.568,-107.823 335.483,-94.1848 316.637,-83.9388"/>
<polygon fill="midnightblue" stroke="midnightblue" points="318.149,-80.7769 307.692,-79.0752 314.806,-86.9267 318.149,-80.7769"/>
</g>
<!-- Node16 -->
<g id="node16" class="node"><title>Node16</title>
<polygon fill="none" stroke="#bfbfbf" points="338.766,-59 338.766,-79 449.234,-79 449.234,-59 338.766,-59"/>
<text text-anchor="middle" x="394" y="-65" font-family="Helvetica,sans-Serif" font-size="10.00">RMF/internal/errors.h</text>
</g>
<!-- Node13&#45;&gt;Node16 -->
<g id="edge19" class="edge"><title>Node13&#45;&gt;Node16</title>
<path fill="none" stroke="midnightblue" d="M394,-116.753C394,-109.25 394,-98.4238 394,-89.0781"/>
<polygon fill="midnightblue" stroke="midnightblue" points="397.5,-89.0752 394,-79.0752 390.5,-89.0752 397.5,-89.0752"/>
</g>
</g>
</svg>
        <g id="navigator" transform="translate(0 0)" fill="#404254">
                <rect fill="#f2f5e9" fill-opacity="0.5" stroke="#606060" stroke-width=".5" x="0" y="0" width="60" height="60"/>
                <use id="zoomplus" xlink:href="#zoomPlus" x="17" y="9" onmousedown="handleZoom(evt,'in')"/>
                <use id="zoomminus" xlink:href="#zoomMin" x="42" y="9" onmousedown="handleZoom(evt,'out')"/>
                <use id="reset" xlink:href="#resetDef" x="30" y="36" onmousedown="handleReset()"/>
                <g id="arrowUp" xlink:href="#dirArrow" transform="translate(30 24)" onmousedown="handlePan(0,-1)">
                  <use xlink:href="#rim" fill="#404040">
                        <set attributeName="fill" to="#808080" begin="arrowUp.mouseover" end="arrowUp.mouseout"/>
                  </use>
                  <path fill="none" stroke="white" stroke-width="1.5" d="M0,-3.0v7 M-2.5,-0.5L0,-3.0L2.5,-0.5"/>
                </g>
                <g id="arrowRight" xlink:href="#dirArrow" transform="rotate(90) translate(36 -43)" onmousedown="handlePan(1,0)">
                  <use xlink:href="#rim" fill="#404040">
                        <set attributeName="fill" to="#808080" begin="arrowRight.mouseover" end="arrowRight.mouseout"/>
                  </use>
                  <path fill="none" stroke="white" stroke-width="1.5" d="M0,-3.0v7 M-2.5,-0.5L0,-3.0L2.5,-0.5"/>
                </g>
                <g id="arrowDown" xlink:href="#dirArrow" transform="rotate(180) translate(-30 -48)" onmousedown="handlePan(0,1)">
                  <use xlink:href="#rim" fill="#404040">
                        <set attributeName="fill" to="#808080" begin="arrowDown.mouseover" end="arrowDown.mouseout"/>
                  </use>
                  <path fill="none" stroke="white" stroke-width="1.5" d="M0,-3.0v7 M-2.5,-0.5L0,-3.0L2.5,-0.5"/>
                </g>
                <g id="arrowLeft" xlink:href="#dirArrow" transform="rotate(270) translate(-36 17)" onmousedown="handlePan(-1,0)">
                  <use xlink:href="#rim" fill="#404040">
                        <set attributeName="fill" to="#808080" begin="arrowLeft.mouseover" end="arrowLeft.mouseout"/>
                  </use>
                  <path fill="none" stroke="white" stroke-width="1.5" d="M0,-3.0v7 M-2.5,-0.5L0,-3.0L2.5,-0.5"/>
                </g>
        </g>
        <svg viewBox="0 0 15 15" width="100%" height="30px" preserveAspectRatio="xMaxYMin meet">
         <g id="arrow_out" transform="scale(0.3 0.3)">
          <a xlink:href="BufferConstHandle_8h__incl_org.svg" target="_base">
           <rect id="button" ry="5" rx="5" y="6" x="6" height="38" width="38"
                fill="#f2f5e9" fill-opacity="0.5" stroke="#606060" stroke-width="1.0"/>
           <path id="arrow"
             d="M 11.500037,31.436501 C 11.940474,20.09759 22.043105,11.32322 32.158766,21.979434 L 37.068811,17.246167 C 37.068811,17.246167 37.088388,32 37.088388,32 L 22.160133,31.978069 C 22.160133,31.978069 26.997745,27.140456 26.997745,27.140456 C 18.528582,18.264221 13.291696,25.230495 11.500037,31.436501 z"
             style="fill:#404040;"/>
          </a>
         </g>
        </svg>
</svg>
