<?xml version="1.0" encoding="UTF-8" standalone="no"?>
<!DOCTYPE svg PUBLIC "-//W3C//DTD SVG 1.1//EN"
 "http://www.w3.org/Graphics/SVG/1.1/DTD/svg11.dtd">
<!-- Generated by graphviz version 2.36.0 (20140111.2315)
 -->
<!-- Title: BufferHandle.h Pages: 1 -->
<!--zoomable 252 -->
<svg id="main" version="1.1" xmlns="http://www.w3.org/2000/svg" xmlns:xlink="http://www.w3.org/1999/xlink" xml:space="preserve" onload="init(evt)">
<style type="text/css"><![CDATA[
.edge:hover path { stroke: red; }
.edge:hover polygon { stroke: red; fill: red; }
]]></style>
<script type="text/javascript"><![CDATA[
var edges = document.getElementsByTagName('g');
if (edges && edges.length) {
  for (var i=0;i<edges.length;i++) {
    if (edges[i].id.substr(0,4)=='edge') {
      edges[i].setAttribute('class','edge');
    }
  }
}
]]></script>
        <defs>
                <circle id="rim" cx="0" cy="0" r="7"/>
                <circle id="rim2" cx="0" cy="0" r="3.5"/>
                <g id="zoomPlus">
                        <use xlink:href="#rim" fill="#404040">
                                <set attributeName="fill" to="#808080" begin="zoomplus.mouseover" end="zoomplus.mouseout"/>
                        </use>
                        <path d="M-4,0h8M0,-4v8" fill="none" stroke="white" stroke-width="1.5" pointer-events="none"/>
                </g>
                <g id="zoomMin">
                        <use xlink:href="#rim" fill="#404040">
                                <set attributeName="fill" to="#808080" begin="zoomminus.mouseover" end="zoomminus.mouseout"/>
                        </use>
                        <path d="M-4,0h8" fill="none" stroke="white" stroke-width="1.5" pointer-events="none"/>
                </g>
                <g id="dirArrow">
                        <path fill="none" stroke="white" stroke-width="1.5" d="M0,-3.0v7 M-2.5,-0.5L0,-3.0L2.5,-0.5"/>
                </g>
               <g id="resetDef">
                       <use xlink:href="#rim2" fill="#404040">
                               <set attributeName="fill" to="#808080" begin="reset.mouseover" end="reset.mouseout"/>
                       </use>
               </g>
        </defs>

<script type="text/javascript">
var viewWidth = 1053;
var viewHeight = 252;
var sectionId = 'dynsection-0';
</script>
<script xlink:href="svgpan.js"/>
<svg id="graph" class="graph">
<g id="viewport">
<title>BufferHandle.h</title>
<!-- Node1 -->
<g id="node1" class="node"><title>Node1</title>
<polygon fill="#bfbfbf" stroke="black" points="435.733,-225 435.733,-243 518.267,-243 518.267,-225 435.733,-225"/>
<text text-anchor="middle" x="477" y="-231" font-family="Helvetica,sans-Serif" font-size="10.00">BufferHandle.h</text>
</g>
<!-- Node2 -->
<g id="node2" class="node"><title>Node2</title>
<g id="a_node2"><a xlink:href="config_8h_source.html" target="_top" xlink:title="RMF/config.h">
<polygon fill="none" stroke="black" points="-0.731445,-57 -0.731445,-75 74.7314,-75 74.7314,-57 -0.731445,-57"/>
<text text-anchor="middle" x="37" y="-63" font-family="Helvetica,sans-Serif" font-size="10.00">RMF/config.h</text>
</a>
</g>
</g>
<!-- Node1&#45;&gt;Node2 -->
<g id="edge1" class="edge"><title>Node1&#45;&gt;Node2</title>
<path fill="none" stroke="midnightblue" d="M435.472,-229.678C336.47,-220.824 91.0792,-193.049 41,-132 30.4761,-119.171 30.7042,-99.6877 32.8151,-85.3967"/>
<polygon fill="midnightblue" stroke="midnightblue" points="36.31,-85.7533 34.7421,-75.2751 29.4335,-84.444 36.31,-85.7533"/>
</g>
<!-- Node4 -->
<g id="node4" class="node"><title>Node4</title>
<g id="a_node4"><a xlink:href="infrastructure__macros_8h.html" target="_top" xlink:title="Various general useful macros for IMP. ">
<polygon fill="none" stroke="black" points="705.48,-113 705.48,-131 826.52,-131 826.52,-113 705.48,-113"/>
<text text-anchor="middle" x="766" y="-119" font-family="Helvetica,sans-Serif" font-size="10.00">infrastructure_macros.h</text>
</a>
</g>
</g>
<!-- Node1&#45;&gt;Node4 -->
<g id="edge3" class="edge"><title>Node1&#45;&gt;Node4</title>
<path fill="none" stroke="midnightblue" d="M498.251,-224.911C548.773,-205.682 676.235,-157.167 735.2,-134.723"/>
<polygon fill="midnightblue" stroke="midnightblue" points="736.617,-137.929 744.718,-131.1 734.127,-131.387 736.617,-137.929"/>
</g>
<!-- Node13 -->
<g id="node12" class="node"><title>Node13</title>
<g id="a_node12"><a xlink:href="exceptions_8h.html" target="_top" xlink:title="Declarations of the various exception types. ">
<polygon fill="none" stroke="black" points="66.9263,-113 66.9263,-131 139.074,-131 139.074,-113 66.9263,-113"/>
<text text-anchor="middle" x="103" y="-119" font-family="Helvetica,sans-Serif" font-size="10.00">exceptions.h</text>
</a>
</g>
</g>
<!-- Node1&#45;&gt;Node13 -->
<g id="edge12" class="edge"><title>Node1&#45;&gt;Node13</title>
<path fill="none" stroke="midnightblue" d="M449.499,-224.911C383.361,-205.459 215.339,-156.041 140.247,-133.955"/>
<polygon fill="midnightblue" stroke="midnightblue" points="140.87,-130.49 130.289,-131.026 138.895,-137.206 140.87,-130.49"/>
</g>
<!-- Node17 -->
<g id="node15" class="node"><title>Node17</title>
<g id="a_node15"><a xlink:href="BufferConstHandle_8h.html" target="_top" xlink:title="Declare RMF::BufferConstHandle. ">
<polygon fill="none" stroke="black" points="422.672,-169 422.672,-187 531.328,-187 531.328,-169 422.672,-169"/>
<text text-anchor="middle" x="477" y="-175" font-family="Helvetica,sans-Serif" font-size="10.00">BufferConstHandle.h</text>
</a>
</g>
</g>
<!-- Node1&#45;&gt;Node17 -->
<g id="edge18" class="edge"><title>Node1&#45;&gt;Node17</title>
<path fill="none" stroke="midnightblue" d="M477,-224.562C477,-217.308 477,-206.588 477,-197.369"/>
<polygon fill="midnightblue" stroke="midnightblue" points="480.5,-197.201 477,-187.201 473.5,-197.201 480.5,-197.201"/>
</g>
<!-- Node21 -->
<g id="node19" class="node"><title>Node21</title>
<polygon fill="none" stroke="#bfbfbf" points="844.613,-113 844.613,-131 883.387,-131 883.387,-113 844.613,-113"/>
<text text-anchor="middle" x="864" y="-119" font-family="Helvetica,sans-Serif" font-size="10.00">limits</text>
</g>
<!-- Node1&#45;&gt;Node21 -->
<g id="edge29" class="edge"><title>Node1&#45;&gt;Node21</title>
<path fill="none" stroke="midnightblue" d="M506.778,-224.88C566.757,-208.465 706.588,-169.89 834.766,-132.011"/>
<polygon fill="midnightblue" stroke="midnightblue" points="835.771,-135.364 844.366,-129.169 833.783,-128.652 835.771,-135.364"/>
</g>
<!-- Node3 -->
<g id="node3" class="node"><title>Node3</title>
<g id="a_node3"><a xlink:href="compiler__macros_8h.html" target="_top" xlink:title="Various compiler workarounds. ">
<polygon fill="none" stroke="black" points="40.5444,-1 40.5444,-19 165.456,-19 165.456,-1 40.5444,-1"/>
<text text-anchor="middle" x="103" y="-7" font-family="Helvetica,sans-Serif" font-size="10.00">RMF/compiler_macros.h</text>
</a>
</g>
</g>
<!-- Node2&#45;&gt;Node3 -->
<g id="edge2" class="edge"><title>Node2&#45;&gt;Node3</title>
<path fill="none" stroke="midnightblue" d="M47.024,-56.7986C57.1031,-48.552 72.859,-35.6608 85.0902,-25.6535"/>
<polygon fill="midnightblue" stroke="midnightblue" points="87.3584,-28.3199 92.8817,-19.2786 82.9257,-22.9022 87.3584,-28.3199"/>
</g>
<!-- Node4&#45;&gt;Node3 -->
<g id="edge7" class="edge"><title>Node4&#45;&gt;Node3</title>
<path fill="none" stroke="midnightblue" d="M808.295,-112.97C851.379,-103.04 908.383,-83.9515 882,-56 857.975,-30.5468 364.907,-16.8599 175.879,-12.5321"/>
<polygon fill="midnightblue" stroke="midnightblue" points="175.835,-9.03033 165.758,-12.3027 175.677,-16.0285 175.835,-9.03033"/>
</g>
<!-- Node5 -->
<g id="node5" class="node"><title>Node5</title>
<polygon fill="none" stroke="#bfbfbf" points="488.219,-57 488.219,-75 539.781,-75 539.781,-57 488.219,-57"/>
<text text-anchor="middle" x="514" y="-63" font-family="Helvetica,sans-Serif" font-size="10.00">sstream</text>
</g>
<!-- Node4&#45;&gt;Node5 -->
<g id="edge4" class="edge"><title>Node4&#45;&gt;Node5</title>
<path fill="none" stroke="midnightblue" d="M723.649,-112.977C681.763,-104.882 615.608,-91.6694 550.041,-76.3955"/>
<polygon fill="midnightblue" stroke="midnightblue" points="550.487,-72.9051 539.952,-74.0274 548.887,-79.7199 550.487,-72.9051"/>
</g>
<!-- Node6 -->
<g id="node6" class="node"><title>Node6</title>
<polygon fill="none" stroke="#bfbfbf" points="928.828,-57 928.828,-75 983.172,-75 983.172,-57 928.828,-57"/>
<text text-anchor="middle" x="956" y="-63" font-family="Helvetica,sans-Serif" font-size="10.00">iostream</text>
</g>
<!-- Node4&#45;&gt;Node6 -->
<g id="edge5" class="edge"><title>Node4&#45;&gt;Node6</title>
<path fill="none" stroke="midnightblue" d="M794.445,-112.916C827.564,-103.503 882.371,-87.9261 918.832,-77.5636"/>
<polygon fill="midnightblue" stroke="midnightblue" points="919.934,-80.8891 928.596,-74.7885 918.02,-74.1558 919.934,-80.8891"/>
</g>
<!-- Node7 -->
<g id="node7" class="node"><title>Node7</title>
<polygon fill="none" stroke="#bfbfbf" points="429.773,-57 429.773,-75 470.227,-75 470.227,-57 429.773,-57"/>
<text text-anchor="middle" x="450" y="-63" font-family="Helvetica,sans-Serif" font-size="10.00">string</text>
</g>
<!-- Node4&#45;&gt;Node7 -->
<g id="edge6" class="edge"><title>Node4&#45;&gt;Node7</title>
<path fill="none" stroke="midnightblue" d="M705.317,-114.088C649.113,-107.099 563.11,-94.9164 480.312,-76.0385"/>
<polygon fill="midnightblue" stroke="midnightblue" points="481.026,-72.6113 470.494,-73.7646 479.446,-79.4308 481.026,-72.6113"/>
</g>
<!-- Node9 -->
<g id="node8" class="node"><title>Node9</title>
<polygon fill="none" stroke="#bfbfbf" points="1001.38,-57 1001.38,-75 1044.62,-75 1044.62,-57 1001.38,-57"/>
<text text-anchor="middle" x="1023" y="-63" font-family="Helvetica,sans-Serif" font-size="10.00">vector</text>
</g>
<!-- Node4&#45;&gt;Node9 -->
<g id="edge8" class="edge"><title>Node4&#45;&gt;Node9</title>
<path fill="none" stroke="midnightblue" d="M812.57,-112.937C856.294,-105.096 923.712,-92.3142 991.398,-75.9701"/>
<polygon fill="midnightblue" stroke="midnightblue" points="992.499,-79.3043 1001.38,-73.533 990.839,-72.5039 992.499,-79.3043"/>
</g>
<!-- Node10 -->
<g id="node9" class="node"><title>Node10</title>
<polygon fill="none" stroke="#bfbfbf" points="557.306,-57 557.306,-75 646.694,-75 646.694,-57 557.306,-57"/>
<text text-anchor="middle" x="602" y="-63" font-family="Helvetica,sans-Serif" font-size="10.00">boost/config.hpp</text>
</g>
<!-- Node4&#45;&gt;Node10 -->
<g id="edge9" class="edge"><title>Node4&#45;&gt;Node10</title>
<path fill="none" stroke="midnightblue" d="M741.448,-112.916C713.469,-103.703 667.559,-88.5863 636.113,-78.2322"/>
<polygon fill="midnightblue" stroke="midnightblue" points="637.045,-74.8544 626.452,-75.0513 634.856,-81.5033 637.045,-74.8544"/>
</g>
<!-- Node11 -->
<g id="node10" class="node"><title>Node11</title>
<polygon fill="none" stroke="#bfbfbf" points="664.53,-57 664.53,-75 759.47,-75 759.47,-57 664.53,-57"/>
<text text-anchor="middle" x="712" y="-63" font-family="Helvetica,sans-Serif" font-size="10.00">boost/version.hpp</text>
</g>
<!-- Node4&#45;&gt;Node11 -->
<g id="edge10" class="edge"><title>Node4&#45;&gt;Node11</title>
<path fill="none" stroke="midnightblue" d="M757.562,-112.562C749.511,-104.511 737.191,-92.1905 727.391,-82.3907"/>
<polygon fill="midnightblue" stroke="midnightblue" points="729.747,-79.7977 720.201,-75.2014 724.798,-84.7474 729.747,-79.7977"/>
</g>
<!-- Node12 -->
<g id="node11" class="node"><title>Node12</title>
<polygon fill="none" stroke="#bfbfbf" points="776.971,-57 776.971,-75 873.029,-75 873.029,-57 776.971,-57"/>
<text text-anchor="middle" x="825" y="-63" font-family="Helvetica,sans-Serif" font-size="10.00">boost/foreach.hpp</text>
</g>
<!-- Node4&#45;&gt;Node12 -->
<g id="edge11" class="edge"><title>Node4&#45;&gt;Node12</title>
<path fill="none" stroke="midnightblue" d="M774.961,-112.799C783.798,-104.711 797.516,-92.1549 808.355,-82.234"/>
<polygon fill="midnightblue" stroke="midnightblue" points="810.941,-84.6121 815.955,-75.2786 806.215,-79.4484 810.941,-84.6121"/>
</g>
<!-- Node13&#45;&gt;Node2 -->
<g id="edge16" class="edge"><title>Node13&#45;&gt;Node2</title>
<path fill="none" stroke="midnightblue" d="M92.976,-112.799C82.8969,-104.552 67.141,-91.6608 54.9098,-81.6535"/>
<polygon fill="midnightblue" stroke="midnightblue" points="57.0743,-78.9022 47.1183,-75.2786 52.6416,-84.3199 57.0743,-78.9022"/>
</g>
<!-- Node13&#45;&gt;Node3 -->
<g id="edge17" class="edge"><title>Node13&#45;&gt;Node3</title>
<path fill="none" stroke="midnightblue" d="M103,-112.732C103,-95.1275 103,-53.5746 103,-29.3716"/>
<polygon fill="midnightblue" stroke="midnightblue" points="106.5,-29.0648 103,-19.0649 99.5001,-29.0649 106.5,-29.0648"/>
</g>
<!-- Node13&#45;&gt;Node7 -->
<g id="edge15" class="edge"><title>Node13&#45;&gt;Node7</title>
<path fill="none" stroke="midnightblue" d="M139.32,-113.576C142.254,-113.025 145.174,-112.493 148,-112 246.894,-94.7535 364.737,-78.398 419.377,-71.0529"/>
<polygon fill="midnightblue" stroke="midnightblue" points="419.99,-74.5021 429.438,-69.7065 419.062,-67.564 419.99,-74.5021"/>
</g>
<!-- Node14 -->
<g id="node13" class="node"><title>Node14</title>
<polygon fill="none" stroke="#bfbfbf" points="131.451,-57 131.451,-75 282.549,-75 282.549,-57 131.451,-57"/>
<text text-anchor="middle" x="207" y="-63" font-family="Helvetica,sans-Serif" font-size="10.00">boost/exception/exception.hpp</text>
</g>
<!-- Node13&#45;&gt;Node14 -->
<g id="edge13" class="edge"><title>Node13&#45;&gt;Node14</title>
<path fill="none" stroke="midnightblue" d="M118.795,-112.799C135.691,-104.026 162.712,-89.9959 182.398,-79.7741"/>
<polygon fill="midnightblue" stroke="midnightblue" points="184.135,-82.8161 191.397,-75.1017 180.909,-76.6037 184.135,-82.8161"/>
</g>
<!-- Node15 -->
<g id="node14" class="node"><title>Node15</title>
<polygon fill="none" stroke="#bfbfbf" points="300.596,-57 300.596,-75 359.404,-75 359.404,-57 300.596,-57"/>
<text text-anchor="middle" x="330" y="-63" font-family="Helvetica,sans-Serif" font-size="10.00">exception</text>
</g>
<!-- Node13&#45;&gt;Node15 -->
<g id="edge14" class="edge"><title>Node13&#45;&gt;Node15</title>
<path fill="none" stroke="midnightblue" d="M136.984,-112.916C178.091,-103.137 247.162,-86.706 290.571,-76.3797"/>
<polygon fill="midnightblue" stroke="midnightblue" points="291.57,-79.7397 300.488,-74.0204 289.95,-72.9298 291.57,-79.7397"/>
</g>
<!-- Node17&#45;&gt;Node2 -->
<g id="edge19" class="edge"><title>Node17&#45;&gt;Node2</title>
<path fill="none" stroke="midnightblue" d="M422.505,-174.428C315.472,-168.906 85.7445,-154.558 58,-132 44.215,-120.792 39.3723,-100.442 37.7267,-85.4878"/>
<polygon fill="midnightblue" stroke="midnightblue" points="41.2056,-85.0678 36.9963,-75.345 34.2237,-85.5706 41.2056,-85.0678"/>
</g>
<!-- Node17&#45;&gt;Node4 -->
<g id="edge20" class="edge"><title>Node17&#45;&gt;Node4</title>
<path fill="none" stroke="midnightblue" d="M519.954,-168.974C571.319,-159.376 657.299,-143.311 712.814,-132.938"/>
<polygon fill="midnightblue" stroke="midnightblue" points="713.623,-136.347 722.81,-131.07 712.337,-129.466 713.623,-136.347"/>
</g>
<!-- Node17&#45;&gt;Node5 -->
<g id="edge23" class="edge"><title>Node17&#45;&gt;Node5</title>
<path fill="none" stroke="midnightblue" d="M531.614,-170.809C579.043,-164.176 642.494,-151.833 658,-132 663.475,-124.997 663.265,-119.162 658,-112 654.677,-107.479 591.274,-88.846 549.717,-77.02"/>
<polygon fill="midnightblue" stroke="midnightblue" points="550.505,-73.6055 539.929,-74.2454 548.596,-80.3401 550.505,-73.6055"/>
</g>
<!-- Node17&#45;&gt;Node7 -->
<g id="edge24" class="edge"><title>Node17&#45;&gt;Node7</title>
<path fill="none" stroke="midnightblue" d="M480.063,-168.756C484.259,-156.176 490.567,-131.585 484,-112 480.35,-101.113 472.909,-90.7582 465.917,-82.7318"/>
<polygon fill="midnightblue" stroke="midnightblue" points="468.352,-80.2103 458.971,-75.286 463.233,-84.9855 468.352,-80.2103"/>
</g>
<!-- Node17&#45;&gt;Node13 -->
<g id="edge21" class="edge"><title>Node17&#45;&gt;Node13</title>
<path fill="none" stroke="midnightblue" d="M422.413,-170.576C359.124,-162.895 251.441,-149.112 149.479,-132.165"/>
<polygon fill="midnightblue" stroke="midnightblue" points="149.755,-128.663 139.314,-130.462 148.598,-135.566 149.755,-128.663"/>
</g>
<!-- Node18 -->
<g id="node16" class="node"><title>Node18</title>
<polygon fill="none" stroke="#bfbfbf" points="530.853,-113 530.853,-131 649.147,-131 649.147,-113 530.853,-113"/>
<text text-anchor="middle" x="590" y="-119" font-family="Helvetica,sans-Serif" font-size="10.00">boost/exception/all.hpp</text>
</g>
<!-- Node17&#45;&gt;Node18 -->
<g id="edge22" class="edge"><title>Node17&#45;&gt;Node18</title>
<path fill="none" stroke="midnightblue" d="M494.162,-168.799C512.687,-159.946 542.414,-145.74 563.85,-135.496"/>
<polygon fill="midnightblue" stroke="midnightblue" points="565.533,-138.571 573.046,-131.102 562.515,-132.256 565.533,-138.571"/>
</g>
<!-- Node19 -->
<g id="node17" class="node"><title>Node19</title>
<polygon fill="none" stroke="#bfbfbf" points="157.018,-113 157.018,-131 266.982,-131 266.982,-113 157.018,-113"/>
<text text-anchor="middle" x="212" y="-119" font-family="Helvetica,sans-Serif" font-size="10.00">boost/shared_ptr.hpp</text>
</g>
<!-- Node17&#45;&gt;Node19 -->
<g id="edge25" class="edge"><title>Node17&#45;&gt;Node19</title>
<path fill="none" stroke="midnightblue" d="M437.613,-168.974C390.709,-159.416 312.328,-143.444 261.404,-133.067"/>
<polygon fill="midnightblue" stroke="midnightblue" points="262.101,-129.637 251.603,-131.07 260.703,-136.496 262.101,-129.637"/>
</g>
<!-- Node20 -->
<g id="node18" class="node"><title>Node20</title>
<polygon fill="none" stroke="#bfbfbf" points="285.353,-113 285.353,-131 408.647,-131 408.647,-113 285.353,-113"/>
<text text-anchor="middle" x="347" y="-119" font-family="Helvetica,sans-Serif" font-size="10.00">boost/make_shared.hpp</text>
</g>
<!-- Node17&#45;&gt;Node20 -->
<g id="edge26" class="edge"><title>Node17&#45;&gt;Node20</title>
<path fill="none" stroke="midnightblue" d="M457.538,-168.916C435.902,-159.929 400.739,-145.322 375.89,-135"/>
<polygon fill="midnightblue" stroke="midnightblue" points="377.173,-131.743 366.595,-131.14 374.488,-138.208 377.173,-131.743"/>
</g>
<!-- Node17&#45;&gt;Node21 -->
<g id="edge27" class="edge"><title>Node17&#45;&gt;Node21</title>
<path fill="none" stroke="midnightblue" d="M531.48,-173.149C600.095,-167.637 721.642,-155.676 834.614,-131.7"/>
<polygon fill="midnightblue" stroke="midnightblue" points="835.432,-135.104 844.469,-129.573 833.955,-128.262 835.432,-135.104"/>
</g>
<!-- Node22 -->
<g id="node20" class="node"><title>Node22</title>
<polygon fill="none" stroke="#bfbfbf" points="426.879,-113 426.879,-131 475.121,-131 475.121,-113 426.879,-113"/>
<text text-anchor="middle" x="451" y="-119" font-family="Helvetica,sans-Serif" font-size="10.00">stdint.h</text>
</g>
<!-- Node17&#45;&gt;Node22 -->
<g id="edge28" class="edge"><title>Node17&#45;&gt;Node22</title>
<path fill="none" stroke="midnightblue" d="M472.938,-168.562C469.329,-161.069 463.941,-149.878 459.408,-140.462"/>
<polygon fill="midnightblue" stroke="midnightblue" points="462.441,-138.693 454.949,-131.201 456.134,-141.73 462.441,-138.693"/>
</g>
</g>
</svg>
        <g id="navigator" transform="translate(0 0)" fill="#404254">
                <rect fill="#f2f5e9" fill-opacity="0.5" stroke="#606060" stroke-width=".5" x="0" y="0" width="60" height="60"/>
                <use id="zoomplus" xlink:href="#zoomPlus" x="17" y="9" onmousedown="handleZoom(evt,'in')"/>
                <use id="zoomminus" xlink:href="#zoomMin" x="42" y="9" onmousedown="handleZoom(evt,'out')"/>
                <use id="reset" xlink:href="#resetDef" x="30" y="36" onmousedown="handleReset()"/>
                <g id="arrowUp" xlink:href="#dirArrow" transform="translate(30 24)" onmousedown="handlePan(0,-1)">
                  <use xlink:href="#rim" fill="#404040">
                        <set attributeName="fill" to="#808080" begin="arrowUp.mouseover" end="arrowUp.mouseout"/>
                  </use>
                  <path fill="none" stroke="white" stroke-width="1.5" d="M0,-3.0v7 M-2.5,-0.5L0,-3.0L2.5,-0.5"/>
                </g>
                <g id="arrowRight" xlink:href="#dirArrow" transform="rotate(90) translate(36 -43)" onmousedown="handlePan(1,0)">
                  <use xlink:href="#rim" fill="#404040">
                        <set attributeName="fill" to="#808080" begin="arrowRight.mouseover" end="arrowRight.mouseout"/>
                  </use>
                  <path fill="none" stroke="white" stroke-width="1.5" d="M0,-3.0v7 M-2.5,-0.5L0,-3.0L2.5,-0.5"/>
                </g>
                <g id="arrowDown" xlink:href="#dirArrow" transform="rotate(180) translate(-30 -48)" onmousedown="handlePan(0,1)">
                  <use xlink:href="#rim" fill="#404040">
                        <set attributeName="fill" to="#808080" begin="arrowDown.mouseover" end="arrowDown.mouseout"/>
                  </use>
                  <path fill="none" stroke="white" stroke-width="1.5" d="M0,-3.0v7 M-2.5,-0.5L0,-3.0L2.5,-0.5"/>
                </g>
                <g id="arrowLeft" xlink:href="#dirArrow" transform="rotate(270) translate(-36 17)" onmousedown="handlePan(-1,0)">
                  <use xlink:href="#rim" fill="#404040">
                        <set attributeName="fill" to="#808080" begin="arrowLeft.mouseover" end="arrowLeft.mouseout"/>
                  </use>
                  <path fill="none" stroke="white" stroke-width="1.5" d="M0,-3.0v7 M-2.5,-0.5L0,-3.0L2.5,-0.5"/>
                </g>
        </g>
        <svg viewBox="0 0 15 15" width="100%" height="30px" preserveAspectRatio="xMaxYMin meet">
         <g id="arrow_out" transform="scale(0.3 0.3)">
          <a xlink:href="BufferHandle_8h__incl_org.svg" target="_base">
           <rect id="button" ry="5" rx="5" y="6" x="6" height="38" width="38"
                fill="#f2f5e9" fill-opacity="0.5" stroke="#606060" stroke-width="1.0"/>
           <path id="arrow"
             d="M 11.500037,31.436501 C 11.940474,20.09759 22.043105,11.32322 32.158766,21.979434 L 37.068811,17.246167 C 37.068811,17.246167 37.088388,32 37.088388,32 L 22.160133,31.978069 C 22.160133,31.978069 26.997745,27.140456 26.997745,27.140456 C 18.528582,18.264221 13.291696,25.230495 11.500037,31.436501 z"
             style="fill:#404040;"/>
          </a>
         </g>
        </svg>
</svg>
