<?xml version="1.0" encoding="UTF-8" standalone="no"?>
<!DOCTYPE svg PUBLIC "-//W3C//DTD SVG 1.1//EN"
 "http://www.w3.org/Graphics/SVG/1.1/DTD/svg11.dtd">
<!-- Generated by graphviz version 2.36.0 (20140111.2315)
 -->
<!-- Title: BufferConstHandle.h Pages: 1 -->
<!--zoomable 196 -->
<svg id="main" version="1.1" xmlns="http://www.w3.org/2000/svg" xmlns:xlink="http://www.w3.org/1999/xlink" xml:space="preserve" onload="init(evt)">
<style type="text/css"><![CDATA[
.edge:hover path { stroke: red; }
.edge:hover polygon { stroke: red; fill: red; }
]]></style>
<script type="text/javascript"><![CDATA[
var edges = document.getElementsByTagName('g');
if (edges && edges.length) {
  for (var i=0;i<edges.length;i++) {
    if (edges[i].id.substr(0,4)=='edge') {
      edges[i].setAttribute('class','edge');
    }
  }
}
]]></script>
        <defs>
                <circle id="rim" cx="0" cy="0" r="7"/>
                <circle id="rim2" cx="0" cy="0" r="3.5"/>
                <g id="zoomPlus">
                        <use xlink:href="#rim" fill="#404040">
                                <set attributeName="fill" to="#808080" begin="zoomplus.mouseover" end="zoomplus.mouseout"/>
                        </use>
                        <path d="M-4,0h8M0,-4v8" fill="none" stroke="white" stroke-width="1.5" pointer-events="none"/>
                </g>
                <g id="zoomMin">
                        <use xlink:href="#rim" fill="#404040">
                                <set attributeName="fill" to="#808080" begin="zoomminus.mouseover" end="zoomminus.mouseout"/>
                        </use>
                        <path d="M-4,0h8" fill="none" stroke="white" stroke-width="1.5" pointer-events="none"/>
                </g>
                <g id="dirArrow">
                        <path fill="none" stroke="white" stroke-width="1.5" d="M0,-3.0v7 M-2.5,-0.5L0,-3.0L2.5,-0.5"/>
                </g>
               <g id="resetDef">
                       <use xlink:href="#rim2" fill="#404040">
                               <set attributeName="fill" to="#808080" begin="reset.mouseover" end="reset.mouseout"/>
                       </use>
               </g>
        </defs>

<script type="text/javascript">
var viewWidth = 1141;
var viewHeight = 196;
var sectionId = 'dynsection-0';
</script>
<script xlink:href="svgpan.js"/>
<svg id="graph" class="graph">
<g id="viewport">
<title>BufferConstHandle.h</title>
<!-- Node1 -->
<g id="node1" class="node"><title>Node1</title>
<polygon fill="#bfbfbf" stroke="black" points="557.672,-169 557.672,-187 666.328,-187 666.328,-169 557.672,-169"/>
<text text-anchor="middle" x="612" y="-175" font-family="Helvetica,sans-Serif" font-size="10.00">BufferConstHandle.h</text>
</g>
<!-- Node2 -->
<g id="node2" class="node"><title>Node2</title>
<g id="a_node2"><a xlink:href="config_8h_source.html" target="_top" xlink:title="RMF/config.h">
<polygon fill="none" stroke="black" points="-0.731445,-57 -0.731445,-75 74.7314,-75 74.7314,-57 -0.731445,-57"/>
<text text-anchor="middle" x="37" y="-63" font-family="Helvetica,sans-Serif" font-size="10.00">RMF/config.h</text>
</a>
</g>
</g>
<!-- Node1&#45;&gt;Node2 -->
<g id="edge1" class="edge"><title>Node1&#45;&gt;Node2</title>
<path fill="none" stroke="midnightblue" d="M557.543,-176.121C476.754,-173.709 320.922,-164.785 193,-132 144.529,-119.577 91.4062,-94.8592 61.341,-79.7408"/>
<polygon fill="midnightblue" stroke="midnightblue" points="62.924,-76.6193 52.425,-75.1974 59.7457,-82.8562 62.924,-76.6193"/>
</g>
<!-- Node4 -->
<g id="node4" class="node"><title>Node4</title>
<g id="a_node4"><a xlink:href="infrastructure__macros_8h.html" target="_top" xlink:title="Various general useful macros for IMP. ">
<polygon fill="none" stroke="black" points="482.48,-113 482.48,-131 603.52,-131 603.52,-113 482.48,-113"/>
<text text-anchor="middle" x="543" y="-119" font-family="Helvetica,sans-Serif" font-size="10.00">infrastructure_macros.h</text>
</a>
</g>
</g>
<!-- Node1&#45;&gt;Node4 -->
<g id="edge3" class="edge"><title>Node1&#45;&gt;Node4</title>
<path fill="none" stroke="midnightblue" d="M601.52,-168.799C590.983,-160.552 574.511,-147.661 561.724,-137.654"/>
<polygon fill="midnightblue" stroke="midnightblue" points="563.61,-134.685 553.578,-131.279 559.296,-140.198 563.61,-134.685"/>
</g>
<!-- Node5 -->
<g id="node5" class="node"><title>Node5</title>
<polygon fill="none" stroke="#bfbfbf" points="435.219,-57 435.219,-75 486.781,-75 486.781,-57 435.219,-57"/>
<text text-anchor="middle" x="461" y="-63" font-family="Helvetica,sans-Serif" font-size="10.00">sstream</text>
</g>
<!-- Node1&#45;&gt;Node5 -->
<g id="edge19" class="edge"><title>Node1&#45;&gt;Node5</title>
<path fill="none" stroke="midnightblue" d="M557.523,-172.621C528.349,-167.391 494.161,-156.12 473,-132 461.893,-119.34 459.577,-99.8317 459.623,-85.4889"/>
<polygon fill="midnightblue" stroke="midnightblue" points="463.127,-85.4592 460.044,-75.3231 456.133,-85.1699 463.127,-85.4592"/>
</g>
<!-- Node7 -->
<g id="node7" class="node"><title>Node7</title>
<polygon fill="none" stroke="#bfbfbf" points="376.773,-57 376.773,-75 417.227,-75 417.227,-57 376.773,-57"/>
<text text-anchor="middle" x="397" y="-63" font-family="Helvetica,sans-Serif" font-size="10.00">string</text>
</g>
<!-- Node1&#45;&gt;Node7 -->
<g id="edge20" class="edge"><title>Node1&#45;&gt;Node7</title>
<path fill="none" stroke="midnightblue" d="M561.048,-168.946C529.908,-162.396 490.205,-151.026 459,-132 438.27,-119.36 419.823,-98.0541 408.55,-83.2973"/>
<polygon fill="midnightblue" stroke="midnightblue" points="411.252,-81.0642 402.501,-75.0915 405.617,-85.2177 411.252,-81.0642"/>
</g>
<!-- Node13 -->
<g id="node12" class="node"><title>Node13</title>
<g id="a_node12"><a xlink:href="exceptions_8h.html" target="_top" xlink:title="Declarations of the various exception types. ">
<polygon fill="none" stroke="black" points="201.926,-113 201.926,-131 274.074,-131 274.074,-113 201.926,-113"/>
<text text-anchor="middle" x="238" y="-119" font-family="Helvetica,sans-Serif" font-size="10.00">exceptions.h</text>
</a>
</g>
</g>
<!-- Node1&#45;&gt;Node13 -->
<g id="edge12" class="edge"><title>Node1&#45;&gt;Node13</title>
<path fill="none" stroke="midnightblue" d="M557.617,-169.148C483.909,-158.506 353.566,-139.686 284.295,-129.684"/>
<polygon fill="midnightblue" stroke="midnightblue" points="284.523,-126.181 274.125,-128.216 283.523,-133.109 284.523,-126.181"/>
</g>
<!-- Node17 -->
<g id="node15" class="node"><title>Node17</title>
<polygon fill="none" stroke="#bfbfbf" points="621.853,-113 621.853,-131 740.147,-131 740.147,-113 621.853,-113"/>
<text text-anchor="middle" x="681" y="-119" font-family="Helvetica,sans-Serif" font-size="10.00">boost/exception/all.hpp</text>
</g>
<!-- Node1&#45;&gt;Node17 -->
<g id="edge18" class="edge"><title>Node1&#45;&gt;Node17</title>
<path fill="none" stroke="midnightblue" d="M622.48,-168.799C633.017,-160.552 649.489,-147.661 662.276,-137.654"/>
<polygon fill="midnightblue" stroke="midnightblue" points="664.704,-140.198 670.422,-131.279 660.39,-134.685 664.704,-140.198"/>
</g>
<!-- Node18 -->
<g id="node16" class="node"><title>Node18</title>
<polygon fill="none" stroke="#bfbfbf" points="758.018,-113 758.018,-131 867.982,-131 867.982,-113 758.018,-113"/>
<text text-anchor="middle" x="813" y="-119" font-family="Helvetica,sans-Serif" font-size="10.00">boost/shared_ptr.hpp</text>
</g>
<!-- Node1&#45;&gt;Node18 -->
<g id="edge21" class="edge"><title>Node1&#45;&gt;Node18</title>
<path fill="none" stroke="midnightblue" d="M642.092,-168.916C676.976,-159.544 734.606,-144.061 773.177,-133.699"/>
<polygon fill="midnightblue" stroke="midnightblue" points="774.282,-137.026 783.031,-131.051 772.466,-130.266 774.282,-137.026"/>
</g>
<!-- Node19 -->
<g id="node17" class="node"><title>Node19</title>
<polygon fill="none" stroke="#bfbfbf" points="886.353,-113 886.353,-131 1009.65,-131 1009.65,-113 886.353,-113"/>
<text text-anchor="middle" x="948" y="-119" font-family="Helvetica,sans-Serif" font-size="10.00">boost/make_shared.hpp</text>
</g>
<!-- Node1&#45;&gt;Node19 -->
<g id="edge22" class="edge"><title>Node1&#45;&gt;Node19</title>
<path fill="none" stroke="midnightblue" d="M661.94,-168.974C722.241,-159.283 823.574,-142.997 888.042,-132.636"/>
<polygon fill="midnightblue" stroke="midnightblue" points="888.743,-136.069 898.061,-131.026 887.632,-129.157 888.743,-136.069"/>
</g>
<!-- Node20 -->
<g id="node18" class="node"><title>Node20</title>
<polygon fill="none" stroke="#bfbfbf" points="1027.61,-113 1027.61,-131 1066.39,-131 1066.39,-113 1027.61,-113"/>
<text text-anchor="middle" x="1047" y="-119" font-family="Helvetica,sans-Serif" font-size="10.00">limits</text>
</g>
<!-- Node1&#45;&gt;Node20 -->
<g id="edge23" class="edge"><title>Node1&#45;&gt;Node20</title>
<path fill="none" stroke="midnightblue" d="M666.369,-174.271C742.835,-169.709 886.5,-158.488 1017.66,-131.657"/>
<polygon fill="midnightblue" stroke="midnightblue" points="1018.4,-135.077 1027.48,-129.613 1016.97,-128.224 1018.4,-135.077"/>
</g>
<!-- Node21 -->
<g id="node19" class="node"><title>Node21</title>
<polygon fill="none" stroke="#bfbfbf" points="1084.88,-113 1084.88,-131 1133.12,-131 1133.12,-113 1084.88,-113"/>
<text text-anchor="middle" x="1109" y="-119" font-family="Helvetica,sans-Serif" font-size="10.00">stdint.h</text>
</g>
<!-- Node1&#45;&gt;Node21 -->
<g id="edge24" class="edge"><title>Node1&#45;&gt;Node21</title>
<path fill="none" stroke="midnightblue" d="M666.564,-174.561C751.676,-170.13 921.256,-158.788 1074.52,-131.769"/>
<polygon fill="midnightblue" stroke="midnightblue" points="1075.37,-135.174 1084.59,-129.967 1074.13,-128.283 1075.37,-135.174"/>
</g>
<!-- Node3 -->
<g id="node3" class="node"><title>Node3</title>
<g id="a_node3"><a xlink:href="compiler__macros_8h.html" target="_top" xlink:title="Various compiler workarounds. ">
<polygon fill="none" stroke="black" points="116.544,-1 116.544,-19 241.456,-19 241.456,-1 116.544,-1"/>
<text text-anchor="middle" x="179" y="-7" font-family="Helvetica,sans-Serif" font-size="10.00">RMF/compiler_macros.h</text>
</a>
</g>
</g>
<!-- Node2&#45;&gt;Node3 -->
<g id="edge2" class="edge"><title>Node2&#45;&gt;Node3</title>
<path fill="none" stroke="midnightblue" d="M58.2588,-56.9157C82.1008,-47.849 120.981,-33.0635 148.161,-22.7275"/>
<polygon fill="midnightblue" stroke="midnightblue" points="149.493,-25.9656 157.596,-19.1396 147.005,-19.4227 149.493,-25.9656"/>
</g>
<!-- Node4&#45;&gt;Node3 -->
<g id="edge7" class="edge"><title>Node4&#45;&gt;Node3</title>
<path fill="none" stroke="midnightblue" d="M539.638,-112.99C533.242,-98.8481 517.887,-69.6598 495,-56 455.129,-32.2036 332.044,-20.2786 251.778,-14.88"/>
<polygon fill="midnightblue" stroke="midnightblue" points="251.931,-11.3826 241.724,-14.2227 251.475,-18.3677 251.931,-11.3826"/>
</g>
<!-- Node4&#45;&gt;Node5 -->
<g id="edge4" class="edge"><title>Node4&#45;&gt;Node5</title>
<path fill="none" stroke="midnightblue" d="M530.546,-112.799C517.587,-104.265 497.076,-90.7573 481.68,-80.6187"/>
<polygon fill="midnightblue" stroke="midnightblue" points="483.579,-77.6785 473.303,-75.1017 479.729,-83.5247 483.579,-77.6785"/>
</g>
<!-- Node6 -->
<g id="node6" class="node"><title>Node6</title>
<polygon fill="none" stroke="#bfbfbf" points="542.828,-57 542.828,-75 597.172,-75 597.172,-57 542.828,-57"/>
<text text-anchor="middle" x="570" y="-63" font-family="Helvetica,sans-Serif" font-size="10.00">iostream</text>
</g>
<!-- Node4&#45;&gt;Node6 -->
<g id="edge5" class="edge"><title>Node4&#45;&gt;Node6</title>
<path fill="none" stroke="midnightblue" d="M547.219,-112.562C551.005,-104.989 556.68,-93.6393 561.419,-84.1625"/>
<polygon fill="midnightblue" stroke="midnightblue" points="564.558,-85.711 565.899,-75.2014 558.297,-82.5805 564.558,-85.711"/>
</g>
<!-- Node4&#45;&gt;Node7 -->
<g id="edge6" class="edge"><title>Node4&#45;&gt;Node7</title>
<path fill="none" stroke="midnightblue" d="M521.142,-112.916C496.204,-103.692 455.262,-88.549 427.265,-78.1938"/>
<polygon fill="midnightblue" stroke="midnightblue" points="428.182,-74.8016 417.589,-74.6152 425.754,-81.3669 428.182,-74.8016"/>
</g>
<!-- Node9 -->
<g id="node8" class="node"><title>Node9</title>
<polygon fill="none" stroke="#bfbfbf" points="615.384,-57 615.384,-75 658.616,-75 658.616,-57 615.384,-57"/>
<text text-anchor="middle" x="637" y="-63" font-family="Helvetica,sans-Serif" font-size="10.00">vector</text>
</g>
<!-- Node4&#45;&gt;Node9 -->
<g id="edge8" class="edge"><title>Node4&#45;&gt;Node9</title>
<path fill="none" stroke="midnightblue" d="M557.277,-112.799C572.27,-104.185 596.085,-90.5043 613.787,-80.3354"/>
<polygon fill="midnightblue" stroke="midnightblue" points="615.969,-83.1179 622.897,-75.1017 612.483,-77.0481 615.969,-83.1179"/>
</g>
<!-- Node10 -->
<g id="node9" class="node"><title>Node10</title>
<polygon fill="none" stroke="#bfbfbf" points="676.306,-57 676.306,-75 765.694,-75 765.694,-57 676.306,-57"/>
<text text-anchor="middle" x="721" y="-63" font-family="Helvetica,sans-Serif" font-size="10.00">boost/config.hpp</text>
</g>
<!-- Node4&#45;&gt;Node10 -->
<g id="edge9" class="edge"><title>Node4&#45;&gt;Node10</title>
<path fill="none" stroke="midnightblue" d="M569.648,-112.916C600.278,-103.623 650.709,-88.3241 684.858,-77.9643"/>
<polygon fill="midnightblue" stroke="midnightblue" points="685.907,-81.3037 694.461,-75.0513 683.875,-74.6052 685.907,-81.3037"/>
</g>
<!-- Node11 -->
<g id="node10" class="node"><title>Node11</title>
<polygon fill="none" stroke="#bfbfbf" points="783.53,-57 783.53,-75 878.47,-75 878.47,-57 783.53,-57"/>
<text text-anchor="middle" x="831" y="-63" font-family="Helvetica,sans-Serif" font-size="10.00">boost/version.hpp</text>
</g>
<!-- Node4&#45;&gt;Node11 -->
<g id="edge10" class="edge"><title>Node4&#45;&gt;Node11</title>
<path fill="none" stroke="midnightblue" d="M585.806,-112.974C636.993,-103.376 722.675,-87.3109 777.998,-76.9379"/>
<polygon fill="midnightblue" stroke="midnightblue" points="778.776,-80.3531 787.959,-75.0701 777.486,-73.473 778.776,-80.3531"/>
</g>
<!-- Node12 -->
<g id="node11" class="node"><title>Node12</title>
<polygon fill="none" stroke="#bfbfbf" points="895.971,-57 895.971,-75 992.029,-75 992.029,-57 895.971,-57"/>
<text text-anchor="middle" x="944" y="-63" font-family="Helvetica,sans-Serif" font-size="10.00">boost/foreach.hpp</text>
</g>
<!-- Node4&#45;&gt;Node12 -->
<g id="edge11" class="edge"><title>Node4&#45;&gt;Node12</title>
<path fill="none" stroke="midnightblue" d="M603.563,-113.166C687.995,-102.233 835.583,-83.0721 885.716,-76.1254"/>
<polygon fill="midnightblue" stroke="midnightblue" points="886.399,-79.5638 895.812,-74.7007 885.421,-72.6325 886.399,-79.5638"/>
</g>
<!-- Node13&#45;&gt;Node2 -->
<g id="edge16" class="edge"><title>Node13&#45;&gt;Node2</title>
<path fill="none" stroke="midnightblue" d="M207.908,-112.916C173.024,-103.544 115.394,-88.061 76.8227,-77.6986"/>
<polygon fill="midnightblue" stroke="midnightblue" points="77.5344,-74.2658 66.9687,-75.0513 75.7182,-81.0261 77.5344,-74.2658"/>
</g>
<!-- Node13&#45;&gt;Node3 -->
<g id="edge17" class="edge"><title>Node13&#45;&gt;Node3</title>
<path fill="none" stroke="midnightblue" d="M228.76,-112.935C219.699,-104.553 206.099,-90.6326 198,-76 189.816,-61.2132 184.832,-42.5376 182.035,-29.0029"/>
<polygon fill="midnightblue" stroke="midnightblue" points="185.451,-28.2302 180.177,-19.0412 178.57,-29.5133 185.451,-28.2302"/>
</g>
<!-- Node13&#45;&gt;Node7 -->
<g id="edge15" class="edge"><title>Node13&#45;&gt;Node7</title>
<path fill="none" stroke="midnightblue" d="M261.804,-112.916C289.824,-103.399 336.394,-87.583 366.896,-77.2239"/>
<polygon fill="midnightblue" stroke="midnightblue" points="368.231,-80.4669 376.575,-73.937 365.98,-73.8388 368.231,-80.4669"/>
</g>
<!-- Node14 -->
<g id="node13" class="node"><title>Node14</title>
<polygon fill="none" stroke="#bfbfbf" points="207.451,-57 207.451,-75 358.549,-75 358.549,-57 207.451,-57"/>
<text text-anchor="middle" x="283" y="-63" font-family="Helvetica,sans-Serif" font-size="10.00">boost/exception/exception.hpp</text>
</g>
<!-- Node13&#45;&gt;Node14 -->
<g id="edge13" class="edge"><title>Node13&#45;&gt;Node14</title>
<path fill="none" stroke="midnightblue" d="M245.031,-112.562C251.608,-104.67 261.603,-92.6768 269.687,-82.9758"/>
<polygon fill="midnightblue" stroke="midnightblue" points="272.452,-85.1243 276.165,-75.2014 267.075,-80.643 272.452,-85.1243"/>
</g>
<!-- Node15 -->
<g id="node14" class="node"><title>Node15</title>
<polygon fill="none" stroke="#bfbfbf" points="92.5962,-57 92.5962,-75 151.404,-75 151.404,-57 92.5962,-57"/>
<text text-anchor="middle" x="122" y="-63" font-family="Helvetica,sans-Serif" font-size="10.00">exception</text>
</g>
<!-- Node13&#45;&gt;Node15 -->
<g id="edge14" class="edge"><title>Node13&#45;&gt;Node15</title>
<path fill="none" stroke="midnightblue" d="M220.634,-112.916C201.584,-104.048 170.783,-89.7092 148.667,-79.4138"/>
<polygon fill="midnightblue" stroke="midnightblue" points="150.028,-76.1869 139.485,-75.1396 147.074,-82.533 150.028,-76.1869"/>
</g>
</g>
</svg>
        <g id="navigator" transform="translate(0 0)" fill="#404254">
                <rect fill="#f2f5e9" fill-opacity="0.5" stroke="#606060" stroke-width=".5" x="0" y="0" width="60" height="60"/>
                <use id="zoomplus" xlink:href="#zoomPlus" x="17" y="9" onmousedown="handleZoom(evt,'in')"/>
                <use id="zoomminus" xlink:href="#zoomMin" x="42" y="9" onmousedown="handleZoom(evt,'out')"/>
                <use id="reset" xlink:href="#resetDef" x="30" y="36" onmousedown="handleReset()"/>
                <g id="arrowUp" xlink:href="#dirArrow" transform="translate(30 24)" onmousedown="handlePan(0,-1)">
                  <use xlink:href="#rim" fill="#404040">
                        <set attributeName="fill" to="#808080" begin="arrowUp.mouseover" end="arrowUp.mouseout"/>
                  </use>
                  <path fill="none" stroke="white" stroke-width="1.5" d="M0,-3.0v7 M-2.5,-0.5L0,-3.0L2.5,-0.5"/>
                </g>
                <g id="arrowRight" xlink:href="#dirArrow" transform="rotate(90) translate(36 -43)" onmousedown="handlePan(1,0)">
                  <use xlink:href="#rim" fill="#404040">
                        <set attributeName="fill" to="#808080" begin="arrowRight.mouseover" end="arrowRight.mouseout"/>
                  </use>
                  <path fill="none" stroke="white" stroke-width="1.5" d="M0,-3.0v7 M-2.5,-0.5L0,-3.0L2.5,-0.5"/>
                </g>
                <g id="arrowDown" xlink:href="#dirArrow" transform="rotate(180) translate(-30 -48)" onmousedown="handlePan(0,1)">
                  <use xlink:href="#rim" fill="#404040">
                        <set attributeName="fill" to="#808080" begin="arrowDown.mouseover" end="arrowDown.mouseout"/>
                  </use>
                  <path fill="none" stroke="white" stroke-width="1.5" d="M0,-3.0v7 M-2.5,-0.5L0,-3.0L2.5,-0.5"/>
                </g>
                <g id="arrowLeft" xlink:href="#dirArrow" transform="rotate(270) translate(-36 17)" onmousedown="handlePan(-1,0)">
                  <use xlink:href="#rim" fill="#404040">
                        <set attributeName="fill" to="#808080" begin="arrowLeft.mouseover" end="arrowLeft.mouseout"/>
                  </use>
                  <path fill="none" stroke="white" stroke-width="1.5" d="M0,-3.0v7 M-2.5,-0.5L0,-3.0L2.5,-0.5"/>
                </g>
        </g>
        <svg viewBox="0 0 15 15" width="100%" height="30px" preserveAspectRatio="xMaxYMin meet">
         <g id="arrow_out" transform="scale(0.3 0.3)">
          <a xlink:href="BufferConstHandle_8h__incl_org.svg" target="_base">
           <rect id="button" ry="5" rx="5" y="6" x="6" height="38" width="38"
                fill="#f2f5e9" fill-opacity="0.5" stroke="#606060" stroke-width="1.0"/>
           <path id="arrow"
             d="M 11.500037,31.436501 C 11.940474,20.09759 22.043105,11.32322 32.158766,21.979434 L 37.068811,17.246167 C 37.068811,17.246167 37.088388,32 37.088388,32 L 22.160133,31.978069 C 22.160133,31.978069 26.997745,27.140456 26.997745,27.140456 C 18.528582,18.264221 13.291696,25.230495 11.500037,31.436501 z"
             style="fill:#404040;"/>
          </a>
         </g>
        </svg>
</svg>
