<?xml version="1.0" encoding="UTF-8" standalone="no"?>
<!DOCTYPE svg PUBLIC "-//W3C//DTD SVG 1.1//EN"
 "http://www.w3.org/Graphics/SVG/1.1/DTD/svg11.dtd">
<!-- Generated by graphviz version 2.36.0 (20140111.2315)
 -->
<!-- Title: BufferConstHandle.h Pages: 1 -->
<!--zoomable 364 -->
<svg id="main" version="1.1" xmlns="http://www.w3.org/2000/svg" xmlns:xlink="http://www.w3.org/1999/xlink" xml:space="preserve" onload="init(evt)">
<style type="text/css"><![CDATA[
.edge:hover path { stroke: red; }
.edge:hover polygon { stroke: red; fill: red; }
]]></style>
<script type="text/javascript"><![CDATA[
var edges = document.getElementsByTagName('g');
if (edges && edges.length) {
  for (var i=0;i<edges.length;i++) {
    if (edges[i].id.substr(0,4)=='edge') {
      edges[i].setAttribute('class','edge');
    }
  }
}
]]></script>
        <defs>
                <circle id="rim" cx="0" cy="0" r="7"/>
                <circle id="rim2" cx="0" cy="0" r="3.5"/>
                <g id="zoomPlus">
                        <use xlink:href="#rim" fill="#404040">
                                <set attributeName="fill" to="#808080" begin="zoomplus.mouseover" end="zoomplus.mouseout"/>
                        </use>
                        <path d="M-4,0h8M0,-4v8" fill="none" stroke="white" stroke-width="1.5" pointer-events="none"/>
                </g>
                <g id="zoomMin">
                        <use xlink:href="#rim" fill="#404040">
                                <set attributeName="fill" to="#808080" begin="zoomminus.mouseover" end="zoomminus.mouseout"/>
                        </use>
                        <path d="M-4,0h8" fill="none" stroke="white" stroke-width="1.5" pointer-events="none"/>
                </g>
                <g id="dirArrow">
                        <path fill="none" stroke="white" stroke-width="1.5" d="M0,-3.0v7 M-2.5,-0.5L0,-3.0L2.5,-0.5"/>
                </g>
               <g id="resetDef">
                       <use xlink:href="#rim2" fill="#404040">
                               <set attributeName="fill" to="#808080" begin="reset.mouseover" end="reset.mouseout"/>
                       </use>
               </g>
        </defs>

<script type="text/javascript">
var viewWidth = 861;
var viewHeight = 364;
var sectionId = 'dynsection-1';
</script>
<script xlink:href="svgpan.js"/>
<svg id="graph" class="graph">
<g id="viewport">
<title>BufferConstHandle.h</title>
<!-- Node1 -->
<g id="node1" class="node"><title>Node1</title>
<polygon fill="#bfbfbf" stroke="black" points="573.672,-337 573.672,-355 682.328,-355 682.328,-337 573.672,-337"/>
<text text-anchor="middle" x="628" y="-343" font-family="Helvetica,sans-Serif" font-size="10.00">BufferConstHandle.h</text>
</g>
<!-- Node2 -->
<g id="node2" class="node"><title>Node2</title>
<g id="a_node2"><a xlink:href="BufferHandle_8h.html" target="_top" xlink:title="Declare RMF::BufferHandle. ">
<polygon fill="none" stroke="black" points="586.733,-281 586.733,-299 669.267,-299 669.267,-281 586.733,-281"/>
<text text-anchor="middle" x="628" y="-287" font-family="Helvetica,sans-Serif" font-size="10.00">BufferHandle.h</text>
</a>
</g>
</g>
<!-- Node1&#45;&gt;Node2 -->
<g id="edge1" class="edge"><title>Node1&#45;&gt;Node2</title>
<path fill="none" stroke="midnightblue" d="M628,-326.329C628,-317.077 628,-306.38 628,-299.201"/>
<polygon fill="midnightblue" stroke="midnightblue" points="624.5,-326.562 628,-336.562 631.5,-326.563 624.5,-326.562"/>
</g>
<!-- Node3 -->
<g id="node3" class="node"><title>Node3</title>
<g id="a_node3"><a xlink:href="FileConstHandle_8h.html" target="_top" xlink:title="Handle read/write of Model data from/to files. ">
<polygon fill="none" stroke="black" points="331.867,-225 331.867,-243 430.133,-243 430.133,-225 331.867,-225"/>
<text text-anchor="middle" x="381" y="-231" font-family="Helvetica,sans-Serif" font-size="10.00">FileConstHandle.h</text>
</a>
</g>
</g>
<!-- Node2&#45;&gt;Node3 -->
<g id="edge2" class="edge"><title>Node2&#45;&gt;Node3</title>
<path fill="none" stroke="midnightblue" d="M581.278,-278.786C533.872,-268.421 461.447,-252.588 417.913,-243.07"/>
<polygon fill="midnightblue" stroke="midnightblue" points="580.772,-282.257 591.288,-280.974 582.267,-275.419 580.772,-282.257"/>
</g>
<!-- Node9 -->
<g id="node9" class="node"><title>Node9</title>
<g id="a_node9"><a xlink:href="benchmark__rmf_8cpp_source.html" target="_top" xlink:title="benchmark_rmf.cpp">
<polygon fill="none" stroke="black" points="724.815,-1 724.815,-19 829.185,-19 829.185,-1 724.815,-1"/>
<text text-anchor="middle" x="777" y="-7" font-family="Helvetica,sans-Serif" font-size="10.00">benchmark_rmf.cpp</text>
</a>
</g>
</g>
<!-- Node2&#45;&gt;Node9 -->
<g id="edge39" class="edge"><title>Node2&#45;&gt;Node9</title>
<path fill="none" stroke="midnightblue" d="M679.558,-285.974C745.981,-278.967 853,-255.767 853,-179 853,-179 853,-179 853,-121 853,-75.7366 808.904,-35.6055 787.889,-19.0504"/>
<polygon fill="midnightblue" stroke="midnightblue" points="678.887,-282.522 669.268,-286.965 679.558,-289.49 678.887,-282.522"/>
</g>
<!-- Node4 -->
<g id="node4" class="node"><title>Node4</title>
<g id="a_node4"><a xlink:href="FileHandle_8h.html" target="_top" xlink:title="Declaration for RMF::FileHandle. ">
<polygon fill="none" stroke="black" points="439.929,-169 439.929,-187 512.071,-187 512.071,-169 439.929,-169"/>
<text text-anchor="middle" x="476" y="-175" font-family="Helvetica,sans-Serif" font-size="10.00">FileHandle.h</text>
</a>
</g>
</g>
<!-- Node3&#45;&gt;Node4 -->
<g id="edge3" class="edge"><title>Node3&#45;&gt;Node4</title>
<path fill="none" stroke="midnightblue" d="M404.172,-219.829C422.159,-209.604 446.523,-195.755 461.747,-187.102"/>
<polygon fill="midnightblue" stroke="midnightblue" points="402.393,-216.814 395.428,-224.799 405.852,-222.9 402.393,-216.814"/>
</g>
<!-- Node3&#45;&gt;Node9 -->
<g id="edge38" class="edge"><title>Node3&#45;&gt;Node9</title>
<path fill="none" stroke="midnightblue" d="M436.45,-222.949C503.876,-209.182 619.725,-180.477 709,-132 743.106,-113.48 759.295,-111.03 776,-76 784.939,-57.256 781.545,-31.8774 778.928,-19.0846"/>
<polygon fill="midnightblue" stroke="midnightblue" points="435.576,-219.554 426.459,-224.952 436.952,-226.418 435.576,-219.554"/>
</g>
<!-- Node18 -->
<g id="node18" class="node"><title>Node18</title>
<g id="a_node18"><a xlink:href="validate_8h.html" target="_top" xlink:title="Support for validating the data in a file. ">
<polygon fill="none" stroke="black" points="39.5962,-113 39.5962,-131 98.4038,-131 98.4038,-113 39.5962,-113"/>
<text text-anchor="middle" x="69" y="-119" font-family="Helvetica,sans-Serif" font-size="10.00">validate.h</text>
</a>
</g>
</g>
<!-- Node3&#45;&gt;Node18 -->
<g id="edge37" class="edge"><title>Node3&#45;&gt;Node18</title>
<path fill="none" stroke="midnightblue" d="M390.783,-215.745C397.536,-201.284 403.436,-180.977 392,-168 349.94,-120.272 170.628,-143.167 108,-132 104.99,-131.463 101.863,-130.845 98.7471,-130.19"/>
<polygon fill="midnightblue" stroke="midnightblue" points="387.658,-214.17 386.175,-224.66 393.876,-217.385 387.658,-214.17"/>
</g>
<!-- Node19 -->
<g id="node19" class="node"><title>Node19</title>
<g id="a_node19"><a xlink:href="info_8h.html" target="_top" xlink:title="Show info about the file. ">
<polygon fill="none" stroke="black" points="-0.231445,-169 -0.231445,-187 40.2314,-187 40.2314,-169 -0.231445,-169"/>
<text text-anchor="middle" x="20" y="-175" font-family="Helvetica,sans-Serif" font-size="10.00">info.h</text>
</a>
</g>
</g>
<!-- Node3&#45;&gt;Node19 -->
<g id="edge33" class="edge"><title>Node3&#45;&gt;Node19</title>
<path fill="none" stroke="midnightblue" d="M321.269,-227.92C254.397,-221.537 143.069,-208.82 49,-188 46.2206,-187.385 43.3234,-186.629 40.4818,-185.819"/>
<polygon fill="midnightblue" stroke="midnightblue" points="321.327,-231.441 331.61,-228.891 321.981,-224.472 321.327,-231.441"/>
</g>
<!-- Node20 -->
<g id="node20" class="node"><title>Node20</title>
<g id="a_node20"><a xlink:href="RestoreCurrentFrame_8h.html" target="_top" xlink:title="Restore the current frame when exiting a scope. ">
<polygon fill="none" stroke="black" points="58.2046,-169 58.2046,-187 179.795,-187 179.795,-169 58.2046,-169"/>
<text text-anchor="middle" x="119" y="-175" font-family="Helvetica,sans-Serif" font-size="10.00">RestoreCurrentFrame.h</text>
</a>
</g>
</g>
<!-- Node3&#45;&gt;Node20 -->
<g id="edge34" class="edge"><title>Node3&#45;&gt;Node20</title>
<path fill="none" stroke="midnightblue" d="M332.072,-222.916C281.8,-212.554 204.526,-196.628 158.155,-187.07"/>
<polygon fill="midnightblue" stroke="midnightblue" points="331.558,-226.383 342.059,-224.974 332.971,-219.527 331.558,-226.383"/>
</g>
<!-- Node21 -->
<g id="node21" class="node"><title>Node21</title>
<g id="a_node21"><a xlink:href="SetCurrentFrame_8h.html" target="_top" xlink:title="Temporarily change the current frame. ">
<polygon fill="none" stroke="black" points="198.207,-169 198.207,-187 299.793,-187 299.793,-169 198.207,-169"/>
<text text-anchor="middle" x="249" y="-175" font-family="Helvetica,sans-Serif" font-size="10.00">SetCurrentFrame.h</text>
</a>
</g>
</g>
<!-- Node3&#45;&gt;Node21 -->
<g id="edge35" class="edge"><title>Node3&#45;&gt;Node21</title>
<path fill="none" stroke="midnightblue" d="M351.82,-221.063C326.632,-210.758 290.921,-196.15 268.897,-187.14"/>
<polygon fill="midnightblue" stroke="midnightblue" points="350.658,-224.369 361.238,-224.916 353.308,-217.89 350.658,-224.369"/>
</g>
<!-- Node22 -->
<g id="node22" class="node"><title>Node22</title>
<g id="a_node22"><a xlink:href="signature_8h.html" target="_top" xlink:title="Return a (long) string describing a file that can be compared. ">
<polygon fill="none" stroke="black" points="318.261,-169 318.261,-187 383.739,-187 383.739,-169 318.261,-169"/>
<text text-anchor="middle" x="351" y="-175" font-family="Helvetica,sans-Serif" font-size="10.00">signature.h</text>
</a>
</g>
</g>
<!-- Node3&#45;&gt;Node22 -->
<g id="edge36" class="edge"><title>Node3&#45;&gt;Node22</title>
<path fill="none" stroke="midnightblue" d="M371.3,-215.54C366.014,-206.025 359.72,-194.695 355.556,-187.201"/>
<polygon fill="midnightblue" stroke="midnightblue" points="368.396,-217.521 376.312,-224.562 374.516,-214.121 368.396,-217.521"/>
</g>
<!-- Node5 -->
<g id="node5" class="node"><title>Node5</title>
<g id="a_node5"><a xlink:href="alias_8h.html" target="_top" xlink:title="Helper functions for manipulating RMF files. ">
<polygon fill="none" stroke="black" points="453.547,-113 453.547,-131 498.453,-131 498.453,-113 453.547,-113"/>
<text text-anchor="middle" x="476" y="-119" font-family="Helvetica,sans-Serif" font-size="10.00">alias.h</text>
</a>
</g>
</g>
<!-- Node4&#45;&gt;Node5 -->
<g id="edge4" class="edge"><title>Node4&#45;&gt;Node5</title>
<path fill="none" stroke="midnightblue" d="M476,-158.329C476,-149.077 476,-138.38 476,-131.201"/>
<polygon fill="midnightblue" stroke="midnightblue" points="472.5,-158.562 476,-168.562 479.5,-158.563 472.5,-158.562"/>
</g>
<!-- Node7 -->
<g id="node7" class="node"><title>Node7</title>
<g id="a_node7"><a xlink:href="physics_8h.html" target="_top" xlink:title="Helper functions for manipulating RMF files. ">
<polygon fill="none" stroke="black" points="605.158,-57 605.158,-75 662.842,-75 662.842,-57 605.158,-57"/>
<text text-anchor="middle" x="634" y="-63" font-family="Helvetica,sans-Serif" font-size="10.00">physics.h</text>
</a>
</g>
</g>
<!-- Node4&#45;&gt;Node7 -->
<g id="edge14" class="edge"><title>Node4&#45;&gt;Node7</title>
<path fill="none" stroke="midnightblue" d="M496.518,-162.83C509.318,-153.981 526.131,-142.343 541,-132 570.431,-111.527 605.02,-87.3112 622.558,-75.0218"/>
<polygon fill="midnightblue" stroke="midnightblue" points="494.228,-160.158 487.991,-168.722 498.208,-165.917 494.228,-160.158"/>
</g>
<!-- Node4&#45;&gt;Node9 -->
<g id="edge32" class="edge"><title>Node4&#45;&gt;Node9</title>
<path fill="none" stroke="midnightblue" d="M522.56,-173.103C584.782,-165.393 694.449,-142.636 757,-76 772.03,-59.9883 775.777,-32.9306 776.703,-19.3305"/>
<polygon fill="midnightblue" stroke="midnightblue" points="521.787,-169.669 512.256,-174.296 522.592,-176.623 521.787,-169.669"/>
</g>
<!-- Node10 -->
<g id="node10" class="node"><title>Node10</title>
<g id="a_node10"><a xlink:href="external_8h.html" target="_top" xlink:title="Helper functions for manipulating RMF files. ">
<polygon fill="none" stroke="black" points="213.042,-57 213.042,-75 272.958,-75 272.958,-57 213.042,-57"/>
<text text-anchor="middle" x="243" y="-63" font-family="Helvetica,sans-Serif" font-size="10.00">external.h</text>
</a>
</g>
</g>
<!-- Node4&#45;&gt;Node10 -->
<g id="edge10" class="edge"><title>Node4&#45;&gt;Node10</title>
<path fill="none" stroke="midnightblue" d="M430.36,-166.441C401.801,-158.897 364.728,-147.361 334,-132 301.526,-115.766 267.938,-88.5659 252.191,-75.0826"/>
<polygon fill="midnightblue" stroke="midnightblue" points="429.526,-169.84 440.082,-168.943 431.27,-163.061 429.526,-169.84"/>
</g>
<!-- Node11 -->
<g id="node11" class="node"><title>Node11</title>
<g id="a_node11"><a xlink:href="feature_8h.html" target="_top" xlink:title="Helper functions for manipulating RMF files. ">
<polygon fill="none" stroke="black" points="291.264,-57 291.264,-75 346.736,-75 346.736,-57 291.264,-57"/>
<text text-anchor="middle" x="319" y="-63" font-family="Helvetica,sans-Serif" font-size="10.00">feature.h</text>
</a>
</g>
</g>
<!-- Node4&#45;&gt;Node11 -->
<g id="edge12" class="edge"><title>Node4&#45;&gt;Node11</title>
<path fill="none" stroke="midnightblue" d="M429.998,-168.352C405.216,-161.788 375.423,-150.605 354,-132 336.001,-116.369 325.681,-89.1386 321.382,-75.4158"/>
<polygon fill="midnightblue" stroke="midnightblue" points="429.373,-171.803 439.921,-170.81 431.056,-165.008 429.373,-171.803"/>
</g>
<!-- Node12 -->
<g id="node12" class="node"><title>Node12</title>
<g id="a_node12"><a xlink:href="publication_8h.html" target="_top" xlink:title="Helper functions for manipulating RMF files. ">
<polygon fill="none" stroke="black" points="362.924,-113 362.924,-131 435.076,-131 435.076,-113 362.924,-113"/>
<text text-anchor="middle" x="399" y="-119" font-family="Helvetica,sans-Serif" font-size="10.00">publication.h</text>
</a>
</g>
</g>
<!-- Node4&#45;&gt;Node12 -->
<g id="edge15" class="edge"><title>Node4&#45;&gt;Node12</title>
<path fill="none" stroke="midnightblue" d="M456.004,-162.976C441.558,-152.846 422.552,-139.517 410.552,-131.102"/>
<polygon fill="midnightblue" stroke="midnightblue" points="454.108,-165.922 464.305,-168.799 458.128,-160.191 454.108,-165.922"/>
</g>
<!-- Node13 -->
<g id="node13" class="node"><title>Node13</title>
<g id="a_node13"><a xlink:href="sequence_8h.html" target="_top" xlink:title="Helper functions for manipulating RMF files. ">
<polygon fill="none" stroke="black" points="681.146,-57 681.146,-75 748.854,-75 748.854,-57 681.146,-57"/>
<text text-anchor="middle" x="715" y="-63" font-family="Helvetica,sans-Serif" font-size="10.00">sequence.h</text>
</a>
</g>
</g>
<!-- Node4&#45;&gt;Node13 -->
<g id="edge17" class="edge"><title>Node4&#45;&gt;Node13</title>
<path fill="none" stroke="midnightblue" d="M502.661,-164.729C551.92,-142.058 655.938,-94.1833 697.4,-75.1004"/>
<polygon fill="midnightblue" stroke="midnightblue" points="501.195,-161.551 493.574,-168.911 504.122,-167.91 501.195,-161.551"/>
</g>
<!-- Node14 -->
<g id="node14" class="node"><title>Node14</title>
<g id="a_node14"><a xlink:href="shape_8h.html" target="_top" xlink:title="Helper functions for manipulating RMF files. ">
<polygon fill="none" stroke="black" points="535.207,-57 535.207,-75 586.793,-75 586.793,-57 535.207,-57"/>
<text text-anchor="middle" x="561" y="-63" font-family="Helvetica,sans-Serif" font-size="10.00">shape.h</text>
</a>
</g>
</g>
<!-- Node4&#45;&gt;Node14 -->
<g id="edge21" class="edge"><title>Node4&#45;&gt;Node14</title>
<path fill="none" stroke="midnightblue" d="M492.774,-162.027C501.68,-153.65 512.506,-142.754 521,-132 535.948,-113.076 549.859,-88.2063 556.652,-75.4099"/>
<polygon fill="midnightblue" stroke="midnightblue" points="490.253,-159.591 485.259,-168.935 494.99,-164.745 490.253,-159.591"/>
</g>
<!-- Node15 -->
<g id="node15" class="node"><title>Node15</title>
<g id="a_node15"><a xlink:href="bond_8h.html" target="_top" xlink:title="Helper functions for manipulating RMF files. ">
<polygon fill="none" stroke="black" points="116.707,-113 116.707,-131 163.293,-131 163.293,-113 116.707,-113"/>
<text text-anchor="middle" x="140" y="-119" font-family="Helvetica,sans-Serif" font-size="10.00">bond.h</text>
</a>
</g>
</g>
<!-- Node4&#45;&gt;Node15 -->
<g id="edge24" class="edge"><title>Node4&#45;&gt;Node15</title>
<path fill="none" stroke="midnightblue" d="M429.792,-168.619C428.515,-168.407 427.249,-168.201 426,-168 313.429,-149.898 283.572,-155.487 172,-132 169.176,-131.406 166.235,-130.7 163.33,-129.949"/>
<polygon fill="midnightblue" stroke="midnightblue" points="429.261,-172.078 439.706,-170.303 430.434,-165.177 429.261,-172.078"/>
</g>
<!-- Node16 -->
<g id="node16" class="node"><title>Node16</title>
<g id="a_node16"><a xlink:href="representation_8h.html" target="_top" xlink:title="Helper functions for manipulating RMF files. ">
<polygon fill="none" stroke="black" points="180.865,-113 180.865,-131 269.135,-131 269.135,-113 180.865,-113"/>
<text text-anchor="middle" x="225" y="-119" font-family="Helvetica,sans-Serif" font-size="10.00">representation.h</text>
</a>
</g>
</g>
<!-- Node4&#45;&gt;Node16 -->
<g id="edge26" class="edge"><title>Node4&#45;&gt;Node16</title>
<path fill="none" stroke="midnightblue" d="M429.916,-167.085C381.755,-156.724 307.109,-140.665 262.448,-131.057"/>
<polygon fill="midnightblue" stroke="midnightblue" points="429.258,-170.524 439.771,-169.206 430.73,-163.681 429.258,-170.524"/>
</g>
<!-- Node17 -->
<g id="node17" class="node"><title>Node17</title>
<g id="a_node17"><a xlink:href="alternatives_8h.html" target="_top" xlink:title="Helper functions for manipulating RMF files. ">
<polygon fill="none" stroke="black" points="441.261,-57 441.261,-75 516.739,-75 516.739,-57 441.261,-57"/>
<text text-anchor="middle" x="479" y="-63" font-family="Helvetica,sans-Serif" font-size="10.00">alternatives.h</text>
</a>
</g>
</g>
<!-- Node4&#45;&gt;Node17 -->
<g id="edge28" class="edge"><title>Node4&#45;&gt;Node17</title>
<path fill="none" stroke="midnightblue" d="M490.495,-161.084C496.886,-152.997 503.689,-142.644 507,-132 513.57,-110.881 497.058,-87.3258 486.675,-75.201"/>
<polygon fill="midnightblue" stroke="midnightblue" points="487.691,-158.98 483.906,-168.876 493.036,-163.5 487.691,-158.98"/>
</g>
<!-- Node4&#45;&gt;Node18 -->
<g id="edge31" class="edge"><title>Node4&#45;&gt;Node18</title>
<path fill="none" stroke="midnightblue" d="M429.8,-168.572C428.52,-168.374 427.252,-168.183 426,-168 285.265,-147.39 248.191,-156.031 108,-132 104.986,-131.483 101.857,-130.879 98.7398,-130.231"/>
<polygon fill="midnightblue" stroke="midnightblue" points="429.293,-172.035 439.725,-170.183 430.415,-165.126 429.293,-172.035"/>
</g>
<!-- Node6 -->
<g id="node6" class="node"><title>Node6</title>
<g id="a_node6"><a xlink:href="decorators_8h.html" target="_top" xlink:title="Import all the decorators headers. ">
<polygon fill="none" stroke="black" points="358.207,-1 358.207,-19 429.793,-19 429.793,-1 358.207,-1"/>
<text text-anchor="middle" x="394" y="-7" font-family="Helvetica,sans-Serif" font-size="10.00">decorators.h</text>
</a>
</g>
</g>
<!-- Node5&#45;&gt;Node6 -->
<g id="edge5" class="edge"><title>Node5&#45;&gt;Node6</title>
<path fill="none" stroke="midnightblue" d="M459.529,-106.045C450.802,-97.6729 440.219,-86.7756 432,-76 417.572,-57.0838 404.452,-32.211 398.073,-19.412"/>
<polygon fill="midnightblue" stroke="midnightblue" points="457.209,-108.667 466.901,-112.947 461.994,-103.557 457.209,-108.667"/>
</g>
<!-- Node5&#45;&gt;Node7 -->
<g id="edge6" class="edge"><title>Node5&#45;&gt;Node7</title>
<path fill="none" stroke="midnightblue" d="M508.325,-109.952C538.643,-99.5904 583.26,-84.3417 610.372,-75.0752"/>
<polygon fill="midnightblue" stroke="midnightblue" points="506.968,-106.717 498.638,-113.263 509.232,-113.341 506.968,-106.717"/>
</g>
<!-- Node7&#45;&gt;Node6 -->
<g id="edge7" class="edge"><title>Node7&#45;&gt;Node6</title>
<path fill="none" stroke="midnightblue" d="M595.305,-56.0694C595.203,-56.0462 595.102,-56.0231 595,-56 537.29,-42.8812 470.191,-27.9172 429.962,-18.9767"/>
<polygon fill="midnightblue" stroke="midnightblue" points="594.512,-59.4783 605.04,-58.2948 596.072,-52.6543 594.512,-59.4783"/>
</g>
<!-- Node8 -->
<g id="node8" class="node"><title>Node8</title>
<g id="a_node8"><a xlink:href="TraverseHelper_8h.html" target="_top" xlink:title="A helper function for managing data when traversing an RMF. ">
<polygon fill="none" stroke="black" points="550.831,-1 550.831,-19 643.169,-19 643.169,-1 550.831,-1"/>
<text text-anchor="middle" x="597" y="-7" font-family="Helvetica,sans-Serif" font-size="10.00">TraverseHelper.h</text>
</a>
</g>
</g>
<!-- Node7&#45;&gt;Node8 -->
<g id="edge8" class="edge"><title>Node7&#45;&gt;Node8</title>
<path fill="none" stroke="midnightblue" d="M622.447,-48.1385C615.845,-38.5034 607.862,-26.8531 602.62,-19.2014"/>
<polygon fill="midnightblue" stroke="midnightblue" points="619.679,-50.2915 628.219,-56.5625 625.454,-46.3348 619.679,-50.2915"/>
</g>
<!-- Node7&#45;&gt;Node9 -->
<g id="edge9" class="edge"><title>Node7&#45;&gt;Node9</title>
<path fill="none" stroke="midnightblue" d="M664.89,-53.3354C692.213,-43.0175 731.374,-28.2294 755.445,-19.1396"/>
<polygon fill="midnightblue" stroke="midnightblue" points="663.527,-50.1085 655.409,-56.9157 666,-56.6572 663.527,-50.1085"/>
</g>
<!-- Node10&#45;&gt;Node6 -->
<g id="edge11" class="edge"><title>Node10&#45;&gt;Node6</title>
<path fill="none" stroke="midnightblue" d="M275.239,-53.4709C304.107,-43.1473 345.71,-28.2693 371.239,-19.1396"/>
<polygon fill="midnightblue" stroke="midnightblue" points="273.844,-50.2527 265.606,-56.9157 276.201,-56.8439 273.844,-50.2527"/>
</g>
<!-- Node11&#45;&gt;Node6 -->
<g id="edge13" class="edge"><title>Node11&#45;&gt;Node6</title>
<path fill="none" stroke="midnightblue" d="M338.823,-50.7272C352.751,-40.6991 370.898,-27.6336 382.502,-19.2786"/>
<polygon fill="midnightblue" stroke="midnightblue" points="336.461,-48.1151 330.391,-56.7986 340.551,-53.7959 336.461,-48.1151"/>
</g>
<!-- Node12&#45;&gt;Node6 -->
<g id="edge16" class="edge"><title>Node12&#45;&gt;Node6</title>
<path fill="none" stroke="midnightblue" d="M398.167,-102.678C397.063,-78.3886 395.162,-36.563 394.367,-19.0649"/>
<polygon fill="midnightblue" stroke="midnightblue" points="394.674,-102.901 398.624,-112.732 401.666,-102.583 394.674,-102.901"/>
</g>
<!-- Node13&#45;&gt;Node6 -->
<g id="edge18" class="edge"><title>Node13&#45;&gt;Node6</title>
<path fill="none" stroke="midnightblue" d="M671.302,-56.0555C671.201,-56.037 671.101,-56.0185 671,-56 584.742,-40.1784 482.84,-24.3586 429.938,-16.36"/>
<polygon fill="midnightblue" stroke="midnightblue" points="670.439,-59.4539 680.917,-57.8858 671.748,-52.5774 670.439,-59.4539"/>
</g>
<!-- Node13&#45;&gt;Node8 -->
<g id="edge19" class="edge"><title>Node13&#45;&gt;Node8</title>
<path fill="none" stroke="midnightblue" d="M688.013,-52.6502C665.553,-42.3716 634.214,-28.0301 614.787,-19.1396"/>
<polygon fill="midnightblue" stroke="midnightblue" points="686.785,-55.9369 697.334,-56.9157 689.698,-49.5718 686.785,-55.9369"/>
</g>
<!-- Node13&#45;&gt;Node9 -->
<g id="edge20" class="edge"><title>Node13&#45;&gt;Node9</title>
<path fill="none" stroke="midnightblue" d="M732.049,-50.151C743.471,-40.203 758.085,-27.4744 767.495,-19.2786"/>
<polygon fill="midnightblue" stroke="midnightblue" points="729.659,-47.5914 724.416,-56.7986 734.256,-52.87 729.659,-47.5914"/>
</g>
<!-- Node14&#45;&gt;Node6 -->
<g id="edge22" class="edge"><title>Node14&#45;&gt;Node6</title>
<path fill="none" stroke="midnightblue" d="M526.148,-53.7306C494.092,-43.3651 447.346,-28.2497 418.899,-19.0513"/>
<polygon fill="midnightblue" stroke="midnightblue" points="525.407,-57.1691 535.998,-56.9157 527.56,-50.5087 525.407,-57.1691"/>
</g>
<!-- Node14&#45;&gt;Node8 -->
<g id="edge23" class="edge"><title>Node14&#45;&gt;Node8</title>
<path fill="none" stroke="midnightblue" d="M572.241,-48.1385C578.664,-38.5034 586.431,-26.8531 591.532,-19.2014"/>
<polygon fill="midnightblue" stroke="midnightblue" points="569.26,-46.3005 566.625,-56.5625 575.084,-50.1834 569.26,-46.3005"/>
</g>
<!-- Node15&#45;&gt;Node6 -->
<g id="edge25" class="edge"><title>Node15&#45;&gt;Node6</title>
<path fill="none" stroke="midnightblue" d="M149.927,-103.955C159.543,-88.9938 175.511,-67.8276 195,-56 246.023,-25.0349 316.092,-15.337 358.03,-12.3251"/>
<polygon fill="midnightblue" stroke="midnightblue" points="146.79,-102.374 144.551,-112.73 152.76,-106.031 146.79,-102.374"/>
</g>
<!-- Node16&#45;&gt;Node6 -->
<g id="edge27" class="edge"><title>Node16&#45;&gt;Node6</title>
<path fill="none" stroke="midnightblue" d="M211.992,-104.695C202.391,-90.5571 192.776,-70.1926 204,-56 222.819,-32.2028 308.213,-19.6837 357.881,-14.3056"/>
<polygon fill="midnightblue" stroke="midnightblue" points="209.33,-106.983 218.079,-112.959 214.966,-102.832 209.33,-106.983"/>
</g>
<!-- Node17&#45;&gt;Node6 -->
<g id="edge29" class="edge"><title>Node17&#45;&gt;Node6</title>
<path fill="none" stroke="midnightblue" d="M457.376,-51.2623C441.376,-41.0976 420.124,-27.5964 406.753,-19.1017"/>
<polygon fill="midnightblue" stroke="midnightblue" points="455.773,-54.3904 466.09,-56.7986 459.526,-48.4819 455.773,-54.3904"/>
</g>
<!-- Node17&#45;&gt;Node8 -->
<g id="edge30" class="edge"><title>Node17&#45;&gt;Node8</title>
<path fill="none" stroke="midnightblue" d="M505.987,-52.6502C528.447,-42.3716 559.786,-28.0301 579.213,-19.1396"/>
<polygon fill="midnightblue" stroke="midnightblue" points="504.302,-49.5718 496.666,-56.9157 507.215,-55.9369 504.302,-49.5718"/>
</g>
</g>
</svg>
        <g id="navigator" transform="translate(0 0)" fill="#404254">
                <rect fill="#f2f5e9" fill-opacity="0.5" stroke="#606060" stroke-width=".5" x="0" y="0" width="60" height="60"/>
                <use id="zoomplus" xlink:href="#zoomPlus" x="17" y="9" onmousedown="handleZoom(evt,'in')"/>
                <use id="zoomminus" xlink:href="#zoomMin" x="42" y="9" onmousedown="handleZoom(evt,'out')"/>
                <use id="reset" xlink:href="#resetDef" x="30" y="36" onmousedown="handleReset()"/>
                <g id="arrowUp" xlink:href="#dirArrow" transform="translate(30 24)" onmousedown="handlePan(0,-1)">
                  <use xlink:href="#rim" fill="#404040">
                        <set attributeName="fill" to="#808080" begin="arrowUp.mouseover" end="arrowUp.mouseout"/>
                  </use>
                  <path fill="none" stroke="white" stroke-width="1.5" d="M0,-3.0v7 M-2.5,-0.5L0,-3.0L2.5,-0.5"/>
                </g>
                <g id="arrowRight" xlink:href="#dirArrow" transform="rotate(90) translate(36 -43)" onmousedown="handlePan(1,0)">
                  <use xlink:href="#rim" fill="#404040">
                        <set attributeName="fill" to="#808080" begin="arrowRight.mouseover" end="arrowRight.mouseout"/>
                  </use>
                  <path fill="none" stroke="white" stroke-width="1.5" d="M0,-3.0v7 M-2.5,-0.5L0,-3.0L2.5,-0.5"/>
                </g>
                <g id="arrowDown" xlink:href="#dirArrow" transform="rotate(180) translate(-30 -48)" onmousedown="handlePan(0,1)">
                  <use xlink:href="#rim" fill="#404040">
                        <set attributeName="fill" to="#808080" begin="arrowDown.mouseover" end="arrowDown.mouseout"/>
                  </use>
                  <path fill="none" stroke="white" stroke-width="1.5" d="M0,-3.0v7 M-2.5,-0.5L0,-3.0L2.5,-0.5"/>
                </g>
                <g id="arrowLeft" xlink:href="#dirArrow" transform="rotate(270) translate(-36 17)" onmousedown="handlePan(-1,0)">
                  <use xlink:href="#rim" fill="#404040">
                        <set attributeName="fill" to="#808080" begin="arrowLeft.mouseover" end="arrowLeft.mouseout"/>
                  </use>
                  <path fill="none" stroke="white" stroke-width="1.5" d="M0,-3.0v7 M-2.5,-0.5L0,-3.0L2.5,-0.5"/>
                </g>
        </g>
        <svg viewBox="0 0 15 15" width="100%" height="30px" preserveAspectRatio="xMaxYMin meet">
         <g id="arrow_out" transform="scale(0.3 0.3)">
          <a xlink:href="BufferConstHandle_8h__dep__incl_org.svg" target="_base">
           <rect id="button" ry="5" rx="5" y="6" x="6" height="38" width="38"
                fill="#f2f5e9" fill-opacity="0.5" stroke="#606060" stroke-width="1.0"/>
           <path id="arrow"
             d="M 11.500037,31.436501 C 11.940474,20.09759 22.043105,11.32322 32.158766,21.979434 L 37.068811,17.246167 C 37.068811,17.246167 37.088388,32 37.088388,32 L 22.160133,31.978069 C 22.160133,31.978069 26.997745,27.140456 26.997745,27.140456 C 18.528582,18.264221 13.291696,25.230495 11.500037,31.436501 z"
             style="fill:#404040;"/>
          </a>
         </g>
        </svg>
</svg>
