<?xml version="1.0" encoding="UTF-8" standalone="no"?>
<!DOCTYPE svg PUBLIC "-//W3C//DTD SVG 1.1//EN"
 "http://www.w3.org/Graphics/SVG/1.1/DTD/svg11.dtd">
<!-- Generated by graphviz version 2.34.0 (20131025.1349)
 -->
<!-- Title: BufferHandle.h Pages: 1 -->
<svg width="1246pt" height="262pt"
 viewBox="0.00 0.00 1246.00 262.00" xmlns="http://www.w3.org/2000/svg" xmlns:xlink="http://www.w3.org/1999/xlink">
<g id="graph0" class="graph" transform="scale(1 1) rotate(0) translate(4 258)">
<title>BufferHandle.h</title>
<!-- Node1 -->
<g id="node1" class="node"><title>Node1</title>
<polygon fill="#bfbfbf" stroke="black" points="1015.73,-233 1015.73,-253 1098.27,-253 1098.27,-233 1015.73,-233"/>
<text text-anchor="middle" x="1057" y="-239" font-family="Helvetica,sans-Serif" font-size="10.00">BufferHandle.h</text>
</g>
<!-- Node2 -->
<g id="node2" class="node"><title>Node2</title>
<g id="a_node2"><a xlink:href="config_8h_source.html" target="_top" xlink:title="RMF/config.h">
<polygon fill="none" stroke="black" points="1163.27,-59 1163.27,-79 1238.73,-79 1238.73,-59 1163.27,-59"/>
<text text-anchor="middle" x="1201" y="-65" font-family="Helvetica,sans-Serif" font-size="10.00">RMF/config.h</text>
</a>
</g>
</g>
<!-- Node1&#45;&gt;Node2 -->
<g id="edge1" class="edge"><title>Node1&#45;&gt;Node2</title>
<path fill="none" stroke="midnightblue" d="M1079.41,-232.958C1111.96,-218.449 1171.17,-186.572 1196,-138 1203.65,-123.03 1204.35,-103.74 1203.46,-89.5309"/>
<polygon fill="midnightblue" stroke="midnightblue" points="1206.93,-89.0316 1202.5,-79.4048 1199.96,-89.6895 1206.93,-89.0316"/>
</g>
<!-- Node4 -->
<g id="node4" class="node"><title>Node4</title>
<g id="a_node4"><a xlink:href="infrastructure__macros_8h.html" target="_top" xlink:title="Various general useful macros for IMP. ">
<polygon fill="none" stroke="black" points="334.48,-117 334.48,-137 455.52,-137 455.52,-117 334.48,-117"/>
<text text-anchor="middle" x="395" y="-123" font-family="Helvetica,sans-Serif" font-size="10.00">infrastructure_macros.h</text>
</a>
</g>
</g>
<!-- Node1&#45;&gt;Node4 -->
<g id="edge3" class="edge"><title>Node1&#45;&gt;Node4</title>
<path fill="none" stroke="midnightblue" d="M1015.62,-236.24C957.046,-227.974 846.661,-211.976 753,-196 645.116,-177.598 519.561,-153.015 449.481,-139.008"/>
<polygon fill="midnightblue" stroke="midnightblue" points="450.045,-135.551 439.552,-137.02 448.671,-142.415 450.045,-135.551"/>
</g>
<!-- Node13 -->
<g id="node13" class="node"><title>Node13</title>
<g id="a_node13"><a xlink:href="exceptions_8h.html" target="_top" xlink:title="Declarations of the various exception types. ">
<polygon fill="none" stroke="black" points="1020.93,-117 1020.93,-137 1093.07,-137 1093.07,-117 1020.93,-117"/>
<text text-anchor="middle" x="1057" y="-123" font-family="Helvetica,sans-Serif" font-size="10.00">exceptions.h</text>
</a>
</g>
</g>
<!-- Node1&#45;&gt;Node13 -->
<g id="edge13" class="edge"><title>Node1&#45;&gt;Node13</title>
<path fill="none" stroke="midnightblue" d="M1057,-232.671C1057,-214.041 1057,-171.898 1057,-147.143"/>
<polygon fill="midnightblue" stroke="midnightblue" points="1060.5,-147.139 1057,-137.139 1053.5,-147.139 1060.5,-147.139"/>
</g>
<!-- Node17 -->
<g id="node17" class="node"><title>Node17</title>
<g id="a_node17"><a xlink:href="BufferConstHandle_8h.html" target="_top" xlink:title="Declare RMF::BufferConstHandle. ">
<polygon fill="none" stroke="black" points="761.672,-175 761.672,-195 870.328,-195 870.328,-175 761.672,-175"/>
<text text-anchor="middle" x="816" y="-181" font-family="Helvetica,sans-Serif" font-size="10.00">BufferConstHandle.h</text>
</a>
</g>
</g>
<!-- Node1&#45;&gt;Node17 -->
<g id="edge20" class="edge"><title>Node1&#45;&gt;Node17</title>
<path fill="none" stroke="midnightblue" d="M1018.01,-232.94C976.273,-223.242 909.973,-207.836 864.8,-197.339"/>
<polygon fill="midnightblue" stroke="midnightblue" points="865.465,-193.901 854.933,-195.047 863.881,-200.719 865.465,-193.901"/>
</g>
<!-- Node21 -->
<g id="node21" class="node"><title>Node21</title>
<polygon fill="none" stroke="#bfbfbf" points="1148.61,-117 1148.61,-137 1187.39,-137 1187.39,-117 1148.61,-117"/>
<text text-anchor="middle" x="1168" y="-123" font-family="Helvetica,sans-Serif" font-size="10.00">limits</text>
</g>
<!-- Node1&#45;&gt;Node21 -->
<g id="edge31" class="edge"><title>Node1&#45;&gt;Node21</title>
<path fill="none" stroke="midnightblue" d="M1066.08,-232.671C1084.88,-213.369 1128.24,-168.83 1151.9,-144.536"/>
<polygon fill="midnightblue" stroke="midnightblue" points="1154.63,-146.746 1159.1,-137.139 1149.62,-141.862 1154.63,-146.746"/>
</g>
<!-- Node3 -->
<g id="node3" class="node"><title>Node3</title>
<g id="a_node3"><a xlink:href="compiler__macros_8h.html" target="_top" xlink:title="Various compiler workarounds. ">
<polygon fill="none" stroke="black" points="698.544,-1 698.544,-21 823.456,-21 823.456,-1 698.544,-1"/>
<text text-anchor="middle" x="761" y="-7" font-family="Helvetica,sans-Serif" font-size="10.00">RMF/compiler_macros.h</text>
</a>
</g>
</g>
<!-- Node2&#45;&gt;Node3 -->
<g id="edge2" class="edge"><title>Node2&#45;&gt;Node3</title>
<path fill="none" stroke="midnightblue" d="M1163.09,-59.618C1160.02,-59.0358 1156.96,-58.4876 1154,-58 1042.91,-39.721 912.985,-25.993 833.873,-18.4807"/>
<polygon fill="midnightblue" stroke="midnightblue" points="833.815,-14.9598 823.531,-17.5066 833.159,-21.929 833.815,-14.9598"/>
</g>
<!-- Node4&#45;&gt;Node3 -->
<g id="edge7" class="edge"><title>Node4&#45;&gt;Node3</title>
<path fill="none" stroke="midnightblue" d="M434.643,-116.959C466.698,-109.024 512.642,-96.2254 551,-80 569.329,-72.247 571.58,-65.5329 590,-58 627.424,-42.6956 671.527,-30.9754 705.57,-23.1961"/>
<polygon fill="midnightblue" stroke="midnightblue" points="706.348,-26.6087 715.341,-21.0078 704.818,-19.7779 706.348,-26.6087"/>
</g>
<!-- Node5 -->
<g id="node5" class="node"><title>Node5</title>
<polygon fill="none" stroke="#bfbfbf" points="599.219,-59 599.219,-79 650.781,-79 650.781,-59 599.219,-59"/>
<text text-anchor="middle" x="625" y="-65" font-family="Helvetica,sans-Serif" font-size="10.00">sstream</text>
</g>
<!-- Node4&#45;&gt;Node5 -->
<g id="edge4" class="edge"><title>Node4&#45;&gt;Node5</title>
<path fill="none" stroke="midnightblue" d="M432.872,-116.919C471.234,-107.699 532.27,-92.9741 585,-80 586.434,-79.6473 587.896,-79.2864 589.373,-78.9212"/>
<polygon fill="midnightblue" stroke="midnightblue" points="590.325,-82.2911 599.186,-76.4834 588.637,-75.4975 590.325,-82.2911"/>
</g>
<!-- Node6 -->
<g id="node6" class="node"><title>Node6</title>
<polygon fill="none" stroke="#bfbfbf" points="225.828,-59 225.828,-79 280.172,-79 280.172,-59 225.828,-59"/>
<text text-anchor="middle" x="253" y="-65" font-family="Helvetica,sans-Serif" font-size="10.00">iostream</text>
</g>
<!-- Node4&#45;&gt;Node6 -->
<g id="edge5" class="edge"><title>Node4&#45;&gt;Node6</title>
<path fill="none" stroke="midnightblue" d="M371.869,-116.878C348.455,-107.644 312.039,-93.283 285.682,-82.8887"/>
<polygon fill="midnightblue" stroke="midnightblue" points="286.708,-79.5309 276.121,-79.1181 284.14,-86.0428 286.708,-79.5309"/>
</g>
<!-- Node7 -->
<g id="node7" class="node"><title>Node7</title>
<polygon fill="none" stroke="#bfbfbf" points="668.773,-59 668.773,-79 709.227,-79 709.227,-59 668.773,-59"/>
<text text-anchor="middle" x="689" y="-65" font-family="Helvetica,sans-Serif" font-size="10.00">string</text>
</g>
<!-- Node4&#45;&gt;Node7 -->
<g id="edge6" class="edge"><title>Node4&#45;&gt;Node7</title>
<path fill="none" stroke="midnightblue" d="M452.831,-116.959C514.12,-107.205 607.867,-91.758 658.612,-79.7292"/>
<polygon fill="midnightblue" stroke="midnightblue" points="659.595,-83.0917 668.463,-77.2948 657.915,-76.2962 659.595,-83.0917"/>
</g>
<!-- Node8 -->
<g id="node8" class="node"><title>Node8</title>
<polygon fill="none" stroke="#bfbfbf" points="297.98,-59 297.98,-79 374.02,-79 374.02,-59 297.98,-59"/>
<text text-anchor="middle" x="336" y="-65" font-family="Helvetica,sans-Serif" font-size="10.00">internal/use.h</text>
</g>
<!-- Node4&#45;&gt;Node8 -->
<g id="edge8" class="edge"><title>Node4&#45;&gt;Node8</title>
<path fill="none" stroke="midnightblue" d="M385.257,-116.753C376.494,-108.435 363.425,-96.031 352.951,-86.0893"/>
<polygon fill="midnightblue" stroke="midnightblue" points="355.224,-83.4209 345.561,-79.0752 350.405,-88.4981 355.224,-83.4209"/>
</g>
<!-- Node9 -->
<g id="node9" class="node"><title>Node9</title>
<polygon fill="none" stroke="#bfbfbf" points="392.384,-59 392.384,-79 435.616,-79 435.616,-59 392.384,-59"/>
<text text-anchor="middle" x="414" y="-65" font-family="Helvetica,sans-Serif" font-size="10.00">vector</text>
</g>
<!-- Node4&#45;&gt;Node9 -->
<g id="edge9" class="edge"><title>Node4&#45;&gt;Node9</title>
<path fill="none" stroke="midnightblue" d="M398.137,-116.753C400.711,-109.169 404.436,-98.1881 407.63,-88.7739"/>
<polygon fill="midnightblue" stroke="midnightblue" points="411.022,-89.6695 410.921,-79.0752 404.393,-87.4204 411.022,-89.6695"/>
</g>
<!-- Node10 -->
<g id="node10" class="node"><title>Node10</title>
<polygon fill="none" stroke="#bfbfbf" points="453.306,-59 453.306,-79 542.694,-79 542.694,-59 453.306,-59"/>
<text text-anchor="middle" x="498" y="-65" font-family="Helvetica,sans-Serif" font-size="10.00">boost/config.hpp</text>
</g>
<!-- Node4&#45;&gt;Node10 -->
<g id="edge10" class="edge"><title>Node4&#45;&gt;Node10</title>
<path fill="none" stroke="midnightblue" d="M412.008,-116.753C428.432,-107.823 453.517,-94.1848 472.363,-83.9388"/>
<polygon fill="midnightblue" stroke="midnightblue" points="474.194,-86.9267 481.308,-79.0752 470.851,-80.7769 474.194,-86.9267"/>
</g>
<!-- Node11 -->
<g id="node11" class="node"><title>Node11</title>
<polygon fill="none" stroke="#bfbfbf" points="-0.470215,-59 -0.470215,-79 94.4702,-79 94.4702,-59 -0.470215,-59"/>
<text text-anchor="middle" x="47" y="-65" font-family="Helvetica,sans-Serif" font-size="10.00">boost/version.hpp</text>
</g>
<!-- Node4&#45;&gt;Node11 -->
<g id="edge11" class="edge"><title>Node4&#45;&gt;Node11</title>
<path fill="none" stroke="midnightblue" d="M335.383,-116.973C278.521,-108.281 190.198,-94.5652 104.538,-80.236"/>
<polygon fill="midnightblue" stroke="midnightblue" points="105.089,-76.7797 94.6474,-78.5768 103.93,-83.6832 105.089,-76.7797"/>
</g>
<!-- Node12 -->
<g id="node12" class="node"><title>Node12</title>
<polygon fill="none" stroke="#bfbfbf" points="111.971,-59 111.971,-79 208.029,-79 208.029,-59 111.971,-59"/>
<text text-anchor="middle" x="160" y="-65" font-family="Helvetica,sans-Serif" font-size="10.00">boost/foreach.hpp</text>
</g>
<!-- Node4&#45;&gt;Node12 -->
<g id="edge12" class="edge"><title>Node4&#45;&gt;Node12</title>
<path fill="none" stroke="midnightblue" d="M356.982,-116.94C316.368,-107.262 251.905,-91.9007 207.863,-81.4056"/>
<polygon fill="midnightblue" stroke="midnightblue" points="208.502,-77.9601 197.963,-79.0466 206.88,-84.7694 208.502,-77.9601"/>
</g>
<!-- Node13&#45;&gt;Node2 -->
<g id="edge17" class="edge"><title>Node13&#45;&gt;Node2</title>
<path fill="none" stroke="midnightblue" d="M1080.46,-116.878C1104.31,-107.603 1141.45,-93.1564 1168.21,-82.7515"/>
<polygon fill="midnightblue" stroke="midnightblue" points="1169.5,-86.0046 1177.55,-79.1181 1166.96,-79.4806 1169.5,-86.0046"/>
</g>
<!-- Node13&#45;&gt;Node3 -->
<g id="edge18" class="edge"><title>Node13&#45;&gt;Node3</title>
<path fill="none" stroke="midnightblue" d="M1020.88,-117.936C1017.55,-117.255 1014.21,-116.599 1011,-116 959.927,-106.478 818.836,-114.509 780,-80 766.286,-67.8137 762.113,-46.6331 761.013,-31.1408"/>
<polygon fill="midnightblue" stroke="midnightblue" points="764.508,-30.9474 760.662,-21.0754 757.512,-31.1912 764.508,-30.9474"/>
</g>
<!-- Node13&#45;&gt;Node7 -->
<g id="edge16" class="edge"><title>Node13&#45;&gt;Node7</title>
<path fill="none" stroke="midnightblue" d="M1020.89,-117.87C1017.56,-117.203 1014.22,-116.569 1011,-116 894.385,-95.4062 864.034,-98.0629 747,-80 738,-78.6109 728.236,-76.977 719.332,-75.4371"/>
<polygon fill="midnightblue" stroke="midnightblue" points="719.825,-71.9702 709.371,-73.6928 718.618,-78.8653 719.825,-71.9702"/>
</g>
<!-- Node14 -->
<g id="node14" class="node"><title>Node14</title>
<polygon fill="none" stroke="#bfbfbf" points="994.451,-59 994.451,-79 1145.55,-79 1145.55,-59 994.451,-59"/>
<text text-anchor="middle" x="1070" y="-65" font-family="Helvetica,sans-Serif" font-size="10.00">boost/exception/exception.hpp</text>
</g>
<!-- Node13&#45;&gt;Node14 -->
<g id="edge14" class="edge"><title>Node13&#45;&gt;Node14</title>
<path fill="none" stroke="midnightblue" d="M1059.15,-116.753C1060.89,-109.25 1063.4,-98.4238 1065.57,-89.0781"/>
<polygon fill="midnightblue" stroke="midnightblue" points="1069.04,-89.6076 1067.89,-79.0752 1062.22,-88.0247 1069.04,-89.6076"/>
</g>
<!-- Node15 -->
<g id="node15" class="node"><title>Node15</title>
<polygon fill="none" stroke="#bfbfbf" points="788.596,-59 788.596,-79 847.404,-79 847.404,-59 788.596,-59"/>
<text text-anchor="middle" x="818" y="-65" font-family="Helvetica,sans-Serif" font-size="10.00">exception</text>
</g>
<!-- Node13&#45;&gt;Node15 -->
<g id="edge15" class="edge"><title>Node13&#45;&gt;Node15</title>
<path fill="none" stroke="midnightblue" d="M1020.81,-117.96C982.732,-109.44 920.816,-95.4075 857.895,-80.1747"/>
<polygon fill="midnightblue" stroke="midnightblue" points="858.335,-76.6798 847.791,-77.7202 856.683,-83.482 858.335,-76.6798"/>
</g>
<!-- Node16 -->
<g id="node16" class="node"><title>Node16</title>
<polygon fill="none" stroke="#bfbfbf" points="865.766,-59 865.766,-79 976.234,-79 976.234,-59 865.766,-59"/>
<text text-anchor="middle" x="921" y="-65" font-family="Helvetica,sans-Serif" font-size="10.00">RMF/internal/errors.h</text>
</g>
<!-- Node13&#45;&gt;Node16 -->
<g id="edge19" class="edge"><title>Node13&#45;&gt;Node16</title>
<path fill="none" stroke="midnightblue" d="M1034.85,-116.878C1012.52,-107.685 977.852,-93.4095 952.635,-83.0263"/>
<polygon fill="midnightblue" stroke="midnightblue" points="953.723,-79.6893 943.144,-79.1181 951.058,-86.162 953.723,-79.6893"/>
</g>
<!-- Node17&#45;&gt;Node2 -->
<g id="edge21" class="edge"><title>Node17&#45;&gt;Node2</title>
<path fill="none" stroke="midnightblue" d="M870.594,-182.32C929.589,-178.903 1025.43,-168.643 1102,-138 1118.55,-131.376 1157.16,-103.261 1180.98,-85.321"/>
<polygon fill="midnightblue" stroke="midnightblue" points="1183.16,-88.06 1189.02,-79.2305 1178.93,-82.481 1183.16,-88.06"/>
</g>
<!-- Node17&#45;&gt;Node4 -->
<g id="edge22" class="edge"><title>Node17&#45;&gt;Node4</title>
<path fill="none" stroke="midnightblue" d="M761.396,-177.105C694.198,-168.565 576.326,-153.412 465.581,-138.205"/>
<polygon fill="midnightblue" stroke="midnightblue" points="465.959,-134.724 455.575,-136.828 465.005,-141.659 465.959,-134.724"/>
</g>
<!-- Node17&#45;&gt;Node5 -->
<g id="edge25" class="edge"><title>Node17&#45;&gt;Node5</title>
<path fill="none" stroke="midnightblue" d="M761.483,-175.374C732.752,-168.77 698.149,-157.372 672,-138 654.595,-125.106 641.375,-103.778 633.456,-88.4434"/>
<polygon fill="midnightblue" stroke="midnightblue" points="636.563,-86.8284 629.027,-79.3809 630.274,-89.9022 636.563,-86.8284"/>
</g>
<!-- Node17&#45;&gt;Node7 -->
<g id="edge26" class="edge"><title>Node17&#45;&gt;Node7</title>
<path fill="none" stroke="midnightblue" d="M761.362,-179.973C732.751,-174.76 700.009,-163.222 682,-138 671.9,-123.855 675.647,-103.639 680.703,-88.9279"/>
<polygon fill="midnightblue" stroke="midnightblue" points="684.064,-89.9426 684.437,-79.3543 677.543,-87.3991 684.064,-89.9426"/>
</g>
<!-- Node17&#45;&gt;Node13 -->
<g id="edge23" class="edge"><title>Node17&#45;&gt;Node13</title>
<path fill="none" stroke="midnightblue" d="M854.989,-174.94C897.594,-165.04 965.792,-149.194 1010.99,-138.692"/>
<polygon fill="midnightblue" stroke="midnightblue" points="1011.88,-142.078 1020.83,-136.406 1010.29,-135.26 1011.88,-142.078"/>
</g>
<!-- Node18 -->
<g id="node18" class="node"><title>Node18</title>
<polygon fill="none" stroke="#bfbfbf" points="756.853,-117 756.853,-137 875.147,-137 875.147,-117 756.853,-117"/>
<text text-anchor="middle" x="816" y="-123" font-family="Helvetica,sans-Serif" font-size="10.00">boost/exception/all.hpp</text>
</g>
<!-- Node17&#45;&gt;Node18 -->
<g id="edge24" class="edge"><title>Node17&#45;&gt;Node18</title>
<path fill="none" stroke="midnightblue" d="M816,-174.753C816,-167.25 816,-156.424 816,-147.078"/>
<polygon fill="midnightblue" stroke="midnightblue" points="819.5,-147.075 816,-137.075 812.5,-147.075 819.5,-147.075"/>
</g>
<!-- Node19 -->
<g id="node19" class="node"><title>Node19</title>
<polygon fill="none" stroke="#bfbfbf" points="893.018,-117 893.018,-137 1002.98,-137 1002.98,-117 893.018,-117"/>
<text text-anchor="middle" x="948" y="-123" font-family="Helvetica,sans-Serif" font-size="10.00">boost/shared_ptr.hpp</text>
</g>
<!-- Node17&#45;&gt;Node19 -->
<g id="edge27" class="edge"><title>Node17&#45;&gt;Node19</title>
<path fill="none" stroke="midnightblue" d="M837.502,-174.878C859.172,-165.685 892.821,-151.409 917.295,-141.026"/>
<polygon fill="midnightblue" stroke="midnightblue" points="918.668,-144.246 926.507,-137.118 915.935,-137.802 918.668,-144.246"/>
</g>
<!-- Node20 -->
<g id="node20" class="node"><title>Node20</title>
<polygon fill="none" stroke="#bfbfbf" points="473.353,-117 473.353,-137 596.647,-137 596.647,-117 473.353,-117"/>
<text text-anchor="middle" x="535" y="-123" font-family="Helvetica,sans-Serif" font-size="10.00">boost/make_shared.hpp</text>
</g>
<!-- Node17&#45;&gt;Node20 -->
<g id="edge28" class="edge"><title>Node17&#45;&gt;Node20</title>
<path fill="none" stroke="midnightblue" d="M770.54,-174.94C721.363,-165.14 642.943,-149.512 590.248,-139.01"/>
<polygon fill="midnightblue" stroke="midnightblue" points="590.886,-135.569 580.394,-137.047 589.518,-142.434 590.886,-135.569"/>
</g>
<!-- Node17&#45;&gt;Node21 -->
<g id="edge29" class="edge"><title>Node17&#45;&gt;Node21</title>
<path fill="none" stroke="midnightblue" d="M870.353,-178.691C934.207,-171.874 1043.1,-158.428 1135,-138 1136.25,-137.722 1137.52,-137.421 1138.8,-137.103"/>
<polygon fill="midnightblue" stroke="midnightblue" points="1139.87,-140.439 1148.59,-134.415 1138.02,-133.689 1139.87,-140.439"/>
</g>
<!-- Node22 -->
<g id="node22" class="node"><title>Node22</title>
<polygon fill="none" stroke="#bfbfbf" points="690.879,-117 690.879,-137 739.121,-137 739.121,-117 690.879,-117"/>
<text text-anchor="middle" x="715" y="-123" font-family="Helvetica,sans-Serif" font-size="10.00">stdint.h</text>
</g>
<!-- Node17&#45;&gt;Node22 -->
<g id="edge30" class="edge"><title>Node17&#45;&gt;Node22</title>
<path fill="none" stroke="midnightblue" d="M799.322,-174.753C783.217,-165.823 758.619,-152.185 740.14,-141.939"/>
<polygon fill="midnightblue" stroke="midnightblue" points="741.811,-138.863 731.368,-137.075 738.416,-144.985 741.811,-138.863"/>
</g>
</g>
</svg>
