<?xml version="1.0" encoding="UTF-8" standalone="no"?>
<!DOCTYPE svg PUBLIC "-//W3C//DTD SVG 1.1//EN"
 "http://www.w3.org/Graphics/SVG/1.1/DTD/svg11.dtd">
<!-- Generated by graphviz version 2.34.0 (20131025.1349)
 -->
<!-- Title: RMF::decorator::ScoreFactory::get_is Pages: 1 -->
<svg width="320pt" height="91pt"
 viewBox="0.00 0.00 320.00 91.00" xmlns="http://www.w3.org/2000/svg" xmlns:xlink="http://www.w3.org/1999/xlink">
<g id="graph0" class="graph" transform="scale(1 1) rotate(0) translate(4 87)">
<title>RMF::decorator::ScoreFactory::get_is</title>
<!-- Node1 -->
<g id="node1" class="node"><title>Node1</title>
<polygon fill="#bfbfbf" stroke="black" points="-0.241211,-25 -0.241211,-57 150.241,-57 150.241,-25 -0.241211,-25"/>
<text text-anchor="start" x="7.75879" y="-43" font-family="Helvetica,sans-Serif" font-size="10.00">RMF::decorator::ScoreFactory</text>
<text text-anchor="middle" x="75" y="-31" font-family="Helvetica,sans-Serif" font-size="10.00">::get_is</text>
</g>
<!-- Node2 -->
<g id="node2" class="node"><title>Node2</title>
<g id="a_node2"><a xlink:href="classRMF_1_1NodeConstHandle.html#a21e664736cab122b6151b95ef3f39dfc" target="_top" xlink:title="get the type of this node ">
<polygon fill="none" stroke="black" points="186.532,-51 186.532,-83 311.468,-83 311.468,-51 186.532,-51"/>
<text text-anchor="start" x="194.532" y="-69" font-family="Helvetica,sans-Serif" font-size="10.00">RMF::NodeConstHandle</text>
<text text-anchor="middle" x="249" y="-57" font-family="Helvetica,sans-Serif" font-size="10.00">::get_type</text>
</a>
</g>
</g>
<!-- Node1&#45;&gt;Node2 -->
<g id="edge1" class="edge"><title>Node1&#45;&gt;Node2</title>
<path fill="none" stroke="midnightblue" d="M150.441,-52.2528C159.055,-53.5548 167.826,-54.8807 176.401,-56.1769"/>
<polygon fill="midnightblue" stroke="midnightblue" points="175.945,-59.6476 186.356,-57.6817 176.991,-52.7263 175.945,-59.6476"/>
</g>
<!-- Node3 -->
<g id="node3" class="node"><title>Node3</title>
<g id="a_node3"><a xlink:href="classRMF_1_1NodeConstHandle.html#a6c5fe436d4565f3604d08362cd3951b0" target="_top" xlink:title="get the value of the attribute k from this node or null if it \ * doesn&#39;t have a value. \ ">
<polygon fill="none" stroke="black" points="186.532,-0 186.532,-32 311.468,-32 311.468,-0 186.532,-0"/>
<text text-anchor="start" x="194.532" y="-18" font-family="Helvetica,sans-Serif" font-size="10.00">RMF::NodeConstHandle</text>
<text text-anchor="middle" x="249" y="-6" font-family="Helvetica,sans-Serif" font-size="10.00">::get_value</text>
</a>
</g>
</g>
<!-- Node1&#45;&gt;Node3 -->
<g id="edge2" class="edge"><title>Node1&#45;&gt;Node3</title>
<path fill="none" stroke="midnightblue" d="M150.441,-30.18C159.055,-28.928 167.826,-27.6531 176.401,-26.4068"/>
<polygon fill="midnightblue" stroke="midnightblue" points="176.963,-29.862 186.356,-24.9599 175.956,-22.9348 176.963,-29.862"/>
</g>
</g>
</svg>
