<?xml version="1.0" encoding="UTF-8" standalone="no"?>
<!DOCTYPE svg PUBLIC "-//W3C//DTD SVG 1.1//EN"
 "http://www.w3.org/Graphics/SVG/1.1/DTD/svg11.dtd">
<!-- Generated by graphviz version 2.34.0 (20131025.1349)
 -->
<!-- Title: RMF::decorator::BallFactory::get_is Pages: 1 -->
<svg width="312pt" height="91pt"
 viewBox="0.00 0.00 312.00 91.00" xmlns="http://www.w3.org/2000/svg" xmlns:xlink="http://www.w3.org/1999/xlink">
<g id="graph0" class="graph" transform="scale(1 1) rotate(0) translate(4 87)">
<title>RMF::decorator::BallFactory::get_is</title>
<!-- Node1 -->
<g id="node1" class="node"><title>Node1</title>
<polygon fill="#bfbfbf" stroke="black" points="0.48291,-25 0.48291,-57 141.517,-57 141.517,-25 0.48291,-25"/>
<text text-anchor="start" x="8.48291" y="-43" font-family="Helvetica,sans-Serif" font-size="10.00">RMF::decorator::BallFactory</text>
<text text-anchor="middle" x="71" y="-31" font-family="Helvetica,sans-Serif" font-size="10.00">::get_is</text>
</g>
<!-- Node2 -->
<g id="node2" class="node"><title>Node2</title>
<g id="a_node2"><a xlink:href="classRMF_1_1NodeConstHandle.html#a21e664736cab122b6151b95ef3f39dfc" target="_top" xlink:title="get the type of this node ">
<polygon fill="none" stroke="black" points="178.532,-51 178.532,-83 303.468,-83 303.468,-51 178.532,-51"/>
<text text-anchor="start" x="186.532" y="-69" font-family="Helvetica,sans-Serif" font-size="10.00">RMF::NodeConstHandle</text>
<text text-anchor="middle" x="241" y="-57" font-family="Helvetica,sans-Serif" font-size="10.00">::get_type</text>
</a>
</g>
</g>
<!-- Node1&#45;&gt;Node2 -->
<g id="edge1" class="edge"><title>Node1&#45;&gt;Node2</title>
<path fill="none" stroke="midnightblue" d="M141.788,-51.8005C150.63,-53.169 159.689,-54.571 168.557,-55.9434"/>
<polygon fill="midnightblue" stroke="midnightblue" points="168.049,-59.4063 178.467,-57.477 169.12,-52.4887 168.049,-59.4063"/>
</g>
<!-- Node3 -->
<g id="node3" class="node"><title>Node3</title>
<g id="a_node3"><a xlink:href="classRMF_1_1NodeConstHandle.html#a6c5fe436d4565f3604d08362cd3951b0" target="_top" xlink:title="get the value of the attribute k from this node or null if it \ * doesn&#39;t have a value. \ ">
<polygon fill="none" stroke="black" points="178.532,-0 178.532,-32 303.468,-32 303.468,-0 178.532,-0"/>
<text text-anchor="start" x="186.532" y="-18" font-family="Helvetica,sans-Serif" font-size="10.00">RMF::NodeConstHandle</text>
<text text-anchor="middle" x="241" y="-6" font-family="Helvetica,sans-Serif" font-size="10.00">::get_value</text>
</a>
</g>
</g>
<!-- Node1&#45;&gt;Node3 -->
<g id="edge2" class="edge"><title>Node1&#45;&gt;Node3</title>
<path fill="none" stroke="midnightblue" d="M141.788,-30.6149C150.63,-29.2991 159.689,-27.951 168.557,-26.6314"/>
<polygon fill="midnightblue" stroke="midnightblue" points="169.091,-30.0906 178.467,-25.1567 168.06,-23.1668 169.091,-30.0906"/>
</g>
</g>
</svg>
