<?xml version="1.0" encoding="UTF-8" standalone="no"?>
<!DOCTYPE svg PUBLIC "-//W3C//DTD SVG 1.1//EN"
 "http://www.w3.org/Graphics/SVG/1.1/DTD/svg11.dtd">
<!-- Generated by graphviz version 2.34.0 (20131025.1349)
 -->
<!-- Title: RMF::decorator::ColoredFactory::get_is Pages: 1 -->
<svg width="330pt" height="91pt"
 viewBox="0.00 0.00 330.00 91.00" xmlns="http://www.w3.org/2000/svg" xmlns:xlink="http://www.w3.org/1999/xlink">
<g id="graph0" class="graph" transform="scale(1 1) rotate(0) translate(4 87)">
<title>RMF::decorator::ColoredFactory::get_is</title>
<!-- Node1 -->
<g id="node1" class="node"><title>Node1</title>
<polygon fill="#bfbfbf" stroke="black" points="0.310547,-25 0.310547,-57 159.689,-57 159.689,-25 0.310547,-25"/>
<text text-anchor="start" x="8.31055" y="-43" font-family="Helvetica,sans-Serif" font-size="10.00">RMF::decorator::ColoredFactory</text>
<text text-anchor="middle" x="80" y="-31" font-family="Helvetica,sans-Serif" font-size="10.00">::get_is</text>
</g>
<!-- Node2 -->
<g id="node2" class="node"><title>Node2</title>
<g id="a_node2"><a xlink:href="classRMF_1_1NodeConstHandle.html#a21e664736cab122b6151b95ef3f39dfc" target="_top" xlink:title="get the type of this node ">
<polygon fill="none" stroke="black" points="196.532,-51 196.532,-83 321.468,-83 321.468,-51 196.532,-51"/>
<text text-anchor="start" x="204.532" y="-69" font-family="Helvetica,sans-Serif" font-size="10.00">RMF::NodeConstHandle</text>
<text text-anchor="middle" x="259" y="-57" font-family="Helvetica,sans-Serif" font-size="10.00">::get_type</text>
</a>
</g>
</g>
<!-- Node1&#45;&gt;Node2 -->
<g id="edge1" class="edge"><title>Node1&#45;&gt;Node2</title>
<path fill="none" stroke="midnightblue" d="M159.923,-52.5933C168.736,-53.8878 177.677,-55.2011 186.391,-56.4811"/>
<polygon fill="midnightblue" stroke="midnightblue" points="186.092,-59.9747 196.494,-57.9653 187.109,-53.049 186.092,-59.9747"/>
</g>
<!-- Node3 -->
<g id="node3" class="node"><title>Node3</title>
<g id="a_node3"><a xlink:href="classRMF_1_1NodeConstHandle.html#a6c5fe436d4565f3604d08362cd3951b0" target="_top" xlink:title="get the value of the attribute k from this node or null if it \ * doesn&#39;t have a value. \ ">
<polygon fill="none" stroke="black" points="196.532,-0 196.532,-32 321.468,-32 321.468,-0 196.532,-0"/>
<text text-anchor="start" x="204.532" y="-18" font-family="Helvetica,sans-Serif" font-size="10.00">RMF::NodeConstHandle</text>
<text text-anchor="middle" x="259" y="-6" font-family="Helvetica,sans-Serif" font-size="10.00">::get_value</text>
</a>
</g>
</g>
<!-- Node1&#45;&gt;Node3 -->
<g id="edge2" class="edge"><title>Node1&#45;&gt;Node3</title>
<path fill="none" stroke="midnightblue" d="M159.923,-29.8526C168.736,-28.6079 177.677,-27.3451 186.391,-26.1143"/>
<polygon fill="midnightblue" stroke="midnightblue" points="187.082,-29.5515 196.494,-24.6873 186.103,-22.6203 187.082,-29.5515"/>
</g>
</g>
</svg>
