<?xml version="1.0" encoding="UTF-8" standalone="no"?>
<!DOCTYPE svg PUBLIC "-//W3C//DTD SVG 1.1//EN"
 "http://www.w3.org/Graphics/SVG/1.1/DTD/svg11.dtd">
<!-- Generated by graphviz version 2.34.0 (20131025.1349)
 -->
<!-- Title: RMF::decorator::State Pages: 1 -->
<svg width="148pt" height="146pt"
 viewBox="0.00 0.00 148.00 146.00" xmlns="http://www.w3.org/2000/svg" xmlns:xlink="http://www.w3.org/1999/xlink">
<g id="graph0" class="graph" transform="scale(1 1) rotate(0) translate(4 142)">
<title>RMF::decorator::State</title>
<!-- Node1 -->
<g id="node1" class="node"><title>Node1</title>
<polygon fill="#bfbfbf" stroke="black" points="12.8154,-1 12.8154,-21 127.185,-21 127.185,-1 12.8154,-1"/>
<text text-anchor="middle" x="70" y="-7" font-family="Helvetica,sans-Serif" font-size="10.00">RMF::decorator::State</text>
</g>
<!-- Node2 -->
<g id="node2" class="node"><title>Node2</title>
<g id="a_node2"><a xlink:href="classRMF_1_1decorator_1_1StateConst.html" target="_top" xlink:title="RMF::decorator::StateConst">
<polygon fill="none" stroke="black" points="-0.246094,-59 -0.246094,-79 140.246,-79 140.246,-59 -0.246094,-59"/>
<text text-anchor="middle" x="70" y="-65" font-family="Helvetica,sans-Serif" font-size="10.00">RMF::decorator::StateConst</text>
</a>
</g>
</g>
<!-- Node2&#45;&gt;Node1 -->
<g id="edge1" class="edge"><title>Node2&#45;&gt;Node1</title>
<path fill="none" stroke="midnightblue" d="M70,-48.7065C70,-39.3384 70,-28.5262 70,-21.0752"/>
<polygon fill="midnightblue" stroke="midnightblue" points="66.5001,-48.7527 70,-58.7527 73.5001,-48.7528 66.5001,-48.7527"/>
</g>
<!-- Node3 -->
<g id="node3" class="node"><title>Node3</title>
<g id="a_node3"><a xlink:href="classRMF_1_1Decorator.html" target="_top" xlink:title="RMF::Decorator">
<polygon fill="none" stroke="black" points="26.4385,-117 26.4385,-137 113.562,-137 113.562,-117 26.4385,-117"/>
<text text-anchor="middle" x="70" y="-123" font-family="Helvetica,sans-Serif" font-size="10.00">RMF::Decorator</text>
</a>
</g>
</g>
<!-- Node3&#45;&gt;Node2 -->
<g id="edge2" class="edge"><title>Node3&#45;&gt;Node2</title>
<path fill="none" stroke="midnightblue" d="M70,-106.707C70,-97.3384 70,-86.5262 70,-79.0752"/>
<polygon fill="midnightblue" stroke="midnightblue" points="66.5001,-106.753 70,-116.753 73.5001,-106.753 66.5001,-106.753"/>
</g>
</g>
</svg>
