<?xml version="1.0" encoding="UTF-8" standalone="no"?>
<!DOCTYPE svg PUBLIC "-//W3C//DTD SVG 1.1//EN"
 "http://www.w3.org/Graphics/SVG/1.1/DTD/svg11.dtd">
<!-- Generated by graphviz version 2.36.0 (20140111.2315)
 -->
<!-- Title: RMF::decorator::Residue Pages: 1 -->
<svg width="160pt" height="140pt"
 viewBox="0.00 0.00 160.00 140.00" xmlns="http://www.w3.org/2000/svg" xmlns:xlink="http://www.w3.org/1999/xlink">
<g id="graph0" class="graph" transform="scale(1 1) rotate(0) translate(4 136)">
<title>RMF::decorator::Residue</title>
<!-- Node1 -->
<g id="node1" class="node"><title>Node1</title>
<polygon fill="#bfbfbf" stroke="black" points="12.1455,-1 12.1455,-19 139.854,-19 139.854,-1 12.1455,-1"/>
<text text-anchor="middle" x="76" y="-7" font-family="Helvetica,sans-Serif" font-size="10.00">RMF::decorator::Residue</text>
</g>
<!-- Node2 -->
<g id="node2" class="node"><title>Node2</title>
<g id="a_node2"><a xlink:href="classRMF_1_1decorator_1_1ResidueConst.html" target="_top" xlink:title="RMF::decorator::ResidueConst">
<polygon fill="none" stroke="black" points="-0.916016,-57 -0.916016,-75 152.916,-75 152.916,-57 -0.916016,-57"/>
<text text-anchor="middle" x="76" y="-63" font-family="Helvetica,sans-Serif" font-size="10.00">RMF::decorator::ResidueConst</text>
</a>
</g>
</g>
<!-- Node2&#45;&gt;Node1 -->
<g id="edge1" class="edge"><title>Node2&#45;&gt;Node1</title>
<path fill="none" stroke="midnightblue" d="M76,-46.3288C76,-37.0774 76,-26.3798 76,-19.2014"/>
<polygon fill="midnightblue" stroke="midnightblue" points="72.5001,-46.5625 76,-56.5625 79.5001,-46.5625 72.5001,-46.5625"/>
</g>
<!-- Node3 -->
<g id="node3" class="node"><title>Node3</title>
<g id="a_node3"><a xlink:href="classRMF_1_1Decorator.html" target="_top" xlink:title="The base class for decorators. ">
<polygon fill="none" stroke="black" points="32.4385,-113 32.4385,-131 119.562,-131 119.562,-113 32.4385,-113"/>
<text text-anchor="middle" x="76" y="-119" font-family="Helvetica,sans-Serif" font-size="10.00">RMF::Decorator</text>
</a>
</g>
</g>
<!-- Node3&#45;&gt;Node2 -->
<g id="edge2" class="edge"><title>Node3&#45;&gt;Node2</title>
<path fill="none" stroke="midnightblue" d="M76,-102.329C76,-93.0774 76,-82.3798 76,-75.2014"/>
<polygon fill="midnightblue" stroke="midnightblue" points="72.5001,-102.562 76,-112.562 79.5001,-102.563 72.5001,-102.562"/>
</g>
</g>
</svg>
