<?xml version="1.0" encoding="UTF-8" standalone="no"?>
<!DOCTYPE svg PUBLIC "-//W3C//DTD SVG 1.1//EN"
 "http://www.w3.org/Graphics/SVG/1.1/DTD/svg11.dtd">
<!-- Generated by graphviz version 2.34.0 (20131025.1349)
 -->
<!-- Title: RMF::decorator::CylinderFactory::get_is Pages: 1 -->
<svg width="298pt" height="91pt"
 viewBox="0.00 0.00 298.00 91.00" xmlns="http://www.w3.org/2000/svg" xmlns:xlink="http://www.w3.org/1999/xlink">
<g id="graph0" class="graph" transform="scale(1 1) rotate(0) translate(4 87)">
<title>RMF::decorator::CylinderFactory::get_is</title>
<!-- Node1 -->
<g id="node1" class="node"><title>Node1</title>
<polygon fill="#bfbfbf" stroke="black" points="0.150391,-25 0.150391,-57 127.85,-57 127.85,-25 0.150391,-25"/>
<text text-anchor="start" x="8.15039" y="-43" font-family="Helvetica,sans-Serif" font-size="10.00">RMF::decorator::Cylinder</text>
<text text-anchor="middle" x="64" y="-31" font-family="Helvetica,sans-Serif" font-size="10.00">Factory::get_is</text>
</g>
<!-- Node2 -->
<g id="node2" class="node"><title>Node2</title>
<g id="a_node2"><a xlink:href="classRMF_1_1NodeConstHandle.html#a21e664736cab122b6151b95ef3f39dfc" target="_top" xlink:title="get the type of this node ">
<polygon fill="none" stroke="black" points="164.532,-51 164.532,-83 289.468,-83 289.468,-51 164.532,-51"/>
<text text-anchor="start" x="172.532" y="-69" font-family="Helvetica,sans-Serif" font-size="10.00">RMF::NodeConstHandle</text>
<text text-anchor="middle" x="227" y="-57" font-family="Helvetica,sans-Serif" font-size="10.00">::get_type</text>
</a>
</g>
</g>
<!-- Node1&#45;&gt;Node2 -->
<g id="edge1" class="edge"><title>Node1&#45;&gt;Node2</title>
<path fill="none" stroke="midnightblue" d="M128.169,-51.2013C136.717,-52.5817 145.539,-54.0063 154.224,-55.4088"/>
<polygon fill="midnightblue" stroke="midnightblue" points="153.901,-58.902 164.331,-57.0411 155.017,-51.9915 153.901,-58.902"/>
</g>
<!-- Node3 -->
<g id="node3" class="node"><title>Node3</title>
<g id="a_node3"><a xlink:href="classRMF_1_1NodeConstHandle.html#a6c5fe436d4565f3604d08362cd3951b0" target="_top" xlink:title="get the value of the attribute k from this node or null if it \ * doesn&#39;t have a value. \ ">
<polygon fill="none" stroke="black" points="164.532,-0 164.532,-32 289.468,-32 289.468,-0 164.532,-0"/>
<text text-anchor="start" x="172.532" y="-18" font-family="Helvetica,sans-Serif" font-size="10.00">RMF::NodeConstHandle</text>
<text text-anchor="middle" x="227" y="-6" font-family="Helvetica,sans-Serif" font-size="10.00">::get_value</text>
</a>
</g>
</g>
<!-- Node1&#45;&gt;Node3 -->
<g id="edge2" class="edge"><title>Node1&#45;&gt;Node3</title>
<path fill="none" stroke="midnightblue" d="M128.169,-31.1911C136.717,-29.8638 145.539,-28.4939 154.224,-27.1454"/>
<polygon fill="midnightblue" stroke="midnightblue" points="154.987,-30.5689 164.331,-25.5759 153.913,-23.6518 154.987,-30.5689"/>
</g>
</g>
</svg>
