<?xml version="1.0" encoding="UTF-8" standalone="no"?>
<!DOCTYPE svg PUBLIC "-//W3C//DTD SVG 1.1//EN"
 "http://www.w3.org/Graphics/SVG/1.1/DTD/svg11.dtd">
<!-- Generated by graphviz version 2.36.0 (20140111.2315)
 -->
<!-- Title: RMF::decorator::Segment Pages: 1 -->
<svg width="164pt" height="140pt"
 viewBox="0.00 0.00 164.00 140.00" xmlns="http://www.w3.org/2000/svg" xmlns:xlink="http://www.w3.org/1999/xlink">
<g id="graph0" class="graph" transform="scale(1 1) rotate(0) translate(4 136)">
<title>RMF::decorator::Segment</title>
<!-- Node1 -->
<g id="node1" class="node"><title>Node1</title>
<polygon fill="#bfbfbf" stroke="black" points="12.478,-1 12.478,-19 143.522,-19 143.522,-1 12.478,-1"/>
<text text-anchor="middle" x="78" y="-7" font-family="Helvetica,sans-Serif" font-size="10.00">RMF::decorator::Segment</text>
</g>
<!-- Node2 -->
<g id="node2" class="node"><title>Node2</title>
<g id="a_node2"><a xlink:href="classRMF_1_1decorator_1_1SegmentConst.html" target="_top" xlink:title="RMF::decorator::SegmentConst">
<polygon fill="none" stroke="black" points="-0.583496,-57 -0.583496,-75 156.583,-75 156.583,-57 -0.583496,-57"/>
<text text-anchor="middle" x="78" y="-63" font-family="Helvetica,sans-Serif" font-size="10.00">RMF::decorator::SegmentConst</text>
</a>
</g>
</g>
<!-- Node2&#45;&gt;Node1 -->
<g id="edge1" class="edge"><title>Node2&#45;&gt;Node1</title>
<path fill="none" stroke="midnightblue" d="M78,-46.3288C78,-37.0774 78,-26.3798 78,-19.2014"/>
<polygon fill="midnightblue" stroke="midnightblue" points="74.5001,-46.5625 78,-56.5625 81.5001,-46.5625 74.5001,-46.5625"/>
</g>
<!-- Node3 -->
<g id="node3" class="node"><title>Node3</title>
<g id="a_node3"><a xlink:href="classRMF_1_1Decorator.html" target="_top" xlink:title="The base class for decorators. ">
<polygon fill="none" stroke="black" points="34.4385,-113 34.4385,-131 121.562,-131 121.562,-113 34.4385,-113"/>
<text text-anchor="middle" x="78" y="-119" font-family="Helvetica,sans-Serif" font-size="10.00">RMF::Decorator</text>
</a>
</g>
</g>
<!-- Node3&#45;&gt;Node2 -->
<g id="edge2" class="edge"><title>Node3&#45;&gt;Node2</title>
<path fill="none" stroke="midnightblue" d="M78,-102.329C78,-93.0774 78,-82.3798 78,-75.2014"/>
<polygon fill="midnightblue" stroke="midnightblue" points="74.5001,-102.562 78,-112.562 81.5001,-102.563 74.5001,-102.562"/>
</g>
</g>
</svg>
