<?xml version="1.0" encoding="UTF-8" standalone="no"?>
<!DOCTYPE svg PUBLIC "-//W3C//DTD SVG 1.1//EN"
 "http://www.w3.org/Graphics/SVG/1.1/DTD/svg11.dtd">
<!-- Generated by graphviz version 2.34.0 (20131025.1349)
 -->
<!-- Title: RMF::ID&lt; TagT &gt; Pages: 1 -->
<svg width="410pt" height="437pt"
 viewBox="0.00 0.00 410.00 436.69" xmlns="http://www.w3.org/2000/svg" xmlns:xlink="http://www.w3.org/1999/xlink">
<g id="graph0" class="graph" transform="scale(1 1) rotate(0) translate(4 432.692)">
<title>RMF::ID&lt; TagT &gt;</title>
<!-- Node1 -->
<g id="node1" class="node"><title>Node1</title>
<polygon fill="#bfbfbf" stroke="black" points="-0.166504,-202.692 -0.166504,-222.692 92.1665,-222.692 92.1665,-202.692 -0.166504,-202.692"/>
<text text-anchor="middle" x="46" y="-208.692" font-family="Helvetica,sans-Serif" font-size="10.00">RMF::ID&lt; TagT &gt;</text>
</g>
<!-- Node2 -->
<g id="node2" class="node"><title>Node2</title>
<g id="a_node2"><a xlink:href="classRMF_1_1ID.html" target="_top" xlink:title="RMF::ID\&lt; RMF::StringsTraits \&gt;">
<polygon fill="none" stroke="black" points="244.287,-397.692 244.287,-417.692 397.713,-417.692 397.713,-397.692 244.287,-397.692"/>
<text text-anchor="middle" x="321" y="-403.692" font-family="Helvetica,sans-Serif" font-size="10.00">RMF::ID&lt; RMF::StringsTraits &gt;</text>
</a>
</g>
</g>
<!-- Node1&#45;&gt;Node2 -->
<g id="edge1" class="edge"><title>Node1&#45;&gt;Node2</title>
<path fill="none" stroke="orange" stroke-dasharray="5,2" d="M48.0167,-233.158C51.0239,-269.653 62.9234,-345.61 110,-382.692 147.351,-412.113 200.651,-418.166 244.206,-416.963"/>
<polygon fill="orange" stroke="orange" points="51.4829,-232.537 47.3194,-222.794 44.4987,-233.007 51.4829,-232.537"/>
<text text-anchor="middle" x="166" y="-418.692" font-family="Helvetica,sans-Serif" font-size="10.00"> &lt; RMF::StringsTraits &gt;</text>
</g>
<!-- Node3 -->
<g id="node3" class="node"><title>Node3</title>
<g id="a_node3"><a xlink:href="classRMF_1_1ID.html" target="_top" xlink:title="RMF::ID\&lt; RMF::FloatTraits \&gt;">
<polygon fill="none" stroke="black" points="248.732,-358.692 248.732,-378.692 393.268,-378.692 393.268,-358.692 248.732,-358.692"/>
<text text-anchor="middle" x="321" y="-364.692" font-family="Helvetica,sans-Serif" font-size="10.00">RMF::ID&lt; RMF::FloatTraits &gt;</text>
</a>
</g>
</g>
<!-- Node1&#45;&gt;Node3 -->
<g id="edge2" class="edge"><title>Node1&#45;&gt;Node3</title>
<path fill="none" stroke="orange" stroke-dasharray="5,2" d="M50.211,-233.126C56.1485,-263.433 71.9099,-319.623 110,-346.692 131.738,-362.14 196.603,-367.135 248.549,-368.569"/>
<polygon fill="orange" stroke="orange" points="53.5879,-232.125 48.3903,-222.893 46.6961,-233.351 53.5879,-232.125"/>
<text text-anchor="middle" x="166" y="-368.692" font-family="Helvetica,sans-Serif" font-size="10.00"> &lt; RMF::FloatTraits &gt;</text>
</g>
<!-- Node4 -->
<g id="node4" class="node"><title>Node4</title>
<g id="a_node4"><a xlink:href="classRMF_1_1ID.html" target="_top" xlink:title="RMF::ID\&lt; FrameTag \&gt;">
<polygon fill="none" stroke="black" points="263.266,-319.692 263.266,-339.692 378.734,-339.692 378.734,-319.692 263.266,-319.692"/>
<text text-anchor="middle" x="321" y="-325.692" font-family="Helvetica,sans-Serif" font-size="10.00">RMF::ID&lt; FrameTag &gt;</text>
</a>
</g>
</g>
<!-- Node1&#45;&gt;Node4 -->
<g id="edge3" class="edge"><title>Node1&#45;&gt;Node4</title>
<path fill="none" stroke="orange" stroke-dasharray="5,2" d="M55.1625,-232.069C64.962,-252.74 83.4625,-284.663 110,-300.692 156.153,-328.568 218.255,-334.036 262.937,-333.614"/>
<polygon fill="orange" stroke="orange" points="58.3511,-230.626 51.0538,-222.945 51.9684,-233.5 58.3511,-230.626"/>
<text text-anchor="middle" x="166" y="-333.692" font-family="Helvetica,sans-Serif" font-size="10.00"> &lt; FrameTag &gt;</text>
</g>
<!-- Node5 -->
<g id="node5" class="node"><title>Node5</title>
<g id="a_node5"><a xlink:href="classRMF_1_1ID.html" target="_top" xlink:title="RMF::ID\&lt; RMF::Vector3sTraits \&gt;">
<polygon fill="none" stroke="black" points="240.39,-280.692 240.39,-300.692 401.61,-300.692 401.61,-280.692 240.39,-280.692"/>
<text text-anchor="middle" x="321" y="-286.692" font-family="Helvetica,sans-Serif" font-size="10.00">RMF::ID&lt; RMF::Vector3sTraits &gt;</text>
</a>
</g>
</g>
<!-- Node1&#45;&gt;Node5 -->
<g id="edge4" class="edge"><title>Node1&#45;&gt;Node5</title>
<path fill="none" stroke="orange" stroke-dasharray="5,2" d="M65.3992,-229.826C77.2468,-239.868 93.4763,-251.881 110,-258.692 151.086,-275.626 200.022,-283.708 240.314,-287.52"/>
<polygon fill="orange" stroke="orange" points="67.4239,-226.946 57.6053,-222.965 62.7986,-232.2 67.4239,-226.946"/>
<text text-anchor="middle" x="166" y="-286.692" font-family="Helvetica,sans-Serif" font-size="10.00"> &lt; RMF::Vector3sTraits &gt;</text>
</g>
<!-- Node6 -->
<g id="node6" class="node"><title>Node6</title>
<g id="a_node6"><a xlink:href="classRMF_1_1ID.html" target="_top" xlink:title="RMF::ID\&lt; CategoryTag \&gt;">
<polygon fill="none" stroke="black" points="257.424,-241.692 257.424,-261.692 384.576,-261.692 384.576,-241.692 257.424,-241.692"/>
<text text-anchor="middle" x="321" y="-247.692" font-family="Helvetica,sans-Serif" font-size="10.00">RMF::ID&lt; CategoryTag &gt;</text>
</a>
</g>
</g>
<!-- Node1&#45;&gt;Node6 -->
<g id="edge5" class="edge"><title>Node1&#45;&gt;Node6</title>
<path fill="none" stroke="orange" stroke-dasharray="5,2" d="M92.5146,-225.05C98.3715,-226.404 104.309,-227.663 110,-228.692 159.084,-237.568 215.284,-243.504 257.186,-247.119"/>
<polygon fill="orange" stroke="orange" points="93.3335,-221.647 82.7914,-222.703 91.691,-228.452 93.3335,-221.647"/>
<text text-anchor="middle" x="166" y="-244.692" font-family="Helvetica,sans-Serif" font-size="10.00"> &lt; CategoryTag &gt;</text>
</g>
<!-- Node7 -->
<g id="node7" class="node"><title>Node7</title>
<g id="a_node7"><a xlink:href="classRMF_1_1ID.html" target="_top" xlink:title="RMF::ID\&lt; NodeTag \&gt;">
<polygon fill="none" stroke="black" points="265.759,-202.692 265.759,-222.692 376.241,-222.692 376.241,-202.692 265.759,-202.692"/>
<text text-anchor="middle" x="321" y="-208.692" font-family="Helvetica,sans-Serif" font-size="10.00">RMF::ID&lt; NodeTag &gt;</text>
</a>
</g>
</g>
<!-- Node1&#45;&gt;Node7 -->
<g id="edge6" class="edge"><title>Node1&#45;&gt;Node7</title>
<path fill="none" stroke="orange" stroke-dasharray="5,2" d="M102.515,-212.692C150.112,-212.692 218.287,-212.692 265.568,-212.692"/>
<polygon fill="orange" stroke="orange" points="102.387,-209.192 92.3869,-212.692 102.387,-216.192 102.387,-209.192"/>
<text text-anchor="middle" x="166" y="-214.692" font-family="Helvetica,sans-Serif" font-size="10.00"> &lt; NodeTag &gt;</text>
</g>
<!-- Node8 -->
<g id="node8" class="node"><title>Node8</title>
<g id="a_node8"><a xlink:href="classRMF_1_1ID.html" target="_top" xlink:title="RMF::ID\&lt; RMF::Vector3Traits \&gt;">
<polygon fill="none" stroke="black" points="242.89,-163.692 242.89,-183.692 399.11,-183.692 399.11,-163.692 242.89,-163.692"/>
<text text-anchor="middle" x="321" y="-169.692" font-family="Helvetica,sans-Serif" font-size="10.00">RMF::ID&lt; RMF::Vector3Traits &gt;</text>
</a>
</g>
</g>
<!-- Node1&#45;&gt;Node8 -->
<g id="edge7" class="edge"><title>Node1&#45;&gt;Node8</title>
<path fill="none" stroke="orange" stroke-dasharray="5,2" d="M92.5146,-200.334C98.3715,-198.979 104.309,-197.721 110,-196.692 153.67,-188.795 202.973,-183.225 242.828,-179.546"/>
<polygon fill="orange" stroke="orange" points="91.691,-196.932 82.7914,-202.681 93.3335,-203.737 91.691,-196.932"/>
<text text-anchor="middle" x="166" y="-198.692" font-family="Helvetica,sans-Serif" font-size="10.00"> &lt; RMF::Vector3Traits &gt;</text>
</g>
<!-- Node9 -->
<g id="node9" class="node"><title>Node9</title>
<g id="a_node9"><a xlink:href="classRMF_1_1ID.html" target="_top" xlink:title="RMF::ID\&lt; RMF::Vector4Traits \&gt;">
<polygon fill="none" stroke="black" points="242.89,-124.692 242.89,-144.692 399.11,-144.692 399.11,-124.692 242.89,-124.692"/>
<text text-anchor="middle" x="321" y="-130.692" font-family="Helvetica,sans-Serif" font-size="10.00">RMF::ID&lt; RMF::Vector4Traits &gt;</text>
</a>
</g>
</g>
<!-- Node1&#45;&gt;Node9 -->
<g id="edge8" class="edge"><title>Node1&#45;&gt;Node9</title>
<path fill="none" stroke="orange" stroke-dasharray="5,2" d="M64.5499,-195.826C76.4291,-185.42 93.0036,-172.753 110,-165.692 151.861,-148.301 201.975,-140.465 242.747,-137.017"/>
<polygon fill="orange" stroke="orange" points="62.1739,-193.255 57.1284,-202.572 66.8824,-198.435 62.1739,-193.255"/>
<text text-anchor="middle" x="166" y="-167.692" font-family="Helvetica,sans-Serif" font-size="10.00"> &lt; RMF::Vector4Traits &gt;</text>
</g>
<!-- Node10 -->
<g id="node10" class="node"><title>Node10</title>
<g id="a_node10"><a xlink:href="classRMF_1_1ID.html" target="_top" xlink:title="RMF::ID\&lt; RMF::IntsTraits \&gt;">
<polygon fill="none" stroke="black" points="251.789,-85.6918 251.789,-105.692 390.211,-105.692 390.211,-85.6918 251.789,-85.6918"/>
<text text-anchor="middle" x="321" y="-91.6918" font-family="Helvetica,sans-Serif" font-size="10.00">RMF::ID&lt; RMF::IntsTraits &gt;</text>
</a>
</g>
</g>
<!-- Node1&#45;&gt;Node10 -->
<g id="edge9" class="edge"><title>Node1&#45;&gt;Node10</title>
<path fill="none" stroke="orange" stroke-dasharray="5,2" d="M54.8642,-193.164C64.4933,-172 82.9321,-139.064 110,-122.692 152.304,-97.1048 208.123,-90.9511 251.579,-90.8736"/>
<polygon fill="orange" stroke="orange" points="51.5911,-191.915 50.8457,-202.484 58.0191,-194.687 51.5911,-191.915"/>
<text text-anchor="middle" x="166" y="-124.692" font-family="Helvetica,sans-Serif" font-size="10.00"> &lt; RMF::IntsTraits &gt;</text>
</g>
<!-- Node11 -->
<g id="node11" class="node"><title>Node11</title>
<g id="a_node11"><a xlink:href="classRMF_1_1ID.html" target="_top" xlink:title="RMF::ID\&lt; RMF::IntTraits \&gt;">
<polygon fill="none" stroke="black" points="254.289,-46.6918 254.289,-66.6918 387.711,-66.6918 387.711,-46.6918 254.289,-46.6918"/>
<text text-anchor="middle" x="321" y="-52.6918" font-family="Helvetica,sans-Serif" font-size="10.00">RMF::ID&lt; RMF::IntTraits &gt;</text>
</a>
</g>
</g>
<!-- Node1&#45;&gt;Node11 -->
<g id="edge10" class="edge"><title>Node1&#45;&gt;Node11</title>
<path fill="none" stroke="orange" stroke-dasharray="5,2" d="M49.8587,-192.605C55.4122,-161.761 70.7702,-103.404 110,-75.6918 152.009,-46.0168 211.161,-43.1918 255.986,-46.6831"/>
<polygon fill="orange" stroke="orange" points="46.3813,-192.183 48.2302,-202.616 53.2905,-193.307 46.3813,-192.183"/>
<text text-anchor="middle" x="166" y="-77.6918" font-family="Helvetica,sans-Serif" font-size="10.00"> &lt; RMF::IntTraits &gt;</text>
</g>
<!-- Node12 -->
<g id="node12" class="node"><title>Node12</title>
<g id="a_node12"><a xlink:href="classRMF_1_1ID.html" target="_top" xlink:title="RMF::ID\&lt; RMF::StringTraits \&gt;">
<polygon fill="none" stroke="black" points="246.787,-7.69185 246.787,-27.6918 395.213,-27.6918 395.213,-7.69185 246.787,-7.69185"/>
<text text-anchor="middle" x="321" y="-13.6918" font-family="Helvetica,sans-Serif" font-size="10.00">RMF::ID&lt; RMF::StringTraits &gt;</text>
</a>
</g>
</g>
<!-- Node1&#45;&gt;Node12 -->
<g id="edge11" class="edge"><title>Node1&#45;&gt;Node12</title>
<path fill="none" stroke="orange" stroke-dasharray="5,2" d="M47.0994,-192.404C48.5101,-153.355 57.7565,-68.13 110,-28.6918 159.098,8.37159 234.541,1.41003 280.379,-7.67878"/>
<polygon fill="orange" stroke="orange" points="43.5975,-192.455 46.8768,-202.53 50.5958,-192.609 43.5975,-192.455"/>
<text text-anchor="middle" x="166" y="-30.6918" font-family="Helvetica,sans-Serif" font-size="10.00"> &lt; RMF::StringTraits &gt;</text>
</g>
</g>
</svg>
