<?xml version="1.0" encoding="UTF-8" standalone="no"?>
<!DOCTYPE svg PUBLIC "-//W3C//DTD SVG 1.1//EN"
 "http://www.w3.org/Graphics/SVG/1.1/DTD/svg11.dtd">
<!-- Generated by graphviz version 2.36.0 (20140111.2315)
 -->
<!-- Title: RMF::decorator::RigidParticleConst Pages: 1 -->
<svg width="154pt" height="150pt"
 viewBox="0.00 0.00 154.00 150.00" xmlns="http://www.w3.org/2000/svg" xmlns:xlink="http://www.w3.org/1999/xlink">
<g id="graph0" class="graph" transform="scale(1 1) rotate(0) translate(4 146)">
<title>RMF::decorator::RigidParticleConst</title>
<!-- Node1 -->
<g id="node1" class="node"><title>Node1</title>
<polygon fill="#bfbfbf" stroke="black" points="-0.576172,-57 -0.576172,-85 146.576,-85 146.576,-57 -0.576172,-57"/>
<text text-anchor="start" x="7.42383" y="-73" font-family="Helvetica,sans-Serif" font-size="10.00">RMF::decorator::RigidParticle</text>
<text text-anchor="middle" x="73" y="-63" font-family="Helvetica,sans-Serif" font-size="10.00">Const</text>
</g>
<!-- Node3 -->
<g id="node3" class="node"><title>Node3</title>
<g id="a_node3"><a xlink:href="classRMF_1_1decorator_1_1RigidParticle.html" target="_top" xlink:title="RMF::decorator::RigidParticle">
<polygon fill="none" stroke="black" points="-0.576172,-1 -0.576172,-19 146.576,-19 146.576,-1 -0.576172,-1"/>
<text text-anchor="middle" x="73" y="-7" font-family="Helvetica,sans-Serif" font-size="10.00">RMF::decorator::RigidParticle</text>
</a>
</g>
</g>
<!-- Node1&#45;&gt;Node3 -->
<g id="edge2" class="edge"><title>Node1&#45;&gt;Node3</title>
<path fill="none" stroke="midnightblue" d="M73,-46.8856C73,-37.0939 73,-26.3163 73,-19.1534"/>
<polygon fill="midnightblue" stroke="midnightblue" points="69.5001,-46.906 73,-56.906 76.5001,-46.906 69.5001,-46.906"/>
</g>
<!-- Node2 -->
<g id="node2" class="node"><title>Node2</title>
<g id="a_node2"><a xlink:href="classRMF_1_1Decorator.html" target="_top" xlink:title="The base class for decorators. ">
<polygon fill="none" stroke="black" points="29.4385,-123 29.4385,-141 116.562,-141 116.562,-123 29.4385,-123"/>
<text text-anchor="middle" x="73" y="-129" font-family="Helvetica,sans-Serif" font-size="10.00">RMF::Decorator</text>
</a>
</g>
</g>
<!-- Node2&#45;&gt;Node1 -->
<g id="edge1" class="edge"><title>Node2&#45;&gt;Node1</title>
<path fill="none" stroke="midnightblue" d="M73,-112.654C73,-103.736 73,-93.2225 73,-85.1215"/>
<polygon fill="midnightblue" stroke="midnightblue" points="69.5001,-112.796 73,-122.796 76.5001,-112.796 69.5001,-112.796"/>
</g>
</g>
</svg>
