<?xml version="1.0" encoding="UTF-8" standalone="no"?>
<!DOCTYPE svg PUBLIC "-//W3C//DTD SVG 1.1//EN"
 "http://www.w3.org/Graphics/SVG/1.1/DTD/svg11.dtd">
<!-- Generated by graphviz version 2.36.0 (20140111.2315)
 -->
<!-- Title: RMF::decorator::GaussianParticle Pages: 1 -->
<svg width="140pt" height="160pt"
 viewBox="0.00 0.00 140.00 160.00" xmlns="http://www.w3.org/2000/svg" xmlns:xlink="http://www.w3.org/1999/xlink">
<g id="graph0" class="graph" transform="scale(1 1) rotate(0) translate(4 156)">
<title>RMF::decorator::GaussianParticle</title>
<!-- Node1 -->
<g id="node1" class="node"><title>Node1</title>
<polygon fill="#bfbfbf" stroke="black" points="-0.632812,-1 -0.632812,-29 132.633,-29 132.633,-1 -0.632812,-1"/>
<text text-anchor="start" x="7.36719" y="-17" font-family="Helvetica,sans-Serif" font-size="10.00">RMF::decorator::Gaussian</text>
<text text-anchor="middle" x="66" y="-7" font-family="Helvetica,sans-Serif" font-size="10.00">Particle</text>
</g>
<!-- Node2 -->
<g id="node2" class="node"><title>Node2</title>
<g id="a_node2"><a xlink:href="classRMF_1_1decorator_1_1GaussianParticleConst.html" target="_top" xlink:title="RMF::decorator::Gaussian\lParticleConst">
<polygon fill="none" stroke="black" points="-0.632812,-67 -0.632812,-95 132.633,-95 132.633,-67 -0.632812,-67"/>
<text text-anchor="start" x="7.36719" y="-83" font-family="Helvetica,sans-Serif" font-size="10.00">RMF::decorator::Gaussian</text>
<text text-anchor="middle" x="66" y="-73" font-family="Helvetica,sans-Serif" font-size="10.00">ParticleConst</text>
</a>
</g>
</g>
<!-- Node2&#45;&gt;Node1 -->
<g id="edge1" class="edge"><title>Node2&#45;&gt;Node1</title>
<path fill="none" stroke="midnightblue" d="M66,-56.5946C66,-47.3785 66,-37.1352 66,-29.2439"/>
<polygon fill="midnightblue" stroke="midnightblue" points="62.5001,-56.7391 66,-66.7392 69.5001,-56.7392 62.5001,-56.7391"/>
</g>
<!-- Node3 -->
<g id="node3" class="node"><title>Node3</title>
<g id="a_node3"><a xlink:href="classRMF_1_1Decorator.html" target="_top" xlink:title="The base class for decorators. ">
<polygon fill="none" stroke="black" points="22.4385,-133 22.4385,-151 109.562,-151 109.562,-133 22.4385,-133"/>
<text text-anchor="middle" x="66" y="-139" font-family="Helvetica,sans-Serif" font-size="10.00">RMF::Decorator</text>
</a>
</g>
</g>
<!-- Node3&#45;&gt;Node2 -->
<g id="edge2" class="edge"><title>Node3&#45;&gt;Node2</title>
<path fill="none" stroke="midnightblue" d="M66,-122.654C66,-113.736 66,-103.222 66,-95.1215"/>
<polygon fill="midnightblue" stroke="midnightblue" points="62.5001,-122.796 66,-132.796 69.5001,-122.796 62.5001,-122.796"/>
</g>
</g>
</svg>
