<?xml version="1.0" encoding="UTF-8" standalone="no"?>
<!DOCTYPE svg PUBLIC "-//W3C//DTD SVG 1.1//EN"
 "http://www.w3.org/Graphics/SVG/1.1/DTD/svg11.dtd">
<!-- Generated by graphviz version 2.36.0 (20140111.2315)
 -->
<!-- Title: RMF::HDF5::ConstFile Pages: 1 -->
<svg width="272pt" height="230pt"
 viewBox="0.00 0.00 272.00 230.00" xmlns="http://www.w3.org/2000/svg" xmlns:xlink="http://www.w3.org/1999/xlink">
<g id="graph0" class="graph" transform="scale(1 1) rotate(0) translate(4 226)">
<title>RMF::HDF5::ConstFile</title>
<!-- Node1 -->
<g id="node1" class="node"><title>Node1</title>
<polygon fill="#bfbfbf" stroke="black" points="63.4385,-1 63.4385,-19 180.562,-19 180.562,-1 63.4385,-1"/>
<text text-anchor="middle" x="122" y="-7" font-family="Helvetica,sans-Serif" font-size="10.00">RMF::HDF5::ConstFile</text>
</g>
<!-- Node2 -->
<g id="node2" class="node"><title>Node2</title>
<g id="a_node2"><a xlink:href="classRMF_1_1HDF5_1_1ConstGroup.html" target="_top" xlink:title="RMF::HDF5::ConstGroup">
<polygon fill="none" stroke="black" points="57.5986,-59 57.5986,-77 186.401,-77 186.401,-59 57.5986,-59"/>
<text text-anchor="middle" x="122" y="-65" font-family="Helvetica,sans-Serif" font-size="10.00">RMF::HDF5::ConstGroup</text>
</a>
</g>
</g>
<!-- Node2&#45;&gt;Node1 -->
<g id="edge1" class="edge"><title>Node2&#45;&gt;Node1</title>
<path fill="none" stroke="midnightblue" d="M122,-48.6464C122,-38.7413 122,-27.0014 122,-19.2969"/>
<polygon fill="midnightblue" stroke="midnightblue" points="118.5,-48.737 122,-58.737 125.5,-48.737 118.5,-48.737"/>
</g>
<!-- Node3 -->
<g id="node3" class="node"><title>Node3</title>
<g id="a_node3"><a xlink:href="classRMF_1_1HDF5_1_1ConstAttributes.html" target="_top" xlink:title="RMF::HDF5::ConstAttributes\l\&lt; Object \&gt;">
<polygon fill="none" stroke="black" points="50.3745,-117 50.3745,-145 193.625,-145 193.625,-117 50.3745,-117"/>
<text text-anchor="start" x="58.3745" y="-133" font-family="Helvetica,sans-Serif" font-size="10.00">RMF::HDF5::ConstAttributes</text>
<text text-anchor="middle" x="122" y="-123" font-family="Helvetica,sans-Serif" font-size="10.00">&lt; Object &gt;</text>
</a>
</g>
</g>
<!-- Node3&#45;&gt;Node2 -->
<g id="edge2" class="edge"><title>Node3&#45;&gt;Node2</title>
<path fill="none" stroke="midnightblue" d="M122,-106.588C122,-96.2132 122,-84.6798 122,-77.1595"/>
<polygon fill="midnightblue" stroke="midnightblue" points="118.5,-106.764 122,-116.764 125.5,-106.764 118.5,-106.764"/>
</g>
<!-- Node4 -->
<g id="node4" class="node"><title>Node4</title>
<g id="a_node4"><a xlink:href="classRMF_1_1HDF5_1_1Object.html" target="_top" xlink:title="RMF::HDF5::Object">
<polygon fill="none" stroke="black" points="-0.894043,-198 -0.894043,-216 102.894,-216 102.894,-198 -0.894043,-198"/>
<text text-anchor="middle" x="51" y="-204" font-family="Helvetica,sans-Serif" font-size="10.00">RMF::HDF5::Object</text>
</a>
</g>
</g>
<!-- Node4&#45;&gt;Node3 -->
<g id="edge3" class="edge"><title>Node4&#45;&gt;Node3</title>
<path fill="none" stroke="midnightblue" d="M66.0688,-190.294C78.9218,-176.898 97.1919,-157.856 109.31,-145.226"/>
<polygon fill="midnightblue" stroke="midnightblue" points="63.2673,-188.159 58.8695,-197.798 68.3184,-193.005 63.2673,-188.159"/>
</g>
<!-- Node5 -->
<g id="node5" class="node"><title>Node5</title>
<g id="a_node5"><a xlink:href="classRMF_1_1HDF5_1_1ConstAttributes.html" target="_top" xlink:title="RMF::HDF5::ConstAttributes\l\&lt; Base \&gt;">
<polygon fill="none" stroke="black" points="121.375,-193 121.375,-221 264.625,-221 264.625,-193 121.375,-193"/>
<text text-anchor="start" x="129.375" y="-209" font-family="Helvetica,sans-Serif" font-size="10.00">RMF::HDF5::ConstAttributes</text>
<text text-anchor="middle" x="193" y="-199" font-family="Helvetica,sans-Serif" font-size="10.00">&lt; Base &gt;</text>
</a>
</g>
</g>
<!-- Node5&#45;&gt;Node3 -->
<g id="edge4" class="edge"><title>Node5&#45;&gt;Node3</title>
<path fill="none" stroke="orange" stroke-dasharray="5,2" d="M173.094,-185.253C160.745,-172.382 145.253,-156.235 134.583,-145.115"/>
<polygon fill="orange" stroke="orange" points="170.858,-187.978 180.307,-192.77 175.909,-183.131 170.858,-187.978"/>
<text text-anchor="middle" x="186.458" y="-166" font-family="Helvetica,sans-Serif" font-size="10.00"> &lt; Object &gt;</text>
</g>
</g>
</svg>
