<?xml version="1.0" encoding="UTF-8" standalone="no"?>
<!DOCTYPE svg PUBLIC "-//W3C//DTD SVG 1.1//EN"
 "http://www.w3.org/Graphics/SVG/1.1/DTD/svg11.dtd">
<!-- Generated by graphviz version 2.34.0 (20131025.1349)
 -->
<!-- Title: RMF::decorator::BackwardsCompatibilityFragment Pages: 1 -->
<svg width="150pt" height="170pt"
 viewBox="0.00 0.00 150.00 170.00" xmlns="http://www.w3.org/2000/svg" xmlns:xlink="http://www.w3.org/1999/xlink">
<g id="graph0" class="graph" transform="scale(1 1) rotate(0) translate(4 166)">
<title>RMF::decorator::BackwardsCompatibilityFragment</title>
<!-- Node1 -->
<g id="node1" class="node"><title>Node1</title>
<polygon fill="#bfbfbf" stroke="black" points="1.03711,-1 1.03711,-33 140.963,-33 140.963,-1 1.03711,-1"/>
<text text-anchor="start" x="9.03711" y="-19" font-family="Helvetica,sans-Serif" font-size="10.00">RMF::decorator::Backwards</text>
<text text-anchor="middle" x="71" y="-7" font-family="Helvetica,sans-Serif" font-size="10.00">CompatibilityFragment</text>
</g>
<!-- Node2 -->
<g id="node2" class="node"><title>Node2</title>
<g id="a_node2"><a xlink:href="classRMF_1_1decorator_1_1BackwardsCompatibilityFragmentConst.html" target="_top" xlink:title="RMF::decorator::Backwards\lCompatibilityFragmentConst">
<polygon fill="none" stroke="black" points="-0.0786133,-71 -0.0786133,-103 142.079,-103 142.079,-71 -0.0786133,-71"/>
<text text-anchor="start" x="7.92139" y="-89" font-family="Helvetica,sans-Serif" font-size="10.00">RMF::decorator::Backwards</text>
<text text-anchor="middle" x="71" y="-77" font-family="Helvetica,sans-Serif" font-size="10.00">CompatibilityFragmentConst</text>
</a>
</g>
</g>
<!-- Node2&#45;&gt;Node1 -->
<g id="edge1" class="edge"><title>Node2&#45;&gt;Node1</title>
<path fill="none" stroke="midnightblue" d="M71,-60.6174C71,-51.3378 71,-41.1413 71,-33.0492"/>
<polygon fill="midnightblue" stroke="midnightblue" points="67.5001,-60.9086 71,-70.9086 74.5001,-60.9086 67.5001,-60.9086"/>
</g>
<!-- Node3 -->
<g id="node3" class="node"><title>Node3</title>
<g id="a_node3"><a xlink:href="classRMF_1_1Decorator.html" target="_top" xlink:title="The base class for decorators. ">
<polygon fill="none" stroke="black" points="27.4385,-141 27.4385,-161 114.562,-161 114.562,-141 27.4385,-141"/>
<text text-anchor="middle" x="71" y="-147" font-family="Helvetica,sans-Serif" font-size="10.00">RMF::Decorator</text>
</a>
</g>
</g>
<!-- Node3&#45;&gt;Node2 -->
<g id="edge2" class="edge"><title>Node3&#45;&gt;Node2</title>
<path fill="none" stroke="midnightblue" d="M71,-130.775C71,-121.986 71,-111.715 71,-103.44"/>
<polygon fill="midnightblue" stroke="midnightblue" points="67.5001,-130.852 71,-140.852 74.5001,-130.852 67.5001,-130.852"/>
</g>
</g>
</svg>
