<?xml version="1.0" encoding="UTF-8" standalone="no"?>
<!DOCTYPE svg PUBLIC "-//W3C//DTD SVG 1.1//EN"
 "http://www.w3.org/Graphics/SVG/1.1/DTD/svg11.dtd">
<!-- Generated by graphviz version 2.36.0 (20140111.2315)
 -->
<!-- Title: RMF::decorator::Particle Pages: 1 -->
<svg width="132pt" height="150pt"
 viewBox="0.00 0.00 132.00 150.00" xmlns="http://www.w3.org/2000/svg" xmlns:xlink="http://www.w3.org/1999/xlink">
<g id="graph0" class="graph" transform="scale(1 1) rotate(0) translate(4 146)">
<title>RMF::decorator::Particle</title>
<!-- Node1 -->
<g id="node1" class="node"><title>Node1</title>
<polygon fill="#bfbfbf" stroke="black" points="-0.182129,-1 -0.182129,-19 124.182,-19 124.182,-1 -0.182129,-1"/>
<text text-anchor="middle" x="62" y="-7" font-family="Helvetica,sans-Serif" font-size="10.00">RMF::decorator::Particle</text>
</g>
<!-- Node2 -->
<g id="node2" class="node"><title>Node2</title>
<g id="a_node2"><a xlink:href="classRMF_1_1decorator_1_1ParticleConst.html" target="_top" xlink:title="RMF::decorator::Particle\lConst">
<polygon fill="none" stroke="black" points="-0.182129,-57 -0.182129,-85 124.182,-85 124.182,-57 -0.182129,-57"/>
<text text-anchor="start" x="7.81787" y="-73" font-family="Helvetica,sans-Serif" font-size="10.00">RMF::decorator::Particle</text>
<text text-anchor="middle" x="62" y="-63" font-family="Helvetica,sans-Serif" font-size="10.00">Const</text>
</a>
</g>
</g>
<!-- Node2&#45;&gt;Node1 -->
<g id="edge1" class="edge"><title>Node2&#45;&gt;Node1</title>
<path fill="none" stroke="midnightblue" d="M62,-46.8856C62,-37.0939 62,-26.3163 62,-19.1534"/>
<polygon fill="midnightblue" stroke="midnightblue" points="58.5001,-46.906 62,-56.906 65.5001,-46.906 58.5001,-46.906"/>
</g>
<!-- Node3 -->
<g id="node3" class="node"><title>Node3</title>
<g id="a_node3"><a xlink:href="classRMF_1_1Decorator.html" target="_top" xlink:title="The base class for decorators. ">
<polygon fill="none" stroke="black" points="18.4385,-123 18.4385,-141 105.562,-141 105.562,-123 18.4385,-123"/>
<text text-anchor="middle" x="62" y="-129" font-family="Helvetica,sans-Serif" font-size="10.00">RMF::Decorator</text>
</a>
</g>
</g>
<!-- Node3&#45;&gt;Node2 -->
<g id="edge2" class="edge"><title>Node3&#45;&gt;Node2</title>
<path fill="none" stroke="midnightblue" d="M62,-112.654C62,-103.736 62,-93.2225 62,-85.1215"/>
<polygon fill="midnightblue" stroke="midnightblue" points="58.5001,-112.796 62,-122.796 65.5001,-112.796 58.5001,-112.796"/>
</g>
</g>
</svg>
