<?xml version="1.0" encoding="UTF-8" standalone="no"?>
<!DOCTYPE svg PUBLIC "-//W3C//DTD SVG 1.1//EN"
 "http://www.w3.org/Graphics/SVG/1.1/DTD/svg11.dtd">
<!-- Generated by graphviz version 2.34.0 (20131025.1349)
 -->
<!-- Title: RMF::decorator::AliasFactory::get_is Pages: 1 -->
<svg width="316pt" height="91pt"
 viewBox="0.00 0.00 316.00 91.00" xmlns="http://www.w3.org/2000/svg" xmlns:xlink="http://www.w3.org/1999/xlink">
<g id="graph0" class="graph" transform="scale(1 1) rotate(0) translate(4 87)">
<title>RMF::decorator::AliasFactory::get_is</title>
<!-- Node1 -->
<g id="node1" class="node"><title>Node1</title>
<polygon fill="#bfbfbf" stroke="black" points="-0.0170898,-25 -0.0170898,-57 146.017,-57 146.017,-25 -0.0170898,-25"/>
<text text-anchor="start" x="7.98291" y="-43" font-family="Helvetica,sans-Serif" font-size="10.00">RMF::decorator::AliasFactory</text>
<text text-anchor="middle" x="73" y="-31" font-family="Helvetica,sans-Serif" font-size="10.00">::get_is</text>
</g>
<!-- Node2 -->
<g id="node2" class="node"><title>Node2</title>
<g id="a_node2"><a xlink:href="classRMF_1_1NodeConstHandle.html#a21e664736cab122b6151b95ef3f39dfc" target="_top" xlink:title="get the type of this node ">
<polygon fill="none" stroke="black" points="182.532,-51 182.532,-83 307.468,-83 307.468,-51 182.532,-51"/>
<text text-anchor="start" x="190.532" y="-69" font-family="Helvetica,sans-Serif" font-size="10.00">RMF::NodeConstHandle</text>
<text text-anchor="middle" x="245" y="-57" font-family="Helvetica,sans-Serif" font-size="10.00">::get_type</text>
</a>
</g>
</g>
<!-- Node1&#45;&gt;Node2 -->
<g id="edge1" class="edge"><title>Node1&#45;&gt;Node2</title>
<path fill="none" stroke="midnightblue" d="M146.095,-52.0263C154.746,-53.3494 163.579,-54.7004 172.226,-56.0227"/>
<polygon fill="midnightblue" stroke="midnightblue" points="171.853,-59.5064 182.267,-57.5585 172.911,-52.5869 171.853,-59.5064"/>
</g>
<!-- Node3 -->
<g id="node3" class="node"><title>Node3</title>
<g id="a_node3"><a xlink:href="classRMF_1_1NodeConstHandle.html#a6c5fe436d4565f3604d08362cd3951b0" target="_top" xlink:title="get the value of the attribute k from this node or null if it \ * doesn&#39;t have a value. \ ">
<polygon fill="none" stroke="black" points="182.532,-0 182.532,-32 307.468,-32 307.468,-0 182.532,-0"/>
<text text-anchor="start" x="190.532" y="-18" font-family="Helvetica,sans-Serif" font-size="10.00">RMF::NodeConstHandle</text>
<text text-anchor="middle" x="245" y="-6" font-family="Helvetica,sans-Serif" font-size="10.00">::get_value</text>
</a>
</g>
</g>
<!-- Node1&#45;&gt;Node3 -->
<g id="edge2" class="edge"><title>Node1&#45;&gt;Node3</title>
<path fill="none" stroke="midnightblue" d="M146.095,-30.3977C154.746,-29.1256 163.579,-27.8266 172.226,-26.5551"/>
<polygon fill="midnightblue" stroke="midnightblue" points="172.883,-29.9961 182.267,-25.0783 171.865,-23.0706 172.883,-29.9961"/>
</g>
</g>
</svg>
