<?xml version="1.0" encoding="UTF-8" standalone="no"?>
<!DOCTYPE svg PUBLIC "-//W3C//DTD SVG 1.1//EN"
 "http://www.w3.org/Graphics/SVG/1.1/DTD/svg11.dtd">
<!-- Generated by graphviz version 2.36.0 (20140111.2315)
 -->
<!-- Title: RMF::HDF5::Object Pages: 1 -->
<svg width="944pt" height="130pt"
 viewBox="0.00 0.00 944.00 130.00" xmlns="http://www.w3.org/2000/svg" xmlns:xlink="http://www.w3.org/1999/xlink">
<g id="graph0" class="graph" transform="scale(1 1) rotate(0) translate(4 126)">
<title>RMF::HDF5::Object</title>
<!-- Node1 -->
<g id="node1" class="node"><title>Node1</title>
<polygon fill="#bfbfbf" stroke="black" points="0.105957,-65 0.105957,-83 103.894,-83 103.894,-65 0.105957,-65"/>
<text text-anchor="middle" x="52" y="-71" font-family="Helvetica,sans-Serif" font-size="10.00">RMF::HDF5::Object</text>
</g>
<!-- Node2 -->
<g id="node2" class="node"><title>Node2</title>
<g id="a_node2"><a xlink:href="classRMF_1_1HDF5_1_1ConstAttributes.html" target="_top" xlink:title="RMF::HDF5::ConstAttributes\l\&lt; Object \&gt;">
<polygon fill="none" stroke="black" points="140.375,-60 140.375,-88 283.625,-88 283.625,-60 140.375,-60"/>
<text text-anchor="start" x="148.375" y="-76" font-family="Helvetica,sans-Serif" font-size="10.00">RMF::HDF5::ConstAttributes</text>
<text text-anchor="middle" x="212" y="-66" font-family="Helvetica,sans-Serif" font-size="10.00">&lt; Object &gt;</text>
</a>
</g>
</g>
<!-- Node1&#45;&gt;Node2 -->
<g id="edge1" class="edge"><title>Node1&#45;&gt;Node2</title>
<path fill="none" stroke="midnightblue" d="M114.417,-74C122.849,-74 131.564,-74 140.148,-74"/>
<polygon fill="midnightblue" stroke="midnightblue" points="114.298,-70.5001 104.298,-74 114.298,-77.5001 114.298,-70.5001"/>
</g>
<!-- Node3 -->
<g id="node3" class="node"><title>Node3</title>
<g id="a_node3"><a xlink:href="classRMF_1_1HDF5_1_1ConstDataSetD.html" target="_top" xlink:title="RMF::HDF5::ConstDataSetD\l\&lt; TypeTraits, D \&gt;">
<polygon fill="none" stroke="black" points="319.818,-84 319.818,-112 464.182,-112 464.182,-84 319.818,-84"/>
<text text-anchor="start" x="327.818" y="-100" font-family="Helvetica,sans-Serif" font-size="10.00">RMF::HDF5::ConstDataSetD</text>
<text text-anchor="middle" x="392" y="-90" font-family="Helvetica,sans-Serif" font-size="10.00">&lt; TypeTraits, D &gt;</text>
</a>
</g>
</g>
<!-- Node2&#45;&gt;Node3 -->
<g id="edge2" class="edge"><title>Node2&#45;&gt;Node3</title>
<path fill="none" stroke="midnightblue" d="M293.928,-84.9116C302.559,-86.0754 311.293,-87.253 319.8,-88.4"/>
<polygon fill="midnightblue" stroke="midnightblue" points="294.24,-81.4221 283.862,-83.5544 293.304,-88.3593 294.24,-81.4221"/>
</g>
<!-- Node6 -->
<g id="node6" class="node"><title>Node6</title>
<g id="a_node6"><a xlink:href="classRMF_1_1HDF5_1_1ConstGroup.html" target="_top" xlink:title="RMF::HDF5::ConstGroup">
<polygon fill="none" stroke="black" points="327.599,-42 327.599,-60 456.401,-60 456.401,-42 327.599,-42"/>
<text text-anchor="middle" x="392" y="-48" font-family="Helvetica,sans-Serif" font-size="10.00">RMF::HDF5::ConstGroup</text>
</a>
</g>
</g>
<!-- Node2&#45;&gt;Node6 -->
<g id="edge5" class="edge"><title>Node2&#45;&gt;Node6</title>
<path fill="none" stroke="midnightblue" d="M294.108,-63.5198C305.339,-62.0686 316.739,-60.5955 327.585,-59.1941"/>
<polygon fill="midnightblue" stroke="midnightblue" points="293.331,-60.091 283.862,-64.8437 294.228,-67.0333 293.331,-60.091"/>
</g>
<!-- Node4 -->
<g id="node4" class="node"><title>Node4</title>
<g id="a_node4"><a xlink:href="classRMF_1_1HDF5_1_1MutableAttributes.html" target="_top" xlink:title="MutableAttributes\&lt;\l ConstDataSetD\&lt; TypeTraits,\l D \&gt; \&gt;">
<polygon fill="none" stroke="black" points="504.103,-84 504.103,-122 649.897,-122 649.897,-84 504.103,-84"/>
<text text-anchor="start" x="512.103" y="-110" font-family="Helvetica,sans-Serif" font-size="10.00">MutableAttributes&lt;</text>
<text text-anchor="start" x="512.103" y="-100" font-family="Helvetica,sans-Serif" font-size="10.00"> ConstDataSetD&lt; TypeTraits,</text>
<text text-anchor="middle" x="577" y="-90" font-family="Helvetica,sans-Serif" font-size="10.00"> D &gt; &gt;</text>
</a>
</g>
</g>
<!-- Node3&#45;&gt;Node4 -->
<g id="edge3" class="edge"><title>Node3&#45;&gt;Node4</title>
<path fill="none" stroke="midnightblue" d="M474.463,-100.226C484.311,-100.495 494.316,-100.768 504.014,-101.033"/>
<polygon fill="midnightblue" stroke="midnightblue" points="474.368,-96.722 464.277,-99.9474 474.177,-103.719 474.368,-96.722"/>
</g>
<!-- Node5 -->
<g id="node5" class="node"><title>Node5</title>
<g id="a_node5"><a xlink:href="classRMF_1_1HDF5_1_1DataSetD.html" target="_top" xlink:title="RMF::HDF5::DataSetD\l\&lt; TypeTraits, D \&gt;">
<polygon fill="none" stroke="black" points="689.879,-89 689.879,-117 808.121,-117 808.121,-89 689.879,-89"/>
<text text-anchor="start" x="697.879" y="-105" font-family="Helvetica,sans-Serif" font-size="10.00">RMF::HDF5::DataSetD</text>
<text text-anchor="middle" x="749" y="-95" font-family="Helvetica,sans-Serif" font-size="10.00">&lt; TypeTraits, D &gt;</text>
</a>
</g>
</g>
<!-- Node4&#45;&gt;Node5 -->
<g id="edge4" class="edge"><title>Node4&#45;&gt;Node5</title>
<path fill="none" stroke="midnightblue" d="M660.377,-103C670.281,-103 680.232,-103 689.693,-103"/>
<polygon fill="midnightblue" stroke="midnightblue" points="660.095,-99.5001 650.095,-103 660.095,-106.5 660.095,-99.5001"/>
</g>
<!-- Node7 -->
<g id="node7" class="node"><title>Node7</title>
<g id="a_node7"><a xlink:href="classRMF_1_1HDF5_1_1MutableAttributes.html" target="_top" xlink:title="RMF::HDF5::MutableAttributes\l\&lt; ConstGroup \&gt;">
<polygon fill="none" stroke="black" points="500.648,-37 500.648,-65 653.352,-65 653.352,-37 500.648,-37"/>
<text text-anchor="start" x="508.648" y="-53" font-family="Helvetica,sans-Serif" font-size="10.00">RMF::HDF5::MutableAttributes</text>
<text text-anchor="middle" x="577" y="-43" font-family="Helvetica,sans-Serif" font-size="10.00">&lt; ConstGroup &gt;</text>
</a>
</g>
</g>
<!-- Node6&#45;&gt;Node7 -->
<g id="edge6" class="edge"><title>Node6&#45;&gt;Node7</title>
<path fill="none" stroke="midnightblue" d="M466.578,-51C477.696,-51 489.181,-51 500.342,-51"/>
<polygon fill="midnightblue" stroke="midnightblue" points="466.491,-47.5001 456.491,-51 466.491,-54.5001 466.491,-47.5001"/>
</g>
<!-- Node10 -->
<g id="node10" class="node"><title>Node10</title>
<g id="a_node10"><a xlink:href="classRMF_1_1HDF5_1_1ConstFile.html" target="_top" xlink:title="RMF::HDF5::ConstFile">
<polygon fill="none" stroke="black" points="518.438,-0 518.438,-18 635.562,-18 635.562,-0 518.438,-0"/>
<text text-anchor="middle" x="577" y="-6" font-family="Helvetica,sans-Serif" font-size="10.00">RMF::HDF5::ConstFile</text>
</a>
</g>
</g>
<!-- Node6&#45;&gt;Node10 -->
<g id="edge9" class="edge"><title>Node6&#45;&gt;Node10</title>
<path fill="none" stroke="midnightblue" d="M442.362,-39.671C471.89,-32.8941 508.908,-24.3981 536.492,-18.0675"/>
<polygon fill="midnightblue" stroke="midnightblue" points="441.222,-36.3416 432.258,-41.9899 442.788,-43.1643 441.222,-36.3416"/>
</g>
<!-- Node8 -->
<g id="node8" class="node"><title>Node8</title>
<g id="a_node8"><a xlink:href="classRMF_1_1HDF5_1_1Group.html" target="_top" xlink:title="RMF::HDF5::Group">
<polygon fill="none" stroke="black" points="697.66,-42 697.66,-60 800.34,-60 800.34,-42 697.66,-42"/>
<text text-anchor="middle" x="749" y="-48" font-family="Helvetica,sans-Serif" font-size="10.00">RMF::HDF5::Group</text>
</a>
</g>
</g>
<!-- Node7&#45;&gt;Node8 -->
<g id="edge7" class="edge"><title>Node7&#45;&gt;Node8</title>
<path fill="none" stroke="midnightblue" d="M663.719,-51C675.305,-51 686.873,-51 697.562,-51"/>
<polygon fill="midnightblue" stroke="midnightblue" points="663.555,-47.5001 653.554,-51 663.554,-54.5001 663.555,-47.5001"/>
</g>
<!-- Node9 -->
<g id="node9" class="node"><title>Node9</title>
<g id="a_node9"><a xlink:href="classRMF_1_1HDF5_1_1File.html" target="_top" xlink:title="RMF::HDF5::File">
<polygon fill="none" stroke="black" points="844.5,-42 844.5,-60 935.5,-60 935.5,-42 844.5,-42"/>
<text text-anchor="middle" x="890" y="-48" font-family="Helvetica,sans-Serif" font-size="10.00">RMF::HDF5::File</text>
</a>
</g>
</g>
<!-- Node8&#45;&gt;Node9 -->
<g id="edge8" class="edge"><title>Node8&#45;&gt;Node9</title>
<path fill="none" stroke="midnightblue" d="M810.774,-51C822.011,-51 833.557,-51 844.212,-51"/>
<polygon fill="midnightblue" stroke="midnightblue" points="810.575,-47.5001 800.575,-51 810.575,-54.5001 810.575,-47.5001"/>
</g>
</g>
</svg>
