<?xml version="1.0" encoding="UTF-8" standalone="no"?>
<!DOCTYPE svg PUBLIC "-//W3C//DTD SVG 1.1//EN"
 "http://www.w3.org/Graphics/SVG/1.1/DTD/svg11.dtd">
<!-- Generated by graphviz version 2.34.0 (20131025.1349)
 -->
<!-- Title: RMF::decorator::ResidueFactory::get_is Pages: 1 -->
<svg width="332pt" height="91pt"
 viewBox="0.00 0.00 332.00 91.00" xmlns="http://www.w3.org/2000/svg" xmlns:xlink="http://www.w3.org/1999/xlink">
<g id="graph0" class="graph" transform="scale(1 1) rotate(0) translate(4 87)">
<title>RMF::decorator::ResidueFactory::get_is</title>
<!-- Node1 -->
<g id="node1" class="node"><title>Node1</title>
<polygon fill="#bfbfbf" stroke="black" points="0.475586,-25 0.475586,-57 161.524,-57 161.524,-25 0.475586,-25"/>
<text text-anchor="start" x="8.47559" y="-43" font-family="Helvetica,sans-Serif" font-size="10.00">RMF::decorator::ResidueFactory</text>
<text text-anchor="middle" x="81" y="-31" font-family="Helvetica,sans-Serif" font-size="10.00">::get_is</text>
</g>
<!-- Node2 -->
<g id="node2" class="node"><title>Node2</title>
<g id="a_node2"><a xlink:href="classRMF_1_1NodeConstHandle.html#a21e664736cab122b6151b95ef3f39dfc" target="_top" xlink:title="get the type of this node ">
<polygon fill="none" stroke="black" points="198.532,-51 198.532,-83 323.468,-83 323.468,-51 198.532,-51"/>
<text text-anchor="start" x="206.532" y="-69" font-family="Helvetica,sans-Serif" font-size="10.00">RMF::NodeConstHandle</text>
<text text-anchor="middle" x="261" y="-57" font-family="Helvetica,sans-Serif" font-size="10.00">::get_type</text>
</a>
</g>
</g>
<!-- Node1&#45;&gt;Node2 -->
<g id="edge1" class="edge"><title>Node1&#45;&gt;Node2</title>
<path fill="none" stroke="midnightblue" d="M161.629,-52.6312C170.477,-53.9237 179.451,-55.2344 188.194,-56.5116"/>
<polygon fill="midnightblue" stroke="midnightblue" points="187.931,-60.0101 198.332,-57.9922 188.942,-53.0836 187.931,-60.0101"/>
</g>
<!-- Node3 -->
<g id="node3" class="node"><title>Node3</title>
<g id="a_node3"><a xlink:href="classRMF_1_1NodeConstHandle.html#a6c5fe436d4565f3604d08362cd3951b0" target="_top" xlink:title="get the value of the attribute k from this node or null if it \ * doesn&#39;t have a value. \ ">
<polygon fill="none" stroke="black" points="198.532,-0 198.532,-32 323.468,-32 323.468,-0 198.532,-0"/>
<text text-anchor="start" x="206.532" y="-18" font-family="Helvetica,sans-Serif" font-size="10.00">RMF::NodeConstHandle</text>
<text text-anchor="middle" x="261" y="-6" font-family="Helvetica,sans-Serif" font-size="10.00">::get_value</text>
</a>
</g>
</g>
<!-- Node1&#45;&gt;Node3 -->
<g id="edge2" class="edge"><title>Node1&#45;&gt;Node3</title>
<path fill="none" stroke="midnightblue" d="M161.629,-29.8162C170.477,-28.5734 179.451,-27.3131 188.194,-26.085"/>
<polygon fill="midnightblue" stroke="midnightblue" points="188.916,-29.5182 198.332,-24.6613 187.942,-22.5862 188.916,-29.5182"/>
</g>
</g>
</svg>
