<?xml version="1.0" encoding="UTF-8" standalone="no"?>
<!DOCTYPE svg PUBLIC "-//W3C//DTD SVG 1.1//EN"
 "http://www.w3.org/Graphics/SVG/1.1/DTD/svg11.dtd">
<!-- Generated by graphviz version 2.36.0 (20140111.2315)
 -->
<!-- Title: RMF::Exception Pages: 1 -->
<svg width="507pt" height="84pt"
 viewBox="0.00 0.00 507.00 84.00" xmlns="http://www.w3.org/2000/svg" xmlns:xlink="http://www.w3.org/1999/xlink">
<g id="graph0" class="graph" transform="scale(1 1) rotate(0) translate(4 80)">
<title>RMF::Exception</title>
<!-- Node1 -->
<g id="node1" class="node"><title>Node1</title>
<polygon fill="#bfbfbf" stroke="black" points="208.434,-57 208.434,-75 295.566,-75 295.566,-57 208.434,-57"/>
<text text-anchor="middle" x="252" y="-63" font-family="Helvetica,sans-Serif" font-size="10.00">RMF::Exception</text>
</g>
<!-- Node2 -->
<g id="node2" class="node"><title>Node2</title>
<g id="a_node2"><a xlink:href="classRMF_1_1IndexException.html" target="_top" xlink:title="RMF::IndexException">
<polygon fill="none" stroke="black" points="-0.797852,-1 -0.797852,-19 110.798,-19 110.798,-1 -0.797852,-1"/>
<text text-anchor="middle" x="55" y="-7" font-family="Helvetica,sans-Serif" font-size="10.00">RMF::IndexException</text>
</a>
</g>
</g>
<!-- Node1&#45;&gt;Node2 -->
<g id="edge1" class="edge"><title>Node1&#45;&gt;Node2</title>
<path fill="none" stroke="midnightblue" d="M212.836,-54.2648C174.989,-43.8903 118.51,-28.4089 84.3723,-19.0513"/>
<polygon fill="midnightblue" stroke="midnightblue" points="211.938,-57.6475 222.507,-56.9157 213.788,-50.8965 211.938,-57.6475"/>
</g>
<!-- Node3 -->
<g id="node3" class="node"><title>Node3</title>
<g id="a_node3"><a xlink:href="classRMF_1_1InternalException.html" target="_top" xlink:title="RMF::InternalException">
<polygon fill="none" stroke="black" points="128.756,-1 128.756,-19 249.244,-19 249.244,-1 128.756,-1"/>
<text text-anchor="middle" x="189" y="-7" font-family="Helvetica,sans-Serif" font-size="10.00">RMF::InternalException</text>
</a>
</g>
</g>
<!-- Node1&#45;&gt;Node3 -->
<g id="edge2" class="edge"><title>Node1&#45;&gt;Node3</title>
<path fill="none" stroke="midnightblue" d="M234.676,-50.151C223.07,-40.203 208.22,-27.4744 198.658,-19.2786"/>
<polygon fill="midnightblue" stroke="midnightblue" points="232.561,-52.948 242.432,-56.7986 237.117,-47.6332 232.561,-52.948"/>
</g>
<!-- Node4 -->
<g id="node4" class="node"><title>Node4</title>
<g id="a_node4"><a xlink:href="classRMF_1_1IOException.html" target="_top" xlink:title="RMF::IOException">
<polygon fill="none" stroke="black" points="267.155,-1 267.155,-19 364.845,-19 364.845,-1 267.155,-1"/>
<text text-anchor="middle" x="316" y="-7" font-family="Helvetica,sans-Serif" font-size="10.00">RMF::IOException</text>
</a>
</g>
</g>
<!-- Node1&#45;&gt;Node4 -->
<g id="edge3" class="edge"><title>Node1&#45;&gt;Node4</title>
<path fill="none" stroke="midnightblue" d="M269.599,-50.151C281.389,-40.203 296.475,-27.4744 306.188,-19.2786"/>
<polygon fill="midnightblue" stroke="midnightblue" points="267.106,-47.6748 261.72,-56.7986 271.62,-53.0248 267.106,-47.6748"/>
</g>
<!-- Node5 -->
<g id="node5" class="node"><title>Node5</title>
<g id="a_node5"><a xlink:href="classRMF_1_1UsageException.html" target="_top" xlink:title="RMF::UsageException">
<polygon fill="none" stroke="black" points="382.98,-1 382.98,-19 499.02,-19 499.02,-1 382.98,-1"/>
<text text-anchor="middle" x="441" y="-7" font-family="Helvetica,sans-Serif" font-size="10.00">RMF::UsageException</text>
</a>
</g>
</g>
<!-- Node1&#45;&gt;Node5 -->
<g id="edge4" class="edge"><title>Node1&#45;&gt;Node5</title>
<path fill="none" stroke="midnightblue" d="M290.038,-54.1321C326.345,-43.7587 380.208,-28.3691 412.82,-19.0513"/>
<polygon fill="midnightblue" stroke="midnightblue" points="288.949,-50.803 280.295,-56.9157 290.872,-57.5337 288.949,-50.803"/>
</g>
</g>
</svg>
