<?xml version="1.0" encoding="UTF-8" standalone="no"?>
<!DOCTYPE svg PUBLIC "-//W3C//DTD SVG 1.1//EN"
 "http://www.w3.org/Graphics/SVG/1.1/DTD/svg11.dtd">
<!-- Generated by graphviz version 2.34.0 (20131025.1349)
 -->
<!-- Title: RMF::decorator::CopyFactory::get_is Pages: 1 -->
<svg width="318pt" height="91pt"
 viewBox="0.00 0.00 318.00 91.00" xmlns="http://www.w3.org/2000/svg" xmlns:xlink="http://www.w3.org/1999/xlink">
<g id="graph0" class="graph" transform="scale(1 1) rotate(0) translate(4 87)">
<title>RMF::decorator::CopyFactory::get_is</title>
<!-- Node1 -->
<g id="node1" class="node"><title>Node1</title>
<polygon fill="#bfbfbf" stroke="black" points="0.147949,-25 0.147949,-57 147.852,-57 147.852,-25 0.147949,-25"/>
<text text-anchor="start" x="8.14795" y="-43" font-family="Helvetica,sans-Serif" font-size="10.00">RMF::decorator::CopyFactory</text>
<text text-anchor="middle" x="74" y="-31" font-family="Helvetica,sans-Serif" font-size="10.00">::get_is</text>
</g>
<!-- Node2 -->
<g id="node2" class="node"><title>Node2</title>
<g id="a_node2"><a xlink:href="classRMF_1_1NodeConstHandle.html#a21e664736cab122b6151b95ef3f39dfc" target="_top" xlink:title="get the type of this node ">
<polygon fill="none" stroke="black" points="184.532,-51 184.532,-83 309.468,-83 309.468,-51 184.532,-51"/>
<text text-anchor="start" x="192.532" y="-69" font-family="Helvetica,sans-Serif" font-size="10.00">RMF::NodeConstHandle</text>
<text text-anchor="middle" x="247" y="-57" font-family="Helvetica,sans-Serif" font-size="10.00">::get_type</text>
</a>
</g>
</g>
<!-- Node1&#45;&gt;Node2 -->
<g id="edge1" class="edge"><title>Node1&#45;&gt;Node2</title>
<path fill="none" stroke="midnightblue" d="M148.015,-52.1018C156.758,-53.4311 165.679,-54.7875 174.402,-56.1137"/>
<polygon fill="midnightblue" stroke="midnightblue" points="174.115,-59.6102 184.527,-57.6533 175.167,-52.6898 174.115,-59.6102"/>
</g>
<!-- Node3 -->
<g id="node3" class="node"><title>Node3</title>
<g id="a_node3"><a xlink:href="classRMF_1_1NodeConstHandle.html#a6c5fe436d4565f3604d08362cd3951b0" target="_top" xlink:title="get the value of the attribute k from this node or null if it \ * doesn&#39;t have a value. \ ">
<polygon fill="none" stroke="black" points="184.532,-0 184.532,-32 309.468,-32 309.468,-0 184.532,-0"/>
<text text-anchor="start" x="192.532" y="-18" font-family="Helvetica,sans-Serif" font-size="10.00">RMF::NodeConstHandle</text>
<text text-anchor="middle" x="247" y="-6" font-family="Helvetica,sans-Serif" font-size="10.00">::get_value</text>
</a>
</g>
</g>
<!-- Node1&#45;&gt;Node3 -->
<g id="edge2" class="edge"><title>Node1&#45;&gt;Node3</title>
<path fill="none" stroke="midnightblue" d="M148.015,-30.3252C156.758,-29.047 165.679,-27.7428 174.402,-26.4676"/>
<polygon fill="midnightblue" stroke="midnightblue" points="175.139,-29.8971 184.527,-24.9872 174.126,-22.9707 175.139,-29.8971"/>
</g>
</g>
</svg>
