<?xml version="1.0" encoding="UTF-8" standalone="no"?>
<!DOCTYPE svg PUBLIC "-//W3C//DTD SVG 1.1//EN"
 "http://www.w3.org/Graphics/SVG/1.1/DTD/svg11.dtd">
<!-- Generated by graphviz version 2.36.0 (20140111.2315)
 -->
<!-- Title: RMF::HDF5::MutableAttributes&lt; Base &gt; Pages: 1 -->
<svg width="802pt" height="83pt"
 viewBox="0.00 0.00 802.00 83.00" xmlns="http://www.w3.org/2000/svg" xmlns:xlink="http://www.w3.org/1999/xlink">
<g id="graph0" class="graph" transform="scale(1 1) rotate(0) translate(4 79)">
<title>RMF::HDF5::MutableAttributes&lt; Base &gt;</title>
<!-- Node1 -->
<g id="node1" class="node"><title>Node1</title>
<polygon fill="#bfbfbf" stroke="black" points="0.647949,-24 0.647949,-52 153.352,-52 153.352,-24 0.647949,-24"/>
<text text-anchor="start" x="8.64795" y="-40" font-family="Helvetica,sans-Serif" font-size="10.00">RMF::HDF5::MutableAttributes</text>
<text text-anchor="middle" x="77" y="-30" font-family="Helvetica,sans-Serif" font-size="10.00">&lt; Base &gt;</text>
</g>
<!-- Node2 -->
<g id="node2" class="node"><title>Node2</title>
<g id="a_node2"><a xlink:href="classRMF_1_1HDF5_1_1MutableAttributes.html" target="_top" xlink:title="RMF::HDF5::MutableAttributes\l\&lt; ConstGroup \&gt;">
<polygon fill="none" stroke="black" points="341.648,-47 341.648,-75 494.352,-75 494.352,-47 341.648,-47"/>
<text text-anchor="start" x="349.648" y="-63" font-family="Helvetica,sans-Serif" font-size="10.00">RMF::HDF5::MutableAttributes</text>
<text text-anchor="middle" x="418" y="-53" font-family="Helvetica,sans-Serif" font-size="10.00">&lt; ConstGroup &gt;</text>
</a>
</g>
</g>
<!-- Node1&#45;&gt;Node2 -->
<g id="edge1" class="edge"><title>Node1&#45;&gt;Node2</title>
<path fill="none" stroke="orange" stroke-dasharray="5,2" d="M163.698,-43.8143C218.494,-47.5321 288.904,-52.3091 341.575,-55.8827"/>
<polygon fill="orange" stroke="orange" points="163.87,-40.3181 153.656,-43.133 163.396,-47.302 163.87,-40.3181"/>
<text text-anchor="middle" x="241" y="-56" font-family="Helvetica,sans-Serif" font-size="10.00"> &lt; ConstGroup &gt;</text>
</g>
<!-- Node5 -->
<g id="node5" class="node"><title>Node5</title>
<g id="a_node5"><a xlink:href="classRMF_1_1HDF5_1_1MutableAttributes.html" target="_top" xlink:title="RMF::HDF5::MutableAttributes\l\&lt; ConstDataSetD\&lt; TypeTraits, D \&gt; \&gt;">
<polygon fill="none" stroke="black" points="328.564,-0 328.564,-28 507.436,-28 507.436,-0 328.564,-0"/>
<text text-anchor="start" x="336.564" y="-16" font-family="Helvetica,sans-Serif" font-size="10.00">RMF::HDF5::MutableAttributes</text>
<text text-anchor="middle" x="418" y="-6" font-family="Helvetica,sans-Serif" font-size="10.00">&lt; ConstDataSetD&lt; TypeTraits, D &gt; &gt;</text>
</a>
</g>
</g>
<!-- Node1&#45;&gt;Node5 -->
<g id="edge4" class="edge"><title>Node1&#45;&gt;Node5</title>
<path fill="none" stroke="orange" stroke-dasharray="5,2" d="M159.253,-22.5247C163.556,-21.9497 167.825,-21.4347 172,-21 223.634,-15.6241 281.697,-13.7823 328.334,-13.3272"/>
<polygon fill="orange" stroke="orange" points="158.583,-19.0849 149.18,-23.9662 159.575,-26.0143 158.583,-19.0849"/>
<text text-anchor="start" x="171.793" y="-33" font-family="Helvetica,sans-Serif" font-size="10.00"> &lt; ConstDataSetD&lt; TypeTraits,</text>
<text text-anchor="middle" x="241" y="-23" font-family="Helvetica,sans-Serif" font-size="10.00"> D &gt; &gt;</text>
</g>
<!-- Node3 -->
<g id="node3" class="node"><title>Node3</title>
<g id="a_node3"><a xlink:href="classRMF_1_1HDF5_1_1Group.html" target="_top" xlink:title="RMF::HDF5::Group">
<polygon fill="none" stroke="black" points="553.66,-52 553.66,-70 656.34,-70 656.34,-52 553.66,-52"/>
<text text-anchor="middle" x="605" y="-58" font-family="Helvetica,sans-Serif" font-size="10.00">RMF::HDF5::Group</text>
</a>
</g>
</g>
<!-- Node2&#45;&gt;Node3 -->
<g id="edge2" class="edge"><title>Node2&#45;&gt;Node3</title>
<path fill="none" stroke="midnightblue" d="M504.842,-61C521.521,-61 538.491,-61 553.567,-61"/>
<polygon fill="midnightblue" stroke="midnightblue" points="504.513,-57.5001 494.513,-61 504.513,-64.5001 504.513,-57.5001"/>
</g>
<!-- Node4 -->
<g id="node4" class="node"><title>Node4</title>
<g id="a_node4"><a xlink:href="classRMF_1_1HDF5_1_1File.html" target="_top" xlink:title="RMF::HDF5::File">
<polygon fill="none" stroke="black" points="702.5,-52 702.5,-70 793.5,-70 793.5,-52 702.5,-52"/>
<text text-anchor="middle" x="748" y="-58" font-family="Helvetica,sans-Serif" font-size="10.00">RMF::HDF5::File</text>
</a>
</g>
</g>
<!-- Node3&#45;&gt;Node4 -->
<g id="edge3" class="edge"><title>Node3&#45;&gt;Node4</title>
<path fill="none" stroke="midnightblue" d="M666.516,-61C678.583,-61 691.047,-61 702.458,-61"/>
<polygon fill="midnightblue" stroke="midnightblue" points="666.506,-57.5001 656.506,-61 666.506,-64.5001 666.506,-57.5001"/>
</g>
<!-- Node6 -->
<g id="node6" class="node"><title>Node6</title>
<g id="a_node6"><a xlink:href="classRMF_1_1HDF5_1_1DataSetD.html" target="_top" xlink:title="RMF::HDF5::DataSetD\l\&lt; TypeTraits, D \&gt;">
<polygon fill="none" stroke="black" points="545.879,-0 545.879,-28 664.121,-28 664.121,-0 545.879,-0"/>
<text text-anchor="start" x="553.879" y="-16" font-family="Helvetica,sans-Serif" font-size="10.00">RMF::HDF5::DataSetD</text>
<text text-anchor="middle" x="605" y="-6" font-family="Helvetica,sans-Serif" font-size="10.00">&lt; TypeTraits, D &gt;</text>
</a>
</g>
</g>
<!-- Node5&#45;&gt;Node6 -->
<g id="edge5" class="edge"><title>Node5&#45;&gt;Node6</title>
<path fill="none" stroke="midnightblue" d="M517.499,-14C527.142,-14 536.698,-14 545.745,-14"/>
<polygon fill="midnightblue" stroke="midnightblue" points="517.436,-10.5001 507.436,-14 517.436,-17.5001 517.436,-10.5001"/>
</g>
</g>
</svg>
