<?xml version="1.0" encoding="UTF-8" standalone="no"?>
<!DOCTYPE svg PUBLIC "-//W3C//DTD SVG 1.1//EN"
 "http://www.w3.org/Graphics/SVG/1.1/DTD/svg11.dtd">
<!-- Generated by graphviz version 2.36.0 (20140111.2315)
 -->
<!-- Title: RMF::decorator::Ball Pages: 1 -->
<svg width="140pt" height="140pt"
 viewBox="0.00 0.00 140.00 140.00" xmlns="http://www.w3.org/2000/svg" xmlns:xlink="http://www.w3.org/1999/xlink">
<g id="graph0" class="graph" transform="scale(1 1) rotate(0) translate(4 136)">
<title>RMF::decorator::Ball</title>
<!-- Node1 -->
<g id="node1" class="node"><title>Node1</title>
<polygon fill="#bfbfbf" stroke="black" points="12.1528,-1 12.1528,-19 119.847,-19 119.847,-1 12.1528,-1"/>
<text text-anchor="middle" x="66" y="-7" font-family="Helvetica,sans-Serif" font-size="10.00">RMF::decorator::Ball</text>
</g>
<!-- Node2 -->
<g id="node2" class="node"><title>Node2</title>
<g id="a_node2"><a xlink:href="classRMF_1_1decorator_1_1BallConst.html" target="_top" xlink:title="RMF::decorator::BallConst">
<polygon fill="none" stroke="black" points="-0.908691,-57 -0.908691,-75 132.909,-75 132.909,-57 -0.908691,-57"/>
<text text-anchor="middle" x="66" y="-63" font-family="Helvetica,sans-Serif" font-size="10.00">RMF::decorator::BallConst</text>
</a>
</g>
</g>
<!-- Node2&#45;&gt;Node1 -->
<g id="edge1" class="edge"><title>Node2&#45;&gt;Node1</title>
<path fill="none" stroke="midnightblue" d="M66,-46.3288C66,-37.0774 66,-26.3798 66,-19.2014"/>
<polygon fill="midnightblue" stroke="midnightblue" points="62.5001,-46.5625 66,-56.5625 69.5001,-46.5625 62.5001,-46.5625"/>
</g>
<!-- Node3 -->
<g id="node3" class="node"><title>Node3</title>
<g id="a_node3"><a xlink:href="classRMF_1_1Decorator.html" target="_top" xlink:title="The base class for decorators. ">
<polygon fill="none" stroke="black" points="22.4385,-113 22.4385,-131 109.562,-131 109.562,-113 22.4385,-113"/>
<text text-anchor="middle" x="66" y="-119" font-family="Helvetica,sans-Serif" font-size="10.00">RMF::Decorator</text>
</a>
</g>
</g>
<!-- Node3&#45;&gt;Node2 -->
<g id="edge2" class="edge"><title>Node3&#45;&gt;Node2</title>
<path fill="none" stroke="midnightblue" d="M66,-102.329C66,-93.0774 66,-82.3798 66,-75.2014"/>
<polygon fill="midnightblue" stroke="midnightblue" points="62.5001,-102.562 66,-112.562 69.5001,-102.563 62.5001,-102.562"/>
</g>
</g>
</svg>
