<?xml version="1.0" encoding="UTF-8" standalone="no"?>
<!DOCTYPE svg PUBLIC "-//W3C//DTD SVG 1.1//EN"
 "http://www.w3.org/Graphics/SVG/1.1/DTD/svg11.dtd">
<!-- Generated by graphviz version 2.36.0 (20140111.2315)
 -->
<!-- Title: RMF::decorator::BackwardsCompatibilityFragment Pages: 1 -->
<svg width="150pt" height="160pt"
 viewBox="0.00 0.00 150.00 160.00" xmlns="http://www.w3.org/2000/svg" xmlns:xlink="http://www.w3.org/1999/xlink">
<g id="graph0" class="graph" transform="scale(1 1) rotate(0) translate(4 156)">
<title>RMF::decorator::BackwardsCompatibilityFragment</title>
<!-- Node1 -->
<g id="node1" class="node"><title>Node1</title>
<polygon fill="#bfbfbf" stroke="black" points="1.03711,-1 1.03711,-29 140.963,-29 140.963,-1 1.03711,-1"/>
<text text-anchor="start" x="9.03711" y="-17" font-family="Helvetica,sans-Serif" font-size="10.00">RMF::decorator::Backwards</text>
<text text-anchor="middle" x="71" y="-7" font-family="Helvetica,sans-Serif" font-size="10.00">CompatibilityFragment</text>
</g>
<!-- Node2 -->
<g id="node2" class="node"><title>Node2</title>
<g id="a_node2"><a xlink:href="classRMF_1_1decorator_1_1BackwardsCompatibilityFragmentConst.html" target="_top" xlink:title="RMF::decorator::Backwards\lCompatibilityFragmentConst">
<polygon fill="none" stroke="black" points="-0.0786133,-67 -0.0786133,-95 142.079,-95 142.079,-67 -0.0786133,-67"/>
<text text-anchor="start" x="7.92139" y="-83" font-family="Helvetica,sans-Serif" font-size="10.00">RMF::decorator::Backwards</text>
<text text-anchor="middle" x="71" y="-73" font-family="Helvetica,sans-Serif" font-size="10.00">CompatibilityFragmentConst</text>
</a>
</g>
</g>
<!-- Node2&#45;&gt;Node1 -->
<g id="edge1" class="edge"><title>Node2&#45;&gt;Node1</title>
<path fill="none" stroke="midnightblue" d="M71,-56.5946C71,-47.3785 71,-37.1352 71,-29.2439"/>
<polygon fill="midnightblue" stroke="midnightblue" points="67.5001,-56.7391 71,-66.7392 74.5001,-56.7392 67.5001,-56.7391"/>
</g>
<!-- Node3 -->
<g id="node3" class="node"><title>Node3</title>
<g id="a_node3"><a xlink:href="classRMF_1_1Decorator.html" target="_top" xlink:title="The base class for decorators. ">
<polygon fill="none" stroke="black" points="27.4385,-133 27.4385,-151 114.562,-151 114.562,-133 27.4385,-133"/>
<text text-anchor="middle" x="71" y="-139" font-family="Helvetica,sans-Serif" font-size="10.00">RMF::Decorator</text>
</a>
</g>
</g>
<!-- Node3&#45;&gt;Node2 -->
<g id="edge2" class="edge"><title>Node3&#45;&gt;Node2</title>
<path fill="none" stroke="midnightblue" d="M71,-122.654C71,-113.736 71,-103.222 71,-95.1215"/>
<polygon fill="midnightblue" stroke="midnightblue" points="67.5001,-122.796 71,-132.796 74.5001,-122.796 67.5001,-122.796"/>
</g>
</g>
</svg>
