<?xml version="1.0" encoding="UTF-8" standalone="no"?>
<!DOCTYPE svg PUBLIC "-//W3C//DTD SVG 1.1//EN"
 "http://www.w3.org/Graphics/SVG/1.1/DTD/svg11.dtd">
<!-- Generated by graphviz version 2.36.0 (20140111.2315)
 -->
<!-- Title: RMF::HDF5::File Pages: 1 -->
<svg width="365pt" height="374pt"
 viewBox="0.00 0.00 365.00 374.00" xmlns="http://www.w3.org/2000/svg" xmlns:xlink="http://www.w3.org/1999/xlink">
<g id="graph0" class="graph" transform="scale(1 1) rotate(0) translate(4 370)">
<title>RMF::HDF5::File</title>
<!-- Node1 -->
<g id="node1" class="node"><title>Node1</title>
<polygon fill="#bfbfbf" stroke="black" points="195.5,-1 195.5,-19 286.5,-19 286.5,-1 195.5,-1"/>
<text text-anchor="middle" x="241" y="-7" font-family="Helvetica,sans-Serif" font-size="10.00">RMF::HDF5::File</text>
</g>
<!-- Node2 -->
<g id="node2" class="node"><title>Node2</title>
<g id="a_node2"><a xlink:href="classRMF_1_1HDF5_1_1Group.html" target="_top" xlink:title="RMF::HDF5::Group">
<polygon fill="none" stroke="black" points="189.66,-59 189.66,-77 292.34,-77 292.34,-59 189.66,-59"/>
<text text-anchor="middle" x="241" y="-65" font-family="Helvetica,sans-Serif" font-size="10.00">RMF::HDF5::Group</text>
</a>
</g>
</g>
<!-- Node2&#45;&gt;Node1 -->
<g id="edge1" class="edge"><title>Node2&#45;&gt;Node1</title>
<path fill="none" stroke="midnightblue" d="M241,-48.6464C241,-38.7413 241,-27.0014 241,-19.2969"/>
<polygon fill="midnightblue" stroke="midnightblue" points="237.5,-48.737 241,-58.737 244.5,-48.737 237.5,-48.737"/>
</g>
<!-- Node3 -->
<g id="node3" class="node"><title>Node3</title>
<g id="a_node3"><a xlink:href="classRMF_1_1HDF5_1_1MutableAttributes.html" target="_top" xlink:title="RMF::HDF5::MutableAttributes\l\&lt; ConstGroup \&gt;">
<polygon fill="none" stroke="black" points="164.648,-117 164.648,-145 317.352,-145 317.352,-117 164.648,-117"/>
<text text-anchor="start" x="172.648" y="-133" font-family="Helvetica,sans-Serif" font-size="10.00">RMF::HDF5::MutableAttributes</text>
<text text-anchor="middle" x="241" y="-123" font-family="Helvetica,sans-Serif" font-size="10.00">&lt; ConstGroup &gt;</text>
</a>
</g>
</g>
<!-- Node3&#45;&gt;Node2 -->
<g id="edge2" class="edge"><title>Node3&#45;&gt;Node2</title>
<path fill="none" stroke="midnightblue" d="M241,-106.588C241,-96.2132 241,-84.6798 241,-77.1595"/>
<polygon fill="midnightblue" stroke="midnightblue" points="237.5,-106.764 241,-116.764 244.5,-106.764 237.5,-106.764"/>
</g>
<!-- Node4 -->
<g id="node4" class="node"><title>Node4</title>
<g id="a_node4"><a xlink:href="classRMF_1_1HDF5_1_1ConstGroup.html" target="_top" xlink:title="RMF::HDF5::ConstGroup">
<polygon fill="none" stroke="black" points="57.5986,-198 57.5986,-216 186.401,-216 186.401,-198 57.5986,-198"/>
<text text-anchor="middle" x="122" y="-204" font-family="Helvetica,sans-Serif" font-size="10.00">RMF::HDF5::ConstGroup</text>
</a>
</g>
</g>
<!-- Node4&#45;&gt;Node3 -->
<g id="edge3" class="edge"><title>Node4&#45;&gt;Node3</title>
<path fill="none" stroke="midnightblue" d="M143.689,-192.513C165.299,-179.075 198.271,-158.571 219.732,-145.226"/>
<polygon fill="midnightblue" stroke="midnightblue" points="141.833,-189.545 135.19,-197.798 145.53,-195.489 141.833,-189.545"/>
</g>
<!-- Node5 -->
<g id="node5" class="node"><title>Node5</title>
<g id="a_node5"><a xlink:href="classRMF_1_1HDF5_1_1ConstAttributes.html" target="_top" xlink:title="RMF::HDF5::ConstAttributes\l\&lt; Object \&gt;">
<polygon fill="none" stroke="black" points="50.3745,-261 50.3745,-289 193.625,-289 193.625,-261 50.3745,-261"/>
<text text-anchor="start" x="58.3745" y="-277" font-family="Helvetica,sans-Serif" font-size="10.00">RMF::HDF5::ConstAttributes</text>
<text text-anchor="middle" x="122" y="-267" font-family="Helvetica,sans-Serif" font-size="10.00">&lt; Object &gt;</text>
</a>
</g>
</g>
<!-- Node5&#45;&gt;Node4 -->
<g id="edge4" class="edge"><title>Node5&#45;&gt;Node4</title>
<path fill="none" stroke="midnightblue" d="M122,-250.611C122,-238.539 122,-224.587 122,-216.029"/>
<polygon fill="midnightblue" stroke="midnightblue" points="118.5,-250.96 122,-260.961 125.5,-250.961 118.5,-250.96"/>
</g>
<!-- Node6 -->
<g id="node6" class="node"><title>Node6</title>
<g id="a_node6"><a xlink:href="classRMF_1_1HDF5_1_1Object.html" target="_top" xlink:title="RMF::HDF5::Object">
<polygon fill="none" stroke="black" points="-0.894043,-342 -0.894043,-360 102.894,-360 102.894,-342 -0.894043,-342"/>
<text text-anchor="middle" x="51" y="-348" font-family="Helvetica,sans-Serif" font-size="10.00">RMF::HDF5::Object</text>
</a>
</g>
</g>
<!-- Node6&#45;&gt;Node5 -->
<g id="edge5" class="edge"><title>Node6&#45;&gt;Node5</title>
<path fill="none" stroke="midnightblue" d="M66.0688,-334.294C78.9218,-320.898 97.1919,-301.856 109.31,-289.226"/>
<polygon fill="midnightblue" stroke="midnightblue" points="63.2673,-332.159 58.8695,-341.798 68.3184,-337.005 63.2673,-332.159"/>
</g>
<!-- Node7 -->
<g id="node7" class="node"><title>Node7</title>
<g id="a_node7"><a xlink:href="classRMF_1_1HDF5_1_1ConstAttributes.html" target="_top" xlink:title="RMF::HDF5::ConstAttributes\l\&lt; Base \&gt;">
<polygon fill="none" stroke="black" points="121.375,-337 121.375,-365 264.625,-365 264.625,-337 121.375,-337"/>
<text text-anchor="start" x="129.375" y="-353" font-family="Helvetica,sans-Serif" font-size="10.00">RMF::HDF5::ConstAttributes</text>
<text text-anchor="middle" x="193" y="-343" font-family="Helvetica,sans-Serif" font-size="10.00">&lt; Base &gt;</text>
</a>
</g>
</g>
<!-- Node7&#45;&gt;Node5 -->
<g id="edge6" class="edge"><title>Node7&#45;&gt;Node5</title>
<path fill="none" stroke="orange" stroke-dasharray="5,2" d="M173.094,-329.253C160.745,-316.382 145.253,-300.235 134.583,-289.115"/>
<polygon fill="orange" stroke="orange" points="170.858,-331.978 180.307,-336.77 175.909,-327.131 170.858,-331.978"/>
<text text-anchor="middle" x="186.458" y="-310" font-family="Helvetica,sans-Serif" font-size="10.00"> &lt; Object &gt;</text>
</g>
<!-- Node8 -->
<g id="node8" class="node"><title>Node8</title>
<g id="a_node8"><a xlink:href="classRMF_1_1HDF5_1_1MutableAttributes.html" target="_top" xlink:title="RMF::HDF5::MutableAttributes\l\&lt; Base \&gt;">
<polygon fill="none" stroke="black" points="204.648,-193 204.648,-221 357.352,-221 357.352,-193 204.648,-193"/>
<text text-anchor="start" x="212.648" y="-209" font-family="Helvetica,sans-Serif" font-size="10.00">RMF::HDF5::MutableAttributes</text>
<text text-anchor="middle" x="281" y="-199" font-family="Helvetica,sans-Serif" font-size="10.00">&lt; Base &gt;</text>
</a>
</g>
</g>
<!-- Node8&#45;&gt;Node3 -->
<g id="edge7" class="edge"><title>Node8&#45;&gt;Node3</title>
<path fill="none" stroke="orange" stroke-dasharray="5,2" d="M268.991,-183.783C262.173,-171.17 253.873,-155.816 248.089,-145.115"/>
<polygon fill="orange" stroke="orange" points="266.015,-185.638 273.849,-192.77 272.173,-182.309 266.015,-185.638"/>
<text text-anchor="middle" x="300.965" y="-166" font-family="Helvetica,sans-Serif" font-size="10.00"> &lt; ConstGroup &gt;</text>
</g>
</g>
</svg>
