<?xml version="1.0" encoding="UTF-8" standalone="no"?>
<!DOCTYPE svg PUBLIC "-//W3C//DTD SVG 1.1//EN"
 "http://www.w3.org/Graphics/SVG/1.1/DTD/svg11.dtd">
<!-- Generated by graphviz version 2.34.0 (20131025.1349)
 -->
<!-- Title: RMF::Factory Pages: 1 -->
<svg width="286pt" height="1210pt"
 viewBox="0.00 0.00 286.00 1210.00" xmlns="http://www.w3.org/2000/svg" xmlns:xlink="http://www.w3.org/1999/xlink">
<g id="graph0" class="graph" transform="scale(1 1) rotate(0) translate(4 1206)">
<title>RMF::Factory</title>
<!-- Node1 -->
<g id="node1" class="node"><title>Node1</title>
<polygon fill="#bfbfbf" stroke="black" points="0.72168,-609 0.72168,-629 77.2783,-629 77.2783,-609 0.72168,-609"/>
<text text-anchor="middle" x="39" y="-615" font-family="Helvetica,sans-Serif" font-size="10.00">RMF::Factory</text>
</g>
<!-- Node2 -->
<g id="node2" class="node"><title>Node2</title>
<g id="a_node2"><a xlink:href="classRMF_1_1decorator_1_1AliasFactory.html" target="_top" xlink:title="RMF::decorator::AliasFactory">
<polygon fill="none" stroke="black" points="122.983,-1182 122.983,-1202 269.017,-1202 269.017,-1182 122.983,-1182"/>
<text text-anchor="middle" x="196" y="-1188" font-family="Helvetica,sans-Serif" font-size="10.00">RMF::decorator::AliasFactory</text>
</a>
</g>
</g>
<!-- Node1&#45;&gt;Node2 -->
<g id="edge1" class="edge"><title>Node1&#45;&gt;Node2</title>
<path fill="none" stroke="midnightblue" d="M39.7829,-639.342C39.246,-729.403 41.6818,-1091.33 114,-1172 117.578,-1175.99 121.813,-1179.25 126.441,-1181.89"/>
<polygon fill="midnightblue" stroke="midnightblue" points="43.2846,-639.141 39.865,-629.113 36.2848,-639.085 43.2846,-639.141"/>
</g>
<!-- Node3 -->
<g id="node3" class="node"><title>Node3</title>
<g id="a_node3"><a xlink:href="classRMF_1_1decorator_1_1AlternativesFactory.html" target="_top" xlink:title="RMF::decorator::Alternatives\lFactory">
<polygon fill="none" stroke="black" points="124.367,-1131 124.367,-1163 267.633,-1163 267.633,-1131 124.367,-1131"/>
<text text-anchor="start" x="132.367" y="-1149" font-family="Helvetica,sans-Serif" font-size="10.00">RMF::decorator::Alternatives</text>
<text text-anchor="middle" x="196" y="-1137" font-family="Helvetica,sans-Serif" font-size="10.00">Factory</text>
</a>
</g>
</g>
<!-- Node1&#45;&gt;Node3 -->
<g id="edge2" class="edge"><title>Node1&#45;&gt;Node3</title>
<path fill="none" stroke="midnightblue" d="M40.2262,-639.489C41.5692,-724.245 50.8161,-1046.48 114,-1121 117.248,-1124.83 121.061,-1128.1 125.233,-1130.89"/>
<polygon fill="midnightblue" stroke="midnightblue" points="43.7241,-639.305 40.0867,-629.354 36.7248,-639.401 43.7241,-639.305"/>
</g>
<!-- Node4 -->
<g id="node4" class="node"><title>Node4</title>
<g id="a_node4"><a xlink:href="classRMF_1_1decorator_1_1AtomFactory.html" target="_top" xlink:title="RMF::decorator::AtomFactory">
<polygon fill="none" stroke="black" points="122.15,-1092 122.15,-1112 269.85,-1112 269.85,-1092 122.15,-1092"/>
<text text-anchor="middle" x="196" y="-1098" font-family="Helvetica,sans-Serif" font-size="10.00">RMF::decorator::AtomFactory</text>
</a>
</g>
</g>
<!-- Node1&#45;&gt;Node4 -->
<g id="edge3" class="edge"><title>Node1&#45;&gt;Node4</title>
<path fill="none" stroke="midnightblue" d="M40.3658,-639.267C42.2361,-719.788 53.206,-1015.9 114,-1082 117.628,-1085.94 121.899,-1089.17 126.552,-1091.79"/>
<polygon fill="midnightblue" stroke="midnightblue" points="43.8595,-638.929 40.151,-629.005 36.8611,-639.076 43.8595,-638.929"/>
</g>
<!-- Node5 -->
<g id="node5" class="node"><title>Node5</title>
<g id="a_node5"><a xlink:href="classRMF_1_1decorator_1_1BackwardsCompatibilityFragmentFactory.html" target="_top" xlink:title="RMF::decorator::Backwards\lCompatibilityFragmentFactory">
<polygon fill="none" stroke="black" points="121.313,-1041 121.313,-1073 270.687,-1073 270.687,-1041 121.313,-1041"/>
<text text-anchor="start" x="129.313" y="-1059" font-family="Helvetica,sans-Serif" font-size="10.00">RMF::decorator::Backwards</text>
<text text-anchor="middle" x="196" y="-1047" font-family="Helvetica,sans-Serif" font-size="10.00">CompatibilityFragmentFactory</text>
</a>
</g>
</g>
<!-- Node1&#45;&gt;Node5 -->
<g id="edge4" class="edge"><title>Node1&#45;&gt;Node5</title>
<path fill="none" stroke="midnightblue" d="M40.9672,-639.758C44.8744,-714.902 61.8673,-971.435 114,-1031 117.307,-1034.78 121.165,-1038.01 125.368,-1040.78"/>
<polygon fill="midnightblue" stroke="midnightblue" points="44.4404,-639.127 40.4491,-629.313 37.449,-639.474 44.4404,-639.127"/>
</g>
<!-- Node6 -->
<g id="node6" class="node"><title>Node6</title>
<g id="a_node6"><a xlink:href="classRMF_1_1decorator_1_1BallFactory.html" target="_top" xlink:title="RMF::decorator::BallFactory">
<polygon fill="none" stroke="black" points="125.483,-1002 125.483,-1022 266.517,-1022 266.517,-1002 125.483,-1002"/>
<text text-anchor="middle" x="196" y="-1008" font-family="Helvetica,sans-Serif" font-size="10.00">RMF::decorator::BallFactory</text>
</a>
</g>
</g>
<!-- Node1&#45;&gt;Node6 -->
<g id="edge5" class="edge"><title>Node1&#45;&gt;Node6</title>
<path fill="none" stroke="midnightblue" d="M41.2199,-639.257C45.853,-709.381 64.6589,-940.324 114,-992 117.801,-995.981 122.258,-999.221 127.094,-1001.85"/>
<polygon fill="midnightblue" stroke="midnightblue" points="44.7017,-638.858 40.5751,-629.099 37.7158,-639.301 44.7017,-638.858"/>
</g>
<!-- Node7 -->
<g id="node7" class="node"><title>Node7</title>
<g id="a_node7"><a xlink:href="classRMF_1_1decorator_1_1BondFactory.html" target="_top" xlink:title="RMF::decorator::BondFactory">
<polygon fill="none" stroke="black" points="122.143,-963 122.143,-983 269.857,-983 269.857,-963 122.143,-963"/>
<text text-anchor="middle" x="196" y="-969" font-family="Helvetica,sans-Serif" font-size="10.00">RMF::decorator::BondFactory</text>
</a>
</g>
</g>
<!-- Node1&#45;&gt;Node7 -->
<g id="edge6" class="edge"><title>Node1&#45;&gt;Node7</title>
<path fill="none" stroke="midnightblue" d="M41.7252,-639.218C47.6938,-704.412 69.5773,-907.496 114,-953 117.946,-957.042 122.57,-960.317 127.573,-962.964"/>
<polygon fill="midnightblue" stroke="midnightblue" points="45.1915,-638.682 40.8208,-629.03 38.2189,-639.301 45.1915,-638.682"/>
</g>
<!-- Node8 -->
<g id="node8" class="node"><title>Node8</title>
<g id="a_node8"><a xlink:href="classRMF_1_1decorator_1_1ChainFactory.html" target="_top" xlink:title="RMF::decorator::ChainFactory">
<polygon fill="none" stroke="black" points="120.756,-924 120.756,-944 271.244,-944 271.244,-924 120.756,-924"/>
<text text-anchor="middle" x="196" y="-930" font-family="Helvetica,sans-Serif" font-size="10.00">RMF::decorator::ChainFactory</text>
</a>
</g>
</g>
<!-- Node1&#45;&gt;Node8 -->
<g id="edge7" class="edge"><title>Node1&#45;&gt;Node8</title>
<path fill="none" stroke="midnightblue" d="M42.3578,-639.175C49.7672,-699.148 74.4664,-874.613 114,-914 118.002,-917.987 122.664,-921.224 127.693,-923.846"/>
<polygon fill="midnightblue" stroke="midnightblue" points="45.8133,-638.594 41.1413,-629.085 38.8636,-639.432 45.8133,-638.594"/>
</g>
<!-- Node9 -->
<g id="node9" class="node"><title>Node9</title>
<g id="a_node9"><a xlink:href="classRMF_1_1decorator_1_1ColoredFactory.html" target="_top" xlink:title="RMF::decorator::ColoredFactory">
<polygon fill="none" stroke="black" points="116.311,-885 116.311,-905 275.689,-905 275.689,-885 116.311,-885"/>
<text text-anchor="middle" x="196" y="-891" font-family="Helvetica,sans-Serif" font-size="10.00">RMF::decorator::ColoredFactory</text>
</a>
</g>
</g>
<!-- Node1&#45;&gt;Node9 -->
<g id="edge8" class="edge"><title>Node1&#45;&gt;Node9</title>
<path fill="none" stroke="midnightblue" d="M39.4964,-639.186C39.4535,-687.383 46.3834,-809.991 114,-875 118.177,-879.016 123.026,-882.265 128.235,-884.889"/>
<polygon fill="midnightblue" stroke="midnightblue" points="42.9971,-639.137 39.6135,-629.097 35.9976,-639.055 42.9971,-639.137"/>
</g>
<!-- Node10 -->
<g id="node10" class="node"><title>Node10</title>
<g id="a_node10"><a xlink:href="classRMF_1_1decorator_1_1CopyFactory.html" target="_top" xlink:title="RMF::decorator::CopyFactory">
<polygon fill="none" stroke="black" points="122.148,-846 122.148,-866 269.852,-866 269.852,-846 122.148,-846"/>
<text text-anchor="middle" x="196" y="-852" font-family="Helvetica,sans-Serif" font-size="10.00">RMF::decorator::CopyFactory</text>
</a>
</g>
</g>
<!-- Node1&#45;&gt;Node10 -->
<g id="edge9" class="edge"><title>Node1&#45;&gt;Node10</title>
<path fill="none" stroke="midnightblue" d="M40.7554,-639.582C43.4927,-682.701 56.0991,-782.907 114,-836 118.377,-840.014 123.43,-843.255 128.83,-845.868"/>
<polygon fill="midnightblue" stroke="midnightblue" points="44.244,-639.271 40.2327,-629.465 37.2534,-639.632 44.244,-639.271"/>
</g>
<!-- Node11 -->
<g id="node11" class="node"><title>Node11</title>
<g id="a_node11"><a xlink:href="classRMF_1_1decorator_1_1CylinderFactory.html" target="_top" xlink:title="RMF::decorator::Cylinder\lFactory">
<polygon fill="none" stroke="black" points="132.15,-795 132.15,-827 259.85,-827 259.85,-795 132.15,-795"/>
<text text-anchor="start" x="140.15" y="-813" font-family="Helvetica,sans-Serif" font-size="10.00">RMF::decorator::Cylinder</text>
<text text-anchor="middle" x="196" y="-801" font-family="Helvetica,sans-Serif" font-size="10.00">Factory</text>
</a>
</g>
</g>
<!-- Node1&#45;&gt;Node11 -->
<g id="edge10" class="edge"><title>Node1&#45;&gt;Node11</title>
<path fill="none" stroke="midnightblue" d="M43.4754,-639.205C50.5093,-673.99 69.6982,-745.272 114,-785 119.278,-789.733 125.424,-793.605 131.928,-796.773"/>
<polygon fill="midnightblue" stroke="midnightblue" points="46.8962,-638.457 41.6024,-629.279 40.0176,-639.755 46.8962,-638.457"/>
</g>
<!-- Node12 -->
<g id="node12" class="node"><title>Node12</title>
<g id="a_node12"><a xlink:href="classRMF_1_1decorator_1_1DiffuserFactory.html" target="_top" xlink:title="RMF::decorator::Diffuser\lFactory">
<polygon fill="none" stroke="black" points="133.352,-744 133.352,-776 258.648,-776 258.648,-744 133.352,-744"/>
<text text-anchor="start" x="141.352" y="-762" font-family="Helvetica,sans-Serif" font-size="10.00">RMF::decorator::Diffuser</text>
<text text-anchor="middle" x="196" y="-750" font-family="Helvetica,sans-Serif" font-size="10.00">Factory</text>
</a>
</g>
</g>
<!-- Node1&#45;&gt;Node12 -->
<g id="edge11" class="edge"><title>Node1&#45;&gt;Node12</title>
<path fill="none" stroke="midnightblue" d="M47.6578,-638.697C58.591,-664.298 81.0642,-708.711 114,-734 119.74,-738.407 126.25,-742.08 133.026,-745.138"/>
<polygon fill="midnightblue" stroke="midnightblue" points="50.8311,-637.21 43.7988,-629.285 44.3544,-639.866 50.8311,-637.21"/>
</g>
<!-- Node13 -->
<g id="node13" class="node"><title>Node13</title>
<g id="a_node13"><a xlink:href="classRMF_1_1decorator_1_1DomainFactory.html" target="_top" xlink:title="RMF::decorator::DomainFactory">
<polygon fill="none" stroke="black" points="116.591,-705 116.591,-725 275.409,-725 275.409,-705 116.591,-705"/>
<text text-anchor="middle" x="196" y="-711" font-family="Helvetica,sans-Serif" font-size="10.00">RMF::decorator::DomainFactory</text>
</a>
</g>
</g>
<!-- Node1&#45;&gt;Node13 -->
<g id="edge12" class="edge"><title>Node1&#45;&gt;Node13</title>
<path fill="none" stroke="midnightblue" d="M53.0328,-637.395C66.3734,-654.847 88.6924,-680.496 114,-695 121.163,-699.105 129.152,-702.374 137.244,-704.975"/>
<polygon fill="midnightblue" stroke="midnightblue" points="55.6694,-635.074 46.9066,-629.119 50.0431,-639.239 55.6694,-635.074"/>
</g>
<!-- Node14 -->
<g id="node14" class="node"><title>Node14</title>
<g id="a_node14"><a xlink:href="classRMF_1_1decorator_1_1EllipsoidFactory.html" target="_top" xlink:title="RMF::decorator::Ellipsoid\lFactory">
<polygon fill="none" stroke="black" points="131.87,-654 131.87,-686 260.13,-686 260.13,-654 131.87,-654"/>
<text text-anchor="start" x="139.87" y="-672" font-family="Helvetica,sans-Serif" font-size="10.00">RMF::decorator::Ellipsoid</text>
<text text-anchor="middle" x="196" y="-660" font-family="Helvetica,sans-Serif" font-size="10.00">Factory</text>
</a>
</g>
</g>
<!-- Node1&#45;&gt;Node14 -->
<g id="edge13" class="edge"><title>Node1&#45;&gt;Node14</title>
<path fill="none" stroke="midnightblue" d="M79.0695,-632.323C90.3317,-636.13 102.644,-640.259 114,-644 123.819,-647.234 134.325,-650.644 144.408,-653.891"/>
<polygon fill="midnightblue" stroke="midnightblue" points="80.0875,-628.972 69.4932,-629.078 77.8413,-635.602 80.0875,-628.972"/>
</g>
<!-- Node15 -->
<g id="node15" class="node"><title>Node15</title>
<g id="a_node15"><a xlink:href="classRMF_1_1decorator_1_1ExternalFactory.html" target="_top" xlink:title="RMF::decorator::External\lFactory">
<polygon fill="none" stroke="black" points="132.148,-603 132.148,-635 259.852,-635 259.852,-603 132.148,-603"/>
<text text-anchor="start" x="140.148" y="-621" font-family="Helvetica,sans-Serif" font-size="10.00">RMF::decorator::External</text>
<text text-anchor="middle" x="196" y="-609" font-family="Helvetica,sans-Serif" font-size="10.00">Factory</text>
</a>
</g>
</g>
<!-- Node1&#45;&gt;Node15 -->
<g id="edge14" class="edge"><title>Node1&#45;&gt;Node15</title>
<path fill="none" stroke="midnightblue" d="M87.8821,-619C101.866,-619 117.364,-619 132.127,-619"/>
<polygon fill="midnightblue" stroke="midnightblue" points="87.5212,-615.5 77.5212,-619 87.5211,-622.5 87.5212,-615.5"/>
</g>
<!-- Node16 -->
<g id="node16" class="node"><title>Node16</title>
<g id="a_node16"><a xlink:href="classRMF_1_1decorator_1_1FragmentFactory.html" target="_top" xlink:title="RMF::decorator::Fragment\lFactory">
<polygon fill="none" stroke="black" points="129.094,-552 129.094,-584 262.906,-584 262.906,-552 129.094,-552"/>
<text text-anchor="start" x="137.094" y="-570" font-family="Helvetica,sans-Serif" font-size="10.00">RMF::decorator::Fragment</text>
<text text-anchor="middle" x="196" y="-558" font-family="Helvetica,sans-Serif" font-size="10.00">Factory</text>
</a>
</g>
</g>
<!-- Node1&#45;&gt;Node16 -->
<g id="edge15" class="edge"><title>Node1&#45;&gt;Node16</title>
<path fill="none" stroke="midnightblue" d="M79.0695,-605.677C90.3317,-601.87 102.644,-597.741 114,-594 123.819,-590.766 134.325,-587.356 144.408,-584.109"/>
<polygon fill="midnightblue" stroke="midnightblue" points="77.8413,-602.398 69.4932,-608.922 80.0875,-609.028 77.8413,-602.398"/>
</g>
<!-- Node17 -->
<g id="node17" class="node"><title>Node17</title>
<g id="a_node17"><a xlink:href="classRMF_1_1decorator_1_1GaussianParticleFactory.html" target="_top" xlink:title="RMF::decorator::Gaussian\lParticleFactory">
<polygon fill="none" stroke="black" points="129.367,-501 129.367,-533 262.633,-533 262.633,-501 129.367,-501"/>
<text text-anchor="start" x="137.367" y="-519" font-family="Helvetica,sans-Serif" font-size="10.00">RMF::decorator::Gaussian</text>
<text text-anchor="middle" x="196" y="-507" font-family="Helvetica,sans-Serif" font-size="10.00">ParticleFactory</text>
</a>
</g>
</g>
<!-- Node1&#45;&gt;Node17 -->
<g id="edge16" class="edge"><title>Node1&#45;&gt;Node17</title>
<path fill="none" stroke="midnightblue" d="M53.4746,-600.701C67.005,-583.535 89.3374,-558.28 114,-543 120.152,-539.189 126.916,-535.884 133.833,-533.031"/>
<polygon fill="midnightblue" stroke="midnightblue" points="50.5386,-598.779 47.2357,-608.845 56.0955,-603.036 50.5386,-598.779"/>
</g>
<!-- Node18 -->
<g id="node18" class="node"><title>Node18</title>
<g id="a_node18"><a xlink:href="classRMF_1_1decorator_1_1IntermediateParticleFactory.html" target="_top" xlink:title="RMF::decorator::Intermediate\lParticleFactory">
<polygon fill="none" stroke="black" points="122.697,-450 122.697,-482 269.303,-482 269.303,-450 122.697,-450"/>
<text text-anchor="start" x="130.697" y="-468" font-family="Helvetica,sans-Serif" font-size="10.00">RMF::decorator::Intermediate</text>
<text text-anchor="middle" x="196" y="-456" font-family="Helvetica,sans-Serif" font-size="10.00">ParticleFactory</text>
</a>
</g>
</g>
<!-- Node1&#45;&gt;Node18 -->
<g id="edge17" class="edge"><title>Node1&#45;&gt;Node18</title>
<path fill="none" stroke="midnightblue" d="M46.3733,-599.263C56.3724,-571.369 78.37,-520.631 114,-492 118.72,-488.207 124.006,-484.962 129.556,-482.187"/>
<polygon fill="midnightblue" stroke="midnightblue" points="43.0561,-598.147 43.1251,-608.741 49.6781,-600.416 43.0561,-598.147"/>
</g>
<!-- Node19 -->
<g id="node19" class="node"><title>Node19</title>
<g id="a_node19"><a xlink:href="classRMF_1_1decorator_1_1JournalArticleFactory.html" target="_top" xlink:title="RMF::decorator::JournalArticle\lFactory">
<polygon fill="none" stroke="black" points="120.2,-399 120.2,-431 271.8,-431 271.8,-399 120.2,-399"/>
<text text-anchor="start" x="128.2" y="-417" font-family="Helvetica,sans-Serif" font-size="10.00">RMF::decorator::JournalArticle</text>
<text text-anchor="middle" x="196" y="-405" font-family="Helvetica,sans-Serif" font-size="10.00">Factory</text>
</a>
</g>
</g>
<!-- Node1&#45;&gt;Node19 -->
<g id="edge18" class="edge"><title>Node1&#45;&gt;Node19</title>
<path fill="none" stroke="midnightblue" d="M42.7698,-598.897C48.8765,-562.239 66.9017,-484.326 114,-441 118.13,-437.2 122.819,-433.956 127.81,-431.185"/>
<polygon fill="midnightblue" stroke="midnightblue" points="39.2975,-598.45 41.2382,-608.865 46.2163,-599.513 39.2975,-598.45"/>
</g>
<!-- Node20 -->
<g id="node20" class="node"><title>Node20</title>
<g id="a_node20"><a xlink:href="classRMF_1_1decorator_1_1ParticleFactory.html" target="_top" xlink:title="RMF::decorator::Particle\lFactory">
<polygon fill="none" stroke="black" points="133.818,-348 133.818,-380 258.182,-380 258.182,-348 133.818,-348"/>
<text text-anchor="start" x="141.818" y="-366" font-family="Helvetica,sans-Serif" font-size="10.00">RMF::decorator::Particle</text>
<text text-anchor="middle" x="196" y="-354" font-family="Helvetica,sans-Serif" font-size="10.00">Factory</text>
</a>
</g>
</g>
<!-- Node1&#45;&gt;Node20 -->
<g id="edge19" class="edge"><title>Node1&#45;&gt;Node20</title>
<path fill="none" stroke="midnightblue" d="M40.6307,-598.534C43.1142,-554.216 55.2383,-448.647 114,-390 119.54,-384.47 126.259,-380.116 133.429,-376.687"/>
<polygon fill="midnightblue" stroke="midnightblue" points="37.1289,-598.497 40.1769,-608.644 44.1219,-598.811 37.1289,-598.497"/>
</g>
<!-- Node21 -->
<g id="node21" class="node"><title>Node21</title>
<g id="a_node21"><a xlink:href="classRMF_1_1decorator_1_1ReferenceFrameFactory.html" target="_top" xlink:title="RMF::decorator::Reference\lFrameFactory">
<polygon fill="none" stroke="black" points="127.421,-297 127.421,-329 264.579,-329 264.579,-297 127.421,-297"/>
<text text-anchor="start" x="135.421" y="-315" font-family="Helvetica,sans-Serif" font-size="10.00">RMF::decorator::Reference</text>
<text text-anchor="middle" x="196" y="-303" font-family="Helvetica,sans-Serif" font-size="10.00">FrameFactory</text>
</a>
</g>
</g>
<!-- Node1&#45;&gt;Node21 -->
<g id="edge20" class="edge"><title>Node1&#45;&gt;Node21</title>
<path fill="none" stroke="midnightblue" d="M39.1864,-598.668C38.2961,-547.768 43.1936,-413.604 114,-339 117.864,-334.929 122.365,-331.494 127.229,-328.596"/>
<polygon fill="midnightblue" stroke="midnightblue" points="35.6964,-599.08 39.4714,-608.979 42.6937,-598.886 35.6964,-599.08"/>
</g>
<!-- Node22 -->
<g id="node22" class="node"><title>Node22</title>
<g id="a_node22"><a xlink:href="classRMF_1_1decorator_1_1RepresentationFactory.html" target="_top" xlink:title="RMF::decorator::Representation\lFactory">
<polygon fill="none" stroke="black" points="116.579,-246 116.579,-278 275.421,-278 275.421,-246 116.579,-246"/>
<text text-anchor="start" x="124.579" y="-264" font-family="Helvetica,sans-Serif" font-size="10.00">RMF::decorator::Representation</text>
<text text-anchor="middle" x="196" y="-252" font-family="Helvetica,sans-Serif" font-size="10.00">Factory</text>
</a>
</g>
</g>
<!-- Node1&#45;&gt;Node22 -->
<g id="edge21" class="edge"><title>Node1&#45;&gt;Node22</title>
<path fill="none" stroke="midnightblue" d="M41.921,-598.654C48.4195,-533.951 71.5779,-334.453 114,-288 117.486,-284.183 121.533,-280.924 125.922,-278.141"/>
<polygon fill="midnightblue" stroke="midnightblue" points="38.4199,-598.495 40.93,-608.789 45.3867,-599.177 38.4199,-598.495"/>
</g>
<!-- Node23 -->
<g id="node23" class="node"><title>Node23</title>
<g id="a_node23"><a xlink:href="classRMF_1_1decorator_1_1ResidueFactory.html" target="_top" xlink:title="RMF::decorator::ResidueFactory">
<polygon fill="none" stroke="black" points="115.476,-207 115.476,-227 276.524,-227 276.524,-207 115.476,-207"/>
<text text-anchor="middle" x="196" y="-213" font-family="Helvetica,sans-Serif" font-size="10.00">RMF::decorator::ResidueFactory</text>
</a>
</g>
</g>
<!-- Node1&#45;&gt;Node23 -->
<g id="edge22" class="edge"><title>Node1&#45;&gt;Node23</title>
<path fill="none" stroke="midnightblue" d="M41.1464,-598.259C45.5357,-526.459 63.632,-289.99 114,-237 117.792,-233.01 122.243,-229.765 127.074,-227.13"/>
<polygon fill="midnightblue" stroke="midnightblue" points="37.628,-598.472 40.5376,-608.659 44.6161,-598.881 37.628,-598.472"/>
</g>
<!-- Node24 -->
<g id="node24" class="node"><title>Node24</title>
<g id="a_node24"><a xlink:href="classRMF_1_1decorator_1_1RigidParticleFactory.html" target="_top" xlink:title="RMF::decorator::RigidParticle\lFactory">
<polygon fill="none" stroke="black" points="122.424,-156 122.424,-188 269.576,-188 269.576,-156 122.424,-156"/>
<text text-anchor="start" x="130.424" y="-174" font-family="Helvetica,sans-Serif" font-size="10.00">RMF::decorator::RigidParticle</text>
<text text-anchor="middle" x="196" y="-162" font-family="Helvetica,sans-Serif" font-size="10.00">Factory</text>
</a>
</g>
</g>
<!-- Node1&#45;&gt;Node24 -->
<g id="edge23" class="edge"><title>Node1&#45;&gt;Node24</title>
<path fill="none" stroke="midnightblue" d="M40.8551,-598.759C44.4417,-523.247 60.6517,-259.183 114,-198 117.3,-194.215 121.152,-190.977 125.352,-188.207"/>
<polygon fill="midnightblue" stroke="midnightblue" points="37.3545,-598.697 40.3993,-608.845 44.3473,-599.013 37.3545,-598.697"/>
</g>
<!-- Node25 -->
<g id="node25" class="node"><title>Node25</title>
<g id="a_node25"><a xlink:href="classRMF_1_1decorator_1_1ScoreFactory.html" target="_top" xlink:title="RMF::decorator::ScoreFactory">
<polygon fill="none" stroke="black" points="120.759,-117 120.759,-137 271.241,-137 271.241,-117 120.759,-117"/>
<text text-anchor="middle" x="196" y="-123" font-family="Helvetica,sans-Serif" font-size="10.00">RMF::decorator::ScoreFactory</text>
</a>
</g>
</g>
<!-- Node1&#45;&gt;Node25 -->
<g id="edge24" class="edge"><title>Node1&#45;&gt;Node25</title>
<path fill="none" stroke="midnightblue" d="M40.3056,-598.342C41.9455,-516.269 52.1536,-214.446 114,-147 117.622,-143.05 121.889,-139.824 126.539,-137.195"/>
<polygon fill="midnightblue" stroke="midnightblue" points="36.798,-598.742 40.1206,-608.803 43.7969,-598.866 36.798,-598.742"/>
</g>
<!-- Node26 -->
<g id="node26" class="node"><title>Node26</title>
<g id="a_node26"><a xlink:href="classRMF_1_1decorator_1_1SegmentFactory.html" target="_top" xlink:title="RMF::decorator::SegmentFactory">
<polygon fill="none" stroke="black" points="113.808,-78 113.808,-98 278.192,-98 278.192,-78 113.808,-78"/>
<text text-anchor="middle" x="196" y="-84" font-family="Helvetica,sans-Serif" font-size="10.00">RMF::decorator::SegmentFactory</text>
</a>
</g>
</g>
<!-- Node1&#45;&gt;Node26 -->
<g id="edge25" class="edge"><title>Node1&#45;&gt;Node26</title>
<path fill="none" stroke="midnightblue" d="M40.0312,-598.584C40.5858,-512.705 47.0971,-181.822 114,-108 117.599,-104.029 121.85,-100.788 126.488,-98.1487"/>
<polygon fill="midnightblue" stroke="midnightblue" points="36.5303,-598.81 39.9872,-608.824 43.5302,-598.84 36.5303,-598.81"/>
</g>
<!-- Node27 -->
<g id="node27" class="node"><title>Node27</title>
<g id="a_node27"><a xlink:href="classRMF_1_1decorator_1_1StateFactory.html" target="_top" xlink:title="RMF::decorator::StateFactory">
<polygon fill="none" stroke="black" points="122.146,-39 122.146,-59 269.854,-59 269.854,-39 122.146,-39"/>
<text text-anchor="middle" x="196" y="-45" font-family="Helvetica,sans-Serif" font-size="10.00">RMF::decorator::StateFactory</text>
</a>
</g>
</g>
<!-- Node1&#45;&gt;Node27 -->
<g id="edge26" class="edge"><title>Node1&#45;&gt;Node27</title>
<path fill="none" stroke="midnightblue" d="M39.8,-598.767C39.3361,-509.191 42.0384,-149.212 114,-69 117.579,-65.0107 121.815,-61.7568 126.444,-59.1091"/>
<polygon fill="midnightblue" stroke="midnightblue" points="36.3012,-598.967 39.8737,-608.941 43.301,-598.916 36.3012,-598.967"/>
</g>
<!-- Node28 -->
<g id="node28" class="node"><title>Node28</title>
<g id="a_node28"><a xlink:href="classRMF_1_1decorator_1_1TypedFactory.html" target="_top" xlink:title="RMF::decorator::TypedFactory">
<polygon fill="none" stroke="black" points="120.197,-0 120.197,-20 271.803,-20 271.803,-0 120.197,-0"/>
<text text-anchor="middle" x="196" y="-6" font-family="Helvetica,sans-Serif" font-size="10.00">RMF::decorator::TypedFactory</text>
</a>
</g>
</g>
<!-- Node1&#45;&gt;Node28 -->
<g id="edge27" class="edge"><title>Node1&#45;&gt;Node28</title>
<path fill="none" stroke="midnightblue" d="M39.5961,-598.532C38.1732,-504.695 37.0795,-116.499 114,-30 117.561,-25.9951 121.785,-22.7301 126.406,-20.0747"/>
<polygon fill="midnightblue" stroke="midnightblue" points="36.0994,-598.756 39.7703,-608.694 43.0983,-598.636 36.0994,-598.756"/>
</g>
</g>
</svg>
