<?xml version="1.0" encoding="UTF-8" standalone="no"?>
<!DOCTYPE svg PUBLIC "-//W3C//DTD SVG 1.1//EN"
 "http://www.w3.org/Graphics/SVG/1.1/DTD/svg11.dtd">
<!-- Generated by graphviz version 2.34.0 (20131025.1349)
 -->
<!-- Title: RMF::decorator::Alternatives Pages: 1 -->
<svg width="150pt" height="158pt"
 viewBox="0.00 0.00 150.00 158.00" xmlns="http://www.w3.org/2000/svg" xmlns:xlink="http://www.w3.org/1999/xlink">
<g id="graph0" class="graph" transform="scale(1 1) rotate(0) translate(4 154)">
<title>RMF::decorator::Alternatives</title>
<!-- Node1 -->
<g id="node1" class="node"><title>Node1</title>
<polygon fill="#bfbfbf" stroke="black" points="-0.632812,-1 -0.632812,-21 142.633,-21 142.633,-1 -0.632812,-1"/>
<text text-anchor="middle" x="71" y="-7" font-family="Helvetica,sans-Serif" font-size="10.00">RMF::decorator::Alternatives</text>
</g>
<!-- Node2 -->
<g id="node2" class="node"><title>Node2</title>
<g id="a_node2"><a xlink:href="classRMF_1_1decorator_1_1AlternativesConst.html" target="_top" xlink:title="RMF::decorator::Alternatives\lConst">
<polygon fill="none" stroke="black" points="-0.632812,-59 -0.632812,-91 142.633,-91 142.633,-59 -0.632812,-59"/>
<text text-anchor="start" x="7.36719" y="-77" font-family="Helvetica,sans-Serif" font-size="10.00">RMF::decorator::Alternatives</text>
<text text-anchor="middle" x="71" y="-65" font-family="Helvetica,sans-Serif" font-size="10.00">Const</text>
</a>
</g>
</g>
<!-- Node2&#45;&gt;Node1 -->
<g id="edge1" class="edge"><title>Node2&#45;&gt;Node1</title>
<path fill="none" stroke="midnightblue" d="M71,-48.922C71,-39.1719 71,-28.6099 71,-21.2904"/>
<polygon fill="midnightblue" stroke="midnightblue" points="67.5001,-48.9915 71,-58.9915 74.5001,-48.9916 67.5001,-48.9915"/>
</g>
<!-- Node3 -->
<g id="node3" class="node"><title>Node3</title>
<g id="a_node3"><a xlink:href="classRMF_1_1Decorator.html" target="_top" xlink:title="The base class for decorators. ">
<polygon fill="none" stroke="black" points="27.4385,-129 27.4385,-149 114.562,-149 114.562,-129 27.4385,-129"/>
<text text-anchor="middle" x="71" y="-135" font-family="Helvetica,sans-Serif" font-size="10.00">RMF::Decorator</text>
</a>
</g>
</g>
<!-- Node3&#45;&gt;Node2 -->
<g id="edge2" class="edge"><title>Node3&#45;&gt;Node2</title>
<path fill="none" stroke="midnightblue" d="M71,-118.775C71,-109.986 71,-99.715 71,-91.4404"/>
<polygon fill="midnightblue" stroke="midnightblue" points="67.5001,-118.852 71,-128.852 74.5001,-118.852 67.5001,-118.852"/>
</g>
</g>
</svg>
