<?xml version="1.0" encoding="UTF-8" standalone="no"?>
<!DOCTYPE svg PUBLIC "-//W3C//DTD SVG 1.1//EN"
 "http://www.w3.org/Graphics/SVG/1.1/DTD/svg11.dtd">
<!-- Generated by graphviz version 2.34.0 (20131025.1349)
 -->
<!-- Title: RMF::Exception Pages: 1 -->
<svg width="507pt" height="88pt"
 viewBox="0.00 0.00 507.00 88.00" xmlns="http://www.w3.org/2000/svg" xmlns:xlink="http://www.w3.org/1999/xlink">
<g id="graph0" class="graph" transform="scale(1 1) rotate(0) translate(4 84)">
<title>RMF::Exception</title>
<!-- Node1 -->
<g id="node1" class="node"><title>Node1</title>
<polygon fill="#bfbfbf" stroke="black" points="208.434,-59 208.434,-79 295.566,-79 295.566,-59 208.434,-59"/>
<text text-anchor="middle" x="252" y="-65" font-family="Helvetica,sans-Serif" font-size="10.00">RMF::Exception</text>
</g>
<!-- Node2 -->
<g id="node2" class="node"><title>Node2</title>
<g id="a_node2"><a xlink:href="classRMF_1_1IndexException.html" target="_top" xlink:title="RMF::IndexException">
<polygon fill="none" stroke="black" points="-0.797852,-1 -0.797852,-21 110.798,-21 110.798,-1 -0.797852,-1"/>
<text text-anchor="middle" x="55" y="-7" font-family="Helvetica,sans-Serif" font-size="10.00">RMF::IndexException</text>
</a>
</g>
</g>
<!-- Node1&#45;&gt;Node2 -->
<g id="edge1" class="edge"><title>Node1&#45;&gt;Node2</title>
<path fill="none" stroke="midnightblue" d="M209.956,-56.0483C173.058,-45.5596 120.204,-30.5351 86.7497,-21.0253"/>
<polygon fill="midnightblue" stroke="midnightblue" points="209.334,-59.5102 219.91,-58.878 211.248,-52.777 209.334,-59.5102"/>
</g>
<!-- Node3 -->
<g id="node3" class="node"><title>Node3</title>
<g id="a_node3"><a xlink:href="classRMF_1_1InternalException.html" target="_top" xlink:title="RMF::InternalException">
<polygon fill="none" stroke="black" points="128.756,-1 128.756,-21 249.244,-21 249.244,-1 128.756,-1"/>
<text text-anchor="middle" x="189" y="-7" font-family="Helvetica,sans-Serif" font-size="10.00">RMF::InternalException</text>
</a>
</g>
</g>
<!-- Node1&#45;&gt;Node3 -->
<g id="edge2" class="edge"><title>Node1&#45;&gt;Node3</title>
<path fill="none" stroke="midnightblue" d="M233.996,-51.9967C222.718,-41.9719 208.594,-29.4171 199.21,-21.0752"/>
<polygon fill="midnightblue" stroke="midnightblue" points="231.797,-54.725 241.597,-58.7527 236.448,-49.4931 231.797,-54.725"/>
</g>
<!-- Node4 -->
<g id="node4" class="node"><title>Node4</title>
<g id="a_node4"><a xlink:href="classRMF_1_1IOException.html" target="_top" xlink:title="RMF::IOException">
<polygon fill="none" stroke="black" points="267.155,-1 267.155,-21 364.845,-21 364.845,-1 267.155,-1"/>
<text text-anchor="middle" x="316" y="-7" font-family="Helvetica,sans-Serif" font-size="10.00">RMF::IOException</text>
</a>
</g>
</g>
<!-- Node1&#45;&gt;Node4 -->
<g id="edge3" class="edge"><title>Node1&#45;&gt;Node4</title>
<path fill="none" stroke="midnightblue" d="M270.289,-51.9967C281.746,-41.9719 296.095,-29.4171 305.628,-21.0752"/>
<polygon fill="midnightblue" stroke="midnightblue" points="267.789,-49.5336 262.568,-58.7527 272.399,-54.8017 267.789,-49.5336"/>
</g>
<!-- Node5 -->
<g id="node5" class="node"><title>Node5</title>
<g id="a_node5"><a xlink:href="classRMF_1_1UsageException.html" target="_top" xlink:title="RMF::UsageException">
<polygon fill="none" stroke="black" points="382.98,-1 382.98,-21 499.02,-21 499.02,-1 382.98,-1"/>
<text text-anchor="middle" x="441" y="-7" font-family="Helvetica,sans-Serif" font-size="10.00">RMF::UsageException</text>
</a>
</g>
</g>
<!-- Node1&#45;&gt;Node5 -->
<g id="edge4" class="edge"><title>Node1&#45;&gt;Node5</title>
<path fill="none" stroke="midnightblue" d="M292.792,-55.9136C328.169,-45.4313 378.581,-30.4944 410.54,-21.0253"/>
<polygon fill="midnightblue" stroke="midnightblue" points="291.38,-52.6813 282.787,-58.878 293.369,-59.3928 291.38,-52.6813"/>
</g>
</g>
</svg>
