<?xml version="1.0" encoding="UTF-8" standalone="no"?>
<!DOCTYPE svg PUBLIC "-//W3C//DTD SVG 1.1//EN"
 "http://www.w3.org/Graphics/SVG/1.1/DTD/svg11.dtd">
<!-- Generated by graphviz version 2.34.0 (20131025.1349)
 -->
<!-- Title: RMF::decorator::Fragment Pages: 1 -->
<svg width="140pt" height="158pt"
 viewBox="0.00 0.00 140.00 158.00" xmlns="http://www.w3.org/2000/svg" xmlns:xlink="http://www.w3.org/1999/xlink">
<g id="graph0" class="graph" transform="scale(1 1) rotate(0) translate(4 154)">
<title>RMF::decorator::Fragment</title>
<!-- Node1 -->
<g id="node1" class="node"><title>Node1</title>
<polygon fill="#bfbfbf" stroke="black" points="-0.90625,-1 -0.90625,-21 132.906,-21 132.906,-1 -0.90625,-1"/>
<text text-anchor="middle" x="66" y="-7" font-family="Helvetica,sans-Serif" font-size="10.00">RMF::decorator::Fragment</text>
</g>
<!-- Node2 -->
<g id="node2" class="node"><title>Node2</title>
<g id="a_node2"><a xlink:href="classRMF_1_1decorator_1_1FragmentConst.html" target="_top" xlink:title="RMF::decorator::Fragment\lConst">
<polygon fill="none" stroke="black" points="-0.90625,-59 -0.90625,-91 132.906,-91 132.906,-59 -0.90625,-59"/>
<text text-anchor="start" x="7.09375" y="-77" font-family="Helvetica,sans-Serif" font-size="10.00">RMF::decorator::Fragment</text>
<text text-anchor="middle" x="66" y="-65" font-family="Helvetica,sans-Serif" font-size="10.00">Const</text>
</a>
</g>
</g>
<!-- Node2&#45;&gt;Node1 -->
<g id="edge1" class="edge"><title>Node2&#45;&gt;Node1</title>
<path fill="none" stroke="midnightblue" d="M66,-48.922C66,-39.1719 66,-28.6099 66,-21.2904"/>
<polygon fill="midnightblue" stroke="midnightblue" points="62.5001,-48.9915 66,-58.9915 69.5001,-48.9916 62.5001,-48.9915"/>
</g>
<!-- Node3 -->
<g id="node3" class="node"><title>Node3</title>
<g id="a_node3"><a xlink:href="classRMF_1_1Decorator.html" target="_top" xlink:title="RMF::Decorator">
<polygon fill="none" stroke="black" points="22.4385,-129 22.4385,-149 109.562,-149 109.562,-129 22.4385,-129"/>
<text text-anchor="middle" x="66" y="-135" font-family="Helvetica,sans-Serif" font-size="10.00">RMF::Decorator</text>
</a>
</g>
</g>
<!-- Node3&#45;&gt;Node2 -->
<g id="edge2" class="edge"><title>Node3&#45;&gt;Node2</title>
<path fill="none" stroke="midnightblue" d="M66,-118.775C66,-109.986 66,-99.715 66,-91.4404"/>
<polygon fill="midnightblue" stroke="midnightblue" points="62.5001,-118.852 66,-128.852 69.5001,-118.852 62.5001,-118.852"/>
</g>
</g>
</svg>
