<?xml version="1.0" encoding="UTF-8" standalone="no"?>
<!DOCTYPE svg PUBLIC "-//W3C//DTD SVG 1.1//EN"
 "http://www.w3.org/Graphics/SVG/1.1/DTD/svg11.dtd">
<!-- Generated by graphviz version 2.34.0 (20131025.1349)
 -->
<!-- Title: RMF::decorator::GaussianParticleFactory::get_is Pages: 1 -->
<svg width="304pt" height="91pt"
 viewBox="0.00 0.00 304.00 91.00" xmlns="http://www.w3.org/2000/svg" xmlns:xlink="http://www.w3.org/1999/xlink">
<g id="graph0" class="graph" transform="scale(1 1) rotate(0) translate(4 87)">
<title>RMF::decorator::GaussianParticleFactory::get_is</title>
<!-- Node1 -->
<g id="node1" class="node"><title>Node1</title>
<polygon fill="#bfbfbf" stroke="black" points="0.367188,-25 0.367188,-57 133.633,-57 133.633,-25 0.367188,-25"/>
<text text-anchor="start" x="8.36719" y="-43" font-family="Helvetica,sans-Serif" font-size="10.00">RMF::decorator::Gaussian</text>
<text text-anchor="middle" x="67" y="-31" font-family="Helvetica,sans-Serif" font-size="10.00">ParticleFactory::get_is</text>
</g>
<!-- Node2 -->
<g id="node2" class="node"><title>Node2</title>
<g id="a_node2"><a xlink:href="classRMF_1_1NodeConstHandle.html#a21e664736cab122b6151b95ef3f39dfc" target="_top" xlink:title="get the type of this node ">
<polygon fill="none" stroke="black" points="170.532,-51 170.532,-83 295.468,-83 295.468,-51 170.532,-51"/>
<text text-anchor="start" x="178.532" y="-69" font-family="Helvetica,sans-Serif" font-size="10.00">RMF::NodeConstHandle</text>
<text text-anchor="middle" x="233" y="-57" font-family="Helvetica,sans-Serif" font-size="10.00">::get_type</text>
</a>
</g>
</g>
<!-- Node1&#45;&gt;Node2 -->
<g id="edge1" class="edge"><title>Node1&#45;&gt;Node2</title>
<path fill="none" stroke="midnightblue" d="M133.76,-51.4254C142.566,-52.8214 151.631,-54.2586 160.529,-55.6692"/>
<polygon fill="midnightblue" stroke="midnightblue" points="160.056,-59.1378 170.48,-57.2469 161.152,-52.2242 160.056,-59.1378"/>
</g>
<!-- Node3 -->
<g id="node3" class="node"><title>Node3</title>
<g id="a_node3"><a xlink:href="classRMF_1_1NodeConstHandle.html#a6c5fe436d4565f3604d08362cd3951b0" target="_top" xlink:title="get the value of the attribute k from this node or null if it \ * doesn&#39;t have a value. \ ">
<polygon fill="none" stroke="black" points="170.532,-0 170.532,-32 295.468,-32 295.468,-0 170.532,-0"/>
<text text-anchor="start" x="178.532" y="-18" font-family="Helvetica,sans-Serif" font-size="10.00">RMF::NodeConstHandle</text>
<text text-anchor="middle" x="233" y="-6" font-family="Helvetica,sans-Serif" font-size="10.00">::get_value</text>
</a>
</g>
</g>
<!-- Node1&#45;&gt;Node3 -->
<g id="edge2" class="edge"><title>Node1&#45;&gt;Node3</title>
<path fill="none" stroke="midnightblue" d="M133.76,-30.9756C142.566,-29.6333 151.631,-28.2513 160.529,-26.895"/>
<polygon fill="midnightblue" stroke="midnightblue" points="161.122,-30.3451 170.48,-25.378 160.067,-23.425 161.122,-30.3451"/>
</g>
</g>
</svg>
