<?xml version="1.0" encoding="UTF-8" standalone="no"?>
<!DOCTYPE svg PUBLIC "-//W3C//DTD SVG 1.1//EN"
 "http://www.w3.org/Graphics/SVG/1.1/DTD/svg11.dtd">
<!-- Generated by graphviz version 2.36.0 (20140111.2315)
 -->
<!-- Title: RMF::decorator::ScoreConst Pages: 1 -->
<svg width="150pt" height="140pt"
 viewBox="0.00 0.00 150.00 140.00" xmlns="http://www.w3.org/2000/svg" xmlns:xlink="http://www.w3.org/1999/xlink">
<g id="graph0" class="graph" transform="scale(1 1) rotate(0) translate(4 136)">
<title>RMF::decorator::ScoreConst</title>
<!-- Node1 -->
<g id="node1" class="node"><title>Node1</title>
<polygon fill="#bfbfbf" stroke="black" points="-0.632812,-57 -0.632812,-75 142.633,-75 142.633,-57 -0.632812,-57"/>
<text text-anchor="middle" x="71" y="-63" font-family="Helvetica,sans-Serif" font-size="10.00">RMF::decorator::ScoreConst</text>
</g>
<!-- Node3 -->
<g id="node3" class="node"><title>Node3</title>
<g id="a_node3"><a xlink:href="classRMF_1_1decorator_1_1Score.html" target="_top" xlink:title="RMF::decorator::Score">
<polygon fill="none" stroke="black" points="12.4287,-1 12.4287,-19 129.571,-19 129.571,-1 12.4287,-1"/>
<text text-anchor="middle" x="71" y="-7" font-family="Helvetica,sans-Serif" font-size="10.00">RMF::decorator::Score</text>
</a>
</g>
</g>
<!-- Node1&#45;&gt;Node3 -->
<g id="edge2" class="edge"><title>Node1&#45;&gt;Node3</title>
<path fill="none" stroke="midnightblue" d="M71,-46.3288C71,-37.0774 71,-26.3798 71,-19.2014"/>
<polygon fill="midnightblue" stroke="midnightblue" points="67.5001,-46.5625 71,-56.5625 74.5001,-46.5625 67.5001,-46.5625"/>
</g>
<!-- Node2 -->
<g id="node2" class="node"><title>Node2</title>
<g id="a_node2"><a xlink:href="classRMF_1_1Decorator.html" target="_top" xlink:title="The base class for decorators. ">
<polygon fill="none" stroke="black" points="27.4385,-113 27.4385,-131 114.562,-131 114.562,-113 27.4385,-113"/>
<text text-anchor="middle" x="71" y="-119" font-family="Helvetica,sans-Serif" font-size="10.00">RMF::Decorator</text>
</a>
</g>
</g>
<!-- Node2&#45;&gt;Node1 -->
<g id="edge1" class="edge"><title>Node2&#45;&gt;Node1</title>
<path fill="none" stroke="midnightblue" d="M71,-102.329C71,-93.0774 71,-82.3798 71,-75.2014"/>
<polygon fill="midnightblue" stroke="midnightblue" points="67.5001,-102.562 71,-112.562 74.5001,-102.563 67.5001,-102.562"/>
</g>
</g>
</svg>
