<?xml version="1.0" encoding="UTF-8" standalone="no"?>
<!DOCTYPE svg PUBLIC "-//W3C//DTD SVG 1.1//EN"
 "http://www.w3.org/Graphics/SVG/1.1/DTD/svg11.dtd">
<!-- Generated by graphviz version 2.36.0 (20140111.2315)
 -->
<!-- Title: RMF::HDF5::ConstDataSetD&lt; TypeTraits, D &gt; Pages: 1 -->
<svg width="272pt" height="318pt"
 viewBox="0.00 0.00 272.00 318.00" xmlns="http://www.w3.org/2000/svg" xmlns:xlink="http://www.w3.org/1999/xlink">
<g id="graph0" class="graph" transform="scale(1 1) rotate(0) translate(4 314)">
<title>RMF::HDF5::ConstDataSetD&lt; TypeTraits, D &gt;</title>
<!-- Node1 -->
<g id="node1" class="node"><title>Node1</title>
<polygon fill="#bfbfbf" stroke="black" points="49.8179,-147 49.8179,-175 194.182,-175 194.182,-147 49.8179,-147"/>
<text text-anchor="start" x="57.8179" y="-163" font-family="Helvetica,sans-Serif" font-size="10.00">RMF::HDF5::ConstDataSetD</text>
<text text-anchor="middle" x="122" y="-153" font-family="Helvetica,sans-Serif" font-size="10.00">&lt; TypeTraits, D &gt;</text>
</g>
<!-- Node5 -->
<g id="node5" class="node"><title>Node5</title>
<g id="a_node5"><a xlink:href="classRMF_1_1HDF5_1_1MutableAttributes.html" target="_top" xlink:title="MutableAttributes\&lt;\l ConstDataSetD\&lt; TypeTraits,\l D \&gt; \&gt;">
<polygon fill="none" stroke="black" points="49.1025,-69 49.1025,-107 194.897,-107 194.897,-69 49.1025,-69"/>
<text text-anchor="start" x="57.1025" y="-95" font-family="Helvetica,sans-Serif" font-size="10.00">MutableAttributes&lt;</text>
<text text-anchor="start" x="57.1025" y="-85" font-family="Helvetica,sans-Serif" font-size="10.00"> ConstDataSetD&lt; TypeTraits,</text>
<text text-anchor="middle" x="122" y="-75" font-family="Helvetica,sans-Serif" font-size="10.00"> D &gt; &gt;</text>
</a>
</g>
</g>
<!-- Node1&#45;&gt;Node5 -->
<g id="edge4" class="edge"><title>Node1&#45;&gt;Node5</title>
<path fill="none" stroke="midnightblue" d="M122,-136.825C122,-127.147 122,-116.073 122,-107.02"/>
<polygon fill="midnightblue" stroke="midnightblue" points="118.5,-136.977 122,-146.978 125.5,-136.978 118.5,-136.977"/>
</g>
<!-- Node2 -->
<g id="node2" class="node"><title>Node2</title>
<g id="a_node2"><a xlink:href="classRMF_1_1HDF5_1_1ConstAttributes.html" target="_top" xlink:title="ConstDataSetAttributes">
<polygon fill="none" stroke="black" points="61.7515,-215 61.7515,-233 182.249,-233 182.249,-215 61.7515,-215"/>
<text text-anchor="middle" x="122" y="-221" font-family="Helvetica,sans-Serif" font-size="10.00">ConstDataSetAttributes</text>
</a>
</g>
</g>
<!-- Node2&#45;&gt;Node1 -->
<g id="edge1" class="edge"><title>Node2&#45;&gt;Node1</title>
<path fill="none" stroke="midnightblue" d="M122,-204.466C122,-195.028 122,-183.773 122,-175.222"/>
<polygon fill="midnightblue" stroke="midnightblue" points="118.5,-204.773 122,-214.773 125.5,-204.773 118.5,-204.773"/>
</g>
<!-- Node3 -->
<g id="node3" class="node"><title>Node3</title>
<g id="a_node3"><a xlink:href="classRMF_1_1HDF5_1_1Object.html" target="_top" xlink:title="RMF::HDF5::Object">
<polygon fill="none" stroke="black" points="-0.894043,-286 -0.894043,-304 102.894,-304 102.894,-286 -0.894043,-286"/>
<text text-anchor="middle" x="51" y="-292" font-family="Helvetica,sans-Serif" font-size="10.00">RMF::HDF5::Object</text>
</a>
</g>
</g>
<!-- Node3&#45;&gt;Node2 -->
<g id="edge2" class="edge"><title>Node3&#45;&gt;Node2</title>
<path fill="none" stroke="midnightblue" d="M66.6933,-278.749C81.1543,-264.695 102.064,-244.374 113.588,-233.176"/>
<polygon fill="midnightblue" stroke="midnightblue" points="64.1555,-276.334 59.4234,-285.814 69.0341,-281.354 64.1555,-276.334"/>
</g>
<!-- Node4 -->
<g id="node4" class="node"><title>Node4</title>
<g id="a_node4"><a xlink:href="classRMF_1_1HDF5_1_1ConstAttributes.html" target="_top" xlink:title="RMF::HDF5::ConstAttributes\l\&lt; Base \&gt;">
<polygon fill="none" stroke="black" points="121.375,-281 121.375,-309 264.625,-309 264.625,-281 121.375,-281"/>
<text text-anchor="start" x="129.375" y="-297" font-family="Helvetica,sans-Serif" font-size="10.00">RMF::HDF5::ConstAttributes</text>
<text text-anchor="middle" x="193" y="-287" font-family="Helvetica,sans-Serif" font-size="10.00">&lt; Base &gt;</text>
</a>
</g>
</g>
<!-- Node4&#45;&gt;Node2 -->
<g id="edge3" class="edge"><title>Node4&#45;&gt;Node2</title>
<path fill="none" stroke="orange" stroke-dasharray="5,2" d="M171.999,-273.591C158.045,-260.03 140.482,-242.961 130.318,-233.084"/>
<polygon fill="orange" stroke="orange" points="169.7,-276.237 179.31,-280.696 174.578,-271.217 169.7,-276.237"/>
<text text-anchor="middle" x="184.458" y="-254" font-family="Helvetica,sans-Serif" font-size="10.00"> &lt; Object &gt;</text>
</g>
<!-- Node6 -->
<g id="node6" class="node"><title>Node6</title>
<g id="a_node6"><a xlink:href="classRMF_1_1HDF5_1_1DataSetD.html" target="_top" xlink:title="RMF::HDF5::DataSetD\l\&lt; TypeTraits, D \&gt;">
<polygon fill="none" stroke="black" points="62.8794,-1 62.8794,-29 181.121,-29 181.121,-1 62.8794,-1"/>
<text text-anchor="start" x="70.8794" y="-17" font-family="Helvetica,sans-Serif" font-size="10.00">RMF::HDF5::DataSetD</text>
<text text-anchor="middle" x="122" y="-7" font-family="Helvetica,sans-Serif" font-size="10.00">&lt; TypeTraits, D &gt;</text>
</a>
</g>
</g>
<!-- Node5&#45;&gt;Node6 -->
<g id="edge5" class="edge"><title>Node5&#45;&gt;Node6</title>
<path fill="none" stroke="midnightblue" d="M122,-58.5995C122,-48.4729 122,-37.5427 122,-29.2895"/>
<polygon fill="midnightblue" stroke="midnightblue" points="118.5,-58.7157 122,-68.7157 125.5,-58.7158 118.5,-58.7157"/>
</g>
</g>
</svg>
