<?xml version="1.0" encoding="UTF-8" standalone="no"?>
<!DOCTYPE svg PUBLIC "-//W3C//DTD SVG 1.1//EN"
 "http://www.w3.org/Graphics/SVG/1.1/DTD/svg11.dtd">
<!-- Generated by graphviz version 2.34.0 (20131025.1349)
 -->
<!-- Title: RMF::decorator::SegmentFactory::get_is Pages: 1 -->
<svg width="334pt" height="91pt"
 viewBox="0.00 0.00 334.00 91.00" xmlns="http://www.w3.org/2000/svg" xmlns:xlink="http://www.w3.org/1999/xlink">
<g id="graph0" class="graph" transform="scale(1 1) rotate(0) translate(4 87)">
<title>RMF::decorator::SegmentFactory::get_is</title>
<!-- Node1 -->
<g id="node1" class="node"><title>Node1</title>
<polygon fill="#bfbfbf" stroke="black" points="-0.191895,-25 -0.191895,-57 164.192,-57 164.192,-25 -0.191895,-25"/>
<text text-anchor="start" x="7.80811" y="-43" font-family="Helvetica,sans-Serif" font-size="10.00">RMF::decorator::SegmentFactory</text>
<text text-anchor="middle" x="82" y="-31" font-family="Helvetica,sans-Serif" font-size="10.00">::get_is</text>
</g>
<!-- Node2 -->
<g id="node2" class="node"><title>Node2</title>
<g id="a_node2"><a xlink:href="classRMF_1_1NodeConstHandle.html#a21e664736cab122b6151b95ef3f39dfc" target="_top" xlink:title="get the type of this node ">
<polygon fill="none" stroke="black" points="200.532,-51 200.532,-83 325.468,-83 325.468,-51 200.532,-51"/>
<text text-anchor="start" x="208.532" y="-69" font-family="Helvetica,sans-Serif" font-size="10.00">RMF::NodeConstHandle</text>
<text text-anchor="middle" x="263" y="-57" font-family="Helvetica,sans-Serif" font-size="10.00">::get_type</text>
</a>
</g>
</g>
<!-- Node1&#45;&gt;Node2 -->
<g id="edge1" class="edge"><title>Node1&#45;&gt;Node2</title>
<path fill="none" stroke="midnightblue" d="M164.382,-52.8208C173.077,-54.0838 181.876,-55.3619 190.446,-56.6067"/>
<polygon fill="midnightblue" stroke="midnightblue" points="189.982,-60.0759 200.381,-58.0498 190.988,-53.1486 189.982,-60.0759"/>
</g>
<!-- Node3 -->
<g id="node3" class="node"><title>Node3</title>
<g id="a_node3"><a xlink:href="classRMF_1_1NodeConstHandle.html#a6c5fe436d4565f3604d08362cd3951b0" target="_top" xlink:title="get the value of the attribute k from this node or null if it \ * doesn&#39;t have a value. \ ">
<polygon fill="none" stroke="black" points="200.532,-0 200.532,-32 325.468,-32 325.468,-0 200.532,-0"/>
<text text-anchor="start" x="208.532" y="-18" font-family="Helvetica,sans-Serif" font-size="10.00">RMF::NodeConstHandle</text>
<text text-anchor="middle" x="263" y="-6" font-family="Helvetica,sans-Serif" font-size="10.00">::get_value</text>
</a>
</g>
</g>
<!-- Node1&#45;&gt;Node3 -->
<g id="edge2" class="edge"><title>Node1&#45;&gt;Node3</title>
<path fill="none" stroke="midnightblue" d="M164.382,-29.6339C173.077,-28.4194 181.876,-27.1905 190.446,-25.9936"/>
<polygon fill="midnightblue" stroke="midnightblue" points="190.962,-29.4556 200.381,-24.606 189.993,-22.5229 190.962,-29.4556"/>
</g>
</g>
</svg>
