<?xml version="1.0" encoding="UTF-8" standalone="no"?>
<!DOCTYPE svg PUBLIC "-//W3C//DTD SVG 1.1//EN"
 "http://www.w3.org/Graphics/SVG/1.1/DTD/svg11.dtd">
<!-- Generated by graphviz version 2.36.0 (20140111.2315)
 -->
<!-- Title: RMF::HDF5::DataSetD&lt; TypeTraits, D &gt; Pages: 1 -->
<svg width="419pt" height="326pt"
 viewBox="0.00 0.00 419.41 326.00" xmlns="http://www.w3.org/2000/svg" xmlns:xlink="http://www.w3.org/1999/xlink">
<g id="graph0" class="graph" transform="scale(1 1) rotate(0) translate(4 322)">
<title>RMF::HDF5::DataSetD&lt; TypeTraits, D &gt;</title>
<!-- Node1 -->
<g id="node1" class="node"><title>Node1</title>
<polygon fill="#bfbfbf" stroke="black" points="187.879,-1 187.879,-29 306.121,-29 306.121,-1 187.879,-1"/>
<text text-anchor="start" x="195.879" y="-17" font-family="Helvetica,sans-Serif" font-size="10.00">RMF::HDF5::DataSetD</text>
<text text-anchor="middle" x="247" y="-7" font-family="Helvetica,sans-Serif" font-size="10.00">&lt; TypeTraits, D &gt;</text>
</g>
<!-- Node2 -->
<g id="node2" class="node"><title>Node2</title>
<g id="a_node2"><a xlink:href="classRMF_1_1HDF5_1_1MutableAttributes.html" target="_top" xlink:title="RMF::HDF5::MutableAttributes\l\&lt; ConstDataSetD\&lt; TypeTraits, D \&gt; \&gt;">
<polygon fill="none" stroke="black" points="157.564,-69 157.564,-97 336.436,-97 336.436,-69 157.564,-69"/>
<text text-anchor="start" x="165.564" y="-85" font-family="Helvetica,sans-Serif" font-size="10.00">RMF::HDF5::MutableAttributes</text>
<text text-anchor="middle" x="247" y="-75" font-family="Helvetica,sans-Serif" font-size="10.00">&lt; ConstDataSetD&lt; TypeTraits, D &gt; &gt;</text>
</a>
</g>
</g>
<!-- Node2&#45;&gt;Node1 -->
<g id="edge1" class="edge"><title>Node2&#45;&gt;Node1</title>
<path fill="none" stroke="midnightblue" d="M247,-58.8268C247,-48.8275 247,-37.5036 247,-29.0124"/>
<polygon fill="midnightblue" stroke="midnightblue" points="243.5,-58.9605 247,-68.9605 250.5,-58.9606 243.5,-58.9605"/>
</g>
<!-- Node3 -->
<g id="node3" class="node"><title>Node3</title>
<g id="a_node3"><a xlink:href="classRMF_1_1HDF5_1_1ConstDataSetD.html" target="_top" xlink:title="RMF::HDF5::ConstDataSetD\l\&lt; TypeTraits, D \&gt;">
<polygon fill="none" stroke="black" points="49.8179,-155 49.8179,-183 194.182,-183 194.182,-155 49.8179,-155"/>
<text text-anchor="start" x="57.8179" y="-171" font-family="Helvetica,sans-Serif" font-size="10.00">RMF::HDF5::ConstDataSetD</text>
<text text-anchor="middle" x="122" y="-161" font-family="Helvetica,sans-Serif" font-size="10.00">&lt; TypeTraits, D &gt;</text>
</a>
</g>
</g>
<!-- Node3&#45;&gt;Node2 -->
<g id="edge2" class="edge"><title>Node3&#45;&gt;Node2</title>
<path fill="none" stroke="midnightblue" d="M150.07,-149.137C173.687,-133.266 206.837,-110.989 227.606,-97.0328"/>
<polygon fill="midnightblue" stroke="midnightblue" points="147.879,-146.392 141.531,-154.875 151.783,-152.202 147.879,-146.392"/>
</g>
<!-- Node4 -->
<g id="node4" class="node"><title>Node4</title>
<g id="a_node4"><a xlink:href="classRMF_1_1HDF5_1_1ConstAttributes.html" target="_top" xlink:title="ConstDataSetAttributes">
<polygon fill="none" stroke="black" points="61.7515,-223 61.7515,-241 182.249,-241 182.249,-223 61.7515,-223"/>
<text text-anchor="middle" x="122" y="-229" font-family="Helvetica,sans-Serif" font-size="10.00">ConstDataSetAttributes</text>
</a>
</g>
</g>
<!-- Node4&#45;&gt;Node3 -->
<g id="edge3" class="edge"><title>Node4&#45;&gt;Node3</title>
<path fill="none" stroke="midnightblue" d="M122,-212.466C122,-203.028 122,-191.773 122,-183.222"/>
<polygon fill="midnightblue" stroke="midnightblue" points="118.5,-212.773 122,-222.773 125.5,-212.773 118.5,-212.773"/>
</g>
<!-- Node5 -->
<g id="node5" class="node"><title>Node5</title>
<g id="a_node5"><a xlink:href="classRMF_1_1HDF5_1_1Object.html" target="_top" xlink:title="RMF::HDF5::Object">
<polygon fill="none" stroke="black" points="-0.894043,-294 -0.894043,-312 102.894,-312 102.894,-294 -0.894043,-294"/>
<text text-anchor="middle" x="51" y="-300" font-family="Helvetica,sans-Serif" font-size="10.00">RMF::HDF5::Object</text>
</a>
</g>
</g>
<!-- Node5&#45;&gt;Node4 -->
<g id="edge4" class="edge"><title>Node5&#45;&gt;Node4</title>
<path fill="none" stroke="midnightblue" d="M66.6933,-286.749C81.1543,-272.695 102.064,-252.374 113.588,-241.176"/>
<polygon fill="midnightblue" stroke="midnightblue" points="64.1555,-284.334 59.4234,-293.814 69.0341,-289.354 64.1555,-284.334"/>
</g>
<!-- Node6 -->
<g id="node6" class="node"><title>Node6</title>
<g id="a_node6"><a xlink:href="classRMF_1_1HDF5_1_1ConstAttributes.html" target="_top" xlink:title="RMF::HDF5::ConstAttributes\l\&lt; Base \&gt;">
<polygon fill="none" stroke="black" points="121.375,-289 121.375,-317 264.625,-317 264.625,-289 121.375,-289"/>
<text text-anchor="start" x="129.375" y="-305" font-family="Helvetica,sans-Serif" font-size="10.00">RMF::HDF5::ConstAttributes</text>
<text text-anchor="middle" x="193" y="-295" font-family="Helvetica,sans-Serif" font-size="10.00">&lt; Base &gt;</text>
</a>
</g>
</g>
<!-- Node6&#45;&gt;Node4 -->
<g id="edge5" class="edge"><title>Node6&#45;&gt;Node4</title>
<path fill="none" stroke="orange" stroke-dasharray="5,2" d="M171.999,-281.591C158.045,-268.03 140.482,-250.961 130.318,-241.084"/>
<polygon fill="orange" stroke="orange" points="169.7,-284.237 179.31,-288.696 174.578,-279.217 169.7,-284.237"/>
<text text-anchor="middle" x="184.458" y="-262" font-family="Helvetica,sans-Serif" font-size="10.00"> &lt; Object &gt;</text>
</g>
<!-- Node7 -->
<g id="node7" class="node"><title>Node7</title>
<g id="a_node7"><a xlink:href="classRMF_1_1HDF5_1_1MutableAttributes.html" target="_top" xlink:title="RMF::HDF5::MutableAttributes\l\&lt; Base \&gt;">
<polygon fill="none" stroke="black" points="212.648,-155 212.648,-183 365.352,-183 365.352,-155 212.648,-155"/>
<text text-anchor="start" x="220.648" y="-171" font-family="Helvetica,sans-Serif" font-size="10.00">RMF::HDF5::MutableAttributes</text>
<text text-anchor="middle" x="289" y="-161" font-family="Helvetica,sans-Serif" font-size="10.00">&lt; Base &gt;</text>
</a>
</g>
</g>
<!-- Node7&#45;&gt;Node2 -->
<g id="edge6" class="edge"><title>Node7&#45;&gt;Node2</title>
<path fill="none" stroke="orange" stroke-dasharray="5,2" d="M277.956,-145.911C270.179,-130.359 260.034,-110.067 253.516,-97.0328"/>
<polygon fill="orange" stroke="orange" points="274.835,-147.496 282.438,-154.875 281.096,-144.365 274.835,-147.496"/>
<text text-anchor="start" x="273" y="-128" font-family="Helvetica,sans-Serif" font-size="10.00"> &lt; ConstDataSetD&lt; TypeTraits,</text>
<text text-anchor="middle" x="342.207" y="-118" font-family="Helvetica,sans-Serif" font-size="10.00"> D &gt; &gt;</text>
</g>
</g>
</svg>
