<?xml version="1.0" encoding="UTF-8" standalone="no"?>
<!DOCTYPE svg PUBLIC "-//W3C//DTD SVG 1.1//EN"
 "http://www.w3.org/Graphics/SVG/1.1/DTD/svg11.dtd">
<!-- Generated by graphviz version 2.34.0 (20131025.1349)
 -->
<!-- Title: RMF::decorator::Diffuser Pages: 1 -->
<svg width="132pt" height="158pt"
 viewBox="0.00 0.00 132.00 158.00" xmlns="http://www.w3.org/2000/svg" xmlns:xlink="http://www.w3.org/1999/xlink">
<g id="graph0" class="graph" transform="scale(1 1) rotate(0) translate(4 154)">
<title>RMF::decorator::Diffuser</title>
<!-- Node1 -->
<g id="node1" class="node"><title>Node1</title>
<polygon fill="#bfbfbf" stroke="black" points="-0.648438,-1 -0.648438,-21 124.648,-21 124.648,-1 -0.648438,-1"/>
<text text-anchor="middle" x="62" y="-7" font-family="Helvetica,sans-Serif" font-size="10.00">RMF::decorator::Diffuser</text>
</g>
<!-- Node2 -->
<g id="node2" class="node"><title>Node2</title>
<g id="a_node2"><a xlink:href="classRMF_1_1decorator_1_1DiffuserConst.html" target="_top" xlink:title="RMF::decorator::Diffuser\lConst">
<polygon fill="none" stroke="black" points="-0.648438,-59 -0.648438,-91 124.648,-91 124.648,-59 -0.648438,-59"/>
<text text-anchor="start" x="7.35156" y="-77" font-family="Helvetica,sans-Serif" font-size="10.00">RMF::decorator::Diffuser</text>
<text text-anchor="middle" x="62" y="-65" font-family="Helvetica,sans-Serif" font-size="10.00">Const</text>
</a>
</g>
</g>
<!-- Node2&#45;&gt;Node1 -->
<g id="edge1" class="edge"><title>Node2&#45;&gt;Node1</title>
<path fill="none" stroke="midnightblue" d="M62,-48.922C62,-39.1719 62,-28.6099 62,-21.2904"/>
<polygon fill="midnightblue" stroke="midnightblue" points="58.5001,-48.9915 62,-58.9915 65.5001,-48.9916 58.5001,-48.9915"/>
</g>
<!-- Node3 -->
<g id="node3" class="node"><title>Node3</title>
<g id="a_node3"><a xlink:href="classRMF_1_1Decorator.html" target="_top" xlink:title="RMF::Decorator">
<polygon fill="none" stroke="black" points="18.4385,-129 18.4385,-149 105.562,-149 105.562,-129 18.4385,-129"/>
<text text-anchor="middle" x="62" y="-135" font-family="Helvetica,sans-Serif" font-size="10.00">RMF::Decorator</text>
</a>
</g>
</g>
<!-- Node3&#45;&gt;Node2 -->
<g id="edge2" class="edge"><title>Node3&#45;&gt;Node2</title>
<path fill="none" stroke="midnightblue" d="M62,-118.775C62,-109.986 62,-99.715 62,-91.4404"/>
<polygon fill="midnightblue" stroke="midnightblue" points="58.5001,-118.852 62,-128.852 65.5001,-118.852 58.5001,-118.852"/>
</g>
</g>
</svg>
