<?xml version="1.0" encoding="UTF-8" standalone="no"?>
<!DOCTYPE svg PUBLIC "-//W3C//DTD SVG 1.1//EN"
 "http://www.w3.org/Graphics/SVG/1.1/DTD/svg11.dtd">
<!-- Generated by graphviz version 2.34.0 (20131025.1349)
 -->
<!-- Title: RMF::decorator::JournalArticleFactory::get_is Pages: 1 -->
<svg width="322pt" height="91pt"
 viewBox="0.00 0.00 322.00 91.00" xmlns="http://www.w3.org/2000/svg" xmlns:xlink="http://www.w3.org/1999/xlink">
<g id="graph0" class="graph" transform="scale(1 1) rotate(0) translate(4 87)">
<title>RMF::decorator::JournalArticleFactory::get_is</title>
<!-- Node1 -->
<g id="node1" class="node"><title>Node1</title>
<polygon fill="#bfbfbf" stroke="black" points="0.199707,-25 0.199707,-57 151.8,-57 151.8,-25 0.199707,-25"/>
<text text-anchor="start" x="8.19971" y="-43" font-family="Helvetica,sans-Serif" font-size="10.00">RMF::decorator::JournalArticle</text>
<text text-anchor="middle" x="76" y="-31" font-family="Helvetica,sans-Serif" font-size="10.00">Factory::get_is</text>
</g>
<!-- Node2 -->
<g id="node2" class="node"><title>Node2</title>
<g id="a_node2"><a xlink:href="classRMF_1_1NodeConstHandle.html#a21e664736cab122b6151b95ef3f39dfc" target="_top" xlink:title="get the type of this node ">
<polygon fill="none" stroke="black" points="188.532,-51 188.532,-83 313.468,-83 313.468,-51 188.532,-51"/>
<text text-anchor="start" x="196.532" y="-69" font-family="Helvetica,sans-Serif" font-size="10.00">RMF::NodeConstHandle</text>
<text text-anchor="middle" x="251" y="-57" font-family="Helvetica,sans-Serif" font-size="10.00">::get_type</text>
</a>
</g>
</g>
<!-- Node1&#45;&gt;Node2 -->
<g id="edge1" class="edge"><title>Node1&#45;&gt;Node2</title>
<path fill="none" stroke="midnightblue" d="M151.874,-52.2528C160.669,-53.5746 169.628,-54.9209 178.377,-56.2358"/>
<polygon fill="midnightblue" stroke="midnightblue" points="178.12,-59.7364 188.529,-57.7616 179.16,-52.8142 178.12,-59.7364"/>
</g>
<!-- Node3 -->
<g id="node3" class="node"><title>Node3</title>
<g id="a_node3"><a xlink:href="classRMF_1_1NodeConstHandle.html#a6c5fe436d4565f3604d08362cd3951b0" target="_top" xlink:title="get the value of the attribute k from this node or null if it \ * doesn&#39;t have a value. \ ">
<polygon fill="none" stroke="black" points="188.532,-0 188.532,-32 313.468,-32 313.468,-0 188.532,-0"/>
<text text-anchor="start" x="196.532" y="-18" font-family="Helvetica,sans-Serif" font-size="10.00">RMF::NodeConstHandle</text>
<text text-anchor="middle" x="251" y="-6" font-family="Helvetica,sans-Serif" font-size="10.00">::get_value</text>
</a>
</g>
</g>
<!-- Node1&#45;&gt;Node3 -->
<g id="edge2" class="edge"><title>Node1&#45;&gt;Node3</title>
<path fill="none" stroke="midnightblue" d="M151.874,-30.18C160.669,-28.9091 169.628,-27.6145 178.377,-26.3502"/>
<polygon fill="midnightblue" stroke="midnightblue" points="179.132,-29.7774 188.529,-24.8831 178.131,-22.8494 179.132,-29.7774"/>
</g>
</g>
</svg>
