<?xml version="1.0" encoding="UTF-8" standalone="no"?>
<!DOCTYPE svg PUBLIC "-//W3C//DTD SVG 1.1//EN"
 "http://www.w3.org/Graphics/SVG/1.1/DTD/svg11.dtd">
<!-- Generated by graphviz version 2.36.0 (20140111.2315)
 -->
<!-- Title: RMF::Decorator Pages: 1 -->
<svg width="488pt" height="1128pt"
 viewBox="0.00 0.00 488.00 1128.00" xmlns="http://www.w3.org/2000/svg" xmlns:xlink="http://www.w3.org/1999/xlink">
<g id="graph0" class="graph" transform="scale(1 1) rotate(0) translate(4 1124)">
<title>RMF::Decorator</title>
<!-- Node1 -->
<g id="node1" class="node"><title>Node1</title>
<polygon fill="#bfbfbf" stroke="black" points="0.438477,-566 0.438477,-584 87.5615,-584 87.5615,-566 0.438477,-566"/>
<text text-anchor="middle" x="44" y="-572" font-family="Helvetica,sans-Serif" font-size="10.00">RMF::Decorator</text>
</g>
<!-- Node2 -->
<g id="node2" class="node"><title>Node2</title>
<g id="a_node2"><a xlink:href="classRMF_1_1decorator_1_1AliasConst.html" target="_top" xlink:title="RMF::decorator::AliasConst">
<polygon fill="none" stroke="black" points="134.591,-1102 134.591,-1120 273.409,-1120 273.409,-1102 134.591,-1102"/>
<text text-anchor="middle" x="204" y="-1108" font-family="Helvetica,sans-Serif" font-size="10.00">RMF::decorator::AliasConst</text>
</a>
</g>
</g>
<!-- Node1&#45;&gt;Node2 -->
<g id="edge1" class="edge"><title>Node1&#45;&gt;Node2</title>
<path fill="none" stroke="midnightblue" d="M45.1769,-594.283C46.3536,-679.003 55.3456,-1017.29 124,-1092 127.723,-1096.05 132.144,-1099.31 136.966,-1101.92"/>
<polygon fill="midnightblue" stroke="midnightblue" points="48.6743,-594.024 45.0574,-584.065 41.6747,-594.106 48.6743,-594.024"/>
</g>
<!-- Node4 -->
<g id="node4" class="node"><title>Node4</title>
<g id="a_node4"><a xlink:href="classRMF_1_1decorator_1_1AlternativesConst.html" target="_top" xlink:title="RMF::decorator::Alternatives\lConst">
<polygon fill="none" stroke="black" points="132.367,-1055 132.367,-1083 275.633,-1083 275.633,-1055 132.367,-1055"/>
<text text-anchor="start" x="140.367" y="-1071" font-family="Helvetica,sans-Serif" font-size="10.00">RMF::decorator::Alternatives</text>
<text text-anchor="middle" x="204" y="-1061" font-family="Helvetica,sans-Serif" font-size="10.00">Const</text>
</a>
</g>
</g>
<!-- Node1&#45;&gt;Node4 -->
<g id="edge3" class="edge"><title>Node1&#45;&gt;Node4</title>
<path fill="none" stroke="midnightblue" d="M45.6169,-594.448C48.5362,-674.318 63.4663,-976.148 124,-1045 127.407,-1048.88 131.418,-1052.14 135.796,-1054.88"/>
<polygon fill="midnightblue" stroke="midnightblue" points="49.1106,-594.202 45.2693,-584.328 42.1148,-594.443 49.1106,-594.202"/>
</g>
<!-- Node6 -->
<g id="node6" class="node"><title>Node6</title>
<g id="a_node6"><a xlink:href="classRMF_1_1decorator_1_1AtomConst.html" target="_top" xlink:title="RMF::decorator::AtomConst">
<polygon fill="none" stroke="black" points="133.759,-1018 133.759,-1036 274.241,-1036 274.241,-1018 133.759,-1018"/>
<text text-anchor="middle" x="204" y="-1024" font-family="Helvetica,sans-Serif" font-size="10.00">RMF::decorator::AtomConst</text>
</a>
</g>
</g>
<!-- Node1&#45;&gt;Node6 -->
<g id="edge5" class="edge"><title>Node1&#45;&gt;Node6</title>
<path fill="none" stroke="midnightblue" d="M45.8099,-594.43C49.3773,-670.495 66.1799,-946.875 124,-1008 127.781,-1012 132.243,-1015.22 137.091,-1017.8"/>
<polygon fill="midnightblue" stroke="midnightblue" points="49.2872,-593.84 45.3467,-584.006 42.2941,-594.151 49.2872,-593.84"/>
</g>
<!-- Node8 -->
<g id="node8" class="node"><title>Node8</title>
<g id="a_node8"><a xlink:href="classRMF_1_1decorator_1_1BackwardsCompatibilityFragmentConst.html" target="_top" xlink:title="RMF::decorator::Backwards\lCompatibilityFragmentConst">
<polygon fill="none" stroke="black" points="132.921,-971 132.921,-999 275.079,-999 275.079,-971 132.921,-971"/>
<text text-anchor="start" x="140.921" y="-987" font-family="Helvetica,sans-Serif" font-size="10.00">RMF::decorator::Backwards</text>
<text text-anchor="middle" x="204" y="-977" font-family="Helvetica,sans-Serif" font-size="10.00">CompatibilityFragmentConst</text>
</a>
</g>
</g>
<!-- Node1&#45;&gt;Node8 -->
<g id="edge7" class="edge"><title>Node1&#45;&gt;Node8</title>
<path fill="none" stroke="midnightblue" d="M46.3958,-594.472C51.8318,-665.011 73.8177,-905.916 124,-961 127.572,-964.921 131.761,-968.209 136.315,-970.967"/>
<polygon fill="midnightblue" stroke="midnightblue" points="49.874,-594.048 45.6398,-584.336 42.8934,-594.569 49.874,-594.048"/>
</g>
<!-- Node10 -->
<g id="node10" class="node"><title>Node10</title>
<g id="a_node10"><a xlink:href="classRMF_1_1decorator_1_1BallConst.html" target="_top" xlink:title="RMF::decorator::BallConst">
<polygon fill="none" stroke="black" points="137.091,-934 137.091,-952 270.909,-952 270.909,-934 137.091,-934"/>
<text text-anchor="middle" x="204" y="-940" font-family="Helvetica,sans-Serif" font-size="10.00">RMF::decorator::BallConst</text>
</a>
</g>
</g>
<!-- Node1&#45;&gt;Node10 -->
<g id="edge9" class="edge"><title>Node1&#45;&gt;Node10</title>
<path fill="none" stroke="midnightblue" d="M46.7295,-594.374C53.0265,-660.559 76.8709,-876.234 124,-924 127.963,-928.017 132.616,-931.242 137.647,-933.825"/>
<polygon fill="midnightblue" stroke="midnightblue" points="50.189,-593.773 45.7838,-584.138 43.2187,-594.418 50.189,-593.773"/>
</g>
<!-- Node12 -->
<g id="node12" class="node"><title>Node12</title>
<g id="a_node12"><a xlink:href="classRMF_1_1decorator_1_1BondConst.html" target="_top" xlink:title="RMF::decorator::BondConst">
<polygon fill="none" stroke="black" points="133.751,-897 133.751,-915 274.249,-915 274.249,-897 133.751,-897"/>
<text text-anchor="middle" x="204" y="-903" font-family="Helvetica,sans-Serif" font-size="10.00">RMF::decorator::BondConst</text>
</a>
</g>
</g>
<!-- Node1&#45;&gt;Node12 -->
<g id="edge11" class="edge"><title>Node1&#45;&gt;Node12</title>
<path fill="none" stroke="midnightblue" d="M47.2766,-594.281C54.9092,-655.675 81.5262,-845.032 124,-887 128.114,-891.065 132.937,-894.315 138.135,-896.908"/>
<polygon fill="midnightblue" stroke="midnightblue" points="50.7179,-593.584 46.0383,-584.079 43.7689,-594.428 50.7179,-593.584"/>
</g>
<!-- Node14 -->
<g id="node14" class="node"><title>Node14</title>
<g id="a_node14"><a xlink:href="classRMF_1_1decorator_1_1ChainConst.html" target="_top" xlink:title="RMF::decorator::ChainConst">
<polygon fill="none" stroke="black" points="132.365,-860 132.365,-878 275.635,-878 275.635,-860 132.365,-860"/>
<text text-anchor="middle" x="204" y="-866" font-family="Helvetica,sans-Serif" font-size="10.00">RMF::decorator::ChainConst</text>
</a>
</g>
</g>
<!-- Node1&#45;&gt;Node14 -->
<g id="edge13" class="edge"><title>Node1&#45;&gt;Node14</title>
<path fill="none" stroke="midnightblue" d="M44.4037,-594.307C43.9728,-644.348 50.0941,-779.256 124,-850 128.28,-854.097 133.282,-857.361 138.654,-859.955"/>
<polygon fill="midnightblue" stroke="midnightblue" points="47.9045,-594.293 44.5948,-584.229 40.9058,-594.16 47.9045,-594.293"/>
</g>
<!-- Node16 -->
<g id="node16" class="node"><title>Node16</title>
<g id="a_node16"><a xlink:href="classRMF_1_1decorator_1_1ColoredConst.html" target="_top" xlink:title="RMF::decorator::ColoredConst">
<polygon fill="none" stroke="black" points="127.919,-823 127.919,-841 280.081,-841 280.081,-823 127.919,-823"/>
<text text-anchor="middle" x="204" y="-829" font-family="Helvetica,sans-Serif" font-size="10.00">RMF::decorator::ColoredConst</text>
</a>
</g>
</g>
<!-- Node1&#45;&gt;Node16 -->
<g id="edge15" class="edge"><title>Node1&#45;&gt;Node16</title>
<path fill="none" stroke="midnightblue" d="M45.4219,-594.432C47.5072,-639.836 59.2798,-753.528 124,-813 128.466,-817.104 133.661,-820.366 139.214,-822.952"/>
<polygon fill="midnightblue" stroke="midnightblue" points="48.9198,-594.307 45.0741,-584.435 41.924,-594.551 48.9198,-594.307"/>
</g>
<!-- Node18 -->
<g id="node18" class="node"><title>Node18</title>
<g id="a_node18"><a xlink:href="classRMF_1_1decorator_1_1CopyConst.html" target="_top" xlink:title="RMF::decorator::CopyConst">
<polygon fill="none" stroke="black" points="133.756,-786 133.756,-804 274.244,-804 274.244,-786 133.756,-786"/>
<text text-anchor="middle" x="204" y="-792" font-family="Helvetica,sans-Serif" font-size="10.00">RMF::decorator::CopyConst</text>
</a>
</g>
</g>
<!-- Node1&#45;&gt;Node18 -->
<g id="edge17" class="edge"><title>Node1&#45;&gt;Node18</title>
<path fill="none" stroke="midnightblue" d="M46.7747,-594.371C51.5329,-634.606 68.278,-727.505 124,-776 128.682,-780.075 134.088,-783.31 139.832,-785.874"/>
<polygon fill="midnightblue" stroke="midnightblue" points="50.2413,-593.87 45.7089,-584.294 43.2802,-594.607 50.2413,-593.87"/>
</g>
<!-- Node20 -->
<g id="node20" class="node"><title>Node20</title>
<g id="a_node20"><a xlink:href="classRMF_1_1decorator_1_1CylinderConst.html" target="_top" xlink:title="RMF::decorator::Cylinder\lConst">
<polygon fill="none" stroke="black" points="140.15,-739 140.15,-767 267.85,-767 267.85,-739 140.15,-739"/>
<text text-anchor="start" x="148.15" y="-755" font-family="Helvetica,sans-Serif" font-size="10.00">RMF::decorator::Cylinder</text>
<text text-anchor="middle" x="204" y="-745" font-family="Helvetica,sans-Serif" font-size="10.00">Const</text>
</a>
</g>
</g>
<!-- Node1&#45;&gt;Node20 -->
<g id="edge19" class="edge"><title>Node1&#45;&gt;Node20</title>
<path fill="none" stroke="midnightblue" d="M49.6042,-594.236C58.3966,-626.812 80.6773,-692.814 124,-729 128.731,-732.951 134.101,-736.252 139.763,-739.01"/>
<polygon fill="midnightblue" stroke="midnightblue" points="52.9097,-593.035 47.0444,-584.212 46.1274,-594.767 52.9097,-593.035"/>
</g>
<!-- Node22 -->
<g id="node22" class="node"><title>Node22</title>
<g id="a_node22"><a xlink:href="classRMF_1_1decorator_1_1DiffuserConst.html" target="_top" xlink:title="RMF::decorator::Diffuser\lConst">
<polygon fill="none" stroke="black" points="141.352,-692 141.352,-720 266.648,-720 266.648,-692 141.352,-692"/>
<text text-anchor="start" x="149.352" y="-708" font-family="Helvetica,sans-Serif" font-size="10.00">RMF::decorator::Diffuser</text>
<text text-anchor="middle" x="204" y="-698" font-family="Helvetica,sans-Serif" font-size="10.00">Const</text>
</a>
</g>
</g>
<!-- Node1&#45;&gt;Node22 -->
<g id="edge21" class="edge"><title>Node1&#45;&gt;Node22</title>
<path fill="none" stroke="midnightblue" d="M53.8083,-593.357C66.1954,-617.248 90.992,-658.69 124,-682 129.503,-685.886 135.648,-689.155 142.015,-691.901"/>
<polygon fill="midnightblue" stroke="midnightblue" points="56.8785,-591.671 49.2716,-584.296 50.6193,-594.805 56.8785,-591.671"/>
</g>
<!-- Node24 -->
<g id="node24" class="node"><title>Node24</title>
<g id="a_node24"><a xlink:href="classRMF_1_1decorator_1_1DomainConst.html" target="_top" xlink:title="RMF::decorator::DomainConst">
<polygon fill="none" stroke="black" points="128.2,-655 128.2,-673 279.8,-673 279.8,-655 128.2,-655"/>
<text text-anchor="middle" x="204" y="-661" font-family="Helvetica,sans-Serif" font-size="10.00">RMF::decorator::DomainConst</text>
</a>
</g>
</g>
<!-- Node1&#45;&gt;Node24 -->
<g id="edge23" class="edge"><title>Node1&#45;&gt;Node24</title>
<path fill="none" stroke="midnightblue" d="M59.4717,-591.918C74.1316,-607.972 98.2625,-631.583 124,-645 131.88,-649.108 140.667,-652.345 149.436,-654.891"/>
<polygon fill="midnightblue" stroke="midnightblue" points="61.968,-589.458 52.7105,-584.305 56.7342,-594.106 61.968,-589.458"/>
</g>
<!-- Node26 -->
<g id="node26" class="node"><title>Node26</title>
<g id="a_node26"><a xlink:href="classRMF_1_1decorator_1_1EllipsoidConst.html" target="_top" xlink:title="RMF::decorator::Ellipsoid\lConst">
<polygon fill="none" stroke="black" points="139.87,-608 139.87,-636 268.13,-636 268.13,-608 139.87,-608"/>
<text text-anchor="start" x="147.87" y="-624" font-family="Helvetica,sans-Serif" font-size="10.00">RMF::decorator::Ellipsoid</text>
<text text-anchor="middle" x="204" y="-614" font-family="Helvetica,sans-Serif" font-size="10.00">Const</text>
</a>
</g>
</g>
<!-- Node1&#45;&gt;Node26 -->
<g id="edge25" class="edge"><title>Node1&#45;&gt;Node26</title>
<path fill="none" stroke="midnightblue" d="M85.2624,-586.977C106.769,-593.374 133.365,-601.286 155.836,-607.97"/>
<polygon fill="midnightblue" stroke="midnightblue" points="86.0469,-583.559 75.464,-584.062 84.051,-590.268 86.0469,-583.559"/>
</g>
<!-- Node28 -->
<g id="node28" class="node"><title>Node28</title>
<g id="a_node28"><a xlink:href="classRMF_1_1decorator_1_1ExternalConst.html" target="_top" xlink:title="RMF::decorator::External\lConst">
<polygon fill="none" stroke="black" points="140.148,-561 140.148,-589 267.852,-589 267.852,-561 140.148,-561"/>
<text text-anchor="start" x="148.148" y="-577" font-family="Helvetica,sans-Serif" font-size="10.00">RMF::decorator::External</text>
<text text-anchor="middle" x="204" y="-567" font-family="Helvetica,sans-Serif" font-size="10.00">Const</text>
</a>
</g>
</g>
<!-- Node1&#45;&gt;Node28 -->
<g id="edge27" class="edge"><title>Node1&#45;&gt;Node28</title>
<path fill="none" stroke="midnightblue" d="M97.8449,-575C111.371,-575 126.05,-575 140.029,-575"/>
<polygon fill="midnightblue" stroke="midnightblue" points="97.7571,-571.5 87.7571,-575 97.757,-578.5 97.7571,-571.5"/>
</g>
<!-- Node30 -->
<g id="node30" class="node"><title>Node30</title>
<g id="a_node30"><a xlink:href="classRMF_1_1decorator_1_1FragmentConst.html" target="_top" xlink:title="RMF::decorator::Fragment\lConst">
<polygon fill="none" stroke="black" points="137.094,-514 137.094,-542 270.906,-542 270.906,-514 137.094,-514"/>
<text text-anchor="start" x="145.094" y="-530" font-family="Helvetica,sans-Serif" font-size="10.00">RMF::decorator::Fragment</text>
<text text-anchor="middle" x="204" y="-520" font-family="Helvetica,sans-Serif" font-size="10.00">Const</text>
</a>
</g>
</g>
<!-- Node1&#45;&gt;Node30 -->
<g id="edge29" class="edge"><title>Node1&#45;&gt;Node30</title>
<path fill="none" stroke="midnightblue" d="M85.2624,-563.023C106.769,-556.626 133.365,-548.714 155.836,-542.03"/>
<polygon fill="midnightblue" stroke="midnightblue" points="84.051,-559.732 75.464,-565.938 86.0469,-566.441 84.051,-559.732"/>
</g>
<!-- Node32 -->
<g id="node32" class="node"><title>Node32</title>
<g id="a_node32"><a xlink:href="classRMF_1_1decorator_1_1GaussianParticleConst.html" target="_top" xlink:title="RMF::decorator::Gaussian\lParticleConst">
<polygon fill="none" stroke="black" points="137.367,-467 137.367,-495 270.633,-495 270.633,-467 137.367,-467"/>
<text text-anchor="start" x="145.367" y="-483" font-family="Helvetica,sans-Serif" font-size="10.00">RMF::decorator::Gaussian</text>
<text text-anchor="middle" x="204" y="-473" font-family="Helvetica,sans-Serif" font-size="10.00">ParticleConst</text>
</a>
</g>
</g>
<!-- Node1&#45;&gt;Node32 -->
<g id="edge31" class="edge"><title>Node1&#45;&gt;Node32</title>
<path fill="none" stroke="midnightblue" d="M59.6489,-558.41C74.4414,-542.602 98.6688,-519.169 124,-505 130.881,-501.151 138.451,-497.849 146.098,-495.035"/>
<polygon fill="midnightblue" stroke="midnightblue" points="56.9751,-556.148 52.8175,-565.893 62.1447,-560.868 56.9751,-556.148"/>
</g>
<!-- Node34 -->
<g id="node34" class="node"><title>Node34</title>
<g id="a_node34"><a xlink:href="classRMF_1_1decorator_1_1IntermediateParticleConst.html" target="_top" xlink:title="RMF::decorator::Intermediate\lParticleConst">
<polygon fill="none" stroke="black" points="130.697,-420 130.697,-448 277.303,-448 277.303,-420 130.697,-420"/>
<text text-anchor="start" x="138.697" y="-436" font-family="Helvetica,sans-Serif" font-size="10.00">RMF::decorator::Intermediate</text>
<text text-anchor="middle" x="204" y="-426" font-family="Helvetica,sans-Serif" font-size="10.00">ParticleConst</text>
</a>
</g>
</g>
<!-- Node1&#45;&gt;Node34 -->
<g id="edge33" class="edge"><title>Node1&#45;&gt;Node34</title>
<path fill="none" stroke="midnightblue" d="M52.6756,-556.432C64.3035,-530.572 88.8188,-483.971 124,-458 129.305,-454.084 135.254,-450.8 141.445,-448.048"/>
<polygon fill="midnightblue" stroke="midnightblue" points="49.3676,-555.264 48.6091,-565.832 55.7921,-558.043 49.3676,-555.264"/>
</g>
<!-- Node36 -->
<g id="node36" class="node"><title>Node36</title>
<g id="a_node36"><a xlink:href="classRMF_1_1decorator_1_1JournalArticleConst.html" target="_top" xlink:title="RMF::decorator::JournalArticle\lConst">
<polygon fill="none" stroke="black" points="128.2,-373 128.2,-401 279.8,-401 279.8,-373 128.2,-373"/>
<text text-anchor="start" x="136.2" y="-389" font-family="Helvetica,sans-Serif" font-size="10.00">RMF::decorator::JournalArticle</text>
<text text-anchor="middle" x="204" y="-379" font-family="Helvetica,sans-Serif" font-size="10.00">Const</text>
</a>
</g>
</g>
<!-- Node1&#45;&gt;Node36 -->
<g id="edge35" class="edge"><title>Node1&#45;&gt;Node36</title>
<path fill="none" stroke="midnightblue" d="M48.8936,-555.962C56.8659,-521.835 78.2885,-450.164 124,-411 128.572,-407.083 133.77,-403.805 139.266,-401.062"/>
<polygon fill="midnightblue" stroke="midnightblue" points="45.4168,-555.476 46.69,-565.994 52.2539,-556.978 45.4168,-555.476"/>
</g>
<!-- Node38 -->
<g id="node38" class="node"><title>Node38</title>
<g id="a_node38"><a xlink:href="classRMF_1_1decorator_1_1ParticleConst.html" target="_top" xlink:title="RMF::decorator::Particle\lConst">
<polygon fill="none" stroke="black" points="141.818,-326 141.818,-354 266.182,-354 266.182,-326 141.818,-326"/>
<text text-anchor="start" x="149.818" y="-342" font-family="Helvetica,sans-Serif" font-size="10.00">RMF::decorator::Particle</text>
<text text-anchor="middle" x="204" y="-332" font-family="Helvetica,sans-Serif" font-size="10.00">Const</text>
</a>
</g>
</g>
<!-- Node1&#45;&gt;Node38 -->
<g id="edge37" class="edge"><title>Node1&#45;&gt;Node38</title>
<path fill="none" stroke="midnightblue" d="M46.608,-555.797C51.0957,-514.584 67.4295,-417.098 124,-364 129.121,-359.193 135.176,-355.347 141.62,-352.27"/>
<polygon fill="midnightblue" stroke="midnightblue" points="43.1152,-555.554 45.6327,-565.846 50.0824,-556.23 43.1152,-555.554"/>
</g>
<!-- Node40 -->
<g id="node40" class="node"><title>Node40</title>
<g id="a_node40"><a xlink:href="classRMF_1_1decorator_1_1ReferenceFrameConst.html" target="_top" xlink:title="RMF::decorator::Reference\lFrameConst">
<polygon fill="none" stroke="black" points="135.421,-279 135.421,-307 272.579,-307 272.579,-279 135.421,-279"/>
<text text-anchor="start" x="143.421" y="-295" font-family="Helvetica,sans-Serif" font-size="10.00">RMF::decorator::Reference</text>
<text text-anchor="middle" x="204" y="-285" font-family="Helvetica,sans-Serif" font-size="10.00">FrameConst</text>
</a>
</g>
</g>
<!-- Node1&#45;&gt;Node40 -->
<g id="edge39" class="edge"><title>Node1&#45;&gt;Node40</title>
<path fill="none" stroke="midnightblue" d="M45.078,-555.86C46.3363,-508.455 56.2977,-384.554 124,-317 127.856,-313.153 132.308,-309.919 137.094,-307.201"/>
<polygon fill="midnightblue" stroke="midnightblue" points="41.577,-555.897 44.9167,-565.952 48.5761,-556.009 41.577,-555.897"/>
</g>
<!-- Node42 -->
<g id="node42" class="node"><title>Node42</title>
<g id="a_node42"><a xlink:href="classRMF_1_1decorator_1_1RepresentationConst.html" target="_top" xlink:title="RMF::decorator::Representation\lConst">
<polygon fill="none" stroke="black" points="124.579,-232 124.579,-260 283.421,-260 283.421,-232 124.579,-232"/>
<text text-anchor="start" x="132.579" y="-248" font-family="Helvetica,sans-Serif" font-size="10.00">RMF::decorator::Representation</text>
<text text-anchor="middle" x="204" y="-238" font-family="Helvetica,sans-Serif" font-size="10.00">Const</text>
</a>
</g>
</g>
<!-- Node1&#45;&gt;Node42 -->
<g id="edge41" class="edge"><title>Node1&#45;&gt;Node42</title>
<path fill="none" stroke="midnightblue" d="M47.4948,-555.851C55.6953,-495.707 83.6229,-312.088 124,-270 127.771,-266.069 132.163,-262.777 136.909,-260.019"/>
<polygon fill="midnightblue" stroke="midnightblue" points="44.0114,-555.494 46.157,-565.87 50.9498,-556.421 44.0114,-555.494"/>
</g>
<!-- Node44 -->
<g id="node44" class="node"><title>Node44</title>
<g id="a_node44"><a xlink:href="classRMF_1_1decorator_1_1ResidueConst.html" target="_top" xlink:title="RMF::decorator::ResidueConst">
<polygon fill="none" stroke="red" points="127.084,-195 127.084,-213 280.916,-213 280.916,-195 127.084,-195"/>
<text text-anchor="middle" x="204" y="-201" font-family="Helvetica,sans-Serif" font-size="10.00">RMF::decorator::ResidueConst</text>
</a>
</g>
</g>
<!-- Node1&#45;&gt;Node44 -->
<g id="edge43" class="edge"><title>Node1&#45;&gt;Node44</title>
<path fill="none" stroke="midnightblue" d="M46.7045,-555.461C52.9199,-488.713 76.5297,-271.2 124,-223 127.959,-218.98 132.61,-215.752 137.64,-213.167"/>
<polygon fill="midnightblue" stroke="midnightblue" points="43.1859,-555.51 45.7717,-565.784 50.1575,-556.14 43.1859,-555.51"/>
</g>
<!-- Node45 -->
<g id="node45" class="node"><title>Node45</title>
<g id="a_node45"><a xlink:href="classRMF_1_1decorator_1_1RigidParticleConst.html" target="_top" xlink:title="RMF::decorator::RigidParticle\lConst">
<polygon fill="none" stroke="red" points="130.424,-148 130.424,-176 277.576,-176 277.576,-148 130.424,-148"/>
<text text-anchor="start" x="138.424" y="-164" font-family="Helvetica,sans-Serif" font-size="10.00">RMF::decorator::RigidParticle</text>
<text text-anchor="middle" x="204" y="-154" font-family="Helvetica,sans-Serif" font-size="10.00">Const</text>
</a>
</g>
</g>
<!-- Node1&#45;&gt;Node45 -->
<g id="edge44" class="edge"><title>Node1&#45;&gt;Node45</title>
<path fill="none" stroke="midnightblue" d="M46.339,-555.839C51.6383,-485.352 73.3755,-241.654 124,-186 127.569,-182.077 131.756,-178.786 136.309,-176.027"/>
<polygon fill="midnightblue" stroke="midnightblue" points="42.8391,-555.711 45.6046,-565.939 49.8207,-556.219 42.8391,-555.711"/>
</g>
<!-- Node46 -->
<g id="node46" class="node"><title>Node46</title>
<g id="a_node46"><a xlink:href="classRMF_1_1decorator_1_1ScoreConst.html" target="_top" xlink:title="RMF::decorator::ScoreConst">
<polygon fill="none" stroke="red" points="132.367,-111 132.367,-129 275.633,-129 275.633,-111 132.367,-111"/>
<text text-anchor="middle" x="204" y="-117" font-family="Helvetica,sans-Serif" font-size="10.00">RMF::decorator::ScoreConst</text>
</a>
</g>
</g>
<!-- Node1&#45;&gt;Node46 -->
<g id="edge45" class="edge"><title>Node1&#45;&gt;Node46</title>
<path fill="none" stroke="midnightblue" d="M45.768,-555.907C49.2115,-479.995 65.7099,-200.697 124,-139 127.778,-135.001 132.239,-131.78 137.086,-129.191"/>
<polygon fill="midnightblue" stroke="midnightblue" points="42.2698,-555.792 45.337,-565.933 49.2633,-556.092 42.2698,-555.792"/>
</g>
<!-- Node47 -->
<g id="node47" class="node"><title>Node47</title>
<g id="a_node47"><a xlink:href="classRMF_1_1decorator_1_1SegmentConst.html" target="_top" xlink:title="RMF::decorator::SegmentConst">
<polygon fill="none" stroke="red" points="125.417,-74 125.417,-92 282.583,-92 282.583,-74 125.417,-74"/>
<text text-anchor="middle" x="204" y="-80" font-family="Helvetica,sans-Serif" font-size="10.00">RMF::decorator::SegmentConst</text>
</a>
</g>
</g>
<!-- Node1&#45;&gt;Node47 -->
<g id="edge46" class="edge"><title>Node1&#45;&gt;Node47</title>
<path fill="none" stroke="midnightblue" d="M45.4739,-555.848C47.8468,-475.877 60.9762,-169.634 124,-102 127.751,-97.9751 132.192,-94.7356 137.026,-92.1356"/>
<polygon fill="midnightblue" stroke="midnightblue" points="41.9725,-555.858 45.1972,-565.95 48.9698,-556.05 41.9725,-555.858"/>
</g>
<!-- Node48 -->
<g id="node48" class="node"><title>Node48</title>
<g id="a_node48"><a xlink:href="classRMF_1_1decorator_1_1StateConst.html" target="_top" xlink:title="RMF::decorator::StateConst">
<polygon fill="none" stroke="red" points="133.754,-37 133.754,-55 274.246,-55 274.246,-37 133.754,-37"/>
<text text-anchor="middle" x="204" y="-43" font-family="Helvetica,sans-Serif" font-size="10.00">RMF::decorator::StateConst</text>
</a>
</g>
</g>
<!-- Node1&#45;&gt;Node48 -->
<g id="edge47" class="edge"><title>Node1&#45;&gt;Node48</title>
<path fill="none" stroke="midnightblue" d="M45.226,-555.437C46.6065,-470.969 56.3233,-138.492 124,-65 127.727,-60.953 132.151,-57.6982 136.975,-55.088"/>
<polygon fill="midnightblue" stroke="midnightblue" points="41.7233,-555.608 45.0814,-565.657 48.7226,-555.707 41.7233,-555.608"/>
</g>
<!-- Node49 -->
<g id="node49" class="node"><title>Node49</title>
<g id="a_node49"><a xlink:href="classRMF_1_1decorator_1_1TypedConst.html" target="_top" xlink:title="RMF::decorator::TypedConst">
<polygon fill="none" stroke="red" points="131.806,-0 131.806,-18 276.194,-18 276.194,-0 131.806,-0"/>
<text text-anchor="middle" x="204" y="-6" font-family="Helvetica,sans-Serif" font-size="10.00">RMF::decorator::TypedConst</text>
</a>
</g>
</g>
<!-- Node1&#45;&gt;Node49 -->
<g id="edge48" class="edge"><title>Node1&#45;&gt;Node49</title>
<path fill="none" stroke="midnightblue" d="M44.9989,-555.719C45.3947,-468.013 51.4722,-107.575 124,-28 127.706,-23.934 132.116,-20.6659 136.93,-18.0469"/>
<polygon fill="midnightblue" stroke="midnightblue" points="41.4987,-555.824 44.9745,-565.833 48.4987,-555.841 41.4987,-555.824"/>
</g>
<!-- Node3 -->
<g id="node3" class="node"><title>Node3</title>
<g id="a_node3"><a xlink:href="classRMF_1_1decorator_1_1Alias.html" target="_top" xlink:title="RMF::decorator::Alias">
<polygon fill="none" stroke="black" points="343.653,-1102 343.653,-1120 456.347,-1120 456.347,-1102 343.653,-1102"/>
<text text-anchor="middle" x="400" y="-1108" font-family="Helvetica,sans-Serif" font-size="10.00">RMF::decorator::Alias</text>
</a>
</g>
</g>
<!-- Node2&#45;&gt;Node3 -->
<g id="edge2" class="edge"><title>Node2&#45;&gt;Node3</title>
<path fill="none" stroke="midnightblue" d="M283.722,-1111C303.772,-1111 324.902,-1111 343.518,-1111"/>
<polygon fill="midnightblue" stroke="midnightblue" points="283.67,-1107.5 273.67,-1111 283.67,-1114.5 283.67,-1107.5"/>
</g>
<!-- Node5 -->
<g id="node5" class="node"><title>Node5</title>
<g id="a_node5"><a xlink:href="classRMF_1_1decorator_1_1Alternatives.html" target="_top" xlink:title="RMF::decorator::Alternatives">
<polygon fill="none" stroke="black" points="328.367,-1060 328.367,-1078 471.633,-1078 471.633,-1060 328.367,-1060"/>
<text text-anchor="middle" x="400" y="-1066" font-family="Helvetica,sans-Serif" font-size="10.00">RMF::decorator::Alternatives</text>
</a>
</g>
</g>
<!-- Node4&#45;&gt;Node5 -->
<g id="edge4" class="edge"><title>Node4&#45;&gt;Node5</title>
<path fill="none" stroke="midnightblue" d="M285.999,-1069C300.057,-1069 314.576,-1069 328.33,-1069"/>
<polygon fill="midnightblue" stroke="midnightblue" points="285.862,-1065.5 275.862,-1069 285.862,-1072.5 285.862,-1065.5"/>
</g>
<!-- Node7 -->
<g id="node7" class="node"><title>Node7</title>
<g id="a_node7"><a xlink:href="classRMF_1_1decorator_1_1Atom.html" target="_top" xlink:title="RMF::decorator::Atom">
<polygon fill="none" stroke="black" points="342.82,-1018 342.82,-1036 457.18,-1036 457.18,-1018 342.82,-1018"/>
<text text-anchor="middle" x="400" y="-1024" font-family="Helvetica,sans-Serif" font-size="10.00">RMF::decorator::Atom</text>
</a>
</g>
</g>
<!-- Node6&#45;&gt;Node7 -->
<g id="edge6" class="edge"><title>Node6&#45;&gt;Node7</title>
<path fill="none" stroke="midnightblue" d="M284.588,-1027C304.099,-1027 324.582,-1027 342.739,-1027"/>
<polygon fill="midnightblue" stroke="midnightblue" points="284.491,-1023.5 274.49,-1027 284.49,-1030.5 284.491,-1023.5"/>
</g>
<!-- Node9 -->
<g id="node9" class="node"><title>Node9</title>
<g id="a_node9"><a xlink:href="classRMF_1_1decorator_1_1BackwardsCompatibilityFragment.html" target="_top" xlink:title="RMF::decorator::Backwards\lCompatibilityFragment">
<polygon fill="none" stroke="black" points="330.037,-971 330.037,-999 469.963,-999 469.963,-971 330.037,-971"/>
<text text-anchor="start" x="338.037" y="-987" font-family="Helvetica,sans-Serif" font-size="10.00">RMF::decorator::Backwards</text>
<text text-anchor="middle" x="400" y="-977" font-family="Helvetica,sans-Serif" font-size="10.00">CompatibilityFragment</text>
</a>
</g>
</g>
<!-- Node8&#45;&gt;Node9 -->
<g id="edge8" class="edge"><title>Node8&#45;&gt;Node9</title>
<path fill="none" stroke="midnightblue" d="M285.435,-985C300.204,-985 315.501,-985 329.901,-985"/>
<polygon fill="midnightblue" stroke="midnightblue" points="285.313,-981.5 275.313,-985 285.313,-988.5 285.313,-981.5"/>
</g>
<!-- Node11 -->
<g id="node11" class="node"><title>Node11</title>
<g id="a_node11"><a xlink:href="classRMF_1_1decorator_1_1Ball.html" target="_top" xlink:title="RMF::decorator::Ball">
<polygon fill="none" stroke="black" points="346.153,-934 346.153,-952 453.847,-952 453.847,-934 346.153,-934"/>
<text text-anchor="middle" x="400" y="-940" font-family="Helvetica,sans-Serif" font-size="10.00">RMF::decorator::Ball</text>
</a>
</g>
</g>
<!-- Node10&#45;&gt;Node11 -->
<g id="edge10" class="edge"><title>Node10&#45;&gt;Node11</title>
<path fill="none" stroke="midnightblue" d="M281.144,-943C302.872,-943 326.064,-943 346.077,-943"/>
<polygon fill="midnightblue" stroke="midnightblue" points="280.95,-939.5 270.95,-943 280.95,-946.5 280.95,-939.5"/>
</g>
<!-- Node13 -->
<g id="node13" class="node"><title>Node13</title>
<g id="a_node13"><a xlink:href="classRMF_1_1decorator_1_1Bond.html" target="_top" xlink:title="RMF::decorator::Bond">
<polygon fill="none" stroke="black" points="342.813,-897 342.813,-915 457.187,-915 457.187,-897 342.813,-897"/>
<text text-anchor="middle" x="400" y="-903" font-family="Helvetica,sans-Serif" font-size="10.00">RMF::decorator::Bond</text>
</a>
</g>
</g>
<!-- Node12&#45;&gt;Node13 -->
<g id="edge12" class="edge"><title>Node12&#45;&gt;Node13</title>
<path fill="none" stroke="midnightblue" d="M284.588,-906C304.099,-906 324.582,-906 342.739,-906"/>
<polygon fill="midnightblue" stroke="midnightblue" points="284.491,-902.5 274.49,-906 284.49,-909.5 284.491,-902.5"/>
</g>
<!-- Node15 -->
<g id="node15" class="node"><title>Node15</title>
<g id="a_node15"><a xlink:href="classRMF_1_1decorator_1_1Chain.html" target="_top" xlink:title="RMF::decorator::Chain">
<polygon fill="none" stroke="black" points="341.426,-860 341.426,-878 458.574,-878 458.574,-860 341.426,-860"/>
<text text-anchor="middle" x="400" y="-866" font-family="Helvetica,sans-Serif" font-size="10.00">RMF::decorator::Chain</text>
</a>
</g>
</g>
<!-- Node14&#45;&gt;Node15 -->
<g id="edge14" class="edge"><title>Node14&#45;&gt;Node15</title>
<path fill="none" stroke="midnightblue" d="M286.077,-869C304.644,-869 324.012,-869 341.357,-869"/>
<polygon fill="midnightblue" stroke="midnightblue" points="285.862,-865.5 275.862,-869 285.862,-872.5 285.862,-865.5"/>
</g>
<!-- Node17 -->
<g id="node17" class="node"><title>Node17</title>
<g id="a_node17"><a xlink:href="classRMF_1_1decorator_1_1Colored.html" target="_top" xlink:title="RMF::decorator::Colored">
<polygon fill="none" stroke="black" points="336.98,-823 336.98,-841 463.02,-841 463.02,-823 336.98,-823"/>
<text text-anchor="middle" x="400" y="-829" font-family="Helvetica,sans-Serif" font-size="10.00">RMF::decorator::Colored</text>
</a>
</g>
</g>
<!-- Node16&#45;&gt;Node17 -->
<g id="edge16" class="edge"><title>Node16&#45;&gt;Node17</title>
<path fill="none" stroke="midnightblue" d="M290.481,-832C306.115,-832 322.154,-832 336.942,-832"/>
<polygon fill="midnightblue" stroke="midnightblue" points="290.283,-828.5 280.283,-832 290.283,-835.5 290.283,-828.5"/>
</g>
<!-- Node19 -->
<g id="node19" class="node"><title>Node19</title>
<g id="a_node19"><a xlink:href="classRMF_1_1decorator_1_1Copy.html" target="_top" xlink:title="RMF::decorator::Copy">
<polygon fill="none" stroke="black" points="342.818,-786 342.818,-804 457.182,-804 457.182,-786 342.818,-786"/>
<text text-anchor="middle" x="400" y="-792" font-family="Helvetica,sans-Serif" font-size="10.00">RMF::decorator::Copy</text>
</a>
</g>
</g>
<!-- Node18&#45;&gt;Node19 -->
<g id="edge18" class="edge"><title>Node18&#45;&gt;Node19</title>
<path fill="none" stroke="midnightblue" d="M284.588,-795C304.099,-795 324.582,-795 342.739,-795"/>
<polygon fill="midnightblue" stroke="midnightblue" points="284.491,-791.5 274.49,-795 284.49,-798.5 284.491,-791.5"/>
</g>
<!-- Node21 -->
<g id="node21" class="node"><title>Node21</title>
<g id="a_node21"><a xlink:href="classRMF_1_1decorator_1_1Cylinder.html" target="_top" xlink:title="RMF::decorator::Cylinder">
<polygon fill="none" stroke="black" points="336.15,-744 336.15,-762 463.85,-762 463.85,-744 336.15,-744"/>
<text text-anchor="middle" x="400" y="-750" font-family="Helvetica,sans-Serif" font-size="10.00">RMF::decorator::Cylinder</text>
</a>
</g>
</g>
<!-- Node20&#45;&gt;Node21 -->
<g id="edge20" class="edge"><title>Node20&#45;&gt;Node21</title>
<path fill="none" stroke="midnightblue" d="M278.112,-753C297.161,-753 317.522,-753 335.998,-753"/>
<polygon fill="midnightblue" stroke="midnightblue" points="277.986,-749.5 267.986,-753 277.986,-756.5 277.986,-749.5"/>
</g>
<!-- Node23 -->
<g id="node23" class="node"><title>Node23</title>
<g id="a_node23"><a xlink:href="classRMF_1_1decorator_1_1Diffuser.html" target="_top" xlink:title="RMF::decorator::Diffuser">
<polygon fill="none" stroke="black" points="337.352,-697 337.352,-715 462.648,-715 462.648,-697 337.352,-697"/>
<text text-anchor="middle" x="400" y="-703" font-family="Helvetica,sans-Serif" font-size="10.00">RMF::decorator::Diffuser</text>
</a>
</g>
</g>
<!-- Node22&#45;&gt;Node23 -->
<g id="edge22" class="edge"><title>Node22&#45;&gt;Node23</title>
<path fill="none" stroke="midnightblue" d="M276.855,-706C296.668,-706 317.986,-706 337.178,-706"/>
<polygon fill="midnightblue" stroke="midnightblue" points="276.649,-702.5 266.649,-706 276.649,-709.5 276.649,-702.5"/>
</g>
<!-- Node25 -->
<g id="node25" class="node"><title>Node25</title>
<g id="a_node25"><a xlink:href="classRMF_1_1decorator_1_1Domain.html" target="_top" xlink:title="RMF::decorator::Domain">
<polygon fill="none" stroke="black" points="337.261,-655 337.261,-673 462.739,-673 462.739,-655 337.261,-655"/>
<text text-anchor="middle" x="400" y="-661" font-family="Helvetica,sans-Serif" font-size="10.00">RMF::decorator::Domain</text>
</a>
</g>
</g>
<!-- Node24&#45;&gt;Node25 -->
<g id="edge24" class="edge"><title>Node24&#45;&gt;Node25</title>
<path fill="none" stroke="midnightblue" d="M290.275,-664C306.02,-664 322.185,-664 337.074,-664"/>
<polygon fill="midnightblue" stroke="midnightblue" points="290.005,-660.5 280.005,-664 290.005,-667.5 290.005,-660.5"/>
</g>
<!-- Node27 -->
<g id="node27" class="node"><title>Node27</title>
<g id="a_node27"><a xlink:href="classRMF_1_1decorator_1_1Ellipsoid.html" target="_top" xlink:title="RMF::decorator::Ellipsoid">
<polygon fill="none" stroke="black" points="335.87,-613 335.87,-631 464.13,-631 464.13,-613 335.87,-613"/>
<text text-anchor="middle" x="400" y="-619" font-family="Helvetica,sans-Serif" font-size="10.00">RMF::decorator::Ellipsoid</text>
</a>
</g>
</g>
<!-- Node26&#45;&gt;Node27 -->
<g id="edge26" class="edge"><title>Node26&#45;&gt;Node27</title>
<path fill="none" stroke="midnightblue" d="M278.32,-622C297.252,-622 317.467,-622 335.832,-622"/>
<polygon fill="midnightblue" stroke="midnightblue" points="278.254,-618.5 268.254,-622 278.254,-625.5 278.254,-618.5"/>
</g>
<!-- Node29 -->
<g id="node29" class="node"><title>Node29</title>
<g id="a_node29"><a xlink:href="classRMF_1_1decorator_1_1External.html" target="_top" xlink:title="RMF::decorator::External">
<polygon fill="none" stroke="black" points="336.148,-566 336.148,-584 463.852,-584 463.852,-566 336.148,-566"/>
<text text-anchor="middle" x="400" y="-572" font-family="Helvetica,sans-Serif" font-size="10.00">RMF::decorator::External</text>
</a>
</g>
</g>
<!-- Node28&#45;&gt;Node29 -->
<g id="edge28" class="edge"><title>Node28&#45;&gt;Node29</title>
<path fill="none" stroke="midnightblue" d="M278.112,-575C297.161,-575 317.522,-575 335.998,-575"/>
<polygon fill="midnightblue" stroke="midnightblue" points="277.986,-571.5 267.986,-575 277.986,-578.5 277.986,-571.5"/>
</g>
<!-- Node31 -->
<g id="node31" class="node"><title>Node31</title>
<g id="a_node31"><a xlink:href="classRMF_1_1decorator_1_1Fragment.html" target="_top" xlink:title="RMF::decorator::Fragment">
<polygon fill="none" stroke="black" points="333.094,-519 333.094,-537 466.906,-537 466.906,-519 333.094,-519"/>
<text text-anchor="middle" x="400" y="-525" font-family="Helvetica,sans-Serif" font-size="10.00">RMF::decorator::Fragment</text>
</a>
</g>
</g>
<!-- Node30&#45;&gt;Node31 -->
<g id="edge30" class="edge"><title>Node30&#45;&gt;Node31</title>
<path fill="none" stroke="midnightblue" d="M281.413,-528C298.433,-528 316.339,-528 332.903,-528"/>
<polygon fill="midnightblue" stroke="midnightblue" points="280.95,-524.5 270.95,-528 280.95,-531.5 280.95,-524.5"/>
</g>
<!-- Node33 -->
<g id="node33" class="node"><title>Node33</title>
<g id="a_node33"><a xlink:href="classRMF_1_1decorator_1_1GaussianParticle.html" target="_top" xlink:title="RMF::decorator::Gaussian\lParticle">
<polygon fill="none" stroke="black" points="333.367,-467 333.367,-495 466.633,-495 466.633,-467 333.367,-467"/>
<text text-anchor="start" x="341.367" y="-483" font-family="Helvetica,sans-Serif" font-size="10.00">RMF::decorator::Gaussian</text>
<text text-anchor="middle" x="400" y="-473" font-family="Helvetica,sans-Serif" font-size="10.00">Particle</text>
</a>
</g>
</g>
<!-- Node32&#45;&gt;Node33 -->
<g id="edge32" class="edge"><title>Node32&#45;&gt;Node33</title>
<path fill="none" stroke="midnightblue" d="M280.725,-481C298.003,-481 316.228,-481 333.058,-481"/>
<polygon fill="midnightblue" stroke="midnightblue" points="280.68,-477.5 270.68,-481 280.68,-484.5 280.68,-477.5"/>
</g>
<!-- Node35 -->
<g id="node35" class="node"><title>Node35</title>
<g id="a_node35"><a xlink:href="classRMF_1_1decorator_1_1IntermediateParticle.html" target="_top" xlink:title="RMF::decorator::Intermediate\lParticle">
<polygon fill="none" stroke="black" points="326.697,-420 326.697,-448 473.303,-448 473.303,-420 326.697,-420"/>
<text text-anchor="start" x="334.697" y="-436" font-family="Helvetica,sans-Serif" font-size="10.00">RMF::decorator::Intermediate</text>
<text text-anchor="middle" x="400" y="-426" font-family="Helvetica,sans-Serif" font-size="10.00">Particle</text>
</a>
</g>
</g>
<!-- Node34&#45;&gt;Node35 -->
<g id="edge34" class="edge"><title>Node34&#45;&gt;Node35</title>
<path fill="none" stroke="midnightblue" d="M287.772,-434C300.676,-434 313.923,-434 326.574,-434"/>
<polygon fill="midnightblue" stroke="midnightblue" points="287.514,-430.5 277.514,-434 287.514,-437.5 287.514,-430.5"/>
</g>
<!-- Node37 -->
<g id="node37" class="node"><title>Node37</title>
<g id="a_node37"><a xlink:href="classRMF_1_1decorator_1_1JournalArticle.html" target="_top" xlink:title="RMF::decorator::JournalArticle">
<polygon fill="none" stroke="black" points="324.2,-378 324.2,-396 475.8,-396 475.8,-378 324.2,-378"/>
<text text-anchor="middle" x="400" y="-384" font-family="Helvetica,sans-Serif" font-size="10.00">RMF::decorator::JournalArticle</text>
</a>
</g>
</g>
<!-- Node36&#45;&gt;Node37 -->
<g id="edge36" class="edge"><title>Node36&#45;&gt;Node37</title>
<path fill="none" stroke="midnightblue" d="M290.298,-387C301.59,-387 313.097,-387 324.194,-387"/>
<polygon fill="midnightblue" stroke="midnightblue" points="290.005,-383.5 280.005,-387 290.005,-390.5 290.005,-383.5"/>
</g>
<!-- Node39 -->
<g id="node39" class="node"><title>Node39</title>
<g id="a_node39"><a xlink:href="classRMF_1_1decorator_1_1Particle.html" target="_top" xlink:title="RMF::decorator::Particle">
<polygon fill="none" stroke="black" points="337.818,-331 337.818,-349 462.182,-349 462.182,-331 337.818,-331"/>
<text text-anchor="middle" x="400" y="-337" font-family="Helvetica,sans-Serif" font-size="10.00">RMF::decorator::Particle</text>
</a>
</g>
</g>
<!-- Node38&#45;&gt;Node39 -->
<g id="edge38" class="edge"><title>Node38&#45;&gt;Node39</title>
<path fill="none" stroke="midnightblue" d="M276.422,-340C296.532,-340 318.221,-340 337.684,-340"/>
<polygon fill="midnightblue" stroke="midnightblue" points="276.383,-336.5 266.383,-340 276.383,-343.5 276.383,-336.5"/>
</g>
<!-- Node41 -->
<g id="node41" class="node"><title>Node41</title>
<g id="a_node41"><a xlink:href="classRMF_1_1decorator_1_1ReferenceFrame.html" target="_top" xlink:title="RMF::decorator::Reference\lFrame">
<polygon fill="none" stroke="black" points="331.421,-279 331.421,-307 468.579,-307 468.579,-279 331.421,-279"/>
<text text-anchor="start" x="339.421" y="-295" font-family="Helvetica,sans-Serif" font-size="10.00">RMF::decorator::Reference</text>
<text text-anchor="middle" x="400" y="-285" font-family="Helvetica,sans-Serif" font-size="10.00">Frame</text>
</a>
</g>
</g>
<!-- Node40&#45;&gt;Node41 -->
<g id="edge40" class="edge"><title>Node40&#45;&gt;Node41</title>
<path fill="none" stroke="midnightblue" d="M282.979,-293C298.99,-293 315.722,-293 331.334,-293"/>
<polygon fill="midnightblue" stroke="midnightblue" points="282.579,-289.5 272.579,-293 282.579,-296.5 282.579,-289.5"/>
</g>
<!-- Node43 -->
<g id="node43" class="node"><title>Node43</title>
<g id="a_node43"><a xlink:href="classRMF_1_1decorator_1_1Representation.html" target="_top" xlink:title="RMF::decorator::Representation">
<polygon fill="none" stroke="black" points="320.579,-237 320.579,-255 479.421,-255 479.421,-237 320.579,-237"/>
<text text-anchor="middle" x="400" y="-243" font-family="Helvetica,sans-Serif" font-size="10.00">RMF::decorator::Representation</text>
</a>
</g>
</g>
<!-- Node42&#45;&gt;Node43 -->
<g id="edge42" class="edge"><title>Node42&#45;&gt;Node43</title>
<path fill="none" stroke="midnightblue" d="M293.696,-246C302.663,-246 311.727,-246 320.576,-246"/>
<polygon fill="midnightblue" stroke="midnightblue" points="293.628,-242.5 283.628,-246 293.628,-249.5 293.628,-242.5"/>
</g>
</g>
</svg>
