<?xml version="1.0" encoding="UTF-8" standalone="no"?>
<!DOCTYPE svg PUBLIC "-//W3C//DTD SVG 1.1//EN"
 "http://www.w3.org/Graphics/SVG/1.1/DTD/svg11.dtd">
<!-- Generated by graphviz version 2.36.0 (20140111.2315)
 -->
<!-- Title: RMF::decorator::Fragment Pages: 1 -->
<svg width="140pt" height="150pt"
 viewBox="0.00 0.00 140.00 150.00" xmlns="http://www.w3.org/2000/svg" xmlns:xlink="http://www.w3.org/1999/xlink">
<g id="graph0" class="graph" transform="scale(1 1) rotate(0) translate(4 146)">
<title>RMF::decorator::Fragment</title>
<!-- Node1 -->
<g id="node1" class="node"><title>Node1</title>
<polygon fill="#bfbfbf" stroke="black" points="-0.90625,-1 -0.90625,-19 132.906,-19 132.906,-1 -0.90625,-1"/>
<text text-anchor="middle" x="66" y="-7" font-family="Helvetica,sans-Serif" font-size="10.00">RMF::decorator::Fragment</text>
</g>
<!-- Node2 -->
<g id="node2" class="node"><title>Node2</title>
<g id="a_node2"><a xlink:href="classRMF_1_1decorator_1_1FragmentConst.html" target="_top" xlink:title="RMF::decorator::Fragment\lConst">
<polygon fill="none" stroke="black" points="-0.90625,-57 -0.90625,-85 132.906,-85 132.906,-57 -0.90625,-57"/>
<text text-anchor="start" x="7.09375" y="-73" font-family="Helvetica,sans-Serif" font-size="10.00">RMF::decorator::Fragment</text>
<text text-anchor="middle" x="66" y="-63" font-family="Helvetica,sans-Serif" font-size="10.00">Const</text>
</a>
</g>
</g>
<!-- Node2&#45;&gt;Node1 -->
<g id="edge1" class="edge"><title>Node2&#45;&gt;Node1</title>
<path fill="none" stroke="midnightblue" d="M66,-46.8856C66,-37.0939 66,-26.3163 66,-19.1534"/>
<polygon fill="midnightblue" stroke="midnightblue" points="62.5001,-46.906 66,-56.906 69.5001,-46.906 62.5001,-46.906"/>
</g>
<!-- Node3 -->
<g id="node3" class="node"><title>Node3</title>
<g id="a_node3"><a xlink:href="classRMF_1_1Decorator.html" target="_top" xlink:title="The base class for decorators. ">
<polygon fill="none" stroke="black" points="22.4385,-123 22.4385,-141 109.562,-141 109.562,-123 22.4385,-123"/>
<text text-anchor="middle" x="66" y="-129" font-family="Helvetica,sans-Serif" font-size="10.00">RMF::Decorator</text>
</a>
</g>
</g>
<!-- Node3&#45;&gt;Node2 -->
<g id="edge2" class="edge"><title>Node3&#45;&gt;Node2</title>
<path fill="none" stroke="midnightblue" d="M66,-112.654C66,-103.736 66,-93.2225 66,-85.1215"/>
<polygon fill="midnightblue" stroke="midnightblue" points="62.5001,-112.796 66,-122.796 69.5001,-112.796 62.5001,-112.796"/>
</g>
</g>
</svg>
