<?xml version="1.0" encoding="UTF-8" standalone="no"?>
<!DOCTYPE svg PUBLIC "-//W3C//DTD SVG 1.1//EN"
 "http://www.w3.org/Graphics/SVG/1.1/DTD/svg11.dtd">
<!-- Generated by graphviz version 2.36.0 (20140111.2315)
 -->
<!-- Title: RMF::decorator::ReferenceFrame Pages: 1 -->
<svg width="144pt" height="160pt"
 viewBox="0.00 0.00 144.00 160.00" xmlns="http://www.w3.org/2000/svg" xmlns:xlink="http://www.w3.org/1999/xlink">
<g id="graph0" class="graph" transform="scale(1 1) rotate(0) translate(4 156)">
<title>RMF::decorator::ReferenceFrame</title>
<!-- Node1 -->
<g id="node1" class="node"><title>Node1</title>
<polygon fill="#bfbfbf" stroke="black" points="-0.578613,-1 -0.578613,-29 136.579,-29 136.579,-1 -0.578613,-1"/>
<text text-anchor="start" x="7.42139" y="-17" font-family="Helvetica,sans-Serif" font-size="10.00">RMF::decorator::Reference</text>
<text text-anchor="middle" x="68" y="-7" font-family="Helvetica,sans-Serif" font-size="10.00">Frame</text>
</g>
<!-- Node2 -->
<g id="node2" class="node"><title>Node2</title>
<g id="a_node2"><a xlink:href="classRMF_1_1decorator_1_1ReferenceFrameConst.html" target="_top" xlink:title="RMF::decorator::Reference\lFrameConst">
<polygon fill="none" stroke="black" points="-0.578613,-67 -0.578613,-95 136.579,-95 136.579,-67 -0.578613,-67"/>
<text text-anchor="start" x="7.42139" y="-83" font-family="Helvetica,sans-Serif" font-size="10.00">RMF::decorator::Reference</text>
<text text-anchor="middle" x="68" y="-73" font-family="Helvetica,sans-Serif" font-size="10.00">FrameConst</text>
</a>
</g>
</g>
<!-- Node2&#45;&gt;Node1 -->
<g id="edge1" class="edge"><title>Node2&#45;&gt;Node1</title>
<path fill="none" stroke="midnightblue" d="M68,-56.5946C68,-47.3785 68,-37.1352 68,-29.2439"/>
<polygon fill="midnightblue" stroke="midnightblue" points="64.5001,-56.7391 68,-66.7392 71.5001,-56.7392 64.5001,-56.7391"/>
</g>
<!-- Node3 -->
<g id="node3" class="node"><title>Node3</title>
<g id="a_node3"><a xlink:href="classRMF_1_1Decorator.html" target="_top" xlink:title="The base class for decorators. ">
<polygon fill="none" stroke="black" points="24.4385,-133 24.4385,-151 111.562,-151 111.562,-133 24.4385,-133"/>
<text text-anchor="middle" x="68" y="-139" font-family="Helvetica,sans-Serif" font-size="10.00">RMF::Decorator</text>
</a>
</g>
</g>
<!-- Node3&#45;&gt;Node2 -->
<g id="edge2" class="edge"><title>Node3&#45;&gt;Node2</title>
<path fill="none" stroke="midnightblue" d="M68,-122.654C68,-113.736 68,-103.222 68,-95.1215"/>
<polygon fill="midnightblue" stroke="midnightblue" points="64.5001,-122.796 68,-132.796 71.5001,-122.796 64.5001,-122.796"/>
</g>
</g>
</svg>
