<?xml version="1.0" encoding="UTF-8" standalone="no"?>
<!DOCTYPE svg PUBLIC "-//W3C//DTD SVG 1.1//EN"
 "http://www.w3.org/Graphics/SVG/1.1/DTD/svg11.dtd">
<!-- Generated by graphviz version 2.36.0 (20140111.2315)
 -->
<!-- Title: RMF::ID&lt; TagT &gt; Pages: 1 -->
<svg width="342pt" height="399pt"
 viewBox="0.00 0.00 342.00 399.00" xmlns="http://www.w3.org/2000/svg" xmlns:xlink="http://www.w3.org/1999/xlink">
<g id="graph0" class="graph" transform="scale(1 1) rotate(0) translate(4 395)">
<title>RMF::ID&lt; TagT &gt;</title>
<!-- Node1 -->
<g id="node1" class="node"><title>Node1</title>
<polygon fill="#bfbfbf" stroke="black" points="-0.166504,-185 -0.166504,-203 92.1665,-203 92.1665,-185 -0.166504,-185"/>
<text text-anchor="middle" x="46" y="-191" font-family="Helvetica,sans-Serif" font-size="10.00">RMF::ID&lt; TagT &gt;</text>
</g>
<!-- Node2 -->
<g id="node2" class="node"><title>Node2</title>
<g id="a_node2"><a xlink:href="classRMF_1_1ID.html" target="_top" xlink:title="RMF::ID\&lt; IntsTag \&gt;">
<polygon fill="none" stroke="black" points="218.653,-370 218.653,-388 321.347,-388 321.347,-370 218.653,-370"/>
<text text-anchor="middle" x="270" y="-376" font-family="Helvetica,sans-Serif" font-size="10.00">RMF::ID&lt; IntsTag &gt;</text>
</a>
</g>
</g>
<!-- Node1&#45;&gt;Node2 -->
<g id="edge1" class="edge"><title>Node1&#45;&gt;Node2</title>
<path fill="none" stroke="orange" stroke-dasharray="5,2" d="M48.6679,-213.432C52.6991,-247.493 66.1553,-317.703 110,-353 140.176,-377.293 184.24,-382.911 218.331,-382.949"/>
<polygon fill="orange" stroke="orange" points="52.1377,-212.959 47.6318,-203.37 45.1746,-213.676 52.1377,-212.959"/>
<text text-anchor="middle" x="149" y="-383" font-family="Helvetica,sans-Serif" font-size="10.00"> &lt; IntsTag &gt;</text>
</g>
<!-- Node3 -->
<g id="node3" class="node"><title>Node3</title>
<g id="a_node3"><a xlink:href="classRMF_1_1ID.html" target="_top" xlink:title="RMF::ID\&lt; IntTag \&gt;">
<polygon fill="none" stroke="black" points="221.153,-333 221.153,-351 318.847,-351 318.847,-333 221.153,-333"/>
<text text-anchor="middle" x="270" y="-339" font-family="Helvetica,sans-Serif" font-size="10.00">RMF::ID&lt; IntTag &gt;</text>
</a>
</g>
</g>
<!-- Node1&#45;&gt;Node3 -->
<g id="edge2" class="edge"><title>Node1&#45;&gt;Node3</title>
<path fill="none" stroke="orange" stroke-dasharray="5,2" d="M51.8905,-213.162C59.6176,-239.351 77.2506,-285.823 110,-310 141.941,-333.58 186.931,-340.893 220.907,-342.704"/>
<polygon fill="orange" stroke="orange" points="55.2042,-212.013 49.1701,-203.304 48.4564,-213.875 55.2042,-212.013"/>
<text text-anchor="middle" x="149" y="-341" font-family="Helvetica,sans-Serif" font-size="10.00"> &lt; IntTag &gt;</text>
</g>
<!-- Node4 -->
<g id="node4" class="node"><title>Node4</title>
<g id="a_node4"><a xlink:href="classRMF_1_1ID.html" target="_top" xlink:title="RMF::ID\&lt; Vector3sTag \&gt;">
<polygon fill="none" stroke="black" points="207.254,-296 207.254,-314 332.746,-314 332.746,-296 207.254,-296"/>
<text text-anchor="middle" x="270" y="-302" font-family="Helvetica,sans-Serif" font-size="10.00">RMF::ID&lt; Vector3sTag &gt;</text>
</a>
</g>
</g>
<!-- Node1&#45;&gt;Node4 -->
<g id="edge3" class="edge"><title>Node1&#45;&gt;Node4</title>
<path fill="none" stroke="orange" stroke-dasharray="5,2" d="M57.069,-211.655C67.8929,-228.982 86.7222,-254.811 110,-269 139.122,-286.751 176.056,-295.767 206.996,-300.338"/>
<polygon fill="orange" stroke="orange" points="60.0442,-209.811 51.902,-203.032 54.0396,-213.409 60.0442,-209.811"/>
<text text-anchor="middle" x="149" y="-298" font-family="Helvetica,sans-Serif" font-size="10.00"> &lt; Vector3sTag &gt;</text>
</g>
<!-- Node5 -->
<g id="node5" class="node"><title>Node5</title>
<g id="a_node5"><a xlink:href="classRMF_1_1ID.html" target="_top" xlink:title="RMF::ID\&lt; FrameTag \&gt;">
<polygon fill="none" stroke="black" points="212.266,-259 212.266,-277 327.734,-277 327.734,-259 212.266,-259"/>
<text text-anchor="middle" x="270" y="-265" font-family="Helvetica,sans-Serif" font-size="10.00">RMF::ID&lt; FrameTag &gt;</text>
</a>
</g>
</g>
<!-- Node1&#45;&gt;Node5 -->
<g id="edge4" class="edge"><title>Node1&#45;&gt;Node5</title>
<path fill="none" stroke="orange" stroke-dasharray="5,2" d="M67.1972,-208.953C79.1159,-217.135 94.8025,-226.833 110,-233 142.608,-246.232 181.105,-254.872 212.051,-260.256"/>
<polygon fill="orange" stroke="orange" points="69.073,-205.993 58.8878,-203.075 65.0305,-211.707 69.073,-205.993"/>
<text text-anchor="middle" x="149" y="-257" font-family="Helvetica,sans-Serif" font-size="10.00"> &lt; FrameTag &gt;</text>
</g>
<!-- Node6 -->
<g id="node6" class="node"><title>Node6</title>
<g id="a_node6"><a xlink:href="classRMF_1_1ID.html" target="_top" xlink:title="RMF::ID\&lt; StringsTag \&gt;">
<polygon fill="none" stroke="black" points="211.15,-222 211.15,-240 328.85,-240 328.85,-222 211.15,-222"/>
<text text-anchor="middle" x="270" y="-228" font-family="Helvetica,sans-Serif" font-size="10.00">RMF::ID&lt; StringsTag &gt;</text>
</a>
</g>
</g>
<!-- Node1&#45;&gt;Node6 -->
<g id="edge5" class="edge"><title>Node1&#45;&gt;Node6</title>
<path fill="none" stroke="orange" stroke-dasharray="5,2" d="M95.5084,-205.163C100.394,-206.172 105.289,-207.137 110,-208 143.334,-214.106 180.842,-219.597 211.053,-223.681"/>
<polygon fill="orange" stroke="orange" points="96.0642,-201.703 85.5551,-203.048 94.6094,-208.55 96.0642,-201.703"/>
<text text-anchor="middle" x="149" y="-221" font-family="Helvetica,sans-Serif" font-size="10.00"> &lt; StringsTag &gt;</text>
</g>
<!-- Node7 -->
<g id="node7" class="node"><title>Node7</title>
<g id="a_node7"><a xlink:href="classRMF_1_1ID.html" target="_top" xlink:title="RMF::ID\&lt; CategoryTag \&gt;">
<polygon fill="none" stroke="black" points="206.424,-185 206.424,-203 333.576,-203 333.576,-185 206.424,-185"/>
<text text-anchor="middle" x="270" y="-191" font-family="Helvetica,sans-Serif" font-size="10.00">RMF::ID&lt; CategoryTag &gt;</text>
</a>
</g>
</g>
<!-- Node1&#45;&gt;Node7 -->
<g id="edge6" class="edge"><title>Node1&#45;&gt;Node7</title>
<path fill="none" stroke="orange" stroke-dasharray="5,2" d="M102.548,-194C134.052,-194 173.575,-194 206.203,-194"/>
<polygon fill="orange" stroke="orange" points="102.193,-190.5 92.1926,-194 102.193,-197.5 102.193,-190.5"/>
<text text-anchor="middle" x="149" y="-196" font-family="Helvetica,sans-Serif" font-size="10.00"> &lt; CategoryTag &gt;</text>
</g>
<!-- Node8 -->
<g id="node8" class="node"><title>Node8</title>
<g id="a_node8"><a xlink:href="classRMF_1_1ID.html" target="_top" xlink:title="RMF::ID\&lt; NodeTag \&gt;">
<polygon fill="none" stroke="black" points="214.759,-148 214.759,-166 325.241,-166 325.241,-148 214.759,-148"/>
<text text-anchor="middle" x="270" y="-154" font-family="Helvetica,sans-Serif" font-size="10.00">RMF::ID&lt; NodeTag &gt;</text>
</a>
</g>
</g>
<!-- Node1&#45;&gt;Node8 -->
<g id="edge7" class="edge"><title>Node1&#45;&gt;Node8</title>
<path fill="none" stroke="orange" stroke-dasharray="5,2" d="M95.5084,-182.837C100.394,-181.828 105.289,-180.863 110,-180 144.705,-173.643 183.936,-167.952 214.745,-163.822"/>
<polygon fill="orange" stroke="orange" points="94.6094,-179.45 85.5551,-184.952 96.0642,-186.297 94.6094,-179.45"/>
<text text-anchor="middle" x="149" y="-182" font-family="Helvetica,sans-Serif" font-size="10.00"> &lt; NodeTag &gt;</text>
</g>
<!-- Node9 -->
<g id="node9" class="node"><title>Node9</title>
<g id="a_node9"><a xlink:href="classRMF_1_1ID.html" target="_top" xlink:title="RMF::ID\&lt; Vector4Tag \&gt;">
<polygon fill="none" stroke="black" points="209.754,-111 209.754,-129 330.246,-129 330.246,-111 209.754,-111"/>
<text text-anchor="middle" x="270" y="-117" font-family="Helvetica,sans-Serif" font-size="10.00">RMF::ID&lt; Vector4Tag &gt;</text>
</a>
</g>
</g>
<!-- Node1&#45;&gt;Node9 -->
<g id="edge8" class="edge"><title>Node1&#45;&gt;Node9</title>
<path fill="none" stroke="orange" stroke-dasharray="5,2" d="M66.6832,-178.923C78.6311,-170.448 94.5192,-160.331 110,-154 141.746,-141.018 179.173,-132.7 209.738,-127.544"/>
<polygon fill="orange" stroke="orange" points="64.3898,-176.265 58.3866,-184.995 68.5236,-181.914 64.3898,-176.265"/>
<text text-anchor="middle" x="149" y="-156" font-family="Helvetica,sans-Serif" font-size="10.00"> &lt; Vector4Tag &gt;</text>
</g>
<!-- Node10 -->
<g id="node10" class="node"><title>Node10</title>
<g id="a_node10"><a xlink:href="classRMF_1_1ID.html" target="_top" xlink:title="RMF::ID\&lt; Vector3Tag \&gt;">
<polygon fill="none" stroke="black" points="209.754,-74 209.754,-92 330.246,-92 330.246,-74 209.754,-74"/>
<text text-anchor="middle" x="270" y="-80" font-family="Helvetica,sans-Serif" font-size="10.00">RMF::ID&lt; Vector3Tag &gt;</text>
</a>
</g>
</g>
<!-- Node1&#45;&gt;Node10 -->
<g id="edge9" class="edge"><title>Node1&#45;&gt;Node10</title>
<path fill="none" stroke="orange" stroke-dasharray="5,2" d="M56.7501,-176.095C67.4272,-158.257 86.2386,-131.499 110,-117 139.88,-98.7681 178.118,-90.2213 209.607,-86.2547"/>
<polygon fill="orange" stroke="orange" points="53.6099,-174.535 51.6754,-184.952 59.6836,-178.015 53.6099,-174.535"/>
<text text-anchor="middle" x="149" y="-119" font-family="Helvetica,sans-Serif" font-size="10.00"> &lt; Vector3Tag &gt;</text>
</g>
<!-- Node11 -->
<g id="node11" class="node"><title>Node11</title>
<g id="a_node11"><a xlink:href="classRMF_1_1ID.html" target="_top" xlink:title="RMF::ID\&lt; StringTag \&gt;">
<polygon fill="none" stroke="black" points="213.65,-37 213.65,-55 326.35,-55 326.35,-37 213.65,-37"/>
<text text-anchor="middle" x="270" y="-43" font-family="Helvetica,sans-Serif" font-size="10.00">RMF::ID&lt; StringTag &gt;</text>
</a>
</g>
</g>
<!-- Node1&#45;&gt;Node11 -->
<g id="edge10" class="edge"><title>Node1&#45;&gt;Node11</title>
<path fill="none" stroke="orange" stroke-dasharray="5,2" d="M51.6395,-174.851C59.1414,-148.226 76.589,-100.537 110,-76 139.66,-54.2175 180.6,-46.8724 213.509,-44.8927"/>
<polygon fill="orange" stroke="orange" points="48.1702,-174.282 49.0157,-184.843 54.9407,-176.06 48.1702,-174.282"/>
<text text-anchor="middle" x="149" y="-78" font-family="Helvetica,sans-Serif" font-size="10.00"> &lt; StringTag &gt;</text>
</g>
<!-- Node12 -->
<g id="node12" class="node"><title>Node12</title>
<g id="a_node12"><a xlink:href="classRMF_1_1ID.html" target="_top" xlink:title="RMF::ID\&lt; FloatTag \&gt;">
<polygon fill="none" stroke="black" points="215.596,-0 215.596,-18 324.404,-18 324.404,-0 215.596,-0"/>
<text text-anchor="middle" x="270" y="-6" font-family="Helvetica,sans-Serif" font-size="10.00">RMF::ID&lt; FloatTag &gt;</text>
</a>
</g>
</g>
<!-- Node1&#45;&gt;Node12 -->
<g id="edge11" class="edge"><title>Node1&#45;&gt;Node12</title>
<path fill="none" stroke="orange" stroke-dasharray="5,2" d="M48.4888,-174.764C52.2535,-140.386 65.3249,-68.6719 110,-33 139.342,-9.57113 181.742,-4.13603 215.379,-4.25438"/>
<polygon fill="orange" stroke="orange" points="44.9888,-174.601 47.5367,-184.885 51.958,-175.257 44.9888,-174.601"/>
<text text-anchor="middle" x="149" y="-35" font-family="Helvetica,sans-Serif" font-size="10.00"> &lt; FloatTag &gt;</text>
</g>
</g>
</svg>
