<?xml version="1.0" encoding="UTF-8" standalone="no"?>
<!DOCTYPE svg PUBLIC "-//W3C//DTD SVG 1.1//EN"
 "http://www.w3.org/Graphics/SVG/1.1/DTD/svg11.dtd">
<!-- Generated by graphviz version 2.36.0 (20140111.2315)
 -->
<!-- Title: RMF::HDF5::ConstAttributes&lt; Base &gt; Pages: 1 -->
<svg width="1042pt" height="130pt"
 viewBox="0.00 0.00 1042.00 130.00" xmlns="http://www.w3.org/2000/svg" xmlns:xlink="http://www.w3.org/1999/xlink">
<g id="graph0" class="graph" transform="scale(1 1) rotate(0) translate(4 126)">
<title>RMF::HDF5::ConstAttributes&lt; Base &gt;</title>
<!-- Node1 -->
<g id="node1" class="node"><title>Node1</title>
<polygon fill="#bfbfbf" stroke="black" points="0.374512,-61 0.374512,-89 143.625,-89 143.625,-61 0.374512,-61"/>
<text text-anchor="start" x="8.37451" y="-77" font-family="Helvetica,sans-Serif" font-size="10.00">RMF::HDF5::ConstAttributes</text>
<text text-anchor="middle" x="72" y="-67" font-family="Helvetica,sans-Serif" font-size="10.00">&lt; Base &gt;</text>
</g>
<!-- Node2 -->
<g id="node2" class="node"><title>Node2</title>
<g id="a_node2"><a xlink:href="classRMF_1_1HDF5_1_1ConstAttributes.html" target="_top" xlink:title="RMF::HDF5::ConstAttributes\l\&lt; Object \&gt;">
<polygon fill="none" stroke="black" points="230.375,-61 230.375,-89 373.625,-89 373.625,-61 230.375,-61"/>
<text text-anchor="start" x="238.375" y="-77" font-family="Helvetica,sans-Serif" font-size="10.00">RMF::HDF5::ConstAttributes</text>
<text text-anchor="middle" x="302" y="-67" font-family="Helvetica,sans-Serif" font-size="10.00">&lt; Object &gt;</text>
</a>
</g>
</g>
<!-- Node1&#45;&gt;Node2 -->
<g id="edge1" class="edge"><title>Node1&#45;&gt;Node2</title>
<path fill="none" stroke="orange" stroke-dasharray="5,2" d="M154.022,-75C178.881,-75 206.029,-75 230.153,-75"/>
<polygon fill="orange" stroke="orange" points="153.891,-71.5001 143.891,-75 153.891,-78.5001 153.891,-71.5001"/>
<text text-anchor="middle" x="187" y="-77" font-family="Helvetica,sans-Serif" font-size="10.00"> &lt; Object &gt;</text>
</g>
<!-- Node3 -->
<g id="node3" class="node"><title>Node3</title>
<g id="a_node3"><a xlink:href="classRMF_1_1HDF5_1_1ConstDataSetD.html" target="_top" xlink:title="RMF::HDF5::ConstDataSetD\l\&lt; TypeTraits, D \&gt;">
<polygon fill="none" stroke="black" points="411.818,-81 411.818,-109 556.182,-109 556.182,-81 411.818,-81"/>
<text text-anchor="start" x="419.818" y="-97" font-family="Helvetica,sans-Serif" font-size="10.00">RMF::HDF5::ConstDataSetD</text>
<text text-anchor="middle" x="484" y="-87" font-family="Helvetica,sans-Serif" font-size="10.00">&lt; TypeTraits, D &gt;</text>
</a>
</g>
</g>
<!-- Node2&#45;&gt;Node3 -->
<g id="edge2" class="edge"><title>Node2&#45;&gt;Node3</title>
<path fill="none" stroke="midnightblue" d="M383.849,-83.9832C393.098,-85.0109 402.478,-86.0531 411.592,-87.0657"/>
<polygon fill="midnightblue" stroke="midnightblue" points="384.208,-80.5016 373.882,-82.8758 383.435,-87.4588 384.208,-80.5016"/>
</g>
<!-- Node6 -->
<g id="node6" class="node"><title>Node6</title>
<g id="a_node6"><a xlink:href="classRMF_1_1HDF5_1_1ConstGroup.html" target="_top" xlink:title="RMF::HDF5::ConstGroup">
<polygon fill="none" stroke="black" points="419.599,-42 419.599,-60 548.401,-60 548.401,-42 419.599,-42"/>
<text text-anchor="middle" x="484" y="-48" font-family="Helvetica,sans-Serif" font-size="10.00">RMF::HDF5::ConstGroup</text>
</a>
</g>
</g>
<!-- Node2&#45;&gt;Node6 -->
<g id="edge5" class="edge"><title>Node2&#45;&gt;Node6</title>
<path fill="none" stroke="midnightblue" d="M383.849,-64.2201C395.797,-62.627 407.963,-61.005 419.492,-59.4678"/>
<polygon fill="midnightblue" stroke="midnightblue" points="383.332,-60.758 373.882,-65.549 384.257,-67.6966 383.332,-60.758"/>
</g>
<!-- Node4 -->
<g id="node4" class="node"><title>Node4</title>
<g id="a_node4"><a xlink:href="classRMF_1_1HDF5_1_1MutableAttributes.html" target="_top" xlink:title="MutableAttributes\&lt;\l ConstDataSetD\&lt; TypeTraits,\l D \&gt; \&gt;">
<polygon fill="none" stroke="black" points="598.103,-84 598.103,-122 743.897,-122 743.897,-84 598.103,-84"/>
<text text-anchor="start" x="606.103" y="-110" font-family="Helvetica,sans-Serif" font-size="10.00">MutableAttributes&lt;</text>
<text text-anchor="start" x="606.103" y="-100" font-family="Helvetica,sans-Serif" font-size="10.00"> ConstDataSetD&lt; TypeTraits,</text>
<text text-anchor="middle" x="671" y="-90" font-family="Helvetica,sans-Serif" font-size="10.00"> D &gt; &gt;</text>
</a>
</g>
</g>
<!-- Node3&#45;&gt;Node4 -->
<g id="edge3" class="edge"><title>Node3&#45;&gt;Node4</title>
<path fill="none" stroke="midnightblue" d="M566.268,-98.5143C576.786,-98.9691 587.502,-99.4325 597.859,-99.8804"/>
<polygon fill="midnightblue" stroke="midnightblue" points="566.403,-95.017 556.261,-98.0816 566.101,-102.01 566.403,-95.017"/>
</g>
<!-- Node5 -->
<g id="node5" class="node"><title>Node5</title>
<g id="a_node5"><a xlink:href="classRMF_1_1HDF5_1_1DataSetD.html" target="_top" xlink:title="RMF::HDF5::DataSetD\l\&lt; TypeTraits, D \&gt;">
<polygon fill="none" stroke="black" points="785.879,-89 785.879,-117 904.121,-117 904.121,-89 785.879,-89"/>
<text text-anchor="start" x="793.879" y="-105" font-family="Helvetica,sans-Serif" font-size="10.00">RMF::HDF5::DataSetD</text>
<text text-anchor="middle" x="845" y="-95" font-family="Helvetica,sans-Serif" font-size="10.00">&lt; TypeTraits, D &gt;</text>
</a>
</g>
</g>
<!-- Node4&#45;&gt;Node5 -->
<g id="edge4" class="edge"><title>Node4&#45;&gt;Node5</title>
<path fill="none" stroke="midnightblue" d="M754.114,-103C764.765,-103 775.497,-103 785.652,-103"/>
<polygon fill="midnightblue" stroke="midnightblue" points="753.947,-99.5001 743.947,-103 753.947,-106.5 753.947,-99.5001"/>
</g>
<!-- Node7 -->
<g id="node7" class="node"><title>Node7</title>
<g id="a_node7"><a xlink:href="classRMF_1_1HDF5_1_1MutableAttributes.html" target="_top" xlink:title="RMF::HDF5::MutableAttributes\l\&lt; ConstGroup \&gt;">
<polygon fill="none" stroke="black" points="594.648,-37 594.648,-65 747.352,-65 747.352,-37 594.648,-37"/>
<text text-anchor="start" x="602.648" y="-53" font-family="Helvetica,sans-Serif" font-size="10.00">RMF::HDF5::MutableAttributes</text>
<text text-anchor="middle" x="671" y="-43" font-family="Helvetica,sans-Serif" font-size="10.00">&lt; ConstGroup &gt;</text>
</a>
</g>
</g>
<!-- Node6&#45;&gt;Node7 -->
<g id="edge6" class="edge"><title>Node6&#45;&gt;Node7</title>
<path fill="none" stroke="midnightblue" d="M558.654,-51C570.462,-51 582.699,-51 594.548,-51"/>
<polygon fill="midnightblue" stroke="midnightblue" points="558.408,-47.5001 548.408,-51 558.408,-54.5001 558.408,-47.5001"/>
</g>
<!-- Node10 -->
<g id="node10" class="node"><title>Node10</title>
<g id="a_node10"><a xlink:href="classRMF_1_1HDF5_1_1ConstFile.html" target="_top" xlink:title="RMF::HDF5::ConstFile">
<polygon fill="none" stroke="black" points="612.438,-0 612.438,-18 729.562,-18 729.562,-0 612.438,-0"/>
<text text-anchor="middle" x="671" y="-6" font-family="Helvetica,sans-Serif" font-size="10.00">RMF::HDF5::ConstFile</text>
</a>
</g>
</g>
<!-- Node6&#45;&gt;Node10 -->
<g id="edge9" class="edge"><title>Node6&#45;&gt;Node10</title>
<path fill="none" stroke="midnightblue" d="M534.511,-39.7596C564.425,-32.9684 602.053,-24.4258 630.06,-18.0675"/>
<polygon fill="midnightblue" stroke="midnightblue" points="533.664,-36.3628 524.687,-41.9899 535.214,-43.1891 533.664,-36.3628"/>
</g>
<!-- Node8 -->
<g id="node8" class="node"><title>Node8</title>
<g id="a_node8"><a xlink:href="classRMF_1_1HDF5_1_1Group.html" target="_top" xlink:title="RMF::HDF5::Group">
<polygon fill="none" stroke="black" points="793.66,-42 793.66,-60 896.34,-60 896.34,-42 793.66,-42"/>
<text text-anchor="middle" x="845" y="-48" font-family="Helvetica,sans-Serif" font-size="10.00">RMF::HDF5::Group</text>
</a>
</g>
</g>
<!-- Node7&#45;&gt;Node8 -->
<g id="edge7" class="edge"><title>Node7&#45;&gt;Node8</title>
<path fill="none" stroke="midnightblue" d="M757.735,-51C770.017,-51 782.306,-51 793.601,-51"/>
<polygon fill="midnightblue" stroke="midnightblue" points="757.442,-47.5001 747.442,-51 757.442,-54.5001 757.442,-47.5001"/>
</g>
<!-- Node9 -->
<g id="node9" class="node"><title>Node9</title>
<g id="a_node9"><a xlink:href="classRMF_1_1HDF5_1_1File.html" target="_top" xlink:title="RMF::HDF5::File">
<polygon fill="none" stroke="black" points="942.5,-42 942.5,-60 1033.5,-60 1033.5,-42 942.5,-42"/>
<text text-anchor="middle" x="988" y="-48" font-family="Helvetica,sans-Serif" font-size="10.00">RMF::HDF5::File</text>
</a>
</g>
</g>
<!-- Node8&#45;&gt;Node9 -->
<g id="edge8" class="edge"><title>Node8&#45;&gt;Node9</title>
<path fill="none" stroke="midnightblue" d="M906.516,-51C918.583,-51 931.047,-51 942.458,-51"/>
<polygon fill="midnightblue" stroke="midnightblue" points="906.506,-47.5001 896.506,-51 906.506,-54.5001 906.506,-47.5001"/>
</g>
</g>
</svg>
