<?xml version="1.0" encoding="UTF-8" standalone="no"?>
<!DOCTYPE svg PUBLIC "-//W3C//DTD SVG 1.1//EN"
 "http://www.w3.org/Graphics/SVG/1.1/DTD/svg11.dtd">
<!-- Generated by graphviz version 2.36.0 (20140111.2315)
 -->
<!-- Title: RMF::decorator::IntermediateParticle Pages: 1 -->
<svg width="154pt" height="160pt"
 viewBox="0.00 0.00 154.00 160.00" xmlns="http://www.w3.org/2000/svg" xmlns:xlink="http://www.w3.org/1999/xlink">
<g id="graph0" class="graph" transform="scale(1 1) rotate(0) translate(4 156)">
<title>RMF::decorator::IntermediateParticle</title>
<!-- Node1 -->
<g id="node1" class="node"><title>Node1</title>
<polygon fill="#bfbfbf" stroke="black" points="-0.302734,-1 -0.302734,-29 146.303,-29 146.303,-1 -0.302734,-1"/>
<text text-anchor="start" x="7.69727" y="-17" font-family="Helvetica,sans-Serif" font-size="10.00">RMF::decorator::Intermediate</text>
<text text-anchor="middle" x="73" y="-7" font-family="Helvetica,sans-Serif" font-size="10.00">Particle</text>
</g>
<!-- Node2 -->
<g id="node2" class="node"><title>Node2</title>
<g id="a_node2"><a xlink:href="classRMF_1_1decorator_1_1IntermediateParticleConst.html" target="_top" xlink:title="RMF::decorator::Intermediate\lParticleConst">
<polygon fill="none" stroke="black" points="-0.302734,-67 -0.302734,-95 146.303,-95 146.303,-67 -0.302734,-67"/>
<text text-anchor="start" x="7.69727" y="-83" font-family="Helvetica,sans-Serif" font-size="10.00">RMF::decorator::Intermediate</text>
<text text-anchor="middle" x="73" y="-73" font-family="Helvetica,sans-Serif" font-size="10.00">ParticleConst</text>
</a>
</g>
</g>
<!-- Node2&#45;&gt;Node1 -->
<g id="edge1" class="edge"><title>Node2&#45;&gt;Node1</title>
<path fill="none" stroke="midnightblue" d="M73,-56.5946C73,-47.3785 73,-37.1352 73,-29.2439"/>
<polygon fill="midnightblue" stroke="midnightblue" points="69.5001,-56.7391 73,-66.7392 76.5001,-56.7392 69.5001,-56.7391"/>
</g>
<!-- Node3 -->
<g id="node3" class="node"><title>Node3</title>
<g id="a_node3"><a xlink:href="classRMF_1_1Decorator.html" target="_top" xlink:title="The base class for decorators. ">
<polygon fill="none" stroke="black" points="29.4385,-133 29.4385,-151 116.562,-151 116.562,-133 29.4385,-133"/>
<text text-anchor="middle" x="73" y="-139" font-family="Helvetica,sans-Serif" font-size="10.00">RMF::Decorator</text>
</a>
</g>
</g>
<!-- Node3&#45;&gt;Node2 -->
<g id="edge2" class="edge"><title>Node3&#45;&gt;Node2</title>
<path fill="none" stroke="midnightblue" d="M73,-122.654C73,-113.736 73,-103.222 73,-95.1215"/>
<polygon fill="midnightblue" stroke="midnightblue" points="69.5001,-122.796 73,-132.796 76.5001,-122.796 69.5001,-122.796"/>
</g>
</g>
</svg>
