<?xml version="1.0" encoding="UTF-8" standalone="no"?>
<!DOCTYPE svg PUBLIC "-//W3C//DTD SVG 1.1//EN"
 "http://www.w3.org/Graphics/SVG/1.1/DTD/svg11.dtd">
<!-- Generated by graphviz version 2.34.0 (20131025.1349)
 -->
<!-- Title: RMF::Factory Pages: 1 -->
<!--zoomable 1159 -->
<svg id="main" version="1.1" xmlns="http://www.w3.org/2000/svg" xmlns:xlink="http://www.w3.org/1999/xlink" xml:space="preserve" onload="init(evt)">
<style type="text/css"><![CDATA[
.edge:hover path { stroke: red; }
.edge:hover polygon { stroke: red; fill: red; }
]]></style>
<script type="text/javascript"><![CDATA[
var edges = document.getElementsByTagName('g');
if (edges && edges.length) {
  for (var i=0;i<edges.length;i++) {
    if (edges[i].id.substr(0,4)=='edge') {
      edges[i].setAttribute('class','edge');
    }
  }
}
]]></script>
        <defs>
                <circle id="rim" cx="0" cy="0" r="7"/>
                <circle id="rim2" cx="0" cy="0" r="3.5"/>
                <g id="zoomPlus">
                        <use xlink:href="#rim" fill="#404040">
                                <set attributeName="fill" to="#808080" begin="zoomplus.mouseover" end="zoomplus.mouseout"/>
                        </use>
                        <path d="M-4,0h8M0,-4v8" fill="none" stroke="white" stroke-width="1.5" pointer-events="none"/>
                </g>
                <g id="zoomMin">
                        <use xlink:href="#rim" fill="#404040">
                                <set attributeName="fill" to="#808080" begin="zoomminus.mouseover" end="zoomminus.mouseout"/>
                        </use>
                        <path d="M-4,0h8" fill="none" stroke="white" stroke-width="1.5" pointer-events="none"/>
                </g>
                <g id="dirArrow">
                        <path fill="none" stroke="white" stroke-width="1.5" d="M0,-3.0v7 M-2.5,-0.5L0,-3.0L2.5,-0.5"/>
                </g>
               <g id="resetDef">
                       <use xlink:href="#rim2" fill="#404040">
                               <set attributeName="fill" to="#808080" begin="reset.mouseover" end="reset.mouseout"/>
                       </use>
               </g>
        </defs>

<script type="text/javascript">
var viewWidth = 286;
var viewHeight = 1159;
var sectionId = 'dynsection-0';
</script>
<script xlink:href="svgpan.js"/>
<svg id="graph" class="graph">
<g id="viewport">
<title>RMF::Factory</title>
<!-- Node1 -->
<g id="node1" class="node"><title>Node1</title>
<polygon fill="#bfbfbf" stroke="black" points="0.72168,-583 0.72168,-603 77.2783,-603 77.2783,-583 0.72168,-583"/>
<text text-anchor="middle" x="39" y="-589" font-family="Helvetica,sans-Serif" font-size="10.00">RMF::Factory</text>
</g>
<!-- Node2 -->
<g id="node2" class="node"><title>Node2</title>
<g id="a_node2"><a xlink:href="classRMF_1_1decorator_1_1AliasFactory.html" target="_top" xlink:title="RMF::decorator::AliasFactory">
<polygon fill="none" stroke="black" points="122.983,-1131 122.983,-1151 269.017,-1151 269.017,-1131 122.983,-1131"/>
<text text-anchor="middle" x="196" y="-1137" font-family="Helvetica,sans-Serif" font-size="10.00">RMF::decorator::AliasFactory</text>
</a>
</g>
</g>
<!-- Node1&#45;&gt;Node2 -->
<g id="edge1" class="edge"><title>Node1&#45;&gt;Node2</title>
<path fill="none" stroke="midnightblue" d="M39.9257,-613.253C40.026,-700.631 44.8719,-1044.37 114,-1121 117.59,-1124.98 121.834,-1128.23 126.469,-1130.87"/>
<polygon fill="midnightblue" stroke="midnightblue" points="43.4258,-613.085 39.9355,-603.081 36.4258,-613.078 43.4258,-613.085"/>
</g>
<!-- Node3 -->
<g id="node3" class="node"><title>Node3</title>
<g id="a_node3"><a xlink:href="classRMF_1_1decorator_1_1AlternativesFactory.html" target="_top" xlink:title="RMF::decorator::Alternatives\lFactory">
<polygon fill="none" stroke="black" points="124.367,-1080 124.367,-1112 267.633,-1112 267.633,-1080 124.367,-1080"/>
<text text-anchor="start" x="132.367" y="-1098" font-family="Helvetica,sans-Serif" font-size="10.00">RMF::decorator::Alternatives</text>
<text text-anchor="middle" x="196" y="-1086" font-family="Helvetica,sans-Serif" font-size="10.00">Factory</text>
</a>
</g>
</g>
<!-- Node1&#45;&gt;Node3 -->
<g id="edge2" class="edge"><title>Node1&#45;&gt;Node3</title>
<path fill="none" stroke="midnightblue" d="M40.3955,-613.251C42.3923,-694.986 53.8184,-999.564 114,-1070 117.262,-1073.82 121.086,-1077.08 125.266,-1079.87"/>
<polygon fill="midnightblue" stroke="midnightblue" points="43.8945,-613.163 40.1722,-603.244 36.8962,-613.32 43.8945,-613.163"/>
</g>
<!-- Node4 -->
<g id="node4" class="node"><title>Node4</title>
<g id="a_node4"><a xlink:href="classRMF_1_1decorator_1_1AtomFactory.html" target="_top" xlink:title="RMF::decorator::AtomFactory">
<polygon fill="none" stroke="black" points="122.15,-1041 122.15,-1061 269.85,-1061 269.85,-1041 122.15,-1041"/>
<text text-anchor="middle" x="196" y="-1047" font-family="Helvetica,sans-Serif" font-size="10.00">RMF::decorator::AtomFactory</text>
</a>
</g>
</g>
<!-- Node1&#45;&gt;Node4 -->
<g id="edge3" class="edge"><title>Node1&#45;&gt;Node4</title>
<path fill="none" stroke="midnightblue" d="M40.582,-613.661C43.2111,-691.948 56.4951,-969.03 114,-1031 117.744,-1035.03 122.161,-1038.31 126.969,-1040.97"/>
<polygon fill="midnightblue" stroke="midnightblue" points="44.0669,-613.119 40.2569,-603.232 37.0703,-613.337 44.0669,-613.119"/>
</g>
<!-- Node5 -->
<g id="node5" class="node"><title>Node5</title>
<g id="a_node5"><a xlink:href="classRMF_1_1decorator_1_1BallFactory.html" target="_top" xlink:title="RMF::decorator::BallFactory">
<polygon fill="none" stroke="black" points="125.483,-1002 125.483,-1022 266.517,-1022 266.517,-1002 125.483,-1002"/>
<text text-anchor="middle" x="196" y="-1008" font-family="Helvetica,sans-Serif" font-size="10.00">RMF::decorator::BallFactory</text>
</a>
</g>
</g>
<!-- Node1&#45;&gt;Node5 -->
<g id="edge4" class="edge"><title>Node1&#45;&gt;Node5</title>
<path fill="none" stroke="midnightblue" d="M40.933,-613.227C44.7212,-686.429 61.3532,-936.169 114,-992 117.776,-996.005 122.216,-999.261 127.039,-1001.9"/>
<polygon fill="midnightblue" stroke="midnightblue" points="44.4196,-612.866 40.4317,-603.05 37.428,-613.211 44.4196,-612.866"/>
</g>
<!-- Node6 -->
<g id="node6" class="node"><title>Node6</title>
<g id="a_node6"><a xlink:href="classRMF_1_1decorator_1_1BondFactory.html" target="_top" xlink:title="RMF::decorator::BondFactory">
<polygon fill="none" stroke="black" points="122.143,-963 122.143,-983 269.857,-983 269.857,-963 122.143,-963"/>
<text text-anchor="middle" x="196" y="-969" font-family="Helvetica,sans-Serif" font-size="10.00">RMF::decorator::BondFactory</text>
</a>
</g>
</g>
<!-- Node1&#45;&gt;Node6 -->
<g id="edge5" class="edge"><title>Node1&#45;&gt;Node6</title>
<path fill="none" stroke="midnightblue" d="M41.3903,-613.428C46.4797,-682.15 66.3438,-903.431 114,-953 117.815,-956.968 122.282,-960.198 127.123,-962.823"/>
<polygon fill="midnightblue" stroke="midnightblue" points="44.856,-612.821 40.6529,-603.096 37.8737,-613.32 44.856,-612.821"/>
</g>
<!-- Node7 -->
<g id="node7" class="node"><title>Node7</title>
<g id="a_node7"><a xlink:href="classRMF_1_1decorator_1_1ChainFactory.html" target="_top" xlink:title="RMF::decorator::ChainFactory">
<polygon fill="none" stroke="black" points="120.756,-924 120.756,-944 271.244,-944 271.244,-924 120.756,-924"/>
<text text-anchor="middle" x="196" y="-930" font-family="Helvetica,sans-Serif" font-size="10.00">RMF::decorator::ChainFactory</text>
</a>
</g>
</g>
<!-- Node1&#45;&gt;Node7 -->
<g id="edge6" class="edge"><title>Node1&#45;&gt;Node7</title>
<path fill="none" stroke="midnightblue" d="M41.9269,-613.275C48.373,-676.837 71.2265,-870.558 114,-914 117.963,-918.025 122.599,-921.288 127.61,-923.928"/>
<polygon fill="midnightblue" stroke="midnightblue" points="45.4072,-612.903 40.9425,-603.294 38.4411,-613.59 45.4072,-612.903"/>
</g>
<!-- Node8 -->
<g id="node8" class="node"><title>Node8</title>
<g id="a_node8"><a xlink:href="classRMF_1_1decorator_1_1ColoredFactory.html" target="_top" xlink:title="RMF::decorator::ColoredFactory">
<polygon fill="none" stroke="black" points="116.311,-885 116.311,-905 275.689,-905 275.689,-885 116.311,-885"/>
<text text-anchor="middle" x="196" y="-891" font-family="Helvetica,sans-Serif" font-size="10.00">RMF::decorator::ColoredFactory</text>
</a>
</g>
</g>
<!-- Node1&#45;&gt;Node8 -->
<g id="edge7" class="edge"><title>Node1&#45;&gt;Node8</title>
<path fill="none" stroke="midnightblue" d="M42.6427,-613.43C50.6011,-671.832 76.1471,-837.694 114,-875 118.127,-879.067 122.941,-882.351 128.128,-884.998"/>
<polygon fill="midnightblue" stroke="midnightblue" points="46.0768,-612.702 41.287,-603.252 39.1381,-613.626 46.0768,-612.702"/>
</g>
<!-- Node9 -->
<g id="node9" class="node"><title>Node9</title>
<g id="a_node9"><a xlink:href="classRMF_1_1decorator_1_1CopyFactory.html" target="_top" xlink:title="RMF::decorator::CopyFactory">
<polygon fill="none" stroke="black" points="122.148,-846 122.148,-866 269.852,-866 269.852,-846 122.148,-846"/>
<text text-anchor="middle" x="196" y="-852" font-family="Helvetica,sans-Serif" font-size="10.00">RMF::decorator::CopyFactory</text>
</a>
</g>
</g>
<!-- Node1&#45;&gt;Node9 -->
<g id="edge8" class="edge"><title>Node1&#45;&gt;Node9</title>
<path fill="none" stroke="midnightblue" d="M39.8658,-613.112C40.7028,-659.544 49.5396,-774.901 114,-836 118.205,-839.986 123.074,-843.214 128.296,-845.825"/>
<polygon fill="midnightblue" stroke="midnightblue" points="43.3657,-613.076 39.7952,-603.101 36.3659,-613.126 43.3657,-613.076"/>
</g>
<!-- Node10 -->
<g id="node10" class="node"><title>Node10</title>
<g id="a_node10"><a xlink:href="classRMF_1_1decorator_1_1CylinderFactory.html" target="_top" xlink:title="RMF::decorator::Cylinder\lFactory">
<polygon fill="none" stroke="black" points="132.15,-795 132.15,-827 259.85,-827 259.85,-795 132.15,-795"/>
<text text-anchor="start" x="140.15" y="-813" font-family="Helvetica,sans-Serif" font-size="10.00">RMF::decorator::Cylinder</text>
<text text-anchor="middle" x="196" y="-801" font-family="Helvetica,sans-Serif" font-size="10.00">Factory</text>
</a>
</g>
</g>
<!-- Node1&#45;&gt;Node10 -->
<g id="edge9" class="edge"><title>Node1&#45;&gt;Node10</title>
<path fill="none" stroke="midnightblue" d="M42.0632,-613.04C47.1199,-651.812 63.6475,-737.452 114,-785 119.262,-789.969 125.477,-793.988 132.087,-797.239"/>
<polygon fill="midnightblue" stroke="midnightblue" points="45.5274,-612.53 40.8795,-603.009 38.5757,-613.351 45.5274,-612.53"/>
</g>
<!-- Node11 -->
<g id="node11" class="node"><title>Node11</title>
<g id="a_node11"><a xlink:href="classRMF_1_1decorator_1_1DiffuserFactory.html" target="_top" xlink:title="RMF::decorator::Diffuser\lFactory">
<polygon fill="none" stroke="black" points="133.352,-744 133.352,-776 258.648,-776 258.648,-744 133.352,-744"/>
<text text-anchor="start" x="141.352" y="-762" font-family="Helvetica,sans-Serif" font-size="10.00">RMF::decorator::Diffuser</text>
<text text-anchor="middle" x="196" y="-750" font-family="Helvetica,sans-Serif" font-size="10.00">Factory</text>
</a>
</g>
</g>
<!-- Node1&#45;&gt;Node11 -->
<g id="edge10" class="edge"><title>Node1&#45;&gt;Node11</title>
<path fill="none" stroke="midnightblue" d="M45.2351,-613.127C54.1979,-643.65 75.3636,-701.52 114,-734 119.653,-738.752 126.187,-742.639 133.043,-745.819"/>
<polygon fill="midnightblue" stroke="midnightblue" points="48.5298,-611.911 42.4754,-603.216 41.7864,-613.789 48.5298,-611.911"/>
</g>
<!-- Node12 -->
<g id="node12" class="node"><title>Node12</title>
<g id="a_node12"><a xlink:href="classRMF_1_1decorator_1_1DomainFactory.html" target="_top" xlink:title="RMF::decorator::DomainFactory">
<polygon fill="none" stroke="black" points="116.591,-705 116.591,-725 275.409,-725 275.409,-705 116.591,-705"/>
<text text-anchor="middle" x="196" y="-711" font-family="Helvetica,sans-Serif" font-size="10.00">RMF::decorator::DomainFactory</text>
</a>
</g>
</g>
<!-- Node1&#45;&gt;Node12 -->
<g id="edge11" class="edge"><title>Node1&#45;&gt;Node12</title>
<path fill="none" stroke="midnightblue" d="M48.8477,-612.465C60.4458,-635.733 83.0165,-674.137 114,-695 120.007,-699.045 126.758,-702.273 133.733,-704.849"/>
<polygon fill="midnightblue" stroke="midnightblue" points="51.9037,-610.743 44.4279,-603.236 45.5903,-613.767 51.9037,-610.743"/>
</g>
<!-- Node13 -->
<g id="node13" class="node"><title>Node13</title>
<g id="a_node13"><a xlink:href="classRMF_1_1decorator_1_1EllipsoidFactory.html" target="_top" xlink:title="RMF::decorator::Ellipsoid\lFactory">
<polygon fill="none" stroke="black" points="131.87,-654 131.87,-686 260.13,-686 260.13,-654 131.87,-654"/>
<text text-anchor="start" x="139.87" y="-672" font-family="Helvetica,sans-Serif" font-size="10.00">RMF::decorator::Ellipsoid</text>
<text text-anchor="middle" x="196" y="-660" font-family="Helvetica,sans-Serif" font-size="10.00">Factory</text>
</a>
</g>
</g>
<!-- Node1&#45;&gt;Node13 -->
<g id="edge12" class="edge"><title>Node1&#45;&gt;Node13</title>
<path fill="none" stroke="midnightblue" d="M60.2648,-609.391C74.5979,-620.36 94.6363,-634.478 114,-644 121.422,-647.65 129.473,-650.947 137.522,-653.871"/>
<polygon fill="midnightblue" stroke="midnightblue" points="62.1692,-606.437 52.1347,-603.037 57.8587,-611.953 62.1692,-606.437"/>
</g>
<!-- Node14 -->
<g id="node14" class="node"><title>Node14</title>
<g id="a_node14"><a xlink:href="classRMF_1_1decorator_1_1ExternalFactory.html" target="_top" xlink:title="RMF::decorator::External\lFactory">
<polygon fill="none" stroke="black" points="132.148,-603 132.148,-635 259.852,-635 259.852,-603 132.148,-603"/>
<text text-anchor="start" x="140.148" y="-621" font-family="Helvetica,sans-Serif" font-size="10.00">RMF::decorator::External</text>
<text text-anchor="middle" x="196" y="-609" font-family="Helvetica,sans-Serif" font-size="10.00">Factory</text>
</a>
</g>
</g>
<!-- Node1&#45;&gt;Node14 -->
<g id="edge13" class="edge"><title>Node1&#45;&gt;Node14</title>
<path fill="none" stroke="midnightblue" d="M87.4713,-600.963C101.562,-603.326 117.219,-605.953 132.127,-608.454"/>
<polygon fill="midnightblue" stroke="midnightblue" points="87.9624,-597.496 77.5212,-599.294 86.8044,-604.4 87.9624,-597.496"/>
</g>
<!-- Node15 -->
<g id="node15" class="node"><title>Node15</title>
<g id="a_node15"><a xlink:href="classRMF_1_1decorator_1_1FragmentFactory.html" target="_top" xlink:title="RMF::decorator::Fragment\lFactory">
<polygon fill="none" stroke="black" points="129.094,-552 129.094,-584 262.906,-584 262.906,-552 129.094,-552"/>
<text text-anchor="start" x="137.094" y="-570" font-family="Helvetica,sans-Serif" font-size="10.00">RMF::decorator::Fragment</text>
<text text-anchor="middle" x="196" y="-558" font-family="Helvetica,sans-Serif" font-size="10.00">Factory</text>
</a>
</g>
</g>
<!-- Node1&#45;&gt;Node15 -->
<g id="edge14" class="edge"><title>Node1&#45;&gt;Node15</title>
<path fill="none" stroke="midnightblue" d="M87.6867,-585.309C100.763,-583.199 115.176,-580.875 129.08,-578.632"/>
<polygon fill="midnightblue" stroke="midnightblue" points="86.8362,-581.9 77.5212,-586.948 87.9509,-588.811 86.8362,-581.9"/>
</g>
<!-- Node16 -->
<g id="node16" class="node"><title>Node16</title>
<g id="a_node16"><a xlink:href="classRMF_1_1decorator_1_1GaussianParticleFactory.html" target="_top" xlink:title="RMF::decorator::Gaussian\lParticleFactory">
<polygon fill="none" stroke="black" points="129.367,-501 129.367,-533 262.633,-533 262.633,-501 129.367,-501"/>
<text text-anchor="start" x="137.367" y="-519" font-family="Helvetica,sans-Serif" font-size="10.00">RMF::decorator::Gaussian</text>
<text text-anchor="middle" x="196" y="-507" font-family="Helvetica,sans-Serif" font-size="10.00">ParticleFactory</text>
</a>
</g>
</g>
<!-- Node1&#45;&gt;Node16 -->
<g id="edge15" class="edge"><title>Node1&#45;&gt;Node16</title>
<path fill="none" stroke="midnightblue" d="M60.5728,-576.761C74.9096,-566.046 94.8298,-552.317 114,-543 121.572,-539.32 129.787,-535.99 137.984,-533.036"/>
<polygon fill="midnightblue" stroke="midnightblue" points="58.252,-574.129 52.4241,-582.977 62.4977,-579.695 58.252,-574.129"/>
</g>
<!-- Node17 -->
<g id="node17" class="node"><title>Node17</title>
<g id="a_node17"><a xlink:href="classRMF_1_1decorator_1_1IntermediateParticleFactory.html" target="_top" xlink:title="RMF::decorator::Intermediate\lParticleFactory">
<polygon fill="none" stroke="black" points="122.697,-450 122.697,-482 269.303,-482 269.303,-450 122.697,-450"/>
<text text-anchor="start" x="130.697" y="-468" font-family="Helvetica,sans-Serif" font-size="10.00">RMF::decorator::Intermediate</text>
<text text-anchor="middle" x="196" y="-456" font-family="Helvetica,sans-Serif" font-size="10.00">ParticleFactory</text>
</a>
</g>
</g>
<!-- Node1&#45;&gt;Node17 -->
<g id="edge16" class="edge"><title>Node1&#45;&gt;Node17</title>
<path fill="none" stroke="midnightblue" d="M49.322,-573.724C61.2627,-550.996 84.046,-513.59 114,-492 119.272,-488.2 125.124,-484.939 131.202,-482.142"/>
<polygon fill="midnightblue" stroke="midnightblue" points="46.1458,-572.249 44.7452,-582.751 52.3891,-575.415 46.1458,-572.249"/>
</g>
<!-- Node18 -->
<g id="node18" class="node"><title>Node18</title>
<g id="a_node18"><a xlink:href="classRMF_1_1decorator_1_1JournalArticleFactory.html" target="_top" xlink:title="RMF::decorator::JournalArticle\lFactory">
<polygon fill="none" stroke="black" points="120.2,-399 120.2,-431 271.8,-431 271.8,-399 120.2,-399"/>
<text text-anchor="start" x="128.2" y="-417" font-family="Helvetica,sans-Serif" font-size="10.00">RMF::decorator::JournalArticle</text>
<text text-anchor="middle" x="196" y="-405" font-family="Helvetica,sans-Serif" font-size="10.00">Factory</text>
</a>
</g>
</g>
<!-- Node1&#45;&gt;Node18 -->
<g id="edge17" class="edge"><title>Node1&#45;&gt;Node18</title>
<path fill="none" stroke="midnightblue" d="M44.4288,-572.705C52.5593,-540.222 72.9333,-476.596 114,-441 118.464,-437.131 123.511,-433.836 128.849,-431.03"/>
<polygon fill="midnightblue" stroke="midnightblue" points="40.9372,-572.263 42.0497,-582.799 47.7505,-573.869 40.9372,-572.263"/>
</g>
<!-- Node19 -->
<g id="node19" class="node"><title>Node19</title>
<g id="a_node19"><a xlink:href="classRMF_1_1decorator_1_1ParticleFactory.html" target="_top" xlink:title="RMF::decorator::Particle\lFactory">
<polygon fill="none" stroke="black" points="133.818,-348 133.818,-380 258.182,-380 258.182,-348 133.818,-348"/>
<text text-anchor="start" x="141.818" y="-366" font-family="Helvetica,sans-Serif" font-size="10.00">RMF::decorator::Particle</text>
<text text-anchor="middle" x="196" y="-354" font-family="Helvetica,sans-Serif" font-size="10.00">Factory</text>
</a>
</g>
</g>
<!-- Node1&#45;&gt;Node19 -->
<g id="edge18" class="edge"><title>Node1&#45;&gt;Node19</title>
<path fill="none" stroke="midnightblue" d="M41.5821,-572.931C45.8437,-532.519 61.1142,-440.864 114,-390 119.642,-384.574 126.419,-380.28 133.621,-376.882"/>
<polygon fill="midnightblue" stroke="midnightblue" points="38.0968,-572.612 40.6499,-582.894 45.0663,-573.264 38.0968,-572.612"/>
</g>
<!-- Node20 -->
<g id="node20" class="node"><title>Node20</title>
<g id="a_node20"><a xlink:href="classRMF_1_1decorator_1_1ReferenceFrameFactory.html" target="_top" xlink:title="RMF::decorator::Reference\lFrameFactory">
<polygon fill="none" stroke="black" points="127.421,-297 127.421,-329 264.579,-329 264.579,-297 127.421,-297"/>
<text text-anchor="start" x="135.421" y="-315" font-family="Helvetica,sans-Serif" font-size="10.00">RMF::decorator::Reference</text>
<text text-anchor="middle" x="196" y="-303" font-family="Helvetica,sans-Serif" font-size="10.00">FrameFactory</text>
</a>
</g>
</g>
<!-- Node1&#45;&gt;Node20 -->
<g id="edge19" class="edge"><title>Node1&#45;&gt;Node20</title>
<path fill="none" stroke="midnightblue" d="M39.8527,-572.637C40.639,-525.025 49.336,-405.441 114,-339 117.914,-334.978 122.451,-331.577 127.34,-328.702"/>
<polygon fill="midnightblue" stroke="midnightblue" points="36.3514,-572.855 39.7926,-582.876 43.3513,-572.896 36.3514,-572.855"/>
</g>
<!-- Node21 -->
<g id="node21" class="node"><title>Node21</title>
<g id="a_node21"><a xlink:href="classRMF_1_1decorator_1_1RepresentationFactory.html" target="_top" xlink:title="RMF::decorator::Representation\lFactory">
<polygon fill="none" stroke="black" points="116.579,-246 116.579,-278 275.421,-278 275.421,-246 116.579,-246"/>
<text text-anchor="start" x="124.579" y="-264" font-family="Helvetica,sans-Serif" font-size="10.00">RMF::decorator::Representation</text>
<text text-anchor="middle" x="196" y="-252" font-family="Helvetica,sans-Serif" font-size="10.00">Factory</text>
</a>
</g>
</g>
<!-- Node1&#45;&gt;Node21 -->
<g id="edge20" class="edge"><title>Node1&#45;&gt;Node21</title>
<path fill="none" stroke="midnightblue" d="M42.3371,-572.683C49.7673,-511.443 74.6967,-330.264 114,-288 117.52,-284.215 121.592,-280.978 125.998,-278.212"/>
<polygon fill="midnightblue" stroke="midnightblue" points="38.8204,-572.617 41.1194,-582.959 45.7718,-573.441 38.8204,-572.617"/>
</g>
<!-- Node22 -->
<g id="node22" class="node"><title>Node22</title>
<g id="a_node22"><a xlink:href="classRMF_1_1decorator_1_1ResidueFactory.html" target="_top" xlink:title="RMF::decorator::ResidueFactory">
<polygon fill="none" stroke="black" points="115.476,-207 115.476,-227 276.524,-227 276.524,-207 115.476,-207"/>
<text text-anchor="middle" x="196" y="-213" font-family="Helvetica,sans-Serif" font-size="10.00">RMF::decorator::ResidueFactory</text>
</a>
</g>
</g>
<!-- Node1&#45;&gt;Node22 -->
<g id="edge21" class="edge"><title>Node1&#45;&gt;Node22</title>
<path fill="none" stroke="midnightblue" d="M41.4587,-572.347C46.7117,-503.872 66.901,-285.881 114,-237 117.819,-233.036 122.289,-229.809 127.133,-227.186"/>
<polygon fill="midnightblue" stroke="midnightblue" points="37.9426,-572.437 40.6947,-582.668 44.9235,-572.954 37.9426,-572.437"/>
</g>
<!-- Node23 -->
<g id="node23" class="node"><title>Node23</title>
<g id="a_node23"><a xlink:href="classRMF_1_1decorator_1_1RigidParticleFactory.html" target="_top" xlink:title="RMF::decorator::RigidParticle\lFactory">
<polygon fill="none" stroke="black" points="122.424,-156 122.424,-188 269.576,-188 269.576,-156 122.424,-156"/>
<text text-anchor="start" x="130.424" y="-174" font-family="Helvetica,sans-Serif" font-size="10.00">RMF::decorator::RigidParticle</text>
<text text-anchor="middle" x="196" y="-162" font-family="Helvetica,sans-Serif" font-size="10.00">Factory</text>
</a>
</g>
</g>
<!-- Node1&#45;&gt;Node23 -->
<g id="edge22" class="edge"><title>Node1&#45;&gt;Node23</title>
<path fill="none" stroke="midnightblue" d="M41.1204,-572.618C45.5115,-499.951 63.8458,-254.874 114,-198 117.419,-194.123 121.417,-190.82 125.772,-188.007"/>
<polygon fill="midnightblue" stroke="midnightblue" points="37.618,-572.559 40.5326,-582.745 44.6062,-572.964 37.618,-572.559"/>
</g>
<!-- Node24 -->
<g id="node24" class="node"><title>Node24</title>
<g id="a_node24"><a xlink:href="classRMF_1_1decorator_1_1ScoreFactory.html" target="_top" xlink:title="RMF::decorator::ScoreFactory">
<polygon fill="none" stroke="black" points="120.759,-117 120.759,-137 271.241,-137 271.241,-117 120.759,-117"/>
<text text-anchor="middle" x="196" y="-123" font-family="Helvetica,sans-Serif" font-size="10.00">RMF::decorator::ScoreFactory</text>
</a>
</g>
</g>
<!-- Node1&#45;&gt;Node24 -->
<g id="edge23" class="edge"><title>Node1&#45;&gt;Node24</title>
<path fill="none" stroke="midnightblue" d="M40.4945,-572.965C42.8386,-494.65 55.3197,-210.423 114,-147 117.738,-142.96 122.151,-139.678 126.956,-137.019"/>
<polygon fill="midnightblue" stroke="midnightblue" points="36.9955,-572.881 40.2179,-582.974 43.9929,-573.075 36.9955,-572.881"/>
</g>
<!-- Node25 -->
<g id="node25" class="node"><title>Node25</title>
<g id="a_node25"><a xlink:href="classRMF_1_1decorator_1_1SegmentFactory.html" target="_top" xlink:title="RMF::decorator::SegmentFactory">
<polygon fill="none" stroke="black" points="113.808,-78 113.808,-98 278.192,-98 278.192,-78 113.808,-78"/>
<text text-anchor="middle" x="196" y="-84" font-family="Helvetica,sans-Serif" font-size="10.00">RMF::decorator::SegmentFactory</text>
</a>
</g>
</g>
<!-- Node1&#45;&gt;Node25 -->
<g id="edge24" class="edge"><title>Node1&#45;&gt;Node25</title>
<path fill="none" stroke="midnightblue" d="M40.2024,-572.832C41.4497,-490.081 50.3658,-177.682 114,-108 117.614,-104.043 121.875,-100.811 126.522,-98.1788"/>
<polygon fill="midnightblue" stroke="midnightblue" points="36.7015,-572.891 40.0725,-582.935 43.7009,-572.981 36.7015,-572.891"/>
</g>
<!-- Node26 -->
<g id="node26" class="node"><title>Node26</title>
<g id="a_node26"><a xlink:href="classRMF_1_1decorator_1_1StateFactory.html" target="_top" xlink:title="RMF::decorator::StateFactory">
<polygon fill="none" stroke="black" points="122.146,-39 122.146,-59 269.854,-59 269.854,-39 122.146,-39"/>
<text text-anchor="middle" x="196" y="-45" font-family="Helvetica,sans-Serif" font-size="10.00">RMF::decorator::StateFactory</text>
</a>
</g>
</g>
<!-- Node1&#45;&gt;Node26 -->
<g id="edge25" class="edge"><title>Node1&#45;&gt;Node26</title>
<path fill="none" stroke="midnightblue" d="M39.9493,-572.9C40.1481,-486.178 45.3456,-145.023 114,-69 117.592,-65.0225 121.838,-61.7769 126.473,-59.1348"/>
<polygon fill="midnightblue" stroke="midnightblue" points="36.4494,-572.994 39.9475,-582.995 43.4494,-572.995 36.4494,-572.994"/>
</g>
<!-- Node27 -->
<g id="node27" class="node"><title>Node27</title>
<g id="a_node27"><a xlink:href="classRMF_1_1decorator_1_1TypedFactory.html" target="_top" xlink:title="RMF::decorator::TypedFactory">
<polygon fill="none" stroke="black" points="120.197,-0 120.197,-20 271.803,-20 271.803,-0 120.197,-0"/>
<text text-anchor="middle" x="196" y="-6" font-family="Helvetica,sans-Serif" font-size="10.00">RMF::decorator::TypedFactory</text>
</a>
</g>
</g>
<!-- Node1&#45;&gt;Node27 -->
<g id="edge26" class="edge"><title>Node1&#45;&gt;Node27</title>
<path fill="none" stroke="midnightblue" d="M39.7285,-572.572C38.9429,-481.367 40.4178,-112.271 114,-30 117.573,-26.0053 121.805,-22.7475 126.431,-20.0971"/>
<polygon fill="midnightblue" stroke="midnightblue" points="36.23,-572.743 39.8363,-582.705 43.2297,-572.669 36.23,-572.743"/>
</g>
</g>
</svg>
        <g id="navigator" transform="translate(0 0)" fill="#404254">
                <rect fill="#f2f5e9" fill-opacity="0.5" stroke="#606060" stroke-width=".5" x="0" y="0" width="60" height="60"/>
                <use id="zoomplus" xlink:href="#zoomPlus" x="17" y="9" onmousedown="handleZoom(evt,'in')"/>
                <use id="zoomminus" xlink:href="#zoomMin" x="42" y="9" onmousedown="handleZoom(evt,'out')"/>
                <use id="reset" xlink:href="#resetDef" x="30" y="36" onmousedown="handleReset()"/>
                <g id="arrowUp" xlink:href="#dirArrow" transform="translate(30 24)" onmousedown="handlePan(0,-1)">
                  <use xlink:href="#rim" fill="#404040">
                        <set attributeName="fill" to="#808080" begin="arrowUp.mouseover" end="arrowUp.mouseout"/>
                  </use>
                  <path fill="none" stroke="white" stroke-width="1.5" d="M0,-3.0v7 M-2.5,-0.5L0,-3.0L2.5,-0.5"/>
                </g>
                <g id="arrowRight" xlink:href="#dirArrow" transform="rotate(90) translate(36 -43)" onmousedown="handlePan(1,0)">
                  <use xlink:href="#rim" fill="#404040">
                        <set attributeName="fill" to="#808080" begin="arrowRight.mouseover" end="arrowRight.mouseout"/>
                  </use>
                  <path fill="none" stroke="white" stroke-width="1.5" d="M0,-3.0v7 M-2.5,-0.5L0,-3.0L2.5,-0.5"/>
                </g>
                <g id="arrowDown" xlink:href="#dirArrow" transform="rotate(180) translate(-30 -48)" onmousedown="handlePan(0,1)">
                  <use xlink:href="#rim" fill="#404040">
                        <set attributeName="fill" to="#808080" begin="arrowDown.mouseover" end="arrowDown.mouseout"/>
                  </use>
                  <path fill="none" stroke="white" stroke-width="1.5" d="M0,-3.0v7 M-2.5,-0.5L0,-3.0L2.5,-0.5"/>
                </g>
                <g id="arrowLeft" xlink:href="#dirArrow" transform="rotate(270) translate(-36 17)" onmousedown="handlePan(-1,0)">
                  <use xlink:href="#rim" fill="#404040">
                        <set attributeName="fill" to="#808080" begin="arrowLeft.mouseover" end="arrowLeft.mouseout"/>
                  </use>
                  <path fill="none" stroke="white" stroke-width="1.5" d="M0,-3.0v7 M-2.5,-0.5L0,-3.0L2.5,-0.5"/>
                </g>
        </g>
        <svg viewBox="0 0 15 15" width="100%" height="30px" preserveAspectRatio="xMaxYMin meet">
         <g id="arrow_out" transform="scale(0.3 0.3)">
          <a xlink:href="classRMF_1_1Factory__inherit__graph_org.svg" target="_base">
           <rect id="button" ry="5" rx="5" y="6" x="6" height="38" width="38"
                fill="#f2f5e9" fill-opacity="0.5" stroke="#606060" stroke-width="1.0"/>
           <path id="arrow"
             d="M 11.500037,31.436501 C 11.940474,20.09759 22.043105,11.32322 32.158766,21.979434 L 37.068811,17.246167 C 37.068811,17.246167 37.088388,32 37.088388,32 L 22.160133,31.978069 C 22.160133,31.978069 26.997745,27.140456 26.997745,27.140456 C 18.528582,18.264221 13.291696,25.230495 11.500037,31.436501 z"
             style="fill:#404040;"/>
          </a>
         </g>
        </svg>
</svg>
