<?xml version="1.0" encoding="UTF-8" standalone="no"?>
<!DOCTYPE svg PUBLIC "-//W3C//DTD SVG 1.1//EN"
 "http://www.w3.org/Graphics/SVG/1.1/DTD/svg11.dtd">
<!-- Generated by graphviz version 2.36.0 (20140111.2315)
 -->
<!-- Title: RMF::decorator::RepresentationConst Pages: 1 -->
<svg width="166pt" height="150pt"
 viewBox="0.00 0.00 166.00 150.00" xmlns="http://www.w3.org/2000/svg" xmlns:xlink="http://www.w3.org/1999/xlink">
<g id="graph0" class="graph" transform="scale(1 1) rotate(0) translate(4 146)">
<title>RMF::decorator::RepresentationConst</title>
<!-- Node1 -->
<g id="node1" class="node"><title>Node1</title>
<polygon fill="#bfbfbf" stroke="black" points="-0.420898,-57 -0.420898,-85 158.421,-85 158.421,-57 -0.420898,-57"/>
<text text-anchor="start" x="7.5791" y="-73" font-family="Helvetica,sans-Serif" font-size="10.00">RMF::decorator::Representation</text>
<text text-anchor="middle" x="79" y="-63" font-family="Helvetica,sans-Serif" font-size="10.00">Const</text>
</g>
<!-- Node3 -->
<g id="node3" class="node"><title>Node3</title>
<g id="a_node3"><a xlink:href="classRMF_1_1decorator_1_1Representation.html" target="_top" xlink:title="RMF::decorator::Representation">
<polygon fill="none" stroke="black" points="-0.420898,-1 -0.420898,-19 158.421,-19 158.421,-1 -0.420898,-1"/>
<text text-anchor="middle" x="79" y="-7" font-family="Helvetica,sans-Serif" font-size="10.00">RMF::decorator::Representation</text>
</a>
</g>
</g>
<!-- Node1&#45;&gt;Node3 -->
<g id="edge2" class="edge"><title>Node1&#45;&gt;Node3</title>
<path fill="none" stroke="midnightblue" d="M79,-46.8856C79,-37.0939 79,-26.3163 79,-19.1534"/>
<polygon fill="midnightblue" stroke="midnightblue" points="75.5001,-46.906 79,-56.906 82.5001,-46.906 75.5001,-46.906"/>
</g>
<!-- Node2 -->
<g id="node2" class="node"><title>Node2</title>
<g id="a_node2"><a xlink:href="classRMF_1_1Decorator.html" target="_top" xlink:title="The base class for decorators. ">
<polygon fill="none" stroke="black" points="35.4385,-123 35.4385,-141 122.562,-141 122.562,-123 35.4385,-123"/>
<text text-anchor="middle" x="79" y="-129" font-family="Helvetica,sans-Serif" font-size="10.00">RMF::Decorator</text>
</a>
</g>
</g>
<!-- Node2&#45;&gt;Node1 -->
<g id="edge1" class="edge"><title>Node2&#45;&gt;Node1</title>
<path fill="none" stroke="midnightblue" d="M79,-112.654C79,-103.736 79,-93.2225 79,-85.1215"/>
<polygon fill="midnightblue" stroke="midnightblue" points="75.5001,-112.796 79,-122.796 82.5001,-112.796 75.5001,-112.796"/>
</g>
</g>
</svg>
