<?xml version="1.0" encoding="UTF-8" standalone="no"?>
<!DOCTYPE svg PUBLIC "-//W3C//DTD SVG 1.1//EN"
 "http://www.w3.org/Graphics/SVG/1.1/DTD/svg11.dtd">
<!-- Generated by graphviz version 2.36.0 (20140111.2315)
 -->
<!-- Title: RMF::Label Pages: 1 -->
<svg width="291pt" height="84pt"
 viewBox="0.00 0.00 291.00 84.00" xmlns="http://www.w3.org/2000/svg" xmlns:xlink="http://www.w3.org/1999/xlink">
<g id="graph0" class="graph" transform="scale(1 1) rotate(0) translate(4 80)">
<title>RMF::Label</title>
<!-- Node1 -->
<g id="node1" class="node"><title>Node1</title>
<polygon fill="#bfbfbf" stroke="black" points="108.158,-57 108.158,-75 175.842,-75 175.842,-57 108.158,-57"/>
<text text-anchor="middle" x="142" y="-63" font-family="Helvetica,sans-Serif" font-size="10.00">RMF::Label</text>
</g>
<!-- Node2 -->
<g id="node2" class="node"><title>Node2</title>
<g id="a_node2"><a xlink:href="classRMF_1_1decorator_1_1Assembly.html" target="_top" xlink:title="RMF::decorator::Assembly">
<polygon fill="none" stroke="black" points="-0.182129,-1 -0.182129,-19 134.182,-19 134.182,-1 -0.182129,-1"/>
<text text-anchor="middle" x="67" y="-7" font-family="Helvetica,sans-Serif" font-size="10.00">RMF::decorator::Assembly</text>
</a>
</g>
</g>
<!-- Node1&#45;&gt;Node2 -->
<g id="edge1" class="edge"><title>Node1&#45;&gt;Node2</title>
<path fill="none" stroke="midnightblue" d="M122.177,-50.7272C108.249,-40.6991 90.1022,-27.6336 78.4981,-19.2786"/>
<polygon fill="midnightblue" stroke="midnightblue" points="120.449,-53.7959 130.609,-56.7986 124.539,-48.1151 120.449,-53.7959"/>
</g>
<!-- Node3 -->
<g id="node3" class="node"><title>Node3</title>
<g id="a_node3"><a xlink:href="classRMF_1_1decorator_1_1Molecule.html" target="_top" xlink:title="RMF::decorator::Molecule">
<polygon fill="none" stroke="black" points="152.48,-1 152.48,-19 283.52,-19 283.52,-1 152.48,-1"/>
<text text-anchor="middle" x="218" y="-7" font-family="Helvetica,sans-Serif" font-size="10.00">RMF::decorator::Molecule</text>
</a>
</g>
</g>
<!-- Node1&#45;&gt;Node3 -->
<g id="edge2" class="edge"><title>Node1&#45;&gt;Node3</title>
<path fill="none" stroke="midnightblue" d="M162.088,-50.7272C176.201,-40.6991 194.59,-27.6336 206.349,-19.2786"/>
<polygon fill="midnightblue" stroke="midnightblue" points="159.667,-48.1533 153.543,-56.7986 163.722,-53.8596 159.667,-48.1533"/>
</g>
</g>
</svg>
