<?xml version="1.0" encoding="UTF-8" standalone="no"?>
<!DOCTYPE svg PUBLIC "-//W3C//DTD SVG 1.1//EN"
 "http://www.w3.org/Graphics/SVG/1.1/DTD/svg11.dtd">
<!-- Generated by graphviz version 2.34.0 (20131025.1349)
 -->
<!-- Title: RMF::Decorator Pages: 1 -->
<svg width="488pt" height="1210pt"
 viewBox="0.00 0.00 488.00 1210.00" xmlns="http://www.w3.org/2000/svg" xmlns:xlink="http://www.w3.org/1999/xlink">
<g id="graph0" class="graph" transform="scale(1 1) rotate(0) translate(4 1206)">
<title>RMF::Decorator</title>
<!-- Node1 -->
<g id="node1" class="node"><title>Node1</title>
<polygon fill="#bfbfbf" stroke="black" points="0.438477,-609 0.438477,-629 87.5615,-629 87.5615,-609 0.438477,-609"/>
<text text-anchor="middle" x="44" y="-615" font-family="Helvetica,sans-Serif" font-size="10.00">RMF::Decorator</text>
</g>
<!-- Node2 -->
<g id="node2" class="node"><title>Node2</title>
<g id="a_node2"><a xlink:href="classRMF_1_1decorator_1_1AliasConst.html" target="_top" xlink:title="RMF::decorator::AliasConst">
<polygon fill="none" stroke="black" points="134.591,-1182 134.591,-1202 273.409,-1202 273.409,-1182 134.591,-1182"/>
<text text-anchor="middle" x="204" y="-1188" font-family="Helvetica,sans-Serif" font-size="10.00">RMF::decorator::AliasConst</text>
</a>
</g>
</g>
<!-- Node1&#45;&gt;Node2 -->
<g id="edge1" class="edge"><title>Node1&#45;&gt;Node2</title>
<path fill="none" stroke="midnightblue" d="M44.9917,-639.343C45.3755,-729.405 51.4724,-1091.34 124,-1172 127.595,-1176 131.863,-1179.25 136.525,-1181.89"/>
<polygon fill="midnightblue" stroke="midnightblue" points="48.4913,-639.106 44.969,-629.113 41.4913,-639.121 48.4913,-639.106"/>
</g>
<!-- Node4 -->
<g id="node4" class="node"><title>Node4</title>
<g id="a_node4"><a xlink:href="classRMF_1_1decorator_1_1AlternativesConst.html" target="_top" xlink:title="RMF::decorator::Alternatives\lConst">
<polygon fill="none" stroke="black" points="132.367,-1131 132.367,-1163 275.633,-1163 275.633,-1131 132.367,-1131"/>
<text text-anchor="start" x="140.367" y="-1149" font-family="Helvetica,sans-Serif" font-size="10.00">RMF::decorator::Alternatives</text>
<text text-anchor="middle" x="204" y="-1137" font-family="Helvetica,sans-Serif" font-size="10.00">Const</text>
</a>
</g>
</g>
<!-- Node1&#45;&gt;Node4 -->
<g id="edge3" class="edge"><title>Node1&#45;&gt;Node4</title>
<path fill="none" stroke="midnightblue" d="M45.4602,-639.487C47.7669,-724.236 60.6333,-1046.45 124,-1121 127.273,-1124.85 131.128,-1128.13 135.344,-1130.93"/>
<polygon fill="midnightblue" stroke="midnightblue" points="48.9558,-639.262 45.2052,-629.353 41.958,-639.438 48.9558,-639.262"/>
</g>
<!-- Node6 -->
<g id="node6" class="node"><title>Node6</title>
<g id="a_node6"><a xlink:href="classRMF_1_1decorator_1_1AtomConst.html" target="_top" xlink:title="RMF::decorator::AtomConst">
<polygon fill="none" stroke="black" points="133.759,-1092 133.759,-1112 274.241,-1112 274.241,-1092 133.759,-1092"/>
<text text-anchor="middle" x="204" y="-1098" font-family="Helvetica,sans-Serif" font-size="10.00">RMF::decorator::AtomConst</text>
</a>
</g>
</g>
<!-- Node1&#45;&gt;Node6 -->
<g id="edge5" class="edge"><title>Node1&#45;&gt;Node6</title>
<path fill="none" stroke="midnightblue" d="M45.6107,-639.269C48.4503,-719.795 62.9472,-1015.93 124,-1082 127.745,-1086.05 132.182,-1089.33 137.013,-1091.99"/>
<polygon fill="midnightblue" stroke="midnightblue" points="49.1,-638.885 45.2721,-629.005 42.1038,-639.115 49.1,-638.885"/>
</g>
<!-- Node8 -->
<g id="node8" class="node"><title>Node8</title>
<g id="a_node8"><a xlink:href="classRMF_1_1decorator_1_1BackwardsCompatibilityFragmentConst.html" target="_top" xlink:title="RMF::decorator::Backwards\lCompatibilityFragmentConst">
<polygon fill="none" stroke="black" points="132.921,-1041 132.921,-1073 275.079,-1073 275.079,-1041 132.921,-1041"/>
<text text-anchor="start" x="140.921" y="-1059" font-family="Helvetica,sans-Serif" font-size="10.00">RMF::decorator::Backwards</text>
<text text-anchor="middle" x="204" y="-1047" font-family="Helvetica,sans-Serif" font-size="10.00">CompatibilityFragmentConst</text>
</a>
</g>
</g>
<!-- Node1&#45;&gt;Node8 -->
<g id="edge7" class="edge"><title>Node1&#45;&gt;Node8</title>
<path fill="none" stroke="midnightblue" d="M46.2208,-639.295C51.097,-713.841 71.5152,-971.297 124,-1031 127.337,-1034.8 131.238,-1038.04 135.486,-1040.81"/>
<polygon fill="midnightblue" stroke="midnightblue" points="49.7138,-639.072 45.5905,-629.313 42.7277,-639.513 49.7138,-639.072"/>
</g>
<!-- Node10 -->
<g id="node10" class="node"><title>Node10</title>
<g id="a_node10"><a xlink:href="classRMF_1_1decorator_1_1BallConst.html" target="_top" xlink:title="RMF::decorator::BallConst">
<polygon fill="none" stroke="black" points="137.091,-1002 137.091,-1022 270.909,-1022 270.909,-1002 137.091,-1002"/>
<text text-anchor="middle" x="204" y="-1008" font-family="Helvetica,sans-Serif" font-size="10.00">RMF::decorator::BallConst</text>
</a>
</g>
</g>
<!-- Node1&#45;&gt;Node10 -->
<g id="edge9" class="edge"><title>Node1&#45;&gt;Node10</title>
<path fill="none" stroke="midnightblue" d="M46.5188,-639.26C52.1825,-709.392 74.348,-940.36 124,-992 127.824,-995.977 132.317,-999.207 137.185,-1001.82"/>
<polygon fill="midnightblue" stroke="midnightblue" points="49.9934,-638.797 45.7244,-629.101 43.0147,-639.343 49.9934,-638.797"/>
</g>
<!-- Node12 -->
<g id="node12" class="node"><title>Node12</title>
<g id="a_node12"><a xlink:href="classRMF_1_1decorator_1_1BondConst.html" target="_top" xlink:title="RMF::decorator::BondConst">
<polygon fill="none" stroke="black" points="133.751,-963 133.751,-983 274.249,-983 274.249,-963 133.751,-963"/>
<text text-anchor="middle" x="204" y="-969" font-family="Helvetica,sans-Serif" font-size="10.00">RMF::decorator::BondConst</text>
</a>
</g>
</g>
<!-- Node1&#45;&gt;Node12 -->
<g id="edge11" class="edge"><title>Node1&#45;&gt;Node12</title>
<path fill="none" stroke="midnightblue" d="M47.0557,-639.221C54.0856,-704.425 79.2423,-907.534 124,-953 127.97,-957.033 132.628,-960.294 137.663,-962.926"/>
<polygon fill="midnightblue" stroke="midnightblue" points="50.511,-638.611 45.9851,-629.032 43.5493,-639.343 50.511,-638.611"/>
</g>
<!-- Node14 -->
<g id="node14" class="node"><title>Node14</title>
<g id="a_node14"><a xlink:href="classRMF_1_1decorator_1_1ChainConst.html" target="_top" xlink:title="RMF::decorator::ChainConst">
<polygon fill="none" stroke="black" points="132.365,-924 132.365,-944 275.635,-944 275.635,-924 132.365,-924"/>
<text text-anchor="middle" x="204" y="-930" font-family="Helvetica,sans-Serif" font-size="10.00">RMF::decorator::ChainConst</text>
</a>
</g>
</g>
<!-- Node1&#45;&gt;Node14 -->
<g id="edge13" class="edge"><title>Node1&#45;&gt;Node14</title>
<path fill="none" stroke="midnightblue" d="M47.7278,-639.178C56.2328,-699.161 84.1061,-874.649 124,-914 128.13,-918.073 132.963,-921.355 138.168,-923.994"/>
<polygon fill="midnightblue" stroke="midnightblue" points="51.1688,-638.511 46.3267,-629.087 44.2353,-639.473 51.1688,-638.511"/>
</g>
<!-- Node16 -->
<g id="node16" class="node"><title>Node16</title>
<g id="a_node16"><a xlink:href="classRMF_1_1decorator_1_1ColoredConst.html" target="_top" xlink:title="RMF::decorator::ColoredConst">
<polygon fill="none" stroke="black" points="127.919,-885 127.919,-905 280.081,-905 280.081,-885 127.919,-885"/>
<text text-anchor="middle" x="204" y="-891" font-family="Helvetica,sans-Serif" font-size="10.00">RMF::decorator::ColoredConst</text>
</a>
</g>
</g>
<!-- Node1&#45;&gt;Node16 -->
<g id="edge15" class="edge"><title>Node1&#45;&gt;Node16</title>
<path fill="none" stroke="midnightblue" d="M44.9574,-639.194C46.003,-687.409 55.6277,-810.053 124,-875 128.206,-878.995 133.091,-882.223 138.329,-884.828"/>
<polygon fill="midnightblue" stroke="midnightblue" points="48.4562,-639.061 44.8455,-629.101 41.4567,-639.139 48.4562,-639.061"/>
</g>
<!-- Node18 -->
<g id="node18" class="node"><title>Node18</title>
<g id="a_node18"><a xlink:href="classRMF_1_1decorator_1_1CopyConst.html" target="_top" xlink:title="RMF::decorator::CopyConst">
<polygon fill="none" stroke="black" points="133.756,-846 133.756,-866 274.244,-866 274.244,-846 133.756,-846"/>
<text text-anchor="middle" x="204" y="-852" font-family="Helvetica,sans-Serif" font-size="10.00">RMF::decorator::CopyConst</text>
</a>
</g>
</g>
<!-- Node1&#45;&gt;Node18 -->
<g id="edge17" class="edge"><title>Node1&#45;&gt;Node18</title>
<path fill="none" stroke="midnightblue" d="M46.2948,-639.589C50.1503,-682.72 65.2901,-782.949 124,-836 128.514,-840.079 133.74,-843.352 139.312,-845.974"/>
<polygon fill="midnightblue" stroke="midnightblue" points="49.7727,-639.167 45.5086,-629.468 42.7937,-639.709 49.7727,-639.167"/>
</g>
<!-- Node20 -->
<g id="node20" class="node"><title>Node20</title>
<g id="a_node20"><a xlink:href="classRMF_1_1decorator_1_1CylinderConst.html" target="_top" xlink:title="RMF::decorator::Cylinder\lConst">
<polygon fill="none" stroke="black" points="140.15,-795 140.15,-827 267.85,-827 267.85,-795 140.15,-795"/>
<text text-anchor="start" x="148.15" y="-813" font-family="Helvetica,sans-Serif" font-size="10.00">RMF::decorator::Cylinder</text>
<text text-anchor="middle" x="204" y="-801" font-family="Helvetica,sans-Serif" font-size="10.00">Const</text>
</a>
</g>
</g>
<!-- Node1&#45;&gt;Node20 -->
<g id="edge19" class="edge"><title>Node1&#45;&gt;Node20</title>
<path fill="none" stroke="midnightblue" d="M49.154,-639.191C57.343,-673.956 78.8383,-745.208 124,-785 128.767,-789.2 134.229,-792.724 140.006,-795.681"/>
<polygon fill="midnightblue" stroke="midnightblue" points="52.5358,-638.275 46.9497,-629.272 45.7025,-639.793 52.5358,-638.275"/>
</g>
<!-- Node22 -->
<g id="node22" class="node"><title>Node22</title>
<g id="a_node22"><a xlink:href="classRMF_1_1decorator_1_1DiffuserConst.html" target="_top" xlink:title="RMF::decorator::Diffuser\lConst">
<polygon fill="none" stroke="black" points="141.352,-744 141.352,-776 266.648,-776 266.648,-744 141.352,-744"/>
<text text-anchor="start" x="149.352" y="-762" font-family="Helvetica,sans-Serif" font-size="10.00">RMF::decorator::Diffuser</text>
<text text-anchor="middle" x="204" y="-750" font-family="Helvetica,sans-Serif" font-size="10.00">Const</text>
</a>
</g>
</g>
<!-- Node1&#45;&gt;Node22 -->
<g id="edge21" class="edge"><title>Node1&#45;&gt;Node22</title>
<path fill="none" stroke="midnightblue" d="M53.5566,-638.658C65.6497,-664.217 90.1054,-708.584 124,-734 129.198,-737.898 135.01,-741.229 141.059,-744.072"/>
<polygon fill="midnightblue" stroke="midnightblue" points="56.6054,-636.909 49.2698,-629.264 50.237,-639.815 56.6054,-636.909"/>
</g>
<!-- Node24 -->
<g id="node24" class="node"><title>Node24</title>
<g id="a_node24"><a xlink:href="classRMF_1_1decorator_1_1DomainConst.html" target="_top" xlink:title="RMF::decorator::DomainConst">
<polygon fill="none" stroke="black" points="128.2,-705 128.2,-725 279.8,-725 279.8,-705 128.2,-705"/>
<text text-anchor="middle" x="204" y="-711" font-family="Helvetica,sans-Serif" font-size="10.00">RMF::decorator::DomainConst</text>
</a>
</g>
</g>
<!-- Node1&#45;&gt;Node24 -->
<g id="edge23" class="edge"><title>Node1&#45;&gt;Node24</title>
<path fill="none" stroke="midnightblue" d="M59.2036,-637.337C73.6628,-654.745 97.6477,-680.363 124,-695 131.297,-699.053 139.427,-702.3 147.618,-704.898"/>
<polygon fill="midnightblue" stroke="midnightblue" points="61.5503,-634.672 52.5485,-629.084 56.1011,-639.066 61.5503,-634.672"/>
</g>
<!-- Node26 -->
<g id="node26" class="node"><title>Node26</title>
<g id="a_node26"><a xlink:href="classRMF_1_1decorator_1_1EllipsoidConst.html" target="_top" xlink:title="RMF::decorator::Ellipsoid\lConst">
<polygon fill="none" stroke="black" points="139.87,-654 139.87,-686 268.13,-686 268.13,-654 139.87,-654"/>
<text text-anchor="start" x="147.87" y="-672" font-family="Helvetica,sans-Serif" font-size="10.00">RMF::decorator::Ellipsoid</text>
<text text-anchor="middle" x="204" y="-660" font-family="Helvetica,sans-Serif" font-size="10.00">Const</text>
</a>
</g>
</g>
<!-- Node1&#45;&gt;Node26 -->
<g id="edge25" class="edge"><title>Node1&#45;&gt;Node26</title>
<path fill="none" stroke="midnightblue" d="M85.906,-632.204C106.456,-638.837 131.527,-646.93 153.191,-653.922"/>
<polygon fill="midnightblue" stroke="midnightblue" points="86.8074,-628.817 76.2157,-629.076 84.6571,-635.479 86.8074,-628.817"/>
</g>
<!-- Node28 -->
<g id="node28" class="node"><title>Node28</title>
<g id="a_node28"><a xlink:href="classRMF_1_1decorator_1_1ExternalConst.html" target="_top" xlink:title="RMF::decorator::External\lConst">
<polygon fill="none" stroke="black" points="140.148,-603 140.148,-635 267.852,-635 267.852,-603 140.148,-603"/>
<text text-anchor="start" x="148.148" y="-621" font-family="Helvetica,sans-Serif" font-size="10.00">RMF::decorator::External</text>
<text text-anchor="middle" x="204" y="-609" font-family="Helvetica,sans-Serif" font-size="10.00">Const</text>
</a>
</g>
</g>
<!-- Node1&#45;&gt;Node28 -->
<g id="edge27" class="edge"><title>Node1&#45;&gt;Node28</title>
<path fill="none" stroke="midnightblue" d="M97.8449,-619C111.371,-619 126.05,-619 140.029,-619"/>
<polygon fill="midnightblue" stroke="midnightblue" points="97.7571,-615.5 87.7571,-619 97.757,-622.5 97.7571,-615.5"/>
</g>
<!-- Node30 -->
<g id="node30" class="node"><title>Node30</title>
<g id="a_node30"><a xlink:href="classRMF_1_1decorator_1_1FragmentConst.html" target="_top" xlink:title="RMF::decorator::Fragment\lConst">
<polygon fill="none" stroke="black" points="137.094,-552 137.094,-584 270.906,-584 270.906,-552 137.094,-552"/>
<text text-anchor="start" x="145.094" y="-570" font-family="Helvetica,sans-Serif" font-size="10.00">RMF::decorator::Fragment</text>
<text text-anchor="middle" x="204" y="-558" font-family="Helvetica,sans-Serif" font-size="10.00">Const</text>
</a>
</g>
</g>
<!-- Node1&#45;&gt;Node30 -->
<g id="edge29" class="edge"><title>Node1&#45;&gt;Node30</title>
<path fill="none" stroke="midnightblue" d="M85.906,-605.796C106.456,-599.163 131.527,-591.07 153.191,-584.078"/>
<polygon fill="midnightblue" stroke="midnightblue" points="84.6571,-602.521 76.2157,-608.924 86.8074,-609.183 84.6571,-602.521"/>
</g>
<!-- Node32 -->
<g id="node32" class="node"><title>Node32</title>
<g id="a_node32"><a xlink:href="classRMF_1_1decorator_1_1GaussianParticleConst.html" target="_top" xlink:title="RMF::decorator::Gaussian\lParticleConst">
<polygon fill="none" stroke="black" points="137.367,-501 137.367,-533 270.633,-533 270.633,-501 137.367,-501"/>
<text text-anchor="start" x="145.367" y="-519" font-family="Helvetica,sans-Serif" font-size="10.00">RMF::decorator::Gaussian</text>
<text text-anchor="middle" x="204" y="-507" font-family="Helvetica,sans-Serif" font-size="10.00">ParticleConst</text>
</a>
</g>
</g>
<!-- Node1&#45;&gt;Node32 -->
<g id="edge31" class="edge"><title>Node1&#45;&gt;Node32</title>
<path fill="none" stroke="midnightblue" d="M59.6708,-600.784C74.3249,-583.678 98.3148,-558.466 124,-543 130.308,-539.201 137.239,-535.884 144.293,-533.008"/>
<polygon fill="midnightblue" stroke="midnightblue" points="56.6207,-598.976 52.8991,-608.896 61.9944,-603.462 56.6207,-598.976"/>
</g>
<!-- Node34 -->
<g id="node34" class="node"><title>Node34</title>
<g id="a_node34"><a xlink:href="classRMF_1_1decorator_1_1IntermediateParticleConst.html" target="_top" xlink:title="RMF::decorator::Intermediate\lParticleConst">
<polygon fill="none" stroke="black" points="130.697,-450 130.697,-482 277.303,-482 277.303,-450 130.697,-450"/>
<text text-anchor="start" x="138.697" y="-468" font-family="Helvetica,sans-Serif" font-size="10.00">RMF::decorator::Intermediate</text>
<text text-anchor="middle" x="204" y="-456" font-family="Helvetica,sans-Serif" font-size="10.00">ParticleConst</text>
</a>
</g>
</g>
<!-- Node1&#45;&gt;Node34 -->
<g id="edge33" class="edge"><title>Node1&#45;&gt;Node34</title>
<path fill="none" stroke="midnightblue" d="M52.2018,-599.293C63.3619,-571.436 87.433,-520.741 124,-492 128.881,-488.163 134.352,-484.882 140.076,-482.078"/>
<polygon fill="midnightblue" stroke="midnightblue" points="48.8845,-598.168 48.5576,-608.758 55.417,-600.683 48.8845,-598.168"/>
</g>
<!-- Node36 -->
<g id="node36" class="node"><title>Node36</title>
<g id="a_node36"><a xlink:href="classRMF_1_1decorator_1_1JournalArticleConst.html" target="_top" xlink:title="RMF::decorator::JournalArticle\lConst">
<polygon fill="none" stroke="black" points="128.2,-399 128.2,-431 279.8,-431 279.8,-399 128.2,-399"/>
<text text-anchor="start" x="136.2" y="-417" font-family="Helvetica,sans-Serif" font-size="10.00">RMF::decorator::JournalArticle</text>
<text text-anchor="middle" x="204" y="-405" font-family="Helvetica,sans-Serif" font-size="10.00">Const</text>
</a>
</g>
</g>
<!-- Node1&#45;&gt;Node36 -->
<g id="edge35" class="edge"><title>Node1&#45;&gt;Node36</title>
<path fill="none" stroke="midnightblue" d="M48.4071,-598.907C55.6623,-562.266 76.063,-484.379 124,-441 128.282,-437.125 133.155,-433.826 138.33,-431.017"/>
<polygon fill="midnightblue" stroke="midnightblue" points="44.9415,-598.4 46.5616,-608.871 51.8244,-599.675 44.9415,-598.4"/>
</g>
<!-- Node38 -->
<g id="node38" class="node"><title>Node38</title>
<g id="a_node38"><a xlink:href="classRMF_1_1decorator_1_1ParticleConst.html" target="_top" xlink:title="RMF::decorator::Particle\lConst">
<polygon fill="none" stroke="black" points="141.818,-348 141.818,-380 266.182,-380 266.182,-348 141.818,-348"/>
<text text-anchor="start" x="149.818" y="-366" font-family="Helvetica,sans-Serif" font-size="10.00">RMF::decorator::Particle</text>
<text text-anchor="middle" x="204" y="-354" font-family="Helvetica,sans-Serif" font-size="10.00">Const</text>
</a>
</g>
</g>
<!-- Node1&#45;&gt;Node38 -->
<g id="edge37" class="edge"><title>Node1&#45;&gt;Node38</title>
<path fill="none" stroke="midnightblue" d="M46.1575,-598.537C49.7669,-554.226 64.4898,-448.668 124,-390 129.038,-385.033 135.042,-381.015 141.457,-377.764"/>
<polygon fill="midnightblue" stroke="midnightblue" points="42.6569,-598.424 45.4453,-608.646 49.6396,-598.916 42.6569,-598.424"/>
</g>
<!-- Node40 -->
<g id="node40" class="node"><title>Node40</title>
<g id="a_node40"><a xlink:href="classRMF_1_1decorator_1_1ReferenceFrameConst.html" target="_top" xlink:title="RMF::decorator::Reference\lFrameConst">
<polygon fill="none" stroke="black" points="135.421,-297 135.421,-329 272.579,-329 272.579,-297 135.421,-297"/>
<text text-anchor="start" x="143.421" y="-315" font-family="Helvetica,sans-Serif" font-size="10.00">RMF::decorator::Reference</text>
<text text-anchor="middle" x="204" y="-303" font-family="Helvetica,sans-Serif" font-size="10.00">FrameConst</text>
</a>
</g>
</g>
<!-- Node1&#45;&gt;Node40 -->
<g id="edge39" class="edge"><title>Node1&#45;&gt;Node40</title>
<path fill="none" stroke="midnightblue" d="M44.6298,-598.669C44.8347,-547.772 52.5249,-413.613 124,-339 127.696,-335.142 131.973,-331.856 136.587,-329.058"/>
<polygon fill="midnightblue" stroke="midnightblue" points="41.1317,-599.001 44.6916,-608.98 48.1315,-598.959 41.1317,-599.001"/>
</g>
<!-- Node42 -->
<g id="node42" class="node"><title>Node42</title>
<g id="a_node42"><a xlink:href="classRMF_1_1decorator_1_1RepresentationConst.html" target="_top" xlink:title="RMF::decorator::Representation\lConst">
<polygon fill="none" stroke="black" points="124.579,-246 124.579,-278 283.421,-278 283.421,-246 124.579,-246"/>
<text text-anchor="start" x="132.579" y="-264" font-family="Helvetica,sans-Serif" font-size="10.00">RMF::decorator::Representation</text>
<text text-anchor="middle" x="204" y="-252" font-family="Helvetica,sans-Serif" font-size="10.00">Const</text>
</a>
</g>
</g>
<!-- Node1&#45;&gt;Node42 -->
<g id="edge41" class="edge"><title>Node1&#45;&gt;Node42</title>
<path fill="none" stroke="midnightblue" d="M47.261,-598.655C54.836,-533.953 81.2745,-334.458 124,-288 127.519,-284.174 131.61,-280.91 136.043,-278.125"/>
<polygon fill="midnightblue" stroke="midnightblue" points="43.761,-598.456 46.1011,-608.789 50.7156,-599.252 43.761,-598.456"/>
</g>
<!-- Node44 -->
<g id="node44" class="node"><title>Node44</title>
<g id="a_node44"><a xlink:href="classRMF_1_1decorator_1_1ResidueConst.html" target="_top" xlink:title="RMF::decorator::ResidueConst">
<polygon fill="none" stroke="red" points="127.084,-207 127.084,-227 280.916,-227 280.916,-207 127.084,-207"/>
<text text-anchor="middle" x="204" y="-213" font-family="Helvetica,sans-Serif" font-size="10.00">RMF::decorator::ResidueConst</text>
</a>
</g>
</g>
<!-- Node1&#45;&gt;Node44 -->
<g id="edge43" class="edge"><title>Node1&#45;&gt;Node44</title>
<path fill="none" stroke="midnightblue" d="M46.4457,-598.257C51.8671,-526.448 73.3272,-289.954 124,-237 127.815,-233.013 132.301,-229.777 137.165,-227.156"/>
<polygon fill="midnightblue" stroke="midnightblue" points="42.9239,-598.43 45.6871,-608.658 49.9053,-598.939 42.9239,-598.43"/>
</g>
<!-- Node45 -->
<g id="node45" class="node"><title>Node45</title>
<g id="a_node45"><a xlink:href="classRMF_1_1decorator_1_1RigidParticleConst.html" target="_top" xlink:title="RMF::decorator::RigidParticle\lConst">
<polygon fill="none" stroke="red" points="130.424,-156 130.424,-188 277.576,-188 277.576,-156 130.424,-156"/>
<text text-anchor="start" x="138.424" y="-174" font-family="Helvetica,sans-Serif" font-size="10.00">RMF::decorator::RigidParticle</text>
<text text-anchor="middle" x="204" y="-162" font-family="Helvetica,sans-Serif" font-size="10.00">Const</text>
</a>
</g>
</g>
<!-- Node1&#45;&gt;Node45 -->
<g id="edge44" class="edge"><title>Node1&#45;&gt;Node45</title>
<path fill="none" stroke="midnightblue" d="M46.1265,-598.76C50.7209,-523.252 70.4131,-259.2 124,-198 127.329,-194.198 131.225,-190.949 135.469,-188.174"/>
<polygon fill="midnightblue" stroke="midnightblue" points="42.6266,-598.658 45.5358,-608.845 49.6146,-599.067 42.6266,-598.658"/>
</g>
<!-- Node46 -->
<g id="node46" class="node"><title>Node46</title>
<g id="a_node46"><a xlink:href="classRMF_1_1decorator_1_1ScoreConst.html" target="_top" xlink:title="RMF::decorator::ScoreConst">
<polygon fill="none" stroke="red" points="132.367,-117 132.367,-137 275.633,-137 275.633,-117 132.367,-117"/>
<text text-anchor="middle" x="204" y="-123" font-family="Helvetica,sans-Serif" font-size="10.00">RMF::decorator::ScoreConst</text>
</a>
</g>
</g>
<!-- Node1&#45;&gt;Node46 -->
<g id="edge45" class="edge"><title>Node1&#45;&gt;Node46</title>
<path fill="none" stroke="midnightblue" d="M45.5508,-598.341C48.1611,-516.262 61.9003,-214.421 124,-147 127.738,-142.942 132.171,-139.655 137,-137.001"/>
<polygon fill="midnightblue" stroke="midnightblue" points="42.0386,-598.703 45.242,-608.802 49.0356,-598.91 42.0386,-598.703"/>
</g>
<!-- Node47 -->
<g id="node47" class="node"><title>Node47</title>
<g id="a_node47"><a xlink:href="classRMF_1_1decorator_1_1SegmentConst.html" target="_top" xlink:title="RMF::decorator::SegmentConst">
<polygon fill="none" stroke="red" points="125.417,-78 125.417,-98 282.583,-98 282.583,-78 125.417,-78"/>
<text text-anchor="middle" x="204" y="-84" font-family="Helvetica,sans-Serif" font-size="10.00">RMF::decorator::SegmentConst</text>
</a>
</g>
</g>
<!-- Node1&#45;&gt;Node47 -->
<g id="edge46" class="edge"><title>Node1&#45;&gt;Node47</title>
<path fill="none" stroke="midnightblue" d="M45.2565,-598.583C46.755,-512.7 56.865,-181.804 124,-108 127.618,-104.023 131.902,-100.786 136.575,-98.1569"/>
<polygon fill="midnightblue" stroke="midnightblue" points="41.7533,-598.772 45.0997,-608.824 48.7525,-598.879 41.7533,-598.772"/>
</g>
<!-- Node48 -->
<g id="node48" class="node"><title>Node48</title>
<g id="a_node48"><a xlink:href="classRMF_1_1decorator_1_1StateConst.html" target="_top" xlink:title="RMF::decorator::StateConst">
<polygon fill="none" stroke="red" points="133.754,-39 133.754,-59 274.246,-59 274.246,-39 133.754,-39"/>
<text text-anchor="middle" x="204" y="-45" font-family="Helvetica,sans-Serif" font-size="10.00">RMF::decorator::StateConst</text>
</a>
</g>
</g>
<!-- Node1&#45;&gt;Node48 -->
<g id="edge47" class="edge"><title>Node1&#45;&gt;Node48</title>
<path fill="none" stroke="midnightblue" d="M45.0087,-598.767C45.4651,-509.189 51.8273,-149.202 124,-69 127.596,-65.0036 131.866,-61.753 136.529,-59.1148"/>
<polygon fill="midnightblue" stroke="midnightblue" points="41.5082,-598.93 44.9776,-608.941 48.5082,-598.952 41.5082,-598.93"/>
</g>
<!-- Node49 -->
<g id="node49" class="node"><title>Node49</title>
<g id="a_node49"><a xlink:href="classRMF_1_1decorator_1_1TypedConst.html" target="_top" xlink:title="RMF::decorator::TypedConst">
<polygon fill="none" stroke="red" points="131.806,-0 131.806,-20 276.194,-20 276.194,-0 131.806,-0"/>
<text text-anchor="middle" x="204" y="-6" font-family="Helvetica,sans-Serif" font-size="10.00">RMF::decorator::TypedConst</text>
</a>
</g>
</g>
<!-- Node1&#45;&gt;Node49 -->
<g id="edge48" class="edge"><title>Node1&#45;&gt;Node49</title>
<path fill="none" stroke="midnightblue" d="M44.7944,-598.532C44.2769,-504.695 46.8894,-116.498 124,-30 127.578,-25.9869 131.834,-22.7245 136.488,-20.0784"/>
<polygon fill="midnightblue" stroke="midnightblue" points="41.2956,-598.721 44.8703,-608.694 48.2954,-598.668 41.2956,-598.721"/>
</g>
<!-- Node3 -->
<g id="node3" class="node"><title>Node3</title>
<g id="a_node3"><a xlink:href="classRMF_1_1decorator_1_1Alias.html" target="_top" xlink:title="RMF::decorator::Alias">
<polygon fill="none" stroke="black" points="343.653,-1182 343.653,-1202 456.347,-1202 456.347,-1182 343.653,-1182"/>
<text text-anchor="middle" x="400" y="-1188" font-family="Helvetica,sans-Serif" font-size="10.00">RMF::decorator::Alias</text>
</a>
</g>
</g>
<!-- Node2&#45;&gt;Node3 -->
<g id="edge2" class="edge"><title>Node2&#45;&gt;Node3</title>
<path fill="none" stroke="midnightblue" d="M283.722,-1192C303.772,-1192 324.902,-1192 343.518,-1192"/>
<polygon fill="midnightblue" stroke="midnightblue" points="283.67,-1188.5 273.67,-1192 283.67,-1195.5 283.67,-1188.5"/>
</g>
<!-- Node5 -->
<g id="node5" class="node"><title>Node5</title>
<g id="a_node5"><a xlink:href="classRMF_1_1decorator_1_1Alternatives.html" target="_top" xlink:title="RMF::decorator::Alternatives">
<polygon fill="none" stroke="black" points="328.367,-1137 328.367,-1157 471.633,-1157 471.633,-1137 328.367,-1137"/>
<text text-anchor="middle" x="400" y="-1143" font-family="Helvetica,sans-Serif" font-size="10.00">RMF::decorator::Alternatives</text>
</a>
</g>
</g>
<!-- Node4&#45;&gt;Node5 -->
<g id="edge4" class="edge"><title>Node4&#45;&gt;Node5</title>
<path fill="none" stroke="midnightblue" d="M285.999,-1147C300.057,-1147 314.576,-1147 328.33,-1147"/>
<polygon fill="midnightblue" stroke="midnightblue" points="285.862,-1143.5 275.862,-1147 285.862,-1150.5 285.862,-1143.5"/>
</g>
<!-- Node7 -->
<g id="node7" class="node"><title>Node7</title>
<g id="a_node7"><a xlink:href="classRMF_1_1decorator_1_1Atom.html" target="_top" xlink:title="RMF::decorator::Atom">
<polygon fill="none" stroke="black" points="342.82,-1092 342.82,-1112 457.18,-1112 457.18,-1092 342.82,-1092"/>
<text text-anchor="middle" x="400" y="-1098" font-family="Helvetica,sans-Serif" font-size="10.00">RMF::decorator::Atom</text>
</a>
</g>
</g>
<!-- Node6&#45;&gt;Node7 -->
<g id="edge6" class="edge"><title>Node6&#45;&gt;Node7</title>
<path fill="none" stroke="midnightblue" d="M284.588,-1102C304.099,-1102 324.582,-1102 342.739,-1102"/>
<polygon fill="midnightblue" stroke="midnightblue" points="284.491,-1098.5 274.49,-1102 284.49,-1105.5 284.491,-1098.5"/>
</g>
<!-- Node9 -->
<g id="node9" class="node"><title>Node9</title>
<g id="a_node9"><a xlink:href="classRMF_1_1decorator_1_1BackwardsCompatibilityFragment.html" target="_top" xlink:title="RMF::decorator::Backwards\lCompatibilityFragment">
<polygon fill="none" stroke="black" points="330.037,-1041 330.037,-1073 469.963,-1073 469.963,-1041 330.037,-1041"/>
<text text-anchor="start" x="338.037" y="-1059" font-family="Helvetica,sans-Serif" font-size="10.00">RMF::decorator::Backwards</text>
<text text-anchor="middle" x="400" y="-1047" font-family="Helvetica,sans-Serif" font-size="10.00">CompatibilityFragment</text>
</a>
</g>
</g>
<!-- Node8&#45;&gt;Node9 -->
<g id="edge8" class="edge"><title>Node8&#45;&gt;Node9</title>
<path fill="none" stroke="midnightblue" d="M285.435,-1057C300.204,-1057 315.501,-1057 329.901,-1057"/>
<polygon fill="midnightblue" stroke="midnightblue" points="285.313,-1053.5 275.313,-1057 285.313,-1060.5 285.313,-1053.5"/>
</g>
<!-- Node11 -->
<g id="node11" class="node"><title>Node11</title>
<g id="a_node11"><a xlink:href="classRMF_1_1decorator_1_1Ball.html" target="_top" xlink:title="RMF::decorator::Ball">
<polygon fill="none" stroke="black" points="346.153,-1002 346.153,-1022 453.847,-1022 453.847,-1002 346.153,-1002"/>
<text text-anchor="middle" x="400" y="-1008" font-family="Helvetica,sans-Serif" font-size="10.00">RMF::decorator::Ball</text>
</a>
</g>
</g>
<!-- Node10&#45;&gt;Node11 -->
<g id="edge10" class="edge"><title>Node10&#45;&gt;Node11</title>
<path fill="none" stroke="midnightblue" d="M281.144,-1012C302.872,-1012 326.064,-1012 346.077,-1012"/>
<polygon fill="midnightblue" stroke="midnightblue" points="280.95,-1008.5 270.95,-1012 280.95,-1015.5 280.95,-1008.5"/>
</g>
<!-- Node13 -->
<g id="node13" class="node"><title>Node13</title>
<g id="a_node13"><a xlink:href="classRMF_1_1decorator_1_1Bond.html" target="_top" xlink:title="RMF::decorator::Bond">
<polygon fill="none" stroke="black" points="342.813,-963 342.813,-983 457.187,-983 457.187,-963 342.813,-963"/>
<text text-anchor="middle" x="400" y="-969" font-family="Helvetica,sans-Serif" font-size="10.00">RMF::decorator::Bond</text>
</a>
</g>
</g>
<!-- Node12&#45;&gt;Node13 -->
<g id="edge12" class="edge"><title>Node12&#45;&gt;Node13</title>
<path fill="none" stroke="midnightblue" d="M284.588,-973C304.099,-973 324.582,-973 342.739,-973"/>
<polygon fill="midnightblue" stroke="midnightblue" points="284.491,-969.5 274.49,-973 284.49,-976.5 284.491,-969.5"/>
</g>
<!-- Node15 -->
<g id="node15" class="node"><title>Node15</title>
<g id="a_node15"><a xlink:href="classRMF_1_1decorator_1_1Chain.html" target="_top" xlink:title="RMF::decorator::Chain">
<polygon fill="none" stroke="black" points="341.426,-924 341.426,-944 458.574,-944 458.574,-924 341.426,-924"/>
<text text-anchor="middle" x="400" y="-930" font-family="Helvetica,sans-Serif" font-size="10.00">RMF::decorator::Chain</text>
</a>
</g>
</g>
<!-- Node14&#45;&gt;Node15 -->
<g id="edge14" class="edge"><title>Node14&#45;&gt;Node15</title>
<path fill="none" stroke="midnightblue" d="M286.077,-934C304.644,-934 324.012,-934 341.357,-934"/>
<polygon fill="midnightblue" stroke="midnightblue" points="285.862,-930.5 275.862,-934 285.862,-937.5 285.862,-930.5"/>
</g>
<!-- Node17 -->
<g id="node17" class="node"><title>Node17</title>
<g id="a_node17"><a xlink:href="classRMF_1_1decorator_1_1Colored.html" target="_top" xlink:title="RMF::decorator::Colored">
<polygon fill="none" stroke="black" points="336.98,-885 336.98,-905 463.02,-905 463.02,-885 336.98,-885"/>
<text text-anchor="middle" x="400" y="-891" font-family="Helvetica,sans-Serif" font-size="10.00">RMF::decorator::Colored</text>
</a>
</g>
</g>
<!-- Node16&#45;&gt;Node17 -->
<g id="edge16" class="edge"><title>Node16&#45;&gt;Node17</title>
<path fill="none" stroke="midnightblue" d="M290.481,-895C306.115,-895 322.154,-895 336.942,-895"/>
<polygon fill="midnightblue" stroke="midnightblue" points="290.283,-891.5 280.283,-895 290.283,-898.5 290.283,-891.5"/>
</g>
<!-- Node19 -->
<g id="node19" class="node"><title>Node19</title>
<g id="a_node19"><a xlink:href="classRMF_1_1decorator_1_1Copy.html" target="_top" xlink:title="RMF::decorator::Copy">
<polygon fill="none" stroke="black" points="342.818,-846 342.818,-866 457.182,-866 457.182,-846 342.818,-846"/>
<text text-anchor="middle" x="400" y="-852" font-family="Helvetica,sans-Serif" font-size="10.00">RMF::decorator::Copy</text>
</a>
</g>
</g>
<!-- Node18&#45;&gt;Node19 -->
<g id="edge18" class="edge"><title>Node18&#45;&gt;Node19</title>
<path fill="none" stroke="midnightblue" d="M284.588,-856C304.099,-856 324.582,-856 342.739,-856"/>
<polygon fill="midnightblue" stroke="midnightblue" points="284.491,-852.5 274.49,-856 284.49,-859.5 284.491,-852.5"/>
</g>
<!-- Node21 -->
<g id="node21" class="node"><title>Node21</title>
<g id="a_node21"><a xlink:href="classRMF_1_1decorator_1_1Cylinder.html" target="_top" xlink:title="RMF::decorator::Cylinder">
<polygon fill="none" stroke="black" points="336.15,-801 336.15,-821 463.85,-821 463.85,-801 336.15,-801"/>
<text text-anchor="middle" x="400" y="-807" font-family="Helvetica,sans-Serif" font-size="10.00">RMF::decorator::Cylinder</text>
</a>
</g>
</g>
<!-- Node20&#45;&gt;Node21 -->
<g id="edge20" class="edge"><title>Node20&#45;&gt;Node21</title>
<path fill="none" stroke="midnightblue" d="M278.112,-811C297.161,-811 317.522,-811 335.998,-811"/>
<polygon fill="midnightblue" stroke="midnightblue" points="277.986,-807.5 267.986,-811 277.986,-814.5 277.986,-807.5"/>
</g>
<!-- Node23 -->
<g id="node23" class="node"><title>Node23</title>
<g id="a_node23"><a xlink:href="classRMF_1_1decorator_1_1Diffuser.html" target="_top" xlink:title="RMF::decorator::Diffuser">
<polygon fill="none" stroke="black" points="337.352,-750 337.352,-770 462.648,-770 462.648,-750 337.352,-750"/>
<text text-anchor="middle" x="400" y="-756" font-family="Helvetica,sans-Serif" font-size="10.00">RMF::decorator::Diffuser</text>
</a>
</g>
</g>
<!-- Node22&#45;&gt;Node23 -->
<g id="edge22" class="edge"><title>Node22&#45;&gt;Node23</title>
<path fill="none" stroke="midnightblue" d="M276.855,-760C296.668,-760 317.986,-760 337.178,-760"/>
<polygon fill="midnightblue" stroke="midnightblue" points="276.649,-756.5 266.649,-760 276.649,-763.5 276.649,-756.5"/>
</g>
<!-- Node25 -->
<g id="node25" class="node"><title>Node25</title>
<g id="a_node25"><a xlink:href="classRMF_1_1decorator_1_1Domain.html" target="_top" xlink:title="RMF::decorator::Domain">
<polygon fill="none" stroke="black" points="337.261,-705 337.261,-725 462.739,-725 462.739,-705 337.261,-705"/>
<text text-anchor="middle" x="400" y="-711" font-family="Helvetica,sans-Serif" font-size="10.00">RMF::decorator::Domain</text>
</a>
</g>
</g>
<!-- Node24&#45;&gt;Node25 -->
<g id="edge24" class="edge"><title>Node24&#45;&gt;Node25</title>
<path fill="none" stroke="midnightblue" d="M290.275,-715C306.02,-715 322.185,-715 337.074,-715"/>
<polygon fill="midnightblue" stroke="midnightblue" points="290.005,-711.5 280.005,-715 290.005,-718.5 290.005,-711.5"/>
</g>
<!-- Node27 -->
<g id="node27" class="node"><title>Node27</title>
<g id="a_node27"><a xlink:href="classRMF_1_1decorator_1_1Ellipsoid.html" target="_top" xlink:title="RMF::decorator::Ellipsoid">
<polygon fill="none" stroke="black" points="335.87,-660 335.87,-680 464.13,-680 464.13,-660 335.87,-660"/>
<text text-anchor="middle" x="400" y="-666" font-family="Helvetica,sans-Serif" font-size="10.00">RMF::decorator::Ellipsoid</text>
</a>
</g>
</g>
<!-- Node26&#45;&gt;Node27 -->
<g id="edge26" class="edge"><title>Node26&#45;&gt;Node27</title>
<path fill="none" stroke="midnightblue" d="M278.32,-670C297.252,-670 317.467,-670 335.832,-670"/>
<polygon fill="midnightblue" stroke="midnightblue" points="278.254,-666.5 268.254,-670 278.254,-673.5 278.254,-666.5"/>
</g>
<!-- Node29 -->
<g id="node29" class="node"><title>Node29</title>
<g id="a_node29"><a xlink:href="classRMF_1_1decorator_1_1External.html" target="_top" xlink:title="RMF::decorator::External">
<polygon fill="none" stroke="black" points="336.148,-609 336.148,-629 463.852,-629 463.852,-609 336.148,-609"/>
<text text-anchor="middle" x="400" y="-615" font-family="Helvetica,sans-Serif" font-size="10.00">RMF::decorator::External</text>
</a>
</g>
</g>
<!-- Node28&#45;&gt;Node29 -->
<g id="edge28" class="edge"><title>Node28&#45;&gt;Node29</title>
<path fill="none" stroke="midnightblue" d="M278.112,-619C297.161,-619 317.522,-619 335.998,-619"/>
<polygon fill="midnightblue" stroke="midnightblue" points="277.986,-615.5 267.986,-619 277.986,-622.5 277.986,-615.5"/>
</g>
<!-- Node31 -->
<g id="node31" class="node"><title>Node31</title>
<g id="a_node31"><a xlink:href="classRMF_1_1decorator_1_1Fragment.html" target="_top" xlink:title="RMF::decorator::Fragment">
<polygon fill="none" stroke="black" points="333.094,-558 333.094,-578 466.906,-578 466.906,-558 333.094,-558"/>
<text text-anchor="middle" x="400" y="-564" font-family="Helvetica,sans-Serif" font-size="10.00">RMF::decorator::Fragment</text>
</a>
</g>
</g>
<!-- Node30&#45;&gt;Node31 -->
<g id="edge30" class="edge"><title>Node30&#45;&gt;Node31</title>
<path fill="none" stroke="midnightblue" d="M281.413,-568C298.433,-568 316.339,-568 332.903,-568"/>
<polygon fill="midnightblue" stroke="midnightblue" points="280.95,-564.5 270.95,-568 280.95,-571.5 280.95,-564.5"/>
</g>
<!-- Node33 -->
<g id="node33" class="node"><title>Node33</title>
<g id="a_node33"><a xlink:href="classRMF_1_1decorator_1_1GaussianParticle.html" target="_top" xlink:title="RMF::decorator::Gaussian\lParticle">
<polygon fill="none" stroke="black" points="333.367,-501 333.367,-533 466.633,-533 466.633,-501 333.367,-501"/>
<text text-anchor="start" x="341.367" y="-519" font-family="Helvetica,sans-Serif" font-size="10.00">RMF::decorator::Gaussian</text>
<text text-anchor="middle" x="400" y="-507" font-family="Helvetica,sans-Serif" font-size="10.00">Particle</text>
</a>
</g>
</g>
<!-- Node32&#45;&gt;Node33 -->
<g id="edge32" class="edge"><title>Node32&#45;&gt;Node33</title>
<path fill="none" stroke="midnightblue" d="M280.725,-517C298.003,-517 316.228,-517 333.058,-517"/>
<polygon fill="midnightblue" stroke="midnightblue" points="280.68,-513.5 270.68,-517 280.68,-520.5 280.68,-513.5"/>
</g>
<!-- Node35 -->
<g id="node35" class="node"><title>Node35</title>
<g id="a_node35"><a xlink:href="classRMF_1_1decorator_1_1IntermediateParticle.html" target="_top" xlink:title="RMF::decorator::Intermediate\lParticle">
<polygon fill="none" stroke="black" points="326.697,-450 326.697,-482 473.303,-482 473.303,-450 326.697,-450"/>
<text text-anchor="start" x="334.697" y="-468" font-family="Helvetica,sans-Serif" font-size="10.00">RMF::decorator::Intermediate</text>
<text text-anchor="middle" x="400" y="-456" font-family="Helvetica,sans-Serif" font-size="10.00">Particle</text>
</a>
</g>
</g>
<!-- Node34&#45;&gt;Node35 -->
<g id="edge34" class="edge"><title>Node34&#45;&gt;Node35</title>
<path fill="none" stroke="midnightblue" d="M287.772,-466C300.676,-466 313.923,-466 326.574,-466"/>
<polygon fill="midnightblue" stroke="midnightblue" points="287.514,-462.5 277.514,-466 287.514,-469.5 287.514,-462.5"/>
</g>
<!-- Node37 -->
<g id="node37" class="node"><title>Node37</title>
<g id="a_node37"><a xlink:href="classRMF_1_1decorator_1_1JournalArticle.html" target="_top" xlink:title="RMF::decorator::JournalArticle">
<polygon fill="none" stroke="black" points="324.2,-405 324.2,-425 475.8,-425 475.8,-405 324.2,-405"/>
<text text-anchor="middle" x="400" y="-411" font-family="Helvetica,sans-Serif" font-size="10.00">RMF::decorator::JournalArticle</text>
</a>
</g>
</g>
<!-- Node36&#45;&gt;Node37 -->
<g id="edge36" class="edge"><title>Node36&#45;&gt;Node37</title>
<path fill="none" stroke="midnightblue" d="M290.298,-415C301.59,-415 313.097,-415 324.194,-415"/>
<polygon fill="midnightblue" stroke="midnightblue" points="290.005,-411.5 280.005,-415 290.005,-418.5 290.005,-411.5"/>
</g>
<!-- Node39 -->
<g id="node39" class="node"><title>Node39</title>
<g id="a_node39"><a xlink:href="classRMF_1_1decorator_1_1Particle.html" target="_top" xlink:title="RMF::decorator::Particle">
<polygon fill="none" stroke="black" points="337.818,-354 337.818,-374 462.182,-374 462.182,-354 337.818,-354"/>
<text text-anchor="middle" x="400" y="-360" font-family="Helvetica,sans-Serif" font-size="10.00">RMF::decorator::Particle</text>
</a>
</g>
</g>
<!-- Node38&#45;&gt;Node39 -->
<g id="edge38" class="edge"><title>Node38&#45;&gt;Node39</title>
<path fill="none" stroke="midnightblue" d="M276.422,-364C296.532,-364 318.221,-364 337.684,-364"/>
<polygon fill="midnightblue" stroke="midnightblue" points="276.383,-360.5 266.383,-364 276.383,-367.5 276.383,-360.5"/>
</g>
<!-- Node41 -->
<g id="node41" class="node"><title>Node41</title>
<g id="a_node41"><a xlink:href="classRMF_1_1decorator_1_1ReferenceFrame.html" target="_top" xlink:title="RMF::decorator::Reference\lFrame">
<polygon fill="none" stroke="black" points="331.421,-297 331.421,-329 468.579,-329 468.579,-297 331.421,-297"/>
<text text-anchor="start" x="339.421" y="-315" font-family="Helvetica,sans-Serif" font-size="10.00">RMF::decorator::Reference</text>
<text text-anchor="middle" x="400" y="-303" font-family="Helvetica,sans-Serif" font-size="10.00">Frame</text>
</a>
</g>
</g>
<!-- Node40&#45;&gt;Node41 -->
<g id="edge40" class="edge"><title>Node40&#45;&gt;Node41</title>
<path fill="none" stroke="midnightblue" d="M282.979,-313C298.99,-313 315.722,-313 331.334,-313"/>
<polygon fill="midnightblue" stroke="midnightblue" points="282.579,-309.5 272.579,-313 282.579,-316.5 282.579,-309.5"/>
</g>
<!-- Node43 -->
<g id="node43" class="node"><title>Node43</title>
<g id="a_node43"><a xlink:href="classRMF_1_1decorator_1_1Representation.html" target="_top" xlink:title="RMF::decorator::Representation">
<polygon fill="none" stroke="black" points="320.579,-252 320.579,-272 479.421,-272 479.421,-252 320.579,-252"/>
<text text-anchor="middle" x="400" y="-258" font-family="Helvetica,sans-Serif" font-size="10.00">RMF::decorator::Representation</text>
</a>
</g>
</g>
<!-- Node42&#45;&gt;Node43 -->
<g id="edge42" class="edge"><title>Node42&#45;&gt;Node43</title>
<path fill="none" stroke="midnightblue" d="M293.696,-262C302.663,-262 311.727,-262 320.576,-262"/>
<polygon fill="midnightblue" stroke="midnightblue" points="293.628,-258.5 283.628,-262 293.628,-265.5 293.628,-258.5"/>
</g>
</g>
</svg>
