<?xml version="1.0" encoding="UTF-8" standalone="no"?>
<!DOCTYPE svg PUBLIC "-//W3C//DTD SVG 1.1//EN"
 "http://www.w3.org/Graphics/SVG/1.1/DTD/svg11.dtd">
<!-- Generated by graphviz version 2.34.0 (20131025.1349)
 -->
<!-- Title: RMF::HDF5::ConstAttributes&lt; Base &gt; Pages: 1 -->
<svg width="1042pt" height="142pt"
 viewBox="0.00 0.00 1042.00 142.00" xmlns="http://www.w3.org/2000/svg" xmlns:xlink="http://www.w3.org/1999/xlink">
<g id="graph0" class="graph" transform="scale(1 1) rotate(0) translate(4 138)">
<title>RMF::HDF5::ConstAttributes&lt; Base &gt;</title>
<!-- Node1 -->
<g id="node1" class="node"><title>Node1</title>
<polygon fill="#bfbfbf" stroke="black" points="0.374512,-65 0.374512,-97 143.625,-97 143.625,-65 0.374512,-65"/>
<text text-anchor="start" x="8.37451" y="-83" font-family="Helvetica,sans-Serif" font-size="10.00">RMF::HDF5::ConstAttributes</text>
<text text-anchor="middle" x="72" y="-71" font-family="Helvetica,sans-Serif" font-size="10.00">&lt; Base &gt;</text>
</g>
<!-- Node2 -->
<g id="node2" class="node"><title>Node2</title>
<g id="a_node2"><a xlink:href="classRMF_1_1HDF5_1_1ConstAttributes.html" target="_top" xlink:title="RMF::HDF5::ConstAttributes\l\&lt; Object \&gt;">
<polygon fill="none" stroke="black" points="230.375,-65 230.375,-97 373.625,-97 373.625,-65 230.375,-65"/>
<text text-anchor="start" x="238.375" y="-83" font-family="Helvetica,sans-Serif" font-size="10.00">RMF::HDF5::ConstAttributes</text>
<text text-anchor="middle" x="302" y="-71" font-family="Helvetica,sans-Serif" font-size="10.00">&lt; Object &gt;</text>
</a>
</g>
</g>
<!-- Node1&#45;&gt;Node2 -->
<g id="edge1" class="edge"><title>Node1&#45;&gt;Node2</title>
<path fill="none" stroke="orange" stroke-dasharray="5,2" d="M154.022,-81C178.881,-81 206.029,-81 230.153,-81"/>
<polygon fill="orange" stroke="orange" points="153.891,-77.5001 143.891,-81 153.891,-84.5001 153.891,-77.5001"/>
<text text-anchor="middle" x="187" y="-83" font-family="Helvetica,sans-Serif" font-size="10.00"> &lt; Object &gt;</text>
</g>
<!-- Node3 -->
<g id="node3" class="node"><title>Node3</title>
<g id="a_node3"><a xlink:href="classRMF_1_1HDF5_1_1ConstDataSetD.html" target="_top" xlink:title="RMF::HDF5::ConstDataSetD\l\&lt; TypeTraits, D \&gt;">
<polygon fill="none" stroke="black" points="411.818,-87 411.818,-119 556.182,-119 556.182,-87 411.818,-87"/>
<text text-anchor="start" x="419.818" y="-105" font-family="Helvetica,sans-Serif" font-size="10.00">RMF::HDF5::ConstDataSetD</text>
<text text-anchor="middle" x="484" y="-93" font-family="Helvetica,sans-Serif" font-size="10.00">&lt; TypeTraits, D &gt;</text>
</a>
</g>
</g>
<!-- Node2&#45;&gt;Node3 -->
<g id="edge2" class="edge"><title>Node2&#45;&gt;Node3</title>
<path fill="none" stroke="midnightblue" d="M383.849,-90.8815C393.098,-92.012 402.478,-93.1584 411.592,-94.2723"/>
<polygon fill="midnightblue" stroke="midnightblue" points="384.233,-87.4025 373.882,-89.6634 383.384,-94.3508 384.233,-87.4025"/>
</g>
<!-- Node6 -->
<g id="node6" class="node"><title>Node6</title>
<g id="a_node6"><a xlink:href="classRMF_1_1HDF5_1_1ConstGroup.html" target="_top" xlink:title="RMF::HDF5::ConstGroup">
<polygon fill="none" stroke="black" points="419.599,-45 419.599,-65 548.401,-65 548.401,-45 419.599,-45"/>
<text text-anchor="middle" x="484" y="-51" font-family="Helvetica,sans-Serif" font-size="10.00">RMF::HDF5::ConstGroup</text>
</a>
</g>
</g>
<!-- Node2&#45;&gt;Node6 -->
<g id="edge5" class="edge"><title>Node2&#45;&gt;Node6</title>
<path fill="none" stroke="midnightblue" d="M383.849,-69.3218C395.797,-67.596 407.963,-65.8387 419.492,-64.1734"/>
<polygon fill="midnightblue" stroke="midnightblue" points="383.279,-65.8677 373.882,-70.7614 384.28,-72.7958 383.279,-65.8677"/>
</g>
<!-- Node4 -->
<g id="node4" class="node"><title>Node4</title>
<g id="a_node4"><a xlink:href="classRMF_1_1HDF5_1_1MutableAttributes.html" target="_top" xlink:title="MutableAttributes\&lt;\l ConstDataSetD\&lt; TypeTraits,\l D \&gt; \&gt;">
<polygon fill="none" stroke="black" points="598.103,-90 598.103,-134 743.897,-134 743.897,-90 598.103,-90"/>
<text text-anchor="start" x="606.103" y="-120" font-family="Helvetica,sans-Serif" font-size="10.00">MutableAttributes&lt;</text>
<text text-anchor="start" x="606.103" y="-108" font-family="Helvetica,sans-Serif" font-size="10.00"> ConstDataSetD&lt; TypeTraits,</text>
<text text-anchor="middle" x="671" y="-96" font-family="Helvetica,sans-Serif" font-size="10.00"> D &gt; &gt;</text>
</a>
</g>
</g>
<!-- Node3&#45;&gt;Node4 -->
<g id="edge3" class="edge"><title>Node3&#45;&gt;Node4</title>
<path fill="none" stroke="midnightblue" d="M566.268,-106.954C576.786,-107.465 587.502,-107.987 597.859,-108.49"/>
<polygon fill="midnightblue" stroke="midnightblue" points="566.419,-103.457 556.261,-106.467 566.079,-110.449 566.419,-103.457"/>
</g>
<!-- Node5 -->
<g id="node5" class="node"><title>Node5</title>
<g id="a_node5"><a xlink:href="classRMF_1_1HDF5_1_1DataSetD.html" target="_top" xlink:title="RMF::HDF5::DataSetD\l\&lt; TypeTraits, D \&gt;">
<polygon fill="none" stroke="black" points="785.879,-96 785.879,-128 904.121,-128 904.121,-96 785.879,-96"/>
<text text-anchor="start" x="793.879" y="-114" font-family="Helvetica,sans-Serif" font-size="10.00">RMF::HDF5::DataSetD</text>
<text text-anchor="middle" x="845" y="-102" font-family="Helvetica,sans-Serif" font-size="10.00">&lt; TypeTraits, D &gt;</text>
</a>
</g>
</g>
<!-- Node4&#45;&gt;Node5 -->
<g id="edge4" class="edge"><title>Node4&#45;&gt;Node5</title>
<path fill="none" stroke="midnightblue" d="M754.114,-112C764.765,-112 775.497,-112 785.652,-112"/>
<polygon fill="midnightblue" stroke="midnightblue" points="753.947,-108.5 743.947,-112 753.947,-115.5 753.947,-108.5"/>
</g>
<!-- Node7 -->
<g id="node7" class="node"><title>Node7</title>
<g id="a_node7"><a xlink:href="classRMF_1_1HDF5_1_1MutableAttributes.html" target="_top" xlink:title="RMF::HDF5::MutableAttributes\l\&lt; ConstGroup \&gt;">
<polygon fill="none" stroke="black" points="594.648,-39 594.648,-71 747.352,-71 747.352,-39 594.648,-39"/>
<text text-anchor="start" x="602.648" y="-57" font-family="Helvetica,sans-Serif" font-size="10.00">RMF::HDF5::MutableAttributes</text>
<text text-anchor="middle" x="671" y="-45" font-family="Helvetica,sans-Serif" font-size="10.00">&lt; ConstGroup &gt;</text>
</a>
</g>
</g>
<!-- Node6&#45;&gt;Node7 -->
<g id="edge6" class="edge"><title>Node6&#45;&gt;Node7</title>
<path fill="none" stroke="midnightblue" d="M558.654,-55C570.462,-55 582.699,-55 594.548,-55"/>
<polygon fill="midnightblue" stroke="midnightblue" points="558.408,-51.5001 548.408,-55 558.408,-58.5001 558.408,-51.5001"/>
</g>
<!-- Node10 -->
<g id="node10" class="node"><title>Node10</title>
<g id="a_node10"><a xlink:href="classRMF_1_1HDF5_1_1ConstFile.html" target="_top" xlink:title="RMF::HDF5::ConstFile">
<polygon fill="none" stroke="black" points="612.438,-0 612.438,-20 729.562,-20 729.562,-0 612.438,-0"/>
<text text-anchor="middle" x="671" y="-6" font-family="Helvetica,sans-Serif" font-size="10.00">RMF::HDF5::ConstFile</text>
</a>
</g>
</g>
<!-- Node6&#45;&gt;Node10 -->
<g id="edge9" class="edge"><title>Node6&#45;&gt;Node10</title>
<path fill="none" stroke="midnightblue" d="M536.491,-42.4752C565.556,-35.4052 601.396,-26.6876 628.621,-20.0652"/>
<polygon fill="midnightblue" stroke="midnightblue" points="535.407,-39.1367 526.518,-44.9011 537.062,-45.9384 535.407,-39.1367"/>
</g>
<!-- Node8 -->
<g id="node8" class="node"><title>Node8</title>
<g id="a_node8"><a xlink:href="classRMF_1_1HDF5_1_1Group.html" target="_top" xlink:title="RMF::HDF5::Group">
<polygon fill="none" stroke="black" points="793.66,-45 793.66,-65 896.34,-65 896.34,-45 793.66,-45"/>
<text text-anchor="middle" x="845" y="-51" font-family="Helvetica,sans-Serif" font-size="10.00">RMF::HDF5::Group</text>
</a>
</g>
</g>
<!-- Node7&#45;&gt;Node8 -->
<g id="edge7" class="edge"><title>Node7&#45;&gt;Node8</title>
<path fill="none" stroke="midnightblue" d="M757.735,-55C770.017,-55 782.306,-55 793.601,-55"/>
<polygon fill="midnightblue" stroke="midnightblue" points="757.442,-51.5001 747.442,-55 757.442,-58.5001 757.442,-51.5001"/>
</g>
<!-- Node9 -->
<g id="node9" class="node"><title>Node9</title>
<g id="a_node9"><a xlink:href="classRMF_1_1HDF5_1_1File.html" target="_top" xlink:title="RMF::HDF5::File">
<polygon fill="none" stroke="black" points="942.5,-45 942.5,-65 1033.5,-65 1033.5,-45 942.5,-45"/>
<text text-anchor="middle" x="988" y="-51" font-family="Helvetica,sans-Serif" font-size="10.00">RMF::HDF5::File</text>
</a>
</g>
</g>
<!-- Node8&#45;&gt;Node9 -->
<g id="edge8" class="edge"><title>Node8&#45;&gt;Node9</title>
<path fill="none" stroke="midnightblue" d="M906.516,-55C918.583,-55 931.047,-55 942.458,-55"/>
<polygon fill="midnightblue" stroke="midnightblue" points="906.506,-51.5001 896.506,-55 906.506,-58.5001 906.506,-51.5001"/>
</g>
</g>
</svg>
