<?xml version="1.0" encoding="UTF-8" standalone="no"?>
<!DOCTYPE svg PUBLIC "-//W3C//DTD SVG 1.1//EN"
 "http://www.w3.org/Graphics/SVG/1.1/DTD/svg11.dtd">
<!-- Generated by graphviz version 2.36.0 (20140111.2315)
 -->
<!-- Title: constants.h Pages: 1 -->
<!--zoomable 270 -->
<svg id="main" version="1.1" xmlns="http://www.w3.org/2000/svg" xmlns:xlink="http://www.w3.org/1999/xlink" xml:space="preserve" onload="init(evt)">
<style type="text/css"><![CDATA[
.edge:hover path { stroke: red; }
.edge:hover polygon { stroke: red; fill: red; }
]]></style>
<script type="text/javascript"><![CDATA[
var edges = document.getElementsByTagName('g');
if (edges && edges.length) {
  for (var i=0;i<edges.length;i++) {
    if (edges[i].id.substr(0,4)=='edge') {
      edges[i].setAttribute('class','edge');
    }
  }
}
]]></script>
        <defs>
                <circle id="rim" cx="0" cy="0" r="7"/>
                <circle id="rim2" cx="0" cy="0" r="3.5"/>
                <g id="zoomPlus">
                        <use xlink:href="#rim" fill="#404040">
                                <set attributeName="fill" to="#808080" begin="zoomplus.mouseover" end="zoomplus.mouseout"/>
                        </use>
                        <path d="M-4,0h8M0,-4v8" fill="none" stroke="white" stroke-width="1.5" pointer-events="none"/>
                </g>
                <g id="zoomMin">
                        <use xlink:href="#rim" fill="#404040">
                                <set attributeName="fill" to="#808080" begin="zoomminus.mouseover" end="zoomminus.mouseout"/>
                        </use>
                        <path d="M-4,0h8" fill="none" stroke="white" stroke-width="1.5" pointer-events="none"/>
                </g>
                <g id="dirArrow">
                        <path fill="none" stroke="white" stroke-width="1.5" d="M0,-3.0v7 M-2.5,-0.5L0,-3.0L2.5,-0.5"/>
                </g>
               <g id="resetDef">
                       <use xlink:href="#rim2" fill="#404040">
                               <set attributeName="fill" to="#808080" begin="reset.mouseover" end="reset.mouseout"/>
                       </use>
               </g>
        </defs>

<script type="text/javascript">
var viewWidth = 1145;
var viewHeight = 270;
var sectionId = 'dynsection-0';
</script>
<script xlink:href="svgpan.js"/>
<svg id="graph" class="graph">
<g id="viewport">
<title>constants.h</title>
<!-- Node1 -->
<g id="node1" class="node"><title>Node1</title>
<polygon fill="#bfbfbf" stroke="black" points="992.429,-243 992.429,-261 1059.57,-261 1059.57,-243 992.429,-243"/>
<text text-anchor="middle" x="1026" y="-249" font-family="Helvetica,sans-Serif" font-size="10.00">constants.h</text>
</g>
<!-- Node2 -->
<g id="node2" class="node"><title>Node2</title>
<g id="a_node2"><a xlink:href="config_8h_source.html" target="_top" xlink:title="RMF/config.h">
<polygon fill="none" stroke="black" points="1061.27,-66 1061.27,-84 1136.73,-84 1136.73,-66 1061.27,-66"/>
<text text-anchor="middle" x="1099" y="-72" font-family="Helvetica,sans-Serif" font-size="10.00">RMF/config.h</text>
</a>
</g>
</g>
<!-- Node1&#45;&gt;Node2 -->
<g id="edge1" class="edge"><title>Node1&#45;&gt;Node2</title>
<path fill="none" stroke="midnightblue" d="M1029.52,-242.559C1040.77,-215.59 1076.02,-131.096 1091.54,-93.8907"/>
<polygon fill="midnightblue" stroke="midnightblue" points="1094.89,-94.9326 1095.51,-84.3559 1088.43,-92.2377 1094.89,-94.9326"/>
</g>
<!-- Node4 -->
<g id="node4" class="node"><title>Node4</title>
<g id="a_node4"><a xlink:href="ID_8h.html" target="_top" xlink:title="Declaration of RMF::ID. ">
<polygon fill="none" stroke="black" points="949.83,-187 949.83,-205 984.17,-205 984.17,-187 949.83,-187"/>
<text text-anchor="middle" x="967" y="-193" font-family="Helvetica,sans-Serif" font-size="10.00">ID.h</text>
</a>
</g>
</g>
<!-- Node1&#45;&gt;Node4 -->
<g id="edge3" class="edge"><title>Node1&#45;&gt;Node4</title>
<path fill="none" stroke="midnightblue" d="M1017.04,-242.799C1008.2,-234.711 994.484,-222.155 983.645,-212.234"/>
<polygon fill="midnightblue" stroke="midnightblue" points="985.785,-209.448 976.045,-205.279 981.059,-214.612 985.785,-209.448"/>
</g>
<!-- Node3 -->
<g id="node3" class="node"><title>Node3</title>
<g id="a_node3"><a xlink:href="compiler__macros_8h.html" target="_top" xlink:title="Various compiler workarounds. ">
<polygon fill="none" stroke="black" points="652.544,-1 652.544,-19 777.456,-19 777.456,-1 652.544,-1"/>
<text text-anchor="middle" x="715" y="-7" font-family="Helvetica,sans-Serif" font-size="10.00">RMF/compiler_macros.h</text>
</a>
</g>
</g>
<!-- Node2&#45;&gt;Node3 -->
<g id="edge2" class="edge"><title>Node2&#45;&gt;Node3</title>
<path fill="none" stroke="midnightblue" d="M1081.02,-65.9813C1072.39,-62.4304 1061.82,-58.5002 1052,-56 962.633,-33.2525 856.832,-21.5099 787.94,-15.8121"/>
<polygon fill="midnightblue" stroke="midnightblue" points="787.878,-12.2959 777.629,-14.9818 787.316,-19.2733 787.878,-12.2959"/>
</g>
<!-- Node4&#45;&gt;Node2 -->
<g id="edge4" class="edge"><title>Node4&#45;&gt;Node2</title>
<path fill="none" stroke="midnightblue" d="M967.307,-186.815C968.223,-173.424 971.834,-146.659 986,-130 991.936,-123.02 1039.05,-101.82 1070.54,-88.1525"/>
<polygon fill="midnightblue" stroke="midnightblue" points="1071.95,-91.3541 1079.74,-84.1768 1069.17,-84.9275 1071.95,-91.3541"/>
</g>
<!-- Node5 -->
<g id="node5" class="node"><title>Node5</title>
<g id="a_node5"><a xlink:href="infrastructure__macros_8h.html" target="_top" xlink:title="Various general useful macros for IMP. ">
<polygon fill="none" stroke="black" points="405.48,-131 405.48,-149 526.52,-149 526.52,-131 405.48,-131"/>
<text text-anchor="middle" x="466" y="-137" font-family="Helvetica,sans-Serif" font-size="10.00">infrastructure_macros.h</text>
</a>
</g>
</g>
<!-- Node4&#45;&gt;Node5 -->
<g id="edge5" class="edge"><title>Node4&#45;&gt;Node5</title>
<path fill="none" stroke="midnightblue" d="M949.754,-193.141C885.136,-186.176 655.04,-161.376 536.989,-148.652"/>
<polygon fill="midnightblue" stroke="midnightblue" points="537.277,-145.162 526.96,-147.571 536.527,-152.122 537.277,-145.162"/>
</g>
<!-- Node14 -->
<g id="node14" class="node"><title>Node14</title>
<g id="a_node14"><a xlink:href="exceptions_8h.html" target="_top" xlink:title="Declarations of the various exception types. ">
<polygon fill="none" stroke="black" points="854.926,-131 854.926,-149 927.074,-149 927.074,-131 854.926,-131"/>
<text text-anchor="middle" x="891" y="-137" font-family="Helvetica,sans-Serif" font-size="10.00">exceptions.h</text>
</a>
</g>
</g>
<!-- Node4&#45;&gt;Node14 -->
<g id="edge15" class="edge"><title>Node4&#45;&gt;Node14</title>
<path fill="none" stroke="midnightblue" d="M955.457,-186.799C943.628,-178.393 925.008,-165.163 910.815,-155.079"/>
<polygon fill="midnightblue" stroke="midnightblue" points="912.83,-152.218 902.651,-149.279 908.776,-157.924 912.83,-152.218"/>
</g>
<!-- Node18 -->
<g id="node18" class="node"><title>Node18</title>
<polygon fill="none" stroke="#bfbfbf" points="994.613,-131 994.613,-149 1033.39,-149 1033.39,-131 994.613,-131"/>
<text text-anchor="middle" x="1014" y="-137" font-family="Helvetica,sans-Serif" font-size="10.00">limits</text>
</g>
<!-- Node4&#45;&gt;Node18 -->
<g id="edge22" class="edge"><title>Node4&#45;&gt;Node18</title>
<path fill="none" stroke="midnightblue" d="M974.344,-186.562C981.213,-178.67 991.652,-166.677 1000.1,-156.976"/>
<polygon fill="midnightblue" stroke="midnightblue" points="1002.94,-159.042 1006.86,-149.201 997.656,-154.447 1002.94,-159.042"/>
</g>
<!-- Node5&#45;&gt;Node3 -->
<g id="edge9" class="edge"><title>Node5&#45;&gt;Node3</title>
<path fill="none" stroke="midnightblue" d="M504.071,-130.928C531.786,-123.942 569.479,-112.073 599,-94 619.64,-81.3643 618.744,-70.6585 638,-56 654.222,-43.6513 674.127,-32.1008 689.635,-23.7943"/>
<polygon fill="midnightblue" stroke="midnightblue" points="691.422,-26.8094 698.65,-19.0634 688.169,-20.611 691.422,-26.8094"/>
</g>
<!-- Node6 -->
<g id="node6" class="node"><title>Node6</title>
<polygon fill="none" stroke="#bfbfbf" points="333.219,-66 333.219,-84 384.781,-84 384.781,-66 333.219,-66"/>
<text text-anchor="middle" x="359" y="-72" font-family="Helvetica,sans-Serif" font-size="10.00">sstream</text>
</g>
<!-- Node5&#45;&gt;Node6 -->
<g id="edge6" class="edge"><title>Node5&#45;&gt;Node6</title>
<path fill="none" stroke="midnightblue" d="M452.012,-130.764C434.05,-120.188 402.663,-101.708 381.368,-89.17"/>
<polygon fill="midnightblue" stroke="midnightblue" points="383.047,-86.0967 372.654,-84.039 379.495,-92.1288 383.047,-86.0967"/>
</g>
<!-- Node7 -->
<g id="node7" class="node"><title>Node7</title>
<polygon fill="none" stroke="#bfbfbf" points="402.828,-66 402.828,-84 457.172,-84 457.172,-66 402.828,-66"/>
<text text-anchor="middle" x="430" y="-72" font-family="Helvetica,sans-Serif" font-size="10.00">iostream</text>
</g>
<!-- Node5&#45;&gt;Node7 -->
<g id="edge7" class="edge"><title>Node5&#45;&gt;Node7</title>
<path fill="none" stroke="midnightblue" d="M461.294,-130.764C455.82,-121.184 446.639,-105.119 439.634,-92.8587"/>
<polygon fill="midnightblue" stroke="midnightblue" points="442.594,-90.9849 434.594,-84.039 436.516,-94.4579 442.594,-90.9849"/>
</g>
<!-- Node8 -->
<g id="node8" class="node"><title>Node8</title>
<polygon fill="none" stroke="#bfbfbf" points="646.773,-66 646.773,-84 687.227,-84 687.227,-66 646.773,-66"/>
<text text-anchor="middle" x="667" y="-72" font-family="Helvetica,sans-Serif" font-size="10.00">string</text>
</g>
<!-- Node5&#45;&gt;Node8 -->
<g id="edge8" class="edge"><title>Node5&#45;&gt;Node8</title>
<path fill="none" stroke="midnightblue" d="M505.603,-130.957C539.955,-123.365 590.671,-110.664 633,-94 636.806,-92.5014 640.738,-90.6895 644.516,-88.8001"/>
<polygon fill="midnightblue" stroke="midnightblue" points="646.236,-91.85 653.436,-84.0776 642.961,-85.6635 646.236,-91.85"/>
</g>
<!-- Node9 -->
<g id="node9" class="node"><title>Node9</title>
<polygon fill="none" stroke="black" points="475,-57 475,-93 529,-93 529,-57 475,-57"/>
<text text-anchor="middle" x="501.734" y="-72" font-family="Helvetica,sans-Serif" font-size="10.00">Node9</text>
</g>
<!-- Node5&#45;&gt;Node9 -->
<g id="edge10" class="edge"><title>Node5&#45;&gt;Node9</title>
<path fill="none" stroke="midnightblue" d="M470.706,-130.764C474.922,-123.386 481.336,-112.161 487.263,-101.791"/>
<polygon fill="midnightblue" stroke="midnightblue" points="490.355,-103.434 492.277,-93.015 484.277,-99.9609 490.355,-103.434"/>
</g>
<!-- Node10 -->
<g id="node10" class="node"><title>Node10</title>
<polygon fill="none" stroke="#bfbfbf" points="547.384,-66 547.384,-84 590.616,-84 590.616,-66 547.384,-66"/>
<text text-anchor="middle" x="569" y="-72" font-family="Helvetica,sans-Serif" font-size="10.00">vector</text>
</g>
<!-- Node5&#45;&gt;Node10 -->
<g id="edge11" class="edge"><title>Node5&#45;&gt;Node10</title>
<path fill="none" stroke="midnightblue" d="M479.465,-130.764C496.678,-120.236 526.698,-101.874 547.192,-89.3391"/>
<polygon fill="midnightblue" stroke="midnightblue" points="549.152,-92.2427 555.857,-84.039 545.5,-86.2711 549.152,-92.2427"/>
</g>
<!-- Node11 -->
<g id="node11" class="node"><title>Node11</title>
<polygon fill="none" stroke="#bfbfbf" points="-0.694336,-66 -0.694336,-84 88.6943,-84 88.6943,-66 -0.694336,-66"/>
<text text-anchor="middle" x="44" y="-72" font-family="Helvetica,sans-Serif" font-size="10.00">boost/config.hpp</text>
</g>
<!-- Node5&#45;&gt;Node11 -->
<g id="edge12" class="edge"><title>Node5&#45;&gt;Node11</title>
<path fill="none" stroke="midnightblue" d="M405.451,-135.323C331.997,-130.011 204.742,-118.062 98,-94 90.2246,-92.2473 81.9883,-89.8122 74.3535,-87.2987"/>
<polygon fill="midnightblue" stroke="midnightblue" points="75.3471,-83.9394 64.7525,-84.0002 73.0727,-90.5596 75.3471,-83.9394"/>
</g>
<!-- Node12 -->
<g id="node12" class="node"><title>Node12</title>
<polygon fill="none" stroke="#bfbfbf" points="106.53,-66 106.53,-84 201.47,-84 201.47,-66 106.53,-66"/>
<text text-anchor="middle" x="154" y="-72" font-family="Helvetica,sans-Serif" font-size="10.00">boost/version.hpp</text>
</g>
<!-- Node5&#45;&gt;Node12 -->
<g id="edge13" class="edge"><title>Node5&#45;&gt;Node12</title>
<path fill="none" stroke="midnightblue" d="M407.059,-130.984C354.862,-123.331 276.803,-110.525 210,-94 202.28,-92.0903 194.075,-89.6768 186.394,-87.2427"/>
<polygon fill="midnightblue" stroke="midnightblue" points="187.276,-83.849 176.684,-84.0717 185.103,-90.5031 187.276,-83.849"/>
</g>
<!-- Node13 -->
<g id="node13" class="node"><title>Node13</title>
<polygon fill="none" stroke="#bfbfbf" points="218.971,-66 218.971,-84 315.029,-84 315.029,-66 218.971,-66"/>
<text text-anchor="middle" x="267" y="-72" font-family="Helvetica,sans-Serif" font-size="10.00">boost/foreach.hpp</text>
</g>
<!-- Node5&#45;&gt;Node13 -->
<g id="edge14" class="edge"><title>Node5&#45;&gt;Node13</title>
<path fill="none" stroke="midnightblue" d="M440.392,-130.893C405.241,-119.765 341.904,-99.7133 302.283,-87.1701"/>
<polygon fill="midnightblue" stroke="midnightblue" points="303.1,-83.7575 292.51,-84.0761 300.987,-90.4311 303.1,-83.7575"/>
</g>
<!-- Node14&#45;&gt;Node2 -->
<g id="edge19" class="edge"><title>Node14&#45;&gt;Node2</title>
<path fill="none" stroke="midnightblue" d="M923.034,-130.987C955.717,-122.593 1007.77,-108.615 1052,-94 1057.74,-92.1032 1063.81,-89.9169 1069.61,-87.7362"/>
<polygon fill="midnightblue" stroke="midnightblue" points="1070.94,-90.9758 1079.02,-84.1234 1068.43,-84.441 1070.94,-90.9758"/>
</g>
<!-- Node14&#45;&gt;Node3 -->
<g id="edge20" class="edge"><title>Node14&#45;&gt;Node3</title>
<path fill="none" stroke="midnightblue" d="M854.821,-138.678C819.063,-136.338 765.298,-127.038 734,-94 717.499,-76.5812 714.284,-47.8847 714.142,-29.2138"/>
<polygon fill="midnightblue" stroke="midnightblue" points="717.644,-29.147 714.358,-19.0745 710.645,-28.9974 717.644,-29.147"/>
</g>
<!-- Node14&#45;&gt;Node8 -->
<g id="edge18" class="edge"><title>Node14&#45;&gt;Node8</title>
<path fill="none" stroke="midnightblue" d="M854.827,-133.262C815.99,-126.455 752.877,-113.51 701,-94 697.171,-92.5599 693.228,-90.7786 689.445,-88.9017"/>
<polygon fill="midnightblue" stroke="midnightblue" points="691,-85.7651 680.525,-84.1792 687.725,-91.9515 691,-85.7651"/>
</g>
<!-- Node15 -->
<g id="node15" class="node"><title>Node15</title>
<polygon fill="none" stroke="#bfbfbf" points="815.451,-66 815.451,-84 966.549,-84 966.549,-66 815.451,-66"/>
<text text-anchor="middle" x="891" y="-72" font-family="Helvetica,sans-Serif" font-size="10.00">boost/exception/exception.hpp</text>
</g>
<!-- Node14&#45;&gt;Node15 -->
<g id="edge16" class="edge"><title>Node14&#45;&gt;Node15</title>
<path fill="none" stroke="midnightblue" d="M891,-130.764C891,-121.564 891,-106.381 891,-94.3326"/>
<polygon fill="midnightblue" stroke="midnightblue" points="894.5,-94.0389 891,-84.039 887.5,-94.039 894.5,-94.0389"/>
</g>
<!-- Node16 -->
<g id="node16" class="node"><title>Node16</title>
<polygon fill="none" stroke="#bfbfbf" points="984.596,-66 984.596,-84 1043.4,-84 1043.4,-66 984.596,-66"/>
<text text-anchor="middle" x="1014" y="-72" font-family="Helvetica,sans-Serif" font-size="10.00">exception</text>
</g>
<!-- Node14&#45;&gt;Node16 -->
<g id="edge17" class="edge"><title>Node14&#45;&gt;Node16</title>
<path fill="none" stroke="midnightblue" d="M906.828,-130.893C927.678,-120.214 964.573,-101.316 989.159,-88.7237"/>
<polygon fill="midnightblue" stroke="midnightblue" points="990.928,-91.75 998.232,-84.0761 987.736,-85.5197 990.928,-91.75"/>
</g>
<!-- Node17 -->
<g id="node17" class="node"><title>Node17</title>
<polygon fill="none" stroke="black" points="743,-57 743,-93 797,-93 797,-57 743,-57"/>
<text text-anchor="middle" x="769.515" y="-72" font-family="Helvetica,sans-Serif" font-size="10.00">Node17</text>
</g>
<!-- Node14&#45;&gt;Node17 -->
<g id="edge21" class="edge"><title>Node14&#45;&gt;Node17</title>
<path fill="none" stroke="midnightblue" d="M875.181,-130.764C857.84,-121.735 829.434,-106.945 806.51,-95.0094"/>
<polygon fill="midnightblue" stroke="midnightblue" points="807.877,-91.775 797.391,-90.2612 804.644,-97.9838 807.877,-91.775"/>
</g>
</g>
</svg>
        <g id="navigator" transform="translate(0 0)" fill="#404254">
                <rect fill="#f2f5e9" fill-opacity="0.5" stroke="#606060" stroke-width=".5" x="0" y="0" width="60" height="60"/>
                <use id="zoomplus" xlink:href="#zoomPlus" x="17" y="9" onmousedown="handleZoom(evt,'in')"/>
                <use id="zoomminus" xlink:href="#zoomMin" x="42" y="9" onmousedown="handleZoom(evt,'out')"/>
                <use id="reset" xlink:href="#resetDef" x="30" y="36" onmousedown="handleReset()"/>
                <g id="arrowUp" xlink:href="#dirArrow" transform="translate(30 24)" onmousedown="handlePan(0,-1)">
                  <use xlink:href="#rim" fill="#404040">
                        <set attributeName="fill" to="#808080" begin="arrowUp.mouseover" end="arrowUp.mouseout"/>
                  </use>
                  <path fill="none" stroke="white" stroke-width="1.5" d="M0,-3.0v7 M-2.5,-0.5L0,-3.0L2.5,-0.5"/>
                </g>
                <g id="arrowRight" xlink:href="#dirArrow" transform="rotate(90) translate(36 -43)" onmousedown="handlePan(1,0)">
                  <use xlink:href="#rim" fill="#404040">
                        <set attributeName="fill" to="#808080" begin="arrowRight.mouseover" end="arrowRight.mouseout"/>
                  </use>
                  <path fill="none" stroke="white" stroke-width="1.5" d="M0,-3.0v7 M-2.5,-0.5L0,-3.0L2.5,-0.5"/>
                </g>
                <g id="arrowDown" xlink:href="#dirArrow" transform="rotate(180) translate(-30 -48)" onmousedown="handlePan(0,1)">
                  <use xlink:href="#rim" fill="#404040">
                        <set attributeName="fill" to="#808080" begin="arrowDown.mouseover" end="arrowDown.mouseout"/>
                  </use>
                  <path fill="none" stroke="white" stroke-width="1.5" d="M0,-3.0v7 M-2.5,-0.5L0,-3.0L2.5,-0.5"/>
                </g>
                <g id="arrowLeft" xlink:href="#dirArrow" transform="rotate(270) translate(-36 17)" onmousedown="handlePan(-1,0)">
                  <use xlink:href="#rim" fill="#404040">
                        <set attributeName="fill" to="#808080" begin="arrowLeft.mouseover" end="arrowLeft.mouseout"/>
                  </use>
                  <path fill="none" stroke="white" stroke-width="1.5" d="M0,-3.0v7 M-2.5,-0.5L0,-3.0L2.5,-0.5"/>
                </g>
        </g>
        <svg viewBox="0 0 15 15" width="100%" height="30px" preserveAspectRatio="xMaxYMin meet">
         <g id="arrow_out" transform="scale(0.3 0.3)">
          <a xlink:href="constants_8h__incl_org.svg" target="_base">
           <rect id="button" ry="5" rx="5" y="6" x="6" height="38" width="38"
                fill="#f2f5e9" fill-opacity="0.5" stroke="#606060" stroke-width="1.0"/>
           <path id="arrow"
             d="M 11.500037,31.436501 C 11.940474,20.09759 22.043105,11.32322 32.158766,21.979434 L 37.068811,17.246167 C 37.068811,17.246167 37.088388,32 37.088388,32 L 22.160133,31.978069 C 22.160133,31.978069 26.997745,27.140456 26.997745,27.140456 C 18.528582,18.264221 13.291696,25.230495 11.500037,31.436501 z"
             style="fill:#404040;"/>
          </a>
         </g>
        </svg>
</svg>
