<?xml version="1.0" encoding="UTF-8" standalone="no"?>
<!DOCTYPE svg PUBLIC "-//W3C//DTD SVG 1.1//EN"
 "http://www.w3.org/Graphics/SVG/1.1/DTD/svg11.dtd">
<!-- Generated by graphviz version 2.34.0 (20131025.1349)
 -->
<!-- Title: constants.h Pages: 1 -->
<svg width="1223pt" height="262pt"
 viewBox="0.00 0.00 1223.00 262.00" xmlns="http://www.w3.org/2000/svg" xmlns:xlink="http://www.w3.org/1999/xlink">
<g id="graph0" class="graph" transform="scale(1 1) rotate(0) translate(4 258)">
<title>constants.h</title>
<!-- Node1 -->
<g id="node1" class="node"><title>Node1</title>
<polygon fill="#bfbfbf" stroke="black" points="1070.43,-233 1070.43,-253 1137.57,-253 1137.57,-233 1070.43,-233"/>
<text text-anchor="middle" x="1104" y="-239" font-family="Helvetica,sans-Serif" font-size="10.00">constants.h</text>
</g>
<!-- Node2 -->
<g id="node2" class="node"><title>Node2</title>
<g id="a_node2"><a xlink:href="config_8h_source.html" target="_top" xlink:title="RMF/config.h">
<polygon fill="none" stroke="black" points="1139.27,-59 1139.27,-79 1214.73,-79 1214.73,-59 1139.27,-59"/>
<text text-anchor="middle" x="1177" y="-65" font-family="Helvetica,sans-Serif" font-size="10.00">RMF/config.h</text>
</a>
</g>
</g>
<!-- Node1&#45;&gt;Node2 -->
<g id="edge1" class="edge"><title>Node1&#45;&gt;Node2</title>
<path fill="none" stroke="midnightblue" d="M1107.92,-232.753C1119.46,-205.571 1153.43,-125.538 1169.02,-88.8111"/>
<polygon fill="midnightblue" stroke="midnightblue" points="1172.37,-89.8659 1173.06,-79.2932 1165.93,-87.131 1172.37,-89.8659"/>
</g>
<!-- Node4 -->
<g id="node4" class="node"><title>Node4</title>
<g id="a_node4"><a xlink:href="ID_8h.html" target="_top" xlink:title="Declaration of RMF::ID. ">
<polygon fill="none" stroke="black" points="1027.83,-175 1027.83,-195 1062.17,-195 1062.17,-175 1027.83,-175"/>
<text text-anchor="middle" x="1045" y="-181" font-family="Helvetica,sans-Serif" font-size="10.00">ID.h</text>
</a>
</g>
</g>
<!-- Node1&#45;&gt;Node4 -->
<g id="edge3" class="edge"><title>Node1&#45;&gt;Node4</title>
<path fill="none" stroke="midnightblue" d="M1094.26,-232.753C1085.49,-224.435 1072.43,-212.031 1061.95,-202.089"/>
<polygon fill="midnightblue" stroke="midnightblue" points="1064.22,-199.421 1054.56,-195.075 1059.4,-204.498 1064.22,-199.421"/>
</g>
<!-- Node3 -->
<g id="node3" class="node"><title>Node3</title>
<g id="a_node3"><a xlink:href="compiler__macros_8h.html" target="_top" xlink:title="Various compiler workarounds. ">
<polygon fill="none" stroke="black" points="674.544,-1 674.544,-21 799.456,-21 799.456,-1 674.544,-1"/>
<text text-anchor="middle" x="737" y="-7" font-family="Helvetica,sans-Serif" font-size="10.00">RMF/compiler_macros.h</text>
</a>
</g>
</g>
<!-- Node2&#45;&gt;Node3 -->
<g id="edge2" class="edge"><title>Node2&#45;&gt;Node3</title>
<path fill="none" stroke="midnightblue" d="M1139.09,-59.618C1136.02,-59.0358 1132.96,-58.4876 1130,-58 1018.91,-39.721 888.985,-25.993 809.873,-18.4807"/>
<polygon fill="midnightblue" stroke="midnightblue" points="809.815,-14.9598 799.531,-17.5066 809.159,-21.929 809.815,-14.9598"/>
</g>
<!-- Node4&#45;&gt;Node2 -->
<g id="edge4" class="edge"><title>Node4&#45;&gt;Node2</title>
<path fill="none" stroke="midnightblue" d="M1045.1,-174.883C1045.74,-160.597 1048.99,-132.832 1064,-116 1074.15,-104.617 1108.65,-91.4832 1136.88,-82.1709"/>
<polygon fill="midnightblue" stroke="midnightblue" points="1138.11,-85.45 1146.55,-79.0455 1135.96,-78.7889 1138.11,-85.45"/>
</g>
<!-- Node5 -->
<g id="node5" class="node"><title>Node5</title>
<g id="a_node5"><a xlink:href="infrastructure__macros_8h.html" target="_top" xlink:title="Various general useful macros for IMP. ">
<polygon fill="none" stroke="black" points="411.48,-117 411.48,-137 532.52,-137 532.52,-117 411.48,-117"/>
<text text-anchor="middle" x="472" y="-123" font-family="Helvetica,sans-Serif" font-size="10.00">infrastructure_macros.h</text>
</a>
</g>
</g>
<!-- Node4&#45;&gt;Node5 -->
<g id="edge5" class="edge"><title>Node4&#45;&gt;Node5</title>
<path fill="none" stroke="midnightblue" d="M1027.54,-182.293C955.06,-175.21 675.526,-147.891 542.774,-134.917"/>
<polygon fill="midnightblue" stroke="midnightblue" points="542.997,-131.422 532.704,-133.933 542.316,-138.389 542.997,-131.422"/>
</g>
<!-- Node14 -->
<g id="node14" class="node"><title>Node14</title>
<g id="a_node14"><a xlink:href="exceptions_8h.html" target="_top" xlink:title="Declarations of the various exception types. ">
<polygon fill="none" stroke="black" points="932.926,-117 932.926,-137 1005.07,-137 1005.07,-117 932.926,-117"/>
<text text-anchor="middle" x="969" y="-123" font-family="Helvetica,sans-Serif" font-size="10.00">exceptions.h</text>
</a>
</g>
</g>
<!-- Node4&#45;&gt;Node14 -->
<g id="edge15" class="edge"><title>Node4&#45;&gt;Node14</title>
<path fill="none" stroke="midnightblue" d="M1032.45,-174.753C1020.83,-166.19 1003.33,-153.298 989.654,-143.219"/>
<polygon fill="midnightblue" stroke="midnightblue" points="991.443,-140.19 981.316,-137.075 987.291,-145.825 991.443,-140.19"/>
</g>
<!-- Node18 -->
<g id="node18" class="node"><title>Node18</title>
<polygon fill="none" stroke="#bfbfbf" points="1072.61,-117 1072.61,-137 1111.39,-137 1111.39,-117 1072.61,-117"/>
<text text-anchor="middle" x="1092" y="-123" font-family="Helvetica,sans-Serif" font-size="10.00">limits</text>
</g>
<!-- Node4&#45;&gt;Node18 -->
<g id="edge22" class="edge"><title>Node4&#45;&gt;Node18</title>
<path fill="none" stroke="midnightblue" d="M1052.76,-174.753C1059.54,-166.68 1069.54,-154.757 1077.76,-144.973"/>
<polygon fill="midnightblue" stroke="midnightblue" points="1080.64,-146.985 1084.38,-137.075 1075.27,-142.485 1080.64,-146.985"/>
</g>
<!-- Node5&#45;&gt;Node3 -->
<g id="edge9" class="edge"><title>Node5&#45;&gt;Node3</title>
<path fill="none" stroke="midnightblue" d="M509.602,-116.969C540.26,-109 584.331,-96.1486 621,-80 625.764,-77.902 680.216,-45.7083 712.794,-26.3812"/>
<polygon fill="midnightblue" stroke="midnightblue" points="714.92,-29.1892 721.733,-21.0752 711.348,-23.1697 714.92,-29.1892"/>
</g>
<!-- Node6 -->
<g id="node6" class="node"><title>Node6</title>
<polygon fill="none" stroke="#bfbfbf" points="333.219,-59 333.219,-79 384.781,-79 384.781,-59 333.219,-59"/>
<text text-anchor="middle" x="359" y="-65" font-family="Helvetica,sans-Serif" font-size="10.00">sstream</text>
</g>
<!-- Node5&#45;&gt;Node6 -->
<g id="edge6" class="edge"><title>Node5&#45;&gt;Node6</title>
<path fill="none" stroke="midnightblue" d="M453.593,-116.878C435.371,-107.847 407.253,-93.9132 386.405,-83.5812"/>
<polygon fill="midnightblue" stroke="midnightblue" points="387.913,-80.4225 377.399,-79.1181 384.805,-86.6946 387.913,-80.4225"/>
</g>
<!-- Node7 -->
<g id="node7" class="node"><title>Node7</title>
<polygon fill="none" stroke="#bfbfbf" points="402.828,-59 402.828,-79 457.172,-79 457.172,-59 402.828,-59"/>
<text text-anchor="middle" x="430" y="-65" font-family="Helvetica,sans-Serif" font-size="10.00">iostream</text>
</g>
<!-- Node5&#45;&gt;Node7 -->
<g id="edge7" class="edge"><title>Node5&#45;&gt;Node7</title>
<path fill="none" stroke="midnightblue" d="M465.065,-116.753C459.071,-108.761 450.248,-96.9975 442.952,-87.2698"/>
<polygon fill="midnightblue" stroke="midnightblue" points="445.606,-84.9752 436.806,-79.0752 440.006,-89.1752 445.606,-84.9752"/>
</g>
<!-- Node8 -->
<g id="node8" class="node"><title>Node8</title>
<polygon fill="none" stroke="#bfbfbf" points="668.773,-59 668.773,-79 709.227,-79 709.227,-59 668.773,-59"/>
<text text-anchor="middle" x="689" y="-65" font-family="Helvetica,sans-Serif" font-size="10.00">string</text>
</g>
<!-- Node5&#45;&gt;Node8 -->
<g id="edge8" class="edge"><title>Node5&#45;&gt;Node8</title>
<path fill="none" stroke="midnightblue" d="M509.967,-116.923C547.059,-107.946 605.063,-93.6141 655,-80 656.235,-79.6632 657.495,-79.315 658.766,-78.9596"/>
<polygon fill="midnightblue" stroke="midnightblue" points="659.891,-82.2782 668.541,-76.1605 657.964,-75.5486 659.891,-82.2782"/>
</g>
<!-- Node9 -->
<g id="node9" class="node"><title>Node9</title>
<polygon fill="none" stroke="#bfbfbf" points="474.98,-59 474.98,-79 551.02,-79 551.02,-59 474.98,-59"/>
<text text-anchor="middle" x="513" y="-65" font-family="Helvetica,sans-Serif" font-size="10.00">internal/use.h</text>
</g>
<!-- Node5&#45;&gt;Node9 -->
<g id="edge10" class="edge"><title>Node5&#45;&gt;Node9</title>
<path fill="none" stroke="midnightblue" d="M478.77,-116.753C484.621,-108.761 493.234,-96.9975 500.356,-87.2698"/>
<polygon fill="midnightblue" stroke="midnightblue" points="503.272,-89.2114 506.356,-79.0752 497.624,-85.0762 503.272,-89.2114"/>
</g>
<!-- Node10 -->
<g id="node10" class="node"><title>Node10</title>
<polygon fill="none" stroke="#bfbfbf" points="569.384,-59 569.384,-79 612.616,-79 612.616,-59 569.384,-59"/>
<text text-anchor="middle" x="591" y="-65" font-family="Helvetica,sans-Serif" font-size="10.00">vector</text>
</g>
<!-- Node5&#45;&gt;Node10 -->
<g id="edge11" class="edge"><title>Node5&#45;&gt;Node10</title>
<path fill="none" stroke="midnightblue" d="M491.384,-116.878C510.661,-107.807 540.451,-93.7876 562.436,-83.4418"/>
<polygon fill="midnightblue" stroke="midnightblue" points="564.066,-86.543 571.624,-79.1181 561.086,-80.2093 564.066,-86.543"/>
</g>
<!-- Node11 -->
<g id="node11" class="node"><title>Node11</title>
<polygon fill="none" stroke="#bfbfbf" points="-0.694336,-59 -0.694336,-79 88.6943,-79 88.6943,-59 -0.694336,-59"/>
<text text-anchor="middle" x="44" y="-65" font-family="Helvetica,sans-Serif" font-size="10.00">boost/config.hpp</text>
</g>
<!-- Node5&#45;&gt;Node11 -->
<g id="edge12" class="edge"><title>Node5&#45;&gt;Node11</title>
<path fill="none" stroke="midnightblue" d="M411.277,-119.678C339.256,-111.923 215.347,-97.7764 98.9136,-80.062"/>
<polygon fill="midnightblue" stroke="midnightblue" points="99.1685,-76.5602 88.7535,-78.5041 98.1075,-83.4794 99.1685,-76.5602"/>
</g>
<!-- Node12 -->
<g id="node12" class="node"><title>Node12</title>
<polygon fill="none" stroke="#bfbfbf" points="106.53,-59 106.53,-79 201.47,-79 201.47,-59 106.53,-59"/>
<text text-anchor="middle" x="154" y="-65" font-family="Helvetica,sans-Serif" font-size="10.00">boost/version.hpp</text>
</g>
<!-- Node5&#45;&gt;Node12 -->
<g id="edge13" class="edge"><title>Node5&#45;&gt;Node12</title>
<path fill="none" stroke="midnightblue" d="M420.292,-116.967C369.607,-108.103 289.861,-94.1285 211.678,-80.2939"/>
<polygon fill="midnightblue" stroke="midnightblue" points="212.114,-76.8168 201.657,-78.5199 210.894,-83.7096 212.114,-76.8168"/>
</g>
<!-- Node13 -->
<g id="node13" class="node"><title>Node13</title>
<polygon fill="none" stroke="#bfbfbf" points="218.971,-59 218.971,-79 315.029,-79 315.029,-59 218.971,-59"/>
<text text-anchor="middle" x="267" y="-65" font-family="Helvetica,sans-Serif" font-size="10.00">boost/foreach.hpp</text>
</g>
<!-- Node5&#45;&gt;Node13 -->
<g id="edge14" class="edge"><title>Node5&#45;&gt;Node13</title>
<path fill="none" stroke="midnightblue" d="M438.607,-116.878C403.509,-107.29 348.176,-92.1748 309.873,-81.7116"/>
<polygon fill="midnightblue" stroke="midnightblue" points="310.608,-78.2842 300.039,-79.0253 308.763,-85.0368 310.608,-78.2842"/>
</g>
<!-- Node14&#45;&gt;Node2 -->
<g id="edge19" class="edge"><title>Node14&#45;&gt;Node2</title>
<path fill="none" stroke="midnightblue" d="M1002.88,-116.878C1038.49,-107.29 1094.64,-92.1748 1133.5,-81.7116"/>
<polygon fill="midnightblue" stroke="midnightblue" points="1134.73,-85.0048 1143.48,-79.0253 1132.91,-78.2455 1134.73,-85.0048"/>
</g>
<!-- Node14&#45;&gt;Node3 -->
<g id="edge20" class="edge"><title>Node14&#45;&gt;Node3</title>
<path fill="none" stroke="midnightblue" d="M932.622,-122.655C878.679,-116.97 781.129,-103.67 756,-80 742.789,-67.5558 738.504,-46.7596 737.239,-31.4351"/>
<polygon fill="midnightblue" stroke="midnightblue" points="740.735,-31.2651 736.767,-21.4413 733.743,-31.5952 740.735,-31.2651"/>
</g>
<!-- Node14&#45;&gt;Node8 -->
<g id="edge18" class="edge"><title>Node14&#45;&gt;Node8</title>
<path fill="none" stroke="midnightblue" d="M932.908,-120.426C884.744,-112.721 796.937,-97.7378 723,-80 721.755,-79.7013 720.487,-79.385 719.209,-79.0561"/>
<polygon fill="midnightblue" stroke="midnightblue" points="719.976,-75.6371 709.406,-76.3658 718.123,-82.3875 719.976,-75.6371"/>
</g>
<!-- Node15 -->
<g id="node15" class="node"><title>Node15</title>
<polygon fill="none" stroke="#bfbfbf" points="893.451,-59 893.451,-79 1044.55,-79 1044.55,-59 893.451,-59"/>
<text text-anchor="middle" x="969" y="-65" font-family="Helvetica,sans-Serif" font-size="10.00">boost/exception/exception.hpp</text>
</g>
<!-- Node14&#45;&gt;Node15 -->
<g id="edge16" class="edge"><title>Node14&#45;&gt;Node15</title>
<path fill="none" stroke="midnightblue" d="M969,-116.753C969,-109.25 969,-98.4238 969,-89.0781"/>
<polygon fill="midnightblue" stroke="midnightblue" points="972.5,-89.0752 969,-79.0752 965.5,-89.0752 972.5,-89.0752"/>
</g>
<!-- Node16 -->
<g id="node16" class="node"><title>Node16</title>
<polygon fill="none" stroke="#bfbfbf" points="1062.6,-59 1062.6,-79 1121.4,-79 1121.4,-59 1062.6,-59"/>
<text text-anchor="middle" x="1092" y="-65" font-family="Helvetica,sans-Serif" font-size="10.00">exception</text>
</g>
<!-- Node14&#45;&gt;Node16 -->
<g id="edge17" class="edge"><title>Node14&#45;&gt;Node16</title>
<path fill="none" stroke="midnightblue" d="M989.036,-116.878C1009.05,-107.766 1040.03,-93.6617 1062.78,-83.3028"/>
<polygon fill="midnightblue" stroke="midnightblue" points="1064.32,-86.4472 1071.97,-79.1181 1061.42,-80.0764 1064.32,-86.4472"/>
</g>
<!-- Node17 -->
<g id="node17" class="node"><title>Node17</title>
<polygon fill="none" stroke="#bfbfbf" points="764.766,-59 764.766,-79 875.234,-79 875.234,-59 764.766,-59"/>
<text text-anchor="middle" x="820" y="-65" font-family="Helvetica,sans-Serif" font-size="10.00">RMF/internal/errors.h</text>
</g>
<!-- Node14&#45;&gt;Node17 -->
<g id="edge21" class="edge"><title>Node14&#45;&gt;Node17</title>
<path fill="none" stroke="midnightblue" d="M944.729,-116.878C920.052,-107.603 881.613,-93.1564 853.928,-82.7515"/>
<polygon fill="midnightblue" stroke="midnightblue" points="854.853,-79.36 844.261,-79.1181 852.39,-85.9125 854.853,-79.36"/>
</g>
</g>
</svg>
