<?xml version="1.0" encoding="UTF-8" standalone="no"?>
<!DOCTYPE svg PUBLIC "-//W3C//DTD SVG 1.1//EN"
 "http://www.w3.org/Graphics/SVG/1.1/DTD/svg11.dtd">
<!-- Generated by graphviz version 2.34.0 (20131025.1349)
 -->
<!-- Title: constants.h Pages: 1 -->
<!--zoomable 378 -->
<svg id="main" version="1.1" xmlns="http://www.w3.org/2000/svg" xmlns:xlink="http://www.w3.org/1999/xlink" xml:space="preserve" onload="init(evt)">
<style type="text/css"><![CDATA[
.edge:hover path { stroke: red; }
.edge:hover polygon { stroke: red; fill: red; }
]]></style>
<script type="text/javascript"><![CDATA[
var edges = document.getElementsByTagName('g');
if (edges && edges.length) {
  for (var i=0;i<edges.length;i++) {
    if (edges[i].id.substr(0,4)=='edge') {
      edges[i].setAttribute('class','edge');
    }
  }
}
]]></script>
        <defs>
                <circle id="rim" cx="0" cy="0" r="7"/>
                <circle id="rim2" cx="0" cy="0" r="3.5"/>
                <g id="zoomPlus">
                        <use xlink:href="#rim" fill="#404040">
                                <set attributeName="fill" to="#808080" begin="zoomplus.mouseover" end="zoomplus.mouseout"/>
                        </use>
                        <path d="M-4,0h8M0,-4v8" fill="none" stroke="white" stroke-width="1.5" pointer-events="none"/>
                </g>
                <g id="zoomMin">
                        <use xlink:href="#rim" fill="#404040">
                                <set attributeName="fill" to="#808080" begin="zoomminus.mouseover" end="zoomminus.mouseout"/>
                        </use>
                        <path d="M-4,0h8" fill="none" stroke="white" stroke-width="1.5" pointer-events="none"/>
                </g>
                <g id="dirArrow">
                        <path fill="none" stroke="white" stroke-width="1.5" d="M0,-3.0v7 M-2.5,-0.5L0,-3.0L2.5,-0.5"/>
                </g>
               <g id="resetDef">
                       <use xlink:href="#rim2" fill="#404040">
                               <set attributeName="fill" to="#808080" begin="reset.mouseover" end="reset.mouseout"/>
                       </use>
               </g>
        </defs>

<script type="text/javascript">
var viewWidth = 1520;
var viewHeight = 378;
var sectionId = 'dynsection-1';
</script>
<script xlink:href="svgpan.js"/>
<svg id="graph" class="graph">
<g id="viewport">
<title>constants.h</title>
<!-- Node1 -->
<g id="node1" class="node"><title>Node1</title>
<polygon fill="#bfbfbf" stroke="black" points="370.429,-349 370.429,-369 437.571,-369 437.571,-349 370.429,-349"/>
<text text-anchor="middle" x="404" y="-355" font-family="Helvetica,sans-Serif" font-size="10.00">constants.h</text>
</g>
<!-- Node2 -->
<g id="node2" class="node"><title>Node2</title>
<g id="a_node2"><a xlink:href="NodeConstHandle_8h.html" target="_top" xlink:title="Handle read/write of Model data from/to files. ">
<polygon fill="none" stroke="black" points="963.971,-291 963.971,-311 1070.03,-311 1070.03,-291 963.971,-291"/>
<text text-anchor="middle" x="1017" y="-297" font-family="Helvetica,sans-Serif" font-size="10.00">NodeConstHandle.h</text>
</a>
</g>
</g>
<!-- Node1&#45;&gt;Node2 -->
<g id="edge1" class="edge"><title>Node1&#45;&gt;Node2</title>
<path fill="none" stroke="midnightblue" d="M447.761,-355.269C540.528,-349.271 763.717,-333.726 950,-312 954.439,-311.482 959.036,-310.898 963.647,-310.278"/>
<polygon fill="midnightblue" stroke="midnightblue" points="447.381,-351.787 437.626,-355.92 447.829,-358.772 447.381,-351.787"/>
</g>
<!-- Node4 -->
<g id="node4" class="node"><title>Node4</title>
<g id="a_node4"><a xlink:href="alias_8h.html" target="_top" xlink:title="Helper functions for manipulating RMF files. ">
<polygon fill="none" stroke="black" points="437.547,-117 437.547,-137 482.453,-137 482.453,-117 437.547,-117"/>
<text text-anchor="middle" x="460" y="-123" font-family="Helvetica,sans-Serif" font-size="10.00">alias.h</text>
</a>
</g>
</g>
<!-- Node1&#45;&gt;Node4 -->
<g id="edge64" class="edge"><title>Node1&#45;&gt;Node4</title>
<path fill="none" stroke="midnightblue" d="M391.555,-340.174C369.018,-305.479 326.807,-227.591 361,-174 377.718,-147.797 413.646,-136.288 437.31,-131.4"/>
<polygon fill="midnightblue" stroke="midnightblue" points="388.835,-342.401 397.311,-348.758 394.649,-338.503 388.835,-342.401"/>
</g>
<!-- Node6 -->
<g id="node6" class="node"><title>Node6</title>
<g id="a_node6"><a xlink:href="physics_8h.html" target="_top" xlink:title="Helper functions for manipulating RMF files. ">
<polygon fill="none" stroke="black" points="440.158,-59 440.158,-79 497.842,-79 497.842,-59 440.158,-59"/>
<text text-anchor="middle" x="469" y="-65" font-family="Helvetica,sans-Serif" font-size="10.00">physics.h</text>
</a>
</g>
</g>
<!-- Node1&#45;&gt;Node6 -->
<g id="edge67" class="edge"><title>Node1&#45;&gt;Node6</title>
<path fill="none" stroke="midnightblue" d="M360.012,-354.94C255.315,-346.454 0,-318.157 0,-244 0,-244 0,-244 0,-184 0,-151.483 1.07927,-135.634 27,-116 59.9021,-91.0777 346.662,-75.678 439.869,-71.2957"/>
<polygon fill="midnightblue" stroke="midnightblue" points="360.006,-358.451 370.25,-355.746 360.555,-351.472 360.006,-358.451"/>
</g>
<!-- Node8 -->
<g id="node8" class="node"><title>Node8</title>
<g id="a_node8"><a xlink:href="external_8h.html" target="_top" xlink:title="Helper functions for manipulating RMF files. ">
<polygon fill="none" stroke="black" points="710.042,-117 710.042,-137 769.958,-137 769.958,-117 710.042,-117"/>
<text text-anchor="middle" x="740" y="-123" font-family="Helvetica,sans-Serif" font-size="10.00">external.h</text>
</a>
</g>
</g>
<!-- Node1&#45;&gt;Node8 -->
<g id="edge65" class="edge"><title>Node1&#45;&gt;Node8</title>
<path fill="none" stroke="midnightblue" d="M448.1,-353.244C509.414,-344.366 620.268,-319.766 686,-254 720.321,-219.661 734.234,-160.038 738.469,-137.234"/>
<polygon fill="midnightblue" stroke="midnightblue" points="447.407,-349.806 437.975,-354.632 448.358,-356.742 447.407,-349.806"/>
</g>
<!-- Node9 -->
<g id="node9" class="node"><title>Node9</title>
<g id="a_node9"><a xlink:href="feature_8h.html" target="_top" xlink:title="Helper functions for manipulating RMF files. ">
<polygon fill="none" stroke="black" points="36.2637,-117 36.2637,-137 91.7363,-137 91.7363,-117 36.2637,-117"/>
<text text-anchor="middle" x="64" y="-123" font-family="Helvetica,sans-Serif" font-size="10.00">feature.h</text>
</a>
</g>
</g>
<!-- Node1&#45;&gt;Node9 -->
<g id="edge66" class="edge"><title>Node1&#45;&gt;Node9</title>
<path fill="none" stroke="midnightblue" d="M370.151,-345.286C349.547,-336.968 323.04,-325.214 301,-312 205.84,-254.946 104.963,-165.455 73.7591,-137.001"/>
<polygon fill="midnightblue" stroke="midnightblue" points="368.869,-348.543 379.455,-348.972 371.447,-342.035 368.869,-348.543"/>
</g>
<!-- Node10 -->
<g id="node10" class="node"><title>Node10</title>
<g id="a_node10"><a xlink:href="publication_8h.html" target="_top" xlink:title="Helper functions for manipulating RMF files. ">
<polygon fill="none" stroke="black" points="109.924,-117 109.924,-137 182.076,-137 182.076,-117 109.924,-117"/>
<text text-anchor="middle" x="146" y="-123" font-family="Helvetica,sans-Serif" font-size="10.00">publication.h</text>
</a>
</g>
</g>
<!-- Node1&#45;&gt;Node10 -->
<g id="edge68" class="edge"><title>Node1&#45;&gt;Node10</title>
<path fill="none" stroke="midnightblue" d="M377.415,-343.763C362.596,-335.328 344.135,-323.97 329,-312 254.084,-252.751 177.748,-165.448 153.72,-137.187"/>
<polygon fill="midnightblue" stroke="midnightblue" points="376.117,-347.047 386.556,-348.861 379.527,-340.933 376.117,-347.047"/>
</g>
<!-- Node11 -->
<g id="node11" class="node"><title>Node11</title>
<g id="a_node11"><a xlink:href="sequence_8h.html" target="_top" xlink:title="Helper functions for manipulating RMF files. ">
<polygon fill="none" stroke="black" points="788.146,-117 788.146,-137 855.854,-137 855.854,-117 788.146,-117"/>
<text text-anchor="middle" x="822" y="-123" font-family="Helvetica,sans-Serif" font-size="10.00">sequence.h</text>
</a>
</g>
</g>
<!-- Node1&#45;&gt;Node11 -->
<g id="edge69" class="edge"><title>Node1&#45;&gt;Node11</title>
<path fill="none" stroke="midnightblue" d="M447.917,-355.08C495.388,-350.602 572.381,-339.439 633,-312 723.114,-271.21 795.712,-168.261 816.199,-137.085"/>
<polygon fill="midnightblue" stroke="midnightblue" points="447.325,-351.619 437.673,-355.986 447.942,-358.591 447.325,-351.619"/>
</g>
<!-- Node12 -->
<g id="node12" class="node"><title>Node12</title>
<g id="a_node12"><a xlink:href="shape_8h.html" target="_top" xlink:title="Helper functions for manipulating RMF files. ">
<polygon fill="none" stroke="black" points="500.207,-117 500.207,-137 551.793,-137 551.793,-117 500.207,-117"/>
<text text-anchor="middle" x="526" y="-123" font-family="Helvetica,sans-Serif" font-size="10.00">shape.h</text>
</a>
</g>
</g>
<!-- Node1&#45;&gt;Node12 -->
<g id="edge70" class="edge"><title>Node1&#45;&gt;Node12</title>
<path fill="none" stroke="midnightblue" d="M413.495,-340.1C438.014,-293.876 502.807,-171.724 521.118,-137.204"/>
<polygon fill="midnightblue" stroke="midnightblue" points="410.377,-338.509 408.783,-348.984 416.56,-341.79 410.377,-338.509"/>
</g>
<!-- Node13 -->
<g id="node13" class="node"><title>Node13</title>
<g id="a_node13"><a xlink:href="bond_8h.html" target="_top" xlink:title="Helper functions for manipulating RMF files. ">
<polygon fill="none" stroke="black" points="645.707,-117 645.707,-137 692.293,-137 692.293,-117 645.707,-117"/>
<text text-anchor="middle" x="669" y="-123" font-family="Helvetica,sans-Serif" font-size="10.00">bond.h</text>
</a>
</g>
</g>
<!-- Node1&#45;&gt;Node13 -->
<g id="edge71" class="edge"><title>Node1&#45;&gt;Node13</title>
<path fill="none" stroke="midnightblue" d="M447.801,-347.289C501.264,-332.675 592.612,-302.603 658,-254 684.628,-234.207 693.919,-227.274 705,-196 708.265,-186.784 708.187,-183.244 705,-174 699.909,-159.236 687.916,-145.588 679.167,-137.057"/>
<polygon fill="midnightblue" stroke="midnightblue" points="446.71,-343.958 437.953,-349.923 448.518,-350.72 446.71,-343.958"/>
</g>
<!-- Node14 -->
<g id="node14" class="node"><title>Node14</title>
<g id="a_node14"><a xlink:href="representation_8h.html" target="_top" xlink:title="Helper functions for manipulating RMF files. ">
<polygon fill="none" stroke="black" points="199.865,-117 199.865,-137 288.135,-137 288.135,-117 199.865,-117"/>
<text text-anchor="middle" x="244" y="-123" font-family="Helvetica,sans-Serif" font-size="10.00">representation.h</text>
</a>
</g>
</g>
<!-- Node1&#45;&gt;Node14 -->
<g id="edge72" class="edge"><title>Node1&#45;&gt;Node14</title>
<path fill="none" stroke="midnightblue" d="M382.017,-342.945C370.951,-334.663 357.835,-323.705 348,-312 297.958,-252.441 259.476,-165.341 247.726,-137.16"/>
<polygon fill="midnightblue" stroke="midnightblue" points="380.197,-345.948 390.35,-348.977 384.302,-340.278 380.197,-345.948"/>
</g>
<!-- Node15 -->
<g id="node15" class="node"><title>Node15</title>
<g id="a_node15"><a xlink:href="alternatives_8h.html" target="_top" xlink:title="Helper functions for manipulating RMF files. ">
<polygon fill="none" stroke="black" points="306.261,-117 306.261,-137 381.739,-137 381.739,-117 306.261,-117"/>
<text text-anchor="middle" x="344" y="-123" font-family="Helvetica,sans-Serif" font-size="10.00">alternatives.h</text>
</a>
</g>
</g>
<!-- Node1&#45;&gt;Node15 -->
<g id="edge73" class="edge"><title>Node1&#45;&gt;Node15</title>
<path fill="none" stroke="midnightblue" d="M385.459,-342.103C376.915,-333.891 367.297,-323.246 361,-312 327.773,-252.659 337.92,-165.416 342.389,-137.179"/>
<polygon fill="midnightblue" stroke="midnightblue" points="383.143,-344.727 392.878,-348.907 387.874,-339.568 383.143,-344.727"/>
</g>
<!-- Node19 -->
<g id="node19" class="node"><title>Node19</title>
<g id="a_node19"><a xlink:href="FileConstHandle_8h.html" target="_top" xlink:title="Handle read/write of Model data from/to files. ">
<polygon fill="none" stroke="black" points="1103.87,-233 1103.87,-253 1202.13,-253 1202.13,-233 1103.87,-233"/>
<text text-anchor="middle" x="1153" y="-239" font-family="Helvetica,sans-Serif" font-size="10.00">FileConstHandle.h</text>
</a>
</g>
</g>
<!-- Node1&#45;&gt;Node19 -->
<g id="edge63" class="edge"><title>Node1&#45;&gt;Node19</title>
<path fill="none" stroke="midnightblue" d="M448.026,-356.689C588.665,-352.27 1021.28,-336.787 1079,-312 1109.14,-299.057 1134.92,-268.451 1146.49,-253.105"/>
<polygon fill="midnightblue" stroke="midnightblue" points="447.527,-353.203 437.64,-357.012 447.744,-360.2 447.527,-353.203"/>
</g>
<!-- Node3 -->
<g id="node3" class="node"><title>Node3</title>
<g id="a_node3"><a xlink:href="Decorator_8h.html" target="_top" xlink:title="Helper functions for manipulating RMF files. ">
<polygon fill="none" stroke="black" points="370.15,-175 370.15,-195 437.85,-195 437.85,-175 370.15,-175"/>
<text text-anchor="middle" x="404" y="-181" font-family="Helvetica,sans-Serif" font-size="10.00">Decorator.h</text>
</a>
</g>
</g>
<!-- Node2&#45;&gt;Node3 -->
<g id="edge2" class="edge"><title>Node2&#45;&gt;Node3</title>
<path fill="none" stroke="midnightblue" d="M953.542,-299.718C864.445,-297.952 697.845,-289.618 561,-254 507.245,-240.009 448.25,-210.174 420.353,-195.108"/>
<polygon fill="midnightblue" stroke="midnightblue" points="953.694,-303.222 963.754,-299.899 953.817,-296.223 953.694,-303.222"/>
</g>
<!-- Node7 -->
<g id="node7" class="node"><title>Node7</title>
<g id="a_node7"><a xlink:href="benchmark__rmf_8cpp_source.html" target="_top" xlink:title="benchmark_rmf.cpp">
<polygon fill="none" stroke="black" points="850.815,-1 850.815,-21 955.185,-21 955.185,-1 850.815,-1"/>
<text text-anchor="middle" x="903" y="-7" font-family="Helvetica,sans-Serif" font-size="10.00">benchmark_rmf.cpp</text>
</a>
</g>
</g>
<!-- Node2&#45;&gt;Node7 -->
<g id="edge62" class="edge"><title>Node2&#45;&gt;Node7</title>
<path fill="none" stroke="midnightblue" d="M1005.7,-282.21C992.955,-260.418 974,-221.953 974,-186 974,-186 974,-186 974,-126 974,-80.9995 933.645,-39.0566 913.783,-21.1382"/>
<polygon fill="midnightblue" stroke="midnightblue" points="1002.84,-284.25 1011.02,-290.981 1008.82,-280.617 1002.84,-284.25"/>
</g>
<!-- Node16 -->
<g id="node16" class="node"><title>Node16</title>
<g id="a_node16"><a xlink:href="NodeHandle_8h.html" target="_top" xlink:title="Handle read/write of Model data from/to files. ">
<polygon fill="none" stroke="black" points="570.032,-233 570.032,-253 649.968,-253 649.968,-233 570.032,-233"/>
<text text-anchor="middle" x="610" y="-239" font-family="Helvetica,sans-Serif" font-size="10.00">NodeHandle.h</text>
</a>
</g>
</g>
<!-- Node2&#45;&gt;Node16 -->
<g id="edge26" class="edge"><title>Node2&#45;&gt;Node16</title>
<path fill="none" stroke="midnightblue" d="M953.776,-291.301C868.994,-279.635 720.942,-259.265 650.054,-249.511"/>
<polygon fill="midnightblue" stroke="midnightblue" points="953.408,-294.783 963.792,-292.679 954.362,-287.848 953.408,-294.783"/>
</g>
<!-- Node18 -->
<g id="node18" class="node"><title>Node18</title>
<g id="a_node18"><a xlink:href="validate_8h.html" target="_top" xlink:title="Handle read/write of Model data from/to files. ">
<polygon fill="none" stroke="black" points="1019.6,-117 1019.6,-137 1078.4,-137 1078.4,-117 1019.6,-117"/>
<text text-anchor="middle" x="1049" y="-123" font-family="Helvetica,sans-Serif" font-size="10.00">validate.h</text>
</a>
</g>
</g>
<!-- Node2&#45;&gt;Node18 -->
<g id="edge61" class="edge"><title>Node2&#45;&gt;Node18</title>
<path fill="none" stroke="midnightblue" d="M1036.37,-283.672C1044.38,-275.658 1052.77,-265.3 1057,-254 1072.43,-212.734 1058.7,-158.593 1052.09,-137.234"/>
<polygon fill="midnightblue" stroke="midnightblue" points="1033.59,-281.478 1028.65,-290.853 1038.36,-286.603 1033.59,-281.478"/>
</g>
<!-- Node2&#45;&gt;Node19 -->
<g id="edge52" class="edge"><title>Node2&#45;&gt;Node19</title>
<path fill="none" stroke="midnightblue" d="M1048.65,-286.969C1073.86,-276.585 1108.53,-262.31 1130.86,-253.118"/>
<polygon fill="midnightblue" stroke="midnightblue" points="1047.07,-283.834 1039.15,-290.878 1049.73,-290.307 1047.07,-283.834"/>
</g>
<!-- Node24 -->
<g id="node24" class="node"><title>Node24</title>
<g id="a_node24"><a xlink:href="utility_8h.html" target="_top" xlink:title="Helper functions for manipulating RMF files. ">
<polygon fill="none" stroke="black" points="1001.81,-233 1001.81,-253 1048.19,-253 1048.19,-233 1001.81,-233"/>
<text text-anchor="middle" x="1025" y="-239" font-family="Helvetica,sans-Serif" font-size="10.00">utility.h</text>
</a>
</g>
</g>
<!-- Node2&#45;&gt;Node24 -->
<g id="edge60" class="edge"><title>Node2&#45;&gt;Node24</title>
<path fill="none" stroke="midnightblue" d="M1019.76,-280.707C1021.09,-271.338 1022.64,-260.526 1023.7,-253.075"/>
<polygon fill="midnightblue" stroke="midnightblue" points="1016.27,-280.358 1018.32,-290.753 1023.2,-281.348 1016.27,-280.358"/>
</g>
<!-- Node3&#45;&gt;Node4 -->
<g id="edge3" class="edge"><title>Node3&#45;&gt;Node4</title>
<path fill="none" stroke="midnightblue" d="M420.59,-167.41C430.514,-157.486 442.745,-145.255 450.925,-137.075"/>
<polygon fill="midnightblue" stroke="midnightblue" points="417.843,-165.207 413.247,-174.753 422.793,-170.157 417.843,-165.207"/>
</g>
<!-- Node3&#45;&gt;Node6 -->
<g id="edge12" class="edge"><title>Node3&#45;&gt;Node6</title>
<path fill="none" stroke="midnightblue" d="M409.046,-164.711C413.208,-150.623 419.907,-131.377 429,-116 437.404,-101.789 450.419,-87.8161 459.305,-79.0682"/>
<polygon fill="midnightblue" stroke="midnightblue" points="405.567,-164.159 406.255,-174.732 412.31,-166.038 405.567,-164.159"/>
</g>
<!-- Node3&#45;&gt;Node8 -->
<g id="edge8" class="edge"><title>Node3&#45;&gt;Node8</title>
<path fill="none" stroke="midnightblue" d="M447.998,-178.548C506.187,-171.027 611.797,-156.299 701,-138 703.876,-137.41 706.858,-136.745 709.834,-136.044"/>
<polygon fill="midnightblue" stroke="midnightblue" points="447.517,-175.081 438.043,-179.824 448.407,-182.024 447.517,-175.081"/>
</g>
<!-- Node3&#45;&gt;Node9 -->
<g id="edge10" class="edge"><title>Node3&#45;&gt;Node9</title>
<path fill="none" stroke="midnightblue" d="M360.031,-178.912C300.827,-171.701 192.36,-157.216 101,-138 98.0047,-137.37 94.8911,-136.643 91.7986,-135.876"/>
<polygon fill="midnightblue" stroke="midnightblue" points="359.801,-182.41 370.148,-180.132 360.639,-175.46 359.801,-182.41"/>
</g>
<!-- Node3&#45;&gt;Node10 -->
<g id="edge13" class="edge"><title>Node3&#45;&gt;Node10</title>
<path fill="none" stroke="midnightblue" d="M360.178,-174.616C317.104,-165.373 249.503,-150.817 191,-138 188.186,-137.383 185.273,-136.742 182.345,-136.096"/>
<polygon fill="midnightblue" stroke="midnightblue" points="359.536,-178.058 370.047,-176.733 361.004,-171.213 359.536,-178.058"/>
</g>
<!-- Node3&#45;&gt;Node11 -->
<g id="edge15" class="edge"><title>Node3&#45;&gt;Node11</title>
<path fill="none" stroke="midnightblue" d="M448.185,-180.026C518.377,-173.385 659.543,-158.691 778,-138 781.241,-137.434 784.603,-136.784 787.959,-136.094"/>
<polygon fill="midnightblue" stroke="midnightblue" points="447.579,-176.567 437.949,-180.985 448.232,-183.537 447.579,-176.567"/>
</g>
<!-- Node3&#45;&gt;Node12 -->
<g id="edge18" class="edge"><title>Node3&#45;&gt;Node12</title>
<path fill="none" stroke="midnightblue" d="M432.991,-170.693C455.561,-160.333 486.288,-146.229 506.136,-137.118"/>
<polygon fill="midnightblue" stroke="midnightblue" points="431.501,-167.525 423.873,-174.878 434.421,-173.887 431.501,-167.525"/>
</g>
<!-- Node3&#45;&gt;Node13 -->
<g id="edge20" class="edge"><title>Node3&#45;&gt;Node13</title>
<path fill="none" stroke="midnightblue" d="M448.214,-174.657C504.96,-162.665 601.347,-142.297 645.566,-132.952"/>
<polygon fill="midnightblue" stroke="midnightblue" points="447.162,-171.302 438.102,-176.794 448.609,-178.15 447.162,-171.302"/>
</g>
<!-- Node3&#45;&gt;Node14 -->
<g id="edge22" class="edge"><title>Node3&#45;&gt;Node14</title>
<path fill="none" stroke="midnightblue" d="M368.304,-171.506C338.422,-161.048 296.493,-146.373 269.787,-137.025"/>
<polygon fill="midnightblue" stroke="midnightblue" points="367.342,-174.878 377.937,-174.878 369.655,-168.271 367.342,-174.878"/>
</g>
<!-- Node3&#45;&gt;Node15 -->
<g id="edge24" class="edge"><title>Node3&#45;&gt;Node15</title>
<path fill="none" stroke="midnightblue" d="M386.54,-167.704C375.852,-157.729 362.574,-145.336 353.723,-137.075"/>
<polygon fill="midnightblue" stroke="midnightblue" points="384.394,-170.488 394.092,-174.753 389.17,-165.371 384.394,-170.488"/>
</g>
<!-- Node5 -->
<g id="node5" class="node"><title>Node5</title>
<g id="a_node5"><a xlink:href="decorators_8h.html" target="_top" xlink:title="Import all the decorators headers. ">
<polygon fill="none" stroke="black" points="404.207,-1 404.207,-21 475.793,-21 475.793,-1 404.207,-1"/>
<text text-anchor="middle" x="440" y="-7" font-family="Helvetica,sans-Serif" font-size="10.00">decorators.h</text>
</a>
</g>
</g>
<!-- Node4&#45;&gt;Node5 -->
<g id="edge4" class="edge"><title>Node4&#45;&gt;Node5</title>
<path fill="none" stroke="midnightblue" d="M445.974,-108.906C440.125,-100.694 434.002,-90.3905 431,-80 425.117,-59.6357 431.766,-34.7153 436.364,-21.4199"/>
<polygon fill="midnightblue" stroke="midnightblue" points="443.215,-111.061 452.053,-116.903 448.788,-106.824 443.215,-111.061"/>
</g>
<!-- Node4&#45;&gt;Node6 -->
<g id="edge5" class="edge"><title>Node4&#45;&gt;Node6</title>
<path fill="none" stroke="midnightblue" d="M463.101,-106.707C464.606,-97.3384 466.344,-86.5262 467.541,-79.0752"/>
<polygon fill="midnightblue" stroke="midnightblue" points="459.617,-106.324 461.486,-116.753 466.529,-107.435 459.617,-106.324"/>
</g>
<!-- Node6&#45;&gt;Node5 -->
<g id="edge6" class="edge"><title>Node6&#45;&gt;Node5</title>
<path fill="none" stroke="midnightblue" d="M459.481,-49.6182C454.524,-40.0471 448.684,-28.7692 444.7,-21.0752"/>
<polygon fill="midnightblue" stroke="midnightblue" points="456.505,-51.4823 464.211,-58.7527 462.721,-48.2633 456.505,-51.4823"/>
</g>
<!-- Node6&#45;&gt;Node7 -->
<g id="edge7" class="edge"><title>Node6&#45;&gt;Node7</title>
<path fill="none" stroke="midnightblue" d="M508.084,-62.9569C586.352,-52.8578 762.357,-30.1475 850.548,-18.768"/>
<polygon fill="midnightblue" stroke="midnightblue" points="507.62,-59.4877 498.15,-64.2387 508.516,-66.4301 507.62,-59.4877"/>
</g>
<!-- Node8&#45;&gt;Node5 -->
<g id="edge9" class="edge"><title>Node8&#45;&gt;Node5</title>
<path fill="none" stroke="midnightblue" d="M708.507,-113.083C674.299,-99.1441 617.976,-76.4634 569,-58 533.625,-44.664 492.429,-30.149 466.29,-21.0639"/>
<polygon fill="midnightblue" stroke="midnightblue" points="707.382,-116.404 717.963,-116.943 710.028,-109.923 707.382,-116.404"/>
</g>
<!-- Node9&#45;&gt;Node5 -->
<g id="edge11" class="edge"><title>Node9&#45;&gt;Node5</title>
<path fill="none" stroke="midnightblue" d="M98.3954,-113.554C138.235,-99.3267 205.964,-75.7221 265,-58 312.689,-43.6842 368.409,-29.462 403.935,-20.7052"/>
<polygon fill="midnightblue" stroke="midnightblue" points="97.1234,-110.291 88.89,-116.959 99.4845,-116.881 97.1234,-110.291"/>
</g>
<!-- Node10&#45;&gt;Node5 -->
<g id="edge14" class="edge"><title>Node10&#45;&gt;Node5</title>
<path fill="none" stroke="midnightblue" d="M178.945,-113.179C214.117,-99.4952 271.486,-77.19 321,-58 354.044,-45.1932 392.268,-30.4262 416.288,-21.1518"/>
<polygon fill="midnightblue" stroke="midnightblue" points="177.258,-110.08 169.207,-116.967 179.796,-116.603 177.258,-110.08"/>
</g>
<!-- Node11&#45;&gt;Node5 -->
<g id="edge16" class="edge"><title>Node11&#45;&gt;Node5</title>
<path fill="none" stroke="midnightblue" d="M785.917,-113.686C744.222,-99.604 673.454,-76.1541 612,-58 565.31,-44.2074 510.967,-29.9746 476.06,-21.0639"/>
<polygon fill="midnightblue" stroke="midnightblue" points="785.022,-117.078 795.617,-116.97 787.267,-110.448 785.022,-117.078"/>
</g>
<!-- Node11&#45;&gt;Node7 -->
<g id="edge17" class="edge"><title>Node11&#45;&gt;Node7</title>
<path fill="none" stroke="midnightblue" d="M834.47,-108.256C844.137,-94.5188 857.883,-75.0276 870,-58 879.118,-45.1873 889.729,-30.4217 896.405,-21.1493"/>
<polygon fill="midnightblue" stroke="midnightblue" points="831.389,-106.552 828.499,-116.745 837.115,-110.579 831.389,-106.552"/>
</g>
<!-- Node12&#45;&gt;Node5 -->
<g id="edge19" class="edge"><title>Node12&#45;&gt;Node5</title>
<path fill="none" stroke="midnightblue" d="M523.791,-106.481C521.361,-91.991 516.327,-72.3408 506,-58 494.084,-41.4522 474.293,-28.8175 459.485,-21.0147"/>
<polygon fill="midnightblue" stroke="midnightblue" points="520.382,-107.376 525.233,-116.795 527.315,-106.407 520.382,-107.376"/>
</g>
<!-- Node13&#45;&gt;Node5 -->
<g id="edge21" class="edge"><title>Node13&#45;&gt;Node5</title>
<path fill="none" stroke="midnightblue" d="M641.575,-112.347C594.163,-88.7451 498.122,-40.9342 458.122,-21.0217"/>
<polygon fill="midnightblue" stroke="midnightblue" points="640.135,-115.54 650.647,-116.864 643.255,-109.274 640.135,-115.54"/>
</g>
<!-- Node14&#45;&gt;Node5 -->
<g id="edge23" class="edge"><title>Node14&#45;&gt;Node5</title>
<path fill="none" stroke="midnightblue" d="M268.498,-111.751C309.422,-87.9485 390.539,-40.7679 424.489,-21.0217"/>
<polygon fill="midnightblue" stroke="midnightblue" points="266.593,-108.81 259.708,-116.864 270.112,-114.861 266.593,-108.81"/>
</g>
<!-- Node15&#45;&gt;Node5 -->
<g id="edge25" class="edge"><title>Node15&#45;&gt;Node5</title>
<path fill="none" stroke="midnightblue" d="M358.397,-108.904C379.023,-84.4104 416.26,-40.1911 432.304,-21.1394"/>
<polygon fill="midnightblue" stroke="midnightblue" points="355.62,-106.767 351.856,-116.671 360.975,-111.276 355.62,-106.767"/>
</g>
<!-- Node16&#45;&gt;Node3 -->
<g id="edge27" class="edge"><title>Node16&#45;&gt;Node3</title>
<path fill="none" stroke="midnightblue" d="M566.528,-230.183C527.924,-219.688 472.332,-204.576 437.2,-195.025"/>
<polygon fill="midnightblue" stroke="midnightblue" points="565.876,-233.632 576.444,-232.878 567.712,-226.877 565.876,-233.632"/>
</g>
<!-- Node16&#45;&gt;Node4 -->
<g id="edge28" class="edge"><title>Node16&#45;&gt;Node4</title>
<path fill="none" stroke="midnightblue" d="M589.47,-226.924C577.359,-217.991 561.757,-206.417 548,-196 520.447,-175.137 488.402,-150.204 471.617,-137.093"/>
<polygon fill="midnightblue" stroke="midnightblue" points="587.468,-229.796 597.595,-232.907 591.618,-224.159 587.468,-229.796"/>
</g>
<!-- Node16&#45;&gt;Node6 -->
<g id="edge44" class="edge"><title>Node16&#45;&gt;Node6</title>
<path fill="none" stroke="midnightblue" d="M604.289,-222.993C594.671,-191.962 574.838,-132.242 560,-116 543.403,-97.8334 518.002,-85.8331 498.249,-78.6587"/>
<polygon fill="midnightblue" stroke="midnightblue" points="600.971,-224.113 607.24,-232.654 607.666,-222.068 600.971,-224.113"/>
</g>
<!-- Node16&#45;&gt;Node7 -->
<g id="edge51" class="edge"><title>Node16&#45;&gt;Node7</title>
<path fill="none" stroke="midnightblue" d="M660.118,-236.8C722.164,-227.688 826.966,-203.106 887,-138 917.643,-104.768 909.469,-43.9615 904.996,-21.0529"/>
<polygon fill="midnightblue" stroke="midnightblue" points="659.592,-233.34 650.169,-238.183 660.555,-240.273 659.592,-233.34"/>
</g>
<!-- Node16&#45;&gt;Node8 -->
<g id="edge42" class="edge"><title>Node16&#45;&gt;Node8</title>
<path fill="none" stroke="midnightblue" d="M649.793,-229.384C668.307,-221.965 689.588,-211.04 705,-196 722.485,-178.937 732.916,-151.273 737.401,-137.062"/>
<polygon fill="midnightblue" stroke="midnightblue" points="648.515,-226.125 640.409,-232.947 651,-232.67 648.515,-226.125"/>
</g>
<!-- Node16&#45;&gt;Node9 -->
<g id="edge43" class="edge"><title>Node16&#45;&gt;Node9</title>
<path fill="none" stroke="midnightblue" d="M559.867,-239.662C488.056,-235.441 352.193,-224.193 240,-196 180.75,-181.111 114.42,-151.826 82.7715,-137.022"/>
<polygon fill="midnightblue" stroke="midnightblue" points="559.805,-243.164 569.987,-240.236 560.201,-236.176 559.805,-243.164"/>
</g>
<!-- Node16&#45;&gt;Node10 -->
<g id="edge45" class="edge"><title>Node16&#45;&gt;Node10</title>
<path fill="none" stroke="midnightblue" d="M559.322,-238.671C497.197,-233.64 389.181,-221.795 300,-196 247.779,-180.895 190.146,-151.843 162.533,-137.084"/>
<polygon fill="midnightblue" stroke="midnightblue" points="559.388,-242.187 569.631,-239.477 559.934,-235.208 559.388,-242.187"/>
</g>
<!-- Node16&#45;&gt;Node11 -->
<g id="edge46" class="edge"><title>Node16&#45;&gt;Node11</title>
<path fill="none" stroke="midnightblue" d="M648.701,-229.714C672.286,-221.551 702.66,-209.81 728,-196 760.365,-178.361 794.492,-151.192 811.324,-137.132"/>
<polygon fill="midnightblue" stroke="midnightblue" points="647.39,-226.463 639.043,-232.989 649.638,-233.092 647.39,-226.463"/>
</g>
<!-- Node16&#45;&gt;Node12 -->
<g id="edge47" class="edge"><title>Node16&#45;&gt;Node12</title>
<path fill="none" stroke="midnightblue" d="M592.592,-225.683C584.071,-217.245 573.961,-206.528 566,-196 551.13,-176.336 537.395,-150.706 530.551,-137.222"/>
<polygon fill="midnightblue" stroke="midnightblue" points="590.244,-228.281 599.864,-232.721 595.112,-223.252 590.244,-228.281"/>
</g>
<!-- Node16&#45;&gt;Node13 -->
<g id="edge48" class="edge"><title>Node16&#45;&gt;Node13</title>
<path fill="none" stroke="midnightblue" d="M649.572,-228.814C664.687,-221.624 680.353,-211.041 689,-196 700.04,-176.797 685.667,-150.98 676.16,-137.344"/>
<polygon fill="midnightblue" stroke="midnightblue" points="648.064,-225.653 640.3,-232.861 650.865,-232.068 648.064,-225.653"/>
</g>
<!-- Node16&#45;&gt;Node14 -->
<g id="edge49" class="edge"><title>Node16&#45;&gt;Node14</title>
<path fill="none" stroke="midnightblue" d="M559.858,-239.544C505.264,-235.461 416.229,-224.633 345,-196 308.519,-181.335 271.733,-152.084 254.342,-137.183"/>
<polygon fill="midnightblue" stroke="midnightblue" points="559.75,-243.045 569.97,-240.252 560.239,-236.062 559.75,-243.045"/>
</g>
<!-- Node16&#45;&gt;Node15 -->
<g id="edge50" class="edge"><title>Node16&#45;&gt;Node15</title>
<path fill="none" stroke="midnightblue" d="M559.679,-239.029C495.394,-234.196 389.072,-222.376 361,-196 344.682,-180.668 343.039,-152.247 343.405,-137.473"/>
<polygon fill="midnightblue" stroke="midnightblue" points="559.778,-242.546 570.004,-239.773 560.281,-235.564 559.778,-242.546"/>
</g>
<!-- Node17 -->
<g id="node17" class="node"><title>Node17</title>
<g id="a_node17"><a xlink:href="FileHandle_8h.html" target="_top" xlink:title="Handle read/write of Model data from/to files. ">
<polygon fill="none" stroke="black" points="607.929,-175 607.929,-195 680.071,-195 680.071,-175 607.929,-175"/>
<text text-anchor="middle" x="644" y="-181" font-family="Helvetica,sans-Serif" font-size="10.00">FileHandle.h</text>
</a>
</g>
</g>
<!-- Node16&#45;&gt;Node17 -->
<g id="edge29" class="edge"><title>Node16&#45;&gt;Node17</title>
<path fill="none" stroke="midnightblue" d="M620.977,-223.92C626.827,-214.285 633.77,-202.85 638.49,-195.075"/>
<polygon fill="midnightblue" stroke="midnightblue" points="617.812,-222.388 615.614,-232.753 623.796,-226.021 617.812,-222.388"/>
</g>
<!-- Node17&#45;&gt;Node4 -->
<g id="edge30" class="edge"><title>Node17&#45;&gt;Node4</title>
<path fill="none" stroke="midnightblue" d="M603.215,-171.979C572.353,-162.824 528.948,-149.824 491,-138 488.3,-137.159 485.473,-136.265 482.67,-135.371"/>
<polygon fill="midnightblue" stroke="midnightblue" points="602.592,-175.445 613.174,-174.929 604.58,-168.733 602.592,-175.445"/>
</g>
<!-- Node17&#45;&gt;Node6 -->
<g id="edge33" class="edge"><title>Node17&#45;&gt;Node6</title>
<path fill="none" stroke="midnightblue" d="M634.581,-165.757C625.892,-150.548 611.678,-129.292 594,-116 565.074,-94.2518 524.8,-81.9029 497.862,-75.5891"/>
<polygon fill="midnightblue" stroke="midnightblue" points="631.614,-167.629 639.474,-174.734 637.761,-164.279 631.614,-167.629"/>
</g>
<!-- Node17&#45;&gt;Node7 -->
<g id="edge41" class="edge"><title>Node17&#45;&gt;Node7</title>
<path fill="none" stroke="midnightblue" d="M690.295,-179.816C747.112,-173.772 839.006,-160.747 864,-138 898.717,-106.404 902.841,-44.6132 903.107,-21.2476"/>
<polygon fill="midnightblue" stroke="midnightblue" points="689.707,-176.358 680.118,-180.865 690.424,-183.322 689.707,-176.358"/>
</g>
<!-- Node17&#45;&gt;Node8 -->
<g id="edge31" class="edge"><title>Node17&#45;&gt;Node8</title>
<path fill="none" stroke="midnightblue" d="M668.963,-169.438C686.513,-159.201 709.448,-145.822 724.443,-137.075"/>
<polygon fill="midnightblue" stroke="midnightblue" points="666.727,-166.691 659.852,-174.753 670.254,-172.737 666.727,-166.691"/>
</g>
<!-- Node17&#45;&gt;Node9 -->
<g id="edge32" class="edge"><title>Node17&#45;&gt;Node9</title>
<path fill="none" stroke="midnightblue" d="M597.462,-181.136C484.095,-173.985 195.986,-154.72 101,-138 97.9855,-137.469 94.8596,-136.807 91.7598,-136.076"/>
<polygon fill="midnightblue" stroke="midnightblue" points="597.357,-184.636 607.557,-181.77 597.796,-177.65 597.357,-184.636"/>
</g>
<!-- Node17&#45;&gt;Node10 -->
<g id="edge34" class="edge"><title>Node17&#45;&gt;Node10</title>
<path fill="none" stroke="midnightblue" d="M597.673,-181.1C515.416,-175.55 338.623,-161.813 191,-138 188.156,-137.541 185.221,-137.014 182.279,-136.446"/>
<polygon fill="midnightblue" stroke="midnightblue" points="597.488,-184.595 607.698,-181.767 597.953,-177.611 597.488,-184.595"/>
</g>
<!-- Node17&#45;&gt;Node11 -->
<g id="edge35" class="edge"><title>Node17&#45;&gt;Node11</title>
<path fill="none" stroke="midnightblue" d="M682.847,-171.778C716.144,-161.303 763.343,-146.454 793.312,-137.025"/>
<polygon fill="midnightblue" stroke="midnightblue" points="681.484,-168.538 672.995,-174.878 683.584,-175.216 681.484,-168.538"/>
</g>
<!-- Node17&#45;&gt;Node12 -->
<g id="edge36" class="edge"><title>Node17&#45;&gt;Node12</title>
<path fill="none" stroke="midnightblue" d="M615.667,-170.554C593.865,-160.207 564.324,-146.188 545.213,-137.118"/>
<polygon fill="midnightblue" stroke="midnightblue" points="614.244,-173.752 624.779,-174.878 617.245,-167.429 614.244,-173.752"/>
</g>
<!-- Node17&#45;&gt;Node13 -->
<g id="edge37" class="edge"><title>Node17&#45;&gt;Node13</title>
<path fill="none" stroke="midnightblue" d="M652.206,-165.618C656.479,-156.047 661.514,-144.769 664.949,-137.075"/>
<polygon fill="midnightblue" stroke="midnightblue" points="649.009,-164.195 648.128,-174.753 655.401,-167.048 649.009,-164.195"/>
</g>
<!-- Node17&#45;&gt;Node14 -->
<g id="edge38" class="edge"><title>Node17&#45;&gt;Node14</title>
<path fill="none" stroke="midnightblue" d="M597.51,-178.657C530.822,-170.806 404.218,-155.208 297,-138 294.134,-137.54 291.185,-137.045 288.215,-136.53"/>
<polygon fill="midnightblue" stroke="midnightblue" points="597.347,-182.161 607.687,-179.849 598.162,-175.209 597.347,-182.161"/>
</g>
<!-- Node17&#45;&gt;Node15 -->
<g id="edge39" class="edge"><title>Node17&#45;&gt;Node15</title>
<path fill="none" stroke="midnightblue" d="M597.627,-175.344C538.447,-164.297 437.174,-145.393 382.207,-135.132"/>
<polygon fill="midnightblue" stroke="midnightblue" points="597.341,-178.851 607.813,-177.245 598.625,-171.969 597.341,-178.851"/>
</g>
<!-- Node17&#45;&gt;Node18 -->
<g id="edge40" class="edge"><title>Node17&#45;&gt;Node18</title>
<path fill="none" stroke="midnightblue" d="M690.317,-177.596C774.312,-165.982 949.521,-141.755 1019.35,-132.1"/>
<polygon fill="midnightblue" stroke="midnightblue" points="689.724,-174.144 680.297,-178.981 690.683,-181.078 689.724,-174.144"/>
</g>
<!-- Node19&#45;&gt;Node7 -->
<g id="edge59" class="edge"><title>Node19&#45;&gt;Node7</title>
<path fill="none" stroke="midnightblue" d="M1212.59,-238.49C1308.39,-232.232 1487.91,-217.732 1507,-196 1513.45,-188.654 1512.95,-181.758 1507,-174 1438.94,-85.2754 1089.31,-34.4434 955.333,-17.9717"/>
<polygon fill="midnightblue" stroke="midnightblue" points="1212.21,-235.006 1202.46,-239.141 1212.66,-241.992 1212.21,-235.006"/>
</g>
<!-- Node19&#45;&gt;Node17 -->
<g id="edge53" class="edge"><title>Node19&#45;&gt;Node17</title>
<path fill="none" stroke="midnightblue" d="M1093.48,-235.452C987.014,-223.738 766.989,-199.531 680.27,-189.99"/>
<polygon fill="midnightblue" stroke="midnightblue" points="1093.41,-238.965 1103.73,-236.58 1094.18,-232.007 1093.41,-238.965"/>
</g>
<!-- Node19&#45;&gt;Node18 -->
<g id="edge58" class="edge"><title>Node19&#45;&gt;Node18</title>
<path fill="none" stroke="midnightblue" d="M1135.67,-225.829C1126.62,-217.184 1115.48,-206.238 1106,-196 1087.16,-175.653 1066.64,-150.301 1056.11,-137.041"/>
<polygon fill="midnightblue" stroke="midnightblue" points="1133.33,-228.429 1143,-232.758 1138.14,-223.343 1133.33,-228.429"/>
</g>
<!-- Node20 -->
<g id="node20" class="node"><title>Node20</title>
<g id="a_node20"><a xlink:href="info_8h.html" target="_top" xlink:title="Helper functions for manipulating RMF files. ">
<polygon fill="none" stroke="black" points="1114.77,-175 1114.77,-195 1155.23,-195 1155.23,-175 1114.77,-175"/>
<text text-anchor="middle" x="1135" y="-181" font-family="Helvetica,sans-Serif" font-size="10.00">info.h</text>
</a>
</g>
</g>
<!-- Node19&#45;&gt;Node20 -->
<g id="edge54" class="edge"><title>Node19&#45;&gt;Node20</title>
<path fill="none" stroke="midnightblue" d="M1146.9,-223.012C1143.86,-213.574 1140.34,-202.607 1137.92,-195.075"/>
<polygon fill="midnightblue" stroke="midnightblue" points="1143.64,-224.304 1150.03,-232.753 1150.3,-222.161 1143.64,-224.304"/>
</g>
<!-- Node21 -->
<g id="node21" class="node"><title>Node21</title>
<g id="a_node21"><a xlink:href="RestoreCurrentFrame_8h.html" target="_top" xlink:title="Handle read/write of Model data from/to files. ">
<polygon fill="none" stroke="black" points="1173.2,-175 1173.2,-195 1294.8,-195 1294.8,-175 1173.2,-175"/>
<text text-anchor="middle" x="1234" y="-181" font-family="Helvetica,sans-Serif" font-size="10.00">RestoreCurrentFrame.h</text>
</a>
</g>
</g>
<!-- Node19&#45;&gt;Node21 -->
<g id="edge55" class="edge"><title>Node19&#45;&gt;Node21</title>
<path fill="none" stroke="midnightblue" d="M1174.89,-226.866C1189.58,-216.707 1208.46,-203.66 1220.87,-195.075"/>
<polygon fill="midnightblue" stroke="midnightblue" points="1172.61,-224.187 1166.38,-232.753 1176.59,-229.945 1172.61,-224.187"/>
</g>
<!-- Node22 -->
<g id="node22" class="node"><title>Node22</title>
<g id="a_node22"><a xlink:href="SetCurrentFrame_8h.html" target="_top" xlink:title="Handle read/write of Model data from/to files. ">
<polygon fill="none" stroke="black" points="1313.21,-175 1313.21,-195 1414.79,-195 1414.79,-175 1313.21,-175"/>
<text text-anchor="middle" x="1364" y="-181" font-family="Helvetica,sans-Serif" font-size="10.00">SetCurrentFrame.h</text>
</a>
</g>
</g>
<!-- Node19&#45;&gt;Node22 -->
<g id="edge56" class="edge"><title>Node19&#45;&gt;Node22</title>
<path fill="none" stroke="midnightblue" d="M1197.27,-230.249C1236.83,-219.752 1293.93,-204.596 1329.99,-195.025"/>
<polygon fill="midnightblue" stroke="midnightblue" points="1196.14,-226.93 1187.37,-232.878 1197.93,-233.696 1196.14,-226.93"/>
</g>
<!-- Node23 -->
<g id="node23" class="node"><title>Node23</title>
<g id="a_node23"><a xlink:href="signature_8h.html" target="_top" xlink:title="Helper functions for manipulating RMF files. ">
<polygon fill="none" stroke="black" points="1433.26,-175 1433.26,-195 1498.74,-195 1498.74,-175 1433.26,-175"/>
<text text-anchor="middle" x="1466" y="-181" font-family="Helvetica,sans-Serif" font-size="10.00">signature.h</text>
</a>
</g>
</g>
<!-- Node19&#45;&gt;Node23 -->
<g id="edge57" class="edge"><title>Node19&#45;&gt;Node23</title>
<path fill="none" stroke="midnightblue" d="M1212.33,-232.937C1267.16,-224.314 1350.81,-210.53 1423,-196 1426.31,-195.335 1429.75,-194.602 1433.18,-193.846"/>
<polygon fill="midnightblue" stroke="midnightblue" points="1211.77,-229.482 1202.43,-234.487 1212.85,-236.397 1211.77,-229.482"/>
</g>
</g>
</svg>
        <g id="navigator" transform="translate(0 0)" fill="#404254">
                <rect fill="#f2f5e9" fill-opacity="0.5" stroke="#606060" stroke-width=".5" x="0" y="0" width="60" height="60"/>
                <use id="zoomplus" xlink:href="#zoomPlus" x="17" y="9" onmousedown="handleZoom(evt,'in')"/>
                <use id="zoomminus" xlink:href="#zoomMin" x="42" y="9" onmousedown="handleZoom(evt,'out')"/>
                <use id="reset" xlink:href="#resetDef" x="30" y="36" onmousedown="handleReset()"/>
                <g id="arrowUp" xlink:href="#dirArrow" transform="translate(30 24)" onmousedown="handlePan(0,-1)">
                  <use xlink:href="#rim" fill="#404040">
                        <set attributeName="fill" to="#808080" begin="arrowUp.mouseover" end="arrowUp.mouseout"/>
                  </use>
                  <path fill="none" stroke="white" stroke-width="1.5" d="M0,-3.0v7 M-2.5,-0.5L0,-3.0L2.5,-0.5"/>
                </g>
                <g id="arrowRight" xlink:href="#dirArrow" transform="rotate(90) translate(36 -43)" onmousedown="handlePan(1,0)">
                  <use xlink:href="#rim" fill="#404040">
                        <set attributeName="fill" to="#808080" begin="arrowRight.mouseover" end="arrowRight.mouseout"/>
                  </use>
                  <path fill="none" stroke="white" stroke-width="1.5" d="M0,-3.0v7 M-2.5,-0.5L0,-3.0L2.5,-0.5"/>
                </g>
                <g id="arrowDown" xlink:href="#dirArrow" transform="rotate(180) translate(-30 -48)" onmousedown="handlePan(0,1)">
                  <use xlink:href="#rim" fill="#404040">
                        <set attributeName="fill" to="#808080" begin="arrowDown.mouseover" end="arrowDown.mouseout"/>
                  </use>
                  <path fill="none" stroke="white" stroke-width="1.5" d="M0,-3.0v7 M-2.5,-0.5L0,-3.0L2.5,-0.5"/>
                </g>
                <g id="arrowLeft" xlink:href="#dirArrow" transform="rotate(270) translate(-36 17)" onmousedown="handlePan(-1,0)">
                  <use xlink:href="#rim" fill="#404040">
                        <set attributeName="fill" to="#808080" begin="arrowLeft.mouseover" end="arrowLeft.mouseout"/>
                  </use>
                  <path fill="none" stroke="white" stroke-width="1.5" d="M0,-3.0v7 M-2.5,-0.5L0,-3.0L2.5,-0.5"/>
                </g>
        </g>
        <svg viewBox="0 0 15 15" width="100%" height="30px" preserveAspectRatio="xMaxYMin meet">
         <g id="arrow_out" transform="scale(0.3 0.3)">
          <a xlink:href="constants_8h__dep__incl_org.svg" target="_base">
           <rect id="button" ry="5" rx="5" y="6" x="6" height="38" width="38"
                fill="#f2f5e9" fill-opacity="0.5" stroke="#606060" stroke-width="1.0"/>
           <path id="arrow"
             d="M 11.500037,31.436501 C 11.940474,20.09759 22.043105,11.32322 32.158766,21.979434 L 37.068811,17.246167 C 37.068811,17.246167 37.088388,32 37.088388,32 L 22.160133,31.978069 C 22.160133,31.978069 26.997745,27.140456 26.997745,27.140456 C 18.528582,18.264221 13.291696,25.230495 11.500037,31.436501 z"
             style="fill:#404040;"/>
          </a>
         </g>
        </svg>
</svg>
