<?xml version="1.0" encoding="UTF-8" standalone="no"?>
<!DOCTYPE svg PUBLIC "-//W3C//DTD SVG 1.1//EN"
 "http://www.w3.org/Graphics/SVG/1.1/DTD/svg11.dtd">
<!-- Generated by graphviz version 2.36.0 (20140111.2315)
 -->
<!-- Title: CoordinateTransformer.h Pages: 1 -->
<svg width="1395pt" height="262pt"
 viewBox="0.00 0.00 1395.00 262.00" xmlns="http://www.w3.org/2000/svg" xmlns:xlink="http://www.w3.org/1999/xlink">
<g id="graph0" class="graph" transform="scale(1 1) rotate(0) translate(4 258)">
<title>CoordinateTransformer.h</title>
<!-- Node1 -->
<g id="node1" class="node"><title>Node1</title>
<polygon fill="#bfbfbf" stroke="black" points="1115.6,-235 1115.6,-253 1242.4,-253 1242.4,-235 1115.6,-235"/>
<text text-anchor="middle" x="1179" y="-241" font-family="Helvetica,sans-Serif" font-size="10.00">CoordinateTransformer.h</text>
</g>
<!-- Node2 -->
<g id="node2" class="node"><title>Node2</title>
<polygon fill="none" stroke="#bfbfbf" points="-0.615723,-57 -0.615723,-75 42.6157,-75 42.6157,-57 -0.615723,-57"/>
<text text-anchor="middle" x="21" y="-63" font-family="Helvetica,sans-Serif" font-size="10.00">vector</text>
</g>
<!-- Node1&#45;&gt;Node2 -->
<g id="edge1" class="edge"><title>Node1&#45;&gt;Node2</title>
<path fill="none" stroke="midnightblue" d="M1115.3,-243.547C909.659,-244.327 266.39,-238.796 87,-142 62.0143,-128.518 41.9972,-101.614 30.81,-83.9643"/>
<polygon fill="midnightblue" stroke="midnightblue" points="33.7062,-81.9902 25.5278,-75.2549 27.7209,-85.6202 33.7062,-81.9902"/>
</g>
<!-- Node3 -->
<g id="node3" class="node"><title>Node3</title>
<g id="a_node3"><a xlink:href="Vector_8h.html" target="_top" xlink:title="Represent coordinates. ">
<polygon fill="none" stroke="black" points="695.707,-179 695.707,-197 772.293,-197 772.293,-179 695.707,-179"/>
<text text-anchor="middle" x="734" y="-185" font-family="Helvetica,sans-Serif" font-size="10.00">RMF/Vector.h</text>
</a>
</g>
</g>
<!-- Node1&#45;&gt;Node3 -->
<g id="edge2" class="edge"><title>Node1&#45;&gt;Node3</title>
<path fill="none" stroke="midnightblue" d="M1115.24,-235.263C1025.43,-224.364 863.607,-204.728 782.751,-194.916"/>
<polygon fill="midnightblue" stroke="midnightblue" points="782.712,-191.386 772.363,-193.655 781.869,-198.335 782.712,-191.386"/>
</g>
<!-- Node4 -->
<g id="node4" class="node"><title>Node4</title>
<g id="a_node4"><a xlink:href="config_8h_source.html" target="_top" xlink:title="RMF/config.h">
<polygon fill="none" stroke="black" points="952.269,-57 952.269,-75 1027.73,-75 1027.73,-57 952.269,-57"/>
<text text-anchor="middle" x="990" y="-63" font-family="Helvetica,sans-Serif" font-size="10.00">RMF/config.h</text>
</a>
</g>
</g>
<!-- Node1&#45;&gt;Node4 -->
<g id="edge28" class="edge"><title>Node1&#45;&gt;Node4</title>
<path fill="none" stroke="midnightblue" d="M1180.47,-234.994C1184.12,-212.458 1191.1,-147.798 1159,-112 1142.92,-94.0698 1081.87,-81.0811 1037.76,-73.795"/>
<polygon fill="midnightblue" stroke="midnightblue" points="1038.22,-70.3238 1027.79,-72.1966 1037.11,-77.2355 1038.22,-70.3238"/>
</g>
<!-- Node5 -->
<g id="node5" class="node"><title>Node5</title>
<g id="a_node5"><a xlink:href="compiler__macros_8h.html" target="_top" xlink:title="Various compiler workarounds. ">
<polygon fill="none" stroke="black" points="771.544,-1 771.544,-19 896.456,-19 896.456,-1 771.544,-1"/>
<text text-anchor="middle" x="834" y="-7" font-family="Helvetica,sans-Serif" font-size="10.00">RMF/compiler_macros.h</text>
</a>
</g>
</g>
<!-- Node1&#45;&gt;Node5 -->
<g id="edge27" class="edge"><title>Node1&#45;&gt;Node5</title>
<path fill="none" stroke="midnightblue" d="M1183.29,-234.992C1187.74,-226.207 1194.39,-211.55 1197,-198 1204.35,-159.823 1206.64,-141.228 1181,-112 1143.4,-69.1361 984.294,-36.2281 895.157,-20.744"/>
<polygon fill="midnightblue" stroke="midnightblue" points="895.621,-17.2726 885.174,-19.0318 894.438,-24.1719 895.621,-17.2726"/>
</g>
<!-- Node6 -->
<g id="node6" class="node"><title>Node6</title>
<g id="a_node6"><a xlink:href="infrastructure__macros_8h.html" target="_top" xlink:title="Various general useful macros for IMP. ">
<polygon fill="none" stroke="black" points="96.4805,-118 96.4805,-136 217.52,-136 217.52,-118 96.4805,-118"/>
<text text-anchor="middle" x="157" y="-124" font-family="Helvetica,sans-Serif" font-size="10.00">infrastructure_macros.h</text>
</a>
</g>
</g>
<!-- Node1&#45;&gt;Node6 -->
<g id="edge30" class="edge"><title>Node1&#45;&gt;Node6</title>
<path fill="none" stroke="midnightblue" d="M1115.39,-238.687C961.804,-227.745 558.789,-195.887 226,-142 218.783,-140.831 211.172,-139.445 203.744,-138.005"/>
<polygon fill="midnightblue" stroke="midnightblue" points="204.275,-134.542 193.785,-136.026 202.91,-141.408 204.275,-134.542"/>
</g>
<!-- Node26 -->
<g id="node23" class="node"><title>Node26</title>
<polygon fill="none" stroke="#bfbfbf" points="1244.94,-179 1244.94,-197 1297.06,-197 1297.06,-179 1244.94,-179"/>
<text text-anchor="middle" x="1271" y="-185" font-family="Helvetica,sans-Serif" font-size="10.00">ostream</text>
</g>
<!-- Node1&#45;&gt;Node26 -->
<g id="edge29" class="edge"><title>Node1&#45;&gt;Node26</title>
<path fill="none" stroke="midnightblue" d="M1192.97,-234.799C1207.65,-226.185 1230.96,-212.504 1248.28,-202.335"/>
<polygon fill="midnightblue" stroke="midnightblue" points="1250.34,-205.182 1257.2,-197.102 1246.8,-199.145 1250.34,-205.182"/>
</g>
<!-- Node27 -->
<g id="node24" class="node"><title>Node27</title>
<polygon fill="none" stroke="#bfbfbf" points="1314.66,-179 1314.66,-197 1387.34,-197 1387.34,-179 1314.66,-179"/>
<text text-anchor="middle" x="1351" y="-185" font-family="Helvetica,sans-Serif" font-size="10.00">RMF/types.h</text>
</g>
<!-- Node1&#45;&gt;Node27 -->
<g id="edge31" class="edge"><title>Node1&#45;&gt;Node27</title>
<path fill="none" stroke="midnightblue" d="M1204.75,-234.916C1234.22,-225.663 1282.66,-210.455 1315.65,-200.098"/>
<polygon fill="midnightblue" stroke="midnightblue" points="1316.86,-203.386 1325.36,-197.051 1314.77,-196.707 1316.86,-203.386"/>
</g>
<!-- Node3&#45;&gt;Node4 -->
<g id="edge3" class="edge"><title>Node3&#45;&gt;Node4</title>
<path fill="none" stroke="midnightblue" d="M766.009,-178.932C792.678,-171.476 831.149,-158.981 862,-142 880.851,-131.624 881.838,-123.539 900,-112 919.782,-99.4328 943.547,-87.679 961.687,-79.3374"/>
<polygon fill="midnightblue" stroke="midnightblue" points="963.456,-82.3792 971.126,-75.0708 960.572,-76.0007 963.456,-82.3792"/>
</g>
<!-- Node3&#45;&gt;Node6 -->
<g id="edge5" class="edge"><title>Node3&#45;&gt;Node6</title>
<path fill="none" stroke="midnightblue" d="M695.594,-185.068C610.612,-180.472 400.364,-167.331 226,-142 218.43,-140.9 210.438,-139.502 202.683,-138.016"/>
<polygon fill="midnightblue" stroke="midnightblue" points="203.169,-134.544 192.679,-136.031 201.807,-141.41 203.169,-134.544"/>
</g>
<!-- Node14 -->
<g id="node13" class="node"><title>Node14</title>
<g id="a_node13"><a xlink:href="exceptions_8h.html" target="_top" xlink:title="Declarations of the various exception types. ">
<polygon fill="none" stroke="black" points="780.926,-118 780.926,-136 853.074,-136 853.074,-118 780.926,-118"/>
<text text-anchor="middle" x="817" y="-124" font-family="Helvetica,sans-Serif" font-size="10.00">exceptions.h</text>
</a>
</g>
</g>
<!-- Node3&#45;&gt;Node14 -->
<g id="edge14" class="edge"><title>Node3&#45;&gt;Node14</title>
<path fill="none" stroke="midnightblue" d="M745.541,-178.796C758.92,-169.285 781.196,-153.451 797.325,-141.986"/>
<polygon fill="midnightblue" stroke="midnightblue" points="799.434,-144.781 805.557,-136.134 795.379,-139.075 799.434,-144.781"/>
</g>
<!-- Node18 -->
<g id="node16" class="node"><title>Node18</title>
<polygon fill="none" stroke="#bfbfbf" points="909.237,-118 909.237,-136 1024.76,-136 1024.76,-118 909.237,-118"/>
<text text-anchor="middle" x="967" y="-124" font-family="Helvetica,sans-Serif" font-size="10.00">boost/range/begin.hpp</text>
</g>
<!-- Node3&#45;&gt;Node18 -->
<g id="edge20" class="edge"><title>Node3&#45;&gt;Node18</title>
<path fill="none" stroke="midnightblue" d="M765.909,-178.92C807.275,-168.445 879.512,-150.154 925.214,-138.581"/>
<polygon fill="midnightblue" stroke="midnightblue" points="926.268,-141.925 935.103,-136.077 924.55,-135.139 926.268,-141.925"/>
</g>
<!-- Node19 -->
<g id="node17" class="node"><title>Node19</title>
<polygon fill="none" stroke="#bfbfbf" points="1043.13,-118 1043.13,-136 1150.87,-136 1150.87,-118 1043.13,-118"/>
<text text-anchor="middle" x="1097" y="-124" font-family="Helvetica,sans-Serif" font-size="10.00">boost/range/end.hpp</text>
</g>
<!-- Node3&#45;&gt;Node19 -->
<g id="edge21" class="edge"><title>Node3&#45;&gt;Node19</title>
<path fill="none" stroke="midnightblue" d="M772.366,-182.051C829.394,-174.507 939.819,-159.184 1033,-142 1039.24,-140.849 1045.8,-139.535 1052.24,-138.184"/>
<polygon fill="midnightblue" stroke="midnightblue" points="1053.16,-141.566 1062.21,-136.048 1051.7,-134.721 1053.16,-141.566"/>
</g>
<!-- Node20 -->
<g id="node18" class="node"><title>Node20</title>
<polygon fill="none" stroke="#bfbfbf" points="235.313,-113 235.313,-141 334.687,-141 334.687,-113 235.313,-113"/>
<text text-anchor="start" x="243.313" y="-129" font-family="Helvetica,sans-Serif" font-size="10.00">boost/type_traits/is</text>
<text text-anchor="middle" x="285" y="-119" font-family="Helvetica,sans-Serif" font-size="10.00">_convertible.hpp</text>
</g>
<!-- Node3&#45;&gt;Node20 -->
<g id="edge22" class="edge"><title>Node3&#45;&gt;Node20</title>
<path fill="none" stroke="midnightblue" d="M695.479,-184.139C626.817,-178.699 478.631,-165.425 344.915,-142.217"/>
<polygon fill="midnightblue" stroke="midnightblue" points="345.36,-138.742 334.905,-140.456 344.148,-145.636 345.36,-138.742"/>
</g>
<!-- Node21 -->
<g id="node19" class="node"><title>Node21</title>
<polygon fill="none" stroke="#bfbfbf" points="352.251,-118 352.251,-136 447.749,-136 447.749,-118 352.251,-118"/>
<text text-anchor="middle" x="400" y="-124" font-family="Helvetica,sans-Serif" font-size="10.00">boost/mpl/not.hpp</text>
</g>
<!-- Node3&#45;&gt;Node21 -->
<g id="edge23" class="edge"><title>Node3&#45;&gt;Node21</title>
<path fill="none" stroke="midnightblue" d="M695.285,-181.706C641.57,-174.135 541.5,-159.212 457,-142 451.633,-140.907 446.007,-139.655 440.467,-138.361"/>
<polygon fill="midnightblue" stroke="midnightblue" points="441.205,-134.938 430.664,-136.008 439.571,-141.745 441.205,-134.938"/>
</g>
<!-- Node22 -->
<g id="node20" class="node"><title>Node22</title>
<polygon fill="none" stroke="#bfbfbf" points="465.625,-118 465.625,-136 550.375,-136 550.375,-118 465.625,-118"/>
<text text-anchor="middle" x="508" y="-124" font-family="Helvetica,sans-Serif" font-size="10.00">boost/array.hpp</text>
</g>
<!-- Node3&#45;&gt;Node22 -->
<g id="edge24" class="edge"><title>Node3&#45;&gt;Node22</title>
<path fill="none" stroke="midnightblue" d="M702.542,-178.964C667.673,-170.034 609.779,-155.138 560,-142 555.932,-140.926 551.688,-139.798 547.454,-138.666"/>
<polygon fill="midnightblue" stroke="midnightblue" points="548.25,-135.256 537.685,-136.047 546.437,-142.017 548.25,-135.256"/>
</g>
<!-- Node23 -->
<g id="node21" class="node"><title>Node23</title>
<polygon fill="none" stroke="#bfbfbf" points="568.582,-118 568.582,-136 687.418,-136 687.418,-118 568.582,-118"/>
<text text-anchor="middle" x="628" y="-124" font-family="Helvetica,sans-Serif" font-size="10.00">boost/static_assert.hpp</text>
</g>
<!-- Node3&#45;&gt;Node23 -->
<g id="edge25" class="edge"><title>Node3&#45;&gt;Node23</title>
<path fill="none" stroke="midnightblue" d="M719.261,-178.796C701.699,-169.021 672.136,-152.566 651.429,-141.041"/>
<polygon fill="midnightblue" stroke="midnightblue" points="653.054,-137.939 642.614,-136.134 649.649,-144.056 653.054,-137.939"/>
</g>
<!-- Node24 -->
<g id="node22" class="node"><title>Node24</title>
<polygon fill="none" stroke="#bfbfbf" points="705.436,-118 705.436,-136 762.564,-136 762.564,-118 705.436,-118"/>
<text text-anchor="middle" x="734" y="-124" font-family="Helvetica,sans-Serif" font-size="10.00">algorithm</text>
</g>
<!-- Node3&#45;&gt;Node24 -->
<g id="edge26" class="edge"><title>Node3&#45;&gt;Node24</title>
<path fill="none" stroke="midnightblue" d="M734,-178.796C734,-170.43 734,-157.171 734,-146.297"/>
<polygon fill="midnightblue" stroke="midnightblue" points="737.5,-146.134 734,-136.134 730.5,-146.134 737.5,-146.134"/>
</g>
<!-- Node4&#45;&gt;Node5 -->
<g id="edge4" class="edge"><title>Node4&#45;&gt;Node5</title>
<path fill="none" stroke="midnightblue" d="M966.645,-56.9157C940.147,-47.743 896.738,-32.7171 866.838,-22.3669"/>
<polygon fill="midnightblue" stroke="midnightblue" points="867.854,-19.015 857.259,-19.0513 865.564,-25.6299 867.854,-19.015"/>
</g>
<!-- Node6&#45;&gt;Node2 -->
<g id="edge10" class="edge"><title>Node6&#45;&gt;Node2</title>
<path fill="none" stroke="midnightblue" d="M138.375,-117.92C115.309,-107.914 75.7993,-90.7732 49.0572,-79.1719"/>
<polygon fill="midnightblue" stroke="midnightblue" points="50.4034,-75.9408 39.8365,-75.1717 47.6175,-82.3625 50.4034,-75.9408"/>
</g>
<!-- Node6&#45;&gt;Node5 -->
<g id="edge9" class="edge"><title>Node6&#45;&gt;Node5</title>
<path fill="none" stroke="midnightblue" d="M193.783,-117.961C204.169,-115.848 215.501,-113.69 226,-112 359.019,-90.5869 395.194,-103.924 527,-76 556.569,-69.7356 562.649,-63.2192 592,-56 652.243,-41.1825 721.984,-28.6992 771.077,-20.6678"/>
<polygon fill="midnightblue" stroke="midnightblue" points="771.918,-24.0773 781.229,-19.0223 770.798,-17.1675 771.918,-24.0773"/>
</g>
<!-- Node7 -->
<g id="node7" class="node"><title>Node7</title>
<polygon fill="none" stroke="#bfbfbf" points="60.2192,-57 60.2192,-75 111.781,-75 111.781,-57 60.2192,-57"/>
<text text-anchor="middle" x="86" y="-63" font-family="Helvetica,sans-Serif" font-size="10.00">sstream</text>
</g>
<!-- Node6&#45;&gt;Node7 -->
<g id="edge6" class="edge"><title>Node6&#45;&gt;Node7</title>
<path fill="none" stroke="midnightblue" d="M147.128,-117.796C135.894,-108.462 117.331,-93.0352 103.602,-81.6273"/>
<polygon fill="midnightblue" stroke="midnightblue" points="105.716,-78.8334 95.7884,-75.134 101.243,-84.2171 105.716,-78.8334"/>
</g>
<!-- Node8 -->
<g id="node8" class="node"><title>Node8</title>
<polygon fill="none" stroke="#bfbfbf" points="129.828,-57 129.828,-75 184.172,-75 184.172,-57 129.828,-57"/>
<text text-anchor="middle" x="157" y="-63" font-family="Helvetica,sans-Serif" font-size="10.00">iostream</text>
</g>
<!-- Node6&#45;&gt;Node8 -->
<g id="edge7" class="edge"><title>Node6&#45;&gt;Node8</title>
<path fill="none" stroke="midnightblue" d="M157,-117.796C157,-109.43 157,-96.1713 157,-85.2974"/>
<polygon fill="midnightblue" stroke="midnightblue" points="160.5,-85.134 157,-75.134 153.5,-85.1341 160.5,-85.134"/>
</g>
<!-- Node9 -->
<g id="node9" class="node"><title>Node9</title>
<polygon fill="none" stroke="#bfbfbf" points="600.773,-57 600.773,-75 641.227,-75 641.227,-57 600.773,-57"/>
<text text-anchor="middle" x="621" y="-63" font-family="Helvetica,sans-Serif" font-size="10.00">string</text>
</g>
<!-- Node6&#45;&gt;Node9 -->
<g id="edge8" class="edge"><title>Node6&#45;&gt;Node9</title>
<path fill="none" stroke="midnightblue" d="M193.409,-117.935C203.892,-115.797 215.368,-113.633 226,-112 377.506,-88.7336 417.175,-97.0822 569,-76 575.951,-75.0348 583.397,-73.8415 590.42,-72.643"/>
<polygon fill="midnightblue" stroke="midnightblue" points="591.056,-76.0851 600.301,-70.9094 589.846,-69.1904 591.056,-76.0851"/>
</g>
<!-- Node11 -->
<g id="node10" class="node"><title>Node11</title>
<polygon fill="none" stroke="#bfbfbf" points="202.306,-57 202.306,-75 291.694,-75 291.694,-57 202.306,-57"/>
<text text-anchor="middle" x="247" y="-63" font-family="Helvetica,sans-Serif" font-size="10.00">boost/config.hpp</text>
</g>
<!-- Node6&#45;&gt;Node11 -->
<g id="edge11" class="edge"><title>Node6&#45;&gt;Node11</title>
<path fill="none" stroke="midnightblue" d="M169.514,-117.796C184.157,-108.197 208.625,-92.1571 226.15,-80.6686"/>
<polygon fill="midnightblue" stroke="midnightblue" points="228.148,-83.5437 234.592,-75.134 224.31,-77.6895 228.148,-83.5437"/>
</g>
<!-- Node12 -->
<g id="node11" class="node"><title>Node12</title>
<polygon fill="none" stroke="#bfbfbf" points="309.53,-57 309.53,-75 404.47,-75 404.47,-57 309.53,-57"/>
<text text-anchor="middle" x="357" y="-63" font-family="Helvetica,sans-Serif" font-size="10.00">boost/version.hpp</text>
</g>
<!-- Node6&#45;&gt;Node12 -->
<g id="edge12" class="edge"><title>Node6&#45;&gt;Node12</title>
<path fill="none" stroke="midnightblue" d="M184.39,-117.92C219.524,-107.555 280.603,-89.537 319.889,-77.9479"/>
<polygon fill="midnightblue" stroke="midnightblue" points="321.02,-81.2634 329.621,-75.0769 319.039,-74.5494 321.02,-81.2634"/>
</g>
<!-- Node13 -->
<g id="node12" class="node"><title>Node13</title>
<polygon fill="none" stroke="#bfbfbf" points="421.971,-57 421.971,-75 518.029,-75 518.029,-57 421.971,-57"/>
<text text-anchor="middle" x="470" y="-63" font-family="Helvetica,sans-Serif" font-size="10.00">boost/foreach.hpp</text>
</g>
<!-- Node6&#45;&gt;Node13 -->
<g id="edge13" class="edge"><title>Node6&#45;&gt;Node13</title>
<path fill="none" stroke="midnightblue" d="M196.021,-117.957C205.803,-115.975 216.28,-113.882 226,-112 290.885,-99.4352 365.64,-85.7673 415.127,-76.8319"/>
<polygon fill="midnightblue" stroke="midnightblue" points="415.763,-80.2737 424.983,-75.0545 414.521,-73.3848 415.763,-80.2737"/>
</g>
<!-- Node14&#45;&gt;Node4 -->
<g id="edge18" class="edge"><title>Node14&#45;&gt;Node4</title>
<path fill="none" stroke="midnightblue" d="M840.692,-117.92C870.761,-107.665 922.798,-89.9187 956.81,-78.3191"/>
<polygon fill="midnightblue" stroke="midnightblue" points="957.982,-81.6174 966.317,-75.0769 955.723,-74.9921 957.982,-81.6174"/>
</g>
<!-- Node14&#45;&gt;Node5 -->
<g id="edge19" class="edge"><title>Node14&#45;&gt;Node5</title>
<path fill="none" stroke="midnightblue" d="M793.87,-117.926C760.625,-106.092 702.681,-84.5209 697,-76 692.069,-68.604 691.787,-63.1996 697,-56 712.034,-35.2376 736.958,-23.885 761.457,-17.7363"/>
<polygon fill="midnightblue" stroke="midnightblue" points="762.538,-21.081 771.531,-15.4802 761.008,-14.2502 762.538,-21.081"/>
</g>
<!-- Node14&#45;&gt;Node9 -->
<g id="edge17" class="edge"><title>Node14&#45;&gt;Node9</title>
<path fill="none" stroke="midnightblue" d="M790.734,-117.986C784.282,-116.023 777.393,-113.932 771,-112 729.56,-99.4778 681.641,-85.1241 651.334,-76.0615"/>
<polygon fill="midnightblue" stroke="midnightblue" points="651.971,-72.5991 641.388,-73.0883 649.966,-79.3059 651.971,-72.5991"/>
</g>
<!-- Node15 -->
<g id="node14" class="node"><title>Node15</title>
<polygon fill="none" stroke="#bfbfbf" points="706.451,-57 706.451,-75 857.549,-75 857.549,-57 706.451,-57"/>
<text text-anchor="middle" x="782" y="-63" font-family="Helvetica,sans-Serif" font-size="10.00">boost/exception/exception.hpp</text>
</g>
<!-- Node14&#45;&gt;Node15 -->
<g id="edge15" class="edge"><title>Node14&#45;&gt;Node15</title>
<path fill="none" stroke="midnightblue" d="M812.133,-117.796C806.962,-109.078 798.638,-95.0461 792.047,-83.9371"/>
<polygon fill="midnightblue" stroke="midnightblue" points="794.938,-81.9489 786.825,-75.134 788.917,-85.5203 794.938,-81.9489"/>
</g>
<!-- Node16 -->
<g id="node15" class="node"><title>Node16</title>
<polygon fill="none" stroke="#bfbfbf" points="875.596,-57 875.596,-75 934.404,-75 934.404,-57 875.596,-57"/>
<text text-anchor="middle" x="905" y="-63" font-family="Helvetica,sans-Serif" font-size="10.00">exception</text>
</g>
<!-- Node14&#45;&gt;Node16 -->
<g id="edge16" class="edge"><title>Node14&#45;&gt;Node16</title>
<path fill="none" stroke="midnightblue" d="M829.236,-117.796C843.422,-108.285 867.039,-92.4509 884.14,-80.986"/>
<polygon fill="midnightblue" stroke="midnightblue" points="886.511,-83.6099 892.868,-75.134 882.613,-77.7957 886.511,-83.6099"/>
</g>
</g>
</svg>
