<?xml version="1.0" encoding="UTF-8" standalone="no"?>
<!DOCTYPE svg PUBLIC "-//W3C//DTD SVG 1.1//EN"
 "http://www.w3.org/Graphics/SVG/1.1/DTD/svg11.dtd">
<!-- Generated by graphviz version 2.34.0 (20131025.1349)
 -->
<!-- Title: CoordinateTransformer.h Pages: 1 -->
<!--zoomable 298 -->
<svg id="main" version="1.1" xmlns="http://www.w3.org/2000/svg" xmlns:xlink="http://www.w3.org/1999/xlink" xml:space="preserve" onload="init(evt)">
<style type="text/css"><![CDATA[
.edge:hover path { stroke: red; }
.edge:hover polygon { stroke: red; fill: red; }
]]></style>
<script type="text/javascript"><![CDATA[
var edges = document.getElementsByTagName('g');
if (edges && edges.length) {
  for (var i=0;i<edges.length;i++) {
    if (edges[i].id.substr(0,4)=='edge') {
      edges[i].setAttribute('class','edge');
    }
  }
}
]]></script>
        <defs>
                <circle id="rim" cx="0" cy="0" r="7"/>
                <circle id="rim2" cx="0" cy="0" r="3.5"/>
                <g id="zoomPlus">
                        <use xlink:href="#rim" fill="#404040">
                                <set attributeName="fill" to="#808080" begin="zoomplus.mouseover" end="zoomplus.mouseout"/>
                        </use>
                        <path d="M-4,0h8M0,-4v8" fill="none" stroke="white" stroke-width="1.5" pointer-events="none"/>
                </g>
                <g id="zoomMin">
                        <use xlink:href="#rim" fill="#404040">
                                <set attributeName="fill" to="#808080" begin="zoomminus.mouseover" end="zoomminus.mouseout"/>
                        </use>
                        <path d="M-4,0h8" fill="none" stroke="white" stroke-width="1.5" pointer-events="none"/>
                </g>
                <g id="dirArrow">
                        <path fill="none" stroke="white" stroke-width="1.5" d="M0,-3.0v7 M-2.5,-0.5L0,-3.0L2.5,-0.5"/>
                </g>
               <g id="resetDef">
                       <use xlink:href="#rim2" fill="#404040">
                               <set attributeName="fill" to="#808080" begin="reset.mouseover" end="reset.mouseout"/>
                       </use>
               </g>
        </defs>

<script type="text/javascript">
var viewWidth = 1663;
var viewHeight = 298;
var sectionId = 'dynsection-0';
</script>
<script xlink:href="svgpan.js"/>
<svg id="graph" class="graph">
<g id="viewport">
<title>CoordinateTransformer.h</title>
<!-- Node1 -->
<g id="node1" class="node"><title>Node1</title>
<polygon fill="#bfbfbf" stroke="black" points="1217.6,-269 1217.6,-289 1344.4,-289 1344.4,-269 1217.6,-269"/>
<text text-anchor="middle" x="1281" y="-275" font-family="Helvetica,sans-Serif" font-size="10.00">CoordinateTransformer.h</text>
</g>
<!-- Node2 -->
<g id="node2" class="node"><title>Node2</title>
<polygon fill="none" stroke="#bfbfbf" points="-0.615723,-59 -0.615723,-79 42.6157,-79 42.6157,-59 -0.615723,-59"/>
<text text-anchor="middle" x="21" y="-65" font-family="Helvetica,sans-Serif" font-size="10.00">vector</text>
</g>
<!-- Node1&#45;&gt;Node2 -->
<g id="edge1" class="edge"><title>Node1&#45;&gt;Node2</title>
<path fill="none" stroke="midnightblue" d="M1217.42,-278.463C1082.4,-278.536 757.427,-273.891 489,-232 344.364,-209.428 306.365,-203.232 170,-150 123.311,-131.774 72.637,-102.284 44.0518,-84.6555"/>
<polygon fill="midnightblue" stroke="midnightblue" points="45.5801,-81.484 35.2421,-79.1653 41.8778,-87.4248 45.5801,-81.484"/>
</g>
<!-- Node3 -->
<g id="node3" class="node"><title>Node3</title>
<g id="a_node3"><a xlink:href="Vector_8h.html" target="_top" xlink:title="Represent coordinates. ">
<polygon fill="none" stroke="black" points="778.707,-199 778.707,-219 855.293,-219 855.293,-199 778.707,-199"/>
<text text-anchor="middle" x="817" y="-205" font-family="Helvetica,sans-Serif" font-size="10.00">RMF/Vector.h</text>
</a>
</g>
</g>
<!-- Node1&#45;&gt;Node3 -->
<g id="edge2" class="edge"><title>Node1&#45;&gt;Node3</title>
<path fill="none" stroke="midnightblue" d="M1219.38,-268.97C1126.03,-255.288 950.633,-229.584 865.635,-217.128"/>
<polygon fill="midnightblue" stroke="midnightblue" points="865.886,-213.627 855.484,-215.64 864.871,-220.553 865.886,-213.627"/>
</g>
<!-- Node4 -->
<g id="node4" class="node"><title>Node4</title>
<g id="a_node4"><a xlink:href="config_8h_source.html" target="_top" xlink:title="RMF/config.h">
<polygon fill="none" stroke="black" points="1174.27,-59 1174.27,-79 1249.73,-79 1249.73,-59 1174.27,-59"/>
<text text-anchor="middle" x="1212" y="-65" font-family="Helvetica,sans-Serif" font-size="10.00">RMF/config.h</text>
</a>
</g>
</g>
<!-- Node1&#45;&gt;Node4 -->
<g id="edge30" class="edge"><title>Node1&#45;&gt;Node4</title>
<path fill="none" stroke="midnightblue" d="M1277.95,-268.794C1267.42,-237.048 1232.48,-131.735 1218.18,-88.6343"/>
<polygon fill="midnightblue" stroke="midnightblue" points="1221.49,-87.4889 1215.02,-79.0996 1214.85,-89.693 1221.49,-87.4889"/>
</g>
<!-- Node5 -->
<g id="node5" class="node"><title>Node5</title>
<g id="a_node5"><a xlink:href="compiler__macros_8h.html" target="_top" xlink:title="Various compiler workarounds. ">
<polygon fill="none" stroke="black" points="1110.54,-1 1110.54,-21 1235.46,-21 1235.46,-1 1110.54,-1"/>
<text text-anchor="middle" x="1173" y="-7" font-family="Helvetica,sans-Serif" font-size="10.00">RMF/compiler_macros.h</text>
</a>
</g>
</g>
<!-- Node1&#45;&gt;Node5 -->
<g id="edge29" class="edge"><title>Node1&#45;&gt;Node5</title>
<path fill="none" stroke="midnightblue" d="M1282.88,-268.607C1288.84,-236.134 1304.28,-126.841 1258,-58 1247.75,-42.7507 1230.71,-32.1304 1214.58,-24.9692"/>
<polygon fill="midnightblue" stroke="midnightblue" points="1215.82,-21.6949 1205.23,-21.1437 1213.16,-28.1727 1215.82,-21.6949"/>
</g>
<!-- Node6 -->
<g id="node6" class="node"><title>Node6</title>
<g id="a_node6"><a xlink:href="infrastructure__macros_8h.html" target="_top" xlink:title="Various general useful macros for IMP. ">
<polygon fill="none" stroke="black" points="179.48,-123 179.48,-143 300.52,-143 300.52,-123 179.48,-123"/>
<text text-anchor="middle" x="240" y="-129" font-family="Helvetica,sans-Serif" font-size="10.00">infrastructure_macros.h</text>
</a>
</g>
</g>
<!-- Node1&#45;&gt;Node6 -->
<g id="edge33" class="edge"><title>Node1&#45;&gt;Node6</title>
<path fill="none" stroke="midnightblue" d="M1217.47,-274.05C1120.65,-267.63 930.464,-253.453 770,-232 563.73,-204.423 512.876,-191.741 309,-150 301.96,-148.559 294.539,-146.942 287.277,-145.304"/>
<polygon fill="midnightblue" stroke="midnightblue" points="288.053,-141.891 277.524,-143.073 286.492,-148.715 288.053,-141.891"/>
</g>
<!-- Node25 -->
<g id="node25" class="node"><title>Node25</title>
<polygon fill="none" stroke="#bfbfbf" points="1328.23,-199 1328.23,-219 1457.77,-219 1457.77,-199 1328.23,-199"/>
<text text-anchor="middle" x="1393" y="-205" font-family="Helvetica,sans-Serif" font-size="10.00">RMF/internal/Transform.h</text>
</g>
<!-- Node1&#45;&gt;Node25 -->
<g id="edge31" class="edge"><title>Node1&#45;&gt;Node25</title>
<path fill="none" stroke="midnightblue" d="M1296.1,-268.829C1314.91,-257.41 1347.25,-237.774 1369.36,-224.354"/>
<polygon fill="midnightblue" stroke="midnightblue" points="1371.4,-227.207 1378.13,-219.025 1367.77,-221.224 1371.4,-227.207"/>
</g>
<!-- Node26 -->
<g id="node26" class="node"><title>Node26</title>
<polygon fill="none" stroke="#bfbfbf" points="1475.94,-199 1475.94,-219 1528.06,-219 1528.06,-199 1475.94,-199"/>
<text text-anchor="middle" x="1502" y="-205" font-family="Helvetica,sans-Serif" font-size="10.00">ostream</text>
</g>
<!-- Node1&#45;&gt;Node26 -->
<g id="edge32" class="edge"><title>Node1&#45;&gt;Node26</title>
<path fill="none" stroke="midnightblue" d="M1335.83,-268.922C1373.4,-261.613 1423.86,-249.623 1466,-232 1470.94,-229.933 1476,-227.252 1480.7,-224.476"/>
<polygon fill="midnightblue" stroke="midnightblue" points="1482.57,-227.436 1489.18,-219.158 1478.85,-221.505 1482.57,-227.436"/>
</g>
<!-- Node27 -->
<g id="node27" class="node"><title>Node27</title>
<polygon fill="none" stroke="#bfbfbf" points="1546.33,-187 1546.33,-231 1655.67,-231 1655.67,-187 1546.33,-187"/>
<text text-anchor="start" x="1554.33" y="-217" font-family="Helvetica,sans-Serif" font-size="10.00">/Users/drussel/src</text>
<text text-anchor="start" x="1554.33" y="-205" font-family="Helvetica,sans-Serif" font-size="10.00">/rmf/rmf/include/RMF</text>
<text text-anchor="middle" x="1601" y="-193" font-family="Helvetica,sans-Serif" font-size="10.00">/types.h</text>
</g>
<!-- Node1&#45;&gt;Node27 -->
<g id="edge34" class="edge"><title>Node1&#45;&gt;Node27</title>
<path fill="none" stroke="midnightblue" d="M1344.45,-269.368C1394.27,-261.959 1465.47,-249.987 1536.05,-232.071"/>
<polygon fill="midnightblue" stroke="midnightblue" points="1537.2,-235.39 1546.01,-229.503 1535.45,-228.612 1537.2,-235.39"/>
</g>
<!-- Node3&#45;&gt;Node4 -->
<g id="edge3" class="edge"><title>Node3&#45;&gt;Node4</title>
<path fill="none" stroke="midnightblue" d="M855.405,-207.977C943.614,-207.059 1156.74,-199.635 1204,-150 1219.22,-134.01 1218.69,-107.239 1216.06,-89.1138"/>
<polygon fill="midnightblue" stroke="midnightblue" points="1219.48,-88.3467 1214.27,-79.119 1212.59,-89.579 1219.48,-88.3467"/>
</g>
<!-- Node3&#45;&gt;Node6 -->
<g id="edge5" class="edge"><title>Node3&#45;&gt;Node6</title>
<path fill="none" stroke="midnightblue" d="M778.552,-205.119C693.485,-198.415 483.078,-180.019 309,-150 301.246,-148.663 293.058,-146.995 285.137,-145.244"/>
<polygon fill="midnightblue" stroke="midnightblue" points="285.827,-141.812 275.299,-143.002 284.271,-148.637 285.827,-141.812"/>
</g>
<!-- Node14 -->
<g id="node14" class="node"><title>Node14</title>
<g id="a_node14"><a xlink:href="exceptions_8h.html" target="_top" xlink:title="Various general useful macros for IMP. ">
<polygon fill="none" stroke="black" points="863.926,-123 863.926,-143 936.074,-143 936.074,-123 863.926,-123"/>
<text text-anchor="middle" x="900" y="-129" font-family="Helvetica,sans-Serif" font-size="10.00">exceptions.h</text>
</a>
</g>
</g>
<!-- Node3&#45;&gt;Node14 -->
<g id="edge15" class="edge"><title>Node3&#45;&gt;Node14</title>
<path fill="none" stroke="midnightblue" d="M827.177,-198.926C840.867,-186.721 865.429,-164.822 882.209,-149.862"/>
<polygon fill="midnightblue" stroke="midnightblue" points="884.604,-152.415 889.739,-143.148 879.946,-147.19 884.604,-152.415"/>
</g>
<!-- Node18 -->
<g id="node18" class="node"><title>Node18</title>
<polygon fill="none" stroke="#bfbfbf" points="954.237,-123 954.237,-143 1069.76,-143 1069.76,-123 954.237,-123"/>
<text text-anchor="middle" x="1012" y="-129" font-family="Helvetica,sans-Serif" font-size="10.00">boost/range/begin.hpp</text>
</g>
<!-- Node3&#45;&gt;Node18 -->
<g id="edge22" class="edge"><title>Node3&#45;&gt;Node18</title>
<path fill="none" stroke="midnightblue" d="M840.911,-198.926C875.506,-185.798 939.655,-161.454 978.815,-146.593"/>
<polygon fill="midnightblue" stroke="midnightblue" points="980.091,-149.853 988.199,-143.032 977.608,-143.308 980.091,-149.853"/>
</g>
<!-- Node19 -->
<g id="node19" class="node"><title>Node19</title>
<polygon fill="none" stroke="#bfbfbf" points="1088.13,-123 1088.13,-143 1195.87,-143 1195.87,-123 1088.13,-123"/>
<text text-anchor="middle" x="1142" y="-129" font-family="Helvetica,sans-Serif" font-size="10.00">boost/range/end.hpp</text>
</g>
<!-- Node3&#45;&gt;Node19 -->
<g id="edge23" class="edge"><title>Node3&#45;&gt;Node19</title>
<path fill="none" stroke="midnightblue" d="M855.546,-199.766C906.537,-188.798 999.168,-168.61 1078,-150 1084.07,-148.567 1090.46,-147.019 1096.75,-145.47"/>
<polygon fill="midnightblue" stroke="midnightblue" points="1097.63,-148.857 1106.5,-143.053 1095.95,-142.063 1097.63,-148.857"/>
</g>
<!-- Node20 -->
<g id="node20" class="node"><title>Node20</title>
<polygon fill="none" stroke="#bfbfbf" points="318.313,-117 318.313,-149 417.687,-149 417.687,-117 318.313,-117"/>
<text text-anchor="start" x="326.313" y="-135" font-family="Helvetica,sans-Serif" font-size="10.00">boost/type_traits/is</text>
<text text-anchor="middle" x="368" y="-123" font-family="Helvetica,sans-Serif" font-size="10.00">_convertible.hpp</text>
</g>
<!-- Node3&#45;&gt;Node20 -->
<g id="edge24" class="edge"><title>Node3&#45;&gt;Node20</title>
<path fill="none" stroke="midnightblue" d="M778.706,-203.891C710.088,-196.188 561.558,-177.977 427.897,-150.276"/>
<polygon fill="midnightblue" stroke="midnightblue" points="428.398,-146.805 417.892,-148.179 426.961,-153.656 428.398,-146.805"/>
</g>
<!-- Node21 -->
<g id="node21" class="node"><title>Node21</title>
<polygon fill="none" stroke="#bfbfbf" points="435.251,-123 435.251,-143 530.749,-143 530.749,-123 435.251,-123"/>
<text text-anchor="middle" x="483" y="-129" font-family="Helvetica,sans-Serif" font-size="10.00">boost/mpl/not.hpp</text>
</g>
<!-- Node3&#45;&gt;Node21 -->
<g id="edge25" class="edge"><title>Node3&#45;&gt;Node21</title>
<path fill="none" stroke="midnightblue" d="M778.277,-200.745C724.553,-190.487 624.472,-170.675 540,-150 534.634,-148.687 529.008,-147.219 523.469,-145.721"/>
<polygon fill="midnightblue" stroke="midnightblue" points="524.236,-142.302 513.665,-143.016 522.374,-149.05 524.236,-142.302"/>
</g>
<!-- Node22 -->
<g id="node22" class="node"><title>Node22</title>
<polygon fill="none" stroke="#bfbfbf" points="548.625,-123 548.625,-143 633.375,-143 633.375,-123 548.625,-123"/>
<text text-anchor="middle" x="591" y="-129" font-family="Helvetica,sans-Serif" font-size="10.00">boost/array.hpp</text>
</g>
<!-- Node3&#45;&gt;Node22 -->
<g id="edge26" class="edge"><title>Node3&#45;&gt;Node22</title>
<path fill="none" stroke="midnightblue" d="M789.288,-198.926C748.853,-185.686 673.584,-161.041 628.313,-146.218"/>
<polygon fill="midnightblue" stroke="midnightblue" points="629.178,-142.818 618.585,-143.032 626.999,-149.47 629.178,-142.818"/>
</g>
<!-- Node23 -->
<g id="node23" class="node"><title>Node23</title>
<polygon fill="none" stroke="#bfbfbf" points="651.582,-123 651.582,-143 770.418,-143 770.418,-123 651.582,-123"/>
<text text-anchor="middle" x="711" y="-129" font-family="Helvetica,sans-Serif" font-size="10.00">boost/static_assert.hpp</text>
</g>
<!-- Node3&#45;&gt;Node23 -->
<g id="edge27" class="edge"><title>Node3&#45;&gt;Node23</title>
<path fill="none" stroke="midnightblue" d="M804.002,-198.926C786.201,-186.499 754.006,-164.023 732.562,-149.053"/>
<polygon fill="midnightblue" stroke="midnightblue" points="734.307,-146.002 724.104,-143.148 730.3,-151.742 734.307,-146.002"/>
</g>
<!-- Node24 -->
<g id="node24" class="node"><title>Node24</title>
<polygon fill="none" stroke="#bfbfbf" points="788.436,-123 788.436,-143 845.564,-143 845.564,-123 788.436,-123"/>
<text text-anchor="middle" x="817" y="-129" font-family="Helvetica,sans-Serif" font-size="10.00">algorithm</text>
</g>
<!-- Node3&#45;&gt;Node24 -->
<g id="edge28" class="edge"><title>Node3&#45;&gt;Node24</title>
<path fill="none" stroke="midnightblue" d="M817,-198.926C817,-187.608 817,-167.956 817,-153.23"/>
<polygon fill="midnightblue" stroke="midnightblue" points="820.5,-153.148 817,-143.148 813.5,-153.148 820.5,-153.148"/>
</g>
<!-- Node4&#45;&gt;Node5 -->
<g id="edge4" class="edge"><title>Node4&#45;&gt;Node5</title>
<path fill="none" stroke="midnightblue" d="M1205.56,-58.7527C1200.05,-50.8427 1191.97,-39.2372 1185.24,-29.5683"/>
<polygon fill="midnightblue" stroke="midnightblue" points="1187.91,-27.281 1179.32,-21.0752 1182.16,-31.2815 1187.91,-27.281"/>
</g>
<!-- Node6&#45;&gt;Node2 -->
<g id="edge14" class="edge"><title>Node6&#45;&gt;Node2</title>
<path fill="none" stroke="midnightblue" d="M205.006,-122.969C168.953,-113.534 110.928,-97.9835 52.6445,-80.4072"/>
<polygon fill="midnightblue" stroke="midnightblue" points="53.4974,-77.0085 42.9119,-77.4536 51.4646,-83.7068 53.4974,-77.0085"/>
</g>
<!-- Node6&#45;&gt;Node5 -->
<g id="edge9" class="edge"><title>Node6&#45;&gt;Node5</title>
<path fill="none" stroke="midnightblue" d="M275.656,-122.923C286.329,-120.425 298.095,-117.887 309,-116 446.542,-92.1964 488.492,-123.888 621,-80 639.525,-73.8642 640.397,-63.898 659,-58 739.184,-32.5776 978.284,-19.7008 1100.03,-14.643"/>
<polygon fill="midnightblue" stroke="midnightblue" points="1100.52,-18.126 1110.37,-14.2206 1100.23,-11.1318 1100.52,-18.126"/>
</g>
<!-- Node7 -->
<g id="node7" class="node"><title>Node7</title>
<polygon fill="none" stroke="#bfbfbf" points="60.2192,-59 60.2192,-79 111.781,-79 111.781,-59 60.2192,-59"/>
<text text-anchor="middle" x="86" y="-65" font-family="Helvetica,sans-Serif" font-size="10.00">sstream</text>
</g>
<!-- Node6&#45;&gt;Node7 -->
<g id="edge6" class="edge"><title>Node6&#45;&gt;Node7</title>
<path fill="none" stroke="midnightblue" d="M217.607,-122.985C191.375,-112.424 147.722,-94.8493 117.942,-82.8599"/>
<polygon fill="midnightblue" stroke="midnightblue" points="119.004,-79.5142 108.42,-79.0262 116.389,-86.0077 119.004,-79.5142"/>
</g>
<!-- Node8 -->
<g id="node8" class="node"><title>Node8</title>
<polygon fill="none" stroke="#bfbfbf" points="129.828,-59 129.828,-79 184.172,-79 184.172,-59 129.828,-59"/>
<text text-anchor="middle" x="157" y="-65" font-family="Helvetica,sans-Serif" font-size="10.00">iostream</text>
</g>
<!-- Node6&#45;&gt;Node8 -->
<g id="edge7" class="edge"><title>Node6&#45;&gt;Node8</title>
<path fill="none" stroke="midnightblue" d="M227.753,-122.852C214.513,-112.961 193.189,-97.0326 177.408,-85.2443"/>
<polygon fill="midnightblue" stroke="midnightblue" points="179.403,-82.3664 169.297,-79.1858 175.214,-87.9745 179.403,-82.3664"/>
</g>
<!-- Node9 -->
<g id="node9" class="node"><title>Node9</title>
<polygon fill="none" stroke="#bfbfbf" points="667.773,-59 667.773,-79 708.227,-79 708.227,-59 667.773,-59"/>
<text text-anchor="middle" x="688" y="-65" font-family="Helvetica,sans-Serif" font-size="10.00">string</text>
</g>
<!-- Node6&#45;&gt;Node9 -->
<g id="edge8" class="edge"><title>Node6&#45;&gt;Node9</title>
<path fill="none" stroke="midnightblue" d="M275.288,-122.931C286.054,-120.404 297.963,-117.848 309,-116 461.049,-90.5389 502.756,-109.874 654,-80 655.256,-79.7519 656.533,-79.478 657.819,-79.1842"/>
<polygon fill="midnightblue" stroke="midnightblue" points="658.849,-82.5328 667.653,-76.6385 657.095,-75.7561 658.849,-82.5328"/>
</g>
<!-- Node10 -->
<g id="node10" class="node"><title>Node10</title>
<polygon fill="none" stroke="#bfbfbf" points="201.98,-59 201.98,-79 278.02,-79 278.02,-59 201.98,-59"/>
<text text-anchor="middle" x="240" y="-65" font-family="Helvetica,sans-Serif" font-size="10.00">internal/use.h</text>
</g>
<!-- Node6&#45;&gt;Node10 -->
<g id="edge10" class="edge"><title>Node6&#45;&gt;Node10</title>
<path fill="none" stroke="midnightblue" d="M240,-122.852C240,-114.06 240,-100.498 240,-89.3131"/>
<polygon fill="midnightblue" stroke="midnightblue" points="243.5,-89.1858 240,-79.1858 236.5,-89.1859 243.5,-89.1858"/>
</g>
<!-- Node11 -->
<g id="node11" class="node"><title>Node11</title>
<polygon fill="none" stroke="#bfbfbf" points="296.306,-59 296.306,-79 385.694,-79 385.694,-59 296.306,-59"/>
<text text-anchor="middle" x="341" y="-65" font-family="Helvetica,sans-Serif" font-size="10.00">boost/config.hpp</text>
</g>
<!-- Node6&#45;&gt;Node11 -->
<g id="edge11" class="edge"><title>Node6&#45;&gt;Node11</title>
<path fill="none" stroke="midnightblue" d="M254.903,-122.852C271.388,-112.732 298.17,-96.2919 317.489,-84.4324"/>
<polygon fill="midnightblue" stroke="midnightblue" points="319.345,-87.4003 326.036,-79.1858 315.683,-81.4346 319.345,-87.4003"/>
</g>
<!-- Node12 -->
<g id="node12" class="node"><title>Node12</title>
<polygon fill="none" stroke="#bfbfbf" points="403.53,-59 403.53,-79 498.47,-79 498.47,-59 403.53,-59"/>
<text text-anchor="middle" x="451" y="-65" font-family="Helvetica,sans-Serif" font-size="10.00">boost/version.hpp</text>
</g>
<!-- Node6&#45;&gt;Node12 -->
<g id="edge12" class="edge"><title>Node6&#45;&gt;Node12</title>
<path fill="none" stroke="midnightblue" d="M270.681,-122.985C307.638,-112.125 369.832,-93.8504 410.648,-81.8571"/>
<polygon fill="midnightblue" stroke="midnightblue" points="411.674,-85.2035 420.282,-79.0262 409.701,-78.4875 411.674,-85.2035"/>
</g>
<!-- Node13 -->
<g id="node13" class="node"><title>Node13</title>
<polygon fill="none" stroke="#bfbfbf" points="515.971,-59 515.971,-79 612.029,-79 612.029,-59 515.971,-59"/>
<text text-anchor="middle" x="564" y="-65" font-family="Helvetica,sans-Serif" font-size="10.00">boost/foreach.hpp</text>
</g>
<!-- Node6&#45;&gt;Node13 -->
<g id="edge13" class="edge"><title>Node6&#45;&gt;Node13</title>
<path fill="none" stroke="midnightblue" d="M277.527,-122.943C287.716,-120.581 298.763,-118.109 309,-116 327.95,-112.096 436.594,-92.6647 505.819,-80.3387"/>
<polygon fill="midnightblue" stroke="midnightblue" points="506.5,-83.7727 515.732,-78.5743 505.273,-76.881 506.5,-83.7727"/>
</g>
<!-- Node14&#45;&gt;Node4 -->
<g id="edge19" class="edge"><title>Node14&#45;&gt;Node4</title>
<path fill="none" stroke="midnightblue" d="M923.119,-122.927C930.076,-120.429 937.781,-117.89 945,-116 965.79,-110.556 1092.98,-89.44 1164.05,-77.8038"/>
<polygon fill="midnightblue" stroke="midnightblue" points="1164.81,-81.2268 1174.11,-76.1587 1163.68,-74.3186 1164.81,-81.2268"/>
</g>
<!-- Node14&#45;&gt;Node5 -->
<g id="edge20" class="edge"><title>Node14&#45;&gt;Node5</title>
<path fill="none" stroke="midnightblue" d="M924.139,-122.909C930.849,-120.522 938.169,-118.045 945,-116 1009.44,-96.7081 1032.01,-110.419 1092,-80 1117.94,-66.8481 1142.79,-43.9399 1157.97,-28.3827"/>
<polygon fill="midnightblue" stroke="midnightblue" points="1160.62,-30.6673 1164.98,-21.008 1155.55,-25.8445 1160.62,-30.6673"/>
</g>
<!-- Node14&#45;&gt;Node9 -->
<g id="edge18" class="edge"><title>Node14&#45;&gt;Node9</title>
<path fill="none" stroke="midnightblue" d="M874.808,-122.842C868.082,-120.505 860.794,-118.071 854,-116 796.72,-98.5412 778.964,-98.2582 718.236,-80.2171"/>
<polygon fill="midnightblue" stroke="midnightblue" points="719.118,-76.8273 708.533,-77.2936 717.098,-83.5297 719.118,-76.8273"/>
</g>
<!-- Node15 -->
<g id="node15" class="node"><title>Node15</title>
<polygon fill="none" stroke="#bfbfbf" points="726.451,-59 726.451,-79 877.549,-79 877.549,-59 726.451,-59"/>
<text text-anchor="middle" x="802" y="-65" font-family="Helvetica,sans-Serif" font-size="10.00">boost/exception/exception.hpp</text>
</g>
<!-- Node14&#45;&gt;Node15 -->
<g id="edge16" class="edge"><title>Node14&#45;&gt;Node15</title>
<path fill="none" stroke="midnightblue" d="M885.54,-122.852C869.617,-112.778 843.793,-96.4406 825.067,-84.5937"/>
<polygon fill="midnightblue" stroke="midnightblue" points="826.842,-81.5745 816.52,-79.1858 823.099,-87.4901 826.842,-81.5745"/>
</g>
<!-- Node16 -->
<g id="node16" class="node"><title>Node16</title>
<polygon fill="none" stroke="#bfbfbf" points="895.596,-59 895.596,-79 954.404,-79 954.404,-59 895.596,-59"/>
<text text-anchor="middle" x="925" y="-65" font-family="Helvetica,sans-Serif" font-size="10.00">exception</text>
</g>
<!-- Node14&#45;&gt;Node16 -->
<g id="edge17" class="edge"><title>Node14&#45;&gt;Node16</title>
<path fill="none" stroke="midnightblue" d="M903.689,-122.852C907.308,-113.877 912.931,-99.9305 917.493,-88.6172"/>
<polygon fill="midnightblue" stroke="midnightblue" points="920.802,-89.7692 921.296,-79.1858 914.31,-87.1514 920.802,-89.7692"/>
</g>
<!-- Node17 -->
<g id="node17" class="node"><title>Node17</title>
<polygon fill="none" stroke="#bfbfbf" points="972.766,-59 972.766,-79 1083.23,-79 1083.23,-59 972.766,-59"/>
<text text-anchor="middle" x="1028" y="-65" font-family="Helvetica,sans-Serif" font-size="10.00">RMF/internal/errors.h</text>
</g>
<!-- Node14&#45;&gt;Node17 -->
<g id="edge21" class="edge"><title>Node14&#45;&gt;Node17</title>
<path fill="none" stroke="midnightblue" d="M918.612,-122.985C940.036,-112.607 975.441,-95.4585 1000.15,-83.4904"/>
<polygon fill="midnightblue" stroke="midnightblue" points="1001.89,-86.5355 1009.37,-79.0262 998.84,-80.2356 1001.89,-86.5355"/>
</g>
</g>
</svg>
        <g id="navigator" transform="translate(0 0)" fill="#404254">
                <rect fill="#f2f5e9" fill-opacity="0.5" stroke="#606060" stroke-width=".5" x="0" y="0" width="60" height="60"/>
                <use id="zoomplus" xlink:href="#zoomPlus" x="17" y="9" onmousedown="handleZoom(evt,'in')"/>
                <use id="zoomminus" xlink:href="#zoomMin" x="42" y="9" onmousedown="handleZoom(evt,'out')"/>
                <use id="reset" xlink:href="#resetDef" x="30" y="36" onmousedown="handleReset()"/>
                <g id="arrowUp" xlink:href="#dirArrow" transform="translate(30 24)" onmousedown="handlePan(0,-1)">
                  <use xlink:href="#rim" fill="#404040">
                        <set attributeName="fill" to="#808080" begin="arrowUp.mouseover" end="arrowUp.mouseout"/>
                  </use>
                  <path fill="none" stroke="white" stroke-width="1.5" d="M0,-3.0v7 M-2.5,-0.5L0,-3.0L2.5,-0.5"/>
                </g>
                <g id="arrowRight" xlink:href="#dirArrow" transform="rotate(90) translate(36 -43)" onmousedown="handlePan(1,0)">
                  <use xlink:href="#rim" fill="#404040">
                        <set attributeName="fill" to="#808080" begin="arrowRight.mouseover" end="arrowRight.mouseout"/>
                  </use>
                  <path fill="none" stroke="white" stroke-width="1.5" d="M0,-3.0v7 M-2.5,-0.5L0,-3.0L2.5,-0.5"/>
                </g>
                <g id="arrowDown" xlink:href="#dirArrow" transform="rotate(180) translate(-30 -48)" onmousedown="handlePan(0,1)">
                  <use xlink:href="#rim" fill="#404040">
                        <set attributeName="fill" to="#808080" begin="arrowDown.mouseover" end="arrowDown.mouseout"/>
                  </use>
                  <path fill="none" stroke="white" stroke-width="1.5" d="M0,-3.0v7 M-2.5,-0.5L0,-3.0L2.5,-0.5"/>
                </g>
                <g id="arrowLeft" xlink:href="#dirArrow" transform="rotate(270) translate(-36 17)" onmousedown="handlePan(-1,0)">
                  <use xlink:href="#rim" fill="#404040">
                        <set attributeName="fill" to="#808080" begin="arrowLeft.mouseover" end="arrowLeft.mouseout"/>
                  </use>
                  <path fill="none" stroke="white" stroke-width="1.5" d="M0,-3.0v7 M-2.5,-0.5L0,-3.0L2.5,-0.5"/>
                </g>
        </g>
        <svg viewBox="0 0 15 15" width="100%" height="30px" preserveAspectRatio="xMaxYMin meet">
         <g id="arrow_out" transform="scale(0.3 0.3)">
          <a xlink:href="CoordinateTransformer_8h__incl_org.svg" target="_base">
           <rect id="button" ry="5" rx="5" y="6" x="6" height="38" width="38"
                fill="#f2f5e9" fill-opacity="0.5" stroke="#606060" stroke-width="1.0"/>
           <path id="arrow"
             d="M 11.500037,31.436501 C 11.940474,20.09759 22.043105,11.32322 32.158766,21.979434 L 37.068811,17.246167 C 37.068811,17.246167 37.088388,32 37.088388,32 L 22.160133,31.978069 C 22.160133,31.978069 26.997745,27.140456 26.997745,27.140456 C 18.528582,18.264221 13.291696,25.230495 11.500037,31.436501 z"
             style="fill:#404040;"/>
          </a>
         </g>
        </svg>
</svg>
