<?xml version="1.0" encoding="UTF-8" standalone="no"?>
<!DOCTYPE svg PUBLIC "-//W3C//DTD SVG 1.1//EN"
 "http://www.w3.org/Graphics/SVG/1.1/DTD/svg11.dtd">
<!-- Generated by graphviz version 2.34.0 (20131025.1349)
 -->
<!-- Title: CoordinateTransformer.h Pages: 1 -->
<!--zoomable 286 -->
<svg id="main" version="1.1" xmlns="http://www.w3.org/2000/svg" xmlns:xlink="http://www.w3.org/1999/xlink" xml:space="preserve" onload="init(evt)">
<style type="text/css"><![CDATA[
.edge:hover path { stroke: red; }
.edge:hover polygon { stroke: red; fill: red; }
]]></style>
<script type="text/javascript"><![CDATA[
var edges = document.getElementsByTagName('g');
if (edges && edges.length) {
  for (var i=0;i<edges.length;i++) {
    if (edges[i].id.substr(0,4)=='edge') {
      edges[i].setAttribute('class','edge');
    }
  }
}
]]></script>
        <defs>
                <circle id="rim" cx="0" cy="0" r="7"/>
                <circle id="rim2" cx="0" cy="0" r="3.5"/>
                <g id="zoomPlus">
                        <use xlink:href="#rim" fill="#404040">
                                <set attributeName="fill" to="#808080" begin="zoomplus.mouseover" end="zoomplus.mouseout"/>
                        </use>
                        <path d="M-4,0h8M0,-4v8" fill="none" stroke="white" stroke-width="1.5" pointer-events="none"/>
                </g>
                <g id="zoomMin">
                        <use xlink:href="#rim" fill="#404040">
                                <set attributeName="fill" to="#808080" begin="zoomminus.mouseover" end="zoomminus.mouseout"/>
                        </use>
                        <path d="M-4,0h8" fill="none" stroke="white" stroke-width="1.5" pointer-events="none"/>
                </g>
                <g id="dirArrow">
                        <path fill="none" stroke="white" stroke-width="1.5" d="M0,-3.0v7 M-2.5,-0.5L0,-3.0L2.5,-0.5"/>
                </g>
               <g id="resetDef">
                       <use xlink:href="#rim2" fill="#404040">
                               <set attributeName="fill" to="#808080" begin="reset.mouseover" end="reset.mouseout"/>
                       </use>
               </g>
        </defs>

<script type="text/javascript">
var viewWidth = 1382;
var viewHeight = 286;
var sectionId = 'dynsection-0';
</script>
<script xlink:href="svgpan.js"/>
<svg id="graph" class="graph">
<g id="viewport">
<title>CoordinateTransformer.h</title>
<!-- Node1 -->
<g id="node1" class="node"><title>Node1</title>
<polygon fill="#bfbfbf" stroke="black" points="879.6,-257 879.6,-277 1006.4,-277 1006.4,-257 879.6,-257"/>
<text text-anchor="middle" x="943" y="-263" font-family="Helvetica,sans-Serif" font-size="10.00">CoordinateTransformer.h</text>
</g>
<!-- Node2 -->
<g id="node2" class="node"><title>Node2</title>
<polygon fill="none" stroke="#bfbfbf" points="-0.615723,-59 -0.615723,-79 42.6157,-79 42.6157,-59 -0.615723,-59"/>
<text text-anchor="middle" x="21" y="-65" font-family="Helvetica,sans-Serif" font-size="10.00">vector</text>
</g>
<!-- Node1&#45;&gt;Node2 -->
<g id="edge1" class="edge"><title>Node1&#45;&gt;Node2</title>
<path fill="none" stroke="midnightblue" d="M879.424,-264.769C681.646,-260.669 88.5538,-246.232 57,-220 18.3138,-187.839 17.0187,-122.109 19.0707,-89.3925"/>
<polygon fill="midnightblue" stroke="midnightblue" points="22.5689,-89.5544 19.8803,-79.3064 15.5913,-88.9942 22.5689,-89.5544"/>
</g>
<!-- Node3 -->
<g id="node3" class="node"><title>Node3</title>
<g id="a_node3"><a xlink:href="Vector_8h.html" target="_top" xlink:title="Represent coordinates. ">
<polygon fill="none" stroke="black" points="828.707,-187 828.707,-207 905.293,-207 905.293,-187 828.707,-187"/>
<text text-anchor="middle" x="867" y="-193" font-family="Helvetica,sans-Serif" font-size="10.00">RMF/Vector.h</text>
</a>
</g>
</g>
<!-- Node1&#45;&gt;Node3 -->
<g id="edge2" class="edge"><title>Node1&#45;&gt;Node3</title>
<path fill="none" stroke="midnightblue" d="M932.75,-256.829C920.443,-245.818 899.597,-227.166 884.676,-213.815"/>
<polygon fill="midnightblue" stroke="midnightblue" points="886.874,-211.085 877.087,-207.025 882.206,-216.302 886.874,-211.085"/>
</g>
<!-- Node4 -->
<g id="node4" class="node"><title>Node4</title>
<g id="a_node4"><a xlink:href="config_8h_source.html" target="_top" xlink:title="RMF/config.h">
<polygon fill="none" stroke="black" points="1177.27,-59 1177.27,-79 1252.73,-79 1252.73,-59 1177.27,-59"/>
<text text-anchor="middle" x="1215" y="-65" font-family="Helvetica,sans-Serif" font-size="10.00">RMF/config.h</text>
</a>
</g>
</g>
<!-- Node1&#45;&gt;Node4 -->
<g id="edge26" class="edge"><title>Node1&#45;&gt;Node4</title>
<path fill="none" stroke="midnightblue" d="M951.021,-256.901C966.646,-239.494 1002.73,-200.827 1038,-174 1087.35,-136.464 1151.36,-101.92 1187.32,-83.6332"/>
<polygon fill="midnightblue" stroke="midnightblue" points="1188.9,-86.755 1196.26,-79.1297 1185.75,-80.5037 1188.9,-86.755"/>
</g>
<!-- Node5 -->
<g id="node5" class="node"><title>Node5</title>
<g id="a_node5"><a xlink:href="compiler__macros_8h.html" target="_top" xlink:title="Various compiler workarounds. ">
<polygon fill="none" stroke="black" points="610.544,-1 610.544,-21 735.456,-21 735.456,-1 610.544,-1"/>
<text text-anchor="middle" x="673" y="-7" font-family="Helvetica,sans-Serif" font-size="10.00">RMF/compiler_macros.h</text>
</a>
</g>
</g>
<!-- Node1&#45;&gt;Node5 -->
<g id="edge25" class="edge"><title>Node1&#45;&gt;Node5</title>
<path fill="none" stroke="midnightblue" d="M879.453,-262.259C698.64,-250.145 188.04,-205.245 90,-80 83.973,-72.3006 83.3636,-65.1807 90,-58 123.963,-21.2512 451.36,-13.8224 600.107,-12.349"/>
<polygon fill="midnightblue" stroke="midnightblue" points="600.535,-15.8453 610.502,-12.2529 600.47,-8.84556 600.535,-15.8453"/>
</g>
<!-- Node6 -->
<g id="node6" class="node"><title>Node6</title>
<g id="a_node6"><a xlink:href="infrastructure__macros_8h.html" target="_top" xlink:title="Various general useful macros for IMP. ">
<polygon fill="none" stroke="black" points="444.48,-117 444.48,-137 565.52,-137 565.52,-117 444.48,-117"/>
<text text-anchor="middle" x="505" y="-123" font-family="Helvetica,sans-Serif" font-size="10.00">infrastructure_macros.h</text>
</a>
</g>
</g>
<!-- Node1&#45;&gt;Node6 -->
<g id="edge29" class="edge"><title>Node1&#45;&gt;Node6</title>
<path fill="none" stroke="midnightblue" d="M914.262,-256.945C837.921,-232.893 630.004,-167.385 543.529,-140.139"/>
<polygon fill="midnightblue" stroke="midnightblue" points="544.434,-136.755 533.844,-137.088 542.33,-143.431 544.434,-136.755"/>
</g>
<!-- Node21 -->
<g id="node21" class="node"><title>Node21</title>
<polygon fill="none" stroke="#bfbfbf" points="1047.23,-187 1047.23,-207 1176.77,-207 1176.77,-187 1047.23,-187"/>
<text text-anchor="middle" x="1112" y="-193" font-family="Helvetica,sans-Serif" font-size="10.00">RMF/internal/Transform.h</text>
</g>
<!-- Node1&#45;&gt;Node21 -->
<g id="edge27" class="edge"><title>Node1&#45;&gt;Node21</title>
<path fill="none" stroke="midnightblue" d="M965.442,-256.97C994.861,-245.133 1046.65,-224.295 1080.13,-210.825"/>
<polygon fill="midnightblue" stroke="midnightblue" points="1081.49,-214.047 1089.47,-207.067 1078.88,-207.553 1081.49,-214.047"/>
</g>
<!-- Node22 -->
<g id="node22" class="node"><title>Node22</title>
<polygon fill="none" stroke="#bfbfbf" points="1194.94,-187 1194.94,-207 1247.06,-207 1247.06,-187 1194.94,-187"/>
<text text-anchor="middle" x="1221" y="-193" font-family="Helvetica,sans-Serif" font-size="10.00">ostream</text>
</g>
<!-- Node1&#45;&gt;Node22 -->
<g id="edge28" class="edge"><title>Node1&#45;&gt;Node22</title>
<path fill="none" stroke="midnightblue" d="M1006.63,-260.237C1056.47,-254.235 1126.85,-242.435 1185,-220 1190.08,-218.04 1195.25,-215.363 1200.02,-212.551"/>
<polygon fill="midnightblue" stroke="midnightblue" points="1202.01,-215.434 1208.59,-207.129 1198.27,-209.518 1202.01,-215.434"/>
</g>
<!-- Node23 -->
<g id="node23" class="node"><title>Node23</title>
<polygon fill="none" stroke="#bfbfbf" points="1265.33,-175 1265.33,-219 1374.67,-219 1374.67,-175 1265.33,-175"/>
<text text-anchor="start" x="1273.33" y="-205" font-family="Helvetica,sans-Serif" font-size="10.00">/Users/drussel/src</text>
<text text-anchor="start" x="1273.33" y="-193" font-family="Helvetica,sans-Serif" font-size="10.00">/rmf/rmf/include/RMF</text>
<text text-anchor="middle" x="1320" y="-181" font-family="Helvetica,sans-Serif" font-size="10.00">/types.h</text>
</g>
<!-- Node1&#45;&gt;Node23 -->
<g id="edge30" class="edge"><title>Node1&#45;&gt;Node23</title>
<path fill="none" stroke="midnightblue" d="M1006.61,-260.141C1068.08,-253.695 1163.85,-241.587 1255.08,-220.014"/>
<polygon fill="midnightblue" stroke="midnightblue" points="1256.13,-223.361 1265.03,-217.618 1254.49,-216.556 1256.13,-223.361"/>
</g>
<!-- Node3&#45;&gt;Node4 -->
<g id="edge3" class="edge"><title>Node3&#45;&gt;Node4</title>
<path fill="none" stroke="midnightblue" d="M866.147,-186.936C865.121,-170.162 865.618,-134.325 886,-116 930.869,-75.6598 1090.45,-89.1906 1166.88,-79.8287"/>
<polygon fill="midnightblue" stroke="midnightblue" points="1167.69,-83.2469 1177.09,-78.3477 1166.69,-76.3193 1167.69,-83.2469"/>
</g>
<!-- Node3&#45;&gt;Node6 -->
<g id="edge5" class="edge"><title>Node3&#45;&gt;Node6</title>
<path fill="none" stroke="midnightblue" d="M828.602,-188.787C765.083,-176.855 637.752,-152.937 563.15,-138.923"/>
<polygon fill="midnightblue" stroke="midnightblue" points="563.459,-135.42 552.985,-137.014 562.167,-142.3 563.459,-135.42"/>
</g>
<!-- Node14 -->
<g id="node14" class="node"><title>Node14</title>
<g id="a_node14"><a xlink:href="exceptions_8h.html" target="_top" xlink:title="Various general useful macros for IMP. ">
<polygon fill="none" stroke="black" points="766.926,-117 766.926,-137 839.074,-137 839.074,-117 766.926,-117"/>
<text text-anchor="middle" x="803" y="-123" font-family="Helvetica,sans-Serif" font-size="10.00">exceptions.h</text>
</a>
</g>
</g>
<!-- Node3&#45;&gt;Node14 -->
<g id="edge15" class="edge"><title>Node3&#45;&gt;Node14</title>
<path fill="none" stroke="midnightblue" d="M858.369,-186.829C848.197,-176.022 831.098,-157.854 818.588,-144.562"/>
<polygon fill="midnightblue" stroke="midnightblue" points="820.897,-141.909 811.495,-137.025 815.8,-146.706 820.897,-141.909"/>
</g>
<!-- Node18 -->
<g id="node18" class="node"><title>Node18</title>
<polygon fill="none" stroke="#bfbfbf" points="633.237,-117 633.237,-137 748.763,-137 748.763,-117 633.237,-117"/>
<text text-anchor="middle" x="691" y="-123" font-family="Helvetica,sans-Serif" font-size="10.00">boost/range/begin.hpp</text>
</g>
<!-- Node3&#45;&gt;Node18 -->
<g id="edge22" class="edge"><title>Node3&#45;&gt;Node18</title>
<path fill="none" stroke="midnightblue" d="M843.629,-186.97C812.99,-175.133 759.059,-154.295 724.195,-140.825"/>
<polygon fill="midnightblue" stroke="midnightblue" points="725.058,-137.406 714.468,-137.067 722.535,-143.936 725.058,-137.406"/>
</g>
<!-- Node19 -->
<g id="node19" class="node"><title>Node19</title>
<polygon fill="none" stroke="#bfbfbf" points="895.128,-117 895.128,-137 1002.87,-137 1002.87,-117 895.128,-117"/>
<text text-anchor="middle" x="949" y="-123" font-family="Helvetica,sans-Serif" font-size="10.00">boost/range/end.hpp</text>
</g>
<!-- Node3&#45;&gt;Node19 -->
<g id="edge23" class="edge"><title>Node3&#45;&gt;Node19</title>
<path fill="none" stroke="midnightblue" d="M878.059,-186.829C891.461,-175.716 914.246,-156.82 930.374,-143.446"/>
<polygon fill="midnightblue" stroke="midnightblue" points="932.653,-146.103 938.116,-137.025 928.185,-140.715 932.653,-146.103"/>
</g>
<!-- Node20 -->
<g id="node20" class="node"><title>Node20</title>
<polygon fill="none" stroke="#bfbfbf" points="1020.44,-117 1020.44,-137 1077.56,-137 1077.56,-117 1020.44,-117"/>
<text text-anchor="middle" x="1049" y="-123" font-family="Helvetica,sans-Serif" font-size="10.00">algorithm</text>
</g>
<!-- Node3&#45;&gt;Node20 -->
<g id="edge24" class="edge"><title>Node3&#45;&gt;Node20</title>
<path fill="none" stroke="midnightblue" d="M891.168,-186.97C922.987,-175.082 979.1,-154.116 1015.14,-140.652"/>
<polygon fill="midnightblue" stroke="midnightblue" points="1016.59,-143.846 1024.73,-137.067 1014.14,-137.289 1016.59,-143.846"/>
</g>
<!-- Node4&#45;&gt;Node5 -->
<g id="edge4" class="edge"><title>Node4&#45;&gt;Node5</title>
<path fill="none" stroke="midnightblue" d="M1177.1,-59.5396C1174.03,-58.975 1170.97,-58.4522 1168,-58 1018.99,-35.3043 842.93,-22.1668 746.066,-16.1085"/>
<polygon fill="midnightblue" stroke="midnightblue" points="745.995,-12.5975 735.798,-15.4743 745.563,-19.5842 745.995,-12.5975"/>
</g>
<!-- Node6&#45;&gt;Node2 -->
<g id="edge14" class="edge"><title>Node6&#45;&gt;Node2</title>
<path fill="none" stroke="midnightblue" d="M444.443,-119.93C363.558,-111.676 215.833,-96.0876 90,-80 77.8658,-78.4487 64.5587,-76.5637 52.8959,-74.8503"/>
<polygon fill="midnightblue" stroke="midnightblue" points="53.134,-71.3473 42.7281,-73.3395 52.1051,-78.2713 53.134,-71.3473"/>
</g>
<!-- Node6&#45;&gt;Node5 -->
<g id="edge9" class="edge"><title>Node6&#45;&gt;Node5</title>
<path fill="none" stroke="midnightblue" d="M515.295,-116.814C530.86,-103.15 561.585,-77.0422 590,-58 607.847,-46.0398 629.049,-34.3282 645.557,-25.7154"/>
<polygon fill="midnightblue" stroke="midnightblue" points="647.383,-28.712 654.673,-21.024 644.18,-22.4878 647.383,-28.712"/>
</g>
<!-- Node7 -->
<g id="node7" class="node"><title>Node7</title>
<polygon fill="none" stroke="#bfbfbf" points="325.219,-59 325.219,-79 376.781,-79 376.781,-59 325.219,-59"/>
<text text-anchor="middle" x="351" y="-65" font-family="Helvetica,sans-Serif" font-size="10.00">sstream</text>
</g>
<!-- Node6&#45;&gt;Node7 -->
<g id="edge6" class="edge"><title>Node6&#45;&gt;Node7</title>
<path fill="none" stroke="midnightblue" d="M479.914,-116.878C454.221,-107.535 414.093,-92.943 385.435,-82.522"/>
<polygon fill="midnightblue" stroke="midnightblue" points="386.414,-79.1535 375.82,-79.0253 384.021,-85.7321 386.414,-79.1535"/>
</g>
<!-- Node8 -->
<g id="node8" class="node"><title>Node8</title>
<polygon fill="none" stroke="#bfbfbf" points="394.828,-59 394.828,-79 449.172,-79 449.172,-59 394.828,-59"/>
<text text-anchor="middle" x="422" y="-65" font-family="Helvetica,sans-Serif" font-size="10.00">iostream</text>
</g>
<!-- Node6&#45;&gt;Node8 -->
<g id="edge7" class="edge"><title>Node6&#45;&gt;Node8</title>
<path fill="none" stroke="midnightblue" d="M491.294,-116.753C478.483,-108.109 459.13,-95.0518 444.13,-84.9314"/>
<polygon fill="midnightblue" stroke="midnightblue" points="445.698,-81.7669 435.451,-79.0752 441.783,-87.5696 445.698,-81.7669"/>
</g>
<!-- Node9 -->
<g id="node9" class="node"><title>Node9</title>
<polygon fill="none" stroke="#bfbfbf" points="706.773,-59 706.773,-79 747.227,-79 747.227,-59 706.773,-59"/>
<text text-anchor="middle" x="727" y="-65" font-family="Helvetica,sans-Serif" font-size="10.00">string</text>
</g>
<!-- Node6&#45;&gt;Node9 -->
<g id="edge8" class="edge"><title>Node6&#45;&gt;Node9</title>
<path fill="none" stroke="midnightblue" d="M547.222,-116.989C586.307,-108.386 645.918,-94.6033 697,-80 697.099,-79.9717 697.198,-79.9433 697.297,-79.9148"/>
<polygon fill="midnightblue" stroke="midnightblue" points="698.207,-83.2966 706.741,-77.0173 696.154,-76.6045 698.207,-83.2966"/>
</g>
<!-- Node10 -->
<g id="node10" class="node"><title>Node10</title>
<polygon fill="none" stroke="#bfbfbf" points="466.98,-59 466.98,-79 543.02,-79 543.02,-59 466.98,-59"/>
<text text-anchor="middle" x="505" y="-65" font-family="Helvetica,sans-Serif" font-size="10.00">internal/use.h</text>
</g>
<!-- Node6&#45;&gt;Node10 -->
<g id="edge10" class="edge"><title>Node6&#45;&gt;Node10</title>
<path fill="none" stroke="midnightblue" d="M505,-116.753C505,-109.25 505,-98.4238 505,-89.0781"/>
<polygon fill="midnightblue" stroke="midnightblue" points="508.5,-89.0752 505,-79.0752 501.5,-89.0752 508.5,-89.0752"/>
</g>
<!-- Node11 -->
<g id="node11" class="node"><title>Node11</title>
<polygon fill="none" stroke="#bfbfbf" points="599.306,-59 599.306,-79 688.694,-79 688.694,-59 599.306,-59"/>
<text text-anchor="middle" x="644" y="-65" font-family="Helvetica,sans-Serif" font-size="10.00">boost/config.hpp</text>
</g>
<!-- Node6&#45;&gt;Node11 -->
<g id="edge11" class="edge"><title>Node6&#45;&gt;Node11</title>
<path fill="none" stroke="midnightblue" d="M527.642,-116.878C550.562,-107.644 586.208,-93.283 612.008,-82.8887"/>
<polygon fill="midnightblue" stroke="midnightblue" points="613.4,-86.1015 621.368,-79.1181 610.784,-79.6086 613.4,-86.1015"/>
</g>
<!-- Node12 -->
<g id="node12" class="node"><title>Node12</title>
<polygon fill="none" stroke="#bfbfbf" points="98.5298,-59 98.5298,-79 193.47,-79 193.47,-59 98.5298,-59"/>
<text text-anchor="middle" x="146" y="-65" font-family="Helvetica,sans-Serif" font-size="10.00">boost/version.hpp</text>
</g>
<!-- Node6&#45;&gt;Node12 -->
<g id="edge12" class="edge"><title>Node6&#45;&gt;Node12</title>
<path fill="none" stroke="midnightblue" d="M444.276,-117.256C385.262,-108.651 292.838,-94.89 203.658,-80.2454"/>
<polygon fill="midnightblue" stroke="midnightblue" points="204.08,-76.7679 193.644,-78.595 202.942,-83.6747 204.08,-76.7679"/>
</g>
<!-- Node13 -->
<g id="node13" class="node"><title>Node13</title>
<polygon fill="none" stroke="#bfbfbf" points="210.971,-59 210.971,-79 307.029,-79 307.029,-59 210.971,-59"/>
<text text-anchor="middle" x="259" y="-65" font-family="Helvetica,sans-Serif" font-size="10.00">boost/foreach.hpp</text>
</g>
<!-- Node6&#45;&gt;Node13 -->
<g id="edge13" class="edge"><title>Node6&#45;&gt;Node13</title>
<path fill="none" stroke="midnightblue" d="M465.202,-116.94C422.509,-107.222 354.638,-91.7713 308.522,-81.2733"/>
<polygon fill="midnightblue" stroke="midnightblue" points="309.268,-77.8536 298.74,-79.0466 307.714,-84.679 309.268,-77.8536"/>
</g>
<!-- Node14&#45;&gt;Node4 -->
<g id="edge19" class="edge"><title>Node14&#45;&gt;Node4</title>
<path fill="none" stroke="midnightblue" d="M839.257,-118.378C843.872,-117.517 848.54,-116.7 853,-116 988.946,-94.6752 1027.15,-102.305 1166.86,-80.0461"/>
<polygon fill="midnightblue" stroke="midnightblue" points="1167.78,-83.4423 1177.09,-78.391 1166.66,-76.532 1167.78,-83.4423"/>
</g>
<!-- Node14&#45;&gt;Node5 -->
<g id="edge20" class="edge"><title>Node14&#45;&gt;Node5</title>
<path fill="none" stroke="midnightblue" d="M798.341,-116.635C790.946,-102.507 775.357,-75.5352 756,-58 740.996,-44.4085 721.272,-33.2662 704.817,-25.3535"/>
<polygon fill="midnightblue" stroke="midnightblue" points="706.111,-22.0961 695.566,-21.0738 703.172,-28.4492 706.111,-22.0961"/>
</g>
<!-- Node14&#45;&gt;Node9 -->
<g id="edge18" class="edge"><title>Node14&#45;&gt;Node9</title>
<path fill="none" stroke="midnightblue" d="M790.45,-116.753C778.83,-108.19 761.333,-95.2978 747.654,-85.2186"/>
<polygon fill="midnightblue" stroke="midnightblue" points="749.443,-82.1895 739.316,-79.0752 745.291,-87.8249 749.443,-82.1895"/>
</g>
<!-- Node15 -->
<g id="node15" class="node"><title>Node15</title>
<polygon fill="none" stroke="#bfbfbf" points="1008.45,-59 1008.45,-79 1159.55,-79 1159.55,-59 1008.45,-59"/>
<text text-anchor="middle" x="1084" y="-65" font-family="Helvetica,sans-Serif" font-size="10.00">boost/exception/exception.hpp</text>
</g>
<!-- Node14&#45;&gt;Node15 -->
<g id="edge16" class="edge"><title>Node14&#45;&gt;Node15</title>
<path fill="none" stroke="midnightblue" d="M839.32,-118.732C843.925,-117.812 848.573,-116.884 853,-116 912.962,-104.034 981.687,-90.3525 1028.48,-81.0424"/>
<polygon fill="midnightblue" stroke="midnightblue" points="1029.29,-84.4501 1038.41,-79.066 1027.92,-77.5846 1029.29,-84.4501"/>
</g>
<!-- Node16 -->
<g id="node16" class="node"><title>Node16</title>
<polygon fill="none" stroke="#bfbfbf" points="802.596,-59 802.596,-79 861.404,-79 861.404,-59 802.596,-59"/>
<text text-anchor="middle" x="832" y="-65" font-family="Helvetica,sans-Serif" font-size="10.00">exception</text>
</g>
<!-- Node14&#45;&gt;Node16 -->
<g id="edge17" class="edge"><title>Node14&#45;&gt;Node16</title>
<path fill="none" stroke="midnightblue" d="M807.789,-116.753C811.801,-109.006 817.648,-97.7142 822.591,-88.1688"/>
<polygon fill="midnightblue" stroke="midnightblue" points="825.81,-89.5647 827.3,-79.0752 819.594,-86.3456 825.81,-89.5647"/>
</g>
<!-- Node17 -->
<g id="node17" class="node"><title>Node17</title>
<polygon fill="none" stroke="#bfbfbf" points="879.766,-59 879.766,-79 990.234,-79 990.234,-59 879.766,-59"/>
<text text-anchor="middle" x="935" y="-65" font-family="Helvetica,sans-Serif" font-size="10.00">RMF/internal/errors.h</text>
</g>
<!-- Node14&#45;&gt;Node17 -->
<g id="edge21" class="edge"><title>Node14&#45;&gt;Node17</title>
<path fill="none" stroke="midnightblue" d="M824.502,-116.878C846.172,-107.685 879.821,-93.4095 904.295,-83.0263"/>
<polygon fill="midnightblue" stroke="midnightblue" points="905.668,-86.2457 913.507,-79.1181 902.935,-79.8016 905.668,-86.2457"/>
</g>
</g>
</svg>
        <g id="navigator" transform="translate(0 0)" fill="#404254">
                <rect fill="#f2f5e9" fill-opacity="0.5" stroke="#606060" stroke-width=".5" x="0" y="0" width="60" height="60"/>
                <use id="zoomplus" xlink:href="#zoomPlus" x="17" y="9" onmousedown="handleZoom(evt,'in')"/>
                <use id="zoomminus" xlink:href="#zoomMin" x="42" y="9" onmousedown="handleZoom(evt,'out')"/>
                <use id="reset" xlink:href="#resetDef" x="30" y="36" onmousedown="handleReset()"/>
                <g id="arrowUp" xlink:href="#dirArrow" transform="translate(30 24)" onmousedown="handlePan(0,-1)">
                  <use xlink:href="#rim" fill="#404040">
                        <set attributeName="fill" to="#808080" begin="arrowUp.mouseover" end="arrowUp.mouseout"/>
                  </use>
                  <path fill="none" stroke="white" stroke-width="1.5" d="M0,-3.0v7 M-2.5,-0.5L0,-3.0L2.5,-0.5"/>
                </g>
                <g id="arrowRight" xlink:href="#dirArrow" transform="rotate(90) translate(36 -43)" onmousedown="handlePan(1,0)">
                  <use xlink:href="#rim" fill="#404040">
                        <set attributeName="fill" to="#808080" begin="arrowRight.mouseover" end="arrowRight.mouseout"/>
                  </use>
                  <path fill="none" stroke="white" stroke-width="1.5" d="M0,-3.0v7 M-2.5,-0.5L0,-3.0L2.5,-0.5"/>
                </g>
                <g id="arrowDown" xlink:href="#dirArrow" transform="rotate(180) translate(-30 -48)" onmousedown="handlePan(0,1)">
                  <use xlink:href="#rim" fill="#404040">
                        <set attributeName="fill" to="#808080" begin="arrowDown.mouseover" end="arrowDown.mouseout"/>
                  </use>
                  <path fill="none" stroke="white" stroke-width="1.5" d="M0,-3.0v7 M-2.5,-0.5L0,-3.0L2.5,-0.5"/>
                </g>
                <g id="arrowLeft" xlink:href="#dirArrow" transform="rotate(270) translate(-36 17)" onmousedown="handlePan(-1,0)">
                  <use xlink:href="#rim" fill="#404040">
                        <set attributeName="fill" to="#808080" begin="arrowLeft.mouseover" end="arrowLeft.mouseout"/>
                  </use>
                  <path fill="none" stroke="white" stroke-width="1.5" d="M0,-3.0v7 M-2.5,-0.5L0,-3.0L2.5,-0.5"/>
                </g>
        </g>
        <svg viewBox="0 0 15 15" width="100%" height="30px" preserveAspectRatio="xMaxYMin meet">
         <g id="arrow_out" transform="scale(0.3 0.3)">
          <a xlink:href="CoordinateTransformer_8h__incl_org.svg" target="_base">
           <rect id="button" ry="5" rx="5" y="6" x="6" height="38" width="38"
                fill="#f2f5e9" fill-opacity="0.5" stroke="#606060" stroke-width="1.0"/>
           <path id="arrow"
             d="M 11.500037,31.436501 C 11.940474,20.09759 22.043105,11.32322 32.158766,21.979434 L 37.068811,17.246167 C 37.068811,17.246167 37.088388,32 37.088388,32 L 22.160133,31.978069 C 22.160133,31.978069 26.997745,27.140456 26.997745,27.140456 C 18.528582,18.264221 13.291696,25.230495 11.500037,31.436501 z"
             style="fill:#404040;"/>
          </a>
         </g>
        </svg>
</svg>
