<?xml version="1.0" encoding="UTF-8" standalone="no"?>
<!DOCTYPE svg PUBLIC "-//W3C//DTD SVG 1.1//EN"
 "http://www.w3.org/Graphics/SVG/1.1/DTD/svg11.dtd">
<!-- Generated by graphviz version 2.34.0 (20131025.1349)
 -->
<!-- Title: CoordinateTransformer.h Pages: 1 -->
<svg width="1606pt" height="298pt"
 viewBox="0.00 0.00 1606.00 298.00" xmlns="http://www.w3.org/2000/svg" xmlns:xlink="http://www.w3.org/1999/xlink">
<g id="graph0" class="graph" transform="scale(1 1) rotate(0) translate(4 294)">
<title>CoordinateTransformer.h</title>
<!-- Node1 -->
<g id="node1" class="node"><title>Node1</title>
<polygon fill="#bfbfbf" stroke="black" points="1160.6,-269 1160.6,-289 1287.4,-289 1287.4,-269 1160.6,-269"/>
<text text-anchor="middle" x="1224" y="-275" font-family="Helvetica,sans-Serif" font-size="10.00">CoordinateTransformer.h</text>
</g>
<!-- Node2 -->
<g id="node2" class="node"><title>Node2</title>
<polygon fill="none" stroke="#bfbfbf" points="-0.615723,-59 -0.615723,-79 42.6157,-79 42.6157,-59 -0.615723,-59"/>
<text text-anchor="middle" x="21" y="-65" font-family="Helvetica,sans-Serif" font-size="10.00">vector</text>
</g>
<!-- Node1&#45;&gt;Node2 -->
<g id="edge1" class="edge"><title>Node1&#45;&gt;Node2</title>
<path fill="none" stroke="midnightblue" d="M1160.48,-278.089C1039.3,-277.296 767.111,-270.875 542,-232 409.59,-209.134 379.181,-190.312 251,-150 179.35,-127.466 96.3758,-97.6793 52.3034,-81.559"/>
<polygon fill="midnightblue" stroke="midnightblue" points="53.3298,-78.2076 42.7362,-78.0506 50.9198,-84.7796 53.3298,-78.2076"/>
</g>
<!-- Node3 -->
<g id="node3" class="node"><title>Node3</title>
<g id="a_node3"><a xlink:href="Vector_8h.html" target="_top" xlink:title="Represent coordinates. ">
<polygon fill="none" stroke="black" points="774.707,-199 774.707,-219 851.293,-219 851.293,-199 774.707,-199"/>
<text text-anchor="middle" x="813" y="-205" font-family="Helvetica,sans-Serif" font-size="10.00">RMF/Vector.h</text>
</a>
</g>
</g>
<!-- Node1&#45;&gt;Node3 -->
<g id="edge2" class="edge"><title>Node1&#45;&gt;Node3</title>
<path fill="none" stroke="midnightblue" d="M1169.42,-268.97C1088.65,-255.607 938.559,-230.774 861.464,-218.018"/>
<polygon fill="midnightblue" stroke="midnightblue" points="861.971,-214.555 851.534,-216.375 860.828,-221.461 861.971,-214.555"/>
</g>
<!-- Node4 -->
<g id="node4" class="node"><title>Node4</title>
<g id="a_node4"><a xlink:href="config_8h_source.html" target="_top" xlink:title="RMF/config.h">
<polygon fill="none" stroke="black" points="1139.27,-59 1139.27,-79 1214.73,-79 1214.73,-59 1139.27,-59"/>
<text text-anchor="middle" x="1177" y="-65" font-family="Helvetica,sans-Serif" font-size="10.00">RMF/config.h</text>
</a>
</g>
</g>
<!-- Node1&#45;&gt;Node4 -->
<g id="edge29" class="edge"><title>Node1&#45;&gt;Node4</title>
<path fill="none" stroke="midnightblue" d="M1221.92,-268.794C1214.76,-237.115 1191.05,-132.181 1181.27,-88.9091"/>
<polygon fill="midnightblue" stroke="midnightblue" points="1184.67,-88.0822 1179.06,-79.0996 1177.85,-89.6251 1184.67,-88.0822"/>
</g>
<!-- Node5 -->
<g id="node5" class="node"><title>Node5</title>
<g id="a_node5"><a xlink:href="compiler__macros_8h.html" target="_top" xlink:title="Various compiler workarounds. ">
<polygon fill="none" stroke="black" points="1081.54,-1 1081.54,-21 1206.46,-21 1206.46,-1 1081.54,-1"/>
<text text-anchor="middle" x="1144" y="-7" font-family="Helvetica,sans-Serif" font-size="10.00">RMF/compiler_macros.h</text>
</a>
</g>
</g>
<!-- Node1&#45;&gt;Node5 -->
<g id="edge28" class="edge"><title>Node1&#45;&gt;Node5</title>
<path fill="none" stroke="midnightblue" d="M1226.96,-268.797C1236.61,-236.943 1264.28,-129.43 1223,-58 1214.32,-42.9791 1198.65,-32.3989 1183.54,-25.2058"/>
<polygon fill="midnightblue" stroke="midnightblue" points="1184.84,-21.9531 1174.27,-21.1554 1182.03,-28.3673 1184.84,-21.9531"/>
</g>
<!-- Node6 -->
<g id="node6" class="node"><title>Node6</title>
<g id="a_node6"><a xlink:href="infrastructure__macros_8h.html" target="_top" xlink:title="Various general useful macros for IMP. ">
<polygon fill="none" stroke="black" points="260.48,-123 260.48,-143 381.52,-143 381.52,-123 260.48,-123"/>
<text text-anchor="middle" x="321" y="-129" font-family="Helvetica,sans-Serif" font-size="10.00">infrastructure_macros.h</text>
</a>
</g>
</g>
<!-- Node1&#45;&gt;Node6 -->
<g id="edge32" class="edge"><title>Node1&#45;&gt;Node6</title>
<path fill="none" stroke="midnightblue" d="M1160.36,-273.923C1071.63,-267.713 905.896,-254.205 766,-232 597.076,-205.187 556.868,-187.541 390,-150 383.39,-148.513 376.43,-146.925 369.576,-145.348"/>
<polygon fill="midnightblue" stroke="midnightblue" points="370.194,-141.899 359.663,-143.059 368.619,-148.72 370.194,-141.899"/>
</g>
<!-- Node24 -->
<g id="node24" class="node"><title>Node24</title>
<polygon fill="none" stroke="#bfbfbf" points="1271.23,-199 1271.23,-219 1400.77,-219 1400.77,-199 1271.23,-199"/>
<text text-anchor="middle" x="1336" y="-205" font-family="Helvetica,sans-Serif" font-size="10.00">RMF/internal/Transform.h</text>
</g>
<!-- Node1&#45;&gt;Node24 -->
<g id="edge30" class="edge"><title>Node1&#45;&gt;Node24</title>
<path fill="none" stroke="midnightblue" d="M1239.1,-268.829C1257.91,-257.41 1290.25,-237.774 1312.36,-224.354"/>
<polygon fill="midnightblue" stroke="midnightblue" points="1314.4,-227.207 1321.13,-219.025 1310.77,-221.224 1314.4,-227.207"/>
</g>
<!-- Node25 -->
<g id="node25" class="node"><title>Node25</title>
<polygon fill="none" stroke="#bfbfbf" points="1418.94,-199 1418.94,-219 1471.06,-219 1471.06,-199 1418.94,-199"/>
<text text-anchor="middle" x="1445" y="-205" font-family="Helvetica,sans-Serif" font-size="10.00">ostream</text>
</g>
<!-- Node1&#45;&gt;Node25 -->
<g id="edge31" class="edge"><title>Node1&#45;&gt;Node25</title>
<path fill="none" stroke="midnightblue" d="M1278.83,-268.922C1316.4,-261.613 1366.86,-249.623 1409,-232 1413.94,-229.933 1419,-227.252 1423.7,-224.476"/>
<polygon fill="midnightblue" stroke="midnightblue" points="1425.57,-227.436 1432.18,-219.158 1421.85,-221.505 1425.57,-227.436"/>
</g>
<!-- Node26 -->
<g id="node26" class="node"><title>Node26</title>
<polygon fill="none" stroke="#bfbfbf" points="1489.33,-187 1489.33,-231 1598.67,-231 1598.67,-187 1489.33,-187"/>
<text text-anchor="start" x="1497.33" y="-217" font-family="Helvetica,sans-Serif" font-size="10.00">/Users/drussel/src</text>
<text text-anchor="start" x="1497.33" y="-205" font-family="Helvetica,sans-Serif" font-size="10.00">/rmf/rmf/include/RMF</text>
<text text-anchor="middle" x="1544" y="-193" font-family="Helvetica,sans-Serif" font-size="10.00">/types.h</text>
</g>
<!-- Node1&#45;&gt;Node26 -->
<g id="edge33" class="edge"><title>Node1&#45;&gt;Node26</title>
<path fill="none" stroke="midnightblue" d="M1287.45,-269.368C1337.27,-261.959 1408.47,-249.987 1479.05,-232.071"/>
<polygon fill="midnightblue" stroke="midnightblue" points="1480.2,-235.39 1489.01,-229.503 1478.45,-228.612 1480.2,-235.39"/>
</g>
<!-- Node3&#45;&gt;Node4 -->
<g id="edge3" class="edge"><title>Node3&#45;&gt;Node4</title>
<path fill="none" stroke="midnightblue" d="M851.375,-206.109C929.518,-201.518 1103.49,-187.284 1148,-150 1166.01,-134.917 1172.83,-107.71 1175.42,-89.2566"/>
<polygon fill="midnightblue" stroke="midnightblue" points="1178.93,-89.4093 1176.55,-79.0851 1171.97,-88.6395 1178.93,-89.4093"/>
</g>
<!-- Node3&#45;&gt;Node6 -->
<g id="edge5" class="edge"><title>Node3&#45;&gt;Node6</title>
<path fill="none" stroke="midnightblue" d="M774.608,-203.929C700.109,-195.766 530.878,-175.936 390,-150 382.516,-148.622 374.618,-146.976 366.944,-145.271"/>
<polygon fill="midnightblue" stroke="midnightblue" points="367.566,-141.823 357.038,-143.013 366.011,-148.648 367.566,-141.823"/>
</g>
<!-- Node14 -->
<g id="node14" class="node"><title>Node14</title>
<g id="a_node14"><a xlink:href="exceptions_8h.html" target="_top" xlink:title="Various general useful macros for IMP. ">
<polygon fill="none" stroke="black" points="1066.93,-123 1066.93,-143 1139.07,-143 1139.07,-123 1066.93,-123"/>
<text text-anchor="middle" x="1103" y="-129" font-family="Helvetica,sans-Serif" font-size="10.00">exceptions.h</text>
</a>
</g>
</g>
<!-- Node3&#45;&gt;Node14 -->
<g id="edge15" class="edge"><title>Node3&#45;&gt;Node14</title>
<path fill="none" stroke="midnightblue" d="M851.351,-200.143C899.677,-189.956 985.11,-170.988 1057,-150 1060.82,-148.886 1064.78,-147.641 1068.72,-146.351"/>
<polygon fill="midnightblue" stroke="midnightblue" points="1069.97,-149.622 1078.32,-143.1 1067.73,-142.991 1069.97,-149.622"/>
</g>
<!-- Node18 -->
<g id="node18" class="node"><title>Node18</title>
<polygon fill="none" stroke="#bfbfbf" points="807.237,-123 807.237,-143 922.763,-143 922.763,-123 807.237,-123"/>
<text text-anchor="middle" x="865" y="-129" font-family="Helvetica,sans-Serif" font-size="10.00">boost/range/begin.hpp</text>
</g>
<!-- Node3&#45;&gt;Node18 -->
<g id="edge22" class="edge"><title>Node3&#45;&gt;Node18</title>
<path fill="none" stroke="midnightblue" d="M819.376,-198.926C827.641,-187.165 842.231,-166.402 852.688,-151.521"/>
<polygon fill="midnightblue" stroke="midnightblue" points="855.686,-153.342 858.572,-143.148 849.958,-149.318 855.686,-153.342"/>
</g>
<!-- Node19 -->
<g id="node19" class="node"><title>Node19</title>
<polygon fill="none" stroke="#bfbfbf" points="941.128,-123 941.128,-143 1048.87,-143 1048.87,-123 941.128,-123"/>
<text text-anchor="middle" x="995" y="-129" font-family="Helvetica,sans-Serif" font-size="10.00">boost/range/end.hpp</text>
</g>
<!-- Node3&#45;&gt;Node19 -->
<g id="edge23" class="edge"><title>Node3&#45;&gt;Node19</title>
<path fill="none" stroke="midnightblue" d="M835.317,-198.926C867.332,-185.909 926.465,-161.866 963.093,-146.973"/>
<polygon fill="midnightblue" stroke="midnightblue" points="964.84,-150.041 972.786,-143.032 962.204,-143.557 964.84,-150.041"/>
</g>
<!-- Node20 -->
<g id="node20" class="node"><title>Node20</title>
<polygon fill="none" stroke="#bfbfbf" points="399.313,-117 399.313,-149 498.687,-149 498.687,-117 399.313,-117"/>
<text text-anchor="start" x="407.313" y="-135" font-family="Helvetica,sans-Serif" font-size="10.00">boost/type_traits/is</text>
<text text-anchor="middle" x="449" y="-123" font-family="Helvetica,sans-Serif" font-size="10.00">_convertible.hpp</text>
</g>
<!-- Node3&#45;&gt;Node20 -->
<g id="edge24" class="edge"><title>Node3&#45;&gt;Node20</title>
<path fill="none" stroke="midnightblue" d="M774.625,-201.765C718.27,-192.381 609.655,-173.438 508.668,-150.302"/>
<polygon fill="midnightblue" stroke="midnightblue" points="509.452,-146.891 498.921,-148.05 507.876,-153.712 509.452,-146.891"/>
</g>
<!-- Node21 -->
<g id="node21" class="node"><title>Node21</title>
<polygon fill="none" stroke="#bfbfbf" points="516.251,-123 516.251,-143 611.749,-143 611.749,-123 516.251,-123"/>
<text text-anchor="middle" x="564" y="-129" font-family="Helvetica,sans-Serif" font-size="10.00">boost/mpl/not.hpp</text>
</g>
<!-- Node3&#45;&gt;Node21 -->
<g id="edge25" class="edge"><title>Node3&#45;&gt;Node21</title>
<path fill="none" stroke="midnightblue" d="M782.468,-198.926C737.637,-185.603 653.942,-160.73 604.172,-145.939"/>
<polygon fill="midnightblue" stroke="midnightblue" points="604.975,-142.526 594.392,-143.032 602.981,-149.236 604.975,-142.526"/>
</g>
<!-- Node22 -->
<g id="node22" class="node"><title>Node22</title>
<polygon fill="none" stroke="#bfbfbf" points="629.625,-123 629.625,-143 714.375,-143 714.375,-123 629.625,-123"/>
<text text-anchor="middle" x="672" y="-129" font-family="Helvetica,sans-Serif" font-size="10.00">boost/array.hpp</text>
</g>
<!-- Node3&#45;&gt;Node22 -->
<g id="edge26" class="edge"><title>Node3&#45;&gt;Node22</title>
<path fill="none" stroke="midnightblue" d="M795.711,-198.926C771.397,-186.166 726.898,-162.812 698.421,-147.867"/>
<polygon fill="midnightblue" stroke="midnightblue" points="699.912,-144.696 689.431,-143.148 696.659,-150.894 699.912,-144.696"/>
</g>
<!-- Node23 -->
<g id="node23" class="node"><title>Node23</title>
<polygon fill="none" stroke="#bfbfbf" points="732.436,-123 732.436,-143 789.564,-143 789.564,-123 732.436,-123"/>
<text text-anchor="middle" x="761" y="-129" font-family="Helvetica,sans-Serif" font-size="10.00">algorithm</text>
</g>
<!-- Node3&#45;&gt;Node23 -->
<g id="edge27" class="edge"><title>Node3&#45;&gt;Node23</title>
<path fill="none" stroke="midnightblue" d="M806.624,-198.926C798.359,-187.165 783.769,-166.402 773.312,-151.521"/>
<polygon fill="midnightblue" stroke="midnightblue" points="776.042,-149.318 767.428,-143.148 770.314,-153.342 776.042,-149.318"/>
</g>
<!-- Node4&#45;&gt;Node5 -->
<g id="edge4" class="edge"><title>Node4&#45;&gt;Node5</title>
<path fill="none" stroke="midnightblue" d="M1171.55,-58.7527C1166.94,-50.9242 1160.19,-39.4761 1154.53,-29.8679"/>
<polygon fill="midnightblue" stroke="midnightblue" points="1157.44,-27.9136 1149.35,-21.0752 1151.41,-31.4675 1157.44,-27.9136"/>
</g>
<!-- Node6&#45;&gt;Node2 -->
<g id="edge14" class="edge"><title>Node6&#45;&gt;Node2</title>
<path fill="none" stroke="midnightblue" d="M262.304,-122.984C209.53,-114.362 129.796,-100.06 52.727,-80.2292"/>
<polygon fill="midnightblue" stroke="midnightblue" points="53.4148,-76.7916 42.8552,-77.6543 51.6481,-83.565 53.4148,-76.7916"/>
</g>
<!-- Node6&#45;&gt;Node5 -->
<g id="edge9" class="edge"><title>Node6&#45;&gt;Node5</title>
<path fill="none" stroke="midnightblue" d="M357.777,-122.946C368.163,-120.533 379.497,-118.033 390,-116 492.012,-96.2511 523.032,-114.622 621,-80 639.4,-73.4975 640.413,-63.9473 659,-58 733.775,-34.074 955.156,-20.6585 1071.19,-15.0919"/>
<polygon fill="midnightblue" stroke="midnightblue" points="1071.57,-18.5776 1081.4,-14.6092 1071.24,-11.5854 1071.57,-18.5776"/>
</g>
<!-- Node7 -->
<g id="node7" class="node"><title>Node7</title>
<polygon fill="none" stroke="#bfbfbf" points="60.2192,-59 60.2192,-79 111.781,-79 111.781,-59 60.2192,-59"/>
<text text-anchor="middle" x="86" y="-65" font-family="Helvetica,sans-Serif" font-size="10.00">sstream</text>
</g>
<!-- Node6&#45;&gt;Node7 -->
<g id="edge6" class="edge"><title>Node6&#45;&gt;Node7</title>
<path fill="none" stroke="midnightblue" d="M285.164,-122.958C247.046,-113.279 184.743,-97.2861 121.688,-80.1443"/>
<polygon fill="midnightblue" stroke="midnightblue" points="122.543,-76.7497 111.974,-77.496 120.702,-83.5032 122.543,-76.7497"/>
</g>
<!-- Node8 -->
<g id="node8" class="node"><title>Node8</title>
<polygon fill="none" stroke="#bfbfbf" points="129.828,-59 129.828,-79 184.172,-79 184.172,-59 129.828,-59"/>
<text text-anchor="middle" x="157" y="-65" font-family="Helvetica,sans-Serif" font-size="10.00">iostream</text>
</g>
<!-- Node6&#45;&gt;Node8 -->
<g id="edge7" class="edge"><title>Node6&#45;&gt;Node8</title>
<path fill="none" stroke="midnightblue" d="M297.153,-122.985C269.096,-112.378 222.326,-94.6964 190.604,-82.7038"/>
<polygon fill="midnightblue" stroke="midnightblue" points="191.467,-79.2886 180.876,-79.0262 188.992,-85.8364 191.467,-79.2886"/>
</g>
<!-- Node9 -->
<g id="node9" class="node"><title>Node9</title>
<polygon fill="none" stroke="#bfbfbf" points="667.773,-59 667.773,-79 708.227,-79 708.227,-59 667.773,-59"/>
<text text-anchor="middle" x="688" y="-65" font-family="Helvetica,sans-Serif" font-size="10.00">string</text>
</g>
<!-- Node6&#45;&gt;Node9 -->
<g id="edge8" class="edge"><title>Node6&#45;&gt;Node9</title>
<path fill="none" stroke="midnightblue" d="M357.037,-122.982C367.616,-120.514 379.236,-117.978 390,-116 506.47,-94.6023 538.202,-104.777 654,-80 655.252,-79.7321 656.526,-79.4416 657.808,-79.134"/>
<polygon fill="midnightblue" stroke="midnightblue" points="658.861,-82.476 667.631,-76.5319 657.069,-75.7093 658.861,-82.476"/>
</g>
<!-- Node10 -->
<g id="node10" class="node"><title>Node10</title>
<polygon fill="none" stroke="#bfbfbf" points="201.98,-59 201.98,-79 278.02,-79 278.02,-59 201.98,-59"/>
<text text-anchor="middle" x="240" y="-65" font-family="Helvetica,sans-Serif" font-size="10.00">internal/use.h</text>
</g>
<!-- Node6&#45;&gt;Node10 -->
<g id="edge10" class="edge"><title>Node6&#45;&gt;Node10</title>
<path fill="none" stroke="midnightblue" d="M309.048,-122.852C296.246,-113.053 275.701,-97.327 260.345,-85.5728"/>
<polygon fill="midnightblue" stroke="midnightblue" points="262.069,-82.4847 252.001,-79.1858 257.814,-88.0433 262.069,-82.4847"/>
</g>
<!-- Node11 -->
<g id="node11" class="node"><title>Node11</title>
<polygon fill="none" stroke="#bfbfbf" points="296.306,-59 296.306,-79 385.694,-79 385.694,-59 296.306,-59"/>
<text text-anchor="middle" x="341" y="-65" font-family="Helvetica,sans-Serif" font-size="10.00">boost/config.hpp</text>
</g>
<!-- Node6&#45;&gt;Node11 -->
<g id="edge11" class="edge"><title>Node6&#45;&gt;Node11</title>
<path fill="none" stroke="midnightblue" d="M323.951,-122.852C326.817,-113.969 331.253,-100.215 334.882,-88.9644"/>
<polygon fill="midnightblue" stroke="midnightblue" points="338.298,-89.7775 338.037,-79.1858 331.636,-87.6284 338.298,-89.7775"/>
</g>
<!-- Node12 -->
<g id="node12" class="node"><title>Node12</title>
<polygon fill="none" stroke="#bfbfbf" points="403.53,-59 403.53,-79 498.47,-79 498.47,-59 403.53,-59"/>
<text text-anchor="middle" x="451" y="-65" font-family="Helvetica,sans-Serif" font-size="10.00">boost/version.hpp</text>
</g>
<!-- Node6&#45;&gt;Node12 -->
<g id="edge12" class="edge"><title>Node6&#45;&gt;Node12</title>
<path fill="none" stroke="midnightblue" d="M339.903,-122.985C361.758,-112.561 397.938,-95.3066 423.046,-83.3319"/>
<polygon fill="midnightblue" stroke="midnightblue" points="424.555,-86.4901 432.074,-79.0262 421.541,-80.1719 424.555,-86.4901"/>
</g>
<!-- Node13 -->
<g id="node13" class="node"><title>Node13</title>
<polygon fill="none" stroke="#bfbfbf" points="515.971,-59 515.971,-79 612.029,-79 612.029,-59 515.971,-59"/>
<text text-anchor="middle" x="564" y="-65" font-family="Helvetica,sans-Serif" font-size="10.00">boost/foreach.hpp</text>
</g>
<!-- Node6&#45;&gt;Node13 -->
<g id="edge13" class="edge"><title>Node6&#45;&gt;Node13</title>
<path fill="none" stroke="midnightblue" d="M356.334,-122.985C399.256,-112.033 471.735,-93.5408 518.715,-81.5541"/>
<polygon fill="midnightblue" stroke="midnightblue" points="519.799,-84.8899 528.623,-79.0262 518.068,-78.1072 519.799,-84.8899"/>
</g>
<!-- Node14&#45;&gt;Node4 -->
<g id="edge19" class="edge"><title>Node14&#45;&gt;Node4</title>
<path fill="none" stroke="midnightblue" d="M1113.92,-122.852C1125.51,-113.144 1144.03,-97.6205 1158.02,-85.9034"/>
<polygon fill="midnightblue" stroke="midnightblue" points="1160.62,-88.2909 1166.04,-79.1858 1156.12,-82.9252 1160.62,-88.2909"/>
</g>
<!-- Node14&#45;&gt;Node5 -->
<g id="edge20" class="edge"><title>Node14&#45;&gt;Node5</title>
<path fill="none" stroke="midnightblue" d="M1106.08,-122.98C1112.76,-103.435 1128.68,-56.8286 1137.63,-30.6548"/>
<polygon fill="midnightblue" stroke="midnightblue" points="1140.96,-31.7187 1140.88,-21.1242 1134.34,-29.4555 1140.96,-31.7187"/>
</g>
<!-- Node14&#45;&gt;Node9 -->
<g id="edge18" class="edge"><title>Node14&#45;&gt;Node9</title>
<path fill="none" stroke="midnightblue" d="M1080.37,-122.972C1073.02,-120.354 1064.76,-117.735 1057,-116 911.896,-83.5348 867.246,-111.713 718.388,-79.8724"/>
<polygon fill="midnightblue" stroke="midnightblue" points="718.948,-76.412 708.43,-77.687 717.447,-83.2493 718.948,-76.412"/>
</g>
<!-- Node15 -->
<g id="node15" class="node"><title>Node15</title>
<polygon fill="none" stroke="#bfbfbf" points="726.451,-59 726.451,-79 877.549,-79 877.549,-59 726.451,-59"/>
<text text-anchor="middle" x="802" y="-65" font-family="Helvetica,sans-Serif" font-size="10.00">boost/exception/exception.hpp</text>
</g>
<!-- Node14&#45;&gt;Node15 -->
<g id="edge16" class="edge"><title>Node14&#45;&gt;Node15</title>
<path fill="none" stroke="midnightblue" d="M1079.34,-122.978C1072.23,-120.482 1064.36,-117.931 1057,-116 997.646,-100.426 929.146,-88.3889 878.098,-80.541"/>
<polygon fill="midnightblue" stroke="midnightblue" points="878.541,-77.0682 868.129,-79.0275 877.49,-83.9889 878.541,-77.0682"/>
</g>
<!-- Node16 -->
<g id="node16" class="node"><title>Node16</title>
<polygon fill="none" stroke="#bfbfbf" points="895.596,-59 895.596,-79 954.404,-79 954.404,-59 895.596,-59"/>
<text text-anchor="middle" x="925" y="-65" font-family="Helvetica,sans-Serif" font-size="10.00">exception</text>
</g>
<!-- Node14&#45;&gt;Node16 -->
<g id="edge17" class="edge"><title>Node14&#45;&gt;Node16</title>
<path fill="none" stroke="midnightblue" d="M1077.12,-122.985C1046.4,-112.286 995.022,-94.3897 960.582,-82.3936"/>
<polygon fill="midnightblue" stroke="midnightblue" points="961.509,-79.0104 950.914,-79.0262 959.206,-85.6208 961.509,-79.0104"/>
</g>
<!-- Node17 -->
<g id="node17" class="node"><title>Node17</title>
<polygon fill="none" stroke="#bfbfbf" points="972.766,-59 972.766,-79 1083.23,-79 1083.23,-59 972.766,-59"/>
<text text-anchor="middle" x="1028" y="-65" font-family="Helvetica,sans-Serif" font-size="10.00">RMF/internal/errors.h</text>
</g>
<!-- Node14&#45;&gt;Node17 -->
<g id="edge21" class="edge"><title>Node14&#45;&gt;Node17</title>
<path fill="none" stroke="midnightblue" d="M1091.93,-122.852C1080.08,-113.053 1061.06,-97.327 1046.84,-85.5728"/>
<polygon fill="midnightblue" stroke="midnightblue" points="1049.05,-82.8597 1039.11,-79.1858 1044.59,-88.255 1049.05,-82.8597"/>
</g>
</g>
</svg>
