<?xml version="1.0" encoding="UTF-8" standalone="no"?>
<!DOCTYPE svg PUBLIC "-//W3C//DTD SVG 1.1//EN"
 "http://www.w3.org/Graphics/SVG/1.1/DTD/svg11.dtd">
<!-- Generated by graphviz version 2.36.0 (20140111.2315)
 -->
<!-- Title: CoordinateTransformer.h Pages: 1 -->
<!--zoomable 298 -->
<svg id="main" version="1.1" xmlns="http://www.w3.org/2000/svg" xmlns:xlink="http://www.w3.org/1999/xlink" xml:space="preserve" onload="init(evt)">
<style type="text/css"><![CDATA[
.edge:hover path { stroke: red; }
.edge:hover polygon { stroke: red; fill: red; }
]]></style>
<script type="text/javascript"><![CDATA[
var edges = document.getElementsByTagName('g');
if (edges && edges.length) {
  for (var i=0;i<edges.length;i++) {
    if (edges[i].id.substr(0,4)=='edge') {
      edges[i].setAttribute('class','edge');
    }
  }
}
]]></script>
        <defs>
                <circle id="rim" cx="0" cy="0" r="7"/>
                <circle id="rim2" cx="0" cy="0" r="3.5"/>
                <g id="zoomPlus">
                        <use xlink:href="#rim" fill="#404040">
                                <set attributeName="fill" to="#808080" begin="zoomplus.mouseover" end="zoomplus.mouseout"/>
                        </use>
                        <path d="M-4,0h8M0,-4v8" fill="none" stroke="white" stroke-width="1.5" pointer-events="none"/>
                </g>
                <g id="zoomMin">
                        <use xlink:href="#rim" fill="#404040">
                                <set attributeName="fill" to="#808080" begin="zoomminus.mouseover" end="zoomminus.mouseout"/>
                        </use>
                        <path d="M-4,0h8" fill="none" stroke="white" stroke-width="1.5" pointer-events="none"/>
                </g>
                <g id="dirArrow">
                        <path fill="none" stroke="white" stroke-width="1.5" d="M0,-3.0v7 M-2.5,-0.5L0,-3.0L2.5,-0.5"/>
                </g>
               <g id="resetDef">
                       <use xlink:href="#rim2" fill="#404040">
                               <set attributeName="fill" to="#808080" begin="reset.mouseover" end="reset.mouseout"/>
                       </use>
               </g>
        </defs>

<script type="text/javascript">
var viewWidth = 1539;
var viewHeight = 298;
var sectionId = 'dynsection-0';
</script>
<script xlink:href="svgpan.js"/>
<svg id="graph" class="graph">
<g id="viewport">
<title>CoordinateTransformer.h</title>
<!-- Node1 -->
<g id="node1" class="node"><title>Node1</title>
<polygon fill="#bfbfbf" stroke="black" points="1206.6,-271 1206.6,-289 1333.4,-289 1333.4,-271 1206.6,-271"/>
<text text-anchor="middle" x="1270" y="-277" font-family="Helvetica,sans-Serif" font-size="10.00">CoordinateTransformer.h</text>
</g>
<!-- Node2 -->
<g id="node2" class="node"><title>Node2</title>
<polygon fill="none" stroke="#bfbfbf" points="-0.615723,-66 -0.615723,-84 42.6157,-84 42.6157,-66 -0.615723,-66"/>
<text text-anchor="middle" x="21" y="-72" font-family="Helvetica,sans-Serif" font-size="10.00">vector</text>
</g>
<!-- Node1&#45;&gt;Node2 -->
<g id="edge1" class="edge"><title>Node1&#45;&gt;Node2</title>
<path fill="none" stroke="midnightblue" d="M1206.47,-278.756C1073.44,-277.493 756.16,-270.533 493,-234 342.4,-213.093 300.062,-216.737 159,-160 113.144,-141.556 65.0279,-108.701 39.4925,-90.0149"/>
<polygon fill="midnightblue" stroke="midnightblue" points="41.5593,-87.1902 31.4427,-84.0431 37.3887,-92.8121 41.5593,-87.1902"/>
</g>
<!-- Node3 -->
<g id="node3" class="node"><title>Node3</title>
<g id="a_node3"><a xlink:href="Vector_8h.html" target="_top" xlink:title="Represent coordinates. ">
<polygon fill="none" stroke="black" points="767.707,-206 767.707,-224 844.293,-224 844.293,-206 767.707,-206"/>
<text text-anchor="middle" x="806" y="-212" font-family="Helvetica,sans-Serif" font-size="10.00">RMF/Vector.h</text>
</a>
</g>
</g>
<!-- Node1&#45;&gt;Node3 -->
<g id="edge2" class="edge"><title>Node1&#45;&gt;Node3</title>
<path fill="none" stroke="midnightblue" d="M1210.76,-270.957C1117.91,-258.35 939.885,-234.178 854.292,-222.557"/>
<polygon fill="midnightblue" stroke="midnightblue" points="854.704,-219.081 844.324,-221.203 853.762,-226.017 854.704,-219.081"/>
</g>
<!-- Node4 -->
<g id="node4" class="node"><title>Node4</title>
<g id="a_node4"><a xlink:href="config_8h_source.html" target="_top" xlink:title="RMF/config.h">
<polygon fill="none" stroke="black" points="1118.27,-66 1118.27,-84 1193.73,-84 1193.73,-66 1118.27,-66"/>
<text text-anchor="middle" x="1156" y="-72" font-family="Helvetica,sans-Serif" font-size="10.00">RMF/config.h</text>
</a>
</g>
</g>
<!-- Node1&#45;&gt;Node4 -->
<g id="edge30" class="edge"><title>Node1&#45;&gt;Node4</title>
<path fill="none" stroke="midnightblue" d="M1268.01,-270.677C1262.13,-247.103 1243.15,-178.453 1211,-130 1201,-114.926 1186.22,-100.714 1174.5,-90.6567"/>
<polygon fill="midnightblue" stroke="midnightblue" points="1176.55,-87.8091 1166.62,-84.1151 1172.08,-93.1953 1176.55,-87.8091"/>
</g>
<!-- Node5 -->
<g id="node5" class="node"><title>Node5</title>
<g id="a_node5"><a xlink:href="compiler__macros_8h.html" target="_top" xlink:title="Various compiler workarounds. ">
<polygon fill="none" stroke="black" points="1045.54,-1 1045.54,-19 1170.46,-19 1170.46,-1 1045.54,-1"/>
<text text-anchor="middle" x="1108" y="-7" font-family="Helvetica,sans-Serif" font-size="10.00">RMF/compiler_macros.h</text>
</a>
</g>
</g>
<!-- Node1&#45;&gt;Node5 -->
<g id="edge29" class="edge"><title>Node1&#45;&gt;Node5</title>
<path fill="none" stroke="midnightblue" d="M1270.48,-270.605C1271.14,-255.452 1271.56,-222.632 1265,-196 1248.68,-129.748 1249.67,-104.814 1202,-56 1186.82,-40.4581 1165.2,-29.596 1146.52,-22.4428"/>
<polygon fill="midnightblue" stroke="midnightblue" points="1147.67,-19.1349 1137.07,-19.035 1145.29,-25.7198 1147.67,-19.1349"/>
</g>
<!-- Node6 -->
<g id="node6" class="node"><title>Node6</title>
<g id="a_node6"><a xlink:href="infrastructure__macros_8h.html" target="_top" xlink:title="Various general useful macros for IMP. ">
<polygon fill="none" stroke="black" points="168.48,-136 168.48,-154 289.52,-154 289.52,-136 168.48,-136"/>
<text text-anchor="middle" x="229" y="-142" font-family="Helvetica,sans-Serif" font-size="10.00">infrastructure_macros.h</text>
</a>
</g>
</g>
<!-- Node1&#45;&gt;Node6 -->
<g id="edge33" class="edge"><title>Node1&#45;&gt;Node6</title>
<path fill="none" stroke="midnightblue" d="M1206.51,-274.871C1109.75,-268.248 919.631,-253.939 759,-234 553.069,-208.438 502.171,-197.084 298,-160 291.293,-158.782 284.234,-157.43 277.295,-156.061"/>
<polygon fill="midnightblue" stroke="midnightblue" points="277.76,-152.585 267.268,-154.055 276.387,-159.449 277.76,-152.585"/>
</g>
<!-- Node25 -->
<g id="node25" class="node"><title>Node25</title>
<polygon fill="none" stroke="black" points="1317,-197 1317,-233 1371,-233 1371,-197 1317,-197"/>
<text text-anchor="middle" x="1343.51" y="-212" font-family="Helvetica,sans-Serif" font-size="10.00">Node25</text>
</g>
<!-- Node1&#45;&gt;Node25 -->
<g id="edge31" class="edge"><title>Node1&#45;&gt;Node25</title>
<path fill="none" stroke="midnightblue" d="M1279.67,-270.764C1288.95,-262.864 1303.41,-250.555 1316.27,-239.605"/>
<polygon fill="midnightblue" stroke="midnightblue" points="1318.67,-242.162 1324.01,-233.015 1314.13,-236.832 1318.67,-242.162"/>
</g>
<!-- Node26 -->
<g id="node26" class="node"><title>Node26</title>
<polygon fill="none" stroke="#bfbfbf" points="1388.94,-206 1388.94,-224 1441.06,-224 1441.06,-206 1388.94,-206"/>
<text text-anchor="middle" x="1415" y="-212" font-family="Helvetica,sans-Serif" font-size="10.00">ostream</text>
</g>
<!-- Node1&#45;&gt;Node26 -->
<g id="edge32" class="edge"><title>Node1&#45;&gt;Node26</title>
<path fill="none" stroke="midnightblue" d="M1291.32,-270.911C1313.65,-262.291 1349.64,-247.985 1380,-234 1383.49,-232.39 1387.15,-230.618 1390.71,-228.832"/>
<polygon fill="midnightblue" stroke="midnightblue" points="1392.5,-231.849 1399.81,-224.176 1389.31,-225.618 1392.5,-231.849"/>
</g>
<!-- Node27 -->
<g id="node27" class="node"><title>Node27</title>
<polygon fill="none" stroke="#bfbfbf" points="1458.66,-206 1458.66,-224 1531.34,-224 1531.34,-206 1458.66,-206"/>
<text text-anchor="middle" x="1495" y="-212" font-family="Helvetica,sans-Serif" font-size="10.00">RMF/types.h</text>
</g>
<!-- Node1&#45;&gt;Node27 -->
<g id="edge34" class="edge"><title>Node1&#45;&gt;Node27</title>
<path fill="none" stroke="midnightblue" d="M1308.35,-270.997C1345.08,-262.959 1401.88,-249.56 1450,-234 1455.5,-232.22 1461.3,-230.098 1466.83,-227.946"/>
<polygon fill="midnightblue" stroke="midnightblue" points="1468.41,-231.084 1476.38,-224.107 1465.79,-224.589 1468.41,-231.084"/>
</g>
<!-- Node3&#45;&gt;Node4 -->
<g id="edge3" class="edge"><title>Node3&#45;&gt;Node4</title>
<path fill="none" stroke="midnightblue" d="M844.39,-214.705C933.072,-215.427 1148.02,-211.688 1193,-160 1210.69,-139.672 1188.86,-109.547 1172.01,-91.4386"/>
<polygon fill="midnightblue" stroke="midnightblue" points="1174.27,-88.7438 1164.78,-84.0422 1169.27,-93.6385 1174.27,-88.7438"/>
</g>
<!-- Node3&#45;&gt;Node6 -->
<g id="edge5" class="edge"><title>Node3&#45;&gt;Node6</title>
<path fill="none" stroke="midnightblue" d="M767.604,-211.162C682.643,-204.612 472.433,-186.906 298,-160 290.691,-158.873 282.983,-157.496 275.473,-156.051"/>
<polygon fill="midnightblue" stroke="midnightblue" points="275.9,-152.568 265.411,-154.056 274.539,-159.434 275.9,-152.568"/>
</g>
<!-- Node14 -->
<g id="node14" class="node"><title>Node14</title>
<g id="a_node14"><a xlink:href="exceptions_8h.html" target="_top" xlink:title="Declarations of the various exception types. ">
<polygon fill="none" stroke="black" points="852.926,-136 852.926,-154 925.074,-154 925.074,-136 852.926,-136"/>
<text text-anchor="middle" x="889" y="-142" font-family="Helvetica,sans-Serif" font-size="10.00">exceptions.h</text>
</a>
</g>
</g>
<!-- Node3&#45;&gt;Node14 -->
<g id="edge15" class="edge"><title>Node3&#45;&gt;Node14</title>
<path fill="none" stroke="midnightblue" d="M815.847,-205.932C829.45,-194.788 854.224,-174.491 871.138,-160.634"/>
<polygon fill="midnightblue" stroke="midnightblue" points="873.648,-163.102 879.166,-154.057 869.212,-157.687 873.648,-163.102"/>
</g>
<!-- Node18 -->
<g id="node18" class="node"><title>Node18</title>
<polygon fill="none" stroke="#bfbfbf" points="943.237,-136 943.237,-154 1058.76,-154 1058.76,-136 943.237,-136"/>
<text text-anchor="middle" x="1001" y="-142" font-family="Helvetica,sans-Serif" font-size="10.00">boost/range/begin.hpp</text>
</g>
<!-- Node3&#45;&gt;Node18 -->
<g id="edge22" class="edge"><title>Node3&#45;&gt;Node18</title>
<path fill="none" stroke="midnightblue" d="M829.135,-205.932C863.659,-193.893 928.81,-171.174 968.225,-157.429"/>
<polygon fill="midnightblue" stroke="midnightblue" points="969.605,-160.655 977.895,-154.057 967.3,-154.045 969.605,-160.655"/>
</g>
<!-- Node19 -->
<g id="node19" class="node"><title>Node19</title>
<polygon fill="none" stroke="#bfbfbf" points="1077.13,-136 1077.13,-154 1184.87,-154 1184.87,-136 1077.13,-136"/>
<text text-anchor="middle" x="1131" y="-142" font-family="Helvetica,sans-Serif" font-size="10.00">boost/range/end.hpp</text>
</g>
<!-- Node3&#45;&gt;Node19 -->
<g id="edge23" class="edge"><title>Node3&#45;&gt;Node19</title>
<path fill="none" stroke="midnightblue" d="M844.503,-206.176C895.445,-195.792 988.024,-176.807 1067,-160 1072.7,-158.787 1078.69,-157.498 1084.61,-156.213"/>
<polygon fill="midnightblue" stroke="midnightblue" points="1085.44,-159.615 1094.46,-154.067 1083.95,-152.775 1085.44,-159.615"/>
</g>
<!-- Node20 -->
<g id="node20" class="node"><title>Node20</title>
<polygon fill="none" stroke="#bfbfbf" points="307.313,-131 307.313,-159 406.687,-159 406.687,-131 307.313,-131"/>
<text text-anchor="start" x="315.313" y="-147" font-family="Helvetica,sans-Serif" font-size="10.00">boost/type_traits/is</text>
<text text-anchor="middle" x="357" y="-137" font-family="Helvetica,sans-Serif" font-size="10.00">_convertible.hpp</text>
</g>
<!-- Node3&#45;&gt;Node20 -->
<g id="edge24" class="edge"><title>Node3&#45;&gt;Node20</title>
<path fill="none" stroke="midnightblue" d="M767.499,-209.971C698.868,-202.511 550.73,-185.15 416.935,-160.266"/>
<polygon fill="midnightblue" stroke="midnightblue" points="417.393,-156.791 406.919,-158.383 416.1,-163.67 417.393,-156.791"/>
</g>
<!-- Node21 -->
<g id="node21" class="node"><title>Node21</title>
<polygon fill="none" stroke="#bfbfbf" points="424.251,-136 424.251,-154 519.749,-154 519.749,-136 424.251,-136"/>
<text text-anchor="middle" x="472" y="-142" font-family="Helvetica,sans-Serif" font-size="10.00">boost/mpl/not.hpp</text>
</g>
<!-- Node3&#45;&gt;Node21 -->
<g id="edge25" class="edge"><title>Node3&#45;&gt;Node21</title>
<path fill="none" stroke="midnightblue" d="M767.341,-207.073C713.69,-197.322 613.694,-178.645 529,-160 523.967,-158.892 518.697,-157.675 513.481,-156.436"/>
<polygon fill="midnightblue" stroke="midnightblue" points="514.136,-152.994 503.594,-154.048 512.493,-159.798 514.136,-152.994"/>
</g>
<!-- Node22 -->
<g id="node22" class="node"><title>Node22</title>
<polygon fill="none" stroke="#bfbfbf" points="537.625,-136 537.625,-154 622.375,-154 622.375,-136 537.625,-136"/>
<text text-anchor="middle" x="580" y="-142" font-family="Helvetica,sans-Serif" font-size="10.00">boost/array.hpp</text>
</g>
<!-- Node3&#45;&gt;Node22 -->
<g id="edge26" class="edge"><title>Node3&#45;&gt;Node22</title>
<path fill="none" stroke="midnightblue" d="M779.187,-205.932C738.75,-193.765 662.059,-170.69 616.541,-156.995"/>
<polygon fill="midnightblue" stroke="midnightblue" points="617.362,-153.587 606.778,-154.057 615.345,-160.29 617.362,-153.587"/>
</g>
<!-- Node23 -->
<g id="node23" class="node"><title>Node23</title>
<polygon fill="none" stroke="#bfbfbf" points="640.582,-136 640.582,-154 759.418,-154 759.418,-136 640.582,-136"/>
<text text-anchor="middle" x="700" y="-142" font-family="Helvetica,sans-Serif" font-size="10.00">boost/static_assert.hpp</text>
</g>
<!-- Node3&#45;&gt;Node23 -->
<g id="edge27" class="edge"><title>Node3&#45;&gt;Node23</title>
<path fill="none" stroke="midnightblue" d="M793.424,-205.932C775.574,-194.481 742.661,-173.367 721.052,-159.505"/>
<polygon fill="midnightblue" stroke="midnightblue" points="722.866,-156.511 712.559,-154.057 719.087,-162.403 722.866,-156.511"/>
</g>
<!-- Node24 -->
<g id="node24" class="node"><title>Node24</title>
<polygon fill="none" stroke="#bfbfbf" points="777.436,-136 777.436,-154 834.564,-154 834.564,-136 777.436,-136"/>
<text text-anchor="middle" x="806" y="-142" font-family="Helvetica,sans-Serif" font-size="10.00">algorithm</text>
</g>
<!-- Node3&#45;&gt;Node24 -->
<g id="edge28" class="edge"><title>Node3&#45;&gt;Node24</title>
<path fill="none" stroke="midnightblue" d="M806,-205.932C806,-195.708 806,-177.781 806,-164.19"/>
<polygon fill="midnightblue" stroke="midnightblue" points="809.5,-164.057 806,-154.057 802.5,-164.057 809.5,-164.057"/>
</g>
<!-- Node4&#45;&gt;Node5 -->
<g id="edge4" class="edge"><title>Node4&#45;&gt;Node5</title>
<path fill="none" stroke="midnightblue" d="M1149.72,-65.7639C1142.28,-55.9945 1129.7,-39.4798 1120.29,-27.135"/>
<polygon fill="midnightblue" stroke="midnightblue" points="1122.97,-24.8722 1114.12,-19.039 1117.4,-29.1145 1122.97,-24.8722"/>
</g>
<!-- Node6&#45;&gt;Node2 -->
<g id="edge11" class="edge"><title>Node6&#45;&gt;Node2</title>
<path fill="none" stroke="midnightblue" d="M189.076,-135.993C152.303,-127.875 96.6864,-113.701 51,-94 47.8766,-92.6531 44.6842,-91.0342 41.6024,-89.3267"/>
<polygon fill="midnightblue" stroke="midnightblue" points="43.2504,-86.2344 32.8683,-84.1218 39.6669,-92.2477 43.2504,-86.2344"/>
</g>
<!-- Node6&#45;&gt;Node5 -->
<g id="edge9" class="edge"><title>Node6&#45;&gt;Node5</title>
<path fill="none" stroke="midnightblue" d="M265.783,-135.961C276.169,-133.848 287.501,-131.69 298,-130 431.019,-108.587 477.812,-152.872 599,-94 620.484,-83.5634 615.394,-66.1804 637,-56 705.705,-23.6279 920.909,-14.5433 1035.12,-11.9941"/>
<polygon fill="midnightblue" stroke="midnightblue" points="1035.25,-15.4921 1045.18,-11.7807 1035.11,-8.49369 1035.25,-15.4921"/>
</g>
<!-- Node7 -->
<g id="node7" class="node"><title>Node7</title>
<polygon fill="none" stroke="#bfbfbf" points="60.2192,-66 60.2192,-84 111.781,-84 111.781,-66 60.2192,-66"/>
<text text-anchor="middle" x="86" y="-72" font-family="Helvetica,sans-Serif" font-size="10.00">sstream</text>
</g>
<!-- Node6&#45;&gt;Node7 -->
<g id="edge6" class="edge"><title>Node6&#45;&gt;Node7</title>
<path fill="none" stroke="midnightblue" d="M210.929,-135.91C189.394,-126.205 152.377,-109.323 121,-94 117.543,-92.3115 113.913,-90.4949 110.353,-88.6882"/>
<polygon fill="midnightblue" stroke="midnightblue" points="111.759,-85.4756 101.264,-84.0238 108.563,-91.7034 111.759,-85.4756"/>
</g>
<!-- Node8 -->
<g id="node8" class="node"><title>Node8</title>
<polygon fill="none" stroke="#bfbfbf" points="129.828,-66 129.828,-84 184.172,-84 184.172,-66 129.828,-66"/>
<text text-anchor="middle" x="157" y="-72" font-family="Helvetica,sans-Serif" font-size="10.00">iostream</text>
</g>
<!-- Node6&#45;&gt;Node8 -->
<g id="edge7" class="edge"><title>Node6&#45;&gt;Node8</title>
<path fill="none" stroke="midnightblue" d="M220.458,-135.932C208.766,-124.89 187.561,-104.863 172.9,-91.017"/>
<polygon fill="midnightblue" stroke="midnightblue" points="175.204,-88.3787 165.531,-84.057 170.398,-93.4678 175.204,-88.3787"/>
</g>
<!-- Node9 -->
<g id="node9" class="node"><title>Node9</title>
<polygon fill="none" stroke="#bfbfbf" points="645.773,-66 645.773,-84 686.227,-84 686.227,-66 645.773,-66"/>
<text text-anchor="middle" x="666" y="-72" font-family="Helvetica,sans-Serif" font-size="10.00">string</text>
</g>
<!-- Node6&#45;&gt;Node9 -->
<g id="edge8" class="edge"><title>Node6&#45;&gt;Node9</title>
<path fill="none" stroke="midnightblue" d="M265.412,-135.954C275.895,-133.817 287.37,-131.648 298,-130 445.542,-107.131 489.238,-137.714 632,-94 636.239,-92.7021 640.565,-90.8671 644.649,-88.8609"/>
<polygon fill="midnightblue" stroke="midnightblue" points="646.443,-91.87 653.581,-84.041 643.119,-85.7096 646.443,-91.87"/>
</g>
<!-- Node10 -->
<g id="node10" class="node"><title>Node10</title>
<polygon fill="none" stroke="black" points="202,-57 202,-93 256,-93 256,-57 202,-57"/>
<text text-anchor="middle" x="228.515" y="-72" font-family="Helvetica,sans-Serif" font-size="10.00">Node10</text>
</g>
<!-- Node6&#45;&gt;Node10 -->
<g id="edge10" class="edge"><title>Node6&#45;&gt;Node10</title>
<path fill="none" stroke="midnightblue" d="M229,-135.932C229,-127.906 229,-115.132 229,-103.435"/>
<polygon fill="midnightblue" stroke="midnightblue" points="232.5,-103.163 229,-93.1634 225.5,-103.163 232.5,-103.163"/>
</g>
<!-- Node11 -->
<g id="node11" class="node"><title>Node11</title>
<polygon fill="none" stroke="#bfbfbf" points="274.306,-66 274.306,-84 363.694,-84 363.694,-66 274.306,-66"/>
<text text-anchor="middle" x="319" y="-72" font-family="Helvetica,sans-Serif" font-size="10.00">boost/config.hpp</text>
</g>
<!-- Node6&#45;&gt;Node11 -->
<g id="edge12" class="edge"><title>Node6&#45;&gt;Node11</title>
<path fill="none" stroke="midnightblue" d="M239.678,-135.932C254.563,-124.686 281.785,-104.118 300.134,-90.2543"/>
<polygon fill="midnightblue" stroke="midnightblue" points="302.468,-92.8779 308.336,-84.057 298.248,-87.2929 302.468,-92.8779"/>
</g>
<!-- Node12 -->
<g id="node12" class="node"><title>Node12</title>
<polygon fill="none" stroke="#bfbfbf" points="381.53,-66 381.53,-84 476.47,-84 476.47,-66 381.53,-66"/>
<text text-anchor="middle" x="429" y="-72" font-family="Helvetica,sans-Serif" font-size="10.00">boost/version.hpp</text>
</g>
<!-- Node6&#45;&gt;Node12 -->
<g id="edge13" class="edge"><title>Node6&#45;&gt;Node12</title>
<path fill="none" stroke="midnightblue" d="M252.728,-135.932C288.213,-123.868 355.243,-101.077 395.641,-87.3419"/>
<polygon fill="midnightblue" stroke="midnightblue" points="396.962,-90.5898 405.303,-84.057 394.708,-83.9624 396.962,-90.5898"/>
</g>
<!-- Node13 -->
<g id="node13" class="node"><title>Node13</title>
<polygon fill="none" stroke="#bfbfbf" points="493.971,-66 493.971,-84 590.029,-84 590.029,-66 493.971,-66"/>
<text text-anchor="middle" x="542" y="-72" font-family="Helvetica,sans-Serif" font-size="10.00">boost/foreach.hpp</text>
</g>
<!-- Node6&#45;&gt;Node13 -->
<g id="edge14" class="edge"><title>Node6&#45;&gt;Node13</title>
<path fill="none" stroke="midnightblue" d="M268.394,-135.936C278.071,-133.975 288.407,-131.897 298,-130 381.03,-113.585 402.953,-114.778 485,-94 492.851,-92.0116 501.214,-89.5626 509.045,-87.1187"/>
<polygon fill="midnightblue" stroke="midnightblue" points="510.145,-90.4416 518.603,-84.0607 508.012,-83.7745 510.145,-90.4416"/>
</g>
<!-- Node14&#45;&gt;Node4 -->
<g id="edge19" class="edge"><title>Node14&#45;&gt;Node4</title>
<path fill="none" stroke="midnightblue" d="M914.146,-135.87C920.593,-133.87 927.534,-131.79 934,-130 994.595,-113.222 1065.26,-96.5186 1110.3,-86.2296"/>
<polygon fill="midnightblue" stroke="midnightblue" points="1111.09,-89.6396 1120.06,-84.0079 1109.54,-82.8141 1111.09,-89.6396"/>
</g>
<!-- Node14&#45;&gt;Node5 -->
<g id="edge20" class="edge"><title>Node14&#45;&gt;Node5</title>
<path fill="none" stroke="midnightblue" d="M916.357,-135.906C942.342,-127.555 981.945,-113.069 1013,-94 1044.4,-74.72 1075.56,-44.9353 1093.23,-26.7791"/>
<polygon fill="midnightblue" stroke="midnightblue" points="1095.97,-28.9795 1100.35,-19.3347 1090.91,-24.1398 1095.97,-28.9795"/>
</g>
<!-- Node14&#45;&gt;Node9 -->
<g id="edge18" class="edge"><title>Node14&#45;&gt;Node9</title>
<path fill="none" stroke="midnightblue" d="M863.286,-135.892C856.695,-133.892 849.603,-131.806 843,-130 777.703,-112.138 757.429,-120.178 695,-94 691.885,-92.6939 688.72,-91.077 685.68,-89.3525"/>
<polygon fill="midnightblue" stroke="midnightblue" points="687.465,-86.3411 677.119,-84.0594 683.784,-92.2951 687.465,-86.3411"/>
</g>
<!-- Node15 -->
<g id="node15" class="node"><title>Node15</title>
<polygon fill="none" stroke="#bfbfbf" points="704.451,-66 704.451,-84 855.549,-84 855.549,-66 704.451,-66"/>
<text text-anchor="middle" x="780" y="-72" font-family="Helvetica,sans-Serif" font-size="10.00">boost/exception/exception.hpp</text>
</g>
<!-- Node14&#45;&gt;Node15 -->
<g id="edge16" class="edge"><title>Node14&#45;&gt;Node15</title>
<path fill="none" stroke="midnightblue" d="M876.068,-135.932C857.712,-124.481 823.868,-103.367 801.647,-89.5048"/>
<polygon fill="midnightblue" stroke="midnightblue" points="803.252,-86.3805 792.915,-84.057 799.547,-92.3196 803.252,-86.3805"/>
</g>
<!-- Node16 -->
<g id="node16" class="node"><title>Node16</title>
<polygon fill="none" stroke="#bfbfbf" points="873.596,-66 873.596,-84 932.404,-84 932.404,-66 873.596,-66"/>
<text text-anchor="middle" x="903" y="-72" font-family="Helvetica,sans-Serif" font-size="10.00">exception</text>
</g>
<!-- Node14&#45;&gt;Node16 -->
<g id="edge17" class="edge"><title>Node14&#45;&gt;Node16</title>
<path fill="none" stroke="midnightblue" d="M890.661,-135.932C892.766,-125.708 896.457,-107.781 899.255,-94.1895"/>
<polygon fill="midnightblue" stroke="midnightblue" points="902.753,-94.5574 901.341,-84.057 895.896,-93.1458 902.753,-94.5574"/>
</g>
<!-- Node17 -->
<g id="node17" class="node"><title>Node17</title>
<polygon fill="none" stroke="black" points="950,-57 950,-93 1004,-93 1004,-57 950,-57"/>
<text text-anchor="middle" x="976.515" y="-72" font-family="Helvetica,sans-Serif" font-size="10.00">Node17</text>
</g>
<!-- Node14&#45;&gt;Node17 -->
<g id="edge21" class="edge"><title>Node14&#45;&gt;Node17</title>
<path fill="none" stroke="midnightblue" d="M899.44,-135.932C910.994,-127.005 930.148,-112.204 946.529,-99.5454"/>
<polygon fill="midnightblue" stroke="midnightblue" points="949.016,-102.047 954.789,-93.1634 944.736,-96.5084 949.016,-102.047"/>
</g>
</g>
</svg>
        <g id="navigator" transform="translate(0 0)" fill="#404254">
                <rect fill="#f2f5e9" fill-opacity="0.5" stroke="#606060" stroke-width=".5" x="0" y="0" width="60" height="60"/>
                <use id="zoomplus" xlink:href="#zoomPlus" x="17" y="9" onmousedown="handleZoom(evt,'in')"/>
                <use id="zoomminus" xlink:href="#zoomMin" x="42" y="9" onmousedown="handleZoom(evt,'out')"/>
                <use id="reset" xlink:href="#resetDef" x="30" y="36" onmousedown="handleReset()"/>
                <g id="arrowUp" xlink:href="#dirArrow" transform="translate(30 24)" onmousedown="handlePan(0,-1)">
                  <use xlink:href="#rim" fill="#404040">
                        <set attributeName="fill" to="#808080" begin="arrowUp.mouseover" end="arrowUp.mouseout"/>
                  </use>
                  <path fill="none" stroke="white" stroke-width="1.5" d="M0,-3.0v7 M-2.5,-0.5L0,-3.0L2.5,-0.5"/>
                </g>
                <g id="arrowRight" xlink:href="#dirArrow" transform="rotate(90) translate(36 -43)" onmousedown="handlePan(1,0)">
                  <use xlink:href="#rim" fill="#404040">
                        <set attributeName="fill" to="#808080" begin="arrowRight.mouseover" end="arrowRight.mouseout"/>
                  </use>
                  <path fill="none" stroke="white" stroke-width="1.5" d="M0,-3.0v7 M-2.5,-0.5L0,-3.0L2.5,-0.5"/>
                </g>
                <g id="arrowDown" xlink:href="#dirArrow" transform="rotate(180) translate(-30 -48)" onmousedown="handlePan(0,1)">
                  <use xlink:href="#rim" fill="#404040">
                        <set attributeName="fill" to="#808080" begin="arrowDown.mouseover" end="arrowDown.mouseout"/>
                  </use>
                  <path fill="none" stroke="white" stroke-width="1.5" d="M0,-3.0v7 M-2.5,-0.5L0,-3.0L2.5,-0.5"/>
                </g>
                <g id="arrowLeft" xlink:href="#dirArrow" transform="rotate(270) translate(-36 17)" onmousedown="handlePan(-1,0)">
                  <use xlink:href="#rim" fill="#404040">
                        <set attributeName="fill" to="#808080" begin="arrowLeft.mouseover" end="arrowLeft.mouseout"/>
                  </use>
                  <path fill="none" stroke="white" stroke-width="1.5" d="M0,-3.0v7 M-2.5,-0.5L0,-3.0L2.5,-0.5"/>
                </g>
        </g>
        <svg viewBox="0 0 15 15" width="100%" height="30px" preserveAspectRatio="xMaxYMin meet">
         <g id="arrow_out" transform="scale(0.3 0.3)">
          <a xlink:href="CoordinateTransformer_8h__incl_org.svg" target="_base">
           <rect id="button" ry="5" rx="5" y="6" x="6" height="38" width="38"
                fill="#f2f5e9" fill-opacity="0.5" stroke="#606060" stroke-width="1.0"/>
           <path id="arrow"
             d="M 11.500037,31.436501 C 11.940474,20.09759 22.043105,11.32322 32.158766,21.979434 L 37.068811,17.246167 C 37.068811,17.246167 37.088388,32 37.088388,32 L 22.160133,31.978069 C 22.160133,31.978069 26.997745,27.140456 26.997745,27.140456 C 18.528582,18.264221 13.291696,25.230495 11.500037,31.436501 z"
             style="fill:#404040;"/>
          </a>
         </g>
        </svg>
</svg>
