<?xml version="1.0" encoding="UTF-8" standalone="no"?>
<!DOCTYPE svg PUBLIC "-//W3C//DTD SVG 1.1//EN"
 "http://www.w3.org/Graphics/SVG/1.1/DTD/svg11.dtd">
<!-- Generated by graphviz version 2.34.0 (20131025.1349)
 -->
<!-- Title: CoordinateTransformer.h Pages: 1 -->
<!--zoomable 286 -->
<svg id="main" version="1.1" xmlns="http://www.w3.org/2000/svg" xmlns:xlink="http://www.w3.org/1999/xlink" xml:space="preserve" onload="init(evt)">
<style type="text/css"><![CDATA[
.edge:hover path { stroke: red; }
.edge:hover polygon { stroke: red; fill: red; }
]]></style>
<script type="text/javascript"><![CDATA[
var edges = document.getElementsByTagName('g');
if (edges && edges.length) {
  for (var i=0;i<edges.length;i++) {
    if (edges[i].id.substr(0,4)=='edge') {
      edges[i].setAttribute('class','edge');
    }
  }
}
]]></script>
        <defs>
                <circle id="rim" cx="0" cy="0" r="7"/>
                <circle id="rim2" cx="0" cy="0" r="3.5"/>
                <g id="zoomPlus">
                        <use xlink:href="#rim" fill="#404040">
                                <set attributeName="fill" to="#808080" begin="zoomplus.mouseover" end="zoomplus.mouseout"/>
                        </use>
                        <path d="M-4,0h8M0,-4v8" fill="none" stroke="white" stroke-width="1.5" pointer-events="none"/>
                </g>
                <g id="zoomMin">
                        <use xlink:href="#rim" fill="#404040">
                                <set attributeName="fill" to="#808080" begin="zoomminus.mouseover" end="zoomminus.mouseout"/>
                        </use>
                        <path d="M-4,0h8" fill="none" stroke="white" stroke-width="1.5" pointer-events="none"/>
                </g>
                <g id="dirArrow">
                        <path fill="none" stroke="white" stroke-width="1.5" d="M0,-3.0v7 M-2.5,-0.5L0,-3.0L2.5,-0.5"/>
                </g>
               <g id="resetDef">
                       <use xlink:href="#rim2" fill="#404040">
                               <set attributeName="fill" to="#808080" begin="reset.mouseover" end="reset.mouseout"/>
                       </use>
               </g>
        </defs>

<script type="text/javascript">
var viewWidth = 1595;
var viewHeight = 286;
var sectionId = 'dynsection-0';
</script>
<script xlink:href="svgpan.js"/>
<svg id="graph" class="graph">
<g id="viewport">
<title>CoordinateTransformer.h</title>
<!-- Node1 -->
<g id="node1" class="node"><title>Node1</title>
<polygon fill="#bfbfbf" stroke="black" points="1142.6,-257 1142.6,-277 1269.4,-277 1269.4,-257 1142.6,-257"/>
<text text-anchor="middle" x="1206" y="-263" font-family="Helvetica,sans-Serif" font-size="10.00">CoordinateTransformer.h</text>
</g>
<!-- Node2 -->
<g id="node2" class="node"><title>Node2</title>
<polygon fill="none" stroke="#bfbfbf" points="-0.615723,-59 -0.615723,-79 42.6157,-79 42.6157,-59 -0.615723,-59"/>
<text text-anchor="middle" x="21" y="-65" font-family="Helvetica,sans-Serif" font-size="10.00">vector</text>
</g>
<!-- Node1&#45;&gt;Node2 -->
<g id="edge1" class="edge"><title>Node1&#45;&gt;Node2</title>
<path fill="none" stroke="midnightblue" d="M1142.29,-262.412C1048.07,-256.574 866.19,-243.266 713,-220 419.019,-175.352 342.926,-159.151 52.8357,-80.3181"/>
<polygon fill="midnightblue" stroke="midnightblue" points="53.4357,-76.8543 42.8677,-77.6076 51.5988,-83.609 53.4357,-76.8543"/>
</g>
<!-- Node3 -->
<g id="node3" class="node"><title>Node3</title>
<g id="a_node3"><a xlink:href="Vector_8h.html" target="_top" xlink:title="Represent coordinates. ">
<polygon fill="none" stroke="black" points="1004.71,-187 1004.71,-207 1081.29,-207 1081.29,-187 1004.71,-187"/>
<text text-anchor="middle" x="1043" y="-193" font-family="Helvetica,sans-Serif" font-size="10.00">RMF/Vector.h</text>
</a>
</g>
</g>
<!-- Node1&#45;&gt;Node3 -->
<g id="edge2" class="edge"><title>Node1&#45;&gt;Node3</title>
<path fill="none" stroke="midnightblue" d="M1184.35,-256.97C1156.1,-245.183 1106.46,-224.474 1074.16,-210.999"/>
<polygon fill="midnightblue" stroke="midnightblue" points="1075.31,-207.687 1064.73,-207.067 1072.62,-214.148 1075.31,-207.687"/>
</g>
<!-- Node4 -->
<g id="node4" class="node"><title>Node4</title>
<g id="a_node4"><a xlink:href="config_8h_source.html" target="_top" xlink:title="RMF/config.h">
<polygon fill="none" stroke="black" points="1139.27,-59 1139.27,-79 1214.73,-79 1214.73,-59 1139.27,-59"/>
<text text-anchor="middle" x="1177" y="-65" font-family="Helvetica,sans-Serif" font-size="10.00">RMF/config.h</text>
</a>
</g>
</g>
<!-- Node1&#45;&gt;Node4 -->
<g id="edge24" class="edge"><title>Node1&#45;&gt;Node4</title>
<path fill="none" stroke="midnightblue" d="M1204.64,-256.809C1200.19,-226.721 1185.99,-130.731 1179.86,-89.3197"/>
<polygon fill="midnightblue" stroke="midnightblue" points="1183.32,-88.7788 1178.39,-79.3988 1176.39,-89.8034 1183.32,-88.7788"/>
</g>
<!-- Node5 -->
<g id="node5" class="node"><title>Node5</title>
<g id="a_node5"><a xlink:href="compiler__macros_8h.html" target="_top" xlink:title="Various compiler workarounds. ">
<polygon fill="none" stroke="black" points="996.544,-1 996.544,-21 1121.46,-21 1121.46,-1 996.544,-1"/>
<text text-anchor="middle" x="1059" y="-7" font-family="Helvetica,sans-Serif" font-size="10.00">RMF/compiler_macros.h</text>
</a>
</g>
</g>
<!-- Node1&#45;&gt;Node5 -->
<g id="edge23" class="edge"><title>Node1&#45;&gt;Node5</title>
<path fill="none" stroke="midnightblue" d="M1210.58,-256.92C1225.67,-225.567 1270.28,-120.365 1223,-58 1211.18,-42.4132 1167.79,-30.6518 1128.6,-22.9246"/>
<polygon fill="midnightblue" stroke="midnightblue" points="1129.23,-19.4815 1118.75,-21.047 1127.92,-26.3577 1129.23,-19.4815"/>
</g>
<!-- Node6 -->
<g id="node6" class="node"><title>Node6</title>
<g id="a_node6"><a xlink:href="infrastructure__macros_8h.html" target="_top" xlink:title="Various general useful macros for IMP. ">
<polygon fill="none" stroke="black" points="390.48,-117 390.48,-137 511.52,-137 511.52,-117 390.48,-117"/>
<text text-anchor="middle" x="451" y="-123" font-family="Helvetica,sans-Serif" font-size="10.00">infrastructure_macros.h</text>
</a>
</g>
</g>
<!-- Node1&#45;&gt;Node6 -->
<g id="edge27" class="edge"><title>Node1&#45;&gt;Node6</title>
<path fill="none" stroke="midnightblue" d="M1156.75,-256.999C1023.26,-232.599 654.84,-165.258 510.296,-138.838"/>
<polygon fill="midnightblue" stroke="midnightblue" points="510.748,-135.363 500.282,-137.008 509.49,-142.249 510.748,-135.363"/>
</g>
<!-- Node19 -->
<g id="node19" class="node"><title>Node19</title>
<polygon fill="none" stroke="#bfbfbf" points="1260.23,-187 1260.23,-207 1389.77,-207 1389.77,-187 1260.23,-187"/>
<text text-anchor="middle" x="1325" y="-193" font-family="Helvetica,sans-Serif" font-size="10.00">RMF/internal/Transform.h</text>
</g>
<!-- Node1&#45;&gt;Node19 -->
<g id="edge25" class="edge"><title>Node1&#45;&gt;Node19</title>
<path fill="none" stroke="midnightblue" d="M1222.05,-256.829C1242.21,-245.308 1277.01,-225.423 1300.51,-211.996"/>
<polygon fill="midnightblue" stroke="midnightblue" points="1302.26,-215.026 1309.21,-207.025 1298.79,-208.948 1302.26,-215.026"/>
</g>
<!-- Node20 -->
<g id="node20" class="node"><title>Node20</title>
<polygon fill="none" stroke="#bfbfbf" points="1407.94,-187 1407.94,-207 1460.06,-207 1460.06,-187 1407.94,-187"/>
<text text-anchor="middle" x="1434" y="-193" font-family="Helvetica,sans-Serif" font-size="10.00">ostream</text>
</g>
<!-- Node1&#45;&gt;Node20 -->
<g id="edge26" class="edge"><title>Node1&#45;&gt;Node20</title>
<path fill="none" stroke="midnightblue" d="M1264.18,-256.968C1303.04,-249.76 1354.76,-237.868 1398,-220 1402.95,-217.954 1408.01,-215.283 1412.71,-212.509"/>
<polygon fill="midnightblue" stroke="midnightblue" points="1414.58,-215.468 1421.19,-207.188 1410.86,-209.538 1414.58,-215.468"/>
</g>
<!-- Node21 -->
<g id="node21" class="node"><title>Node21</title>
<polygon fill="none" stroke="#bfbfbf" points="1478.33,-175 1478.33,-219 1587.67,-219 1587.67,-175 1478.33,-175"/>
<text text-anchor="start" x="1486.33" y="-205" font-family="Helvetica,sans-Serif" font-size="10.00">/Users/drussel/src</text>
<text text-anchor="start" x="1486.33" y="-193" font-family="Helvetica,sans-Serif" font-size="10.00">/rmf/rmf/include/RMF</text>
<text text-anchor="middle" x="1533" y="-181" font-family="Helvetica,sans-Serif" font-size="10.00">/types.h</text>
</g>
<!-- Node1&#45;&gt;Node21 -->
<g id="edge28" class="edge"><title>Node1&#45;&gt;Node21</title>
<path fill="none" stroke="midnightblue" d="M1269.57,-257.754C1320.91,-250.442 1395.07,-238.406 1468.17,-220.033"/>
<polygon fill="midnightblue" stroke="midnightblue" points="1469.19,-223.386 1478.01,-217.52 1467.45,-216.604 1469.19,-223.386"/>
</g>
<!-- Node3&#45;&gt;Node4 -->
<g id="edge3" class="edge"><title>Node3&#45;&gt;Node4</title>
<path fill="none" stroke="midnightblue" d="M1052.64,-186.938C1075.03,-165.882 1130.84,-113.401 1159.47,-86.4874"/>
<polygon fill="midnightblue" stroke="midnightblue" points="1162.2,-88.7196 1167.09,-79.3195 1157.41,-83.6199 1162.2,-88.7196"/>
</g>
<!-- Node3&#45;&gt;Node6 -->
<g id="edge5" class="edge"><title>Node3&#45;&gt;Node6</title>
<path fill="none" stroke="midnightblue" d="M1004.61,-191.591C906.949,-180.372 647.858,-150.612 521.832,-136.136"/>
<polygon fill="midnightblue" stroke="midnightblue" points="522.226,-132.658 511.892,-134.994 521.427,-139.613 522.226,-132.658"/>
</g>
<!-- Node14 -->
<g id="node14" class="node"><title>Node14</title>
<g id="a_node14"><a xlink:href="exceptions_8h.html" target="_top" xlink:title="Various general useful macros for IMP. ">
<polygon fill="none" stroke="black" points="905.926,-117 905.926,-137 978.074,-137 978.074,-117 905.926,-117"/>
<text text-anchor="middle" x="942" y="-123" font-family="Helvetica,sans-Serif" font-size="10.00">exceptions.h</text>
</a>
</g>
</g>
<!-- Node3&#45;&gt;Node14 -->
<g id="edge15" class="edge"><title>Node3&#45;&gt;Node14</title>
<path fill="none" stroke="midnightblue" d="M1029.38,-186.829C1012.57,-175.512 983.772,-156.124 963.856,-142.715"/>
<polygon fill="midnightblue" stroke="midnightblue" points="965.655,-139.707 955.406,-137.025 961.746,-145.514 965.655,-139.707"/>
</g>
<!-- Node18 -->
<g id="node18" class="node"><title>Node18</title>
<polygon fill="none" stroke="#bfbfbf" points="1014.44,-117 1014.44,-137 1071.56,-137 1071.56,-117 1014.44,-117"/>
<text text-anchor="middle" x="1043" y="-123" font-family="Helvetica,sans-Serif" font-size="10.00">algorithm</text>
</g>
<!-- Node3&#45;&gt;Node18 -->
<g id="edge22" class="edge"><title>Node3&#45;&gt;Node18</title>
<path fill="none" stroke="midnightblue" d="M1043,-186.829C1043,-176.735 1043,-160.222 1043,-147.256"/>
<polygon fill="midnightblue" stroke="midnightblue" points="1046.5,-147.025 1043,-137.025 1039.5,-147.026 1046.5,-147.025"/>
</g>
<!-- Node4&#45;&gt;Node5 -->
<g id="edge4" class="edge"><title>Node4&#45;&gt;Node5</title>
<path fill="none" stroke="midnightblue" d="M1157.78,-58.878C1138.66,-49.8068 1109.12,-35.7876 1087.32,-25.4418"/>
<polygon fill="midnightblue" stroke="midnightblue" points="1088.75,-22.2436 1078.21,-21.1181 1085.75,-28.5676 1088.75,-22.2436"/>
</g>
<!-- Node6&#45;&gt;Node2 -->
<g id="edge14" class="edge"><title>Node6&#45;&gt;Node2</title>
<path fill="none" stroke="midnightblue" d="M390.381,-122.945C313.536,-118.207 177.015,-106.9 52.8655,-80.0652"/>
<polygon fill="midnightblue" stroke="midnightblue" points="53.3265,-76.5829 42.8078,-77.8507 51.8212,-83.4192 53.3265,-76.5829"/>
</g>
<!-- Node6&#45;&gt;Node5 -->
<g id="edge9" class="edge"><title>Node6&#45;&gt;Node5</title>
<path fill="none" stroke="midnightblue" d="M497.169,-116.928C531.984,-109.276 580.495,-96.8645 621,-80 639.016,-72.4989 640.473,-64.1323 659,-58 769.096,-21.5584 904.488,-13.0304 986.151,-11.5414"/>
<polygon fill="midnightblue" stroke="midnightblue" points="986.382,-15.0384 996.328,-11.3873 986.276,-8.03917 986.382,-15.0384"/>
</g>
<!-- Node7 -->
<g id="node7" class="node"><title>Node7</title>
<polygon fill="none" stroke="#bfbfbf" points="60.2192,-59 60.2192,-79 111.781,-79 111.781,-59 60.2192,-59"/>
<text text-anchor="middle" x="86" y="-65" font-family="Helvetica,sans-Serif" font-size="10.00">sstream</text>
</g>
<!-- Node6&#45;&gt;Node7 -->
<g id="edge6" class="edge"><title>Node6&#45;&gt;Node7</title>
<path fill="none" stroke="midnightblue" d="M390.343,-120.116C325.953,-113.294 221.124,-100.543 121.795,-79.9206"/>
<polygon fill="midnightblue" stroke="midnightblue" points="122.399,-76.4711 111.892,-77.8342 120.956,-83.3208 122.399,-76.4711"/>
</g>
<!-- Node8 -->
<g id="node8" class="node"><title>Node8</title>
<polygon fill="none" stroke="#bfbfbf" points="129.828,-59 129.828,-79 184.172,-79 184.172,-59 129.828,-59"/>
<text text-anchor="middle" x="157" y="-65" font-family="Helvetica,sans-Serif" font-size="10.00">iostream</text>
</g>
<!-- Node6&#45;&gt;Node8 -->
<g id="edge7" class="edge"><title>Node6&#45;&gt;Node8</title>
<path fill="none" stroke="midnightblue" d="M391.244,-116.989C341.001,-109.039 267.116,-96.4784 194.255,-80.1366"/>
<polygon fill="midnightblue" stroke="midnightblue" points="194.976,-76.7113 184.449,-77.9127 193.428,-83.538 194.976,-76.7113"/>
</g>
<!-- Node9 -->
<g id="node9" class="node"><title>Node9</title>
<polygon fill="none" stroke="#bfbfbf" points="667.773,-59 667.773,-79 708.227,-79 708.227,-59 667.773,-59"/>
<text text-anchor="middle" x="688" y="-65" font-family="Helvetica,sans-Serif" font-size="10.00">string</text>
</g>
<!-- Node6&#45;&gt;Node9 -->
<g id="edge8" class="edge"><title>Node6&#45;&gt;Node9</title>
<path fill="none" stroke="midnightblue" d="M494.752,-116.922C535.995,-108.167 599.442,-94.1895 654,-80 655.239,-79.6777 656.502,-79.3417 657.776,-78.9963"/>
<polygon fill="midnightblue" stroke="midnightblue" points="658.886,-82.3198 667.562,-76.2386 656.987,-75.5822 658.886,-82.3198"/>
</g>
<!-- Node10 -->
<g id="node10" class="node"><title>Node10</title>
<polygon fill="none" stroke="#bfbfbf" points="201.98,-59 201.98,-79 278.02,-79 278.02,-59 201.98,-59"/>
<text text-anchor="middle" x="240" y="-65" font-family="Helvetica,sans-Serif" font-size="10.00">internal/use.h</text>
</g>
<!-- Node6&#45;&gt;Node10 -->
<g id="edge10" class="edge"><title>Node6&#45;&gt;Node10</title>
<path fill="none" stroke="midnightblue" d="M416.63,-116.878C380.427,-107.27 323.309,-92.1104 283.876,-81.6449"/>
<polygon fill="midnightblue" stroke="midnightblue" points="284.569,-78.2077 274.006,-79.0253 282.774,-84.9735 284.569,-78.2077"/>
</g>
<!-- Node11 -->
<g id="node11" class="node"><title>Node11</title>
<polygon fill="none" stroke="#bfbfbf" points="296.306,-59 296.306,-79 385.694,-79 385.694,-59 296.306,-59"/>
<text text-anchor="middle" x="341" y="-65" font-family="Helvetica,sans-Serif" font-size="10.00">boost/config.hpp</text>
</g>
<!-- Node6&#45;&gt;Node11 -->
<g id="edge11" class="edge"><title>Node6&#45;&gt;Node11</title>
<path fill="none" stroke="midnightblue" d="M432.836,-116.753C415.136,-107.742 388.016,-93.9353 367.83,-83.6589"/>
<polygon fill="midnightblue" stroke="midnightblue" points="369.326,-80.493 358.826,-79.0752 366.15,-86.7312 369.326,-80.493"/>
</g>
<!-- Node12 -->
<g id="node12" class="node"><title>Node12</title>
<polygon fill="none" stroke="#bfbfbf" points="403.53,-59 403.53,-79 498.47,-79 498.47,-59 403.53,-59"/>
<text text-anchor="middle" x="451" y="-65" font-family="Helvetica,sans-Serif" font-size="10.00">boost/version.hpp</text>
</g>
<!-- Node6&#45;&gt;Node12 -->
<g id="edge12" class="edge"><title>Node6&#45;&gt;Node12</title>
<path fill="none" stroke="midnightblue" d="M451,-116.753C451,-109.25 451,-98.4238 451,-89.0781"/>
<polygon fill="midnightblue" stroke="midnightblue" points="454.5,-89.0752 451,-79.0752 447.5,-89.0752 454.5,-89.0752"/>
</g>
<!-- Node13 -->
<g id="node13" class="node"><title>Node13</title>
<polygon fill="none" stroke="#bfbfbf" points="515.971,-59 515.971,-79 612.029,-79 612.029,-59 515.971,-59"/>
<text text-anchor="middle" x="564" y="-65" font-family="Helvetica,sans-Serif" font-size="10.00">boost/foreach.hpp</text>
</g>
<!-- Node6&#45;&gt;Node13 -->
<g id="edge13" class="edge"><title>Node6&#45;&gt;Node13</title>
<path fill="none" stroke="midnightblue" d="M469.407,-116.878C487.629,-107.847 515.747,-93.9132 536.595,-83.5812"/>
<polygon fill="midnightblue" stroke="midnightblue" points="538.195,-86.6946 545.601,-79.1181 535.087,-80.4225 538.195,-86.6946"/>
</g>
<!-- Node14&#45;&gt;Node4 -->
<g id="edge19" class="edge"><title>Node14&#45;&gt;Node4</title>
<path fill="none" stroke="midnightblue" d="M978.204,-117.373C1018.78,-107.703 1084.73,-91.9881 1129.44,-81.334"/>
<polygon fill="midnightblue" stroke="midnightblue" points="1130.28,-84.7311 1139.2,-79.0083 1128.66,-77.9218 1130.28,-84.7311"/>
</g>
<!-- Node14&#45;&gt;Node5 -->
<g id="edge20" class="edge"><title>Node14&#45;&gt;Node5</title>
<path fill="none" stroke="midnightblue" d="M942.206,-116.975C942.99,-102.814 946.432,-75.2184 961,-58 974.336,-42.2379 994.271,-31.533 1012.69,-24.4474"/>
<polygon fill="midnightblue" stroke="midnightblue" points="1013.9,-27.7304 1022.14,-21.0644 1011.54,-21.14 1013.9,-27.7304"/>
</g>
<!-- Node14&#45;&gt;Node9 -->
<g id="edge18" class="edge"><title>Node14&#45;&gt;Node9</title>
<path fill="none" stroke="midnightblue" d="M905.609,-119.904C861.031,-112.122 783.377,-97.5419 718,-80 717.901,-79.9733 717.801,-79.9465 717.701,-79.9195"/>
<polygon fill="midnightblue" stroke="midnightblue" points="718.816,-76.5997 708.234,-77.1083 716.824,-83.3101 718.816,-76.5997"/>
</g>
<!-- Node15 -->
<g id="node15" class="node"><title>Node15</title>
<polygon fill="none" stroke="#bfbfbf" points="970.451,-59 970.451,-79 1121.55,-79 1121.55,-59 970.451,-59"/>
<text text-anchor="middle" x="1046" y="-65" font-family="Helvetica,sans-Serif" font-size="10.00">boost/exception/exception.hpp</text>
</g>
<!-- Node14&#45;&gt;Node15 -->
<g id="edge16" class="edge"><title>Node14&#45;&gt;Node15</title>
<path fill="none" stroke="midnightblue" d="M959.173,-116.753C975.757,-107.823 1001.09,-94.1848 1020.11,-83.9388"/>
<polygon fill="midnightblue" stroke="midnightblue" points="1022,-86.8979 1029.15,-79.0752 1018.68,-80.7346 1022,-86.8979"/>
</g>
<!-- Node16 -->
<g id="node16" class="node"><title>Node16</title>
<polygon fill="none" stroke="#bfbfbf" points="726.596,-59 726.596,-79 785.404,-79 785.404,-59 726.596,-59"/>
<text text-anchor="middle" x="756" y="-65" font-family="Helvetica,sans-Serif" font-size="10.00">exception</text>
</g>
<!-- Node14&#45;&gt;Node16 -->
<g id="edge17" class="edge"><title>Node14&#45;&gt;Node16</title>
<path fill="none" stroke="midnightblue" d="M911.702,-116.878C880.034,-107.344 830.211,-92.343 795.481,-81.8868"/>
<polygon fill="midnightblue" stroke="midnightblue" points="796.254,-78.4645 785.67,-78.9329 794.236,-85.1673 796.254,-78.4645"/>
</g>
<!-- Node17 -->
<g id="node17" class="node"><title>Node17</title>
<polygon fill="none" stroke="#bfbfbf" points="803.766,-59 803.766,-79 914.234,-79 914.234,-59 803.766,-59"/>
<text text-anchor="middle" x="859" y="-65" font-family="Helvetica,sans-Serif" font-size="10.00">RMF/internal/errors.h</text>
</g>
<!-- Node14&#45;&gt;Node17 -->
<g id="edge21" class="edge"><title>Node14&#45;&gt;Node17</title>
<path fill="none" stroke="midnightblue" d="M928.294,-116.753C915.483,-108.109 896.13,-95.0518 881.13,-84.9314"/>
<polygon fill="midnightblue" stroke="midnightblue" points="882.698,-81.7669 872.451,-79.0752 878.783,-87.5696 882.698,-81.7669"/>
</g>
</g>
</svg>
        <g id="navigator" transform="translate(0 0)" fill="#404254">
                <rect fill="#f2f5e9" fill-opacity="0.5" stroke="#606060" stroke-width=".5" x="0" y="0" width="60" height="60"/>
                <use id="zoomplus" xlink:href="#zoomPlus" x="17" y="9" onmousedown="handleZoom(evt,'in')"/>
                <use id="zoomminus" xlink:href="#zoomMin" x="42" y="9" onmousedown="handleZoom(evt,'out')"/>
                <use id="reset" xlink:href="#resetDef" x="30" y="36" onmousedown="handleReset()"/>
                <g id="arrowUp" xlink:href="#dirArrow" transform="translate(30 24)" onmousedown="handlePan(0,-1)">
                  <use xlink:href="#rim" fill="#404040">
                        <set attributeName="fill" to="#808080" begin="arrowUp.mouseover" end="arrowUp.mouseout"/>
                  </use>
                  <path fill="none" stroke="white" stroke-width="1.5" d="M0,-3.0v7 M-2.5,-0.5L0,-3.0L2.5,-0.5"/>
                </g>
                <g id="arrowRight" xlink:href="#dirArrow" transform="rotate(90) translate(36 -43)" onmousedown="handlePan(1,0)">
                  <use xlink:href="#rim" fill="#404040">
                        <set attributeName="fill" to="#808080" begin="arrowRight.mouseover" end="arrowRight.mouseout"/>
                  </use>
                  <path fill="none" stroke="white" stroke-width="1.5" d="M0,-3.0v7 M-2.5,-0.5L0,-3.0L2.5,-0.5"/>
                </g>
                <g id="arrowDown" xlink:href="#dirArrow" transform="rotate(180) translate(-30 -48)" onmousedown="handlePan(0,1)">
                  <use xlink:href="#rim" fill="#404040">
                        <set attributeName="fill" to="#808080" begin="arrowDown.mouseover" end="arrowDown.mouseout"/>
                  </use>
                  <path fill="none" stroke="white" stroke-width="1.5" d="M0,-3.0v7 M-2.5,-0.5L0,-3.0L2.5,-0.5"/>
                </g>
                <g id="arrowLeft" xlink:href="#dirArrow" transform="rotate(270) translate(-36 17)" onmousedown="handlePan(-1,0)">
                  <use xlink:href="#rim" fill="#404040">
                        <set attributeName="fill" to="#808080" begin="arrowLeft.mouseover" end="arrowLeft.mouseout"/>
                  </use>
                  <path fill="none" stroke="white" stroke-width="1.5" d="M0,-3.0v7 M-2.5,-0.5L0,-3.0L2.5,-0.5"/>
                </g>
        </g>
        <svg viewBox="0 0 15 15" width="100%" height="30px" preserveAspectRatio="xMaxYMin meet">
         <g id="arrow_out" transform="scale(0.3 0.3)">
          <a xlink:href="CoordinateTransformer_8h__incl_org.svg" target="_base">
           <rect id="button" ry="5" rx="5" y="6" x="6" height="38" width="38"
                fill="#f2f5e9" fill-opacity="0.5" stroke="#606060" stroke-width="1.0"/>
           <path id="arrow"
             d="M 11.500037,31.436501 C 11.940474,20.09759 22.043105,11.32322 32.158766,21.979434 L 37.068811,17.246167 C 37.068811,17.246167 37.088388,32 37.088388,32 L 22.160133,31.978069 C 22.160133,31.978069 26.997745,27.140456 26.997745,27.140456 C 18.528582,18.264221 13.291696,25.230495 11.500037,31.436501 z"
             style="fill:#404040;"/>
          </a>
         </g>
        </svg>
</svg>
