<?xml version="1.0" encoding="UTF-8" standalone="no"?>
<!DOCTYPE svg PUBLIC "-//W3C//DTD SVG 1.1//EN"
 "http://www.w3.org/Graphics/SVG/1.1/DTD/svg11.dtd">
<!-- Generated by graphviz version 2.34.0 (20131025.1349)
 -->
<!-- Title: Decorator.h Pages: 1 -->
<svg width="661pt" height="204pt"
 viewBox="0.00 0.00 661.00 204.00" xmlns="http://www.w3.org/2000/svg" xmlns:xlink="http://www.w3.org/1999/xlink">
<g id="graph0" class="graph" transform="scale(1 1) rotate(0) translate(4 200)">
<title>Decorator.h</title>
<!-- Node1 -->
<g id="node1" class="node"><title>Node1</title>
<polygon fill="#bfbfbf" stroke="black" points="327.15,-175 327.15,-195 394.85,-195 394.85,-175 327.15,-175"/>
<text text-anchor="middle" x="361" y="-181" font-family="Helvetica,sans-Serif" font-size="10.00">Decorator.h</text>
</g>
<!-- Node2 -->
<g id="node2" class="node"><title>Node2</title>
<g id="a_node2"><a xlink:href="alias_8h.html" target="_top" xlink:title="Helper functions for manipulating RMF files. ">
<polygon fill="none" stroke="black" points="381.547,-117 381.547,-137 426.453,-137 426.453,-117 381.547,-117"/>
<text text-anchor="middle" x="404" y="-123" font-family="Helvetica,sans-Serif" font-size="10.00">alias.h</text>
</a>
</g>
</g>
<!-- Node1&#45;&gt;Node2 -->
<g id="edge1" class="edge"><title>Node1&#45;&gt;Node2</title>
<path fill="none" stroke="midnightblue" d="M374.194,-166.818C381.73,-157.003 390.875,-145.093 397.032,-137.075"/>
<polygon fill="midnightblue" stroke="midnightblue" points="371.415,-164.69 368.101,-174.753 376.967,-168.953 371.415,-164.69"/>
</g>
<!-- Node4 -->
<g id="node4" class="node"><title>Node4</title>
<g id="a_node4"><a xlink:href="physics_8h.html" target="_top" xlink:title="Helper functions for manipulating RMF files. ">
<polygon fill="none" stroke="black" points="501.158,-59 501.158,-79 558.842,-79 558.842,-59 501.158,-59"/>
<text text-anchor="middle" x="530" y="-65" font-family="Helvetica,sans-Serif" font-size="10.00">physics.h</text>
</a>
</g>
</g>
<!-- Node1&#45;&gt;Node4 -->
<g id="edge11" class="edge"><title>Node1&#45;&gt;Node4</title>
<path fill="none" stroke="midnightblue" d="M401.423,-171.55C422.699,-163.859 448.54,-152.641 469,-138 492.731,-121.018 513.861,-93.3185 523.87,-79.0811"/>
<polygon fill="midnightblue" stroke="midnightblue" points="399.99,-168.343 391.698,-174.938 402.293,-174.953 399.99,-168.343"/>
</g>
<!-- Node7 -->
<g id="node7" class="node"><title>Node7</title>
<g id="a_node7"><a xlink:href="external_8h.html" target="_top" xlink:title="Helper functions for manipulating RMF files. ">
<polygon fill="none" stroke="black" points="-0.958008,-59 -0.958008,-79 58.958,-79 58.958,-59 -0.958008,-59"/>
<text text-anchor="middle" x="29" y="-65" font-family="Helvetica,sans-Serif" font-size="10.00">external.h</text>
</a>
</g>
</g>
<!-- Node1&#45;&gt;Node7 -->
<g id="edge7" class="edge"><title>Node1&#45;&gt;Node7</title>
<path fill="none" stroke="midnightblue" d="M316.971,-184.049C237.813,-183.154 76.1414,-176.52 38,-138 22.5828,-122.43 24.6784,-94.1129 27.0767,-79.4162"/>
<polygon fill="midnightblue" stroke="midnightblue" points="317.085,-187.55 327.115,-184.137 317.146,-180.551 317.085,-187.55"/>
</g>
<!-- Node8 -->
<g id="node8" class="node"><title>Node8</title>
<g id="a_node8"><a xlink:href="feature_8h.html" target="_top" xlink:title="Helper functions for manipulating RMF files. ">
<polygon fill="none" stroke="black" points="47.2637,-117 47.2637,-137 102.736,-137 102.736,-117 47.2637,-117"/>
<text text-anchor="middle" x="75" y="-123" font-family="Helvetica,sans-Serif" font-size="10.00">feature.h</text>
</a>
</g>
</g>
<!-- Node1&#45;&gt;Node8 -->
<g id="edge9" class="edge"><title>Node1&#45;&gt;Node8</title>
<path fill="none" stroke="midnightblue" d="M316.861,-176.961C266.914,-168.737 183.24,-154.179 112,-138 109.015,-137.322 105.908,-136.565 102.82,-135.779"/>
<polygon fill="midnightblue" stroke="midnightblue" points="316.557,-180.457 326.991,-178.618 317.687,-173.549 316.557,-180.457"/>
</g>
<!-- Node9 -->
<g id="node9" class="node"><title>Node9</title>
<g id="a_node9"><a xlink:href="publication_8h.html" target="_top" xlink:title="Helper functions for manipulating RMF files. ">
<polygon fill="none" stroke="black" points="120.924,-117 120.924,-137 193.076,-137 193.076,-117 120.924,-117"/>
<text text-anchor="middle" x="157" y="-123" font-family="Helvetica,sans-Serif" font-size="10.00">publication.h</text>
</a>
</g>
</g>
<!-- Node1&#45;&gt;Node9 -->
<g id="edge12" class="edge"><title>Node1&#45;&gt;Node9</title>
<path fill="none" stroke="midnightblue" d="M317.951,-172.183C279.721,-161.688 224.669,-146.576 189.878,-137.025"/>
<polygon fill="midnightblue" stroke="midnightblue" points="317.2,-175.606 327.77,-174.878 319.053,-168.856 317.2,-175.606"/>
</g>
<!-- Node10 -->
<g id="node10" class="node"><title>Node10</title>
<g id="a_node10"><a xlink:href="sequence_8h.html" target="_top" xlink:title="Helper functions for manipulating RMF files. ">
<polygon fill="none" stroke="black" points="577.146,-59 577.146,-79 644.854,-79 644.854,-59 577.146,-59"/>
<text text-anchor="middle" x="611" y="-65" font-family="Helvetica,sans-Serif" font-size="10.00">sequence.h</text>
</a>
</g>
</g>
<!-- Node1&#45;&gt;Node10 -->
<g id="edge14" class="edge"><title>Node1&#45;&gt;Node10</title>
<path fill="none" stroke="midnightblue" d="M403.553,-171.963C430.574,-163.723 465.981,-151.811 496,-138 534.561,-120.259 576.757,-93.1341 597.686,-79.1069"/>
<polygon fill="midnightblue" stroke="midnightblue" points="402.21,-168.712 393.637,-174.938 404.221,-175.417 402.21,-168.712"/>
</g>
<!-- Node11 -->
<g id="node11" class="node"><title>Node11</title>
<g id="a_node11"><a xlink:href="shape_8h.html" target="_top" xlink:title="Helper functions for manipulating RMF files. ">
<polygon fill="none" stroke="black" points="431.207,-59 431.207,-79 482.793,-79 482.793,-59 431.207,-59"/>
<text text-anchor="middle" x="457" y="-65" font-family="Helvetica,sans-Serif" font-size="10.00">shape.h</text>
</a>
</g>
</g>
<!-- Node1&#45;&gt;Node11 -->
<g id="edge18" class="edge"><title>Node1&#45;&gt;Node11</title>
<path fill="none" stroke="midnightblue" d="M404.653,-171.9C421.901,-164.853 440.158,-154.082 451,-138 463.057,-120.115 461.003,-93.2908 458.808,-79.2775"/>
<polygon fill="midnightblue" stroke="midnightblue" points="403.357,-168.647 395.228,-175.442 405.82,-175.2 403.357,-168.647"/>
</g>
<!-- Node12 -->
<g id="node12" class="node"><title>Node12</title>
<g id="a_node12"><a xlink:href="bond_8h.html" target="_top" xlink:title="Helper functions for manipulating RMF files. ">
<polygon fill="none" stroke="black" points="210.707,-117 210.707,-137 257.293,-137 257.293,-117 210.707,-117"/>
<text text-anchor="middle" x="234" y="-123" font-family="Helvetica,sans-Serif" font-size="10.00">bond.h</text>
</a>
</g>
</g>
<!-- Node1&#45;&gt;Node12 -->
<g id="edge21" class="edge"><title>Node1&#45;&gt;Node12</title>
<path fill="none" stroke="midnightblue" d="M331.135,-170.831C307.612,-160.459 275.432,-146.269 254.679,-137.118"/>
<polygon fill="midnightblue" stroke="midnightblue" points="329.75,-174.046 340.313,-174.878 332.575,-167.641 329.75,-174.046"/>
</g>
<!-- Node13 -->
<g id="node13" class="node"><title>Node13</title>
<g id="a_node13"><a xlink:href="representation_8h.html" target="_top" xlink:title="Helper functions for manipulating RMF files. ">
<polygon fill="none" stroke="black" points="274.865,-117 274.865,-137 363.135,-137 363.135,-117 274.865,-117"/>
<text text-anchor="middle" x="319" y="-123" font-family="Helvetica,sans-Serif" font-size="10.00">representation.h</text>
</a>
</g>
</g>
<!-- Node1&#45;&gt;Node13 -->
<g id="edge23" class="edge"><title>Node1&#45;&gt;Node13</title>
<path fill="none" stroke="midnightblue" d="M347.89,-166.52C340.572,-156.763 331.759,-145.012 325.806,-137.075"/>
<polygon fill="midnightblue" stroke="midnightblue" points="345.265,-168.853 354.065,-174.753 350.865,-164.653 345.265,-168.853"/>
</g>
<!-- Node14 -->
<g id="node14" class="node"><title>Node14</title>
<g id="a_node14"><a xlink:href="alternatives_8h.html" target="_top" xlink:title="Helper functions for manipulating RMF files. ">
<polygon fill="none" stroke="black" points="337.261,-59 337.261,-79 412.739,-79 412.739,-59 337.261,-59"/>
<text text-anchor="middle" x="375" y="-65" font-family="Helvetica,sans-Serif" font-size="10.00">alternatives.h</text>
</a>
</g>
</g>
<!-- Node1&#45;&gt;Node14 -->
<g id="edge25" class="edge"><title>Node1&#45;&gt;Node14</title>
<path fill="none" stroke="midnightblue" d="M397.577,-170.519C411.916,-163.224 426.861,-152.642 435,-138 448.309,-114.056 415.808,-91.2463 393.621,-79.0908"/>
<polygon fill="midnightblue" stroke="midnightblue" points="395.895,-167.442 388.318,-174.848 398.86,-173.783 395.895,-167.442"/>
</g>
<!-- Node3 -->
<g id="node3" class="node"><title>Node3</title>
<g id="a_node3"><a xlink:href="decorators_8h.html" target="_top" xlink:title="Import all the decorators headers. ">
<polygon fill="none" stroke="black" points="254.207,-1 254.207,-21 325.793,-21 325.793,-1 254.207,-1"/>
<text text-anchor="middle" x="290" y="-7" font-family="Helvetica,sans-Serif" font-size="10.00">decorators.h</text>
</a>
</g>
</g>
<!-- Node2&#45;&gt;Node3 -->
<g id="edge2" class="edge"><title>Node2&#45;&gt;Node3</title>
<path fill="none" stroke="midnightblue" d="M373.976,-112.457C358.868,-104.567 341.044,-93.5043 328,-80 310.9,-62.2965 298.908,-35.3958 293.403,-21.323"/>
<polygon fill="midnightblue" stroke="midnightblue" points="372.456,-115.61 382.965,-116.952 375.587,-109.349 372.456,-115.61"/>
</g>
<!-- Node2&#45;&gt;Node4 -->
<g id="edge3" class="edge"><title>Node2&#45;&gt;Node4</title>
<path fill="none" stroke="midnightblue" d="M433.941,-112.693C457.251,-102.333 488.986,-88.2285 509.484,-79.1181"/>
<polygon fill="midnightblue" stroke="midnightblue" points="432.241,-109.618 424.525,-116.878 435.084,-116.015 432.241,-109.618"/>
</g>
<!-- Node4&#45;&gt;Node3 -->
<g id="edge4" class="edge"><title>Node4&#45;&gt;Node3</title>
<path fill="none" stroke="midnightblue" d="M491.306,-58.0743C491.204,-58.0495 491.102,-58.0247 491,-58 433.424,-44.0327 366.286,-28.8994 326.012,-19.9451"/>
<polygon fill="midnightblue" stroke="midnightblue" points="490.508,-61.4824 501.057,-60.4894 492.191,-54.6877 490.508,-61.4824"/>
</g>
<!-- Node5 -->
<g id="node5" class="node"><title>Node5</title>
<g id="a_node5"><a xlink:href="TraverseHelper_8h.html" target="_top" xlink:title="A helper function for managing data when traversing an RMF. ">
<polygon fill="none" stroke="black" points="419.831,-1 419.831,-21 512.169,-21 512.169,-1 419.831,-1"/>
<text text-anchor="middle" x="466" y="-7" font-family="Helvetica,sans-Serif" font-size="10.00">TraverseHelper.h</text>
</a>
</g>
</g>
<!-- Node4&#45;&gt;Node5 -->
<g id="edge5" class="edge"><title>Node4&#45;&gt;Node5</title>
<path fill="none" stroke="midnightblue" d="M511.711,-51.9967C500.254,-41.9719 485.905,-29.4171 476.372,-21.0752"/>
<polygon fill="midnightblue" stroke="midnightblue" points="509.601,-54.8017 519.432,-58.7527 514.211,-49.5336 509.601,-54.8017"/>
</g>
<!-- Node6 -->
<g id="node6" class="node"><title>Node6</title>
<g id="a_node6"><a xlink:href="benchmark__rmf_8cpp_source.html" target="_top" xlink:title="benchmark_rmf.cpp">
<polygon fill="none" stroke="black" points="548.815,-1 548.815,-21 653.185,-21 653.185,-1 548.815,-1"/>
<text text-anchor="middle" x="601" y="-7" font-family="Helvetica,sans-Serif" font-size="10.00">benchmark_rmf.cpp</text>
</a>
</g>
</g>
<!-- Node4&#45;&gt;Node6 -->
<g id="edge6" class="edge"><title>Node4&#45;&gt;Node6</title>
<path fill="none" stroke="midnightblue" d="M549.921,-52.288C562.69,-42.2161 578.815,-29.4981 589.494,-21.0752"/>
<polygon fill="midnightblue" stroke="midnightblue" points="547.408,-49.8118 541.724,-58.7527 551.743,-55.3079 547.408,-49.8118"/>
</g>
<!-- Node7&#45;&gt;Node3 -->
<g id="edge8" class="edge"><title>Node7&#45;&gt;Node3</title>
<path fill="none" stroke="midnightblue" d="M69.0873,-59.3989C119.504,-48.5815 205.325,-30.1678 253.825,-19.7617"/>
<polygon fill="midnightblue" stroke="midnightblue" points="68.2382,-56.0013 59.195,-61.5214 69.7067,-62.8456 68.2382,-56.0013"/>
</g>
<!-- Node8&#45;&gt;Node3 -->
<g id="edge10" class="edge"><title>Node8&#45;&gt;Node3</title>
<path fill="none" stroke="midnightblue" d="M101.309,-112.05C146.014,-88.3463 235.588,-40.851 272.985,-21.0217"/>
<polygon fill="midnightblue" stroke="midnightblue" points="99.4262,-109.087 92.2309,-116.864 102.705,-115.271 99.4262,-109.087"/>
</g>
<!-- Node9&#45;&gt;Node3 -->
<g id="edge13" class="edge"><title>Node9&#45;&gt;Node3</title>
<path fill="none" stroke="midnightblue" d="M175.835,-109.856C204.165,-85.5733 256.819,-40.4407 279.337,-21.1394"/>
<polygon fill="midnightblue" stroke="midnightblue" points="173.199,-107.506 167.884,-116.671 177.754,-112.82 173.199,-107.506"/>
</g>
<!-- Node10&#45;&gt;Node3 -->
<g id="edge15" class="edge"><title>Node10&#45;&gt;Node3</title>
<path fill="none" stroke="midnightblue" d="M567.303,-58.0596C567.202,-58.0397 567.101,-58.0198 567,-58 480.898,-41.0818 378.933,-25.2131 325.979,-17.2822"/>
<polygon fill="midnightblue" stroke="midnightblue" points="566.431,-61.4533 576.932,-60.049 567.847,-54.5981 566.431,-61.4533"/>
</g>
<!-- Node10&#45;&gt;Node5 -->
<g id="edge16" class="edge"><title>Node10&#45;&gt;Node5</title>
<path fill="none" stroke="midnightblue" d="M577.971,-55.2441C551.027,-44.8381 513.62,-30.3912 489.609,-21.1181"/>
<polygon fill="midnightblue" stroke="midnightblue" points="576.791,-58.5402 587.381,-58.878 579.313,-52.0102 576.791,-58.5402"/>
</g>
<!-- Node10&#45;&gt;Node6 -->
<g id="edge17" class="edge"><title>Node10&#45;&gt;Node6</title>
<path fill="none" stroke="midnightblue" d="M607.555,-48.7065C605.882,-39.3384 603.951,-28.5262 602.621,-21.0752"/>
<polygon fill="midnightblue" stroke="midnightblue" points="604.145,-49.5238 609.349,-58.7527 611.036,-48.2932 604.145,-49.5238"/>
</g>
<!-- Node11&#45;&gt;Node3 -->
<g id="edge19" class="edge"><title>Node11&#45;&gt;Node3</title>
<path fill="none" stroke="midnightblue" d="M421.274,-56.0201C390.037,-45.5454 345.357,-30.5627 317.017,-21.0596"/>
<polygon fill="midnightblue" stroke="midnightblue" points="420.312,-59.389 430.906,-59.25 422.538,-52.7522 420.312,-59.389"/>
</g>
<!-- Node11&#45;&gt;Node5 -->
<g id="edge20" class="edge"><title>Node11&#45;&gt;Node5</title>
<path fill="none" stroke="midnightblue" d="M460.101,-48.7065C461.606,-39.3384 463.344,-28.5262 464.541,-21.0752"/>
<polygon fill="midnightblue" stroke="midnightblue" points="456.617,-48.324 458.486,-58.7527 463.529,-49.4348 456.617,-48.324"/>
</g>
<!-- Node12&#45;&gt;Node3 -->
<g id="edge22" class="edge"><title>Node12&#45;&gt;Node3</title>
<path fill="none" stroke="midnightblue" d="M243.037,-107.602C255.185,-82.8733 276.315,-39.8584 285.51,-21.1394"/>
<polygon fill="midnightblue" stroke="midnightblue" points="239.85,-106.152 238.583,-116.671 246.133,-109.239 239.85,-106.152"/>
</g>
<!-- Node13&#45;&gt;Node3 -->
<g id="edge24" class="edge"><title>Node13&#45;&gt;Node3</title>
<path fill="none" stroke="midnightblue" d="M307.578,-108.263C302.837,-100.001 297.799,-89.8391 295,-80 289.17,-59.5057 289.067,-34.2133 289.519,-21.0023"/>
<polygon fill="midnightblue" stroke="midnightblue" points="304.673,-110.223 312.853,-116.956 310.657,-106.591 304.673,-110.223"/>
</g>
<!-- Node14&#45;&gt;Node3 -->
<g id="edge26" class="edge"><title>Node14&#45;&gt;Node3</title>
<path fill="none" stroke="midnightblue" d="M352.464,-53.1528C336.983,-42.9534 316.928,-29.7411 303.775,-21.0752"/>
<polygon fill="midnightblue" stroke="midnightblue" points="350.688,-56.1738 360.964,-58.7527 354.539,-50.3284 350.688,-56.1738"/>
</g>
<!-- Node14&#45;&gt;Node5 -->
<g id="edge27" class="edge"><title>Node14&#45;&gt;Node5</title>
<path fill="none" stroke="midnightblue" d="M398.663,-53.438C415.299,-43.2008 437.039,-29.8221 451.253,-21.0752"/>
<polygon fill="midnightblue" stroke="midnightblue" points="396.709,-50.5309 390.027,-58.7527 400.378,-56.4925 396.709,-50.5309"/>
</g>
</g>
</svg>
