<?xml version="1.0" encoding="UTF-8" standalone="no"?>
<!DOCTYPE svg PUBLIC "-//W3C//DTD SVG 1.1//EN"
 "http://www.w3.org/Graphics/SVG/1.1/DTD/svg11.dtd">
<!-- Generated by graphviz version 2.34.0 (20131025.1349)
 -->
<!-- Title: Decorator.h Pages: 1 -->
<!--zoomable 204 -->
<svg id="main" version="1.1" xmlns="http://www.w3.org/2000/svg" xmlns:xlink="http://www.w3.org/1999/xlink" xml:space="preserve" onload="init(evt)">
<style type="text/css"><![CDATA[
.edge:hover path { stroke: red; }
.edge:hover polygon { stroke: red; fill: red; }
]]></style>
<script type="text/javascript"><![CDATA[
var edges = document.getElementsByTagName('g');
if (edges && edges.length) {
  for (var i=0;i<edges.length;i++) {
    if (edges[i].id.substr(0,4)=='edge') {
      edges[i].setAttribute('class','edge');
    }
  }
}
]]></script>
        <defs>
                <circle id="rim" cx="0" cy="0" r="7"/>
                <circle id="rim2" cx="0" cy="0" r="3.5"/>
                <g id="zoomPlus">
                        <use xlink:href="#rim" fill="#404040">
                                <set attributeName="fill" to="#808080" begin="zoomplus.mouseover" end="zoomplus.mouseout"/>
                        </use>
                        <path d="M-4,0h8M0,-4v8" fill="none" stroke="white" stroke-width="1.5" pointer-events="none"/>
                </g>
                <g id="zoomMin">
                        <use xlink:href="#rim" fill="#404040">
                                <set attributeName="fill" to="#808080" begin="zoomminus.mouseover" end="zoomminus.mouseout"/>
                        </use>
                        <path d="M-4,0h8" fill="none" stroke="white" stroke-width="1.5" pointer-events="none"/>
                </g>
                <g id="dirArrow">
                        <path fill="none" stroke="white" stroke-width="1.5" d="M0,-3.0v7 M-2.5,-0.5L0,-3.0L2.5,-0.5"/>
                </g>
               <g id="resetDef">
                       <use xlink:href="#rim2" fill="#404040">
                               <set attributeName="fill" to="#808080" begin="reset.mouseover" end="reset.mouseout"/>
                       </use>
               </g>
        </defs>

<script type="text/javascript">
var viewWidth = 617;
var viewHeight = 204;
var sectionId = 'dynsection-1';
</script>
<script xlink:href="svgpan.js"/>
<svg id="graph" class="graph">
<g id="viewport">
<title>Decorator.h</title>
<!-- Node1 -->
<g id="node1" class="node"><title>Node1</title>
<polygon fill="#bfbfbf" stroke="black" points="255.15,-175 255.15,-195 322.85,-195 322.85,-175 255.15,-175"/>
<text text-anchor="middle" x="289" y="-181" font-family="Helvetica,sans-Serif" font-size="10.00">Decorator.h</text>
</g>
<!-- Node2 -->
<g id="node2" class="node"><title>Node2</title>
<g id="a_node2"><a xlink:href="alias_8h.html" target="_top" xlink:title="Helper functions for manipulating RMF files. ">
<polygon fill="none" stroke="black" points="91.5469,-117 91.5469,-137 136.453,-137 136.453,-117 91.5469,-117"/>
<text text-anchor="middle" x="114" y="-123" font-family="Helvetica,sans-Serif" font-size="10.00">alias.h</text>
</a>
</g>
</g>
<!-- Node1&#45;&gt;Node2 -->
<g id="edge1" class="edge"><title>Node1&#45;&gt;Node2</title>
<path fill="none" stroke="midnightblue" d="M250.833,-171.84C221.804,-162.584 180.877,-149.517 145,-138 142.308,-137.136 139.485,-136.228 136.684,-135.326"/>
<polygon fill="midnightblue" stroke="midnightblue" points="249.986,-175.244 260.577,-174.947 252.112,-168.575 249.986,-175.244"/>
</g>
<!-- Node4 -->
<g id="node4" class="node"><title>Node4</title>
<g id="a_node4"><a xlink:href="physics_8h.html" target="_top" xlink:title="Helper functions for manipulating RMF files. ">
<polygon fill="none" stroke="black" points="85.1577,-59 85.1577,-79 142.842,-79 142.842,-59 85.1577,-59"/>
<text text-anchor="middle" x="114" y="-65" font-family="Helvetica,sans-Serif" font-size="10.00">physics.h</text>
</a>
</g>
</g>
<!-- Node1&#45;&gt;Node4 -->
<g id="edge10" class="edge"><title>Node1&#45;&gt;Node4</title>
<path fill="none" stroke="midnightblue" d="M245.081,-180.504C190.735,-175.16 102.913,-162.85 83,-138 68.2338,-119.573 90.1317,-92.9774 104.025,-79.1417"/>
<polygon fill="midnightblue" stroke="midnightblue" points="244.86,-183.998 255.144,-181.452 245.516,-177.029 244.86,-183.998"/>
</g>
<!-- Node6 -->
<g id="node6" class="node"><title>Node6</title>
<g id="a_node6"><a xlink:href="external_8h.html" target="_top" xlink:title="Helper functions for manipulating RMF files. ">
<polygon fill="none" stroke="black" points="372.042,-59 372.042,-79 431.958,-79 431.958,-59 372.042,-59"/>
<text text-anchor="middle" x="402" y="-65" font-family="Helvetica,sans-Serif" font-size="10.00">external.h</text>
</a>
</g>
</g>
<!-- Node1&#45;&gt;Node6 -->
<g id="edge6" class="edge"><title>Node1&#45;&gt;Node6</title>
<path fill="none" stroke="midnightblue" d="M332.828,-179.534C382.919,-173.419 460.285,-160.544 478,-138 497.034,-113.777 455.084,-91.068 426.256,-79.0052"/>
<polygon fill="midnightblue" stroke="midnightblue" points="332.415,-176.058 322.892,-180.703 333.232,-183.011 332.415,-176.058"/>
</g>
<!-- Node7 -->
<g id="node7" class="node"><title>Node7</title>
<g id="a_node7"><a xlink:href="feature_8h.html" target="_top" xlink:title="Helper functions for manipulating RMF files. ">
<polygon fill="none" stroke="black" points="459.264,-59 459.264,-79 514.736,-79 514.736,-59 459.264,-59"/>
<text text-anchor="middle" x="487" y="-65" font-family="Helvetica,sans-Serif" font-size="10.00">feature.h</text>
</a>
</g>
</g>
<!-- Node1&#45;&gt;Node7 -->
<g id="edge8" class="edge"><title>Node1&#45;&gt;Node7</title>
<path fill="none" stroke="midnightblue" d="M332.919,-180.504C387.265,-175.16 475.087,-162.85 495,-138 508.677,-120.932 498.561,-93.2703 491.788,-79.0607"/>
<polygon fill="midnightblue" stroke="midnightblue" points="332.484,-177.029 322.856,-181.452 333.14,-183.998 332.484,-177.029"/>
</g>
<!-- Node8 -->
<g id="node8" class="node"><title>Node8</title>
<g id="a_node8"><a xlink:href="publication_8h.html" target="_top" xlink:title="Helper functions for manipulating RMF files. ">
<polygon fill="none" stroke="black" points="536.924,-59 536.924,-79 609.076,-79 609.076,-59 536.924,-59"/>
<text text-anchor="middle" x="573" y="-65" font-family="Helvetica,sans-Serif" font-size="10.00">publication.h</text>
</a>
</g>
</g>
<!-- Node1&#45;&gt;Node8 -->
<g id="edge11" class="edge"><title>Node1&#45;&gt;Node8</title>
<path fill="none" stroke="midnightblue" d="M333.495,-183.076C380.928,-180.296 456.795,-170.569 513,-138 538.338,-123.318 558.53,-94.074 567.678,-79.179"/>
<polygon fill="midnightblue" stroke="midnightblue" points="333.052,-179.594 323.241,-183.594 333.405,-186.585 333.052,-179.594"/>
</g>
<!-- Node9 -->
<g id="node9" class="node"><title>Node9</title>
<g id="a_node9"><a xlink:href="sequence_8h.html" target="_top" xlink:title="Helper functions for manipulating RMF files. ">
<polygon fill="none" stroke="black" points="-0.854492,-59 -0.854492,-79 66.8545,-79 66.8545,-59 -0.854492,-59"/>
<text text-anchor="middle" x="33" y="-65" font-family="Helvetica,sans-Serif" font-size="10.00">sequence.h</text>
</a>
</g>
</g>
<!-- Node1&#45;&gt;Node9 -->
<g id="edge13" class="edge"><title>Node1&#45;&gt;Node9</title>
<path fill="none" stroke="midnightblue" d="M244.965,-184.345C198.67,-182.618 125.656,-173.754 75,-138 53.9141,-123.117 41.2971,-93.9643 35.9738,-79.134"/>
<polygon fill="midnightblue" stroke="midnightblue" points="244.897,-187.845 254.99,-184.623 245.091,-180.847 244.897,-187.845"/>
</g>
<!-- Node10 -->
<g id="node10" class="node"><title>Node10</title>
<g id="a_node10"><a xlink:href="shape_8h.html" target="_top" xlink:title="Helper functions for manipulating RMF files. ">
<polygon fill="none" stroke="black" points="154.207,-117 154.207,-137 205.793,-137 205.793,-117 154.207,-117"/>
<text text-anchor="middle" x="180" y="-123" font-family="Helvetica,sans-Serif" font-size="10.00">shape.h</text>
</a>
</g>
</g>
<!-- Node1&#45;&gt;Node10 -->
<g id="edge16" class="edge"><title>Node1&#45;&gt;Node10</title>
<path fill="none" stroke="midnightblue" d="M262.03,-170.144C241.941,-159.823 215.083,-146.025 197.664,-137.075"/>
<polygon fill="midnightblue" stroke="midnightblue" points="260.507,-173.296 271.001,-174.753 263.706,-167.07 260.507,-173.296"/>
</g>
<!-- Node11 -->
<g id="node11" class="node"><title>Node11</title>
<g id="a_node11"><a xlink:href="bond_8h.html" target="_top" xlink:title="Helper functions for manipulating RMF files. ">
<polygon fill="none" stroke="black" points="223.707,-117 223.707,-137 270.293,-137 270.293,-117 223.707,-117"/>
<text text-anchor="middle" x="247" y="-123" font-family="Helvetica,sans-Serif" font-size="10.00">bond.h</text>
</a>
</g>
</g>
<!-- Node1&#45;&gt;Node11 -->
<g id="edge18" class="edge"><title>Node1&#45;&gt;Node11</title>
<path fill="none" stroke="midnightblue" d="M275.89,-166.52C268.572,-156.763 259.759,-145.012 253.806,-137.075"/>
<polygon fill="midnightblue" stroke="midnightblue" points="273.265,-168.853 282.065,-174.753 278.865,-164.653 273.265,-168.853"/>
</g>
<!-- Node12 -->
<g id="node12" class="node"><title>Node12</title>
<g id="a_node12"><a xlink:href="representation_8h.html" target="_top" xlink:title="Helper functions for manipulating RMF files. ">
<polygon fill="none" stroke="black" points="287.865,-117 287.865,-137 376.135,-137 376.135,-117 287.865,-117"/>
<text text-anchor="middle" x="332" y="-123" font-family="Helvetica,sans-Serif" font-size="10.00">representation.h</text>
</a>
</g>
</g>
<!-- Node1&#45;&gt;Node12 -->
<g id="edge20" class="edge"><title>Node1&#45;&gt;Node12</title>
<path fill="none" stroke="midnightblue" d="M302.194,-166.818C309.73,-157.003 318.875,-145.093 325.032,-137.075"/>
<polygon fill="midnightblue" stroke="midnightblue" points="299.415,-164.69 296.101,-174.753 304.967,-168.953 299.415,-164.69"/>
</g>
<!-- Node13 -->
<g id="node13" class="node"><title>Node13</title>
<g id="a_node13"><a xlink:href="alternatives_8h.html" target="_top" xlink:title="Helper functions for manipulating RMF files. ">
<polygon fill="none" stroke="black" points="394.261,-117 394.261,-137 469.739,-137 469.739,-117 394.261,-117"/>
<text text-anchor="middle" x="432" y="-123" font-family="Helvetica,sans-Serif" font-size="10.00">alternatives.h</text>
</a>
</g>
</g>
<!-- Node1&#45;&gt;Node13 -->
<g id="edge22" class="edge"><title>Node1&#45;&gt;Node13</title>
<path fill="none" stroke="midnightblue" d="M321.923,-171.107C348.469,-160.711 385.141,-146.351 408.716,-137.118"/>
<polygon fill="midnightblue" stroke="midnightblue" points="320.329,-167.972 312.294,-174.878 322.881,-174.491 320.329,-167.972"/>
</g>
<!-- Node3 -->
<g id="node3" class="node"><title>Node3</title>
<g id="a_node3"><a xlink:href="decorators_8h.html" target="_top" xlink:title="Import all the decorators headers. ">
<polygon fill="none" stroke="black" points="231.207,-1 231.207,-21 302.793,-21 302.793,-1 231.207,-1"/>
<text text-anchor="middle" x="267" y="-7" font-family="Helvetica,sans-Serif" font-size="10.00">decorators.h</text>
</a>
</g>
</g>
<!-- Node2&#45;&gt;Node3 -->
<g id="edge2" class="edge"><title>Node2&#45;&gt;Node3</title>
<path fill="none" stroke="midnightblue" d="M134.534,-110.7C166.811,-86.6504 228.441,-40.7303 254.68,-21.1799"/>
<polygon fill="midnightblue" stroke="midnightblue" points="132.19,-108.082 126.262,-116.864 136.372,-113.695 132.19,-108.082"/>
</g>
<!-- Node2&#45;&gt;Node4 -->
<g id="edge3" class="edge"><title>Node2&#45;&gt;Node4</title>
<path fill="none" stroke="midnightblue" d="M114,-106.707C114,-97.3384 114,-86.5262 114,-79.0752"/>
<polygon fill="midnightblue" stroke="midnightblue" points="110.5,-106.753 114,-116.753 117.5,-106.753 110.5,-106.753"/>
</g>
<!-- Node4&#45;&gt;Node3 -->
<g id="edge4" class="edge"><title>Node4&#45;&gt;Node3</title>
<path fill="none" stroke="midnightblue" d="M148.507,-55.3698C177.058,-44.92 216.915,-30.3319 242.342,-21.0253"/>
<polygon fill="midnightblue" stroke="midnightblue" points="147.11,-52.154 138.923,-58.878 149.516,-58.7276 147.11,-52.154"/>
</g>
<!-- Node5 -->
<g id="node5" class="node"><title>Node5</title>
<g id="a_node5"><a xlink:href="benchmark__rmf_8cpp_source.html" target="_top" xlink:title="benchmark_rmf.cpp">
<polygon fill="none" stroke="black" points="21.8154,-1 21.8154,-21 126.185,-21 126.185,-1 21.8154,-1"/>
<text text-anchor="middle" x="74" y="-7" font-family="Helvetica,sans-Serif" font-size="10.00">benchmark_rmf.cpp</text>
</a>
</g>
</g>
<!-- Node4&#45;&gt;Node5 -->
<g id="edge5" class="edge"><title>Node4&#45;&gt;Node5</title>
<path fill="none" stroke="midnightblue" d="M101.514,-50.5197C94.545,-40.763 86.1516,-29.0122 80.4823,-21.0752"/>
<polygon fill="midnightblue" stroke="midnightblue" points="98.7343,-52.6497 107.395,-58.7527 104.43,-48.581 98.7343,-52.6497"/>
</g>
<!-- Node6&#45;&gt;Node3 -->
<g id="edge7" class="edge"><title>Node6&#45;&gt;Node3</title>
<path fill="none" stroke="midnightblue" d="M370.587,-54.9693C345.553,-44.585 311.14,-30.3099 288.981,-21.1181"/>
<polygon fill="midnightblue" stroke="midnightblue" points="369.432,-58.2793 380.009,-58.878 372.114,-51.8135 369.432,-58.2793"/>
</g>
<!-- Node7&#45;&gt;Node3 -->
<g id="edge9" class="edge"><title>Node7&#45;&gt;Node3</title>
<path fill="none" stroke="midnightblue" d="M449.235,-58.3871C408.126,-47.923 342.89,-31.3175 302.637,-21.0713"/>
<polygon fill="midnightblue" stroke="midnightblue" points="448.582,-61.8325 459.137,-60.9076 450.309,-55.0489 448.582,-61.8325"/>
</g>
<!-- Node8&#45;&gt;Node3 -->
<g id="edge12" class="edge"><title>Node8&#45;&gt;Node3</title>
<path fill="none" stroke="midnightblue" d="M526.788,-58.7237C525.512,-58.4785 524.247,-58.2368 523,-58 444.697,-43.1362 352.678,-26.9023 303.077,-18.253"/>
<polygon fill="midnightblue" stroke="midnightblue" points="526.211,-62.177 536.695,-60.6523 527.548,-55.3059 526.211,-62.177"/>
</g>
<!-- Node9&#45;&gt;Node3 -->
<g id="edge14" class="edge"><title>Node9&#45;&gt;Node3</title>
<path fill="none" stroke="midnightblue" d="M76.9818,-57.4744C121.521,-46.8155 189.578,-30.5284 231.011,-20.6127"/>
<polygon fill="midnightblue" stroke="midnightblue" points="75.9364,-54.1257 67.0256,-59.8571 77.5656,-60.9335 75.9364,-54.1257"/>
</g>
<!-- Node9&#45;&gt;Node5 -->
<g id="edge15" class="edge"><title>Node9&#45;&gt;Node5</title>
<path fill="none" stroke="midnightblue" d="M45.7981,-50.5197C52.9414,-40.763 61.5447,-29.0122 67.3557,-21.0752"/>
<polygon fill="midnightblue" stroke="midnightblue" points="42.8537,-48.6165 39.7703,-58.7527 48.5018,-52.7517 42.8537,-48.6165"/>
</g>
<!-- Node10&#45;&gt;Node3 -->
<g id="edge17" class="edge"><title>Node10&#45;&gt;Node3</title>
<path fill="none" stroke="midnightblue" d="M193.293,-108.582C212.034,-84.0246 245.549,-40.1079 260.025,-21.1394"/>
<polygon fill="midnightblue" stroke="midnightblue" points="190.404,-106.598 187.12,-116.671 195.969,-110.845 190.404,-106.598"/>
</g>
<!-- Node11&#45;&gt;Node3 -->
<g id="edge19" class="edge"><title>Node11&#45;&gt;Node3</title>
<path fill="none" stroke="midnightblue" d="M250.403,-106.603C254.767,-81.7305 262.156,-39.6088 265.397,-21.1394"/>
<polygon fill="midnightblue" stroke="midnightblue" points="246.917,-106.217 248.637,-116.671 253.812,-107.426 246.917,-106.217"/>
</g>
<!-- Node12&#45;&gt;Node3 -->
<g id="edge21" class="edge"><title>Node12&#45;&gt;Node3</title>
<path fill="none" stroke="midnightblue" d="M321.697,-107.931C307.628,-83.2561 282.932,-39.9416 272.211,-21.1394"/>
<polygon fill="midnightblue" stroke="midnightblue" points="318.687,-109.717 326.681,-116.671 324.768,-106.25 318.687,-109.717"/>
</g>
<!-- Node13&#45;&gt;Node3 -->
<g id="edge23" class="edge"><title>Node13&#45;&gt;Node3</title>
<path fill="none" stroke="midnightblue" d="M409.518,-111.243C395.977,-102.298 378.424,-90.6012 363,-80 332.871,-59.2922 297.94,-34.2973 279.653,-21.1347"/>
<polygon fill="midnightblue" stroke="midnightblue" points="407.901,-114.369 418.177,-116.95 411.753,-108.524 407.901,-114.369"/>
</g>
</g>
</svg>
        <g id="navigator" transform="translate(0 0)" fill="#404254">
                <rect fill="#f2f5e9" fill-opacity="0.5" stroke="#606060" stroke-width=".5" x="0" y="0" width="60" height="60"/>
                <use id="zoomplus" xlink:href="#zoomPlus" x="17" y="9" onmousedown="handleZoom(evt,'in')"/>
                <use id="zoomminus" xlink:href="#zoomMin" x="42" y="9" onmousedown="handleZoom(evt,'out')"/>
                <use id="reset" xlink:href="#resetDef" x="30" y="36" onmousedown="handleReset()"/>
                <g id="arrowUp" xlink:href="#dirArrow" transform="translate(30 24)" onmousedown="handlePan(0,-1)">
                  <use xlink:href="#rim" fill="#404040">
                        <set attributeName="fill" to="#808080" begin="arrowUp.mouseover" end="arrowUp.mouseout"/>
                  </use>
                  <path fill="none" stroke="white" stroke-width="1.5" d="M0,-3.0v7 M-2.5,-0.5L0,-3.0L2.5,-0.5"/>
                </g>
                <g id="arrowRight" xlink:href="#dirArrow" transform="rotate(90) translate(36 -43)" onmousedown="handlePan(1,0)">
                  <use xlink:href="#rim" fill="#404040">
                        <set attributeName="fill" to="#808080" begin="arrowRight.mouseover" end="arrowRight.mouseout"/>
                  </use>
                  <path fill="none" stroke="white" stroke-width="1.5" d="M0,-3.0v7 M-2.5,-0.5L0,-3.0L2.5,-0.5"/>
                </g>
                <g id="arrowDown" xlink:href="#dirArrow" transform="rotate(180) translate(-30 -48)" onmousedown="handlePan(0,1)">
                  <use xlink:href="#rim" fill="#404040">
                        <set attributeName="fill" to="#808080" begin="arrowDown.mouseover" end="arrowDown.mouseout"/>
                  </use>
                  <path fill="none" stroke="white" stroke-width="1.5" d="M0,-3.0v7 M-2.5,-0.5L0,-3.0L2.5,-0.5"/>
                </g>
                <g id="arrowLeft" xlink:href="#dirArrow" transform="rotate(270) translate(-36 17)" onmousedown="handlePan(-1,0)">
                  <use xlink:href="#rim" fill="#404040">
                        <set attributeName="fill" to="#808080" begin="arrowLeft.mouseover" end="arrowLeft.mouseout"/>
                  </use>
                  <path fill="none" stroke="white" stroke-width="1.5" d="M0,-3.0v7 M-2.5,-0.5L0,-3.0L2.5,-0.5"/>
                </g>
        </g>
        <svg viewBox="0 0 15 15" width="100%" height="30px" preserveAspectRatio="xMaxYMin meet">
         <g id="arrow_out" transform="scale(0.3 0.3)">
          <a xlink:href="Decorator_8h__dep__incl_org.svg" target="_base">
           <rect id="button" ry="5" rx="5" y="6" x="6" height="38" width="38"
                fill="#f2f5e9" fill-opacity="0.5" stroke="#606060" stroke-width="1.0"/>
           <path id="arrow"
             d="M 11.500037,31.436501 C 11.940474,20.09759 22.043105,11.32322 32.158766,21.979434 L 37.068811,17.246167 C 37.068811,17.246167 37.088388,32 37.088388,32 L 22.160133,31.978069 C 22.160133,31.978069 26.997745,27.140456 26.997745,27.140456 C 18.528582,18.264221 13.291696,25.230495 11.500037,31.436501 z"
             style="fill:#404040;"/>
          </a>
         </g>
        </svg>
</svg>
