<?xml version="1.0" encoding="UTF-8" standalone="no"?>
<!DOCTYPE svg PUBLIC "-//W3C//DTD SVG 1.1//EN"
 "http://www.w3.org/Graphics/SVG/1.1/DTD/svg11.dtd">
<!-- Generated by graphviz version 2.34.0 (20131025.1349)
 -->
<!-- Title: default_types.h Pages: 1 -->
<!--zoomable 552 -->
<svg id="main" version="1.1" xmlns="http://www.w3.org/2000/svg" xmlns:xlink="http://www.w3.org/1999/xlink" xml:space="preserve" onload="init(evt)">
<style type="text/css"><![CDATA[
.edge:hover path { stroke: red; }
.edge:hover polygon { stroke: red; fill: red; }
]]></style>
<script type="text/javascript"><![CDATA[
var edges = document.getElementsByTagName('g');
if (edges && edges.length) {
  for (var i=0;i<edges.length;i++) {
    if (edges[i].id.substr(0,4)=='edge') {
      edges[i].setAttribute('class','edge');
    }
  }
}
]]></script>
        <defs>
                <circle id="rim" cx="0" cy="0" r="7"/>
                <circle id="rim2" cx="0" cy="0" r="3.5"/>
                <g id="zoomPlus">
                        <use xlink:href="#rim" fill="#404040">
                                <set attributeName="fill" to="#808080" begin="zoomplus.mouseover" end="zoomplus.mouseout"/>
                        </use>
                        <path d="M-4,0h8M0,-4v8" fill="none" stroke="white" stroke-width="1.5" pointer-events="none"/>
                </g>
                <g id="zoomMin">
                        <use xlink:href="#rim" fill="#404040">
                                <set attributeName="fill" to="#808080" begin="zoomminus.mouseover" end="zoomminus.mouseout"/>
                        </use>
                        <path d="M-4,0h8" fill="none" stroke="white" stroke-width="1.5" pointer-events="none"/>
                </g>
                <g id="dirArrow">
                        <path fill="none" stroke="white" stroke-width="1.5" d="M0,-3.0v7 M-2.5,-0.5L0,-3.0L2.5,-0.5"/>
                </g>
               <g id="resetDef">
                       <use xlink:href="#rim2" fill="#404040">
                               <set attributeName="fill" to="#808080" begin="reset.mouseover" end="reset.mouseout"/>
                       </use>
               </g>
        </defs>

<script type="text/javascript">
var viewWidth = 1458;
var viewHeight = 552;
var sectionId = 'dynsection-1';
</script>
<script xlink:href="svgpan.js"/>
<svg id="graph" class="graph">
<g id="viewport">
<title>default_types.h</title>
<!-- Node1 -->
<g id="node1" class="node"><title>Node1</title>
<polygon fill="#bfbfbf" stroke="black" points="755.086,-523 755.086,-543 838.914,-543 838.914,-523 755.086,-523"/>
<text text-anchor="middle" x="797" y="-529" font-family="Helvetica,sans-Serif" font-size="10.00">default_types.h</text>
</g>
<!-- Node2 -->
<g id="node2" class="node"><title>Node2</title>
<g id="a_node2"><a xlink:href="types_8h.html" target="_top" xlink:title="types.h">
<polygon fill="none" stroke="black" points="772.879,-465 772.879,-485 821.121,-485 821.121,-465 772.879,-465"/>
<text text-anchor="middle" x="797" y="-471" font-family="Helvetica,sans-Serif" font-size="10.00">types.h</text>
</a>
</g>
</g>
<!-- Node1&#45;&gt;Node2 -->
<g id="edge1" class="edge"><title>Node1&#45;&gt;Node2</title>
<path fill="none" stroke="midnightblue" d="M797,-512.707C797,-503.338 797,-492.526 797,-485.075"/>
<polygon fill="midnightblue" stroke="midnightblue" points="793.5,-512.753 797,-522.753 800.5,-512.753 793.5,-512.753"/>
</g>
<!-- Node3 -->
<g id="node3" class="node"><title>Node3</title>
<g id="a_node3"><a xlink:href="traits_8h.html" target="_top" xlink:title="Handle read/write of Model data from/to files. ">
<polygon fill="none" stroke="black" points="799.995,-407 799.995,-427 846.005,-427 846.005,-407 799.995,-407"/>
<text text-anchor="middle" x="823" y="-413" font-family="Helvetica,sans-Serif" font-size="10.00">traits.h</text>
</a>
</g>
</g>
<!-- Node2&#45;&gt;Node3 -->
<g id="edge2" class="edge"><title>Node2&#45;&gt;Node3</title>
<path fill="none" stroke="midnightblue" d="M805.534,-455.618C809.978,-446.047 815.214,-434.769 818.787,-427.075"/>
<polygon fill="midnightblue" stroke="midnightblue" points="802.33,-454.209 801.293,-464.753 808.679,-457.157 802.33,-454.209"/>
</g>
<!-- Node5 -->
<g id="node5" class="node"><title>Node5</title>
<g id="a_node5"><a xlink:href="NodeConstHandle_8h.html" target="_top" xlink:title="Handle read/write of Model data from/to files. ">
<polygon fill="none" stroke="black" points="768.971,-291 768.971,-311 875.029,-311 875.029,-291 768.971,-291"/>
<text text-anchor="middle" x="822" y="-297" font-family="Helvetica,sans-Serif" font-size="10.00">NodeConstHandle.h</text>
</a>
</g>
</g>
<!-- Node2&#45;&gt;Node5 -->
<g id="edge68" class="edge"><title>Node2&#45;&gt;Node5</title>
<path fill="none" stroke="midnightblue" d="M793.932,-454.807C792.763,-446.577 791.574,-436.841 791,-428 790.366,-418.243 789.589,-415.675 791,-406 796.249,-370.018 811.203,-329.179 818.245,-311.258"/>
<polygon fill="midnightblue" stroke="midnightblue" points="790.497,-455.506 795.454,-464.87 797.419,-454.459 790.497,-455.506"/>
</g>
<!-- Node19 -->
<g id="node19" class="node"><title>Node19</title>
<g id="a_node19"><a xlink:href="NodeHandle_8h.html" target="_top" xlink:title="Handle read/write of Model data from/to files. ">
<polygon fill="none" stroke="black" points="487.032,-233 487.032,-253 566.968,-253 566.968,-233 487.032,-233"/>
<text text-anchor="middle" x="527" y="-239" font-family="Helvetica,sans-Serif" font-size="10.00">NodeHandle.h</text>
</a>
</g>
</g>
<!-- Node2&#45;&gt;Node19 -->
<g id="edge69" class="edge"><title>Node2&#45;&gt;Node19</title>
<path fill="none" stroke="midnightblue" d="M762.805,-467.138C735.716,-460.466 697.915,-448.303 670,-428 599.982,-377.075 547.098,-282.713 531.63,-253.121"/>
<polygon fill="midnightblue" stroke="midnightblue" points="762.086,-470.564 772.62,-469.431 763.678,-463.747 762.086,-470.564"/>
</g>
<!-- Node20 -->
<g id="node20" class="node"><title>Node20</title>
<g id="a_node20"><a xlink:href="FileHandle_8h.html" target="_top" xlink:title="Handle read/write of Model data from/to files. ">
<polygon fill="none" stroke="black" points="554.929,-175 554.929,-195 627.071,-195 627.071,-175 554.929,-175"/>
<text text-anchor="middle" x="591" y="-181" font-family="Helvetica,sans-Serif" font-size="10.00">FileHandle.h</text>
</a>
</g>
</g>
<!-- Node2&#45;&gt;Node20 -->
<g id="edge71" class="edge"><title>Node2&#45;&gt;Node20</title>
<path fill="none" stroke="midnightblue" d="M767.858,-460.381C734.377,-442.481 684,-407.633 684,-360 684,-360 684,-360 684,-300 684,-251.47 632.772,-212.181 606.357,-195.148"/>
<polygon fill="midnightblue" stroke="midnightblue" points="766.304,-463.517 776.798,-464.976 769.505,-457.291 766.304,-463.517"/>
</g>
<!-- Node22 -->
<g id="node22" class="node"><title>Node22</title>
<g id="a_node22"><a xlink:href="FileConstHandle_8h.html" target="_top" xlink:title="Handle read/write of Model data from/to files. ">
<polygon fill="none" stroke="black" points="1027.87,-233 1027.87,-253 1126.13,-253 1126.13,-233 1027.87,-233"/>
<text text-anchor="middle" x="1077" y="-239" font-family="Helvetica,sans-Serif" font-size="10.00">FileConstHandle.h</text>
</a>
</g>
</g>
<!-- Node2&#45;&gt;Node22 -->
<g id="edge70" class="edge"><title>Node2&#45;&gt;Node22</title>
<path fill="none" stroke="midnightblue" d="M816.549,-458.666C827.835,-449.771 842.272,-438.32 855,-428 936.656,-361.793 1033.73,-280.391 1065.98,-253.275"/>
<polygon fill="midnightblue" stroke="midnightblue" points="814.309,-455.975 808.613,-464.909 818.637,-461.477 814.309,-455.975"/>
</g>
<!-- Node28 -->
<g id="node28" class="node"><title>Node28</title>
<g id="a_node28"><a xlink:href="names_8h.html" target="_top" xlink:title="Handle read/write of Model data from/to files. ">
<polygon fill="none" stroke="black" points="937.823,-407 937.823,-427 992.177,-427 992.177,-407 937.823,-407"/>
<text text-anchor="middle" x="965" y="-413" font-family="Helvetica,sans-Serif" font-size="10.00">names.h</text>
</a>
</g>
</g>
<!-- Node2&#45;&gt;Node28 -->
<g id="edge67" class="edge"><title>Node2&#45;&gt;Node28</title>
<path fill="none" stroke="midnightblue" d="M831.089,-462.637C862.553,-452.149 908.676,-436.775 937.754,-427.082"/>
<polygon fill="midnightblue" stroke="midnightblue" points="829.809,-459.374 821.429,-465.857 832.022,-466.015 829.809,-459.374"/>
</g>
<!-- Node4 -->
<g id="node4" class="node"><title>Node4</title>
<g id="a_node4"><a xlink:href="keys_8h.html" target="_top" xlink:title="Handle read/write of Model data from/to files. ">
<polygon fill="none" stroke="black" points="837.549,-349 837.549,-369 882.451,-369 882.451,-349 837.549,-349"/>
<text text-anchor="middle" x="860" y="-355" font-family="Helvetica,sans-Serif" font-size="10.00">keys.h</text>
</a>
</g>
</g>
<!-- Node3&#45;&gt;Node4 -->
<g id="edge3" class="edge"><title>Node3&#45;&gt;Node4</title>
<path fill="none" stroke="midnightblue" d="M834.747,-398.22C841.154,-388.524 848.813,-376.931 854.004,-369.075"/>
<polygon fill="midnightblue" stroke="midnightblue" points="831.702,-396.48 829.11,-406.753 837.543,-400.339 831.702,-396.48"/>
</g>
<!-- Node3&#45;&gt;Node5 -->
<g id="edge66" class="edge"><title>Node3&#45;&gt;Node5</title>
<path fill="none" stroke="midnightblue" d="M822.83,-396.603C822.612,-371.731 822.242,-329.609 822.08,-311.139"/>
<polygon fill="midnightblue" stroke="midnightblue" points="819.33,-396.702 822.918,-406.671 826.33,-396.641 819.33,-396.702"/>
</g>
<!-- Node4&#45;&gt;Node5 -->
<g id="edge4" class="edge"><title>Node4&#45;&gt;Node5</title>
<path fill="none" stroke="midnightblue" d="M847.935,-340.22C841.355,-330.524 833.489,-318.931 828.158,-311.075"/>
<polygon fill="midnightblue" stroke="midnightblue" points="845.214,-342.443 853.725,-348.753 851.006,-338.513 845.214,-342.443"/>
</g>
<!-- Node6 -->
<g id="node6" class="node"><title>Node6</title>
<g id="a_node6"><a xlink:href="Decorator_8h.html" target="_top" xlink:title="Helper functions for manipulating RMF files. ">
<polygon fill="none" stroke="black" points="355.15,-175 355.15,-195 422.85,-195 422.85,-175 355.15,-175"/>
<text text-anchor="middle" x="389" y="-181" font-family="Helvetica,sans-Serif" font-size="10.00">Decorator.h</text>
</a>
</g>
</g>
<!-- Node5&#45;&gt;Node6 -->
<g id="edge5" class="edge"><title>Node5&#45;&gt;Node6</title>
<path fill="none" stroke="midnightblue" d="M758.784,-295.453C673.731,-288.669 527.414,-274.467 478,-254 444.585,-240.16 412.744,-210.534 397.829,-195.368"/>
<polygon fill="midnightblue" stroke="midnightblue" points="758.598,-298.949 768.842,-296.243 759.147,-291.971 758.598,-298.949"/>
</g>
<!-- Node10 -->
<g id="node10" class="node"><title>Node10</title>
<g id="a_node10"><a xlink:href="benchmark__rmf_8cpp_source.html" target="_top" xlink:title="benchmark_rmf.cpp">
<polygon fill="none" stroke="black" points="814.815,-1 814.815,-21 919.185,-21 919.185,-1 814.815,-1"/>
<text text-anchor="middle" x="867" y="-7" font-family="Helvetica,sans-Serif" font-size="10.00">benchmark_rmf.cpp</text>
</a>
</g>
</g>
<!-- Node5&#45;&gt;Node10 -->
<g id="edge65" class="edge"><title>Node5&#45;&gt;Node10</title>
<path fill="none" stroke="midnightblue" d="M879.528,-288.371C931.536,-274.106 1000,-244.263 1000,-186 1000,-186 1000,-186 1000,-126 1000,-70.4987 932.408,-36.1938 893.595,-21.0704"/>
<polygon fill="midnightblue" stroke="midnightblue" points="878.491,-285.024 869.701,-290.938 880.261,-291.797 878.491,-285.024"/>
</g>
<!-- Node5&#45;&gt;Node19 -->
<g id="edge29" class="edge"><title>Node5&#45;&gt;Node19</title>
<path fill="none" stroke="midnightblue" d="M764.141,-289.017C706.002,-277.98 617.929,-261.261 567.076,-251.608"/>
<polygon fill="midnightblue" stroke="midnightblue" points="763.798,-292.514 774.275,-290.94 765.104,-285.637 763.798,-292.514"/>
</g>
<!-- Node21 -->
<g id="node21" class="node"><title>Node21</title>
<g id="a_node21"><a xlink:href="validate_8h.html" target="_top" xlink:title="Handle read/write of Model data from/to files. ">
<polygon fill="none" stroke="black" points="913.596,-117 913.596,-137 972.404,-137 972.404,-117 913.596,-117"/>
<text text-anchor="middle" x="943" y="-123" font-family="Helvetica,sans-Serif" font-size="10.00">validate.h</text>
</a>
</g>
</g>
<!-- Node5&#45;&gt;Node21 -->
<g id="edge64" class="edge"><title>Node5&#45;&gt;Node21</title>
<path fill="none" stroke="midnightblue" d="M835.403,-283.007C851.293,-262.663 878.348,-227.399 900,-196 914.114,-175.532 929.39,-150.652 937.388,-137.391"/>
<polygon fill="midnightblue" stroke="midnightblue" points="832.553,-280.969 829.135,-290.997 838.061,-285.289 832.553,-280.969"/>
</g>
<!-- Node5&#45;&gt;Node22 -->
<g id="edge55" class="edge"><title>Node5&#45;&gt;Node22</title>
<path fill="none" stroke="midnightblue" d="M873.097,-288.779C920.926,-278.275 991.481,-262.781 1035.81,-253.047"/>
<polygon fill="midnightblue" stroke="midnightblue" points="872.27,-285.377 863.254,-290.94 873.772,-292.214 872.27,-285.377"/>
</g>
<!-- Node27 -->
<g id="node27" class="node"><title>Node27</title>
<g id="a_node27"><a xlink:href="utility_8h.html" target="_top" xlink:title="Helper functions for manipulating RMF files. ">
<polygon fill="none" stroke="black" points="798.807,-233 798.807,-253 845.193,-253 845.193,-233 798.807,-233"/>
<text text-anchor="middle" x="822" y="-239" font-family="Helvetica,sans-Serif" font-size="10.00">utility.h</text>
</a>
</g>
</g>
<!-- Node5&#45;&gt;Node27 -->
<g id="edge63" class="edge"><title>Node5&#45;&gt;Node27</title>
<path fill="none" stroke="midnightblue" d="M822,-280.707C822,-271.338 822,-260.526 822,-253.075"/>
<polygon fill="midnightblue" stroke="midnightblue" points="818.5,-280.753 822,-290.753 825.5,-280.753 818.5,-280.753"/>
</g>
<!-- Node7 -->
<g id="node7" class="node"><title>Node7</title>
<g id="a_node7"><a xlink:href="alias_8h.html" target="_top" xlink:title="Helper functions for manipulating RMF files. ">
<polygon fill="none" stroke="black" points="613.547,-117 613.547,-137 658.453,-137 658.453,-117 613.547,-117"/>
<text text-anchor="middle" x="636" y="-123" font-family="Helvetica,sans-Serif" font-size="10.00">alias.h</text>
</a>
</g>
</g>
<!-- Node6&#45;&gt;Node7 -->
<g id="edge6" class="edge"><title>Node6&#45;&gt;Node7</title>
<path fill="none" stroke="midnightblue" d="M433.116,-175.796C476.775,-167.388 545.383,-153.395 604,-138 607.04,-137.202 610.221,-136.295 613.349,-135.362"/>
<polygon fill="midnightblue" stroke="midnightblue" points="432.279,-172.392 423.115,-177.708 433.594,-179.268 432.279,-172.392"/>
</g>
<!-- Node9 -->
<g id="node9" class="node"><title>Node9</title>
<g id="a_node9"><a xlink:href="physics_8h.html" target="_top" xlink:title="Helper functions for manipulating RMF files. ">
<polygon fill="none" stroke="black" points="621.158,-59 621.158,-79 678.842,-79 678.842,-59 621.158,-59"/>
<text text-anchor="middle" x="650" y="-65" font-family="Helvetica,sans-Serif" font-size="10.00">physics.h</text>
</a>
</g>
</g>
<!-- Node6&#45;&gt;Node9 -->
<g id="edge15" class="edge"><title>Node6&#45;&gt;Node9</title>
<path fill="none" stroke="midnightblue" d="M373.081,-166.765C361.36,-151.947 349.459,-130.703 362,-116 395.105,-77.1874 554.523,-70.9754 620.9,-70.0896"/>
<polygon fill="midnightblue" stroke="midnightblue" points="370.635,-169.291 379.775,-174.648 375.971,-164.76 370.635,-169.291"/>
</g>
<!-- Node11 -->
<g id="node11" class="node"><title>Node11</title>
<g id="a_node11"><a xlink:href="external_8h.html" target="_top" xlink:title="Helper functions for manipulating RMF files. ">
<polygon fill="none" stroke="black" points="371.042,-117 371.042,-137 430.958,-137 430.958,-117 371.042,-117"/>
<text text-anchor="middle" x="401" y="-123" font-family="Helvetica,sans-Serif" font-size="10.00">external.h</text>
</a>
</g>
</g>
<!-- Node6&#45;&gt;Node11 -->
<g id="edge11" class="edge"><title>Node6&#45;&gt;Node11</title>
<path fill="none" stroke="midnightblue" d="M393.134,-164.707C395.142,-155.338 397.459,-144.526 399.055,-137.075"/>
<polygon fill="midnightblue" stroke="midnightblue" points="389.655,-164.241 390.982,-174.753 396.499,-165.708 389.655,-164.241"/>
</g>
<!-- Node12 -->
<g id="node12" class="node"><title>Node12</title>
<g id="a_node12"><a xlink:href="feature_8h.html" target="_top" xlink:title="Helper functions for manipulating RMF files. ">
<polygon fill="none" stroke="black" points="449.264,-117 449.264,-137 504.736,-137 504.736,-117 449.264,-117"/>
<text text-anchor="middle" x="477" y="-123" font-family="Helvetica,sans-Serif" font-size="10.00">feature.h</text>
</a>
</g>
</g>
<!-- Node6&#45;&gt;Node12 -->
<g id="edge13" class="edge"><title>Node6&#45;&gt;Node12</title>
<path fill="none" stroke="midnightblue" d="M412.331,-169.153C428.359,-158.953 449.121,-145.741 462.739,-137.075"/>
<polygon fill="midnightblue" stroke="midnightblue" points="410.089,-166.431 403.531,-174.753 413.847,-172.337 410.089,-166.431"/>
</g>
<!-- Node13 -->
<g id="node13" class="node"><title>Node13</title>
<g id="a_node13"><a xlink:href="publication_8h.html" target="_top" xlink:title="Helper functions for manipulating RMF files. ">
<polygon fill="none" stroke="black" points="522.924,-117 522.924,-137 595.076,-137 595.076,-117 522.924,-117"/>
<text text-anchor="middle" x="559" y="-123" font-family="Helvetica,sans-Serif" font-size="10.00">publication.h</text>
</a>
</g>
</g>
<!-- Node6&#45;&gt;Node13 -->
<g id="edge16" class="edge"><title>Node6&#45;&gt;Node13</title>
<path fill="none" stroke="midnightblue" d="M426.513,-171.643C458.289,-161.175 503.103,-146.413 531.602,-137.025"/>
<polygon fill="midnightblue" stroke="midnightblue" points="425.095,-168.425 416.692,-174.878 427.285,-175.073 425.095,-168.425"/>
</g>
<!-- Node14 -->
<g id="node14" class="node"><title>Node14</title>
<g id="a_node14"><a xlink:href="sequence_8h.html" target="_top" xlink:title="Helper functions for manipulating RMF files. ">
<polygon fill="none" stroke="black" points="714.146,-117 714.146,-137 781.854,-137 781.854,-117 714.146,-117"/>
<text text-anchor="middle" x="748" y="-123" font-family="Helvetica,sans-Serif" font-size="10.00">sequence.h</text>
</a>
</g>
</g>
<!-- Node6&#45;&gt;Node14 -->
<g id="edge18" class="edge"><title>Node6&#45;&gt;Node14</title>
<path fill="none" stroke="midnightblue" d="M433.291,-177.091C505.957,-165.756 648.917,-143.456 714.13,-133.283"/>
<polygon fill="midnightblue" stroke="midnightblue" points="432.439,-173.682 423.098,-178.681 433.517,-180.598 432.439,-173.682"/>
</g>
<!-- Node15 -->
<g id="node15" class="node"><title>Node15</title>
<g id="a_node15"><a xlink:href="shape_8h.html" target="_top" xlink:title="Helper functions for manipulating RMF files. ">
<polygon fill="none" stroke="black" points="-0.792969,-117 -0.792969,-137 50.793,-137 50.793,-117 -0.792969,-117"/>
<text text-anchor="middle" x="25" y="-123" font-family="Helvetica,sans-Serif" font-size="10.00">shape.h</text>
</a>
</g>
</g>
<!-- Node6&#45;&gt;Node15 -->
<g id="edge21" class="edge"><title>Node6&#45;&gt;Node15</title>
<path fill="none" stroke="midnightblue" d="M345.059,-179.825C281.652,-173.356 161.016,-159.384 60,-138 57.0324,-137.372 53.9472,-136.628 50.8927,-135.833"/>
<polygon fill="midnightblue" stroke="midnightblue" points="344.803,-183.317 355.103,-180.836 345.504,-176.352 344.803,-183.317"/>
</g>
<!-- Node16 -->
<g id="node16" class="node"><title>Node16</title>
<g id="a_node16"><a xlink:href="bond_8h.html" target="_top" xlink:title="Helper functions for manipulating RMF files. ">
<polygon fill="none" stroke="black" points="68.707,-117 68.707,-137 115.293,-137 115.293,-117 68.707,-117"/>
<text text-anchor="middle" x="92" y="-123" font-family="Helvetica,sans-Serif" font-size="10.00">bond.h</text>
</a>
</g>
</g>
<!-- Node6&#45;&gt;Node16 -->
<g id="edge23" class="edge"><title>Node6&#45;&gt;Node16</title>
<path fill="none" stroke="midnightblue" d="M344.766,-178.131C291.857,-170.697 200.801,-156.581 124,-138 121.171,-137.316 118.227,-136.517 115.32,-135.675"/>
<polygon fill="midnightblue" stroke="midnightblue" points="344.437,-181.619 354.823,-179.529 345.4,-174.686 344.437,-181.619"/>
</g>
<!-- Node17 -->
<g id="node17" class="node"><title>Node17</title>
<g id="a_node17"><a xlink:href="representation_8h.html" target="_top" xlink:title="Helper functions for manipulating RMF files. ">
<polygon fill="none" stroke="black" points="132.865,-117 132.865,-137 221.135,-137 221.135,-117 132.865,-117"/>
<text text-anchor="middle" x="177" y="-123" font-family="Helvetica,sans-Serif" font-size="10.00">representation.h</text>
</a>
</g>
</g>
<!-- Node6&#45;&gt;Node17 -->
<g id="edge25" class="edge"><title>Node6&#45;&gt;Node17</title>
<path fill="none" stroke="midnightblue" d="M345.257,-172.445C305.552,-161.957 247.796,-146.701 211.328,-137.068"/>
<polygon fill="midnightblue" stroke="midnightblue" points="344.376,-175.833 354.939,-175.003 346.164,-169.065 344.376,-175.833"/>
</g>
<!-- Node18 -->
<g id="node18" class="node"><title>Node18</title>
<g id="a_node18"><a xlink:href="alternatives_8h.html" target="_top" xlink:title="Helper functions for manipulating RMF files. ">
<polygon fill="none" stroke="black" points="239.261,-117 239.261,-137 314.739,-137 314.739,-117 239.261,-117"/>
<text text-anchor="middle" x="277" y="-123" font-family="Helvetica,sans-Serif" font-size="10.00">alternatives.h</text>
</a>
</g>
</g>
<!-- Node6&#45;&gt;Node18 -->
<g id="edge27" class="edge"><title>Node6&#45;&gt;Node18</title>
<path fill="none" stroke="midnightblue" d="M361.287,-170.144C340.645,-159.823 313.049,-146.025 295.15,-137.075"/>
<polygon fill="midnightblue" stroke="midnightblue" points="359.996,-173.411 370.505,-174.753 363.126,-167.15 359.996,-173.411"/>
</g>
<!-- Node8 -->
<g id="node8" class="node"><title>Node8</title>
<g id="a_node8"><a xlink:href="decorators_8h.html" target="_top" xlink:title="Import all the decorators headers. ">
<polygon fill="none" stroke="black" points="414.207,-1 414.207,-21 485.793,-21 485.793,-1 414.207,-1"/>
<text text-anchor="middle" x="450" y="-7" font-family="Helvetica,sans-Serif" font-size="10.00">decorators.h</text>
</a>
</g>
</g>
<!-- Node7&#45;&gt;Node8 -->
<g id="edge7" class="edge"><title>Node7&#45;&gt;Node8</title>
<path fill="none" stroke="midnightblue" d="M612.506,-111.6C573.592,-87.75 496.869,-40.7263 464.72,-21.0217"/>
<polygon fill="midnightblue" stroke="midnightblue" points="610.738,-114.622 621.093,-116.864 614.396,-108.654 610.738,-114.622"/>
</g>
<!-- Node7&#45;&gt;Node9 -->
<g id="edge8" class="edge"><title>Node7&#45;&gt;Node9</title>
<path fill="none" stroke="midnightblue" d="M640.747,-107.012C643.107,-97.5738 645.848,-86.6072 647.731,-79.0752"/>
<polygon fill="midnightblue" stroke="midnightblue" points="637.342,-106.202 638.312,-116.753 644.133,-107.9 637.342,-106.202"/>
</g>
<!-- Node9&#45;&gt;Node8 -->
<g id="edge9" class="edge"><title>Node9&#45;&gt;Node8</title>
<path fill="none" stroke="midnightblue" d="M610.868,-57.0431C573.39,-46.5492 517.501,-30.9004 482.436,-21.082"/>
<polygon fill="midnightblue" stroke="midnightblue" points="610.345,-60.5311 620.918,-59.8571 612.232,-53.7904 610.345,-60.5311"/>
</g>
<!-- Node9&#45;&gt;Node10 -->
<g id="edge10" class="edge"><title>Node9&#45;&gt;Node10</title>
<path fill="none" stroke="midnightblue" d="M689.107,-57.908C729.831,-47.3985 793.027,-31.0897 832.111,-21.0037"/>
<polygon fill="midnightblue" stroke="midnightblue" points="688.074,-54.5598 679.266,-60.4476 689.823,-61.3377 688.074,-54.5598"/>
</g>
<!-- Node11&#45;&gt;Node8 -->
<g id="edge12" class="edge"><title>Node11&#45;&gt;Node8</title>
<path fill="none" stroke="midnightblue" d="M409.05,-107.271C419.701,-82.4914 438.062,-39.7752 446.072,-21.1394"/>
<polygon fill="midnightblue" stroke="midnightblue" points="405.743,-106.101 405.01,-116.671 412.174,-108.866 405.743,-106.101"/>
</g>
<!-- Node12&#45;&gt;Node8 -->
<g id="edge14" class="edge"><title>Node12&#45;&gt;Node8</title>
<path fill="none" stroke="midnightblue" d="M472.485,-106.939C466.605,-82.1105 456.559,-39.692 452.165,-21.1394"/>
<polygon fill="midnightblue" stroke="midnightblue" points="469.08,-107.747 474.79,-116.671 475.892,-106.133 469.08,-107.747"/>
</g>
<!-- Node13&#45;&gt;Node8 -->
<g id="edge17" class="edge"><title>Node13&#45;&gt;Node8</title>
<path fill="none" stroke="midnightblue" d="M542.959,-109.223C519.604,-84.797 477.034,-40.2743 458.739,-21.1394"/>
<polygon fill="midnightblue" stroke="midnightblue" points="540.64,-111.862 550.08,-116.671 545.699,-107.024 540.64,-111.862"/>
</g>
<!-- Node14&#45;&gt;Node8 -->
<g id="edge19" class="edge"><title>Node14&#45;&gt;Node8</title>
<path fill="none" stroke="midnightblue" d="M737.094,-108.406C726.348,-92.633 708.453,-70.1596 687,-58 622.824,-21.6243 534.871,-13.523 486.167,-12.012"/>
<polygon fill="midnightblue" stroke="midnightblue" points="734.171,-110.33 742.568,-116.79 740.032,-106.504 734.171,-110.33"/>
</g>
<!-- Node14&#45;&gt;Node10 -->
<g id="edge20" class="edge"><title>Node14&#45;&gt;Node10</title>
<path fill="none" stroke="midnightblue" d="M765.181,-109.541C790.605,-85.1847 837.399,-40.3575 857.46,-21.1394"/>
<polygon fill="midnightblue" stroke="midnightblue" points="762.538,-107.226 757.738,-116.671 767.381,-112.281 762.538,-107.226"/>
</g>
<!-- Node15&#45;&gt;Node8 -->
<g id="edge22" class="edge"><title>Node15&#45;&gt;Node8</title>
<path fill="none" stroke="midnightblue" d="M56.7197,-113.246C94.6031,-98.3838 160.125,-73.8459 218,-58 286.317,-39.2952 367.905,-24.912 413.86,-17.5192"/>
<polygon fill="midnightblue" stroke="midnightblue" points="55.2663,-110.057 47.2509,-116.985 57.8375,-116.567 55.2663,-110.057"/>
</g>
<!-- Node16&#45;&gt;Node8 -->
<g id="edge24" class="edge"><title>Node16&#45;&gt;Node8</title>
<path fill="none" stroke="midnightblue" d="M125.063,-113.688C163.504,-99.5429 228.974,-75.9717 286,-58 330.28,-44.0453 381.93,-29.9056 415.257,-21.0565"/>
<polygon fill="midnightblue" stroke="midnightblue" points="123.599,-110.498 115.43,-117.244 126.023,-117.065 123.599,-110.498"/>
</g>
<!-- Node17&#45;&gt;Node8 -->
<g id="edge26" class="edge"><title>Node17&#45;&gt;Node8</title>
<path fill="none" stroke="midnightblue" d="M208.291,-112.933C264.299,-89.5455 380.312,-41.1004 428.395,-21.0217"/>
<polygon fill="midnightblue" stroke="midnightblue" points="206.758,-109.78 198.879,-116.864 209.456,-116.24 206.758,-109.78"/>
</g>
<!-- Node18&#45;&gt;Node8 -->
<g id="edge28" class="edge"><title>Node18&#45;&gt;Node8</title>
<path fill="none" stroke="midnightblue" d="M299.289,-111.312C335.521,-87.4373 406.147,-40.8973 436.069,-21.1799"/>
<polygon fill="midnightblue" stroke="midnightblue" points="297.289,-108.439 290.865,-116.864 301.141,-114.284 297.289,-108.439"/>
</g>
<!-- Node19&#45;&gt;Node6 -->
<g id="edge30" class="edge"><title>Node19&#45;&gt;Node6</title>
<path fill="none" stroke="midnightblue" d="M495.228,-229.107C469.61,-218.711 434.221,-204.351 411.47,-195.118"/>
<polygon fill="midnightblue" stroke="midnightblue" points="493.939,-232.361 504.521,-232.878 496.571,-225.875 493.939,-232.361"/>
</g>
<!-- Node19&#45;&gt;Node7 -->
<g id="edge31" class="edge"><title>Node19&#45;&gt;Node7</title>
<path fill="none" stroke="midnightblue" d="M576.964,-233.694C598.954,-227.285 622.757,-215.964 636,-196 647.878,-178.095 642.867,-151.28 638.977,-137.273"/>
<polygon fill="midnightblue" stroke="midnightblue" points="575.813,-230.378 567.032,-236.307 577.594,-237.148 575.813,-230.378"/>
</g>
<!-- Node19&#45;&gt;Node9 -->
<g id="edge47" class="edge"><title>Node19&#45;&gt;Node9</title>
<path fill="none" stroke="midnightblue" d="M577.282,-239.506C640.71,-233.254 746.719,-211.694 790,-138 815.863,-93.9635 727.229,-77.8856 679.064,-72.4862"/>
<polygon fill="midnightblue" stroke="midnightblue" points="576.752,-236.039 567.103,-240.414 577.374,-243.012 576.752,-236.039"/>
</g>
<!-- Node19&#45;&gt;Node10 -->
<g id="edge54" class="edge"><title>Node19&#45;&gt;Node10</title>
<path fill="none" stroke="midnightblue" d="M577.32,-240.871C626.855,-237.817 703.26,-227.771 761,-196 820.131,-163.464 834.121,-142.738 859,-80 866.887,-60.1103 867.638,-34.5723 867.389,-21.1621"/>
<polygon fill="midnightblue" stroke="midnightblue" points="576.969,-237.385 567.174,-241.422 577.349,-244.374 576.969,-237.385"/>
</g>
<!-- Node19&#45;&gt;Node11 -->
<g id="edge45" class="edge"><title>Node19&#45;&gt;Node11</title>
<path fill="none" stroke="midnightblue" d="M509.157,-225.856C482.318,-201.573 432.434,-156.441 411.101,-137.139"/>
<polygon fill="midnightblue" stroke="midnightblue" points="506.925,-228.557 516.689,-232.671 511.622,-223.366 506.925,-228.557"/>
</g>
<!-- Node19&#45;&gt;Node12 -->
<g id="edge46" class="edge"><title>Node19&#45;&gt;Node12</title>
<path fill="none" stroke="midnightblue" d="M518.786,-223.271C507.917,-198.491 489.182,-155.775 481.009,-137.139"/>
<polygon fill="midnightblue" stroke="midnightblue" points="515.686,-224.919 522.908,-232.671 522.097,-222.107 515.686,-224.919"/>
</g>
<!-- Node19&#45;&gt;Node13 -->
<g id="edge48" class="edge"><title>Node19&#45;&gt;Node13</title>
<path fill="none" stroke="midnightblue" d="M532.271,-223.076C536.076,-209.431 541.342,-190.574 546,-174 549.592,-161.217 553.772,-146.444 556.402,-137.162"/>
<polygon fill="midnightblue" stroke="midnightblue" points="528.886,-222.186 529.573,-232.759 535.629,-224.065 528.886,-222.186"/>
</g>
<!-- Node19&#45;&gt;Node14 -->
<g id="edge49" class="edge"><title>Node19&#45;&gt;Node14</title>
<path fill="none" stroke="midnightblue" d="M569.306,-229.944C594.621,-221.941 627.013,-210.287 654,-196 686.576,-178.754 720.613,-151.416 737.375,-137.228"/>
<polygon fill="midnightblue" stroke="midnightblue" points="568.148,-226.639 559.628,-232.936 570.215,-233.327 568.148,-226.639"/>
</g>
<!-- Node19&#45;&gt;Node15 -->
<g id="edge50" class="edge"><title>Node19&#45;&gt;Node15</title>
<path fill="none" stroke="midnightblue" d="M476.853,-238.797C411.365,-233.762 293.571,-221.777 196,-196 138.547,-180.821 74.3105,-151.802 43.477,-137.068"/>
<polygon fill="midnightblue" stroke="midnightblue" points="476.671,-242.293 486.903,-239.546 477.191,-235.312 476.671,-242.293"/>
</g>
<!-- Node19&#45;&gt;Node16 -->
<g id="edge51" class="edge"><title>Node19&#45;&gt;Node16</title>
<path fill="none" stroke="midnightblue" d="M476.746,-236.523C422.729,-229.895 334.691,-216.943 261,-196 204.72,-180.006 141.525,-151.616 110.8,-137.099"/>
<polygon fill="midnightblue" stroke="midnightblue" points="476.407,-240.007 486.753,-237.726 477.242,-233.058 476.407,-240.007"/>
</g>
<!-- Node19&#45;&gt;Node17 -->
<g id="edge52" class="edge"><title>Node19&#45;&gt;Node17</title>
<path fill="none" stroke="midnightblue" d="M476.677,-234.641C433.114,-227.436 368.824,-214.783 315,-196 268.347,-179.72 217.054,-151.458 192.191,-137.034"/>
<polygon fill="midnightblue" stroke="midnightblue" points="476.308,-238.127 486.739,-236.269 477.426,-231.217 476.308,-238.127"/>
</g>
<!-- Node19&#45;&gt;Node18 -->
<g id="edge53" class="edge"><title>Node19&#45;&gt;Node18</title>
<path fill="none" stroke="midnightblue" d="M476.705,-236.455C438.828,-230.616 386.657,-218.929 346,-196 318.751,-180.633 294.674,-151.7 283.544,-137.025"/>
<polygon fill="midnightblue" stroke="midnightblue" points="476.587,-239.975 486.987,-237.951 477.595,-233.048 476.587,-239.975"/>
</g>
<!-- Node19&#45;&gt;Node20 -->
<g id="edge32" class="edge"><title>Node19&#45;&gt;Node20</title>
<path fill="none" stroke="midnightblue" d="M545.289,-225.997C556.746,-215.972 571.095,-203.417 580.628,-195.075"/>
<polygon fill="midnightblue" stroke="midnightblue" points="542.789,-223.534 537.568,-232.753 547.399,-228.802 542.789,-223.534"/>
</g>
<!-- Node20&#45;&gt;Node7 -->
<g id="edge33" class="edge"><title>Node20&#45;&gt;Node7</title>
<path fill="none" stroke="midnightblue" d="M604.807,-166.818C612.694,-157.003 622.264,-145.093 628.707,-137.075"/>
<polygon fill="midnightblue" stroke="midnightblue" points="601.966,-164.765 598.431,-174.753 607.423,-169.15 601.966,-164.765"/>
</g>
<!-- Node20&#45;&gt;Node9 -->
<g id="edge36" class="edge"><title>Node20&#45;&gt;Node9</title>
<path fill="none" stroke="midnightblue" d="M628.866,-170.586C643.488,-163.336 658.676,-152.769 667,-138 677.755,-118.918 664.981,-93.0521 656.449,-79.3758"/>
<polygon fill="midnightblue" stroke="midnightblue" points="627.071,-167.558 619.416,-174.883 629.968,-173.93 627.071,-167.558"/>
</g>
<!-- Node20&#45;&gt;Node10 -->
<g id="edge44" class="edge"><title>Node20&#45;&gt;Node10</title>
<path fill="none" stroke="midnightblue" d="M637.344,-183.269C680.565,-180.432 744.961,-170.475 790,-138 832.837,-107.113 856.592,-44.347 864.238,-21.0073"/>
<polygon fill="midnightblue" stroke="midnightblue" points="636.9,-179.788 627.108,-183.834 637.285,-186.777 636.9,-179.788"/>
</g>
<!-- Node20&#45;&gt;Node11 -->
<g id="edge34" class="edge"><title>Node20&#45;&gt;Node11</title>
<path fill="none" stroke="midnightblue" d="M550.39,-172.031C514.575,-161.475 463.206,-146.335 430.995,-136.841"/>
<polygon fill="midnightblue" stroke="midnightblue" points="549.469,-175.408 560.05,-174.878 551.448,-168.694 549.469,-175.408"/>
</g>
<!-- Node20&#45;&gt;Node12 -->
<g id="edge35" class="edge"><title>Node20&#45;&gt;Node12</title>
<path fill="none" stroke="midnightblue" d="M563.343,-170.414C542.308,-160.081 513.942,-146.147 495.562,-137.118"/>
<polygon fill="midnightblue" stroke="midnightblue" points="561.911,-173.61 572.43,-174.878 564.998,-167.327 561.911,-173.61"/>
</g>
<!-- Node20&#45;&gt;Node13 -->
<g id="edge37" class="edge"><title>Node20&#45;&gt;Node13</title>
<path fill="none" stroke="midnightblue" d="M580.669,-165.92C575.163,-156.285 568.629,-144.85 564.186,-137.075"/>
<polygon fill="midnightblue" stroke="midnightblue" points="577.716,-167.807 585.716,-174.753 583.793,-164.334 577.716,-167.807"/>
</g>
<!-- Node20&#45;&gt;Node14 -->
<g id="edge38" class="edge"><title>Node20&#45;&gt;Node14</title>
<path fill="none" stroke="midnightblue" d="M626.026,-171.506C655.349,-161.048 696.491,-146.373 722.697,-137.025"/>
<polygon fill="midnightblue" stroke="midnightblue" points="624.817,-168.222 616.574,-174.878 627.169,-174.815 624.817,-168.222"/>
</g>
<!-- Node20&#45;&gt;Node15 -->
<g id="edge39" class="edge"><title>Node20&#45;&gt;Node15</title>
<path fill="none" stroke="midnightblue" d="M544.344,-181.112C432.675,-174.014 152.452,-155.049 60,-138 57.0169,-137.45 53.922,-136.755 50.8621,-135.988"/>
<polygon fill="midnightblue" stroke="midnightblue" points="544.411,-184.623 554.612,-181.761 544.853,-177.637 544.411,-184.623"/>
</g>
<!-- Node20&#45;&gt;Node16 -->
<g id="edge40" class="edge"><title>Node20&#45;&gt;Node16</title>
<path fill="none" stroke="midnightblue" d="M544.347,-180.626C442.624,-173.07 203.613,-154.183 124,-138 121.262,-137.443 118.426,-136.744 115.625,-135.975"/>
<polygon fill="midnightblue" stroke="midnightblue" points="544.387,-184.138 554.618,-181.385 544.903,-177.157 544.387,-184.138"/>
</g>
<!-- Node20&#45;&gt;Node17 -->
<g id="edge41" class="edge"><title>Node20&#45;&gt;Node17</title>
<path fill="none" stroke="midnightblue" d="M544.698,-178.996C475.886,-171.357 342.635,-155.786 230,-138 227.133,-137.547 224.183,-137.058 221.212,-136.546"/>
<polygon fill="midnightblue" stroke="midnightblue" points="544.451,-182.49 554.775,-180.109 545.22,-175.533 544.451,-182.49"/>
</g>
<!-- Node20&#45;&gt;Node18 -->
<g id="edge42" class="edge"><title>Node20&#45;&gt;Node18</title>
<path fill="none" stroke="midnightblue" d="M544.723,-175.747C482.403,-164.632 372.677,-145.063 314.951,-134.768"/>
<polygon fill="midnightblue" stroke="midnightblue" points="544.214,-179.211 554.673,-177.521 545.443,-172.32 544.214,-179.211"/>
</g>
<!-- Node20&#45;&gt;Node21 -->
<g id="edge43" class="edge"><title>Node20&#45;&gt;Node21</title>
<path fill="none" stroke="midnightblue" d="M637.247,-176.642C710.731,-164.952 852.1,-142.461 913.42,-132.706"/>
<polygon fill="midnightblue" stroke="midnightblue" points="636.67,-173.19 627.344,-178.218 637.77,-180.103 636.67,-173.19"/>
</g>
<!-- Node22&#45;&gt;Node10 -->
<g id="edge62" class="edge"><title>Node22&#45;&gt;Node10</title>
<path fill="none" stroke="midnightblue" d="M1068.54,-223.775C1064.79,-215.4 1060.45,-205.284 1057,-196 1034.6,-135.788 1059.4,-103.453 1014,-58 989.055,-33.0252 950.752,-21.5756 919.498,-16.3435"/>
<polygon fill="midnightblue" stroke="midnightblue" points="1065.39,-225.308 1072.72,-232.955 1071.76,-222.404 1065.39,-225.308"/>
</g>
<!-- Node22&#45;&gt;Node20 -->
<g id="edge56" class="edge"><title>Node22&#45;&gt;Node20</title>
<path fill="none" stroke="midnightblue" d="M1017.59,-235.155C915.618,-223.405 710.226,-199.738 627.125,-190.163"/>
<polygon fill="midnightblue" stroke="midnightblue" points="1017.39,-238.654 1027.73,-236.322 1018.19,-231.7 1017.39,-238.654"/>
</g>
<!-- Node22&#45;&gt;Node21 -->
<g id="edge61" class="edge"><title>Node22&#45;&gt;Node21</title>
<path fill="none" stroke="midnightblue" d="M1058.39,-226.169C1029.94,-201.963 976.528,-156.524 953.743,-137.139"/>
<polygon fill="midnightblue" stroke="midnightblue" points="1056.15,-228.857 1066.03,-232.671 1060.69,-223.525 1056.15,-228.857"/>
</g>
<!-- Node23 -->
<g id="node23" class="node"><title>Node23</title>
<g id="a_node23"><a xlink:href="info_8h.html" target="_top" xlink:title="Helper functions for manipulating RMF files. ">
<polygon fill="none" stroke="black" points="1065.77,-175 1065.77,-195 1106.23,-195 1106.23,-175 1065.77,-175"/>
<text text-anchor="middle" x="1086" y="-181" font-family="Helvetica,sans-Serif" font-size="10.00">info.h</text>
</a>
</g>
</g>
<!-- Node22&#45;&gt;Node23 -->
<g id="edge57" class="edge"><title>Node22&#45;&gt;Node23</title>
<path fill="none" stroke="midnightblue" d="M1080.1,-222.707C1081.61,-213.338 1083.34,-202.526 1084.54,-195.075"/>
<polygon fill="midnightblue" stroke="midnightblue" points="1076.62,-222.324 1078.49,-232.753 1083.53,-223.435 1076.62,-222.324"/>
</g>
<!-- Node24 -->
<g id="node24" class="node"><title>Node24</title>
<g id="a_node24"><a xlink:href="RestoreCurrentFrame_8h.html" target="_top" xlink:title="Handle read/write of Model data from/to files. ">
<polygon fill="none" stroke="black" points="1124.2,-175 1124.2,-195 1245.8,-195 1245.8,-175 1124.2,-175"/>
<text text-anchor="middle" x="1185" y="-181" font-family="Helvetica,sans-Serif" font-size="10.00">RestoreCurrentFrame.h</text>
</a>
</g>
</g>
<!-- Node22&#45;&gt;Node24 -->
<g id="edge58" class="edge"><title>Node22&#45;&gt;Node24</title>
<path fill="none" stroke="midnightblue" d="M1103.72,-228.144C1123.63,-217.823 1150.24,-204.025 1167.5,-195.075"/>
<polygon fill="midnightblue" stroke="midnightblue" points="1102.1,-225.042 1094.83,-232.753 1105.32,-231.257 1102.1,-225.042"/>
</g>
<!-- Node25 -->
<g id="node25" class="node"><title>Node25</title>
<g id="a_node25"><a xlink:href="SetCurrentFrame_8h.html" target="_top" xlink:title="Handle read/write of Model data from/to files. ">
<polygon fill="none" stroke="black" points="1264.21,-175 1264.21,-195 1365.79,-195 1365.79,-175 1264.21,-175"/>
<text text-anchor="middle" x="1315" y="-181" font-family="Helvetica,sans-Serif" font-size="10.00">SetCurrentFrame.h</text>
</a>
</g>
</g>
<!-- Node22&#45;&gt;Node25 -->
<g id="edge59" class="edge"><title>Node22&#45;&gt;Node25</title>
<path fill="none" stroke="midnightblue" d="M1125.25,-230.647C1169.88,-220.145 1235.36,-204.74 1276.55,-195.047"/>
<polygon fill="midnightblue" stroke="midnightblue" points="1124.44,-227.243 1115.5,-232.94 1126.04,-234.057 1124.44,-227.243"/>
</g>
<!-- Node26 -->
<g id="node26" class="node"><title>Node26</title>
<g id="a_node26"><a xlink:href="signature_8h.html" target="_top" xlink:title="Helper functions for manipulating RMF files. ">
<polygon fill="none" stroke="black" points="1384.26,-175 1384.26,-195 1449.74,-195 1449.74,-175 1384.26,-175"/>
<text text-anchor="middle" x="1417" y="-181" font-family="Helvetica,sans-Serif" font-size="10.00">signature.h</text>
</a>
</g>
</g>
<!-- Node22&#45;&gt;Node26 -->
<g id="edge60" class="edge"><title>Node22&#45;&gt;Node26</title>
<path fill="none" stroke="midnightblue" d="M1136.4,-234.133C1196.52,-225.859 1292.04,-211.854 1374,-196 1377.31,-195.36 1380.75,-194.644 1384.19,-193.898"/>
<polygon fill="midnightblue" stroke="midnightblue" points="1135.77,-230.688 1126.33,-235.511 1136.71,-237.623 1135.77,-230.688"/>
</g>
</g>
</svg>
        <g id="navigator" transform="translate(0 0)" fill="#404254">
                <rect fill="#f2f5e9" fill-opacity="0.5" stroke="#606060" stroke-width=".5" x="0" y="0" width="60" height="60"/>
                <use id="zoomplus" xlink:href="#zoomPlus" x="17" y="9" onmousedown="handleZoom(evt,'in')"/>
                <use id="zoomminus" xlink:href="#zoomMin" x="42" y="9" onmousedown="handleZoom(evt,'out')"/>
                <use id="reset" xlink:href="#resetDef" x="30" y="36" onmousedown="handleReset()"/>
                <g id="arrowUp" xlink:href="#dirArrow" transform="translate(30 24)" onmousedown="handlePan(0,-1)">
                  <use xlink:href="#rim" fill="#404040">
                        <set attributeName="fill" to="#808080" begin="arrowUp.mouseover" end="arrowUp.mouseout"/>
                  </use>
                  <path fill="none" stroke="white" stroke-width="1.5" d="M0,-3.0v7 M-2.5,-0.5L0,-3.0L2.5,-0.5"/>
                </g>
                <g id="arrowRight" xlink:href="#dirArrow" transform="rotate(90) translate(36 -43)" onmousedown="handlePan(1,0)">
                  <use xlink:href="#rim" fill="#404040">
                        <set attributeName="fill" to="#808080" begin="arrowRight.mouseover" end="arrowRight.mouseout"/>
                  </use>
                  <path fill="none" stroke="white" stroke-width="1.5" d="M0,-3.0v7 M-2.5,-0.5L0,-3.0L2.5,-0.5"/>
                </g>
                <g id="arrowDown" xlink:href="#dirArrow" transform="rotate(180) translate(-30 -48)" onmousedown="handlePan(0,1)">
                  <use xlink:href="#rim" fill="#404040">
                        <set attributeName="fill" to="#808080" begin="arrowDown.mouseover" end="arrowDown.mouseout"/>
                  </use>
                  <path fill="none" stroke="white" stroke-width="1.5" d="M0,-3.0v7 M-2.5,-0.5L0,-3.0L2.5,-0.5"/>
                </g>
                <g id="arrowLeft" xlink:href="#dirArrow" transform="rotate(270) translate(-36 17)" onmousedown="handlePan(-1,0)">
                  <use xlink:href="#rim" fill="#404040">
                        <set attributeName="fill" to="#808080" begin="arrowLeft.mouseover" end="arrowLeft.mouseout"/>
                  </use>
                  <path fill="none" stroke="white" stroke-width="1.5" d="M0,-3.0v7 M-2.5,-0.5L0,-3.0L2.5,-0.5"/>
                </g>
        </g>
        <svg viewBox="0 0 15 15" width="100%" height="30px" preserveAspectRatio="xMaxYMin meet">
         <g id="arrow_out" transform="scale(0.3 0.3)">
          <a xlink:href="default__types_8h__dep__incl_org.svg" target="_base">
           <rect id="button" ry="5" rx="5" y="6" x="6" height="38" width="38"
                fill="#f2f5e9" fill-opacity="0.5" stroke="#606060" stroke-width="1.0"/>
           <path id="arrow"
             d="M 11.500037,31.436501 C 11.940474,20.09759 22.043105,11.32322 32.158766,21.979434 L 37.068811,17.246167 C 37.068811,17.246167 37.088388,32 37.088388,32 L 22.160133,31.978069 C 22.160133,31.978069 26.997745,27.140456 26.997745,27.140456 C 18.528582,18.264221 13.291696,25.230495 11.500037,31.436501 z"
             style="fill:#404040;"/>
          </a>
         </g>
        </svg>
</svg>
