<?xml version="1.0" encoding="UTF-8" standalone="no"?>
<!DOCTYPE svg PUBLIC "-//W3C//DTD SVG 1.1//EN"
 "http://www.w3.org/Graphics/SVG/1.1/DTD/svg11.dtd">
<!-- Generated by graphviz version 2.34.0 (20131025.1349)
 -->
<!-- Title: default_types.h Pages: 1 -->
<svg width="1730pt" height="274pt"
 viewBox="0.00 0.00 1729.69 274.00" xmlns="http://www.w3.org/2000/svg" xmlns:xlink="http://www.w3.org/1999/xlink">
<g id="graph0" class="graph" transform="scale(1 1) rotate(0) translate(4 270)">
<title>default_types.h</title>
<!-- Node1 -->
<g id="node1" class="node"><title>Node1</title>
<polygon fill="#bfbfbf" stroke="black" points="1433.09,-245 1433.09,-265 1516.91,-265 1516.91,-245 1433.09,-245"/>
<text text-anchor="middle" x="1475" y="-251" font-family="Helvetica,sans-Serif" font-size="10.00">default_types.h</text>
</g>
<!-- Node2 -->
<g id="node2" class="node"><title>Node2</title>
<g id="a_node2"><a xlink:href="config_8h_source.html" target="_top" xlink:title="RMF/config.h">
<polygon fill="none" stroke="black" points="1139.27,-59 1139.27,-79 1214.73,-79 1214.73,-59 1139.27,-59"/>
<text text-anchor="middle" x="1177" y="-65" font-family="Helvetica,sans-Serif" font-size="10.00">RMF/config.h</text>
</a>
</g>
</g>
<!-- Node1&#45;&gt;Node2 -->
<g id="edge1" class="edge"><title>Node1&#45;&gt;Node2</title>
<path fill="none" stroke="midnightblue" d="M1517.03,-246.135C1599.75,-228.955 1770.44,-184.085 1708,-116 1675.68,-80.7617 1349.41,-72.4391 1224.92,-70.5404"/>
<polygon fill="midnightblue" stroke="midnightblue" points="1224.96,-67.0407 1214.91,-70.395 1224.86,-74.0399 1224.96,-67.0407"/>
</g>
<!-- Node4 -->
<g id="node4" class="node"><title>Node4</title>
<g id="a_node4"><a xlink:href="Vector_8h.html" target="_top" xlink:title="Represent coordinates. ">
<polygon fill="none" stroke="black" points="1195.93,-187 1195.93,-207 1248.07,-207 1248.07,-187 1195.93,-187"/>
<text text-anchor="middle" x="1222" y="-193" font-family="Helvetica,sans-Serif" font-size="10.00">Vector.h</text>
</a>
</g>
</g>
<!-- Node1&#45;&gt;Node4 -->
<g id="edge3" class="edge"><title>Node1&#45;&gt;Node4</title>
<path fill="none" stroke="midnightblue" d="M1434.07,-244.94C1385.31,-234.148 1304.63,-216.289 1258.1,-205.991"/>
<polygon fill="midnightblue" stroke="midnightblue" points="1258.68,-202.534 1248.16,-203.791 1257.17,-209.369 1258.68,-202.534"/>
</g>
<!-- Node3 -->
<g id="node3" class="node"><title>Node3</title>
<g id="a_node3"><a xlink:href="compiler__macros_8h.html" target="_top" xlink:title="Various compiler workarounds. ">
<polygon fill="none" stroke="black" points="674.544,-1 674.544,-21 799.456,-21 799.456,-1 674.544,-1"/>
<text text-anchor="middle" x="737" y="-7" font-family="Helvetica,sans-Serif" font-size="10.00">RMF/compiler_macros.h</text>
</a>
</g>
</g>
<!-- Node2&#45;&gt;Node3 -->
<g id="edge2" class="edge"><title>Node2&#45;&gt;Node3</title>
<path fill="none" stroke="midnightblue" d="M1139.09,-59.618C1136.02,-59.0358 1132.96,-58.4876 1130,-58 1018.91,-39.721 888.985,-25.993 809.873,-18.4807"/>
<polygon fill="midnightblue" stroke="midnightblue" points="809.815,-14.9598 799.531,-17.5066 809.159,-21.929 809.815,-14.9598"/>
</g>
<!-- Node4&#45;&gt;Node2 -->
<g id="edge4" class="edge"><title>Node4&#45;&gt;Node2</title>
<path fill="none" stroke="midnightblue" d="M1195.83,-196.399C1126.53,-196.841 940.962,-193.829 903,-150 792.84,-22.816 698.679,-158.216 1129.13,-80.0737"/>
<polygon fill="midnightblue" stroke="midnightblue" points="1129.87,-83.4971 1139.07,-78.2485 1128.6,-76.6122 1129.87,-83.4971"/>
</g>
<!-- Node5 -->
<g id="node5" class="node"><title>Node5</title>
<g id="a_node5"><a xlink:href="infrastructure__macros_8h.html" target="_top" xlink:title="Various general useful macros for IMP. ">
<polygon fill="none" stroke="black" points="364.48,-123 364.48,-143 485.52,-143 485.52,-123 364.48,-123"/>
<text text-anchor="middle" x="425" y="-129" font-family="Helvetica,sans-Serif" font-size="10.00">infrastructure_macros.h</text>
</a>
</g>
</g>
<!-- Node4&#45;&gt;Node5 -->
<g id="edge5" class="edge"><title>Node4&#45;&gt;Node5</title>
<path fill="none" stroke="midnightblue" d="M1195.48,-193.937C1085.7,-185.397 664.671,-152.644 495.74,-139.503"/>
<polygon fill="midnightblue" stroke="midnightblue" points="495.949,-136.009 485.707,-138.723 495.406,-142.988 495.949,-136.009"/>
</g>
<!-- Node14 -->
<g id="node14" class="node"><title>Node14</title>
<g id="a_node14"><a xlink:href="exceptions_8h.html" target="_top" xlink:title="Various general useful macros for IMP. ">
<polygon fill="none" stroke="black" points="783.926,-123 783.926,-143 856.074,-143 856.074,-123 783.926,-123"/>
<text text-anchor="middle" x="820" y="-129" font-family="Helvetica,sans-Serif" font-size="10.00">exceptions.h</text>
</a>
</g>
</g>
<!-- Node4&#45;&gt;Node14 -->
<g id="edge15" class="edge"><title>Node4&#45;&gt;Node14</title>
<path fill="none" stroke="midnightblue" d="M1195.67,-194.185C1136.74,-189.77 989.995,-176.811 870,-150 865.141,-148.914 860.079,-147.564 855.122,-146.11"/>
<polygon fill="midnightblue" stroke="midnightblue" points="855.781,-142.65 845.194,-143.035 853.71,-149.337 855.781,-142.65"/>
</g>
<!-- Node18 -->
<g id="node18" class="node"><title>Node18</title>
<polygon fill="none" stroke="#bfbfbf" points="912.237,-123 912.237,-143 1027.76,-143 1027.76,-123 912.237,-123"/>
<text text-anchor="middle" x="970" y="-129" font-family="Helvetica,sans-Serif" font-size="10.00">boost/range/begin.hpp</text>
</g>
<!-- Node4&#45;&gt;Node18 -->
<g id="edge22" class="edge"><title>Node4&#45;&gt;Node18</title>
<path fill="none" stroke="midnightblue" d="M1195.51,-189.482C1153.01,-179.026 1069.04,-158.366 1016.42,-145.42"/>
<polygon fill="midnightblue" stroke="midnightblue" points="1017.2,-142.008 1006.65,-143.018 1015.53,-148.806 1017.2,-142.008"/>
</g>
<!-- Node19 -->
<g id="node19" class="node"><title>Node19</title>
<polygon fill="none" stroke="#bfbfbf" points="1046.13,-123 1046.13,-143 1153.87,-143 1153.87,-123 1046.13,-123"/>
<text text-anchor="middle" x="1100" y="-129" font-family="Helvetica,sans-Serif" font-size="10.00">boost/range/end.hpp</text>
</g>
<!-- Node4&#45;&gt;Node19 -->
<g id="edge23" class="edge"><title>Node4&#45;&gt;Node19</title>
<path fill="none" stroke="midnightblue" d="M1204.26,-186.985C1183.93,-176.653 1150.39,-159.61 1126.86,-147.65"/>
<polygon fill="midnightblue" stroke="midnightblue" points="1128.26,-144.437 1117.76,-143.026 1125.09,-150.677 1128.26,-144.437"/>
</g>
<!-- Node20 -->
<g id="node20" class="node"><title>Node20</title>
<polygon fill="none" stroke="#bfbfbf" points="1172.31,-117 1172.31,-149 1271.69,-149 1271.69,-117 1172.31,-117"/>
<text text-anchor="start" x="1180.31" y="-135" font-family="Helvetica,sans-Serif" font-size="10.00">boost/type_traits/is</text>
<text text-anchor="middle" x="1222" y="-123" font-family="Helvetica,sans-Serif" font-size="10.00">_convertible.hpp</text>
</g>
<!-- Node4&#45;&gt;Node20 -->
<g id="edge24" class="edge"><title>Node4&#45;&gt;Node20</title>
<path fill="none" stroke="midnightblue" d="M1222,-186.852C1222,-179.629 1222,-169.185 1222,-159.486"/>
<polygon fill="midnightblue" stroke="midnightblue" points="1225.5,-159.44 1222,-149.44 1218.5,-159.44 1225.5,-159.44"/>
</g>
<!-- Node21 -->
<g id="node21" class="node"><title>Node21</title>
<polygon fill="none" stroke="#bfbfbf" points="1289.25,-123 1289.25,-143 1384.75,-143 1384.75,-123 1289.25,-123"/>
<text text-anchor="middle" x="1337" y="-129" font-family="Helvetica,sans-Serif" font-size="10.00">boost/mpl/not.hpp</text>
</g>
<!-- Node4&#45;&gt;Node21 -->
<g id="edge25" class="edge"><title>Node4&#45;&gt;Node21</title>
<path fill="none" stroke="midnightblue" d="M1238.97,-186.852C1257.99,-176.595 1289.06,-159.844 1311.12,-147.952"/>
<polygon fill="midnightblue" stroke="midnightblue" points="1312.82,-151.012 1319.96,-143.186 1309.5,-144.851 1312.82,-151.012"/>
</g>
<!-- Node22 -->
<g id="node22" class="node"><title>Node22</title>
<polygon fill="none" stroke="#bfbfbf" points="1402.62,-123 1402.62,-143 1487.38,-143 1487.38,-123 1402.62,-123"/>
<text text-anchor="middle" x="1445" y="-129" font-family="Helvetica,sans-Serif" font-size="10.00">boost/array.hpp</text>
</g>
<!-- Node4&#45;&gt;Node22 -->
<g id="edge26" class="edge"><title>Node4&#45;&gt;Node22</title>
<path fill="none" stroke="midnightblue" d="M1248.15,-189.275C1281.77,-180.559 1341.9,-164.731 1393,-150 1397.36,-148.745 1401.9,-147.398 1406.42,-146.038"/>
<polygon fill="midnightblue" stroke="midnightblue" points="1407.63,-149.33 1416.17,-143.07 1405.59,-142.633 1407.63,-149.33"/>
</g>
<!-- Node23 -->
<g id="node23" class="node"><title>Node23</title>
<polygon fill="none" stroke="#bfbfbf" points="1505.58,-123 1505.58,-143 1624.42,-143 1624.42,-123 1505.58,-123"/>
<text text-anchor="middle" x="1565" y="-129" font-family="Helvetica,sans-Serif" font-size="10.00">boost/static_assert.hpp</text>
</g>
<!-- Node4&#45;&gt;Node23 -->
<g id="edge27" class="edge"><title>Node4&#45;&gt;Node23</title>
<path fill="none" stroke="midnightblue" d="M1248.17,-192.156C1297.03,-184.855 1405.42,-168.088 1496,-150 1503.13,-148.576 1510.65,-146.957 1517.99,-145.308"/>
<polygon fill="midnightblue" stroke="midnightblue" points="1518.88,-148.695 1527.85,-143.057 1517.32,-141.871 1518.88,-148.695"/>
</g>
<!-- Node24 -->
<g id="node24" class="node"><title>Node24</title>
<polygon fill="none" stroke="#bfbfbf" points="1642.44,-123 1642.44,-143 1699.56,-143 1699.56,-123 1642.44,-123"/>
<text text-anchor="middle" x="1671" y="-129" font-family="Helvetica,sans-Serif" font-size="10.00">algorithm</text>
</g>
<!-- Node4&#45;&gt;Node24 -->
<g id="edge28" class="edge"><title>Node4&#45;&gt;Node24</title>
<path fill="none" stroke="midnightblue" d="M1248.44,-195.65C1314.43,-194.22 1491.26,-186.945 1633,-150 1636.26,-149.151 1639.6,-148.075 1642.88,-146.883"/>
<polygon fill="midnightblue" stroke="midnightblue" points="1644.44,-150.03 1652.43,-143.074 1641.84,-143.529 1644.44,-150.03"/>
</g>
<!-- Node5&#45;&gt;Node3 -->
<g id="edge9" class="edge"><title>Node5&#45;&gt;Node3</title>
<path fill="none" stroke="midnightblue" d="M473.316,-122.999C513.734,-114.576 572.417,-100.242 621,-80 625.805,-77.998 680.241,-45.7664 712.805,-26.4077"/>
<polygon fill="midnightblue" stroke="midnightblue" points="714.936,-29.213 721.741,-21.0926 711.357,-23.1969 714.936,-29.213"/>
</g>
<!-- Node6 -->
<g id="node6" class="node"><title>Node6</title>
<polygon fill="none" stroke="#bfbfbf" points="287.219,-59 287.219,-79 338.781,-79 338.781,-59 287.219,-59"/>
<text text-anchor="middle" x="313" y="-65" font-family="Helvetica,sans-Serif" font-size="10.00">sstream</text>
</g>
<!-- Node5&#45;&gt;Node6 -->
<g id="edge6" class="edge"><title>Node5&#45;&gt;Node6</title>
<path fill="none" stroke="midnightblue" d="M408.474,-122.852C390.028,-112.641 359.957,-95.9938 338.492,-84.1116"/>
<polygon fill="midnightblue" stroke="midnightblue" points="340.038,-80.9669 329.594,-79.1858 336.648,-87.0912 340.038,-80.9669"/>
</g>
<!-- Node7 -->
<g id="node7" class="node"><title>Node7</title>
<polygon fill="none" stroke="#bfbfbf" points="356.828,-59 356.828,-79 411.172,-79 411.172,-59 356.828,-59"/>
<text text-anchor="middle" x="384" y="-65" font-family="Helvetica,sans-Serif" font-size="10.00">iostream</text>
</g>
<!-- Node5&#45;&gt;Node7 -->
<g id="edge7" class="edge"><title>Node5&#45;&gt;Node7</title>
<path fill="none" stroke="midnightblue" d="M418.95,-122.852C412.834,-113.602 403.225,-99.072 395.629,-87.5859"/>
<polygon fill="midnightblue" stroke="midnightblue" points="398.51,-85.5964 390.075,-79.1858 392.671,-89.4576 398.51,-85.5964"/>
</g>
<!-- Node8 -->
<g id="node8" class="node"><title>Node8</title>
<polygon fill="none" stroke="#bfbfbf" points="668.773,-59 668.773,-79 709.227,-79 709.227,-59 668.773,-59"/>
<text text-anchor="middle" x="689" y="-65" font-family="Helvetica,sans-Serif" font-size="10.00">string</text>
</g>
<!-- Node5&#45;&gt;Node8 -->
<g id="edge8" class="edge"><title>Node5&#45;&gt;Node8</title>
<path fill="none" stroke="midnightblue" d="M468.865,-122.952C515.294,-113.172 590.613,-96.7291 655,-80 656.239,-79.678 657.502,-79.3422 658.776,-78.9971"/>
<polygon fill="midnightblue" stroke="midnightblue" points="659.886,-82.3207 668.562,-76.2402 657.988,-75.5829 659.886,-82.3207"/>
</g>
<!-- Node9 -->
<g id="node9" class="node"><title>Node9</title>
<polygon fill="none" stroke="#bfbfbf" points="428.98,-59 428.98,-79 505.02,-79 505.02,-59 428.98,-59"/>
<text text-anchor="middle" x="467" y="-65" font-family="Helvetica,sans-Serif" font-size="10.00">internal/use.h</text>
</g>
<!-- Node5&#45;&gt;Node9 -->
<g id="edge10" class="edge"><title>Node5&#45;&gt;Node9</title>
<path fill="none" stroke="midnightblue" d="M431.197,-122.852C437.463,-113.602 447.306,-99.072 455.087,-87.5859"/>
<polygon fill="midnightblue" stroke="midnightblue" points="458.067,-89.428 460.777,-79.1858 452.271,-85.5021 458.067,-89.428"/>
</g>
<!-- Node10 -->
<g id="node10" class="node"><title>Node10</title>
<polygon fill="none" stroke="#bfbfbf" points="523.306,-59 523.306,-79 612.694,-79 612.694,-59 523.306,-59"/>
<text text-anchor="middle" x="568" y="-65" font-family="Helvetica,sans-Serif" font-size="10.00">boost/config.hpp</text>
</g>
<!-- Node5&#45;&gt;Node10 -->
<g id="edge11" class="edge"><title>Node5&#45;&gt;Node10</title>
<path fill="none" stroke="midnightblue" d="M445.793,-122.985C470.046,-112.47 510.334,-95.002 537.978,-83.0166"/>
<polygon fill="midnightblue" stroke="midnightblue" points="539.399,-86.2153 547.181,-79.0262 536.614,-79.793 539.399,-86.2153"/>
</g>
<!-- Node11 -->
<g id="node11" class="node"><title>Node11</title>
<polygon fill="none" stroke="#bfbfbf" points="-0.470215,-59 -0.470215,-79 94.4702,-79 94.4702,-59 -0.470215,-59"/>
<text text-anchor="middle" x="47" y="-65" font-family="Helvetica,sans-Serif" font-size="10.00">boost/version.hpp</text>
</g>
<!-- Node5&#45;&gt;Node11 -->
<g id="edge12" class="edge"><title>Node5&#45;&gt;Node11</title>
<path fill="none" stroke="midnightblue" d="M367.367,-122.988C305.042,-113.176 202.484,-96.8383 104.705,-80.2717"/>
<polygon fill="midnightblue" stroke="midnightblue" points="105.094,-76.7878 94.6495,-78.5643 103.922,-83.689 105.094,-76.7878"/>
</g>
<!-- Node12 -->
<g id="node12" class="node"><title>Node12</title>
<polygon fill="none" stroke="#bfbfbf" points="111.971,-59 111.971,-79 208.029,-79 208.029,-59 111.971,-59"/>
<text text-anchor="middle" x="160" y="-65" font-family="Helvetica,sans-Serif" font-size="10.00">boost/foreach.hpp</text>
</g>
<!-- Node5&#45;&gt;Node12 -->
<g id="edge13" class="edge"><title>Node5&#45;&gt;Node12</title>
<path fill="none" stroke="midnightblue" d="M386.467,-122.985C339.365,-111.965 259.622,-93.3078 208.421,-81.3288"/>
<polygon fill="midnightblue" stroke="midnightblue" points="209.114,-77.8964 198.58,-79.0262 207.519,-84.7124 209.114,-77.8964"/>
</g>
<!-- Node13 -->
<g id="node13" class="node"><title>Node13</title>
<polygon fill="none" stroke="#bfbfbf" points="226.384,-59 226.384,-79 269.616,-79 269.616,-59 226.384,-59"/>
<text text-anchor="middle" x="248" y="-65" font-family="Helvetica,sans-Serif" font-size="10.00">vector</text>
</g>
<!-- Node5&#45;&gt;Node13 -->
<g id="edge14" class="edge"><title>Node5&#45;&gt;Node13</title>
<path fill="none" stroke="midnightblue" d="M399.263,-122.985C367.498,-111.858 313.508,-92.9464 279.355,-80.9832"/>
<polygon fill="midnightblue" stroke="midnightblue" points="280.457,-77.6605 269.862,-77.6578 278.142,-84.267 280.457,-77.6605"/>
</g>
<!-- Node14&#45;&gt;Node2 -->
<g id="edge19" class="edge"><title>Node14&#45;&gt;Node2</title>
<path fill="none" stroke="midnightblue" d="M845.459,-122.92C853.257,-120.393 861.913,-117.839 870,-116 980.642,-90.8345 1013.32,-99.6304 1129.11,-80.0343"/>
<polygon fill="midnightblue" stroke="midnightblue" points="1129.82,-83.4639 1139.08,-78.3129 1128.63,-76.5661 1129.82,-83.4639"/>
</g>
<!-- Node14&#45;&gt;Node3 -->
<g id="edge20" class="edge"><title>Node14&#45;&gt;Node3</title>
<path fill="none" stroke="midnightblue" d="M803.939,-122.944C789.334,-113.9 768.248,-98.6754 756,-80 746.346,-65.2801 741.544,-45.6761 739.189,-31.3"/>
<polygon fill="midnightblue" stroke="midnightblue" points="742.613,-30.5118 737.778,-21.0846 735.679,-31.4693 742.613,-30.5118"/>
</g>
<!-- Node14&#45;&gt;Node8 -->
<g id="edge18" class="edge"><title>Node14&#45;&gt;Node8</title>
<path fill="none" stroke="midnightblue" d="M800.951,-122.985C778.928,-112.561 742.47,-95.3066 717.169,-83.3319"/>
<polygon fill="midnightblue" stroke="midnightblue" points="718.608,-80.1406 708.072,-79.0262 715.613,-86.4677 718.608,-80.1406"/>
</g>
<!-- Node15 -->
<g id="node15" class="node"><title>Node15</title>
<polygon fill="none" stroke="#bfbfbf" points="893.451,-59 893.451,-79 1044.55,-79 1044.55,-59 893.451,-59"/>
<text text-anchor="middle" x="969" y="-65" font-family="Helvetica,sans-Serif" font-size="10.00">boost/exception/exception.hpp</text>
</g>
<!-- Node14&#45;&gt;Node15 -->
<g id="edge16" class="edge"><title>Node14&#45;&gt;Node15</title>
<path fill="none" stroke="midnightblue" d="M841.666,-122.985C866.936,-112.47 908.915,-95.002 937.718,-83.0166"/>
<polygon fill="midnightblue" stroke="midnightblue" points="939.42,-86.0994 947.308,-79.0262 936.731,-79.6366 939.42,-86.0994"/>
</g>
<!-- Node16 -->
<g id="node16" class="node"><title>Node16</title>
<polygon fill="none" stroke="#bfbfbf" points="1062.6,-59 1062.6,-79 1121.4,-79 1121.4,-59 1062.6,-59"/>
<text text-anchor="middle" x="1092" y="-65" font-family="Helvetica,sans-Serif" font-size="10.00">exception</text>
</g>
<!-- Node14&#45;&gt;Node16 -->
<g id="edge17" class="edge"><title>Node14&#45;&gt;Node16</title>
<path fill="none" stroke="midnightblue" d="M846.302,-122.956C853.897,-120.515 862.233,-118 870,-116 947.139,-96.1411 970.355,-98.1058 1051.98,-80.1141"/>
<polygon fill="midnightblue" stroke="midnightblue" points="1053.24,-83.4192 1062.23,-77.8183 1051.71,-76.5884 1053.24,-83.4192"/>
</g>
<!-- Node17 -->
<g id="node17" class="node"><title>Node17</title>
<polygon fill="none" stroke="#bfbfbf" points="764.766,-59 764.766,-79 875.234,-79 875.234,-59 764.766,-59"/>
<text text-anchor="middle" x="820" y="-65" font-family="Helvetica,sans-Serif" font-size="10.00">RMF/internal/errors.h</text>
</g>
<!-- Node14&#45;&gt;Node17 -->
<g id="edge21" class="edge"><title>Node14&#45;&gt;Node17</title>
<path fill="none" stroke="midnightblue" d="M820,-122.852C820,-114.06 820,-100.498 820,-89.3131"/>
<polygon fill="midnightblue" stroke="midnightblue" points="823.5,-89.1858 820,-79.1858 816.5,-89.1859 823.5,-89.1858"/>
</g>
</g>
</svg>
