<?xml version="1.0" encoding="UTF-8" standalone="no"?>
<!DOCTYPE svg PUBLIC "-//W3C//DTD SVG 1.1//EN"
 "http://www.w3.org/Graphics/SVG/1.1/DTD/svg11.dtd">
<!-- Generated by graphviz version 2.34.0 (20131025.1349)
 -->
<!-- Title: default_types.h Pages: 1 -->
<svg width="1248pt" height="262pt"
 viewBox="0.00 0.00 1248.20 262.00" xmlns="http://www.w3.org/2000/svg" xmlns:xlink="http://www.w3.org/1999/xlink">
<g id="graph0" class="graph" transform="scale(1 1) rotate(0) translate(4 258)">
<title>default_types.h</title>
<!-- Node1 -->
<g id="node1" class="node"><title>Node1</title>
<polygon fill="#bfbfbf" stroke="black" points="1071.09,-233 1071.09,-253 1154.91,-253 1154.91,-233 1071.09,-233"/>
<text text-anchor="middle" x="1113" y="-239" font-family="Helvetica,sans-Serif" font-size="10.00">default_types.h</text>
</g>
<!-- Node2 -->
<g id="node2" class="node"><title>Node2</title>
<g id="a_node2"><a xlink:href="config_8h_source.html" target="_top" xlink:title="RMF/config.h">
<polygon fill="none" stroke="black" points="1139.27,-59 1139.27,-79 1214.73,-79 1214.73,-59 1139.27,-59"/>
<text text-anchor="middle" x="1177" y="-65" font-family="Helvetica,sans-Serif" font-size="10.00">RMF/config.h</text>
</a>
</g>
</g>
<!-- Node1&#45;&gt;Node2 -->
<g id="edge1" class="edge"><title>Node1&#45;&gt;Node2</title>
<path fill="none" stroke="midnightblue" d="M1132.2,-232.82C1161.24,-217.719 1215.26,-184.598 1237,-138 1241.13,-129.139 1241.33,-124.769 1237,-116 1230.38,-102.587 1217.77,-92.0002 1205.81,-84.3817"/>
<polygon fill="midnightblue" stroke="midnightblue" points="1207.29,-81.1938 1196.9,-79.1367 1203.74,-87.2261 1207.29,-81.1938"/>
</g>
<!-- Node4 -->
<g id="node4" class="node"><title>Node4</title>
<g id="a_node4"><a xlink:href="Vector_8h.html" target="_top" xlink:title="Represent coordinates. ">
<polygon fill="none" stroke="black" points="943.926,-175 943.926,-195 996.074,-195 996.074,-175 943.926,-175"/>
<text text-anchor="middle" x="970" y="-181" font-family="Helvetica,sans-Serif" font-size="10.00">Vector.h</text>
</a>
</g>
</g>
<!-- Node1&#45;&gt;Node4 -->
<g id="edge3" class="edge"><title>Node1&#45;&gt;Node4</title>
<path fill="none" stroke="midnightblue" d="M1089.71,-232.878C1066.13,-223.644 1029.45,-209.283 1002.91,-198.889"/>
<polygon fill="midnightblue" stroke="midnightblue" points="1003.87,-195.506 993.284,-195.118 1001.32,-202.024 1003.87,-195.506"/>
</g>
<!-- Node3 -->
<g id="node3" class="node"><title>Node3</title>
<g id="a_node3"><a xlink:href="compiler__macros_8h.html" target="_top" xlink:title="Various compiler workarounds. ">
<polygon fill="none" stroke="black" points="674.544,-1 674.544,-21 799.456,-21 799.456,-1 674.544,-1"/>
<text text-anchor="middle" x="737" y="-7" font-family="Helvetica,sans-Serif" font-size="10.00">RMF/compiler_macros.h</text>
</a>
</g>
</g>
<!-- Node2&#45;&gt;Node3 -->
<g id="edge2" class="edge"><title>Node2&#45;&gt;Node3</title>
<path fill="none" stroke="midnightblue" d="M1139.09,-59.618C1136.02,-59.0358 1132.96,-58.4876 1130,-58 1018.91,-39.721 888.985,-25.993 809.873,-18.4807"/>
<polygon fill="midnightblue" stroke="midnightblue" points="809.815,-14.9598 799.531,-17.5066 809.159,-21.929 809.815,-14.9598"/>
</g>
<!-- Node4&#45;&gt;Node2 -->
<g id="edge4" class="edge"><title>Node4&#45;&gt;Node2</title>
<path fill="none" stroke="midnightblue" d="M949.355,-174.943C923.272,-162.275 883.951,-138.308 903,-116 934.418,-79.2073 1064.94,-88.1772 1129.01,-79.8168"/>
<polygon fill="midnightblue" stroke="midnightblue" points="1129.73,-83.2479 1139.07,-78.2485 1128.65,-76.3315 1129.73,-83.2479"/>
</g>
<!-- Node5 -->
<g id="node5" class="node"><title>Node5</title>
<g id="a_node5"><a xlink:href="infrastructure__macros_8h.html" target="_top" xlink:title="Various general useful macros for IMP. ">
<polygon fill="none" stroke="black" points="364.48,-117 364.48,-137 485.52,-137 485.52,-117 364.48,-117"/>
<text text-anchor="middle" x="425" y="-123" font-family="Helvetica,sans-Serif" font-size="10.00">infrastructure_macros.h</text>
</a>
</g>
</g>
<!-- Node4&#45;&gt;Node5 -->
<g id="edge5" class="edge"><title>Node4&#45;&gt;Node5</title>
<path fill="none" stroke="midnightblue" d="M943.714,-181.299C863.159,-173.022 617.814,-147.812 495.653,-135.26"/>
<polygon fill="midnightblue" stroke="midnightblue" points="495.954,-131.772 485.649,-134.232 495.239,-138.736 495.954,-131.772"/>
</g>
<!-- Node14 -->
<g id="node14" class="node"><title>Node14</title>
<g id="a_node14"><a xlink:href="exceptions_8h.html" target="_top" xlink:title="Various general useful macros for IMP. ">
<polygon fill="none" stroke="black" points="783.926,-117 783.926,-137 856.074,-137 856.074,-117 783.926,-117"/>
<text text-anchor="middle" x="820" y="-123" font-family="Helvetica,sans-Serif" font-size="10.00">exceptions.h</text>
</a>
</g>
</g>
<!-- Node4&#45;&gt;Node14 -->
<g id="edge15" class="edge"><title>Node4&#45;&gt;Node14</title>
<path fill="none" stroke="midnightblue" d="M945.566,-174.878C920.723,-165.603 882.026,-151.156 854.156,-140.752"/>
<polygon fill="midnightblue" stroke="midnightblue" points="855.016,-137.337 844.423,-137.118 852.568,-143.895 855.016,-137.337"/>
</g>
<!-- Node18 -->
<g id="node18" class="node"><title>Node18</title>
<polygon fill="none" stroke="#bfbfbf" points="912.237,-117 912.237,-137 1027.76,-137 1027.76,-117 912.237,-117"/>
<text text-anchor="middle" x="970" y="-123" font-family="Helvetica,sans-Serif" font-size="10.00">boost/range/begin.hpp</text>
</g>
<!-- Node4&#45;&gt;Node18 -->
<g id="edge22" class="edge"><title>Node4&#45;&gt;Node18</title>
<path fill="none" stroke="midnightblue" d="M970,-174.753C970,-167.25 970,-156.424 970,-147.078"/>
<polygon fill="midnightblue" stroke="midnightblue" points="973.5,-147.075 970,-137.075 966.5,-147.075 973.5,-147.075"/>
</g>
<!-- Node19 -->
<g id="node19" class="node"><title>Node19</title>
<polygon fill="none" stroke="#bfbfbf" points="1046.13,-117 1046.13,-137 1153.87,-137 1153.87,-117 1046.13,-117"/>
<text text-anchor="middle" x="1100" y="-123" font-family="Helvetica,sans-Serif" font-size="10.00">boost/range/end.hpp</text>
</g>
<!-- Node4&#45;&gt;Node19 -->
<g id="edge23" class="edge"><title>Node4&#45;&gt;Node19</title>
<path fill="none" stroke="midnightblue" d="M991.176,-174.878C1012.42,-165.725 1045.36,-151.536 1069.44,-141.164"/>
<polygon fill="midnightblue" stroke="midnightblue" points="1071.03,-144.289 1078.83,-137.118 1068.26,-137.86 1071.03,-144.289"/>
</g>
<!-- Node20 -->
<g id="node20" class="node"><title>Node20</title>
<polygon fill="none" stroke="#bfbfbf" points="1171.44,-117 1171.44,-137 1228.56,-137 1228.56,-117 1171.44,-117"/>
<text text-anchor="middle" x="1200" y="-123" font-family="Helvetica,sans-Serif" font-size="10.00">algorithm</text>
</g>
<!-- Node4&#45;&gt;Node20 -->
<g id="edge24" class="edge"><title>Node4&#45;&gt;Node20</title>
<path fill="none" stroke="midnightblue" d="M996.131,-177.933C1031.31,-169.723 1096.1,-154.458 1161.34,-138.126"/>
<polygon fill="midnightblue" stroke="midnightblue" points="1162.54,-141.433 1171.38,-135.603 1160.83,-134.644 1162.54,-141.433"/>
</g>
<!-- Node5&#45;&gt;Node3 -->
<g id="edge9" class="edge"><title>Node5&#45;&gt;Node3</title>
<path fill="none" stroke="midnightblue" d="M483.859,-116.946C523.531,-109.702 576.538,-97.7778 621,-80 625.833,-78.0674 680.258,-45.8085 712.813,-26.4268"/>
<polygon fill="midnightblue" stroke="midnightblue" points="714.946,-29.2302 721.746,-21.1052 711.363,-23.2165 714.946,-29.2302"/>
</g>
<!-- Node6 -->
<g id="node6" class="node"><title>Node6</title>
<polygon fill="none" stroke="#bfbfbf" points="287.219,-59 287.219,-79 338.781,-79 338.781,-59 287.219,-59"/>
<text text-anchor="middle" x="313" y="-65" font-family="Helvetica,sans-Serif" font-size="10.00">sstream</text>
</g>
<!-- Node5&#45;&gt;Node6 -->
<g id="edge6" class="edge"><title>Node5&#45;&gt;Node6</title>
<path fill="none" stroke="midnightblue" d="M406.505,-116.753C388.484,-107.742 360.871,-93.9353 340.318,-83.6589"/>
<polygon fill="midnightblue" stroke="midnightblue" points="341.66,-80.4169 331.15,-79.0752 338.529,-86.6779 341.66,-80.4169"/>
</g>
<!-- Node7 -->
<g id="node7" class="node"><title>Node7</title>
<polygon fill="none" stroke="#bfbfbf" points="356.828,-59 356.828,-79 411.172,-79 411.172,-59 356.828,-59"/>
<text text-anchor="middle" x="384" y="-65" font-family="Helvetica,sans-Serif" font-size="10.00">iostream</text>
</g>
<!-- Node5&#45;&gt;Node7 -->
<g id="edge7" class="edge"><title>Node5&#45;&gt;Node7</title>
<path fill="none" stroke="midnightblue" d="M418.23,-116.753C412.379,-108.761 403.766,-96.9975 396.644,-87.2698"/>
<polygon fill="midnightblue" stroke="midnightblue" points="399.376,-85.0762 390.644,-79.0752 393.728,-89.2114 399.376,-85.0762"/>
</g>
<!-- Node8 -->
<g id="node8" class="node"><title>Node8</title>
<polygon fill="none" stroke="#bfbfbf" points="668.773,-59 668.773,-79 709.227,-79 709.227,-59 668.773,-59"/>
<text text-anchor="middle" x="689" y="-65" font-family="Helvetica,sans-Serif" font-size="10.00">string</text>
</g>
<!-- Node5&#45;&gt;Node8 -->
<g id="edge8" class="edge"><title>Node5&#45;&gt;Node8</title>
<path fill="none" stroke="midnightblue" d="M476.901,-116.978C523.708,-108.52 594.31,-94.9628 655,-80 656.243,-79.6935 657.509,-79.3707 658.786,-79.0363"/>
<polygon fill="midnightblue" stroke="midnightblue" points="659.88,-82.3651 668.583,-76.3237 658.012,-75.6189 659.88,-82.3651"/>
</g>
<!-- Node9 -->
<g id="node9" class="node"><title>Node9</title>
<polygon fill="none" stroke="#bfbfbf" points="428.98,-59 428.98,-79 505.02,-79 505.02,-59 428.98,-59"/>
<text text-anchor="middle" x="467" y="-65" font-family="Helvetica,sans-Serif" font-size="10.00">internal/use.h</text>
</g>
<!-- Node5&#45;&gt;Node9 -->
<g id="edge10" class="edge"><title>Node5&#45;&gt;Node9</title>
<path fill="none" stroke="midnightblue" d="M431.935,-116.753C437.929,-108.761 446.752,-96.9975 454.048,-87.2698"/>
<polygon fill="midnightblue" stroke="midnightblue" points="456.994,-89.1752 460.194,-79.0752 451.394,-84.9752 456.994,-89.1752"/>
</g>
<!-- Node10 -->
<g id="node10" class="node"><title>Node10</title>
<polygon fill="none" stroke="#bfbfbf" points="523.306,-59 523.306,-79 612.694,-79 612.694,-59 523.306,-59"/>
<text text-anchor="middle" x="568" y="-65" font-family="Helvetica,sans-Serif" font-size="10.00">boost/config.hpp</text>
</g>
<!-- Node5&#45;&gt;Node10 -->
<g id="edge11" class="edge"><title>Node5&#45;&gt;Node10</title>
<path fill="none" stroke="midnightblue" d="M448.294,-116.878C471.873,-107.644 508.545,-93.283 535.088,-82.8887"/>
<polygon fill="midnightblue" stroke="midnightblue" points="536.681,-86.0236 544.716,-79.1181 534.129,-79.5056 536.681,-86.0236"/>
</g>
<!-- Node11 -->
<g id="node11" class="node"><title>Node11</title>
<polygon fill="none" stroke="#bfbfbf" points="-0.470215,-59 -0.470215,-79 94.4702,-79 94.4702,-59 -0.470215,-59"/>
<text text-anchor="middle" x="47" y="-65" font-family="Helvetica,sans-Serif" font-size="10.00">boost/version.hpp</text>
</g>
<!-- Node5&#45;&gt;Node11 -->
<g id="edge12" class="edge"><title>Node5&#45;&gt;Node11</title>
<path fill="none" stroke="midnightblue" d="M364.371,-117.979C301.725,-109.547 200.855,-95.5681 104.545,-80.2104"/>
<polygon fill="midnightblue" stroke="midnightblue" points="105.068,-76.7497 94.6397,-78.6234 103.96,-83.6615 105.068,-76.7497"/>
</g>
<!-- Node12 -->
<g id="node12" class="node"><title>Node12</title>
<polygon fill="none" stroke="#bfbfbf" points="111.971,-59 111.971,-79 208.029,-79 208.029,-59 111.971,-59"/>
<text text-anchor="middle" x="160" y="-65" font-family="Helvetica,sans-Serif" font-size="10.00">boost/foreach.hpp</text>
</g>
<!-- Node5&#45;&gt;Node12 -->
<g id="edge13" class="edge"><title>Node5&#45;&gt;Node12</title>
<path fill="none" stroke="midnightblue" d="M382.129,-116.94C335.945,-107.181 262.411,-91.6416 212.723,-81.1415"/>
<polygon fill="midnightblue" stroke="midnightblue" points="213.317,-77.6898 202.81,-79.0466 211.87,-84.5386 213.317,-77.6898"/>
</g>
<!-- Node13 -->
<g id="node13" class="node"><title>Node13</title>
<polygon fill="none" stroke="#bfbfbf" points="226.384,-59 226.384,-79 269.616,-79 269.616,-59 226.384,-59"/>
<text text-anchor="middle" x="248" y="-65" font-family="Helvetica,sans-Serif" font-size="10.00">vector</text>
</g>
<!-- Node5&#45;&gt;Node13 -->
<g id="edge14" class="edge"><title>Node5&#45;&gt;Node13</title>
<path fill="none" stroke="midnightblue" d="M395.664,-116.995C367.93,-108.443 324.911,-95.0799 279.631,-80.4947"/>
<polygon fill="midnightblue" stroke="midnightblue" points="280.531,-77.1074 269.94,-77.3652 278.38,-83.7688 280.531,-77.1074"/>
</g>
<!-- Node14&#45;&gt;Node2 -->
<g id="edge19" class="edge"><title>Node14&#45;&gt;Node2</title>
<path fill="none" stroke="midnightblue" d="M856.274,-118.48C860.886,-117.602 865.548,-116.753 870,-116 981.88,-97.0838 1013.39,-99.9722 1129.12,-80.0483"/>
<polygon fill="midnightblue" stroke="midnightblue" points="1129.83,-83.477 1139.08,-78.3129 1128.63,-76.5808 1129.83,-83.477"/>
</g>
<!-- Node14&#45;&gt;Node3 -->
<g id="edge20" class="edge"><title>Node14&#45;&gt;Node3</title>
<path fill="none" stroke="midnightblue" d="M801.045,-116.889C786.652,-109.034 767.445,-96.3744 756,-80 745.915,-65.5718 741.166,-45.9323 738.94,-31.4687"/>
<polygon fill="midnightblue" stroke="midnightblue" points="742.365,-30.6605 737.641,-21.1772 735.42,-31.5367 742.365,-30.6605"/>
</g>
<!-- Node14&#45;&gt;Node8 -->
<g id="edge18" class="edge"><title>Node14&#45;&gt;Node8</title>
<path fill="none" stroke="midnightblue" d="M798.661,-116.878C776.996,-107.617 743.265,-93.1971 718.932,-82.7956"/>
<polygon fill="midnightblue" stroke="midnightblue" points="720.037,-79.4615 709.467,-78.749 717.286,-85.8981 720.037,-79.4615"/>
</g>
<!-- Node15 -->
<g id="node15" class="node"><title>Node15</title>
<polygon fill="none" stroke="#bfbfbf" points="893.451,-59 893.451,-79 1044.55,-79 1044.55,-59 893.451,-59"/>
<text text-anchor="middle" x="969" y="-65" font-family="Helvetica,sans-Serif" font-size="10.00">boost/exception/exception.hpp</text>
</g>
<!-- Node14&#45;&gt;Node15 -->
<g id="edge16" class="edge"><title>Node14&#45;&gt;Node15</title>
<path fill="none" stroke="midnightblue" d="M844.271,-116.878C868.948,-107.603 907.387,-93.1564 935.072,-82.7515"/>
<polygon fill="midnightblue" stroke="midnightblue" points="936.61,-85.9125 944.739,-79.1181 934.147,-79.36 936.61,-85.9125"/>
</g>
<!-- Node16 -->
<g id="node16" class="node"><title>Node16</title>
<polygon fill="none" stroke="#bfbfbf" points="1062.6,-59 1062.6,-79 1121.4,-79 1121.4,-59 1062.6,-59"/>
<text text-anchor="middle" x="1092" y="-65" font-family="Helvetica,sans-Serif" font-size="10.00">exception</text>
</g>
<!-- Node14&#45;&gt;Node16 -->
<g id="edge17" class="edge"><title>Node14&#45;&gt;Node16</title>
<path fill="none" stroke="midnightblue" d="M856.318,-118.722C860.923,-117.804 865.572,-116.878 870,-116 948.132,-100.502 970.433,-98.4464 1051.98,-80.1341"/>
<polygon fill="midnightblue" stroke="midnightblue" points="1053.25,-83.4367 1062.23,-77.8183 1051.71,-76.6089 1053.25,-83.4367"/>
</g>
<!-- Node17 -->
<g id="node17" class="node"><title>Node17</title>
<polygon fill="none" stroke="#bfbfbf" points="764.766,-59 764.766,-79 875.234,-79 875.234,-59 764.766,-59"/>
<text text-anchor="middle" x="820" y="-65" font-family="Helvetica,sans-Serif" font-size="10.00">RMF/internal/errors.h</text>
</g>
<!-- Node14&#45;&gt;Node17 -->
<g id="edge21" class="edge"><title>Node14&#45;&gt;Node17</title>
<path fill="none" stroke="midnightblue" d="M820,-116.753C820,-109.25 820,-98.4238 820,-89.0781"/>
<polygon fill="midnightblue" stroke="midnightblue" points="823.5,-89.0752 820,-79.0752 816.5,-89.0752 823.5,-89.0752"/>
</g>
</g>
</svg>
