<?xml version="1.0" encoding="UTF-8" standalone="no"?>
<!DOCTYPE svg PUBLIC "-//W3C//DTD SVG 1.1//EN"
 "http://www.w3.org/Graphics/SVG/1.1/DTD/svg11.dtd">
<!-- Generated by graphviz version 2.36.0 (20140111.2315)
 -->
<!-- Title: rmf Pages: 1 -->
<svg width="308pt" height="148pt"
 viewBox="0.00 0.00 308.00 148.00" xmlns="http://www.w3.org/2000/svg" xmlns:xlink="http://www.w3.org/1999/xlink">
<g id="graph0" class="graph" transform="scale(1 1) rotate(0) translate(4 144)">
<title>rmf</title>
<g id="clust1" class="cluster"><title>clusterdir_2d68b5f772eee282634997996e928fcd</title>
<g id="a_clust1"><a xlink:href="dir_2d68b5f772eee282634997996e928fcd.html" target="_top">
<polygon fill="#eeeeff" stroke="black" points="8,-8 8,-132 238,-132 238,-8 8,-8"/>
</a>
</g>
</g>
<!-- dir_2d68b5f772eee282634997996e928fcd -->
<g id="node1" class="node"><title>dir_2d68b5f772eee282634997996e928fcd</title>
<text text-anchor="middle" x="203" y="-103" font-family="Helvetica,sans-Serif" font-size="10.00">rmf</text>
</g>
<!-- dir_19a27dc715b8668343757c8b9b99682f -->
<g id="node2" class="node"><title>dir_19a27dc715b8668343757c8b9b99682f</title>
<g id="a_node2"><a xlink:href="dir_19a27dc715b8668343757c8b9b99682f.html" target="_top" xlink:title="benchmark">
<polygon fill="white" stroke="black" points="157.6,-124 92.4001,-124 92.4001,-88 157.6,-88 157.6,-124"/>
<text text-anchor="middle" x="125" y="-103" font-family="Helvetica,sans-Serif" font-size="10.00">benchmark</text>
</a>
</g>
</g>
<!-- dir_b0e5a4ae46284fb52ad591e0b1b5b841 -->
<g id="node4" class="node"><title>dir_b0e5a4ae46284fb52ad591e0b1b5b841</title>
<g id="a_node4"><a xlink:href="dir_b0e5a4ae46284fb52ad591e0b1b5b841.html" target="_top" xlink:title="include">
<polygon fill="white" stroke="red" points="152,-52 98,-52 98,-16 152,-16 152,-52"/>
<text text-anchor="middle" x="125" y="-31" font-family="Helvetica,sans-Serif" font-size="10.00">include</text>
</a>
</g>
</g>
<!-- dir_19a27dc715b8668343757c8b9b99682f&#45;&gt;dir_b0e5a4ae46284fb52ad591e0b1b5b841 -->
<g id="edge1" class="edge"><title>dir_19a27dc715b8668343757c8b9b99682f&#45;&gt;dir_b0e5a4ae46284fb52ad591e0b1b5b841</title>
<path fill="none" stroke="black" d="M125,-87.6966C125,-79.9827 125,-70.7125 125,-62.1124"/>
<polygon fill="black" stroke="black" points="128.5,-62.1043 125,-52.1043 121.5,-62.1044 128.5,-62.1043"/>
<g id="a_edge1&#45;headlabel"><a xlink:href="dir_000008_000005.html" target="_top" xlink:title="10">
<text text-anchor="middle" x="131.339" y="-62.699" font-family="Helvetica,sans-Serif" font-size="10.00">10</text>
</a>
</g>
</g>
<!-- dir_8f2980731aba7ec7b9fcae5764f196e3 -->
<g id="node5" class="node"><title>dir_8f2980731aba7ec7b9fcae5764f196e3</title>
<g id="a_node5"><a xlink:href="dir_8f2980731aba7ec7b9fcae5764f196e3.html" target="_top" xlink:title="include">
<polygon fill="none" stroke="red" points="300,-52 246,-52 246,-16 300,-16 300,-52"/>
<text text-anchor="middle" x="273" y="-31" font-family="Helvetica,sans-Serif" font-size="10.00">include</text>
</a>
</g>
</g>
<!-- dir_19a27dc715b8668343757c8b9b99682f&#45;&gt;dir_8f2980731aba7ec7b9fcae5764f196e3 -->
<g id="edge2" class="edge"><title>dir_19a27dc715b8668343757c8b9b99682f&#45;&gt;dir_8f2980731aba7ec7b9fcae5764f196e3</title>
<path fill="none" stroke="black" d="M157.592,-91.0329C178.929,-81.7153 207.586,-68.8766 236.344,-54.7579"/>
<polygon fill="black" stroke="black" points="238.27,-57.7094 245.675,-50.1318 235.161,-51.4378 238.27,-57.7094"/>
<g id="a_edge2&#45;headlabel"><a xlink:href="dir_000008_000002.html" target="_top" xlink:title="2">
<text text-anchor="middle" x="236.311" y="-58.8498" font-family="Helvetica,sans-Serif" font-size="10.00">2</text>
</a>
</g>
</g>
<!-- dir_6a21471d4ae01c437a54209738eb1add -->
<g id="node3" class="node"><title>dir_6a21471d4ae01c437a54209738eb1add</title>
<g id="a_node3"><a xlink:href="dir_6a21471d4ae01c437a54209738eb1add.html" target="_top" xlink:title="examples">
<polygon fill="white" stroke="black" points="74.0994,-124 15.9006,-124 15.9006,-88 74.0994,-88 74.0994,-124"/>
<text text-anchor="middle" x="45" y="-103" font-family="Helvetica,sans-Serif" font-size="10.00">examples</text>
</a>
</g>
</g>
<!-- dir_b0e5a4ae46284fb52ad591e0b1b5b841&#45;&gt;dir_8f2980731aba7ec7b9fcae5764f196e3 -->
<g id="edge3" class="edge"><title>dir_b0e5a4ae46284fb52ad591e0b1b5b841&#45;&gt;dir_8f2980731aba7ec7b9fcae5764f196e3</title>
<path fill="none" stroke="black" d="M152.172,-34C179.916,-34 207.66,-34 235.403,-34"/>
<polygon fill="black" stroke="black" points="235.625,-37.5001 245.625,-34 235.625,-30.5001 235.625,-37.5001"/>
<g id="a_edge3&#45;headlabel"><a xlink:href="dir_000005_000002.html" target="_top" xlink:title="14">
<text text-anchor="middle" x="232.03" y="-37.3393" font-family="Helvetica,sans-Serif" font-size="10.00">14</text>
</a>
</g>
</g>
<!-- dir_8f2980731aba7ec7b9fcae5764f196e3&#45;&gt;dir_b0e5a4ae46284fb52ad591e0b1b5b841 -->
<g id="edge4" class="edge"><title>dir_8f2980731aba7ec7b9fcae5764f196e3&#45;&gt;dir_b0e5a4ae46284fb52ad591e0b1b5b841</title>
<path fill="none" stroke="black" d="M245.625,-34C217.881,-34 190.137,-34 162.393,-34"/>
<polygon fill="black" stroke="black" points="162.172,-30.5001 152.172,-34 162.172,-37.5001 162.172,-30.5001"/>
<g id="a_edge4&#45;headlabel"><a xlink:href="dir_000002_000005.html" target="_top" xlink:title="58">
<text text-anchor="middle" x="165.766" y="-24.6607" font-family="Helvetica,sans-Serif" font-size="10.00">58</text>
</a>
</g>
</g>
</g>
</svg>
