<?xml version="1.0" encoding="UTF-8" standalone="no"?>
<!DOCTYPE svg PUBLIC "-//W3C//DTD SVG 1.1//EN"
 "http://www.w3.org/Graphics/SVG/1.1/DTD/svg11.dtd">
<!-- Generated by graphviz version 2.34.0 (20131025.1349)
 -->
<!-- Title: HDF5 Pages: 1 -->
<svg width="94pt" height="152pt"
 viewBox="0.00 0.00 94.00 152.00" xmlns="http://www.w3.org/2000/svg" xmlns:xlink="http://www.w3.org/1999/xlink">
<g id="graph0" class="graph" transform="scale(1 1) rotate(0) translate(4 148)">
<title>HDF5</title>
<g id="clust1" class="cluster"><title>clusterdir_e3057c5fa8c7831b086163b8930d3fcd</title>
<g id="a_clust1"><a xlink:href="dir_e3057c5fa8c7831b086163b8930d3fcd.html" target="_top" xlink:title="RMF">
<polygon fill="#ddddee" stroke="black" points="8,-64 8,-136 78,-136 78,-64 8,-64"/>
<text text-anchor="middle" x="43" y="-122" font-family="Helvetica,sans-Serif" font-size="10.00">RMF</text>
</a>
</g>
</g>
<!-- dir_66eea78cb6561efd0085549d04fcef40 -->
<g id="node1" class="node"><title>dir_66eea78cb6561efd0085549d04fcef40</title>
<g id="a_node1"><a xlink:href="dir_66eea78cb6561efd0085549d04fcef40.html" target="_top" xlink:title="HDF5">
<polygon fill="#eeeeff" stroke="black" points="70,-108 16,-108 16,-72 70,-72 70,-108"/>
<text text-anchor="middle" x="43" y="-86" font-family="Helvetica,sans-Serif" font-size="10.00">HDF5</text>
</a>
</g>
</g>
<!-- dir_0d62f7ff8c35bfe2b648802cec6420e2 -->
<g id="node2" class="node"><title>dir_0d62f7ff8c35bfe2b648802cec6420e2</title>
<g id="a_node2"><a xlink:href="dir_0d62f7ff8c35bfe2b648802cec6420e2.html" target="_top" xlink:title="include">
<polygon fill="none" stroke="red" points="70,-36 16,-36 16,-0 70,-0 70,-36"/>
<text text-anchor="middle" x="43" y="-14" font-family="Helvetica,sans-Serif" font-size="10.00">include</text>
</a>
</g>
</g>
<!-- dir_66eea78cb6561efd0085549d04fcef40&#45;&gt;dir_0d62f7ff8c35bfe2b648802cec6420e2 -->
<g id="edge1" class="edge"><title>dir_66eea78cb6561efd0085549d04fcef40&#45;&gt;dir_0d62f7ff8c35bfe2b648802cec6420e2</title>
<path fill="none" stroke="black" d="M43,-71.6966C43,-63.9827 43,-54.7125 43,-46.1124"/>
<polygon fill="black" stroke="black" points="46.5001,-46.1043 43,-36.1043 39.5001,-46.1044 46.5001,-46.1043"/>
<g id="a_edge1&#45;headlabel"><a xlink:href="dir_000009_000002.html" target="_top" xlink:title="4">
<text text-anchor="middle" x="49.3393" y="-45.699" font-family="Helvetica,sans-Serif" font-size="10.00">4</text>
</a>
</g>
</g>
</g>
</svg>
