<?xml version="1.0" encoding="UTF-8" standalone="no"?>
<!DOCTYPE svg PUBLIC "-//W3C//DTD SVG 1.1//EN"
 "http://www.w3.org/Graphics/SVG/1.1/DTD/svg11.dtd">
<!-- Generated by graphviz version 2.34.0 (20131025.1349)
 -->
<!-- Title: RMF Pages: 1 -->
<svg width="186pt" height="232pt"
 viewBox="0.00 0.00 186.00 232.00" xmlns="http://www.w3.org/2000/svg" xmlns:xlink="http://www.w3.org/1999/xlink">
<g id="graph0" class="graph" transform="scale(1 1) rotate(0) translate(4 228)">
<title>RMF</title>
<g id="clust1" class="cluster"><title>clusterdir_b0e5a4ae46284fb52ad591e0b1b5b841</title>
<g id="a_clust1"><a xlink:href="dir_b0e5a4ae46284fb52ad591e0b1b5b841.html" target="_top" xlink:title="include">
<polygon fill="#ddddee" stroke="black" points="8,-56 8,-216 170,-216 170,-56 8,-56"/>
<text text-anchor="middle" x="89" y="-202" font-family="Helvetica,sans-Serif" font-size="10.00">include</text>
</a>
</g>
</g>
<g id="clust2" class="cluster"><title>clusterdir_e3057c5fa8c7831b086163b8930d3fcd</title>
<g id="a_clust2"><a xlink:href="dir_e3057c5fa8c7831b086163b8930d3fcd.html" target="_top">
<polygon fill="#eeeeff" stroke="black" points="16,-64 16,-188 162,-188 162,-64 16,-64"/>
</a>
</g>
</g>
<!-- dir_e3057c5fa8c7831b086163b8930d3fcd -->
<g id="node1" class="node"><title>dir_e3057c5fa8c7831b086163b8930d3fcd</title>
<text text-anchor="middle" x="90" y="-158" font-family="Helvetica,sans-Serif" font-size="10.00">RMF</text>
</g>
<!-- dir_d45073c5a9a6896ac0374defe5f70fc1 -->
<g id="node2" class="node"><title>dir_d45073c5a9a6896ac0374defe5f70fc1</title>
<g id="a_node2"><a xlink:href="dir_d45073c5a9a6896ac0374defe5f70fc1.html" target="_top" xlink:title="decorator">
<polygon fill="white" stroke="black" points="82.1848,-108 23.8152,-108 23.8152,-72 82.1848,-72 82.1848,-108"/>
<text text-anchor="middle" x="53" y="-86" font-family="Helvetica,sans-Serif" font-size="10.00">decorator</text>
</a>
</g>
</g>
<!-- dir_e3057c5fa8c7831b086163b8930d3fcd&#45;&gt;dir_d45073c5a9a6896ac0374defe5f70fc1 -->
<g id="edge4" class="edge"><title>dir_e3057c5fa8c7831b086163b8930d3fcd&#45;&gt;dir_d45073c5a9a6896ac0374defe5f70fc1</title>
<path fill="none" stroke="black" d="M80.8539,-143.697C76.5974,-135.644 71.4442,-125.894 66.7336,-116.982"/>
<polygon fill="black" stroke="black" points="69.8083,-115.31 62.0409,-108.104 63.6197,-118.581 69.8083,-115.31"/>
<g id="a_edge4&#45;headlabel"><a xlink:href="dir_000006_000007.html" target="_top" xlink:title="5">
<text text-anchor="middle" x="73.9982" y="-113.161" font-family="Helvetica,sans-Serif" font-size="10.00">5</text>
</a>
</g>
</g>
<!-- dir_66eea78cb6561efd0085549d04fcef40 -->
<g id="node3" class="node"><title>dir_66eea78cb6561efd0085549d04fcef40</title>
<g id="a_node3"><a xlink:href="dir_66eea78cb6561efd0085549d04fcef40.html" target="_top" xlink:title="HDF5">
<polygon fill="white" stroke="black" points="154,-108 100,-108 100,-72 154,-72 154,-108"/>
<text text-anchor="middle" x="127" y="-86" font-family="Helvetica,sans-Serif" font-size="10.00">HDF5</text>
</a>
</g>
</g>
<!-- dir_e3057c5fa8c7831b086163b8930d3fcd&#45;&gt;dir_66eea78cb6561efd0085549d04fcef40 -->
<g id="edge3" class="edge"><title>dir_e3057c5fa8c7831b086163b8930d3fcd&#45;&gt;dir_66eea78cb6561efd0085549d04fcef40</title>
<path fill="none" stroke="black" d="M99.1461,-143.697C103.403,-135.644 108.556,-125.894 113.266,-116.982"/>
<polygon fill="black" stroke="black" points="116.38,-118.581 117.959,-108.104 110.192,-115.31 116.38,-118.581"/>
<g id="a_edge3&#45;headlabel"><a xlink:href="dir_000006_000009.html" target="_top" xlink:title="1">
<text text-anchor="middle" x="117.211" y="-119.086" font-family="Helvetica,sans-Serif" font-size="10.00">1</text>
</a>
</g>
</g>
<!-- dir_42743c43973611cb0b05144d150e48a5 -->
<g id="node4" class="node"><title>dir_42743c43973611cb0b05144d150e48a5</title>
<g id="a_node4"><a xlink:href="dir_42743c43973611cb0b05144d150e48a5.html" target="_top" xlink:title="include">
<polygon fill="none" stroke="red" points="154,-36 100,-36 100,-0 154,-0 154,-36"/>
<text text-anchor="middle" x="127" y="-14" font-family="Helvetica,sans-Serif" font-size="10.00">include</text>
</a>
</g>
</g>
<!-- dir_66eea78cb6561efd0085549d04fcef40&#45;&gt;dir_42743c43973611cb0b05144d150e48a5 -->
<g id="edge2" class="edge"><title>dir_66eea78cb6561efd0085549d04fcef40&#45;&gt;dir_42743c43973611cb0b05144d150e48a5</title>
<path fill="none" stroke="black" d="M121.084,-71.6966C120.289,-63.9827 120.062,-54.7125 120.405,-46.1124"/>
<polygon fill="black" stroke="black" points="123.898,-46.3243 121.105,-36.1043 116.915,-45.8356 123.898,-46.3243"/>
<g id="a_edge2&#45;headlabel"><a xlink:href="dir_000009_000002.html" target="_top" xlink:title="4">
<text text-anchor="middle" x="126.48" y="-46.1083" font-family="Helvetica,sans-Serif" font-size="10.00">4</text>
</a>
</g>
</g>
<!-- dir_42743c43973611cb0b05144d150e48a5&#45;&gt;dir_66eea78cb6561efd0085549d04fcef40 -->
<g id="edge1" class="edge"><title>dir_42743c43973611cb0b05144d150e48a5&#45;&gt;dir_66eea78cb6561efd0085549d04fcef40</title>
<path fill="none" stroke="black" d="M132.895,-36.1043C133.701,-43.7913 133.937,-53.0537 133.604,-61.6651"/>
<polygon fill="black" stroke="black" points="130.109,-61.4805 132.916,-71.6966 137.092,-61.9597 130.109,-61.4805"/>
<g id="a_edge1&#45;headlabel"><a xlink:href="dir_000002_000009.html" target="_top" xlink:title="15">
<text text-anchor="middle" x="127.522" y="-53.7" font-family="Helvetica,sans-Serif" font-size="10.00">15</text>
</a>
</g>
</g>
</g>
</svg>
