<?xml version="1.0" encoding="UTF-8" standalone="no"?>
<!DOCTYPE svg PUBLIC "-//W3C//DTD SVG 1.1//EN"
 "http://www.w3.org/Graphics/SVG/1.1/DTD/svg11.dtd">
<!-- Generated by graphviz version 2.34.0 (20131025.1349)
 -->
<!-- Title: benchmark Pages: 1 -->
<svg width="111pt" height="224pt"
 viewBox="0.00 0.00 111.00 224.00" xmlns="http://www.w3.org/2000/svg" xmlns:xlink="http://www.w3.org/1999/xlink">
<g id="graph0" class="graph" transform="scale(1 1) rotate(0) translate(4 220)">
<title>benchmark</title>
<g id="clust1" class="cluster"><title>clusterdir_2d68b5f772eee282634997996e928fcd</title>
<g id="a_clust1"><a xlink:href="dir_2d68b5f772eee282634997996e928fcd.html" target="_top" xlink:title="rmf">
<polygon fill="#ddddee" stroke="black" points="13,-136 13,-208 95,-208 95,-136 13,-136"/>
<text text-anchor="middle" x="54" y="-194" font-family="Helvetica,sans-Serif" font-size="10.00">rmf</text>
</a>
</g>
</g>
<!-- dir_19a27dc715b8668343757c8b9b99682f -->
<g id="node1" class="node"><title>dir_19a27dc715b8668343757c8b9b99682f</title>
<g id="a_node1"><a xlink:href="dir_19a27dc715b8668343757c8b9b99682f.html" target="_top" xlink:title="benchmark">
<polygon fill="#eeeeff" stroke="black" points="86.5999,-180 21.4001,-180 21.4001,-144 86.5999,-144 86.5999,-180"/>
<text text-anchor="middle" x="54" y="-158" font-family="Helvetica,sans-Serif" font-size="10.00">benchmark</text>
</a>
</g>
</g>
<!-- dir_b0e5a4ae46284fb52ad591e0b1b5b841 -->
<g id="node2" class="node"><title>dir_b0e5a4ae46284fb52ad591e0b1b5b841</title>
<g id="a_node2"><a xlink:href="dir_b0e5a4ae46284fb52ad591e0b1b5b841.html" target="_top" xlink:title="include">
<polygon fill="none" stroke="red" points="54,-108 0,-108 0,-72 54,-72 54,-108"/>
<text text-anchor="middle" x="27" y="-86" font-family="Helvetica,sans-Serif" font-size="10.00">include</text>
</a>
</g>
</g>
<!-- dir_19a27dc715b8668343757c8b9b99682f&#45;&gt;dir_b0e5a4ae46284fb52ad591e0b1b5b841 -->
<g id="edge1" class="edge"><title>dir_19a27dc715b8668343757c8b9b99682f&#45;&gt;dir_b0e5a4ae46284fb52ad591e0b1b5b841</title>
<path fill="none" stroke="black" d="M47.3258,-143.697C44.2851,-135.813 40.6173,-126.304 37.2393,-117.546"/>
<polygon fill="black" stroke="black" points="40.4617,-116.175 33.5974,-108.104 33.9307,-118.694 40.4617,-116.175"/>
<g id="a_edge1&#45;headlabel"><a xlink:href="dir_000008_000005.html" target="_top" xlink:title="11">
<text text-anchor="middle" x="44.4043" y="-114.507" font-family="Helvetica,sans-Serif" font-size="10.00">11</text>
</a>
</g>
</g>
<!-- dir_0d62f7ff8c35bfe2b648802cec6420e2 -->
<g id="node3" class="node"><title>dir_0d62f7ff8c35bfe2b648802cec6420e2</title>
<g id="a_node3"><a xlink:href="dir_0d62f7ff8c35bfe2b648802cec6420e2.html" target="_top" xlink:title="include">
<polygon fill="none" stroke="red" points="54,-36 0,-36 0,-0 54,-0 54,-36"/>
<text text-anchor="middle" x="27" y="-14" font-family="Helvetica,sans-Serif" font-size="10.00">include</text>
</a>
</g>
</g>
<!-- dir_19a27dc715b8668343757c8b9b99682f&#45;&gt;dir_0d62f7ff8c35bfe2b648802cec6420e2 -->
<g id="edge2" class="edge"><title>dir_19a27dc715b8668343757c8b9b99682f&#45;&gt;dir_0d62f7ff8c35bfe2b648802cec6420e2</title>
<path fill="none" stroke="black" d="M59.6461,-143.877C64.7573,-125.661 70.4405,-96.196 63,-72 59.9911,-62.2153 54.493,-52.6161 48.6843,-44.3336"/>
<polygon fill="black" stroke="black" points="51.4072,-42.1306 42.6099,-36.2264 45.8052,-46.3279 51.4072,-42.1306"/>
<g id="a_edge2&#45;headlabel"><a xlink:href="dir_000008_000002.html" target="_top" xlink:title="2">
<text text-anchor="middle" x="55.8348" y="-39.3048" font-family="Helvetica,sans-Serif" font-size="10.00">2</text>
</a>
</g>
</g>
<!-- dir_b0e5a4ae46284fb52ad591e0b1b5b841&#45;&gt;dir_0d62f7ff8c35bfe2b648802cec6420e2 -->
<g id="edge3" class="edge"><title>dir_b0e5a4ae46284fb52ad591e0b1b5b841&#45;&gt;dir_0d62f7ff8c35bfe2b648802cec6420e2</title>
<path fill="none" stroke="black" d="M21.0843,-71.6966C20.2886,-63.9827 20.0621,-54.7125 20.4047,-46.1124"/>
<polygon fill="black" stroke="black" points="23.8984,-46.3243 21.105,-36.1043 16.9154,-45.8356 23.8984,-46.3243"/>
<g id="a_edge3&#45;headlabel"><a xlink:href="dir_000005_000002.html" target="_top" xlink:title="11">
<text text-anchor="middle" x="26.4799" y="-46.1083" font-family="Helvetica,sans-Serif" font-size="10.00">11</text>
</a>
</g>
</g>
<!-- dir_0d62f7ff8c35bfe2b648802cec6420e2&#45;&gt;dir_b0e5a4ae46284fb52ad591e0b1b5b841 -->
<g id="edge4" class="edge"><title>dir_0d62f7ff8c35bfe2b648802cec6420e2&#45;&gt;dir_b0e5a4ae46284fb52ad591e0b1b5b841</title>
<path fill="none" stroke="black" d="M32.895,-36.1043C33.7005,-43.7913 33.9369,-53.0537 33.604,-61.6651"/>
<polygon fill="black" stroke="black" points="30.1085,-61.4805 32.9157,-71.6966 37.0921,-61.9597 30.1085,-61.4805"/>
<g id="a_edge4&#45;headlabel"><a xlink:href="dir_000002_000005.html" target="_top" xlink:title="58">
<text text-anchor="middle" x="27.5219" y="-53.7" font-family="Helvetica,sans-Serif" font-size="10.00">58</text>
</a>
</g>
</g>
</g>
</svg>
