<?xml version="1.0" encoding="UTF-8" standalone="no"?>
<!DOCTYPE svg PUBLIC "-//W3C//DTD SVG 1.1//EN"
 "http://www.w3.org/Graphics/SVG/1.1/DTD/svg11.dtd">
<!-- Generated by graphviz version 2.36.0 (20140111.2315)
 -->
<!-- Title: key Pages: 1 -->
<svg width="1158pt" height="124pt"
 viewBox="0.00 0.00 1158.00 124.00" xmlns="http://www.w3.org/2000/svg" xmlns:xlink="http://www.w3.org/1999/xlink">
<g id="graph0" class="graph" transform="scale(1 1) rotate(0) translate(4 120)">
<title>key</title>
<polygon fill="white" stroke="none" points="-4,4 -4,-120 1154,-120 1154,4 -4,4"/>
<!-- root -->
<g id="node1" class="node"><title>root</title>
<g id="a_node1"><a xlink:href="namespaceRMF.html#aa6d80cceaf7767a5b06235e638c97886" target="_top" xlink:title="RMF::ROOT">
<ellipse fill="none" stroke="black" cx="57" cy="-58" rx="57.1639" ry="57.5495"/>
<text text-anchor="middle" x="57" y="-53.8" font-family="Times,serif" font-size="14.00">RMF::ROOT</text>
</a>
</g>
</g>
<!-- rep -->
<g id="node2" class="node"><title>rep</title>
<g id="a_node2"><a xlink:href="namespaceRMF.html#ae825b3e314808ddf3813c8035f74d524" target="_top" xlink:title="RMF::REPRESENTATION">
<ellipse fill="none" stroke="black" cx="242" cy="-58" rx="109.227" ry="18"/>
<text text-anchor="middle" x="242" y="-53.8" font-family="Times,serif" font-size="14.00">RMF::REPRESENTATION</text>
</a>
</g>
</g>
<!-- bond -->
<g id="node3" class="node"><title>bond</title>
<g id="a_node3"><a xlink:href="namespaceRMF.html#a3bcd8902b6a60baf3d3afe915d82b0da" target="_top" xlink:title="RMF::BOND">
<polygon fill="none" stroke="black" points="369.555,-52.4377 442,-40 514.445,-52.4377 514.377,-72.5623 369.623,-72.5623 369.555,-52.4377"/>
<text text-anchor="middle" x="442" y="-53.8" font-family="Times,serif" font-size="14.00">RMF::BOND</text>
</a>
</g>
</g>
<!-- org -->
<g id="node4" class="node"><title>org</title>
<g id="a_node4"><a xlink:href="namespaceRMF.html#a8b2ed97e335a57e2ae5334636c7a681f" target="_top" xlink:title="RMF::ORGANIZATIONAL">
<polygon fill="none" stroke="black" points="709.25,-76 706.25,-80 685.25,-80 682.25,-76 532.75,-76 532.75,-40 709.25,-40 709.25,-76"/>
<text text-anchor="middle" x="621" y="-53.8" font-family="Times,serif" font-size="14.00">RMF::ORGANIZATIONAL</text>
</a>
</g>
</g>
<!-- feat -->
<g id="node5" class="node"><title>feat</title>
<g id="a_node5"><a xlink:href="namespaceRMF.html#a41b1d1423b170714f584475cb5e4d842" target="_top" xlink:title="RMF::FEATURE">
<polygon fill="none" stroke="black" points="894.602,-58 852.801,-76 769.199,-76 727.398,-58 769.199,-40 852.801,-40 894.602,-58"/>
<text text-anchor="middle" x="811" y="-53.8" font-family="Times,serif" font-size="14.00">RMF::FEATURE</text>
</a>
</g>
</g>
<!-- tree -->
<g id="node6" class="node"><title>tree</title>
<polygon fill="none" stroke="black" points="1032,-80 913.612,-47 1150.39,-47 1032,-80"/>
<text text-anchor="middle" x="1032" y="-53.8" font-family="Times,serif" font-size="14.00">elided subtree</text>
</g>
</g>
</svg>
