<?xml version="1.0" encoding="UTF-8" standalone="no"?>
<!DOCTYPE svg PUBLIC "-//W3C//DTD SVG 1.1//EN"
 "http://www.w3.org/Graphics/SVG/1.1/DTD/svg11.dtd">
<!-- Generated by graphviz version 2.34.0 (20131025.1349)
 -->
<!-- Title: symmetry Pages: 1 -->
<!--zoomable 220 -->
<svg id="main" version="1.1" xmlns="http://www.w3.org/2000/svg" xmlns:xlink="http://www.w3.org/1999/xlink" xml:space="preserve" onload="init(evt)">
<style type="text/css"><![CDATA[
.edge:hover path { stroke: red; }
.edge:hover polygon { stroke: red; fill: red; }
]]></style>
<script type="text/javascript"><![CDATA[
var edges = document.getElementsByTagName('g');
if (edges && edges.length) {
  for (var i=0;i<edges.length;i++) {
    if (edges[i].id.substr(0,4)=='edge') {
      edges[i].setAttribute('class','edge');
    }
  }
}
]]></script>
        <defs>
                <circle id="rim" cx="0" cy="0" r="7"/>
                <circle id="rim2" cx="0" cy="0" r="3.5"/>
                <g id="zoomPlus">
                        <use xlink:href="#rim" fill="#404040">
                                <set attributeName="fill" to="#808080" begin="zoomplus.mouseover" end="zoomplus.mouseout"/>
                        </use>
                        <path d="M-4,0h8M0,-4v8" fill="none" stroke="white" stroke-width="1.5" pointer-events="none"/>
                </g>
                <g id="zoomMin">
                        <use xlink:href="#rim" fill="#404040">
                                <set attributeName="fill" to="#808080" begin="zoomminus.mouseover" end="zoomminus.mouseout"/>
                        </use>
                        <path d="M-4,0h8" fill="none" stroke="white" stroke-width="1.5" pointer-events="none"/>
                </g>
                <g id="dirArrow">
                        <path fill="none" stroke="white" stroke-width="1.5" d="M0,-3.0v7 M-2.5,-0.5L0,-3.0L2.5,-0.5"/>
                </g>
               <g id="resetDef">
                       <use xlink:href="#rim2" fill="#404040">
                               <set attributeName="fill" to="#808080" begin="reset.mouseover" end="reset.mouseout"/>
                       </use>
               </g>
        </defs>

<script type="text/javascript">
var viewWidth = 903;
var viewHeight = 220;
</script>
<script xlink:href="svgpan.js"/>
<svg id="graph" class="graph">
<g id="viewport">
<title>symmetry</title>
<polygon fill="white" stroke="white" points="-4,4 -4,-216 899,-216 899,4 -4,4"/>
<!-- root -->
<g id="node1" class="node"><title>root</title>
<ellipse fill="none" stroke="black" cx="348" cy="-185" rx="26.3877" ry="26.6849"/>
<text text-anchor="middle" x="348" y="-179.4" font-family="Times,serif" font-size="14.00">root</text>
</g>
<!-- unit_cell -->
<g id="node2" class="node"><title>unit_cell</title>
<polygon fill="none" stroke="black" points="60.6137,-122 57.6137,-126 36.6137,-126 33.6137,-122 -0.613722,-122 -0.613722,-86 60.6137,-86 60.6137,-122"/>
<text text-anchor="middle" x="30" y="-98.4" font-family="Times,serif" font-size="14.00">unit cell</text>
</g>
<!-- root&#45;&gt;unit_cell -->
<g id="edge1" class="edge"><title>root&#45;&gt;unit_cell</title>
<path fill="none" stroke="black" d="M321.901,-179.819C273.757,-171.76 167.758,-152.4 70.4837,-121.837"/>
<polygon fill="black" stroke="black" points="71.3883,-118.452 60.7976,-118.747 69.2605,-125.121 71.3883,-118.452"/>
</g>
<!-- copy_0 -->
<g id="node4" class="node"><title>copy_0</title>
<g id="a_node4"><a xlink:href="classRMF_1_1decorator_1_1ReferenceFrame.html" target="_top" xlink:title="Copy 0 (RMF::decorator::ReferenceFrame)">
<polygon fill="none" stroke="black" points="339.109,-122 336.109,-126 315.109,-126 312.109,-122 78.8908,-122 78.8908,-86 339.109,-86 339.109,-122"/>
<text text-anchor="middle" x="209" y="-98.4" font-family="Times,serif" font-size="14.00">Copy 0 (RMF::decorator::ReferenceFrame)</text>
</a>
</g>
</g>
<!-- root&#45;&gt;copy_0 -->
<g id="edge3" class="edge"><title>root&#45;&gt;copy_0</title>
<path fill="none" stroke="black" d="M325.358,-171.131C304.393,-159.216 272.779,-141.248 247.793,-127.048"/>
<polygon fill="black" stroke="black" points="249.342,-123.903 238.919,-122.004 245.884,-129.988 249.342,-123.903"/>
</g>
<!-- copy_1 -->
<g id="node5" class="node"><title>copy_1</title>
<g id="a_node5"><a xlink:href="classRMF_1_1decorator_1_1ReferenceFrame.html" target="_top" xlink:title="Copy 1 (RMF::decorator::ReferenceFrame)">
<polygon fill="none" stroke="black" points="617.109,-122 614.109,-126 593.109,-126 590.109,-122 356.891,-122 356.891,-86 617.109,-86 617.109,-122"/>
<text text-anchor="middle" x="487" y="-98.4" font-family="Times,serif" font-size="14.00">Copy 1 (RMF::decorator::ReferenceFrame)</text>
</a>
</g>
</g>
<!-- root&#45;&gt;copy_1 -->
<g id="edge5" class="edge"><title>root&#45;&gt;copy_1</title>
<path fill="none" stroke="black" d="M370.642,-171.131C391.607,-159.216 423.221,-141.248 448.207,-127.048"/>
<polygon fill="black" stroke="black" points="450.116,-129.988 457.081,-122.004 446.658,-123.903 450.116,-129.988"/>
</g>
<!-- copy_2 -->
<g id="node6" class="node"><title>copy_2</title>
<g id="a_node6"><a xlink:href="classRMF_1_1decorator_1_1ReferenceFrame.html" target="_top" xlink:title="Copy 2 (RMF::decorator::ReferenceFrame)">
<polygon fill="none" stroke="black" points="895.109,-122 892.109,-126 871.109,-126 868.109,-122 634.891,-122 634.891,-86 895.109,-86 895.109,-122"/>
<text text-anchor="middle" x="765" y="-98.4" font-family="Times,serif" font-size="14.00">Copy 2 (RMF::decorator::ReferenceFrame)</text>
</a>
</g>
</g>
<!-- root&#45;&gt;copy_2 -->
<g id="edge7" class="edge"><title>root&#45;&gt;copy_2</title>
<path fill="none" stroke="black" d="M373.771,-179.118C430.537,-168.363 568.94,-142.143 664.902,-123.963"/>
<polygon fill="black" stroke="black" points="665.752,-127.365 674.925,-122.064 664.449,-120.487 665.752,-127.365"/>
</g>
<!-- structure -->
<g id="node3" class="node"><title>structure</title>
<polygon fill="none" stroke="black" points="348,-49.6016 203.654,-12.6992 492.346,-12.6992 348,-49.6016"/>
<text text-anchor="middle" x="348" y="-19.4" font-family="Times,serif" font-size="14.00">structural nodes</text>
</g>
<!-- unit_cell&#45;&gt;structure -->
<g id="edge2" class="edge"><title>unit_cell&#45;&gt;structure</title>
<path fill="none" stroke="black" d="M60.7906,-89.2317C63.873,-88.0599 66.9792,-86.9584 70,-86 140.703,-63.5684 224.161,-46.8016 281.055,-36.7758"/>
<polygon fill="black" stroke="black" points="281.755,-40.2066 291.007,-35.0431 280.555,-33.3103 281.755,-40.2066"/>
</g>
<!-- copy_0&#45;&gt;structure -->
<g id="edge4" class="edge"><title>copy_0&#45;&gt;structure</title>
<path fill="none" stroke="black" d="M239.849,-85.9112C260.516,-74.4625 287.869,-59.31 309.895,-47.1083"/>
<polygon fill="black" stroke="black" points="311.614,-50.1577 318.665,-42.2503 308.221,-44.0345 311.614,-50.1577"/>
</g>
<!-- copy_1&#45;&gt;structure -->
<g id="edge6" class="edge"><title>copy_1&#45;&gt;structure</title>
<path fill="none" stroke="black" d="M456.151,-85.9112C435.484,-74.4625 408.131,-59.31 386.105,-47.1083"/>
<polygon fill="black" stroke="black" points="387.779,-44.0345 377.335,-42.2503 384.386,-50.1577 387.779,-44.0345"/>
</g>
<!-- copy_2&#45;&gt;structure -->
<g id="edge8" class="edge"><title>copy_2&#45;&gt;structure</title>
<path fill="none" stroke="black" d="M672.713,-85.959C593.485,-71.3294 481.363,-50.6259 411.748,-37.7711"/>
<polygon fill="black" stroke="black" points="412.263,-34.3072 401.794,-35.9331 410.992,-41.1909 412.263,-34.3072"/>
</g>
</g>
</svg>
        <g id="navigator" transform="translate(0 0)" fill="#404254">
                <rect fill="#f2f5e9" fill-opacity="0.5" stroke="#606060" stroke-width=".5" x="0" y="0" width="60" height="60"/>
                <use id="zoomplus" xlink:href="#zoomPlus" x="17" y="9" onmousedown="handleZoom(evt,'in')"/>
                <use id="zoomminus" xlink:href="#zoomMin" x="42" y="9" onmousedown="handleZoom(evt,'out')"/>
                <use id="reset" xlink:href="#resetDef" x="30" y="36" onmousedown="handleReset()"/>
                <g id="arrowUp" xlink:href="#dirArrow" transform="translate(30 24)" onmousedown="handlePan(0,-1)">
                  <use xlink:href="#rim" fill="#404040">
                        <set attributeName="fill" to="#808080" begin="arrowUp.mouseover" end="arrowUp.mouseout"/>
                  </use>
                  <path fill="none" stroke="white" stroke-width="1.5" d="M0,-3.0v7 M-2.5,-0.5L0,-3.0L2.5,-0.5"/>
                </g>
                <g id="arrowRight" xlink:href="#dirArrow" transform="rotate(90) translate(36 -43)" onmousedown="handlePan(1,0)">
                  <use xlink:href="#rim" fill="#404040">
                        <set attributeName="fill" to="#808080" begin="arrowRight.mouseover" end="arrowRight.mouseout"/>
                  </use>
                  <path fill="none" stroke="white" stroke-width="1.5" d="M0,-3.0v7 M-2.5,-0.5L0,-3.0L2.5,-0.5"/>
                </g>
                <g id="arrowDown" xlink:href="#dirArrow" transform="rotate(180) translate(-30 -48)" onmousedown="handlePan(0,1)">
                  <use xlink:href="#rim" fill="#404040">
                        <set attributeName="fill" to="#808080" begin="arrowDown.mouseover" end="arrowDown.mouseout"/>
                  </use>
                  <path fill="none" stroke="white" stroke-width="1.5" d="M0,-3.0v7 M-2.5,-0.5L0,-3.0L2.5,-0.5"/>
                </g>
                <g id="arrowLeft" xlink:href="#dirArrow" transform="rotate(270) translate(-36 17)" onmousedown="handlePan(-1,0)">
                  <use xlink:href="#rim" fill="#404040">
                        <set attributeName="fill" to="#808080" begin="arrowLeft.mouseover" end="arrowLeft.mouseout"/>
                  </use>
                  <path fill="none" stroke="white" stroke-width="1.5" d="M0,-3.0v7 M-2.5,-0.5L0,-3.0L2.5,-0.5"/>
                </g>
        </g>
        <svg viewBox="0 0 15 15" width="100%" height="30px" preserveAspectRatio="xMaxYMin meet">
         <g id="arrow_out" transform="scale(0.3 0.3)">
          <a xlink:href="dot_inline_dotgraph_5_org.svg" target="_base">
           <rect id="button" ry="5" rx="5" y="6" x="6" height="38" width="38"
                fill="#f2f5e9" fill-opacity="0.5" stroke="#606060" stroke-width="1.0"/>
           <path id="arrow"
             d="M 11.500037,31.436501 C 11.940474,20.09759 22.043105,11.32322 32.158766,21.979434 L 37.068811,17.246167 C 37.068811,17.246167 37.088388,32 37.088388,32 L 22.160133,31.978069 C 22.160133,31.978069 26.997745,27.140456 26.997745,27.140456 C 18.528582,18.264221 13.291696,25.230495 11.500037,31.436501 z"
             style="fill:#404040;"/>
          </a>
         </g>
        </svg>
</svg>
