<?xml version="1.0" encoding="UTF-8" standalone="no"?>
<!DOCTYPE svg PUBLIC "-//W3C//DTD SVG 1.1//EN"
 "http://www.w3.org/Graphics/SVG/1.1/DTD/svg11.dtd">
<!-- Generated by graphviz version 2.34.0 (20131025.1349)
 -->
<!-- Title: rigid Pages: 1 -->
<!--zoomable 206 -->
<svg id="main" version="1.1" xmlns="http://www.w3.org/2000/svg" xmlns:xlink="http://www.w3.org/1999/xlink" xml:space="preserve" onload="init(evt)">
<style type="text/css"><![CDATA[
.edge:hover path { stroke: red; }
.edge:hover polygon { stroke: red; fill: red; }
]]></style>
<script type="text/javascript"><![CDATA[
var edges = document.getElementsByTagName('g');
if (edges && edges.length) {
  for (var i=0;i<edges.length;i++) {
    if (edges[i].id.substr(0,4)=='edge') {
      edges[i].setAttribute('class','edge');
    }
  }
}
]]></script>
        <defs>
                <circle id="rim" cx="0" cy="0" r="7"/>
                <circle id="rim2" cx="0" cy="0" r="3.5"/>
                <g id="zoomPlus">
                        <use xlink:href="#rim" fill="#404040">
                                <set attributeName="fill" to="#808080" begin="zoomplus.mouseover" end="zoomplus.mouseout"/>
                        </use>
                        <path d="M-4,0h8M0,-4v8" fill="none" stroke="white" stroke-width="1.5" pointer-events="none"/>
                </g>
                <g id="zoomMin">
                        <use xlink:href="#rim" fill="#404040">
                                <set attributeName="fill" to="#808080" begin="zoomminus.mouseover" end="zoomminus.mouseout"/>
                        </use>
                        <path d="M-4,0h8" fill="none" stroke="white" stroke-width="1.5" pointer-events="none"/>
                </g>
                <g id="dirArrow">
                        <path fill="none" stroke="white" stroke-width="1.5" d="M0,-3.0v7 M-2.5,-0.5L0,-3.0L2.5,-0.5"/>
                </g>
               <g id="resetDef">
                       <use xlink:href="#rim2" fill="#404040">
                               <set attributeName="fill" to="#808080" begin="reset.mouseover" end="reset.mouseout"/>
                       </use>
               </g>
        </defs>

<script type="text/javascript">
var viewWidth = 1195;
var viewHeight = 206;
</script>
<script xlink:href="svgpan.js"/>
<svg id="graph" class="graph">
<g id="viewport">
<title>rigid</title>
<polygon fill="white" stroke="white" points="-4,4 -4,-202 1191,-202 1191,4 -4,4"/>
<!-- root -->
<g id="node1" class="node"><title>root</title>
<ellipse fill="none" stroke="black" cx="547" cy="-171" rx="26.3877" ry="26.6849"/>
<text text-anchor="middle" x="547" y="-165.4" font-family="Times,serif" font-size="14.00">root</text>
</g>
<!-- copy_0 -->
<g id="node2" class="node"><title>copy_0</title>
<g id="a_node2"><a xlink:href="classRMF_1_1decorator_1_1ReferenceFrame.html" target="_top" xlink:title="Copy 0 (RMF::decorator::ReferenceFrame)">
<polygon fill="none" stroke="black" points="260.109,-108 257.109,-112 236.109,-112 233.109,-108 -0.109151,-108 -0.109151,-72 260.109,-72 260.109,-108"/>
<text text-anchor="middle" x="130" y="-84.4" font-family="Times,serif" font-size="14.00">Copy 0 (RMF::decorator::ReferenceFrame)</text>
</a>
</g>
</g>
<!-- root&#45;&gt;copy_0 -->
<g id="edge1" class="edge"><title>root&#45;&gt;copy_0</title>
<path fill="none" stroke="black" d="M521.229,-165.118C464.463,-154.363 326.06,-128.143 230.098,-109.963"/>
<polygon fill="black" stroke="black" points="230.551,-106.487 220.075,-108.064 229.248,-113.365 230.551,-106.487"/>
</g>
<!-- copy_1 -->
<g id="node3" class="node"><title>copy_1</title>
<g id="a_node3"><a xlink:href="classRMF_1_1decorator_1_1ReferenceFrame.html" target="_top" xlink:title="Copy 1 (RMF::decorator::ReferenceFrame)">
<polygon fill="none" stroke="black" points="538.109,-108 535.109,-112 514.109,-112 511.109,-108 277.891,-108 277.891,-72 538.109,-72 538.109,-108"/>
<text text-anchor="middle" x="408" y="-84.4" font-family="Times,serif" font-size="14.00">Copy 1 (RMF::decorator::ReferenceFrame)</text>
</a>
</g>
</g>
<!-- root&#45;&gt;copy_1 -->
<g id="edge2" class="edge"><title>root&#45;&gt;copy_1</title>
<path fill="none" stroke="black" d="M524.358,-157.131C503.393,-145.216 471.779,-127.248 446.793,-113.048"/>
<polygon fill="black" stroke="black" points="448.342,-109.903 437.919,-108.004 444.884,-115.988 448.342,-109.903"/>
</g>
<!-- copy_2 -->
<g id="node4" class="node"><title>copy_2</title>
<g id="a_node4"><a xlink:href="classRMF_1_1decorator_1_1ReferenceFrame.html" target="_top" xlink:title="Copy 2 (RMF::decorator::ReferenceFrame)">
<polygon fill="none" stroke="black" points="816.109,-108 813.109,-112 792.109,-112 789.109,-108 555.891,-108 555.891,-72 816.109,-72 816.109,-108"/>
<text text-anchor="middle" x="686" y="-84.4" font-family="Times,serif" font-size="14.00">Copy 2 (RMF::decorator::ReferenceFrame)</text>
</a>
</g>
</g>
<!-- root&#45;&gt;copy_2 -->
<g id="edge3" class="edge"><title>root&#45;&gt;copy_2</title>
<path fill="none" stroke="black" d="M569.642,-157.131C590.607,-145.216 622.221,-127.248 647.207,-113.048"/>
<polygon fill="black" stroke="black" points="649.116,-115.988 656.081,-108.004 645.658,-109.903 649.116,-115.988"/>
</g>
<!-- em -->
<g id="node6" class="node"><title>em</title>
<g id="a_node6"><a xlink:href="classRMF_1_1decorator_1_1External.html" target="_top" xlink:title="External MRC (RMF::decorator::External)">
<ellipse fill="none" stroke="black" cx="1011" cy="-90" rx="176.163" ry="18"/>
<text text-anchor="middle" x="1011" y="-84.4" font-family="Times,serif" font-size="14.00">External MRC (RMF::decorator::External)</text>
</a>
</g>
</g>
<!-- root&#45;&gt;em -->
<g id="edge4" class="edge"><title>root&#45;&gt;em</title>
<path fill="none" stroke="black" d="M572.941,-165.583C637.161,-154.649 806.181,-125.872 914.509,-107.428"/>
<polygon fill="black" stroke="black" points="915.202,-110.861 924.472,-105.732 914.027,-103.96 915.202,-110.861"/>
</g>
<!-- pdb -->
<g id="node5" class="node"><title>pdb</title>
<g id="a_node5"><a xlink:href="classRMF_1_1decorator_1_1External.html" target="_top" xlink:title="External PDB (RMF::decorator::External)">
<ellipse fill="none" stroke="black" cx="408" cy="-18" rx="174.138" ry="18"/>
<text text-anchor="middle" x="408" y="-12.4" font-family="Times,serif" font-size="14.00">External PDB (RMF::decorator::External)</text>
</a>
</g>
</g>
<!-- copy_0&#45;&gt;pdb -->
<g id="edge5" class="edge"><title>copy_0&#45;&gt;pdb</title>
<path fill="none" stroke="black" d="M197.651,-71.9656C239.251,-61.4906 292.55,-48.0702 335.087,-37.3595"/>
<polygon fill="black" stroke="black" points="335.978,-40.7444 344.82,-34.9085 334.268,-33.9563 335.978,-40.7444"/>
</g>
<!-- copy_1&#45;&gt;pdb -->
<g id="edge6" class="edge"><title>copy_1&#45;&gt;pdb</title>
<path fill="none" stroke="black" d="M408,-71.6966C408,-63.9827 408,-54.7125 408,-46.1124"/>
<polygon fill="black" stroke="black" points="411.5,-46.1043 408,-36.1043 404.5,-46.1044 411.5,-46.1043"/>
</g>
<!-- copy_2&#45;&gt;pdb -->
<g id="edge7" class="edge"><title>copy_2&#45;&gt;pdb</title>
<path fill="none" stroke="black" d="M618.349,-71.9656C576.749,-61.4906 523.45,-48.0702 480.913,-37.3595"/>
<polygon fill="black" stroke="black" points="481.732,-33.9563 471.18,-34.9085 480.022,-40.7444 481.732,-33.9563"/>
</g>
</g>
</svg>
        <g id="navigator" transform="translate(0 0)" fill="#404254">
                <rect fill="#f2f5e9" fill-opacity="0.5" stroke="#606060" stroke-width=".5" x="0" y="0" width="60" height="60"/>
                <use id="zoomplus" xlink:href="#zoomPlus" x="17" y="9" onmousedown="handleZoom(evt,'in')"/>
                <use id="zoomminus" xlink:href="#zoomMin" x="42" y="9" onmousedown="handleZoom(evt,'out')"/>
                <use id="reset" xlink:href="#resetDef" x="30" y="36" onmousedown="handleReset()"/>
                <g id="arrowUp" xlink:href="#dirArrow" transform="translate(30 24)" onmousedown="handlePan(0,-1)">
                  <use xlink:href="#rim" fill="#404040">
                        <set attributeName="fill" to="#808080" begin="arrowUp.mouseover" end="arrowUp.mouseout"/>
                  </use>
                  <path fill="none" stroke="white" stroke-width="1.5" d="M0,-3.0v7 M-2.5,-0.5L0,-3.0L2.5,-0.5"/>
                </g>
                <g id="arrowRight" xlink:href="#dirArrow" transform="rotate(90) translate(36 -43)" onmousedown="handlePan(1,0)">
                  <use xlink:href="#rim" fill="#404040">
                        <set attributeName="fill" to="#808080" begin="arrowRight.mouseover" end="arrowRight.mouseout"/>
                  </use>
                  <path fill="none" stroke="white" stroke-width="1.5" d="M0,-3.0v7 M-2.5,-0.5L0,-3.0L2.5,-0.5"/>
                </g>
                <g id="arrowDown" xlink:href="#dirArrow" transform="rotate(180) translate(-30 -48)" onmousedown="handlePan(0,1)">
                  <use xlink:href="#rim" fill="#404040">
                        <set attributeName="fill" to="#808080" begin="arrowDown.mouseover" end="arrowDown.mouseout"/>
                  </use>
                  <path fill="none" stroke="white" stroke-width="1.5" d="M0,-3.0v7 M-2.5,-0.5L0,-3.0L2.5,-0.5"/>
                </g>
                <g id="arrowLeft" xlink:href="#dirArrow" transform="rotate(270) translate(-36 17)" onmousedown="handlePan(-1,0)">
                  <use xlink:href="#rim" fill="#404040">
                        <set attributeName="fill" to="#808080" begin="arrowLeft.mouseover" end="arrowLeft.mouseout"/>
                  </use>
                  <path fill="none" stroke="white" stroke-width="1.5" d="M0,-3.0v7 M-2.5,-0.5L0,-3.0L2.5,-0.5"/>
                </g>
        </g>
        <svg viewBox="0 0 15 15" width="100%" height="30px" preserveAspectRatio="xMaxYMin meet">
         <g id="arrow_out" transform="scale(0.3 0.3)">
          <a xlink:href="dot_inline_dotgraph_3_org.svg" target="_base">
           <rect id="button" ry="5" rx="5" y="6" x="6" height="38" width="38"
                fill="#f2f5e9" fill-opacity="0.5" stroke="#606060" stroke-width="1.0"/>
           <path id="arrow"
             d="M 11.500037,31.436501 C 11.940474,20.09759 22.043105,11.32322 32.158766,21.979434 L 37.068811,17.246167 C 37.068811,17.246167 37.088388,32 37.088388,32 L 22.160133,31.978069 C 22.160133,31.978069 26.997745,27.140456 26.997745,27.140456 C 18.528582,18.264221 13.291696,25.230495 11.500037,31.436501 z"
             style="fill:#404040;"/>
          </a>
         </g>
        </svg>
</svg>
