<?xml version="1.0" encoding="UTF-8" standalone="no"?>
<!DOCTYPE svg PUBLIC "-//W3C//DTD SVG 1.1//EN"
 "http://www.w3.org/Graphics/SVG/1.1/DTD/svg11.dtd">
<!-- Generated by graphviz version 2.34.0 (20131025.1349)
 -->
<!-- Title: key Pages: 1 -->
<svg width="1240pt" height="134pt"
 viewBox="0.00 0.00 1240.00 134.00" xmlns="http://www.w3.org/2000/svg" xmlns:xlink="http://www.w3.org/1999/xlink">
<g id="graph0" class="graph" transform="scale(1 1) rotate(0) translate(4 130)">
<title>key</title>
<polygon fill="white" stroke="white" points="-4,4 -4,-130 1236,-130 1236,4 -4,4"/>
<!-- root -->
<g id="node1" class="node"><title>root</title>
<g id="a_node1"><a xlink:href="namespaceRMF.html#aa6d80cceaf7767a5b06235e638c97886" target="_top" xlink:title="RMF::ROOT">
<ellipse fill="none" stroke="black" cx="63" cy="-63" rx="63.1332" ry="63.1776"/>
<text text-anchor="middle" x="63" y="-57.4" font-family="Times,serif" font-size="14.00">RMF::ROOT</text>
</a>
</g>
</g>
<!-- rep -->
<g id="node2" class="node"><title>rep</title>
<g id="a_node2"><a xlink:href="namespaceRMF.html#ae825b3e314808ddf3813c8035f74d524" target="_top" xlink:title="RMF::REPRESENTATION">
<ellipse fill="none" stroke="black" cx="263" cy="-63" rx="119.287" ry="18"/>
<text text-anchor="middle" x="263" y="-57.4" font-family="Times,serif" font-size="14.00">RMF::REPRESENTATION</text>
</a>
</g>
</g>
<!-- bond -->
<g id="node3" class="node"><title>bond</title>
<g id="a_node3"><a xlink:href="namespaceRMF.html#a3bcd8902b6a60baf3d3afe915d82b0da" target="_top" xlink:title="RMF::BOND">
<polygon fill="none" stroke="black" points="401.033,-57.4377 480,-45 558.967,-57.4377 558.893,-77.5623 401.107,-77.5623 401.033,-57.4377"/>
<text text-anchor="middle" x="480" y="-57.4" font-family="Times,serif" font-size="14.00">RMF::BOND</text>
</a>
</g>
</g>
<!-- org -->
<g id="node4" class="node"><title>org</title>
<g id="a_node4"><a xlink:href="namespaceRMF.html#a8b2ed97e335a57e2ae5334636c7a681f" target="_top" xlink:title="RMF::ORGANIZATIONAL">
<polygon fill="none" stroke="black" points="754.25,-81 751.25,-85 730.25,-85 727.25,-81 577.75,-81 577.75,-45 754.25,-45 754.25,-81"/>
<text text-anchor="middle" x="666" y="-57.4" font-family="Times,serif" font-size="14.00">RMF::ORGANIZATIONAL</text>
</a>
</g>
</g>
<!-- feat -->
<g id="node5" class="node"><title>feat</title>
<g id="a_node5"><a xlink:href="namespaceRMF.html#a41b1d1423b170714f584475cb5e4d842" target="_top" xlink:title="RMF::FEATURE">
<polygon fill="none" stroke="black" points="955.156,-63 909.578,-81 818.422,-81 772.844,-63 818.422,-45 909.578,-45 955.156,-63"/>
<text text-anchor="middle" x="864" y="-57.4" font-family="Times,serif" font-size="14.00">RMF::FEATURE</text>
</a>
</g>
</g>
<!-- tree -->
<g id="node6" class="node"><title>tree</title>
<polygon fill="none" stroke="black" points="1103,-87.6016 973.702,-50.6992 1232.3,-50.6992 1103,-87.6016"/>
<text text-anchor="middle" x="1103" y="-57.4" font-family="Times,serif" font-size="14.00">elided subtree</text>
</g>
</g>
</svg>
