<?xml version="1.0" encoding="UTF-8" standalone="no"?>
<!DOCTYPE svg PUBLIC "-//W3C//DTD SVG 1.1//EN"
 "http://www.w3.org/Graphics/SVG/1.1/DTD/svg11.dtd">
<!-- Generated by graphviz version 2.36.0 (20140111.2315)
 -->
<!-- Title: symmetry Pages: 1 -->
<!--zoomable 210 -->
<svg id="main" version="1.1" xmlns="http://www.w3.org/2000/svg" xmlns:xlink="http://www.w3.org/1999/xlink" xml:space="preserve" onload="init(evt)">
<style type="text/css"><![CDATA[
.edge:hover path { stroke: red; }
.edge:hover polygon { stroke: red; fill: red; }
]]></style>
<script type="text/javascript"><![CDATA[
var edges = document.getElementsByTagName('g');
if (edges && edges.length) {
  for (var i=0;i<edges.length;i++) {
    if (edges[i].id.substr(0,4)=='edge') {
      edges[i].setAttribute('class','edge');
    }
  }
}
]]></script>
        <defs>
                <circle id="rim" cx="0" cy="0" r="7"/>
                <circle id="rim2" cx="0" cy="0" r="3.5"/>
                <g id="zoomPlus">
                        <use xlink:href="#rim" fill="#404040">
                                <set attributeName="fill" to="#808080" begin="zoomplus.mouseover" end="zoomplus.mouseout"/>
                        </use>
                        <path d="M-4,0h8M0,-4v8" fill="none" stroke="white" stroke-width="1.5" pointer-events="none"/>
                </g>
                <g id="zoomMin">
                        <use xlink:href="#rim" fill="#404040">
                                <set attributeName="fill" to="#808080" begin="zoomminus.mouseover" end="zoomminus.mouseout"/>
                        </use>
                        <path d="M-4,0h8" fill="none" stroke="white" stroke-width="1.5" pointer-events="none"/>
                </g>
                <g id="dirArrow">
                        <path fill="none" stroke="white" stroke-width="1.5" d="M0,-3.0v7 M-2.5,-0.5L0,-3.0L2.5,-0.5"/>
                </g>
               <g id="resetDef">
                       <use xlink:href="#rim2" fill="#404040">
                               <set attributeName="fill" to="#808080" begin="reset.mouseover" end="reset.mouseout"/>
                       </use>
               </g>
        </defs>

<script type="text/javascript">
var viewWidth = 903;
var viewHeight = 210;
</script>
<script xlink:href="svgpan.js"/>
<svg id="graph" class="graph">
<g id="viewport">
<title>symmetry</title>
<polygon fill="white" stroke="none" points="-4,4 -4,-206 899,-206 899,4 -4,4"/>
<!-- root -->
<g id="node1" class="node"><title>root</title>
<ellipse fill="none" stroke="black" cx="348" cy="-177" rx="24.0303" ry="24.2053"/>
<text text-anchor="middle" x="348" y="-172.8" font-family="Times,serif" font-size="14.00">root</text>
</g>
<!-- unit_cell -->
<g id="node2" class="node"><title>unit_cell</title>
<polygon fill="none" stroke="black" points="60.6137,-116 57.6137,-120 36.6137,-120 33.6137,-116 -0.613722,-116 -0.613722,-80 60.6137,-80 60.6137,-116"/>
<text text-anchor="middle" x="30" y="-93.8" font-family="Times,serif" font-size="14.00">unit cell</text>
</g>
<!-- root&#45;&gt;unit_cell -->
<g id="edge1" class="edge"><title>root&#45;&gt;unit_cell</title>
<path fill="none" stroke="black" d="M324.175,-172.422C277.182,-165.035 169.264,-146.442 70.6124,-115.863"/>
<polygon fill="black" stroke="black" points="71.3802,-112.435 60.7906,-112.768 69.2766,-119.112 71.3802,-112.435"/>
</g>
<!-- copy_0 -->
<g id="node4" class="node"><title>copy_0</title>
<g id="a_node4"><a xlink:href="classRMF_1_1decorator_1_1ReferenceFrame.html" target="_top" xlink:title="Copy 0 (RMF::decorator::ReferenceFrame)">
<polygon fill="none" stroke="black" points="339.109,-116 336.109,-120 315.109,-120 312.109,-116 78.8908,-116 78.8908,-80 339.109,-80 339.109,-116"/>
<text text-anchor="middle" x="209" y="-93.8" font-family="Times,serif" font-size="14.00">Copy 0 (RMF::decorator::ReferenceFrame)</text>
</a>
</g>
</g>
<!-- root&#45;&gt;copy_0 -->
<g id="edge3" class="edge"><title>root&#45;&gt;copy_0</title>
<path fill="none" stroke="black" d="M327.19,-164.472C306.46,-152.988 274.114,-135.07 248.498,-120.88"/>
<polygon fill="black" stroke="black" points="250.191,-117.817 239.748,-116.033 246.799,-123.94 250.191,-117.817"/>
</g>
<!-- copy_1 -->
<g id="node5" class="node"><title>copy_1</title>
<g id="a_node5"><a xlink:href="classRMF_1_1decorator_1_1ReferenceFrame.html" target="_top" xlink:title="Copy 1 (RMF::decorator::ReferenceFrame)">
<polygon fill="none" stroke="black" points="617.109,-116 614.109,-120 593.109,-120 590.109,-116 356.891,-116 356.891,-80 617.109,-80 617.109,-116"/>
<text text-anchor="middle" x="487" y="-93.8" font-family="Times,serif" font-size="14.00">Copy 1 (RMF::decorator::ReferenceFrame)</text>
</a>
</g>
</g>
<!-- root&#45;&gt;copy_1 -->
<g id="edge5" class="edge"><title>root&#45;&gt;copy_1</title>
<path fill="none" stroke="black" d="M368.81,-164.472C389.54,-152.988 421.886,-135.07 447.502,-120.88"/>
<polygon fill="black" stroke="black" points="449.201,-123.94 456.252,-116.033 445.809,-117.817 449.201,-123.94"/>
</g>
<!-- copy_2 -->
<g id="node6" class="node"><title>copy_2</title>
<g id="a_node6"><a xlink:href="classRMF_1_1decorator_1_1ReferenceFrame.html" target="_top" xlink:title="Copy 2 (RMF::decorator::ReferenceFrame)">
<polygon fill="none" stroke="black" points="895.109,-116 892.109,-120 871.109,-120 868.109,-116 634.891,-116 634.891,-80 895.109,-80 895.109,-116"/>
<text text-anchor="middle" x="765" y="-93.8" font-family="Times,serif" font-size="14.00">Copy 2 (RMF::decorator::ReferenceFrame)</text>
</a>
</g>
</g>
<!-- root&#45;&gt;copy_2 -->
<g id="edge7" class="edge"><title>root&#45;&gt;copy_2</title>
<path fill="none" stroke="black" d="M371.615,-171.64C426.583,-161.489 565.795,-135.784 662.917,-117.85"/>
<polygon fill="black" stroke="black" points="663.571,-121.288 672.769,-116.031 662.3,-114.405 663.571,-121.288"/>
</g>
<!-- structure -->
<g id="node3" class="node"><title>structure</title>
<polygon fill="none" stroke="black" points="348,-44 215.463,-11 480.537,-11 348,-44"/>
<text text-anchor="middle" x="348" y="-17.8" font-family="Times,serif" font-size="14.00">structural nodes</text>
</g>
<!-- unit_cell&#45;&gt;structure -->
<g id="edge2" class="edge"><title>unit_cell&#45;&gt;structure</title>
<path fill="none" stroke="black" d="M60.7803,-83.199C63.8648,-82.0338 66.9743,-80.9428 70,-80 142.107,-57.5326 227.541,-41.5339 284.485,-32.3131"/>
<polygon fill="black" stroke="black" points="285.102,-35.7589 294.425,-30.7255 283.998,-28.8465 285.102,-35.7589"/>
</g>
<!-- copy_0&#45;&gt;structure -->
<g id="edge4" class="edge"><title>copy_0&#45;&gt;structure</title>
<path fill="none" stroke="black" d="M241.239,-79.8369C262.431,-68.5545 290.187,-53.7783 312.085,-42.12"/>
<polygon fill="black" stroke="black" points="313.894,-45.1225 321.076,-37.3337 310.604,-38.9436 313.894,-45.1225"/>
</g>
<!-- copy_1&#45;&gt;structure -->
<g id="edge6" class="edge"><title>copy_1&#45;&gt;structure</title>
<path fill="none" stroke="black" d="M454.761,-79.8369C433.569,-68.5545 405.813,-53.7783 383.915,-42.12"/>
<polygon fill="black" stroke="black" points="385.396,-38.9436 374.924,-37.3337 382.106,-45.1225 385.396,-38.9436"/>
</g>
<!-- copy_2&#45;&gt;structure -->
<g id="edge8" class="edge"><title>copy_2&#45;&gt;structure</title>
<path fill="none" stroke="black" d="M669.07,-79.9765C588.436,-65.6673 475.722,-45.6653 407.523,-33.5628"/>
<polygon fill="black" stroke="black" points="407.84,-30.0645 397.382,-31.7633 406.617,-36.9568 407.84,-30.0645"/>
</g>
</g>
</svg>
        <g id="navigator" transform="translate(0 0)" fill="#404254">
                <rect fill="#f2f5e9" fill-opacity="0.5" stroke="#606060" stroke-width=".5" x="0" y="0" width="60" height="60"/>
                <use id="zoomplus" xlink:href="#zoomPlus" x="17" y="9" onmousedown="handleZoom(evt,'in')"/>
                <use id="zoomminus" xlink:href="#zoomMin" x="42" y="9" onmousedown="handleZoom(evt,'out')"/>
                <use id="reset" xlink:href="#resetDef" x="30" y="36" onmousedown="handleReset()"/>
                <g id="arrowUp" xlink:href="#dirArrow" transform="translate(30 24)" onmousedown="handlePan(0,-1)">
                  <use xlink:href="#rim" fill="#404040">
                        <set attributeName="fill" to="#808080" begin="arrowUp.mouseover" end="arrowUp.mouseout"/>
                  </use>
                  <path fill="none" stroke="white" stroke-width="1.5" d="M0,-3.0v7 M-2.5,-0.5L0,-3.0L2.5,-0.5"/>
                </g>
                <g id="arrowRight" xlink:href="#dirArrow" transform="rotate(90) translate(36 -43)" onmousedown="handlePan(1,0)">
                  <use xlink:href="#rim" fill="#404040">
                        <set attributeName="fill" to="#808080" begin="arrowRight.mouseover" end="arrowRight.mouseout"/>
                  </use>
                  <path fill="none" stroke="white" stroke-width="1.5" d="M0,-3.0v7 M-2.5,-0.5L0,-3.0L2.5,-0.5"/>
                </g>
                <g id="arrowDown" xlink:href="#dirArrow" transform="rotate(180) translate(-30 -48)" onmousedown="handlePan(0,1)">
                  <use xlink:href="#rim" fill="#404040">
                        <set attributeName="fill" to="#808080" begin="arrowDown.mouseover" end="arrowDown.mouseout"/>
                  </use>
                  <path fill="none" stroke="white" stroke-width="1.5" d="M0,-3.0v7 M-2.5,-0.5L0,-3.0L2.5,-0.5"/>
                </g>
                <g id="arrowLeft" xlink:href="#dirArrow" transform="rotate(270) translate(-36 17)" onmousedown="handlePan(-1,0)">
                  <use xlink:href="#rim" fill="#404040">
                        <set attributeName="fill" to="#808080" begin="arrowLeft.mouseover" end="arrowLeft.mouseout"/>
                  </use>
                  <path fill="none" stroke="white" stroke-width="1.5" d="M0,-3.0v7 M-2.5,-0.5L0,-3.0L2.5,-0.5"/>
                </g>
        </g>
        <svg viewBox="0 0 15 15" width="100%" height="30px" preserveAspectRatio="xMaxYMin meet">
         <g id="arrow_out" transform="scale(0.3 0.3)">
          <a xlink:href="dot_inline_dotgraph_5_org.svg" target="_base">
           <rect id="button" ry="5" rx="5" y="6" x="6" height="38" width="38"
                fill="#f2f5e9" fill-opacity="0.5" stroke="#606060" stroke-width="1.0"/>
           <path id="arrow"
             d="M 11.500037,31.436501 C 11.940474,20.09759 22.043105,11.32322 32.158766,21.979434 L 37.068811,17.246167 C 37.068811,17.246167 37.088388,32 37.088388,32 L 22.160133,31.978069 C 22.160133,31.978069 26.997745,27.140456 26.997745,27.140456 C 18.528582,18.264221 13.291696,25.230495 11.500037,31.436501 z"
             style="fill:#404040;"/>
          </a>
         </g>
        </svg>
</svg>
