<?xml version="1.0" encoding="UTF-8" standalone="no"?>
<!DOCTYPE svg PUBLIC "-//W3C//DTD SVG 1.1//EN"
 "http://www.w3.org/Graphics/SVG/1.1/DTD/svg11.dtd">
<!-- Generated by graphviz version 2.36.0 (20140111.2315)
 -->
<!-- Title: key Pages: 1 -->
<!--zoomable 124 -->
<svg id="main" version="1.1" xmlns="http://www.w3.org/2000/svg" xmlns:xlink="http://www.w3.org/1999/xlink" xml:space="preserve" onload="init(evt)">
<style type="text/css"><![CDATA[
.edge:hover path { stroke: red; }
.edge:hover polygon { stroke: red; fill: red; }
]]></style>
<script type="text/javascript"><![CDATA[
var edges = document.getElementsByTagName('g');
if (edges && edges.length) {
  for (var i=0;i<edges.length;i++) {
    if (edges[i].id.substr(0,4)=='edge') {
      edges[i].setAttribute('class','edge');
    }
  }
}
]]></script>
        <defs>
                <circle id="rim" cx="0" cy="0" r="7"/>
                <circle id="rim2" cx="0" cy="0" r="3.5"/>
                <g id="zoomPlus">
                        <use xlink:href="#rim" fill="#404040">
                                <set attributeName="fill" to="#808080" begin="zoomplus.mouseover" end="zoomplus.mouseout"/>
                        </use>
                        <path d="M-4,0h8M0,-4v8" fill="none" stroke="white" stroke-width="1.5" pointer-events="none"/>
                </g>
                <g id="zoomMin">
                        <use xlink:href="#rim" fill="#404040">
                                <set attributeName="fill" to="#808080" begin="zoomminus.mouseover" end="zoomminus.mouseout"/>
                        </use>
                        <path d="M-4,0h8" fill="none" stroke="white" stroke-width="1.5" pointer-events="none"/>
                </g>
                <g id="dirArrow">
                        <path fill="none" stroke="white" stroke-width="1.5" d="M0,-3.0v7 M-2.5,-0.5L0,-3.0L2.5,-0.5"/>
                </g>
               <g id="resetDef">
                       <use xlink:href="#rim2" fill="#404040">
                               <set attributeName="fill" to="#808080" begin="reset.mouseover" end="reset.mouseout"/>
                       </use>
               </g>
        </defs>

<script type="text/javascript">
var viewWidth = 1158;
var viewHeight = 124;
</script>
<script xlink:href="svgpan.js"/>
<svg id="graph" class="graph">
<g id="viewport">
<title>key</title>
<polygon fill="white" stroke="none" points="-4,4 -4,-120 1154,-120 1154,4 -4,4"/>
<!-- root -->
<g id="node1" class="node"><title>root</title>
<g id="a_node1"><a xlink:href="namespaceRMF.html#aa6d80cceaf7767a5b06235e638c97886" target="_top" xlink:title="RMF::ROOT">
<ellipse fill="none" stroke="black" cx="57" cy="-58" rx="57.1639" ry="57.5495"/>
<text text-anchor="middle" x="57" y="-53.8" font-family="Times,serif" font-size="14.00">RMF::ROOT</text>
</a>
</g>
</g>
<!-- rep -->
<g id="node2" class="node"><title>rep</title>
<g id="a_node2"><a xlink:href="namespaceRMF.html#ae825b3e314808ddf3813c8035f74d524" target="_top" xlink:title="RMF::REPRESENTATION">
<ellipse fill="none" stroke="black" cx="242" cy="-58" rx="109.227" ry="18"/>
<text text-anchor="middle" x="242" y="-53.8" font-family="Times,serif" font-size="14.00">RMF::REPRESENTATION</text>
</a>
</g>
</g>
<!-- bond -->
<g id="node3" class="node"><title>bond</title>
<g id="a_node3"><a xlink:href="namespaceRMF.html#a3bcd8902b6a60baf3d3afe915d82b0da" target="_top" xlink:title="RMF::BOND">
<polygon fill="none" stroke="black" points="369.555,-52.4377 442,-40 514.445,-52.4377 514.377,-72.5623 369.623,-72.5623 369.555,-52.4377"/>
<text text-anchor="middle" x="442" y="-53.8" font-family="Times,serif" font-size="14.00">RMF::BOND</text>
</a>
</g>
</g>
<!-- org -->
<g id="node4" class="node"><title>org</title>
<g id="a_node4"><a xlink:href="namespaceRMF.html#a8b2ed97e335a57e2ae5334636c7a681f" target="_top" xlink:title="RMF::ORGANIZATIONAL">
<polygon fill="none" stroke="black" points="709.25,-76 706.25,-80 685.25,-80 682.25,-76 532.75,-76 532.75,-40 709.25,-40 709.25,-76"/>
<text text-anchor="middle" x="621" y="-53.8" font-family="Times,serif" font-size="14.00">RMF::ORGANIZATIONAL</text>
</a>
</g>
</g>
<!-- feat -->
<g id="node5" class="node"><title>feat</title>
<g id="a_node5"><a xlink:href="namespaceRMF.html#a41b1d1423b170714f584475cb5e4d842" target="_top" xlink:title="RMF::FEATURE">
<polygon fill="none" stroke="black" points="894.602,-58 852.801,-76 769.199,-76 727.398,-58 769.199,-40 852.801,-40 894.602,-58"/>
<text text-anchor="middle" x="811" y="-53.8" font-family="Times,serif" font-size="14.00">RMF::FEATURE</text>
</a>
</g>
</g>
<!-- tree -->
<g id="node6" class="node"><title>tree</title>
<polygon fill="none" stroke="black" points="1032,-80 913.612,-47 1150.39,-47 1032,-80"/>
<text text-anchor="middle" x="1032" y="-53.8" font-family="Times,serif" font-size="14.00">elided subtree</text>
</g>
</g>
</svg>
        <g id="navigator" transform="translate(0 0)" fill="#404254">
                <rect fill="#f2f5e9" fill-opacity="0.5" stroke="#606060" stroke-width=".5" x="0" y="0" width="60" height="60"/>
                <use id="zoomplus" xlink:href="#zoomPlus" x="17" y="9" onmousedown="handleZoom(evt,'in')"/>
                <use id="zoomminus" xlink:href="#zoomMin" x="42" y="9" onmousedown="handleZoom(evt,'out')"/>
                <use id="reset" xlink:href="#resetDef" x="30" y="36" onmousedown="handleReset()"/>
                <g id="arrowUp" xlink:href="#dirArrow" transform="translate(30 24)" onmousedown="handlePan(0,-1)">
                  <use xlink:href="#rim" fill="#404040">
                        <set attributeName="fill" to="#808080" begin="arrowUp.mouseover" end="arrowUp.mouseout"/>
                  </use>
                  <path fill="none" stroke="white" stroke-width="1.5" d="M0,-3.0v7 M-2.5,-0.5L0,-3.0L2.5,-0.5"/>
                </g>
                <g id="arrowRight" xlink:href="#dirArrow" transform="rotate(90) translate(36 -43)" onmousedown="handlePan(1,0)">
                  <use xlink:href="#rim" fill="#404040">
                        <set attributeName="fill" to="#808080" begin="arrowRight.mouseover" end="arrowRight.mouseout"/>
                  </use>
                  <path fill="none" stroke="white" stroke-width="1.5" d="M0,-3.0v7 M-2.5,-0.5L0,-3.0L2.5,-0.5"/>
                </g>
                <g id="arrowDown" xlink:href="#dirArrow" transform="rotate(180) translate(-30 -48)" onmousedown="handlePan(0,1)">
                  <use xlink:href="#rim" fill="#404040">
                        <set attributeName="fill" to="#808080" begin="arrowDown.mouseover" end="arrowDown.mouseout"/>
                  </use>
                  <path fill="none" stroke="white" stroke-width="1.5" d="M0,-3.0v7 M-2.5,-0.5L0,-3.0L2.5,-0.5"/>
                </g>
                <g id="arrowLeft" xlink:href="#dirArrow" transform="rotate(270) translate(-36 17)" onmousedown="handlePan(-1,0)">
                  <use xlink:href="#rim" fill="#404040">
                        <set attributeName="fill" to="#808080" begin="arrowLeft.mouseover" end="arrowLeft.mouseout"/>
                  </use>
                  <path fill="none" stroke="white" stroke-width="1.5" d="M0,-3.0v7 M-2.5,-0.5L0,-3.0L2.5,-0.5"/>
                </g>
        </g>
        <svg viewBox="0 0 15 15" width="100%" height="30px" preserveAspectRatio="xMaxYMin meet">
         <g id="arrow_out" transform="scale(0.3 0.3)">
          <a xlink:href="dot_inline_dotgraph_1_org.svg" target="_base">
           <rect id="button" ry="5" rx="5" y="6" x="6" height="38" width="38"
                fill="#f2f5e9" fill-opacity="0.5" stroke="#606060" stroke-width="1.0"/>
           <path id="arrow"
             d="M 11.500037,31.436501 C 11.940474,20.09759 22.043105,11.32322 32.158766,21.979434 L 37.068811,17.246167 C 37.068811,17.246167 37.088388,32 37.088388,32 L 22.160133,31.978069 C 22.160133,31.978069 26.997745,27.140456 26.997745,27.140456 C 18.528582,18.264221 13.291696,25.230495 11.500037,31.436501 z"
             style="fill:#404040;"/>
          </a>
         </g>
        </svg>
</svg>
