<?xml version="1.0" encoding="UTF-8" standalone="no"?>
<!DOCTYPE svg PUBLIC "-//W3C//DTD SVG 1.1//EN"
 "http://www.w3.org/Graphics/SVG/1.1/DTD/svg11.dtd">
<!-- Generated by graphviz version 2.36.0 (20140111.2315)
 -->
<!-- Title: rigid Pages: 1 -->
<svg width="1165pt" height="202pt"
 viewBox="0.00 0.00 1165.00 202.00" xmlns="http://www.w3.org/2000/svg" xmlns:xlink="http://www.w3.org/1999/xlink">
<g id="graph0" class="graph" transform="scale(1 1) rotate(0) translate(4 198)">
<title>rigid</title>
<polygon fill="white" stroke="none" points="-4,4 -4,-198 1161,-198 1161,4 -4,4"/>
<!-- root -->
<g id="node1" class="node"><title>root</title>
<ellipse fill="none" stroke="black" cx="547" cy="-169" rx="24.0303" ry="24.2053"/>
<text text-anchor="middle" x="547" y="-164.8" font-family="Times,serif" font-size="14.00">root</text>
</g>
<!-- copy_0 -->
<g id="node2" class="node"><title>copy_0</title>
<g id="a_node2"><a xlink:href="classRMF_1_1decorator_1_1ReferenceFrame.html" target="_top" xlink:title="Copy 0 (RMF::decorator::ReferenceFrame)">
<polygon fill="none" stroke="black" points="260.109,-108 257.109,-112 236.109,-112 233.109,-108 -0.109151,-108 -0.109151,-72 260.109,-72 260.109,-108"/>
<text text-anchor="middle" x="130" y="-85.8" font-family="Times,serif" font-size="14.00">Copy 0 (RMF::decorator::ReferenceFrame)</text>
</a>
</g>
</g>
<!-- root&#45;&gt;copy_0 -->
<g id="edge1" class="edge"><title>root&#45;&gt;copy_0</title>
<path fill="none" stroke="black" d="M523.385,-163.64C468.417,-153.489 329.205,-127.784 232.083,-109.85"/>
<polygon fill="black" stroke="black" points="232.7,-106.405 222.231,-108.031 231.429,-113.288 232.7,-106.405"/>
</g>
<!-- copy_1 -->
<g id="node3" class="node"><title>copy_1</title>
<g id="a_node3"><a xlink:href="classRMF_1_1decorator_1_1ReferenceFrame.html" target="_top" xlink:title="Copy 1 (RMF::decorator::ReferenceFrame)">
<polygon fill="none" stroke="black" points="538.109,-108 535.109,-112 514.109,-112 511.109,-108 277.891,-108 277.891,-72 538.109,-72 538.109,-108"/>
<text text-anchor="middle" x="408" y="-85.8" font-family="Times,serif" font-size="14.00">Copy 1 (RMF::decorator::ReferenceFrame)</text>
</a>
</g>
</g>
<!-- root&#45;&gt;copy_1 -->
<g id="edge2" class="edge"><title>root&#45;&gt;copy_1</title>
<path fill="none" stroke="black" d="M526.19,-156.472C505.46,-144.988 473.114,-127.07 447.498,-112.88"/>
<polygon fill="black" stroke="black" points="449.191,-109.817 438.748,-108.033 445.799,-115.94 449.191,-109.817"/>
</g>
<!-- copy_2 -->
<g id="node4" class="node"><title>copy_2</title>
<g id="a_node4"><a xlink:href="classRMF_1_1decorator_1_1ReferenceFrame.html" target="_top" xlink:title="Copy 2 (RMF::decorator::ReferenceFrame)">
<polygon fill="none" stroke="black" points="816.109,-108 813.109,-112 792.109,-112 789.109,-108 555.891,-108 555.891,-72 816.109,-72 816.109,-108"/>
<text text-anchor="middle" x="686" y="-85.8" font-family="Times,serif" font-size="14.00">Copy 2 (RMF::decorator::ReferenceFrame)</text>
</a>
</g>
</g>
<!-- root&#45;&gt;copy_2 -->
<g id="edge3" class="edge"><title>root&#45;&gt;copy_2</title>
<path fill="none" stroke="black" d="M567.81,-156.472C588.54,-144.988 620.886,-127.07 646.502,-112.88"/>
<polygon fill="black" stroke="black" points="648.201,-115.94 655.252,-108.033 644.809,-109.817 648.201,-115.94"/>
</g>
<!-- em -->
<g id="node6" class="node"><title>em</title>
<g id="a_node6"><a xlink:href="classRMF_1_1decorator_1_1External.html" target="_top" xlink:title="External MRC (RMF::decorator::External)">
<ellipse fill="none" stroke="black" cx="996" cy="-90" rx="161.326" ry="18"/>
<text text-anchor="middle" x="996" y="-85.8" font-family="Times,serif" font-size="14.00">External MRC (RMF::decorator::External)</text>
</a>
</g>
</g>
<!-- root&#45;&gt;em -->
<g id="edge4" class="edge"><title>root&#45;&gt;em</title>
<path fill="none" stroke="black" d="M570.823,-163.915C631.856,-153.448 796.438,-125.223 902.016,-107.117"/>
<polygon fill="black" stroke="black" points="902.779,-110.538 912.044,-105.398 901.596,-103.638 902.779,-110.538"/>
</g>
<!-- pdb -->
<g id="node5" class="node"><title>pdb</title>
<g id="a_node5"><a xlink:href="classRMF_1_1decorator_1_1External.html" target="_top" xlink:title="External PDB (RMF::decorator::External)">
<ellipse fill="none" stroke="black" cx="408" cy="-18" rx="159.14" ry="18"/>
<text text-anchor="middle" x="408" y="-13.8" font-family="Times,serif" font-size="14.00">External PDB (RMF::decorator::External)</text>
</a>
</g>
</g>
<!-- copy_0&#45;&gt;pdb -->
<g id="edge5" class="edge"><title>copy_0&#45;&gt;pdb</title>
<path fill="none" stroke="black" d="M197.651,-71.9656C239.55,-61.4156 293.315,-47.8776 336,-37.1295"/>
<polygon fill="black" stroke="black" points="336.919,-40.5073 345.762,-34.6714 335.21,-33.7192 336.919,-40.5073"/>
</g>
<!-- copy_1&#45;&gt;pdb -->
<g id="edge6" class="edge"><title>copy_1&#45;&gt;pdb</title>
<path fill="none" stroke="black" d="M408,-71.6966C408,-63.9827 408,-54.7125 408,-46.1124"/>
<polygon fill="black" stroke="black" points="411.5,-46.1043 408,-36.1043 404.5,-46.1044 411.5,-46.1043"/>
</g>
<!-- copy_2&#45;&gt;pdb -->
<g id="edge7" class="edge"><title>copy_2&#45;&gt;pdb</title>
<path fill="none" stroke="black" d="M618.349,-71.9656C576.45,-61.4156 522.685,-47.8776 480,-37.1295"/>
<polygon fill="black" stroke="black" points="480.79,-33.7192 470.238,-34.6714 479.081,-40.5073 480.79,-33.7192"/>
</g>
</g>
</svg>
