<?xml version="1.0" encoding="UTF-8" standalone="no"?>
<!DOCTYPE svg PUBLIC "-//W3C//DTD SVG 1.1//EN"
 "http://www.w3.org/Graphics/SVG/1.1/DTD/svg11.dtd">
<!-- Generated by graphviz version 2.34.0 (20131025.1349)
 -->
<!-- Title: symmetry Pages: 1 -->
<!--zoomable 364 -->
<svg id="main" version="1.1" xmlns="http://www.w3.org/2000/svg" xmlns:xlink="http://www.w3.org/1999/xlink" xml:space="preserve" onload="init(evt)">
<style type="text/css"><![CDATA[
.edge:hover path { stroke: red; }
.edge:hover polygon { stroke: red; fill: red; }
]]></style>
<script type="text/javascript"><![CDATA[
var edges = document.getElementsByTagName('g');
if (edges && edges.length) {
  for (var i=0;i<edges.length;i++) {
    if (edges[i].id.substr(0,4)=='edge') {
      edges[i].setAttribute('class','edge');
    }
  }
}
]]></script>
        <defs>
                <circle id="rim" cx="0" cy="0" r="7"/>
                <circle id="rim2" cx="0" cy="0" r="3.5"/>
                <g id="zoomPlus">
                        <use xlink:href="#rim" fill="#404040">
                                <set attributeName="fill" to="#808080" begin="zoomplus.mouseover" end="zoomplus.mouseout"/>
                        </use>
                        <path d="M-4,0h8M0,-4v8" fill="none" stroke="white" stroke-width="1.5" pointer-events="none"/>
                </g>
                <g id="zoomMin">
                        <use xlink:href="#rim" fill="#404040">
                                <set attributeName="fill" to="#808080" begin="zoomminus.mouseover" end="zoomminus.mouseout"/>
                        </use>
                        <path d="M-4,0h8" fill="none" stroke="white" stroke-width="1.5" pointer-events="none"/>
                </g>
                <g id="dirArrow">
                        <path fill="none" stroke="white" stroke-width="1.5" d="M0,-3.0v7 M-2.5,-0.5L0,-3.0L2.5,-0.5"/>
                </g>
               <g id="resetDef">
                       <use xlink:href="#rim2" fill="#404040">
                               <set attributeName="fill" to="#808080" begin="reset.mouseover" end="reset.mouseout"/>
                       </use>
               </g>
        </defs>

<script type="text/javascript">
var viewWidth = 827;
var viewHeight = 364;
</script>
<script xlink:href="svgpan.js"/>
<svg id="graph" class="graph">
<g id="viewport">
<title>symmetry</title>
<polygon fill="white" stroke="white" points="-4,4 -4,-360 823,-360 823,4 -4,4"/>
<!-- root -->
<g id="node1" class="node"><title>root</title>
<ellipse fill="none" stroke="black" cx="435" cy="-329" rx="26.3877" ry="26.6849"/>
<text text-anchor="middle" x="435" y="-323.4" font-family="Times,serif" font-size="14.00">root</text>
</g>
<!-- unit_cell -->
<g id="node2" class="node"><title>unit_cell</title>
<polygon fill="none" stroke="black" points="439.235,-122 436.235,-126 415.235,-126 412.235,-122 374.765,-122 374.765,-86 439.235,-86 439.235,-122"/>
<text text-anchor="middle" x="407" y="-98.4" font-family="Times,serif" font-size="14.00">structure</text>
</g>
<!-- root&#45;&gt;unit_cell -->
<g id="edge1" class="edge"><title>root&#45;&gt;unit_cell</title>
<path fill="none" stroke="black" d="M431.169,-302.682C429.51,-291.455 427.589,-278.078 426,-266 419.832,-219.118 413.577,-164.428 410.005,-132.371"/>
<polygon fill="black" stroke="black" points="413.481,-131.964 408.901,-122.411 406.524,-132.736 413.481,-131.964"/>
</g>
<!-- bt -->
<g id="node7" class="node"><title>bt</title>
<polygon fill="none" stroke="black" points="493.293,-266 490.293,-270 469.293,-270 466.293,-266 434.707,-266 434.707,-230 493.293,-230 493.293,-266"/>
<text text-anchor="middle" x="464" y="-242.4" font-family="Times,serif" font-size="14.00">By fold</text>
</g>
<!-- root&#45;&gt;bt -->
<g id="edge6" class="edge"><title>root&#45;&gt;bt</title>
<path fill="none" stroke="black" d="M443.859,-303.868C447.137,-294.938 450.871,-284.765 454.226,-275.626"/>
<polygon fill="black" stroke="black" points="457.518,-276.815 457.678,-266.221 450.947,-274.402 457.518,-276.815"/>
</g>
<!-- a -->
<g id="node3" class="node"><title>a</title>
<polygon fill="none" stroke="black" points="724,-49.6016 628.623,-12.6992 819.377,-12.6992 724,-49.6016"/>
<text text-anchor="middle" x="724" y="-19.4" font-family="Times,serif" font-size="14.00">Protein A</text>
</g>
<!-- unit_cell&#45;&gt;a -->
<g id="edge2" class="edge"><title>unit_cell&#45;&gt;a</title>
<path fill="none" stroke="black" d="M439.435,-95.1215C495.604,-81.4779 611.215,-53.3957 676.467,-37.5458"/>
<polygon fill="black" stroke="black" points="677.6,-40.8726 686.491,-35.1111 675.947,-34.0704 677.6,-40.8726"/>
</g>
<!-- b -->
<g id="node4" class="node"><title>b</title>
<polygon fill="none" stroke="black" points="515,-49.6016 419.637,-12.6992 610.363,-12.6992 515,-49.6016"/>
<text text-anchor="middle" x="515" y="-19.4" font-family="Times,serif" font-size="14.00">Protein B</text>
</g>
<!-- unit_cell&#45;&gt;b -->
<g id="edge3" class="edge"><title>unit_cell&#45;&gt;b</title>
<path fill="none" stroke="black" d="M430.969,-85.9112C446.845,-74.5923 467.798,-59.6531 484.81,-47.5244"/>
<polygon fill="black" stroke="black" points="487.188,-50.1273 493.299,-41.4721 483.125,-44.4276 487.188,-50.1273"/>
</g>
<!-- c -->
<g id="node5" class="node"><title>c</title>
<polygon fill="none" stroke="black" points="306,-49.6016 210.637,-12.6992 401.363,-12.6992 306,-49.6016"/>
<text text-anchor="middle" x="306" y="-19.4" font-family="Times,serif" font-size="14.00">Protein C</text>
</g>
<!-- unit_cell&#45;&gt;c -->
<g id="edge4" class="edge"><title>unit_cell&#45;&gt;c</title>
<path fill="none" stroke="black" d="M384.585,-85.9112C369.972,-74.7709 350.76,-60.1237 334.989,-48.1007"/>
<polygon fill="black" stroke="black" points="336.708,-45.0096 326.633,-41.7301 332.464,-50.5763 336.708,-45.0096"/>
</g>
<!-- d -->
<g id="node6" class="node"><title>d</title>
<polygon fill="none" stroke="black" points="96,-49.6016 -0.461012,-12.6992 192.461,-12.6992 96,-49.6016"/>
<text text-anchor="middle" x="96" y="-19.4" font-family="Times,serif" font-size="14.00">Protein D</text>
</g>
<!-- unit_cell&#45;&gt;d -->
<g id="edge5" class="edge"><title>unit_cell&#45;&gt;d</title>
<path fill="none" stroke="black" d="M374.598,-94.9776C319.515,-81.3397 207.388,-53.5784 143.452,-37.7486"/>
<polygon fill="black" stroke="black" points="144.169,-34.3205 133.621,-35.3145 142.487,-41.1153 144.169,-34.3205"/>
</g>
<!-- bth -->
<g id="node8" class="node"><title>bth</title>
<polygon fill="none" stroke="black" points="344.349,-194 341.349,-198 320.349,-198 317.349,-194 267.651,-194 267.651,-158 344.349,-158 344.349,-194"/>
<text text-anchor="middle" x="306" y="-170.4" font-family="Times,serif" font-size="14.00">Beta barrel</text>
</g>
<!-- bt&#45;&gt;bth -->
<g id="edge8" class="edge"><title>bt&#45;&gt;bth</title>
<path fill="none" stroke="black" d="M434.652,-233.998C411.999,-223.962 380.188,-209.868 353.866,-198.206"/>
<polygon fill="black" stroke="black" points="355.004,-194.883 344.444,-194.032 352.169,-201.283 355.004,-194.883"/>
</g>
<!-- btx -->
<g id="node9" class="node"><title>btx</title>
<polygon fill="none" stroke="black" points="560.268,-194 557.268,-198 536.268,-198 533.268,-194 469.732,-194 469.732,-158 560.268,-158 560.268,-194"/>
<text text-anchor="middle" x="515" y="-170.4" font-family="Times,serif" font-size="14.00">Alpha helical</text>
</g>
<!-- bt&#45;&gt;btx -->
<g id="edge7" class="edge"><title>bt&#45;&gt;btx</title>
<path fill="none" stroke="black" d="M476.607,-229.697C482.597,-221.474 489.876,-211.483 496.479,-202.421"/>
<polygon fill="black" stroke="black" points="499.478,-204.248 502.538,-194.104 493.821,-200.126 499.478,-204.248"/>
</g>
<!-- btc -->
<g id="node12" class="node"><title>btc</title>
<ellipse fill="black" stroke="black" cx="306" cy="-104" rx="1.8" ry="1.8"/>
</g>
<!-- bth&#45;&gt;btc -->
<g id="edge11" class="edge"><title>bth&#45;&gt;btc</title>
<path fill="none" stroke="black" d="M306,-157.697C306,-144.635 306,-127.11 306,-115.934"/>
<polygon fill="black" stroke="black" points="309.5,-115.807 306,-105.807 302.5,-115.807 309.5,-115.807"/>
</g>
<!-- btd -->
<g id="node13" class="node"><title>btd</title>
<ellipse fill="black" stroke="black" cx="190" cy="-104" rx="1.8" ry="1.8"/>
</g>
<!-- bth&#45;&gt;btd -->
<g id="edge12" class="edge"><title>bth&#45;&gt;btd</title>
<path fill="none" stroke="black" d="M277.623,-157.876C252.395,-142.652 216.946,-121.26 199.908,-110.979"/>
<polygon fill="black" stroke="black" points="201.311,-107.738 190.941,-105.568 197.695,-113.731 201.311,-107.738"/>
</g>
<!-- bta -->
<g id="node10" class="node"><title>bta</title>
<ellipse fill="black" stroke="black" cx="630" cy="-104" rx="1.8" ry="1.8"/>
</g>
<!-- btx&#45;&gt;bta -->
<g id="edge9" class="edge"><title>btx&#45;&gt;bta</title>
<path fill="none" stroke="black" d="M543.132,-157.876C568.143,-142.652 603.286,-121.26 620.178,-110.979"/>
<polygon fill="black" stroke="black" points="622.345,-113.757 629.067,-105.568 618.705,-107.778 622.345,-113.757"/>
</g>
<!-- btb -->
<g id="node11" class="node"><title>btb</title>
<ellipse fill="black" stroke="black" cx="515" cy="-104" rx="1.8" ry="1.8"/>
</g>
<!-- btx&#45;&gt;btb -->
<g id="edge10" class="edge"><title>btx&#45;&gt;btb</title>
<path fill="none" stroke="black" d="M515,-157.697C515,-144.635 515,-127.11 515,-115.934"/>
<polygon fill="black" stroke="black" points="518.5,-115.807 515,-105.807 511.5,-115.807 518.5,-115.807"/>
</g>
<!-- bta&#45;&gt;a -->
<g id="edge13" class="edge"><title>bta&#45;&gt;a</title>
<path fill="none" stroke="black" d="M631.056,-102.135C637.426,-96.9171 671.301,-69.168 696.326,-48.6691"/>
<polygon fill="black" stroke="black" points="698.576,-51.3507 704.094,-42.3062 694.14,-45.9355 698.576,-51.3507"/>
</g>
<!-- btb&#45;&gt;b -->
<g id="edge14" class="edge"><title>btb&#45;&gt;b</title>
<path fill="none" stroke="black" d="M515,-102.135C515,-97.8336 515,-78.2203 515,-59.9796"/>
<polygon fill="black" stroke="black" points="518.5,-59.8096 515,-49.8097 511.5,-59.8097 518.5,-59.8096"/>
</g>
<!-- btc&#45;&gt;c -->
<g id="edge15" class="edge"><title>btc&#45;&gt;c</title>
<path fill="none" stroke="black" d="M306,-102.135C306,-97.8336 306,-78.2203 306,-59.9796"/>
<polygon fill="black" stroke="black" points="309.5,-59.8096 306,-49.8097 302.5,-59.8097 309.5,-59.8096"/>
</g>
<!-- btd&#45;&gt;d -->
<g id="edge16" class="edge"><title>btd&#45;&gt;d</title>
<path fill="none" stroke="black" d="M188.944,-102.135C182.574,-96.9171 148.699,-69.168 123.674,-48.6691"/>
<polygon fill="black" stroke="black" points="125.86,-45.9355 115.906,-42.3062 121.424,-51.3507 125.86,-45.9355"/>
</g>
</g>
</svg>
        <g id="navigator" transform="translate(0 0)" fill="#404254">
                <rect fill="#f2f5e9" fill-opacity="0.5" stroke="#606060" stroke-width=".5" x="0" y="0" width="60" height="60"/>
                <use id="zoomplus" xlink:href="#zoomPlus" x="17" y="9" onmousedown="handleZoom(evt,'in')"/>
                <use id="zoomminus" xlink:href="#zoomMin" x="42" y="9" onmousedown="handleZoom(evt,'out')"/>
                <use id="reset" xlink:href="#resetDef" x="30" y="36" onmousedown="handleReset()"/>
                <g id="arrowUp" xlink:href="#dirArrow" transform="translate(30 24)" onmousedown="handlePan(0,-1)">
                  <use xlink:href="#rim" fill="#404040">
                        <set attributeName="fill" to="#808080" begin="arrowUp.mouseover" end="arrowUp.mouseout"/>
                  </use>
                  <path fill="none" stroke="white" stroke-width="1.5" d="M0,-3.0v7 M-2.5,-0.5L0,-3.0L2.5,-0.5"/>
                </g>
                <g id="arrowRight" xlink:href="#dirArrow" transform="rotate(90) translate(36 -43)" onmousedown="handlePan(1,0)">
                  <use xlink:href="#rim" fill="#404040">
                        <set attributeName="fill" to="#808080" begin="arrowRight.mouseover" end="arrowRight.mouseout"/>
                  </use>
                  <path fill="none" stroke="white" stroke-width="1.5" d="M0,-3.0v7 M-2.5,-0.5L0,-3.0L2.5,-0.5"/>
                </g>
                <g id="arrowDown" xlink:href="#dirArrow" transform="rotate(180) translate(-30 -48)" onmousedown="handlePan(0,1)">
                  <use xlink:href="#rim" fill="#404040">
                        <set attributeName="fill" to="#808080" begin="arrowDown.mouseover" end="arrowDown.mouseout"/>
                  </use>
                  <path fill="none" stroke="white" stroke-width="1.5" d="M0,-3.0v7 M-2.5,-0.5L0,-3.0L2.5,-0.5"/>
                </g>
                <g id="arrowLeft" xlink:href="#dirArrow" transform="rotate(270) translate(-36 17)" onmousedown="handlePan(-1,0)">
                  <use xlink:href="#rim" fill="#404040">
                        <set attributeName="fill" to="#808080" begin="arrowLeft.mouseover" end="arrowLeft.mouseout"/>
                  </use>
                  <path fill="none" stroke="white" stroke-width="1.5" d="M0,-3.0v7 M-2.5,-0.5L0,-3.0L2.5,-0.5"/>
                </g>
        </g>
        <svg viewBox="0 0 15 15" width="100%" height="30px" preserveAspectRatio="xMaxYMin meet">
         <g id="arrow_out" transform="scale(0.3 0.3)">
          <a xlink:href="dot_inline_dotgraph_4_org.svg" target="_base">
           <rect id="button" ry="5" rx="5" y="6" x="6" height="38" width="38"
                fill="#f2f5e9" fill-opacity="0.5" stroke="#606060" stroke-width="1.0"/>
           <path id="arrow"
             d="M 11.500037,31.436501 C 11.940474,20.09759 22.043105,11.32322 32.158766,21.979434 L 37.068811,17.246167 C 37.068811,17.246167 37.088388,32 37.088388,32 L 22.160133,31.978069 C 22.160133,31.978069 26.997745,27.140456 26.997745,27.140456 C 18.528582,18.264221 13.291696,25.230495 11.500037,31.436501 z"
             style="fill:#404040;"/>
          </a>
         </g>
        </svg>
</svg>
