<?xml version="1.0" encoding="UTF-8" standalone="no"?>
<!DOCTYPE svg PUBLIC "-//W3C//DTD SVG 1.1//EN"
 "http://www.w3.org/Graphics/SVG/1.1/DTD/svg11.dtd">
<!-- Generated by graphviz version 2.36.0 (20140111.2315)
 -->
<!-- Title: symmetry Pages: 1 -->
<svg width="763pt" height="354pt"
 viewBox="0.00 0.00 763.00 354.00" xmlns="http://www.w3.org/2000/svg" xmlns:xlink="http://www.w3.org/1999/xlink">
<g id="graph0" class="graph" transform="scale(1 1) rotate(0) translate(4 350)">
<title>symmetry</title>
<polygon fill="white" stroke="none" points="-4,4 -4,-350 759,-350 759,4 -4,4"/>
<!-- root -->
<g id="node1" class="node"><title>root</title>
<ellipse fill="none" stroke="black" cx="403" cy="-321" rx="24.0303" ry="24.2053"/>
<text text-anchor="middle" x="403" y="-316.8" font-family="Times,serif" font-size="14.00">root</text>
</g>
<!-- unit_cell -->
<g id="node2" class="node"><title>unit_cell</title>
<polygon fill="none" stroke="black" points="407.235,-116 404.235,-120 383.235,-120 380.235,-116 342.765,-116 342.765,-80 407.235,-80 407.235,-116"/>
<text text-anchor="middle" x="375" y="-93.8" font-family="Times,serif" font-size="14.00">structure</text>
</g>
<!-- root&#45;&gt;unit_cell -->
<g id="edge1" class="edge"><title>root&#45;&gt;unit_cell</title>
<path fill="none" stroke="black" d="M399.325,-296.659C397.622,-285.565 395.622,-272.11 394,-260 387.721,-213.132 381.5,-158.438 377.966,-126.376"/>
<polygon fill="black" stroke="black" points="381.443,-125.974 376.874,-116.415 374.484,-126.736 381.443,-125.974"/>
</g>
<!-- bt -->
<g id="node7" class="node"><title>bt</title>
<polygon fill="none" stroke="black" points="461.293,-260 458.293,-264 437.293,-264 434.293,-260 402.707,-260 402.707,-224 461.293,-224 461.293,-260"/>
<text text-anchor="middle" x="432" y="-237.8" font-family="Times,serif" font-size="14.00">By fold</text>
</g>
<!-- root&#45;&gt;bt -->
<g id="edge6" class="edge"><title>root&#45;&gt;bt</title>
<path fill="none" stroke="black" d="M411.388,-297.728C414.68,-288.987 418.487,-278.879 421.927,-269.747"/>
<polygon fill="black" stroke="black" points="425.223,-270.923 425.473,-260.331 418.673,-268.456 425.223,-270.923"/>
</g>
<!-- a -->
<g id="node3" class="node"><title>a</title>
<polygon fill="none" stroke="black" points="668,-44 580.701,-11 755.299,-11 668,-44"/>
<text text-anchor="middle" x="668" y="-17.8" font-family="Times,serif" font-size="14.00">Protein A</text>
</g>
<!-- unit_cell&#45;&gt;a -->
<g id="edge2" class="edge"><title>unit_cell&#45;&gt;a</title>
<path fill="none" stroke="black" d="M407.476,-88.798C460.435,-75.4227 565.419,-48.9078 624.673,-33.9427"/>
<polygon fill="black" stroke="black" points="625.64,-37.3084 634.478,-31.4662 623.926,-30.5215 625.64,-37.3084"/>
</g>
<!-- b -->
<g id="node4" class="node"><title>b</title>
<polygon fill="none" stroke="black" points="475,-44 387.714,-11 562.286,-11 475,-44"/>
<text text-anchor="middle" x="475" y="-17.8" font-family="Times,serif" font-size="14.00">Protein B</text>
</g>
<!-- unit_cell&#45;&gt;b -->
<g id="edge3" class="edge"><title>unit_cell&#45;&gt;b</title>
<path fill="none" stroke="black" d="M398.193,-79.8369C412.993,-68.8854 432.241,-54.642 447.765,-43.1536"/>
<polygon fill="black" stroke="black" points="449.999,-45.8549 455.955,-37.093 445.835,-40.228 449.999,-45.8549"/>
</g>
<!-- c -->
<g id="node5" class="node"><title>c</title>
<polygon fill="none" stroke="black" points="282,-44 194.714,-11 369.286,-11 282,-44"/>
<text text-anchor="middle" x="282" y="-17.8" font-family="Times,serif" font-size="14.00">Protein C</text>
</g>
<!-- unit_cell&#45;&gt;c -->
<g id="edge4" class="edge"><title>unit_cell&#45;&gt;c</title>
<path fill="none" stroke="black" d="M353.43,-79.8369C339.884,-69.0582 322.33,-55.0906 308.014,-43.6994"/>
<polygon fill="black" stroke="black" points="310.018,-40.8214 300.014,-37.3337 305.66,-46.299 310.018,-40.8214"/>
</g>
<!-- d -->
<g id="node6" class="node"><title>d</title>
<polygon fill="none" stroke="black" points="88,-44 -0.250077,-11 176.25,-11 88,-44"/>
<text text-anchor="middle" x="88" y="-17.8" font-family="Times,serif" font-size="14.00">Protein D</text>
</g>
<!-- unit_cell&#45;&gt;d -->
<g id="edge5" class="edge"><title>unit_cell&#45;&gt;d</title>
<path fill="none" stroke="black" d="M342.635,-88.6551C290.913,-75.3191 189.56,-49.1862 131.537,-34.2256"/>
<polygon fill="black" stroke="black" points="132.132,-30.7645 121.575,-31.6569 130.384,-37.5428 132.132,-30.7645"/>
</g>
<!-- bth -->
<g id="node8" class="node"><title>bth</title>
<polygon fill="none" stroke="black" points="320.349,-188 317.349,-192 296.349,-192 293.349,-188 243.651,-188 243.651,-152 320.349,-152 320.349,-188"/>
<text text-anchor="middle" x="282" y="-165.8" font-family="Times,serif" font-size="14.00">Beta barrel</text>
</g>
<!-- bt&#45;&gt;bth -->
<g id="edge8" class="edge"><title>bt&#45;&gt;bth</title>
<path fill="none" stroke="black" d="M402.722,-227.337C381.403,-217.388 352.113,-203.719 327.723,-192.337"/>
<polygon fill="black" stroke="black" points="329.184,-189.157 318.642,-188.099 326.223,-195.5 329.184,-189.157"/>
</g>
<!-- btx -->
<g id="node9" class="node"><title>btx</title>
<polygon fill="none" stroke="black" points="520.268,-188 517.268,-192 496.268,-192 493.268,-188 429.732,-188 429.732,-152 520.268,-152 520.268,-188"/>
<text text-anchor="middle" x="475" y="-165.8" font-family="Times,serif" font-size="14.00">Alpha helical</text>
</g>
<!-- bt&#45;&gt;btx -->
<g id="edge7" class="edge"><title>bt&#45;&gt;btx</title>
<path fill="none" stroke="black" d="M442.629,-223.697C447.628,-215.559 453.691,-205.689 459.212,-196.701"/>
<polygon fill="black" stroke="black" points="462.241,-198.457 464.493,-188.104 456.277,-194.793 462.241,-198.457"/>
</g>
<!-- btc -->
<g id="node12" class="node"><title>btc</title>
<ellipse fill="black" stroke="black" cx="282" cy="-98" rx="1.8" ry="1.8"/>
</g>
<!-- bth&#45;&gt;btc -->
<g id="edge11" class="edge"><title>bth&#45;&gt;btc</title>
<path fill="none" stroke="black" d="M282,-151.697C282,-138.635 282,-121.11 282,-109.934"/>
<polygon fill="black" stroke="black" points="285.5,-109.807 282,-99.8073 278.5,-109.807 285.5,-109.807"/>
</g>
<!-- btd -->
<g id="node13" class="node"><title>btd</title>
<ellipse fill="black" stroke="black" cx="174" cy="-98" rx="1.8" ry="1.8"/>
</g>
<!-- bth&#45;&gt;btd -->
<g id="edge12" class="edge"><title>bth&#45;&gt;btd</title>
<path fill="none" stroke="black" d="M255.58,-151.876C232.49,-136.91 200.204,-115.984 184.046,-105.511"/>
<polygon fill="black" stroke="black" points="185.548,-102.314 175.253,-99.8119 181.74,-108.188 185.548,-102.314"/>
</g>
<!-- bta -->
<g id="node10" class="node"><title>bta</title>
<ellipse fill="black" stroke="black" cx="582" cy="-98" rx="1.8" ry="1.8"/>
</g>
<!-- btx&#45;&gt;bta -->
<g id="edge9" class="edge"><title>btx&#45;&gt;bta</title>
<path fill="none" stroke="black" d="M501.175,-151.876C524.051,-136.91 556.039,-115.984 572.047,-105.511"/>
<polygon fill="black" stroke="black" points="574.307,-108.215 580.759,-99.8119 570.475,-102.358 574.307,-108.215"/>
</g>
<!-- btb -->
<g id="node11" class="node"><title>btb</title>
<ellipse fill="black" stroke="black" cx="475" cy="-98" rx="1.8" ry="1.8"/>
</g>
<!-- btx&#45;&gt;btb -->
<g id="edge10" class="edge"><title>btx&#45;&gt;btb</title>
<path fill="none" stroke="black" d="M475,-151.697C475,-138.635 475,-121.11 475,-109.934"/>
<polygon fill="black" stroke="black" points="478.5,-109.807 475,-99.8073 471.5,-109.807 478.5,-109.807"/>
</g>
<!-- bta&#45;&gt;a -->
<g id="edge13" class="edge"><title>bta&#45;&gt;a</title>
<path fill="none" stroke="black" d="M582.966,-96.1689C588.842,-91.1123 620.305,-64.04 643.252,-44.2947"/>
<polygon fill="black" stroke="black" points="645.661,-46.8397 650.958,-37.6642 641.095,-41.5336 645.661,-46.8397"/>
</g>
<!-- btb&#45;&gt;b -->
<g id="edge14" class="edge"><title>btb&#45;&gt;b</title>
<path fill="none" stroke="black" d="M475,-96.1689C475,-91.9214 475,-72.1396 475,-54.2151"/>
<polygon fill="black" stroke="black" points="478.5,-54.0075 475,-44.0075 471.5,-54.0075 478.5,-54.0075"/>
</g>
<!-- btc&#45;&gt;c -->
<g id="edge15" class="edge"><title>btc&#45;&gt;c</title>
<path fill="none" stroke="black" d="M282,-96.1689C282,-91.9214 282,-72.1396 282,-54.2151"/>
<polygon fill="black" stroke="black" points="285.5,-54.0075 282,-44.0075 278.5,-54.0075 285.5,-54.0075"/>
</g>
<!-- btd&#45;&gt;d -->
<g id="edge16" class="edge"><title>btd&#45;&gt;d</title>
<path fill="none" stroke="black" d="M173.034,-96.1689C167.158,-91.1123 135.695,-64.04 112.748,-44.2947"/>
<polygon fill="black" stroke="black" points="114.905,-41.5336 105.042,-37.6642 110.339,-46.8397 114.905,-41.5336"/>
</g>
</g>
</svg>
