<?xml version="1.0" encoding="UTF-8" standalone="no"?>
<!DOCTYPE svg PUBLIC "-//W3C//DTD SVG 1.1//EN"
 "http://www.w3.org/Graphics/SVG/1.1/DTD/svg11.dtd">
<!-- Generated by graphviz version 2.34.0 (20131025.1349)
 -->
<!-- Title: Enum.h Pages: 1 -->
<!--zoomable 436 -->
<svg id="main" version="1.1" xmlns="http://www.w3.org/2000/svg" xmlns:xlink="http://www.w3.org/1999/xlink" xml:space="preserve" onload="init(evt)">
<style type="text/css"><![CDATA[
.edge:hover path { stroke: red; }
.edge:hover polygon { stroke: red; fill: red; }
]]></style>
<script type="text/javascript"><![CDATA[
var edges = document.getElementsByTagName('g');
if (edges && edges.length) {
  for (var i=0;i<edges.length;i++) {
    if (edges[i].id.substr(0,4)=='edge') {
      edges[i].setAttribute('class','edge');
    }
  }
}
]]></script>
        <defs>
                <circle id="rim" cx="0" cy="0" r="7"/>
                <circle id="rim2" cx="0" cy="0" r="3.5"/>
                <g id="zoomPlus">
                        <use xlink:href="#rim" fill="#404040">
                                <set attributeName="fill" to="#808080" begin="zoomplus.mouseover" end="zoomplus.mouseout"/>
                        </use>
                        <path d="M-4,0h8M0,-4v8" fill="none" stroke="white" stroke-width="1.5" pointer-events="none"/>
                </g>
                <g id="zoomMin">
                        <use xlink:href="#rim" fill="#404040">
                                <set attributeName="fill" to="#808080" begin="zoomminus.mouseover" end="zoomminus.mouseout"/>
                        </use>
                        <path d="M-4,0h8" fill="none" stroke="white" stroke-width="1.5" pointer-events="none"/>
                </g>
                <g id="dirArrow">
                        <path fill="none" stroke="white" stroke-width="1.5" d="M0,-3.0v7 M-2.5,-0.5L0,-3.0L2.5,-0.5"/>
                </g>
               <g id="resetDef">
                       <use xlink:href="#rim2" fill="#404040">
                               <set attributeName="fill" to="#808080" begin="reset.mouseover" end="reset.mouseout"/>
                       </use>
               </g>
        </defs>

<script type="text/javascript">
var viewWidth = 1485;
var viewHeight = 436;
var sectionId = 'dynsection-1';
</script>
<script xlink:href="svgpan.js"/>
<svg id="graph" class="graph">
<g id="viewport">
<title>Enum.h</title>
<!-- Node1 -->
<g id="node1" class="node"><title>Node1</title>
<polygon fill="#bfbfbf" stroke="black" points="353.769,-407 353.769,-427 404.231,-427 404.231,-407 353.769,-407"/>
<text text-anchor="middle" x="379" y="-413" font-family="Helvetica,sans-Serif" font-size="10.00">Enum.h</text>
</g>
<!-- Node2 -->
<g id="node2" class="node"><title>Node2</title>
<g id="a_node2"><a xlink:href="enums_8h.html" target="_top" xlink:title="Handle read/write of Model data from/to files. ">
<polygon fill="none" stroke="black" points="682.823,-349 682.823,-369 737.177,-369 737.177,-349 682.823,-349"/>
<text text-anchor="middle" x="710" y="-355" font-family="Helvetica,sans-Serif" font-size="10.00">enums.h</text>
</a>
</g>
</g>
<!-- Node1&#45;&gt;Node2 -->
<g id="edge1" class="edge"><title>Node1&#45;&gt;Node2</title>
<path fill="none" stroke="midnightblue" d="M414.415,-410.008C480.865,-398.766 622.912,-374.734 682.643,-364.628"/>
<polygon fill="midnightblue" stroke="midnightblue" points="413.699,-406.58 404.423,-411.699 414.867,-413.481 413.699,-406.58"/>
</g>
<!-- Node16 -->
<g id="node16" class="node"><title>Node16</title>
<g id="a_node16"><a xlink:href="alternatives_8h.html" target="_top" xlink:title="Helper functions for manipulating RMF files. ">
<polygon fill="none" stroke="black" points="-0.73877,-117 -0.73877,-137 74.7388,-137 74.7388,-117 -0.73877,-117"/>
<text text-anchor="middle" x="37" y="-123" font-family="Helvetica,sans-Serif" font-size="10.00">alternatives.h</text>
</a>
</g>
</g>
<!-- Node1&#45;&gt;Node16 -->
<g id="edge68" class="edge"><title>Node1&#45;&gt;Node16</title>
<path fill="none" stroke="midnightblue" d="M343.567,-411.472C258.171,-399.573 48,-363.991 48,-302 48,-302 48,-302 48,-242 48,-202.829 41.486,-156.436 38.4835,-137.133"/>
<polygon fill="midnightblue" stroke="midnightblue" points="343.195,-414.954 353.577,-412.838 344.141,-408.018 343.195,-414.954"/>
</g>
<!-- Node3 -->
<g id="node3" class="node"><title>Node3</title>
<g id="a_node3"><a xlink:href="NodeConstHandle_8h.html" target="_top" xlink:title="Handle read/write of Model data from/to files. ">
<polygon fill="none" stroke="black" points="714.971,-291 714.971,-311 821.029,-311 821.029,-291 714.971,-291"/>
<text text-anchor="middle" x="768" y="-297" font-family="Helvetica,sans-Serif" font-size="10.00">NodeConstHandle.h</text>
</a>
</g>
</g>
<!-- Node2&#45;&gt;Node3 -->
<g id="edge2" class="edge"><title>Node2&#45;&gt;Node3</title>
<path fill="none" stroke="midnightblue" d="M726.878,-341.704C737.21,-331.729 750.045,-319.336 758.601,-311.075"/>
<polygon fill="midnightblue" stroke="midnightblue" points="724.34,-339.289 719.578,-348.753 729.203,-344.325 724.34,-339.289"/>
</g>
<!-- Node8 -->
<g id="node8" class="node"><title>Node8</title>
<g id="a_node8"><a xlink:href="benchmark__rmf_8cpp_source.html" target="_top" xlink:title="benchmark_rmf.cpp">
<polygon fill="none" stroke="black" points="832.815,-1 832.815,-21 937.185,-21 937.185,-1 832.815,-1"/>
<text text-anchor="middle" x="885" y="-7" font-family="Helvetica,sans-Serif" font-size="10.00">benchmark_rmf.cpp</text>
</a>
</g>
</g>
<!-- Node2&#45;&gt;Node8 -->
<g id="edge67" class="edge"><title>Node2&#45;&gt;Node8</title>
<path fill="none" stroke="midnightblue" d="M747.66,-356.425C901.868,-349.487 1477,-318.608 1477,-244 1477,-244 1477,-244 1477,-126 1477,-71.2793 1081.95,-29.8866 937.276,-16.5628"/>
<polygon fill="midnightblue" stroke="midnightblue" points="747.133,-352.945 737.298,-356.884 747.443,-359.938 747.133,-352.945"/>
</g>
<!-- Node17 -->
<g id="node17" class="node"><title>Node17</title>
<g id="a_node17"><a xlink:href="NodeHandle_8h.html" target="_top" xlink:title="Handle read/write of Model data from/to files. ">
<polygon fill="none" stroke="black" points="474.032,-233 474.032,-253 553.968,-253 553.968,-233 474.032,-233"/>
<text text-anchor="middle" x="514" y="-239" font-family="Helvetica,sans-Serif" font-size="10.00">NodeHandle.h</text>
</a>
</g>
</g>
<!-- Node2&#45;&gt;Node17 -->
<g id="edge64" class="edge"><title>Node2&#45;&gt;Node17</title>
<path fill="none" stroke="midnightblue" d="M685.502,-343.751C644.578,-319.949 563.461,-272.768 529.511,-253.022"/>
<polygon fill="midnightblue" stroke="midnightblue" points="683.888,-346.861 694.292,-348.864 687.407,-340.81 683.888,-346.861"/>
</g>
<!-- Node18 -->
<g id="node18" class="node"><title>Node18</title>
<g id="a_node18"><a xlink:href="FileHandle_8h.html" target="_top" xlink:title="Handle read/write of Model data from/to files. ">
<polygon fill="none" stroke="black" points="541.929,-175 541.929,-195 614.071,-195 614.071,-175 541.929,-175"/>
<text text-anchor="middle" x="578" y="-181" font-family="Helvetica,sans-Serif" font-size="10.00">FileHandle.h</text>
</a>
</g>
</g>
<!-- Node2&#45;&gt;Node18 -->
<g id="edge66" class="edge"><title>Node2&#45;&gt;Node18</title>
<path fill="none" stroke="midnightblue" d="M696.681,-340.646C669.051,-304.642 606.307,-222.885 585.132,-195.293"/>
<polygon fill="midnightblue" stroke="midnightblue" points="694.038,-342.95 702.903,-348.753 699.591,-338.689 694.038,-342.95"/>
</g>
<!-- Node20 -->
<g id="node20" class="node"><title>Node20</title>
<g id="a_node20"><a xlink:href="FileConstHandle_8h.html" target="_top" xlink:title="Handle read/write of Model data from/to files. ">
<polygon fill="none" stroke="black" points="988.867,-233 988.867,-253 1087.13,-253 1087.13,-233 988.867,-233"/>
<text text-anchor="middle" x="1038" y="-239" font-family="Helvetica,sans-Serif" font-size="10.00">FileConstHandle.h</text>
</a>
</g>
</g>
<!-- Node2&#45;&gt;Node20 -->
<g id="edge65" class="edge"><title>Node2&#45;&gt;Node20</title>
<path fill="none" stroke="midnightblue" d="M745.637,-345.614C812.124,-322.506 953.613,-273.33 1011.99,-253.042"/>
<polygon fill="midnightblue" stroke="midnightblue" points="744.308,-342.37 736.012,-348.959 746.607,-348.982 744.308,-342.37"/>
</g>
<!-- Node4 -->
<g id="node4" class="node"><title>Node4</title>
<g id="a_node4"><a xlink:href="Decorator_8h.html" target="_top" xlink:title="Helper functions for manipulating RMF files. ">
<polygon fill="none" stroke="black" points="338.15,-175 338.15,-195 405.85,-195 405.85,-175 338.15,-175"/>
<text text-anchor="middle" x="372" y="-181" font-family="Helvetica,sans-Serif" font-size="10.00">Decorator.h</text>
</a>
</g>
</g>
<!-- Node3&#45;&gt;Node4 -->
<g id="edge3" class="edge"><title>Node3&#45;&gt;Node4</title>
<path fill="none" stroke="midnightblue" d="M704.597,-299.1C641.621,-296.226 543.4,-286.319 465,-254 430.42,-239.745 396.736,-210.032 381.09,-195.05"/>
<polygon fill="midnightblue" stroke="midnightblue" points="704.642,-302.604 714.777,-299.517 704.929,-295.61 704.642,-302.604"/>
</g>
<!-- Node3&#45;&gt;Node8 -->
<g id="edge63" class="edge"><title>Node3&#45;&gt;Node8</title>
<path fill="none" stroke="midnightblue" d="M813.304,-287.761C859.05,-272.327 923,-240.928 923,-186 923,-186 923,-186 923,-126 923,-85.11 900.725,-40.0081 890.284,-21.1127"/>
<polygon fill="midnightblue" stroke="midnightblue" points="812.003,-284.503 803.56,-290.904 814.152,-291.165 812.003,-284.503"/>
</g>
<!-- Node3&#45;&gt;Node17 -->
<g id="edge27" class="edge"><title>Node3&#45;&gt;Node17</title>
<path fill="none" stroke="midnightblue" d="M717.043,-288.765C669.099,-278.195 598.271,-262.579 554.194,-252.862"/>
<polygon fill="midnightblue" stroke="midnightblue" points="716.389,-292.205 726.908,-290.94 717.896,-285.369 716.389,-292.205"/>
</g>
<!-- Node19 -->
<g id="node19" class="node"><title>Node19</title>
<g id="a_node19"><a xlink:href="validate_8h.html" target="_top" xlink:title="Handle read/write of Model data from/to files. ">
<polygon fill="none" stroke="black" points="950.596,-117 950.596,-137 1009.4,-137 1009.4,-117 950.596,-117"/>
<text text-anchor="middle" x="980" y="-123" font-family="Helvetica,sans-Serif" font-size="10.00">validate.h</text>
</a>
</g>
</g>
<!-- Node3&#45;&gt;Node19 -->
<g id="edge62" class="edge"><title>Node3&#45;&gt;Node19</title>
<path fill="none" stroke="midnightblue" d="M831.129,-289.192C872.421,-280.953 921.486,-268.564 937,-254 971.546,-221.569 978.338,-160.281 979.673,-137.148"/>
<polygon fill="midnightblue" stroke="midnightblue" points="830.244,-285.798 821.096,-291.144 831.581,-292.669 830.244,-285.798"/>
</g>
<!-- Node3&#45;&gt;Node20 -->
<g id="edge53" class="edge"><title>Node3&#45;&gt;Node20</title>
<path fill="none" stroke="midnightblue" d="M821.785,-288.845C872.433,-278.34 947.352,-262.801 994.383,-253.047"/>
<polygon fill="midnightblue" stroke="midnightblue" points="820.761,-285.482 811.68,-290.94 822.183,-292.337 820.761,-285.482"/>
</g>
<!-- Node25 -->
<g id="node25" class="node"><title>Node25</title>
<g id="a_node25"><a xlink:href="utility_8h.html" target="_top" xlink:title="Helper functions for manipulating RMF files. ">
<polygon fill="none" stroke="black" points="744.807,-233 744.807,-253 791.193,-253 791.193,-233 744.807,-233"/>
<text text-anchor="middle" x="768" y="-239" font-family="Helvetica,sans-Serif" font-size="10.00">utility.h</text>
</a>
</g>
</g>
<!-- Node3&#45;&gt;Node25 -->
<g id="edge61" class="edge"><title>Node3&#45;&gt;Node25</title>
<path fill="none" stroke="midnightblue" d="M768,-280.707C768,-271.338 768,-260.526 768,-253.075"/>
<polygon fill="midnightblue" stroke="midnightblue" points="764.5,-280.753 768,-290.753 771.5,-280.753 764.5,-280.753"/>
</g>
<!-- Node5 -->
<g id="node5" class="node"><title>Node5</title>
<g id="a_node5"><a xlink:href="alias_8h.html" target="_top" xlink:title="Helper functions for manipulating RMF files. ">
<polygon fill="none" stroke="black" points="698.547,-117 698.547,-137 743.453,-137 743.453,-117 698.547,-117"/>
<text text-anchor="middle" x="721" y="-123" font-family="Helvetica,sans-Serif" font-size="10.00">alias.h</text>
</a>
</g>
</g>
<!-- Node4&#45;&gt;Node5 -->
<g id="edge4" class="edge"><title>Node4&#45;&gt;Node5</title>
<path fill="none" stroke="midnightblue" d="M416.254,-179.821C477.901,-173.493 592.883,-159.847 689,-138 692.065,-137.303 695.261,-136.456 698.396,-135.552"/>
<polygon fill="midnightblue" stroke="midnightblue" points="415.701,-176.359 406.104,-180.846 416.405,-183.323 415.701,-176.359"/>
</g>
<!-- Node7 -->
<g id="node7" class="node"><title>Node7</title>
<g id="a_node7"><a xlink:href="physics_8h.html" target="_top" xlink:title="Helper functions for manipulating RMF files. ">
<polygon fill="none" stroke="black" points="708.158,-59 708.158,-79 765.842,-79 765.842,-59 708.158,-59"/>
<text text-anchor="middle" x="737" y="-65" font-family="Helvetica,sans-Serif" font-size="10.00">physics.h</text>
</a>
</g>
</g>
<!-- Node4&#45;&gt;Node7 -->
<g id="edge13" class="edge"><title>Node4&#45;&gt;Node7</title>
<path fill="none" stroke="midnightblue" d="M352.401,-167.897C336.914,-153.265 320.045,-131.639 334,-116 358.879,-88.12 619.529,-74.8499 707.892,-71.1285"/>
<polygon fill="midnightblue" stroke="midnightblue" points="350.406,-170.807 360.202,-174.843 355.06,-165.579 350.406,-170.807"/>
</g>
<!-- Node9 -->
<g id="node9" class="node"><title>Node9</title>
<g id="a_node9"><a xlink:href="external_8h.html" target="_top" xlink:title="Helper functions for manipulating RMF files. ">
<polygon fill="none" stroke="black" points="93.042,-117 93.042,-137 152.958,-137 152.958,-117 93.042,-117"/>
<text text-anchor="middle" x="123" y="-123" font-family="Helvetica,sans-Serif" font-size="10.00">external.h</text>
</a>
</g>
</g>
<!-- Node4&#45;&gt;Node9 -->
<g id="edge9" class="edge"><title>Node4&#45;&gt;Node9</title>
<path fill="none" stroke="midnightblue" d="M328.067,-174.849C285.508,-165.873 219.195,-151.592 162,-138 159.144,-137.321 156.175,-136.596 153.208,-135.858"/>
<polygon fill="midnightblue" stroke="midnightblue" points="327.585,-178.324 338.091,-176.958 329.026,-171.474 327.585,-178.324"/>
</g>
<!-- Node10 -->
<g id="node10" class="node"><title>Node10</title>
<g id="a_node10"><a xlink:href="feature_8h.html" target="_top" xlink:title="Helper functions for manipulating RMF files. ">
<polygon fill="none" stroke="black" points="343.264,-117 343.264,-137 398.736,-137 398.736,-117 343.264,-117"/>
<text text-anchor="middle" x="371" y="-123" font-family="Helvetica,sans-Serif" font-size="10.00">feature.h</text>
</a>
</g>
</g>
<!-- Node4&#45;&gt;Node10 -->
<g id="edge11" class="edge"><title>Node4&#45;&gt;Node10</title>
<path fill="none" stroke="midnightblue" d="M371.655,-164.707C371.488,-155.338 371.295,-144.526 371.162,-137.075"/>
<polygon fill="midnightblue" stroke="midnightblue" points="368.157,-164.817 371.835,-174.753 375.156,-164.692 368.157,-164.817"/>
</g>
<!-- Node11 -->
<g id="node11" class="node"><title>Node11</title>
<g id="a_node11"><a xlink:href="publication_8h.html" target="_top" xlink:title="Helper functions for manipulating RMF files. ">
<polygon fill="none" stroke="black" points="416.924,-117 416.924,-137 489.076,-137 489.076,-117 416.924,-117"/>
<text text-anchor="middle" x="453" y="-123" font-family="Helvetica,sans-Serif" font-size="10.00">publication.h</text>
</a>
</g>
</g>
<!-- Node4&#45;&gt;Node11 -->
<g id="edge14" class="edge"><title>Node4&#45;&gt;Node11</title>
<path fill="none" stroke="midnightblue" d="M393.89,-168.866C408.585,-158.707 427.456,-145.66 439.873,-137.075"/>
<polygon fill="midnightblue" stroke="midnightblue" points="391.611,-166.187 385.376,-174.753 395.591,-171.945 391.611,-166.187"/>
</g>
<!-- Node12 -->
<g id="node12" class="node"><title>Node12</title>
<g id="a_node12"><a xlink:href="sequence_8h.html" target="_top" xlink:title="Helper functions for manipulating RMF files. ">
<polygon fill="none" stroke="black" points="613.146,-117 613.146,-137 680.854,-137 680.854,-117 613.146,-117"/>
<text text-anchor="middle" x="647" y="-123" font-family="Helvetica,sans-Serif" font-size="10.00">sequence.h</text>
</a>
</g>
</g>
<!-- Node4&#45;&gt;Node12 -->
<g id="edge16" class="edge"><title>Node4&#45;&gt;Node12</title>
<path fill="none" stroke="midnightblue" d="M415.965,-175.727C462.69,-166.832 538.692,-152.065 604,-138 606.847,-137.387 609.797,-136.735 612.755,-136.07"/>
<polygon fill="midnightblue" stroke="midnightblue" points="415.054,-172.338 405.883,-177.642 416.36,-179.215 415.054,-172.338"/>
</g>
<!-- Node13 -->
<g id="node13" class="node"><title>Node13</title>
<g id="a_node13"><a xlink:href="shape_8h.html" target="_top" xlink:title="Helper functions for manipulating RMF files. ">
<polygon fill="none" stroke="black" points="171.207,-117 171.207,-137 222.793,-137 222.793,-117 171.207,-117"/>
<text text-anchor="middle" x="197" y="-123" font-family="Helvetica,sans-Serif" font-size="10.00">shape.h</text>
</a>
</g>
</g>
<!-- Node4&#45;&gt;Node13 -->
<g id="edge19" class="edge"><title>Node4&#45;&gt;Node13</title>
<path fill="none" stroke="midnightblue" d="M333.566,-171.701C299.985,-160.955 252.158,-145.65 222.924,-136.296"/>
<polygon fill="midnightblue" stroke="midnightblue" points="332.903,-175.164 343.494,-174.878 335.036,-168.497 332.903,-175.164"/>
</g>
<!-- Node14 -->
<g id="node14" class="node"><title>Node14</title>
<g id="a_node14"><a xlink:href="bond_8h.html" target="_top" xlink:title="Helper functions for manipulating RMF files. ">
<polygon fill="none" stroke="black" points="240.707,-117 240.707,-137 287.293,-137 287.293,-117 240.707,-117"/>
<text text-anchor="middle" x="264" y="-123" font-family="Helvetica,sans-Serif" font-size="10.00">bond.h</text>
</a>
</g>
</g>
<!-- Node4&#45;&gt;Node14 -->
<g id="edge21" class="edge"><title>Node4&#45;&gt;Node14</title>
<path fill="none" stroke="midnightblue" d="M345.277,-170.144C325.372,-159.823 298.762,-146.025 281.502,-137.075"/>
<polygon fill="midnightblue" stroke="midnightblue" points="343.677,-173.257 354.166,-174.753 346.9,-167.042 343.677,-173.257"/>
</g>
<!-- Node15 -->
<g id="node15" class="node"><title>Node15</title>
<g id="a_node15"><a xlink:href="representation_8h.html" target="_top" xlink:title="Helper functions for manipulating RMF files. ">
<polygon fill="none" stroke="black" points="506.865,-117 506.865,-137 595.135,-137 595.135,-117 506.865,-117"/>
<text text-anchor="middle" x="551" y="-123" font-family="Helvetica,sans-Serif" font-size="10.00">representation.h</text>
</a>
</g>
</g>
<!-- Node4&#45;&gt;Node15 -->
<g id="edge23" class="edge"><title>Node4&#45;&gt;Node15</title>
<path fill="none" stroke="midnightblue" d="M411.066,-171.778C444.549,-161.303 492.014,-146.454 522.151,-137.025"/>
<polygon fill="midnightblue" stroke="midnightblue" points="409.657,-168.552 401.158,-174.878 411.747,-175.232 409.657,-168.552"/>
</g>
<!-- Node4&#45;&gt;Node16 -->
<g id="edge25" class="edge"><title>Node4&#45;&gt;Node16</title>
<path fill="none" stroke="midnightblue" d="M327.719,-177.647C271.071,-169.356 169.992,-154.005 84,-138 81.0474,-137.45 77.9959,-136.858 74.9315,-136.245"/>
<polygon fill="midnightblue" stroke="midnightblue" points="327.365,-181.133 337.766,-179.112 328.375,-174.206 327.365,-181.133"/>
</g>
<!-- Node6 -->
<g id="node6" class="node"><title>Node6</title>
<g id="a_node6"><a xlink:href="decorators_8h.html" target="_top" xlink:title="Import all the decorators headers. ">
<polygon fill="none" stroke="black" points="390.207,-1 390.207,-21 461.793,-21 461.793,-1 390.207,-1"/>
<text text-anchor="middle" x="426" y="-7" font-family="Helvetica,sans-Serif" font-size="10.00">decorators.h</text>
</a>
</g>
</g>
<!-- Node5&#45;&gt;Node6 -->
<g id="edge5" class="edge"><title>Node5&#45;&gt;Node6</title>
<path fill="none" stroke="midnightblue" d="M689.379,-113.045C655.32,-99.1635 599.482,-76.6129 551,-58 516.675,-44.8222 476.769,-30.2689 451.455,-21.1321"/>
<polygon fill="midnightblue" stroke="midnightblue" points="688.22,-116.352 698.801,-116.891 690.865,-109.871 688.22,-116.352"/>
</g>
<!-- Node5&#45;&gt;Node7 -->
<g id="edge6" class="edge"><title>Node5&#45;&gt;Node7</title>
<path fill="none" stroke="midnightblue" d="M726.425,-107.012C729.122,-97.5738 732.255,-86.6072 734.407,-79.0752"/>
<polygon fill="midnightblue" stroke="midnightblue" points="723.024,-106.176 723.642,-116.753 729.755,-108.099 723.024,-106.176"/>
</g>
<!-- Node7&#45;&gt;Node6 -->
<g id="edge7" class="edge"><title>Node7&#45;&gt;Node6</title>
<path fill="none" stroke="midnightblue" d="M698.067,-60.9896C637.372,-50.0605 521.058,-29.1166 462.128,-18.5054"/>
<polygon fill="midnightblue" stroke="midnightblue" points="697.559,-64.4543 708.021,-62.7819 698.8,-57.5651 697.559,-64.4543"/>
</g>
<!-- Node7&#45;&gt;Node8 -->
<g id="edge8" class="edge"><title>Node7&#45;&gt;Node8</title>
<path fill="none" stroke="midnightblue" d="M770.712,-55.2441C798.214,-44.8381 836.395,-30.3912 860.902,-21.1181"/>
<polygon fill="midnightblue" stroke="midnightblue" points="769.222,-52.0655 761.108,-58.878 771.7,-58.6125 769.222,-52.0655"/>
</g>
<!-- Node9&#45;&gt;Node6 -->
<g id="edge10" class="edge"><title>Node9&#45;&gt;Node6</title>
<path fill="none" stroke="midnightblue" d="M151.442,-112.621C182.619,-98.2062 234.294,-75.0463 280,-58 318.72,-43.5593 364.269,-29.6896 394.066,-21.0252"/>
<polygon fill="midnightblue" stroke="midnightblue" points="149.667,-109.586 142.074,-116.975 152.618,-115.934 149.667,-109.586"/>
</g>
<!-- Node10&#45;&gt;Node6 -->
<g id="edge12" class="edge"><title>Node10&#45;&gt;Node6</title>
<path fill="none" stroke="midnightblue" d="M379.876,-107.602C391.807,-82.8733 412.56,-39.8584 421.591,-21.1394"/>
<polygon fill="midnightblue" stroke="midnightblue" points="376.694,-106.143 375.501,-116.671 382.999,-109.185 376.694,-106.143"/>
</g>
<!-- Node11&#45;&gt;Node6 -->
<g id="edge15" class="edge"><title>Node11&#45;&gt;Node6</title>
<path fill="none" stroke="midnightblue" d="M448.485,-106.939C442.605,-82.1105 432.559,-39.692 428.165,-21.1394"/>
<polygon fill="midnightblue" stroke="midnightblue" points="445.08,-107.747 450.79,-116.671 451.892,-106.133 445.08,-107.747"/>
</g>
<!-- Node12&#45;&gt;Node6 -->
<g id="edge17" class="edge"><title>Node12&#45;&gt;Node6</title>
<path fill="none" stroke="midnightblue" d="M620.246,-112.199C574.391,-88.5456 482.011,-40.8926 443.489,-21.0217"/>
<polygon fill="midnightblue" stroke="midnightblue" points="618.796,-115.39 629.288,-116.864 622.005,-109.169 618.796,-115.39"/>
</g>
<!-- Node12&#45;&gt;Node8 -->
<g id="edge18" class="edge"><title>Node12&#45;&gt;Node8</title>
<path fill="none" stroke="midnightblue" d="M656.318,-107.759C665.205,-92.1991 680.035,-70.4306 699,-58 739.201,-31.65 793.28,-20.3908 832.761,-15.5815"/>
<polygon fill="midnightblue" stroke="midnightblue" points="653.037,-106.467 651.352,-116.927 659.192,-109.801 653.037,-106.467"/>
</g>
<!-- Node13&#45;&gt;Node6 -->
<g id="edge20" class="edge"><title>Node13&#45;&gt;Node6</title>
<path fill="none" stroke="midnightblue" d="M222.563,-112.175C248.648,-98.1754 290.384,-76.0709 327,-58 354.022,-44.6638 385.668,-30.1488 405.77,-21.0639"/>
<polygon fill="midnightblue" stroke="midnightblue" points="220.847,-109.124 213.699,-116.944 224.164,-115.288 220.847,-109.124"/>
</g>
<!-- Node14&#45;&gt;Node6 -->
<g id="edge22" class="edge"><title>Node14&#45;&gt;Node6</title>
<path fill="none" stroke="midnightblue" d="M285.305,-111.007C319.359,-87.0434 385.054,-40.8138 412.955,-21.1799"/>
<polygon fill="midnightblue" stroke="midnightblue" points="283.147,-108.246 276.983,-116.864 287.176,-113.971 283.147,-108.246"/>
</g>
<!-- Node15&#45;&gt;Node6 -->
<g id="edge24" class="edge"><title>Node15&#45;&gt;Node6</title>
<path fill="none" stroke="midnightblue" d="M533.298,-109.856C506.672,-85.5733 457.185,-40.4407 436.021,-21.1394"/>
<polygon fill="midnightblue" stroke="midnightblue" points="531.024,-112.518 540.771,-116.671 535.74,-107.346 531.024,-112.518"/>
</g>
<!-- Node16&#45;&gt;Node6 -->
<g id="edge26" class="edge"><title>Node16&#45;&gt;Node6</title>
<path fill="none" stroke="midnightblue" d="M68.8423,-113.038C105.737,-98.3456 168.568,-74.3208 224,-58 281.275,-41.1367 349.206,-26.8013 389.892,-18.806"/>
<polygon fill="midnightblue" stroke="midnightblue" points="67.1326,-109.953 59.1516,-116.921 69.736,-116.451 67.1326,-109.953"/>
</g>
<!-- Node17&#45;&gt;Node4 -->
<g id="edge28" class="edge"><title>Node17&#45;&gt;Node4</title>
<path fill="none" stroke="midnightblue" d="M481.307,-229.107C454.947,-218.711 418.532,-204.351 395.121,-195.118"/>
<polygon fill="midnightblue" stroke="midnightblue" points="480.282,-232.465 490.869,-232.878 482.851,-225.953 480.282,-232.465"/>
</g>
<!-- Node17&#45;&gt;Node5 -->
<g id="edge29" class="edge"><title>Node17&#45;&gt;Node5</title>
<path fill="none" stroke="midnightblue" d="M561.072,-230.097C586.649,-222.482 618.223,-211.164 644,-196 672.285,-179.361 699.688,-151.512 712.866,-137.163"/>
<polygon fill="midnightblue" stroke="midnightblue" points="559.871,-226.8 551.232,-232.934 561.81,-233.526 559.871,-226.8"/>
</g>
<!-- Node17&#45;&gt;Node7 -->
<g id="edge45" class="edge"><title>Node17&#45;&gt;Node7</title>
<path fill="none" stroke="midnightblue" d="M564.35,-238.995C626.339,-232.176 728.386,-209.988 769,-138 780.54,-117.545 760.032,-92.2369 746.838,-79.0128"/>
<polygon fill="midnightblue" stroke="midnightblue" points="563.987,-235.514 554.388,-239.997 564.688,-242.479 563.987,-235.514"/>
</g>
<!-- Node17&#45;&gt;Node8 -->
<g id="edge52" class="edge"><title>Node17&#45;&gt;Node8</title>
<path fill="none" stroke="midnightblue" d="M564.267,-239.644C611.509,-235.643 682.983,-224.882 738,-196 803.962,-161.372 817.809,-142.075 859,-80 871.579,-61.0434 879.323,-35.1264 882.812,-21.4088"/>
<polygon fill="midnightblue" stroke="midnightblue" points="563.974,-236.156 554.275,-240.42 564.516,-243.135 563.974,-236.156"/>
</g>
<!-- Node17&#45;&gt;Node9 -->
<g id="edge43" class="edge"><title>Node17&#45;&gt;Node9</title>
<path fill="none" stroke="midnightblue" d="M463.839,-237.406C411.242,-231.584 326.705,-219.359 257,-196 210.991,-180.582 161.101,-151.671 137.258,-137.014"/>
<polygon fill="midnightblue" stroke="midnightblue" points="463.603,-240.901 473.919,-238.487 464.349,-233.941 463.603,-240.901"/>
</g>
<!-- Node17&#45;&gt;Node10 -->
<g id="edge44" class="edge"><title>Node17&#45;&gt;Node10</title>
<path fill="none" stroke="midnightblue" d="M494.142,-226.169C463.778,-201.963 406.78,-156.524 382.464,-137.139"/>
<polygon fill="midnightblue" stroke="midnightblue" points="492.297,-229.174 502.298,-232.671 496.66,-223.7 492.297,-229.174"/>
</g>
<!-- Node17&#45;&gt;Node11 -->
<g id="edge46" class="edge"><title>Node17&#45;&gt;Node11</title>
<path fill="none" stroke="midnightblue" d="M504.156,-223.602C490.923,-198.873 467.907,-155.858 457.89,-137.139"/>
<polygon fill="midnightblue" stroke="midnightblue" points="501.204,-225.505 509.008,-232.671 507.376,-222.203 501.204,-225.505"/>
</g>
<!-- Node17&#45;&gt;Node12 -->
<g id="edge47" class="edge"><title>Node17&#45;&gt;Node12</title>
<path fill="none" stroke="midnightblue" d="M563.809,-230.569C584.478,-223.606 607.258,-212.717 623,-196 638.792,-179.23 644.282,-151.438 646.12,-137.131"/>
<polygon fill="midnightblue" stroke="midnightblue" points="562.678,-227.256 554.184,-233.589 564.774,-233.934 562.678,-227.256"/>
</g>
<!-- Node17&#45;&gt;Node13 -->
<g id="edge48" class="edge"><title>Node17&#45;&gt;Node13</title>
<path fill="none" stroke="midnightblue" d="M463.791,-236.69C419.159,-230.717 352.832,-218.721 299,-196 262.53,-180.607 225.21,-151.685 207.528,-137.019"/>
<polygon fill="midnightblue" stroke="midnightblue" points="463.444,-240.175 473.809,-237.979 464.337,-233.232 463.444,-240.175"/>
</g>
<!-- Node17&#45;&gt;Node14 -->
<g id="edge49" class="edge"><title>Node17&#45;&gt;Node14</title>
<path fill="none" stroke="midnightblue" d="M463.63,-237.197C424.715,-231.725 370.649,-220.17 329,-196 302.727,-180.753 280.319,-151.765 270.029,-137.052"/>
<polygon fill="midnightblue" stroke="midnightblue" points="463.307,-240.685 473.679,-238.523 464.223,-233.745 463.307,-240.685"/>
</g>
<!-- Node17&#45;&gt;Node15 -->
<g id="edge50" class="edge"><title>Node17&#45;&gt;Node15</title>
<path fill="none" stroke="midnightblue" d="M518.781,-222.925C522.352,-209.208 527.54,-190.328 533,-174 537.352,-160.987 543.295,-146.272 547.141,-137.065"/>
<polygon fill="midnightblue" stroke="midnightblue" points="515.375,-222.116 516.29,-232.671 522.157,-223.85 515.375,-222.116"/>
</g>
<!-- Node17&#45;&gt;Node16 -->
<g id="edge51" class="edge"><title>Node17&#45;&gt;Node16</title>
<path fill="none" stroke="midnightblue" d="M463.444,-238.237C401.442,-232.772 293.548,-220.494 204,-196 147.837,-180.638 85.1276,-151.702 55.0327,-137.026"/>
<polygon fill="midnightblue" stroke="midnightblue" points="463.47,-241.752 473.732,-239.118 464.067,-234.777 463.47,-241.752"/>
</g>
<!-- Node17&#45;&gt;Node18 -->
<g id="edge30" class="edge"><title>Node17&#45;&gt;Node18</title>
<path fill="none" stroke="midnightblue" d="M532.289,-225.997C543.746,-215.972 558.095,-203.417 567.628,-195.075"/>
<polygon fill="midnightblue" stroke="midnightblue" points="529.789,-223.534 524.568,-232.753 534.399,-228.802 529.789,-223.534"/>
</g>
<!-- Node18&#45;&gt;Node5 -->
<g id="edge31" class="edge"><title>Node18&#45;&gt;Node5</title>
<path fill="none" stroke="midnightblue" d="M610.631,-171.221C637.377,-160.747 674.547,-146.191 698.189,-136.933"/>
<polygon fill="midnightblue" stroke="midnightblue" points="609.329,-167.972 601.294,-174.878 611.881,-174.491 609.329,-167.972"/>
</g>
<!-- Node18&#45;&gt;Node7 -->
<g id="edge34" class="edge"><title>Node18&#45;&gt;Node7</title>
<path fill="none" stroke="midnightblue" d="M624.313,-178.148C670.418,-171.26 736.493,-158.14 752,-138 765.424,-120.567 752.179,-93.5519 743.4,-79.3907"/>
<polygon fill="midnightblue" stroke="midnightblue" points="623.623,-174.712 614.226,-179.605 624.623,-181.64 623.623,-174.712"/>
</g>
<!-- Node18&#45;&gt;Node8 -->
<g id="edge42" class="edge"><title>Node18&#45;&gt;Node8</title>
<path fill="none" stroke="midnightblue" d="M624.264,-180.47C664.804,-175.671 724.101,-164.399 769,-138 821.545,-107.106 864.321,-44.8931 879.279,-21.3313"/>
<polygon fill="midnightblue" stroke="midnightblue" points="623.684,-177.013 614.125,-181.582 624.447,-183.971 623.684,-177.013"/>
</g>
<!-- Node18&#45;&gt;Node9 -->
<g id="edge32" class="edge"><title>Node18&#45;&gt;Node9</title>
<path fill="none" stroke="midnightblue" d="M531.523,-181.007C454.316,-175.557 294.956,-162.272 162,-138 159.112,-137.473 156.122,-136.849 153.141,-136.176"/>
<polygon fill="midnightblue" stroke="midnightblue" points="531.643,-184.524 541.861,-181.725 532.127,-177.541 531.643,-184.524"/>
</g>
<!-- Node18&#45;&gt;Node10 -->
<g id="edge33" class="edge"><title>Node18&#45;&gt;Node10</title>
<path fill="none" stroke="midnightblue" d="M534.602,-172.259C493.797,-161.22 433.921,-145.022 399.054,-135.589"/>
<polygon fill="midnightblue" stroke="midnightblue" points="533.714,-175.645 544.281,-174.878 535.542,-168.888 533.714,-175.645"/>
</g>
<!-- Node18&#45;&gt;Node11 -->
<g id="edge35" class="edge"><title>Node18&#45;&gt;Node11</title>
<path fill="none" stroke="midnightblue" d="M548.296,-170.693C525.171,-160.333 493.689,-146.229 473.353,-137.118"/>
<polygon fill="midnightblue" stroke="midnightblue" points="547.081,-173.984 557.638,-174.878 549.943,-167.595 547.081,-173.984"/>
</g>
<!-- Node18&#45;&gt;Node12 -->
<g id="edge36" class="edge"><title>Node18&#45;&gt;Node12</title>
<path fill="none" stroke="midnightblue" d="M597.359,-168.288C609.769,-158.216 625.44,-145.498 635.818,-137.075"/>
<polygon fill="midnightblue" stroke="midnightblue" points="594.953,-165.733 589.394,-174.753 599.364,-171.169 594.953,-165.733"/>
</g>
<!-- Node18&#45;&gt;Node13 -->
<g id="edge37" class="edge"><title>Node18&#45;&gt;Node13</title>
<path fill="none" stroke="midnightblue" d="M531.664,-180.011C464.942,-173.777 338.151,-160.097 232,-138 229.03,-137.382 225.944,-136.644 222.889,-135.853"/>
<polygon fill="midnightblue" stroke="midnightblue" points="531.566,-183.517 541.845,-180.948 532.207,-176.546 531.566,-183.517"/>
</g>
<!-- Node18&#45;&gt;Node14 -->
<g id="edge38" class="edge"><title>Node18&#45;&gt;Node14</title>
<path fill="none" stroke="midnightblue" d="M531.663,-175.736C463.655,-163.607 339.287,-141.427 287.55,-132.2"/>
<polygon fill="midnightblue" stroke="midnightblue" points="531.214,-179.211 541.673,-177.521 532.443,-172.32 531.214,-179.211"/>
</g>
<!-- Node18&#45;&gt;Node15 -->
<g id="edge39" class="edge"><title>Node18&#45;&gt;Node15</title>
<path fill="none" stroke="midnightblue" d="M569.137,-165.618C564.523,-156.047 559.085,-144.769 555.376,-137.075"/>
<polygon fill="midnightblue" stroke="midnightblue" points="566.046,-167.265 573.541,-174.753 572.351,-164.225 566.046,-167.265"/>
</g>
<!-- Node18&#45;&gt;Node16 -->
<g id="edge40" class="edge"><title>Node18&#45;&gt;Node16</title>
<path fill="none" stroke="midnightblue" d="M531.724,-181.5C444.004,-176.36 247.651,-162.942 84,-138 81.031,-137.548 77.9676,-137.025 74.8951,-136.46"/>
<polygon fill="midnightblue" stroke="midnightblue" points="531.689,-185.003 541.874,-182.086 532.092,-178.015 531.689,-185.003"/>
</g>
<!-- Node18&#45;&gt;Node19 -->
<g id="edge41" class="edge"><title>Node18&#45;&gt;Node19</title>
<path fill="none" stroke="midnightblue" d="M624.341,-177.545C707.776,-165.922 881.027,-141.787 950.368,-132.128"/>
<polygon fill="midnightblue" stroke="midnightblue" points="623.805,-174.085 614.384,-178.932 624.771,-181.018 623.805,-174.085"/>
</g>
<!-- Node20&#45;&gt;Node8 -->
<g id="edge60" class="edge"><title>Node20&#45;&gt;Node8</title>
<path fill="none" stroke="midnightblue" d="M1039.16,-222.599C1039.82,-196.527 1037.78,-149.581 1018,-116 990.629,-69.5285 933.896,-36.1332 904.148,-21.0244"/>
<polygon fill="midnightblue" stroke="midnightblue" points="1035.66,-222.555 1038.74,-232.692 1042.65,-222.847 1035.66,-222.555"/>
</g>
<!-- Node20&#45;&gt;Node18 -->
<g id="edge54" class="edge"><title>Node20&#45;&gt;Node18</title>
<path fill="none" stroke="midnightblue" d="M978.572,-234.765C881.819,-222.987 693.128,-200.016 614.137,-190.399"/>
<polygon fill="midnightblue" stroke="midnightblue" points="978.422,-238.273 988.772,-236.007 979.268,-231.324 978.422,-238.273"/>
</g>
<!-- Node20&#45;&gt;Node19 -->
<g id="edge59" class="edge"><title>Node20&#45;&gt;Node19</title>
<path fill="none" stroke="midnightblue" d="M1028.64,-223.602C1016.06,-198.873 994.174,-155.858 984.65,-137.139"/>
<polygon fill="midnightblue" stroke="midnightblue" points="1025.6,-225.345 1033.25,-232.671 1031.84,-222.171 1025.6,-225.345"/>
</g>
<!-- Node21 -->
<g id="node21" class="node"><title>Node21</title>
<g id="a_node21"><a xlink:href="info_8h.html" target="_top" xlink:title="Helper functions for manipulating RMF files. ">
<polygon fill="none" stroke="black" points="1064.77,-175 1064.77,-195 1105.23,-195 1105.23,-175 1064.77,-175"/>
<text text-anchor="middle" x="1085" y="-181" font-family="Helvetica,sans-Serif" font-size="10.00">info.h</text>
</a>
</g>
</g>
<!-- Node20&#45;&gt;Node21 -->
<g id="edge55" class="edge"><title>Node20&#45;&gt;Node21</title>
<path fill="none" stroke="midnightblue" d="M1052.42,-224.818C1060.66,-215.003 1070.65,-203.093 1077.38,-195.075"/>
<polygon fill="midnightblue" stroke="midnightblue" points="1049.51,-222.843 1045.76,-232.753 1054.87,-227.343 1049.51,-222.843"/>
</g>
<!-- Node22 -->
<g id="node22" class="node"><title>Node22</title>
<g id="a_node22"><a xlink:href="RestoreCurrentFrame_8h.html" target="_top" xlink:title="Handle read/write of Model data from/to files. ">
<polygon fill="none" stroke="black" points="1123.2,-175 1123.2,-195 1244.8,-195 1244.8,-175 1123.2,-175"/>
<text text-anchor="middle" x="1184" y="-181" font-family="Helvetica,sans-Serif" font-size="10.00">RestoreCurrentFrame.h</text>
</a>
</g>
</g>
<!-- Node20&#45;&gt;Node22 -->
<g id="edge56" class="edge"><title>Node20&#45;&gt;Node22</title>
<path fill="none" stroke="midnightblue" d="M1071.26,-229.244C1098.39,-218.838 1136.05,-204.391 1160.23,-195.118"/>
<polygon fill="midnightblue" stroke="midnightblue" points="1069.87,-226.029 1061.78,-232.878 1072.37,-232.565 1069.87,-226.029"/>
</g>
<!-- Node23 -->
<g id="node23" class="node"><title>Node23</title>
<g id="a_node23"><a xlink:href="SetCurrentFrame_8h.html" target="_top" xlink:title="Handle read/write of Model data from/to files. ">
<polygon fill="none" stroke="black" points="1263.21,-175 1263.21,-195 1364.79,-195 1364.79,-175 1263.21,-175"/>
<text text-anchor="middle" x="1314" y="-181" font-family="Helvetica,sans-Serif" font-size="10.00">SetCurrentFrame.h</text>
</a>
</g>
</g>
<!-- Node20&#45;&gt;Node23 -->
<g id="edge57" class="edge"><title>Node20&#45;&gt;Node23</title>
<path fill="none" stroke="midnightblue" d="M1092.66,-230.91C1144.43,-220.405 1221.24,-204.821 1269.41,-195.047"/>
<polygon fill="midnightblue" stroke="midnightblue" points="1091.76,-227.522 1082.65,-232.94 1093.15,-234.382 1091.76,-227.522"/>
</g>
<!-- Node24 -->
<g id="node24" class="node"><title>Node24</title>
<g id="a_node24"><a xlink:href="signature_8h.html" target="_top" xlink:title="Helper functions for manipulating RMF files. ">
<polygon fill="none" stroke="black" points="1383.26,-175 1383.26,-195 1448.74,-195 1448.74,-175 1383.26,-175"/>
<text text-anchor="middle" x="1416" y="-181" font-family="Helvetica,sans-Serif" font-size="10.00">signature.h</text>
</a>
</g>
</g>
<!-- Node20&#45;&gt;Node24 -->
<g id="edge58" class="edge"><title>Node20&#45;&gt;Node24</title>
<path fill="none" stroke="midnightblue" d="M1097.3,-235.529C1164.47,-227.813 1277.04,-213.707 1373,-196 1376.32,-195.388 1379.76,-194.691 1383.2,-193.956"/>
<polygon fill="midnightblue" stroke="midnightblue" points="1096.87,-232.056 1087.33,-236.666 1097.66,-239.011 1096.87,-232.056"/>
</g>
</g>
</svg>
        <g id="navigator" transform="translate(0 0)" fill="#404254">
                <rect fill="#f2f5e9" fill-opacity="0.5" stroke="#606060" stroke-width=".5" x="0" y="0" width="60" height="60"/>
                <use id="zoomplus" xlink:href="#zoomPlus" x="17" y="9" onmousedown="handleZoom(evt,'in')"/>
                <use id="zoomminus" xlink:href="#zoomMin" x="42" y="9" onmousedown="handleZoom(evt,'out')"/>
                <use id="reset" xlink:href="#resetDef" x="30" y="36" onmousedown="handleReset()"/>
                <g id="arrowUp" xlink:href="#dirArrow" transform="translate(30 24)" onmousedown="handlePan(0,-1)">
                  <use xlink:href="#rim" fill="#404040">
                        <set attributeName="fill" to="#808080" begin="arrowUp.mouseover" end="arrowUp.mouseout"/>
                  </use>
                  <path fill="none" stroke="white" stroke-width="1.5" d="M0,-3.0v7 M-2.5,-0.5L0,-3.0L2.5,-0.5"/>
                </g>
                <g id="arrowRight" xlink:href="#dirArrow" transform="rotate(90) translate(36 -43)" onmousedown="handlePan(1,0)">
                  <use xlink:href="#rim" fill="#404040">
                        <set attributeName="fill" to="#808080" begin="arrowRight.mouseover" end="arrowRight.mouseout"/>
                  </use>
                  <path fill="none" stroke="white" stroke-width="1.5" d="M0,-3.0v7 M-2.5,-0.5L0,-3.0L2.5,-0.5"/>
                </g>
                <g id="arrowDown" xlink:href="#dirArrow" transform="rotate(180) translate(-30 -48)" onmousedown="handlePan(0,1)">
                  <use xlink:href="#rim" fill="#404040">
                        <set attributeName="fill" to="#808080" begin="arrowDown.mouseover" end="arrowDown.mouseout"/>
                  </use>
                  <path fill="none" stroke="white" stroke-width="1.5" d="M0,-3.0v7 M-2.5,-0.5L0,-3.0L2.5,-0.5"/>
                </g>
                <g id="arrowLeft" xlink:href="#dirArrow" transform="rotate(270) translate(-36 17)" onmousedown="handlePan(-1,0)">
                  <use xlink:href="#rim" fill="#404040">
                        <set attributeName="fill" to="#808080" begin="arrowLeft.mouseover" end="arrowLeft.mouseout"/>
                  </use>
                  <path fill="none" stroke="white" stroke-width="1.5" d="M0,-3.0v7 M-2.5,-0.5L0,-3.0L2.5,-0.5"/>
                </g>
        </g>
        <svg viewBox="0 0 15 15" width="100%" height="30px" preserveAspectRatio="xMaxYMin meet">
         <g id="arrow_out" transform="scale(0.3 0.3)">
          <a xlink:href="Enum_8h__dep__incl_org.svg" target="_base">
           <rect id="button" ry="5" rx="5" y="6" x="6" height="38" width="38"
                fill="#f2f5e9" fill-opacity="0.5" stroke="#606060" stroke-width="1.0"/>
           <path id="arrow"
             d="M 11.500037,31.436501 C 11.940474,20.09759 22.043105,11.32322 32.158766,21.979434 L 37.068811,17.246167 C 37.068811,17.246167 37.088388,32 37.088388,32 L 22.160133,31.978069 C 22.160133,31.978069 26.997745,27.140456 26.997745,27.140456 C 18.528582,18.264221 13.291696,25.230495 11.500037,31.436501 z"
             style="fill:#404040;"/>
          </a>
         </g>
        </svg>
</svg>
