<?xml version="1.0" encoding="UTF-8" standalone="no"?>
<!DOCTYPE svg PUBLIC "-//W3C//DTD SVG 1.1//EN"
 "http://www.w3.org/Graphics/SVG/1.1/DTD/svg11.dtd">
<!-- Generated by graphviz version 2.36.0 (20140111.2315)
 -->
<!-- Title: Enum.h Pages: 1 -->
<svg width="1529pt" height="420pt"
 viewBox="0.00 0.00 1529.00 420.00" xmlns="http://www.w3.org/2000/svg" xmlns:xlink="http://www.w3.org/1999/xlink">
<g id="graph0" class="graph" transform="scale(1 1) rotate(0) translate(4 416)">
<title>Enum.h</title>
<!-- Node1 -->
<g id="node1" class="node"><title>Node1</title>
<polygon fill="#bfbfbf" stroke="black" points="436.769,-393 436.769,-411 487.231,-411 487.231,-393 436.769,-393"/>
<text text-anchor="middle" x="462" y="-399" font-family="Helvetica,sans-Serif" font-size="10.00">Enum.h</text>
</g>
<!-- Node2 -->
<g id="node2" class="node"><title>Node2</title>
<g id="a_node2"><a xlink:href="enums_8h.html" target="_top" xlink:title="The various enums used in RMF. ">
<polygon fill="none" stroke="black" points="825.823,-337 825.823,-355 880.177,-355 880.177,-337 825.823,-337"/>
<text text-anchor="middle" x="853" y="-343" font-family="Helvetica,sans-Serif" font-size="10.00">enums.h</text>
</a>
</g>
</g>
<!-- Node1&#45;&gt;Node2 -->
<g id="edge1" class="edge"><title>Node1&#45;&gt;Node2</title>
<path fill="none" stroke="midnightblue" d="M497.534,-396.093C574.758,-385.427 756.494,-360.328 825.64,-350.779"/>
<polygon fill="midnightblue" stroke="midnightblue" points="496.78,-392.663 487.353,-397.499 497.738,-399.597 496.78,-392.663"/>
</g>
<!-- Node17 -->
<g id="node17" class="node"><title>Node17</title>
<g id="a_node17"><a xlink:href="alternatives_8h.html" target="_top" xlink:title="Helper functions for manipulating RMF files. ">
<polygon fill="none" stroke="black" points="33.2612,-113 33.2612,-131 108.739,-131 108.739,-113 33.2612,-113"/>
<text text-anchor="middle" x="71" y="-119" font-family="Helvetica,sans-Serif" font-size="10.00">alternatives.h</text>
</a>
</g>
</g>
<!-- Node1&#45;&gt;Node17 -->
<g id="edge75" class="edge"><title>Node1&#45;&gt;Node17</title>
<path fill="none" stroke="midnightblue" d="M426.614,-398.612C330.542,-391.166 72,-364.317 72,-291 72,-291 72,-291 72,-233 72,-194.804 71.3896,-149.151 71.1226,-131.005"/>
<polygon fill="midnightblue" stroke="midnightblue" points="426.478,-402.112 436.712,-399.369 427.001,-395.131 426.478,-402.112"/>
</g>
<!-- Node3 -->
<g id="node3" class="node"><title>Node3</title>
<g id="a_node3"><a xlink:href="NodeConstHandle_8h.html" target="_top" xlink:title="Declaration of NodeConstHandlke. ">
<polygon fill="none" stroke="black" points="847.971,-281 847.971,-299 954.029,-299 954.029,-281 847.971,-281"/>
<text text-anchor="middle" x="901" y="-287" font-family="Helvetica,sans-Serif" font-size="10.00">NodeConstHandle.h</text>
</a>
</g>
</g>
<!-- Node2&#45;&gt;Node3 -->
<g id="edge2" class="edge"><title>Node2&#45;&gt;Node3</title>
<path fill="none" stroke="midnightblue" d="M867.199,-329.027C875.909,-319.228 886.698,-307.09 893.71,-299.201"/>
<polygon fill="midnightblue" stroke="midnightblue" points="864.528,-326.763 860.5,-336.562 869.76,-331.414 864.528,-326.763"/>
</g>
<!-- Node9 -->
<g id="node9" class="node"><title>Node9</title>
<g id="a_node9"><a xlink:href="benchmark__rmf_8cpp_source.html" target="_top" xlink:title="benchmark_rmf.cpp">
<polygon fill="none" stroke="black" points="895.815,-1 895.815,-19 1000.18,-19 1000.18,-1 895.815,-1"/>
<text text-anchor="middle" x="948" y="-7" font-family="Helvetica,sans-Serif" font-size="10.00">benchmark_rmf.cpp</text>
</a>
</g>
</g>
<!-- Node2&#45;&gt;Node9 -->
<g id="edge74" class="edge"><title>Node2&#45;&gt;Node9</title>
<path fill="none" stroke="midnightblue" d="M890.744,-342.809C1031.95,-334.116 1521,-299.363 1521,-235 1521,-235 1521,-235 1521,-121 1521,-68.263 1141.82,-28.5348 1000.37,-15.5491"/>
<polygon fill="midnightblue" stroke="midnightblue" points="890.201,-339.335 880.432,-343.435 890.626,-346.322 890.201,-339.335"/>
</g>
<!-- Node18 -->
<g id="node18" class="node"><title>Node18</title>
<g id="a_node18"><a xlink:href="NodeHandle_8h.html" target="_top" xlink:title="Declaration of NodeHandle. ">
<polygon fill="none" stroke="black" points="517.032,-225 517.032,-243 596.968,-243 596.968,-225 517.032,-225"/>
<text text-anchor="middle" x="557" y="-231" font-family="Helvetica,sans-Serif" font-size="10.00">NodeHandle.h</text>
</a>
</g>
</g>
<!-- Node2&#45;&gt;Node18 -->
<g id="edge71" class="edge"><title>Node2&#45;&gt;Node18</title>
<path fill="none" stroke="midnightblue" d="M821.491,-333.291C761.126,-310.858 630.576,-262.342 578.797,-243.1"/>
<polygon fill="midnightblue" stroke="midnightblue" points="820.642,-336.709 831.234,-336.911 823.08,-330.147 820.642,-336.709"/>
</g>
<!-- Node19 -->
<g id="node19" class="node"><title>Node19</title>
<g id="a_node19"><a xlink:href="FileHandle_8h.html" target="_top" xlink:title="Declaration for RMF::FileHandle. ">
<polygon fill="none" stroke="black" points="603.929,-169 603.929,-187 676.071,-187 676.071,-169 603.929,-169"/>
<text text-anchor="middle" x="640" y="-175" font-family="Helvetica,sans-Serif" font-size="10.00">FileHandle.h</text>
</a>
</g>
</g>
<!-- Node2&#45;&gt;Node19 -->
<g id="edge73" class="edge"><title>Node2&#45;&gt;Node19</title>
<path fill="none" stroke="midnightblue" d="M834.786,-330.805C791.75,-297.265 684.831,-213.939 650.672,-187.317"/>
<polygon fill="midnightblue" stroke="midnightblue" points="832.688,-333.607 842.727,-336.993 836.991,-328.086 832.688,-333.607"/>
</g>
<!-- Node23 -->
<g id="node23" class="node"><title>Node23</title>
<g id="a_node23"><a xlink:href="FileConstHandle_8h.html" target="_top" xlink:title="Handle read/write of Model data from/to files. ">
<polygon fill="none" stroke="black" points="1041.87,-225 1041.87,-243 1140.13,-243 1140.13,-225 1041.87,-225"/>
<text text-anchor="middle" x="1091" y="-231" font-family="Helvetica,sans-Serif" font-size="10.00">FileConstHandle.h</text>
</a>
</g>
</g>
<!-- Node2&#45;&gt;Node23 -->
<g id="edge72" class="edge"><title>Node2&#45;&gt;Node23</title>
<path fill="none" stroke="midnightblue" d="M883.878,-333.148C906.086,-324.435 936.641,-312.06 963,-300 1004.7,-280.92 1052.58,-255.689 1076.22,-243.005"/>
<polygon fill="midnightblue" stroke="midnightblue" points="882.353,-329.986 874.307,-336.879 884.895,-336.508 882.353,-329.986"/>
</g>
<!-- Node4 -->
<g id="node4" class="node"><title>Node4</title>
<g id="a_node4"><a xlink:href="Decorator_8h.html" target="_top" xlink:title="Mostly empty base classes for decorators and factories. ">
<polygon fill="none" stroke="black" points="441.15,-169 441.15,-187 508.85,-187 508.85,-169 441.15,-169"/>
<text text-anchor="middle" x="475" y="-175" font-family="Helvetica,sans-Serif" font-size="10.00">Decorator.h</text>
</a>
</g>
</g>
<!-- Node3&#45;&gt;Node4 -->
<g id="edge3" class="edge"><title>Node3&#45;&gt;Node4</title>
<path fill="none" stroke="midnightblue" d="M859.865,-278.378C774.892,-256.437 581.628,-206.533 506.083,-187.026"/>
<polygon fill="midnightblue" stroke="midnightblue" points="859.118,-281.8 869.675,-280.911 860.868,-275.022 859.118,-281.8"/>
</g>
<!-- Node3&#45;&gt;Node9 -->
<g id="edge70" class="edge"><title>Node3&#45;&gt;Node9</title>
<path fill="none" stroke="midnightblue" d="M915.655,-273.058C922.18,-264.965 929.231,-254.615 933,-244 962.57,-160.728 952.656,-50.3166 949.061,-19.3731"/>
<polygon fill="midnightblue" stroke="midnightblue" points="912.816,-270.991 908.96,-280.859 918.128,-275.55 912.816,-270.991"/>
</g>
<!-- Node3&#45;&gt;Node18 -->
<g id="edge31" class="edge"><title>Node3&#45;&gt;Node18</title>
<path fill="none" stroke="midnightblue" d="M839.852,-279.401C769.764,-268.399 656.891,-250.681 597.124,-241.299"/>
<polygon fill="midnightblue" stroke="midnightblue" points="839.449,-282.881 849.871,-280.974 840.535,-275.965 839.449,-282.881"/>
</g>
<!-- Node20 -->
<g id="node20" class="node"><title>Node20</title>
<g id="a_node20"><a xlink:href="validate_8h.html" target="_top" xlink:title="Support for validating the data in a file. ">
<polygon fill="none" stroke="black" points="1013.6,-113 1013.6,-131 1072.4,-131 1072.4,-113 1013.6,-113"/>
<text text-anchor="middle" x="1043" y="-119" font-family="Helvetica,sans-Serif" font-size="10.00">validate.h</text>
</a>
</g>
</g>
<!-- Node3&#45;&gt;Node20 -->
<g id="edge69" class="edge"><title>Node3&#45;&gt;Node20</title>
<path fill="none" stroke="midnightblue" d="M932.187,-276.693C948.293,-269.136 967.369,-258.171 981,-244 1014.71,-208.956 1034.31,-151.961 1040.69,-131.034"/>
<polygon fill="midnightblue" stroke="midnightblue" points="930.328,-273.689 922.618,-280.956 933.177,-280.083 930.328,-273.689"/>
</g>
<!-- Node3&#45;&gt;Node23 -->
<g id="edge60" class="edge"><title>Node3&#45;&gt;Node23</title>
<path fill="none" stroke="midnightblue" d="M939.239,-278.132C975.738,-267.759 1029.89,-252.369 1062.67,-243.051"/>
<polygon fill="midnightblue" stroke="midnightblue" points="938.107,-274.815 929.445,-280.916 940.021,-281.548 938.107,-274.815"/>
</g>
<!-- Node28 -->
<g id="node28" class="node"><title>Node28</title>
<g id="a_node28"><a xlink:href="utility_8h.html" target="_top" xlink:title="Helper functions for manipulating RMF files. ">
<polygon fill="none" stroke="black" points="877.807,-225 877.807,-243 924.193,-243 924.193,-225 877.807,-225"/>
<text text-anchor="middle" x="901" y="-231" font-family="Helvetica,sans-Serif" font-size="10.00">utility.h</text>
</a>
</g>
</g>
<!-- Node3&#45;&gt;Node28 -->
<g id="edge68" class="edge"><title>Node3&#45;&gt;Node28</title>
<path fill="none" stroke="midnightblue" d="M901,-270.329C901,-261.077 901,-250.38 901,-243.201"/>
<polygon fill="midnightblue" stroke="midnightblue" points="897.5,-270.562 901,-280.562 904.5,-270.563 897.5,-270.562"/>
</g>
<!-- Node5 -->
<g id="node5" class="node"><title>Node5</title>
<g id="a_node5"><a xlink:href="alias_8h.html" target="_top" xlink:title="Helper functions for manipulating RMF files. ">
<polygon fill="none" stroke="black" points="615.547,-113 615.547,-131 660.453,-131 660.453,-113 615.547,-113"/>
<text text-anchor="middle" x="638" y="-119" font-family="Helvetica,sans-Serif" font-size="10.00">alias.h</text>
</a>
</g>
</g>
<!-- Node4&#45;&gt;Node5 -->
<g id="edge4" class="edge"><title>Node4&#45;&gt;Node5</title>
<path fill="none" stroke="midnightblue" d="M509.222,-165.663C541.205,-155.067 588.038,-139.552 615.532,-130.443"/>
<polygon fill="midnightblue" stroke="midnightblue" points="507.795,-162.448 499.403,-168.916 509.996,-169.093 507.795,-162.448"/>
</g>
<!-- Node7 -->
<g id="node7" class="node"><title>Node7</title>
<g id="a_node7"><a xlink:href="physics_8h.html" target="_top" xlink:title="Helper functions for manipulating RMF files. ">
<polygon fill="none" stroke="black" points="618.158,-57 618.158,-75 675.842,-75 675.842,-57 618.158,-57"/>
<text text-anchor="middle" x="647" y="-63" font-family="Helvetica,sans-Serif" font-size="10.00">physics.h</text>
</a>
</g>
</g>
<!-- Node4&#45;&gt;Node7 -->
<g id="edge14" class="edge"><title>Node4&#45;&gt;Node7</title>
<path fill="none" stroke="midnightblue" d="M472.167,-158.492C471.059,-144.138 472.088,-124.625 483,-112 500.52,-91.7285 575.633,-77.5817 617.868,-71.0646"/>
<polygon fill="midnightblue" stroke="midnightblue" points="468.719,-159.145 473.365,-168.667 475.671,-158.326 468.719,-159.145"/>
</g>
<!-- Node10 -->
<g id="node10" class="node"><title>Node10</title>
<g id="a_node10"><a xlink:href="external_8h.html" target="_top" xlink:title="Helper functions for manipulating RMF files. ">
<polygon fill="none" stroke="black" points="297.042,-113 297.042,-131 356.958,-131 356.958,-113 297.042,-113"/>
<text text-anchor="middle" x="327" y="-119" font-family="Helvetica,sans-Serif" font-size="10.00">external.h</text>
</a>
</g>
</g>
<!-- Node4&#45;&gt;Node10 -->
<g id="edge10" class="edge"><title>Node4&#45;&gt;Node10</title>
<path fill="none" stroke="midnightblue" d="M443.402,-165.471C415.107,-155.147 374.331,-140.269 349.309,-131.14"/>
<polygon fill="midnightblue" stroke="midnightblue" points="442.249,-168.776 452.843,-168.916 444.648,-162.2 442.249,-168.776"/>
</g>
<!-- Node11 -->
<g id="node11" class="node"><title>Node11</title>
<g id="a_node11"><a xlink:href="feature_8h.html" target="_top" xlink:title="Helper functions for manipulating RMF files. ">
<polygon fill="none" stroke="black" points="375.264,-113 375.264,-131 430.736,-131 430.736,-113 375.264,-113"/>
<text text-anchor="middle" x="403" y="-119" font-family="Helvetica,sans-Serif" font-size="10.00">feature.h</text>
</a>
</g>
</g>
<!-- Node4&#45;&gt;Node11 -->
<g id="edge12" class="edge"><title>Node4&#45;&gt;Node11</title>
<path fill="none" stroke="midnightblue" d="M455.97,-162.727C442.599,-152.699 425.178,-139.634 414.038,-131.279"/>
<polygon fill="midnightblue" stroke="midnightblue" points="453.965,-165.599 464.065,-168.799 458.165,-159.999 453.965,-165.599"/>
</g>
<!-- Node12 -->
<g id="node12" class="node"><title>Node12</title>
<g id="a_node12"><a xlink:href="publication_8h.html" target="_top" xlink:title="Helper functions for manipulating RMF files. ">
<polygon fill="none" stroke="black" points="524.924,-113 524.924,-131 597.076,-131 597.076,-113 524.924,-113"/>
<text text-anchor="middle" x="561" y="-119" font-family="Helvetica,sans-Serif" font-size="10.00">publication.h</text>
</a>
</g>
</g>
<!-- Node4&#45;&gt;Node12 -->
<g id="edge15" class="edge"><title>Node4&#45;&gt;Node12</title>
<path fill="none" stroke="midnightblue" d="M496.878,-163.262C513.067,-153.098 534.569,-139.596 548.097,-131.102"/>
<polygon fill="midnightblue" stroke="midnightblue" points="494.669,-160.517 488.062,-168.799 498.392,-166.445 494.669,-160.517"/>
</g>
<!-- Node13 -->
<g id="node13" class="node"><title>Node13</title>
<g id="a_node13"><a xlink:href="sequence_8h.html" target="_top" xlink:title="Helper functions for manipulating RMF files. ">
<polygon fill="none" stroke="black" points="766.146,-57 766.146,-75 833.854,-75 833.854,-57 766.146,-57"/>
<text text-anchor="middle" x="800" y="-63" font-family="Helvetica,sans-Serif" font-size="10.00">sequence.h</text>
</a>
</g>
</g>
<!-- Node4&#45;&gt;Node13 -->
<g id="edge17" class="edge"><title>Node4&#45;&gt;Node13</title>
<path fill="none" stroke="midnightblue" d="M481.508,-158.844C487.893,-143.784 499.146,-123.105 516,-112 536.634,-98.4042 695.24,-78.9202 766.049,-70.7893"/>
<polygon fill="midnightblue" stroke="midnightblue" points="478.076,-158.011 477.708,-168.599 484.599,-160.551 478.076,-158.011"/>
</g>
<!-- Node14 -->
<g id="node14" class="node"><title>Node14</title>
<g id="a_node14"><a xlink:href="shape_8h.html" target="_top" xlink:title="Helper functions for manipulating RMF files. ">
<polygon fill="none" stroke="black" points="678.207,-113 678.207,-131 729.793,-131 729.793,-113 678.207,-113"/>
<text text-anchor="middle" x="704" y="-119" font-family="Helvetica,sans-Serif" font-size="10.00">shape.h</text>
</a>
</g>
</g>
<!-- Node4&#45;&gt;Node14 -->
<g id="edge21" class="edge"><title>Node4&#45;&gt;Node14</title>
<path fill="none" stroke="midnightblue" d="M518.86,-167.139C558.226,-158.214 617.558,-144.578 669,-132 671.925,-131.285 674.984,-130.521 678.024,-129.753"/>
<polygon fill="midnightblue" stroke="midnightblue" points="518.032,-163.738 509.051,-169.359 519.577,-170.565 518.032,-163.738"/>
</g>
<!-- Node15 -->
<g id="node15" class="node"><title>Node15</title>
<g id="a_node15"><a xlink:href="bond_8h.html" target="_top" xlink:title="Helper functions for manipulating RMF files. ">
<polygon fill="none" stroke="black" points="126.707,-113 126.707,-131 173.293,-131 173.293,-113 126.707,-113"/>
<text text-anchor="middle" x="150" y="-119" font-family="Helvetica,sans-Serif" font-size="10.00">bond.h</text>
</a>
</g>
</g>
<!-- Node4&#45;&gt;Node15 -->
<g id="edge24" class="edge"><title>Node4&#45;&gt;Node15</title>
<path fill="none" stroke="midnightblue" d="M430.703,-171.903C373.055,-164.882 269.363,-150.921 182,-132 179.18,-131.389 176.241,-130.674 173.336,-129.918"/>
<polygon fill="midnightblue" stroke="midnightblue" points="430.57,-175.413 440.916,-173.133 431.407,-168.463 430.57,-175.413"/>
</g>
<!-- Node16 -->
<g id="node16" class="node"><title>Node16</title>
<g id="a_node16"><a xlink:href="representation_8h.html" target="_top" xlink:title="Helper functions for manipulating RMF files. ">
<polygon fill="none" stroke="black" points="190.865,-113 190.865,-131 279.135,-131 279.135,-113 190.865,-113"/>
<text text-anchor="middle" x="235" y="-119" font-family="Helvetica,sans-Serif" font-size="10.00">representation.h</text>
</a>
</g>
</g>
<!-- Node4&#45;&gt;Node16 -->
<g id="edge26" class="edge"><title>Node4&#45;&gt;Node16</title>
<path fill="none" stroke="midnightblue" d="M431.126,-167.128C385.029,-156.757 313.406,-140.641 270.66,-131.024"/>
<polygon fill="midnightblue" stroke="midnightblue" points="430.598,-170.597 441.123,-169.378 432.135,-163.768 430.598,-170.597"/>
</g>
<!-- Node4&#45;&gt;Node17 -->
<g id="edge28" class="edge"><title>Node4&#45;&gt;Node17</title>
<path fill="none" stroke="midnightblue" d="M430.654,-172.331C363.029,-165.003 230.153,-149.788 118,-132 115.046,-131.531 111.993,-131.017 108.928,-130.478"/>
<polygon fill="midnightblue" stroke="midnightblue" points="430.616,-175.847 440.933,-173.438 431.366,-168.887 430.616,-175.847"/>
</g>
<!-- Node6 -->
<g id="node6" class="node"><title>Node6</title>
<g id="a_node6"><a xlink:href="decorators_8h.html" target="_top" xlink:title="Import all the decorators headers. ">
<polygon fill="none" stroke="black" points="367.207,-1 367.207,-19 438.793,-19 438.793,-1 367.207,-1"/>
<text text-anchor="middle" x="403" y="-7" font-family="Helvetica,sans-Serif" font-size="10.00">decorators.h</text>
</a>
</g>
</g>
<!-- Node5&#45;&gt;Node6 -->
<g id="edge5" class="edge"><title>Node5&#45;&gt;Node6</title>
<path fill="none" stroke="midnightblue" d="M611.482,-108.587C562.925,-85.8585 460.989,-38.1436 420.305,-19.1004"/>
<polygon fill="midnightblue" stroke="midnightblue" points="610.179,-111.842 620.72,-112.911 613.147,-105.502 610.179,-111.842"/>
</g>
<!-- Node5&#45;&gt;Node7 -->
<g id="edge6" class="edge"><title>Node5&#45;&gt;Node7</title>
<path fill="none" stroke="midnightblue" d="M641.061,-102.633C642.615,-93.3129 644.424,-82.4586 645.633,-75.2014"/>
<polygon fill="midnightblue" stroke="midnightblue" points="637.598,-102.123 639.406,-112.562 644.503,-103.274 637.598,-102.123"/>
</g>
<!-- Node7&#45;&gt;Node6 -->
<g id="edge7" class="edge"><title>Node7&#45;&gt;Node6</title>
<path fill="none" stroke="midnightblue" d="M608.044,-56.3787C561.496,-46.077 484.248,-28.981 439.032,-18.9742"/>
<polygon fill="midnightblue" stroke="midnightblue" points="607.532,-59.8498 618.052,-58.5934 609.044,-53.0152 607.532,-59.8498"/>
</g>
<!-- Node8 -->
<g id="node8" class="node"><title>Node8</title>
<g id="a_node8"><a xlink:href="TraverseHelper_8h.html" target="_top" xlink:title="A helper function for managing data when traversing an RMF. ">
<polygon fill="none" stroke="black" points="628.831,-1 628.831,-19 721.169,-19 721.169,-1 628.831,-1"/>
<text text-anchor="middle" x="675" y="-7" font-family="Helvetica,sans-Serif" font-size="10.00">TraverseHelper.h</text>
</a>
</g>
</g>
<!-- Node7&#45;&gt;Node8 -->
<g id="edge8" class="edge"><title>Node7&#45;&gt;Node8</title>
<path fill="none" stroke="midnightblue" d="M656.053,-47.54C660.987,-38.0247 666.862,-26.6953 670.747,-19.2014"/>
<polygon fill="midnightblue" stroke="midnightblue" points="652.871,-46.0738 651.375,-56.5625 659.085,-49.2961 652.871,-46.0738"/>
</g>
<!-- Node7&#45;&gt;Node9 -->
<g id="edge9" class="edge"><title>Node7&#45;&gt;Node9</title>
<path fill="none" stroke="midnightblue" d="M685.711,-58.0552C741.501,-48.0463 844.271,-29.6091 903.247,-19.0288"/>
<polygon fill="midnightblue" stroke="midnightblue" points="685.086,-54.6113 675.861,-59.8223 686.322,-61.5013 685.086,-54.6113"/>
</g>
<!-- Node10&#45;&gt;Node6 -->
<g id="edge11" class="edge"><title>Node10&#45;&gt;Node6</title>
<path fill="none" stroke="midnightblue" d="M338.539,-104.299C355.124,-80.2936 385.065,-36.9589 397.428,-19.0649"/>
<polygon fill="midnightblue" stroke="midnightblue" points="335.517,-102.515 332.712,-112.732 341.276,-106.494 335.517,-102.515"/>
</g>
<!-- Node11&#45;&gt;Node6 -->
<g id="edge13" class="edge"><title>Node11&#45;&gt;Node6</title>
<path fill="none" stroke="midnightblue" d="M403,-102.678C403,-78.3886 403,-36.563 403,-19.0649"/>
<polygon fill="midnightblue" stroke="midnightblue" points="399.5,-102.732 403,-112.732 406.5,-102.732 399.5,-102.732"/>
</g>
<!-- Node12&#45;&gt;Node6 -->
<g id="edge16" class="edge"><title>Node12&#45;&gt;Node6</title>
<path fill="none" stroke="midnightblue" d="M539.437,-107.352C525.732,-98.5763 507.681,-86.8286 492,-76 463.345,-56.2127 430.45,-31.7074 413.828,-19.1936"/>
<polygon fill="midnightblue" stroke="midnightblue" points="537.835,-110.482 548.149,-112.906 541.598,-104.579 537.835,-110.482"/>
</g>
<!-- Node13&#45;&gt;Node6 -->
<g id="edge18" class="edge"><title>Node13&#45;&gt;Node6</title>
<path fill="none" stroke="midnightblue" d="M755.659,-58.9688C676.362,-48.1828 511.757,-25.7932 438.962,-15.8915"/>
<polygon fill="midnightblue" stroke="midnightblue" points="755.428,-62.4694 765.808,-60.3493 756.371,-55.5333 755.428,-62.4694"/>
</g>
<!-- Node13&#45;&gt;Node8 -->
<g id="edge19" class="edge"><title>Node13&#45;&gt;Node8</title>
<path fill="none" stroke="midnightblue" d="M772.05,-52.9258C748.216,-42.6293 714.606,-28.1098 693.842,-19.1396"/>
<polygon fill="midnightblue" stroke="midnightblue" points="770.718,-56.1628 781.286,-56.9157 773.494,-49.7368 770.718,-56.1628"/>
</g>
<!-- Node13&#45;&gt;Node9 -->
<g id="edge20" class="edge"><title>Node13&#45;&gt;Node9</title>
<path fill="none" stroke="midnightblue" d="M831.598,-53.4709C859.893,-43.1473 900.669,-28.2693 925.691,-19.1396"/>
<polygon fill="midnightblue" stroke="midnightblue" points="830.352,-50.2 822.157,-56.9157 832.751,-56.7759 830.352,-50.2"/>
</g>
<!-- Node14&#45;&gt;Node6 -->
<g id="edge22" class="edge"><title>Node14&#45;&gt;Node6</title>
<path fill="none" stroke="midnightblue" d="M674.118,-109.106C640.447,-95.7968 584.011,-73.772 535,-56 497.671,-42.4642 453.997,-27.8031 427.427,-19.0136"/>
<polygon fill="midnightblue" stroke="midnightblue" points="673.218,-112.513 683.804,-112.942 675.795,-106.005 673.218,-112.513"/>
</g>
<!-- Node14&#45;&gt;Node8 -->
<g id="edge23" class="edge"><title>Node14&#45;&gt;Node8</title>
<path fill="none" stroke="midnightblue" d="M699.256,-103.006C692.866,-78.7676 681.76,-36.6422 677.126,-19.0649"/>
<polygon fill="midnightblue" stroke="midnightblue" points="695.887,-103.955 701.82,-112.732 702.655,-102.17 695.887,-103.955"/>
</g>
<!-- Node15&#45;&gt;Node6 -->
<g id="edge25" class="edge"><title>Node15&#45;&gt;Node6</title>
<path fill="none" stroke="midnightblue" d="M177.898,-108.871C229.908,-86.2574 340.387,-38.2231 384.369,-19.1004"/>
<polygon fill="midnightblue" stroke="midnightblue" points="176.379,-105.714 168.604,-112.911 179.17,-112.134 176.379,-105.714"/>
</g>
<!-- Node16&#45;&gt;Node6 -->
<g id="edge27" class="edge"><title>Node16&#45;&gt;Node6</title>
<path fill="none" stroke="midnightblue" d="M255.954,-107.28C291.394,-84.0756 362.091,-37.7858 390.628,-19.1004"/>
<polygon fill="midnightblue" stroke="midnightblue" points="253.802,-104.505 247.353,-112.911 257.637,-110.362 253.802,-104.505"/>
</g>
<!-- Node17&#45;&gt;Node6 -->
<g id="edge29" class="edge"><title>Node17&#45;&gt;Node6</title>
<path fill="none" stroke="midnightblue" d="M101.542,-109.252C137.013,-95.7606 197.394,-73.2691 250,-56 292.748,-41.9671 342.874,-27.6177 373.787,-19.0078"/>
<polygon fill="midnightblue" stroke="midnightblue" points="99.8921,-106.135 91.797,-112.97 102.388,-112.675 99.8921,-106.135"/>
</g>
<!-- Node17&#45;&gt;Node8 -->
<g id="edge30" class="edge"><title>Node17&#45;&gt;Node8</title>
<path fill="none" stroke="midnightblue" d="M118.899,-111.846C315.586,-75.2243 536.571,-35.6593 629.848,-19.0323"/>
<polygon fill="midnightblue" stroke="midnightblue" points="118.148,-108.426 108.959,-113.698 119.431,-115.307 118.148,-108.426"/>
</g>
<!-- Node18&#45;&gt;Node4 -->
<g id="edge32" class="edge"><title>Node18&#45;&gt;Node4</title>
<path fill="none" stroke="midnightblue" d="M536.139,-219.262C520.704,-209.098 500.202,-195.596 487.303,-187.102"/>
<polygon fill="midnightblue" stroke="midnightblue" points="534.269,-222.222 544.546,-224.799 538.119,-216.376 534.269,-222.222"/>
</g>
<!-- Node18&#45;&gt;Node5 -->
<g id="edge33" class="edge"><title>Node18&#45;&gt;Node5</title>
<path fill="none" stroke="midnightblue" d="M565.798,-215.482C572.912,-201.987 583.59,-183.14 595,-168 605.536,-154.02 619.957,-139.713 629.127,-131.092"/>
<polygon fill="midnightblue" stroke="midnightblue" points="562.565,-214.116 561.101,-224.609 568.789,-217.319 562.565,-214.116"/>
</g>
<!-- Node18&#45;&gt;Node7 -->
<g id="edge49" class="edge"><title>Node18&#45;&gt;Node7</title>
<path fill="none" stroke="midnightblue" d="M607.146,-225.964C657.895,-215.633 731.931,-190.736 754,-132 767.417,-96.2918 712.151,-78.9945 676.067,-71.647"/>
<polygon fill="midnightblue" stroke="midnightblue" points="606.18,-222.585 597.014,-227.898 607.493,-229.461 606.18,-222.585"/>
</g>
<!-- Node18&#45;&gt;Node9 -->
<g id="edge59" class="edge"><title>Node18&#45;&gt;Node9</title>
<path fill="none" stroke="midnightblue" d="M607.344,-228.321C649.358,-222.902 709.917,-211.499 758,-188 845.892,-145.045 921.299,-47.7339 942.234,-19.0814"/>
<polygon fill="midnightblue" stroke="midnightblue" points="606.848,-224.855 597.347,-229.543 607.697,-231.804 606.848,-224.855"/>
</g>
<!-- Node18&#45;&gt;Node10 -->
<g id="edge47" class="edge"><title>Node18&#45;&gt;Node10</title>
<path fill="none" stroke="midnightblue" d="M510.696,-222.459C482.183,-214.976 445.398,-203.5 415,-188 383.527,-171.952 351.334,-144.911 336.081,-131.322"/>
<polygon fill="midnightblue" stroke="midnightblue" points="509.857,-225.857 520.412,-224.94 511.588,-219.075 509.857,-225.857"/>
</g>
<!-- Node18&#45;&gt;Node11 -->
<g id="edge48" class="edge"><title>Node18&#45;&gt;Node11</title>
<path fill="none" stroke="midnightblue" d="M507.224,-224.699C482.106,-218.313 452.666,-207.189 432,-188 415.157,-172.361 407.48,-145.134 404.541,-131.414"/>
<polygon fill="midnightblue" stroke="midnightblue" points="506.431,-228.108 516.968,-227 508.04,-221.295 506.431,-228.108"/>
</g>
<!-- Node18&#45;&gt;Node12 -->
<g id="edge50" class="edge"><title>Node18&#45;&gt;Node12</title>
<path fill="none" stroke="midnightblue" d="M557.666,-214.678C558.55,-190.389 560.07,-148.563 560.707,-131.065"/>
<polygon fill="midnightblue" stroke="midnightblue" points="554.166,-214.612 557.301,-224.732 561.162,-214.866 554.166,-214.612"/>
</g>
<!-- Node18&#45;&gt;Node13 -->
<g id="edge51" class="edge"><title>Node18&#45;&gt;Node13</title>
<path fill="none" stroke="midnightblue" d="M607.398,-228.715C644.572,-223.605 695.068,-212.426 733,-188 774.993,-160.959 792.978,-97.9809 798.246,-75.3146"/>
<polygon fill="midnightblue" stroke="midnightblue" points="606.766,-225.267 597.288,-230.001 607.65,-232.211 606.766,-225.267"/>
</g>
<!-- Node18&#45;&gt;Node14 -->
<g id="edge52" class="edge"><title>Node18&#45;&gt;Node14</title>
<path fill="none" stroke="midnightblue" d="M607.04,-226.564C633.52,-220.686 664.67,-209.452 685,-188 700.042,-172.128 703.256,-145.007 703.889,-131.362"/>
<polygon fill="midnightblue" stroke="midnightblue" points="606.26,-223.151 597.153,-228.565 607.648,-230.012 606.26,-223.151"/>
</g>
<!-- Node18&#45;&gt;Node15 -->
<g id="edge53" class="edge"><title>Node18&#45;&gt;Node15</title>
<path fill="none" stroke="midnightblue" d="M506.966,-225.48C460.218,-217.911 388.719,-204.941 328,-188 268.742,-171.467 201.078,-144.405 168.908,-131.018"/>
<polygon fill="midnightblue" stroke="midnightblue" points="506.416,-228.936 516.843,-227.058 507.52,-222.024 506.416,-228.936"/>
</g>
<!-- Node18&#45;&gt;Node16 -->
<g id="edge54" class="edge"><title>Node18&#45;&gt;Node16</title>
<path fill="none" stroke="midnightblue" d="M507.499,-222.692C471.863,-214.705 422.89,-202.563 381,-188 332.255,-171.053 277.27,-144.419 250.845,-131.121"/>
<polygon fill="midnightblue" stroke="midnightblue" points="507.123,-226.193 517.643,-224.934 508.634,-219.358 507.123,-226.193"/>
</g>
<!-- Node18&#45;&gt;Node17 -->
<g id="edge55" class="edge"><title>Node18&#45;&gt;Node17</title>
<path fill="none" stroke="midnightblue" d="M506.809,-227.899C448.229,-221.34 348.7,-208.314 265,-188 200.278,-172.292 126.294,-144.725 91.3347,-131.097"/>
<polygon fill="midnightblue" stroke="midnightblue" points="506.583,-231.395 516.906,-229.01 507.349,-224.437 506.583,-231.395"/>
</g>
<!-- Node18&#45;&gt;Node19 -->
<g id="edge34" class="edge"><title>Node18&#45;&gt;Node19</title>
<path fill="none" stroke="midnightblue" d="M578.115,-219.262C593.739,-209.098 614.491,-195.596 627.547,-187.102"/>
<polygon fill="midnightblue" stroke="midnightblue" points="576.079,-216.411 569.606,-224.799 579.897,-222.279 576.079,-216.411"/>
</g>
<!-- Node21 -->
<g id="node21" class="node"><title>Node21</title>
<g id="a_node21"><a xlink:href="Label_8h.html" target="_top" xlink:title="Declaration of RMF::Label. ">
<polygon fill="none" stroke="black" points="99.5962,-169 99.5962,-187 148.404,-187 148.404,-169 99.5962,-169"/>
<text text-anchor="middle" x="124" y="-175" font-family="Helvetica,sans-Serif" font-size="10.00">Label.h</text>
</a>
</g>
</g>
<!-- Node18&#45;&gt;Node21 -->
<g id="edge56" class="edge"><title>Node18&#45;&gt;Node21</title>
<path fill="none" stroke="midnightblue" d="M506.614,-226.716C413.377,-215.089 217.176,-190.62 148.426,-182.046"/>
<polygon fill="midnightblue" stroke="midnightblue" points="506.297,-230.204 516.653,-227.968 507.163,-223.258 506.297,-230.204"/>
</g>
<!-- Node19&#45;&gt;Node5 -->
<g id="edge35" class="edge"><title>Node19&#45;&gt;Node5</title>
<path fill="none" stroke="midnightblue" d="M639.308,-158.329C638.966,-149.077 638.57,-138.38 638.304,-131.201"/>
<polygon fill="midnightblue" stroke="midnightblue" points="635.82,-158.699 639.688,-168.562 642.815,-158.44 635.82,-158.699"/>
</g>
<!-- Node19&#45;&gt;Node7 -->
<g id="edge38" class="edge"><title>Node19&#45;&gt;Node7</title>
<path fill="none" stroke="midnightblue" d="M686.05,-167.516C705.556,-160.976 726.416,-150.066 738,-132 755.973,-103.97 709.024,-84.3244 676.073,-74.4088"/>
<polygon fill="midnightblue" stroke="midnightblue" points="684.881,-164.213 676.331,-170.47 686.917,-170.911 684.881,-164.213"/>
</g>
<!-- Node19&#45;&gt;Node9 -->
<g id="edge46" class="edge"><title>Node19&#45;&gt;Node9</title>
<path fill="none" stroke="midnightblue" d="M683.861,-166.367C711.67,-158.746 747.938,-147.153 778,-132 844.639,-98.4093 914.11,-40.5285 938.705,-19.2002"/>
<polygon fill="midnightblue" stroke="midnightblue" points="682.783,-163.033 674.025,-168.995 684.589,-169.795 682.783,-163.033"/>
</g>
<!-- Node19&#45;&gt;Node10 -->
<g id="edge36" class="edge"><title>Node19&#45;&gt;Node10</title>
<path fill="none" stroke="midnightblue" d="M593.453,-170.284C538.808,-162.185 445.532,-147.691 366,-132 363.137,-131.435 360.163,-130.813 357.193,-130.168"/>
<polygon fill="midnightblue" stroke="midnightblue" points="593.119,-173.773 603.523,-171.769 594.141,-166.847 593.119,-173.773"/>
</g>
<!-- Node19&#45;&gt;Node11 -->
<g id="edge37" class="edge"><title>Node19&#45;&gt;Node11</title>
<path fill="none" stroke="midnightblue" d="M594.895,-166.723C546.583,-155.715 471.423,-138.59 430.997,-129.379"/>
<polygon fill="midnightblue" stroke="midnightblue" points="594.247,-170.165 604.775,-168.974 595.802,-163.34 594.247,-170.165"/>
</g>
<!-- Node19&#45;&gt;Node12 -->
<g id="edge39" class="edge"><title>Node19&#45;&gt;Node12</title>
<path fill="none" stroke="midnightblue" d="M619.484,-162.976C604.663,-152.846 585.164,-139.517 572.852,-131.102"/>
<polygon fill="midnightblue" stroke="midnightblue" points="617.771,-166.045 628.002,-168.799 621.721,-160.266 617.771,-166.045"/>
</g>
<!-- Node19&#45;&gt;Node13 -->
<g id="edge40" class="edge"><title>Node19&#45;&gt;Node13</title>
<path fill="none" stroke="midnightblue" d="M684.246,-166.085C706.752,-158.99 733.587,-148.021 754,-132 774.228,-116.124 789.345,-89.0048 796.1,-75.3609"/>
<polygon fill="midnightblue" stroke="midnightblue" points="683.148,-162.76 674.574,-168.984 685.158,-169.465 683.148,-162.76"/>
</g>
<!-- Node19&#45;&gt;Node14 -->
<g id="edge41" class="edge"><title>Node19&#45;&gt;Node14</title>
<path fill="none" stroke="midnightblue" d="M657.599,-162.151C669.389,-152.203 684.475,-139.474 694.188,-131.279"/>
<polygon fill="midnightblue" stroke="midnightblue" points="655.106,-159.675 649.72,-168.799 659.62,-165.025 655.106,-159.675"/>
</g>
<!-- Node19&#45;&gt;Node15 -->
<g id="edge42" class="edge"><title>Node19&#45;&gt;Node15</title>
<path fill="none" stroke="midnightblue" d="M593.551,-173.483C493.447,-165.733 260.109,-146.703 182,-132 179.164,-131.466 176.216,-130.798 173.306,-130.067"/>
<polygon fill="midnightblue" stroke="midnightblue" points="593.427,-176.984 603.666,-174.263 593.965,-170.004 593.427,-176.984"/>
</g>
<!-- Node19&#45;&gt;Node16 -->
<g id="edge43" class="edge"><title>Node19&#45;&gt;Node16</title>
<path fill="none" stroke="midnightblue" d="M593.413,-171.662C525.95,-163.791 397.179,-148.242 288,-132 285.138,-131.574 282.192,-131.12 279.225,-130.649"/>
<polygon fill="midnightblue" stroke="midnightblue" points="593.364,-175.179 603.701,-172.858 594.172,-168.226 593.364,-175.179"/>
</g>
<!-- Node19&#45;&gt;Node17 -->
<g id="edge44" class="edge"><title>Node19&#45;&gt;Node17</title>
<path fill="none" stroke="midnightblue" d="M593.432,-173.606C483.319,-165.48 209.323,-144.646 118,-132 115.037,-131.59 111.979,-131.117 108.909,-130.607"/>
<polygon fill="midnightblue" stroke="midnightblue" points="593.335,-177.108 603.565,-174.352 593.849,-170.127 593.335,-177.108"/>
</g>
<!-- Node19&#45;&gt;Node20 -->
<g id="edge45" class="edge"><title>Node19&#45;&gt;Node20</title>
<path fill="none" stroke="midnightblue" d="M686.088,-170.824C769.668,-159.625 944.012,-136.264 1013.49,-126.954"/>
<polygon fill="midnightblue" stroke="midnightblue" points="685.565,-167.363 676.118,-172.16 686.495,-174.301 685.565,-167.363"/>
</g>
<!-- Node22 -->
<g id="node22" class="node"><title>Node22</title>
<g id="a_node22"><a xlink:href="labels_8h.html" target="_top" xlink:title="Helper functions for manipulating RMF files. ">
<polygon fill="none" stroke="black" points="-0.233887,-57 -0.233887,-75 50.2339,-75 50.2339,-57 -0.233887,-57"/>
<text text-anchor="middle" x="25" y="-63" font-family="Helvetica,sans-Serif" font-size="10.00">labels.h</text>
</a>
</g>
</g>
<!-- Node21&#45;&gt;Node22 -->
<g id="edge57" class="edge"><title>Node21&#45;&gt;Node22</title>
<path fill="none" stroke="midnightblue" d="M89.31,-171.287C66.5137,-165.538 38.3427,-154.182 24,-132 12.7245,-114.561 18.1741,-88.6117 22.1315,-75.3944"/>
<polygon fill="midnightblue" stroke="midnightblue" points="88.8114,-174.763 99.3369,-173.553 90.3543,-167.935 88.8114,-174.763"/>
</g>
<!-- Node22&#45;&gt;Node6 -->
<g id="edge58" class="edge"><title>Node22&#45;&gt;Node6</title>
<path fill="none" stroke="midnightblue" d="M60.2152,-59.562C68.043,-58.3716 76.3016,-57.1301 84,-56 186.65,-40.931 308.032,-24.0726 367.101,-15.9302"/>
<polygon fill="midnightblue" stroke="midnightblue" points="59.6129,-56.1133 50.2563,-61.0836 60.6702,-63.033 59.6129,-56.1133"/>
</g>
<!-- Node23&#45;&gt;Node9 -->
<g id="edge67" class="edge"><title>Node23&#45;&gt;Node9</title>
<path fill="none" stroke="midnightblue" d="M1150.16,-232.449C1264.43,-230.234 1501.11,-219.463 1463,-168 1406.95,-92.3207 1120.07,-38.5092 1000.46,-19.0273"/>
<polygon fill="midnightblue" stroke="midnightblue" points="1150.09,-228.95 1140.15,-232.627 1150.22,-235.949 1150.09,-228.95"/>
</g>
<!-- Node23&#45;&gt;Node19 -->
<g id="edge61" class="edge"><title>Node23&#45;&gt;Node19</title>
<path fill="none" stroke="midnightblue" d="M1031.42,-225.867C936.448,-214.495 753.556,-192.596 676.086,-183.321"/>
<polygon fill="midnightblue" stroke="midnightblue" points="1031.1,-229.353 1041.45,-227.067 1031.93,-222.402 1031.1,-229.353"/>
</g>
<!-- Node23&#45;&gt;Node20 -->
<g id="edge66" class="edge"><title>Node23&#45;&gt;Node20</title>
<path fill="none" stroke="midnightblue" d="M1078.73,-216.503C1073.04,-208.264 1066.54,-197.951 1062,-188 1053.11,-168.536 1047.26,-143.894 1044.62,-131.275"/>
<polygon fill="midnightblue" stroke="midnightblue" points="1076,-218.702 1084.67,-224.794 1081.69,-214.626 1076,-218.702"/>
</g>
<!-- Node24 -->
<g id="node24" class="node"><title>Node24</title>
<g id="a_node24"><a xlink:href="info_8h.html" target="_top" xlink:title="Show info about the file. ">
<polygon fill="none" stroke="black" points="1070.77,-169 1070.77,-187 1111.23,-187 1111.23,-169 1070.77,-169"/>
<text text-anchor="middle" x="1091" y="-175" font-family="Helvetica,sans-Serif" font-size="10.00">info.h</text>
</a>
</g>
</g>
<!-- Node23&#45;&gt;Node24 -->
<g id="edge62" class="edge"><title>Node23&#45;&gt;Node24</title>
<path fill="none" stroke="midnightblue" d="M1091,-214.329C1091,-205.077 1091,-194.38 1091,-187.201"/>
<polygon fill="midnightblue" stroke="midnightblue" points="1087.5,-214.562 1091,-224.562 1094.5,-214.563 1087.5,-214.562"/>
</g>
<!-- Node25 -->
<g id="node25" class="node"><title>Node25</title>
<g id="a_node25"><a xlink:href="RestoreCurrentFrame_8h.html" target="_top" xlink:title="Restore the current frame when exiting a scope. ">
<polygon fill="none" stroke="black" points="1129.2,-169 1129.2,-187 1250.8,-187 1250.8,-169 1129.2,-169"/>
<text text-anchor="middle" x="1190" y="-175" font-family="Helvetica,sans-Serif" font-size="10.00">RestoreCurrentFrame.h</text>
</a>
</g>
</g>
<!-- Node23&#45;&gt;Node25 -->
<g id="edge63" class="edge"><title>Node23&#45;&gt;Node25</title>
<path fill="none" stroke="midnightblue" d="M1114.89,-219.969C1133.66,-209.731 1159.21,-195.795 1175.15,-187.102"/>
<polygon fill="midnightblue" stroke="midnightblue" points="1113.14,-216.937 1106.04,-224.799 1116.49,-223.083 1113.14,-216.937"/>
</g>
<!-- Node26 -->
<g id="node26" class="node"><title>Node26</title>
<g id="a_node26"><a xlink:href="SetCurrentFrame_8h.html" target="_top" xlink:title="Temporarily change the current frame. ">
<polygon fill="none" stroke="black" points="1269.21,-169 1269.21,-187 1370.79,-187 1370.79,-169 1269.21,-169"/>
<text text-anchor="middle" x="1320" y="-175" font-family="Helvetica,sans-Serif" font-size="10.00">SetCurrentFrame.h</text>
</a>
</g>
</g>
<!-- Node23&#45;&gt;Node26 -->
<g id="edge64" class="edge"><title>Node23&#45;&gt;Node26</title>
<path fill="none" stroke="midnightblue" d="M1135.13,-222.594C1179.12,-212.22 1245.75,-196.508 1285.86,-187.051"/>
<polygon fill="midnightblue" stroke="midnightblue" points="1134.21,-219.214 1125.28,-224.916 1135.82,-226.027 1134.21,-219.214"/>
</g>
<!-- Node27 -->
<g id="node27" class="node"><title>Node27</title>
<g id="a_node27"><a xlink:href="signature_8h.html" target="_top" xlink:title="Return a (long) string describing a file that can be compared. ">
<polygon fill="none" stroke="black" points="1389.26,-169 1389.26,-187 1454.74,-187 1454.74,-169 1389.26,-169"/>
<text text-anchor="middle" x="1422" y="-175" font-family="Helvetica,sans-Serif" font-size="10.00">signature.h</text>
</a>
</g>
</g>
<!-- Node23&#45;&gt;Node27 -->
<g id="edge65" class="edge"><title>Node23&#45;&gt;Node27</title>
<path fill="none" stroke="midnightblue" d="M1150.45,-224.621C1208.79,-216.184 1300.22,-202.389 1379,-188 1382.3,-187.397 1385.74,-186.735 1389.17,-186.053"/>
<polygon fill="midnightblue" stroke="midnightblue" points="1149.7,-221.192 1140.31,-226.082 1150.7,-228.12 1149.7,-221.192"/>
</g>
</g>
</svg>
