<?xml version="1.0" encoding="UTF-8" standalone="no"?>
<!DOCTYPE svg PUBLIC "-//W3C//DTD SVG 1.1//EN"
 "http://www.w3.org/Graphics/SVG/1.1/DTD/svg11.dtd">
<!-- Generated by graphviz version 2.36.0 (20140111.2315)
 -->
<!-- Title: Enum.h Pages: 1 -->
<!--zoomable 232 -->
<svg id="main" version="1.1" xmlns="http://www.w3.org/2000/svg" xmlns:xlink="http://www.w3.org/1999/xlink" xml:space="preserve" onload="init(evt)">
<style type="text/css"><![CDATA[
.edge:hover path { stroke: red; }
.edge:hover polygon { stroke: red; fill: red; }
]]></style>
<script type="text/javascript"><![CDATA[
var edges = document.getElementsByTagName('g');
if (edges && edges.length) {
  for (var i=0;i<edges.length;i++) {
    if (edges[i].id.substr(0,4)=='edge') {
      edges[i].setAttribute('class','edge');
    }
  }
}
]]></script>
        <defs>
                <circle id="rim" cx="0" cy="0" r="7"/>
                <circle id="rim2" cx="0" cy="0" r="3.5"/>
                <g id="zoomPlus">
                        <use xlink:href="#rim" fill="#404040">
                                <set attributeName="fill" to="#808080" begin="zoomplus.mouseover" end="zoomplus.mouseout"/>
                        </use>
                        <path d="M-4,0h8M0,-4v8" fill="none" stroke="white" stroke-width="1.5" pointer-events="none"/>
                </g>
                <g id="zoomMin">
                        <use xlink:href="#rim" fill="#404040">
                                <set attributeName="fill" to="#808080" begin="zoomminus.mouseover" end="zoomminus.mouseout"/>
                        </use>
                        <path d="M-4,0h8" fill="none" stroke="white" stroke-width="1.5" pointer-events="none"/>
                </g>
                <g id="dirArrow">
                        <path fill="none" stroke="white" stroke-width="1.5" d="M0,-3.0v7 M-2.5,-0.5L0,-3.0L2.5,-0.5"/>
                </g>
               <g id="resetDef">
                       <use xlink:href="#rim2" fill="#404040">
                               <set attributeName="fill" to="#808080" begin="reset.mouseover" end="reset.mouseout"/>
                       </use>
               </g>
        </defs>

<script type="text/javascript">
var viewWidth = 1144;
var viewHeight = 232;
var sectionId = 'dynsection-0';
</script>
<script xlink:href="svgpan.js"/>
<svg id="graph" class="graph">
<g id="viewport">
<title>Enum.h</title>
<!-- Node1 -->
<g id="node1" class="node"><title>Node1</title>
<polygon fill="#bfbfbf" stroke="black" points="460.769,-205 460.769,-223 511.231,-223 511.231,-205 460.769,-205"/>
<text text-anchor="middle" x="486" y="-211" font-family="Helvetica,sans-Serif" font-size="10.00">Enum.h</text>
</g>
<!-- Node2 -->
<g id="node2" class="node"><title>Node2</title>
<g id="a_node2"><a xlink:href="config_8h_source.html" target="_top" xlink:title="RMF/config.h">
<polygon fill="none" stroke="black" points="-0.731445,-66 -0.731445,-84 74.7314,-84 74.7314,-66 -0.731445,-66"/>
<text text-anchor="middle" x="37" y="-72" font-family="Helvetica,sans-Serif" font-size="10.00">RMF/config.h</text>
</a>
</g>
</g>
<!-- Node1&#45;&gt;Node2 -->
<g id="edge1" class="edge"><title>Node1&#45;&gt;Node2</title>
<path fill="none" stroke="midnightblue" d="M460.652,-208.465C422.257,-201.34 347.235,-186.419 285,-168 203.771,-143.96 110.839,-106.797 65.244,-87.905"/>
<polygon fill="midnightblue" stroke="midnightblue" points="66.5724,-84.6669 55.9953,-84.0538 63.8815,-91.129 66.5724,-84.6669"/>
</g>
<!-- Node4 -->
<g id="node4" class="node"><title>Node4</title>
<g id="a_node4"><a xlink:href="infrastructure__macros_8h.html" target="_top" xlink:title="Various general useful macros for IMP. ">
<polygon fill="none" stroke="black" points="581.48,-140 581.48,-158 702.52,-158 702.52,-140 581.48,-140"/>
<text text-anchor="middle" x="642" y="-146" font-family="Helvetica,sans-Serif" font-size="10.00">infrastructure_macros.h</text>
</a>
</g>
</g>
<!-- Node1&#45;&gt;Node4 -->
<g id="edge3" class="edge"><title>Node1&#45;&gt;Node4</title>
<path fill="none" stroke="midnightblue" d="M506.075,-204.893C533.104,-193.977 581.392,-174.476 612.54,-161.897"/>
<polygon fill="midnightblue" stroke="midnightblue" points="614.04,-165.066 622.002,-158.076 611.419,-158.575 614.04,-165.066"/>
</g>
<!-- Node13 -->
<g id="node13" class="node"><title>Node13</title>
<g id="a_node13"><a xlink:href="exceptions_8h.html" target="_top" xlink:title="Declarations of the various exception types. ">
<polygon fill="none" stroke="black" points="293.926,-140 293.926,-158 366.074,-158 366.074,-140 293.926,-140"/>
<text text-anchor="middle" x="330" y="-146" font-family="Helvetica,sans-Serif" font-size="10.00">exceptions.h</text>
</a>
</g>
</g>
<!-- Node1&#45;&gt;Node13 -->
<g id="edge13" class="edge"><title>Node1&#45;&gt;Node13</title>
<path fill="none" stroke="midnightblue" d="M465.925,-204.893C438.896,-193.977 390.608,-174.476 359.46,-161.897"/>
<polygon fill="midnightblue" stroke="midnightblue" points="360.581,-158.575 349.998,-158.076 357.96,-165.066 360.581,-158.575"/>
</g>
<!-- Node17 -->
<g id="node17" class="node"><title>Node17</title>
<polygon fill="none" stroke="black" points="721,-131 721,-167 775,-167 775,-131 721,-131"/>
<text text-anchor="middle" x="747.515" y="-146" font-family="Helvetica,sans-Serif" font-size="10.00">Node17</text>
</g>
<!-- Node1&#45;&gt;Node17 -->
<g id="edge20" class="edge"><title>Node1&#45;&gt;Node17</title>
<path fill="none" stroke="midnightblue" d="M511.519,-210.055C553.826,-204.697 640.786,-191.665 711,-168 711.102,-167.966 711.203,-167.931 711.305,-167.897"/>
<polygon fill="midnightblue" stroke="midnightblue" points="712.807,-171.067 720.85,-164.17 710.261,-164.547 712.807,-171.067"/>
</g>
<!-- Node3 -->
<g id="node3" class="node"><title>Node3</title>
<g id="a_node3"><a xlink:href="compiler__macros_8h.html" target="_top" xlink:title="Various compiler workarounds. ">
<polygon fill="none" stroke="black" points="40.5444,-1 40.5444,-19 165.456,-19 165.456,-1 40.5444,-1"/>
<text text-anchor="middle" x="103" y="-7" font-family="Helvetica,sans-Serif" font-size="10.00">RMF/compiler_macros.h</text>
</a>
</g>
</g>
<!-- Node2&#45;&gt;Node3 -->
<g id="edge2" class="edge"><title>Node2&#45;&gt;Node3</title>
<path fill="none" stroke="midnightblue" d="M45.6283,-65.7639C56.161,-55.7099 74.1778,-38.5121 87.2154,-26.0672"/>
<polygon fill="midnightblue" stroke="midnightblue" points="89.7613,-28.4755 94.5782,-19.039 84.928,-23.412 89.7613,-28.4755"/>
</g>
<!-- Node4&#45;&gt;Node3 -->
<g id="edge7" class="edge"><title>Node4&#45;&gt;Node3</title>
<path fill="none" stroke="midnightblue" d="M621.792,-139.974C599.635,-130.672 563.57,-114.029 536,-94 516.677,-79.9617 519.513,-66.3764 498,-56 442.762,-29.3566 273.868,-18.019 175.733,-13.5762"/>
<polygon fill="midnightblue" stroke="midnightblue" points="175.732,-10.0729 165.588,-13.1301 175.424,-17.0662 175.732,-10.0729"/>
</g>
<!-- Node5 -->
<g id="node5" class="node"><title>Node5</title>
<polygon fill="none" stroke="#bfbfbf" points="545.219,-66 545.219,-84 596.781,-84 596.781,-66 545.219,-66"/>
<text text-anchor="middle" x="571" y="-72" font-family="Helvetica,sans-Serif" font-size="10.00">sstream</text>
</g>
<!-- Node4&#45;&gt;Node5 -->
<g id="edge4" class="edge"><title>Node4&#45;&gt;Node5</title>
<path fill="none" stroke="midnightblue" d="M633.855,-139.741C622.3,-128.022 600.932,-106.353 586.348,-91.5644"/>
<polygon fill="midnightblue" stroke="midnightblue" points="588.563,-88.8258 579.05,-84.163 583.579,-93.7409 588.563,-88.8258"/>
</g>
<!-- Node6 -->
<g id="node6" class="node"><title>Node6</title>
<polygon fill="none" stroke="#bfbfbf" points="614.828,-66 614.828,-84 669.172,-84 669.172,-66 614.828,-66"/>
<text text-anchor="middle" x="642" y="-72" font-family="Helvetica,sans-Serif" font-size="10.00">iostream</text>
</g>
<!-- Node4&#45;&gt;Node6 -->
<g id="edge5" class="edge"><title>Node4&#45;&gt;Node6</title>
<path fill="none" stroke="midnightblue" d="M642,-139.741C642,-128.782 642,-109.12 642,-94.5221"/>
<polygon fill="midnightblue" stroke="midnightblue" points="645.5,-94.163 642,-84.163 638.5,-94.163 645.5,-94.163"/>
</g>
<!-- Node7 -->
<g id="node7" class="node"><title>Node7</title>
<polygon fill="none" stroke="#bfbfbf" points="448.773,-66 448.773,-84 489.227,-84 489.227,-66 448.773,-66"/>
<text text-anchor="middle" x="469" y="-72" font-family="Helvetica,sans-Serif" font-size="10.00">string</text>
</g>
<!-- Node4&#45;&gt;Node7 -->
<g id="edge6" class="edge"><title>Node4&#45;&gt;Node7</title>
<path fill="none" stroke="midnightblue" d="M618.538,-139.831C590.624,-129.896 542.793,-112.188 503,-94 499.515,-92.407 495.884,-90.6239 492.348,-88.8159"/>
<polygon fill="midnightblue" stroke="midnightblue" points="493.852,-85.6525 483.374,-84.0855 490.588,-91.8448 493.852,-85.6525"/>
</g>
<!-- Node8 -->
<g id="node8" class="node"><title>Node8</title>
<polygon fill="none" stroke="black" points="687,-57 687,-93 741,-93 741,-57 687,-57"/>
<text text-anchor="middle" x="713.734" y="-72" font-family="Helvetica,sans-Serif" font-size="10.00">Node8</text>
</g>
<!-- Node4&#45;&gt;Node8 -->
<g id="edge8" class="edge"><title>Node4&#45;&gt;Node8</title>
<path fill="none" stroke="midnightblue" d="M650.259,-139.741C659.796,-130.204 675.923,-114.077 689.569,-100.431"/>
<polygon fill="midnightblue" stroke="midnightblue" points="692.241,-102.709 696.837,-93.1629 687.291,-97.7591 692.241,-102.709"/>
</g>
<!-- Node9 -->
<g id="node9" class="node"><title>Node9</title>
<polygon fill="none" stroke="#bfbfbf" points="759.384,-66 759.384,-84 802.616,-84 802.616,-66 759.384,-66"/>
<text text-anchor="middle" x="781" y="-72" font-family="Helvetica,sans-Serif" font-size="10.00">vector</text>
</g>
<!-- Node4&#45;&gt;Node9 -->
<g id="edge9" class="edge"><title>Node4&#45;&gt;Node9</title>
<path fill="none" stroke="midnightblue" d="M659.004,-139.904C680.424,-129.614 718.269,-111.123 750,-94 752.812,-92.4825 755.743,-90.8497 758.632,-89.2088"/>
<polygon fill="midnightblue" stroke="midnightblue" points="760.616,-92.1049 767.523,-84.0707 757.113,-86.0442 760.616,-92.1049"/>
</g>
<!-- Node10 -->
<g id="node10" class="node"><title>Node10</title>
<polygon fill="none" stroke="#bfbfbf" points="820.306,-66 820.306,-84 909.694,-84 909.694,-66 820.306,-66"/>
<text text-anchor="middle" x="865" y="-72" font-family="Helvetica,sans-Serif" font-size="10.00">boost/config.hpp</text>
</g>
<!-- Node4&#45;&gt;Node10 -->
<g id="edge10" class="edge"><title>Node4&#45;&gt;Node10</title>
<path fill="none" stroke="midnightblue" d="M667.514,-139.957C700.63,-129.492 760.197,-110.583 811,-94 817.627,-91.8367 824.703,-89.4988 831.476,-87.2467"/>
<polygon fill="midnightblue" stroke="midnightblue" points="832.717,-90.5225 841.097,-84.039 830.503,-83.8819 832.717,-90.5225"/>
</g>
<!-- Node11 -->
<g id="node11" class="node"><title>Node11</title>
<polygon fill="none" stroke="#bfbfbf" points="927.53,-66 927.53,-84 1022.47,-84 1022.47,-66 927.53,-66"/>
<text text-anchor="middle" x="975" y="-72" font-family="Helvetica,sans-Serif" font-size="10.00">boost/version.hpp</text>
</g>
<!-- Node4&#45;&gt;Node11 -->
<g id="edge11" class="edge"><title>Node4&#45;&gt;Node11</title>
<path fill="none" stroke="midnightblue" d="M671.168,-139.953C683.685,-136.642 698.507,-132.909 712,-130 802.855,-110.412 827.709,-116.043 918,-94 925.939,-92.0618 934.388,-89.6128 942.281,-87.1506"/>
<polygon fill="midnightblue" stroke="midnightblue" points="943.45,-90.4512 951.902,-84.0622 941.311,-83.7862 943.45,-90.4512"/>
</g>
<!-- Node12 -->
<g id="node12" class="node"><title>Node12</title>
<polygon fill="none" stroke="#bfbfbf" points="1039.97,-66 1039.97,-84 1136.03,-84 1136.03,-66 1039.97,-66"/>
<text text-anchor="middle" x="1088" y="-72" font-family="Helvetica,sans-Serif" font-size="10.00">boost/foreach.hpp</text>
</g>
<!-- Node4&#45;&gt;Node12 -->
<g id="edge12" class="edge"><title>Node4&#45;&gt;Node12</title>
<path fill="none" stroke="midnightblue" d="M669.734,-139.92C682.512,-136.442 697.931,-132.59 712,-130 852.32,-104.171 891.431,-123.621 1031,-94 1039.37,-92.2233 1048.26,-89.7233 1056.47,-87.1504"/>
<polygon fill="midnightblue" stroke="midnightblue" points="1057.65,-90.4492 1066.07,-84.0196 1055.48,-83.7945 1057.65,-90.4492"/>
</g>
<!-- Node13&#45;&gt;Node2 -->
<g id="edge17" class="edge"><title>Node13&#45;&gt;Node2</title>
<path fill="none" stroke="midnightblue" d="M293.75,-141.204C246.311,-132.01 160.767,-114.391 89,-94 82.2083,-92.0703 75.0041,-89.7545 68.1917,-87.4365"/>
<polygon fill="midnightblue" stroke="midnightblue" points="69.1794,-84.0743 58.5846,-84.0834 66.8727,-90.6833 69.1794,-84.0743"/>
</g>
<!-- Node13&#45;&gt;Node3 -->
<g id="edge18" class="edge"><title>Node13&#45;&gt;Node3</title>
<path fill="none" stroke="midnightblue" d="M293.838,-143.177C240.806,-135.372 145.656,-118.352 122,-94 105.281,-76.7899 102.125,-48.0375 102.054,-29.2976"/>
<polygon fill="midnightblue" stroke="midnightblue" points="105.558,-29.2024 102.315,-19.116 98.5599,-29.0231 105.558,-29.2024"/>
</g>
<!-- Node13&#45;&gt;Node7 -->
<g id="edge16" class="edge"><title>Node13&#45;&gt;Node7</title>
<path fill="none" stroke="midnightblue" d="M347.803,-139.924C369.788,-129.801 408.178,-111.63 440,-94 442.575,-92.5731 445.244,-91.0221 447.872,-89.4488"/>
<polygon fill="midnightblue" stroke="midnightblue" points="449.777,-92.3857 456.458,-84.1623 446.107,-86.4249 449.777,-92.3857"/>
</g>
<!-- Node14 -->
<g id="node14" class="node"><title>Node14</title>
<polygon fill="none" stroke="#bfbfbf" points="131.451,-66 131.451,-84 282.549,-84 282.549,-66 131.451,-66"/>
<text text-anchor="middle" x="207" y="-72" font-family="Helvetica,sans-Serif" font-size="10.00">boost/exception/exception.hpp</text>
</g>
<!-- Node13&#45;&gt;Node14 -->
<g id="edge14" class="edge"><title>Node13&#45;&gt;Node14</title>
<path fill="none" stroke="midnightblue" d="M315.89,-139.741C294.852,-127.425 255.039,-104.121 229.825,-89.3607"/>
<polygon fill="midnightblue" stroke="midnightblue" points="231.343,-86.1943 220.945,-84.163 227.807,-92.2354 231.343,-86.1943"/>
</g>
<!-- Node15 -->
<g id="node15" class="node"><title>Node15</title>
<polygon fill="none" stroke="#bfbfbf" points="300.596,-66 300.596,-84 359.404,-84 359.404,-66 300.596,-66"/>
<text text-anchor="middle" x="330" y="-72" font-family="Helvetica,sans-Serif" font-size="10.00">exception</text>
</g>
<!-- Node13&#45;&gt;Node15 -->
<g id="edge15" class="edge"><title>Node13&#45;&gt;Node15</title>
<path fill="none" stroke="midnightblue" d="M330,-139.741C330,-128.782 330,-109.12 330,-94.5221"/>
<polygon fill="midnightblue" stroke="midnightblue" points="333.5,-94.163 330,-84.163 326.5,-94.163 333.5,-94.163"/>
</g>
<!-- Node16 -->
<g id="node16" class="node"><title>Node16</title>
<polygon fill="none" stroke="black" points="377,-57 377,-93 431,-93 431,-57 377,-57"/>
<text text-anchor="middle" x="403.515" y="-72" font-family="Helvetica,sans-Serif" font-size="10.00">Node16</text>
</g>
<!-- Node13&#45;&gt;Node16 -->
<g id="edge19" class="edge"><title>Node13&#45;&gt;Node16</title>
<path fill="none" stroke="midnightblue" d="M338.489,-139.741C348.29,-130.204 364.866,-114.077 378.89,-100.431"/>
<polygon fill="midnightblue" stroke="midnightblue" points="381.634,-102.645 386.36,-93.1629 376.752,-97.6279 381.634,-102.645"/>
</g>
</g>
</svg>
        <g id="navigator" transform="translate(0 0)" fill="#404254">
                <rect fill="#f2f5e9" fill-opacity="0.5" stroke="#606060" stroke-width=".5" x="0" y="0" width="60" height="60"/>
                <use id="zoomplus" xlink:href="#zoomPlus" x="17" y="9" onmousedown="handleZoom(evt,'in')"/>
                <use id="zoomminus" xlink:href="#zoomMin" x="42" y="9" onmousedown="handleZoom(evt,'out')"/>
                <use id="reset" xlink:href="#resetDef" x="30" y="36" onmousedown="handleReset()"/>
                <g id="arrowUp" xlink:href="#dirArrow" transform="translate(30 24)" onmousedown="handlePan(0,-1)">
                  <use xlink:href="#rim" fill="#404040">
                        <set attributeName="fill" to="#808080" begin="arrowUp.mouseover" end="arrowUp.mouseout"/>
                  </use>
                  <path fill="none" stroke="white" stroke-width="1.5" d="M0,-3.0v7 M-2.5,-0.5L0,-3.0L2.5,-0.5"/>
                </g>
                <g id="arrowRight" xlink:href="#dirArrow" transform="rotate(90) translate(36 -43)" onmousedown="handlePan(1,0)">
                  <use xlink:href="#rim" fill="#404040">
                        <set attributeName="fill" to="#808080" begin="arrowRight.mouseover" end="arrowRight.mouseout"/>
                  </use>
                  <path fill="none" stroke="white" stroke-width="1.5" d="M0,-3.0v7 M-2.5,-0.5L0,-3.0L2.5,-0.5"/>
                </g>
                <g id="arrowDown" xlink:href="#dirArrow" transform="rotate(180) translate(-30 -48)" onmousedown="handlePan(0,1)">
                  <use xlink:href="#rim" fill="#404040">
                        <set attributeName="fill" to="#808080" begin="arrowDown.mouseover" end="arrowDown.mouseout"/>
                  </use>
                  <path fill="none" stroke="white" stroke-width="1.5" d="M0,-3.0v7 M-2.5,-0.5L0,-3.0L2.5,-0.5"/>
                </g>
                <g id="arrowLeft" xlink:href="#dirArrow" transform="rotate(270) translate(-36 17)" onmousedown="handlePan(-1,0)">
                  <use xlink:href="#rim" fill="#404040">
                        <set attributeName="fill" to="#808080" begin="arrowLeft.mouseover" end="arrowLeft.mouseout"/>
                  </use>
                  <path fill="none" stroke="white" stroke-width="1.5" d="M0,-3.0v7 M-2.5,-0.5L0,-3.0L2.5,-0.5"/>
                </g>
        </g>
        <svg viewBox="0 0 15 15" width="100%" height="30px" preserveAspectRatio="xMaxYMin meet">
         <g id="arrow_out" transform="scale(0.3 0.3)">
          <a xlink:href="Enum_8h__incl_org.svg" target="_base">
           <rect id="button" ry="5" rx="5" y="6" x="6" height="38" width="38"
                fill="#f2f5e9" fill-opacity="0.5" stroke="#606060" stroke-width="1.0"/>
           <path id="arrow"
             d="M 11.500037,31.436501 C 11.940474,20.09759 22.043105,11.32322 32.158766,21.979434 L 37.068811,17.246167 C 37.068811,17.246167 37.088388,32 37.088388,32 L 22.160133,31.978069 C 22.160133,31.978069 26.997745,27.140456 26.997745,27.140456 C 18.528582,18.264221 13.291696,25.230495 11.500037,31.436501 z"
             style="fill:#404040;"/>
          </a>
         </g>
        </svg>
</svg>
