<?xml version="1.0" encoding="UTF-8" standalone="no"?>
<!DOCTYPE svg PUBLIC "-//W3C//DTD SVG 1.1//EN"
 "http://www.w3.org/Graphics/SVG/1.1/DTD/svg11.dtd">
<!-- Generated by graphviz version 2.34.0 (20131025.1349)
 -->
<!-- Title: enums.h Pages: 1 -->
<!--zoomable 274 -->
<svg id="main" version="1.1" xmlns="http://www.w3.org/2000/svg" xmlns:xlink="http://www.w3.org/1999/xlink" xml:space="preserve" onload="init(evt)">
<style type="text/css"><![CDATA[
.edge:hover path { stroke: red; }
.edge:hover polygon { stroke: red; fill: red; }
]]></style>
<script type="text/javascript"><![CDATA[
var edges = document.getElementsByTagName('g');
if (edges && edges.length) {
  for (var i=0;i<edges.length;i++) {
    if (edges[i].id.substr(0,4)=='edge') {
      edges[i].setAttribute('class','edge');
    }
  }
}
]]></script>
        <defs>
                <circle id="rim" cx="0" cy="0" r="7"/>
                <circle id="rim2" cx="0" cy="0" r="3.5"/>
                <g id="zoomPlus">
                        <use xlink:href="#rim" fill="#404040">
                                <set attributeName="fill" to="#808080" begin="zoomplus.mouseover" end="zoomplus.mouseout"/>
                        </use>
                        <path d="M-4,0h8M0,-4v8" fill="none" stroke="white" stroke-width="1.5" pointer-events="none"/>
                </g>
                <g id="zoomMin">
                        <use xlink:href="#rim" fill="#404040">
                                <set attributeName="fill" to="#808080" begin="zoomminus.mouseover" end="zoomminus.mouseout"/>
                        </use>
                        <path d="M-4,0h8" fill="none" stroke="white" stroke-width="1.5" pointer-events="none"/>
                </g>
                <g id="dirArrow">
                        <path fill="none" stroke="white" stroke-width="1.5" d="M0,-3.0v7 M-2.5,-0.5L0,-3.0L2.5,-0.5"/>
                </g>
               <g id="resetDef">
                       <use xlink:href="#rim2" fill="#404040">
                               <set attributeName="fill" to="#808080" begin="reset.mouseover" end="reset.mouseout"/>
                       </use>
               </g>
        </defs>

<script type="text/javascript">
var viewWidth = 1200;
var viewHeight = 274;
var sectionId = 'dynsection-0';
</script>
<script xlink:href="svgpan.js"/>
<svg id="graph" class="graph">
<g id="viewport">
<title>enums.h</title>
<!-- Node1 -->
<g id="node1" class="node"><title>Node1</title>
<polygon fill="#bfbfbf" stroke="black" points="595.823,-245 595.823,-265 650.177,-265 650.177,-245 595.823,-245"/>
<text text-anchor="middle" x="623" y="-251" font-family="Helvetica,sans-Serif" font-size="10.00">enums.h</text>
</g>
<!-- Node2 -->
<g id="node2" class="node"><title>Node2</title>
<g id="a_node2"><a xlink:href="config_8h_source.html" target="_top" xlink:title="RMF/config.h">
<polygon fill="none" stroke="black" points="669.269,-59 669.269,-79 744.731,-79 744.731,-59 669.269,-59"/>
<text text-anchor="middle" x="707" y="-65" font-family="Helvetica,sans-Serif" font-size="10.00">RMF/config.h</text>
</a>
</g>
</g>
<!-- Node1&#45;&gt;Node2 -->
<g id="edge1" class="edge"><title>Node1&#45;&gt;Node2</title>
<path fill="none" stroke="midnightblue" d="M621.196,-244.882C619.466,-235.635 616.975,-220.888 616,-208 612.785,-165.508 616.945,-149.72 643,-116 652.964,-103.105 667.508,-92.2524 680.215,-84.3327"/>
<polygon fill="midnightblue" stroke="midnightblue" points="682.231,-87.2059 689.05,-79.097 678.663,-81.1837 682.231,-87.2059"/>
</g>
<!-- Node4 -->
<g id="node4" class="node"><title>Node4</title>
<g id="a_node4"><a xlink:href="Enum_8h.html" target="_top" xlink:title="Declaration of RMF::Enum. ">
<polygon fill="none" stroke="black" points="624.769,-187 624.769,-207 675.231,-207 675.231,-187 624.769,-187"/>
<text text-anchor="middle" x="650" y="-193" font-family="Helvetica,sans-Serif" font-size="10.00">Enum.h</text>
</a>
</g>
</g>
<!-- Node1&#45;&gt;Node4 -->
<g id="edge3" class="edge"><title>Node1&#45;&gt;Node4</title>
<path fill="none" stroke="midnightblue" d="M627.459,-244.753C631.194,-237.006 636.638,-225.714 641.24,-216.169"/>
<polygon fill="midnightblue" stroke="midnightblue" points="644.434,-217.603 645.624,-207.075 638.129,-214.563 644.434,-217.603"/>
</g>
<!-- Node7 -->
<g id="node7" class="node"><title>Node7</title>
<polygon fill="none" stroke="#bfbfbf" points="-0.172363,-59 -0.172363,-79 54.1724,-79 54.1724,-59 -0.172363,-59"/>
<text text-anchor="middle" x="27" y="-65" font-family="Helvetica,sans-Serif" font-size="10.00">iostream</text>
</g>
<!-- Node1&#45;&gt;Node7 -->
<g id="edge24" class="edge"><title>Node1&#45;&gt;Node7</title>
<path fill="none" stroke="midnightblue" d="M595.449,-245.494C498.655,-215.612 174.087,-115.41 63.9348,-81.4027"/>
<polygon fill="midnightblue" stroke="midnightblue" points="64.8463,-78.0211 54.2588,-78.4155 62.7813,-84.7097 64.8463,-78.0211"/>
</g>
<!-- Node8 -->
<g id="node8" class="node"><title>Node8</title>
<polygon fill="none" stroke="#bfbfbf" points="762.773,-59 762.773,-79 803.227,-79 803.227,-59 762.773,-59"/>
<text text-anchor="middle" x="783" y="-65" font-family="Helvetica,sans-Serif" font-size="10.00">string</text>
</g>
<!-- Node1&#45;&gt;Node8 -->
<g id="edge23" class="edge"><title>Node1&#45;&gt;Node8</title>
<path fill="none" stroke="midnightblue" d="M643.322,-244.986C674.636,-230.001 734.271,-196.903 765,-150 776.917,-131.81 781.021,-106.845 782.393,-89.6665"/>
<polygon fill="midnightblue" stroke="midnightblue" points="785.915,-89.3734 782.969,-79.1962 778.925,-88.9889 785.915,-89.3734"/>
</g>
<!-- Node3 -->
<g id="node3" class="node"><title>Node3</title>
<g id="a_node3"><a xlink:href="compiler__macros_8h.html" target="_top" xlink:title="Various compiler workarounds. ">
<polygon fill="none" stroke="black" points="644.544,-1 644.544,-21 769.456,-21 769.456,-1 644.544,-1"/>
<text text-anchor="middle" x="707" y="-7" font-family="Helvetica,sans-Serif" font-size="10.00">RMF/compiler_macros.h</text>
</a>
</g>
</g>
<!-- Node2&#45;&gt;Node3 -->
<g id="edge2" class="edge"><title>Node2&#45;&gt;Node3</title>
<path fill="none" stroke="midnightblue" d="M707,-58.7527C707,-51.2504 707,-40.4238 707,-31.0781"/>
<polygon fill="midnightblue" stroke="midnightblue" points="710.5,-31.0752 707,-21.0752 703.5,-31.0752 710.5,-31.0752"/>
</g>
<!-- Node4&#45;&gt;Node2 -->
<g id="edge4" class="edge"><title>Node4&#45;&gt;Node2</title>
<path fill="none" stroke="midnightblue" d="M648.195,-186.543C645.698,-170.95 642.68,-139.257 654,-116 660.185,-103.293 671.646,-92.6574 682.332,-84.8248"/>
<polygon fill="midnightblue" stroke="midnightblue" points="684.34,-87.6914 690.62,-79.1581 680.39,-81.9129 684.34,-87.6914"/>
</g>
<!-- Node5 -->
<g id="node5" class="node"><title>Node5</title>
<g id="a_node5"><a xlink:href="infrastructure__macros_8h.html" target="_top" xlink:title="Various general useful macros for IMP. ">
<polygon fill="none" stroke="black" points="336.48,-123 336.48,-143 457.52,-143 457.52,-123 336.48,-123"/>
<text text-anchor="middle" x="397" y="-129" font-family="Helvetica,sans-Serif" font-size="10.00">infrastructure_macros.h</text>
</a>
</g>
</g>
<!-- Node4&#45;&gt;Node5 -->
<g id="edge5" class="edge"><title>Node4&#45;&gt;Node5</title>
<path fill="none" stroke="midnightblue" d="M624.349,-189.714C582.098,-179.36 497.255,-158.568 444.007,-145.519"/>
<polygon fill="midnightblue" stroke="midnightblue" points="444.671,-142.079 434.125,-143.098 443.005,-148.877 444.671,-142.079"/>
</g>
<!-- Node14 -->
<g id="node14" class="node"><title>Node14</title>
<g id="a_node14"><a xlink:href="exceptions_8h.html" target="_top" xlink:title="Declarations of the various exception types. ">
<polygon fill="none" stroke="black" points="814.926,-123 814.926,-143 887.074,-143 887.074,-123 814.926,-123"/>
<text text-anchor="middle" x="851" y="-129" font-family="Helvetica,sans-Serif" font-size="10.00">exceptions.h</text>
</a>
</g>
</g>
<!-- Node4&#45;&gt;Node14 -->
<g id="edge15" class="edge"><title>Node4&#45;&gt;Node14</title>
<path fill="none" stroke="midnightblue" d="M675.457,-188.148C709.833,-177.544 771.426,-158.545 811.751,-146.107"/>
<polygon fill="midnightblue" stroke="midnightblue" points="812.991,-149.387 821.516,-143.095 810.928,-142.698 812.991,-149.387"/>
</g>
<!-- Node18 -->
<g id="node18" class="node"><title>Node18</title>
<polygon fill="none" stroke="#bfbfbf" points="663.094,-117 663.094,-149 756.906,-149 756.906,-117 663.094,-117"/>
<text text-anchor="start" x="671.094" y="-135" font-family="Helvetica,sans-Serif" font-size="10.00">internal/small_set</text>
<text text-anchor="middle" x="710" y="-123" font-family="Helvetica,sans-Serif" font-size="10.00">_map.h</text>
</g>
<!-- Node4&#45;&gt;Node18 -->
<g id="edge22" class="edge"><title>Node4&#45;&gt;Node18</title>
<path fill="none" stroke="midnightblue" d="M658.853,-186.852C666.513,-178.937 677.914,-167.156 688.01,-156.724"/>
<polygon fill="midnightblue" stroke="midnightblue" points="690.619,-159.06 695.058,-149.44 685.588,-154.192 690.619,-159.06"/>
</g>
<!-- Node5&#45;&gt;Node3 -->
<g id="edge9" class="edge"><title>Node5&#45;&gt;Node3</title>
<path fill="none" stroke="midnightblue" d="M457.709,-125.438C504.443,-118.653 569.677,-105.335 622,-80 648.941,-66.9551 675.083,-44.0215 691.101,-28.4294"/>
<polygon fill="midnightblue" stroke="midnightblue" points="693.902,-30.5787 698.506,-21.0362 688.956,-25.6251 693.902,-30.5787"/>
</g>
<!-- Node6 -->
<g id="node6" class="node"><title>Node6</title>
<polygon fill="none" stroke="#bfbfbf" points="72.2192,-59 72.2192,-79 123.781,-79 123.781,-59 72.2192,-59"/>
<text text-anchor="middle" x="98" y="-65" font-family="Helvetica,sans-Serif" font-size="10.00">sstream</text>
</g>
<!-- Node5&#45;&gt;Node6 -->
<g id="edge6" class="edge"><title>Node5&#45;&gt;Node6</title>
<path fill="none" stroke="midnightblue" d="M344.124,-122.931C292.817,-113.83 212.58,-98.8007 134.001,-80.0909"/>
<polygon fill="midnightblue" stroke="midnightblue" points="134.471,-76.6043 123.93,-77.6702 132.835,-83.4104 134.471,-76.6043"/>
</g>
<!-- Node5&#45;&gt;Node7 -->
<g id="edge7" class="edge"><title>Node5&#45;&gt;Node7</title>
<path fill="none" stroke="midnightblue" d="M336.272,-124.708C271.206,-116.41 164.781,-101.445 64.4377,-80.1265"/>
<polygon fill="midnightblue" stroke="midnightblue" points="64.9478,-76.6563 54.4355,-77.9758 63.4762,-83.4999 64.9478,-76.6563"/>
</g>
<!-- Node5&#45;&gt;Node8 -->
<g id="edge8" class="edge"><title>Node5&#45;&gt;Node8</title>
<path fill="none" stroke="midnightblue" d="M457.77,-126.427C527.045,-119.338 643.675,-105.168 752.638,-79.7072"/>
<polygon fill="midnightblue" stroke="midnightblue" points="753.56,-83.0857 762.482,-77.371 751.944,-76.2749 753.56,-83.0857"/>
</g>
<!-- Node9 -->
<g id="node9" class="node"><title>Node9</title>
<polygon fill="none" stroke="#bfbfbf" points="141.98,-59 141.98,-79 218.02,-79 218.02,-59 141.98,-59"/>
<text text-anchor="middle" x="180" y="-65" font-family="Helvetica,sans-Serif" font-size="10.00">internal/use.h</text>
</g>
<!-- Node5&#45;&gt;Node9 -->
<g id="edge10" class="edge"><title>Node5&#45;&gt;Node9</title>
<path fill="none" stroke="midnightblue" d="M365.446,-122.985C327.358,-112.102 263.206,-93.7731 221.234,-81.7811"/>
<polygon fill="midnightblue" stroke="midnightblue" points="222.169,-78.4082 211.592,-79.0262 220.245,-85.1388 222.169,-78.4082"/>
</g>
<!-- Node10 -->
<g id="node10" class="node"><title>Node10</title>
<polygon fill="none" stroke="#bfbfbf" points="236.384,-59 236.384,-79 279.616,-79 279.616,-59 236.384,-59"/>
<text text-anchor="middle" x="258" y="-65" font-family="Helvetica,sans-Serif" font-size="10.00">vector</text>
</g>
<!-- Node5&#45;&gt;Node10 -->
<g id="edge11" class="edge"><title>Node5&#45;&gt;Node10</title>
<path fill="none" stroke="midnightblue" d="M376.788,-122.985C353.317,-112.516 314.395,-95.1544 287.535,-83.1739"/>
<polygon fill="midnightblue" stroke="midnightblue" points="288.795,-79.9034 278.236,-79.0262 285.943,-86.2963 288.795,-79.9034"/>
</g>
<!-- Node11 -->
<g id="node11" class="node"><title>Node11</title>
<polygon fill="none" stroke="#bfbfbf" points="297.306,-59 297.306,-79 386.694,-79 386.694,-59 297.306,-59"/>
<text text-anchor="middle" x="342" y="-65" font-family="Helvetica,sans-Serif" font-size="10.00">boost/config.hpp</text>
</g>
<!-- Node5&#45;&gt;Node11 -->
<g id="edge12" class="edge"><title>Node5&#45;&gt;Node11</title>
<path fill="none" stroke="midnightblue" d="M388.885,-122.852C380.517,-113.419 367.277,-98.4945 356.998,-86.9072"/>
<polygon fill="midnightblue" stroke="midnightblue" points="359.403,-84.344 350.149,-79.1858 354.167,-88.9893 359.403,-84.344"/>
</g>
<!-- Node12 -->
<g id="node12" class="node"><title>Node12</title>
<polygon fill="none" stroke="#bfbfbf" points="404.53,-59 404.53,-79 499.47,-79 499.47,-59 404.53,-59"/>
<text text-anchor="middle" x="452" y="-65" font-family="Helvetica,sans-Serif" font-size="10.00">boost/version.hpp</text>
</g>
<!-- Node5&#45;&gt;Node12 -->
<g id="edge13" class="edge"><title>Node5&#45;&gt;Node12</title>
<path fill="none" stroke="midnightblue" d="M405.115,-122.852C413.483,-113.419 426.723,-98.4945 437.002,-86.9072"/>
<polygon fill="midnightblue" stroke="midnightblue" points="439.833,-88.9893 443.851,-79.1858 434.597,-84.344 439.833,-88.9893"/>
</g>
<!-- Node13 -->
<g id="node13" class="node"><title>Node13</title>
<polygon fill="none" stroke="#bfbfbf" points="516.971,-59 516.971,-79 613.029,-79 613.029,-59 516.971,-59"/>
<text text-anchor="middle" x="565" y="-65" font-family="Helvetica,sans-Serif" font-size="10.00">boost/foreach.hpp</text>
</g>
<!-- Node5&#45;&gt;Node13 -->
<g id="edge14" class="edge"><title>Node5&#45;&gt;Node13</title>
<path fill="none" stroke="midnightblue" d="M421.429,-122.985C450.294,-112.332 498.496,-94.5431 530.998,-82.5484"/>
<polygon fill="midnightblue" stroke="midnightblue" points="532.372,-85.772 540.542,-79.0262 529.949,-79.205 532.372,-85.772"/>
</g>
<!-- Node14&#45;&gt;Node2 -->
<g id="edge19" class="edge"><title>Node14&#45;&gt;Node2</title>
<path fill="none" stroke="midnightblue" d="M830.061,-122.985C805.639,-112.47 765.069,-95.002 737.232,-83.0166"/>
<polygon fill="midnightblue" stroke="midnightblue" points="738.533,-79.7662 727.964,-79.0262 735.765,-86.1956 738.533,-79.7662"/>
</g>
<!-- Node14&#45;&gt;Node3 -->
<g id="edge20" class="edge"><title>Node14&#45;&gt;Node3</title>
<path fill="none" stroke="midnightblue" d="M887.276,-132.052C966.032,-131.313 1148.68,-124.705 1187,-80 1193.36,-72.5762 1193.58,-65.2362 1187,-58 1160.17,-28.4803 907.246,-17.4187 779.745,-13.6931"/>
<polygon fill="midnightblue" stroke="midnightblue" points="779.764,-10.1924 769.669,-13.4064 779.565,-17.1895 779.764,-10.1924"/>
</g>
<!-- Node14&#45;&gt;Node8 -->
<g id="edge18" class="edge"><title>Node14&#45;&gt;Node8</title>
<path fill="none" stroke="midnightblue" d="M840.966,-122.852C830.42,-113.236 813.614,-97.9128 800.807,-86.236"/>
<polygon fill="midnightblue" stroke="midnightblue" points="802.823,-83.3371 793.075,-79.1858 798.106,-88.5098 802.823,-83.3371"/>
</g>
<!-- Node15 -->
<g id="node15" class="node"><title>Node15</title>
<polygon fill="none" stroke="#bfbfbf" points="1027.45,-59 1027.45,-79 1178.55,-79 1178.55,-59 1027.45,-59"/>
<text text-anchor="middle" x="1103" y="-65" font-family="Helvetica,sans-Serif" font-size="10.00">boost/exception/exception.hpp</text>
</g>
<!-- Node14&#45;&gt;Node15 -->
<g id="edge16" class="edge"><title>Node14&#45;&gt;Node15</title>
<path fill="none" stroke="midnightblue" d="M887.105,-123.117C931.575,-112.176 1007.22,-93.5656 1056.13,-81.5313"/>
<polygon fill="midnightblue" stroke="midnightblue" points="1057.27,-84.856 1066.14,-79.0682 1055.6,-78.0587 1057.27,-84.856"/>
</g>
<!-- Node16 -->
<g id="node16" class="node"><title>Node16</title>
<polygon fill="none" stroke="#bfbfbf" points="821.596,-59 821.596,-79 880.404,-79 880.404,-59 821.596,-59"/>
<text text-anchor="middle" x="851" y="-65" font-family="Helvetica,sans-Serif" font-size="10.00">exception</text>
</g>
<!-- Node14&#45;&gt;Node16 -->
<g id="edge17" class="edge"><title>Node14&#45;&gt;Node16</title>
<path fill="none" stroke="midnightblue" d="M851,-122.852C851,-114.06 851,-100.498 851,-89.3131"/>
<polygon fill="midnightblue" stroke="midnightblue" points="854.5,-89.1858 851,-79.1858 847.5,-89.1859 854.5,-89.1858"/>
</g>
<!-- Node17 -->
<g id="node17" class="node"><title>Node17</title>
<polygon fill="none" stroke="#bfbfbf" points="898.766,-59 898.766,-79 1009.23,-79 1009.23,-59 898.766,-59"/>
<text text-anchor="middle" x="954" y="-65" font-family="Helvetica,sans-Serif" font-size="10.00">RMF/internal/errors.h</text>
</g>
<!-- Node14&#45;&gt;Node17 -->
<g id="edge21" class="edge"><title>Node14&#45;&gt;Node17</title>
<path fill="none" stroke="midnightblue" d="M866.198,-122.852C883.009,-112.732 910.322,-96.2919 930.024,-84.4324"/>
<polygon fill="midnightblue" stroke="midnightblue" points="931.977,-87.3417 938.74,-79.1858 928.367,-81.3444 931.977,-87.3417"/>
</g>
</g>
</svg>
        <g id="navigator" transform="translate(0 0)" fill="#404254">
                <rect fill="#f2f5e9" fill-opacity="0.5" stroke="#606060" stroke-width=".5" x="0" y="0" width="60" height="60"/>
                <use id="zoomplus" xlink:href="#zoomPlus" x="17" y="9" onmousedown="handleZoom(evt,'in')"/>
                <use id="zoomminus" xlink:href="#zoomMin" x="42" y="9" onmousedown="handleZoom(evt,'out')"/>
                <use id="reset" xlink:href="#resetDef" x="30" y="36" onmousedown="handleReset()"/>
                <g id="arrowUp" xlink:href="#dirArrow" transform="translate(30 24)" onmousedown="handlePan(0,-1)">
                  <use xlink:href="#rim" fill="#404040">
                        <set attributeName="fill" to="#808080" begin="arrowUp.mouseover" end="arrowUp.mouseout"/>
                  </use>
                  <path fill="none" stroke="white" stroke-width="1.5" d="M0,-3.0v7 M-2.5,-0.5L0,-3.0L2.5,-0.5"/>
                </g>
                <g id="arrowRight" xlink:href="#dirArrow" transform="rotate(90) translate(36 -43)" onmousedown="handlePan(1,0)">
                  <use xlink:href="#rim" fill="#404040">
                        <set attributeName="fill" to="#808080" begin="arrowRight.mouseover" end="arrowRight.mouseout"/>
                  </use>
                  <path fill="none" stroke="white" stroke-width="1.5" d="M0,-3.0v7 M-2.5,-0.5L0,-3.0L2.5,-0.5"/>
                </g>
                <g id="arrowDown" xlink:href="#dirArrow" transform="rotate(180) translate(-30 -48)" onmousedown="handlePan(0,1)">
                  <use xlink:href="#rim" fill="#404040">
                        <set attributeName="fill" to="#808080" begin="arrowDown.mouseover" end="arrowDown.mouseout"/>
                  </use>
                  <path fill="none" stroke="white" stroke-width="1.5" d="M0,-3.0v7 M-2.5,-0.5L0,-3.0L2.5,-0.5"/>
                </g>
                <g id="arrowLeft" xlink:href="#dirArrow" transform="rotate(270) translate(-36 17)" onmousedown="handlePan(-1,0)">
                  <use xlink:href="#rim" fill="#404040">
                        <set attributeName="fill" to="#808080" begin="arrowLeft.mouseover" end="arrowLeft.mouseout"/>
                  </use>
                  <path fill="none" stroke="white" stroke-width="1.5" d="M0,-3.0v7 M-2.5,-0.5L0,-3.0L2.5,-0.5"/>
                </g>
        </g>
        <svg viewBox="0 0 15 15" width="100%" height="30px" preserveAspectRatio="xMaxYMin meet">
         <g id="arrow_out" transform="scale(0.3 0.3)">
          <a xlink:href="enums_8h__incl_org.svg" target="_base">
           <rect id="button" ry="5" rx="5" y="6" x="6" height="38" width="38"
                fill="#f2f5e9" fill-opacity="0.5" stroke="#606060" stroke-width="1.0"/>
           <path id="arrow"
             d="M 11.500037,31.436501 C 11.940474,20.09759 22.043105,11.32322 32.158766,21.979434 L 37.068811,17.246167 C 37.068811,17.246167 37.088388,32 37.088388,32 L 22.160133,31.978069 C 22.160133,31.978069 26.997745,27.140456 26.997745,27.140456 C 18.528582,18.264221 13.291696,25.230495 11.500037,31.436501 z"
             style="fill:#404040;"/>
          </a>
         </g>
        </svg>
</svg>
