<?xml version="1.0" encoding="UTF-8" standalone="no"?>
<!DOCTYPE svg PUBLIC "-//W3C//DTD SVG 1.1//EN"
 "http://www.w3.org/Graphics/SVG/1.1/DTD/svg11.dtd">
<!-- Generated by graphviz version 2.34.0 (20131025.1349)
 -->
<!-- Title: enums.h Pages: 1 -->
<!--zoomable 378 -->
<svg id="main" version="1.1" xmlns="http://www.w3.org/2000/svg" xmlns:xlink="http://www.w3.org/1999/xlink" xml:space="preserve" onload="init(evt)">
<style type="text/css"><![CDATA[
.edge:hover path { stroke: red; }
.edge:hover polygon { stroke: red; fill: red; }
]]></style>
<script type="text/javascript"><![CDATA[
var edges = document.getElementsByTagName('g');
if (edges && edges.length) {
  for (var i=0;i<edges.length;i++) {
    if (edges[i].id.substr(0,4)=='edge') {
      edges[i].setAttribute('class','edge');
    }
  }
}
]]></script>
        <defs>
                <circle id="rim" cx="0" cy="0" r="7"/>
                <circle id="rim2" cx="0" cy="0" r="3.5"/>
                <g id="zoomPlus">
                        <use xlink:href="#rim" fill="#404040">
                                <set attributeName="fill" to="#808080" begin="zoomplus.mouseover" end="zoomplus.mouseout"/>
                        </use>
                        <path d="M-4,0h8M0,-4v8" fill="none" stroke="white" stroke-width="1.5" pointer-events="none"/>
                </g>
                <g id="zoomMin">
                        <use xlink:href="#rim" fill="#404040">
                                <set attributeName="fill" to="#808080" begin="zoomminus.mouseover" end="zoomminus.mouseout"/>
                        </use>
                        <path d="M-4,0h8" fill="none" stroke="white" stroke-width="1.5" pointer-events="none"/>
                </g>
                <g id="dirArrow">
                        <path fill="none" stroke="white" stroke-width="1.5" d="M0,-3.0v7 M-2.5,-0.5L0,-3.0L2.5,-0.5"/>
                </g>
               <g id="resetDef">
                       <use xlink:href="#rim2" fill="#404040">
                               <set attributeName="fill" to="#808080" begin="reset.mouseover" end="reset.mouseout"/>
                       </use>
               </g>
        </defs>

<script type="text/javascript">
var viewWidth = 1556;
var viewHeight = 378;
var sectionId = 'dynsection-1';
</script>
<script xlink:href="svgpan.js"/>
<svg id="graph" class="graph">
<g id="viewport">
<title>enums.h</title>
<!-- Node1 -->
<g id="node1" class="node"><title>Node1</title>
<polygon fill="#bfbfbf" stroke="black" points="893.823,-349 893.823,-369 948.177,-369 948.177,-349 893.823,-349"/>
<text text-anchor="middle" x="921" y="-355" font-family="Helvetica,sans-Serif" font-size="10.00">enums.h</text>
</g>
<!-- Node2 -->
<g id="node2" class="node"><title>Node2</title>
<g id="a_node2"><a xlink:href="NodeConstHandle_8h.html" target="_top" xlink:title="Handle read/write of Model data from/to files. ">
<polygon fill="none" stroke="black" points="948.971,-291 948.971,-311 1055.03,-311 1055.03,-291 948.971,-291"/>
<text text-anchor="middle" x="1002" y="-297" font-family="Helvetica,sans-Serif" font-size="10.00">NodeConstHandle.h</text>
</a>
</g>
</g>
<!-- Node1&#45;&gt;Node2 -->
<g id="edge1" class="edge"><title>Node1&#45;&gt;Node2</title>
<path fill="none" stroke="midnightblue" d="M942.89,-342.866C957.585,-332.707 976.456,-319.66 988.873,-311.075"/>
<polygon fill="midnightblue" stroke="midnightblue" points="940.611,-340.187 934.376,-348.753 944.591,-345.945 940.611,-340.187"/>
</g>
<!-- Node8 -->
<g id="node8" class="node"><title>Node8</title>
<g id="a_node8"><a xlink:href="benchmark__rmf_8cpp_source.html" target="_top" xlink:title="benchmark_rmf.cpp">
<polygon fill="none" stroke="black" points="894.815,-1 894.815,-21 999.185,-21 999.185,-1 894.815,-1"/>
<text text-anchor="middle" x="947" y="-7" font-family="Helvetica,sans-Serif" font-size="10.00">benchmark_rmf.cpp</text>
</a>
</g>
</g>
<!-- Node1&#45;&gt;Node8 -->
<g id="edge73" class="edge"><title>Node1&#45;&gt;Node8</title>
<path fill="none" stroke="midnightblue" d="M922.448,-338.727C927.298,-274.19 942.856,-67.1468 946.314,-21.1225"/>
<polygon fill="midnightblue" stroke="midnightblue" points="918.955,-338.511 921.695,-348.745 925.935,-339.036 918.955,-338.511"/>
</g>
<!-- Node17 -->
<g id="node17" class="node"><title>Node17</title>
<g id="a_node17"><a xlink:href="NodeHandle_8h.html" target="_top" xlink:title="Handle read/write of Model data from/to files. ">
<polygon fill="none" stroke="black" points="507.032,-233 507.032,-253 586.968,-253 586.968,-233 507.032,-233"/>
<text text-anchor="middle" x="547" y="-239" font-family="Helvetica,sans-Serif" font-size="10.00">NodeHandle.h</text>
</a>
</g>
</g>
<!-- Node1&#45;&gt;Node17 -->
<g id="edge70" class="edge"><title>Node1&#45;&gt;Node17</title>
<path fill="none" stroke="midnightblue" d="M883.268,-354.686C833.823,-349.52 744.944,-337.38 673,-312 629.399,-296.619 582.641,-267.692 560.33,-253.022"/>
<polygon fill="midnightblue" stroke="midnightblue" points="883.193,-358.196 893.493,-355.713 883.893,-351.231 883.193,-358.196"/>
</g>
<!-- Node18 -->
<g id="node18" class="node"><title>Node18</title>
<g id="a_node18"><a xlink:href="FileHandle_8h.html" target="_top" xlink:title="Handle read/write of Model data from/to files. ">
<polygon fill="none" stroke="black" points="593.929,-175 593.929,-195 666.071,-195 666.071,-175 593.929,-175"/>
<text text-anchor="middle" x="630" y="-181" font-family="Helvetica,sans-Serif" font-size="10.00">FileHandle.h</text>
</a>
</g>
</g>
<!-- Node1&#45;&gt;Node18 -->
<g id="edge72" class="edge"><title>Node1&#45;&gt;Node18</title>
<path fill="none" stroke="midnightblue" d="M896.946,-343.782C839.056,-309.566 693.234,-223.376 645.436,-195.124"/>
<polygon fill="midnightblue" stroke="midnightblue" points="895.375,-346.919 905.764,-348.995 898.937,-340.893 895.375,-346.919"/>
</g>
<!-- Node22 -->
<g id="node22" class="node"><title>Node22</title>
<g id="a_node22"><a xlink:href="FileConstHandle_8h.html" target="_top" xlink:title="Handle read/write of Model data from/to files. ">
<polygon fill="none" stroke="black" points="1126.87,-233 1126.87,-253 1225.13,-253 1225.13,-233 1126.87,-233"/>
<text text-anchor="middle" x="1176" y="-239" font-family="Helvetica,sans-Serif" font-size="10.00">FileConstHandle.h</text>
</a>
</g>
</g>
<!-- Node1&#45;&gt;Node22 -->
<g id="edge71" class="edge"><title>Node1&#45;&gt;Node22</title>
<path fill="none" stroke="midnightblue" d="M958.179,-348.624C987.579,-340.601 1029.31,-327.846 1064,-312 1101.87,-294.705 1142.83,-267.389 1163.11,-253.216"/>
<polygon fill="midnightblue" stroke="midnightblue" points="957.081,-345.294 948.326,-351.261 958.891,-352.056 957.081,-345.294"/>
</g>
<!-- Node3 -->
<g id="node3" class="node"><title>Node3</title>
<g id="a_node3"><a xlink:href="Decorator_8h.html" target="_top" xlink:title="Helper functions for manipulating RMF files. ">
<polygon fill="none" stroke="black" points="432.15,-175 432.15,-195 499.85,-195 499.85,-175 432.15,-175"/>
<text text-anchor="middle" x="466" y="-181" font-family="Helvetica,sans-Serif" font-size="10.00">Decorator.h</text>
</a>
</g>
</g>
<!-- Node2&#45;&gt;Node3 -->
<g id="edge2" class="edge"><title>Node2&#45;&gt;Node3</title>
<path fill="none" stroke="midnightblue" d="M949.687,-288.874C840.506,-265.652 590.986,-212.583 500,-193.231"/>
<polygon fill="midnightblue" stroke="midnightblue" points="948.984,-292.302 959.493,-290.959 950.44,-285.455 948.984,-292.302"/>
</g>
<!-- Node2&#45;&gt;Node8 -->
<g id="edge69" class="edge"><title>Node2&#45;&gt;Node8</title>
<path fill="none" stroke="midnightblue" d="M1027.21,-285.187C1055.95,-266.182 1099,-230.318 1099,-186 1099,-186 1099,-186 1099,-126 1099,-67.4497 1025.93,-35.287 981.112,-21.0676"/>
<polygon fill="midnightblue" stroke="midnightblue" points="1025.02,-282.435 1018.45,-290.754 1028.77,-288.342 1025.02,-282.435"/>
</g>
<!-- Node2&#45;&gt;Node17 -->
<g id="edge30" class="edge"><title>Node2&#45;&gt;Node17</title>
<path fill="none" stroke="midnightblue" d="M938.854,-292.228C843.734,-280.521 666.402,-258.696 587.112,-248.937"/>
<polygon fill="midnightblue" stroke="midnightblue" points="938.563,-295.719 948.915,-293.466 939.418,-288.771 938.563,-295.719"/>
</g>
<!-- Node19 -->
<g id="node19" class="node"><title>Node19</title>
<g id="a_node19"><a xlink:href="validate_8h.html" target="_top" xlink:title="Handle read/write of Model data from/to files. ">
<polygon fill="none" stroke="black" points="1012.6,-117 1012.6,-137 1071.4,-137 1071.4,-117 1012.6,-117"/>
<text text-anchor="middle" x="1042" y="-123" font-family="Helvetica,sans-Serif" font-size="10.00">validate.h</text>
</a>
</g>
</g>
<!-- Node2&#45;&gt;Node19 -->
<g id="edge68" class="edge"><title>Node2&#45;&gt;Node19</title>
<path fill="none" stroke="midnightblue" d="M1006.47,-280.776C1015.05,-243.886 1033.53,-164.417 1039.84,-137.293"/>
<polygon fill="midnightblue" stroke="midnightblue" points="1003.01,-280.22 1004.15,-290.753 1009.82,-281.805 1003.01,-280.22"/>
</g>
<!-- Node2&#45;&gt;Node22 -->
<g id="edge59" class="edge"><title>Node2&#45;&gt;Node22</title>
<path fill="none" stroke="midnightblue" d="M1039.97,-287.778C1072.52,-277.303 1118.66,-262.454 1147.96,-253.025"/>
<polygon fill="midnightblue" stroke="midnightblue" points="1038.79,-284.483 1030.34,-290.878 1040.93,-291.146 1038.79,-284.483"/>
</g>
<!-- Node27 -->
<g id="node27" class="node"><title>Node27</title>
<g id="a_node27"><a xlink:href="utility_8h.html" target="_top" xlink:title="Helper functions for manipulating RMF files. ">
<polygon fill="none" stroke="black" points="948.807,-233 948.807,-253 995.193,-253 995.193,-233 948.807,-233"/>
<text text-anchor="middle" x="972" y="-239" font-family="Helvetica,sans-Serif" font-size="10.00">utility.h</text>
</a>
</g>
</g>
<!-- Node2&#45;&gt;Node27 -->
<g id="edge67" class="edge"><title>Node2&#45;&gt;Node27</title>
<path fill="none" stroke="midnightblue" d="M992.314,-281.92C987.153,-272.285 981.027,-260.85 976.862,-253.075"/>
<polygon fill="midnightblue" stroke="midnightblue" points="989.239,-283.591 997.046,-290.753 995.409,-280.285 989.239,-283.591"/>
</g>
<!-- Node4 -->
<g id="node4" class="node"><title>Node4</title>
<g id="a_node4"><a xlink:href="alias_8h.html" target="_top" xlink:title="Helper functions for manipulating RMF files. ">
<polygon fill="none" stroke="black" points="646.547,-117 646.547,-137 691.453,-137 691.453,-117 646.547,-117"/>
<text text-anchor="middle" x="669" y="-123" font-family="Helvetica,sans-Serif" font-size="10.00">alias.h</text>
</a>
</g>
</g>
<!-- Node3&#45;&gt;Node4 -->
<g id="edge3" class="edge"><title>Node3&#45;&gt;Node4</title>
<path fill="none" stroke="midnightblue" d="M509.653,-172.773C544.287,-163.741 593.875,-150.533 637,-138 640.018,-137.123 643.187,-136.171 646.308,-135.214"/>
<polygon fill="midnightblue" stroke="midnightblue" points="508.652,-169.417 499.855,-175.321 510.414,-176.191 508.652,-169.417"/>
</g>
<!-- Node6 -->
<g id="node6" class="node"><title>Node6</title>
<g id="a_node6"><a xlink:href="physics_8h.html" target="_top" xlink:title="Helper functions for manipulating RMF files. ">
<polygon fill="none" stroke="black" points="640.158,-59 640.158,-79 697.842,-79 697.842,-59 640.158,-59"/>
<text text-anchor="middle" x="669" y="-65" font-family="Helvetica,sans-Serif" font-size="10.00">physics.h</text>
</a>
</g>
</g>
<!-- Node3&#45;&gt;Node6 -->
<g id="edge13" class="edge"><title>Node3&#45;&gt;Node6</title>
<path fill="none" stroke="midnightblue" d="M481.584,-167.299C496.426,-152.198 520.004,-130.216 544,-116 574.738,-97.7906 613.903,-84.8059 640.128,-77.3719"/>
<polygon fill="midnightblue" stroke="midnightblue" points="478.697,-165.252 474.29,-174.887 483.743,-170.103 478.697,-165.252"/>
</g>
<!-- Node9 -->
<g id="node9" class="node"><title>Node9</title>
<g id="a_node9"><a xlink:href="external_8h.html" target="_top" xlink:title="Helper functions for manipulating RMF files. ">
<polygon fill="none" stroke="black" points="303.042,-117 303.042,-137 362.958,-137 362.958,-117 303.042,-117"/>
<text text-anchor="middle" x="333" y="-123" font-family="Helvetica,sans-Serif" font-size="10.00">external.h</text>
</a>
</g>
</g>
<!-- Node3&#45;&gt;Node9 -->
<g id="edge9" class="edge"><title>Node3&#45;&gt;Node9</title>
<path fill="none" stroke="midnightblue" d="M435.052,-170.969C410.389,-160.585 376.486,-146.31 354.655,-137.118"/>
<polygon fill="midnightblue" stroke="midnightblue" points="433.761,-174.223 444.335,-174.878 436.477,-167.772 433.761,-174.223"/>
</g>
<!-- Node10 -->
<g id="node10" class="node"><title>Node10</title>
<g id="a_node10"><a xlink:href="feature_8h.html" target="_top" xlink:title="Helper functions for manipulating RMF files. ">
<polygon fill="none" stroke="black" points="229.264,-117 229.264,-137 284.736,-137 284.736,-117 229.264,-117"/>
<text text-anchor="middle" x="257" y="-123" font-family="Helvetica,sans-Serif" font-size="10.00">feature.h</text>
</a>
</g>
</g>
<!-- Node3&#45;&gt;Node10 -->
<g id="edge11" class="edge"><title>Node3&#45;&gt;Node10</title>
<path fill="none" stroke="midnightblue" d="M422.218,-172.325C387.452,-163.046 337.606,-149.724 294,-138 291.044,-137.205 287.956,-136.373 284.878,-135.543"/>
<polygon fill="midnightblue" stroke="midnightblue" points="421.488,-175.753 432.052,-174.949 423.293,-168.989 421.488,-175.753"/>
</g>
<!-- Node11 -->
<g id="node11" class="node"><title>Node11</title>
<g id="a_node11"><a xlink:href="publication_8h.html" target="_top" xlink:title="Helper functions for manipulating RMF files. ">
<polygon fill="none" stroke="black" points="138.924,-117 138.924,-137 211.076,-137 211.076,-117 138.924,-117"/>
<text text-anchor="middle" x="175" y="-123" font-family="Helvetica,sans-Serif" font-size="10.00">publication.h</text>
</a>
</g>
</g>
<!-- Node3&#45;&gt;Node11 -->
<g id="edge14" class="edge"><title>Node3&#45;&gt;Node11</title>
<path fill="none" stroke="midnightblue" d="M422.109,-176.255C372.835,-167.452 290.539,-152.429 220,-138 217.177,-137.423 214.259,-136.81 211.327,-136.183"/>
<polygon fill="midnightblue" stroke="midnightblue" points="421.647,-179.728 432.106,-178.036 422.875,-172.836 421.647,-179.728"/>
</g>
<!-- Node12 -->
<g id="node12" class="node"><title>Node12</title>
<g id="a_node12"><a xlink:href="sequence_8h.html" target="_top" xlink:title="Helper functions for manipulating RMF files. ">
<polygon fill="none" stroke="black" points="757.146,-59 757.146,-79 824.854,-79 824.854,-59 757.146,-59"/>
<text text-anchor="middle" x="791" y="-65" font-family="Helvetica,sans-Serif" font-size="10.00">sequence.h</text>
</a>
</g>
</g>
<!-- Node3&#45;&gt;Node12 -->
<g id="edge16" class="edge"><title>Node3&#45;&gt;Node12</title>
<path fill="none" stroke="midnightblue" d="M510.103,-181.197C558.5,-176.808 637.603,-165.709 700,-138 708.787,-134.098 756.987,-96.6857 779.459,-79.0781"/>
<polygon fill="midnightblue" stroke="midnightblue" points="509.632,-177.725 499.964,-182.059 510.225,-184.699 509.632,-177.725"/>
</g>
<!-- Node13 -->
<g id="node13" class="node"><title>Node13</title>
<g id="a_node13"><a xlink:href="shape_8h.html" target="_top" xlink:title="Helper functions for manipulating RMF files. ">
<polygon fill="none" stroke="black" points="445.207,-117 445.207,-137 496.793,-137 496.793,-117 445.207,-117"/>
<text text-anchor="middle" x="471" y="-123" font-family="Helvetica,sans-Serif" font-size="10.00">shape.h</text>
</a>
</g>
</g>
<!-- Node3&#45;&gt;Node13 -->
<g id="edge20" class="edge"><title>Node3&#45;&gt;Node13</title>
<path fill="none" stroke="midnightblue" d="M467.723,-164.707C468.559,-155.338 469.524,-144.526 470.19,-137.075"/>
<polygon fill="midnightblue" stroke="midnightblue" points="464.229,-164.481 466.826,-174.753 471.201,-165.104 464.229,-164.481"/>
</g>
<!-- Node14 -->
<g id="node14" class="node"><title>Node14</title>
<g id="a_node14"><a xlink:href="bond_8h.html" target="_top" xlink:title="Helper functions for manipulating RMF files. ">
<polygon fill="none" stroke="black" points="380.707,-117 380.707,-137 427.293,-137 427.293,-117 380.707,-117"/>
<text text-anchor="middle" x="404" y="-123" font-family="Helvetica,sans-Serif" font-size="10.00">bond.h</text>
</a>
</g>
</g>
<!-- Node3&#45;&gt;Node14 -->
<g id="edge23" class="edge"><title>Node3&#45;&gt;Node14</title>
<path fill="none" stroke="midnightblue" d="M448.282,-167.997C437.183,-157.972 423.283,-145.417 414.048,-137.075"/>
<polygon fill="midnightblue" stroke="midnightblue" points="445.995,-170.647 455.762,-174.753 450.687,-165.452 445.995,-170.647"/>
</g>
<!-- Node15 -->
<g id="node15" class="node"><title>Node15</title>
<g id="a_node15"><a xlink:href="representation_8h.html" target="_top" xlink:title="Helper functions for manipulating RMF files. ">
<polygon fill="none" stroke="black" points="32.8647,-117 32.8647,-137 121.135,-137 121.135,-117 32.8647,-117"/>
<text text-anchor="middle" x="77" y="-123" font-family="Helvetica,sans-Serif" font-size="10.00">representation.h</text>
</a>
</g>
</g>
<!-- Node3&#45;&gt;Node15 -->
<g id="edge25" class="edge"><title>Node3&#45;&gt;Node15</title>
<path fill="none" stroke="midnightblue" d="M421.872,-178.679C357.545,-170.759 234.318,-154.971 130,-138 127.135,-137.534 124.187,-137.034 121.217,-136.515"/>
<polygon fill="midnightblue" stroke="midnightblue" points="421.703,-182.184 432.054,-179.927 422.555,-175.236 421.703,-182.184"/>
</g>
<!-- Node16 -->
<g id="node16" class="node"><title>Node16</title>
<g id="a_node16"><a xlink:href="alternatives_8h.html" target="_top" xlink:title="Helper functions for manipulating RMF files. ">
<polygon fill="none" stroke="black" points="553.261,-117 553.261,-137 628.739,-137 628.739,-117 553.261,-117"/>
<text text-anchor="middle" x="591" y="-123" font-family="Helvetica,sans-Serif" font-size="10.00">alternatives.h</text>
</a>
</g>
</g>
<!-- Node3&#45;&gt;Node16 -->
<g id="edge27" class="edge"><title>Node3&#45;&gt;Node16</title>
<path fill="none" stroke="midnightblue" d="M495.704,-170.693C518.829,-160.333 550.311,-146.229 570.647,-137.118"/>
<polygon fill="midnightblue" stroke="midnightblue" points="494.057,-167.595 486.362,-174.878 496.919,-173.984 494.057,-167.595"/>
</g>
<!-- Node5 -->
<g id="node5" class="node"><title>Node5</title>
<g id="a_node5"><a xlink:href="decorators_8h.html" target="_top" xlink:title="Import all the decorators headers. ">
<polygon fill="none" stroke="black" points="368.207,-1 368.207,-21 439.793,-21 439.793,-1 368.207,-1"/>
<text text-anchor="middle" x="404" y="-7" font-family="Helvetica,sans-Serif" font-size="10.00">decorators.h</text>
</a>
</g>
</g>
<!-- Node4&#45;&gt;Node5 -->
<g id="edge4" class="edge"><title>Node4&#45;&gt;Node5</title>
<path fill="none" stroke="midnightblue" d="M638.644,-112.787C607.037,-99.0455 556.083,-76.9345 512,-58 482.039,-45.1312 447.342,-30.3796 425.532,-21.1256"/>
<polygon fill="midnightblue" stroke="midnightblue" points="637.626,-116.161 648.193,-116.94 640.418,-109.742 637.626,-116.161"/>
</g>
<!-- Node4&#45;&gt;Node6 -->
<g id="edge5" class="edge"><title>Node4&#45;&gt;Node6</title>
<path fill="none" stroke="midnightblue" d="M669,-106.707C669,-97.3384 669,-86.5262 669,-79.0752"/>
<polygon fill="midnightblue" stroke="midnightblue" points="665.5,-106.753 669,-116.753 672.5,-106.753 665.5,-106.753"/>
</g>
<!-- Node6&#45;&gt;Node5 -->
<g id="edge6" class="edge"><title>Node6&#45;&gt;Node5</title>
<path fill="none" stroke="midnightblue" d="M630.127,-59.7853C578.952,-48.971 489.675,-30.1049 439.984,-19.6041"/>
<polygon fill="midnightblue" stroke="midnightblue" points="629.628,-63.2572 640.136,-61.9004 631.076,-56.4084 629.628,-63.2572"/>
</g>
<!-- Node7 -->
<g id="node7" class="node"><title>Node7</title>
<g id="a_node7"><a xlink:href="TraverseHelper_8h.html" target="_top" xlink:title="Helper functions for manipulating RMF files. ">
<polygon fill="none" stroke="black" points="593.831,-1 593.831,-21 686.169,-21 686.169,-1 593.831,-1"/>
<text text-anchor="middle" x="640" y="-7" font-family="Helvetica,sans-Serif" font-size="10.00">TraverseHelper.h</text>
</a>
</g>
</g>
<!-- Node6&#45;&gt;Node7 -->
<g id="edge7" class="edge"><title>Node6&#45;&gt;Node7</title>
<path fill="none" stroke="midnightblue" d="M659.481,-49.6182C654.524,-40.0471 648.684,-28.7692 644.7,-21.0752"/>
<polygon fill="midnightblue" stroke="midnightblue" points="656.505,-51.4823 664.211,-58.7527 662.721,-48.2633 656.505,-51.4823"/>
</g>
<!-- Node6&#45;&gt;Node8 -->
<g id="edge8" class="edge"><title>Node6&#45;&gt;Node8</title>
<path fill="none" stroke="midnightblue" d="M707.942,-60.1555C758.973,-49.8759 848.286,-31.8849 902.107,-21.0432"/>
<polygon fill="midnightblue" stroke="midnightblue" points="707.076,-56.7596 697.964,-62.1655 708.458,-63.6218 707.076,-56.7596"/>
</g>
<!-- Node9&#45;&gt;Node5 -->
<g id="edge10" class="edge"><title>Node9&#45;&gt;Node5</title>
<path fill="none" stroke="midnightblue" d="M344.254,-107.931C359.621,-83.2561 386.598,-39.9416 398.308,-21.1394"/>
<polygon fill="midnightblue" stroke="midnightblue" points="341.126,-106.332 338.81,-116.671 347.068,-110.033 341.126,-106.332"/>
</g>
<!-- Node10&#45;&gt;Node5 -->
<g id="edge12" class="edge"><title>Node10&#45;&gt;Node5</title>
<path fill="none" stroke="midnightblue" d="M276.729,-110.7C307.74,-86.6504 366.953,-40.7303 392.163,-21.1799"/>
<polygon fill="midnightblue" stroke="midnightblue" points="274.538,-107.97 268.781,-116.864 278.828,-113.501 274.538,-107.97"/>
</g>
<!-- Node11&#45;&gt;Node5 -->
<g id="edge15" class="edge"><title>Node11&#45;&gt;Node5</title>
<path fill="none" stroke="midnightblue" d="M202.425,-112.347C249.837,-88.7451 345.878,-40.9342 385.878,-21.0217"/>
<polygon fill="midnightblue" stroke="midnightblue" points="200.745,-109.274 193.353,-116.864 203.865,-115.54 200.745,-109.274"/>
</g>
<!-- Node12&#45;&gt;Node5 -->
<g id="edge17" class="edge"><title>Node12&#45;&gt;Node5</title>
<path fill="none" stroke="midnightblue" d="M746.631,-61.5797C669.256,-50.3833 511.119,-27.5004 440.027,-17.2132"/>
<polygon fill="midnightblue" stroke="midnightblue" points="746.597,-65.1112 756.996,-63.0795 747.6,-58.1833 746.597,-65.1112"/>
</g>
<!-- Node12&#45;&gt;Node7 -->
<g id="edge18" class="edge"><title>Node12&#45;&gt;Node7</title>
<path fill="none" stroke="midnightblue" d="M756.973,-55.3808C728.887,-44.9649 689.7,-30.4319 664.586,-21.1181"/>
<polygon fill="midnightblue" stroke="midnightblue" points="755.81,-58.6823 766.403,-58.878 758.244,-52.1191 755.81,-58.6823"/>
</g>
<!-- Node12&#45;&gt;Node8 -->
<g id="edge19" class="edge"><title>Node12&#45;&gt;Node8</title>
<path fill="none" stroke="midnightblue" d="M826.184,-55.3698C855.294,-44.92 895.933,-30.3319 921.858,-21.0253"/>
<polygon fill="midnightblue" stroke="midnightblue" points="824.641,-52.2051 816.411,-58.878 827.006,-58.7935 824.641,-52.2051"/>
</g>
<!-- Node13&#45;&gt;Node5 -->
<g id="edge21" class="edge"><title>Node13&#45;&gt;Node5</title>
<path fill="none" stroke="midnightblue" d="M460.38,-107.931C445.879,-83.2561 420.422,-39.9416 409.371,-21.1394"/>
<polygon fill="midnightblue" stroke="midnightblue" points="457.433,-109.823 465.517,-116.671 463.468,-106.276 457.433,-109.823"/>
</g>
<!-- Node13&#45;&gt;Node7 -->
<g id="edge22" class="edge"><title>Node13&#45;&gt;Node7</title>
<path fill="none" stroke="midnightblue" d="M493.226,-111.007C528.751,-87.0434 597.285,-40.8138 626.391,-21.1799"/>
<polygon fill="midnightblue" stroke="midnightblue" points="490.877,-108.37 484.544,-116.864 494.792,-114.173 490.877,-108.37"/>
</g>
<!-- Node14&#45;&gt;Node5 -->
<g id="edge24" class="edge"><title>Node14&#45;&gt;Node5</title>
<path fill="none" stroke="midnightblue" d="M404,-106.603C404,-81.7305 404,-39.6088 404,-21.1394"/>
<polygon fill="midnightblue" stroke="midnightblue" points="400.5,-106.671 404,-116.671 407.5,-106.671 400.5,-106.671"/>
</g>
<!-- Node15&#45;&gt;Node5 -->
<g id="edge26" class="edge"><title>Node15&#45;&gt;Node5</title>
<path fill="none" stroke="midnightblue" d="M110.703,-113.494C148.25,-99.6348 210.806,-76.7643 265,-58 303.312,-44.7347 347.842,-30.1426 375.969,-21.0264"/>
<polygon fill="midnightblue" stroke="midnightblue" points="109.427,-110.234 101.261,-116.984 111.854,-116.8 109.427,-110.234"/>
</g>
<!-- Node16&#45;&gt;Node5 -->
<g id="edge28" class="edge"><title>Node16&#45;&gt;Node5</title>
<path fill="none" stroke="midnightblue" d="M567.379,-111.6C528.257,-87.75 451.121,-40.7263 418.799,-21.0217"/>
<polygon fill="midnightblue" stroke="midnightblue" points="565.653,-114.647 576.013,-116.864 569.296,-108.67 565.653,-114.647"/>
</g>
<!-- Node16&#45;&gt;Node7 -->
<g id="edge29" class="edge"><title>Node16&#45;&gt;Node7</title>
<path fill="none" stroke="midnightblue" d="M599.05,-107.271C609.701,-82.4914 628.062,-39.7752 636.072,-21.1394"/>
<polygon fill="midnightblue" stroke="midnightblue" points="595.743,-106.101 595.01,-116.671 602.174,-108.866 595.743,-106.101"/>
</g>
<!-- Node17&#45;&gt;Node3 -->
<g id="edge31" class="edge"><title>Node17&#45;&gt;Node3</title>
<path fill="none" stroke="midnightblue" d="M525.11,-226.866C510.415,-216.707 491.544,-203.66 479.127,-195.075"/>
<polygon fill="midnightblue" stroke="midnightblue" points="523.409,-229.945 533.624,-232.753 527.389,-224.187 523.409,-229.945"/>
</g>
<!-- Node17&#45;&gt;Node4 -->
<g id="edge32" class="edge"><title>Node17&#45;&gt;Node4</title>
<path fill="none" stroke="midnightblue" d="M597.222,-237.684C625.042,-232.428 657.458,-220.944 675,-196 687.408,-178.356 679.141,-151.43 673.324,-137.338"/>
<polygon fill="midnightblue" stroke="midnightblue" points="596.504,-234.255 587.216,-239.352 597.656,-241.16 596.504,-234.255"/>
</g>
<!-- Node17&#45;&gt;Node6 -->
<g id="edge48" class="edge"><title>Node17&#45;&gt;Node6</title>
<path fill="none" stroke="midnightblue" d="M597.198,-237.125C628.222,-231.698 666.951,-220.23 693,-196 720.088,-170.803 730.341,-150.103 716,-116 709.361,-100.213 694.366,-87.1335 683.086,-79.0087"/>
<polygon fill="midnightblue" stroke="midnightblue" points="596.329,-233.719 587.001,-238.744 597.426,-240.633 596.329,-233.719"/>
</g>
<!-- Node17&#45;&gt;Node8 -->
<g id="edge58" class="edge"><title>Node17&#45;&gt;Node8</title>
<path fill="none" stroke="midnightblue" d="M597.291,-236.999C638.321,-231.359 696.84,-219.673 743,-196 834.244,-149.205 916.115,-51.229 939.999,-21.0462"/>
<polygon fill="midnightblue" stroke="midnightblue" points="596.719,-233.544 587.255,-238.307 597.623,-240.485 596.719,-233.544"/>
</g>
<!-- Node17&#45;&gt;Node9 -->
<g id="edge46" class="edge"><title>Node17&#45;&gt;Node9</title>
<path fill="none" stroke="midnightblue" d="M496.888,-231.079C469.17,-223.707 434.813,-212.308 407,-196 379.306,-179.762 353.193,-151.737 340.696,-137.258"/>
<polygon fill="midnightblue" stroke="midnightblue" points="496.219,-234.521 506.775,-233.614 497.958,-227.74 496.219,-234.521"/>
</g>
<!-- Node17&#45;&gt;Node10 -->
<g id="edge47" class="edge"><title>Node17&#45;&gt;Node10</title>
<path fill="none" stroke="midnightblue" d="M496.788,-232.211C461.865,-224.532 414.648,-212.393 375,-196 334.796,-179.377 291.426,-151.521 270.211,-137.166"/>
<polygon fill="midnightblue" stroke="midnightblue" points="496.239,-235.673 506.751,-234.355 497.711,-228.83 496.239,-235.673"/>
</g>
<!-- Node17&#45;&gt;Node11 -->
<g id="edge49" class="edge"><title>Node17&#45;&gt;Node11</title>
<path fill="none" stroke="midnightblue" d="M496.707,-234.542C451.805,-227.155 384.588,-214.291 328,-196 277.108,-179.55 220.333,-151.618 192.423,-137.207"/>
<polygon fill="midnightblue" stroke="midnightblue" points="496.348,-238.029 506.778,-236.169 497.464,-231.119 496.348,-238.029"/>
</g>
<!-- Node17&#45;&gt;Node12 -->
<g id="edge50" class="edge"><title>Node17&#45;&gt;Node12</title>
<path fill="none" stroke="midnightblue" d="M597.592,-238.43C633.969,-233.614 682.493,-222.342 717,-196 758.337,-164.444 780.923,-102.629 788.281,-79.2524"/>
<polygon fill="midnightblue" stroke="midnightblue" points="596.711,-235.01 587.199,-239.675 597.545,-241.96 596.711,-235.01"/>
</g>
<!-- Node17&#45;&gt;Node13 -->
<g id="edge51" class="edge"><title>Node17&#45;&gt;Node13</title>
<path fill="none" stroke="midnightblue" d="M537.614,-223.88C530.137,-209.906 519.115,-190.28 508,-174 498.869,-160.626 486.915,-146.239 479.101,-137.183"/>
<polygon fill="midnightblue" stroke="midnightblue" points="534.623,-225.713 542.381,-232.928 540.816,-222.45 534.623,-225.713"/>
</g>
<!-- Node17&#45;&gt;Node14 -->
<g id="edge52" class="edge"><title>Node17&#45;&gt;Node14</title>
<path fill="none" stroke="midnightblue" d="M496.951,-234.502C471.572,-228.239 442.151,-216.805 423,-196 407.725,-179.406 404.593,-151.537 404.039,-137.173"/>
<polygon fill="midnightblue" stroke="midnightblue" points="496.285,-237.94 506.811,-236.733 497.83,-231.112 496.285,-237.94"/>
</g>
<!-- Node17&#45;&gt;Node15 -->
<g id="edge53" class="edge"><title>Node17&#45;&gt;Node15</title>
<path fill="none" stroke="midnightblue" d="M496.921,-236.416C440.832,-229.539 347.491,-216.225 269,-196 205.649,-179.677 133.592,-151.434 98.495,-137.024"/>
<polygon fill="midnightblue" stroke="midnightblue" points="496.602,-239.902 506.949,-237.625 497.44,-232.953 496.602,-239.902"/>
</g>
<!-- Node17&#45;&gt;Node16 -->
<g id="edge54" class="edge"><title>Node17&#45;&gt;Node16</title>
<path fill="none" stroke="midnightblue" d="M554.229,-223.271C563.793,-198.491 580.28,-155.775 587.473,-137.139"/>
<polygon fill="midnightblue" stroke="midnightblue" points="550.936,-222.081 550.601,-232.671 557.467,-224.602 550.936,-222.081"/>
</g>
<!-- Node17&#45;&gt;Node18 -->
<g id="edge33" class="edge"><title>Node17&#45;&gt;Node18</title>
<path fill="none" stroke="midnightblue" d="M569.006,-227.153C584.123,-216.953 603.705,-203.741 616.549,-195.075"/>
<polygon fill="midnightblue" stroke="midnightblue" points="567.038,-224.258 560.706,-232.753 570.953,-230.061 567.038,-224.258"/>
</g>
<!-- Node20 -->
<g id="node20" class="node"><title>Node20</title>
<g id="a_node20"><a xlink:href="Label_8h.html" target="_top" xlink:title="Helper functions for manipulating RMF files. ">
<polygon fill="none" stroke="black" points="-0.403809,-175 -0.403809,-195 48.4038,-195 48.4038,-175 -0.403809,-175"/>
<text text-anchor="middle" x="24" y="-181" font-family="Helvetica,sans-Serif" font-size="10.00">Label.h</text>
</a>
</g>
</g>
<!-- Node17&#45;&gt;Node20 -->
<g id="edge55" class="edge"><title>Node17&#45;&gt;Node20</title>
<path fill="none" stroke="midnightblue" d="M496.682,-236.612C386.942,-224.862 129.461,-197.292 48.6889,-188.644"/>
<polygon fill="midnightblue" stroke="midnightblue" points="496.514,-240.114 506.829,-237.699 497.259,-233.154 496.514,-240.114"/>
</g>
<!-- Node18&#45;&gt;Node4 -->
<g id="edge34" class="edge"><title>Node18&#45;&gt;Node4</title>
<path fill="none" stroke="midnightblue" d="M642.174,-166.52C648.969,-156.763 657.152,-145.012 662.68,-137.075"/>
<polygon fill="midnightblue" stroke="midnightblue" points="639.283,-164.546 636.44,-174.753 645.027,-168.547 639.283,-164.546"/>
</g>
<!-- Node18&#45;&gt;Node6 -->
<g id="edge37" class="edge"><title>Node18&#45;&gt;Node6</title>
<path fill="none" stroke="midnightblue" d="M664.142,-170.341C677.87,-162.954 692.259,-152.35 700,-138 710.965,-117.674 691.694,-92.7388 678.934,-79.4306"/>
<polygon fill="midnightblue" stroke="midnightblue" points="662.244,-167.375 654.834,-174.947 665.349,-173.649 662.244,-167.375"/>
</g>
<!-- Node18&#45;&gt;Node8 -->
<g id="edge45" class="edge"><title>Node18&#45;&gt;Node8</title>
<path fill="none" stroke="midnightblue" d="M665.543,-171.46C688.391,-162.963 718.468,-150.954 744,-138 819.093,-99.9017 902.739,-42.9962 934.156,-21.0667"/>
<polygon fill="midnightblue" stroke="midnightblue" points="664.095,-168.263 655.912,-174.994 666.506,-174.835 664.095,-168.263"/>
</g>
<!-- Node18&#45;&gt;Node9 -->
<g id="edge35" class="edge"><title>Node18&#45;&gt;Node9</title>
<path fill="none" stroke="midnightblue" d="M583.627,-176.801C531.824,-168.512 445.572,-153.968 372,-138 369.131,-137.377 366.154,-136.69 363.181,-135.975"/>
<polygon fill="midnightblue" stroke="midnightblue" points="583.089,-180.26 593.514,-178.374 584.189,-173.347 583.089,-180.26"/>
</g>
<!-- Node18&#45;&gt;Node10 -->
<g id="edge36" class="edge"><title>Node18&#45;&gt;Node10</title>
<path fill="none" stroke="midnightblue" d="M583.492,-179.534C518.351,-172.849 396.426,-158.764 294,-138 291,-137.392 287.884,-136.679 284.789,-135.92"/>
<polygon fill="midnightblue" stroke="midnightblue" points="583.145,-183.017 593.447,-180.544 583.851,-176.053 583.145,-183.017"/>
</g>
<!-- Node18&#45;&gt;Node11 -->
<g id="edge38" class="edge"><title>Node18&#45;&gt;Node11</title>
<path fill="none" stroke="midnightblue" d="M583.691,-180.429C507.5,-174.191 351.076,-159.853 220,-138 217.158,-137.526 214.226,-136.988 211.284,-136.413"/>
<polygon fill="midnightblue" stroke="midnightblue" points="583.649,-183.937 593.899,-181.256 584.214,-176.96 583.649,-183.937"/>
</g>
<!-- Node18&#45;&gt;Node12 -->
<g id="edge39" class="edge"><title>Node18&#45;&gt;Node12</title>
<path fill="none" stroke="midnightblue" d="M659.753,-170.343C676.817,-161.965 698.297,-150.474 716,-138 742.149,-119.575 769.025,-92.9786 782.377,-79.1422"/>
<polygon fill="midnightblue" stroke="midnightblue" points="657.773,-167.411 650.278,-174.899 660.807,-173.72 657.773,-167.411"/>
</g>
<!-- Node18&#45;&gt;Node13 -->
<g id="edge40" class="edge"><title>Node18&#45;&gt;Node13</title>
<path fill="none" stroke="midnightblue" d="M594.527,-171.506C564.831,-161.048 523.165,-146.373 496.625,-137.025"/>
<polygon fill="midnightblue" stroke="midnightblue" points="593.505,-174.857 604.1,-174.878 595.831,-168.255 593.505,-174.857"/>
</g>
<!-- Node18&#45;&gt;Node14 -->
<g id="edge41" class="edge"><title>Node18&#45;&gt;Node14</title>
<path fill="none" stroke="midnightblue" d="M583.836,-174.01C544.384,-165.245 486.206,-151.779 436,-138 433.194,-137.23 430.263,-136.379 427.363,-135.508"/>
<polygon fill="midnightblue" stroke="midnightblue" points="583.175,-177.449 593.695,-176.19 584.686,-170.614 583.175,-177.449"/>
</g>
<!-- Node18&#45;&gt;Node15 -->
<g id="edge42" class="edge"><title>Node18&#45;&gt;Node15</title>
<path fill="none" stroke="midnightblue" d="M583.397,-179.967C467.837,-169.929 174.213,-144.191 130,-138 127.125,-137.597 124.17,-137.146 121.195,-136.663"/>
<polygon fill="midnightblue" stroke="midnightblue" points="583.421,-183.482 593.686,-180.86 584.026,-176.508 583.421,-183.482"/>
</g>
<!-- Node18&#45;&gt;Node16 -->
<g id="edge43" class="edge"><title>Node18&#45;&gt;Node16</title>
<path fill="none" stroke="midnightblue" d="M617.826,-166.52C611.031,-156.763 602.848,-145.012 597.32,-137.075"/>
<polygon fill="midnightblue" stroke="midnightblue" points="614.973,-168.547 623.56,-174.753 620.717,-164.546 614.973,-168.547"/>
</g>
<!-- Node18&#45;&gt;Node19 -->
<g id="edge44" class="edge"><title>Node18&#45;&gt;Node19</title>
<path fill="none" stroke="midnightblue" d="M676.122,-177.731C761.443,-166.134 941.67,-141.637 1012.51,-132.008"/>
<polygon fill="midnightblue" stroke="midnightblue" points="675.639,-174.264 666.201,-179.079 676.581,-181.201 675.639,-174.264"/>
</g>
<!-- Node21 -->
<g id="node21" class="node"><title>Node21</title>
<g id="a_node21"><a xlink:href="labels_8h.html" target="_top" xlink:title="Helper functions for manipulating RMF files. ">
<polygon fill="none" stroke="black" points="13.7661,-59 13.7661,-79 64.2339,-79 64.2339,-59 13.7661,-59"/>
<text text-anchor="middle" x="39" y="-65" font-family="Helvetica,sans-Serif" font-size="10.00">labels.h</text>
</a>
</g>
</g>
<!-- Node20&#45;&gt;Node21 -->
<g id="edge56" class="edge"><title>Node20&#45;&gt;Node21</title>
<path fill="none" stroke="midnightblue" d="M22.387,-164.546C21.6459,-150.878 21.4232,-132.214 24,-116 26.0831,-102.893 31.3087,-88.4423 35.0042,-79.2996"/>
<polygon fill="midnightblue" stroke="midnightblue" points="18.9065,-164.951 23.0814,-174.688 25.8901,-164.473 18.9065,-164.951"/>
</g>
<!-- Node21&#45;&gt;Node5 -->
<g id="edge57" class="edge"><title>Node21&#45;&gt;Node5</title>
<path fill="none" stroke="midnightblue" d="M74.4078,-62.5676C144.025,-51.8866 298.027,-28.2589 368.067,-17.5131"/>
<polygon fill="midnightblue" stroke="midnightblue" points="73.7298,-59.1305 64.3763,-64.1066 74.7915,-66.0496 73.7298,-59.1305"/>
</g>
<!-- Node22&#45;&gt;Node8 -->
<g id="edge66" class="edge"><title>Node22&#45;&gt;Node8</title>
<path fill="none" stroke="midnightblue" d="M1189.37,-224.377C1198.07,-210.705 1206.8,-191.242 1201,-174 1180.37,-112.665 1166.55,-94.3286 1113,-58 1079.09,-34.9996 1033.94,-23.4428 999.282,-17.6685"/>
<polygon fill="midnightblue" stroke="midnightblue" points="1186.34,-222.602 1183.54,-232.819 1192.1,-226.583 1186.34,-222.602"/>
</g>
<!-- Node22&#45;&gt;Node18 -->
<g id="edge60" class="edge"><title>Node22&#45;&gt;Node18</title>
<path fill="none" stroke="midnightblue" d="M1116.34,-235.881C1002.78,-224.234 758.664,-199.196 666.358,-189.729"/>
<polygon fill="midnightblue" stroke="midnightblue" points="1116.28,-239.393 1126.58,-236.932 1116.99,-232.429 1116.28,-239.393"/>
</g>
<!-- Node22&#45;&gt;Node19 -->
<g id="edge65" class="edge"><title>Node22&#45;&gt;Node19</title>
<path fill="none" stroke="midnightblue" d="M1155.88,-226.514C1144.61,-217.724 1130.37,-206.427 1118,-196 1093.9,-175.693 1066.57,-150.75 1052.16,-137.436"/>
<polygon fill="midnightblue" stroke="midnightblue" points="1153.79,-229.325 1163.84,-232.69 1158.08,-223.795 1153.79,-229.325"/>
</g>
<!-- Node23 -->
<g id="node23" class="node"><title>Node23</title>
<g id="a_node23"><a xlink:href="info_8h.html" target="_top" xlink:title="Helper functions for manipulating RMF files. ">
<polygon fill="none" stroke="black" points="1248.77,-175 1248.77,-195 1289.23,-195 1289.23,-175 1248.77,-175"/>
<text text-anchor="middle" x="1269" y="-181" font-family="Helvetica,sans-Serif" font-size="10.00">info.h</text>
</a>
</g>
</g>
<!-- Node22&#45;&gt;Node23 -->
<g id="edge61" class="edge"><title>Node22&#45;&gt;Node23</title>
<path fill="none" stroke="midnightblue" d="M1200.18,-227.438C1217.18,-217.201 1239.4,-203.822 1253.93,-195.075"/>
<polygon fill="midnightblue" stroke="midnightblue" points="1198.12,-224.596 1191.36,-232.753 1201.73,-230.593 1198.12,-224.596"/>
</g>
<!-- Node24 -->
<g id="node24" class="node"><title>Node24</title>
<g id="a_node24"><a xlink:href="RestoreCurrentFrame_8h.html" target="_top" xlink:title="Handle read/write of Model data from/to files. ">
<polygon fill="none" stroke="black" points="1307.2,-175 1307.2,-195 1428.8,-195 1428.8,-175 1307.2,-175"/>
<text text-anchor="middle" x="1368" y="-181" font-family="Helvetica,sans-Serif" font-size="10.00">RestoreCurrentFrame.h</text>
</a>
</g>
</g>
<!-- Node22&#45;&gt;Node24 -->
<g id="edge62" class="edge"><title>Node22&#45;&gt;Node24</title>
<path fill="none" stroke="midnightblue" d="M1216.98,-230.048C1252.94,-219.56 1304.45,-204.535 1337.06,-195.025"/>
<polygon fill="midnightblue" stroke="midnightblue" points="1215.9,-226.718 1207.28,-232.878 1217.86,-233.438 1215.9,-226.718"/>
</g>
<!-- Node25 -->
<g id="node25" class="node"><title>Node25</title>
<g id="a_node25"><a xlink:href="SetCurrentFrame_8h.html" target="_top" xlink:title="Handle read/write of Model data from/to files. ">
<polygon fill="none" stroke="black" points="1447.21,-175 1447.21,-195 1548.79,-195 1548.79,-175 1447.21,-175"/>
<text text-anchor="middle" x="1498" y="-181" font-family="Helvetica,sans-Serif" font-size="10.00">SetCurrentFrame.h</text>
</a>
</g>
</g>
<!-- Node22&#45;&gt;Node25 -->
<g id="edge63" class="edge"><title>Node22&#45;&gt;Node25</title>
<path fill="none" stroke="midnightblue" d="M1235.47,-231.658C1296.26,-221.085 1389.69,-204.836 1447.16,-194.843"/>
<polygon fill="midnightblue" stroke="midnightblue" points="1234.51,-228.272 1225.26,-233.434 1235.71,-235.169 1234.51,-228.272"/>
</g>
<!-- Node26 -->
<g id="node26" class="node"><title>Node26</title>
<g id="a_node26"><a xlink:href="signature_8h.html" target="_top" xlink:title="Helper functions for manipulating RMF files. ">
<polygon fill="none" stroke="black" points="1127.26,-175 1127.26,-195 1192.74,-195 1192.74,-175 1127.26,-175"/>
<text text-anchor="middle" x="1160" y="-181" font-family="Helvetica,sans-Serif" font-size="10.00">signature.h</text>
</a>
</g>
</g>
<!-- Node22&#45;&gt;Node26 -->
<g id="edge64" class="edge"><title>Node22&#45;&gt;Node26</title>
<path fill="none" stroke="midnightblue" d="M1170.57,-223.012C1167.88,-213.574 1164.74,-202.607 1162.59,-195.075"/>
<polygon fill="midnightblue" stroke="midnightblue" points="1167.25,-224.099 1173.36,-232.753 1173.98,-222.176 1167.25,-224.099"/>
</g>
</g>
</svg>
        <g id="navigator" transform="translate(0 0)" fill="#404254">
                <rect fill="#f2f5e9" fill-opacity="0.5" stroke="#606060" stroke-width=".5" x="0" y="0" width="60" height="60"/>
                <use id="zoomplus" xlink:href="#zoomPlus" x="17" y="9" onmousedown="handleZoom(evt,'in')"/>
                <use id="zoomminus" xlink:href="#zoomMin" x="42" y="9" onmousedown="handleZoom(evt,'out')"/>
                <use id="reset" xlink:href="#resetDef" x="30" y="36" onmousedown="handleReset()"/>
                <g id="arrowUp" xlink:href="#dirArrow" transform="translate(30 24)" onmousedown="handlePan(0,-1)">
                  <use xlink:href="#rim" fill="#404040">
                        <set attributeName="fill" to="#808080" begin="arrowUp.mouseover" end="arrowUp.mouseout"/>
                  </use>
                  <path fill="none" stroke="white" stroke-width="1.5" d="M0,-3.0v7 M-2.5,-0.5L0,-3.0L2.5,-0.5"/>
                </g>
                <g id="arrowRight" xlink:href="#dirArrow" transform="rotate(90) translate(36 -43)" onmousedown="handlePan(1,0)">
                  <use xlink:href="#rim" fill="#404040">
                        <set attributeName="fill" to="#808080" begin="arrowRight.mouseover" end="arrowRight.mouseout"/>
                  </use>
                  <path fill="none" stroke="white" stroke-width="1.5" d="M0,-3.0v7 M-2.5,-0.5L0,-3.0L2.5,-0.5"/>
                </g>
                <g id="arrowDown" xlink:href="#dirArrow" transform="rotate(180) translate(-30 -48)" onmousedown="handlePan(0,1)">
                  <use xlink:href="#rim" fill="#404040">
                        <set attributeName="fill" to="#808080" begin="arrowDown.mouseover" end="arrowDown.mouseout"/>
                  </use>
                  <path fill="none" stroke="white" stroke-width="1.5" d="M0,-3.0v7 M-2.5,-0.5L0,-3.0L2.5,-0.5"/>
                </g>
                <g id="arrowLeft" xlink:href="#dirArrow" transform="rotate(270) translate(-36 17)" onmousedown="handlePan(-1,0)">
                  <use xlink:href="#rim" fill="#404040">
                        <set attributeName="fill" to="#808080" begin="arrowLeft.mouseover" end="arrowLeft.mouseout"/>
                  </use>
                  <path fill="none" stroke="white" stroke-width="1.5" d="M0,-3.0v7 M-2.5,-0.5L0,-3.0L2.5,-0.5"/>
                </g>
        </g>
        <svg viewBox="0 0 15 15" width="100%" height="30px" preserveAspectRatio="xMaxYMin meet">
         <g id="arrow_out" transform="scale(0.3 0.3)">
          <a xlink:href="enums_8h__dep__incl_org.svg" target="_base">
           <rect id="button" ry="5" rx="5" y="6" x="6" height="38" width="38"
                fill="#f2f5e9" fill-opacity="0.5" stroke="#606060" stroke-width="1.0"/>
           <path id="arrow"
             d="M 11.500037,31.436501 C 11.940474,20.09759 22.043105,11.32322 32.158766,21.979434 L 37.068811,17.246167 C 37.068811,17.246167 37.088388,32 37.088388,32 L 22.160133,31.978069 C 22.160133,31.978069 26.997745,27.140456 26.997745,27.140456 C 18.528582,18.264221 13.291696,25.230495 11.500037,31.436501 z"
             style="fill:#404040;"/>
          </a>
         </g>
        </svg>
</svg>
