<?xml version="1.0" encoding="UTF-8" standalone="no"?>
<!DOCTYPE svg PUBLIC "-//W3C//DTD SVG 1.1//EN"
 "http://www.w3.org/Graphics/SVG/1.1/DTD/svg11.dtd">
<!-- Generated by graphviz version 2.36.0 (20140111.2315)
 -->
<!-- Title: enums.h Pages: 1 -->
<svg width="1556pt" height="364pt"
 viewBox="0.00 0.00 1556.00 364.00" xmlns="http://www.w3.org/2000/svg" xmlns:xlink="http://www.w3.org/1999/xlink">
<g id="graph0" class="graph" transform="scale(1 1) rotate(0) translate(4 360)">
<title>enums.h</title>
<!-- Node1 -->
<g id="node1" class="node"><title>Node1</title>
<polygon fill="#bfbfbf" stroke="black" points="893.823,-337 893.823,-355 948.177,-355 948.177,-337 893.823,-337"/>
<text text-anchor="middle" x="921" y="-343" font-family="Helvetica,sans-Serif" font-size="10.00">enums.h</text>
</g>
<!-- Node2 -->
<g id="node2" class="node"><title>Node2</title>
<g id="a_node2"><a xlink:href="NodeConstHandle_8h.html" target="_top" xlink:title="Declaration of NodeConstHandlke. ">
<polygon fill="none" stroke="black" points="948.971,-281 948.971,-299 1055.03,-299 1055.03,-281 948.971,-281"/>
<text text-anchor="middle" x="1002" y="-287" font-family="Helvetica,sans-Serif" font-size="10.00">NodeConstHandle.h</text>
</a>
</g>
</g>
<!-- Node1&#45;&gt;Node2 -->
<g id="edge1" class="edge"><title>Node1&#45;&gt;Node2</title>
<path fill="none" stroke="midnightblue" d="M942.035,-330.976C957.231,-320.846 977.224,-307.517 989.847,-299.102"/>
<polygon fill="midnightblue" stroke="midnightblue" points="939.681,-328.339 933.302,-336.799 943.564,-334.164 939.681,-328.339"/>
</g>
<!-- Node8 -->
<g id="node8" class="node"><title>Node8</title>
<g id="a_node8"><a xlink:href="benchmark__rmf_8cpp_source.html" target="_top" xlink:title="benchmark_rmf.cpp">
<polygon fill="none" stroke="black" points="894.815,-1 894.815,-19 999.185,-19 999.185,-1 894.815,-1"/>
<text text-anchor="middle" x="947" y="-7" font-family="Helvetica,sans-Serif" font-size="10.00">benchmark_rmf.cpp</text>
</a>
</g>
</g>
<!-- Node1&#45;&gt;Node8 -->
<g id="edge73" class="edge"><title>Node1&#45;&gt;Node8</title>
<path fill="none" stroke="midnightblue" d="M922.442,-326.478C927.304,-264.017 942.983,-62.6092 946.356,-19.2666"/>
<polygon fill="midnightblue" stroke="midnightblue" points="918.929,-326.502 921.643,-336.744 925.908,-327.046 918.929,-326.502"/>
</g>
<!-- Node17 -->
<g id="node17" class="node"><title>Node17</title>
<g id="a_node17"><a xlink:href="NodeHandle_8h.html" target="_top" xlink:title="Declaration of NodeHandle. ">
<polygon fill="none" stroke="black" points="507.032,-225 507.032,-243 586.968,-243 586.968,-225 507.032,-225"/>
<text text-anchor="middle" x="547" y="-231" font-family="Helvetica,sans-Serif" font-size="10.00">NodeHandle.h</text>
</a>
</g>
</g>
<!-- Node1&#45;&gt;Node17 -->
<g id="edge70" class="edge"><title>Node1&#45;&gt;Node17</title>
<path fill="none" stroke="midnightblue" d="M883.338,-341.673C833.969,-336.527 745.174,-324.551 673,-300 629.19,-285.098 581.774,-257.028 559.674,-243.168"/>
<polygon fill="midnightblue" stroke="midnightblue" points="883.247,-345.182 893.546,-342.698 883.946,-338.217 883.247,-345.182"/>
</g>
<!-- Node18 -->
<g id="node18" class="node"><title>Node18</title>
<g id="a_node18"><a xlink:href="FileHandle_8h.html" target="_top" xlink:title="Declaration for RMF::FileHandle. ">
<polygon fill="none" stroke="black" points="593.929,-169 593.929,-187 666.071,-187 666.071,-169 593.929,-169"/>
<text text-anchor="middle" x="630" y="-175" font-family="Helvetica,sans-Serif" font-size="10.00">FileHandle.h</text>
</a>
</g>
</g>
<!-- Node1&#45;&gt;Node18 -->
<g id="edge72" class="edge"><title>Node1&#45;&gt;Node18</title>
<path fill="none" stroke="midnightblue" d="M898.262,-332.029C840.817,-299.26 691.097,-213.852 644.236,-187.121"/>
<polygon fill="midnightblue" stroke="midnightblue" points="896.544,-335.079 906.964,-336.993 900.013,-328.998 896.544,-335.079"/>
</g>
<!-- Node22 -->
<g id="node22" class="node"><title>Node22</title>
<g id="a_node22"><a xlink:href="FileConstHandle_8h.html" target="_top" xlink:title="Handle read/write of Model data from/to files. ">
<polygon fill="none" stroke="black" points="1126.87,-225 1126.87,-243 1225.13,-243 1225.13,-225 1126.87,-225"/>
<text text-anchor="middle" x="1176" y="-231" font-family="Helvetica,sans-Serif" font-size="10.00">FileConstHandle.h</text>
</a>
</g>
</g>
<!-- Node1&#45;&gt;Node22 -->
<g id="edge71" class="edge"><title>Node1&#45;&gt;Node22</title>
<path fill="none" stroke="midnightblue" d="M958.106,-335.749C987.464,-327.857 1029.17,-315.36 1064,-300 1102.26,-283.126 1144.05,-256.459 1164.04,-243.137"/>
<polygon fill="midnightblue" stroke="midnightblue" points="957.043,-332.41 948.268,-338.346 958.83,-339.178 957.043,-332.41"/>
</g>
<!-- Node3 -->
<g id="node3" class="node"><title>Node3</title>
<g id="a_node3"><a xlink:href="Decorator_8h.html" target="_top" xlink:title="Mostly empty base classes for decorators and factories. ">
<polygon fill="none" stroke="black" points="432.15,-169 432.15,-187 499.85,-187 499.85,-169 432.15,-169"/>
<text text-anchor="middle" x="466" y="-175" font-family="Helvetica,sans-Serif" font-size="10.00">Decorator.h</text>
</a>
</g>
</g>
<!-- Node2&#45;&gt;Node3 -->
<g id="edge2" class="edge"><title>Node2&#45;&gt;Node3</title>
<path fill="none" stroke="midnightblue" d="M952.637,-278.869C845.008,-256.782 591.538,-204.763 499.85,-185.947"/>
<polygon fill="midnightblue" stroke="midnightblue" points="952.087,-282.33 962.587,-280.911 953.494,-275.472 952.087,-282.33"/>
</g>
<!-- Node2&#45;&gt;Node8 -->
<g id="edge69" class="edge"><title>Node2&#45;&gt;Node8</title>
<path fill="none" stroke="midnightblue" d="M1025.85,-275.777C1054.57,-257.898 1099,-223.112 1099,-179 1099,-179 1099,-179 1099,-121 1099,-62.6922 1024.69,-32.1445 979.982,-19.0432"/>
<polygon fill="midnightblue" stroke="midnightblue" points="1023.94,-272.842 1017.16,-280.979 1027.53,-278.85 1023.94,-272.842"/>
</g>
<!-- Node2&#45;&gt;Node17 -->
<g id="edge30" class="edge"><title>Node2&#45;&gt;Node17</title>
<path fill="none" stroke="midnightblue" d="M938.854,-281.506C843.734,-270.217 666.402,-249.171 587.112,-239.761"/>
<polygon fill="midnightblue" stroke="midnightblue" points="938.572,-284.997 948.915,-282.7 939.397,-278.046 938.572,-284.997"/>
</g>
<!-- Node19 -->
<g id="node19" class="node"><title>Node19</title>
<g id="a_node19"><a xlink:href="validate_8h.html" target="_top" xlink:title="Support for validating the data in a file. ">
<polygon fill="none" stroke="black" points="1012.6,-113 1012.6,-131 1071.4,-131 1071.4,-113 1012.6,-113"/>
<text text-anchor="middle" x="1042" y="-119" font-family="Helvetica,sans-Serif" font-size="10.00">validate.h</text>
</a>
</g>
</g>
<!-- Node2&#45;&gt;Node19 -->
<g id="edge68" class="edge"><title>Node2&#45;&gt;Node19</title>
<path fill="none" stroke="midnightblue" d="M1006.33,-271.051C1014.91,-235.422 1033.81,-156.994 1040,-131.317"/>
<polygon fill="midnightblue" stroke="midnightblue" points="1002.87,-270.452 1003.93,-280.993 1009.67,-272.092 1002.87,-270.452"/>
</g>
<!-- Node2&#45;&gt;Node22 -->
<g id="edge59" class="edge"><title>Node2&#45;&gt;Node22</title>
<path fill="none" stroke="midnightblue" d="M1037.88,-277.865C1071.29,-267.496 1120.29,-252.289 1150.06,-243.051"/>
<polygon fill="midnightblue" stroke="midnightblue" points="1036.56,-274.609 1028.05,-280.916 1038.64,-281.294 1036.56,-274.609"/>
</g>
<!-- Node27 -->
<g id="node27" class="node"><title>Node27</title>
<g id="a_node27"><a xlink:href="utility_8h.html" target="_top" xlink:title="Helper functions for manipulating RMF files. ">
<polygon fill="none" stroke="black" points="948.807,-225 948.807,-243 995.193,-243 995.193,-225 948.807,-225"/>
<text text-anchor="middle" x="972" y="-231" font-family="Helvetica,sans-Serif" font-size="10.00">utility.h</text>
</a>
</g>
</g>
<!-- Node2&#45;&gt;Node27 -->
<g id="edge67" class="edge"><title>Node2&#45;&gt;Node27</title>
<path fill="none" stroke="midnightblue" d="M992.3,-271.54C987.014,-262.025 980.72,-250.695 976.556,-243.201"/>
<polygon fill="midnightblue" stroke="midnightblue" points="989.396,-273.521 997.312,-280.562 995.516,-270.121 989.396,-273.521"/>
</g>
<!-- Node4 -->
<g id="node4" class="node"><title>Node4</title>
<g id="a_node4"><a xlink:href="alias_8h.html" target="_top" xlink:title="Helper functions for manipulating RMF files. ">
<polygon fill="none" stroke="black" points="646.547,-113 646.547,-131 691.453,-131 691.453,-113 646.547,-113"/>
<text text-anchor="middle" x="669" y="-119" font-family="Helvetica,sans-Serif" font-size="10.00">alias.h</text>
</a>
</g>
</g>
<!-- Node3&#45;&gt;Node4 -->
<g id="edge3" class="edge"><title>Node3&#45;&gt;Node4</title>
<path fill="none" stroke="midnightblue" d="M507.015,-166.413C541.688,-157.415 592.652,-144.071 637,-132 640.007,-131.182 643.169,-130.308 646.287,-129.439"/>
<polygon fill="midnightblue" stroke="midnightblue" points="506.047,-163.049 497.246,-168.946 507.804,-169.825 506.047,-163.049"/>
</g>
<!-- Node6 -->
<g id="node6" class="node"><title>Node6</title>
<g id="a_node6"><a xlink:href="physics_8h.html" target="_top" xlink:title="Helper functions for manipulating RMF files. ">
<polygon fill="none" stroke="black" points="640.158,-57 640.158,-75 697.842,-75 697.842,-57 640.158,-57"/>
<text text-anchor="middle" x="669" y="-63" font-family="Helvetica,sans-Serif" font-size="10.00">physics.h</text>
</a>
</g>
</g>
<!-- Node3&#45;&gt;Node6 -->
<g id="edge13" class="edge"><title>Node3&#45;&gt;Node6</title>
<path fill="none" stroke="midnightblue" d="M481.216,-161.51C496.108,-147.069 519.995,-125.749 544,-112 574.822,-94.3464 613.796,-81.6478 639.96,-74.3312"/>
<polygon fill="midnightblue" stroke="midnightblue" points="478.566,-159.209 473.925,-168.733 483.492,-164.182 478.566,-159.209"/>
</g>
<!-- Node9 -->
<g id="node9" class="node"><title>Node9</title>
<g id="a_node9"><a xlink:href="external_8h.html" target="_top" xlink:title="Helper functions for manipulating RMF files. ">
<polygon fill="none" stroke="black" points="303.042,-113 303.042,-131 362.958,-131 362.958,-113 303.042,-113"/>
<text text-anchor="middle" x="333" y="-119" font-family="Helvetica,sans-Serif" font-size="10.00">external.h</text>
</a>
</g>
</g>
<!-- Node3&#45;&gt;Node9 -->
<g id="edge9" class="edge"><title>Node3&#45;&gt;Node9</title>
<path fill="none" stroke="midnightblue" d="M436.599,-165.063C411.22,-154.758 375.239,-140.15 353.048,-131.14"/>
<polygon fill="midnightblue" stroke="midnightblue" points="435.506,-168.397 446.089,-168.916 438.14,-161.911 435.506,-168.397"/>
</g>
<!-- Node10 -->
<g id="node10" class="node"><title>Node10</title>
<g id="a_node10"><a xlink:href="feature_8h.html" target="_top" xlink:title="Helper functions for manipulating RMF files. ">
<polygon fill="none" stroke="black" points="229.264,-113 229.264,-131 284.736,-131 284.736,-113 229.264,-113"/>
<text text-anchor="middle" x="257" y="-119" font-family="Helvetica,sans-Serif" font-size="10.00">feature.h</text>
</a>
</g>
</g>
<!-- Node3&#45;&gt;Node10 -->
<g id="edge11" class="edge"><title>Node3&#45;&gt;Node10</title>
<path fill="none" stroke="midnightblue" d="M424.931,-166.389C383.521,-155.69 320.736,-139.468 284.822,-130.188"/>
<polygon fill="midnightblue" stroke="midnightblue" points="424.153,-169.803 434.711,-168.916 425.904,-163.025 424.153,-169.803"/>
</g>
<!-- Node11 -->
<g id="node11" class="node"><title>Node11</title>
<g id="a_node11"><a xlink:href="publication_8h.html" target="_top" xlink:title="Helper functions for manipulating RMF files. ">
<polygon fill="none" stroke="black" points="138.924,-113 138.924,-131 211.076,-131 211.076,-113 138.924,-113"/>
<text text-anchor="middle" x="175" y="-119" font-family="Helvetica,sans-Serif" font-size="10.00">publication.h</text>
</a>
</g>
</g>
<!-- Node3&#45;&gt;Node11 -->
<g id="edge14" class="edge"><title>Node3&#45;&gt;Node11</title>
<path fill="none" stroke="midnightblue" d="M422.156,-169.204C372.923,-160.398 290.664,-145.529 220,-132 217.183,-131.461 214.268,-130.895 211.339,-130.321"/>
<polygon fill="midnightblue" stroke="midnightblue" points="421.684,-172.676 432.144,-170.989 422.915,-165.785 421.684,-172.676"/>
</g>
<!-- Node12 -->
<g id="node12" class="node"><title>Node12</title>
<g id="a_node12"><a xlink:href="sequence_8h.html" target="_top" xlink:title="Helper functions for manipulating RMF files. ">
<polygon fill="none" stroke="black" points="757.146,-57 757.146,-75 824.854,-75 824.854,-57 757.146,-57"/>
<text text-anchor="middle" x="791" y="-63" font-family="Helvetica,sans-Serif" font-size="10.00">sequence.h</text>
</a>
</g>
</g>
<!-- Node3&#45;&gt;Node12 -->
<g id="edge16" class="edge"><title>Node3&#45;&gt;Node12</title>
<path fill="none" stroke="midnightblue" d="M509.989,-174.174C558.287,-169.807 637.304,-158.887 700,-132 717.397,-124.539 761.091,-90.7305 780.925,-75.0421"/>
<polygon fill="midnightblue" stroke="midnightblue" points="509.54,-170.7 499.872,-175.034 510.133,-177.675 509.54,-170.7"/>
</g>
<!-- Node13 -->
<g id="node13" class="node"><title>Node13</title>
<g id="a_node13"><a xlink:href="shape_8h.html" target="_top" xlink:title="Helper functions for manipulating RMF files. ">
<polygon fill="none" stroke="black" points="445.207,-113 445.207,-131 496.793,-131 496.793,-113 445.207,-113"/>
<text text-anchor="middle" x="471" y="-119" font-family="Helvetica,sans-Serif" font-size="10.00">shape.h</text>
</a>
</g>
</g>
<!-- Node3&#45;&gt;Node13 -->
<g id="edge20" class="edge"><title>Node3&#45;&gt;Node13</title>
<path fill="none" stroke="midnightblue" d="M467.729,-158.329C468.585,-149.077 469.576,-138.38 470.241,-131.201"/>
<polygon fill="midnightblue" stroke="midnightblue" points="464.218,-158.282 466.781,-168.562 471.188,-158.928 464.218,-158.282"/>
</g>
<!-- Node14 -->
<g id="node14" class="node"><title>Node14</title>
<g id="a_node14"><a xlink:href="bond_8h.html" target="_top" xlink:title="Helper functions for manipulating RMF files. ">
<polygon fill="none" stroke="black" points="380.707,-113 380.707,-131 427.293,-131 427.293,-113 380.707,-113"/>
<text text-anchor="middle" x="404" y="-119" font-family="Helvetica,sans-Serif" font-size="10.00">bond.h</text>
</a>
</g>
</g>
<!-- Node3&#45;&gt;Node14 -->
<g id="edge23" class="edge"><title>Node3&#45;&gt;Node14</title>
<path fill="none" stroke="midnightblue" d="M448.951,-162.151C437.529,-152.203 422.915,-139.474 413.505,-131.279"/>
<polygon fill="midnightblue" stroke="midnightblue" points="446.744,-164.87 456.584,-168.799 451.341,-159.591 446.744,-164.87"/>
</g>
<!-- Node15 -->
<g id="node15" class="node"><title>Node15</title>
<g id="a_node15"><a xlink:href="representation_8h.html" target="_top" xlink:title="Helper functions for manipulating RMF files. ">
<polygon fill="none" stroke="black" points="32.8647,-113 32.8647,-131 121.135,-131 121.135,-113 32.8647,-113"/>
<text text-anchor="middle" x="77" y="-119" font-family="Helvetica,sans-Serif" font-size="10.00">representation.h</text>
</a>
</g>
</g>
<!-- Node3&#45;&gt;Node15 -->
<g id="edge25" class="edge"><title>Node3&#45;&gt;Node15</title>
<path fill="none" stroke="midnightblue" d="M421.908,-171.595C357.624,-163.602 234.45,-147.858 130,-132 127.14,-131.566 124.195,-131.105 121.228,-130.63"/>
<polygon fill="midnightblue" stroke="midnightblue" points="421.728,-175.1 432.083,-172.857 422.589,-168.153 421.728,-175.1"/>
</g>
<!-- Node16 -->
<g id="node16" class="node"><title>Node16</title>
<g id="a_node16"><a xlink:href="alternatives_8h.html" target="_top" xlink:title="Helper functions for manipulating RMF files. ">
<polygon fill="none" stroke="black" points="553.261,-113 553.261,-131 628.739,-131 628.739,-113 553.261,-113"/>
<text text-anchor="middle" x="591" y="-119" font-family="Helvetica,sans-Serif" font-size="10.00">alternatives.h</text>
</a>
</g>
</g>
<!-- Node3&#45;&gt;Node16 -->
<g id="edge27" class="edge"><title>Node3&#45;&gt;Node16</title>
<path fill="none" stroke="midnightblue" d="M493.95,-164.926C517.784,-154.629 551.394,-140.11 572.158,-131.14"/>
<polygon fill="midnightblue" stroke="midnightblue" points="492.506,-161.737 484.714,-168.916 495.282,-168.163 492.506,-161.737"/>
</g>
<!-- Node5 -->
<g id="node5" class="node"><title>Node5</title>
<g id="a_node5"><a xlink:href="decorators_8h.html" target="_top" xlink:title="Import all the decorators headers. ">
<polygon fill="none" stroke="black" points="368.207,-1 368.207,-19 439.793,-19 439.793,-1 368.207,-1"/>
<text text-anchor="middle" x="404" y="-7" font-family="Helvetica,sans-Serif" font-size="10.00">decorators.h</text>
</a>
</g>
</g>
<!-- Node4&#45;&gt;Node5 -->
<g id="edge4" class="edge"><title>Node4&#45;&gt;Node5</title>
<path fill="none" stroke="midnightblue" d="M640.118,-109.011C585.783,-86.4573 469.679,-38.2628 423.515,-19.1004"/>
<polygon fill="midnightblue" stroke="midnightblue" points="638.936,-112.31 649.514,-112.911 641.62,-105.845 638.936,-112.31"/>
</g>
<!-- Node4&#45;&gt;Node6 -->
<g id="edge5" class="edge"><title>Node4&#45;&gt;Node6</title>
<path fill="none" stroke="midnightblue" d="M669,-102.329C669,-93.0774 669,-82.3798 669,-75.2014"/>
<polygon fill="midnightblue" stroke="midnightblue" points="665.5,-102.562 669,-112.562 672.5,-102.563 665.5,-102.562"/>
</g>
<!-- Node6&#45;&gt;Node5 -->
<g id="edge6" class="edge"><title>Node6&#45;&gt;Node5</title>
<path fill="none" stroke="midnightblue" d="M630.127,-57.0787C578.952,-46.6506 489.675,-28.4583 439.984,-18.3325"/>
<polygon fill="midnightblue" stroke="midnightblue" points="629.638,-60.551 640.136,-59.1183 631.036,-53.692 629.638,-60.551"/>
</g>
<!-- Node7 -->
<g id="node7" class="node"><title>Node7</title>
<g id="a_node7"><a xlink:href="TraverseHelper_8h.html" target="_top" xlink:title="A helper function for managing data when traversing an RMF. ">
<polygon fill="none" stroke="black" points="593.831,-1 593.831,-19 686.169,-19 686.169,-1 593.831,-1"/>
<text text-anchor="middle" x="640" y="-7" font-family="Helvetica,sans-Serif" font-size="10.00">TraverseHelper.h</text>
</a>
</g>
</g>
<!-- Node6&#45;&gt;Node7 -->
<g id="edge7" class="edge"><title>Node6&#45;&gt;Node7</title>
<path fill="none" stroke="midnightblue" d="M659.623,-47.54C654.513,-38.0247 648.429,-26.6953 644.404,-19.2014"/>
<polygon fill="midnightblue" stroke="midnightblue" points="656.654,-49.4085 664.469,-56.5625 662.821,-46.0966 656.654,-49.4085"/>
</g>
<!-- Node6&#45;&gt;Node8 -->
<g id="edge8" class="edge"><title>Node6&#45;&gt;Node8</title>
<path fill="none" stroke="midnightblue" d="M707.828,-57.4579C759.933,-47.3368 852.094,-29.4351 905.519,-19.0574"/>
<polygon fill="midnightblue" stroke="midnightblue" points="707.113,-54.0312 697.964,-59.3739 708.448,-60.9028 707.113,-54.0312"/>
</g>
<!-- Node9&#45;&gt;Node5 -->
<g id="edge10" class="edge"><title>Node9&#45;&gt;Node5</title>
<path fill="none" stroke="midnightblue" d="M343.78,-104.299C359.274,-80.2936 387.245,-36.9589 398.794,-19.0649"/>
<polygon fill="midnightblue" stroke="midnightblue" points="340.819,-102.432 338.337,-112.732 346.7,-106.228 340.819,-102.432"/>
</g>
<!-- Node10&#45;&gt;Node5 -->
<g id="edge12" class="edge"><title>Node10&#45;&gt;Node5</title>
<path fill="none" stroke="midnightblue" d="M276.414,-106.473C307.778,-83.0025 368.569,-37.5131 393.222,-19.0649"/>
<polygon fill="midnightblue" stroke="midnightblue" points="273.958,-103.939 268.049,-112.732 278.152,-109.543 273.958,-103.939"/>
</g>
<!-- Node11&#45;&gt;Node5 -->
<g id="edge15" class="edge"><title>Node11&#45;&gt;Node5</title>
<path fill="none" stroke="midnightblue" d="M201.138,-108.445C248.573,-85.6594 347.575,-38.1038 387.136,-19.1004"/>
<polygon fill="midnightblue" stroke="midnightblue" points="199.337,-105.427 191.839,-112.911 202.368,-111.736 199.337,-105.427"/>
</g>
<!-- Node12&#45;&gt;Node5 -->
<g id="edge17" class="edge"><title>Node12&#45;&gt;Node5</title>
<path fill="none" stroke="midnightblue" d="M746.631,-58.809C669.256,-48.0125 511.119,-25.9468 440.027,-16.027"/>
<polygon fill="midnightblue" stroke="midnightblue" points="746.608,-62.3396 756.996,-60.2552 747.575,-55.4067 746.608,-62.3396"/>
</g>
<!-- Node12&#45;&gt;Node7 -->
<g id="edge18" class="edge"><title>Node12&#45;&gt;Node7</title>
<path fill="none" stroke="midnightblue" d="M758.761,-53.4709C729.893,-43.1473 688.29,-28.2693 662.761,-19.1396"/>
<polygon fill="midnightblue" stroke="midnightblue" points="757.799,-56.8439 768.394,-56.9157 760.156,-50.2527 757.799,-56.8439"/>
</g>
<!-- Node12&#45;&gt;Node8 -->
<g id="edge19" class="edge"><title>Node12&#45;&gt;Node8</title>
<path fill="none" stroke="midnightblue" d="M823.946,-53.5958C853.879,-43.2343 897.283,-28.2098 923.741,-19.0513"/>
<polygon fill="midnightblue" stroke="midnightblue" points="822.66,-50.337 814.355,-56.9157 824.95,-56.9519 822.66,-50.337"/>
</g>
<!-- Node13&#45;&gt;Node5 -->
<g id="edge21" class="edge"><title>Node13&#45;&gt;Node5</title>
<path fill="none" stroke="midnightblue" d="M460.633,-103.979C445.973,-79.9106 419.763,-36.8797 408.912,-19.0649"/>
<polygon fill="midnightblue" stroke="midnightblue" points="457.773,-106.012 465.964,-112.732 463.751,-102.371 457.773,-106.012"/>
</g>
<!-- Node13&#45;&gt;Node7 -->
<g id="edge22" class="edge"><title>Node13&#45;&gt;Node7</title>
<path fill="none" stroke="midnightblue" d="M492.079,-107.28C527.729,-84.0756 598.847,-37.7858 627.555,-19.1004"/>
<polygon fill="midnightblue" stroke="midnightblue" points="489.899,-104.523 483.427,-112.911 493.717,-110.39 489.899,-104.523"/>
</g>
<!-- Node14&#45;&gt;Node5 -->
<g id="edge24" class="edge"><title>Node14&#45;&gt;Node5</title>
<path fill="none" stroke="midnightblue" d="M404,-102.678C404,-78.3886 404,-36.563 404,-19.0649"/>
<polygon fill="midnightblue" stroke="midnightblue" points="400.5,-102.732 404,-112.732 407.5,-102.732 400.5,-102.732"/>
</g>
<!-- Node15&#45;&gt;Node5 -->
<g id="edge26" class="edge"><title>Node15&#45;&gt;Node5</title>
<path fill="none" stroke="midnightblue" d="M109.661,-109.488C147.108,-96.3403 210.369,-74.2852 265,-56 304.568,-42.7563 350.679,-27.9521 378.586,-19.0612"/>
<polygon fill="midnightblue" stroke="midnightblue" points="108.086,-106.332 99.8127,-112.949 110.408,-112.936 108.086,-106.332"/>
</g>
<!-- Node16&#45;&gt;Node5 -->
<g id="edge28" class="edge"><title>Node16&#45;&gt;Node5</title>
<path fill="none" stroke="midnightblue" d="M568.177,-107.575C528.899,-84.47 449.671,-37.8653 417.771,-19.1004"/>
<polygon fill="midnightblue" stroke="midnightblue" points="566.856,-110.858 577.249,-112.911 570.405,-104.824 566.856,-110.858"/>
</g>
<!-- Node16&#45;&gt;Node7 -->
<g id="edge29" class="edge"><title>Node16&#45;&gt;Node7</title>
<path fill="none" stroke="midnightblue" d="M598.87,-103.333C609.643,-79.1476 628.542,-36.7213 636.407,-19.0649"/>
<polygon fill="midnightblue" stroke="midnightblue" points="595.555,-102.173 594.683,-112.732 601.949,-105.022 595.555,-102.173"/>
</g>
<!-- Node17&#45;&gt;Node3 -->
<g id="edge31" class="edge"><title>Node17&#45;&gt;Node3</title>
<path fill="none" stroke="midnightblue" d="M525.965,-218.976C510.769,-208.846 490.776,-195.517 478.153,-187.102"/>
<polygon fill="midnightblue" stroke="midnightblue" points="524.436,-222.164 534.698,-224.799 528.319,-216.339 524.436,-222.164"/>
</g>
<!-- Node17&#45;&gt;Node4 -->
<g id="edge32" class="edge"><title>Node17&#45;&gt;Node4</title>
<path fill="none" stroke="midnightblue" d="M597.19,-229.087C624.999,-224.052 657.415,-212.822 675,-188 687.185,-170.8 678.496,-144.281 672.834,-131.064"/>
<polygon fill="midnightblue" stroke="midnightblue" points="596.516,-225.65 587.189,-230.675 597.614,-232.563 596.516,-225.65"/>
</g>
<!-- Node17&#45;&gt;Node6 -->
<g id="edge48" class="edge"><title>Node17&#45;&gt;Node6</title>
<path fill="none" stroke="midnightblue" d="M597.393,-228.341C628.319,-223.075 666.868,-211.862 693,-188 719.06,-164.203 729.859,-144.456 716,-112 709.168,-96.0006 693.548,-82.966 682.185,-75.119"/>
<polygon fill="midnightblue" stroke="midnightblue" points="596.576,-224.926 587.226,-229.909 597.643,-231.844 596.576,-224.926"/>
</g>
<!-- Node17&#45;&gt;Node8 -->
<g id="edge58" class="edge"><title>Node17&#45;&gt;Node8</title>
<path fill="none" stroke="midnightblue" d="M597.239,-227.862C637.938,-222.212 695.888,-210.724 742,-188 833.104,-143.105 916.412,-47.9616 940.222,-19.3253"/>
<polygon fill="midnightblue" stroke="midnightblue" points="596.737,-224.398 587.281,-229.176 597.653,-231.338 596.737,-224.398"/>
</g>
<!-- Node17&#45;&gt;Node9 -->
<g id="edge46" class="edge"><title>Node17&#45;&gt;Node9</title>
<path fill="none" stroke="midnightblue" d="M498.582,-222.43C470.922,-215.167 436.235,-203.927 408,-188 380.086,-172.254 353.143,-145.076 340.495,-131.39"/>
<polygon fill="midnightblue" stroke="midnightblue" points="497.876,-225.862 508.43,-224.928 499.597,-219.077 497.876,-225.862"/>
</g>
<!-- Node17&#45;&gt;Node10 -->
<g id="edge47" class="edge"><title>Node17&#45;&gt;Node10</title>
<path fill="none" stroke="midnightblue" d="M496.694,-222.835C462.56,-215.161 416.766,-203.331 378,-188 336.533,-171.601 291.083,-144.477 269.595,-131.047"/>
<polygon fill="midnightblue" stroke="midnightblue" points="496.373,-226.349 506.892,-225.083 497.88,-219.513 496.373,-226.349"/>
</g>
<!-- Node17&#45;&gt;Node11 -->
<g id="edge49" class="edge"><title>Node17&#45;&gt;Node11</title>
<path fill="none" stroke="midnightblue" d="M496.899,-225.139C453.106,-217.637 388.088,-204.967 333,-188 279.991,-171.674 220.118,-144.516 191.694,-131.062"/>
<polygon fill="midnightblue" stroke="midnightblue" points="496.563,-228.631 507.006,-226.843 497.727,-221.729 496.563,-228.631"/>
</g>
<!-- Node17&#45;&gt;Node12 -->
<g id="edge50" class="edge"><title>Node17&#45;&gt;Node12</title>
<path fill="none" stroke="midnightblue" d="M597.441,-229.585C633.743,-224.912 682.239,-213.899 717,-188 757.874,-157.546 781.03,-97.2291 788.397,-75.2548"/>
<polygon fill="midnightblue" stroke="midnightblue" points="596.6,-226.159 587.071,-230.791 597.409,-233.112 596.6,-226.159"/>
</g>
<!-- Node17&#45;&gt;Node13 -->
<g id="edge51" class="edge"><title>Node17&#45;&gt;Node13</title>
<path fill="none" stroke="midnightblue" d="M537.57,-215.74C530.054,-202.384 519.001,-183.597 508,-168 498.44,-154.445 485.944,-139.789 478.197,-131.006"/>
<polygon fill="midnightblue" stroke="midnightblue" points="534.657,-217.705 542.568,-224.753 540.779,-214.31 534.657,-217.705"/>
</g>
<!-- Node17&#45;&gt;Node14 -->
<g id="edge52" class="edge"><title>Node17&#45;&gt;Node14</title>
<path fill="none" stroke="midnightblue" d="M497.07,-225.839C471.725,-219.761 442.297,-208.568 423,-188 408.038,-172.052 404.787,-144.965 404.129,-131.345"/>
<polygon fill="midnightblue" stroke="midnightblue" points="496.396,-229.275 506.914,-227.999 497.896,-222.437 496.396,-229.275"/>
</g>
<!-- Node17&#45;&gt;Node15 -->
<g id="edge53" class="edge"><title>Node17&#45;&gt;Node15</title>
<path fill="none" stroke="midnightblue" d="M496.527,-226.941C441.752,-219.828 351.942,-206.595 276,-188 209.985,-171.836 134.231,-144.604 98.1899,-131.098"/>
<polygon fill="midnightblue" stroke="midnightblue" points="496.304,-230.441 506.668,-228.24 497.193,-223.497 496.304,-230.441"/>
</g>
<!-- Node17&#45;&gt;Node16 -->
<g id="edge54" class="edge"><title>Node17&#45;&gt;Node16</title>
<path fill="none" stroke="midnightblue" d="M554.067,-215.333C563.741,-191.148 580.711,-148.721 587.774,-131.065"/>
<polygon fill="midnightblue" stroke="midnightblue" points="550.771,-214.147 550.307,-224.732 557.271,-216.747 550.771,-214.147"/>
</g>
<!-- Node17&#45;&gt;Node18 -->
<g id="edge33" class="edge"><title>Node17&#45;&gt;Node18</title>
<path fill="none" stroke="midnightblue" d="M568.115,-219.262C583.739,-209.098 604.491,-195.596 617.547,-187.102"/>
<polygon fill="midnightblue" stroke="midnightblue" points="566.079,-216.411 559.606,-224.799 569.897,-222.279 566.079,-216.411"/>
</g>
<!-- Node20 -->
<g id="node20" class="node"><title>Node20</title>
<g id="a_node20"><a xlink:href="Label_8h.html" target="_top" xlink:title="Declaration of RMF::Label. ">
<polygon fill="none" stroke="black" points="-0.403809,-169 -0.403809,-187 48.4038,-187 48.4038,-169 -0.403809,-169"/>
<text text-anchor="middle" x="24" y="-175" font-family="Helvetica,sans-Serif" font-size="10.00">Label.h</text>
</a>
</g>
</g>
<!-- Node17&#45;&gt;Node20 -->
<g id="edge55" class="edge"><title>Node17&#45;&gt;Node20</title>
<path fill="none" stroke="midnightblue" d="M496.682,-227.805C386.942,-216.474 129.461,-189.889 48.6889,-181.549"/>
<polygon fill="midnightblue" stroke="midnightblue" points="496.523,-231.307 506.829,-228.852 497.242,-224.344 496.523,-231.307"/>
</g>
<!-- Node18&#45;&gt;Node4 -->
<g id="edge34" class="edge"><title>Node18&#45;&gt;Node4</title>
<path fill="none" stroke="midnightblue" d="M641.963,-160.436C648.963,-150.744 657.494,-138.932 663.077,-131.201"/>
<polygon fill="midnightblue" stroke="midnightblue" points="639.111,-158.406 636.094,-168.562 644.786,-162.505 639.111,-158.406"/>
</g>
<!-- Node18&#45;&gt;Node6 -->
<g id="edge37" class="edge"><title>Node18&#45;&gt;Node6</title>
<path fill="none" stroke="midnightblue" d="M662.525,-164.633C676.717,-157.417 691.936,-146.771 700,-132 710.904,-112.028 690.635,-87.6007 678.007,-75.1474"/>
<polygon fill="midnightblue" stroke="midnightblue" points="661.006,-161.48 653.432,-168.889 663.973,-167.82 661.006,-161.48"/>
</g>
<!-- Node18&#45;&gt;Node8 -->
<g id="edge45" class="edge"><title>Node18&#45;&gt;Node8</title>
<path fill="none" stroke="midnightblue" d="M663.284,-165.477C686.351,-157.103 717.55,-144.997 744,-132 819.488,-94.9059 904.251,-39.629 935.028,-19.0768"/>
<polygon fill="midnightblue" stroke="midnightblue" points="661.853,-162.272 653.62,-168.94 664.214,-168.862 661.853,-162.272"/>
</g>
<!-- Node18&#45;&gt;Node9 -->
<g id="edge35" class="edge"><title>Node18&#45;&gt;Node9</title>
<path fill="none" stroke="midnightblue" d="M583.69,-169.698C531.942,-161.358 445.739,-146.928 372,-132 369.14,-131.421 366.168,-130.79 363.199,-130.139"/>
<polygon fill="midnightblue" stroke="midnightblue" points="583.138,-173.154 593.566,-171.283 584.247,-166.242 583.138,-173.154"/>
</g>
<!-- Node18&#45;&gt;Node10 -->
<g id="edge36" class="edge"><title>Node18&#45;&gt;Node10</title>
<path fill="none" stroke="midnightblue" d="M583.158,-172.305C517.999,-165.416 396.458,-151.267 294,-132 291.011,-131.438 287.902,-130.787 284.812,-130.098"/>
<polygon fill="midnightblue" stroke="midnightblue" points="583.193,-175.828 593.503,-173.388 583.921,-168.866 583.193,-175.828"/>
</g>
<!-- Node18&#45;&gt;Node11 -->
<g id="edge38" class="edge"><title>Node18&#45;&gt;Node11</title>
<path fill="none" stroke="midnightblue" d="M583.446,-173.235C507.215,-166.77 351.122,-152.268 220,-132 217.165,-131.562 214.238,-131.069 211.3,-130.545"/>
<polygon fill="midnightblue" stroke="midnightblue" points="583.403,-176.744 593.661,-174.094 583.989,-169.769 583.403,-176.744"/>
</g>
<!-- Node18&#45;&gt;Node12 -->
<g id="edge39" class="edge"><title>Node18&#45;&gt;Node12</title>
<path fill="none" stroke="midnightblue" d="M658.016,-164.384C675.301,-156.111 697.607,-144.532 716,-132 742.201,-114.149 769.483,-88.3796 782.757,-75.2965"/>
<polygon fill="midnightblue" stroke="midnightblue" points="656.052,-161.439 648.486,-168.856 659.026,-167.777 656.052,-161.439"/>
</g>
<!-- Node18&#45;&gt;Node13 -->
<g id="edge40" class="edge"><title>Node18&#45;&gt;Node13</title>
<path fill="none" stroke="midnightblue" d="M596.421,-165.596C565.912,-155.234 521.673,-140.21 494.707,-131.051"/>
<polygon fill="midnightblue" stroke="midnightblue" points="595.602,-169.014 606.196,-168.916 597.853,-162.386 595.602,-169.014"/>
</g>
<!-- Node18&#45;&gt;Node14 -->
<g id="edge41" class="edge"><title>Node18&#45;&gt;Node14</title>
<path fill="none" stroke="midnightblue" d="M583.921,-166.941C544.521,-158.191 486.373,-144.919 436,-132 433.205,-131.283 430.281,-130.503 427.385,-129.712"/>
<polygon fill="midnightblue" stroke="midnightblue" points="583.246,-170.377 593.766,-169.121 584.759,-163.542 583.246,-170.377"/>
</g>
<!-- Node18&#45;&gt;Node15 -->
<g id="edge42" class="edge"><title>Node18&#45;&gt;Node15</title>
<path fill="none" stroke="midnightblue" d="M583.567,-173.291C476.948,-164.697 217.097,-143.297 130,-132 127.131,-131.628 124.179,-131.214 121.207,-130.774"/>
<polygon fill="midnightblue" stroke="midnightblue" points="583.448,-176.792 593.696,-174.106 584.009,-169.815 583.448,-176.792"/>
</g>
<!-- Node18&#45;&gt;Node16 -->
<g id="edge43" class="edge"><title>Node18&#45;&gt;Node16</title>
<path fill="none" stroke="midnightblue" d="M618.037,-160.436C611.037,-150.744 602.506,-138.932 596.923,-131.201"/>
<polygon fill="midnightblue" stroke="midnightblue" points="615.214,-162.505 623.906,-168.562 620.889,-158.406 615.214,-162.505"/>
</g>
<!-- Node18&#45;&gt;Node19 -->
<g id="edge44" class="edge"><title>Node18&#45;&gt;Node19</title>
<path fill="none" stroke="midnightblue" d="M676.122,-170.955C761.443,-159.772 941.67,-136.15 1012.51,-126.865"/>
<polygon fill="midnightblue" stroke="midnightblue" points="675.661,-167.485 666.201,-172.255 676.571,-174.426 675.661,-167.485"/>
</g>
<!-- Node21 -->
<g id="node21" class="node"><title>Node21</title>
<g id="a_node21"><a xlink:href="labels_8h.html" target="_top" xlink:title="Helper functions for manipulating RMF files. ">
<polygon fill="none" stroke="black" points="13.7661,-57 13.7661,-75 64.2339,-75 64.2339,-57 13.7661,-57"/>
<text text-anchor="middle" x="39" y="-63" font-family="Helvetica,sans-Serif" font-size="10.00">labels.h</text>
</a>
</g>
</g>
<!-- Node20&#45;&gt;Node21 -->
<g id="edge56" class="edge"><title>Node20&#45;&gt;Node21</title>
<path fill="none" stroke="midnightblue" d="M22.4533,-158.877C21.7093,-145.769 21.4555,-127.68 24,-112 26.1634,-98.6688 31.7109,-83.9502 35.4188,-75.0929"/>
<polygon fill="midnightblue" stroke="midnightblue" points="18.9677,-159.205 23.1753,-168.928 25.9497,-158.703 18.9677,-159.205"/>
</g>
<!-- Node21&#45;&gt;Node5 -->
<g id="edge57" class="edge"><title>Node21&#45;&gt;Node5</title>
<path fill="none" stroke="midnightblue" d="M74.4078,-59.7616C144.025,-49.462 298.027,-26.6782 368.067,-16.3162"/>
<polygon fill="midnightblue" stroke="midnightblue" points="73.7564,-56.3198 64.3763,-61.2457 74.7809,-63.2444 73.7564,-56.3198"/>
</g>
<!-- Node22&#45;&gt;Node8 -->
<g id="edge66" class="edge"><title>Node22&#45;&gt;Node8</title>
<path fill="none" stroke="midnightblue" d="M1189.28,-216.239C1197.97,-203.181 1206.72,-184.551 1201,-168 1180.31,-108.172 1165.79,-90.945 1113,-56 1079.01,-33.5009 1034.08,-22.2013 999.528,-16.5545"/>
<polygon fill="midnightblue" stroke="midnightblue" points="1186.22,-214.503 1183.18,-224.653 1191.89,-218.613 1186.22,-214.503"/>
</g>
<!-- Node22&#45;&gt;Node18 -->
<g id="edge60" class="edge"><title>Node22&#45;&gt;Node18</title>
<path fill="none" stroke="midnightblue" d="M1116.34,-227.099C1002.78,-215.868 758.664,-191.725 666.358,-182.596"/>
<polygon fill="midnightblue" stroke="midnightblue" points="1116.29,-230.611 1126.58,-228.113 1116.98,-223.645 1116.29,-230.611"/>
</g>
<!-- Node22&#45;&gt;Node19 -->
<g id="edge65" class="edge"><title>Node22&#45;&gt;Node19</title>
<path fill="none" stroke="midnightblue" d="M1157.2,-218.771C1145.76,-210.027 1130.91,-198.521 1118,-188 1093.5,-168.04 1065.42,-143.608 1051.24,-131.15"/>
<polygon fill="midnightblue" stroke="midnightblue" points="1155.11,-221.585 1165.19,-224.857 1159.35,-216.015 1155.11,-221.585"/>
</g>
<!-- Node23 -->
<g id="node23" class="node"><title>Node23</title>
<g id="a_node23"><a xlink:href="info_8h.html" target="_top" xlink:title="Show info about the file. ">
<polygon fill="none" stroke="black" points="1248.77,-169 1248.77,-187 1289.23,-187 1289.23,-169 1248.77,-169"/>
<text text-anchor="middle" x="1269" y="-175" font-family="Helvetica,sans-Serif" font-size="10.00">info.h</text>
</a>
</g>
</g>
<!-- Node22&#45;&gt;Node23 -->
<g id="edge61" class="edge"><title>Node22&#45;&gt;Node23</title>
<path fill="none" stroke="midnightblue" d="M1199.17,-219.546C1216.73,-209.35 1240.28,-195.676 1255.05,-187.102"/>
<polygon fill="midnightblue" stroke="midnightblue" points="1197.02,-216.75 1190.12,-224.799 1200.53,-222.804 1197.02,-216.75"/>
</g>
<!-- Node24 -->
<g id="node24" class="node"><title>Node24</title>
<g id="a_node24"><a xlink:href="RestoreCurrentFrame_8h.html" target="_top" xlink:title="Restore the current frame when exiting a scope. ">
<polygon fill="none" stroke="black" points="1307.2,-169 1307.2,-187 1428.8,-187 1428.8,-169 1307.2,-169"/>
<text text-anchor="middle" x="1368" y="-175" font-family="Helvetica,sans-Serif" font-size="10.00">RestoreCurrentFrame.h</text>
</a>
</g>
</g>
<!-- Node22&#45;&gt;Node24 -->
<g id="edge62" class="edge"><title>Node22&#45;&gt;Node24</title>
<path fill="none" stroke="midnightblue" d="M1214.64,-222.132C1251.52,-211.759 1306.24,-196.369 1339.37,-187.051"/>
<polygon fill="midnightblue" stroke="midnightblue" points="1213.42,-218.839 1204.74,-224.916 1215.32,-225.577 1213.42,-218.839"/>
</g>
<!-- Node25 -->
<g id="node25" class="node"><title>Node25</title>
<g id="a_node25"><a xlink:href="SetCurrentFrame_8h.html" target="_top" xlink:title="Temporarily change the current frame. ">
<polygon fill="none" stroke="black" points="1447.21,-169 1447.21,-187 1548.79,-187 1548.79,-169 1447.21,-169"/>
<text text-anchor="middle" x="1498" y="-175" font-family="Helvetica,sans-Serif" font-size="10.00">SetCurrentFrame.h</text>
</a>
</g>
</g>
<!-- Node22&#45;&gt;Node25 -->
<g id="edge63" class="edge"><title>Node22&#45;&gt;Node25</title>
<path fill="none" stroke="midnightblue" d="M1233.84,-223.3C1295.64,-212.936 1392.47,-196.697 1450.14,-187.026"/>
<polygon fill="midnightblue" stroke="midnightblue" points="1233.14,-219.868 1223.86,-224.974 1234.3,-226.772 1233.14,-219.868"/>
</g>
<!-- Node26 -->
<g id="node26" class="node"><title>Node26</title>
<g id="a_node26"><a xlink:href="signature_8h.html" target="_top" xlink:title="Return a (long) string describing a file that can be compared. ">
<polygon fill="none" stroke="black" points="1127.26,-169 1127.26,-187 1192.74,-187 1192.74,-169 1127.26,-169"/>
<text text-anchor="middle" x="1160" y="-175" font-family="Helvetica,sans-Serif" font-size="10.00">signature.h</text>
</a>
</g>
</g>
<!-- Node22&#45;&gt;Node26 -->
<g id="edge64" class="edge"><title>Node22&#45;&gt;Node26</title>
<path fill="none" stroke="midnightblue" d="M1170.65,-214.937C1167.87,-205.549 1164.6,-194.538 1162.43,-187.201"/>
<polygon fill="midnightblue" stroke="midnightblue" points="1167.3,-215.969 1173.5,-224.562 1174.01,-213.98 1167.3,-215.969"/>
</g>
</g>
</svg>
