<?xml version="1.0" encoding="UTF-8" standalone="no"?>
<!DOCTYPE svg PUBLIC "-//W3C//DTD SVG 1.1//EN"
 "http://www.w3.org/Graphics/SVG/1.1/DTD/svg11.dtd">
<!-- Generated by graphviz version 2.34.0 (20131025.1349)
 -->
<!-- Title: enums.h Pages: 1 -->
<!--zoomable 378 -->
<svg id="main" version="1.1" xmlns="http://www.w3.org/2000/svg" xmlns:xlink="http://www.w3.org/1999/xlink" xml:space="preserve" onload="init(evt)">
<style type="text/css"><![CDATA[
.edge:hover path { stroke: red; }
.edge:hover polygon { stroke: red; fill: red; }
]]></style>
<script type="text/javascript"><![CDATA[
var edges = document.getElementsByTagName('g');
if (edges && edges.length) {
  for (var i=0;i<edges.length;i++) {
    if (edges[i].id.substr(0,4)=='edge') {
      edges[i].setAttribute('class','edge');
    }
  }
}
]]></script>
        <defs>
                <circle id="rim" cx="0" cy="0" r="7"/>
                <circle id="rim2" cx="0" cy="0" r="3.5"/>
                <g id="zoomPlus">
                        <use xlink:href="#rim" fill="#404040">
                                <set attributeName="fill" to="#808080" begin="zoomplus.mouseover" end="zoomplus.mouseout"/>
                        </use>
                        <path d="M-4,0h8M0,-4v8" fill="none" stroke="white" stroke-width="1.5" pointer-events="none"/>
                </g>
                <g id="zoomMin">
                        <use xlink:href="#rim" fill="#404040">
                                <set attributeName="fill" to="#808080" begin="zoomminus.mouseover" end="zoomminus.mouseout"/>
                        </use>
                        <path d="M-4,0h8" fill="none" stroke="white" stroke-width="1.5" pointer-events="none"/>
                </g>
                <g id="dirArrow">
                        <path fill="none" stroke="white" stroke-width="1.5" d="M0,-3.0v7 M-2.5,-0.5L0,-3.0L2.5,-0.5"/>
                </g>
               <g id="resetDef">
                       <use xlink:href="#rim2" fill="#404040">
                               <set attributeName="fill" to="#808080" begin="reset.mouseover" end="reset.mouseout"/>
                       </use>
               </g>
        </defs>

<script type="text/javascript">
var viewWidth = 1485;
var viewHeight = 378;
var sectionId = 'dynsection-1';
</script>
<script xlink:href="svgpan.js"/>
<svg id="graph" class="graph">
<g id="viewport">
<title>enums.h</title>
<!-- Node1 -->
<g id="node1" class="node"><title>Node1</title>
<polygon fill="#bfbfbf" stroke="black" points="855.823,-349 855.823,-369 910.177,-369 910.177,-349 855.823,-349"/>
<text text-anchor="middle" x="883" y="-355" font-family="Helvetica,sans-Serif" font-size="10.00">enums.h</text>
</g>
<!-- Node2 -->
<g id="node2" class="node"><title>Node2</title>
<g id="a_node2"><a xlink:href="NodeConstHandle_8h.html" target="_top" xlink:title="Handle read/write of Model data from/to files. ">
<polygon fill="none" stroke="black" points="829.971,-291 829.971,-311 936.029,-311 936.029,-291 829.971,-291"/>
<text text-anchor="middle" x="883" y="-297" font-family="Helvetica,sans-Serif" font-size="10.00">NodeConstHandle.h</text>
</a>
</g>
</g>
<!-- Node1&#45;&gt;Node2 -->
<g id="edge1" class="edge"><title>Node1&#45;&gt;Node2</title>
<path fill="none" stroke="midnightblue" d="M883,-338.707C883,-329.338 883,-318.526 883,-311.075"/>
<polygon fill="midnightblue" stroke="midnightblue" points="879.5,-338.753 883,-348.753 886.5,-338.753 879.5,-338.753"/>
</g>
<!-- Node7 -->
<g id="node7" class="node"><title>Node7</title>
<g id="a_node7"><a xlink:href="benchmark__rmf_8cpp_source.html" target="_top" xlink:title="benchmark_rmf.cpp">
<polygon fill="none" stroke="black" points="832.815,-1 832.815,-21 937.185,-21 937.185,-1 832.815,-1"/>
<text text-anchor="middle" x="885" y="-7" font-family="Helvetica,sans-Serif" font-size="10.00">benchmark_rmf.cpp</text>
</a>
</g>
</g>
<!-- Node1&#45;&gt;Node7 -->
<g id="edge66" class="edge"><title>Node1&#45;&gt;Node7</title>
<path fill="none" stroke="midnightblue" d="M920.772,-354.78C1051.54,-343.135 1477,-300.877 1477,-244 1477,-244 1477,-244 1477,-126 1477,-71.2793 1081.95,-29.8866 937.276,-16.5628"/>
<polygon fill="midnightblue" stroke="midnightblue" points="920.113,-351.325 910.459,-355.69 920.727,-358.298 920.113,-351.325"/>
</g>
<!-- Node16 -->
<g id="node16" class="node"><title>Node16</title>
<g id="a_node16"><a xlink:href="NodeHandle_8h.html" target="_top" xlink:title="Handle read/write of Model data from/to files. ">
<polygon fill="none" stroke="black" points="480.032,-233 480.032,-253 559.968,-253 559.968,-233 480.032,-233"/>
<text text-anchor="middle" x="520" y="-239" font-family="Helvetica,sans-Serif" font-size="10.00">NodeHandle.h</text>
</a>
</g>
</g>
<!-- Node1&#45;&gt;Node16 -->
<g id="edge63" class="edge"><title>Node1&#45;&gt;Node16</title>
<path fill="none" stroke="midnightblue" d="M845.36,-350.48C806.724,-342.39 745.063,-328.449 693,-312 636.687,-294.208 572.481,-267.105 540.442,-253.094"/>
<polygon fill="midnightblue" stroke="midnightblue" points="845.118,-354.004 855.619,-352.603 846.536,-347.149 845.118,-354.004"/>
</g>
<!-- Node17 -->
<g id="node17" class="node"><title>Node17</title>
<g id="a_node17"><a xlink:href="FileHandle_8h.html" target="_top" xlink:title="Handle read/write of Model data from/to files. ">
<polygon fill="none" stroke="black" points="547.929,-175 547.929,-195 620.071,-195 620.071,-175 547.929,-175"/>
<text text-anchor="middle" x="584" y="-181" font-family="Helvetica,sans-Serif" font-size="10.00">FileHandle.h</text>
</a>
</g>
</g>
<!-- Node1&#45;&gt;Node17 -->
<g id="edge65" class="edge"><title>Node1&#45;&gt;Node17</title>
<path fill="none" stroke="midnightblue" d="M858.651,-343.993C799.421,-309.921 649.074,-223.434 599.86,-195.124"/>
<polygon fill="midnightblue" stroke="midnightblue" points="856.932,-347.042 867.345,-348.995 860.423,-340.974 856.932,-347.042"/>
</g>
<!-- Node19 -->
<g id="node19" class="node"><title>Node19</title>
<g id="a_node19"><a xlink:href="FileConstHandle_8h.html" target="_top" xlink:title="Handle read/write of Model data from/to files. ">
<polygon fill="none" stroke="black" points="988.867,-233 988.867,-253 1087.13,-253 1087.13,-233 988.867,-233"/>
<text text-anchor="middle" x="1038" y="-239" font-family="Helvetica,sans-Serif" font-size="10.00">FileConstHandle.h</text>
</a>
</g>
</g>
<!-- Node1&#45;&gt;Node19 -->
<g id="edge64" class="edge"><title>Node1&#45;&gt;Node19</title>
<path fill="none" stroke="midnightblue" d="M903.802,-342.7C936.502,-318.65 998.937,-272.73 1025.52,-253.18"/>
<polygon fill="midnightblue" stroke="midnightblue" points="901.404,-340.119 895.422,-348.864 905.552,-345.758 901.404,-340.119"/>
</g>
<!-- Node3 -->
<g id="node3" class="node"><title>Node3</title>
<g id="a_node3"><a xlink:href="Decorator_8h.html" target="_top" xlink:title="Helper functions for manipulating RMF files. ">
<polygon fill="none" stroke="black" points="348.15,-175 348.15,-195 415.85,-195 415.85,-175 348.15,-175"/>
<text text-anchor="middle" x="382" y="-181" font-family="Helvetica,sans-Serif" font-size="10.00">Decorator.h</text>
</a>
</g>
</g>
<!-- Node2&#45;&gt;Node3 -->
<g id="edge2" class="edge"><title>Node2&#45;&gt;Node3</title>
<path fill="none" stroke="midnightblue" d="M819.689,-297.068C720.336,-291.776 532.765,-278.8 471,-254 437.436,-240.524 405.662,-210.733 390.795,-195.449"/>
<polygon fill="midnightblue" stroke="midnightblue" points="819.727,-300.575 829.896,-297.601 820.093,-293.584 819.727,-300.575"/>
</g>
<!-- Node2&#45;&gt;Node7 -->
<g id="edge62" class="edge"><title>Node2&#45;&gt;Node7</title>
<path fill="none" stroke="midnightblue" d="M880.443,-280.79C879.469,-272.557 878.478,-262.824 878,-254 877.471,-244.237 877.711,-241.774 878,-232 880.29,-154.597 888.682,-135.418 887,-58 886.722,-45.2132 886.01,-30.4411 885.516,-21.1602"/>
<polygon fill="midnightblue" stroke="midnightblue" points="876.989,-281.376 881.711,-290.86 883.934,-280.501 876.989,-281.376"/>
</g>
<!-- Node2&#45;&gt;Node16 -->
<g id="edge26" class="edge"><title>Node2&#45;&gt;Node16</title>
<path fill="none" stroke="midnightblue" d="M819.607,-290.22C744.869,-278.69 622.906,-259.875 560.13,-250.191"/>
<polygon fill="midnightblue" stroke="midnightblue" points="819.411,-293.731 829.828,-291.797 820.479,-286.813 819.411,-293.731"/>
</g>
<!-- Node18 -->
<g id="node18" class="node"><title>Node18</title>
<g id="a_node18"><a xlink:href="validate_8h.html" target="_top" xlink:title="Handle read/write of Model data from/to files. ">
<polygon fill="none" stroke="black" points="950.596,-117 950.596,-137 1009.4,-137 1009.4,-117 950.596,-117"/>
<text text-anchor="middle" x="980" y="-123" font-family="Helvetica,sans-Serif" font-size="10.00">validate.h</text>
</a>
</g>
</g>
<!-- Node2&#45;&gt;Node18 -->
<g id="edge61" class="edge"><title>Node2&#45;&gt;Node18</title>
<path fill="none" stroke="midnightblue" d="M908.179,-285.479C919.96,-277.538 933.283,-266.722 942,-254 968.218,-215.739 976.75,-158.929 979.159,-137.046"/>
<polygon fill="midnightblue" stroke="midnightblue" points="906.116,-282.644 899.572,-290.976 909.884,-288.543 906.116,-282.644"/>
</g>
<!-- Node2&#45;&gt;Node19 -->
<g id="edge52" class="edge"><title>Node2&#45;&gt;Node19</title>
<path fill="none" stroke="midnightblue" d="M917.959,-287.37C946.882,-276.92 987.26,-262.332 1013.02,-253.025"/>
<polygon fill="midnightblue" stroke="midnightblue" points="916.464,-284.188 908.248,-290.878 918.843,-290.772 916.464,-284.188"/>
</g>
<!-- Node24 -->
<g id="node24" class="node"><title>Node24</title>
<g id="a_node24"><a xlink:href="utility_8h.html" target="_top" xlink:title="Helper functions for manipulating RMF files. ">
<polygon fill="none" stroke="black" points="886.807,-233 886.807,-253 933.193,-253 933.193,-233 886.807,-233"/>
<text text-anchor="middle" x="910" y="-239" font-family="Helvetica,sans-Serif" font-size="10.00">utility.h</text>
</a>
</g>
</g>
<!-- Node2&#45;&gt;Node24 -->
<g id="edge60" class="edge"><title>Node2&#45;&gt;Node24</title>
<path fill="none" stroke="midnightblue" d="M891.863,-281.618C896.477,-272.047 901.915,-260.769 905.624,-253.075"/>
<polygon fill="midnightblue" stroke="midnightblue" points="888.649,-280.225 887.459,-290.753 894.954,-283.265 888.649,-280.225"/>
</g>
<!-- Node4 -->
<g id="node4" class="node"><title>Node4</title>
<g id="a_node4"><a xlink:href="alias_8h.html" target="_top" xlink:title="Helper functions for manipulating RMF files. ">
<polygon fill="none" stroke="black" points="518.547,-117 518.547,-137 563.453,-137 563.453,-117 518.547,-117"/>
<text text-anchor="middle" x="541" y="-123" font-family="Helvetica,sans-Serif" font-size="10.00">alias.h</text>
</a>
</g>
</g>
<!-- Node3&#45;&gt;Node4 -->
<g id="edge3" class="edge"><title>Node3&#45;&gt;Node4</title>
<path fill="none" stroke="midnightblue" d="M417.43,-171.521C448.305,-160.647 492.145,-145.207 518.457,-135.94"/>
<polygon fill="midnightblue" stroke="midnightblue" points="416.169,-168.255 407.9,-174.878 418.495,-174.857 416.169,-168.255"/>
</g>
<!-- Node6 -->
<g id="node6" class="node"><title>Node6</title>
<g id="a_node6"><a xlink:href="physics_8h.html" target="_top" xlink:title="Helper functions for manipulating RMF files. ">
<polygon fill="none" stroke="black" points="630.158,-59 630.158,-79 687.842,-79 687.842,-59 630.158,-59"/>
<text text-anchor="middle" x="659" y="-65" font-family="Helvetica,sans-Serif" font-size="10.00">physics.h</text>
</a>
</g>
</g>
<!-- Node3&#45;&gt;Node6 -->
<g id="edge12" class="edge"><title>Node3&#45;&gt;Node6</title>
<path fill="none" stroke="midnightblue" d="M363.286,-167.911C348.515,-153.288 332.467,-131.667 346,-116 382.621,-73.6039 559.635,-69.5661 630.036,-69.675"/>
<polygon fill="midnightblue" stroke="midnightblue" points="361.03,-170.592 370.731,-174.851 365.803,-165.472 361.03,-170.592"/>
</g>
<!-- Node8 -->
<g id="node8" class="node"><title>Node8</title>
<g id="a_node8"><a xlink:href="external_8h.html" target="_top" xlink:title="Helper functions for manipulating RMF files. ">
<polygon fill="none" stroke="black" points="239.042,-117 239.042,-137 298.958,-137 298.958,-117 239.042,-117"/>
<text text-anchor="middle" x="269" y="-123" font-family="Helvetica,sans-Serif" font-size="10.00">external.h</text>
</a>
</g>
</g>
<!-- Node3&#45;&gt;Node8 -->
<g id="edge8" class="edge"><title>Node3&#45;&gt;Node8</title>
<path fill="none" stroke="midnightblue" d="M354.586,-170.414C333.735,-160.081 305.618,-146.147 287.399,-137.118"/>
<polygon fill="midnightblue" stroke="midnightblue" points="353.079,-173.574 363.593,-174.878 356.187,-167.302 353.079,-173.574"/>
</g>
<!-- Node9 -->
<g id="node9" class="node"><title>Node9</title>
<g id="a_node9"><a xlink:href="feature_8h.html" target="_top" xlink:title="Helper functions for manipulating RMF files. ">
<polygon fill="none" stroke="black" points="445.264,-117 445.264,-137 500.736,-137 500.736,-117 445.264,-117"/>
<text text-anchor="middle" x="473" y="-123" font-family="Helvetica,sans-Serif" font-size="10.00">feature.h</text>
</a>
</g>
</g>
<!-- Node3&#45;&gt;Node9 -->
<g id="edge10" class="edge"><title>Node3&#45;&gt;Node9</title>
<path fill="none" stroke="midnightblue" d="M405.663,-169.438C422.299,-159.201 444.039,-145.822 458.253,-137.075"/>
<polygon fill="midnightblue" stroke="midnightblue" points="403.709,-166.531 397.027,-174.753 407.378,-172.493 403.709,-166.531"/>
</g>
<!-- Node10 -->
<g id="node10" class="node"><title>Node10</title>
<g id="a_node10"><a xlink:href="publication_8h.html" target="_top" xlink:title="Helper functions for manipulating RMF files. ">
<polygon fill="none" stroke="black" points="354.924,-117 354.924,-137 427.076,-137 427.076,-117 354.924,-117"/>
<text text-anchor="middle" x="391" y="-123" font-family="Helvetica,sans-Serif" font-size="10.00">publication.h</text>
</a>
</g>
</g>
<!-- Node3&#45;&gt;Node10 -->
<g id="edge13" class="edge"><title>Node3&#45;&gt;Node10</title>
<path fill="none" stroke="midnightblue" d="M385.101,-164.707C386.606,-155.338 388.344,-144.526 389.541,-137.075"/>
<polygon fill="midnightblue" stroke="midnightblue" points="381.617,-164.324 383.486,-174.753 388.529,-165.435 381.617,-164.324"/>
</g>
<!-- Node11 -->
<g id="node11" class="node"><title>Node11</title>
<g id="a_node11"><a xlink:href="sequence_8h.html" target="_top" xlink:title="Helper functions for manipulating RMF files. ">
<polygon fill="none" stroke="black" points="713.146,-117 713.146,-137 780.854,-137 780.854,-117 713.146,-117"/>
<text text-anchor="middle" x="747" y="-123" font-family="Helvetica,sans-Serif" font-size="10.00">sequence.h</text>
</a>
</g>
</g>
<!-- Node3&#45;&gt;Node11 -->
<g id="edge15" class="edge"><title>Node3&#45;&gt;Node11</title>
<path fill="none" stroke="midnightblue" d="M425.902,-177.264C499.56,-165.963 646.478,-143.423 712.943,-133.225"/>
<polygon fill="midnightblue" stroke="midnightblue" points="425.364,-173.806 416.011,-178.782 426.426,-180.725 425.364,-173.806"/>
</g>
<!-- Node12 -->
<g id="node12" class="node"><title>Node12</title>
<g id="a_node12"><a xlink:href="shape_8h.html" target="_top" xlink:title="Helper functions for manipulating RMF files. ">
<polygon fill="none" stroke="black" points="-0.792969,-117 -0.792969,-137 50.793,-137 50.793,-117 -0.792969,-117"/>
<text text-anchor="middle" x="25" y="-123" font-family="Helvetica,sans-Serif" font-size="10.00">shape.h</text>
</a>
</g>
</g>
<!-- Node3&#45;&gt;Node12 -->
<g id="edge18" class="edge"><title>Node3&#45;&gt;Node12</title>
<path fill="none" stroke="midnightblue" d="M337.621,-179.598C275.209,-172.969 158.152,-158.93 60,-138 57.0333,-137.367 53.9487,-136.62 50.8946,-135.824"/>
<polygon fill="midnightblue" stroke="midnightblue" points="337.579,-183.113 347.89,-180.674 338.309,-176.151 337.579,-183.113"/>
</g>
<!-- Node13 -->
<g id="node13" class="node"><title>Node13</title>
<g id="a_node13"><a xlink:href="bond_8h.html" target="_top" xlink:title="Helper functions for manipulating RMF files. ">
<polygon fill="none" stroke="black" points="68.707,-117 68.707,-137 115.293,-137 115.293,-117 68.707,-117"/>
<text text-anchor="middle" x="92" y="-123" font-family="Helvetica,sans-Serif" font-size="10.00">bond.h</text>
</a>
</g>
</g>
<!-- Node3&#45;&gt;Node13 -->
<g id="edge20" class="edge"><title>Node3&#45;&gt;Node13</title>
<path fill="none" stroke="midnightblue" d="M337.758,-177.853C286.087,-170.273 198.221,-156.137 124,-138 121.173,-137.309 118.229,-136.507 115.323,-135.663"/>
<polygon fill="midnightblue" stroke="midnightblue" points="337.507,-181.353 347.906,-179.325 338.512,-174.426 337.507,-181.353"/>
</g>
<!-- Node14 -->
<g id="node14" class="node"><title>Node14</title>
<g id="a_node14"><a xlink:href="representation_8h.html" target="_top" xlink:title="Helper functions for manipulating RMF files. ">
<polygon fill="none" stroke="black" points="132.865,-117 132.865,-137 221.135,-137 221.135,-117 132.865,-117"/>
<text text-anchor="middle" x="177" y="-123" font-family="Helvetica,sans-Serif" font-size="10.00">representation.h</text>
</a>
</g>
</g>
<!-- Node3&#45;&gt;Node14 -->
<g id="edge22" class="edge"><title>Node3&#45;&gt;Node14</title>
<path fill="none" stroke="midnightblue" d="M338.74,-172.183C300.323,-161.688 245,-146.576 210.039,-137.025"/>
<polygon fill="midnightblue" stroke="midnightblue" points="338.038,-175.619 348.607,-174.878 339.883,-168.866 338.038,-175.619"/>
</g>
<!-- Node15 -->
<g id="node15" class="node"><title>Node15</title>
<g id="a_node15"><a xlink:href="alternatives_8h.html" target="_top" xlink:title="Helper functions for manipulating RMF files. ">
<polygon fill="none" stroke="black" points="581.261,-117 581.261,-137 656.739,-137 656.739,-117 581.261,-117"/>
<text text-anchor="middle" x="619" y="-123" font-family="Helvetica,sans-Serif" font-size="10.00">alternatives.h</text>
</a>
</g>
</g>
<!-- Node3&#45;&gt;Node15 -->
<g id="edge24" class="edge"><title>Node3&#45;&gt;Node15</title>
<path fill="none" stroke="midnightblue" d="M425.926,-173.621C470.54,-163.079 538.912,-146.924 581.189,-136.934"/>
<polygon fill="midnightblue" stroke="midnightblue" points="424.883,-170.271 415.956,-175.977 426.493,-177.083 424.883,-170.271"/>
</g>
<!-- Node5 -->
<g id="node5" class="node"><title>Node5</title>
<g id="a_node5"><a xlink:href="decorators_8h.html" target="_top" xlink:title="Import all the decorators headers. ">
<polygon fill="none" stroke="black" points="410.207,-1 410.207,-21 481.793,-21 481.793,-1 410.207,-1"/>
<text text-anchor="middle" x="446" y="-7" font-family="Helvetica,sans-Serif" font-size="10.00">decorators.h</text>
</a>
</g>
</g>
<!-- Node4&#45;&gt;Node5 -->
<g id="edge4" class="edge"><title>Node4&#45;&gt;Node5</title>
<path fill="none" stroke="midnightblue" d="M526.753,-108.904C506.342,-84.4104 469.493,-40.1911 453.616,-21.1394"/>
<polygon fill="midnightblue" stroke="midnightblue" points="524.135,-111.229 533.226,-116.671 529.513,-106.748 524.135,-111.229"/>
</g>
<!-- Node4&#45;&gt;Node6 -->
<g id="edge5" class="edge"><title>Node4&#45;&gt;Node6</title>
<path fill="none" stroke="midnightblue" d="M569.333,-112.554C591.135,-102.207 620.676,-88.1879 639.787,-79.1181"/>
<polygon fill="midnightblue" stroke="midnightblue" points="567.755,-109.429 560.221,-116.878 570.756,-115.752 567.755,-109.429"/>
</g>
<!-- Node6&#45;&gt;Node5 -->
<g id="edge6" class="edge"><title>Node6&#45;&gt;Node5</title>
<path fill="none" stroke="midnightblue" d="M619.922,-57.7259C580,-47.23 518.611,-31.0901 480.453,-21.0581"/>
<polygon fill="midnightblue" stroke="midnightblue" points="619.269,-61.1731 629.83,-60.3309 621.049,-54.4031 619.269,-61.1731"/>
</g>
<!-- Node6&#45;&gt;Node7 -->
<g id="edge7" class="edge"><title>Node6&#45;&gt;Node7</title>
<path fill="none" stroke="midnightblue" d="M698.014,-58.3328C740.313,-47.8516 807.29,-31.2556 848.556,-21.0304"/>
<polygon fill="midnightblue" stroke="midnightblue" points="696.948,-54.9911 688.083,-60.7936 698.631,-61.7857 696.948,-54.9911"/>
</g>
<!-- Node8&#45;&gt;Node5 -->
<g id="edge9" class="edge"><title>Node8&#45;&gt;Node5</title>
<path fill="none" stroke="midnightblue" d="M291.805,-111.312C328.874,-87.4373 401.133,-40.8973 431.747,-21.1799"/>
<polygon fill="midnightblue" stroke="midnightblue" points="289.697,-108.506 283.185,-116.864 293.488,-114.391 289.697,-108.506"/>
</g>
<!-- Node9&#45;&gt;Node5 -->
<g id="edge11" class="edge"><title>Node9&#45;&gt;Node5</title>
<path fill="none" stroke="midnightblue" d="M468.485,-106.939C462.605,-82.1105 452.559,-39.692 448.165,-21.1394"/>
<polygon fill="midnightblue" stroke="midnightblue" points="465.08,-107.747 470.79,-116.671 471.892,-106.133 465.08,-107.747"/>
</g>
<!-- Node10&#45;&gt;Node5 -->
<g id="edge14" class="edge"><title>Node10&#45;&gt;Node5</title>
<path fill="none" stroke="midnightblue" d="M399.876,-107.602C411.807,-82.8733 432.56,-39.8584 441.591,-21.1394"/>
<polygon fill="midnightblue" stroke="midnightblue" points="396.694,-106.143 395.501,-116.671 402.999,-109.185 396.694,-106.143"/>
</g>
<!-- Node11&#45;&gt;Node5 -->
<g id="edge16" class="edge"><title>Node11&#45;&gt;Node5</title>
<path fill="none" stroke="midnightblue" d="M738.126,-107.478C729.582,-91.736 715.141,-69.8575 696,-58 660.735,-36.1536 542.439,-21.586 482.082,-15.3884"/>
<polygon fill="midnightblue" stroke="midnightblue" points="735.209,-109.461 742.88,-116.77 741.441,-106.273 735.209,-109.461"/>
</g>
<!-- Node11&#45;&gt;Node7 -->
<g id="edge17" class="edge"><title>Node11&#45;&gt;Node7</title>
<path fill="none" stroke="midnightblue" d="M756.57,-107.773C765.087,-92.9093 778.7,-72.1332 795,-58 814.224,-41.3316 840.544,-28.7878 859.755,-21.0438"/>
<polygon fill="midnightblue" stroke="midnightblue" points="753.49,-106.11 751.733,-116.558 759.622,-109.487 753.49,-106.11"/>
</g>
<!-- Node12&#45;&gt;Node5 -->
<g id="edge19" class="edge"><title>Node12&#45;&gt;Node5</title>
<path fill="none" stroke="midnightblue" d="M56.5551,-113.262C94.2422,-98.415 159.424,-73.8918 217,-58 284.234,-39.4425 364.496,-25.0565 409.93,-17.6137"/>
<polygon fill="midnightblue" stroke="midnightblue" points="55.1411,-110.057 47.1355,-116.997 57.7215,-116.564 55.1411,-110.057"/>
</g>
<!-- Node13&#45;&gt;Node5 -->
<g id="edge21" class="edge"><title>Node13&#45;&gt;Node5</title>
<path fill="none" stroke="midnightblue" d="M125.033,-113.578C163.117,-99.4258 227.71,-75.9398 284,-58 327.734,-44.0617 378.756,-29.9184 411.678,-21.0639"/>
<polygon fill="midnightblue" stroke="midnightblue" points="123.63,-110.366 115.483,-117.138 126.076,-116.925 123.63,-110.366"/>
</g>
<!-- Node14&#45;&gt;Node5 -->
<g id="edge23" class="edge"><title>Node14&#45;&gt;Node5</title>
<path fill="none" stroke="midnightblue" d="M207.833,-112.933C263.02,-89.5455 377.333,-41.1004 424.712,-21.0217"/>
<polygon fill="midnightblue" stroke="midnightblue" points="206.4,-109.739 198.559,-116.864 209.132,-116.184 206.4,-109.739"/>
</g>
<!-- Node15&#45;&gt;Node5 -->
<g id="edge25" class="edge"><title>Node15&#45;&gt;Node5</title>
<path fill="none" stroke="midnightblue" d="M596.711,-111.312C560.479,-87.4373 489.853,-40.8973 459.931,-21.1799"/>
<polygon fill="midnightblue" stroke="midnightblue" points="594.859,-114.284 605.135,-116.864 598.711,-108.439 594.859,-114.284"/>
</g>
<!-- Node16&#45;&gt;Node3 -->
<g id="edge27" class="edge"><title>Node16&#45;&gt;Node3</title>
<path fill="none" stroke="midnightblue" d="M488.228,-229.107C462.61,-218.711 427.221,-204.351 404.47,-195.118"/>
<polygon fill="midnightblue" stroke="midnightblue" points="486.939,-232.361 497.521,-232.878 489.571,-225.875 486.939,-232.361"/>
</g>
<!-- Node16&#45;&gt;Node4 -->
<g id="edge28" class="edge"><title>Node16&#45;&gt;Node4</title>
<path fill="none" stroke="midnightblue" d="M523.573,-222.603C528.155,-197.731 535.914,-155.609 539.316,-137.139"/>
<polygon fill="midnightblue" stroke="midnightblue" points="520.088,-222.202 521.719,-232.671 526.972,-223.47 520.088,-222.202"/>
</g>
<!-- Node16&#45;&gt;Node6 -->
<g id="edge44" class="edge"><title>Node16&#45;&gt;Node6</title>
<path fill="none" stroke="midnightblue" d="M570.41,-239.865C634.942,-234.023 743.8,-212.931 789,-138 813.536,-97.3247 733.327,-79.8246 687.967,-73.3205"/>
<polygon fill="midnightblue" stroke="midnightblue" points="569.747,-236.407 560.063,-240.705 570.314,-243.384 569.747,-236.407"/>
</g>
<!-- Node16&#45;&gt;Node7 -->
<g id="edge51" class="edge"><title>Node16&#45;&gt;Node7</title>
<path fill="none" stroke="midnightblue" d="M570.214,-241.226C620.785,-238.481 699.612,-228.701 759,-196 820.971,-161.877 834.106,-142.097 868,-80 878.494,-60.7736 882.636,-34.9662 884.169,-21.3375"/>
<polygon fill="midnightblue" stroke="midnightblue" points="570.004,-237.731 560.18,-241.698 570.333,-244.724 570.004,-237.731"/>
</g>
<!-- Node16&#45;&gt;Node8 -->
<g id="edge42" class="edge"><title>Node16&#45;&gt;Node8</title>
<path fill="none" stroke="midnightblue" d="M469.752,-236.371C431.9,-230.488 379.74,-218.782 339,-196 311.495,-180.619 287.006,-151.692 275.67,-137.022"/>
<polygon fill="midnightblue" stroke="midnightblue" points="469.625,-239.89 480.027,-237.88 470.642,-232.964 469.625,-239.89"/>
</g>
<!-- Node16&#45;&gt;Node9 -->
<g id="edge43" class="edge"><title>Node16&#45;&gt;Node9</title>
<path fill="none" stroke="midnightblue" d="M512.279,-223.271C502.062,-198.491 484.451,-155.775 476.768,-137.139"/>
<polygon fill="midnightblue" stroke="midnightblue" points="509.106,-224.76 516.154,-232.671 515.578,-222.092 509.106,-224.76"/>
</g>
<!-- Node16&#45;&gt;Node10 -->
<g id="edge45" class="edge"><title>Node16&#45;&gt;Node10</title>
<path fill="none" stroke="midnightblue" d="M501.732,-225.856C474.254,-201.573 423.183,-156.441 401.342,-137.139"/>
<polygon fill="midnightblue" stroke="midnightblue" points="499.632,-228.672 509.443,-232.671 504.268,-223.426 499.632,-228.672"/>
</g>
<!-- Node16&#45;&gt;Node11 -->
<g id="edge46" class="edge"><title>Node16&#45;&gt;Node11</title>
<path fill="none" stroke="midnightblue" d="M560.782,-229.898C585.978,-221.747 618.616,-209.955 646,-196 680.466,-178.436 717.268,-151.235 735.453,-137.15"/>
<polygon fill="midnightblue" stroke="midnightblue" points="559.644,-226.587 551.171,-232.948 561.761,-233.259 559.644,-226.587"/>
</g>
<!-- Node16&#45;&gt;Node12 -->
<g id="edge47" class="edge"><title>Node16&#45;&gt;Node12</title>
<path fill="none" stroke="midnightblue" d="M469.504,-238.746C404.6,-233.692 288.854,-221.723 193,-196 136.475,-180.831 73.4016,-151.808 43.1349,-137.07"/>
<polygon fill="midnightblue" stroke="midnightblue" points="469.623,-242.265 479.858,-239.527 470.15,-235.284 469.623,-242.265"/>
</g>
<!-- Node16&#45;&gt;Node13 -->
<g id="edge48" class="edge"><title>Node16&#45;&gt;Node13</title>
<path fill="none" stroke="midnightblue" d="M470.081,-236.632C416.435,-230.096 329.03,-217.22 256,-196 201.243,-180.089 139.981,-151.663 110.211,-137.119"/>
<polygon fill="midnightblue" stroke="midnightblue" points="469.676,-240.108 480.02,-237.817 470.505,-233.158 469.676,-240.108"/>
</g>
<!-- Node16&#45;&gt;Node14 -->
<g id="edge49" class="edge"><title>Node16&#45;&gt;Node14</title>
<path fill="none" stroke="midnightblue" d="M469.577,-234.923C425.951,-227.896 361.624,-215.346 308,-196 263.408,-179.913 214.853,-151.565 191.35,-137.078"/>
<polygon fill="midnightblue" stroke="midnightblue" points="469.232,-238.412 479.654,-236.508 470.319,-231.497 469.232,-238.412"/>
</g>
<!-- Node16&#45;&gt;Node15 -->
<g id="edge50" class="edge"><title>Node16&#45;&gt;Node15</title>
<path fill="none" stroke="midnightblue" d="M569.964,-233.694C591.954,-227.285 615.757,-215.964 629,-196 641.005,-177.903 630.886,-151.168 624.033,-137.224"/>
<polygon fill="midnightblue" stroke="midnightblue" points="568.813,-230.378 560.032,-236.307 570.594,-237.148 568.813,-230.378"/>
</g>
<!-- Node16&#45;&gt;Node17 -->
<g id="edge29" class="edge"><title>Node16&#45;&gt;Node17</title>
<path fill="none" stroke="midnightblue" d="M538.289,-225.997C549.746,-215.972 564.095,-203.417 573.628,-195.075"/>
<polygon fill="midnightblue" stroke="midnightblue" points="535.789,-223.534 530.568,-232.753 540.399,-228.802 535.789,-223.534"/>
</g>
<!-- Node17&#45;&gt;Node4 -->
<g id="edge30" class="edge"><title>Node17&#45;&gt;Node4</title>
<path fill="none" stroke="midnightblue" d="M570.806,-166.818C563.27,-157.003 554.125,-145.093 547.968,-137.075"/>
<polygon fill="midnightblue" stroke="midnightblue" points="568.033,-168.953 576.899,-174.753 573.585,-164.69 568.033,-168.953"/>
</g>
<!-- Node17&#45;&gt;Node6 -->
<g id="edge33" class="edge"><title>Node17&#45;&gt;Node6</title>
<path fill="none" stroke="midnightblue" d="M624.899,-170.884C640.282,-163.735 656.174,-153.162 665,-138 675.851,-119.359 668.241,-92.8536 662.934,-79.088"/>
<polygon fill="midnightblue" stroke="midnightblue" points="623.284,-167.768 615.453,-174.904 626.025,-174.209 623.284,-167.768"/>
</g>
<!-- Node17&#45;&gt;Node7 -->
<g id="edge41" class="edge"><title>Node17&#45;&gt;Node7</title>
<path fill="none" stroke="midnightblue" d="M630.313,-182.576C674.29,-179.261 740.677,-168.989 789,-138 836.688,-107.418 869.79,-44.4662 880.902,-21.0422"/>
<polygon fill="midnightblue" stroke="midnightblue" points="629.936,-179.094 620.189,-183.247 630.399,-186.078 629.936,-179.094"/>
</g>
<!-- Node17&#45;&gt;Node8 -->
<g id="edge31" class="edge"><title>Node17&#45;&gt;Node8</title>
<path fill="none" stroke="midnightblue" d="M537.827,-175.792C472.362,-164.153 354.39,-143.181 299.114,-133.354"/>
<polygon fill="midnightblue" stroke="midnightblue" points="537.407,-179.272 547.865,-177.576 538.633,-172.38 537.407,-179.272"/>
</g>
<!-- Node17&#45;&gt;Node9 -->
<g id="edge32" class="edge"><title>Node17&#45;&gt;Node9</title>
<path fill="none" stroke="midnightblue" d="M556.535,-170.144C536.077,-159.823 508.727,-146.025 490.988,-137.075"/>
<polygon fill="midnightblue" stroke="midnightblue" points="555.166,-173.373 565.671,-174.753 558.319,-167.124 555.166,-173.373"/>
</g>
<!-- Node17&#45;&gt;Node10 -->
<g id="edge34" class="edge"><title>Node17&#45;&gt;Node10</title>
<path fill="none" stroke="midnightblue" d="M542.809,-172.048C506.661,-161.56 454.88,-146.535 422.105,-137.025"/>
<polygon fill="midnightblue" stroke="midnightblue" points="541.982,-175.453 552.562,-174.878 543.933,-168.73 541.982,-175.453"/>
</g>
<!-- Node17&#45;&gt;Node11 -->
<g id="edge35" class="edge"><title>Node17&#45;&gt;Node11</title>
<path fill="none" stroke="midnightblue" d="M620.365,-171.506C650.808,-161.048 693.523,-146.373 720.73,-137.025"/>
<polygon fill="midnightblue" stroke="midnightblue" points="618.872,-168.319 610.552,-174.878 621.146,-174.939 618.872,-168.319"/>
</g>
<!-- Node17&#45;&gt;Node12 -->
<g id="edge36" class="edge"><title>Node17&#45;&gt;Node12</title>
<path fill="none" stroke="midnightblue" d="M537.564,-181.065C427.103,-173.898 151.124,-154.858 60,-138 57.0172,-137.448 53.9225,-136.752 50.8627,-135.984"/>
<polygon fill="midnightblue" stroke="midnightblue" points="537.521,-184.569 547.726,-181.721 537.972,-177.584 537.521,-184.569"/>
</g>
<!-- Node17&#45;&gt;Node13 -->
<g id="edge37" class="edge"><title>Node17&#45;&gt;Node13</title>
<path fill="none" stroke="midnightblue" d="M537.681,-180.572C437.278,-172.944 202.325,-153.981 124,-138 121.263,-137.441 118.427,-136.741 115.625,-135.971"/>
<polygon fill="midnightblue" stroke="midnightblue" points="537.587,-184.074 547.823,-181.338 538.115,-177.094 537.587,-184.074"/>
</g>
<!-- Node17&#45;&gt;Node14 -->
<g id="edge38" class="edge"><title>Node17&#45;&gt;Node14</title>
<path fill="none" stroke="midnightblue" d="M537.379,-178.804C469.56,-171.05 339.802,-155.478 230,-138 227.133,-137.544 224.184,-137.051 221.213,-136.538"/>
<polygon fill="midnightblue" stroke="midnightblue" points="537.388,-182.327 547.719,-179.98 538.179,-175.372 537.388,-182.327"/>
</g>
<!-- Node17&#45;&gt;Node15 -->
<g id="edge39" class="edge"><title>Node17&#45;&gt;Node15</title>
<path fill="none" stroke="midnightblue" d="M595.112,-166.22C601.173,-156.524 608.418,-144.931 613.328,-137.075"/>
<polygon fill="midnightblue" stroke="midnightblue" points="592.112,-164.418 589.78,-174.753 598.048,-168.128 592.112,-164.418"/>
</g>
<!-- Node17&#45;&gt;Node18 -->
<g id="edge40" class="edge"><title>Node17&#45;&gt;Node18</title>
<path fill="none" stroke="midnightblue" d="M630.25,-177.46C712.483,-165.831 881.909,-141.871 950.351,-132.193"/>
<polygon fill="midnightblue" stroke="midnightblue" points="629.604,-174.016 620.192,-178.882 630.584,-180.947 629.604,-174.016"/>
</g>
<!-- Node19&#45;&gt;Node7 -->
<g id="edge59" class="edge"><title>Node19&#45;&gt;Node7</title>
<path fill="none" stroke="midnightblue" d="M1039.16,-222.599C1039.82,-196.527 1037.78,-149.581 1018,-116 990.629,-69.5285 933.896,-36.1332 904.148,-21.0244"/>
<polygon fill="midnightblue" stroke="midnightblue" points="1035.66,-222.555 1038.74,-232.692 1042.65,-222.847 1035.66,-222.555"/>
</g>
<!-- Node19&#45;&gt;Node17 -->
<g id="edge53" class="edge"><title>Node19&#45;&gt;Node17</title>
<path fill="none" stroke="midnightblue" d="M978.468,-234.657C882.898,-222.868 698.085,-200.072 620.106,-190.454"/>
<polygon fill="midnightblue" stroke="midnightblue" points="978.197,-238.15 988.55,-235.9 979.054,-231.202 978.197,-238.15"/>
</g>
<!-- Node19&#45;&gt;Node18 -->
<g id="edge58" class="edge"><title>Node19&#45;&gt;Node18</title>
<path fill="none" stroke="midnightblue" d="M1028.64,-223.602C1016.06,-198.873 994.174,-155.858 984.65,-137.139"/>
<polygon fill="midnightblue" stroke="midnightblue" points="1025.6,-225.345 1033.25,-232.671 1031.84,-222.171 1025.6,-225.345"/>
</g>
<!-- Node20 -->
<g id="node20" class="node"><title>Node20</title>
<g id="a_node20"><a xlink:href="info_8h.html" target="_top" xlink:title="Helper functions for manipulating RMF files. ">
<polygon fill="none" stroke="black" points="1408.77,-175 1408.77,-195 1449.23,-195 1449.23,-175 1408.77,-175"/>
<text text-anchor="middle" x="1429" y="-181" font-family="Helvetica,sans-Serif" font-size="10.00">info.h</text>
</a>
</g>
</g>
<!-- Node19&#45;&gt;Node20 -->
<g id="edge54" class="edge"><title>Node19&#45;&gt;Node20</title>
<path fill="none" stroke="midnightblue" d="M1097.53,-237.99C1169.6,-232.317 1294.35,-219.869 1399,-196 1402.1,-195.292 1405.34,-194.391 1408.49,-193.422"/>
<polygon fill="midnightblue" stroke="midnightblue" points="1096.99,-234.521 1087.29,-238.778 1097.53,-241.5 1096.99,-234.521"/>
</g>
<!-- Node21 -->
<g id="node21" class="node"><title>Node21</title>
<g id="a_node21"><a xlink:href="RestoreCurrentFrame_8h.html" target="_top" xlink:title="Handle read/write of Model data from/to files. ">
<polygon fill="none" stroke="black" points="1065.2,-175 1065.2,-195 1186.8,-195 1186.8,-175 1065.2,-175"/>
<text text-anchor="middle" x="1126" y="-181" font-family="Helvetica,sans-Serif" font-size="10.00">RestoreCurrentFrame.h</text>
</a>
</g>
</g>
<!-- Node19&#45;&gt;Node21 -->
<g id="edge55" class="edge"><title>Node19&#45;&gt;Node21</title>
<path fill="none" stroke="midnightblue" d="M1061.33,-227.153C1077.36,-216.953 1098.12,-203.741 1111.74,-195.075"/>
<polygon fill="midnightblue" stroke="midnightblue" points="1059.09,-224.431 1052.53,-232.753 1062.85,-230.337 1059.09,-224.431"/>
</g>
<!-- Node22 -->
<g id="node22" class="node"><title>Node22</title>
<g id="a_node22"><a xlink:href="SetCurrentFrame_8h.html" target="_top" xlink:title="Handle read/write of Model data from/to files. ">
<polygon fill="none" stroke="black" points="1205.21,-175 1205.21,-195 1306.79,-195 1306.79,-175 1205.21,-175"/>
<text text-anchor="middle" x="1256" y="-181" font-family="Helvetica,sans-Serif" font-size="10.00">SetCurrentFrame.h</text>
</a>
</g>
</g>
<!-- Node19&#45;&gt;Node22 -->
<g id="edge56" class="edge"><title>Node19&#45;&gt;Node22</title>
<path fill="none" stroke="midnightblue" d="M1083.22,-230.383C1124.11,-219.881 1183.45,-204.637 1220.87,-195.025"/>
<polygon fill="midnightblue" stroke="midnightblue" points="1082.33,-227 1073.51,-232.878 1084.07,-233.78 1082.33,-227"/>
</g>
<!-- Node23 -->
<g id="node23" class="node"><title>Node23</title>
<g id="a_node23"><a xlink:href="signature_8h.html" target="_top" xlink:title="Helper functions for manipulating RMF files. ">
<polygon fill="none" stroke="black" points="1325.26,-175 1325.26,-195 1390.74,-195 1390.74,-175 1325.26,-175"/>
<text text-anchor="middle" x="1358" y="-181" font-family="Helvetica,sans-Serif" font-size="10.00">signature.h</text>
</a>
</g>
</g>
<!-- Node19&#45;&gt;Node23 -->
<g id="edge57" class="edge"><title>Node19&#45;&gt;Node23</title>
<path fill="none" stroke="midnightblue" d="M1097.34,-233.269C1153.57,-224.731 1240.28,-210.876 1315,-196 1318.31,-195.341 1321.75,-194.614 1325.18,-193.861"/>
<polygon fill="midnightblue" stroke="midnightblue" points="1096.57,-229.845 1087.21,-234.8 1097.62,-236.767 1096.57,-229.845"/>
</g>
</g>
</svg>
        <g id="navigator" transform="translate(0 0)" fill="#404254">
                <rect fill="#f2f5e9" fill-opacity="0.5" stroke="#606060" stroke-width=".5" x="0" y="0" width="60" height="60"/>
                <use id="zoomplus" xlink:href="#zoomPlus" x="17" y="9" onmousedown="handleZoom(evt,'in')"/>
                <use id="zoomminus" xlink:href="#zoomMin" x="42" y="9" onmousedown="handleZoom(evt,'out')"/>
                <use id="reset" xlink:href="#resetDef" x="30" y="36" onmousedown="handleReset()"/>
                <g id="arrowUp" xlink:href="#dirArrow" transform="translate(30 24)" onmousedown="handlePan(0,-1)">
                  <use xlink:href="#rim" fill="#404040">
                        <set attributeName="fill" to="#808080" begin="arrowUp.mouseover" end="arrowUp.mouseout"/>
                  </use>
                  <path fill="none" stroke="white" stroke-width="1.5" d="M0,-3.0v7 M-2.5,-0.5L0,-3.0L2.5,-0.5"/>
                </g>
                <g id="arrowRight" xlink:href="#dirArrow" transform="rotate(90) translate(36 -43)" onmousedown="handlePan(1,0)">
                  <use xlink:href="#rim" fill="#404040">
                        <set attributeName="fill" to="#808080" begin="arrowRight.mouseover" end="arrowRight.mouseout"/>
                  </use>
                  <path fill="none" stroke="white" stroke-width="1.5" d="M0,-3.0v7 M-2.5,-0.5L0,-3.0L2.5,-0.5"/>
                </g>
                <g id="arrowDown" xlink:href="#dirArrow" transform="rotate(180) translate(-30 -48)" onmousedown="handlePan(0,1)">
                  <use xlink:href="#rim" fill="#404040">
                        <set attributeName="fill" to="#808080" begin="arrowDown.mouseover" end="arrowDown.mouseout"/>
                  </use>
                  <path fill="none" stroke="white" stroke-width="1.5" d="M0,-3.0v7 M-2.5,-0.5L0,-3.0L2.5,-0.5"/>
                </g>
                <g id="arrowLeft" xlink:href="#dirArrow" transform="rotate(270) translate(-36 17)" onmousedown="handlePan(-1,0)">
                  <use xlink:href="#rim" fill="#404040">
                        <set attributeName="fill" to="#808080" begin="arrowLeft.mouseover" end="arrowLeft.mouseout"/>
                  </use>
                  <path fill="none" stroke="white" stroke-width="1.5" d="M0,-3.0v7 M-2.5,-0.5L0,-3.0L2.5,-0.5"/>
                </g>
        </g>
        <svg viewBox="0 0 15 15" width="100%" height="30px" preserveAspectRatio="xMaxYMin meet">
         <g id="arrow_out" transform="scale(0.3 0.3)">
          <a xlink:href="enums_8h__dep__incl_org.svg" target="_base">
           <rect id="button" ry="5" rx="5" y="6" x="6" height="38" width="38"
                fill="#f2f5e9" fill-opacity="0.5" stroke="#606060" stroke-width="1.0"/>
           <path id="arrow"
             d="M 11.500037,31.436501 C 11.940474,20.09759 22.043105,11.32322 32.158766,21.979434 L 37.068811,17.246167 C 37.068811,17.246167 37.088388,32 37.088388,32 L 22.160133,31.978069 C 22.160133,31.978069 26.997745,27.140456 26.997745,27.140456 C 18.528582,18.264221 13.291696,25.230495 11.500037,31.436501 z"
             style="fill:#404040;"/>
          </a>
         </g>
        </svg>
</svg>
