<?xml version="1.0" encoding="UTF-8" standalone="no"?>
<!DOCTYPE svg PUBLIC "-//W3C//DTD SVG 1.1//EN"
 "http://www.w3.org/Graphics/SVG/1.1/DTD/svg11.dtd">
<!-- Generated by graphviz version 2.34.0 (20131025.1349)
 -->
<!-- Title: enums.h Pages: 1 -->
<!--zoomable 274 -->
<svg id="main" version="1.1" xmlns="http://www.w3.org/2000/svg" xmlns:xlink="http://www.w3.org/1999/xlink" xml:space="preserve" onload="init(evt)">
<style type="text/css"><![CDATA[
.edge:hover path { stroke: red; }
.edge:hover polygon { stroke: red; fill: red; }
]]></style>
<script type="text/javascript"><![CDATA[
var edges = document.getElementsByTagName('g');
if (edges && edges.length) {
  for (var i=0;i<edges.length;i++) {
    if (edges[i].id.substr(0,4)=='edge') {
      edges[i].setAttribute('class','edge');
    }
  }
}
]]></script>
        <defs>
                <circle id="rim" cx="0" cy="0" r="7"/>
                <circle id="rim2" cx="0" cy="0" r="3.5"/>
                <g id="zoomPlus">
                        <use xlink:href="#rim" fill="#404040">
                                <set attributeName="fill" to="#808080" begin="zoomplus.mouseover" end="zoomplus.mouseout"/>
                        </use>
                        <path d="M-4,0h8M0,-4v8" fill="none" stroke="white" stroke-width="1.5" pointer-events="none"/>
                </g>
                <g id="zoomMin">
                        <use xlink:href="#rim" fill="#404040">
                                <set attributeName="fill" to="#808080" begin="zoomminus.mouseover" end="zoomminus.mouseout"/>
                        </use>
                        <path d="M-4,0h8" fill="none" stroke="white" stroke-width="1.5" pointer-events="none"/>
                </g>
                <g id="dirArrow">
                        <path fill="none" stroke="white" stroke-width="1.5" d="M0,-3.0v7 M-2.5,-0.5L0,-3.0L2.5,-0.5"/>
                </g>
               <g id="resetDef">
                       <use xlink:href="#rim2" fill="#404040">
                               <set attributeName="fill" to="#808080" begin="reset.mouseover" end="reset.mouseout"/>
                       </use>
               </g>
        </defs>

<script type="text/javascript">
var viewWidth = 1201;
var viewHeight = 274;
var sectionId = 'dynsection-0';
</script>
<script xlink:href="svgpan.js"/>
<svg id="graph" class="graph">
<g id="viewport">
<title>enums.h</title>
<!-- Node1 -->
<g id="node1" class="node"><title>Node1</title>
<polygon fill="#bfbfbf" stroke="black" points="596.823,-245 596.823,-265 651.177,-265 651.177,-245 596.823,-245"/>
<text text-anchor="middle" x="624" y="-251" font-family="Helvetica,sans-Serif" font-size="10.00">enums.h</text>
</g>
<!-- Node2 -->
<g id="node2" class="node"><title>Node2</title>
<g id="a_node2"><a xlink:href="config_8h_source.html" target="_top" xlink:title="RMF/config.h">
<polygon fill="none" stroke="black" points="670.269,-59 670.269,-79 745.731,-79 745.731,-59 670.269,-59"/>
<text text-anchor="middle" x="708" y="-65" font-family="Helvetica,sans-Serif" font-size="10.00">RMF/config.h</text>
</a>
</g>
</g>
<!-- Node1&#45;&gt;Node2 -->
<g id="edge1" class="edge"><title>Node1&#45;&gt;Node2</title>
<path fill="none" stroke="midnightblue" d="M622.196,-244.882C620.466,-235.635 617.975,-220.888 617,-208 613.785,-165.508 617.945,-149.72 644,-116 653.964,-103.105 668.508,-92.2524 681.215,-84.3327"/>
<polygon fill="midnightblue" stroke="midnightblue" points="683.231,-87.2059 690.05,-79.097 679.663,-81.1837 683.231,-87.2059"/>
</g>
<!-- Node4 -->
<g id="node4" class="node"><title>Node4</title>
<g id="a_node4"><a xlink:href="Enum_8h.html" target="_top" xlink:title="Handle read/write of Model data from/to files. ">
<polygon fill="none" stroke="black" points="625.769,-187 625.769,-207 676.231,-207 676.231,-187 625.769,-187"/>
<text text-anchor="middle" x="651" y="-193" font-family="Helvetica,sans-Serif" font-size="10.00">Enum.h</text>
</a>
</g>
</g>
<!-- Node1&#45;&gt;Node4 -->
<g id="edge3" class="edge"><title>Node1&#45;&gt;Node4</title>
<path fill="none" stroke="midnightblue" d="M628.459,-244.753C632.194,-237.006 637.638,-225.714 642.24,-216.169"/>
<polygon fill="midnightblue" stroke="midnightblue" points="645.434,-217.603 646.624,-207.075 639.129,-214.563 645.434,-217.603"/>
</g>
<!-- Node7 -->
<g id="node7" class="node"><title>Node7</title>
<polygon fill="none" stroke="#bfbfbf" points="-0.172363,-59 -0.172363,-79 54.1724,-79 54.1724,-59 -0.172363,-59"/>
<text text-anchor="middle" x="27" y="-65" font-family="Helvetica,sans-Serif" font-size="10.00">iostream</text>
</g>
<!-- Node1&#45;&gt;Node7 -->
<g id="edge24" class="edge"><title>Node1&#45;&gt;Node7</title>
<path fill="none" stroke="midnightblue" d="M596.797,-245.616C500.353,-215.891 174.638,-115.503 64.0752,-81.4269"/>
<polygon fill="midnightblue" stroke="midnightblue" points="64.9503,-78.0342 54.3629,-78.4335 62.8885,-84.7236 64.9503,-78.0342"/>
</g>
<!-- Node8 -->
<g id="node8" class="node"><title>Node8</title>
<polygon fill="none" stroke="#bfbfbf" points="763.773,-59 763.773,-79 804.227,-79 804.227,-59 763.773,-59"/>
<text text-anchor="middle" x="784" y="-65" font-family="Helvetica,sans-Serif" font-size="10.00">string</text>
</g>
<!-- Node1&#45;&gt;Node8 -->
<g id="edge23" class="edge"><title>Node1&#45;&gt;Node8</title>
<path fill="none" stroke="midnightblue" d="M644.322,-244.986C675.636,-230.001 735.271,-196.903 766,-150 777.917,-131.81 782.021,-106.845 783.393,-89.6665"/>
<polygon fill="midnightblue" stroke="midnightblue" points="786.915,-89.3734 783.969,-79.1962 779.925,-88.9889 786.915,-89.3734"/>
</g>
<!-- Node3 -->
<g id="node3" class="node"><title>Node3</title>
<g id="a_node3"><a xlink:href="compiler__macros_8h.html" target="_top" xlink:title="Various compiler workarounds. ">
<polygon fill="none" stroke="black" points="645.544,-1 645.544,-21 770.456,-21 770.456,-1 645.544,-1"/>
<text text-anchor="middle" x="708" y="-7" font-family="Helvetica,sans-Serif" font-size="10.00">RMF/compiler_macros.h</text>
</a>
</g>
</g>
<!-- Node2&#45;&gt;Node3 -->
<g id="edge2" class="edge"><title>Node2&#45;&gt;Node3</title>
<path fill="none" stroke="midnightblue" d="M708,-58.7527C708,-51.2504 708,-40.4238 708,-31.0781"/>
<polygon fill="midnightblue" stroke="midnightblue" points="711.5,-31.0752 708,-21.0752 704.5,-31.0752 711.5,-31.0752"/>
</g>
<!-- Node4&#45;&gt;Node2 -->
<g id="edge4" class="edge"><title>Node4&#45;&gt;Node2</title>
<path fill="none" stroke="midnightblue" d="M649.195,-186.543C646.698,-170.95 643.68,-139.257 655,-116 661.185,-103.293 672.646,-92.6574 683.332,-84.8248"/>
<polygon fill="midnightblue" stroke="midnightblue" points="685.34,-87.6914 691.62,-79.1581 681.39,-81.9129 685.34,-87.6914"/>
</g>
<!-- Node5 -->
<g id="node5" class="node"><title>Node5</title>
<g id="a_node5"><a xlink:href="infrastructure__macros_8h.html" target="_top" xlink:title="Various general useful macros for IMP. ">
<polygon fill="none" stroke="black" points="387.48,-123 387.48,-143 508.52,-143 508.52,-123 387.48,-123"/>
<text text-anchor="middle" x="448" y="-129" font-family="Helvetica,sans-Serif" font-size="10.00">infrastructure_macros.h</text>
</a>
</g>
</g>
<!-- Node4&#45;&gt;Node5 -->
<g id="edge5" class="edge"><title>Node4&#45;&gt;Node5</title>
<path fill="none" stroke="midnightblue" d="M625.7,-188.273C590.942,-177.657 528.087,-158.46 487.209,-145.975"/>
<polygon fill="midnightblue" stroke="midnightblue" points="488.16,-142.606 477.574,-143.032 486.115,-149.301 488.16,-142.606"/>
</g>
<!-- Node14 -->
<g id="node14" class="node"><title>Node14</title>
<g id="a_node14"><a xlink:href="exceptions_8h.html" target="_top" xlink:title="Various general useful macros for IMP. ">
<polygon fill="none" stroke="black" points="815.926,-123 815.926,-143 888.074,-143 888.074,-123 815.926,-123"/>
<text text-anchor="middle" x="852" y="-129" font-family="Helvetica,sans-Serif" font-size="10.00">exceptions.h</text>
</a>
</g>
</g>
<!-- Node4&#45;&gt;Node14 -->
<g id="edge15" class="edge"><title>Node4&#45;&gt;Node14</title>
<path fill="none" stroke="midnightblue" d="M676.457,-188.148C710.833,-177.544 772.426,-158.545 812.751,-146.107"/>
<polygon fill="midnightblue" stroke="midnightblue" points="813.991,-149.387 822.516,-143.095 811.928,-142.698 813.991,-149.387"/>
</g>
<!-- Node18 -->
<g id="node18" class="node"><title>Node18</title>
<polygon fill="none" stroke="#bfbfbf" points="664.094,-117 664.094,-149 757.906,-149 757.906,-117 664.094,-117"/>
<text text-anchor="start" x="672.094" y="-135" font-family="Helvetica,sans-Serif" font-size="10.00">internal/small_set</text>
<text text-anchor="middle" x="711" y="-123" font-family="Helvetica,sans-Serif" font-size="10.00">_map.h</text>
</g>
<!-- Node4&#45;&gt;Node18 -->
<g id="edge22" class="edge"><title>Node4&#45;&gt;Node18</title>
<path fill="none" stroke="midnightblue" d="M659.853,-186.852C667.513,-178.937 678.914,-167.156 689.01,-156.724"/>
<polygon fill="midnightblue" stroke="midnightblue" points="691.619,-159.06 696.058,-149.44 686.588,-154.192 691.619,-159.06"/>
</g>
<!-- Node5&#45;&gt;Node3 -->
<g id="edge9" class="edge"><title>Node5&#45;&gt;Node3</title>
<path fill="none" stroke="midnightblue" d="M495.27,-122.966C531.356,-114.884 581.584,-101.027 622,-80 648.457,-66.2353 674.745,-43.8462 691.159,-28.5466"/>
<polygon fill="midnightblue" stroke="midnightblue" points="693.965,-30.7072 698.791,-21.2753 689.137,-25.6391 693.965,-30.7072"/>
</g>
<!-- Node6 -->
<g id="node6" class="node"><title>Node6</title>
<polygon fill="none" stroke="#bfbfbf" points="72.2192,-59 72.2192,-79 123.781,-79 123.781,-59 72.2192,-59"/>
<text text-anchor="middle" x="98" y="-65" font-family="Helvetica,sans-Serif" font-size="10.00">sstream</text>
</g>
<!-- Node5&#45;&gt;Node6 -->
<g id="edge6" class="edge"><title>Node5&#45;&gt;Node6</title>
<path fill="none" stroke="midnightblue" d="M387.214,-124.075C325.659,-115.576 227.596,-100.737 133.844,-79.9859"/>
<polygon fill="midnightblue" stroke="midnightblue" points="134.432,-76.5309 123.909,-77.7606 132.902,-83.3616 134.432,-76.5309"/>
</g>
<!-- Node5&#45;&gt;Node7 -->
<g id="edge7" class="edge"><title>Node5&#45;&gt;Node7</title>
<path fill="none" stroke="midnightblue" d="M387.22,-126.385C313.062,-118.956 183.783,-104.147 64.4615,-80.0851"/>
<polygon fill="midnightblue" stroke="midnightblue" points="64.9215,-76.6069 54.4232,-78.0338 63.52,-83.4651 64.9215,-76.6069"/>
</g>
<!-- Node5&#45;&gt;Node8 -->
<g id="edge8" class="edge"><title>Node5&#45;&gt;Node8</title>
<path fill="none" stroke="midnightblue" d="M508.661,-124.488C568.627,-116.434 663.039,-102.069 753.585,-79.7751"/>
<polygon fill="midnightblue" stroke="midnightblue" points="754.612,-83.1261 763.466,-77.3064 752.916,-76.3349 754.612,-83.1261"/>
</g>
<!-- Node9 -->
<g id="node9" class="node"><title>Node9</title>
<polygon fill="none" stroke="#bfbfbf" points="141.98,-59 141.98,-79 218.02,-79 218.02,-59 141.98,-59"/>
<text text-anchor="middle" x="180" y="-65" font-family="Helvetica,sans-Serif" font-size="10.00">internal/use.h</text>
</g>
<!-- Node5&#45;&gt;Node9 -->
<g id="edge10" class="edge"><title>Node5&#45;&gt;Node9</title>
<path fill="none" stroke="midnightblue" d="M409.03,-122.985C361.123,-111.902 279.827,-93.0944 228.085,-81.1241"/>
<polygon fill="midnightblue" stroke="midnightblue" points="228.68,-77.6695 218.149,-78.8255 227.103,-84.4894 228.68,-77.6695"/>
</g>
<!-- Node10 -->
<g id="node10" class="node"><title>Node10</title>
<polygon fill="none" stroke="#bfbfbf" points="236.306,-59 236.306,-79 325.694,-79 325.694,-59 236.306,-59"/>
<text text-anchor="middle" x="281" y="-65" font-family="Helvetica,sans-Serif" font-size="10.00">boost/config.hpp</text>
</g>
<!-- Node5&#45;&gt;Node10 -->
<g id="edge11" class="edge"><title>Node5&#45;&gt;Node10</title>
<path fill="none" stroke="midnightblue" d="M423.717,-122.985C395.023,-112.332 347.108,-94.5431 314.8,-82.5484"/>
<polygon fill="midnightblue" stroke="midnightblue" points="315.906,-79.2256 305.313,-79.0262 313.469,-85.7879 315.906,-79.2256"/>
</g>
<!-- Node11 -->
<g id="node11" class="node"><title>Node11</title>
<polygon fill="none" stroke="#bfbfbf" points="343.53,-59 343.53,-79 438.47,-79 438.47,-59 343.53,-59"/>
<text text-anchor="middle" x="391" y="-65" font-family="Helvetica,sans-Serif" font-size="10.00">boost/version.hpp</text>
</g>
<!-- Node5&#45;&gt;Node11 -->
<g id="edge12" class="edge"><title>Node5&#45;&gt;Node11</title>
<path fill="none" stroke="midnightblue" d="M439.589,-122.852C430.833,-113.327 416.93,-98.2042 406.234,-86.5706"/>
<polygon fill="midnightblue" stroke="midnightblue" points="408.79,-84.1787 399.445,-79.1858 403.636,-88.9164 408.79,-84.1787"/>
</g>
<!-- Node12 -->
<g id="node12" class="node"><title>Node12</title>
<polygon fill="none" stroke="#bfbfbf" points="455.971,-59 455.971,-79 552.029,-79 552.029,-59 455.971,-59"/>
<text text-anchor="middle" x="504" y="-65" font-family="Helvetica,sans-Serif" font-size="10.00">boost/foreach.hpp</text>
</g>
<!-- Node5&#45;&gt;Node12 -->
<g id="edge13" class="edge"><title>Node5&#45;&gt;Node12</title>
<path fill="none" stroke="midnightblue" d="M456.263,-122.852C464.783,-113.419 478.263,-98.4945 488.729,-86.9072"/>
<polygon fill="midnightblue" stroke="midnightblue" points="491.598,-88.9529 495.703,-79.1858 486.403,-84.2609 491.598,-88.9529"/>
</g>
<!-- Node13 -->
<g id="node13" class="node"><title>Node13</title>
<polygon fill="none" stroke="#bfbfbf" points="570.384,-59 570.384,-79 613.616,-79 613.616,-59 570.384,-59"/>
<text text-anchor="middle" x="592" y="-65" font-family="Helvetica,sans-Serif" font-size="10.00">vector</text>
</g>
<!-- Node5&#45;&gt;Node13 -->
<g id="edge14" class="edge"><title>Node5&#45;&gt;Node13</title>
<path fill="none" stroke="midnightblue" d="M468.939,-122.985C493.361,-112.47 533.931,-95.002 561.768,-83.0166"/>
<polygon fill="midnightblue" stroke="midnightblue" points="563.235,-86.1956 571.036,-79.0262 560.467,-79.7662 563.235,-86.1956"/>
</g>
<!-- Node14&#45;&gt;Node2 -->
<g id="edge19" class="edge"><title>Node14&#45;&gt;Node2</title>
<path fill="none" stroke="midnightblue" d="M831.061,-122.985C806.639,-112.47 766.069,-95.002 738.232,-83.0166"/>
<polygon fill="midnightblue" stroke="midnightblue" points="739.533,-79.7662 728.964,-79.0262 736.765,-86.1956 739.533,-79.7662"/>
</g>
<!-- Node14&#45;&gt;Node3 -->
<g id="edge20" class="edge"><title>Node14&#45;&gt;Node3</title>
<path fill="none" stroke="midnightblue" d="M888.276,-132.052C967.032,-131.313 1149.68,-124.705 1188,-80 1194.36,-72.5762 1194.58,-65.2362 1188,-58 1161.17,-28.4803 908.246,-17.4187 780.745,-13.6931"/>
<polygon fill="midnightblue" stroke="midnightblue" points="780.764,-10.1924 770.669,-13.4064 780.565,-17.1895 780.764,-10.1924"/>
</g>
<!-- Node14&#45;&gt;Node8 -->
<g id="edge18" class="edge"><title>Node14&#45;&gt;Node8</title>
<path fill="none" stroke="midnightblue" d="M841.966,-122.852C831.42,-113.236 814.614,-97.9128 801.807,-86.236"/>
<polygon fill="midnightblue" stroke="midnightblue" points="803.823,-83.3371 794.075,-79.1858 799.106,-88.5098 803.823,-83.3371"/>
</g>
<!-- Node15 -->
<g id="node15" class="node"><title>Node15</title>
<polygon fill="none" stroke="#bfbfbf" points="1028.45,-59 1028.45,-79 1179.55,-79 1179.55,-59 1028.45,-59"/>
<text text-anchor="middle" x="1104" y="-65" font-family="Helvetica,sans-Serif" font-size="10.00">boost/exception/exception.hpp</text>
</g>
<!-- Node14&#45;&gt;Node15 -->
<g id="edge16" class="edge"><title>Node14&#45;&gt;Node15</title>
<path fill="none" stroke="midnightblue" d="M888.105,-123.117C932.575,-112.176 1008.22,-93.5656 1057.13,-81.5313"/>
<polygon fill="midnightblue" stroke="midnightblue" points="1058.27,-84.856 1067.14,-79.0682 1056.6,-78.0587 1058.27,-84.856"/>
</g>
<!-- Node16 -->
<g id="node16" class="node"><title>Node16</title>
<polygon fill="none" stroke="#bfbfbf" points="822.596,-59 822.596,-79 881.404,-79 881.404,-59 822.596,-59"/>
<text text-anchor="middle" x="852" y="-65" font-family="Helvetica,sans-Serif" font-size="10.00">exception</text>
</g>
<!-- Node14&#45;&gt;Node16 -->
<g id="edge17" class="edge"><title>Node14&#45;&gt;Node16</title>
<path fill="none" stroke="midnightblue" d="M852,-122.852C852,-114.06 852,-100.498 852,-89.3131"/>
<polygon fill="midnightblue" stroke="midnightblue" points="855.5,-89.1858 852,-79.1858 848.5,-89.1859 855.5,-89.1858"/>
</g>
<!-- Node17 -->
<g id="node17" class="node"><title>Node17</title>
<polygon fill="none" stroke="#bfbfbf" points="899.766,-59 899.766,-79 1010.23,-79 1010.23,-59 899.766,-59"/>
<text text-anchor="middle" x="955" y="-65" font-family="Helvetica,sans-Serif" font-size="10.00">RMF/internal/errors.h</text>
</g>
<!-- Node14&#45;&gt;Node17 -->
<g id="edge21" class="edge"><title>Node14&#45;&gt;Node17</title>
<path fill="none" stroke="midnightblue" d="M867.198,-122.852C884.009,-112.732 911.322,-96.2919 931.024,-84.4324"/>
<polygon fill="midnightblue" stroke="midnightblue" points="932.977,-87.3417 939.74,-79.1858 929.367,-81.3444 932.977,-87.3417"/>
</g>
</g>
</svg>
        <g id="navigator" transform="translate(0 0)" fill="#404254">
                <rect fill="#f2f5e9" fill-opacity="0.5" stroke="#606060" stroke-width=".5" x="0" y="0" width="60" height="60"/>
                <use id="zoomplus" xlink:href="#zoomPlus" x="17" y="9" onmousedown="handleZoom(evt,'in')"/>
                <use id="zoomminus" xlink:href="#zoomMin" x="42" y="9" onmousedown="handleZoom(evt,'out')"/>
                <use id="reset" xlink:href="#resetDef" x="30" y="36" onmousedown="handleReset()"/>
                <g id="arrowUp" xlink:href="#dirArrow" transform="translate(30 24)" onmousedown="handlePan(0,-1)">
                  <use xlink:href="#rim" fill="#404040">
                        <set attributeName="fill" to="#808080" begin="arrowUp.mouseover" end="arrowUp.mouseout"/>
                  </use>
                  <path fill="none" stroke="white" stroke-width="1.5" d="M0,-3.0v7 M-2.5,-0.5L0,-3.0L2.5,-0.5"/>
                </g>
                <g id="arrowRight" xlink:href="#dirArrow" transform="rotate(90) translate(36 -43)" onmousedown="handlePan(1,0)">
                  <use xlink:href="#rim" fill="#404040">
                        <set attributeName="fill" to="#808080" begin="arrowRight.mouseover" end="arrowRight.mouseout"/>
                  </use>
                  <path fill="none" stroke="white" stroke-width="1.5" d="M0,-3.0v7 M-2.5,-0.5L0,-3.0L2.5,-0.5"/>
                </g>
                <g id="arrowDown" xlink:href="#dirArrow" transform="rotate(180) translate(-30 -48)" onmousedown="handlePan(0,1)">
                  <use xlink:href="#rim" fill="#404040">
                        <set attributeName="fill" to="#808080" begin="arrowDown.mouseover" end="arrowDown.mouseout"/>
                  </use>
                  <path fill="none" stroke="white" stroke-width="1.5" d="M0,-3.0v7 M-2.5,-0.5L0,-3.0L2.5,-0.5"/>
                </g>
                <g id="arrowLeft" xlink:href="#dirArrow" transform="rotate(270) translate(-36 17)" onmousedown="handlePan(-1,0)">
                  <use xlink:href="#rim" fill="#404040">
                        <set attributeName="fill" to="#808080" begin="arrowLeft.mouseover" end="arrowLeft.mouseout"/>
                  </use>
                  <path fill="none" stroke="white" stroke-width="1.5" d="M0,-3.0v7 M-2.5,-0.5L0,-3.0L2.5,-0.5"/>
                </g>
        </g>
        <svg viewBox="0 0 15 15" width="100%" height="30px" preserveAspectRatio="xMaxYMin meet">
         <g id="arrow_out" transform="scale(0.3 0.3)">
          <a xlink:href="enums_8h__incl_org.svg" target="_base">
           <rect id="button" ry="5" rx="5" y="6" x="6" height="38" width="38"
                fill="#f2f5e9" fill-opacity="0.5" stroke="#606060" stroke-width="1.0"/>
           <path id="arrow"
             d="M 11.500037,31.436501 C 11.940474,20.09759 22.043105,11.32322 32.158766,21.979434 L 37.068811,17.246167 C 37.068811,17.246167 37.088388,32 37.088388,32 L 22.160133,31.978069 C 22.160133,31.978069 26.997745,27.140456 26.997745,27.140456 C 18.528582,18.264221 13.291696,25.230495 11.500037,31.436501 z"
             style="fill:#404040;"/>
          </a>
         </g>
        </svg>
</svg>
