<?xml version="1.0" encoding="UTF-8" standalone="no"?>
<!DOCTYPE svg PUBLIC "-//W3C//DTD SVG 1.1//EN"
 "http://www.w3.org/Graphics/SVG/1.1/DTD/svg11.dtd">
<!-- Generated by graphviz version 2.36.0 (20140111.2315)
 -->
<!-- Title: enums.h Pages: 1 -->
<!--zoomable 288 -->
<svg id="main" version="1.1" xmlns="http://www.w3.org/2000/svg" xmlns:xlink="http://www.w3.org/1999/xlink" xml:space="preserve" onload="init(evt)">
<style type="text/css"><![CDATA[
.edge:hover path { stroke: red; }
.edge:hover polygon { stroke: red; fill: red; }
]]></style>
<script type="text/javascript"><![CDATA[
var edges = document.getElementsByTagName('g');
if (edges && edges.length) {
  for (var i=0;i<edges.length;i++) {
    if (edges[i].id.substr(0,4)=='edge') {
      edges[i].setAttribute('class','edge');
    }
  }
}
]]></script>
        <defs>
                <circle id="rim" cx="0" cy="0" r="7"/>
                <circle id="rim2" cx="0" cy="0" r="3.5"/>
                <g id="zoomPlus">
                        <use xlink:href="#rim" fill="#404040">
                                <set attributeName="fill" to="#808080" begin="zoomplus.mouseover" end="zoomplus.mouseout"/>
                        </use>
                        <path d="M-4,0h8M0,-4v8" fill="none" stroke="white" stroke-width="1.5" pointer-events="none"/>
                </g>
                <g id="zoomMin">
                        <use xlink:href="#rim" fill="#404040">
                                <set attributeName="fill" to="#808080" begin="zoomminus.mouseover" end="zoomminus.mouseout"/>
                        </use>
                        <path d="M-4,0h8" fill="none" stroke="white" stroke-width="1.5" pointer-events="none"/>
                </g>
                <g id="dirArrow">
                        <path fill="none" stroke="white" stroke-width="1.5" d="M0,-3.0v7 M-2.5,-0.5L0,-3.0L2.5,-0.5"/>
                </g>
               <g id="resetDef">
                       <use xlink:href="#rim2" fill="#404040">
                               <set attributeName="fill" to="#808080" begin="reset.mouseover" end="reset.mouseout"/>
                       </use>
               </g>
        </defs>

<script type="text/javascript">
var viewWidth = 1130;
var viewHeight = 288;
var sectionId = 'dynsection-0';
</script>
<script xlink:href="svgpan.js"/>
<svg id="graph" class="graph">
<g id="viewport">
<title>enums.h</title>
<!-- Node1 -->
<g id="node1" class="node"><title>Node1</title>
<polygon fill="#bfbfbf" stroke="black" points="613.823,-261 613.823,-279 668.177,-279 668.177,-261 613.823,-261"/>
<text text-anchor="middle" x="641" y="-267" font-family="Helvetica,sans-Serif" font-size="10.00">enums.h</text>
</g>
<!-- Node2 -->
<g id="node2" class="node"><title>Node2</title>
<g id="a_node2"><a xlink:href="config_8h_source.html" target="_top" xlink:title="RMF/config.h">
<polygon fill="none" stroke="black" points="647.269,-66 647.269,-84 722.731,-84 722.731,-66 647.269,-66"/>
<text text-anchor="middle" x="685" y="-72" font-family="Helvetica,sans-Serif" font-size="10.00">RMF/config.h</text>
</a>
</g>
</g>
<!-- Node1&#45;&gt;Node2 -->
<g id="edge1" class="edge"><title>Node1&#45;&gt;Node2</title>
<path fill="none" stroke="midnightblue" d="M638.608,-260.932C635.288,-248.581 630.107,-224.287 634,-204 642.007,-162.271 663.455,-116.827 675.838,-92.9124"/>
<polygon fill="midnightblue" stroke="midnightblue" points="678.941,-94.531 680.524,-84.055 672.754,-91.2574 678.941,-94.531"/>
</g>
<!-- Node4 -->
<g id="node4" class="node"><title>Node4</title>
<g id="a_node4"><a xlink:href="Enum_8h.html" target="_top" xlink:title="Declaration of RMF::Enum. ">
<polygon fill="none" stroke="black" points="642.769,-205 642.769,-223 693.231,-223 693.231,-205 642.769,-205"/>
<text text-anchor="middle" x="668" y="-211" font-family="Helvetica,sans-Serif" font-size="10.00">Enum.h</text>
</a>
</g>
</g>
<!-- Node1&#45;&gt;Node4 -->
<g id="edge3" class="edge"><title>Node1&#45;&gt;Node4</title>
<path fill="none" stroke="midnightblue" d="M645.219,-260.562C649.005,-252.989 654.68,-241.639 659.419,-232.162"/>
<polygon fill="midnightblue" stroke="midnightblue" points="662.558,-233.711 663.899,-223.201 656.297,-230.58 662.558,-233.711"/>
</g>
<!-- Node7 -->
<g id="node7" class="node"><title>Node7</title>
<polygon fill="none" stroke="#bfbfbf" points="-0.172363,-66 -0.172363,-84 54.1724,-84 54.1724,-66 -0.172363,-66"/>
<text text-anchor="middle" x="27" y="-72" font-family="Helvetica,sans-Serif" font-size="10.00">iostream</text>
</g>
<!-- Node1&#45;&gt;Node7 -->
<g id="edge24" class="edge"><title>Node1&#45;&gt;Node7</title>
<path fill="none" stroke="midnightblue" d="M613.641,-262.507C529.722,-242.213 269.157,-176.39 63,-94 58.9851,-92.3955 54.8079,-90.515 50.7815,-88.5858"/>
<polygon fill="midnightblue" stroke="midnightblue" points="52.3172,-85.4406 41.8072,-84.1025 49.1889,-91.7027 52.3172,-85.4406"/>
</g>
<!-- Node8 -->
<g id="node8" class="node"><title>Node8</title>
<polygon fill="none" stroke="#bfbfbf" points="740.773,-66 740.773,-84 781.227,-84 781.227,-66 740.773,-66"/>
<text text-anchor="middle" x="761" y="-72" font-family="Helvetica,sans-Serif" font-size="10.00">string</text>
</g>
<!-- Node1&#45;&gt;Node8 -->
<g id="edge23" class="edge"><title>Node1&#45;&gt;Node8</title>
<path fill="none" stroke="midnightblue" d="M654.568,-260.775C677.912,-245.743 724.997,-211.352 744,-168 754.58,-143.864 758.578,-113.368 760.087,-94.2682"/>
<polygon fill="midnightblue" stroke="midnightblue" points="763.583,-94.4438 760.73,-84.2402 756.597,-93.9955 763.583,-94.4438"/>
</g>
<!-- Node3 -->
<g id="node3" class="node"><title>Node3</title>
<g id="a_node3"><a xlink:href="compiler__macros_8h.html" target="_top" xlink:title="Various compiler workarounds. ">
<polygon fill="none" stroke="black" points="622.544,-1 622.544,-19 747.456,-19 747.456,-1 622.544,-1"/>
<text text-anchor="middle" x="685" y="-7" font-family="Helvetica,sans-Serif" font-size="10.00">RMF/compiler_macros.h</text>
</a>
</g>
</g>
<!-- Node2&#45;&gt;Node3 -->
<g id="edge2" class="edge"><title>Node2&#45;&gt;Node3</title>
<path fill="none" stroke="midnightblue" d="M685,-65.7639C685,-56.5635 685,-41.381 685,-29.3326"/>
<polygon fill="midnightblue" stroke="midnightblue" points="688.5,-29.0389 685,-19.039 681.5,-29.039 688.5,-29.0389"/>
</g>
<!-- Node4&#45;&gt;Node2 -->
<g id="edge4" class="edge"><title>Node4&#45;&gt;Node2</title>
<path fill="none" stroke="midnightblue" d="M667.886,-204.705C667.794,-189.711 668.115,-157.134 672,-130 673.726,-117.943 676.914,-104.637 679.7,-94.251"/>
<polygon fill="midnightblue" stroke="midnightblue" points="683.154,-94.8967 682.479,-84.3234 676.413,-93.0101 683.154,-94.8967"/>
</g>
<!-- Node5 -->
<g id="node5" class="node"><title>Node5</title>
<g id="a_node5"><a xlink:href="infrastructure__macros_8h.html" target="_top" xlink:title="Various general useful macros for IMP. ">
<polygon fill="none" stroke="black" points="314.48,-140 314.48,-158 435.52,-158 435.52,-140 314.48,-140"/>
<text text-anchor="middle" x="375" y="-146" font-family="Helvetica,sans-Serif" font-size="10.00">infrastructure_macros.h</text>
</a>
</g>
</g>
<!-- Node4&#45;&gt;Node5 -->
<g id="edge5" class="edge"><title>Node4&#45;&gt;Node5</title>
<path fill="none" stroke="midnightblue" d="M642.765,-207.574C593.851,-197.057 485.431,-173.744 422.584,-160.231"/>
<polygon fill="midnightblue" stroke="midnightblue" points="423.042,-156.75 412.53,-158.07 421.571,-163.594 423.042,-156.75"/>
</g>
<!-- Node14 -->
<g id="node14" class="node"><title>Node14</title>
<g id="a_node14"><a xlink:href="exceptions_8h.html" target="_top" xlink:title="Declarations of the various exception types. ">
<polygon fill="none" stroke="black" points="792.926,-140 792.926,-158 865.074,-158 865.074,-140 792.926,-140"/>
<text text-anchor="middle" x="829" y="-146" font-family="Helvetica,sans-Serif" font-size="10.00">exceptions.h</text>
</a>
</g>
</g>
<!-- Node4&#45;&gt;Node14 -->
<g id="edge15" class="edge"><title>Node4&#45;&gt;Node14</title>
<path fill="none" stroke="midnightblue" d="M688.718,-204.893C716.734,-193.93 766.881,-174.307 799.012,-161.734"/>
<polygon fill="midnightblue" stroke="midnightblue" points="800.324,-164.979 808.361,-158.076 797.773,-158.461 800.324,-164.979"/>
</g>
<!-- Node18 -->
<g id="node18" class="node"><title>Node18</title>
<polygon fill="none" stroke="black" points="681,-131 681,-167 735,-167 735,-131 681,-131"/>
<text text-anchor="middle" x="707.515" y="-146" font-family="Helvetica,sans-Serif" font-size="10.00">Node18</text>
</g>
<!-- Node4&#45;&gt;Node18 -->
<g id="edge22" class="edge"><title>Node4&#45;&gt;Node18</title>
<path fill="none" stroke="midnightblue" d="M673.229,-204.764C677.961,-197.311 685.185,-185.934 691.824,-175.477"/>
<polygon fill="midnightblue" stroke="midnightblue" points="694.791,-177.333 697.197,-167.015 688.882,-173.581 694.791,-177.333"/>
</g>
<!-- Node5&#45;&gt;Node3 -->
<g id="edge9" class="edge"><title>Node5&#45;&gt;Node3</title>
<path fill="none" stroke="midnightblue" d="M435.581,-142.53C482.84,-136.19 548.826,-122.656 600,-94 620.84,-82.3303 620.929,-72.7043 638,-56 648.242,-45.9784 659.873,-34.8402 669.002,-26.1523"/>
<polygon fill="midnightblue" stroke="midnightblue" points="671.442,-28.662 676.283,-19.2378 666.622,-23.5862 671.442,-28.662"/>
</g>
<!-- Node6 -->
<g id="node6" class="node"><title>Node6</title>
<polygon fill="none" stroke="#bfbfbf" points="72.2192,-66 72.2192,-84 123.781,-84 123.781,-66 72.2192,-66"/>
<text text-anchor="middle" x="98" y="-72" font-family="Helvetica,sans-Serif" font-size="10.00">sstream</text>
</g>
<!-- Node5&#45;&gt;Node6 -->
<g id="edge6" class="edge"><title>Node5&#45;&gt;Node6</title>
<path fill="none" stroke="midnightblue" d="M320.532,-139.94C270.734,-131.617 195.538,-116.635 133,-94 128.88,-92.5088 124.628,-90.6352 120.569,-88.6644"/>
<polygon fill="midnightblue" stroke="midnightblue" points="122.089,-85.5104 111.599,-84.0237 118.872,-91.7276 122.089,-85.5104"/>
</g>
<!-- Node5&#45;&gt;Node7 -->
<g id="edge7" class="edge"><title>Node5&#45;&gt;Node7</title>
<path fill="none" stroke="midnightblue" d="M314.21,-142.782C250.388,-136.086 147.734,-121.846 63,-94 58.7431,-92.601 54.36,-90.7735 50.1811,-88.8199"/>
<polygon fill="midnightblue" stroke="midnightblue" points="51.4617,-85.5462 40.956,-84.1751 48.3137,-91.7984 51.4617,-85.5462"/>
</g>
<!-- Node5&#45;&gt;Node8 -->
<g id="edge8" class="edge"><title>Node5&#45;&gt;Node8</title>
<path fill="none" stroke="midnightblue" d="M435.639,-145.943C507.924,-141.886 631.449,-129.83 731,-94 734.418,-92.7697 737.877,-91.1317 741.17,-89.3437"/>
<polygon fill="midnightblue" stroke="midnightblue" points="743.083,-92.2777 749.845,-84.1211 739.472,-86.2807 743.083,-92.2777"/>
</g>
<!-- Node9 -->
<g id="node9" class="node"><title>Node9</title>
<polygon fill="none" stroke="black" points="142,-57 142,-93 196,-93 196,-57 142,-57"/>
<text text-anchor="middle" x="168.734" y="-72" font-family="Helvetica,sans-Serif" font-size="10.00">Node9</text>
</g>
<!-- Node5&#45;&gt;Node9 -->
<g id="edge10" class="edge"><title>Node5&#45;&gt;Node9</title>
<path fill="none" stroke="midnightblue" d="M344.711,-139.925C312.264,-130.942 259.218,-115.296 205.914,-94.0883"/>
<polygon fill="midnightblue" stroke="midnightblue" points="206.897,-90.7106 196.314,-90.2084 204.274,-97.2006 206.897,-90.7106"/>
</g>
<!-- Node10 -->
<g id="node10" class="node"><title>Node10</title>
<polygon fill="none" stroke="#bfbfbf" points="214.384,-66 214.384,-84 257.616,-84 257.616,-66 214.384,-66"/>
<text text-anchor="middle" x="236" y="-72" font-family="Helvetica,sans-Serif" font-size="10.00">vector</text>
</g>
<!-- Node5&#45;&gt;Node10 -->
<g id="edge11" class="edge"><title>Node5&#45;&gt;Node10</title>
<path fill="none" stroke="midnightblue" d="M357.41,-139.822C335.677,-129.595 297.689,-111.32 266,-94 263.263,-92.5043 260.418,-90.8846 257.617,-89.2507"/>
<polygon fill="midnightblue" stroke="midnightblue" points="259.391,-86.2337 249.01,-84.1171 255.806,-92.2456 259.391,-86.2337"/>
</g>
<!-- Node11 -->
<g id="node11" class="node"><title>Node11</title>
<polygon fill="none" stroke="#bfbfbf" points="275.306,-66 275.306,-84 364.694,-84 364.694,-66 275.306,-66"/>
<text text-anchor="middle" x="320" y="-72" font-family="Helvetica,sans-Serif" font-size="10.00">boost/config.hpp</text>
</g>
<!-- Node5&#45;&gt;Node11 -->
<g id="edge12" class="edge"><title>Node5&#45;&gt;Node11</title>
<path fill="none" stroke="midnightblue" d="M368.691,-139.741C359.905,-128.239 343.797,-107.152 332.522,-92.393"/>
<polygon fill="midnightblue" stroke="midnightblue" points="335.087,-89.9851 326.236,-84.163 329.525,-94.2344 335.087,-89.9851"/>
</g>
<!-- Node12 -->
<g id="node12" class="node"><title>Node12</title>
<polygon fill="none" stroke="#bfbfbf" points="382.53,-66 382.53,-84 477.47,-84 477.47,-66 382.53,-66"/>
<text text-anchor="middle" x="430" y="-72" font-family="Helvetica,sans-Serif" font-size="10.00">boost/version.hpp</text>
</g>
<!-- Node5&#45;&gt;Node12 -->
<g id="edge13" class="edge"><title>Node5&#45;&gt;Node12</title>
<path fill="none" stroke="midnightblue" d="M381.309,-139.741C390.095,-128.239 406.203,-107.152 417.478,-92.393"/>
<polygon fill="midnightblue" stroke="midnightblue" points="420.475,-94.2344 423.764,-84.163 414.913,-89.9851 420.475,-94.2344"/>
</g>
<!-- Node13 -->
<g id="node13" class="node"><title>Node13</title>
<polygon fill="none" stroke="#bfbfbf" points="494.971,-66 494.971,-84 591.029,-84 591.029,-66 494.971,-66"/>
<text text-anchor="middle" x="543" y="-72" font-family="Helvetica,sans-Serif" font-size="10.00">boost/foreach.hpp</text>
</g>
<!-- Node5&#45;&gt;Node13 -->
<g id="edge14" class="edge"><title>Node5&#45;&gt;Node13</title>
<path fill="none" stroke="midnightblue" d="M393.945,-139.881C423.39,-127.261 480.314,-102.865 514.661,-88.1454"/>
<polygon fill="midnightblue" stroke="midnightblue" points="516.311,-91.2459 524.124,-84.0897 513.554,-84.8119 516.311,-91.2459"/>
</g>
<!-- Node14&#45;&gt;Node2 -->
<g id="edge19" class="edge"><title>Node14&#45;&gt;Node2</title>
<path fill="none" stroke="midnightblue" d="M812.761,-139.881C787.914,-127.457 740.237,-103.619 710.673,-88.8365"/>
<polygon fill="midnightblue" stroke="midnightblue" points="711.91,-85.5418 701.4,-84.2002 708.779,-91.8028 711.91,-85.5418"/>
</g>
<!-- Node14&#45;&gt;Node3 -->
<g id="edge20" class="edge"><title>Node14&#45;&gt;Node3</title>
<path fill="none" stroke="midnightblue" d="M865.14,-147.777C955.326,-146.06 1178.17,-134.029 1108,-56 1085.05,-30.4802 872.396,-18.2948 757.638,-13.5346"/>
<polygon fill="midnightblue" stroke="midnightblue" points="757.657,-10.0325 747.523,-13.1237 757.373,-17.0268 757.657,-10.0325"/>
</g>
<!-- Node14&#45;&gt;Node8 -->
<g id="edge18" class="edge"><title>Node14&#45;&gt;Node8</title>
<path fill="none" stroke="midnightblue" d="M821.2,-139.741C810.132,-128.022 789.667,-106.353 775.7,-91.5644"/>
<polygon fill="midnightblue" stroke="midnightblue" points="778.12,-89.03 768.709,-84.163 773.031,-93.8363 778.12,-89.03"/>
</g>
<!-- Node15 -->
<g id="node15" class="node"><title>Node15</title>
<polygon fill="none" stroke="#bfbfbf" points="948.451,-66 948.451,-84 1099.55,-84 1099.55,-66 948.451,-66"/>
<text text-anchor="middle" x="1024" y="-72" font-family="Helvetica,sans-Serif" font-size="10.00">boost/exception/exception.hpp</text>
</g>
<!-- Node14&#45;&gt;Node15 -->
<g id="edge16" class="edge"><title>Node14&#45;&gt;Node15</title>
<path fill="none" stroke="midnightblue" d="M850.99,-139.881C885.607,-127.099 952.946,-102.235 992.633,-87.5816"/>
<polygon fill="midnightblue" stroke="midnightblue" points="993.922,-90.8368 1002.09,-84.0897 991.497,-84.2702 993.922,-90.8368"/>
</g>
<!-- Node16 -->
<g id="node16" class="node"><title>Node16</title>
<polygon fill="none" stroke="#bfbfbf" points="799.596,-66 799.596,-84 858.404,-84 858.404,-66 799.596,-66"/>
<text text-anchor="middle" x="829" y="-72" font-family="Helvetica,sans-Serif" font-size="10.00">exception</text>
</g>
<!-- Node14&#45;&gt;Node16 -->
<g id="edge17" class="edge"><title>Node14&#45;&gt;Node16</title>
<path fill="none" stroke="midnightblue" d="M829,-139.741C829,-128.782 829,-109.12 829,-94.5221"/>
<polygon fill="midnightblue" stroke="midnightblue" points="832.5,-94.163 829,-84.163 825.5,-94.163 832.5,-94.163"/>
</g>
<!-- Node17 -->
<g id="node17" class="node"><title>Node17</title>
<polygon fill="none" stroke="black" points="876,-57 876,-93 930,-93 930,-57 876,-57"/>
<text text-anchor="middle" x="902.515" y="-72" font-family="Helvetica,sans-Serif" font-size="10.00">Node17</text>
</g>
<!-- Node14&#45;&gt;Node17 -->
<g id="edge21" class="edge"><title>Node14&#45;&gt;Node17</title>
<path fill="none" stroke="midnightblue" d="M837.489,-139.741C847.29,-130.204 863.866,-114.077 877.89,-100.431"/>
<polygon fill="midnightblue" stroke="midnightblue" points="880.634,-102.645 885.36,-93.1629 875.752,-97.6279 880.634,-102.645"/>
</g>
</g>
</svg>
        <g id="navigator" transform="translate(0 0)" fill="#404254">
                <rect fill="#f2f5e9" fill-opacity="0.5" stroke="#606060" stroke-width=".5" x="0" y="0" width="60" height="60"/>
                <use id="zoomplus" xlink:href="#zoomPlus" x="17" y="9" onmousedown="handleZoom(evt,'in')"/>
                <use id="zoomminus" xlink:href="#zoomMin" x="42" y="9" onmousedown="handleZoom(evt,'out')"/>
                <use id="reset" xlink:href="#resetDef" x="30" y="36" onmousedown="handleReset()"/>
                <g id="arrowUp" xlink:href="#dirArrow" transform="translate(30 24)" onmousedown="handlePan(0,-1)">
                  <use xlink:href="#rim" fill="#404040">
                        <set attributeName="fill" to="#808080" begin="arrowUp.mouseover" end="arrowUp.mouseout"/>
                  </use>
                  <path fill="none" stroke="white" stroke-width="1.5" d="M0,-3.0v7 M-2.5,-0.5L0,-3.0L2.5,-0.5"/>
                </g>
                <g id="arrowRight" xlink:href="#dirArrow" transform="rotate(90) translate(36 -43)" onmousedown="handlePan(1,0)">
                  <use xlink:href="#rim" fill="#404040">
                        <set attributeName="fill" to="#808080" begin="arrowRight.mouseover" end="arrowRight.mouseout"/>
                  </use>
                  <path fill="none" stroke="white" stroke-width="1.5" d="M0,-3.0v7 M-2.5,-0.5L0,-3.0L2.5,-0.5"/>
                </g>
                <g id="arrowDown" xlink:href="#dirArrow" transform="rotate(180) translate(-30 -48)" onmousedown="handlePan(0,1)">
                  <use xlink:href="#rim" fill="#404040">
                        <set attributeName="fill" to="#808080" begin="arrowDown.mouseover" end="arrowDown.mouseout"/>
                  </use>
                  <path fill="none" stroke="white" stroke-width="1.5" d="M0,-3.0v7 M-2.5,-0.5L0,-3.0L2.5,-0.5"/>
                </g>
                <g id="arrowLeft" xlink:href="#dirArrow" transform="rotate(270) translate(-36 17)" onmousedown="handlePan(-1,0)">
                  <use xlink:href="#rim" fill="#404040">
                        <set attributeName="fill" to="#808080" begin="arrowLeft.mouseover" end="arrowLeft.mouseout"/>
                  </use>
                  <path fill="none" stroke="white" stroke-width="1.5" d="M0,-3.0v7 M-2.5,-0.5L0,-3.0L2.5,-0.5"/>
                </g>
        </g>
        <svg viewBox="0 0 15 15" width="100%" height="30px" preserveAspectRatio="xMaxYMin meet">
         <g id="arrow_out" transform="scale(0.3 0.3)">
          <a xlink:href="enums_8h__incl_org.svg" target="_base">
           <rect id="button" ry="5" rx="5" y="6" x="6" height="38" width="38"
                fill="#f2f5e9" fill-opacity="0.5" stroke="#606060" stroke-width="1.0"/>
           <path id="arrow"
             d="M 11.500037,31.436501 C 11.940474,20.09759 22.043105,11.32322 32.158766,21.979434 L 37.068811,17.246167 C 37.068811,17.246167 37.088388,32 37.088388,32 L 22.160133,31.978069 C 22.160133,31.978069 26.997745,27.140456 26.997745,27.140456 C 18.528582,18.264221 13.291696,25.230495 11.500037,31.436501 z"
             style="fill:#404040;"/>
          </a>
         </g>
        </svg>
</svg>
