<?xml version="1.0" encoding="UTF-8" standalone="no"?>
<!DOCTYPE svg PUBLIC "-//W3C//DTD SVG 1.1//EN"
 "http://www.w3.org/Graphics/SVG/1.1/DTD/svg11.dtd">
<!-- Generated by graphviz version 2.34.0 (20131025.1349)
 -->
<!-- Title: Enum.h Pages: 1 -->
<svg width="1529pt" height="436pt"
 viewBox="0.00 0.00 1529.00 436.00" xmlns="http://www.w3.org/2000/svg" xmlns:xlink="http://www.w3.org/1999/xlink">
<g id="graph0" class="graph" transform="scale(1 1) rotate(0) translate(4 432)">
<title>Enum.h</title>
<!-- Node1 -->
<g id="node1" class="node"><title>Node1</title>
<polygon fill="#bfbfbf" stroke="black" points="436.769,-407 436.769,-427 487.231,-427 487.231,-407 436.769,-407"/>
<text text-anchor="middle" x="462" y="-413" font-family="Helvetica,sans-Serif" font-size="10.00">Enum.h</text>
</g>
<!-- Node2 -->
<g id="node2" class="node"><title>Node2</title>
<g id="a_node2"><a xlink:href="enums_8h.html" target="_top" xlink:title="The various enums used in RMF. ">
<polygon fill="none" stroke="black" points="825.823,-349 825.823,-369 880.177,-369 880.177,-349 825.823,-349"/>
<text text-anchor="middle" x="853" y="-355" font-family="Helvetica,sans-Serif" font-size="10.00">enums.h</text>
</a>
</g>
</g>
<!-- Node1&#45;&gt;Node2 -->
<g id="edge1" class="edge"><title>Node1&#45;&gt;Node2</title>
<path fill="none" stroke="midnightblue" d="M497.534,-410.911C574.758,-399.851 756.494,-373.822 825.64,-363.919"/>
<polygon fill="midnightblue" stroke="midnightblue" points="496.756,-407.486 487.353,-412.369 497.749,-414.416 496.756,-407.486"/>
</g>
<!-- Node17 -->
<g id="node17" class="node"><title>Node17</title>
<g id="a_node17"><a xlink:href="alternatives_8h.html" target="_top" xlink:title="Helper functions for manipulating RMF files. ">
<polygon fill="none" stroke="black" points="33.2612,-117 33.2612,-137 108.739,-137 108.739,-117 33.2612,-117"/>
<text text-anchor="middle" x="71" y="-123" font-family="Helvetica,sans-Serif" font-size="10.00">alternatives.h</text>
</a>
</g>
</g>
<!-- Node1&#45;&gt;Node17 -->
<g id="edge75" class="edge"><title>Node1&#45;&gt;Node17</title>
<path fill="none" stroke="midnightblue" d="M426.614,-413.27C330.542,-404.892 72,-375.517 72,-302 72,-302 72,-302 72,-242 72,-203.009 71.4078,-156.519 71.1349,-137.161"/>
<polygon fill="midnightblue" stroke="midnightblue" points="426.452,-416.769 436.712,-414.125 427.042,-409.794 426.452,-416.769"/>
</g>
<!-- Node3 -->
<g id="node3" class="node"><title>Node3</title>
<g id="a_node3"><a xlink:href="NodeConstHandle_8h.html" target="_top" xlink:title="Declaration of NodeConstHandlke. ">
<polygon fill="none" stroke="black" points="847.971,-291 847.971,-311 954.029,-311 954.029,-291 847.971,-291"/>
<text text-anchor="middle" x="901" y="-297" font-family="Helvetica,sans-Serif" font-size="10.00">NodeConstHandle.h</text>
</a>
</g>
</g>
<!-- Node2&#45;&gt;Node3 -->
<g id="edge2" class="edge"><title>Node2&#45;&gt;Node3</title>
<path fill="none" stroke="midnightblue" d="M867.473,-341.114C875.934,-331.244 886.279,-319.174 893.221,-311.075"/>
<polygon fill="midnightblue" stroke="midnightblue" points="864.777,-338.882 860.926,-348.753 870.092,-343.438 864.777,-338.882"/>
</g>
<!-- Node9 -->
<g id="node9" class="node"><title>Node9</title>
<g id="a_node9"><a xlink:href="benchmark__rmf_8cpp_source.html" target="_top" xlink:title="benchmark_rmf.cpp">
<polygon fill="none" stroke="black" points="895.815,-1 895.815,-21 1000.18,-21 1000.18,-1 895.815,-1"/>
<text text-anchor="middle" x="948" y="-7" font-family="Helvetica,sans-Serif" font-size="10.00">benchmark_rmf.cpp</text>
</a>
</g>
</g>
<!-- Node2&#45;&gt;Node9 -->
<g id="edge74" class="edge"><title>Node2&#45;&gt;Node9</title>
<path fill="none" stroke="midnightblue" d="M890.744,-355.587C1031.95,-346.063 1521,-308.426 1521,-244 1521,-244 1521,-244 1521,-126 1521,-20.3872 1141.82,-11.1626 1000.37,-11.3958"/>
<polygon fill="midnightblue" stroke="midnightblue" points="890.177,-352.116 880.432,-356.274 890.642,-359.101 890.177,-352.116"/>
</g>
<!-- Node18 -->
<g id="node18" class="node"><title>Node18</title>
<g id="a_node18"><a xlink:href="NodeHandle_8h.html" target="_top" xlink:title="Declaration of NodeHandle. ">
<polygon fill="none" stroke="black" points="517.032,-233 517.032,-253 596.968,-253 596.968,-233 517.032,-233"/>
<text text-anchor="middle" x="557" y="-239" font-family="Helvetica,sans-Serif" font-size="10.00">NodeHandle.h</text>
</a>
</g>
</g>
<!-- Node2&#45;&gt;Node18 -->
<g id="edge71" class="edge"><title>Node2&#45;&gt;Node18</title>
<path fill="none" stroke="midnightblue" d="M820.097,-345.328C759.792,-322.102 632.938,-273.246 580.476,-253.042"/>
<polygon fill="midnightblue" stroke="midnightblue" points="818.936,-348.631 829.526,-348.959 821.452,-342.099 818.936,-348.631"/>
</g>
<!-- Node19 -->
<g id="node19" class="node"><title>Node19</title>
<g id="a_node19"><a xlink:href="FileHandle_8h.html" target="_top" xlink:title="Declaration for RMF::FileHandle. ">
<polygon fill="none" stroke="black" points="603.929,-175 603.929,-195 676.071,-195 676.071,-175 603.929,-175"/>
<text text-anchor="middle" x="640" y="-181" font-family="Helvetica,sans-Serif" font-size="10.00">FileHandle.h</text>
</a>
</g>
</g>
<!-- Node2&#45;&gt;Node19 -->
<g id="edge73" class="edge"><title>Node2&#45;&gt;Node19</title>
<path fill="none" stroke="midnightblue" d="M834.062,-342.708C790.827,-307.795 685.924,-223.084 651.298,-195.124"/>
<polygon fill="midnightblue" stroke="midnightblue" points="831.869,-345.435 841.848,-348.995 836.267,-339.989 831.869,-345.435"/>
</g>
<!-- Node23 -->
<g id="node23" class="node"><title>Node23</title>
<g id="a_node23"><a xlink:href="FileConstHandle_8h.html" target="_top" xlink:title="Handle read/write of Model data from/to files. ">
<polygon fill="none" stroke="black" points="1041.87,-233 1041.87,-253 1140.13,-253 1140.13,-233 1041.87,-233"/>
<text text-anchor="middle" x="1091" y="-239" font-family="Helvetica,sans-Serif" font-size="10.00">FileConstHandle.h</text>
</a>
</g>
</g>
<!-- Node2&#45;&gt;Node23 -->
<g id="edge72" class="edge"><title>Node2&#45;&gt;Node23</title>
<path fill="none" stroke="midnightblue" d="M886.006,-345.124C908.037,-336.303 937.528,-324.06 963,-312 1004.16,-292.509 1051.11,-266.587 1075.08,-253.071"/>
<polygon fill="midnightblue" stroke="midnightblue" points="884.45,-341.976 876.45,-348.922 887.036,-348.481 884.45,-341.976"/>
</g>
<!-- Node4 -->
<g id="node4" class="node"><title>Node4</title>
<g id="a_node4"><a xlink:href="Decorator_8h.html" target="_top" xlink:title="Mostly empty base classes for decorators and factories. ">
<polygon fill="none" stroke="black" points="441.15,-175 441.15,-195 508.85,-195 508.85,-175 441.15,-175"/>
<text text-anchor="middle" x="475" y="-181" font-family="Helvetica,sans-Serif" font-size="10.00">Decorator.h</text>
</a>
</g>
</g>
<!-- Node3&#45;&gt;Node4 -->
<g id="edge3" class="edge"><title>Node3&#45;&gt;Node4</title>
<path fill="none" stroke="midnightblue" d="M857.344,-288.318C772.149,-265.519 585.378,-215.538 508.787,-195.042"/>
<polygon fill="midnightblue" stroke="midnightblue" points="856.652,-291.755 867.216,-290.959 858.461,-284.993 856.652,-291.755"/>
</g>
<!-- Node3&#45;&gt;Node9 -->
<g id="edge70" class="edge"><title>Node3&#45;&gt;Node9</title>
<path fill="none" stroke="midnightblue" d="M915.953,-283.291C922.4,-275.063 929.298,-264.638 933,-254 963.019,-167.728 952.924,-53.832 949.152,-21.1314"/>
<polygon fill="midnightblue" stroke="midnightblue" points="913.255,-281.062 909.551,-290.988 918.636,-285.538 913.255,-281.062"/>
</g>
<!-- Node3&#45;&gt;Node18 -->
<g id="edge31" class="edge"><title>Node3&#45;&gt;Node18</title>
<path fill="none" stroke="midnightblue" d="M837.569,-289.674C767.31,-278.237 656.168,-260.144 597.061,-250.522"/>
<polygon fill="midnightblue" stroke="midnightblue" points="837.195,-293.159 847.627,-291.311 838.32,-286.25 837.195,-293.159"/>
</g>
<!-- Node20 -->
<g id="node20" class="node"><title>Node20</title>
<g id="a_node20"><a xlink:href="validate_8h.html" target="_top" xlink:title="Support for validating the data in a file. ">
<polygon fill="none" stroke="black" points="1013.6,-117 1013.6,-137 1072.4,-137 1072.4,-117 1013.6,-117"/>
<text text-anchor="middle" x="1043" y="-123" font-family="Helvetica,sans-Serif" font-size="10.00">validate.h</text>
</a>
</g>
</g>
<!-- Node3&#45;&gt;Node20 -->
<g id="edge69" class="edge"><title>Node3&#45;&gt;Node20</title>
<path fill="none" stroke="midnightblue" d="M933.91,-286.577C949.681,-278.873 967.934,-267.938 981,-254 1014.85,-217.893 1034,-159.821 1040.48,-137.323"/>
<polygon fill="midnightblue" stroke="midnightblue" points="932.076,-283.57 924.479,-290.955 935.023,-289.919 932.076,-283.57"/>
</g>
<!-- Node3&#45;&gt;Node23 -->
<g id="edge60" class="edge"><title>Node3&#45;&gt;Node23</title>
<path fill="none" stroke="midnightblue" d="M941.55,-288.048C977.137,-277.56 1028.11,-262.535 1060.38,-253.025"/>
<polygon fill="midnightblue" stroke="midnightblue" points="940.552,-284.694 931.95,-290.878 942.531,-291.408 940.552,-284.694"/>
</g>
<!-- Node28 -->
<g id="node28" class="node"><title>Node28</title>
<g id="a_node28"><a xlink:href="utility_8h.html" target="_top" xlink:title="Helper functions for manipulating RMF files. ">
<polygon fill="none" stroke="black" points="877.807,-233 877.807,-253 924.193,-253 924.193,-233 877.807,-233"/>
<text text-anchor="middle" x="901" y="-239" font-family="Helvetica,sans-Serif" font-size="10.00">utility.h</text>
</a>
</g>
</g>
<!-- Node3&#45;&gt;Node28 -->
<g id="edge68" class="edge"><title>Node3&#45;&gt;Node28</title>
<path fill="none" stroke="midnightblue" d="M901,-280.707C901,-271.338 901,-260.526 901,-253.075"/>
<polygon fill="midnightblue" stroke="midnightblue" points="897.5,-280.753 901,-290.753 904.5,-280.753 897.5,-280.753"/>
</g>
<!-- Node5 -->
<g id="node5" class="node"><title>Node5</title>
<g id="a_node5"><a xlink:href="alias_8h.html" target="_top" xlink:title="Helper functions for manipulating RMF files. ">
<polygon fill="none" stroke="black" points="615.547,-117 615.547,-137 660.453,-137 660.453,-117 615.547,-117"/>
<text text-anchor="middle" x="638" y="-123" font-family="Helvetica,sans-Serif" font-size="10.00">alias.h</text>
</a>
</g>
</g>
<!-- Node4&#45;&gt;Node5 -->
<g id="edge4" class="edge"><title>Node4&#45;&gt;Node5</title>
<path fill="none" stroke="midnightblue" d="M511.38,-171.501C543.23,-160.559 588.504,-145.005 615.402,-135.764"/>
<polygon fill="midnightblue" stroke="midnightblue" points="509.872,-168.319 501.552,-174.878 512.146,-174.939 509.872,-168.319"/>
</g>
<!-- Node7 -->
<g id="node7" class="node"><title>Node7</title>
<g id="a_node7"><a xlink:href="physics_8h.html" target="_top" xlink:title="Helper functions for manipulating RMF files. ">
<polygon fill="none" stroke="black" points="618.158,-59 618.158,-79 675.842,-79 675.842,-59 618.158,-59"/>
<text text-anchor="middle" x="647" y="-65" font-family="Helvetica,sans-Serif" font-size="10.00">physics.h</text>
</a>
</g>
</g>
<!-- Node4&#45;&gt;Node7 -->
<g id="edge14" class="edge"><title>Node4&#45;&gt;Node7</title>
<path fill="none" stroke="midnightblue" d="M471.932,-164.624C470.699,-149.629 471.676,-129.249 483,-116 516.527,-76.7742 580.547,-69.651 617.912,-69.0912"/>
<polygon fill="midnightblue" stroke="midnightblue" points="468.491,-165.329 473.17,-174.834 475.441,-164.486 468.491,-165.329"/>
</g>
<!-- Node10 -->
<g id="node10" class="node"><title>Node10</title>
<g id="a_node10"><a xlink:href="external_8h.html" target="_top" xlink:title="Helper functions for manipulating RMF files. ">
<polygon fill="none" stroke="black" points="297.042,-117 297.042,-137 356.958,-137 356.958,-117 297.042,-117"/>
<text text-anchor="middle" x="327" y="-123" font-family="Helvetica,sans-Serif" font-size="10.00">external.h</text>
</a>
</g>
</g>
<!-- Node4&#45;&gt;Node10 -->
<g id="edge10" class="edge"><title>Node4&#45;&gt;Node10</title>
<path fill="none" stroke="midnightblue" d="M441.288,-171.244C413.786,-160.838 375.605,-146.391 351.098,-137.118"/>
<polygon fill="midnightblue" stroke="midnightblue" points="440.3,-174.613 450.892,-174.878 442.778,-168.066 440.3,-174.613"/>
</g>
<!-- Node11 -->
<g id="node11" class="node"><title>Node11</title>
<g id="a_node11"><a xlink:href="feature_8h.html" target="_top" xlink:title="Helper functions for manipulating RMF files. ">
<polygon fill="none" stroke="black" points="375.264,-117 375.264,-137 430.736,-137 430.736,-117 375.264,-117"/>
<text text-anchor="middle" x="403" y="-123" font-family="Helvetica,sans-Serif" font-size="10.00">feature.h</text>
</a>
</g>
</g>
<!-- Node4&#45;&gt;Node11 -->
<g id="edge12" class="edge"><title>Node4&#45;&gt;Node11</title>
<path fill="none" stroke="midnightblue" d="M455.171,-168.578C442.164,-158.461 425.602,-145.579 414.668,-137.075"/>
<polygon fill="midnightblue" stroke="midnightblue" points="453.068,-171.376 463.111,-174.753 457.366,-165.851 453.068,-171.376"/>
</g>
<!-- Node12 -->
<g id="node12" class="node"><title>Node12</title>
<g id="a_node12"><a xlink:href="publication_8h.html" target="_top" xlink:title="Helper functions for manipulating RMF files. ">
<polygon fill="none" stroke="black" points="524.924,-117 524.924,-137 597.076,-137 597.076,-117 524.924,-117"/>
<text text-anchor="middle" x="561" y="-123" font-family="Helvetica,sans-Serif" font-size="10.00">publication.h</text>
</a>
</g>
</g>
<!-- Node4&#45;&gt;Node12 -->
<g id="edge15" class="edge"><title>Node4&#45;&gt;Node12</title>
<path fill="none" stroke="midnightblue" d="M497.801,-169.153C513.464,-158.953 533.755,-145.741 547.063,-137.075"/>
<polygon fill="midnightblue" stroke="midnightblue" points="495.671,-166.363 489.201,-174.753 499.491,-172.229 495.671,-166.363"/>
</g>
<!-- Node13 -->
<g id="node13" class="node"><title>Node13</title>
<g id="a_node13"><a xlink:href="sequence_8h.html" target="_top" xlink:title="Helper functions for manipulating RMF files. ">
<polygon fill="none" stroke="black" points="766.146,-59 766.146,-79 833.854,-79 833.854,-59 766.146,-59"/>
<text text-anchor="middle" x="800" y="-65" font-family="Helvetica,sans-Serif" font-size="10.00">sequence.h</text>
</a>
</g>
</g>
<!-- Node4&#45;&gt;Node13 -->
<g id="edge17" class="edge"><title>Node4&#45;&gt;Node13</title>
<path fill="none" stroke="midnightblue" d="M481.315,-164.988C487.57,-149.256 498.74,-127.667 516,-116 536.484,-102.154 695.172,-82.2086 766.026,-73.8816"/>
<polygon fill="midnightblue" stroke="midnightblue" points="477.893,-164.155 477.755,-174.749 484.47,-166.553 477.893,-164.155"/>
</g>
<!-- Node14 -->
<g id="node14" class="node"><title>Node14</title>
<g id="a_node14"><a xlink:href="shape_8h.html" target="_top" xlink:title="Helper functions for manipulating RMF files. ">
<polygon fill="none" stroke="black" points="678.207,-117 678.207,-137 729.793,-137 729.793,-117 678.207,-117"/>
<text text-anchor="middle" x="704" y="-123" font-family="Helvetica,sans-Serif" font-size="10.00">shape.h</text>
</a>
</g>
</g>
<!-- Node4&#45;&gt;Node14 -->
<g id="edge21" class="edge"><title>Node4&#45;&gt;Node14</title>
<path fill="none" stroke="midnightblue" d="M518.93,-174.183C558.343,-165.234 617.704,-151.402 669,-138 671.935,-137.233 675,-136.402 678.042,-135.559"/>
<polygon fill="midnightblue" stroke="midnightblue" points="518.09,-170.785 509.11,-176.406 519.636,-177.612 518.09,-170.785"/>
</g>
<!-- Node15 -->
<g id="node15" class="node"><title>Node15</title>
<g id="a_node15"><a xlink:href="bond_8h.html" target="_top" xlink:title="Helper functions for manipulating RMF files. ">
<polygon fill="none" stroke="black" points="126.707,-117 126.707,-137 173.293,-137 173.293,-117 126.707,-117"/>
<text text-anchor="middle" x="150" y="-123" font-family="Helvetica,sans-Serif" font-size="10.00">bond.h</text>
</a>
</g>
</g>
<!-- Node4&#45;&gt;Node15 -->
<g id="edge24" class="edge"><title>Node4&#45;&gt;Node15</title>
<path fill="none" stroke="midnightblue" d="M430.619,-179.096C372.882,-172.247 269.094,-158.329 182,-138 179.166,-137.338 176.218,-136.554 173.309,-135.72"/>
<polygon fill="midnightblue" stroke="midnightblue" points="430.511,-182.607 440.85,-180.293 431.324,-175.655 430.511,-182.607"/>
</g>
<!-- Node16 -->
<g id="node16" class="node"><title>Node16</title>
<g id="a_node16"><a xlink:href="representation_8h.html" target="_top" xlink:title="Helper functions for manipulating RMF files. ">
<polygon fill="none" stroke="black" points="190.865,-117 190.865,-137 279.135,-137 279.135,-117 190.865,-117"/>
<text text-anchor="middle" x="235" y="-123" font-family="Helvetica,sans-Serif" font-size="10.00">representation.h</text>
</a>
</g>
</g>
<!-- Node4&#45;&gt;Node16 -->
<g id="edge26" class="edge"><title>Node4&#45;&gt;Node16</title>
<path fill="none" stroke="midnightblue" d="M431.365,-173.819C386.412,-163.329 316.999,-147.133 273.874,-137.071"/>
<polygon fill="midnightblue" stroke="midnightblue" points="430.589,-177.231 441.123,-176.095 432.18,-170.415 430.589,-177.231"/>
</g>
<!-- Node4&#45;&gt;Node17 -->
<g id="edge28" class="edge"><title>Node4&#45;&gt;Node17</title>
<path fill="none" stroke="midnightblue" d="M430.874,-179.485C363.275,-172.304 230.124,-157.119 118,-138 115.039,-137.495 111.982,-136.935 108.914,-136.344"/>
<polygon fill="midnightblue" stroke="midnightblue" points="430.836,-183 441.147,-180.568 431.569,-176.039 430.836,-183"/>
</g>
<!-- Node6 -->
<g id="node6" class="node"><title>Node6</title>
<g id="a_node6"><a xlink:href="decorators_8h.html" target="_top" xlink:title="Import all the decorators headers. ">
<polygon fill="none" stroke="black" points="367.207,-1 367.207,-21 438.793,-21 438.793,-1 367.207,-1"/>
<text text-anchor="middle" x="403" y="-7" font-family="Helvetica,sans-Serif" font-size="10.00">decorators.h</text>
</a>
</g>
</g>
<!-- Node5&#45;&gt;Node6 -->
<g id="edge5" class="edge"><title>Node5&#45;&gt;Node6</title>
<path fill="none" stroke="midnightblue" d="M610.16,-112.495C561.614,-88.9448 462.731,-40.9757 421.597,-21.0217"/>
<polygon fill="midnightblue" stroke="midnightblue" points="608.641,-115.648 619.166,-116.864 611.697,-109.35 608.641,-115.648"/>
</g>
<!-- Node5&#45;&gt;Node7 -->
<g id="edge6" class="edge"><title>Node5&#45;&gt;Node7</title>
<path fill="none" stroke="midnightblue" d="M641.101,-106.707C642.606,-97.3384 644.344,-86.5262 645.541,-79.0752"/>
<polygon fill="midnightblue" stroke="midnightblue" points="637.617,-106.324 639.486,-116.753 644.529,-107.435 637.617,-106.324"/>
</g>
<!-- Node7&#45;&gt;Node6 -->
<g id="edge7" class="edge"><title>Node7&#45;&gt;Node6</title>
<path fill="none" stroke="midnightblue" d="M608.044,-59.0594C561.496,-48.3762 484.248,-30.647 439.032,-20.2696"/>
<polygon fill="midnightblue" stroke="midnightblue" points="607.522,-62.5305 618.052,-61.3562 609.088,-55.7078 607.522,-62.5305"/>
</g>
<!-- Node8 -->
<g id="node8" class="node"><title>Node8</title>
<g id="a_node8"><a xlink:href="TraverseHelper_8h.html" target="_top" xlink:title="A helper function for managing data when traversing an RMF. ">
<polygon fill="none" stroke="black" points="628.831,-1 628.831,-21 721.169,-21 721.169,-1 628.831,-1"/>
<text text-anchor="middle" x="675" y="-7" font-family="Helvetica,sans-Serif" font-size="10.00">TraverseHelper.h</text>
</a>
</g>
</g>
<!-- Node7&#45;&gt;Node8 -->
<g id="edge8" class="edge"><title>Node7&#45;&gt;Node8</title>
<path fill="none" stroke="midnightblue" d="M656.191,-49.6182C660.976,-40.0471 666.615,-28.7692 670.462,-21.0752"/>
<polygon fill="midnightblue" stroke="midnightblue" points="652.965,-48.2432 651.624,-58.7527 659.226,-51.3737 652.965,-48.2432"/>
</g>
<!-- Node7&#45;&gt;Node9 -->
<g id="edge9" class="edge"><title>Node7&#45;&gt;Node9</title>
<path fill="none" stroke="midnightblue" d="M685.847,-60.7726C740.509,-50.603 840.072,-32.0796 899.516,-21.0202"/>
<polygon fill="midnightblue" stroke="midnightblue" points="685.052,-57.3604 675.861,-62.6305 686.333,-64.2423 685.052,-57.3604"/>
</g>
<!-- Node10&#45;&gt;Node6 -->
<g id="edge11" class="edge"><title>Node10&#45;&gt;Node6</title>
<path fill="none" stroke="midnightblue" d="M338.828,-108.257C355.24,-83.6399 384.317,-40.0248 396.907,-21.1394"/>
<polygon fill="midnightblue" stroke="midnightblue" points="335.854,-106.409 333.219,-116.671 341.679,-110.292 335.854,-106.409"/>
</g>
<!-- Node11&#45;&gt;Node6 -->
<g id="edge13" class="edge"><title>Node11&#45;&gt;Node6</title>
<path fill="none" stroke="midnightblue" d="M403,-106.603C403,-81.7305 403,-39.6088 403,-21.1394"/>
<polygon fill="midnightblue" stroke="midnightblue" points="399.5,-106.671 403,-116.671 406.5,-106.671 399.5,-106.671"/>
</g>
<!-- Node12&#45;&gt;Node6 -->
<g id="edge16" class="edge"><title>Node12&#45;&gt;Node6</title>
<path fill="none" stroke="midnightblue" d="M538.122,-111.278C524.566,-102.424 507.135,-90.8101 492,-80 463.518,-59.6568 431.088,-34.3031 414.344,-21.0422"/>
<polygon fill="midnightblue" stroke="midnightblue" points="536.519,-114.41 546.811,-116.923 540.332,-108.54 536.519,-114.41"/>
</g>
<!-- Node13&#45;&gt;Node6 -->
<g id="edge18" class="edge"><title>Node13&#45;&gt;Node6</title>
<path fill="none" stroke="midnightblue" d="M755.659,-61.7454C676.362,-50.5599 511.757,-27.3411 438.962,-17.0727"/>
<polygon fill="midnightblue" stroke="midnightblue" points="755.418,-65.2459 765.808,-63.177 756.395,-58.3145 755.418,-65.2459"/>
</g>
<!-- Node13&#45;&gt;Node8 -->
<g id="edge19" class="edge"><title>Node13&#45;&gt;Node8</title>
<path fill="none" stroke="midnightblue" d="M770.296,-54.6927C747.171,-44.3328 715.689,-30.2285 695.353,-21.1181"/>
<polygon fill="midnightblue" stroke="midnightblue" points="769.081,-57.9836 779.638,-58.878 771.943,-51.5954 769.081,-57.9836"/>
</g>
<!-- Node13&#45;&gt;Node9 -->
<g id="edge20" class="edge"><title>Node13&#45;&gt;Node9</title>
<path fill="none" stroke="midnightblue" d="M833.712,-55.2441C861.214,-44.8381 899.395,-30.3912 923.902,-21.1181"/>
<polygon fill="midnightblue" stroke="midnightblue" points="832.222,-52.0655 824.108,-58.878 834.7,-58.6125 832.222,-52.0655"/>
</g>
<!-- Node14&#45;&gt;Node6 -->
<g id="edge22" class="edge"><title>Node14&#45;&gt;Node6</title>
<path fill="none" stroke="midnightblue" d="M673.198,-113.097C639.454,-99.0814 583.646,-76.2512 535,-58 498.986,-44.488 456.967,-30.0743 430.185,-21.055"/>
<polygon fill="midnightblue" stroke="midnightblue" points="671.941,-116.365 682.518,-116.977 674.632,-109.903 671.941,-116.365"/>
</g>
<!-- Node14&#45;&gt;Node8 -->
<g id="edge23" class="edge"><title>Node14&#45;&gt;Node8</title>
<path fill="none" stroke="midnightblue" d="M699.151,-106.939C692.835,-82.1105 682.044,-39.692 677.325,-21.1394"/>
<polygon fill="midnightblue" stroke="midnightblue" points="695.769,-107.842 701.627,-116.671 702.553,-106.117 695.769,-107.842"/>
</g>
<!-- Node15&#45;&gt;Node6 -->
<g id="edge25" class="edge"><title>Node15&#45;&gt;Node6</title>
<path fill="none" stroke="midnightblue" d="M179.003,-112.794C209.201,-99.0573 257.884,-76.9505 300,-58 328.575,-45.1422 361.666,-30.3879 382.465,-21.1303"/>
<polygon fill="midnightblue" stroke="midnightblue" points="177.533,-109.618 169.88,-116.945 180.432,-115.989 177.533,-109.618"/>
</g>
<!-- Node16&#45;&gt;Node6 -->
<g id="edge27" class="edge"><title>Node16&#45;&gt;Node6</title>
<path fill="none" stroke="midnightblue" d="M257.094,-111.007C292.41,-87.0434 360.538,-40.8138 389.472,-21.1799"/>
<polygon fill="midnightblue" stroke="midnightblue" points="254.774,-108.352 248.464,-116.864 258.704,-114.145 254.774,-108.352"/>
</g>
<!-- Node17&#45;&gt;Node6 -->
<g id="edge29" class="edge"><title>Node17&#45;&gt;Node6</title>
<path fill="none" stroke="midnightblue" d="M102.99,-113.168C138.799,-98.9801 198.67,-75.7803 251,-58 291.985,-44.0743 339.869,-29.9281 370.774,-21.0695"/>
<polygon fill="midnightblue" stroke="midnightblue" points="101.555,-109.973 93.5548,-116.919 104.14,-116.477 101.555,-109.973"/>
</g>
<!-- Node17&#45;&gt;Node8 -->
<g id="edge30" class="edge"><title>Node17&#45;&gt;Node8</title>
<path fill="none" stroke="midnightblue" d="M118.838,-115.867C314.546,-76.8884 534.72,-37.0532 628.71,-20.2381"/>
<polygon fill="midnightblue" stroke="midnightblue" points="118.07,-112.452 108.948,-117.841 119.44,-119.316 118.07,-112.452"/>
</g>
<!-- Node18&#45;&gt;Node4 -->
<g id="edge32" class="edge"><title>Node18&#45;&gt;Node4</title>
<path fill="none" stroke="midnightblue" d="M534.84,-226.866C519.964,-216.707 500.859,-203.66 488.289,-195.075"/>
<polygon fill="midnightblue" stroke="midnightblue" points="533.227,-230.003 543.459,-232.753 537.175,-224.223 533.227,-230.003"/>
</g>
<!-- Node18&#45;&gt;Node5 -->
<g id="edge33" class="edge"><title>Node18&#45;&gt;Node5</title>
<path fill="none" stroke="midnightblue" d="M565.738,-223.621C572.805,-209.507 583.449,-189.821 595,-174 605.056,-160.226 618.824,-146.158 628.045,-137.268"/>
<polygon fill="midnightblue" stroke="midnightblue" points="562.51,-222.256 561.263,-232.777 568.799,-225.329 562.51,-222.256"/>
</g>
<!-- Node18&#45;&gt;Node7 -->
<g id="edge49" class="edge"><title>Node18&#45;&gt;Node7</title>
<path fill="none" stroke="midnightblue" d="M607.239,-234.448C658.387,-223.536 733.175,-197.654 755,-138 758.36,-128.818 760.392,-124.157 755,-116 737.581,-89.6478 701.663,-78.3432 676.033,-73.525"/>
<polygon fill="midnightblue" stroke="midnightblue" points="606.461,-231.034 597.347,-236.437 607.841,-237.897 606.461,-231.034"/>
</g>
<!-- Node18&#45;&gt;Node9 -->
<g id="edge59" class="edge"><title>Node18&#45;&gt;Node9</title>
<path fill="none" stroke="midnightblue" d="M607.168,-237.425C649.696,-231.993 711.35,-220.378 760,-196 847.786,-152.011 920.722,-52.1278 941.833,-21.2621"/>
<polygon fill="midnightblue" stroke="midnightblue" points="606.565,-233.972 597.057,-238.646 607.405,-240.922 606.565,-233.972"/>
</g>
<!-- Node18&#45;&gt;Node10 -->
<g id="edge47" class="edge"><title>Node18&#45;&gt;Node10</title>
<path fill="none" stroke="midnightblue" d="M507.186,-230.823C478.608,-223.269 442.635,-211.774 413,-196 382.084,-179.545 351.182,-151.615 336.245,-137.206"/>
<polygon fill="midnightblue" stroke="midnightblue" points="506.407,-234.237 516.963,-233.331 508.146,-227.456 506.407,-234.237"/>
</g>
<!-- Node18&#45;&gt;Node11 -->
<g id="edge48" class="edge"><title>Node18&#45;&gt;Node11</title>
<path fill="none" stroke="midnightblue" d="M507.081,-233.405C481.923,-226.847 452.491,-215.482 432,-196 414.885,-179.728 407.392,-151.718 404.53,-137.25"/>
<polygon fill="midnightblue" stroke="midnightblue" points="506.3,-236.817 516.843,-235.77 507.948,-230.014 506.3,-236.817"/>
</g>
<!-- Node18&#45;&gt;Node12 -->
<g id="edge50" class="edge"><title>Node18&#45;&gt;Node12</title>
<path fill="none" stroke="midnightblue" d="M557.681,-222.603C558.553,-197.731 560.031,-155.609 560.679,-137.139"/>
<polygon fill="midnightblue" stroke="midnightblue" points="554.18,-222.554 557.327,-232.671 561.176,-222.8 554.18,-222.554"/>
</g>
<!-- Node18&#45;&gt;Node13 -->
<g id="edge51" class="edge"><title>Node18&#45;&gt;Node13</title>
<path fill="none" stroke="midnightblue" d="M607.456,-237.681C644.941,-232.487 695.953,-221.069 734,-196 776.478,-168.011 793.33,-103.479 798.292,-79.3389"/>
<polygon fill="midnightblue" stroke="midnightblue" points="606.738,-234.245 597.264,-238.988 607.627,-241.188 606.738,-234.245"/>
</g>
<!-- Node18&#45;&gt;Node14 -->
<g id="edge52" class="edge"><title>Node18&#45;&gt;Node14</title>
<path fill="none" stroke="midnightblue" d="M607.16,-235.24C633.677,-229.175 664.823,-217.696 685,-196 700.359,-179.484 703.455,-151.581 703.981,-137.192"/>
<polygon fill="midnightblue" stroke="midnightblue" points="606.329,-231.838 597.257,-237.309 607.761,-238.69 606.329,-231.838"/>
</g>
<!-- Node18&#45;&gt;Node15 -->
<g id="edge53" class="edge"><title>Node18&#45;&gt;Node15</title>
<path fill="none" stroke="midnightblue" d="M506.834,-234.91C458.816,-227.486 384.631,-214.342 322,-196 265.145,-179.349 200.902,-151.379 169.452,-137.054"/>
<polygon fill="midnightblue" stroke="midnightblue" points="506.554,-238.408 516.967,-236.452 507.607,-231.488 506.554,-238.408"/>
</g>
<!-- Node18&#45;&gt;Node16 -->
<g id="edge54" class="edge"><title>Node18&#45;&gt;Node16</title>
<path fill="none" stroke="midnightblue" d="M507.069,-232.007C470.494,-224.023 419.952,-211.601 377,-196 329.728,-178.83 277.052,-151.213 251.161,-137.037"/>
<polygon fill="midnightblue" stroke="midnightblue" points="506.485,-235.461 516.997,-234.139 507.955,-228.617 506.485,-235.461"/>
</g>
<!-- Node18&#45;&gt;Node17 -->
<g id="edge55" class="edge"><title>Node18&#45;&gt;Node17</title>
<path fill="none" stroke="midnightblue" d="M506.54,-237.413C446.242,-231.217 342.627,-218.299 256,-196 194.528,-180.176 125.006,-151.581 91.3773,-137.031"/>
<polygon fill="midnightblue" stroke="midnightblue" points="506.259,-240.902 516.559,-238.421 506.96,-233.937 506.259,-240.902"/>
</g>
<!-- Node18&#45;&gt;Node19 -->
<g id="edge34" class="edge"><title>Node18&#45;&gt;Node19</title>
<path fill="none" stroke="midnightblue" d="M579.006,-227.153C594.123,-216.953 613.705,-203.741 626.549,-195.075"/>
<polygon fill="midnightblue" stroke="midnightblue" points="577.038,-224.258 570.706,-232.753 580.953,-230.061 577.038,-224.258"/>
</g>
<!-- Node21 -->
<g id="node21" class="node"><title>Node21</title>
<g id="a_node21"><a xlink:href="Label_8h.html" target="_top" xlink:title="Declaration of RMF::Label. ">
<polygon fill="none" stroke="black" points="99.5962,-175 99.5962,-195 148.404,-195 148.404,-175 99.5962,-175"/>
<text text-anchor="middle" x="124" y="-181" font-family="Helvetica,sans-Serif" font-size="10.00">Label.h</text>
</a>
</g>
</g>
<!-- Node18&#45;&gt;Node21 -->
<g id="edge56" class="edge"><title>Node18&#45;&gt;Node21</title>
<path fill="none" stroke="midnightblue" d="M506.614,-235.484C413.377,-223.425 217.176,-198.05 148.426,-189.159"/>
<polygon fill="midnightblue" stroke="midnightblue" points="506.287,-238.97 516.653,-236.782 507.185,-232.028 506.287,-238.97"/>
</g>
<!-- Node19&#45;&gt;Node5 -->
<g id="edge35" class="edge"><title>Node19&#45;&gt;Node5</title>
<path fill="none" stroke="midnightblue" d="M639.311,-164.707C638.976,-155.338 638.59,-144.526 638.324,-137.075"/>
<polygon fill="midnightblue" stroke="midnightblue" points="635.815,-164.884 639.67,-174.753 642.81,-164.634 635.815,-164.884"/>
</g>
<!-- Node19&#45;&gt;Node7 -->
<g id="edge38" class="edge"><title>Node19&#45;&gt;Node7</title>
<path fill="none" stroke="midnightblue" d="M686.079,-174.047C705.59,-167.308 726.447,-156.186 738,-138 756.137,-109.45 709.133,-88.6348 676.127,-78.0037"/>
<polygon fill="midnightblue" stroke="midnightblue" points="684.848,-170.765 676.356,-177.1 686.945,-177.443 684.848,-170.765"/>
</g>
<!-- Node19&#45;&gt;Node9 -->
<g id="edge46" class="edge"><title>Node19&#45;&gt;Node9</title>
<path fill="none" stroke="midnightblue" d="M685.982,-172.796C713.803,-165.051 749.483,-153.371 779,-138 845.218,-103.516 913.218,-43.9797 938.11,-21.2158"/>
<polygon fill="midnightblue" stroke="midnightblue" points="684.851,-169.476 676.114,-175.47 686.682,-176.232 684.851,-169.476"/>
</g>
<!-- Node19&#45;&gt;Node10 -->
<g id="edge36" class="edge"><title>Node19&#45;&gt;Node10</title>
<path fill="none" stroke="midnightblue" d="M593.847,-177.471C539.206,-169.461 445.575,-154.85 366,-138 363.128,-137.392 360.149,-136.714 357.174,-136.006"/>
<polygon fill="midnightblue" stroke="midnightblue" points="593.512,-180.959 603.912,-178.937 594.521,-174.032 593.512,-180.959"/>
</g>
<!-- Node19&#45;&gt;Node11 -->
<g id="edge37" class="edge"><title>Node19&#45;&gt;Node11</title>
<path fill="none" stroke="midnightblue" d="M593.854,-173.096C545.545,-161.681 471.242,-144.125 431.084,-134.636"/>
<polygon fill="midnightblue" stroke="midnightblue" points="593.21,-176.54 603.747,-175.434 594.82,-169.728 593.21,-176.54"/>
</g>
<!-- Node19&#45;&gt;Node12 -->
<g id="edge39" class="edge"><title>Node19&#45;&gt;Node12</title>
<path fill="none" stroke="midnightblue" d="M618.65,-168.866C604.319,-158.707 585.913,-145.66 573.803,-137.075"/>
<polygon fill="midnightblue" stroke="midnightblue" points="616.772,-171.825 626.955,-174.753 620.821,-166.114 616.772,-171.825"/>
</g>
<!-- Node19&#45;&gt;Node13 -->
<g id="edge40" class="edge"><title>Node19&#45;&gt;Node13</title>
<path fill="none" stroke="midnightblue" d="M685.823,-172.679C708.378,-165.457 734.955,-154.321 755,-138 775.199,-121.553 789.609,-93.6199 796.117,-79.2082"/>
<polygon fill="midnightblue" stroke="midnightblue" points="684.658,-169.375 676.108,-175.632 686.694,-176.072 684.658,-169.375"/>
</g>
<!-- Node19&#45;&gt;Node14 -->
<g id="edge41" class="edge"><title>Node19&#45;&gt;Node14</title>
<path fill="none" stroke="midnightblue" d="M658.289,-167.997C669.746,-157.972 684.095,-145.417 693.628,-137.075"/>
<polygon fill="midnightblue" stroke="midnightblue" points="655.789,-165.534 650.568,-174.753 660.399,-170.802 655.789,-165.534"/>
</g>
<!-- Node19&#45;&gt;Node15 -->
<g id="edge42" class="edge"><title>Node19&#45;&gt;Node15</title>
<path fill="none" stroke="midnightblue" d="M593.884,-179.904C485.69,-170.217 221.679,-146.105 182,-138 179.263,-137.441 176.427,-136.74 173.626,-135.97"/>
<polygon fill="midnightblue" stroke="midnightblue" points="593.583,-183.391 603.855,-180.795 594.206,-176.419 593.583,-183.391"/>
</g>
<!-- Node19&#45;&gt;Node16 -->
<g id="edge43" class="edge"><title>Node19&#45;&gt;Node16</title>
<path fill="none" stroke="midnightblue" d="M593.643,-178.789C526.209,-171.016 397.186,-155.421 288,-138 285.133,-137.543 282.184,-137.049 279.214,-136.536"/>
<polygon fill="midnightblue" stroke="midnightblue" points="593.591,-182.305 603.925,-179.968 594.389,-175.351 593.591,-182.305"/>
</g>
<!-- Node19&#45;&gt;Node17 -->
<g id="edge44" class="edge"><title>Node19&#45;&gt;Node17</title>
<path fill="none" stroke="midnightblue" d="M593.398,-180.22C474.202,-170.507 164.342,-144.946 118,-138 115.03,-137.555 111.966,-137.037 108.893,-136.476"/>
<polygon fill="midnightblue" stroke="midnightblue" points="593.406,-183.733 603.657,-181.056 593.974,-176.756 593.406,-183.733"/>
</g>
<!-- Node19&#45;&gt;Node20 -->
<g id="edge45" class="edge"><title>Node19&#45;&gt;Node20</title>
<path fill="none" stroke="midnightblue" d="M686.088,-177.596C769.668,-165.982 944.012,-141.755 1013.49,-132.1"/>
<polygon fill="midnightblue" stroke="midnightblue" points="685.541,-174.138 676.118,-178.981 686.505,-181.071 685.541,-174.138"/>
</g>
<!-- Node22 -->
<g id="node22" class="node"><title>Node22</title>
<g id="a_node22"><a xlink:href="labels_8h.html" target="_top" xlink:title="Helper functions for manipulating RMF files. ">
<polygon fill="none" stroke="black" points="-0.233887,-59 -0.233887,-79 50.2339,-79 50.2339,-59 -0.233887,-59"/>
<text text-anchor="middle" x="25" y="-65" font-family="Helvetica,sans-Serif" font-size="10.00">labels.h</text>
</a>
</g>
</g>
<!-- Node21&#45;&gt;Node22 -->
<g id="edge57" class="edge"><title>Node21&#45;&gt;Node22</title>
<path fill="none" stroke="midnightblue" d="M89.286,-177.94C66.4787,-171.963 38.3045,-160.325 24,-138 12.4072,-119.907 17.8034,-93.1705 21.8917,-79.2254"/>
<polygon fill="midnightblue" stroke="midnightblue" points="88.7819,-181.417 99.3183,-180.306 90.3887,-174.604 88.7819,-181.417"/>
</g>
<!-- Node22&#45;&gt;Node6 -->
<g id="edge58" class="edge"><title>Node22&#45;&gt;Node6</title>
<path fill="none" stroke="midnightblue" d="M60.2016,-61.8873C68.0302,-60.5687 76.2926,-59.2087 84,-58 186.543,-41.9191 307.972,-24.9902 367.077,-16.8857"/>
<polygon fill="midnightblue" stroke="midnightblue" points="59.515,-58.4538 50.2432,-63.5807 60.6885,-65.3547 59.515,-58.4538"/>
</g>
<!-- Node23&#45;&gt;Node9 -->
<g id="edge67" class="edge"><title>Node23&#45;&gt;Node9</title>
<path fill="none" stroke="midnightblue" d="M1150.59,-238.892C1250.44,-233.068 1442.68,-218.986 1463,-196 1469.48,-188.674 1468.78,-181.883 1463,-174 1407.14,-97.8646 1120.15,-41.2173 1000.49,-20.5486"/>
<polygon fill="midnightblue" stroke="midnightblue" points="1150.13,-235.412 1140.35,-239.479 1150.53,-242.401 1150.13,-235.412"/>
</g>
<!-- Node23&#45;&gt;Node19 -->
<g id="edge61" class="edge"><title>Node23&#45;&gt;Node19</title>
<path fill="none" stroke="midnightblue" d="M1031.42,-234.602C936.448,-222.809 753.556,-200.1 676.086,-190.481"/>
<polygon fill="midnightblue" stroke="midnightblue" points="1031.09,-238.088 1041.45,-235.847 1031.95,-231.141 1031.09,-238.088"/>
</g>
<!-- Node23&#45;&gt;Node20 -->
<g id="edge66" class="edge"><title>Node23&#45;&gt;Node20</title>
<path fill="none" stroke="midnightblue" d="M1078.28,-224.496C1072.68,-216.179 1066.39,-205.907 1062,-196 1053.05,-175.831 1047.29,-150.407 1044.66,-137.088"/>
<polygon fill="midnightblue" stroke="midnightblue" points="1075.57,-226.735 1084.16,-232.932 1081.31,-222.729 1075.57,-226.735"/>
</g>
<!-- Node24 -->
<g id="node24" class="node"><title>Node24</title>
<g id="a_node24"><a xlink:href="info_8h.html" target="_top" xlink:title="Show info about the file. ">
<polygon fill="none" stroke="black" points="1070.77,-175 1070.77,-195 1111.23,-195 1111.23,-175 1070.77,-175"/>
<text text-anchor="middle" x="1091" y="-181" font-family="Helvetica,sans-Serif" font-size="10.00">info.h</text>
</a>
</g>
</g>
<!-- Node23&#45;&gt;Node24 -->
<g id="edge62" class="edge"><title>Node23&#45;&gt;Node24</title>
<path fill="none" stroke="midnightblue" d="M1091,-222.707C1091,-213.338 1091,-202.526 1091,-195.075"/>
<polygon fill="midnightblue" stroke="midnightblue" points="1087.5,-222.753 1091,-232.753 1094.5,-222.753 1087.5,-222.753"/>
</g>
<!-- Node25 -->
<g id="node25" class="node"><title>Node25</title>
<g id="a_node25"><a xlink:href="RestoreCurrentFrame_8h.html" target="_top" xlink:title="Restore the current frame when exiting a scope. ">
<polygon fill="none" stroke="black" points="1129.2,-175 1129.2,-195 1250.8,-195 1250.8,-175 1129.2,-175"/>
<text text-anchor="middle" x="1190" y="-181" font-family="Helvetica,sans-Serif" font-size="10.00">RestoreCurrentFrame.h</text>
</a>
</g>
</g>
<!-- Node23&#45;&gt;Node25 -->
<g id="edge63" class="edge"><title>Node23&#45;&gt;Node25</title>
<path fill="none" stroke="midnightblue" d="M1116.24,-227.722C1134.4,-217.449 1158.35,-203.903 1173.96,-195.075"/>
<polygon fill="midnightblue" stroke="midnightblue" points="1114.33,-224.783 1107.35,-232.753 1117.78,-230.876 1114.33,-224.783"/>
</g>
<!-- Node26 -->
<g id="node26" class="node"><title>Node26</title>
<g id="a_node26"><a xlink:href="SetCurrentFrame_8h.html" target="_top" xlink:title="Temporarily change the current frame. ">
<polygon fill="none" stroke="black" points="1269.21,-175 1269.21,-195 1370.79,-195 1370.79,-175 1269.21,-175"/>
<text text-anchor="middle" x="1320" y="-181" font-family="Helvetica,sans-Serif" font-size="10.00">SetCurrentFrame.h</text>
</a>
</g>
</g>
<!-- Node23&#45;&gt;Node26 -->
<g id="edge64" class="edge"><title>Node23&#45;&gt;Node26</title>
<path fill="none" stroke="midnightblue" d="M1137.97,-230.514C1180.9,-220.016 1243.53,-204.699 1283.01,-195.047"/>
<polygon fill="midnightblue" stroke="midnightblue" points="1136.93,-227.165 1128.05,-232.94 1138.59,-233.965 1136.93,-227.165"/>
</g>
<!-- Node27 -->
<g id="node27" class="node"><title>Node27</title>
<g id="a_node27"><a xlink:href="signature_8h.html" target="_top" xlink:title="Return a (long) string describing a file that can be compared. ">
<polygon fill="none" stroke="black" points="1389.26,-175 1389.26,-195 1454.74,-195 1454.74,-175 1389.26,-175"/>
<text text-anchor="middle" x="1422" y="-181" font-family="Helvetica,sans-Serif" font-size="10.00">signature.h</text>
</a>
</g>
</g>
<!-- Node23&#45;&gt;Node27 -->
<g id="edge65" class="edge"><title>Node23&#45;&gt;Node27</title>
<path fill="none" stroke="midnightblue" d="M1150.51,-233.739C1208.9,-225.341 1300.37,-211.403 1379,-196 1382.31,-195.352 1385.75,-194.631 1389.18,-193.882"/>
<polygon fill="midnightblue" stroke="midnightblue" points="1149.77,-230.31 1140.36,-235.191 1150.76,-237.239 1149.77,-230.31"/>
</g>
</g>
</svg>
