<?xml version="1.0" encoding="UTF-8" standalone="no"?>
<!DOCTYPE svg PUBLIC "-//W3C//DTD SVG 1.1//EN"
 "http://www.w3.org/Graphics/SVG/1.1/DTD/svg11.dtd">
<!-- Generated by graphviz version 2.36.0 (20140111.2315)
 -->
<!-- Title: enums.h Pages: 1 -->
<svg width="1001pt" height="252pt"
 viewBox="0.00 0.00 1001.00 252.00" xmlns="http://www.w3.org/2000/svg" xmlns:xlink="http://www.w3.org/1999/xlink">
<g id="graph0" class="graph" transform="scale(1 1) rotate(0) translate(4 248)">
<title>enums.h</title>
<!-- Node1 -->
<g id="node1" class="node"><title>Node1</title>
<polygon fill="#bfbfbf" stroke="black" points="332.823,-225 332.823,-243 387.177,-243 387.177,-225 332.823,-225"/>
<text text-anchor="middle" x="360" y="-231" font-family="Helvetica,sans-Serif" font-size="10.00">enums.h</text>
</g>
<!-- Node2 -->
<g id="node2" class="node"><title>Node2</title>
<g id="a_node2"><a xlink:href="config_8h_source.html" target="_top" xlink:title="RMF/config.h">
<polygon fill="none" stroke="black" points="-0.731445,-57 -0.731445,-75 74.7314,-75 74.7314,-57 -0.731445,-57"/>
<text text-anchor="middle" x="37" y="-63" font-family="Helvetica,sans-Serif" font-size="10.00">RMF/config.h</text>
</a>
</g>
</g>
<!-- Node1&#45;&gt;Node2 -->
<g id="edge1" class="edge"><title>Node1&#45;&gt;Node2</title>
<path fill="none" stroke="midnightblue" d="M342.182,-224.888C305.846,-208.237 220.73,-168.673 151,-132 118.712,-115.019 82.2149,-93.8503 59.4061,-80.3765"/>
<polygon fill="midnightblue" stroke="midnightblue" points="60.9078,-77.1979 50.5212,-75.1077 57.3374,-83.2188 60.9078,-77.1979"/>
</g>
<!-- Node4 -->
<g id="node4" class="node"><title>Node4</title>
<g id="a_node4"><a xlink:href="Enum_8h.html" target="_top" xlink:title="Declaration of RMF::Enum. ">
<polygon fill="none" stroke="black" points="298.769,-169 298.769,-187 349.231,-187 349.231,-169 298.769,-169"/>
<text text-anchor="middle" x="324" y="-175" font-family="Helvetica,sans-Serif" font-size="10.00">Enum.h</text>
</a>
</g>
</g>
<!-- Node1&#45;&gt;Node4 -->
<g id="edge3" class="edge"><title>Node1&#45;&gt;Node4</title>
<path fill="none" stroke="midnightblue" d="M354.375,-224.562C349.22,-216.83 341.44,-205.16 335.044,-195.566"/>
<polygon fill="midnightblue" stroke="midnightblue" points="337.927,-193.58 329.468,-187.201 332.102,-197.463 337.927,-193.58"/>
</g>
<!-- Node7 -->
<g id="node7" class="node"><title>Node7</title>
<polygon fill="none" stroke="#bfbfbf" points="938.828,-57 938.828,-75 993.172,-75 993.172,-57 938.828,-57"/>
<text text-anchor="middle" x="966" y="-63" font-family="Helvetica,sans-Serif" font-size="10.00">iostream</text>
</g>
<!-- Node1&#45;&gt;Node7 -->
<g id="edge21" class="edge"><title>Node1&#45;&gt;Node7</title>
<path fill="none" stroke="midnightblue" d="M387.216,-225.545C484.701,-198.841 816.587,-107.928 928.672,-77.2251"/>
<polygon fill="midnightblue" stroke="midnightblue" points="929.793,-80.5471 938.513,-74.5294 927.944,-73.7958 929.793,-80.5471"/>
</g>
<!-- Node8 -->
<g id="node8" class="node"><title>Node8</title>
<polygon fill="none" stroke="#bfbfbf" points="377.773,-57 377.773,-75 418.227,-75 418.227,-57 377.773,-57"/>
<text text-anchor="middle" x="398" y="-63" font-family="Helvetica,sans-Serif" font-size="10.00">string</text>
</g>
<!-- Node1&#45;&gt;Node8 -->
<g id="edge20" class="edge"><title>Node1&#45;&gt;Node8</title>
<path fill="none" stroke="midnightblue" d="M361.833,-224.993C367.612,-199.748 385.556,-121.362 393.791,-85.3862"/>
<polygon fill="midnightblue" stroke="midnightblue" points="397.276,-85.8461 396.096,-75.3172 390.453,-84.2841 397.276,-85.8461"/>
</g>
<!-- Node3 -->
<g id="node3" class="node"><title>Node3</title>
<g id="a_node3"><a xlink:href="compiler__macros_8h.html" target="_top" xlink:title="Various compiler workarounds. ">
<polygon fill="none" stroke="black" points="40.5444,-1 40.5444,-19 165.456,-19 165.456,-1 40.5444,-1"/>
<text text-anchor="middle" x="103" y="-7" font-family="Helvetica,sans-Serif" font-size="10.00">RMF/compiler_macros.h</text>
</a>
</g>
</g>
<!-- Node2&#45;&gt;Node3 -->
<g id="edge2" class="edge"><title>Node2&#45;&gt;Node3</title>
<path fill="none" stroke="midnightblue" d="M47.024,-56.7986C57.1031,-48.552 72.859,-35.6608 85.0902,-25.6535"/>
<polygon fill="midnightblue" stroke="midnightblue" points="87.3584,-28.3199 92.8817,-19.2786 82.9257,-22.9022 87.3584,-28.3199"/>
</g>
<!-- Node4&#45;&gt;Node2 -->
<g id="edge4" class="edge"><title>Node4&#45;&gt;Node2</title>
<path fill="none" stroke="midnightblue" d="M302.896,-168.911C252.724,-149.682 126.144,-101.167 67.5867,-78.7231"/>
<polygon fill="midnightblue" stroke="midnightblue" points="68.725,-75.4112 58.1347,-75.1004 66.2197,-81.9475 68.725,-75.4112"/>
</g>
<!-- Node5 -->
<g id="node5" class="node"><title>Node5</title>
<g id="a_node5"><a xlink:href="infrastructure__macros_8h.html" target="_top" xlink:title="Various general useful macros for IMP. ">
<polygon fill="none" stroke="black" points="591.48,-113 591.48,-131 712.52,-131 712.52,-113 591.48,-113"/>
<text text-anchor="middle" x="652" y="-119" font-family="Helvetica,sans-Serif" font-size="10.00">infrastructure_macros.h</text>
</a>
</g>
</g>
<!-- Node4&#45;&gt;Node5 -->
<g id="edge5" class="edge"><title>Node4&#45;&gt;Node5</title>
<path fill="none" stroke="midnightblue" d="M349.465,-172.808C401.504,-164.24 521.215,-144.532 593.475,-132.635"/>
<polygon fill="midnightblue" stroke="midnightblue" points="594.046,-136.088 603.345,-131.01 592.909,-129.181 594.046,-136.088"/>
</g>
<!-- Node14 -->
<g id="node13" class="node"><title>Node14</title>
<g id="a_node13"><a xlink:href="exceptions_8h.html" target="_top" xlink:title="Declarations of the various exception types. ">
<polygon fill="none" stroke="black" points="269.926,-113 269.926,-131 342.074,-131 342.074,-113 269.926,-113"/>
<text text-anchor="middle" x="306" y="-119" font-family="Helvetica,sans-Serif" font-size="10.00">exceptions.h</text>
</a>
</g>
</g>
<!-- Node4&#45;&gt;Node14 -->
<g id="edge14" class="edge"><title>Node4&#45;&gt;Node14</title>
<path fill="none" stroke="midnightblue" d="M321.188,-168.562C318.716,-161.149 315.038,-150.115 311.921,-140.763"/>
<polygon fill="midnightblue" stroke="midnightblue" points="315.217,-139.581 308.734,-131.201 308.576,-141.795 315.217,-139.581"/>
</g>
<!-- Node5&#45;&gt;Node3 -->
<g id="edge9" class="edge"><title>Node5&#45;&gt;Node3</title>
<path fill="none" stroke="midnightblue" d="M712.735,-116.81C775.026,-110.355 858.074,-94.4029 822,-56 800.094,-32.6802 353.716,-17.8867 175.531,-12.8904"/>
<polygon fill="midnightblue" stroke="midnightblue" points="175.556,-9.38985 165.462,-12.6105 175.361,-16.3871 175.556,-9.38985"/>
</g>
<!-- Node6 -->
<g id="node6" class="node"><title>Node6</title>
<polygon fill="none" stroke="#bfbfbf" points="869.219,-57 869.219,-75 920.781,-75 920.781,-57 869.219,-57"/>
<text text-anchor="middle" x="895" y="-63" font-family="Helvetica,sans-Serif" font-size="10.00">sstream</text>
</g>
<!-- Node5&#45;&gt;Node6 -->
<g id="edge6" class="edge"><title>Node5&#45;&gt;Node6</title>
<path fill="none" stroke="midnightblue" d="M688.311,-112.987C728.933,-104.014 796.693,-89.022 855,-76 856.433,-75.68 857.894,-75.3531 859.371,-75.0226"/>
<polygon fill="midnightblue" stroke="midnightblue" points="860.191,-78.4258 869.182,-72.8217 858.658,-71.5955 860.191,-78.4258"/>
</g>
<!-- Node5&#45;&gt;Node7 -->
<g id="edge7" class="edge"><title>Node5&#45;&gt;Node7</title>
<path fill="none" stroke="midnightblue" d="M709.531,-112.983C763.526,-105.159 846.739,-92.3315 928.6,-75.9387"/>
<polygon fill="midnightblue" stroke="midnightblue" points="929.466,-79.3344 938.574,-73.922 928.079,-72.4733 929.466,-79.3344"/>
</g>
<!-- Node5&#45;&gt;Node8 -->
<g id="edge8" class="edge"><title>Node5&#45;&gt;Node8</title>
<path fill="none" stroke="midnightblue" d="M604.272,-112.935C560.65,-105.232 494.202,-92.6697 428.245,-76.1261"/>
<polygon fill="midnightblue" stroke="midnightblue" points="429.074,-72.7255 418.52,-73.6564 427.351,-79.5102 429.074,-72.7255"/>
</g>
<!-- Node10 -->
<g id="node9" class="node"><title>Node10</title>
<polygon fill="none" stroke="#bfbfbf" points="436.384,-57 436.384,-75 479.616,-75 479.616,-57 436.384,-57"/>
<text text-anchor="middle" x="458" y="-63" font-family="Helvetica,sans-Serif" font-size="10.00">vector</text>
</g>
<!-- Node5&#45;&gt;Node10 -->
<g id="edge10" class="edge"><title>Node5&#45;&gt;Node10</title>
<path fill="none" stroke="midnightblue" d="M621.713,-112.92C590.751,-104.609 541.027,-91.1237 489.847,-76.4892"/>
<polygon fill="midnightblue" stroke="midnightblue" points="490.515,-73.0398 479.937,-73.6465 488.585,-79.7684 490.515,-73.0398"/>
</g>
<!-- Node11 -->
<g id="node10" class="node"><title>Node11</title>
<polygon fill="none" stroke="#bfbfbf" points="497.306,-57 497.306,-75 586.694,-75 586.694,-57 497.306,-57"/>
<text text-anchor="middle" x="542" y="-63" font-family="Helvetica,sans-Serif" font-size="10.00">boost/config.hpp</text>
</g>
<!-- Node5&#45;&gt;Node11 -->
<g id="edge11" class="edge"><title>Node5&#45;&gt;Node11</title>
<path fill="none" stroke="midnightblue" d="M635.293,-112.799C617.341,-103.986 588.584,-89.8683 567.738,-79.6349"/>
<polygon fill="midnightblue" stroke="midnightblue" points="569.022,-76.3666 558.503,-75.1017 565.938,-82.6503 569.022,-76.3666"/>
</g>
<!-- Node12 -->
<g id="node11" class="node"><title>Node12</title>
<polygon fill="none" stroke="#bfbfbf" points="604.53,-57 604.53,-75 699.47,-75 699.47,-57 604.53,-57"/>
<text text-anchor="middle" x="652" y="-63" font-family="Helvetica,sans-Serif" font-size="10.00">boost/version.hpp</text>
</g>
<!-- Node5&#45;&gt;Node12 -->
<g id="edge12" class="edge"><title>Node5&#45;&gt;Node12</title>
<path fill="none" stroke="midnightblue" d="M652,-112.562C652,-105.308 652,-94.5884 652,-85.3691"/>
<polygon fill="midnightblue" stroke="midnightblue" points="655.5,-85.2014 652,-75.2014 648.5,-85.2015 655.5,-85.2014"/>
</g>
<!-- Node13 -->
<g id="node12" class="node"><title>Node13</title>
<polygon fill="none" stroke="#bfbfbf" points="716.971,-57 716.971,-75 813.029,-75 813.029,-57 716.971,-57"/>
<text text-anchor="middle" x="765" y="-63" font-family="Helvetica,sans-Serif" font-size="10.00">boost/foreach.hpp</text>
</g>
<!-- Node5&#45;&gt;Node13 -->
<g id="edge13" class="edge"><title>Node5&#45;&gt;Node13</title>
<path fill="none" stroke="midnightblue" d="M669.162,-112.799C687.687,-103.946 717.414,-89.7404 738.85,-79.4963"/>
<polygon fill="midnightblue" stroke="midnightblue" points="740.533,-82.5714 748.046,-75.1017 737.515,-76.2555 740.533,-82.5714"/>
</g>
<!-- Node14&#45;&gt;Node2 -->
<g id="edge18" class="edge"><title>Node14&#45;&gt;Node2</title>
<path fill="none" stroke="midnightblue" d="M269.721,-113.717C221.894,-104.116 137.632,-87.2011 84.6932,-76.5741"/>
<polygon fill="midnightblue" stroke="midnightblue" points="85.3595,-73.1381 74.8662,-74.6014 83.9817,-80.0012 85.3595,-73.1381"/>
</g>
<!-- Node14&#45;&gt;Node3 -->
<g id="edge19" class="edge"><title>Node14&#45;&gt;Node3</title>
<path fill="none" stroke="midnightblue" d="M269.855,-116.48C222.49,-109.849 142.973,-96.0596 122,-76 109.396,-63.9452 105.019,-44.0352 103.567,-29.4215"/>
<polygon fill="midnightblue" stroke="midnightblue" points="107.039,-28.8533 102.928,-19.0884 100.052,-29.2853 107.039,-28.8533"/>
</g>
<!-- Node14&#45;&gt;Node8 -->
<g id="edge17" class="edge"><title>Node14&#45;&gt;Node8</title>
<path fill="none" stroke="midnightblue" d="M319.973,-112.799C334.648,-104.185 357.956,-90.5043 375.281,-80.3354"/>
<polygon fill="midnightblue" stroke="midnightblue" points="377.345,-83.1822 384.197,-75.1017 373.801,-77.1453 377.345,-83.1822"/>
</g>
<!-- Node15 -->
<g id="node14" class="node"><title>Node15</title>
<polygon fill="none" stroke="#bfbfbf" points="131.451,-57 131.451,-75 282.549,-75 282.549,-57 131.451,-57"/>
<text text-anchor="middle" x="207" y="-63" font-family="Helvetica,sans-Serif" font-size="10.00">boost/exception/exception.hpp</text>
</g>
<!-- Node14&#45;&gt;Node15 -->
<g id="edge15" class="edge"><title>Node14&#45;&gt;Node15</title>
<path fill="none" stroke="midnightblue" d="M290.964,-112.799C274.953,-104.065 249.393,-90.1234 230.675,-79.9137"/>
<polygon fill="midnightblue" stroke="midnightblue" points="232.308,-76.8176 221.853,-75.1017 228.956,-82.9629 232.308,-76.8176"/>
</g>
<!-- Node16 -->
<g id="node15" class="node"><title>Node16</title>
<polygon fill="none" stroke="#bfbfbf" points="300.596,-57 300.596,-75 359.404,-75 359.404,-57 300.596,-57"/>
<text text-anchor="middle" x="330" y="-63" font-family="Helvetica,sans-Serif" font-size="10.00">exception</text>
</g>
<!-- Node14&#45;&gt;Node16 -->
<g id="edge16" class="edge"><title>Node14&#45;&gt;Node16</title>
<path fill="none" stroke="midnightblue" d="M309.75,-112.562C313.081,-105.069 318.054,-93.8778 322.239,-84.4623"/>
<polygon fill="midnightblue" stroke="midnightblue" points="325.492,-85.7611 326.355,-75.2014 319.095,-82.9181 325.492,-85.7611"/>
</g>
</g>
</svg>
