<?xml version="1.0" encoding="UTF-8" standalone="no"?>
<!DOCTYPE svg PUBLIC "-//W3C//DTD SVG 1.1//EN"
 "http://www.w3.org/Graphics/SVG/1.1/DTD/svg11.dtd">
<!-- Generated by graphviz version 2.34.0 (20131025.1349)
 -->
<!-- Title: exceptions.h Pages: 1 -->
<svg width="554pt" height="146pt"
 viewBox="0.00 0.00 554.00 146.00" xmlns="http://www.w3.org/2000/svg" xmlns:xlink="http://www.w3.org/1999/xlink">
<g id="graph0" class="graph" transform="scale(1 1) rotate(0) translate(4 142)">
<title>exceptions.h</title>
<!-- Node1 -->
<g id="node1" class="node"><title>Node1</title>
<polygon fill="#bfbfbf" stroke="black" points="267.926,-117 267.926,-137 340.074,-137 340.074,-117 267.926,-117"/>
<text text-anchor="middle" x="304" y="-123" font-family="Helvetica,sans-Serif" font-size="10.00">exceptions.h</text>
</g>
<!-- Node2 -->
<g id="node2" class="node"><title>Node2</title>
<polygon fill="none" stroke="#bfbfbf" points="-0.548828,-59 -0.548828,-79 150.549,-79 150.549,-59 -0.548828,-59"/>
<text text-anchor="middle" x="75" y="-65" font-family="Helvetica,sans-Serif" font-size="10.00">boost/exception/exception.hpp</text>
</g>
<!-- Node1&#45;&gt;Node2 -->
<g id="edge1" class="edge"><title>Node1&#45;&gt;Node2</title>
<path fill="none" stroke="midnightblue" d="M267.714,-117.127C228.251,-107.476 165.042,-92.019 121.853,-81.4575"/>
<polygon fill="midnightblue" stroke="midnightblue" points="122.419,-77.993 111.874,-79.0173 120.757,-84.7926 122.419,-77.993"/>
</g>
<!-- Node3 -->
<g id="node3" class="node"><title>Node3</title>
<polygon fill="none" stroke="#bfbfbf" points="168.596,-59 168.596,-79 227.404,-79 227.404,-59 168.596,-59"/>
<text text-anchor="middle" x="198" y="-65" font-family="Helvetica,sans-Serif" font-size="10.00">exception</text>
</g>
<!-- Node1&#45;&gt;Node3 -->
<g id="edge2" class="edge"><title>Node1&#45;&gt;Node3</title>
<path fill="none" stroke="midnightblue" d="M286.496,-116.753C269.517,-107.783 243.542,-94.0601 224.119,-83.7986"/>
<polygon fill="midnightblue" stroke="midnightblue" points="225.655,-80.6518 215.178,-79.0752 222.385,-86.8411 225.655,-80.6518"/>
</g>
<!-- Node4 -->
<g id="node4" class="node"><title>Node4</title>
<polygon fill="none" stroke="#bfbfbf" points="245.773,-59 245.773,-79 286.227,-79 286.227,-59 245.773,-59"/>
<text text-anchor="middle" x="266" y="-65" font-family="Helvetica,sans-Serif" font-size="10.00">string</text>
</g>
<!-- Node1&#45;&gt;Node4 -->
<g id="edge3" class="edge"><title>Node1&#45;&gt;Node4</title>
<path fill="none" stroke="midnightblue" d="M297.725,-116.753C292.358,-108.843 284.482,-97.2372 277.921,-87.5683"/>
<polygon fill="midnightblue" stroke="midnightblue" points="280.669,-85.3847 272.158,-79.0752 274.877,-89.3152 280.669,-85.3847"/>
</g>
<!-- Node5 -->
<g id="node5" class="node"><title>Node5</title>
<g id="a_node5"><a xlink:href="config_8h_source.html" target="_top" xlink:title="RMF/config.h">
<polygon fill="none" stroke="black" points="304.269,-59 304.269,-79 379.731,-79 379.731,-59 304.269,-59"/>
<text text-anchor="middle" x="342" y="-65" font-family="Helvetica,sans-Serif" font-size="10.00">RMF/config.h</text>
</a>
</g>
</g>
<!-- Node1&#45;&gt;Node5 -->
<g id="edge4" class="edge"><title>Node1&#45;&gt;Node5</title>
<path fill="none" stroke="midnightblue" d="M310.275,-116.753C315.642,-108.843 323.518,-97.2372 330.079,-87.5683"/>
<polygon fill="midnightblue" stroke="midnightblue" points="333.123,-89.3152 335.842,-79.0752 327.331,-85.3847 333.123,-89.3152"/>
</g>
<!-- Node6 -->
<g id="node6" class="node"><title>Node6</title>
<g id="a_node6"><a xlink:href="compiler__macros_8h.html" target="_top" xlink:title="Various compiler workarounds. ">
<polygon fill="none" stroke="black" points="312.544,-1 312.544,-21 437.456,-21 437.456,-1 312.544,-1"/>
<text text-anchor="middle" x="375" y="-7" font-family="Helvetica,sans-Serif" font-size="10.00">RMF/compiler_macros.h</text>
</a>
</g>
</g>
<!-- Node1&#45;&gt;Node6 -->
<g id="edge6" class="edge"><title>Node1&#45;&gt;Node6</title>
<path fill="none" stroke="midnightblue" d="M337.435,-116.894C355.823,-109.989 377.067,-98.4528 388,-80 396.973,-64.856 391.425,-44.7843 385.033,-30.3793"/>
<polygon fill="midnightblue" stroke="midnightblue" points="387.99,-28.4618 380.426,-21.0432 381.713,-31.5596 387.99,-28.4618"/>
</g>
<!-- Node7 -->
<g id="node7" class="node"><title>Node7</title>
<polygon fill="none" stroke="#bfbfbf" points="435.766,-59 435.766,-79 546.234,-79 546.234,-59 435.766,-59"/>
<text text-anchor="middle" x="491" y="-65" font-family="Helvetica,sans-Serif" font-size="10.00">RMF/internal/errors.h</text>
</g>
<!-- Node1&#45;&gt;Node7 -->
<g id="edge7" class="edge"><title>Node1&#45;&gt;Node7</title>
<path fill="none" stroke="midnightblue" d="M334.461,-116.878C366.205,-107.372 416.094,-92.4317 450.996,-81.9798"/>
<polygon fill="midnightblue" stroke="midnightblue" points="452.286,-85.247 460.862,-79.0253 450.278,-78.5413 452.286,-85.247"/>
</g>
<!-- Node5&#45;&gt;Node6 -->
<g id="edge5" class="edge"><title>Node5&#45;&gt;Node6</title>
<path fill="none" stroke="midnightblue" d="M347.449,-58.7527C352.063,-50.9242 358.809,-39.4761 364.471,-29.8679"/>
<polygon fill="midnightblue" stroke="midnightblue" points="367.591,-31.4675 369.652,-21.0752 361.56,-27.9136 367.591,-31.4675"/>
</g>
</g>
</svg>
