<?xml version="1.0" encoding="UTF-8" standalone="no"?>
<!DOCTYPE svg PUBLIC "-//W3C//DTD SVG 1.1//EN"
 "http://www.w3.org/Graphics/SVG/1.1/DTD/svg11.dtd">
<!-- Generated by graphviz version 2.36.0 (20140111.2315)
 -->
<!-- Title: exceptions.h Pages: 1 -->
<svg width="498pt" height="158pt"
 viewBox="0.00 0.00 498.00 158.00" xmlns="http://www.w3.org/2000/svg" xmlns:xlink="http://www.w3.org/1999/xlink">
<g id="graph0" class="graph" transform="scale(1 1) rotate(0) translate(4 154)">
<title>exceptions.h</title>
<!-- Node1 -->
<g id="node1" class="node"><title>Node1</title>
<polygon fill="#bfbfbf" stroke="black" points="267.926,-131 267.926,-149 340.074,-149 340.074,-131 267.926,-131"/>
<text text-anchor="middle" x="304" y="-137" font-family="Helvetica,sans-Serif" font-size="10.00">exceptions.h</text>
</g>
<!-- Node2 -->
<g id="node2" class="node"><title>Node2</title>
<polygon fill="none" stroke="#bfbfbf" points="-0.548828,-66 -0.548828,-84 150.549,-84 150.549,-66 -0.548828,-66"/>
<text text-anchor="middle" x="75" y="-72" font-family="Helvetica,sans-Serif" font-size="10.00">boost/exception/exception.hpp</text>
</g>
<!-- Node1&#45;&gt;Node2 -->
<g id="edge1" class="edge"><title>Node1&#45;&gt;Node2</title>
<path fill="none" stroke="midnightblue" d="M274.531,-130.893C233.652,-119.647 159.645,-99.2866 114.16,-86.7732"/>
<polygon fill="midnightblue" stroke="midnightblue" points="114.926,-83.354 104.356,-84.0761 113.069,-90.1033 114.926,-83.354"/>
</g>
<!-- Node3 -->
<g id="node3" class="node"><title>Node3</title>
<polygon fill="none" stroke="#bfbfbf" points="168.596,-66 168.596,-84 227.404,-84 227.404,-66 168.596,-66"/>
<text text-anchor="middle" x="198" y="-72" font-family="Helvetica,sans-Serif" font-size="10.00">exception</text>
</g>
<!-- Node1&#45;&gt;Node3 -->
<g id="edge2" class="edge"><title>Node1&#45;&gt;Node3</title>
<path fill="none" stroke="midnightblue" d="M290.142,-130.764C272.348,-120.188 241.255,-101.708 220.159,-89.17"/>
<polygon fill="midnightblue" stroke="midnightblue" points="221.91,-86.1394 211.526,-84.039 218.334,-92.1569 221.91,-86.1394"/>
</g>
<!-- Node4 -->
<g id="node4" class="node"><title>Node4</title>
<polygon fill="none" stroke="#bfbfbf" points="245.773,-66 245.773,-84 286.227,-84 286.227,-66 245.773,-66"/>
<text text-anchor="middle" x="266" y="-72" font-family="Helvetica,sans-Serif" font-size="10.00">string</text>
</g>
<!-- Node1&#45;&gt;Node4 -->
<g id="edge3" class="edge"><title>Node1&#45;&gt;Node4</title>
<path fill="none" stroke="midnightblue" d="M299.032,-130.764C293.254,-121.184 283.564,-105.119 276.169,-92.8587"/>
<polygon fill="midnightblue" stroke="midnightblue" points="279.011,-90.7942 270.849,-84.039 273.017,-94.4096 279.011,-90.7942"/>
</g>
<!-- Node5 -->
<g id="node5" class="node"><title>Node5</title>
<g id="a_node5"><a xlink:href="config_8h_source.html" target="_top" xlink:title="RMF/config.h">
<polygon fill="none" stroke="black" points="304.269,-66 304.269,-84 379.731,-84 379.731,-66 304.269,-66"/>
<text text-anchor="middle" x="342" y="-72" font-family="Helvetica,sans-Serif" font-size="10.00">RMF/config.h</text>
</a>
</g>
</g>
<!-- Node1&#45;&gt;Node5 -->
<g id="edge4" class="edge"><title>Node1&#45;&gt;Node5</title>
<path fill="none" stroke="midnightblue" d="M308.968,-130.764C314.746,-121.184 324.436,-105.119 331.831,-92.8587"/>
<polygon fill="midnightblue" stroke="midnightblue" points="334.983,-94.4096 337.151,-84.039 328.989,-90.7942 334.983,-94.4096"/>
</g>
<!-- Node6 -->
<g id="node6" class="node"><title>Node6</title>
<g id="a_node6"><a xlink:href="compiler__macros_8h.html" target="_top" xlink:title="Various compiler workarounds. ">
<polygon fill="none" stroke="black" points="312.544,-1 312.544,-19 437.456,-19 437.456,-1 312.544,-1"/>
<text text-anchor="middle" x="375" y="-7" font-family="Helvetica,sans-Serif" font-size="10.00">RMF/compiler_macros.h</text>
</a>
</g>
</g>
<!-- Node1&#45;&gt;Node6 -->
<g id="edge6" class="edge"><title>Node1&#45;&gt;Node6</title>
<path fill="none" stroke="midnightblue" d="M335.712,-130.892C354.466,-124.287 376.697,-112.879 388,-94 400.026,-73.9153 391.862,-46.3901 384.098,-28.6488"/>
<polygon fill="midnightblue" stroke="midnightblue" points="387.185,-26.9904 379.729,-19.4638 380.864,-29.9976 387.185,-26.9904"/>
</g>
<!-- Node7 -->
<g id="node7" class="node"><title>Node7</title>
<polygon fill="none" stroke="black" points="436,-57 436,-93 490,-93 490,-57 436,-57"/>
<text text-anchor="middle" x="462.734" y="-72" font-family="Helvetica,sans-Serif" font-size="10.00">Node7</text>
</g>
<!-- Node1&#45;&gt;Node7 -->
<g id="edge7" class="edge"><title>Node1&#45;&gt;Node7</title>
<path fill="none" stroke="midnightblue" d="M326.312,-130.865C350.136,-122.092 388.932,-107.555 422,-94 423.394,-93.4287 424.811,-92.8409 426.241,-92.2421"/>
<polygon fill="midnightblue" stroke="midnightblue" points="427.907,-95.3366 435.733,-88.1947 425.161,-88.8976 427.907,-95.3366"/>
</g>
<!-- Node5&#45;&gt;Node6 -->
<g id="edge5" class="edge"><title>Node5&#45;&gt;Node6</title>
<path fill="none" stroke="midnightblue" d="M346.314,-65.7639C351.282,-56.279 359.581,-40.4361 365.978,-28.224"/>
<polygon fill="midnightblue" stroke="midnightblue" points="369.249,-29.5213 370.789,-19.039 363.049,-26.2733 369.249,-29.5213"/>
</g>
</g>
</svg>
