<?xml version="1.0" encoding="UTF-8" standalone="no"?>
<!DOCTYPE svg PUBLIC "-//W3C//DTD SVG 1.1//EN"
 "http://www.w3.org/Graphics/SVG/1.1/DTD/svg11.dtd">
<!-- Generated by graphviz version 2.34.0 (20131025.1349)
 -->
<!-- Title: FileConstHandle.h Pages: 1 -->
<svg width="1158pt" height="262pt"
 viewBox="0.00 0.00 1158.00 262.00" xmlns="http://www.w3.org/2000/svg" xmlns:xlink="http://www.w3.org/1999/xlink">
<g id="graph0" class="graph" transform="scale(1 1) rotate(0) translate(4 258)">
<title>FileConstHandle.h</title>
<!-- Node1 -->
<g id="node1" class="node"><title>Node1</title>
<polygon fill="#bfbfbf" stroke="black" points="736.867,-233 736.867,-253 835.133,-253 835.133,-233 736.867,-233"/>
<text text-anchor="middle" x="786" y="-239" font-family="Helvetica,sans-Serif" font-size="10.00">FileConstHandle.h</text>
</g>
<!-- Node2 -->
<g id="node2" class="node"><title>Node2</title>
<g id="a_node2"><a xlink:href="FileHandle_8h.html" target="_top" xlink:title="Handle read/write of Model data from/to files. ">
<polygon fill="none" stroke="black" points="385.929,-175 385.929,-195 458.071,-195 458.071,-175 385.929,-175"/>
<text text-anchor="middle" x="422" y="-181" font-family="Helvetica,sans-Serif" font-size="10.00">FileHandle.h</text>
</a>
</g>
</g>
<!-- Node1&#45;&gt;Node2 -->
<g id="edge1" class="edge"><title>Node1&#45;&gt;Node2</title>
<path fill="none" stroke="midnightblue" d="M726.613,-232.864C650.505,-221.155 520.921,-201.219 458.174,-191.565"/>
<polygon fill="midnightblue" stroke="midnightblue" points="726.115,-236.328 736.531,-234.389 727.179,-229.409 726.115,-236.328"/>
</g>
<!-- Node6 -->
<g id="node6" class="node"><title>Node6</title>
<g id="a_node6"><a xlink:href="benchmark__rmf_8cpp_source.html" target="_top" xlink:title="benchmark_rmf.cpp">
<polygon fill="none" stroke="black" points="552.815,-1 552.815,-21 657.185,-21 657.185,-1 552.815,-1"/>
<text text-anchor="middle" x="605" y="-7" font-family="Helvetica,sans-Serif" font-size="10.00">benchmark_rmf.cpp</text>
</a>
</g>
</g>
<!-- Node1&#45;&gt;Node6 -->
<g id="edge32" class="edge"><title>Node1&#45;&gt;Node6</title>
<path fill="none" stroke="midnightblue" d="M774.032,-224.12C768.594,-215.725 762.224,-205.495 757,-196 738.026,-161.512 742.423,-147.635 719,-116 688.711,-75.0916 640.586,-37.619 617.785,-21.0163"/>
<polygon fill="midnightblue" stroke="midnightblue" points="771.246,-226.252 779.665,-232.683 777.094,-222.405 771.246,-226.252"/>
</g>
<!-- Node15 -->
<g id="node15" class="node"><title>Node15</title>
<g id="a_node15"><a xlink:href="validate_8h.html" target="_top" xlink:title="Handle read/write of Model data from/to files. ">
<polygon fill="none" stroke="black" points="651.596,-117 651.596,-137 710.404,-137 710.404,-117 651.596,-117"/>
<text text-anchor="middle" x="681" y="-123" font-family="Helvetica,sans-Serif" font-size="10.00">validate.h</text>
</a>
</g>
</g>
<!-- Node1&#45;&gt;Node15 -->
<g id="edge31" class="edge"><title>Node1&#45;&gt;Node15</title>
<path fill="none" stroke="midnightblue" d="M762.301,-227.461C749.994,-219.195 735.226,-208.094 724,-196 706.706,-177.368 692.268,-150.859 685.367,-137.09"/>
<polygon fill="midnightblue" stroke="midnightblue" points="760.451,-230.432 770.742,-232.952 764.268,-224.565 760.451,-230.432"/>
</g>
<!-- Node16 -->
<g id="node16" class="node"><title>Node16</title>
<g id="a_node16"><a xlink:href="info_8h.html" target="_top" xlink:title="Helper functions for manipulating RMF files. ">
<polygon fill="none" stroke="black" points="765.769,-175 765.769,-195 806.231,-195 806.231,-175 765.769,-175"/>
<text text-anchor="middle" x="786" y="-181" font-family="Helvetica,sans-Serif" font-size="10.00">info.h</text>
</a>
</g>
</g>
<!-- Node1&#45;&gt;Node16 -->
<g id="edge27" class="edge"><title>Node1&#45;&gt;Node16</title>
<path fill="none" stroke="midnightblue" d="M786,-222.707C786,-213.338 786,-202.526 786,-195.075"/>
<polygon fill="midnightblue" stroke="midnightblue" points="782.5,-222.753 786,-232.753 789.5,-222.753 782.5,-222.753"/>
</g>
<!-- Node17 -->
<g id="node17" class="node"><title>Node17</title>
<g id="a_node17"><a xlink:href="RestoreCurrentFrame_8h.html" target="_top" xlink:title="Handle read/write of Model data from/to files. ">
<polygon fill="none" stroke="black" points="824.205,-175 824.205,-195 945.795,-195 945.795,-175 824.205,-175"/>
<text text-anchor="middle" x="885" y="-181" font-family="Helvetica,sans-Serif" font-size="10.00">RestoreCurrentFrame.h</text>
</a>
</g>
</g>
<!-- Node1&#45;&gt;Node17 -->
<g id="edge28" class="edge"><title>Node1&#45;&gt;Node17</title>
<path fill="none" stroke="midnightblue" d="M811.242,-227.722C829.403,-217.449 853.35,-203.903 868.956,-195.075"/>
<polygon fill="midnightblue" stroke="midnightblue" points="809.329,-224.783 802.348,-232.753 812.775,-230.876 809.329,-224.783"/>
</g>
<!-- Node18 -->
<g id="node18" class="node"><title>Node18</title>
<g id="a_node18"><a xlink:href="SetCurrentFrame_8h.html" target="_top" xlink:title="Handle read/write of Model data from/to files. ">
<polygon fill="none" stroke="black" points="964.207,-175 964.207,-195 1065.79,-195 1065.79,-175 964.207,-175"/>
<text text-anchor="middle" x="1015" y="-181" font-family="Helvetica,sans-Serif" font-size="10.00">SetCurrentFrame.h</text>
</a>
</g>
</g>
<!-- Node1&#45;&gt;Node18 -->
<g id="edge29" class="edge"><title>Node1&#45;&gt;Node18</title>
<path fill="none" stroke="midnightblue" d="M832.97,-230.514C875.898,-220.016 938.533,-204.699 978.006,-195.047"/>
<polygon fill="midnightblue" stroke="midnightblue" points="831.93,-227.165 823.047,-232.94 833.593,-233.965 831.93,-227.165"/>
</g>
<!-- Node19 -->
<g id="node19" class="node"><title>Node19</title>
<g id="a_node19"><a xlink:href="signature_8h.html" target="_top" xlink:title="Helper functions for manipulating RMF files. ">
<polygon fill="none" stroke="black" points="1084.26,-175 1084.26,-195 1149.74,-195 1149.74,-175 1084.26,-175"/>
<text text-anchor="middle" x="1117" y="-181" font-family="Helvetica,sans-Serif" font-size="10.00">signature.h</text>
</a>
</g>
</g>
<!-- Node1&#45;&gt;Node19 -->
<g id="edge30" class="edge"><title>Node1&#45;&gt;Node19</title>
<path fill="none" stroke="midnightblue" d="M845.511,-233.739C903.899,-225.341 995.367,-211.403 1074,-196 1077.31,-195.352 1080.75,-194.631 1084.18,-193.882"/>
<polygon fill="midnightblue" stroke="midnightblue" points="844.765,-230.31 835.362,-235.191 845.757,-237.239 844.765,-230.31"/>
</g>
<!-- Node3 -->
<g id="node3" class="node"><title>Node3</title>
<g id="a_node3"><a xlink:href="alias_8h.html" target="_top" xlink:title="Helper functions for manipulating RMF files. ">
<polygon fill="none" stroke="black" points="463.547,-117 463.547,-137 508.453,-137 508.453,-117 463.547,-117"/>
<text text-anchor="middle" x="486" y="-123" font-family="Helvetica,sans-Serif" font-size="10.00">alias.h</text>
</a>
</g>
</g>
<!-- Node2&#45;&gt;Node3 -->
<g id="edge2" class="edge"><title>Node2&#45;&gt;Node3</title>
<path fill="none" stroke="midnightblue" d="M440.289,-167.997C451.746,-157.972 466.095,-145.417 475.628,-137.075"/>
<polygon fill="midnightblue" stroke="midnightblue" points="437.789,-165.534 432.568,-174.753 442.399,-170.802 437.789,-165.534"/>
</g>
<!-- Node5 -->
<g id="node5" class="node"><title>Node5</title>
<g id="a_node5"><a xlink:href="physics_8h.html" target="_top" xlink:title="Helper functions for manipulating RMF files. ">
<polygon fill="none" stroke="black" points="464.158,-59 464.158,-79 521.842,-79 521.842,-59 464.158,-59"/>
<text text-anchor="middle" x="493" y="-65" font-family="Helvetica,sans-Serif" font-size="10.00">physics.h</text>
</a>
</g>
</g>
<!-- Node2&#45;&gt;Node5 -->
<g id="edge11" class="edge"><title>Node2&#45;&gt;Node5</title>
<path fill="none" stroke="midnightblue" d="M467.811,-173.291C486.411,-166.448 506.06,-155.453 517,-138 528.969,-118.907 512.241,-93.0451 501.254,-79.3727"/>
<polygon fill="midnightblue" stroke="midnightblue" points="466.6,-170.005 458.231,-176.503 468.825,-176.642 466.6,-170.005"/>
</g>
<!-- Node2&#45;&gt;Node6 -->
<g id="edge26" class="edge"><title>Node2&#45;&gt;Node6</title>
<path fill="none" stroke="midnightblue" d="M468.101,-174.043C495.579,-166.776 530.373,-155.158 558,-138 588.968,-118.766 602.049,-113.68 616,-80 624.238,-60.1123 615.453,-34.5735 609.511,-21.1627"/>
<polygon fill="midnightblue" stroke="midnightblue" points="467.164,-170.67 458.335,-176.526 468.889,-177.454 467.164,-170.67"/>
</g>
<!-- Node7 -->
<g id="node7" class="node"><title>Node7</title>
<g id="a_node7"><a xlink:href="external_8h.html" target="_top" xlink:title="Helper functions for manipulating RMF files. ">
<polygon fill="none" stroke="black" points="272.042,-59 272.042,-79 331.958,-79 331.958,-59 272.042,-59"/>
<text text-anchor="middle" x="302" y="-65" font-family="Helvetica,sans-Serif" font-size="10.00">external.h</text>
</a>
</g>
</g>
<!-- Node2&#45;&gt;Node7 -->
<g id="edge7" class="edge"><title>Node2&#45;&gt;Node7</title>
<path fill="none" stroke="midnightblue" d="M375.514,-181.906C344.095,-177.775 304.696,-166.714 284,-138 271.004,-119.969 285.585,-93.2066 295.1,-79.241"/>
<polygon fill="midnightblue" stroke="midnightblue" points="375.498,-185.426 385.824,-183.057 376.274,-178.469 375.498,-185.426"/>
</g>
<!-- Node8 -->
<g id="node8" class="node"><title>Node8</title>
<g id="a_node8"><a xlink:href="feature_8h.html" target="_top" xlink:title="Helper functions for manipulating RMF files. ">
<polygon fill="none" stroke="black" points="128.264,-59 128.264,-79 183.736,-79 183.736,-59 128.264,-59"/>
<text text-anchor="middle" x="156" y="-65" font-family="Helvetica,sans-Serif" font-size="10.00">feature.h</text>
</a>
</g>
</g>
<!-- Node2&#45;&gt;Node8 -->
<g id="edge9" class="edge"><title>Node2&#45;&gt;Node8</title>
<path fill="none" stroke="midnightblue" d="M375.616,-176.202C340.296,-169.168 291.087,-156.971 251,-138 217.083,-121.949 182.575,-93.5849 166.042,-79.0864"/>
<polygon fill="midnightblue" stroke="midnightblue" points="375.166,-179.68 385.648,-178.136 376.491,-172.806 375.166,-179.68"/>
</g>
<!-- Node9 -->
<g id="node9" class="node"><title>Node9</title>
<g id="a_node9"><a xlink:href="publication_8h.html" target="_top" xlink:title="Helper functions for manipulating RMF files. ">
<polygon fill="none" stroke="black" points="-0.0761719,-59 -0.0761719,-79 72.0762,-79 72.0762,-59 -0.0761719,-59"/>
<text text-anchor="middle" x="36" y="-65" font-family="Helvetica,sans-Serif" font-size="10.00">publication.h</text>
</a>
</g>
</g>
<!-- Node2&#45;&gt;Node9 -->
<g id="edge12" class="edge"><title>Node2&#45;&gt;Node9</title>
<path fill="none" stroke="midnightblue" d="M375.713,-183.914C289.483,-182.835 108.667,-175.968 61,-138 42.7003,-123.424 37.795,-94.132 36.4807,-79.2028"/>
<polygon fill="midnightblue" stroke="midnightblue" points="375.709,-187.414 385.745,-184.018 375.782,-180.414 375.709,-187.414"/>
</g>
<!-- Node10 -->
<g id="node10" class="node"><title>Node10</title>
<g id="a_node10"><a xlink:href="sequence_8h.html" target="_top" xlink:title="Helper functions for manipulating RMF files. ">
<polygon fill="none" stroke="black" points="540.146,-59 540.146,-79 607.854,-79 607.854,-59 540.146,-59"/>
<text text-anchor="middle" x="574" y="-65" font-family="Helvetica,sans-Serif" font-size="10.00">sequence.h</text>
</a>
</g>
</g>
<!-- Node2&#45;&gt;Node10 -->
<g id="edge14" class="edge"><title>Node2&#45;&gt;Node10</title>
<path fill="none" stroke="midnightblue" d="M468.007,-172.545C489.842,-165.363 515.202,-154.302 534,-138 553.04,-121.489 565.374,-93.5836 570.806,-79.1929"/>
<polygon fill="midnightblue" stroke="midnightblue" points="466.769,-169.264 458.26,-175.576 468.848,-175.948 466.769,-169.264"/>
</g>
<!-- Node11 -->
<g id="node11" class="node"><title>Node11</title>
<g id="a_node11"><a xlink:href="shape_8h.html" target="_top" xlink:title="Helper functions for manipulating RMF files. ">
<polygon fill="none" stroke="black" points="202.207,-59 202.207,-79 253.793,-79 253.793,-59 202.207,-59"/>
<text text-anchor="middle" x="228" y="-65" font-family="Helvetica,sans-Serif" font-size="10.00">shape.h</text>
</a>
</g>
</g>
<!-- Node2&#45;&gt;Node11 -->
<g id="edge17" class="edge"><title>Node2&#45;&gt;Node11</title>
<path fill="none" stroke="midnightblue" d="M375.674,-177.564C344.797,-171.446 304.601,-159.794 275,-138 253.736,-122.344 238.759,-94.0647 232.016,-79.3959"/>
<polygon fill="midnightblue" stroke="midnightblue" points="375.29,-181.052 385.76,-179.433 376.565,-174.169 375.29,-181.052"/>
</g>
<!-- Node12 -->
<g id="node12" class="node"><title>Node12</title>
<g id="a_node12"><a xlink:href="bond_8h.html" target="_top" xlink:title="Helper functions for manipulating RMF files. ">
<polygon fill="none" stroke="black" points="398.707,-117 398.707,-137 445.293,-137 445.293,-117 398.707,-117"/>
<text text-anchor="middle" x="422" y="-123" font-family="Helvetica,sans-Serif" font-size="10.00">bond.h</text>
</a>
</g>
</g>
<!-- Node2&#45;&gt;Node12 -->
<g id="edge19" class="edge"><title>Node2&#45;&gt;Node12</title>
<path fill="none" stroke="midnightblue" d="M422,-164.707C422,-155.338 422,-144.526 422,-137.075"/>
<polygon fill="midnightblue" stroke="midnightblue" points="418.5,-164.753 422,-174.753 425.5,-164.753 418.5,-164.753"/>
</g>
<!-- Node13 -->
<g id="node13" class="node"><title>Node13</title>
<g id="a_node13"><a xlink:href="representation_8h.html" target="_top" xlink:title="Helper functions for manipulating RMF files. ">
<polygon fill="none" stroke="black" points="292.865,-117 292.865,-137 381.135,-137 381.135,-117 292.865,-117"/>
<text text-anchor="middle" x="337" y="-123" font-family="Helvetica,sans-Serif" font-size="10.00">representation.h</text>
</a>
</g>
</g>
<!-- Node2&#45;&gt;Node13 -->
<g id="edge21" class="edge"><title>Node2&#45;&gt;Node13</title>
<path fill="none" stroke="midnightblue" d="M399.464,-169.153C383.983,-158.953 363.928,-145.741 350.775,-137.075"/>
<polygon fill="midnightblue" stroke="midnightblue" points="397.688,-172.174 407.964,-174.753 401.539,-166.328 397.688,-172.174"/>
</g>
<!-- Node14 -->
<g id="node14" class="node"><title>Node14</title>
<g id="a_node14"><a xlink:href="alternatives_8h.html" target="_top" xlink:title="Helper functions for manipulating RMF files. ">
<polygon fill="none" stroke="black" points="70.2612,-117 70.2612,-137 145.739,-137 145.739,-117 70.2612,-117"/>
<text text-anchor="middle" x="108" y="-123" font-family="Helvetica,sans-Serif" font-size="10.00">alternatives.h</text>
</a>
</g>
</g>
<!-- Node2&#45;&gt;Node14 -->
<g id="edge23" class="edge"><title>Node2&#45;&gt;Node14</title>
<path fill="none" stroke="midnightblue" d="M375.723,-175.747C313.403,-164.632 203.677,-145.063 145.951,-134.768"/>
<polygon fill="midnightblue" stroke="midnightblue" points="375.214,-179.211 385.673,-177.521 376.443,-172.32 375.214,-179.211"/>
</g>
<!-- Node2&#45;&gt;Node15 -->
<g id="edge25" class="edge"><title>Node2&#45;&gt;Node15</title>
<path fill="none" stroke="midnightblue" d="M468.408,-174.378C512.186,-165.24 579.621,-151.003 638,-138 642.339,-137.034 646.919,-135.992 651.408,-134.958"/>
<polygon fill="midnightblue" stroke="midnightblue" points="467.427,-171.007 458.352,-176.474 468.856,-177.86 467.427,-171.007"/>
</g>
<!-- Node4 -->
<g id="node4" class="node"><title>Node4</title>
<g id="a_node4"><a xlink:href="decorators_8h.html" target="_top" xlink:title="Import all the decorators headers. ">
<polygon fill="none" stroke="black" points="295.207,-1 295.207,-21 366.793,-21 366.793,-1 295.207,-1"/>
<text text-anchor="middle" x="331" y="-7" font-family="Helvetica,sans-Serif" font-size="10.00">decorators.h</text>
</a>
</g>
</g>
<!-- Node3&#45;&gt;Node4 -->
<g id="edge3" class="edge"><title>Node3&#45;&gt;Node4</title>
<path fill="none" stroke="midnightblue" d="M465.198,-110.7C432.498,-86.6504 370.063,-40.7303 343.481,-21.1799"/>
<polygon fill="midnightblue" stroke="midnightblue" points="463.448,-113.758 473.578,-116.864 467.596,-108.119 463.448,-113.758"/>
</g>
<!-- Node3&#45;&gt;Node5 -->
<g id="edge4" class="edge"><title>Node3&#45;&gt;Node5</title>
<path fill="none" stroke="midnightblue" d="M488.412,-106.707C489.583,-97.3384 490.934,-86.5262 491.866,-79.0752"/>
<polygon fill="midnightblue" stroke="midnightblue" points="484.923,-106.396 487.156,-116.753 491.869,-107.264 484.923,-106.396"/>
</g>
<!-- Node5&#45;&gt;Node4 -->
<g id="edge5" class="edge"><title>Node5&#45;&gt;Node4</title>
<path fill="none" stroke="midnightblue" d="M456.858,-55.5065C426.602,-45.0475 384.149,-30.3725 357.109,-21.0253"/>
<polygon fill="midnightblue" stroke="midnightblue" points="456.017,-58.9188 466.611,-58.878 458.304,-52.3029 456.017,-58.9188"/>
</g>
<!-- Node5&#45;&gt;Node6 -->
<g id="edge6" class="edge"><title>Node5&#45;&gt;Node6</title>
<path fill="none" stroke="midnightblue" d="M520.713,-54.1437C541.355,-43.8227 568.951,-30.0245 586.85,-21.0752"/>
<polygon fill="midnightblue" stroke="midnightblue" points="518.874,-51.1501 511.495,-58.7527 522.004,-57.411 518.874,-51.1501"/>
</g>
<!-- Node7&#45;&gt;Node4 -->
<g id="edge8" class="edge"><title>Node7&#45;&gt;Node4</title>
<path fill="none" stroke="midnightblue" d="M311.519,-49.6182C316.476,-40.0471 322.316,-28.7692 326.3,-21.0752"/>
<polygon fill="midnightblue" stroke="midnightblue" points="308.279,-48.2633 306.789,-58.7527 314.495,-51.4823 308.279,-48.2633"/>
</g>
<!-- Node8&#45;&gt;Node4 -->
<g id="edge10" class="edge"><title>Node8&#45;&gt;Node4</title>
<path fill="none" stroke="midnightblue" d="M193.788,-55.9079C226.495,-45.4416 273.07,-30.5374 302.663,-21.0679"/>
<polygon fill="midnightblue" stroke="midnightblue" points="192.574,-52.6213 184.117,-59.0026 194.708,-59.2883 192.574,-52.6213"/>
</g>
<!-- Node9&#45;&gt;Node4 -->
<g id="edge13" class="edge"><title>Node9&#45;&gt;Node4</title>
<path fill="none" stroke="midnightblue" d="M82.2143,-58.7367C83.4896,-58.4877 84.7534,-58.2417 86,-58 160.14,-43.6265 247.041,-27.475 294.859,-18.6478"/>
<polygon fill="midnightblue" stroke="midnightblue" points="81.4469,-55.3205 72.3109,-60.6856 82.7986,-62.1888 81.4469,-55.3205"/>
</g>
<!-- Node10&#45;&gt;Node4 -->
<g id="edge15" class="edge"><title>Node10&#45;&gt;Node4</title>
<path fill="none" stroke="midnightblue" d="M530.139,-57.8922C483.519,-47.1483 410.653,-30.3563 367.189,-20.3399"/>
<polygon fill="midnightblue" stroke="midnightblue" points="529.425,-61.3193 539.956,-60.1545 530.997,-54.4981 529.425,-61.3193"/>
</g>
<!-- Node10&#45;&gt;Node6 -->
<g id="edge16" class="edge"><title>Node10&#45;&gt;Node6</title>
<path fill="none" stroke="midnightblue" d="M584.009,-49.9199C589.342,-40.2849 595.672,-28.8502 599.976,-21.0752"/>
<polygon fill="midnightblue" stroke="midnightblue" points="580.9,-48.3087 579.119,-58.7527 587.024,-51.6989 580.9,-48.3087"/>
</g>
<!-- Node11&#45;&gt;Node4 -->
<g id="edge18" class="edge"><title>Node11&#45;&gt;Node4</title>
<path fill="none" stroke="midnightblue" d="M254.003,-53.8627C272.928,-43.5733 297.997,-29.9436 314.308,-21.0752"/>
<polygon fill="midnightblue" stroke="midnightblue" points="252.122,-50.9012 245.008,-58.7527 255.466,-57.051 252.122,-50.9012"/>
</g>
<!-- Node12&#45;&gt;Node4 -->
<g id="edge20" class="edge"><title>Node12&#45;&gt;Node4</title>
<path fill="none" stroke="midnightblue" d="M408.096,-108.582C388.493,-84.0246 353.437,-40.1079 338.295,-21.1394"/>
<polygon fill="midnightblue" stroke="midnightblue" points="405.579,-111.039 414.553,-116.671 411.05,-106.672 405.579,-111.039"/>
</g>
<!-- Node13&#45;&gt;Node4 -->
<g id="edge22" class="edge"><title>Node13&#45;&gt;Node4</title>
<path fill="none" stroke="midnightblue" d="M339.298,-106.635C340.563,-93.0083 341.585,-74.3564 340,-58 338.744,-45.0407 335.542,-30.3117 333.318,-21.0875"/>
<polygon fill="midnightblue" stroke="midnightblue" points="335.801,-106.427 338.231,-116.739 342.762,-107.162 335.801,-106.427"/>
</g>
<!-- Node14&#45;&gt;Node4 -->
<g id="edge24" class="edge"><title>Node14&#45;&gt;Node4</title>
<path fill="none" stroke="midnightblue" d="M105.701,-106.337C105.083,-91.1806 106.936,-70.725 119,-58 142.71,-32.992 240.854,-20.2315 294.899,-14.9876"/>
<polygon fill="midnightblue" stroke="midnightblue" points="102.242,-106.989 106.528,-116.678 109.22,-106.431 102.242,-106.989"/>
</g>
</g>
</svg>
