<?xml version="1.0" encoding="UTF-8" standalone="no"?>
<!DOCTYPE svg PUBLIC "-//W3C//DTD SVG 1.1//EN"
 "http://www.w3.org/Graphics/SVG/1.1/DTD/svg11.dtd">
<!-- Generated by graphviz version 2.34.0 (20131025.1349)
 -->
<!-- Title: FileConstHandle.h Pages: 1 -->
<svg width="2973pt" height="576pt"
 viewBox="0.00 0.00 2973.00 576.00" xmlns="http://www.w3.org/2000/svg" xmlns:xlink="http://www.w3.org/1999/xlink">
<g id="graph0" class="graph" transform="scale(1 1) rotate(0) translate(4 572)">
<title>FileConstHandle.h</title>
<!-- Node1 -->
<g id="node1" class="node"><title>Node1</title>
<polygon fill="#bfbfbf" stroke="black" points="1330.87,-547 1330.87,-567 1429.13,-567 1429.13,-547 1330.87,-547"/>
<text text-anchor="middle" x="1380" y="-553" font-family="Helvetica,sans-Serif" font-size="10.00">FileConstHandle.h</text>
</g>
<!-- Node2 -->
<g id="node2" class="node"><title>Node2</title>
<polygon fill="none" stroke="#bfbfbf" points="813.793,-419 813.793,-439 948.207,-439 948.207,-419 813.793,-419"/>
<text text-anchor="middle" x="881" y="-425" font-family="Helvetica,sans-Serif" font-size="10.00">boost/current_function.hpp</text>
</g>
<!-- Node1&#45;&gt;Node2 -->
<g id="edge1" class="edge"><title>Node1&#45;&gt;Node2</title>
<path fill="none" stroke="midnightblue" d="M1344.11,-546.938C1255.3,-524.512 1025.32,-466.441 926.845,-441.576"/>
<polygon fill="midnightblue" stroke="midnightblue" points="927.449,-438.119 916.896,-439.064 925.735,-444.906 927.449,-438.119"/>
</g>
<!-- Node3 -->
<g id="node3" class="node"><title>Node3</title>
<polygon fill="none" stroke="#bfbfbf" points="2392.01,-483 2392.01,-503 2521.99,-503 2521.99,-483 2392.01,-483"/>
<text text-anchor="middle" x="2457" y="-489" font-family="Helvetica,sans-Serif" font-size="10.00">boost/functional/hash.hpp</text>
</g>
<!-- Node1&#45;&gt;Node3 -->
<g id="edge2" class="edge"><title>Node1&#45;&gt;Node3</title>
<path fill="none" stroke="midnightblue" d="M1429.29,-556.402C1574.95,-557.015 2015.86,-554.748 2378,-510 2388,-508.764 2398.62,-506.958 2408.73,-505"/>
<polygon fill="midnightblue" stroke="midnightblue" points="2409.51,-508.413 2418.62,-503.007 2408.13,-501.551 2409.51,-508.413"/>
</g>
<!-- Node4 -->
<g id="node4" class="node"><title>Node4</title>
<polygon fill="none" stroke="#bfbfbf" points="180.018,-187 180.018,-207 289.982,-207 289.982,-187 180.018,-187"/>
<text text-anchor="middle" x="235" y="-193" font-family="Helvetica,sans-Serif" font-size="10.00">boost/shared_ptr.hpp</text>
</g>
<!-- Node1&#45;&gt;Node4 -->
<g id="edge3" class="edge"><title>Node1&#45;&gt;Node4</title>
<path fill="none" stroke="midnightblue" d="M1330.61,-555.815C1111.6,-554.356 239,-541.543 239,-430 239,-430 239,-430 239,-312 239,-278.625 237.267,-239.788 236.082,-217.144"/>
<polygon fill="midnightblue" stroke="midnightblue" points="239.577,-216.953 235.539,-207.158 232.587,-217.333 239.577,-216.953"/>
</g>
<!-- Node5 -->
<g id="node5" class="node"><title>Node5</title>
<polygon fill="none" stroke="#bfbfbf" points="2539.83,-483 2539.83,-503 2584.17,-503 2584.17,-483 2539.83,-483"/>
<text text-anchor="middle" x="2562" y="-489" font-family="Helvetica,sans-Serif" font-size="10.00">iosfwd</text>
</g>
<!-- Node1&#45;&gt;Node5 -->
<g id="edge4" class="edge"><title>Node1&#45;&gt;Node5</title>
<path fill="none" stroke="midnightblue" d="M1429.43,-555.249C1635.77,-551.948 2422.54,-537.646 2530,-510 2532.67,-509.313 2535.38,-508.383 2538.03,-507.314"/>
<polygon fill="midnightblue" stroke="midnightblue" points="2539.63,-510.428 2547.21,-503.028 2536.67,-504.085 2539.63,-510.428"/>
</g>
<!-- Node6 -->
<g id="node6" class="node"><title>Node6</title>
<polygon fill="none" stroke="#bfbfbf" points="1405.61,-187 1405.61,-207 1444.39,-207 1444.39,-187 1405.61,-187"/>
<text text-anchor="middle" x="1425" y="-193" font-family="Helvetica,sans-Serif" font-size="10.00">limits</text>
</g>
<!-- Node1&#45;&gt;Node6 -->
<g id="edge5" class="edge"><title>Node1&#45;&gt;Node6</title>
<path fill="none" stroke="midnightblue" d="M1330.77,-555.756C1190.62,-554.598 796.799,-547.966 754,-510 703.44,-465.149 690.137,-415.295 729,-360 756.162,-321.354 786.672,-344.968 829,-324 845.128,-316.011 846.16,-308.352 863,-302 965.153,-263.468 998.557,-285.391 1106,-266 1213.06,-246.679 1339.09,-218.06 1395.32,-204.98"/>
<polygon fill="midnightblue" stroke="midnightblue" points="1396.36,-208.333 1405.3,-202.652 1394.77,-201.516 1396.36,-208.333"/>
</g>
<!-- Node7 -->
<g id="node7" class="node"><title>Node7</title>
<polygon fill="none" stroke="#bfbfbf" points="2013.77,-59 2013.77,-79 2054.23,-79 2054.23,-59 2013.77,-59"/>
<text text-anchor="middle" x="2034" y="-65" font-family="Helvetica,sans-Serif" font-size="10.00">string</text>
</g>
<!-- Node1&#45;&gt;Node7 -->
<g id="edge6" class="edge"><title>Node1&#45;&gt;Node7</title>
<path fill="none" stroke="midnightblue" d="M1429.3,-555.281C1575.79,-552.79 2006.72,-542.797 2143,-510 2229.3,-489.231 2326,-518.765 2326,-430 2326,-430 2326,-430 2326,-254 2326,-131.497 2139.77,-87.3068 2064.76,-74.4766"/>
<polygon fill="midnightblue" stroke="midnightblue" points="2064.97,-70.9644 2054.53,-72.8056 2063.84,-77.8728 2064.97,-70.9644"/>
</g>
<!-- Node8 -->
<g id="node8" class="node"><title>Node8</title>
<polygon fill="none" stroke="#bfbfbf" points="2304.38,-59 2304.38,-79 2347.62,-79 2347.62,-59 2304.38,-59"/>
<text text-anchor="middle" x="2326" y="-65" font-family="Helvetica,sans-Serif" font-size="10.00">vector</text>
</g>
<!-- Node1&#45;&gt;Node8 -->
<g id="edge7" class="edge"><title>Node1&#45;&gt;Node8</title>
<path fill="none" stroke="midnightblue" d="M1429.34,-554.944C1600.66,-551.058 2163.45,-536.398 2240,-510 2291.29,-492.313 2314.95,-488.12 2340,-440 2402.76,-319.463 2352.32,-145.683 2332.84,-88.7974"/>
<polygon fill="midnightblue" stroke="midnightblue" points="2336.02,-87.299 2329.4,-79.0294 2329.42,-89.6242 2336.02,-87.299"/>
</g>
<!-- Node9 -->
<g id="node9" class="node"><title>Node9</title>
<g id="a_node9"><a xlink:href="BufferHandle_8h.html" target="_top" xlink:title="Manage a memory buffer for reading/writing RMF files. ">
<polygon fill="none" stroke="black" points="737.733,-303 737.733,-323 820.267,-323 820.267,-303 737.733,-303"/>
<text text-anchor="middle" x="779" y="-309" font-family="Helvetica,sans-Serif" font-size="10.00">BufferHandle.h</text>
</a>
</g>
</g>
<!-- Node1&#45;&gt;Node9 -->
<g id="edge8" class="edge"><title>Node1&#45;&gt;Node9</title>
<path fill="none" stroke="midnightblue" d="M1330.68,-556.471C1180.93,-557.388 739.132,-556.131 696,-510 650.469,-461.304 662.162,-417.441 696,-360 705.002,-344.718 721.111,-334.155 736.758,-327.043"/>
<polygon fill="midnightblue" stroke="midnightblue" points="738.48,-330.118 746.373,-323.05 735.795,-323.653 738.48,-330.118"/>
</g>
<!-- Node10 -->
<g id="node10" class="node"><title>Node10</title>
<g id="a_node10"><a xlink:href="config_8h_source.html" target="_top" xlink:title="RMF/config.h">
<polygon fill="none" stroke="black" points="718.269,-59 718.269,-79 793.731,-79 793.731,-59 718.269,-59"/>
<text text-anchor="middle" x="756" y="-65" font-family="Helvetica,sans-Serif" font-size="10.00">RMF/config.h</text>
</a>
</g>
</g>
<!-- Node1&#45;&gt;Node10 -->
<g id="edge117" class="edge"><title>Node1&#45;&gt;Node10</title>
<path fill="none" stroke="midnightblue" d="M1330.47,-556.509C1092.28,-558.318 76,-558.505 76,-430 76,-430 76,-430 76,-196 76,-146.958 107.703,-137.045 152,-116 250.051,-69.4167 582.759,-68.0506 707.889,-69.2672"/>
<polygon fill="midnightblue" stroke="midnightblue" points="707.903,-72.7674 717.94,-69.3749 707.979,-65.7678 707.903,-72.7674"/>
</g>
<!-- Node12 -->
<g id="node12" class="node"><title>Node12</title>
<g id="a_node12"><a xlink:href="infrastructure__macros_8h.html" target="_top" xlink:title="Various general useful macros for IMP. ">
<polygon fill="none" stroke="black" points="1776.48,-123 1776.48,-143 1897.52,-143 1897.52,-123 1776.48,-123"/>
<text text-anchor="middle" x="1837" y="-129" font-family="Helvetica,sans-Serif" font-size="10.00">infrastructure_macros.h</text>
</a>
</g>
</g>
<!-- Node1&#45;&gt;Node12 -->
<g id="edge121" class="edge"><title>Node1&#45;&gt;Node12</title>
<path fill="none" stroke="midnightblue" d="M1429.34,-554.263C1562.37,-549.31 1926.38,-533.919 2044,-510 2137.52,-490.983 2191.6,-517.708 2247,-440 2338.85,-311.174 2120.33,-275 1977,-208 1936.01,-188.838 1889.85,-163.726 1862.12,-148.236"/>
<polygon fill="midnightblue" stroke="midnightblue" points="1863.55,-145.026 1853.12,-143.184 1860.13,-151.131 1863.55,-145.026"/>
</g>
<!-- Node19 -->
<g id="node19" class="node"><title>Node19</title>
<g id="a_node19"><a xlink:href="exceptions_8h.html" target="_top" xlink:title="Various general useful macros for IMP. ">
<polygon fill="none" stroke="black" points="1341.93,-123 1341.93,-143 1414.07,-143 1414.07,-123 1341.93,-123"/>
<text text-anchor="middle" x="1378" y="-129" font-family="Helvetica,sans-Serif" font-size="10.00">exceptions.h</text>
</a>
</g>
</g>
<!-- Node1&#45;&gt;Node19 -->
<g id="edge120" class="edge"><title>Node1&#45;&gt;Node19</title>
<path fill="none" stroke="midnightblue" d="M1330.67,-555.711C1178.6,-554.42 723.988,-547.438 670,-510 637.96,-487.782 634,-468.99 634,-430 634,-430 634,-430 634,-370 634,-318.076 680.995,-321.789 729,-302 821.412,-263.905 857.968,-302.554 951,-266 967.406,-259.554 967.473,-250.129 984,-244 1107.01,-198.38 1155.03,-256.335 1277,-208 1294.63,-201.016 1335.12,-169.193 1359.14,-149.623"/>
<polygon fill="midnightblue" stroke="midnightblue" points="1361.37,-152.32 1366.89,-143.272 1356.93,-146.907 1361.37,-152.32"/>
</g>
<!-- Node22 -->
<g id="node22" class="node"><title>Node22</title>
<polygon fill="none" stroke="#bfbfbf" points="61.7661,-59 61.7661,-79 172.234,-79 172.234,-59 61.7661,-59"/>
<text text-anchor="middle" x="117" y="-65" font-family="Helvetica,sans-Serif" font-size="10.00">RMF/internal/errors.h</text>
</g>
<!-- Node1&#45;&gt;Node22 -->
<g id="edge123" class="edge"><title>Node1&#45;&gt;Node22</title>
<path fill="none" stroke="midnightblue" d="M1330.8,-555.542C1114.98,-553.35 257.657,-542.645 142,-510 72.2861,-490.323 0,-502.438 0,-430 0,-430 0,-430 0,-196 0,-143.747 54.701,-104.042 89.2981,-84.1558"/>
<polygon fill="midnightblue" stroke="midnightblue" points="91.4106,-86.9868 98.461,-79.0784 88.0177,-80.864 91.4106,-86.9868"/>
</g>
<!-- Node27 -->
<g id="node27" class="node"><title>Node27</title>
<g id="a_node27"><a xlink:href="NodeConstHandle_8h.html" target="_top" xlink:title="Handle read/write of Model data from/to files. ">
<polygon fill="none" stroke="black" points="1326.97,-483 1326.97,-503 1433.03,-503 1433.03,-483 1326.97,-483"/>
<text text-anchor="middle" x="1380" y="-489" font-family="Helvetica,sans-Serif" font-size="10.00">NodeConstHandle.h</text>
</a>
</g>
</g>
<!-- Node1&#45;&gt;Node27 -->
<g id="edge40" class="edge"><title>Node1&#45;&gt;Node27</title>
<path fill="none" stroke="midnightblue" d="M1380,-546.852C1380,-538.06 1380,-524.498 1380,-513.313"/>
<polygon fill="midnightblue" stroke="midnightblue" points="1383.5,-513.186 1380,-503.186 1376.5,-513.186 1383.5,-513.186"/>
</g>
<!-- Node29 -->
<g id="node29" class="node"><title>Node29</title>
<g id="a_node29"><a xlink:href="ID_8h.html" target="_top" xlink:title="Handle read/write of Model data from/to files. ">
<polygon fill="none" stroke="black" points="1279.61,-245 1279.61,-265 1338.39,-265 1338.39,-245 1279.61,-245"/>
<text text-anchor="middle" x="1309" y="-251" font-family="Helvetica,sans-Serif" font-size="10.00">RMF/ID.h</text>
</a>
</g>
</g>
<!-- Node1&#45;&gt;Node29 -->
<g id="edge116" class="edge"><title>Node1&#45;&gt;Node29</title>
<path fill="none" stroke="midnightblue" d="M1330.54,-553.994C1203.11,-547.658 869.002,-523.265 805,-440 799.041,-432.248 799.24,-425.901 805,-418 861.513,-340.474 1161.03,-281.658 1269.63,-262.592"/>
<polygon fill="midnightblue" stroke="midnightblue" points="1270.28,-266.033 1279.53,-260.872 1269.08,-259.136 1270.28,-266.033"/>
</g>
<!-- Node32 -->
<g id="node32" class="node"><title>Node32</title>
<g id="a_node32"><a xlink:href="types_8h.html" target="_top" xlink:title="RMF/types.h">
<polygon fill="none" stroke="black" points="457.66,-303 457.66,-323 530.34,-323 530.34,-303 457.66,-303"/>
<text text-anchor="middle" x="494" y="-309" font-family="Helvetica,sans-Serif" font-size="10.00">RMF/types.h</text>
</a>
</g>
</g>
<!-- Node1&#45;&gt;Node32 -->
<g id="edge127" class="edge"><title>Node1&#45;&gt;Node32</title>
<path fill="none" stroke="midnightblue" d="M1330.83,-555.584C1172.25,-553.893 681.09,-545.79 620,-510 550.62,-469.353 513.017,-373.66 499.673,-332.909"/>
<polygon fill="midnightblue" stroke="midnightblue" points="502.949,-331.659 496.608,-323.171 496.272,-333.761 502.949,-331.659"/>
</g>
<!-- Node42 -->
<g id="node42" class="node"><title>Node42</title>
<polygon fill="none" stroke="#bfbfbf" points="2084.14,-419 2084.14,-439 2221.86,-439 2221.86,-419 2084.14,-419"/>
<text text-anchor="middle" x="2153" y="-425" font-family="Helvetica,sans-Serif" font-size="10.00">RMF/internal/SharedData.h</text>
</g>
<!-- Node1&#45;&gt;Node42 -->
<g id="edge122" class="edge"><title>Node1&#45;&gt;Node42</title>
<path fill="none" stroke="midnightblue" d="M1429.24,-547.975C1563.49,-526.09 1936.03,-465.366 2087.6,-440.661"/>
<polygon fill="midnightblue" stroke="midnightblue" points="2088.38,-444.079 2097.69,-439.016 2087.26,-437.17 2088.38,-444.079"/>
</g>
<!-- Node43 -->
<g id="node43" class="node"><title>Node43</title>
<g id="a_node43"><a xlink:href="constants_8h.html" target="_top" xlink:title="Various utilities for rmfing. ">
<polygon fill="none" stroke="black" points="738.209,-361 738.209,-381 829.791,-381 829.791,-361 738.209,-361"/>
<text text-anchor="middle" x="784" y="-367" font-family="Helvetica,sans-Serif" font-size="10.00">RMF/constants.h</text>
</a>
</g>
</g>
<!-- Node1&#45;&gt;Node43 -->
<g id="edge118" class="edge"><title>Node1&#45;&gt;Node43</title>
<path fill="none" stroke="midnightblue" d="M1330.84,-556.022C1192.88,-555.576 809.696,-550.656 772,-510 741.723,-477.346 761.524,-419.731 774.799,-390.348"/>
<polygon fill="midnightblue" stroke="midnightblue" points="778.005,-391.755 779.129,-381.22 771.681,-388.755 778.005,-391.755"/>
</g>
<!-- Node44 -->
<g id="node44" class="node"><title>Node44</title>
<g id="a_node44"><a xlink:href="enums_8h.html" target="_top" xlink:title="Handle read/write of Model data from/to files. ">
<polygon fill="none" stroke="black" points="1977.6,-245 1977.6,-265 2056.4,-265 2056.4,-245 1977.6,-245"/>
<text text-anchor="middle" x="2017" y="-251" font-family="Helvetica,sans-Serif" font-size="10.00">RMF/enums.h</text>
</a>
</g>
</g>
<!-- Node1&#45;&gt;Node44 -->
<g id="edge119" class="edge"><title>Node1&#45;&gt;Node44</title>
<path fill="none" stroke="midnightblue" d="M1429.21,-553.036C1602.58,-542.096 2177.42,-501.411 2230,-440 2262.65,-401.868 2105.7,-306.43 2042.45,-270.228"/>
<polygon fill="midnightblue" stroke="midnightblue" points="2043.91,-267.033 2033.49,-265.137 2040.46,-273.119 2043.91,-267.033"/>
</g>
<!-- Node48 -->
<g id="node48" class="node"><title>Node48</title>
<polygon fill="none" stroke="#bfbfbf" points="2601.7,-477 2601.7,-509 2708.3,-509 2708.3,-477 2601.7,-477"/>
<text text-anchor="start" x="2609.7" y="-495" font-family="Helvetica,sans-Serif" font-size="10.00">RMF/internal/shared</text>
<text text-anchor="middle" x="2655" y="-483" font-family="Helvetica,sans-Serif" font-size="10.00">_data_ranges.h</text>
</g>
<!-- Node1&#45;&gt;Node48 -->
<g id="edge124" class="edge"><title>Node1&#45;&gt;Node48</title>
<path fill="none" stroke="midnightblue" d="M1429.23,-555.542C1624.13,-553.514 2342.69,-543.948 2591.31,-510.015"/>
<polygon fill="midnightblue" stroke="midnightblue" points="2591.96,-513.457 2601.38,-508.59 2590.98,-506.526 2591.96,-513.457"/>
</g>
<!-- Node49 -->
<g id="node49" class="node"><title>Node49</title>
<polygon fill="none" stroke="#bfbfbf" points="2726.36,-483 2726.36,-503 2839.64,-503 2839.64,-483 2726.36,-483"/>
<text text-anchor="middle" x="2783" y="-489" font-family="Helvetica,sans-Serif" font-size="10.00">internal/SharedData.h</text>
</g>
<!-- Node1&#45;&gt;Node49 -->
<g id="edge125" class="edge"><title>Node1&#45;&gt;Node49</title>
<path fill="none" stroke="midnightblue" d="M1429.19,-555.647C1639.1,-553.935 2460.86,-545.081 2717,-510 2724.97,-508.909 2733.37,-507.263 2741.42,-505.437"/>
<polygon fill="midnightblue" stroke="midnightblue" points="2742.45,-508.789 2751.36,-503.053 2740.82,-501.982 2742.45,-508.789"/>
</g>
<!-- Node50 -->
<g id="node50" class="node"><title>Node50</title>
<polygon fill="none" stroke="#bfbfbf" points="2857.41,-477 2857.41,-509 2964.59,-509 2964.59,-477 2857.41,-477"/>
<text text-anchor="start" x="2865.41" y="-495" font-family="Helvetica,sans-Serif" font-size="10.00">internal/shared_data</text>
<text text-anchor="middle" x="2911" y="-483" font-family="Helvetica,sans-Serif" font-size="10.00">_ranges.h</text>
</g>
<!-- Node1&#45;&gt;Node50 -->
<g id="edge126" class="edge"><title>Node1&#45;&gt;Node50</title>
<path fill="none" stroke="midnightblue" d="M1429.45,-555.893C1649.84,-555.197 2544.64,-549.997 2847.12,-509.864"/>
<polygon fill="midnightblue" stroke="midnightblue" points="2847.77,-513.308 2857.2,-508.483 2846.81,-506.373 2847.77,-513.308"/>
</g>
<!-- Node9&#45;&gt;Node6 -->
<g id="edge39" class="edge"><title>Node9&#45;&gt;Node6</title>
<path fill="none" stroke="midnightblue" d="M820.423,-304.344C825.001,-303.535 829.597,-302.739 834,-302 937.773,-284.587 967.207,-296.21 1068,-266 1090.48,-259.262 1093.44,-250.479 1116,-244 1234.9,-209.845 1271.06,-234.026 1392,-208 1393.25,-207.731 1394.52,-207.437 1395.8,-207.124"/>
<polygon fill="midnightblue" stroke="midnightblue" points="1396.87,-210.463 1405.6,-204.46 1395.03,-203.708 1396.87,-210.463"/>
</g>
<!-- Node9&#45;&gt;Node10 -->
<g id="edge9" class="edge"><title>Node9&#45;&gt;Node10</title>
<path fill="none" stroke="midnightblue" d="M737.505,-309.826C646.185,-304.618 434.21,-290.042 413,-266 382.765,-231.727 296.105,-251.069 439,-116 476.856,-80.2176 629.066,-72.1718 707.991,-70.43"/>
<polygon fill="midnightblue" stroke="midnightblue" points="708.232,-73.9261 718.162,-70.2316 708.095,-66.9274 708.232,-73.9261"/>
</g>
<!-- Node9&#45;&gt;Node12 -->
<g id="edge11" class="edge"><title>Node9&#45;&gt;Node12</title>
<path fill="none" stroke="midnightblue" d="M820.331,-311.479C965.72,-309.369 1452.99,-299.876 1605,-266 1672.34,-250.992 1689.86,-243.535 1749,-208 1776.35,-191.567 1803.85,-166.805 1820.66,-150.522"/>
<polygon fill="midnightblue" stroke="midnightblue" points="1823.33,-152.797 1828,-143.284 1818.42,-147.812 1823.33,-152.797"/>
</g>
<!-- Node9&#45;&gt;Node19 -->
<g id="edge21" class="edge"><title>Node9&#45;&gt;Node19</title>
<path fill="none" stroke="midnightblue" d="M820.328,-303.176C861.802,-294.216 927.468,-279.741 984,-266 1021.5,-256.885 1030.18,-251.673 1068,-244 1177.15,-221.856 1218.73,-262.253 1316,-208 1339.47,-194.912 1357.86,-169.196 1368.32,-151.801"/>
<polygon fill="midnightblue" stroke="midnightblue" points="1371.36,-153.541 1373.31,-143.126 1365.29,-150.054 1371.36,-153.541"/>
</g>
<!-- Node23 -->
<g id="node23" class="node"><title>Node23</title>
<g id="a_node23"><a xlink:href="BufferConstHandle_8h.html" target="_top" xlink:title="Manage a memory buffer for reading/writing RMF files. ">
<polygon fill="none" stroke="black" points="833.672,-245 833.672,-265 942.328,-265 942.328,-245 833.672,-245"/>
<text text-anchor="middle" x="888" y="-251" font-family="Helvetica,sans-Serif" font-size="10.00">BufferConstHandle.h</text>
</a>
</g>
</g>
<!-- Node9&#45;&gt;Node23 -->
<g id="edge28" class="edge"><title>Node9&#45;&gt;Node23</title>
<path fill="none" stroke="midnightblue" d="M796.999,-302.753C814.538,-293.742 841.412,-279.935 861.414,-269.659"/>
<polygon fill="midnightblue" stroke="midnightblue" points="863.04,-272.758 870.336,-265.075 859.842,-266.532 863.04,-272.758"/>
</g>
<!-- Node11 -->
<g id="node11" class="node"><title>Node11</title>
<g id="a_node11"><a xlink:href="compiler__macros_8h.html" target="_top" xlink:title="Various compiler workarounds. ">
<polygon fill="none" stroke="black" points="1311.54,-1 1311.54,-21 1436.46,-21 1436.46,-1 1311.54,-1"/>
<text text-anchor="middle" x="1374" y="-7" font-family="Helvetica,sans-Serif" font-size="10.00">RMF/compiler_macros.h</text>
</a>
</g>
</g>
<!-- Node10&#45;&gt;Node11 -->
<g id="edge10" class="edge"><title>Node10&#45;&gt;Node11</title>
<path fill="none" stroke="midnightblue" d="M794.192,-64.5392C894.988,-55.4056 1169.46,-30.5346 1301.34,-18.5837"/>
<polygon fill="midnightblue" stroke="midnightblue" points="1301.71,-22.0647 1311.36,-17.6764 1301.08,-15.0933 1301.71,-22.0647"/>
</g>
<!-- Node12&#45;&gt;Node7 -->
<g id="edge14" class="edge"><title>Node12&#45;&gt;Node7</title>
<path fill="none" stroke="midnightblue" d="M1866.62,-122.972C1900.05,-112.738 1956.02,-95.464 2004,-80 2004.1,-79.9684 2004.2,-79.9368 2004.29,-79.905"/>
<polygon fill="midnightblue" stroke="midnightblue" points="2005.27,-83.2688 2013.68,-76.8325 2003.09,-76.6159 2005.27,-83.2688"/>
</g>
<!-- Node12&#45;&gt;Node8 -->
<g id="edge20" class="edge"><title>Node12&#45;&gt;Node8</title>
<path fill="none" stroke="midnightblue" d="M1897.94,-124.273C2002.81,-110.977 2213.86,-84.2186 2294.07,-74.0482"/>
<polygon fill="midnightblue" stroke="midnightblue" points="2294.58,-77.5114 2304.06,-72.7813 2293.7,-70.567 2294.58,-77.5114"/>
</g>
<!-- Node12&#45;&gt;Node11 -->
<g id="edge15" class="edge"><title>Node12&#45;&gt;Node11</title>
<path fill="none" stroke="midnightblue" d="M1853.84,-122.825C1878,-108.544 1917.44,-80.3202 1897,-58 1867.22,-25.4908 1583.77,-15.8462 1447.06,-13.0741"/>
<polygon fill="midnightblue" stroke="midnightblue" points="1446.75,-9.56739 1436.68,-12.8711 1446.61,-16.5661 1446.75,-9.56739"/>
</g>
<!-- Node13 -->
<g id="node13" class="node"><title>Node13</title>
<polygon fill="none" stroke="#bfbfbf" points="1944.22,-59 1944.22,-79 1995.78,-79 1995.78,-59 1944.22,-59"/>
<text text-anchor="middle" x="1970" y="-65" font-family="Helvetica,sans-Serif" font-size="10.00">sstream</text>
</g>
<!-- Node12&#45;&gt;Node13 -->
<g id="edge12" class="edge"><title>Node12&#45;&gt;Node13</title>
<path fill="none" stroke="midnightblue" d="M1856.34,-122.985C1878.7,-112.561 1915.71,-95.3066 1941.4,-83.3319"/>
<polygon fill="midnightblue" stroke="midnightblue" points="1943.05,-86.4236 1950.64,-79.0262 1940.09,-80.0791 1943.05,-86.4236"/>
</g>
<!-- Node14 -->
<g id="node14" class="node"><title>Node14</title>
<polygon fill="none" stroke="#bfbfbf" points="2146.83,-59 2146.83,-79 2201.17,-79 2201.17,-59 2146.83,-59"/>
<text text-anchor="middle" x="2174" y="-65" font-family="Helvetica,sans-Serif" font-size="10.00">iostream</text>
</g>
<!-- Node12&#45;&gt;Node14 -->
<g id="edge13" class="edge"><title>Node12&#45;&gt;Node14</title>
<path fill="none" stroke="midnightblue" d="M1886,-122.985C1953.99,-110.476 2075.47,-88.1276 2136.63,-76.8747"/>
<polygon fill="midnightblue" stroke="midnightblue" points="2137.42,-80.2889 2146.62,-75.0372 2136.15,-73.4044 2137.42,-80.2889"/>
</g>
<!-- Node15 -->
<g id="node15" class="node"><title>Node15</title>
<polygon fill="none" stroke="#bfbfbf" points="1591.98,-59 1591.98,-79 1668.02,-79 1668.02,-59 1591.98,-59"/>
<text text-anchor="middle" x="1630" y="-65" font-family="Helvetica,sans-Serif" font-size="10.00">internal/use.h</text>
</g>
<!-- Node12&#45;&gt;Node15 -->
<g id="edge16" class="edge"><title>Node12&#45;&gt;Node15</title>
<path fill="none" stroke="midnightblue" d="M1806.9,-122.985C1770.72,-112.148 1709.89,-93.9276 1669.84,-81.9332"/>
<polygon fill="midnightblue" stroke="midnightblue" points="1670.72,-78.5427 1660.14,-79.0262 1668.71,-85.2484 1670.72,-78.5427"/>
</g>
<!-- Node16 -->
<g id="node16" class="node"><title>Node16</title>
<polygon fill="none" stroke="#bfbfbf" points="1686.31,-59 1686.31,-79 1775.69,-79 1775.69,-59 1686.31,-59"/>
<text text-anchor="middle" x="1731" y="-65" font-family="Helvetica,sans-Serif" font-size="10.00">boost/config.hpp</text>
</g>
<!-- Node12&#45;&gt;Node16 -->
<g id="edge17" class="edge"><title>Node12&#45;&gt;Node16</title>
<path fill="none" stroke="midnightblue" d="M1821.36,-122.852C1803.98,-112.686 1775.7,-96.143 1755.4,-84.2717"/>
<polygon fill="midnightblue" stroke="midnightblue" points="1757.1,-81.2136 1746.7,-79.1858 1753.57,-87.2559 1757.1,-81.2136"/>
</g>
<!-- Node17 -->
<g id="node17" class="node"><title>Node17</title>
<polygon fill="none" stroke="#bfbfbf" points="1793.53,-59 1793.53,-79 1888.47,-79 1888.47,-59 1793.53,-59"/>
<text text-anchor="middle" x="1841" y="-65" font-family="Helvetica,sans-Serif" font-size="10.00">boost/version.hpp</text>
</g>
<!-- Node12&#45;&gt;Node17 -->
<g id="edge18" class="edge"><title>Node12&#45;&gt;Node17</title>
<path fill="none" stroke="midnightblue" d="M1837.59,-122.852C1838.16,-114.06 1839.03,-100.498 1839.75,-89.3131"/>
<polygon fill="midnightblue" stroke="midnightblue" points="1843.26,-89.3905 1840.41,-79.1858 1836.27,-88.9397 1843.26,-89.3905"/>
</g>
<!-- Node18 -->
<g id="node18" class="node"><title>Node18</title>
<polygon fill="none" stroke="#bfbfbf" points="1477.97,-59 1477.97,-79 1574.03,-79 1574.03,-59 1477.97,-59"/>
<text text-anchor="middle" x="1526" y="-65" font-family="Helvetica,sans-Serif" font-size="10.00">boost/foreach.hpp</text>
</g>
<!-- Node12&#45;&gt;Node18 -->
<g id="edge19" class="edge"><title>Node12&#45;&gt;Node18</title>
<path fill="none" stroke="midnightblue" d="M1791.78,-122.985C1736.04,-111.873 1641.35,-92.9964 1581.33,-81.0307"/>
<polygon fill="midnightblue" stroke="midnightblue" points="1581.77,-77.5489 1571.28,-79.0262 1580.4,-84.4138 1581.77,-77.5489"/>
</g>
<!-- Node19&#45;&gt;Node7 -->
<g id="edge24" class="edge"><title>Node19&#45;&gt;Node7</title>
<path fill="none" stroke="midnightblue" d="M1414.41,-129.485C1534.25,-121.141 1913.34,-94.1865 2003.57,-79.3757"/>
<polygon fill="midnightblue" stroke="midnightblue" points="2004.32,-82.797 2013.52,-77.5444 2003.05,-75.9126 2004.32,-82.797"/>
</g>
<!-- Node19&#45;&gt;Node10 -->
<g id="edge25" class="edge"><title>Node19&#45;&gt;Node10</title>
<path fill="none" stroke="midnightblue" d="M1341.77,-125.973C1321.33,-122.712 1295.28,-118.792 1272,-116 1100.25,-95.401 895.304,-79.7888 803.996,-73.2977"/>
<polygon fill="midnightblue" stroke="midnightblue" points="804.176,-69.8018 793.954,-72.5881 803.682,-76.7844 804.176,-69.8018"/>
</g>
<!-- Node19&#45;&gt;Node11 -->
<g id="edge26" class="edge"><title>Node19&#45;&gt;Node11</title>
<path fill="none" stroke="midnightblue" d="M1377.7,-122.98C1377.05,-103.609 1375.52,-57.655 1374.65,-31.3576"/>
<polygon fill="midnightblue" stroke="midnightblue" points="1378.14,-31.002 1374.3,-21.1242 1371.14,-31.2353 1378.14,-31.002"/>
</g>
<!-- Node20 -->
<g id="node20" class="node"><title>Node20</title>
<polygon fill="none" stroke="#bfbfbf" points="1194.45,-59 1194.45,-79 1345.55,-79 1345.55,-59 1194.45,-59"/>
<text text-anchor="middle" x="1270" y="-65" font-family="Helvetica,sans-Serif" font-size="10.00">boost/exception/exception.hpp</text>
</g>
<!-- Node19&#45;&gt;Node20 -->
<g id="edge22" class="edge"><title>Node19&#45;&gt;Node20</title>
<path fill="none" stroke="midnightblue" d="M1362.06,-122.852C1344.36,-112.686 1315.54,-96.143 1294.86,-84.2717"/>
<polygon fill="midnightblue" stroke="midnightblue" points="1296.42,-81.1292 1286,-79.1858 1292.93,-87.2 1296.42,-81.1292"/>
</g>
<!-- Node21 -->
<g id="node21" class="node"><title>Node21</title>
<polygon fill="none" stroke="#bfbfbf" points="1401.6,-59 1401.6,-79 1460.4,-79 1460.4,-59 1401.6,-59"/>
<text text-anchor="middle" x="1431" y="-65" font-family="Helvetica,sans-Serif" font-size="10.00">exception</text>
</g>
<!-- Node19&#45;&gt;Node21 -->
<g id="edge23" class="edge"><title>Node19&#45;&gt;Node21</title>
<path fill="none" stroke="midnightblue" d="M1385.82,-122.852C1393.88,-113.419 1406.64,-98.4945 1416.55,-86.9072"/>
<polygon fill="midnightblue" stroke="midnightblue" points="1419.31,-89.0613 1423.15,-79.1858 1413.99,-84.5128 1419.31,-89.0613"/>
</g>
<!-- Node19&#45;&gt;Node22 -->
<g id="edge27" class="edge"><title>Node19&#45;&gt;Node22</title>
<path fill="none" stroke="midnightblue" d="M1341.78,-127.091C1313.77,-123.474 1273.99,-118.728 1239,-116 838.289,-84.7659 355.311,-74.0058 182.451,-71"/>
<polygon fill="midnightblue" stroke="midnightblue" points="182.307,-67.4972 172.248,-70.8254 182.187,-74.4961 182.307,-67.4972"/>
</g>
<!-- Node23&#45;&gt;Node4 -->
<g id="edge35" class="edge"><title>Node23&#45;&gt;Node4</title>
<path fill="none" stroke="midnightblue" d="M833.449,-249.322C713.922,-239.071 429.336,-214.666 300.44,-203.612"/>
<polygon fill="midnightblue" stroke="midnightblue" points="300.579,-200.111 290.317,-202.744 299.981,-207.086 300.579,-200.111"/>
</g>
<!-- Node23&#45;&gt;Node6 -->
<g id="edge37" class="edge"><title>Node23&#45;&gt;Node6</title>
<path fill="none" stroke="midnightblue" d="M942.604,-249.351C1029.72,-241.766 1205.48,-225.782 1354,-208 1367.62,-206.37 1382.66,-204.291 1395.38,-202.452"/>
<polygon fill="midnightblue" stroke="midnightblue" points="1396.05,-205.891 1405.44,-200.978 1395.04,-198.965 1396.05,-205.891"/>
</g>
<!-- Node23&#45;&gt;Node7 -->
<g id="edge33" class="edge"><title>Node23&#45;&gt;Node7</title>
<path fill="none" stroke="midnightblue" d="M942.408,-252.614C1101.26,-248.307 1562.53,-233.864 1711,-208 1800.08,-192.483 1823.58,-187.187 1906,-150 1946.42,-131.762 1989.33,-102.68 2013.78,-85.0593"/>
<polygon fill="midnightblue" stroke="midnightblue" points="2015.9,-87.8478 2021.91,-79.1271 2011.77,-82.1923 2015.9,-87.8478"/>
</g>
<!-- Node23&#45;&gt;Node10 -->
<g id="edge29" class="edge"><title>Node23&#45;&gt;Node10</title>
<path fill="none" stroke="midnightblue" d="M906.387,-244.835C928.287,-232.598 960.336,-209.702 947,-186 915.541,-130.087 845.026,-98.0064 799.04,-82.2992"/>
<polygon fill="midnightblue" stroke="midnightblue" points="799.932,-78.9079 789.339,-79.1031 797.741,-85.5564 799.932,-78.9079"/>
</g>
<!-- Node23&#45;&gt;Node12 -->
<g id="edge30" class="edge"><title>Node23&#45;&gt;Node12</title>
<path fill="none" stroke="midnightblue" d="M942.585,-248.652C1017.98,-241.013 1158.14,-225.904 1277,-208 1330.62,-199.923 1343.32,-193.615 1397,-186 1554.89,-163.603 1596.21,-173.116 1754,-150 1763.8,-148.564 1774.2,-146.773 1784.21,-144.914"/>
<polygon fill="midnightblue" stroke="midnightblue" points="1784.88,-148.35 1794.05,-143.043 1783.57,-141.473 1784.88,-148.35"/>
</g>
<!-- Node23&#45;&gt;Node13 -->
<g id="edge32" class="edge"><title>Node23&#45;&gt;Node13</title>
<path fill="none" stroke="midnightblue" d="M942.557,-245.96C947.104,-245.295 951.631,-244.635 956,-244 1067.53,-227.802 1102.62,-250.488 1207,-208 1223.06,-201.465 1316.7,-121.899 1333,-116 1451.09,-73.2651 1772.04,-92.5306 1897,-80 1909.11,-78.7858 1922.3,-77.0931 1934.09,-75.4451"/>
<polygon fill="midnightblue" stroke="midnightblue" points="1934.64,-78.9034 1944.04,-74.0216 1933.64,-71.974 1934.64,-78.9034"/>
</g>
<!-- Node23&#45;&gt;Node19 -->
<g id="edge34" class="edge"><title>Node23&#45;&gt;Node19</title>
<path fill="none" stroke="midnightblue" d="M942.546,-245.881C947.095,-245.233 951.626,-244.599 956,-244 1082.06,-226.743 1118.8,-246.71 1240,-208 1262.98,-200.66 1320.43,-167.93 1353.5,-148.543"/>
<polygon fill="midnightblue" stroke="midnightblue" points="1355.69,-151.318 1362.53,-143.229 1352.14,-145.286 1355.69,-151.318"/>
</g>
<!-- Node24 -->
<g id="node24" class="node"><title>Node24</title>
<polygon fill="none" stroke="#bfbfbf" points="611.853,-187 611.853,-207 730.147,-207 730.147,-187 611.853,-187"/>
<text text-anchor="middle" x="671" y="-193" font-family="Helvetica,sans-Serif" font-size="10.00">boost/exception/all.hpp</text>
</g>
<!-- Node23&#45;&gt;Node24 -->
<g id="edge31" class="edge"><title>Node23&#45;&gt;Node24</title>
<path fill="none" stroke="midnightblue" d="M852.652,-244.878C815.342,-235.249 756.428,-220.046 715.866,-209.578"/>
<polygon fill="midnightblue" stroke="midnightblue" points="716.53,-206.135 705.973,-207.025 714.781,-212.913 716.53,-206.135"/>
</g>
<!-- Node25 -->
<g id="node25" class="node"><title>Node25</title>
<polygon fill="none" stroke="#bfbfbf" points="748.353,-187 748.353,-207 871.647,-207 871.647,-187 748.353,-187"/>
<text text-anchor="middle" x="810" y="-193" font-family="Helvetica,sans-Serif" font-size="10.00">boost/make_shared.hpp</text>
</g>
<!-- Node23&#45;&gt;Node25 -->
<g id="edge36" class="edge"><title>Node23&#45;&gt;Node25</title>
<path fill="none" stroke="midnightblue" d="M875.12,-244.753C863.08,-236.109 844.894,-223.052 830.797,-212.931"/>
<polygon fill="midnightblue" stroke="midnightblue" points="832.805,-210.064 822.64,-207.075 828.722,-215.75 832.805,-210.064"/>
</g>
<!-- Node26 -->
<g id="node26" class="node"><title>Node26</title>
<polygon fill="none" stroke="#bfbfbf" points="889.879,-187 889.879,-207 938.121,-207 938.121,-187 889.879,-187"/>
<text text-anchor="middle" x="914" y="-193" font-family="Helvetica,sans-Serif" font-size="10.00">stdint.h</text>
</g>
<!-- Node23&#45;&gt;Node26 -->
<g id="edge38" class="edge"><title>Node23&#45;&gt;Node26</title>
<path fill="none" stroke="midnightblue" d="M892.293,-244.753C895.89,-237.006 901.133,-225.714 905.565,-216.169"/>
<polygon fill="midnightblue" stroke="midnightblue" points="908.75,-217.619 909.787,-207.075 902.401,-214.671 908.75,-217.619"/>
</g>
<!-- Node27&#45;&gt;Node2 -->
<g id="edge42" class="edge"><title>Node27&#45;&gt;Node2</title>
<path fill="none" stroke="midnightblue" d="M1326.6,-485.365C1238.03,-474.36 1060.4,-452.29 958.186,-439.59"/>
<polygon fill="midnightblue" stroke="midnightblue" points="958.588,-436.113 948.233,-438.354 957.725,-443.06 958.588,-436.113"/>
</g>
<!-- Node27&#45;&gt;Node4 -->
<g id="edge43" class="edge"><title>Node27&#45;&gt;Node4</title>
<path fill="none" stroke="midnightblue" d="M1326.95,-487.379C1270.31,-481.222 1178.62,-467.706 1104,-440 1085.71,-433.207 1083.89,-425.787 1066,-418 1015.72,-396.121 998.277,-403.879 948,-382 930.106,-374.213 928.636,-365.793 910,-360 713.749,-298.999 645.026,-385.72 449,-324 370.524,-299.291 290.133,-241.407 254.288,-213.536"/>
<polygon fill="midnightblue" stroke="midnightblue" points="256.184,-210.574 246.163,-207.136 251.853,-216.073 256.184,-210.574"/>
</g>
<!-- Node27&#45;&gt;Node7 -->
<g id="edge45" class="edge"><title>Node27&#45;&gt;Node7</title>
<path fill="none" stroke="midnightblue" d="M1433.41,-489.407C1565.39,-482.672 1899.49,-463.497 1944,-440 1985.46,-418.115 2085.05,-341.247 2132,-208 2149.84,-157.372 2092.32,-108.729 2057.9,-85.0181"/>
<polygon fill="midnightblue" stroke="midnightblue" points="2059.56,-81.9168 2049.3,-79.2751 2055.68,-87.7386 2059.56,-81.9168"/>
</g>
<!-- Node27&#45;&gt;Node8 -->
<g id="edge46" class="edge"><title>Node27&#45;&gt;Node8</title>
<path fill="none" stroke="midnightblue" d="M1433.12,-489.128C1575.39,-481.227 1957.9,-458.519 2012,-440 2185.28,-380.679 2290.7,-155.282 2318.55,-88.6554"/>
<polygon fill="midnightblue" stroke="midnightblue" points="2321.93,-89.6408 2322.48,-79.0603 2315.45,-86.9883 2321.93,-89.6408"/>
</g>
<!-- Node27&#45;&gt;Node10 -->
<g id="edge92" class="edge"><title>Node27&#45;&gt;Node10</title>
<path fill="none" stroke="midnightblue" d="M1326.87,-489.034C1263.23,-484.169 1154.16,-471.627 1066,-440 1047.63,-433.41 1045.89,-425.787 1028,-418 977.723,-396.121 962.441,-398.011 910,-382 877.998,-372.229 870.868,-366.269 838,-360 642.219,-322.661 582.393,-379.616 391,-324 284.853,-293.156 228.095,-302.65 171,-208 113.495,-112.671 558.276,-80.3832 707.972,-72.2746"/>
<polygon fill="midnightblue" stroke="midnightblue" points="708.428,-75.7555 718.229,-71.732 708.058,-68.7652 708.428,-75.7555"/>
</g>
<!-- Node27&#45;&gt;Node12 -->
<g id="edge94" class="edge"><title>Node27&#45;&gt;Node12</title>
<path fill="none" stroke="midnightblue" d="M1432.83,-482.96C1519.35,-465.771 1692.64,-421.07 1803,-324 1848.21,-284.23 1863.51,-267.463 1873,-208 1874.54,-198.344 1875.92,-195.333 1873,-186 1868.94,-173.001 1860.36,-160.391 1852.6,-150.845"/>
<polygon fill="midnightblue" stroke="midnightblue" points="1855.03,-148.306 1845.85,-143.017 1849.73,-152.876 1855.03,-148.306"/>
</g>
<!-- Node27&#45;&gt;Node14 -->
<g id="edge44" class="edge"><title>Node27&#45;&gt;Node14</title>
<path fill="none" stroke="midnightblue" d="M1433.08,-489.172C1569.56,-481.645 1925.54,-460.305 1975,-440 2121.25,-379.959 2146.29,-304.239 2181,-150 2185.58,-129.665 2182.42,-105.798 2179,-89.4588"/>
<polygon fill="midnightblue" stroke="midnightblue" points="2182.36,-88.4346 2176.69,-79.4857 2175.54,-90.0183 2182.36,-88.4346"/>
</g>
<!-- Node27&#45;&gt;Node19 -->
<g id="edge93" class="edge"><title>Node27&#45;&gt;Node19</title>
<path fill="none" stroke="midnightblue" d="M1408.25,-482.886C1431.29,-474.436 1463.72,-460.121 1487,-440 1540.47,-393.792 1591.62,-367.865 1566,-302 1558.13,-281.771 1547.06,-282.538 1533,-266 1503.69,-231.517 1504.35,-215.469 1470,-186 1451.42,-170.057 1427.21,-156.605 1408.29,-147.379"/>
<polygon fill="midnightblue" stroke="midnightblue" points="1409.74,-144.194 1399.2,-143.074 1406.74,-150.52 1409.74,-144.194"/>
</g>
<!-- Node27&#45;&gt;Node22 -->
<g id="edge96" class="edge"><title>Node27&#45;&gt;Node22</title>
<path fill="none" stroke="midnightblue" d="M1326.62,-487.885C1234.68,-480.301 1050.49,-462.786 990,-440 973.505,-433.786 973.514,-424.166 957,-418 802.119,-360.171 370.669,-389.795 219,-324 123.444,-282.547 94.9384,-248.815 62,-150 57.2214,-135.664 55.6028,-129.69 62,-116 68.071,-103.008 79.8161,-92.3935 90.899,-84.6479"/>
<polygon fill="midnightblue" stroke="midnightblue" points="93.0342,-87.4349 99.5242,-79.0604 89.2284,-81.5599 93.0342,-87.4349"/>
</g>
<!-- Node28 -->
<g id="node28" class="node"><title>Node28</title>
<polygon fill="none" stroke="#bfbfbf" points="1193.96,-419 1193.96,-439 1272.04,-439 1272.04,-419 1193.96,-419"/>
<text text-anchor="middle" x="1233" y="-425" font-family="Helvetica,sans-Serif" font-size="10.00">boost/any.hpp</text>
</g>
<!-- Node27&#45;&gt;Node28 -->
<g id="edge41" class="edge"><title>Node27&#45;&gt;Node28</title>
<path fill="none" stroke="midnightblue" d="M1358.62,-482.985C1333.69,-472.47 1292.28,-455.002 1263.86,-443.017"/>
<polygon fill="midnightblue" stroke="midnightblue" points="1264.98,-439.688 1254.4,-439.026 1262.25,-446.137 1264.98,-439.688"/>
</g>
<!-- Node27&#45;&gt;Node29 -->
<g id="edge47" class="edge"><title>Node27&#45;&gt;Node29</title>
<path fill="none" stroke="midnightblue" d="M1412.15,-482.884C1432.94,-475.132 1458.4,-461.718 1471,-440 1475.91,-431.543 1474.31,-427.199 1471,-418 1446.05,-348.711 1372.44,-294.906 1333.62,-270.433"/>
<polygon fill="midnightblue" stroke="midnightblue" points="1335.34,-267.386 1325,-265.12 1331.67,-273.345 1335.34,-267.386"/>
</g>
<!-- Node30 -->
<g id="node30" class="node"><title>Node30</title>
<g id="a_node30"><a xlink:href="Nullable_8h.html" target="_top" xlink:title="Handle read/write of Model data from/to files. ">
<polygon fill="none" stroke="black" points="1290.54,-419 1290.54,-439 1375.46,-439 1375.46,-419 1290.54,-419"/>
<text text-anchor="middle" x="1333" y="-425" font-family="Helvetica,sans-Serif" font-size="10.00">RMF/Nullable.h</text>
</a>
</g>
</g>
<!-- Node27&#45;&gt;Node30 -->
<g id="edge52" class="edge"><title>Node27&#45;&gt;Node30</title>
<path fill="none" stroke="midnightblue" d="M1373.06,-482.852C1365.98,-473.511 1354.82,-458.784 1346.07,-447.246"/>
<polygon fill="midnightblue" stroke="midnightblue" points="1348.79,-445.041 1339.96,-439.186 1343.22,-449.269 1348.79,-445.041"/>
</g>
<!-- Node31 -->
<g id="node31" class="node"><title>Node31</title>
<g id="a_node31"><a xlink:href="traits_8h.html" target="_top" xlink:title="Handle read/write of Model data from/to files. ">
<polygon fill="none" stroke="black" points="1238,-361 1238,-381 1284,-381 1284,-361 1238,-361"/>
<text text-anchor="middle" x="1261" y="-367" font-family="Helvetica,sans-Serif" font-size="10.00">traits.h</text>
</a>
</g>
</g>
<!-- Node27&#45;&gt;Node31 -->
<g id="edge114" class="edge"><title>Node27&#45;&gt;Node31</title>
<path fill="none" stroke="midnightblue" d="M1326.95,-485.146C1275.33,-477.259 1202.24,-462.436 1185,-440 1168.02,-417.896 1200.67,-397.261 1228.33,-384.648"/>
<polygon fill="midnightblue" stroke="midnightblue" points="1230.03,-387.724 1237.81,-380.532 1227.24,-381.302 1230.03,-387.724"/>
</g>
<!-- Node27&#45;&gt;Node32 -->
<g id="edge115" class="edge"><title>Node27&#45;&gt;Node32</title>
<path fill="none" stroke="midnightblue" d="M1342.03,-482.987C1301.11,-473.108 1234.16,-456.463 1177,-440 1136.41,-428.31 1035.38,-397.271 996,-382 974.12,-373.515 970.683,-366.018 948,-360 773.76,-313.776 722.424,-349.714 544,-324 542.905,-323.842 541.797,-323.676 540.681,-323.502"/>
<polygon fill="midnightblue" stroke="midnightblue" points="540.957,-319.999 530.513,-321.778 539.787,-326.901 540.957,-319.999"/>
</g>
<!-- Node27&#45;&gt;Node42 -->
<g id="edge95" class="edge"><title>Node27&#45;&gt;Node42</title>
<path fill="none" stroke="midnightblue" d="M1433.31,-488.797C1549.25,-481.652 1832.97,-463.199 2070,-440 2071.12,-439.89 2072.25,-439.778 2073.38,-439.664"/>
<polygon fill="midnightblue" stroke="midnightblue" points="2074.15,-443.102 2083.73,-438.58 2073.42,-436.141 2074.15,-443.102"/>
</g>
<!-- Node27&#45;&gt;Node43 -->
<g id="edge97" class="edge"><title>Node27&#45;&gt;Node43</title>
<path fill="none" stroke="midnightblue" d="M1326.85,-488.526C1258.74,-483.034 1137.55,-469.743 1038,-440 1015.51,-433.282 1012.24,-425.487 990,-418 940.43,-401.312 882.099,-388.934 840.185,-381.246"/>
<polygon fill="midnightblue" stroke="midnightblue" points="840.628,-377.77 830.166,-379.441 839.387,-384.659 840.628,-377.77"/>
</g>
<!-- Node27&#45;&gt;Node44 -->
<g id="edge100" class="edge"><title>Node27&#45;&gt;Node44</title>
<path fill="none" stroke="midnightblue" d="M1433.11,-489.693C1560.95,-483.743 1878.2,-466.465 1918,-440 1977.11,-400.698 2003.7,-313.971 2012.95,-275.285"/>
<polygon fill="midnightblue" stroke="midnightblue" points="2016.41,-275.849 2015.19,-265.324 2009.58,-274.309 2016.41,-275.849"/>
</g>
<!-- Node47 -->
<g id="node47" class="node"><title>Node47</title>
<g id="a_node47"><a xlink:href="keys_8h.html" target="_top" xlink:title="Handle read/write of Model data from/to files. ">
<polygon fill="none" stroke="black" points="1393.33,-419 1393.33,-439 1462.67,-439 1462.67,-419 1393.33,-419"/>
<text text-anchor="middle" x="1428" y="-425" font-family="Helvetica,sans-Serif" font-size="10.00">RMF/keys.h</text>
</a>
</g>
</g>
<!-- Node27&#45;&gt;Node47 -->
<g id="edge109" class="edge"><title>Node27&#45;&gt;Node47</title>
<path fill="none" stroke="midnightblue" d="M1387.08,-482.852C1394.31,-473.511 1405.72,-458.784 1414.65,-447.246"/>
<polygon fill="midnightblue" stroke="midnightblue" points="1417.53,-449.236 1420.89,-439.186 1412,-444.95 1417.53,-449.236"/>
</g>
<!-- Node29&#45;&gt;Node6 -->
<g id="edge51" class="edge"><title>Node29&#45;&gt;Node6</title>
<path fill="none" stroke="midnightblue" d="M1327.9,-244.878C1346.6,-235.847 1375.47,-221.913 1396.87,-211.581"/>
<polygon fill="midnightblue" stroke="midnightblue" points="1398.63,-214.618 1406.11,-207.118 1395.59,-208.314 1398.63,-214.618"/>
</g>
<!-- Node29&#45;&gt;Node10 -->
<g id="edge48" class="edge"><title>Node29&#45;&gt;Node10</title>
<path fill="none" stroke="midnightblue" d="M1279.47,-251.62C1222.38,-246.51 1099.53,-232.886 1066,-208 1028.97,-180.513 1055.22,-143.24 1018,-116 984.705,-91.6293 870.239,-78.8686 804.141,-73.3839"/>
<polygon fill="midnightblue" stroke="midnightblue" points="804.216,-69.8787 793.968,-72.5654 803.655,-76.8562 804.216,-69.8787"/>
</g>
<!-- Node29&#45;&gt;Node12 -->
<g id="edge49" class="edge"><title>Node29&#45;&gt;Node12</title>
<path fill="none" stroke="midnightblue" d="M1338.58,-249.963C1352.63,-248.081 1369.67,-245.854 1385,-244 1529.71,-226.491 1572.65,-253.924 1711,-208 1751.56,-194.535 1793.31,-166.743 1817.11,-149.313"/>
<polygon fill="midnightblue" stroke="midnightblue" points="1819.39,-151.977 1825.32,-143.192 1815.21,-146.366 1819.39,-151.977"/>
</g>
<!-- Node29&#45;&gt;Node19 -->
<g id="edge50" class="edge"><title>Node29&#45;&gt;Node19</title>
<path fill="none" stroke="midnightblue" d="M1338.41,-248.795C1376.42,-241.399 1439.38,-226.651 1453,-208 1470.25,-184.377 1436.68,-161.39 1409.05,-147.464"/>
<polygon fill="midnightblue" stroke="midnightblue" points="1410.52,-144.286 1399.99,-143.1 1407.48,-150.593 1410.52,-144.286"/>
</g>
<!-- Node30&#45;&gt;Node6 -->
<g id="edge91" class="edge"><title>Node30&#45;&gt;Node6</title>
<path fill="none" stroke="midnightblue" d="M1290.31,-419.793C1268.45,-413.303 1243.46,-401.88 1229,-382 1192.79,-332.208 1196.27,-286.298 1241,-244 1263.14,-223.064 1349.44,-208.357 1395.56,-201.815"/>
<polygon fill="midnightblue" stroke="midnightblue" points="1396.13,-205.269 1405.56,-200.435 1395.17,-198.335 1396.13,-205.269"/>
</g>
<!-- Node30&#45;&gt;Node10 -->
<g id="edge53" class="edge"><title>Node30&#45;&gt;Node10</title>
<path fill="none" stroke="midnightblue" d="M1292.59,-418.963C1228.06,-404.787 1097.64,-377.17 986,-360 844.107,-338.178 793.523,-387.967 665,-324 580.24,-281.814 549.398,-180.184 619,-116 643.419,-93.4822 679.221,-81.9521 708.102,-76.0674"/>
<polygon fill="midnightblue" stroke="midnightblue" points="708.815,-79.4948 717.999,-74.2126 707.526,-72.6146 708.815,-79.4948"/>
</g>
<!-- Node30&#45;&gt;Node12 -->
<g id="edge89" class="edge"><title>Node30&#45;&gt;Node12</title>
<path fill="none" stroke="midnightblue" d="M1375.54,-419.553C1424.87,-409.507 1502.99,-392.749 1531,-382 1656.7,-333.753 1684.59,-304.003 1779,-208 1796.6,-190.099 1813.99,-166.995 1825.07,-151.403"/>
<polygon fill="midnightblue" stroke="midnightblue" points="1827.95,-153.387 1830.81,-143.186 1822.22,-149.375 1827.95,-153.387"/>
</g>
<!-- Node30&#45;&gt;Node19 -->
<g id="edge90" class="edge"><title>Node30&#45;&gt;Node19</title>
<path fill="none" stroke="midnightblue" d="M1364.97,-418.986C1440.57,-397.222 1624,-341.57 1624,-314 1624,-314 1624,-314 1624,-254 1624,-151.835 1515.91,-182.342 1419,-150 1415.88,-148.96 1412.66,-147.818 1409.45,-146.637"/>
<polygon fill="midnightblue" stroke="midnightblue" points="1410.57,-143.322 1399.98,-143.044 1408.09,-149.866 1410.57,-143.322"/>
</g>
<!-- Node30&#45;&gt;Node31 -->
<g id="edge54" class="edge"><title>Node30&#45;&gt;Node31</title>
<path fill="none" stroke="midnightblue" d="M1321.11,-418.753C1310.1,-410.19 1293.53,-397.298 1280.57,-387.219"/>
<polygon fill="midnightblue" stroke="midnightblue" points="1282.71,-384.452 1272.67,-381.075 1278.41,-389.977 1282.71,-384.452"/>
</g>
<!-- Node31&#45;&gt;Node6 -->
<g id="edge88" class="edge"><title>Node31&#45;&gt;Node6</title>
<path fill="none" stroke="midnightblue" d="M1252.22,-360.666C1244.67,-351.949 1234.33,-338.184 1230,-324 1218.33,-285.79 1238.54,-267.289 1271,-244 1316.59,-211.294 1338.26,-224.136 1392,-208 1393.23,-207.632 1394.48,-207.256 1395.74,-206.875"/>
<polygon fill="midnightblue" stroke="midnightblue" points="1396.9,-210.181 1405.46,-203.939 1394.88,-203.48 1396.9,-210.181"/>
</g>
<!-- Node31&#45;&gt;Node10 -->
<g id="edge55" class="edge"><title>Node31&#45;&gt;Node10</title>
<path fill="none" stroke="midnightblue" d="M1237.96,-368.598C1135.19,-362.285 722.567,-336.267 698,-324 663.764,-306.905 577.56,-220.061 595,-186 621.561,-134.126 683.32,-100.157 722.162,-83.0803"/>
<polygon fill="midnightblue" stroke="midnightblue" points="723.677,-86.2391 731.508,-79.1021 720.936,-79.7983 723.677,-86.2391"/>
</g>
<!-- Node31&#45;&gt;Node32 -->
<g id="edge56" class="edge"><title>Node31&#45;&gt;Node32</title>
<path fill="none" stroke="midnightblue" d="M1237.63,-368.293C1130.71,-360.488 687.229,-328.108 541.002,-317.432"/>
<polygon fill="midnightblue" stroke="midnightblue" points="540.82,-313.909 530.592,-316.672 540.311,-320.891 540.82,-313.909"/>
</g>
<!-- Node35 -->
<g id="node35" class="node"><title>Node35</title>
<polygon fill="none" stroke="#bfbfbf" points="1145.62,-123 1145.62,-143 1230.38,-143 1230.38,-123 1145.62,-123"/>
<text text-anchor="middle" x="1188" y="-129" font-family="Helvetica,sans-Serif" font-size="10.00">boost/array.hpp</text>
</g>
<!-- Node31&#45;&gt;Node35 -->
<g id="edge84" class="edge"><title>Node31&#45;&gt;Node35</title>
<path fill="none" stroke="midnightblue" d="M1237.77,-369.004C1141.28,-364.728 774.975,-347.099 729,-324 686.521,-302.657 693.982,-275.068 658,-244 635.887,-224.907 616.894,-233.7 603,-208 598.35,-199.399 596.399,-193.214 603,-186 638.555,-147.144 997.791,-137.136 1135.06,-134.721"/>
<polygon fill="midnightblue" stroke="midnightblue" points="1135.39,-138.216 1145.33,-134.547 1135.27,-131.217 1135.39,-138.216"/>
</g>
<!-- Node36 -->
<g id="node36" class="node"><title>Node36</title>
<g id="a_node36"><a xlink:href="HDF5_2types_8h.html" target="_top" xlink:title="Handle read/write of Model data from/to files. ">
<polygon fill="none" stroke="red" points="1439.21,-303 1439.21,-323 1540.79,-323 1540.79,-303 1439.21,-303"/>
<text text-anchor="middle" x="1490" y="-309" font-family="Helvetica,sans-Serif" font-size="10.00">RMF/HDF5/types.h</text>
</a>
</g>
</g>
<!-- Node31&#45;&gt;Node36 -->
<g id="edge65" class="edge"><title>Node31&#45;&gt;Node36</title>
<path fill="none" stroke="midnightblue" d="M1284.22,-364.322C1321.37,-355.236 1394.92,-337.252 1443.27,-325.427"/>
<polygon fill="midnightblue" stroke="midnightblue" points="1444.3,-328.778 1453.19,-323.003 1442.64,-321.978 1444.3,-328.778"/>
</g>
<!-- Node39 -->
<g id="node39" class="node"><title>Node39</title>
<polygon fill="none" stroke="#bfbfbf" points="1394.2,-245 1394.2,-265 1485.8,-265 1485.8,-245 1394.2,-245"/>
<text text-anchor="middle" x="1440" y="-251" font-family="Helvetica,sans-Serif" font-size="10.00">boost/cstdint.hpp</text>
</g>
<!-- Node31&#45;&gt;Node39 -->
<g id="edge85" class="edge"><title>Node31&#45;&gt;Node39</title>
<path fill="none" stroke="midnightblue" d="M1284.42,-369.976C1346.87,-369.366 1514.91,-363.968 1549,-324 1570.92,-298.297 1528.75,-279.205 1490.65,-267.898"/>
<polygon fill="midnightblue" stroke="midnightblue" points="1491.16,-264.405 1480.58,-265.054 1489.25,-271.141 1491.16,-264.405"/>
</g>
<!-- Node40 -->
<g id="node40" class="node"><title>Node40</title>
<polygon fill="none" stroke="#bfbfbf" points="1301.38,-303 1301.38,-323 1344.62,-323 1344.62,-303 1301.38,-303"/>
<text text-anchor="middle" x="1323" y="-309" font-family="Helvetica,sans-Serif" font-size="10.00">cmath</text>
</g>
<!-- Node31&#45;&gt;Node40 -->
<g id="edge86" class="edge"><title>Node31&#45;&gt;Node40</title>
<path fill="none" stroke="midnightblue" d="M1271.24,-360.753C1280.54,-352.353 1294.45,-339.787 1305.51,-329.798"/>
<polygon fill="midnightblue" stroke="midnightblue" points="1307.88,-332.375 1312.95,-323.075 1303.19,-327.181 1307.88,-332.375"/>
</g>
<!-- Node41 -->
<g id="node41" class="node"><title>Node41</title>
<polygon fill="none" stroke="#bfbfbf" points="1238.83,-303 1238.83,-323 1283.17,-323 1283.17,-303 1238.83,-303"/>
<text text-anchor="middle" x="1261" y="-309" font-family="Helvetica,sans-Serif" font-size="10.00">cstdlib</text>
</g>
<!-- Node31&#45;&gt;Node41 -->
<g id="edge87" class="edge"><title>Node31&#45;&gt;Node41</title>
<path fill="none" stroke="midnightblue" d="M1261,-360.753C1261,-353.25 1261,-342.424 1261,-333.078"/>
<polygon fill="midnightblue" stroke="midnightblue" points="1264.5,-333.075 1261,-323.075 1257.5,-333.075 1264.5,-333.075"/>
</g>
<!-- Node32&#45;&gt;Node10 -->
<g id="edge57" class="edge"><title>Node32&#45;&gt;Node10</title>
<path fill="none" stroke="midnightblue" d="M457.611,-306.811C431.136,-301.167 396.327,-289.567 375,-266 329.494,-215.715 345.889,-152.574 403,-116 452.524,-84.2841 623.502,-74.3018 707.985,-71.2671"/>
<polygon fill="midnightblue" stroke="midnightblue" points="708.214,-74.7614 718.089,-70.9226 707.976,-67.7655 708.214,-74.7614"/>
</g>
<!-- Node33 -->
<g id="node33" class="node"><title>Node33</title>
<g id="a_node33"><a xlink:href="default__types_8h.html" target="_top" xlink:title="Default implementation for types.h. ">
<polygon fill="none" stroke="black" points="421.867,-245 421.867,-265 530.133,-265 530.133,-245 421.867,-245"/>
<text text-anchor="middle" x="476" y="-251" font-family="Helvetica,sans-Serif" font-size="10.00">RMF/default_types.h</text>
</a>
</g>
</g>
<!-- Node32&#45;&gt;Node33 -->
<g id="edge58" class="edge"><title>Node32&#45;&gt;Node33</title>
<path fill="none" stroke="midnightblue" d="M491.028,-302.753C488.59,-295.169 485.06,-284.188 482.034,-274.774"/>
<polygon fill="midnightblue" stroke="midnightblue" points="485.309,-273.524 478.917,-265.075 478.645,-275.667 485.309,-273.524"/>
</g>
<!-- Node33&#45;&gt;Node10 -->
<g id="edge59" class="edge"><title>Node33&#45;&gt;Node10</title>
<path fill="none" stroke="midnightblue" d="M470.495,-244.947C456.582,-220.784 423.361,-154.025 456,-116 487.876,-78.8634 631.456,-71.4009 707.842,-70.1015"/>
<polygon fill="midnightblue" stroke="midnightblue" points="708.206,-73.5968 718.156,-69.9566 708.108,-66.5975 708.206,-73.5968"/>
</g>
<!-- Node34 -->
<g id="node34" class="node"><title>Node34</title>
<g id="a_node34"><a xlink:href="Vector_8h.html" target="_top" xlink:title="Represent coordinates. ">
<polygon fill="none" stroke="red" points="1145.93,-187 1145.93,-207 1198.07,-207 1198.07,-187 1145.93,-187"/>
<text text-anchor="middle" x="1172" y="-193" font-family="Helvetica,sans-Serif" font-size="10.00">Vector.h</text>
</a>
</g>
</g>
<!-- Node33&#45;&gt;Node34 -->
<g id="edge60" class="edge"><title>Node33&#45;&gt;Node34</title>
<path fill="none" stroke="midnightblue" d="M530.324,-249.629C666.83,-238.646 1021.45,-210.113 1135.85,-200.908"/>
<polygon fill="midnightblue" stroke="midnightblue" points="1136.16,-204.395 1145.85,-200.104 1135.6,-197.417 1136.16,-204.395"/>
</g>
<!-- Node34&#45;&gt;Node10 -->
<g id="edge61" class="edge"><title>Node34&#45;&gt;Node10</title>
<path fill="none" stroke="midnightblue" d="M1195.13,-186.992C1210.62,-179.598 1229.8,-167.479 1239,-150 1246.04,-136.629 1249.17,-127.18 1239,-116 1210.09,-84.2018 920.293,-73.8681 803.958,-70.9848"/>
<polygon fill="midnightblue" stroke="midnightblue" points="803.991,-67.4847 793.91,-70.7437 803.823,-74.4826 803.991,-67.4847"/>
</g>
<!-- Node34&#45;&gt;Node12 -->
<g id="edge62" class="edge"><title>Node34&#45;&gt;Node12</title>
<path fill="none" stroke="midnightblue" d="M1198.4,-194.307C1297.08,-187.918 1644.14,-164.883 1754,-150 1764.03,-148.641 1774.69,-146.852 1784.9,-144.964"/>
<polygon fill="midnightblue" stroke="midnightblue" points="1785.76,-148.363 1794.93,-143.054 1784.45,-141.487 1785.76,-148.363"/>
</g>
<!-- Node34&#45;&gt;Node19 -->
<g id="edge63" class="edge"><title>Node34&#45;&gt;Node19</title>
<path fill="none" stroke="midnightblue" d="M1198.09,-188.148C1233.4,-177.521 1296.71,-158.465 1338.04,-146.028"/>
<polygon fill="midnightblue" stroke="midnightblue" points="1339.22,-149.328 1347.78,-143.095 1337.2,-142.625 1339.22,-149.328"/>
</g>
<!-- Node34&#45;&gt;Node35 -->
<g id="edge64" class="edge"><title>Node34&#45;&gt;Node35</title>
<path fill="none" stroke="midnightblue" d="M1174.36,-186.852C1176.65,-177.969 1180.2,-164.215 1183.11,-152.964"/>
<polygon fill="midnightblue" stroke="midnightblue" points="1186.52,-153.743 1185.63,-143.186 1179.74,-151.994 1186.52,-153.743"/>
</g>
<!-- Node36&#45;&gt;Node6 -->
<g id="edge83" class="edge"><title>Node36&#45;&gt;Node6</title>
<path fill="none" stroke="midnightblue" d="M1440.93,-302.943C1419.98,-296.386 1397.52,-285.157 1385,-266 1373.58,-248.525 1389.94,-227.751 1405.05,-213.803"/>
<polygon fill="midnightblue" stroke="midnightblue" points="1407.42,-216.381 1412.68,-207.185 1402.83,-211.092 1407.42,-216.381"/>
</g>
<!-- Node36&#45;&gt;Node10 -->
<g id="edge66" class="edge"><title>Node36&#45;&gt;Node10</title>
<path fill="none" stroke="midnightblue" d="M1444.15,-302.983C1399.75,-294.106 1330.59,-279.898 1271,-266 1170.01,-242.447 1139.34,-251.058 1045,-208 979.614,-178.156 976.846,-147.001 912,-116 877.29,-99.406 835.336,-87.4451 803.682,-79.8862"/>
<polygon fill="midnightblue" stroke="midnightblue" points="804.322,-76.4417 793.789,-77.5864 802.737,-83.2599 804.322,-76.4417"/>
</g>
<!-- Node36&#45;&gt;Node22 -->
<g id="edge80" class="edge"><title>Node36&#45;&gt;Node22</title>
<path fill="none" stroke="midnightblue" d="M1438.96,-307.853C1413.2,-305.867 1381.45,-303.583 1353,-302 1248.64,-296.195 512.115,-299.18 413,-266 353.959,-246.235 349.775,-220.582 298,-186 242.112,-148.671 175.294,-106.463 140.574,-84.7091"/>
<polygon fill="midnightblue" stroke="midnightblue" points="142.001,-81.4739 131.668,-79.1368 138.288,-87.4081 142.001,-81.4739"/>
</g>
<!-- Node36&#45;&gt;Node29 -->
<g id="edge81" class="edge"><title>Node36&#45;&gt;Node29</title>
<path fill="none" stroke="midnightblue" d="M1460.52,-302.878C1429.92,-293.413 1381.92,-278.56 1348.16,-268.115"/>
<polygon fill="midnightblue" stroke="midnightblue" points="1348.76,-264.637 1338.17,-265.025 1346.69,-271.325 1348.76,-264.637"/>
</g>
<!-- Node37 -->
<g id="node37" class="node"><title>Node37</title>
<g id="a_node37"><a xlink:href="handle_8h.html" target="_top" xlink:title="Handle read/write of Model data from/to files. ">
<polygon fill="none" stroke="red" points="1541.82,-245 1541.82,-265 1596.18,-265 1596.18,-245 1541.82,-245"/>
<text text-anchor="middle" x="1569" y="-251" font-family="Helvetica,sans-Serif" font-size="10.00">handle.h</text>
</a>
</g>
</g>
<!-- Node36&#45;&gt;Node37 -->
<g id="edge67" class="edge"><title>Node36&#45;&gt;Node37</title>
<path fill="none" stroke="midnightblue" d="M1503.05,-302.753C1515.24,-294.109 1533.66,-281.052 1547.94,-270.931"/>
<polygon fill="midnightblue" stroke="midnightblue" points="1550.06,-273.714 1556.2,-265.075 1546.02,-268.003 1550.06,-273.714"/>
</g>
<!-- Node38 -->
<g id="node38" class="node"><title>Node38</title>
<g id="a_node38"><a xlink:href="HDF5_2infrastructure__macros_8h.html" target="_top" xlink:title="Various general useful macros for IMP. ">
<polygon fill="none" stroke="black" points="1986.48,-187 1986.48,-207 2107.52,-207 2107.52,-187 1986.48,-187"/>
<text text-anchor="middle" x="2047" y="-193" font-family="Helvetica,sans-Serif" font-size="10.00">infrastructure_macros.h</text>
</a>
</g>
</g>
<!-- Node36&#45;&gt;Node38 -->
<g id="edge79" class="edge"><title>Node36&#45;&gt;Node38</title>
<path fill="none" stroke="midnightblue" d="M1540.91,-305.473C1599.38,-297.631 1698.07,-283.339 1782,-266 1862.02,-249.469 1954.16,-224.448 2006,-209.813"/>
<polygon fill="midnightblue" stroke="midnightblue" points="2007.15,-213.125 2015.81,-207.03 2005.24,-206.391 2007.15,-213.125"/>
</g>
<!-- Node36&#45;&gt;Node39 -->
<g id="edge82" class="edge"><title>Node36&#45;&gt;Node39</title>
<path fill="none" stroke="midnightblue" d="M1481.74,-302.753C1474.46,-294.598 1463.67,-282.516 1454.89,-272.677"/>
<polygon fill="midnightblue" stroke="midnightblue" points="1457.37,-270.204 1448.1,-265.075 1452.15,-274.866 1457.37,-270.204"/>
</g>
<!-- Node37&#45;&gt;Node6 -->
<g id="edge78" class="edge"><title>Node37&#45;&gt;Node6</title>
<path fill="none" stroke="midnightblue" d="M1545.54,-244.878C1520.67,-235.204 1481.32,-219.904 1454.4,-209.432"/>
<polygon fill="midnightblue" stroke="midnightblue" points="1455.33,-206.039 1444.74,-205.676 1452.79,-212.563 1455.33,-206.039"/>
</g>
<!-- Node37&#45;&gt;Node8 -->
<g id="edge76" class="edge"><title>Node37&#45;&gt;Node8</title>
<path fill="none" stroke="midnightblue" d="M1596.41,-253.473C1693.19,-251.34 2018.27,-241.764 2116,-208 2195.45,-180.553 2274.26,-116.251 2308.39,-86.1176"/>
<polygon fill="midnightblue" stroke="midnightblue" points="2310.96,-88.5134 2316.08,-79.2359 2306.29,-83.2978 2310.96,-88.5134"/>
</g>
<!-- Node37&#45;&gt;Node10 -->
<g id="edge68" class="edge"><title>Node37&#45;&gt;Node10</title>
<path fill="none" stroke="midnightblue" d="M1541.6,-250.076C1527.41,-248.113 1509.79,-245.781 1494,-244 1407.51,-234.247 1178.71,-252.649 1104,-208 1061.89,-182.832 1084.25,-142.562 1043,-116 1004.28,-91.0664 874.879,-78.3034 803.788,-73.031"/>
<polygon fill="midnightblue" stroke="midnightblue" points="803.965,-69.5348 793.74,-72.3069 803.462,-76.5167 803.965,-69.5348"/>
</g>
<!-- Node37&#45;&gt;Node19 -->
<g id="edge75" class="edge"><title>Node37&#45;&gt;Node19</title>
<path fill="none" stroke="midnightblue" d="M1565.19,-244.699C1558.78,-230.161 1544.51,-202.056 1524,-186 1494.88,-163.201 1454.93,-149.894 1424.19,-142.458"/>
<polygon fill="midnightblue" stroke="midnightblue" points="1424.67,-138.978 1414.14,-140.156 1423.11,-145.801 1424.67,-138.978"/>
</g>
<!-- Node37&#45;&gt;Node21 -->
<g id="edge77" class="edge"><title>Node37&#45;&gt;Node21</title>
<path fill="none" stroke="midnightblue" d="M1567.59,-244.609C1565.22,-230.913 1559.52,-205.023 1548,-186 1522.3,-143.577 1477.74,-105.404 1451.66,-85.187"/>
<polygon fill="midnightblue" stroke="midnightblue" points="1453.65,-82.3071 1443.57,-79.0389 1449.41,-87.8786 1453.65,-82.3071"/>
</g>
<!-- Node37&#45;&gt;Node38 -->
<g id="edge69" class="edge"><title>Node37&#45;&gt;Node38</title>
<path fill="none" stroke="midnightblue" d="M1596.42,-250.788C1669.16,-242.266 1868.8,-218.876 1976.28,-206.285"/>
<polygon fill="midnightblue" stroke="midnightblue" points="1976.86,-209.741 1986.39,-205.101 1976.05,-202.788 1976.86,-209.741"/>
</g>
<!-- Node38&#45;&gt;Node7 -->
<g id="edge72" class="edge"><title>Node38&#45;&gt;Node7</title>
<path fill="none" stroke="midnightblue" d="M2046.07,-186.938C2043.97,-166.605 2038.85,-116.968 2036,-89.3477"/>
<polygon fill="midnightblue" stroke="midnightblue" points="2039.47,-88.9074 2034.96,-79.3195 2032.51,-89.6259 2039.47,-88.9074"/>
</g>
<!-- Node38&#45;&gt;Node8 -->
<g id="edge73" class="edge"><title>Node38&#45;&gt;Node8</title>
<path fill="none" stroke="midnightblue" d="M2067.06,-186.938C2115.61,-165.015 2239.58,-109.027 2296.55,-83.298"/>
<polygon fill="midnightblue" stroke="midnightblue" points="2298.07,-86.4545 2305.74,-79.1488 2295.19,-80.0749 2298.07,-86.4545"/>
</g>
<!-- Node38&#45;&gt;Node12 -->
<g id="edge74" class="edge"><title>Node38&#45;&gt;Node12</title>
<path fill="none" stroke="midnightblue" d="M2016.46,-186.985C1979.76,-176.148 1918.05,-157.928 1877.42,-145.933"/>
<polygon fill="midnightblue" stroke="midnightblue" points="1878.15,-142.501 1867.57,-143.026 1876.17,-149.215 1878.15,-142.501"/>
</g>
<!-- Node38&#45;&gt;Node13 -->
<g id="edge70" class="edge"><title>Node38&#45;&gt;Node13</title>
<path fill="none" stroke="midnightblue" d="M2041.46,-186.938C2028.82,-166.243 1997.62,-115.194 1980.94,-87.8958"/>
<polygon fill="midnightblue" stroke="midnightblue" points="1983.9,-86.0272 1975.7,-79.3195 1977.92,-89.6774 1983.9,-86.0272"/>
</g>
<!-- Node38&#45;&gt;Node14 -->
<g id="edge71" class="edge"><title>Node38&#45;&gt;Node14</title>
<path fill="none" stroke="midnightblue" d="M2056.13,-186.938C2077.36,-165.882 2130.25,-113.401 2157.38,-86.4874"/>
<polygon fill="midnightblue" stroke="midnightblue" points="2159.97,-88.8472 2164.61,-79.3195 2155.04,-83.8779 2159.97,-88.8472"/>
</g>
<!-- Node43&#45;&gt;Node10 -->
<g id="edge98" class="edge"><title>Node43&#45;&gt;Node10</title>
<path fill="none" stroke="midnightblue" d="M738.106,-367.777C632.882,-362.343 376.921,-347.12 294,-324 210.774,-300.795 161.69,-291.089 138,-208 122.9,-155.041 170.133,-137.1 221,-116 308.366,-79.7605 593.36,-72.0699 707.797,-70.4388"/>
<polygon fill="midnightblue" stroke="midnightblue" points="708.052,-73.9358 718.005,-70.303 707.959,-66.9364 708.052,-73.9358"/>
</g>
<!-- Node43&#45;&gt;Node29 -->
<g id="edge99" class="edge"><title>Node43&#45;&gt;Node29</title>
<path fill="none" stroke="midnightblue" d="M798.979,-360.98C827.123,-344.193 887.119,-309.199 910,-302 976.473,-281.085 1182.37,-264.788 1269.46,-258.648"/>
<polygon fill="midnightblue" stroke="midnightblue" points="1269.74,-262.137 1279.47,-257.95 1269.25,-255.154 1269.74,-262.137"/>
</g>
<!-- Node44&#45;&gt;Node7 -->
<g id="edge107" class="edge"><title>Node44&#45;&gt;Node7</title>
<path fill="none" stroke="midnightblue" d="M2056.46,-246.413C2078.01,-240.041 2102.9,-228.531 2116,-208 2121.26,-199.757 2119.47,-195.14 2116,-186 2108.39,-165.99 2096.83,-167.137 2084,-150 2068.88,-129.804 2053.85,-104.95 2044.28,-88.3536"/>
<polygon fill="midnightblue" stroke="midnightblue" points="2047.06,-86.1634 2039.08,-79.2031 2040.98,-89.6255 2047.06,-86.1634"/>
</g>
<!-- Node44&#45;&gt;Node10 -->
<g id="edge101" class="edge"><title>Node44&#45;&gt;Node10</title>
<path fill="none" stroke="midnightblue" d="M1977.37,-252.884C1810.81,-248.069 1174.31,-228.401 1137,-208 1092.85,-183.858 1113.99,-142.163 1071,-116 1027.15,-89.3111 881.076,-77.1339 804.222,-72.4609"/>
<polygon fill="midnightblue" stroke="midnightblue" points="804.043,-68.9444 793.855,-71.8506 803.632,-75.9323 804.043,-68.9444"/>
</g>
<!-- Node44&#45;&gt;Node14 -->
<g id="edge108" class="edge"><title>Node44&#45;&gt;Node14</title>
<path fill="none" stroke="midnightblue" d="M2056.63,-247.215C2081.46,-241.004 2112.36,-229.381 2132,-208 2162.96,-174.293 2171.12,-118.389 2173.26,-89.1537"/>
<polygon fill="midnightblue" stroke="midnightblue" points="2176.76,-89.217 2173.83,-79.0355 2169.77,-88.8221 2176.76,-89.217"/>
</g>
<!-- Node45 -->
<g id="node45" class="node"><title>Node45</title>
<g id="a_node45"><a xlink:href="Enum_8h.html" target="_top" xlink:title="Handle read/write of Model data from/to files. ">
<polygon fill="none" stroke="black" points="1651.77,-187 1651.77,-207 1702.23,-207 1702.23,-187 1651.77,-187"/>
<text text-anchor="middle" x="1677" y="-193" font-family="Helvetica,sans-Serif" font-size="10.00">Enum.h</text>
</a>
</g>
</g>
<!-- Node44&#45;&gt;Node45 -->
<g id="edge102" class="edge"><title>Node44&#45;&gt;Node45</title>
<path fill="none" stroke="midnightblue" d="M1977.33,-247.466C1910.46,-236.452 1776.35,-214.363 1712.44,-203.837"/>
<polygon fill="midnightblue" stroke="midnightblue" points="1712.88,-200.362 1702.44,-202.19 1711.74,-207.269 1712.88,-200.362"/>
</g>
<!-- Node45&#45;&gt;Node10 -->
<g id="edge103" class="edge"><title>Node45&#45;&gt;Node10</title>
<path fill="none" stroke="midnightblue" d="M1654.69,-186.997C1611.04,-169.826 1510.9,-132.631 1423,-116 1194.29,-72.7285 914.62,-69.0228 804.161,-69.4484"/>
<polygon fill="midnightblue" stroke="midnightblue" points="803.989,-65.9492 794.007,-69.5013 804.025,-72.9491 803.989,-65.9492"/>
</g>
<!-- Node45&#45;&gt;Node12 -->
<g id="edge104" class="edge"><title>Node45&#45;&gt;Node12</title>
<path fill="none" stroke="midnightblue" d="M1700.27,-186.985C1727.64,-176.378 1773.27,-158.696 1804.22,-146.704"/>
<polygon fill="midnightblue" stroke="midnightblue" points="1805.65,-149.903 1813.71,-143.026 1803.12,-143.376 1805.65,-149.903"/>
</g>
<!-- Node45&#45;&gt;Node19 -->
<g id="edge105" class="edge"><title>Node45&#45;&gt;Node19</title>
<path fill="none" stroke="midnightblue" d="M1651.45,-189.241C1646.98,-188.117 1642.36,-186.995 1638,-186 1563.53,-169.018 1476.36,-152.203 1424.24,-142.474"/>
<polygon fill="midnightblue" stroke="midnightblue" points="1424.77,-139.012 1414.3,-140.624 1423.49,-145.894 1424.77,-139.012"/>
</g>
<!-- Node46 -->
<g id="node46" class="node"><title>Node46</title>
<polygon fill="none" stroke="#bfbfbf" points="1652.09,-117 1652.09,-149 1745.91,-149 1745.91,-117 1652.09,-117"/>
<text text-anchor="start" x="1660.09" y="-135" font-family="Helvetica,sans-Serif" font-size="10.00">internal/small_set</text>
<text text-anchor="middle" x="1699" y="-123" font-family="Helvetica,sans-Serif" font-size="10.00">_map.h</text>
</g>
<!-- Node45&#45;&gt;Node46 -->
<g id="edge106" class="edge"><title>Node45&#45;&gt;Node46</title>
<path fill="none" stroke="midnightblue" d="M1680.25,-186.852C1682.86,-179.475 1686.67,-168.739 1690.18,-158.868"/>
<polygon fill="midnightblue" stroke="midnightblue" points="1693.48,-160.035 1693.52,-149.44 1686.88,-157.694 1693.48,-160.035"/>
</g>
<!-- Node47&#45;&gt;Node10 -->
<g id="edge110" class="edge"><title>Node47&#45;&gt;Node10</title>
<path fill="none" stroke="midnightblue" d="M1392.99,-419.781C1389.95,-419.148 1386.93,-418.545 1384,-418 1208.26,-385.278 1163.29,-382.853 986,-360 843.617,-341.646 798.716,-376.247 665,-324 624.429,-308.148 608.608,-303.231 586,-266 551.391,-209.005 544.241,-165.425 589,-116 618.892,-82.9921 670.078,-72.779 707.923,-70.0341"/>
<polygon fill="midnightblue" stroke="midnightblue" points="708.431,-73.5108 718.214,-69.4452 708.031,-66.5223 708.431,-73.5108"/>
</g>
<!-- Node47&#45;&gt;Node12 -->
<g id="edge113" class="edge"><title>Node47&#45;&gt;Node12</title>
<path fill="none" stroke="midnightblue" d="M1462.84,-427.029C1531.4,-423.304 1685.13,-405.734 1777,-324 1823.98,-282.205 1840.02,-268.255 1858,-208 1863.7,-188.895 1855.61,-166.905 1847.88,-151.894"/>
<polygon fill="midnightblue" stroke="midnightblue" points="1850.92,-150.166 1842.99,-143.137 1844.81,-153.575 1850.92,-150.166"/>
</g>
<!-- Node47&#45;&gt;Node29 -->
<g id="edge111" class="edge"><title>Node47&#45;&gt;Node29</title>
<path fill="none" stroke="midnightblue" d="M1423.39,-418.692C1412.54,-397.178 1383.97,-342.733 1353,-302 1345.01,-291.493 1334.9,-280.777 1326.38,-272.334"/>
<polygon fill="midnightblue" stroke="midnightblue" points="1328.74,-269.739 1319.12,-265.291 1323.86,-274.765 1328.74,-269.739"/>
</g>
<!-- Node47&#45;&gt;Node31 -->
<g id="edge112" class="edge"><title>Node47&#45;&gt;Node31</title>
<path fill="none" stroke="midnightblue" d="M1400.8,-418.878C1371.52,-409.062 1324.97,-393.452 1293.72,-382.972"/>
<polygon fill="midnightblue" stroke="midnightblue" points="1294.75,-379.625 1284.15,-379.764 1292.52,-386.262 1294.75,-379.625"/>
</g>
</g>
</svg>
