<?xml version="1.0" encoding="UTF-8" standalone="no"?>
<!DOCTYPE svg PUBLIC "-//W3C//DTD SVG 1.1//EN"
 "http://www.w3.org/Graphics/SVG/1.1/DTD/svg11.dtd">
<!-- Generated by graphviz version 2.34.0 (20131025.1349)
 -->
<!-- Title: FileHandle.h Pages: 1 -->
<svg width="2728pt" height="576pt"
 viewBox="0.00 0.00 2728.00 576.00" xmlns="http://www.w3.org/2000/svg" xmlns:xlink="http://www.w3.org/1999/xlink">
<g id="graph0" class="graph" transform="scale(1 1) rotate(0) translate(4 572)">
<title>FileHandle.h</title>
<!-- Node1 -->
<g id="node1" class="node"><title>Node1</title>
<polygon fill="#bfbfbf" stroke="black" points="1645.93,-547 1645.93,-567 1718.07,-567 1718.07,-547 1645.93,-547"/>
<text text-anchor="middle" x="1682" y="-553" font-family="Helvetica,sans-Serif" font-size="10.00">FileHandle.h</text>
</g>
<!-- Node2 -->
<g id="node2" class="node"><title>Node2</title>
<polygon fill="none" stroke="#bfbfbf" points="218.018,-245 218.018,-265 327.982,-265 327.982,-245 218.018,-245"/>
<text text-anchor="middle" x="273" y="-251" font-family="Helvetica,sans-Serif" font-size="10.00">boost/shared_ptr.hpp</text>
</g>
<!-- Node1&#45;&gt;Node2 -->
<g id="edge1" class="edge"><title>Node1&#45;&gt;Node2</title>
<path fill="none" stroke="midnightblue" d="M1645.86,-555.041C1418.01,-548.765 190,-511.442 190,-436 190,-436 190,-436 190,-370 190,-328.172 226.971,-291.397 251.563,-271.562"/>
<polygon fill="midnightblue" stroke="midnightblue" points="253.912,-274.17 259.665,-265.272 249.619,-268.64 253.912,-274.17"/>
</g>
<!-- Node3 -->
<g id="node3" class="node"><title>Node3</title>
<polygon fill="none" stroke="#bfbfbf" points="415.773,-59 415.773,-79 456.227,-79 456.227,-59 415.773,-59"/>
<text text-anchor="middle" x="436" y="-65" font-family="Helvetica,sans-Serif" font-size="10.00">string</text>
</g>
<!-- Node1&#45;&gt;Node3 -->
<g id="edge2" class="edge"><title>Node1&#45;&gt;Node3</title>
<path fill="none" stroke="midnightblue" d="M1645.83,-555.425C1464.54,-552.434 653.521,-537.711 403,-510 238.481,-491.802 38,-601.523 38,-436 38,-436 38,-436 38,-196 38,-134.828 93.4182,-139.249 150,-116 161.78,-111.159 334.043,-85.1698 405.396,-74.5378"/>
<polygon fill="midnightblue" stroke="midnightblue" points="406.176,-77.9604 415.552,-73.0267 405.146,-71.0366 406.176,-77.9604"/>
</g>
<!-- Node4 -->
<g id="node4" class="node"><title>Node4</title>
<polygon fill="none" stroke="#bfbfbf" points="2622.38,-59 2622.38,-79 2665.62,-79 2665.62,-59 2622.38,-59"/>
<text text-anchor="middle" x="2644" y="-65" font-family="Helvetica,sans-Serif" font-size="10.00">vector</text>
</g>
<!-- Node1&#45;&gt;Node4 -->
<g id="edge3" class="edge"><title>Node1&#45;&gt;Node4</title>
<path fill="none" stroke="midnightblue" d="M1718.1,-555.538C1858.71,-553.507 2369.79,-543.902 2528,-510 2617.42,-490.838 2720,-527.452 2720,-436 2720,-436 2720,-436 2720,-196 2720,-151.21 2684.35,-108.67 2661.88,-86.3076"/>
<polygon fill="midnightblue" stroke="midnightblue" points="2664.2,-83.6789 2654.57,-79.2684 2659.35,-88.7236 2664.2,-83.6789"/>
</g>
<!-- Node5 -->
<g id="node5" class="node"><title>Node5</title>
<g id="a_node5"><a xlink:href="FileConstHandle_8h.html" target="_top" xlink:title="Handle read/write of Model data from/to files. ">
<polygon fill="none" stroke="black" points="997.867,-489 997.867,-509 1096.13,-509 1096.13,-489 997.867,-489"/>
<text text-anchor="middle" x="1047" y="-495" font-family="Helvetica,sans-Serif" font-size="10.00">FileConstHandle.h</text>
</a>
</g>
</g>
<!-- Node1&#45;&gt;Node5 -->
<g id="edge4" class="edge"><title>Node1&#45;&gt;Node5</title>
<path fill="none" stroke="midnightblue" d="M1645.65,-553.488C1557.05,-547.253 1322.88,-530.113 1128,-510 1120.93,-509.27 1113.51,-508.442 1106.17,-507.582"/>
<polygon fill="midnightblue" stroke="midnightblue" points="1106.57,-504.105 1096.22,-506.397 1105.74,-511.056 1106.57,-504.105"/>
</g>
<!-- Node11 -->
<g id="node11" class="node"><title>Node11</title>
<g id="a_node11"><a xlink:href="config_8h_source.html" target="_top" xlink:title="RMF/config.h">
<polygon fill="none" stroke="black" points="2038.27,-59 2038.27,-79 2113.73,-79 2113.73,-59 2038.27,-59"/>
<text text-anchor="middle" x="2076" y="-65" font-family="Helvetica,sans-Serif" font-size="10.00">RMF/config.h</text>
</a>
</g>
</g>
<!-- Node1&#45;&gt;Node11 -->
<g id="edge127" class="edge"><title>Node1&#45;&gt;Node11</title>
<path fill="none" stroke="midnightblue" d="M1718.18,-555.401C1865.86,-552.757 2418.58,-540.869 2490,-510 2533.86,-491.041 2568,-483.786 2568,-436 2568,-436 2568,-436 2568,-196 2568,-104.969 2247.93,-78.8138 2124.1,-72.1013"/>
<polygon fill="midnightblue" stroke="midnightblue" points="2123.96,-68.5891 2113.79,-71.5628 2123.59,-75.5796 2123.96,-68.5891"/>
</g>
<!-- Node12 -->
<g id="node12" class="node"><title>Node12</title>
<g id="a_node12"><a xlink:href="compiler__macros_8h.html" target="_top" xlink:title="Various compiler workarounds. ">
<polygon fill="none" stroke="black" points="800.544,-1 800.544,-21 925.456,-21 925.456,-1 800.544,-1"/>
<text text-anchor="middle" x="863" y="-7" font-family="Helvetica,sans-Serif" font-size="10.00">RMF/compiler_macros.h</text>
</a>
</g>
</g>
<!-- Node1&#45;&gt;Node12 -->
<g id="edge129" class="edge"><title>Node1&#45;&gt;Node12</title>
<path fill="none" stroke="midnightblue" d="M1645.74,-555.949C1411.35,-555.503 117.684,-551.174 46,-510 12.4198,-490.712 0,-474.725 0,-436 0,-436 0,-436 0,-132 0,-52.5082 581.838,-22.6532 790.021,-14.5153"/>
<polygon fill="midnightblue" stroke="midnightblue" points="790.382,-18.004 800.24,-14.1215 790.113,-11.0092 790.382,-18.004"/>
</g>
<!-- Node29 -->
<g id="node29" class="node"><title>Node29</title>
<g id="a_node29"><a xlink:href="ID_8h.html" target="_top" xlink:title="Declaration of RMF::ID. ">
<polygon fill="none" stroke="black" points="1174.61,-303 1174.61,-323 1233.39,-323 1233.39,-303 1174.61,-303"/>
<text text-anchor="middle" x="1204" y="-309" font-family="Helvetica,sans-Serif" font-size="10.00">RMF/ID.h</text>
</a>
</g>
</g>
<!-- Node1&#45;&gt;Node29 -->
<g id="edge112" class="edge"><title>Node1&#45;&gt;Node29</title>
<path fill="none" stroke="midnightblue" d="M1645.66,-553.446C1543.98,-545.521 1260.01,-517.813 1199,-452 1168.95,-419.587 1184.78,-362.289 1195.98,-332.758"/>
<polygon fill="midnightblue" stroke="midnightblue" points="1199.33,-333.816 1199.81,-323.232 1192.84,-331.206 1199.33,-333.816"/>
</g>
<!-- Node32 -->
<g id="node32" class="node"><title>Node32</title>
<g id="a_node32"><a xlink:href="types_8h.html" target="_top" xlink:title="Default implementation for types.h. ">
<polygon fill="none" stroke="black" points="1843.66,-245 1843.66,-265 1916.34,-265 1916.34,-245 1843.66,-245"/>
<text text-anchor="middle" x="1880" y="-251" font-family="Helvetica,sans-Serif" font-size="10.00">RMF/types.h</text>
</a>
</g>
</g>
<!-- Node1&#45;&gt;Node32 -->
<g id="edge132" class="edge"><title>Node1&#45;&gt;Node32</title>
<path fill="none" stroke="midnightblue" d="M1718.2,-555.683C1783.11,-554.157 1922.89,-546.488 2034,-510 2084.65,-493.366 2092.54,-478.156 2139,-452 2193.47,-421.33 2229.67,-436.096 2261,-382 2318.77,-282.253 2001.74,-275.918 1926.53,-266.602"/>
<polygon fill="midnightblue" stroke="midnightblue" points="1927.05,-263.14 1916.63,-265.066 1925.98,-270.058 1927.05,-263.14"/>
</g>
<!-- Node41 -->
<g id="node41" class="node"><title>Node41</title>
<polygon fill="none" stroke="#bfbfbf" points="2060.14,-361 2060.14,-381 2197.86,-381 2197.86,-361 2060.14,-361"/>
<text text-anchor="middle" x="2129" y="-367" font-family="Helvetica,sans-Serif" font-size="10.00">RMF/internal/SharedData.h</text>
</g>
<!-- Node1&#45;&gt;Node41 -->
<g id="edge128" class="edge"><title>Node1&#45;&gt;Node41</title>
<path fill="none" stroke="midnightblue" d="M1718.08,-552.5C1812.39,-542.589 2062.73,-511.141 2117,-452 2131.95,-435.71 2133.05,-409.203 2131.68,-391.204"/>
<polygon fill="midnightblue" stroke="midnightblue" points="2135.14,-390.596 2130.58,-381.031 2128.18,-391.35 2135.14,-390.596"/>
</g>
<!-- Node43 -->
<g id="node43" class="node"><title>Node43</title>
<g id="a_node43"><a xlink:href="enums_8h.html" target="_top" xlink:title="The various enums used in RMF. ">
<polygon fill="none" stroke="black" points="2255.6,-303 2255.6,-323 2334.4,-323 2334.4,-303 2255.6,-303"/>
<text text-anchor="middle" x="2295" y="-309" font-family="Helvetica,sans-Serif" font-size="10.00">RMF/enums.h</text>
</a>
</g>
</g>
<!-- Node1&#45;&gt;Node43 -->
<g id="edge130" class="edge"><title>Node1&#45;&gt;Node43</title>
<path fill="none" stroke="midnightblue" d="M1718.28,-555.247C1869.36,-551.939 2441.96,-537.61 2468,-510 2513.74,-461.502 2508.63,-412.851 2468,-360 2452.99,-340.473 2390.24,-327.492 2344.63,-320.437"/>
<polygon fill="midnightblue" stroke="midnightblue" points="2345.01,-316.955 2334.6,-318.937 2343.97,-323.878 2345.01,-316.955"/>
</g>
<!-- Node48 -->
<g id="node48" class="node"><title>Node48</title>
<polygon fill="none" stroke="#bfbfbf" points="1208.36,-425 1208.36,-445 1321.64,-445 1321.64,-425 1208.36,-425"/>
<text text-anchor="middle" x="1265" y="-431" font-family="Helvetica,sans-Serif" font-size="10.00">internal/SharedData.h</text>
</g>
<!-- Node1&#45;&gt;Node48 -->
<g id="edge131" class="edge"><title>Node1&#45;&gt;Node48</title>
<path fill="none" stroke="midnightblue" d="M1650.66,-546.98C1576.31,-525.584 1389.27,-471.761 1306.04,-447.811"/>
<polygon fill="midnightblue" stroke="midnightblue" points="1307,-444.444 1296.42,-445.042 1305.06,-451.171 1307,-444.444"/>
</g>
<!-- Node50 -->
<g id="node50" class="node"><title>Node50</title>
<g id="a_node50"><a xlink:href="NodeHandle_8h.html" target="_top" xlink:title="Declaration of NodeHandle. ">
<polygon fill="none" stroke="black" points="1729.03,-489 1729.03,-509 1808.97,-509 1808.97,-489 1729.03,-489"/>
<text text-anchor="middle" x="1769" y="-495" font-family="Helvetica,sans-Serif" font-size="10.00">NodeHandle.h</text>
</a>
</g>
</g>
<!-- Node1&#45;&gt;Node50 -->
<g id="edge113" class="edge"><title>Node1&#45;&gt;Node50</title>
<path fill="none" stroke="midnightblue" d="M1696.37,-546.753C1709.92,-538.027 1730.46,-524.805 1746.25,-514.646"/>
<polygon fill="midnightblue" stroke="midnightblue" points="1748.39,-517.431 1754.9,-509.075 1744.6,-511.545 1748.39,-517.431"/>
</g>
<!-- Node5&#45;&gt;Node2 -->
<g id="edge7" class="edge"><title>Node5&#45;&gt;Node2</title>
<path fill="none" stroke="midnightblue" d="M997.632,-496.739C833.864,-492.331 317.427,-476.533 292,-452 243.529,-405.233 258.411,-314.364 267.842,-274.972"/>
<polygon fill="midnightblue" stroke="midnightblue" points="271.278,-275.659 270.354,-265.105 264.495,-273.932 271.278,-275.659"/>
</g>
<!-- Node5&#45;&gt;Node3 -->
<g id="edge10" class="edge"><title>Node5&#45;&gt;Node3</title>
<path fill="none" stroke="midnightblue" d="M997.657,-496.997C836.665,-493.463 333.183,-480.246 266,-452 181.887,-416.636 114,-405.244 114,-314 114,-314 114,-314 114,-196 114,-133.809 324.933,-89.7496 405.355,-75.211"/>
<polygon fill="midnightblue" stroke="midnightblue" points="406.134,-78.6276 415.368,-73.4323 404.91,-71.7355 406.134,-78.6276"/>
</g>
<!-- Node5&#45;&gt;Node4 -->
<g id="edge11" class="edge"><title>Node5&#45;&gt;Node4</title>
<path fill="none" stroke="midnightblue" d="M1096.43,-497.18C1271.47,-494.038 1855.59,-481.431 1934,-452 1995.93,-428.754 1989.65,-384.73 2051,-360 2199.73,-300.053 2259.18,-378.48 2410,-324 2521.76,-283.628 2549.45,-250.409 2613,-150 2625.15,-130.796 2633.83,-106.066 2638.86,-89.2179"/>
<polygon fill="midnightblue" stroke="midnightblue" points="2642.28,-89.9977 2641.64,-79.4222 2635.54,-88.0885 2642.28,-89.9977"/>
</g>
<!-- Node6 -->
<g id="node6" class="node"><title>Node6</title>
<polygon fill="none" stroke="#bfbfbf" points="421.793,-361 421.793,-381 556.207,-381 556.207,-361 421.793,-361"/>
<text text-anchor="middle" x="489" y="-367" font-family="Helvetica,sans-Serif" font-size="10.00">boost/current_function.hpp</text>
</g>
<!-- Node5&#45;&gt;Node6 -->
<g id="edge5" class="edge"><title>Node5&#45;&gt;Node6</title>
<path fill="none" stroke="midnightblue" d="M997.804,-492.014C940.531,-484.602 843.278,-470.638 761,-452 675.489,-432.63 577.29,-401.484 525.458,-384.328"/>
<polygon fill="midnightblue" stroke="midnightblue" points="526.321,-380.926 515.728,-381.09 524.111,-387.568 526.321,-380.926"/>
</g>
<!-- Node7 -->
<g id="node7" class="node"><title>Node7</title>
<polygon fill="none" stroke="#bfbfbf" points="770.013,-425 770.013,-445 899.987,-445 899.987,-425 770.013,-425"/>
<text text-anchor="middle" x="835" y="-431" font-family="Helvetica,sans-Serif" font-size="10.00">boost/functional/hash.hpp</text>
</g>
<!-- Node5&#45;&gt;Node7 -->
<g id="edge6" class="edge"><title>Node5&#45;&gt;Node7</title>
<path fill="none" stroke="midnightblue" d="M1016.17,-488.985C979.041,-478.125 916.553,-459.85 875.543,-447.857"/>
<polygon fill="midnightblue" stroke="midnightblue" points="876.444,-444.474 865.864,-445.026 874.479,-451.193 876.444,-444.474"/>
</g>
<!-- Node8 -->
<g id="node8" class="node"><title>Node8</title>
<polygon fill="none" stroke="#bfbfbf" points="917.828,-425 917.828,-445 962.172,-445 962.172,-425 917.828,-425"/>
<text text-anchor="middle" x="940" y="-431" font-family="Helvetica,sans-Serif" font-size="10.00">iosfwd</text>
</g>
<!-- Node5&#45;&gt;Node8 -->
<g id="edge8" class="edge"><title>Node5&#45;&gt;Node8</title>
<path fill="none" stroke="midnightblue" d="M1031.21,-488.852C1013.67,-478.686 985.118,-462.143 964.63,-450.272"/>
<polygon fill="midnightblue" stroke="midnightblue" points="966.26,-447.171 955.853,-445.186 962.751,-453.228 966.26,-447.171"/>
</g>
<!-- Node9 -->
<g id="node9" class="node"><title>Node9</title>
<polygon fill="none" stroke="#bfbfbf" points="1117.61,-245 1117.61,-265 1156.39,-265 1156.39,-245 1117.61,-245"/>
<text text-anchor="middle" x="1137" y="-251" font-family="Helvetica,sans-Serif" font-size="10.00">limits</text>
</g>
<!-- Node5&#45;&gt;Node9 -->
<g id="edge9" class="edge"><title>Node5&#45;&gt;Node9</title>
<path fill="none" stroke="midnightblue" d="M1050.42,-488.809C1063.67,-453.171 1111.83,-323.675 1130,-274.825"/>
<polygon fill="midnightblue" stroke="midnightblue" points="1133.37,-275.793 1133.58,-265.2 1126.81,-273.353 1133.37,-275.793"/>
</g>
<!-- Node10 -->
<g id="node10" class="node"><title>Node10</title>
<g id="a_node10"><a xlink:href="BufferHandle_8h.html" target="_top" xlink:title="Declare RMF::BufferHandle. ">
<polygon fill="none" stroke="black" points="917.733,-361 917.733,-381 1000.27,-381 1000.27,-361 917.733,-361"/>
<text text-anchor="middle" x="959" y="-367" font-family="Helvetica,sans-Serif" font-size="10.00">BufferHandle.h</text>
</a>
</g>
</g>
<!-- Node5&#45;&gt;Node10 -->
<g id="edge12" class="edge"><title>Node5&#45;&gt;Node10</title>
<path fill="none" stroke="midnightblue" d="M1040.37,-488.874C1033.67,-479.62 1023.04,-464.869 1014,-452 999.1,-430.785 982.25,-406.184 971.172,-389.924"/>
<polygon fill="midnightblue" stroke="midnightblue" points="973.894,-387.702 965.375,-381.402 968.106,-391.639 973.894,-387.702"/>
</g>
<!-- Node5&#45;&gt;Node11 -->
<g id="edge101" class="edge"><title>Node5&#45;&gt;Node11</title>
<path fill="none" stroke="midnightblue" d="M1096.45,-497.836C1215.6,-496.82 1515.48,-490.407 1607,-452 1650.87,-433.589 1668.21,-425.268 1688,-382 1694.59,-367.585 1700.39,-322.288 1686,-302 1603.76,-186.082 1523.13,-230.032 1388,-186 1323.36,-164.939 1205.29,-165.391 1252,-116 1278.8,-87.6592 1856.44,-74.2459 2028.23,-70.8739"/>
<polygon fill="midnightblue" stroke="midnightblue" points="2028.31,-74.3731 2038.24,-70.6798 2028.17,-67.3744 2028.31,-74.3731"/>
</g>
<!-- Node13 -->
<g id="node13" class="node"><title>Node13</title>
<g id="a_node13"><a xlink:href="infrastructure__macros_8h.html" target="_top" xlink:title="Various general useful macros for IMP. ">
<polygon fill="none" stroke="black" points="931.48,-123 931.48,-143 1052.52,-143 1052.52,-123 931.48,-123"/>
<text text-anchor="middle" x="992" y="-129" font-family="Helvetica,sans-Serif" font-size="10.00">infrastructure_macros.h</text>
</a>
</g>
</g>
<!-- Node5&#45;&gt;Node13 -->
<g id="edge105" class="edge"><title>Node5&#45;&gt;Node13</title>
<path fill="none" stroke="midnightblue" d="M1046.54,-488.957C1044.51,-451.375 1035.21,-303.99 1009,-186 1006.49,-174.697 1002.51,-162.367 999.04,-152.552"/>
<polygon fill="midnightblue" stroke="midnightblue" points="1002.29,-151.239 995.558,-143.055 995.714,-153.649 1002.29,-151.239"/>
</g>
<!-- Node20 -->
<g id="node20" class="node"><title>Node20</title>
<g id="a_node20"><a xlink:href="exceptions_8h.html" target="_top" xlink:title="Declarations of the various exception types. ">
<polygon fill="none" stroke="black" points="764.926,-123 764.926,-143 837.074,-143 837.074,-123 764.926,-123"/>
<text text-anchor="middle" x="801" y="-129" font-family="Helvetica,sans-Serif" font-size="10.00">exceptions.h</text>
</a>
</g>
</g>
<!-- Node5&#45;&gt;Node20 -->
<g id="edge104" class="edge"><title>Node5&#45;&gt;Node20</title>
<path fill="none" stroke="midnightblue" d="M997.83,-496.622C919.123,-493.519 760.435,-483.559 630,-452 588.844,-442.042 581.807,-429.303 541,-418 452.695,-393.541 420.35,-422.182 338,-382 268.705,-348.188 240.384,-336.428 209,-266 163.167,-163.147 607.085,-140.019 754.447,-135.192"/>
<polygon fill="midnightblue" stroke="midnightblue" points="754.649,-138.687 764.534,-134.875 754.429,-131.691 754.649,-138.687"/>
</g>
<!-- Node23 -->
<g id="node23" class="node"><title>Node23</title>
<polygon fill="none" stroke="#bfbfbf" points="243.766,-59 243.766,-79 354.234,-79 354.234,-59 243.766,-59"/>
<text text-anchor="middle" x="299" y="-65" font-family="Helvetica,sans-Serif" font-size="10.00">RMF/internal/errors.h</text>
</g>
<!-- Node5&#45;&gt;Node23 -->
<g id="edge107" class="edge"><title>Node5&#45;&gt;Node23</title>
<path fill="none" stroke="midnightblue" d="M997.571,-497.072C825.289,-493.603 257.58,-480.134 181,-452 125.93,-431.769 76,-430.668 76,-372 76,-372 76,-372 76,-196 76,-122.933 167.871,-91.7534 233.677,-78.7922"/>
<polygon fill="midnightblue" stroke="midnightblue" points="234.404,-82.217 243.59,-76.9369 233.117,-75.3365 234.404,-82.217"/>
</g>
<!-- Node27 -->
<g id="node27" class="node"><title>Node27</title>
<g id="a_node27"><a xlink:href="NodeConstHandle_8h.html" target="_top" xlink:title="Declaration of NodeConstHandlke. ">
<polygon fill="none" stroke="black" points="1491.97,-425 1491.97,-445 1598.03,-445 1598.03,-425 1491.97,-425"/>
<text text-anchor="middle" x="1545" y="-431" font-family="Helvetica,sans-Serif" font-size="10.00">NodeConstHandle.h</text>
</a>
</g>
</g>
<!-- Node5&#45;&gt;Node27 -->
<g id="edge43" class="edge"><title>Node5&#45;&gt;Node27</title>
<path fill="none" stroke="midnightblue" d="M1096.57,-491.829C1187.67,-480.487 1381.54,-456.35 1481.89,-443.857"/>
<polygon fill="midnightblue" stroke="midnightblue" points="1482.4,-447.321 1491.89,-442.612 1481.53,-440.374 1482.4,-447.321"/>
</g>
<!-- Node5&#45;&gt;Node29 -->
<g id="edge100" class="edge"><title>Node5&#45;&gt;Node29</title>
<path fill="none" stroke="midnightblue" d="M1054.23,-488.753C1061.2,-479.649 1071.86,-465.226 1080,-452 1104.17,-412.72 1096.44,-393.629 1128,-360 1140.76,-346.403 1158.42,-335.389 1173.51,-327.551"/>
<polygon fill="midnightblue" stroke="midnightblue" points="1175.1,-330.668 1182.5,-323.086 1171.98,-324.398 1175.1,-330.668"/>
</g>
<!-- Node5&#45;&gt;Node32 -->
<g id="edge111" class="edge"><title>Node5&#45;&gt;Node32</title>
<path fill="none" stroke="midnightblue" d="M1096.26,-496.925C1267.53,-492.967 1828.19,-478.061 1856,-452 1905.29,-405.82 1892.93,-314.634 1884.61,-275.066"/>
<polygon fill="midnightblue" stroke="midnightblue" points="1887.99,-274.139 1882.38,-265.152 1881.16,-275.676 1887.99,-274.139"/>
</g>
<!-- Node5&#45;&gt;Node41 -->
<g id="edge106" class="edge"><title>Node5&#45;&gt;Node41</title>
<path fill="none" stroke="midnightblue" d="M1096.15,-497.763C1285.08,-496.576 1958.39,-489.715 2046,-452 2062.07,-445.084 2094.89,-410.315 2114.09,-388.954"/>
<polygon fill="midnightblue" stroke="midnightblue" points="2116.92,-391.048 2120.95,-381.252 2111.69,-386.393 2116.92,-391.048"/>
</g>
<!-- Node42 -->
<g id="node42" class="node"><title>Node42</title>
<g id="a_node42"><a xlink:href="constants_8h.html" target="_top" xlink:title="Various constants. ">
<polygon fill="none" stroke="black" points="1208.21,-361 1208.21,-381 1299.79,-381 1299.79,-361 1208.21,-361"/>
<text text-anchor="middle" x="1254" y="-367" font-family="Helvetica,sans-Serif" font-size="10.00">RMF/constants.h</text>
</a>
</g>
</g>
<!-- Node5&#45;&gt;Node42 -->
<g id="edge102" class="edge"><title>Node5&#45;&gt;Node42</title>
<path fill="none" stroke="midnightblue" d="M1061.89,-488.938C1097.38,-467.332 1187.23,-412.64 1230.29,-386.433"/>
<polygon fill="midnightblue" stroke="midnightblue" points="1232.25,-389.338 1238.97,-381.149 1228.61,-383.359 1232.25,-389.338"/>
</g>
<!-- Node5&#45;&gt;Node43 -->
<g id="edge103" class="edge"><title>Node5&#45;&gt;Node43</title>
<path fill="none" stroke="midnightblue" d="M1096.21,-496.978C1265.72,-493.232 1819.07,-479.038 1894,-452 1958.55,-428.709 1954.76,-386.65 2018,-360 2110.92,-320.842 2142.67,-341.349 2242,-324 2243.08,-323.811 2244.18,-323.618 2245.28,-323.422"/>
<polygon fill="midnightblue" stroke="midnightblue" points="2246.15,-326.821 2255.37,-321.598 2244.91,-319.933 2246.15,-326.821"/>
</g>
<!-- Node47 -->
<g id="node47" class="node"><title>Node47</title>
<polygon fill="none" stroke="#bfbfbf" points="300.705,-419 300.705,-451 407.295,-451 407.295,-419 300.705,-419"/>
<text text-anchor="start" x="308.705" y="-437" font-family="Helvetica,sans-Serif" font-size="10.00">RMF/internal/shared</text>
<text text-anchor="middle" x="354" y="-425" font-family="Helvetica,sans-Serif" font-size="10.00">_data_ranges.h</text>
</g>
<!-- Node5&#45;&gt;Node47 -->
<g id="edge108" class="edge"><title>Node5&#45;&gt;Node47</title>
<path fill="none" stroke="midnightblue" d="M997.556,-497.41C892.331,-495.506 638.45,-487.469 417.47,-452.057"/>
<polygon fill="midnightblue" stroke="midnightblue" points="417.737,-448.555 407.305,-450.405 416.614,-455.464 417.737,-448.555"/>
</g>
<!-- Node5&#45;&gt;Node48 -->
<g id="edge109" class="edge"><title>Node5&#45;&gt;Node48</title>
<path fill="none" stroke="midnightblue" d="M1078.7,-488.985C1116.96,-478.102 1181.41,-459.773 1223.58,-447.781"/>
<polygon fill="midnightblue" stroke="midnightblue" points="1224.6,-451.128 1233.26,-445.026 1222.69,-444.395 1224.6,-451.128"/>
</g>
<!-- Node49 -->
<g id="node49" class="node"><title>Node49</title>
<polygon fill="none" stroke="#bfbfbf" points="425.412,-419 425.412,-451 532.588,-451 532.588,-419 425.412,-419"/>
<text text-anchor="start" x="433.412" y="-437" font-family="Helvetica,sans-Serif" font-size="10.00">internal/shared_data</text>
<text text-anchor="middle" x="479" y="-425" font-family="Helvetica,sans-Serif" font-size="10.00">_ranges.h</text>
</g>
<!-- Node5&#45;&gt;Node49 -->
<g id="edge110" class="edge"><title>Node5&#45;&gt;Node49</title>
<path fill="none" stroke="midnightblue" d="M997.743,-495.748C907.745,-491.13 710.904,-478.689 547,-452 545.541,-451.762 544.067,-451.511 542.582,-451.248"/>
<polygon fill="midnightblue" stroke="midnightblue" points="543.162,-447.796 532.683,-449.361 541.851,-454.672 543.162,-447.796"/>
</g>
<!-- Node10&#45;&gt;Node9 -->
<g id="edge42" class="edge"><title>Node10&#45;&gt;Node9</title>
<path fill="none" stroke="midnightblue" d="M973.804,-360.935C988.788,-351.728 1012.59,-337.012 1033,-324 1061.36,-305.916 1093.76,-284.634 1114.75,-270.759"/>
<polygon fill="midnightblue" stroke="midnightblue" points="1116.86,-273.558 1123.27,-265.12 1113,-267.721 1116.86,-273.558"/>
</g>
<!-- Node10&#45;&gt;Node11 -->
<g id="edge13" class="edge"><title>Node10&#45;&gt;Node11</title>
<path fill="none" stroke="midnightblue" d="M965.939,-360.955C972.93,-351.763 983.948,-337.059 993,-324 1055.78,-233.422 1032.46,-170.932 1128,-116 1206.34,-70.9583 1846.52,-69.3323 2028.13,-69.7893"/>
<polygon fill="midnightblue" stroke="midnightblue" points="2028.17,-73.2893 2038.18,-69.8179 2028.19,-66.2893 2028.17,-73.2893"/>
</g>
<!-- Node10&#45;&gt;Node13 -->
<g id="edge15" class="edge"><title>Node10&#45;&gt;Node13</title>
<path fill="none" stroke="midnightblue" d="M962.705,-360.735C969.663,-342.801 984.479,-301.941 990,-266 996.096,-226.317 994.786,-179.137 993.351,-153.299"/>
<polygon fill="midnightblue" stroke="midnightblue" points="996.826,-152.796 992.709,-143.034 989.84,-153.233 996.826,-152.796"/>
</g>
<!-- Node10&#45;&gt;Node20 -->
<g id="edge25" class="edge"><title>Node10&#45;&gt;Node20</title>
<path fill="none" stroke="midnightblue" d="M957.17,-360.696C950.956,-331.341 928.084,-239.469 876,-186 861.534,-171.15 842.263,-157.896 826.878,-148.485"/>
<polygon fill="midnightblue" stroke="midnightblue" points="828.264,-145.238 817.878,-143.143 824.691,-151.257 828.264,-145.238"/>
</g>
<!-- Node24 -->
<g id="node24" class="node"><title>Node24</title>
<g id="a_node24"><a xlink:href="BufferConstHandle_8h.html" target="_top" xlink:title="Declare RMF::BufferConstHandle. ">
<polygon fill="none" stroke="red" points="725.672,-303 725.672,-323 834.328,-323 834.328,-303 725.672,-303"/>
<text text-anchor="middle" x="780" y="-309" font-family="Helvetica,sans-Serif" font-size="10.00">BufferConstHandle.h</text>
</a>
</g>
</g>
<!-- Node10&#45;&gt;Node24 -->
<g id="edge32" class="edge"><title>Node10&#45;&gt;Node24</title>
<path fill="none" stroke="midnightblue" d="M929.842,-360.878C899.587,-351.413 852.111,-336.56 818.723,-326.115"/>
<polygon fill="midnightblue" stroke="midnightblue" points="819.438,-322.671 808.849,-323.025 817.348,-329.352 819.438,-322.671"/>
</g>
<!-- Node11&#45;&gt;Node12 -->
<g id="edge14" class="edge"><title>Node11&#45;&gt;Node12</title>
<path fill="none" stroke="midnightblue" d="M2038.03,-66.2471C1866.8,-58.342 1164.88,-25.9368 935.73,-15.3577"/>
<polygon fill="midnightblue" stroke="midnightblue" points="935.654,-11.8505 925.503,-14.8856 935.331,-18.8431 935.654,-11.8505"/>
</g>
<!-- Node13&#45;&gt;Node3 -->
<g id="edge18" class="edge"><title>Node13&#45;&gt;Node3</title>
<path fill="none" stroke="midnightblue" d="M931.66,-122.962C914.649,-120.549 896.116,-118.046 879,-116 715.386,-96.4449 673.675,-99.0367 510,-80 495.673,-78.3337 479.822,-76.2269 466.478,-74.3773"/>
<polygon fill="midnightblue" stroke="midnightblue" points="466.78,-70.8855 456.391,-72.9624 465.808,-77.8176 466.78,-70.8855"/>
</g>
<!-- Node13&#45;&gt;Node4 -->
<g id="edge21" class="edge"><title>Node13&#45;&gt;Node4</title>
<path fill="none" stroke="midnightblue" d="M1052.65,-127.696C1105.32,-124.094 1183.67,-119.066 1252,-116 1818.77,-90.5729 1961.59,-112.377 2528,-80 2556.53,-78.3694 2588.92,-75.4908 2612.21,-73.2394"/>
<polygon fill="midnightblue" stroke="midnightblue" points="2612.61,-76.7167 2622.22,-72.2559 2611.93,-69.7502 2612.61,-76.7167"/>
</g>
<!-- Node13&#45;&gt;Node12 -->
<g id="edge19" class="edge"><title>Node13&#45;&gt;Node12</title>
<path fill="none" stroke="midnightblue" d="M968.784,-122.956C948.895,-114.298 920.464,-99.6504 901,-80 887.062,-65.9282 876.635,-45.702 870.263,-30.9683"/>
<polygon fill="midnightblue" stroke="midnightblue" points="873.368,-29.3129 866.348,-21.3773 866.887,-31.9584 873.368,-29.3129"/>
</g>
<!-- Node14 -->
<g id="node14" class="node"><title>Node14</title>
<polygon fill="none" stroke="#bfbfbf" points="595.219,-59 595.219,-79 646.781,-79 646.781,-59 595.219,-59"/>
<text text-anchor="middle" x="621" y="-65" font-family="Helvetica,sans-Serif" font-size="10.00">sstream</text>
</g>
<!-- Node13&#45;&gt;Node14 -->
<g id="edge16" class="edge"><title>Node13&#45;&gt;Node14</title>
<path fill="none" stroke="midnightblue" d="M931.132,-123.057C848.24,-110.815 705.335,-89.4656 656.871,-80.0705"/>
<polygon fill="midnightblue" stroke="midnightblue" points="657.398,-76.6054 646.896,-78.0021 655.977,-83.4596 657.398,-76.6054"/>
</g>
<!-- Node15 -->
<g id="node15" class="node"><title>Node15</title>
<polygon fill="none" stroke="#bfbfbf" points="2464.83,-59 2464.83,-79 2519.17,-79 2519.17,-59 2464.83,-59"/>
<text text-anchor="middle" x="2492" y="-65" font-family="Helvetica,sans-Serif" font-size="10.00">iostream</text>
</g>
<!-- Node13&#45;&gt;Node15 -->
<g id="edge17" class="edge"><title>Node13&#45;&gt;Node15</title>
<path fill="none" stroke="midnightblue" d="M1052.65,-127.848C1105.33,-124.342 1183.68,-119.369 1252,-116 1726.35,-92.6097 2303.31,-75.3913 2454.36,-71.0612"/>
<polygon fill="midnightblue" stroke="midnightblue" points="2454.6,-74.5559 2464.5,-70.7718 2454.4,-67.5588 2454.6,-74.5559"/>
</g>
<!-- Node16 -->
<g id="node16" class="node"><title>Node16</title>
<polygon fill="none" stroke="#bfbfbf" points="909.98,-59 909.98,-79 986.02,-79 986.02,-59 909.98,-59"/>
<text text-anchor="middle" x="948" y="-65" font-family="Helvetica,sans-Serif" font-size="10.00">internal/use.h</text>
</g>
<!-- Node13&#45;&gt;Node16 -->
<g id="edge20" class="edge"><title>Node13&#45;&gt;Node16</title>
<path fill="none" stroke="midnightblue" d="M985.508,-122.852C978.943,-113.602 968.632,-99.072 960.48,-87.5859"/>
<polygon fill="midnightblue" stroke="midnightblue" points="963.161,-85.3153 954.519,-79.1858 957.452,-89.3666 963.161,-85.3153"/>
</g>
<!-- Node17 -->
<g id="node17" class="node"><title>Node17</title>
<polygon fill="none" stroke="#bfbfbf" points="1004.31,-59 1004.31,-79 1093.69,-79 1093.69,-59 1004.31,-59"/>
<text text-anchor="middle" x="1049" y="-65" font-family="Helvetica,sans-Serif" font-size="10.00">boost/config.hpp</text>
</g>
<!-- Node13&#45;&gt;Node17 -->
<g id="edge22" class="edge"><title>Node13&#45;&gt;Node17</title>
<path fill="none" stroke="midnightblue" d="M1000.41,-122.852C1009.17,-113.327 1023.07,-98.2042 1033.77,-86.5706"/>
<polygon fill="midnightblue" stroke="midnightblue" points="1036.36,-88.9164 1040.55,-79.1858 1031.21,-84.1787 1036.36,-88.9164"/>
</g>
<!-- Node18 -->
<g id="node18" class="node"><title>Node18</title>
<polygon fill="none" stroke="#bfbfbf" points="1111.53,-59 1111.53,-79 1206.47,-79 1206.47,-59 1111.53,-59"/>
<text text-anchor="middle" x="1159" y="-65" font-family="Helvetica,sans-Serif" font-size="10.00">boost/version.hpp</text>
</g>
<!-- Node13&#45;&gt;Node18 -->
<g id="edge23" class="edge"><title>Node13&#45;&gt;Node18</title>
<path fill="none" stroke="midnightblue" d="M1016.28,-122.985C1044.98,-112.332 1092.89,-94.5431 1125.2,-82.5484"/>
<polygon fill="midnightblue" stroke="midnightblue" points="1126.53,-85.7879 1134.69,-79.0262 1124.09,-79.2256 1126.53,-85.7879"/>
</g>
<!-- Node19 -->
<g id="node19" class="node"><title>Node19</title>
<polygon fill="none" stroke="#bfbfbf" points="1223.97,-59 1223.97,-79 1320.03,-79 1320.03,-59 1223.97,-59"/>
<text text-anchor="middle" x="1272" y="-65" font-family="Helvetica,sans-Serif" font-size="10.00">boost/foreach.hpp</text>
</g>
<!-- Node13&#45;&gt;Node19 -->
<g id="edge24" class="edge"><title>Node13&#45;&gt;Node19</title>
<path fill="none" stroke="midnightblue" d="M1032.71,-122.985C1082.59,-111.942 1167.09,-93.2301 1221.18,-81.254"/>
<polygon fill="midnightblue" stroke="midnightblue" points="1222.23,-84.6054 1231.24,-79.0262 1220.72,-77.771 1222.23,-84.6054"/>
</g>
<!-- Node20&#45;&gt;Node3 -->
<g id="edge28" class="edge"><title>Node20&#45;&gt;Node3</title>
<path fill="none" stroke="midnightblue" d="M775.532,-122.958C767.734,-120.432 759.08,-117.869 751,-116 723.543,-109.648 539.872,-84.2163 466.345,-74.141"/>
<polygon fill="midnightblue" stroke="midnightblue" points="466.71,-70.6584 456.328,-72.77 465.761,-77.5938 466.71,-70.6584"/>
</g>
<!-- Node20&#45;&gt;Node11 -->
<g id="edge29" class="edge"><title>Node20&#45;&gt;Node11</title>
<path fill="none" stroke="midnightblue" d="M837.224,-124.225C853.047,-121.138 871.866,-117.88 889,-116 1329.56,-67.657 1866.95,-68.0625 2028.12,-69.4384"/>
<polygon fill="midnightblue" stroke="midnightblue" points="2028.15,-72.9387 2038.19,-69.5299 2028.22,-65.939 2028.15,-72.9387"/>
</g>
<!-- Node20&#45;&gt;Node12 -->
<g id="edge30" class="edge"><title>Node20&#45;&gt;Node12</title>
<path fill="none" stroke="midnightblue" d="M805.66,-122.98C815.804,-103.348 840.053,-56.4138 853.541,-30.3071"/>
<polygon fill="midnightblue" stroke="midnightblue" points="856.805,-31.615 858.286,-21.1242 850.586,-28.4018 856.805,-31.615"/>
</g>
<!-- Node21 -->
<g id="node21" class="node"><title>Node21</title>
<polygon fill="none" stroke="#bfbfbf" points="664.451,-59 664.451,-79 815.549,-79 815.549,-59 664.451,-59"/>
<text text-anchor="middle" x="740" y="-65" font-family="Helvetica,sans-Serif" font-size="10.00">boost/exception/exception.hpp</text>
</g>
<!-- Node20&#45;&gt;Node21 -->
<g id="edge26" class="edge"><title>Node20&#45;&gt;Node21</title>
<path fill="none" stroke="midnightblue" d="M791.999,-122.852C782.629,-113.327 767.749,-98.2042 756.303,-86.5706"/>
<polygon fill="midnightblue" stroke="midnightblue" points="758.546,-83.8595 749.038,-79.1858 753.556,-88.7689 758.546,-83.8595"/>
</g>
<!-- Node22 -->
<g id="node22" class="node"><title>Node22</title>
<polygon fill="none" stroke="#bfbfbf" points="518.596,-59 518.596,-79 577.404,-79 577.404,-59 518.596,-59"/>
<text text-anchor="middle" x="548" y="-65" font-family="Helvetica,sans-Serif" font-size="10.00">exception</text>
</g>
<!-- Node20&#45;&gt;Node22 -->
<g id="edge27" class="edge"><title>Node20&#45;&gt;Node22</title>
<path fill="none" stroke="midnightblue" d="M774.412,-122.975C766.886,-120.562 758.658,-118.056 751,-116 681.481,-97.3383 660.668,-97.5061 587.157,-80.1958"/>
<polygon fill="midnightblue" stroke="midnightblue" points="587.966,-76.7909 577.427,-77.876 586.343,-83.6 587.966,-76.7909"/>
</g>
<!-- Node20&#45;&gt;Node23 -->
<g id="edge31" class="edge"><title>Node20&#45;&gt;Node23</title>
<path fill="none" stroke="midnightblue" d="M764.897,-127.541C680.94,-117.172 471.591,-91.316 364.439,-78.0821"/>
<polygon fill="midnightblue" stroke="midnightblue" points="364.749,-74.5939 354.396,-76.8417 363.891,-81.5412 364.749,-74.5939"/>
</g>
<!-- Node24&#45;&gt;Node2 -->
<g id="edge39" class="edge"><title>Node24&#45;&gt;Node2</title>
<path fill="none" stroke="midnightblue" d="M725.26,-305.954C631.191,-295.564 439.264,-274.364 338.348,-263.218"/>
<polygon fill="midnightblue" stroke="midnightblue" points="338.604,-259.725 328.28,-262.106 337.835,-266.683 338.604,-259.725"/>
</g>
<!-- Node24&#45;&gt;Node3 -->
<g id="edge38" class="edge"><title>Node24&#45;&gt;Node3</title>
<path fill="none" stroke="midnightblue" d="M774.54,-302.749C765.959,-288.77 748.198,-261.991 728,-244 643.405,-168.648 521.48,-108.46 465.784,-83.0676"/>
<polygon fill="midnightblue" stroke="midnightblue" points="467.045,-79.7968 456.491,-78.8742 464.166,-86.1774 467.045,-79.7968"/>
</g>
<!-- Node24&#45;&gt;Node9 -->
<g id="edge41" class="edge"><title>Node24&#45;&gt;Node9</title>
<path fill="none" stroke="midnightblue" d="M834.609,-303.434C911.078,-291.439 1047.4,-270.054 1107.34,-260.653"/>
<polygon fill="midnightblue" stroke="midnightblue" points="1107.94,-264.101 1117.28,-259.093 1106.86,-257.185 1107.94,-264.101"/>
</g>
<!-- Node24&#45;&gt;Node11 -->
<g id="edge33" class="edge"><title>Node24&#45;&gt;Node11</title>
<path fill="none" stroke="midnightblue" d="M785.217,-302.757C805.67,-266.89 881.257,-137.828 922,-116 971.426,-89.5203 1815.81,-74.1911 2027.95,-70.7465"/>
<polygon fill="midnightblue" stroke="midnightblue" points="2028.2,-74.243 2038.15,-70.5822 2028.09,-67.2439 2028.2,-74.243"/>
</g>
<!-- Node24&#45;&gt;Node13 -->
<g id="edge34" class="edge"><title>Node24&#45;&gt;Node13</title>
<path fill="none" stroke="midnightblue" d="M792.518,-302.932C816.615,-285.336 870.881,-245.028 914,-208 935.948,-189.153 959.909,-166.003 975.402,-150.669"/>
<polygon fill="midnightblue" stroke="midnightblue" points="978.059,-152.963 982.676,-143.427 973.12,-148.002 978.059,-152.963"/>
</g>
<!-- Node24&#45;&gt;Node14 -->
<g id="edge37" class="edge"><title>Node24&#45;&gt;Node14</title>
<path fill="none" stroke="midnightblue" d="M725.447,-303.934C720.899,-303.274 716.371,-302.623 712,-302 654.036,-293.741 489.468,-310.138 451,-266 391.463,-197.687 530.478,-115.703 592.755,-83.7195"/>
<polygon fill="midnightblue" stroke="midnightblue" points="594.355,-86.8322 601.702,-79.1978 591.198,-80.5847 594.355,-86.8322"/>
</g>
<!-- Node24&#45;&gt;Node20 -->
<g id="edge35" class="edge"><title>Node24&#45;&gt;Node20</title>
<path fill="none" stroke="midnightblue" d="M781.07,-302.928C784.327,-275.321 794.171,-191.88 798.689,-153.589"/>
<polygon fill="midnightblue" stroke="midnightblue" points="802.211,-153.608 799.907,-143.267 795.259,-152.788 802.211,-153.608"/>
</g>
<!-- Node25 -->
<g id="node25" class="node"><title>Node25</title>
<polygon fill="none" stroke="#bfbfbf" points="459.853,-245 459.853,-265 578.147,-265 578.147,-245 459.853,-245"/>
<text text-anchor="middle" x="519" y="-251" font-family="Helvetica,sans-Serif" font-size="10.00">boost/exception/all.hpp</text>
</g>
<!-- Node24&#45;&gt;Node25 -->
<g id="edge36" class="edge"><title>Node24&#45;&gt;Node25</title>
<path fill="none" stroke="midnightblue" d="M737.776,-302.94C692.384,-293.201 620.168,-277.706 571.234,-267.207"/>
<polygon fill="midnightblue" stroke="midnightblue" points="571.675,-263.722 561.164,-265.047 570.207,-270.567 571.675,-263.722"/>
</g>
<!-- Node26 -->
<g id="node26" class="node"><title>Node26</title>
<polygon fill="none" stroke="#bfbfbf" points="596.353,-245 596.353,-265 719.647,-265 719.647,-245 596.353,-245"/>
<text text-anchor="middle" x="658" y="-251" font-family="Helvetica,sans-Serif" font-size="10.00">boost/make_shared.hpp</text>
</g>
<!-- Node24&#45;&gt;Node26 -->
<g id="edge40" class="edge"><title>Node24&#45;&gt;Node26</title>
<path fill="none" stroke="midnightblue" d="M760.127,-302.878C740.276,-293.766 709.549,-279.662 686.981,-269.303"/>
<polygon fill="midnightblue" stroke="midnightblue" points="688.413,-266.109 677.864,-265.118 685.493,-272.471 688.413,-266.109"/>
</g>
<!-- Node27&#45;&gt;Node2 -->
<g id="edge46" class="edge"><title>Node27&#45;&gt;Node2</title>
<path fill="none" stroke="midnightblue" d="M1491.77,-427.226C1464.89,-424.015 1431.76,-420.371 1402,-418 1318.17,-411.321 718.173,-425.163 646,-382 610.414,-360.718 632.569,-324.898 598,-302 502.211,-238.55 455.744,-282.24 342,-266 340.719,-265.817 339.425,-265.632 338.121,-265.445"/>
<polygon fill="midnightblue" stroke="midnightblue" points="338.38,-261.947 327.984,-263.99 337.385,-268.876 338.38,-261.947"/>
</g>
<!-- Node27&#45;&gt;Node3 -->
<g id="edge48" class="edge"><title>Node27&#45;&gt;Node3</title>
<path fill="none" stroke="midnightblue" d="M1491.75,-427.51C1464.86,-424.369 1431.73,-420.703 1402,-418 1173.94,-397.264 1112.51,-427.151 888,-382 809.323,-366.177 790.919,-355.249 717,-324 697.227,-315.641 694.436,-308.573 674,-302 622.87,-285.554 470.036,-306.709 435,-266 391.377,-215.314 415.319,-126.942 428.799,-88.6151"/>
<polygon fill="midnightblue" stroke="midnightblue" points="432.093,-89.7984 432.259,-79.2049 425.523,-87.3829 432.093,-89.7984"/>
</g>
<!-- Node27&#45;&gt;Node4 -->
<g id="edge49" class="edge"><title>Node27&#45;&gt;Node4</title>
<path fill="none" stroke="midnightblue" d="M1598.19,-427.726C1670.23,-418.955 1802.74,-401.852 1915,-382 1961.1,-373.849 1971.75,-367.242 2018,-360 2175.99,-335.261 2228.69,-386.216 2376,-324 2499.18,-271.976 2599.56,-136.094 2632.51,-87.5525"/>
<polygon fill="midnightblue" stroke="midnightblue" points="2635.54,-89.3181 2638.18,-79.0595 2629.72,-85.4276 2635.54,-89.3181"/>
</g>
<!-- Node27&#45;&gt;Node6 -->
<g id="edge45" class="edge"><title>Node27&#45;&gt;Node6</title>
<path fill="none" stroke="midnightblue" d="M1491.59,-428.705C1455.57,-425.275 1406.96,-420.921 1364,-418 1028.39,-395.185 943.655,-404.088 608,-382 594.516,-381.113 580.184,-380.029 566.31,-378.906"/>
<polygon fill="midnightblue" stroke="midnightblue" points="566.56,-375.415 556.307,-378.084 565.987,-382.392 566.56,-375.415"/>
</g>
<!-- Node27&#45;&gt;Node11 -->
<g id="edge76" class="edge"><title>Node27&#45;&gt;Node11</title>
<path fill="none" stroke="midnightblue" d="M1578.49,-424.926C1614.25,-415.061 1672.47,-398.488 1722,-382 1748.55,-373.161 1754.2,-368.076 1781,-360 1878.65,-330.568 2228,-357.986 2228,-256 2228,-256 2228,-256 2228,-196 2228,-155.634 2214.85,-143.173 2185,-116 2167.69,-100.244 2144.19,-89.4008 2123.45,-82.2182"/>
<polygon fill="midnightblue" stroke="midnightblue" points="2124.43,-78.8557 2113.83,-79.0761 2122.25,-85.5094 2124.43,-78.8557"/>
</g>
<!-- Node27&#45;&gt;Node13 -->
<g id="edge78" class="edge"><title>Node27&#45;&gt;Node13</title>
<path fill="none" stroke="midnightblue" d="M1511.65,-424.941C1471.5,-413.727 1406.74,-394.577 1385,-382 1272.5,-316.928 1281.36,-249.55 1168,-186 1132.71,-166.219 1089.14,-153.268 1054.17,-145.238"/>
<polygon fill="midnightblue" stroke="midnightblue" points="1054.61,-141.75 1044.09,-143.002 1053.09,-148.584 1054.61,-141.75"/>
</g>
<!-- Node27&#45;&gt;Node15 -->
<g id="edge47" class="edge"><title>Node27&#45;&gt;Node15</title>
<path fill="none" stroke="midnightblue" d="M1598.07,-426.782C1660.74,-417.896 1767.97,-401.556 1859,-382 1896.31,-373.985 1904.42,-366.619 1942,-360 2030.11,-344.483 2262.29,-362.613 2343,-324 2431.54,-281.64 2445.16,-242.134 2479,-150 2486.33,-130.039 2489.54,-105.766 2490.93,-89.2281"/>
<polygon fill="midnightblue" stroke="midnightblue" points="2494.43,-89.3831 2491.64,-79.1627 2487.45,-88.8933 2494.43,-89.3831"/>
</g>
<!-- Node27&#45;&gt;Node20 -->
<g id="edge77" class="edge"><title>Node27&#45;&gt;Node20</title>
<path fill="none" stroke="midnightblue" d="M1491.97,-425.037C1475.37,-422.469 1456.95,-419.863 1440,-418 1381.22,-411.54 954.157,-420.181 909,-382 860.844,-341.283 900.985,-301.902 876,-244 863.79,-215.704 855.381,-211.449 838,-186 830.058,-174.372 820.882,-161.473 813.655,-151.431"/>
<polygon fill="midnightblue" stroke="midnightblue" points="816.351,-149.186 807.657,-143.13 810.677,-153.286 816.351,-149.186"/>
</g>
<!-- Node27&#45;&gt;Node23 -->
<g id="edge80" class="edge"><title>Node27&#45;&gt;Node23</title>
<path fill="none" stroke="midnightblue" d="M1491.76,-427.383C1464.88,-424.211 1431.74,-420.555 1402,-418 1135.83,-395.14 1061.61,-444.995 802,-382 759.264,-371.63 663.065,-314.821 621,-302 533.351,-275.286 493.608,-317.763 418,-266 353.146,-221.6 317.545,-129.103 304.651,-89.1074"/>
<polygon fill="midnightblue" stroke="midnightblue" points="307.916,-87.8173 301.611,-79.3024 301.23,-89.8903 307.916,-87.8173"/>
</g>
<!-- Node28 -->
<g id="node28" class="node"><title>Node28</title>
<polygon fill="none" stroke="#bfbfbf" points="1393.96,-361 1393.96,-381 1472.04,-381 1472.04,-361 1393.96,-361"/>
<text text-anchor="middle" x="1433" y="-367" font-family="Helvetica,sans-Serif" font-size="10.00">boost/any.hpp</text>
</g>
<!-- Node27&#45;&gt;Node28 -->
<g id="edge44" class="edge"><title>Node27&#45;&gt;Node28</title>
<path fill="none" stroke="midnightblue" d="M1528.47,-424.852C1510.03,-414.641 1479.96,-397.994 1458.49,-386.112"/>
<polygon fill="midnightblue" stroke="midnightblue" points="1460.04,-382.967 1449.59,-381.186 1456.65,-389.091 1460.04,-382.967"/>
</g>
<!-- Node27&#45;&gt;Node29 -->
<g id="edge50" class="edge"><title>Node27&#45;&gt;Node29</title>
<path fill="none" stroke="midnightblue" d="M1507.79,-424.918C1460.15,-413.13 1380.38,-392.793 1352,-382 1331.56,-374.228 1327.78,-369.313 1308,-360 1283.48,-348.456 1255.36,-336.067 1234.54,-327.058"/>
<polygon fill="midnightblue" stroke="midnightblue" points="1235.81,-323.795 1225.25,-323.048 1233.04,-330.223 1235.81,-323.795"/>
</g>
<!-- Node30 -->
<g id="node30" class="node"><title>Node30</title>
<g id="a_node30"><a xlink:href="Nullable_8h.html" target="_top" xlink:title="A helper class for allowing nice return of possibly null values. ">
<polygon fill="none" stroke="black" points="1577.54,-361 1577.54,-381 1662.46,-381 1662.46,-361 1577.54,-361"/>
<text text-anchor="middle" x="1620" y="-367" font-family="Helvetica,sans-Serif" font-size="10.00">RMF/Nullable.h</text>
</a>
</g>
</g>
<!-- Node27&#45;&gt;Node30 -->
<g id="edge55" class="edge"><title>Node27&#45;&gt;Node30</title>
<path fill="none" stroke="midnightblue" d="M1556.07,-424.852C1567.92,-415.053 1586.94,-399.327 1601.16,-387.573"/>
<polygon fill="midnightblue" stroke="midnightblue" points="1603.41,-390.255 1608.89,-381.186 1598.95,-384.86 1603.41,-390.255"/>
</g>
<!-- Node31 -->
<g id="node31" class="node"><title>Node31</title>
<g id="a_node31"><a xlink:href="traits_8h.html" target="_top" xlink:title="Handle read/write of Model data from/to files. ">
<polygon fill="none" stroke="red" points="1631,-303 1631,-323 1677,-323 1677,-303 1631,-303"/>
<text text-anchor="middle" x="1654" y="-309" font-family="Helvetica,sans-Serif" font-size="10.00">traits.h</text>
</a>
</g>
</g>
<!-- Node27&#45;&gt;Node31 -->
<g id="edge98" class="edge"><title>Node27&#45;&gt;Node31</title>
<path fill="none" stroke="midnightblue" d="M1598.26,-426.15C1624.85,-419.246 1654.75,-406.29 1671,-382 1681.01,-367.044 1673.78,-346.677 1665.89,-332.141"/>
<polygon fill="midnightblue" stroke="midnightblue" points="1668.66,-329.942 1660.53,-323.147 1662.64,-333.528 1668.66,-329.942"/>
</g>
<!-- Node27&#45;&gt;Node32 -->
<g id="edge99" class="edge"><title>Node27&#45;&gt;Node32</title>
<path fill="none" stroke="midnightblue" d="M1576.27,-424.938C1605.83,-415.838 1651.04,-400.53 1688,-382 1754.42,-348.699 1825.88,-297.116 1859.84,-271.511"/>
<polygon fill="midnightblue" stroke="midnightblue" points="1862.18,-274.136 1868.02,-265.301 1857.94,-268.561 1862.18,-274.136"/>
</g>
<!-- Node27&#45;&gt;Node41 -->
<g id="edge79" class="edge"><title>Node27&#45;&gt;Node41</title>
<path fill="none" stroke="midnightblue" d="M1598.11,-428.361C1701.12,-417.426 1928.49,-393.287 2049.54,-380.436"/>
<polygon fill="midnightblue" stroke="midnightblue" points="2050.27,-383.878 2059.85,-379.342 2049.53,-376.917 2050.27,-383.878"/>
</g>
<!-- Node27&#45;&gt;Node42 -->
<g id="edge81" class="edge"><title>Node27&#45;&gt;Node42</title>
<path fill="none" stroke="midnightblue" d="M1508.19,-424.986C1498.39,-422.648 1487.81,-420.177 1478,-418 1420.89,-405.32 1355.31,-391.997 1309.93,-382.972"/>
<polygon fill="midnightblue" stroke="midnightblue" points="1310.48,-379.513 1299.99,-381 1309.12,-386.379 1310.48,-379.513"/>
</g>
<!-- Node27&#45;&gt;Node43 -->
<g id="edge84" class="edge"><title>Node27&#45;&gt;Node43</title>
<path fill="none" stroke="midnightblue" d="M1582.77,-424.951C1647.96,-409.618 1785.95,-378.409 1904,-360 2053.27,-336.723 2092.54,-346.023 2242,-324 2243.09,-323.84 2244.19,-323.673 2245.3,-323.501"/>
<polygon fill="midnightblue" stroke="midnightblue" points="2246.11,-326.913 2255.41,-321.83 2244.97,-320.007 2246.11,-326.913"/>
</g>
<!-- Node46 -->
<g id="node46" class="node"><title>Node46</title>
<g id="a_node46"><a xlink:href="keys_8h.html" target="_top" xlink:title="Declarations of the various key types. ">
<polygon fill="none" stroke="black" points="1490.33,-361 1490.33,-381 1559.67,-381 1559.67,-361 1490.33,-361"/>
<text text-anchor="middle" x="1525" y="-367" font-family="Helvetica,sans-Serif" font-size="10.00">RMF/keys.h</text>
</a>
</g>
</g>
<!-- Node27&#45;&gt;Node46 -->
<g id="edge93" class="edge"><title>Node27&#45;&gt;Node46</title>
<path fill="none" stroke="midnightblue" d="M1542.05,-424.852C1539.18,-415.969 1534.75,-402.215 1531.12,-390.964"/>
<polygon fill="midnightblue" stroke="midnightblue" points="1534.36,-389.628 1527.96,-381.186 1527.7,-391.777 1534.36,-389.628"/>
</g>
<!-- Node29&#45;&gt;Node9 -->
<g id="edge54" class="edge"><title>Node29&#45;&gt;Node9</title>
<path fill="none" stroke="midnightblue" d="M1192.94,-302.753C1182.79,-294.272 1167.56,-281.543 1155.55,-271.507"/>
<polygon fill="midnightblue" stroke="midnightblue" points="1157.78,-268.803 1147.86,-265.075 1153.29,-274.174 1157.78,-268.803"/>
</g>
<!-- Node29&#45;&gt;Node11 -->
<g id="edge51" class="edge"><title>Node29&#45;&gt;Node11</title>
<path fill="none" stroke="midnightblue" d="M1208.39,-302.976C1214.22,-289.738 1223,-264.413 1216,-244 1194.77,-182.047 1097.85,-163.435 1143,-116 1173.78,-83.666 1841.98,-72.9219 2028.2,-70.5499"/>
<polygon fill="midnightblue" stroke="midnightblue" points="2028.28,-74.0492 2038.24,-70.4242 2028.2,-67.0498 2028.28,-74.0492"/>
</g>
<!-- Node29&#45;&gt;Node13 -->
<g id="edge52" class="edge"><title>Node29&#45;&gt;Node13</title>
<path fill="none" stroke="midnightblue" d="M1205.63,-302.84C1207.58,-288.981 1209.33,-262.355 1198,-244 1164.13,-189.129 1092.84,-159.98 1043.69,-145.772"/>
<polygon fill="midnightblue" stroke="midnightblue" points="1044.44,-142.347 1033.87,-143.044 1042.57,-149.092 1044.44,-142.347"/>
</g>
<!-- Node29&#45;&gt;Node20 -->
<g id="edge53" class="edge"><title>Node29&#45;&gt;Node20</title>
<path fill="none" stroke="midnightblue" d="M1201.08,-302.649C1196.06,-288.041 1184.39,-259.844 1165,-244 1052.19,-151.83 990.938,-190.477 851,-150 846.863,-148.803 842.55,-147.503 838.267,-146.179"/>
<polygon fill="midnightblue" stroke="midnightblue" points="839.013,-142.745 828.423,-143.082 836.912,-149.422 839.013,-142.745"/>
</g>
<!-- Node30&#45;&gt;Node9 -->
<g id="edge75" class="edge"><title>Node30&#45;&gt;Node9</title>
<path fill="none" stroke="midnightblue" d="M1581.7,-360.959C1488.19,-338.89 1249.83,-282.63 1166.39,-262.936"/>
<polygon fill="midnightblue" stroke="midnightblue" points="1167.09,-259.506 1156.55,-260.615 1165.48,-266.319 1167.09,-259.506"/>
</g>
<!-- Node30&#45;&gt;Node11 -->
<g id="edge56" class="edge"><title>Node30&#45;&gt;Node11</title>
<path fill="none" stroke="midnightblue" d="M1633.91,-360.967C1674.45,-334.791 1792.28,-259.752 1835,-244 1920.56,-212.454 1955.62,-249.16 2037,-208 2070.38,-191.115 2083.25,-184.379 2098,-150 2106.83,-129.418 2096.82,-104.326 2087.6,-87.7955"/>
<polygon fill="midnightblue" stroke="midnightblue" points="2090.55,-85.9218 2082.4,-79.1505 2084.55,-89.5254 2090.55,-85.9218"/>
</g>
<!-- Node30&#45;&gt;Node13 -->
<g id="edge73" class="edge"><title>Node30&#45;&gt;Node13</title>
<path fill="none" stroke="midnightblue" d="M1610.59,-360.609C1578.6,-329.336 1469.76,-228.314 1358,-186 1260.12,-148.94 1138.42,-137.995 1062.97,-134.932"/>
<polygon fill="midnightblue" stroke="midnightblue" points="1062.76,-131.422 1052.63,-134.55 1062.5,-138.417 1062.76,-131.422"/>
</g>
<!-- Node30&#45;&gt;Node20 -->
<g id="edge74" class="edge"><title>Node30&#45;&gt;Node20</title>
<path fill="none" stroke="midnightblue" d="M1599.2,-360.934C1529.92,-331.103 1300.09,-235.114 1101,-186 992.01,-159.113 960.393,-175.194 851,-150 846.201,-148.895 841.201,-147.543 836.297,-146.099"/>
<polygon fill="midnightblue" stroke="midnightblue" points="837.053,-142.669 826.465,-143.052 834.981,-149.355 837.053,-142.669"/>
</g>
<!-- Node30&#45;&gt;Node31 -->
<g id="edge57" class="edge"><title>Node30&#45;&gt;Node31</title>
<path fill="none" stroke="midnightblue" d="M1625.61,-360.753C1630.37,-352.924 1637.32,-341.476 1643.15,-331.868"/>
<polygon fill="midnightblue" stroke="midnightblue" points="1646.29,-333.44 1648.49,-323.075 1640.31,-329.807 1646.29,-333.44"/>
</g>
<!-- Node31&#45;&gt;Node9 -->
<g id="edge72" class="edge"><title>Node31&#45;&gt;Node9</title>
<path fill="none" stroke="midnightblue" d="M1630.78,-309.485C1546.96,-300.406 1260.01,-269.324 1166.63,-259.209"/>
<polygon fill="midnightblue" stroke="midnightblue" points="1166.79,-255.706 1156.47,-258.109 1166.04,-262.666 1166.79,-255.706"/>
</g>
<!-- Node31&#45;&gt;Node11 -->
<g id="edge58" class="edge"><title>Node31&#45;&gt;Node11</title>
<path fill="none" stroke="midnightblue" d="M1661.32,-302.544C1673.26,-287.794 1698.37,-259.404 1726,-244 1867.81,-164.948 1980.06,-278.729 2079,-150 2092.33,-132.661 2088.14,-106.415 2082.93,-88.7607"/>
<polygon fill="midnightblue" stroke="midnightblue" points="2086.18,-87.4245 2079.7,-79.0353 2079.53,-89.6287 2086.18,-87.4245"/>
</g>
<!-- Node31&#45;&gt;Node32 -->
<g id="edge59" class="edge"><title>Node31&#45;&gt;Node32</title>
<path fill="none" stroke="midnightblue" d="M1677.33,-306.218C1714.08,-297.113 1786.13,-279.259 1833.67,-267.479"/>
<polygon fill="midnightblue" stroke="midnightblue" points="1834.56,-270.865 1843.42,-265.063 1832.88,-264.071 1834.56,-270.865"/>
</g>
<!-- Node32&#45;&gt;Node11 -->
<g id="edge60" class="edge"><title>Node32&#45;&gt;Node11</title>
<path fill="none" stroke="midnightblue" d="M1916.74,-254.256C1965.71,-253.026 2053.55,-245.219 2117,-208 2156.96,-184.56 2190.18,-155.515 2166,-116 2156.43,-100.36 2139.68,-89.8239 2123.2,-82.8307"/>
<polygon fill="midnightblue" stroke="midnightblue" points="2124.18,-79.4557 2113.59,-79.1109 2121.65,-85.984 2124.18,-79.4557"/>
</g>
<!-- Node33 -->
<g id="node33" class="node"><title>Node33</title>
<g id="a_node33"><a xlink:href="Vector_8h.html" target="_top" xlink:title="Represent coordinates. ">
<polygon fill="none" stroke="black" points="1785.93,-187 1785.93,-207 1838.07,-207 1838.07,-187 1785.93,-187"/>
<text text-anchor="middle" x="1812" y="-193" font-family="Helvetica,sans-Serif" font-size="10.00">Vector.h</text>
</a>
</g>
</g>
<!-- Node32&#45;&gt;Node33 -->
<g id="edge61" class="edge"><title>Node32&#45;&gt;Node33</title>
<path fill="none" stroke="midnightblue" d="M1868.77,-244.753C1858.47,-236.272 1843.02,-223.543 1830.83,-213.507"/>
<polygon fill="midnightblue" stroke="midnightblue" points="1832.96,-210.731 1823.02,-207.075 1828.51,-216.134 1832.96,-210.731"/>
</g>
<!-- Node33&#45;&gt;Node11 -->
<g id="edge62" class="edge"><title>Node33&#45;&gt;Node11</title>
<path fill="none" stroke="midnightblue" d="M1838.26,-194.551C1894.66,-190.9 2024.79,-179.427 2056,-150 2072.47,-134.464 2076.23,-107.586 2076.69,-89.3127"/>
<polygon fill="midnightblue" stroke="midnightblue" points="2080.19,-89.2063 2076.63,-79.2251 2073.19,-89.2435 2080.19,-89.2063"/>
</g>
<!-- Node33&#45;&gt;Node13 -->
<g id="edge63" class="edge"><title>Node33&#45;&gt;Node13</title>
<path fill="none" stroke="midnightblue" d="M1785.89,-188.762C1781.29,-187.691 1776.53,-186.711 1772,-186 1737.29,-180.55 1248.34,-149.89 1062.75,-138.373"/>
<polygon fill="midnightblue" stroke="midnightblue" points="1062.75,-134.866 1052.55,-137.741 1062.32,-141.853 1062.75,-134.866"/>
</g>
<!-- Node33&#45;&gt;Node20 -->
<g id="edge64" class="edge"><title>Node33&#45;&gt;Node20</title>
<path fill="none" stroke="midnightblue" d="M1785.74,-195.409C1678.38,-192.83 1262.5,-181.262 922,-150 897.205,-147.724 869.68,-144.166 847.154,-140.983"/>
<polygon fill="midnightblue" stroke="midnightblue" points="847.58,-137.508 837.184,-139.553 846.586,-144.437 847.58,-137.508"/>
</g>
<!-- Node34 -->
<g id="node34" class="node"><title>Node34</title>
<polygon fill="none" stroke="#bfbfbf" points="1806.24,-123 1806.24,-143 1921.76,-143 1921.76,-123 1806.24,-123"/>
<text text-anchor="middle" x="1864" y="-129" font-family="Helvetica,sans-Serif" font-size="10.00">boost/range/begin.hpp</text>
</g>
<!-- Node33&#45;&gt;Node34 -->
<g id="edge65" class="edge"><title>Node33&#45;&gt;Node34</title>
<path fill="none" stroke="midnightblue" d="M1819.67,-186.852C1827.58,-177.419 1840.1,-162.495 1849.82,-150.907"/>
<polygon fill="midnightblue" stroke="midnightblue" points="1852.55,-153.097 1856.3,-143.186 1847.19,-148.599 1852.55,-153.097"/>
</g>
<!-- Node35 -->
<g id="node35" class="node"><title>Node35</title>
<polygon fill="none" stroke="#bfbfbf" points="1940.13,-123 1940.13,-143 2047.87,-143 2047.87,-123 1940.13,-123"/>
<text text-anchor="middle" x="1994" y="-129" font-family="Helvetica,sans-Serif" font-size="10.00">boost/range/end.hpp</text>
</g>
<!-- Node33&#45;&gt;Node35 -->
<g id="edge66" class="edge"><title>Node33&#45;&gt;Node35</title>
<path fill="none" stroke="midnightblue" d="M1838.08,-187.117C1869.52,-176.405 1922.55,-158.341 1957.91,-146.295"/>
<polygon fill="midnightblue" stroke="midnightblue" points="1959.04,-149.606 1967.38,-143.068 1956.79,-142.98 1959.04,-149.606"/>
</g>
<!-- Node36 -->
<g id="node36" class="node"><title>Node36</title>
<polygon fill="none" stroke="#bfbfbf" points="1261.31,-117 1261.31,-149 1360.69,-149 1360.69,-117 1261.31,-117"/>
<text text-anchor="start" x="1269.31" y="-135" font-family="Helvetica,sans-Serif" font-size="10.00">boost/type_traits/is</text>
<text text-anchor="middle" x="1311" y="-123" font-family="Helvetica,sans-Serif" font-size="10.00">_convertible.hpp</text>
</g>
<!-- Node33&#45;&gt;Node36 -->
<g id="edge67" class="edge"><title>Node33&#45;&gt;Node36</title>
<path fill="none" stroke="midnightblue" d="M1785.87,-188.848C1781.28,-187.768 1776.52,-186.762 1772,-186 1597.88,-156.642 1547.75,-181.121 1370.76,-150.134"/>
<polygon fill="midnightblue" stroke="midnightblue" points="1371.31,-146.679 1360.86,-148.367 1370.08,-153.57 1371.31,-146.679"/>
</g>
<!-- Node37 -->
<g id="node37" class="node"><title>Node37</title>
<polygon fill="none" stroke="#bfbfbf" points="1378.25,-123 1378.25,-143 1473.75,-143 1473.75,-123 1378.25,-123"/>
<text text-anchor="middle" x="1426" y="-129" font-family="Helvetica,sans-Serif" font-size="10.00">boost/mpl/not.hpp</text>
</g>
<!-- Node33&#45;&gt;Node37 -->
<g id="edge68" class="edge"><title>Node33&#45;&gt;Node37</title>
<path fill="none" stroke="midnightblue" d="M1785.85,-188.98C1781.26,-187.885 1776.5,-186.84 1772,-186 1644.76,-162.26 1609.89,-175.562 1483,-150 1477.13,-148.817 1470.97,-147.343 1464.97,-145.771"/>
<polygon fill="midnightblue" stroke="midnightblue" points="1465.66,-142.331 1455.09,-143.07 1463.81,-149.083 1465.66,-142.331"/>
</g>
<!-- Node38 -->
<g id="node38" class="node"><title>Node38</title>
<polygon fill="none" stroke="#bfbfbf" points="1491.62,-123 1491.62,-143 1576.38,-143 1576.38,-123 1491.62,-123"/>
<text text-anchor="middle" x="1534" y="-129" font-family="Helvetica,sans-Serif" font-size="10.00">boost/array.hpp</text>
</g>
<!-- Node33&#45;&gt;Node38 -->
<g id="edge69" class="edge"><title>Node33&#45;&gt;Node38</title>
<path fill="none" stroke="midnightblue" d="M1785.8,-189.235C1781.21,-188.112 1776.47,-186.991 1772,-186 1689.79,-167.783 1667.69,-170.411 1586,-150 1581.21,-148.804 1576.21,-147.429 1571.29,-145.999"/>
<polygon fill="midnightblue" stroke="midnightblue" points="1571.96,-142.546 1561.37,-143.025 1569.94,-149.251 1571.96,-142.546"/>
</g>
<!-- Node39 -->
<g id="node39" class="node"><title>Node39</title>
<polygon fill="none" stroke="#bfbfbf" points="1594.58,-123 1594.58,-143 1713.42,-143 1713.42,-123 1594.58,-123"/>
<text text-anchor="middle" x="1654" y="-129" font-family="Helvetica,sans-Serif" font-size="10.00">boost/static_assert.hpp</text>
</g>
<!-- Node33&#45;&gt;Node39 -->
<g id="edge70" class="edge"><title>Node33&#45;&gt;Node39</title>
<path fill="none" stroke="midnightblue" d="M1789.03,-186.985C1762,-176.378 1716.94,-158.696 1686.37,-146.704"/>
<polygon fill="midnightblue" stroke="midnightblue" points="1687.59,-143.421 1677,-143.026 1685.03,-149.937 1687.59,-143.421"/>
</g>
<!-- Node40 -->
<g id="node40" class="node"><title>Node40</title>
<polygon fill="none" stroke="#bfbfbf" points="1731.44,-123 1731.44,-143 1788.56,-143 1788.56,-123 1731.44,-123"/>
<text text-anchor="middle" x="1760" y="-129" font-family="Helvetica,sans-Serif" font-size="10.00">algorithm</text>
</g>
<!-- Node33&#45;&gt;Node40 -->
<g id="edge71" class="edge"><title>Node33&#45;&gt;Node40</title>
<path fill="none" stroke="midnightblue" d="M1804.33,-186.852C1796.42,-177.419 1783.9,-162.495 1774.18,-150.907"/>
<polygon fill="midnightblue" stroke="midnightblue" points="1776.81,-148.599 1767.7,-143.186 1771.45,-153.097 1776.81,-148.599"/>
</g>
<!-- Node42&#45;&gt;Node11 -->
<g id="edge82" class="edge"><title>Node42&#45;&gt;Node11</title>
<path fill="none" stroke="midnightblue" d="M1252.64,-360.784C1249.51,-339.902 1241.32,-287.423 1232,-244 1222.95,-201.842 1213.38,-192.782 1208,-150 1206.12,-135.007 1197.6,-126.964 1208,-116 1236.4,-86.058 1850.14,-73.6979 2028.06,-70.736"/>
<polygon fill="midnightblue" stroke="midnightblue" points="2028.23,-74.2338 2038.17,-70.5701 2028.11,-67.2348 2028.23,-74.2338"/>
</g>
<!-- Node42&#45;&gt;Node29 -->
<g id="edge83" class="edge"><title>Node42&#45;&gt;Node29</title>
<path fill="none" stroke="midnightblue" d="M1245.74,-360.753C1238.46,-352.598 1227.67,-340.516 1218.89,-330.677"/>
<polygon fill="midnightblue" stroke="midnightblue" points="1221.37,-328.204 1212.1,-323.075 1216.15,-332.866 1221.37,-328.204"/>
</g>
<!-- Node43&#45;&gt;Node3 -->
<g id="edge91" class="edge"><title>Node43&#45;&gt;Node3</title>
<path fill="none" stroke="midnightblue" d="M2255.49,-303.551C2188.02,-289.391 2046.14,-260.775 1925,-244 1814.13,-228.647 1030.26,-178.457 922,-150 886.212,-140.592 881.725,-125.645 846,-116 701.004,-76.8529 659.098,-98.0582 510,-80 495.681,-78.2658 479.831,-76.1502 466.486,-74.3122"/>
<polygon fill="midnightblue" stroke="midnightblue" points="466.783,-70.82 456.397,-72.9103 465.82,-77.7534 466.783,-70.82"/>
</g>
<!-- Node43&#45;&gt;Node11 -->
<g id="edge85" class="edge"><title>Node43&#45;&gt;Node11</title>
<path fill="none" stroke="midnightblue" d="M2306.6,-302.903C2343.02,-273.277 2449.65,-177.91 2396,-116 2361.44,-76.1159 2204.97,-70.0061 2124.35,-69.5725"/>
<polygon fill="midnightblue" stroke="midnightblue" points="2123.98,-66.0716 2113.97,-69.5458 2123.96,-73.0716 2123.98,-66.0716"/>
</g>
<!-- Node43&#45;&gt;Node15 -->
<g id="edge92" class="edge"><title>Node43&#45;&gt;Node15</title>
<path fill="none" stroke="midnightblue" d="M2317.68,-302.984C2335.18,-295.18 2359.16,-282.545 2376,-266 2430.94,-212.032 2469.43,-126.727 2484.7,-89.0102"/>
<polygon fill="midnightblue" stroke="midnightblue" points="2488.11,-89.8942 2488.53,-79.3078 2481.6,-87.3206 2488.11,-89.8942"/>
</g>
<!-- Node44 -->
<g id="node44" class="node"><title>Node44</title>
<g id="a_node44"><a xlink:href="Enum_8h.html" target="_top" xlink:title="Declaration of RMF::Enum. ">
<polygon fill="none" stroke="black" points="2255.77,-187 2255.77,-207 2306.23,-207 2306.23,-187 2255.77,-187"/>
<text text-anchor="middle" x="2281" y="-193" font-family="Helvetica,sans-Serif" font-size="10.00">Enum.h</text>
</a>
</g>
</g>
<!-- Node43&#45;&gt;Node44 -->
<g id="edge86" class="edge"><title>Node43&#45;&gt;Node44</title>
<path fill="none" stroke="midnightblue" d="M2293.85,-302.671C2291.57,-284.041 2286.39,-241.898 2283.35,-217.143"/>
<polygon fill="midnightblue" stroke="midnightblue" points="2286.82,-216.638 2282.12,-207.139 2279.87,-217.491 2286.82,-216.638"/>
</g>
<!-- Node44&#45;&gt;Node11 -->
<g id="edge87" class="edge"><title>Node44&#45;&gt;Node11</title>
<path fill="none" stroke="midnightblue" d="M2279.12,-186.796C2275.23,-170.115 2264.69,-134.871 2242,-116 2208.83,-88.4138 2160.33,-77.3108 2124.31,-72.8739"/>
<polygon fill="midnightblue" stroke="midnightblue" points="2124.36,-69.3582 2114.04,-71.7454 2123.59,-76.3163 2124.36,-69.3582"/>
</g>
<!-- Node44&#45;&gt;Node13 -->
<g id="edge88" class="edge"><title>Node44&#45;&gt;Node13</title>
<path fill="none" stroke="midnightblue" d="M2255.54,-195.019C2139.83,-190.531 1652,-171.247 1252,-150 1187.96,-146.599 1115.1,-142.056 1062.83,-138.681"/>
<polygon fill="midnightblue" stroke="midnightblue" points="1062.87,-135.176 1052.66,-138.022 1062.41,-142.161 1062.87,-135.176"/>
</g>
<!-- Node44&#45;&gt;Node20 -->
<g id="edge89" class="edge"><title>Node44&#45;&gt;Node20</title>
<path fill="none" stroke="midnightblue" d="M2255.66,-195.481C2093.16,-192.102 1195.5,-172.657 922,-150 897.186,-147.944 869.659,-144.405 847.137,-141.177"/>
<polygon fill="midnightblue" stroke="midnightblue" points="847.57,-137.703 837.169,-139.722 846.559,-144.63 847.57,-137.703"/>
</g>
<!-- Node45 -->
<g id="node45" class="node"><title>Node45</title>
<polygon fill="none" stroke="#bfbfbf" points="2294.09,-117 2294.09,-149 2387.91,-149 2387.91,-117 2294.09,-117"/>
<text text-anchor="start" x="2302.09" y="-135" font-family="Helvetica,sans-Serif" font-size="10.00">internal/small_set</text>
<text text-anchor="middle" x="2341" y="-123" font-family="Helvetica,sans-Serif" font-size="10.00">_map.h</text>
</g>
<!-- Node44&#45;&gt;Node45 -->
<g id="edge90" class="edge"><title>Node44&#45;&gt;Node45</title>
<path fill="none" stroke="midnightblue" d="M2289.85,-186.852C2297.51,-178.937 2308.91,-167.156 2319.01,-156.724"/>
<polygon fill="midnightblue" stroke="midnightblue" points="2321.62,-159.06 2326.06,-149.44 2316.59,-154.192 2321.62,-159.06"/>
</g>
<!-- Node46&#45;&gt;Node11 -->
<g id="edge94" class="edge"><title>Node46&#45;&gt;Node11</title>
<path fill="none" stroke="midnightblue" d="M1519.37,-360.623C1500.62,-330.246 1437.01,-233.75 1358,-186 1303.38,-152.993 1258.06,-200.466 1219,-150 1209.75,-138.05 1208.61,-126.968 1219,-116 1247,-86.46 1851.64,-73.8335 2028.08,-70.7697"/>
<polygon fill="midnightblue" stroke="midnightblue" points="2028.16,-74.2688 2038.1,-70.5979 2028.04,-67.2698 2028.16,-74.2688"/>
</g>
<!-- Node46&#45;&gt;Node13 -->
<g id="edge97" class="edge"><title>Node46&#45;&gt;Node13</title>
<path fill="none" stroke="midnightblue" d="M1490.26,-360.966C1467.75,-353.783 1438.86,-341.92 1418,-324 1363.18,-276.906 1392.35,-225.764 1332,-186 1309.95,-171.472 1156.07,-152.197 1063.05,-141.669"/>
<polygon fill="midnightblue" stroke="midnightblue" points="1063.19,-138.162 1052.86,-140.523 1062.4,-145.118 1063.19,-138.162"/>
</g>
<!-- Node46&#45;&gt;Node29 -->
<g id="edge95" class="edge"><title>Node46&#45;&gt;Node29</title>
<path fill="none" stroke="midnightblue" d="M1489.98,-361.821C1486.95,-361.18 1483.92,-360.563 1481,-360 1380.7,-340.67 1354.55,-342.02 1254,-324 1250.59,-323.388 1247.04,-322.729 1243.5,-322.052"/>
<polygon fill="midnightblue" stroke="midnightblue" points="1244.06,-318.596 1233.57,-320.119 1242.72,-325.467 1244.06,-318.596"/>
</g>
<!-- Node46&#45;&gt;Node31 -->
<g id="edge96" class="edge"><title>Node46&#45;&gt;Node31</title>
<path fill="none" stroke="midnightblue" d="M1546.01,-360.878C1567.1,-351.725 1599.78,-337.536 1623.68,-327.164"/>
<polygon fill="midnightblue" stroke="midnightblue" points="1625.22,-330.311 1633,-323.118 1622.43,-323.89 1625.22,-330.311"/>
</g>
<!-- Node50&#45;&gt;Node2 -->
<g id="edge114" class="edge"><title>Node50&#45;&gt;Node2</title>
<path fill="none" stroke="midnightblue" d="M1728.76,-495.274C1648.01,-489.405 1469.05,-474.273 1412,-452 1387.65,-442.492 1388.71,-426.531 1364,-418 1208.16,-364.201 784.391,-415.648 623,-382 596.01,-376.373 590.876,-369.514 565,-360 472.756,-326.083 363.513,-287.628 308.474,-268.372"/>
<polygon fill="midnightblue" stroke="midnightblue" points="309.439,-265.002 298.844,-265.006 307.128,-271.61 309.439,-265.002"/>
</g>
<!-- Node50&#45;&gt;Node3 -->
<g id="edge115" class="edge"><title>Node50&#45;&gt;Node3</title>
<path fill="none" stroke="midnightblue" d="M1728.82,-496.783C1639.61,-493.548 1427.82,-482.771 1364,-452 1344.75,-442.719 1349.58,-426.564 1330,-418 1143.16,-336.276 609.097,-437.993 413,-382 362.854,-367.682 235.223,-311.077 209,-266 204.083,-257.548 204.673,-252.768 209,-244 250.596,-159.707 354.797,-104.934 406.271,-82.114"/>
<polygon fill="midnightblue" stroke="midnightblue" points="407.751,-85.2873 415.536,-78.1007 404.969,-78.8641 407.751,-85.2873"/>
</g>
<!-- Node50&#45;&gt;Node4 -->
<g id="edge116" class="edge"><title>Node50&#45;&gt;Node4</title>
<path fill="none" stroke="midnightblue" d="M1809.32,-496.946C1920.99,-493.671 2232.52,-482.029 2330,-452 2490.16,-402.662 2573.65,-410.808 2658,-266 2691.45,-208.585 2665.89,-125.078 2651.76,-88.4187"/>
<polygon fill="midnightblue" stroke="midnightblue" points="2654.95,-86.9755 2647.97,-79.002 2648.46,-89.5859 2654.95,-86.9755"/>
</g>
<!-- Node50&#45;&gt;Node11 -->
<g id="edge120" class="edge"><title>Node50&#45;&gt;Node11</title>
<path fill="none" stroke="midnightblue" d="M1809.24,-496.832C1926.33,-493.115 2261.06,-480.116 2301,-452 2365.59,-406.531 2468.99,-175.472 2417,-116 2379.54,-73.1488 2208.92,-68.6034 2124.12,-69.0801"/>
<polygon fill="midnightblue" stroke="midnightblue" points="2123.95,-65.5814 2113.98,-69.1636 2124,-72.5811 2123.95,-65.5814"/>
</g>
<!-- Node50&#45;&gt;Node13 -->
<g id="edge123" class="edge"><title>Node50&#45;&gt;Node13</title>
<path fill="none" stroke="midnightblue" d="M1809.23,-495.362C1888.55,-489.727 2062.18,-475.11 2117,-452 2169.42,-429.901 2241.75,-404.255 2206,-360 2191.56,-342.119 1419.66,-189.884 1397,-186 1280.41,-166.014 1143.74,-149.99 1062.71,-141.254"/>
<polygon fill="midnightblue" stroke="midnightblue" points="1062.93,-137.758 1052.62,-140.173 1062.19,-144.718 1062.93,-137.758"/>
</g>
<!-- Node50&#45;&gt;Node20 -->
<g id="edge122" class="edge"><title>Node50&#45;&gt;Node20</title>
<path fill="none" stroke="midnightblue" d="M1728.8,-495.313C1652.68,-489.748 1490.62,-475.484 1440,-452 1419.44,-442.462 1422.87,-426.823 1402,-418 1296.53,-373.42 979.038,-451.447 888,-382 850.146,-353.124 816.194,-206.524 804.938,-153.322"/>
<polygon fill="midnightblue" stroke="midnightblue" points="808.296,-152.282 802.834,-143.203 801.443,-153.706 808.296,-152.282"/>
</g>
<!-- Node50&#45;&gt;Node27 -->
<g id="edge118" class="edge"><title>Node50&#45;&gt;Node27</title>
<path fill="none" stroke="midnightblue" d="M1736.43,-488.985C1697.03,-478.079 1630.61,-459.696 1587.29,-447.705"/>
<polygon fill="midnightblue" stroke="midnightblue" points="1588.18,-444.321 1577.61,-445.026 1586.31,-451.067 1588.18,-444.321"/>
</g>
<!-- Node50&#45;&gt;Node29 -->
<g id="edge117" class="edge"><title>Node50&#45;&gt;Node29</title>
<path fill="none" stroke="midnightblue" d="M1728.83,-497.84C1671.8,-496.242 1565.18,-488.133 1483,-452 1460.7,-442.193 1462.36,-427.682 1440,-418 1390.31,-396.482 1234.35,-423.021 1199,-382 1187.45,-368.594 1191.09,-347.655 1196.13,-332.554"/>
<polygon fill="midnightblue" stroke="midnightblue" points="1199.4,-333.787 1199.66,-323.196 1192.85,-331.313 1199.4,-333.787"/>
</g>
<!-- Node50&#45;&gt;Node30 -->
<g id="edge119" class="edge"><title>Node50&#45;&gt;Node30</title>
<path fill="none" stroke="midnightblue" d="M1758.28,-488.938C1733.17,-467.701 1670.26,-414.498 1638.68,-387.8"/>
<polygon fill="midnightblue" stroke="midnightblue" points="1640.92,-385.104 1631.02,-381.319 1636.4,-390.449 1640.92,-385.104"/>
</g>
<!-- Node50&#45;&gt;Node32 -->
<g id="edge126" class="edge"><title>Node50&#45;&gt;Node32</title>
<path fill="none" stroke="midnightblue" d="M1809.05,-497.103C1917.6,-494.259 2211.26,-483.682 2240,-452 2267.47,-421.715 2264.58,-392.68 2240,-360 2220.8,-334.472 2019.2,-286.907 1926.35,-266.139"/>
<polygon fill="midnightblue" stroke="midnightblue" points="1926.9,-262.676 1916.38,-263.919 1925.38,-269.509 1926.9,-262.676"/>
</g>
<!-- Node50&#45;&gt;Node41 -->
<g id="edge124" class="edge"><title>Node50&#45;&gt;Node41</title>
<path fill="none" stroke="midnightblue" d="M1809.19,-496.85C1885.11,-493.945 2045.98,-484.08 2090,-452 2110.04,-437.394 2120.28,-409.657 2125.13,-390.995"/>
<polygon fill="midnightblue" stroke="midnightblue" points="2128.55,-391.756 2127.4,-381.224 2121.73,-390.174 2128.55,-391.756"/>
</g>
<!-- Node50&#45;&gt;Node43 -->
<g id="edge121" class="edge"><title>Node50&#45;&gt;Node43</title>
<path fill="none" stroke="midnightblue" d="M1809.16,-497.216C1923.46,-494.598 2244.53,-484.4 2278,-452 2309.99,-421.033 2304.71,-363.056 2299.26,-333.063"/>
<polygon fill="midnightblue" stroke="midnightblue" points="2302.65,-332.162 2297.24,-323.052 2295.78,-333.547 2302.65,-332.162"/>
</g>
<!-- Node50&#45;&gt;Node48 -->
<g id="edge125" class="edge"><title>Node50&#45;&gt;Node48</title>
<path fill="none" stroke="midnightblue" d="M1728.79,-495.292C1652.06,-489.778 1479.58,-475.722 1336,-452 1327.93,-450.667 1319.41,-448.987 1311.18,-447.218"/>
<polygon fill="midnightblue" stroke="midnightblue" points="1311.85,-443.782 1301.33,-445.036 1310.33,-450.616 1311.85,-443.782"/>
</g>
</g>
</svg>
