<?xml version="1.0" encoding="UTF-8" standalone="no"?>
<!DOCTYPE svg PUBLIC "-//W3C//DTD SVG 1.1//EN"
 "http://www.w3.org/Graphics/SVG/1.1/DTD/svg11.dtd">
<!-- Generated by graphviz version 2.36.0 (20140111.2315)
 -->
<!-- Title: FileConstHandle.h Pages: 1 -->
<svg width="1119pt" height="252pt"
 viewBox="0.00 0.00 1119.00 252.00" xmlns="http://www.w3.org/2000/svg" xmlns:xlink="http://www.w3.org/1999/xlink">
<g id="graph0" class="graph" transform="scale(1 1) rotate(0) translate(4 248)">
<title>FileConstHandle.h</title>
<!-- Node1 -->
<g id="node1" class="node"><title>Node1</title>
<polygon fill="#bfbfbf" stroke="black" points="697.867,-225 697.867,-243 796.133,-243 796.133,-225 697.867,-225"/>
<text text-anchor="middle" x="747" y="-231" font-family="Helvetica,sans-Serif" font-size="10.00">FileConstHandle.h</text>
</g>
<!-- Node2 -->
<g id="node2" class="node"><title>Node2</title>
<g id="a_node2"><a xlink:href="FileHandle_8h.html" target="_top" xlink:title="Declaration for RMF::FileHandle. ">
<polygon fill="none" stroke="black" points="374.929,-169 374.929,-187 447.071,-187 447.071,-169 374.929,-169"/>
<text text-anchor="middle" x="411" y="-175" font-family="Helvetica,sans-Serif" font-size="10.00">FileHandle.h</text>
</a>
</g>
</g>
<!-- Node1&#45;&gt;Node2 -->
<g id="edge1" class="edge"><title>Node1&#45;&gt;Node2</title>
<path fill="none" stroke="midnightblue" d="M687.856,-223.495C618.344,-212.323 505.17,-194.134 447.413,-184.852"/>
<polygon fill="midnightblue" stroke="midnightblue" points="687.354,-226.959 697.783,-225.09 688.465,-220.048 687.354,-226.959"/>
</g>
<!-- Node7 -->
<g id="node7" class="node"><title>Node7</title>
<g id="a_node7"><a xlink:href="benchmark__rmf_8cpp_source.html" target="_top" xlink:title="benchmark_rmf.cpp">
<polygon fill="none" stroke="black" points="568.815,-1 568.815,-19 673.185,-19 673.185,-1 568.815,-1"/>
<text text-anchor="middle" x="621" y="-7" font-family="Helvetica,sans-Serif" font-size="10.00">benchmark_rmf.cpp</text>
</a>
</g>
</g>
<!-- Node1&#45;&gt;Node7 -->
<g id="edge36" class="edge"><title>Node1&#45;&gt;Node7</title>
<path fill="none" stroke="midnightblue" d="M735.701,-216.42C730.146,-208.035 723.484,-197.622 718,-188 699.299,-155.191 697.593,-145.416 680,-112 666.747,-86.8277 663.408,-80.5294 649,-56 641.357,-42.9883 632.016,-28.1798 626.288,-19.2167"/>
<polygon fill="midnightblue" stroke="midnightblue" points="732.898,-218.524 741.38,-224.873 738.708,-214.62 732.898,-218.524"/>
</g>
<!-- Node16 -->
<g id="node16" class="node"><title>Node16</title>
<g id="a_node16"><a xlink:href="validate_8h.html" target="_top" xlink:title="Support for validating the data in a file. ">
<polygon fill="none" stroke="black" points="612.596,-113 612.596,-131 671.404,-131 671.404,-113 612.596,-113"/>
<text text-anchor="middle" x="642" y="-119" font-family="Helvetica,sans-Serif" font-size="10.00">validate.h</text>
</a>
</g>
</g>
<!-- Node1&#45;&gt;Node16 -->
<g id="edge35" class="edge"><title>Node1&#45;&gt;Node16</title>
<path fill="none" stroke="midnightblue" d="M724.577,-219.557C712.066,-211.395 696.695,-200.214 685,-188 667.782,-170.018 653.101,-144.306 646.205,-131.265"/>
<polygon fill="midnightblue" stroke="midnightblue" points="722.766,-222.553 733.088,-224.938 726.506,-216.636 722.766,-222.553"/>
</g>
<!-- Node17 -->
<g id="node17" class="node"><title>Node17</title>
<g id="a_node17"><a xlink:href="info_8h.html" target="_top" xlink:title="Show info about the file. ">
<polygon fill="none" stroke="black" points="726.769,-169 726.769,-187 767.231,-187 767.231,-169 726.769,-169"/>
<text text-anchor="middle" x="747" y="-175" font-family="Helvetica,sans-Serif" font-size="10.00">info.h</text>
</a>
</g>
</g>
<!-- Node1&#45;&gt;Node17 -->
<g id="edge31" class="edge"><title>Node1&#45;&gt;Node17</title>
<path fill="none" stroke="midnightblue" d="M747,-214.329C747,-205.077 747,-194.38 747,-187.201"/>
<polygon fill="midnightblue" stroke="midnightblue" points="743.5,-214.562 747,-224.562 750.5,-214.563 743.5,-214.562"/>
</g>
<!-- Node18 -->
<g id="node18" class="node"><title>Node18</title>
<g id="a_node18"><a xlink:href="RestoreCurrentFrame_8h.html" target="_top" xlink:title="Restore the current frame when exiting a scope. ">
<polygon fill="none" stroke="black" points="785.205,-169 785.205,-187 906.795,-187 906.795,-169 785.205,-169"/>
<text text-anchor="middle" x="846" y="-175" font-family="Helvetica,sans-Serif" font-size="10.00">RestoreCurrentFrame.h</text>
</a>
</g>
</g>
<!-- Node1&#45;&gt;Node18 -->
<g id="edge32" class="edge"><title>Node1&#45;&gt;Node18</title>
<path fill="none" stroke="midnightblue" d="M770.89,-219.969C789.659,-209.731 815.209,-195.795 831.147,-187.102"/>
<polygon fill="midnightblue" stroke="midnightblue" points="769.139,-216.937 762.036,-224.799 772.491,-223.083 769.139,-216.937"/>
</g>
<!-- Node19 -->
<g id="node19" class="node"><title>Node19</title>
<g id="a_node19"><a xlink:href="SetCurrentFrame_8h.html" target="_top" xlink:title="Temporarily change the current frame. ">
<polygon fill="none" stroke="black" points="925.207,-169 925.207,-187 1026.79,-187 1026.79,-169 925.207,-169"/>
<text text-anchor="middle" x="976" y="-175" font-family="Helvetica,sans-Serif" font-size="10.00">SetCurrentFrame.h</text>
</a>
</g>
</g>
<!-- Node1&#45;&gt;Node19 -->
<g id="edge33" class="edge"><title>Node1&#45;&gt;Node19</title>
<path fill="none" stroke="midnightblue" d="M791.129,-222.594C835.121,-212.22 901.751,-196.508 941.857,-187.051"/>
<polygon fill="midnightblue" stroke="midnightblue" points="790.213,-219.214 781.284,-224.916 791.82,-226.027 790.213,-219.214"/>
</g>
<!-- Node20 -->
<g id="node20" class="node"><title>Node20</title>
<g id="a_node20"><a xlink:href="signature_8h.html" target="_top" xlink:title="Return a (long) string describing a file that can be compared. ">
<polygon fill="none" stroke="black" points="1045.26,-169 1045.26,-187 1110.74,-187 1110.74,-169 1045.26,-169"/>
<text text-anchor="middle" x="1078" y="-175" font-family="Helvetica,sans-Serif" font-size="10.00">signature.h</text>
</a>
</g>
</g>
<!-- Node1&#45;&gt;Node20 -->
<g id="edge34" class="edge"><title>Node1&#45;&gt;Node20</title>
<path fill="none" stroke="midnightblue" d="M806.446,-224.621C864.786,-216.184 956.219,-202.389 1035,-188 1038.3,-187.397 1041.74,-186.735 1045.17,-186.053"/>
<polygon fill="midnightblue" stroke="midnightblue" points="805.705,-221.192 796.306,-226.082 806.703,-228.12 805.705,-221.192"/>
</g>
<!-- Node3 -->
<g id="node3" class="node"><title>Node3</title>
<g id="a_node3"><a xlink:href="alias_8h.html" target="_top" xlink:title="Helper functions for manipulating RMF files. ">
<polygon fill="none" stroke="black" points="338.547,-113 338.547,-131 383.453,-131 383.453,-113 338.547,-113"/>
<text text-anchor="middle" x="361" y="-119" font-family="Helvetica,sans-Serif" font-size="10.00">alias.h</text>
</a>
</g>
</g>
<!-- Node2&#45;&gt;Node3 -->
<g id="edge2" class="edge"><title>Node2&#45;&gt;Node3</title>
<path fill="none" stroke="midnightblue" d="M396.21,-161.027C387.137,-151.228 375.898,-139.09 368.594,-131.201"/>
<polygon fill="midnightblue" stroke="midnightblue" points="393.825,-163.603 403.188,-168.562 398.962,-158.847 393.825,-163.603"/>
</g>
<!-- Node5 -->
<g id="node5" class="node"><title>Node5</title>
<g id="a_node5"><a xlink:href="physics_8h.html" target="_top" xlink:title="Helper functions for manipulating RMF files. ">
<polygon fill="none" stroke="black" points="480.158,-57 480.158,-75 537.842,-75 537.842,-57 480.158,-57"/>
<text text-anchor="middle" x="509" y="-63" font-family="Helvetica,sans-Serif" font-size="10.00">physics.h</text>
</a>
</g>
</g>
<!-- Node2&#45;&gt;Node5 -->
<g id="edge12" class="edge"><title>Node2&#45;&gt;Node5</title>
<path fill="none" stroke="midnightblue" d="M425.037,-161.245C446.237,-137.449 485.661,-93.1964 501.815,-75.0649"/>
<polygon fill="midnightblue" stroke="midnightblue" points="422.405,-158.937 418.366,-168.732 427.631,-163.594 422.405,-158.937"/>
</g>
<!-- Node2&#45;&gt;Node7 -->
<g id="edge30" class="edge"><title>Node2&#45;&gt;Node7</title>
<path fill="none" stroke="midnightblue" d="M457.291,-170.79C510.106,-160.942 594.054,-136.231 632,-76 643.225,-58.1821 632.632,-32.3984 625.785,-19.3044"/>
<polygon fill="midnightblue" stroke="midnightblue" points="456.411,-167.391 447.166,-172.567 457.621,-174.285 456.411,-167.391"/>
</g>
<!-- Node8 -->
<g id="node8" class="node"><title>Node8</title>
<g id="a_node8"><a xlink:href="external_8h.html" target="_top" xlink:title="Helper functions for manipulating RMF files. ">
<polygon fill="none" stroke="black" points="162.042,-57 162.042,-75 221.958,-75 221.958,-57 162.042,-57"/>
<text text-anchor="middle" x="192" y="-63" font-family="Helvetica,sans-Serif" font-size="10.00">external.h</text>
</a>
</g>
</g>
<!-- Node2&#45;&gt;Node8 -->
<g id="edge8" class="edge"><title>Node2&#45;&gt;Node8</title>
<path fill="none" stroke="midnightblue" d="M364.836,-173.473C328.028,-168.758 276.598,-157.74 239,-132 217.397,-117.211 202.176,-89.0882 195.614,-75.1916"/>
<polygon fill="midnightblue" stroke="midnightblue" points="364.466,-176.954 374.806,-174.643 365.282,-170.001 364.466,-176.954"/>
</g>
<!-- Node9 -->
<g id="node9" class="node"><title>Node9</title>
<g id="a_node9"><a xlink:href="feature_8h.html" target="_top" xlink:title="Helper functions for manipulating RMF files. ">
<polygon fill="none" stroke="black" points="50.2637,-57 50.2637,-75 105.736,-75 105.736,-57 50.2637,-57"/>
<text text-anchor="middle" x="78" y="-63" font-family="Helvetica,sans-Serif" font-size="10.00">feature.h</text>
</a>
</g>
</g>
<!-- Node2&#45;&gt;Node9 -->
<g id="edge10" class="edge"><title>Node2&#45;&gt;Node9</title>
<path fill="none" stroke="midnightblue" d="M364.851,-176.515C286.942,-174.732 133.988,-166.767 95,-132 78.6332,-117.405 77.1369,-89.1917 77.4968,-75.2329"/>
<polygon fill="midnightblue" stroke="midnightblue" points="364.805,-180.015 374.874,-176.72 364.948,-173.016 364.805,-180.015"/>
</g>
<!-- Node10 -->
<g id="node10" class="node"><title>Node10</title>
<g id="a_node10"><a xlink:href="publication_8h.html" target="_top" xlink:title="Helper functions for manipulating RMF files. ">
<polygon fill="none" stroke="black" points="247.924,-113 247.924,-131 320.076,-131 320.076,-113 247.924,-113"/>
<text text-anchor="middle" x="284" y="-119" font-family="Helvetica,sans-Serif" font-size="10.00">publication.h</text>
</a>
</g>
</g>
<!-- Node2&#45;&gt;Node10 -->
<g id="edge13" class="edge"><title>Node2&#45;&gt;Node10</title>
<path fill="none" stroke="midnightblue" d="M382.603,-164.926C358.387,-154.629 324.24,-140.11 303.143,-131.14"/>
<polygon fill="midnightblue" stroke="midnightblue" points="381.415,-168.224 391.987,-168.916 384.154,-161.782 381.415,-168.224"/>
</g>
<!-- Node11 -->
<g id="node11" class="node"><title>Node11</title>
<g id="a_node11"><a xlink:href="sequence_8h.html" target="_top" xlink:title="Helper functions for manipulating RMF files. ">
<polygon fill="none" stroke="black" points="556.146,-57 556.146,-75 623.854,-75 623.854,-57 556.146,-57"/>
<text text-anchor="middle" x="590" y="-63" font-family="Helvetica,sans-Serif" font-size="10.00">sequence.h</text>
</a>
</g>
</g>
<!-- Node2&#45;&gt;Node11 -->
<g id="edge15" class="edge"><title>Node2&#45;&gt;Node11</title>
<path fill="none" stroke="midnightblue" d="M432.846,-163.575C470.444,-140.47 546.283,-93.8653 576.818,-75.1004"/>
<polygon fill="midnightblue" stroke="midnightblue" points="430.85,-160.694 424.162,-168.911 434.515,-166.658 430.85,-160.694"/>
</g>
<!-- Node12 -->
<g id="node12" class="node"><title>Node12</title>
<g id="a_node12"><a xlink:href="shape_8h.html" target="_top" xlink:title="Helper functions for manipulating RMF files. ">
<polygon fill="none" stroke="black" points="316.207,-57 316.207,-75 367.793,-75 367.793,-57 316.207,-57"/>
<text text-anchor="middle" x="342" y="-63" font-family="Helvetica,sans-Serif" font-size="10.00">shape.h</text>
</a>
</g>
</g>
<!-- Node2&#45;&gt;Node12 -->
<g id="edge19" class="edge"><title>Node2&#45;&gt;Node12</title>
<path fill="none" stroke="midnightblue" d="M408.432,-158.721C405.878,-145.043 400.994,-126.308 392,-112 382.304,-96.5758 365.858,-83.2396 354.489,-75.1743"/>
<polygon fill="midnightblue" stroke="midnightblue" points="405.013,-159.503 410.069,-168.814 411.923,-158.382 405.013,-159.503"/>
</g>
<!-- Node13 -->
<g id="node13" class="node"><title>Node13</title>
<g id="a_node13"><a xlink:href="bond_8h.html" target="_top" xlink:title="Helper functions for manipulating RMF files. ">
<polygon fill="none" stroke="black" points="-0.292969,-113 -0.292969,-131 46.293,-131 46.293,-113 -0.292969,-113"/>
<text text-anchor="middle" x="23" y="-119" font-family="Helvetica,sans-Serif" font-size="10.00">bond.h</text>
</a>
</g>
</g>
<!-- Node2&#45;&gt;Node13 -->
<g id="edge22" class="edge"><title>Node2&#45;&gt;Node13</title>
<path fill="none" stroke="midnightblue" d="M364.671,-172.496C297.614,-165.644 169.735,-151.328 62,-132 56.9387,-131.092 51.5447,-129.957 46.4333,-128.802"/>
<polygon fill="midnightblue" stroke="midnightblue" points="364.597,-176.006 374.899,-173.531 365.302,-169.041 364.597,-176.006"/>
</g>
<!-- Node14 -->
<g id="node14" class="node"><title>Node14</title>
<g id="a_node14"><a xlink:href="representation_8h.html" target="_top" xlink:title="Helper functions for manipulating RMF files. ">
<polygon fill="none" stroke="black" points="103.865,-113 103.865,-131 192.135,-131 192.135,-113 103.865,-113"/>
<text text-anchor="middle" x="148" y="-119" font-family="Helvetica,sans-Serif" font-size="10.00">representation.h</text>
</a>
</g>
</g>
<!-- Node2&#45;&gt;Node14 -->
<g id="edge24" class="edge"><title>Node2&#45;&gt;Node14</title>
<path fill="none" stroke="midnightblue" d="M364.741,-167.502C314.406,-157.167 234.79,-140.82 187.349,-131.079"/>
<polygon fill="midnightblue" stroke="midnightblue" points="364.207,-170.965 374.707,-169.548 365.615,-164.108 364.207,-170.965"/>
</g>
<!-- Node15 -->
<g id="node15" class="node"><title>Node15</title>
<g id="a_node15"><a xlink:href="alternatives_8h.html" target="_top" xlink:title="Helper functions for manipulating RMF files. ">
<polygon fill="none" stroke="black" points="386.261,-57 386.261,-75 461.739,-75 461.739,-57 386.261,-57"/>
<text text-anchor="middle" x="424" y="-63" font-family="Helvetica,sans-Serif" font-size="10.00">alternatives.h</text>
</a>
</g>
</g>
<!-- Node2&#45;&gt;Node15 -->
<g id="edge26" class="edge"><title>Node2&#45;&gt;Node15</title>
<path fill="none" stroke="midnightblue" d="M417.848,-159.342C420.668,-151.159 423.598,-141.224 425,-132 428.086,-111.693 426.279,-87.4066 424.976,-75.0632"/>
<polygon fill="midnightblue" stroke="midnightblue" points="414.506,-158.288 414.344,-168.882 421.077,-160.702 414.506,-158.288"/>
</g>
<!-- Node2&#45;&gt;Node16 -->
<g id="edge29" class="edge"><title>Node2&#45;&gt;Node16</title>
<path fill="none" stroke="midnightblue" d="M455.352,-166.632C501.489,-155.847 572.438,-139.261 612.255,-129.953"/>
<polygon fill="midnightblue" stroke="midnightblue" points="454.274,-163.289 445.334,-168.974 455.868,-170.106 454.274,-163.289"/>
</g>
<!-- Node4 -->
<g id="node4" class="node"><title>Node4</title>
<g id="a_node4"><a xlink:href="decorators_8h.html" target="_top" xlink:title="Import all the decorators headers. ">
<polygon fill="none" stroke="black" points="233.207,-1 233.207,-19 304.793,-19 304.793,-1 233.207,-1"/>
<text text-anchor="middle" x="269" y="-7" font-family="Helvetica,sans-Serif" font-size="10.00">decorators.h</text>
</a>
</g>
</g>
<!-- Node3&#45;&gt;Node4 -->
<g id="edge3" class="edge"><title>Node3&#45;&gt;Node4</title>
<path fill="none" stroke="midnightblue" d="M340.709,-106.79C329.894,-98.5861 316.831,-87.6116 307,-76 291.459,-57.6436 278.627,-32.0954 272.639,-19.1766"/>
<polygon fill="midnightblue" stroke="midnightblue" points="338.666,-109.632 348.796,-112.735 342.812,-103.992 338.666,-109.632"/>
</g>
<!-- Node3&#45;&gt;Node5 -->
<g id="edge4" class="edge"><title>Node3&#45;&gt;Node5</title>
<path fill="none" stroke="midnightblue" d="M392.598,-109.471C420.893,-99.1473 461.669,-84.2693 486.691,-75.1396"/>
<polygon fill="midnightblue" stroke="midnightblue" points="391.352,-106.2 383.157,-112.916 393.751,-112.776 391.352,-106.2"/>
</g>
<!-- Node5&#45;&gt;Node4 -->
<g id="edge5" class="edge"><title>Node5&#45;&gt;Node4</title>
<path fill="none" stroke="midnightblue" d="M470.305,-56.0694C470.203,-56.0462 470.102,-56.0231 470,-56 412.29,-42.8812 345.191,-27.9172 304.962,-18.9767"/>
<polygon fill="midnightblue" stroke="midnightblue" points="469.512,-59.4783 480.04,-58.2948 471.072,-52.6543 469.512,-59.4783"/>
</g>
<!-- Node6 -->
<g id="node6" class="node"><title>Node6</title>
<g id="a_node6"><a xlink:href="TraverseHelper_8h.html" target="_top" xlink:title="A helper function for managing data when traversing an RMF. ">
<polygon fill="none" stroke="black" points="417.831,-1 417.831,-19 510.169,-19 510.169,-1 417.831,-1"/>
<text text-anchor="middle" x="464" y="-7" font-family="Helvetica,sans-Serif" font-size="10.00">TraverseHelper.h</text>
</a>
</g>
</g>
<!-- Node5&#45;&gt;Node6 -->
<g id="edge6" class="edge"><title>Node5&#45;&gt;Node6</title>
<path fill="none" stroke="midnightblue" d="M495.443,-48.7319C487.321,-38.9855 477.342,-27.0108 470.835,-19.2014"/>
<polygon fill="midnightblue" stroke="midnightblue" points="492.878,-51.1209 501.969,-56.5625 498.256,-46.6396 492.878,-51.1209"/>
</g>
<!-- Node5&#45;&gt;Node7 -->
<g id="edge7" class="edge"><title>Node5&#45;&gt;Node7</title>
<path fill="none" stroke="midnightblue" d="M535.158,-52.3879C556.467,-42.114 585.919,-27.914 604.197,-19.1017"/>
<polygon fill="midnightblue" stroke="midnightblue" points="533.498,-49.3028 526.01,-56.7986 536.538,-55.6082 533.498,-49.3028"/>
</g>
<!-- Node8&#45;&gt;Node4 -->
<g id="edge9" class="edge"><title>Node8&#45;&gt;Node4</title>
<path fill="none" stroke="midnightblue" d="M211.996,-50.9765C226.442,-40.8457 245.448,-27.5171 257.448,-19.1017"/>
<polygon fill="midnightblue" stroke="midnightblue" points="209.872,-48.1912 203.695,-56.7986 213.892,-53.9223 209.872,-48.1912"/>
</g>
<!-- Node9&#45;&gt;Node4 -->
<g id="edge11" class="edge"><title>Node9&#45;&gt;Node4</title>
<path fill="none" stroke="midnightblue" d="M115.609,-54.3672C152.322,-43.9875 207.367,-28.4249 240.57,-19.0379"/>
<polygon fill="midnightblue" stroke="midnightblue" points="114.444,-51.0593 105.773,-57.1479 116.348,-57.7953 114.444,-51.0593"/>
</g>
<!-- Node10&#45;&gt;Node4 -->
<g id="edge14" class="edge"><title>Node10&#45;&gt;Node4</title>
<path fill="none" stroke="midnightblue" d="M279.358,-102.882C277.426,-94.7176 275.328,-84.9252 274,-76 270.968,-55.6255 269.72,-31.3679 269.252,-19.0464"/>
<polygon fill="midnightblue" stroke="midnightblue" points="276.005,-103.904 281.802,-112.772 282.801,-102.224 276.005,-103.904"/>
</g>
<!-- Node11&#45;&gt;Node4 -->
<g id="edge16" class="edge"><title>Node11&#45;&gt;Node4</title>
<path fill="none" stroke="midnightblue" d="M546.302,-56.0555C546.201,-56.037 546.101,-56.0185 546,-56 459.742,-40.1784 357.84,-24.3586 304.938,-16.36"/>
<polygon fill="midnightblue" stroke="midnightblue" points="545.439,-59.4539 555.917,-57.8858 546.748,-52.5774 545.439,-59.4539"/>
</g>
<!-- Node11&#45;&gt;Node6 -->
<g id="edge17" class="edge"><title>Node11&#45;&gt;Node6</title>
<path fill="none" stroke="midnightblue" d="M561.827,-52.9258C537.802,-42.6293 503.923,-28.1098 482.992,-19.1396"/>
<polygon fill="midnightblue" stroke="midnightblue" points="560.566,-56.1934 571.137,-56.9157 563.324,-49.7594 560.566,-56.1934"/>
</g>
<!-- Node11&#45;&gt;Node7 -->
<g id="edge18" class="edge"><title>Node11&#45;&gt;Node7</title>
<path fill="none" stroke="midnightblue" d="M599.851,-47.8399C605.349,-38.2636 611.944,-26.7742 616.292,-19.2014"/>
<polygon fill="midnightblue" stroke="midnightblue" points="596.787,-46.1474 594.844,-56.5625 602.858,-49.6325 596.787,-46.1474"/>
</g>
<!-- Node12&#45;&gt;Node4 -->
<g id="edge20" class="edge"><title>Node12&#45;&gt;Node4</title>
<path fill="none" stroke="midnightblue" d="M322.705,-50.7272C309.149,-40.6991 291.486,-27.6336 280.191,-19.2786"/>
<polygon fill="midnightblue" stroke="midnightblue" points="320.792,-53.6653 330.913,-56.7986 324.955,-48.0377 320.792,-53.6653"/>
</g>
<!-- Node12&#45;&gt;Node6 -->
<g id="edge21" class="edge"><title>Node12&#45;&gt;Node6</title>
<path fill="none" stroke="midnightblue" d="M369.589,-52.7883C392.833,-42.5003 425.435,-28.07 445.611,-19.1396"/>
<polygon fill="midnightblue" stroke="midnightblue" points="367.992,-49.6676 360.265,-56.9157 370.826,-56.0686 367.992,-49.6676"/>
</g>
<!-- Node13&#45;&gt;Node4 -->
<g id="edge23" class="edge"><title>Node13&#45;&gt;Node4</title>
<path fill="none" stroke="midnightblue" d="M23.1154,-102.449C24.244,-87.7602 28.2639,-67.8116 41,-56 68.4383,-30.5534 175.826,-18.3569 232.892,-13.5691"/>
<polygon fill="midnightblue" stroke="midnightblue" points="19.6026,-102.72 22.7188,-112.846 26.5975,-102.987 19.6026,-102.72"/>
</g>
<!-- Node14&#45;&gt;Node4 -->
<g id="edge25" class="edge"><title>Node14&#45;&gt;Node4</title>
<path fill="none" stroke="midnightblue" d="M144.545,-102.88C142.905,-88.7448 143.097,-69.336 153,-56 171.674,-30.8537 206.408,-19.7568 233.019,-14.8612"/>
<polygon fill="midnightblue" stroke="midnightblue" points="141.103,-103.527 146.102,-112.869 148.02,-102.449 141.103,-103.527"/>
</g>
<!-- Node15&#45;&gt;Node4 -->
<g id="edge27" class="edge"><title>Node15&#45;&gt;Node4</title>
<path fill="none" stroke="midnightblue" d="M391.266,-53.5958C361.524,-43.2343 318.399,-28.2098 292.11,-19.0513"/>
<polygon fill="midnightblue" stroke="midnightblue" points="390.2,-56.9308 400.795,-56.9157 392.503,-50.3205 390.2,-56.9308"/>
</g>
<!-- Node15&#45;&gt;Node6 -->
<g id="edge28" class="edge"><title>Node15&#45;&gt;Node6</title>
<path fill="none" stroke="midnightblue" d="M436.27,-48.4358C443.449,-38.744 452.199,-26.9319 457.925,-19.2014"/>
<polygon fill="midnightblue" stroke="midnightblue" points="433.39,-46.4436 430.25,-56.5625 439.015,-50.6102 433.39,-46.4436"/>
</g>
</g>
</svg>
