<?xml version="1.0" encoding="UTF-8" standalone="no"?>
<!DOCTYPE svg PUBLIC "-//W3C//DTD SVG 1.1//EN"
 "http://www.w3.org/Graphics/SVG/1.1/DTD/svg11.dtd">
<!-- Generated by graphviz version 2.36.0 (20140111.2315)
 -->
<!-- Title: FileHandle.h Pages: 1 -->
<svg width="2190pt" height="542pt"
 viewBox="0.00 0.00 2190.00 542.00" xmlns="http://www.w3.org/2000/svg" xmlns:xlink="http://www.w3.org/1999/xlink">
<g id="graph0" class="graph" transform="scale(1 1) rotate(0) translate(4 538)">
<title>FileHandle.h</title>
<!-- Node1 -->
<g id="node1" class="node"><title>Node1</title>
<polygon fill="#bfbfbf" stroke="black" points="1860.93,-515 1860.93,-533 1933.07,-533 1933.07,-515 1860.93,-515"/>
<text text-anchor="middle" x="1897" y="-521" font-family="Helvetica,sans-Serif" font-size="10.00">FileHandle.h</text>
</g>
<!-- Node2 -->
<g id="node2" class="node"><title>Node2</title>
<polygon fill="none" stroke="#bfbfbf" points="1382.02,-235 1382.02,-253 1491.98,-253 1491.98,-235 1382.02,-235"/>
<text text-anchor="middle" x="1437" y="-241" font-family="Helvetica,sans-Serif" font-size="10.00">boost/shared_ptr.hpp</text>
</g>
<!-- Node1&#45;&gt;Node2 -->
<g id="edge1" class="edge"><title>Node1&#45;&gt;Node2</title>
<path fill="none" stroke="midnightblue" d="M1892.78,-514.867C1885.55,-501.551 1869.64,-474.893 1850,-458 1728.51,-353.477 1546.87,-282.91 1471.6,-256.541"/>
<polygon fill="midnightblue" stroke="midnightblue" points="1472.29,-253.078 1461.7,-253.114 1470,-259.693 1472.29,-253.078"/>
</g>
<!-- Node3 -->
<g id="node3" class="node"><title>Node3</title>
<polygon fill="none" stroke="#bfbfbf" points="1835.77,-57 1835.77,-75 1876.23,-75 1876.23,-57 1835.77,-57"/>
<text text-anchor="middle" x="1856" y="-63" font-family="Helvetica,sans-Serif" font-size="10.00">string</text>
</g>
<!-- Node1&#45;&gt;Node3 -->
<g id="edge2" class="edge"><title>Node1&#45;&gt;Node3</title>
<path fill="none" stroke="midnightblue" d="M1933.41,-520.156C1993.28,-513.276 2106,-490.087 2106,-413 2106,-413 2106,-413 2106,-243 2106,-136.689 1952.98,-88.9976 1886.37,-73.2741"/>
<polygon fill="midnightblue" stroke="midnightblue" points="1886.99,-69.8248 1876.46,-71.0209 1885.43,-76.6507 1886.99,-69.8248"/>
</g>
<!-- Node4 -->
<g id="node4" class="node"><title>Node4</title>
<polygon fill="none" stroke="#bfbfbf" points="2008.38,-57 2008.38,-75 2051.62,-75 2051.62,-57 2008.38,-57"/>
<text text-anchor="middle" x="2030" y="-63" font-family="Helvetica,sans-Serif" font-size="10.00">vector</text>
</g>
<!-- Node1&#45;&gt;Node4 -->
<g id="edge3" class="edge"><title>Node1&#45;&gt;Node4</title>
<path fill="none" stroke="midnightblue" d="M1933.18,-522.803C2001.79,-520.323 2144,-504.185 2144,-413 2144,-413 2144,-413 2144,-187 2144,-136.306 2089.86,-98.4945 2056.2,-79.8838"/>
<polygon fill="midnightblue" stroke="midnightblue" points="2057.79,-76.7613 2047.31,-75.1491 2054.49,-82.9395 2057.79,-76.7613"/>
</g>
<!-- Node5 -->
<g id="node5" class="node"><title>Node5</title>
<g id="a_node5"><a xlink:href="FileConstHandle_8h.html" target="_top" xlink:title="Handle read/write of Model data from/to files. ">
<polygon fill="none" stroke="black" points="835.867,-459 835.867,-477 934.133,-477 934.133,-459 835.867,-459"/>
<text text-anchor="middle" x="885" y="-465" font-family="Helvetica,sans-Serif" font-size="10.00">FileConstHandle.h</text>
</a>
</g>
</g>
<!-- Node1&#45;&gt;Node5 -->
<g id="edge4" class="edge"><title>Node1&#45;&gt;Node5</title>
<path fill="none" stroke="midnightblue" d="M1860.71,-522.513C1734.44,-520.557 1302.68,-511.668 948,-478 946.9,-477.896 945.79,-477.786 944.672,-477.671"/>
<polygon fill="midnightblue" stroke="midnightblue" points="944.8,-474.163 934.47,-476.518 944.014,-481.119 944.8,-474.163"/>
</g>
<!-- Node11 -->
<g id="node11" class="node"><title>Node11</title>
<g id="a_node11"><a xlink:href="config_8h_source.html" target="_top" xlink:title="RMF/config.h">
<polygon fill="none" stroke="black" points="266.269,-57 266.269,-75 341.731,-75 341.731,-57 266.269,-57"/>
<text text-anchor="middle" x="304" y="-63" font-family="Helvetica,sans-Serif" font-size="10.00">RMF/config.h</text>
</a>
</g>
</g>
<!-- Node1&#45;&gt;Node11 -->
<g id="edge115" class="edge"><title>Node1&#45;&gt;Node11</title>
<path fill="none" stroke="midnightblue" d="M1860.9,-523.059C1651.1,-523.244 586.918,-521.968 263,-478 143.688,-461.805 0,-533.406 0,-413 0,-413 0,-413 0,-187 0,-148.354 12.2312,-134.006 44,-112 77.6007,-88.7249 190.697,-76.0325 256.131,-70.4788"/>
<polygon fill="midnightblue" stroke="midnightblue" points="256.526,-73.9582 266.204,-69.6482 255.95,-66.9819 256.526,-73.9582"/>
</g>
<!-- Node12 -->
<g id="node12" class="node"><title>Node12</title>
<g id="a_node12"><a xlink:href="compiler__macros_8h.html" target="_top" xlink:title="Various compiler workarounds. ">
<polygon fill="none" stroke="black" points="1364.54,-1 1364.54,-19 1489.46,-19 1489.46,-1 1364.54,-1"/>
<text text-anchor="middle" x="1427" y="-7" font-family="Helvetica,sans-Serif" font-size="10.00">RMF/compiler_macros.h</text>
</a>
</g>
</g>
<!-- Node1&#45;&gt;Node12 -->
<g id="edge116" class="edge"><title>Node1&#45;&gt;Node12</title>
<path fill="none" stroke="midnightblue" d="M1933.25,-519.449C1991.31,-513.221 2101.99,-498.966 2135,-478 2165.09,-458.888 2182,-448.65 2182,-413 2182,-413 2182,-413 2182,-126 2182,-63.4864 2119.8,-74.2314 2060,-56 1957.09,-24.6222 1642.75,-14.9297 1499.5,-12.0976"/>
<polygon fill="midnightblue" stroke="midnightblue" points="1499.56,-8.59807 1489.49,-11.9054 1499.42,-15.5968 1499.56,-8.59807"/>
</g>
<!-- Node29 -->
<g id="node27" class="node"><title>Node29</title>
<g id="a_node27"><a xlink:href="ID_8h.html" target="_top" xlink:title="Declaration of RMF::ID. ">
<polygon fill="none" stroke="black" points="1029.61,-291 1029.61,-309 1088.39,-309 1088.39,-291 1029.61,-291"/>
<text text-anchor="middle" x="1059" y="-297" font-family="Helvetica,sans-Serif" font-size="10.00">RMF/ID.h</text>
</a>
</g>
</g>
<!-- Node1&#45;&gt;Node29 -->
<g id="edge102" class="edge"><title>Node1&#45;&gt;Node29</title>
<path fill="none" stroke="midnightblue" d="M1860.54,-521.151C1722.1,-513.719 1229.69,-483.425 1087,-422 1051.04,-406.52 1035.71,-401.407 1019,-366 1010.49,-347.969 1025.8,-328.679 1039.87,-315.838"/>
<polygon fill="midnightblue" stroke="midnightblue" points="1042.47,-318.224 1047.83,-309.082 1037.94,-312.89 1042.47,-318.224"/>
</g>
<!-- Node32 -->
<g id="node30" class="node"><title>Node32</title>
<g id="a_node30"><a xlink:href="types_8h.html" target="_top" xlink:title="Default implementation for types.h. ">
<polygon fill="none" stroke="black" points="141.66,-235 141.66,-253 214.34,-253 214.34,-235 141.66,-235"/>
<text text-anchor="middle" x="178" y="-241" font-family="Helvetica,sans-Serif" font-size="10.00">RMF/types.h</text>
</a>
</g>
</g>
<!-- Node1&#45;&gt;Node32 -->
<g id="edge118" class="edge"><title>Node1&#45;&gt;Node32</title>
<path fill="none" stroke="midnightblue" d="M1860.58,-522.719C1606.9,-520.534 114,-503.812 114,-413 114,-413 114,-413 114,-355 114,-316.939 142.98,-280.292 161.938,-260.391"/>
<polygon fill="midnightblue" stroke="midnightblue" points="164.551,-262.726 169.101,-253.159 159.577,-257.801 164.551,-262.726"/>
</g>
<!-- Node43 -->
<g id="node40" class="node"><title>Node43</title>
<g id="a_node40"><a xlink:href="enums_8h.html" target="_top" xlink:title="The various enums used in RMF. ">
<polygon fill="none" stroke="black" points="1686.6,-291 1686.6,-309 1765.4,-309 1765.4,-291 1686.6,-291"/>
<text text-anchor="middle" x="1726" y="-297" font-family="Helvetica,sans-Serif" font-size="10.00">RMF/enums.h</text>
</a>
</g>
</g>
<!-- Node1&#45;&gt;Node43 -->
<g id="edge117" class="edge"><title>Node1&#45;&gt;Node43</title>
<path fill="none" stroke="midnightblue" d="M1933.24,-518.496C1958.29,-513.286 1989.89,-502.078 2006,-478 2024.78,-449.926 2024.53,-430.242 2006,-402 1955.95,-325.714 1841.76,-306.612 1775.7,-302.103"/>
<polygon fill="midnightblue" stroke="midnightblue" points="1775.72,-298.598 1765.53,-301.498 1775.3,-305.586 1775.72,-298.598"/>
</g>
<!-- Node50 -->
<g id="node43" class="node"><title>Node50</title>
<g id="a_node43"><a xlink:href="NodeHandle_8h.html" target="_top" xlink:title="Declaration of NodeHandle. ">
<polygon fill="none" stroke="black" points="1762.03,-459 1762.03,-477 1841.97,-477 1841.97,-459 1762.03,-459"/>
<text text-anchor="middle" x="1802" y="-465" font-family="Helvetica,sans-Serif" font-size="10.00">NodeHandle.h</text>
</a>
</g>
</g>
<!-- Node1&#45;&gt;Node50 -->
<g id="edge103" class="edge"><title>Node1&#45;&gt;Node50</title>
<path fill="none" stroke="midnightblue" d="M1882.57,-514.799C1867.28,-506.105 1842.9,-492.251 1824.97,-482.054"/>
<polygon fill="midnightblue" stroke="midnightblue" points="1826.68,-479.001 1816.25,-477.102 1823.22,-485.086 1826.68,-479.001"/>
</g>
<!-- Node5&#45;&gt;Node2 -->
<g id="edge7" class="edge"><title>Node5&#45;&gt;Node2</title>
<path fill="none" stroke="midnightblue" d="M934.136,-465.537C1002.46,-462.41 1129.45,-452.619 1233,-422 1288.28,-405.653 1305.79,-403.003 1350,-366 1385.92,-335.932 1414.55,-287.871 1428.23,-262.308"/>
<polygon fill="midnightblue" stroke="midnightblue" points="1431.5,-263.615 1433.02,-253.129 1425.29,-260.379 1431.5,-263.615"/>
</g>
<!-- Node5&#45;&gt;Node3 -->
<g id="edge10" class="edge"><title>Node5&#45;&gt;Node3</title>
<path fill="none" stroke="midnightblue" d="M934.573,-465.752C1066.44,-462.087 1423.58,-449.817 1538,-422 1659.86,-392.375 1700.88,-390.557 1797,-310 1858.61,-258.366 1856.91,-222.072 1864,-142 1865.18,-128.719 1865.17,-125.282 1864,-112 1863.21,-103.088 1861.57,-93.2971 1859.97,-85.1303"/>
<polygon fill="midnightblue" stroke="midnightblue" points="1863.38,-84.3127 1857.91,-75.2355 1856.52,-85.7389 1863.38,-84.3127"/>
</g>
<!-- Node5&#45;&gt;Node4 -->
<g id="edge11" class="edge"><title>Node5&#45;&gt;Node4</title>
<path fill="none" stroke="midnightblue" d="M934.159,-465.689C1073.22,-461.693 1467.51,-448.305 1594,-422 1665.71,-407.086 1684.68,-401.045 1749,-366 1880.59,-294.304 1921.57,-269.068 2001,-142 2012.19,-124.092 2020.29,-101.158 2025.03,-85.3921"/>
<polygon fill="midnightblue" stroke="midnightblue" points="2028.52,-85.9297 2027.89,-75.3533 2021.79,-84.0108 2028.52,-85.9297"/>
</g>
<!-- Node6 -->
<g id="node6" class="node"><title>Node6</title>
<polygon fill="none" stroke="#bfbfbf" points="327.793,-347 327.793,-365 462.207,-365 462.207,-347 327.793,-347"/>
<text text-anchor="middle" x="395" y="-353" font-family="Helvetica,sans-Serif" font-size="10.00">boost/current_function.hpp</text>
</g>
<!-- Node5&#45;&gt;Node6 -->
<g id="edge5" class="edge"><title>Node5&#45;&gt;Node6</title>
<path fill="none" stroke="midnightblue" d="M835.726,-460.215C782.642,-452.523 695.843,-438.837 622,-422 552.847,-406.233 473.477,-382.087 429.29,-368.09"/>
<polygon fill="midnightblue" stroke="midnightblue" points="430.217,-364.712 419.626,-365.013 428.093,-371.382 430.217,-364.712"/>
</g>
<!-- Node7 -->
<g id="node7" class="node"><title>Node7</title>
<polygon fill="none" stroke="#bfbfbf" points="640.013,-403 640.013,-421 769.987,-421 769.987,-403 640.013,-403"/>
<text text-anchor="middle" x="705" y="-409" font-family="Helvetica,sans-Serif" font-size="10.00">boost/functional/hash.hpp</text>
</g>
<!-- Node5&#45;&gt;Node7 -->
<g id="edge6" class="edge"><title>Node5&#45;&gt;Node7</title>
<path fill="none" stroke="midnightblue" d="M858.052,-458.916C827.078,-449.623 776.08,-434.324 741.548,-423.964"/>
<polygon fill="midnightblue" stroke="midnightblue" points="742.422,-420.572 731.838,-421.051 740.41,-427.277 742.422,-420.572"/>
</g>
<!-- Node8 -->
<g id="node8" class="node"><title>Node8</title>
<polygon fill="none" stroke="#bfbfbf" points="141.828,-403 141.828,-421 186.172,-421 186.172,-403 141.828,-403"/>
<text text-anchor="middle" x="164" y="-409" font-family="Helvetica,sans-Serif" font-size="10.00">iosfwd</text>
</g>
<!-- Node5&#45;&gt;Node8 -->
<g id="edge8" class="edge"><title>Node5&#45;&gt;Node8</title>
<path fill="none" stroke="midnightblue" d="M835.661,-466.783C722.547,-465.628 436.08,-458.958 200,-422 198.747,-421.804 197.474,-421.585 196.191,-421.347"/>
<polygon fill="midnightblue" stroke="midnightblue" points="196.851,-417.909 186.341,-419.245 195.39,-424.755 196.851,-417.909"/>
</g>
<!-- Node9 -->
<g id="node9" class="node"><title>Node9</title>
<polygon fill="none" stroke="#bfbfbf" points="983.613,-235 983.613,-253 1022.39,-253 1022.39,-235 983.613,-235"/>
<text text-anchor="middle" x="1003" y="-241" font-family="Helvetica,sans-Serif" font-size="10.00">limits</text>
</g>
<!-- Node5&#45;&gt;Node9 -->
<g id="edge9" class="edge"><title>Node5&#45;&gt;Node9</title>
<path fill="none" stroke="midnightblue" d="M874.102,-458.941C848.297,-438.886 787.748,-385.507 817,-346 849.628,-301.933 887.677,-337.694 935,-310 957.151,-297.037 977.732,-275.493 990.323,-260.79"/>
<polygon fill="midnightblue" stroke="midnightblue" points="993.064,-262.967 996.764,-253.04 987.681,-258.493 993.064,-262.967"/>
</g>
<!-- Node10 -->
<g id="node10" class="node"><title>Node10</title>
<g id="a_node10"><a xlink:href="BufferHandle_8h.html" target="_top" xlink:title="Declare RMF::BufferHandle. ">
<polygon fill="none" stroke="black" points="677.733,-347 677.733,-365 760.267,-365 760.267,-347 677.733,-347"/>
<text text-anchor="middle" x="719" y="-353" font-family="Helvetica,sans-Serif" font-size="10.00">BufferHandle.h</text>
</a>
</g>
</g>
<!-- Node5&#45;&gt;Node10 -->
<g id="edge12" class="edge"><title>Node5&#45;&gt;Node10</title>
<path fill="none" stroke="midnightblue" d="M835.761,-465.519C769.403,-462.368 656.608,-452.543 631,-422 611.813,-399.115 649.392,-379.821 681.244,-368.34"/>
<polygon fill="midnightblue" stroke="midnightblue" points="682.555,-371.591 690.876,-365.033 680.282,-364.97 682.555,-371.591"/>
</g>
<!-- Node5&#45;&gt;Node11 -->
<g id="edge96" class="edge"><title>Node5&#45;&gt;Node11</title>
<path fill="none" stroke="midnightblue" d="M835.82,-467.46C690.26,-468.287 263.619,-466.727 133,-422 84.5995,-405.427 38,-408.159 38,-357 38,-357 38,-357 38,-187 38,-149.632 46.2148,-134.565 76,-112 103.76,-90.9694 197.763,-77.839 256.044,-71.5175"/>
<polygon fill="midnightblue" stroke="midnightblue" points="256.556,-74.983 266.133,-70.4523 255.821,-68.0217 256.556,-74.983"/>
</g>
<!-- Node13 -->
<g id="node13" class="node"><title>Node13</title>
<g id="a_node13"><a xlink:href="infrastructure__macros_8h.html" target="_top" xlink:title="Various general useful macros for IMP. ">
<polygon fill="none" stroke="black" points="1503.48,-118 1503.48,-136 1624.52,-136 1624.52,-118 1503.48,-118"/>
<text text-anchor="middle" x="1564" y="-124" font-family="Helvetica,sans-Serif" font-size="10.00">infrastructure_macros.h</text>
</a>
</g>
</g>
<!-- Node5&#45;&gt;Node13 -->
<g id="edge100" class="edge"><title>Node5&#45;&gt;Node13</title>
<path fill="none" stroke="midnightblue" d="M934.174,-467.782C1009.98,-467.579 1159.07,-461.549 1278,-422 1439.3,-368.361 1513.66,-350.866 1588,-198 1596.57,-180.372 1586.4,-158.891 1576.78,-144.412"/>
<polygon fill="midnightblue" stroke="midnightblue" points="1579.43,-142.093 1570.75,-136.019 1573.74,-146.181 1579.43,-142.093"/>
</g>
<!-- Node20 -->
<g id="node19" class="node"><title>Node20</title>
<g id="a_node19"><a xlink:href="exceptions_8h.html" target="_top" xlink:title="Declarations of the various exception types. ">
<polygon fill="none" stroke="black" points="1326.93,-118 1326.93,-136 1399.07,-136 1399.07,-118 1326.93,-118"/>
<text text-anchor="middle" x="1363" y="-124" font-family="Helvetica,sans-Serif" font-size="10.00">exceptions.h</text>
</a>
</g>
</g>
<!-- Node5&#45;&gt;Node20 -->
<g id="edge99" class="edge"><title>Node5&#45;&gt;Node20</title>
<path fill="none" stroke="midnightblue" d="M892.451,-458.721C911.705,-437.696 965.373,-381.399 1019,-346 1050.86,-324.966 1069.19,-336.161 1097,-310 1145.52,-264.357 1115.54,-219.061 1168,-178 1179.76,-168.792 1262.8,-149.58 1316.66,-137.834"/>
<polygon fill="midnightblue" stroke="midnightblue" points="1317.65,-141.201 1326.68,-135.661 1316.16,-134.36 1317.65,-141.201"/>
</g>
<!-- Node27 -->
<g id="node25" class="node"><title>Node27</title>
<g id="a_node25"><a xlink:href="NodeConstHandle_8h.html" target="_top" xlink:title="Declaration of NodeConstHandlke. ">
<polygon fill="none" stroke="black" points="1117.97,-403 1117.97,-421 1224.03,-421 1224.03,-403 1117.97,-403"/>
<text text-anchor="middle" x="1171" y="-409" font-family="Helvetica,sans-Serif" font-size="10.00">NodeConstHandle.h</text>
</a>
</g>
</g>
<!-- Node5&#45;&gt;Node27 -->
<g id="edge41" class="edge"><title>Node5&#45;&gt;Node27</title>
<path fill="none" stroke="midnightblue" d="M927.508,-458.974C978.34,-449.376 1063.43,-433.311 1118.37,-422.938"/>
<polygon fill="midnightblue" stroke="midnightblue" points="1119.08,-426.365 1128.26,-421.07 1117.78,-419.486 1119.08,-426.365"/>
</g>
<!-- Node5&#45;&gt;Node29 -->
<g id="edge95" class="edge"><title>Node5&#45;&gt;Node29</title>
<path fill="none" stroke="midnightblue" d="M887.14,-458.712C893.106,-437.172 911.904,-378.824 948,-346 968.102,-327.72 996.601,-316.378 1019.69,-309.653"/>
<polygon fill="midnightblue" stroke="midnightblue" points="1020.81,-312.974 1029.54,-306.963 1018.97,-306.221 1020.81,-312.974"/>
</g>
<!-- Node5&#45;&gt;Node32 -->
<g id="edge101" class="edge"><title>Node5&#45;&gt;Node32</title>
<path fill="none" stroke="midnightblue" d="M835.704,-463.848C681.026,-453.446 213.038,-417.891 171,-366 147.125,-336.529 160.341,-288.572 170.253,-262.772"/>
<polygon fill="midnightblue" stroke="midnightblue" points="173.626,-263.77 174.181,-253.19 167.149,-261.115 173.626,-263.77"/>
</g>
<!-- Node42 -->
<g id="node39" class="node"><title>Node42</title>
<g id="a_node39"><a xlink:href="constants_8h.html" target="_top" xlink:title="Various constants. ">
<polygon fill="none" stroke="black" points="180.209,-347 180.209,-365 271.791,-365 271.791,-347 180.209,-347"/>
<text text-anchor="middle" x="226" y="-353" font-family="Helvetica,sans-Serif" font-size="10.00">RMF/constants.h</text>
</a>
</g>
</g>
<!-- Node5&#45;&gt;Node42 -->
<g id="edge97" class="edge"><title>Node5&#45;&gt;Node42</title>
<path fill="none" stroke="midnightblue" d="M835.847,-461.65C769.264,-454.148 646.795,-439.447 543,-422 445.587,-405.626 332.446,-381.081 271.136,-367.314"/>
<polygon fill="midnightblue" stroke="midnightblue" points="271.553,-363.821 261.028,-365.037 270.014,-370.649 271.553,-363.821"/>
</g>
<!-- Node5&#45;&gt;Node43 -->
<g id="edge98" class="edge"><title>Node5&#45;&gt;Node43</title>
<path fill="none" stroke="midnightblue" d="M934.307,-465.977C1060.32,-462.948 1391.66,-452.262 1497,-422 1580.27,-398.079 1667.91,-341.625 1706.18,-315.159"/>
<polygon fill="midnightblue" stroke="midnightblue" points="1708.63,-317.717 1714.81,-309.114 1704.61,-311.983 1708.63,-317.717"/>
</g>
<!-- Node10&#45;&gt;Node9 -->
<g id="edge40" class="edge"><title>Node10&#45;&gt;Node9</title>
<path fill="none" stroke="midnightblue" d="M760.346,-348.729C798.057,-342.098 854.778,-329.809 901,-310 932.466,-296.515 965.222,-273.844 984.864,-259.156"/>
<polygon fill="midnightblue" stroke="midnightblue" points="987.075,-261.871 992.913,-253.031 982.836,-256.301 987.075,-261.871"/>
</g>
<!-- Node10&#45;&gt;Node11 -->
<g id="edge13" class="edge"><title>Node10&#45;&gt;Node11</title>
<path fill="none" stroke="midnightblue" d="M677.596,-351.747C589.114,-344.516 387.47,-326.448 361,-310 291.392,-266.748 292.935,-223.566 285,-142 283.709,-128.729 282.354,-125.068 285,-112 286.917,-102.532 290.889,-92.581 294.709,-84.4507"/>
<polygon fill="midnightblue" stroke="midnightblue" points="297.944,-85.8076 299.299,-75.2997 291.687,-82.6692 297.944,-85.8076"/>
</g>
<!-- Node10&#45;&gt;Node13 -->
<g id="edge15" class="edge"><title>Node10&#45;&gt;Node13</title>
<path fill="none" stroke="midnightblue" d="M757.038,-346.967C787.694,-339.671 831.404,-327.379 867,-310 919.743,-284.249 919.84,-254.057 975,-234 1153.57,-169.069 1219.58,-254.465 1401,-198 1418.11,-192.676 1419.83,-185.725 1436,-178 1467.49,-162.95 1504.8,-148.771 1530.98,-139.384"/>
<polygon fill="midnightblue" stroke="midnightblue" points="1532.19,-142.671 1540.44,-136.028 1529.85,-136.074 1532.19,-142.671"/>
</g>
<!-- Node10&#45;&gt;Node20 -->
<g id="edge24" class="edge"><title>Node10&#45;&gt;Node20</title>
<path fill="none" stroke="midnightblue" d="M677.582,-347.9C601.69,-333.208 452.871,-295.599 507,-234 521.183,-217.86 1253.7,-144.833 1275,-142 1288.56,-140.196 1303.26,-137.967 1316.69,-135.822"/>
<polygon fill="midnightblue" stroke="midnightblue" points="1317.36,-139.26 1326.67,-134.207 1316.24,-132.35 1317.36,-139.26"/>
</g>
<!-- Node24 -->
<g id="node22" class="node"><title>Node24</title>
<g id="a_node22"><a xlink:href="BufferConstHandle_8h.html" target="_top" xlink:title="Declare RMF::BufferConstHandle. ">
<polygon fill="none" stroke="red" points="749.672,-291 749.672,-309 858.328,-309 858.328,-291 749.672,-291"/>
<text text-anchor="middle" x="804" y="-297" font-family="Helvetica,sans-Serif" font-size="10.00">BufferConstHandle.h</text>
</a>
</g>
</g>
<!-- Node10&#45;&gt;Node24 -->
<g id="edge30" class="edge"><title>Node10&#45;&gt;Node24</title>
<path fill="none" stroke="midnightblue" d="M731.91,-346.799C745.342,-338.265 766.604,-324.757 782.563,-314.619"/>
<polygon fill="midnightblue" stroke="midnightblue" points="784.683,-317.418 791.247,-309.102 780.93,-311.51 784.683,-317.418"/>
</g>
<!-- Node11&#45;&gt;Node12 -->
<g id="edge14" class="edge"><title>Node11&#45;&gt;Node12</title>
<path fill="none" stroke="midnightblue" d="M342.008,-63.1724C503.914,-55.387 1137.66,-24.913 1354.09,-14.5059"/>
<polygon fill="midnightblue" stroke="midnightblue" points="1354.56,-17.9872 1364.38,-14.0109 1354.23,-10.9953 1354.56,-17.9872"/>
</g>
<!-- Node13&#45;&gt;Node3 -->
<g id="edge18" class="edge"><title>Node13&#45;&gt;Node3</title>
<path fill="none" stroke="midnightblue" d="M1615.78,-117.934C1666.9,-109.572 1747.45,-95.335 1825.49,-76.1674"/>
<polygon fill="midnightblue" stroke="midnightblue" points="1826.63,-79.4912 1835.49,-73.681 1824.94,-72.6982 1826.63,-79.4912"/>
</g>
<!-- Node13&#45;&gt;Node4 -->
<g id="edge20" class="edge"><title>Node13&#45;&gt;Node4</title>
<path fill="none" stroke="midnightblue" d="M1624.92,-118.287C1725.06,-105.608 1921.02,-80.7979 1997.93,-71.0605"/>
<polygon fill="midnightblue" stroke="midnightblue" points="1998.49,-74.5178 2007.97,-69.7893 1997.61,-67.5732 1998.49,-74.5178"/>
</g>
<!-- Node13&#45;&gt;Node12 -->
<g id="edge19" class="edge"><title>Node13&#45;&gt;Node12</title>
<path fill="none" stroke="midnightblue" d="M1624.73,-118.907C1679.62,-110.078 1747.5,-91.6023 1717,-56 1689.56,-23.9707 1576.31,-14.5484 1499.73,-11.8884"/>
<polygon fill="midnightblue" stroke="midnightblue" points="1499.75,-8.38745 1489.64,-11.5696 1499.53,-15.384 1499.75,-8.38745"/>
</g>
<!-- Node14 -->
<g id="node14" class="node"><title>Node14</title>
<polygon fill="none" stroke="#bfbfbf" points="1039.22,-57 1039.22,-75 1090.78,-75 1090.78,-57 1039.22,-57"/>
<text text-anchor="middle" x="1065" y="-63" font-family="Helvetica,sans-Serif" font-size="10.00">sstream</text>
</g>
<!-- Node13&#45;&gt;Node14 -->
<g id="edge16" class="edge"><title>Node13&#45;&gt;Node14</title>
<path fill="none" stroke="midnightblue" d="M1518.2,-117.955C1505.52,-115.866 1491.75,-113.721 1479,-112 1327.97,-91.6078 1289.41,-93.3245 1138,-76 1125.93,-74.619 1112.75,-73.0216 1100.95,-71.5592"/>
<polygon fill="midnightblue" stroke="midnightblue" points="1101.36,-68.0828 1091,-70.3177 1100.49,-75.029 1101.36,-68.0828"/>
</g>
<!-- Node15 -->
<g id="node15" class="node"><title>Node15</title>
<polygon fill="none" stroke="#bfbfbf" points="1763.83,-57 1763.83,-75 1818.17,-75 1818.17,-57 1763.83,-57"/>
<text text-anchor="middle" x="1791" y="-63" font-family="Helvetica,sans-Serif" font-size="10.00">iostream</text>
</g>
<!-- Node13&#45;&gt;Node15 -->
<g id="edge17" class="edge"><title>Node13&#45;&gt;Node15</title>
<path fill="none" stroke="midnightblue" d="M1595.09,-117.92C1636.43,-107.175 1709.42,-88.2026 1753.69,-76.6972"/>
<polygon fill="midnightblue" stroke="midnightblue" points="1754.69,-80.055 1763.48,-74.1519 1752.92,-73.2801 1754.69,-80.055"/>
</g>
<!-- Node17 -->
<g id="node16" class="node"><title>Node17</title>
<polygon fill="none" stroke="#bfbfbf" points="1392.31,-57 1392.31,-75 1481.69,-75 1481.69,-57 1392.31,-57"/>
<text text-anchor="middle" x="1437" y="-63" font-family="Helvetica,sans-Serif" font-size="10.00">boost/config.hpp</text>
</g>
<!-- Node13&#45;&gt;Node17 -->
<g id="edge21" class="edge"><title>Node13&#45;&gt;Node17</title>
<path fill="none" stroke="midnightblue" d="M1546.61,-117.92C1525.26,-108.001 1488.82,-91.0734 1463.86,-79.4784"/>
<polygon fill="midnightblue" stroke="midnightblue" points="1465.13,-76.2108 1454.59,-75.1717 1462.18,-82.5592 1465.13,-76.2108"/>
</g>
<!-- Node18 -->
<g id="node17" class="node"><title>Node18</title>
<polygon fill="none" stroke="#bfbfbf" points="1499.53,-57 1499.53,-75 1594.47,-75 1594.47,-57 1499.53,-57"/>
<text text-anchor="middle" x="1547" y="-63" font-family="Helvetica,sans-Serif" font-size="10.00">boost/version.hpp</text>
</g>
<!-- Node13&#45;&gt;Node18 -->
<g id="edge22" class="edge"><title>Node13&#45;&gt;Node18</title>
<path fill="none" stroke="midnightblue" d="M1561.64,-117.796C1559.2,-109.342 1555.32,-95.8916 1552.17,-84.9548"/>
<polygon fill="midnightblue" stroke="midnightblue" points="1555.48,-83.774 1549.34,-75.134 1548.75,-85.7122 1555.48,-83.774"/>
</g>
<!-- Node19 -->
<g id="node18" class="node"><title>Node19</title>
<polygon fill="none" stroke="#bfbfbf" points="1611.97,-57 1611.97,-75 1708.03,-75 1708.03,-57 1611.97,-57"/>
<text text-anchor="middle" x="1660" y="-63" font-family="Helvetica,sans-Serif" font-size="10.00">boost/foreach.hpp</text>
</g>
<!-- Node13&#45;&gt;Node19 -->
<g id="edge23" class="edge"><title>Node13&#45;&gt;Node19</title>
<path fill="none" stroke="midnightblue" d="M1577.35,-117.796C1593.04,-108.153 1619.31,-92.0098 1638.02,-80.5108"/>
<polygon fill="midnightblue" stroke="midnightblue" points="1640.08,-83.352 1646.76,-75.134 1636.41,-77.3882 1640.08,-83.352"/>
</g>
<!-- Node20&#45;&gt;Node3 -->
<g id="edge27" class="edge"><title>Node20&#45;&gt;Node3</title>
<path fill="none" stroke="midnightblue" d="M1399.18,-122.125C1498.12,-111.523 1769.18,-82.4614 1825.5,-75.3237"/>
<polygon fill="midnightblue" stroke="midnightblue" points="1826.13,-78.7699 1835.53,-73.8897 1825.14,-71.8404 1826.13,-78.7699"/>
</g>
<!-- Node20&#45;&gt;Node11 -->
<g id="edge28" class="edge"><title>Node20&#45;&gt;Node11</title>
<path fill="none" stroke="midnightblue" d="M1326.73,-119.297C1310.9,-116.614 1292.08,-113.749 1275,-112 922.052,-75.8598 493.933,-68.7296 352.154,-67.3352"/>
<polygon fill="midnightblue" stroke="midnightblue" points="352.086,-63.8345 342.054,-67.241 352.02,-70.8342 352.086,-63.8345"/>
</g>
<!-- Node20&#45;&gt;Node12 -->
<g id="edge29" class="edge"><title>Node20&#45;&gt;Node12</title>
<path fill="none" stroke="midnightblue" d="M1335.58,-117.95C1328.27,-115.906 1320.36,-113.785 1313,-112 1233.64,-92.7514 1084.88,-118.028 1138,-56 1165.3,-24.1175 1277.87,-14.6469 1354.19,-11.9378"/>
<polygon fill="midnightblue" stroke="midnightblue" points="1354.36,-15.4343 1364.24,-11.6124 1354.13,-8.43795 1354.36,-15.4343"/>
</g>
<!-- Node21 -->
<g id="node20" class="node"><title>Node21</title>
<polygon fill="none" stroke="#bfbfbf" points="1223.45,-57 1223.45,-75 1374.55,-75 1374.55,-57 1223.45,-57"/>
<text text-anchor="middle" x="1299" y="-63" font-family="Helvetica,sans-Serif" font-size="10.00">boost/exception/exception.hpp</text>
</g>
<!-- Node20&#45;&gt;Node21 -->
<g id="edge25" class="edge"><title>Node20&#45;&gt;Node21</title>
<path fill="none" stroke="midnightblue" d="M1354.1,-117.796C1344.07,-108.55 1327.56,-93.3257 1315.22,-81.9513"/>
<polygon fill="midnightblue" stroke="midnightblue" points="1317.55,-79.3387 1307.82,-75.134 1312.8,-84.4854 1317.55,-79.3387"/>
</g>
<!-- Node22 -->
<g id="node21" class="node"><title>Node22</title>
<polygon fill="none" stroke="#bfbfbf" points="1146.6,-57 1146.6,-75 1205.4,-75 1205.4,-57 1146.6,-57"/>
<text text-anchor="middle" x="1176" y="-63" font-family="Helvetica,sans-Serif" font-size="10.00">exception</text>
</g>
<!-- Node20&#45;&gt;Node22 -->
<g id="edge26" class="edge"><title>Node20&#45;&gt;Node22</title>
<path fill="none" stroke="midnightblue" d="M1337.39,-117.92C1304.75,-107.621 1248.16,-89.7662 1211.4,-78.1701"/>
<polygon fill="midnightblue" stroke="midnightblue" points="1212.19,-74.748 1201.6,-75.0769 1210.08,-81.4236 1212.19,-74.748"/>
</g>
<!-- Node24&#45;&gt;Node2 -->
<g id="edge37" class="edge"><title>Node24&#45;&gt;Node2</title>
<path fill="none" stroke="midnightblue" d="M858.517,-294.349C974.755,-284.433 1246.53,-261.248 1371.73,-250.568"/>
<polygon fill="midnightblue" stroke="midnightblue" points="1372.27,-254.035 1381.94,-249.697 1371.68,-247.06 1372.27,-254.035"/>
</g>
<!-- Node24&#45;&gt;Node3 -->
<g id="edge36" class="edge"><title>Node24&#45;&gt;Node3</title>
<path fill="none" stroke="midnightblue" d="M820.505,-290.937C850.467,-276.71 916.161,-247.391 975,-234 1160.27,-191.834 1213.44,-228.38 1401,-198 1505.71,-181.04 1531.08,-171.379 1633,-142 1702.95,-121.838 1783.58,-93.4012 1826.12,-77.9812"/>
<polygon fill="midnightblue" stroke="midnightblue" points="1827.39,-81.243 1835.59,-74.5345 1825,-74.6649 1827.39,-81.243"/>
</g>
<!-- Node24&#45;&gt;Node9 -->
<g id="edge39" class="edge"><title>Node24&#45;&gt;Node9</title>
<path fill="none" stroke="midnightblue" d="M833.69,-290.966C866.906,-281.975 922.314,-266.966 970,-254 971.225,-253.667 972.475,-253.327 973.738,-252.983"/>
<polygon fill="midnightblue" stroke="midnightblue" points="974.729,-256.341 983.458,-250.335 972.889,-249.587 974.729,-256.341"/>
</g>
<!-- Node24&#45;&gt;Node11 -->
<g id="edge31" class="edge"><title>Node24&#45;&gt;Node11</title>
<path fill="none" stroke="midnightblue" d="M749.515,-295.7C689.093,-290.91 589.285,-279.613 507,-254 452.72,-237.104 434.881,-235.323 392,-198 353.884,-164.824 325.012,-111.455 311.85,-84.2096"/>
<polygon fill="midnightblue" stroke="midnightblue" points="315.009,-82.704 307.587,-75.1433 308.675,-85.6822 315.009,-82.704"/>
</g>
<!-- Node24&#45;&gt;Node13 -->
<g id="edge32" class="edge"><title>Node24&#45;&gt;Node13</title>
<path fill="none" stroke="midnightblue" d="M815.071,-290.792C836.868,-274.806 884.882,-240.488 904,-234 1098.61,-167.959 1166.22,-250.166 1365,-198 1385.39,-192.65 1388.37,-185.676 1408,-178 1447.32,-162.626 1493.49,-148.27 1525.34,-138.921"/>
<polygon fill="midnightblue" stroke="midnightblue" points="1526.53,-142.22 1535.16,-136.067 1524.58,-135.499 1526.53,-142.22"/>
</g>
<!-- Node24&#45;&gt;Node14 -->
<g id="edge35" class="edge"><title>Node24&#45;&gt;Node14</title>
<path fill="none" stroke="midnightblue" d="M806.525,-290.88C811.004,-277.584 821.455,-250.952 838,-234 873.85,-197.268 890.065,-193.486 939,-178 1010.59,-155.343 1224.81,-197.856 1275,-142 1283.91,-132.082 1283.38,-122.369 1275,-112 1269.51,-105.213 1159.69,-84.2776 1101.11,-73.5236"/>
<polygon fill="midnightblue" stroke="midnightblue" points="1101.61,-70.0574 1091.14,-71.7019 1100.35,-76.9433 1101.61,-70.0574"/>
</g>
<!-- Node24&#45;&gt;Node20 -->
<g id="edge33" class="edge"><title>Node24&#45;&gt;Node20</title>
<path fill="none" stroke="midnightblue" d="M809.434,-290.796C819.097,-276.881 840.651,-248.732 866,-234 1041.36,-132.08 1114.92,-185.647 1313,-142 1317.43,-141.024 1322.05,-139.892 1326.61,-138.701"/>
<polygon fill="midnightblue" stroke="midnightblue" points="1327.68,-142.038 1336.41,-136.042 1325.84,-135.282 1327.68,-142.038"/>
</g>
<!-- Node25 -->
<g id="node23" class="node"><title>Node25</title>
<polygon fill="none" stroke="#bfbfbf" points="515.853,-235 515.853,-253 634.147,-253 634.147,-235 515.853,-235"/>
<text text-anchor="middle" x="575" y="-241" font-family="Helvetica,sans-Serif" font-size="10.00">boost/exception/all.hpp</text>
</g>
<!-- Node24&#45;&gt;Node25 -->
<g id="edge34" class="edge"><title>Node24&#45;&gt;Node25</title>
<path fill="none" stroke="midnightblue" d="M769.716,-290.916C729.549,-281.444 662.915,-265.731 618.975,-255.37"/>
<polygon fill="midnightblue" stroke="midnightblue" points="619.68,-251.94 609.143,-253.051 618.073,-258.753 619.68,-251.94"/>
</g>
<!-- Node26 -->
<g id="node24" class="node"><title>Node26</title>
<polygon fill="none" stroke="#bfbfbf" points="652.353,-235 652.353,-253 775.647,-253 775.647,-235 652.353,-235"/>
<text text-anchor="middle" x="714" y="-241" font-family="Helvetica,sans-Serif" font-size="10.00">boost/make_shared.hpp</text>
</g>
<!-- Node24&#45;&gt;Node26 -->
<g id="edge38" class="edge"><title>Node24&#45;&gt;Node26</title>
<path fill="none" stroke="midnightblue" d="M790.331,-290.799C775.975,-282.185 753.174,-268.504 736.226,-258.335"/>
<polygon fill="midnightblue" stroke="midnightblue" points="737.879,-255.245 727.503,-253.102 734.277,-261.248 737.879,-255.245"/>
</g>
<!-- Node27&#45;&gt;Node2 -->
<g id="edge44" class="edge"><title>Node27&#45;&gt;Node2</title>
<path fill="none" stroke="midnightblue" d="M1224.14,-404.755C1256.07,-398.891 1296.15,-387.609 1326,-366 1359.15,-341.999 1349.82,-319.676 1378,-290 1389.17,-278.239 1403.62,-267.162 1415.43,-258.941"/>
<polygon fill="midnightblue" stroke="midnightblue" points="1417.52,-261.75 1423.84,-253.246 1413.6,-255.953 1417.52,-261.75"/>
</g>
<!-- Node27&#45;&gt;Node3 -->
<g id="edge46" class="edge"><title>Node27&#45;&gt;Node3</title>
<path fill="none" stroke="midnightblue" d="M1224.05,-407.572C1300.54,-402.045 1446.05,-389.346 1568,-366 1591.3,-361.54 1756.73,-326.261 1774,-310 1840.2,-247.661 1852.96,-130.139 1855.42,-85.15"/>
<polygon fill="midnightblue" stroke="midnightblue" points="1858.92,-85.277 1855.85,-75.1344 1851.92,-84.973 1858.92,-85.277"/>
</g>
<!-- Node27&#45;&gt;Node4 -->
<g id="edge47" class="edge"><title>Node27&#45;&gt;Node4</title>
<path fill="none" stroke="midnightblue" d="M1224.36,-409.574C1310.25,-406.426 1484.11,-396.528 1628,-366 1705.4,-349.578 1730.09,-352.245 1797,-310 1899.21,-245.462 1988.35,-126.596 2018.83,-83.3107"/>
<polygon fill="midnightblue" stroke="midnightblue" points="2021.73,-85.2626 2024.57,-75.0546 2015.98,-81.2656 2021.73,-85.2626"/>
</g>
<!-- Node27&#45;&gt;Node6 -->
<g id="edge43" class="edge"><title>Node27&#45;&gt;Node6</title>
<path fill="none" stroke="midnightblue" d="M1117.77,-407.482C1005.93,-400.064 738.362,-382.168 514,-366 500.531,-365.029 486.206,-363.97 472.334,-362.929"/>
<polygon fill="midnightblue" stroke="midnightblue" points="472.567,-359.437 462.333,-362.176 472.042,-366.417 472.567,-359.437"/>
</g>
<!-- Node27&#45;&gt;Node11 -->
<g id="edge74" class="edge"><title>Node27&#45;&gt;Node11</title>
<path fill="none" stroke="midnightblue" d="M1117.96,-410.826C1009.14,-409.675 753.109,-402.89 542,-366 509.706,-360.357 502.951,-353.343 471,-346 382.551,-325.672 357.154,-335.31 270,-310 206.83,-291.655 169.672,-308.608 133,-254 109.189,-218.544 49.1597,-232.696 160,-112 184.459,-85.3662 224.417,-74.3716 256.044,-69.894"/>
<polygon fill="midnightblue" stroke="midnightblue" points="256.497,-73.3647 265.989,-68.6577 255.634,-66.4181 256.497,-73.3647"/>
</g>
<!-- Node27&#45;&gt;Node13 -->
<g id="edge76" class="edge"><title>Node27&#45;&gt;Node13</title>
<path fill="none" stroke="midnightblue" d="M1212.67,-402.974C1238.05,-396.418 1269.92,-385.032 1293,-366 1345.92,-322.352 1316.51,-272.923 1373,-234 1446.29,-183.499 1513,-266.36 1570,-198 1582.06,-183.538 1577.39,-161.063 1571.79,-145.498"/>
<polygon fill="midnightblue" stroke="midnightblue" points="1574.94,-143.969 1567.95,-136.01 1568.45,-146.593 1574.94,-143.969"/>
</g>
<!-- Node27&#45;&gt;Node15 -->
<g id="edge45" class="edge"><title>Node27&#45;&gt;Node15</title>
<path fill="none" stroke="midnightblue" d="M1215.7,-402.933C1252.49,-395.548 1305.61,-383.153 1350,-366 1497.63,-308.945 1537.63,-293.292 1664,-198 1711.04,-162.532 1756.76,-109.46 1778.25,-83.0807"/>
<polygon fill="midnightblue" stroke="midnightblue" points="1781.03,-85.2062 1784.58,-75.2219 1775.58,-80.8164 1781.03,-85.2062"/>
</g>
<!-- Node27&#45;&gt;Node20 -->
<g id="edge75" class="edge"><title>Node27&#45;&gt;Node20</title>
<path fill="none" stroke="midnightblue" d="M1170.38,-402.976C1168.33,-370.422 1165,-246.672 1226,-178 1238.86,-163.528 1285.23,-148.506 1320.5,-138.754"/>
<polygon fill="midnightblue" stroke="midnightblue" points="1321.83,-142.018 1330.57,-136.026 1320,-135.261 1321.83,-142.018"/>
</g>
<!-- Node28 -->
<g id="node26" class="node"><title>Node28</title>
<polygon fill="none" stroke="#bfbfbf" points="1205.96,-347 1205.96,-365 1284.04,-365 1284.04,-347 1205.96,-347"/>
<text text-anchor="middle" x="1245" y="-353" font-family="Helvetica,sans-Serif" font-size="10.00">boost/any.hpp</text>
</g>
<!-- Node27&#45;&gt;Node28 -->
<g id="edge42" class="edge"><title>Node27&#45;&gt;Node28</title>
<path fill="none" stroke="midnightblue" d="M1182.24,-402.799C1193.65,-394.473 1211.55,-381.413 1225.31,-371.366"/>
<polygon fill="midnightblue" stroke="midnightblue" points="1227.64,-374.001 1233.66,-365.279 1223.51,-368.346 1227.64,-374.001"/>
</g>
<!-- Node27&#45;&gt;Node29 -->
<g id="edge48" class="edge"><title>Node27&#45;&gt;Node29</title>
<path fill="none" stroke="midnightblue" d="M1165.82,-402.801C1157.39,-389.853 1139.78,-364.264 1121,-346 1108.8,-334.136 1093.31,-322.89 1080.86,-314.609"/>
<polygon fill="midnightblue" stroke="midnightblue" points="1082.72,-311.643 1072.43,-309.136 1078.91,-317.515 1082.72,-311.643"/>
</g>
<!-- Node30 -->
<g id="node28" class="node"><title>Node30</title>
<g id="a_node28"><a xlink:href="Nullable_8h.html" target="_top" xlink:title="A helper class for allowing nice return of possibly null values. ">
<polygon fill="none" stroke="black" points="1027.54,-347 1027.54,-365 1112.46,-365 1112.46,-347 1027.54,-347"/>
<text text-anchor="middle" x="1070" y="-353" font-family="Helvetica,sans-Serif" font-size="10.00">RMF/Nullable.h</text>
</a>
</g>
</g>
<!-- Node27&#45;&gt;Node30 -->
<g id="edge53" class="edge"><title>Node27&#45;&gt;Node30</title>
<path fill="none" stroke="midnightblue" d="M1155.66,-402.799C1139.33,-394.065 1113.25,-380.123 1094.15,-369.914"/>
<polygon fill="midnightblue" stroke="midnightblue" points="1095.62,-366.73 1085.15,-365.102 1092.32,-372.903 1095.62,-366.73"/>
</g>
<!-- Node31 -->
<g id="node29" class="node"><title>Node31</title>
<g id="a_node29"><a xlink:href="traits_8h.html" target="_top" xlink:title="Handle read/write of Model data from/to files. ">
<polygon fill="none" stroke="red" points="369.995,-291 369.995,-309 416.005,-309 416.005,-291 369.995,-291"/>
<text text-anchor="middle" x="393" y="-297" font-family="Helvetica,sans-Serif" font-size="10.00">traits.h</text>
</a>
</g>
</g>
<!-- Node27&#45;&gt;Node31 -->
<g id="edge93" class="edge"><title>Node27&#45;&gt;Node31</title>
<path fill="none" stroke="midnightblue" d="M1117.94,-408.702C1026.01,-404.173 831.409,-392.173 669,-366 655.536,-363.83 443.265,-313.167 430,-310 428.734,-309.698 427.444,-309.389 426.141,-309.076"/>
<polygon fill="midnightblue" stroke="midnightblue" points="426.628,-305.593 416.085,-306.647 424.984,-312.397 426.628,-305.593"/>
</g>
<!-- Node27&#45;&gt;Node32 -->
<g id="edge94" class="edge"><title>Node27&#45;&gt;Node32</title>
<path fill="none" stroke="midnightblue" d="M1117.51,-408.171C981.726,-400.815 630.865,-380.639 580,-366 561.659,-360.721 560.083,-352.104 542,-346 450.619,-315.151 420.481,-337.375 328,-310 282.033,-296.394 231.425,-272.446 202.31,-257.726"/>
<polygon fill="midnightblue" stroke="midnightblue" points="203.795,-254.555 193.298,-253.117 200.607,-260.787 203.795,-254.555"/>
</g>
<!-- Node27&#45;&gt;Node42 -->
<g id="edge77" class="edge"><title>Node27&#45;&gt;Node42</title>
<path fill="none" stroke="midnightblue" d="M1117.61,-408.992C983.331,-403.764 620.699,-388.555 319,-366 306.994,-365.102 294.133,-363.969 281.922,-362.812"/>
<polygon fill="midnightblue" stroke="midnightblue" points="282.14,-359.316 271.85,-361.838 281.467,-366.284 282.14,-359.316"/>
</g>
<!-- Node27&#45;&gt;Node43 -->
<g id="edge80" class="edge"><title>Node27&#45;&gt;Node43</title>
<path fill="none" stroke="midnightblue" d="M1224.09,-406.905C1292.24,-401.003 1413.91,-388.288 1516,-366 1580.62,-351.892 1654,-327.095 1694.65,-312.548"/>
<polygon fill="midnightblue" stroke="midnightblue" points="1696.04,-315.768 1704.26,-309.083 1693.66,-309.183 1696.04,-315.768"/>
</g>
<!-- Node46 -->
<g id="node42" class="node"><title>Node46</title>
<g id="a_node42"><a xlink:href="keys_8h.html" target="_top" xlink:title="Declarations of the various key types. ">
<polygon fill="none" stroke="black" points="826.33,-347 826.33,-365 895.67,-365 895.67,-347 826.33,-347"/>
<text text-anchor="middle" x="861" y="-353" font-family="Helvetica,sans-Serif" font-size="10.00">RMF/keys.h</text>
</a>
</g>
</g>
<!-- Node27&#45;&gt;Node46 -->
<g id="edge88" class="edge"><title>Node27&#45;&gt;Node46</title>
<path fill="none" stroke="midnightblue" d="M1124.92,-402.974C1065.89,-392.691 964.244,-374.984 905.823,-364.808"/>
<polygon fill="midnightblue" stroke="midnightblue" points="906.239,-361.328 895.787,-363.06 905.038,-368.224 906.239,-361.328"/>
</g>
<!-- Node29&#45;&gt;Node9 -->
<g id="edge52" class="edge"><title>Node29&#45;&gt;Node9</title>
<path fill="none" stroke="midnightblue" d="M1050.25,-290.562C1041.9,-282.511 1029.12,-270.191 1018.96,-260.391"/>
<polygon fill="midnightblue" stroke="midnightblue" points="1021.13,-257.623 1011.51,-253.201 1016.27,-262.662 1021.13,-257.623"/>
</g>
<!-- Node29&#45;&gt;Node11 -->
<g id="edge49" class="edge"><title>Node29&#45;&gt;Node11</title>
<path fill="none" stroke="midnightblue" d="M1058.15,-290.988C1056.19,-276.842 1049.94,-247.648 1031,-234 954.28,-178.72 700.184,-214.082 607,-198 510.542,-181.353 481.006,-186.846 394,-142 364.17,-126.625 335.405,-99.9125 318.724,-82.8647"/>
<polygon fill="midnightblue" stroke="midnightblue" points="320.994,-80.1743 311.554,-75.3641 315.934,-85.0113 320.994,-80.1743"/>
</g>
<!-- Node29&#45;&gt;Node13 -->
<g id="edge50" class="edge"><title>Node29&#45;&gt;Node13</title>
<path fill="none" stroke="midnightblue" d="M1081.84,-290.927C1119.47,-277.813 1197.01,-251.583 1264,-234 1339.54,-214.172 1362.73,-225.029 1436,-198 1476.25,-183.155 1519.26,-157.314 1543.77,-141.524"/>
<polygon fill="midnightblue" stroke="midnightblue" points="1545.76,-144.408 1552.21,-136.009 1541.93,-138.548 1545.76,-144.408"/>
</g>
<!-- Node29&#45;&gt;Node20 -->
<g id="edge51" class="edge"><title>Node29&#45;&gt;Node20</title>
<path fill="none" stroke="midnightblue" d="M1059.94,-290.948C1062.96,-268.953 1074.54,-207.532 1112,-178 1183.27,-121.814 1224.54,-162.258 1313,-142 1317.37,-141 1321.93,-139.86 1326.44,-138.672"/>
<polygon fill="midnightblue" stroke="midnightblue" points="1327.4,-142.036 1336.13,-136.032 1325.57,-135.282 1327.4,-142.036"/>
</g>
<!-- Node30&#45;&gt;Node9 -->
<g id="edge73" class="edge"><title>Node30&#45;&gt;Node9</title>
<path fill="none" stroke="midnightblue" d="M1057.72,-346.801C1046.54,-338.718 1030.4,-325.37 1021,-310 1012.22,-295.642 1007.62,-276.913 1005.28,-263.25"/>
<polygon fill="midnightblue" stroke="midnightblue" points="1008.72,-262.557 1003.8,-253.171 1001.79,-263.573 1008.72,-262.557"/>
</g>
<!-- Node30&#45;&gt;Node11 -->
<g id="edge54" class="edge"><title>Node30&#45;&gt;Node11</title>
<path fill="none" stroke="midnightblue" d="M1027.09,-353.157C884.494,-346.224 439.176,-317.691 507,-234 555.626,-173.999 601.628,-214.846 677,-198 714.875,-189.535 723.644,-183.917 762,-178 814.748,-169.863 1204.7,-181.129 1241,-142 1250.07,-132.225 1250.2,-121.652 1241,-112 1210.07,-79.549 539.021,-69.6292 352.003,-67.4899"/>
<polygon fill="midnightblue" stroke="midnightblue" points="351.961,-63.9893 341.923,-67.3768 351.883,-70.9888 351.961,-63.9893"/>
</g>
<!-- Node30&#45;&gt;Node13 -->
<g id="edge71" class="edge"><title>Node30&#45;&gt;Node13</title>
<path fill="none" stroke="midnightblue" d="M1087.54,-346.993C1145.33,-320.634 1326.79,-238.021 1340,-234 1430.59,-206.419 1482.12,-264.028 1550,-198 1563.58,-184.788 1565.93,-162.389 1565.63,-146.49"/>
<polygon fill="midnightblue" stroke="midnightblue" points="1569.11,-146.073 1565.05,-136.285 1562.12,-146.465 1569.11,-146.073"/>
</g>
<!-- Node30&#45;&gt;Node20 -->
<g id="edge72" class="edge"><title>Node30&#45;&gt;Node20</title>
<path fill="none" stroke="midnightblue" d="M1086.45,-346.899C1100.71,-339.149 1121.04,-326.248 1134,-310 1173.52,-260.441 1140.78,-220.289 1188,-178 1197.89,-169.144 1270.2,-150.369 1318.73,-138.514"/>
<polygon fill="midnightblue" stroke="midnightblue" points="1319.8,-141.856 1328.69,-136.095 1318.14,-135.054 1319.8,-141.856"/>
</g>
<!-- Node30&#45;&gt;Node31 -->
<g id="edge55" class="edge"><title>Node30&#45;&gt;Node31</title>
<path fill="none" stroke="midnightblue" d="M1027.24,-352.465C928.581,-346.469 677.408,-330.381 468,-310 454.302,-308.667 439.231,-306.914 426.214,-305.31"/>
<polygon fill="midnightblue" stroke="midnightblue" points="426.639,-301.836 416.281,-304.066 425.769,-308.782 426.639,-301.836"/>
</g>
<!-- Node31&#45;&gt;Node9 -->
<g id="edge70" class="edge"><title>Node31&#45;&gt;Node9</title>
<path fill="none" stroke="midnightblue" d="M416.168,-296.949C510.752,-288.576 867.613,-256.985 973.32,-247.627"/>
<polygon fill="midnightblue" stroke="midnightblue" points="973.924,-251.088 983.577,-246.719 973.307,-244.115 973.924,-251.088"/>
</g>
<!-- Node31&#45;&gt;Node11 -->
<g id="edge56" class="edge"><title>Node31&#45;&gt;Node11</title>
<path fill="none" stroke="midnightblue" d="M381.207,-290.838C369.972,-282.588 353.16,-268.951 342,-254 309.17,-210.021 301.834,-195.59 290,-142 285.725,-122.641 291.234,-100.282 296.548,-85.0484"/>
<polygon fill="midnightblue" stroke="midnightblue" points="299.95,-85.9508 300.241,-75.36 293.409,-83.458 299.95,-85.9508"/>
</g>
<!-- Node31&#45;&gt;Node32 -->
<g id="edge57" class="edge"><title>Node31&#45;&gt;Node32</title>
<path fill="none" stroke="midnightblue" d="M369.991,-293.221C334.138,-284.216 264.411,-266.703 219.586,-255.445"/>
<polygon fill="midnightblue" stroke="midnightblue" points="220.42,-252.046 209.869,-253.004 218.715,-258.835 220.42,-252.046"/>
</g>
<!-- Node32&#45;&gt;Node11 -->
<g id="edge58" class="edge"><title>Node32&#45;&gt;Node11</title>
<path fill="none" stroke="midnightblue" d="M174.931,-234.982C167.064,-212.957 148.651,-150.605 176,-112 194.07,-86.4932 227.801,-75.3385 256.101,-70.5104"/>
<polygon fill="midnightblue" stroke="midnightblue" points="256.865,-73.9352 266.242,-69.0029 255.836,-67.0113 256.865,-73.9352"/>
</g>
<!-- Node33 -->
<g id="node31" class="node"><title>Node33</title>
<g id="a_node31"><a xlink:href="Vector_8h.html" target="_top" xlink:title="Represent coordinates. ">
<polygon fill="none" stroke="black" points="615.926,-179 615.926,-197 668.074,-197 668.074,-179 615.926,-179"/>
<text text-anchor="middle" x="642" y="-185" font-family="Helvetica,sans-Serif" font-size="10.00">Vector.h</text>
</a>
</g>
</g>
<!-- Node32&#45;&gt;Node33 -->
<g id="edge59" class="edge"><title>Node32&#45;&gt;Node33</title>
<path fill="none" stroke="midnightblue" d="M214.409,-238.763C301.161,-228.667 519.261,-203.284 605.8,-193.213"/>
<polygon fill="midnightblue" stroke="midnightblue" points="606.395,-196.667 615.923,-192.035 605.586,-189.714 606.395,-196.667"/>
</g>
<!-- Node33&#45;&gt;Node11 -->
<g id="edge60" class="edge"><title>Node33&#45;&gt;Node11</title>
<path fill="none" stroke="midnightblue" d="M615.744,-184.56C575.735,-180.119 497.751,-168.594 437,-142 415.653,-132.655 414.03,-123.909 394,-112 373.602,-99.8723 349.51,-87.9445 331.388,-79.4193"/>
<polygon fill="midnightblue" stroke="midnightblue" points="332.539,-76.0948 321.996,-75.0534 329.588,-82.4426 332.539,-76.0948"/>
</g>
<!-- Node33&#45;&gt;Node13 -->
<g id="edge61" class="edge"><title>Node33&#45;&gt;Node13</title>
<path fill="none" stroke="midnightblue" d="M668.143,-185.757C765.743,-181.054 1118.06,-163.522 1408,-142 1435.89,-139.93 1466.56,-137.263 1493.26,-134.813"/>
<polygon fill="midnightblue" stroke="midnightblue" points="1493.65,-138.292 1503.29,-133.887 1493.01,-131.322 1493.65,-138.292"/>
</g>
<!-- Node33&#45;&gt;Node20 -->
<g id="edge62" class="edge"><title>Node33&#45;&gt;Node20</title>
<path fill="none" stroke="midnightblue" d="M668.325,-183.658C683.43,-181.817 702.761,-179.589 720,-178 951.128,-156.692 1009.87,-163.236 1241,-142 1266.04,-139.7 1293.9,-136.547 1316.67,-133.816"/>
<polygon fill="midnightblue" stroke="midnightblue" points="1317.24,-137.273 1326.74,-132.596 1316.4,-130.324 1317.24,-137.273"/>
</g>
<!-- Node34 -->
<g id="node32" class="node"><title>Node34</title>
<polygon fill="none" stroke="#bfbfbf" points="991.237,-118 991.237,-136 1106.76,-136 1106.76,-118 991.237,-118"/>
<text text-anchor="middle" x="1049" y="-124" font-family="Helvetica,sans-Serif" font-size="10.00">boost/range/begin.hpp</text>
</g>
<!-- Node33&#45;&gt;Node34 -->
<g id="edge63" class="edge"><title>Node33&#45;&gt;Node34</title>
<path fill="none" stroke="midnightblue" d="M668.174,-180.71C672.766,-179.721 677.51,-178.772 682,-178 814.346,-155.231 849.484,-163.754 982,-142 988.854,-140.875 996.072,-139.534 1003.13,-138.134"/>
<polygon fill="midnightblue" stroke="midnightblue" points="1004.19,-141.488 1013.29,-136.059 1002.79,-134.63 1004.19,-141.488"/>
</g>
<!-- Node35 -->
<g id="node33" class="node"><title>Node35</title>
<polygon fill="none" stroke="#bfbfbf" points="1125.13,-118 1125.13,-136 1232.87,-136 1232.87,-118 1125.13,-118"/>
<text text-anchor="middle" x="1179" y="-124" font-family="Helvetica,sans-Serif" font-size="10.00">boost/range/end.hpp</text>
</g>
<!-- Node33&#45;&gt;Node35 -->
<g id="edge64" class="edge"><title>Node33&#45;&gt;Node35</title>
<path fill="none" stroke="midnightblue" d="M668.151,-180.571C672.746,-179.598 677.497,-178.69 682,-178 872.878,-148.735 924.036,-170.696 1115,-142 1121.88,-140.967 1129.12,-139.628 1136.16,-138.19"/>
<polygon fill="midnightblue" stroke="midnightblue" points="1137.22,-141.543 1146.27,-136.034 1135.76,-134.697 1137.22,-141.543"/>
</g>
<!-- Node36 -->
<g id="node34" class="node"><title>Node36</title>
<polygon fill="none" stroke="#bfbfbf" points="446.313,-113 446.313,-141 545.687,-141 545.687,-113 446.313,-113"/>
<text text-anchor="start" x="454.313" y="-129" font-family="Helvetica,sans-Serif" font-size="10.00">boost/type_traits/is</text>
<text text-anchor="middle" x="496" y="-119" font-family="Helvetica,sans-Serif" font-size="10.00">_convertible.hpp</text>
</g>
<!-- Node33&#45;&gt;Node36 -->
<g id="edge65" class="edge"><title>Node33&#45;&gt;Node36</title>
<path fill="none" stroke="midnightblue" d="M622.005,-178.92C600.419,-170.197 565.415,-156.051 537.773,-144.881"/>
<polygon fill="midnightblue" stroke="midnightblue" points="538.919,-141.569 528.336,-141.067 536.297,-148.059 538.919,-141.569"/>
</g>
<!-- Node37 -->
<g id="node35" class="node"><title>Node37</title>
<polygon fill="none" stroke="#bfbfbf" points="563.251,-118 563.251,-136 658.749,-136 658.749,-118 563.251,-118"/>
<text text-anchor="middle" x="611" y="-124" font-family="Helvetica,sans-Serif" font-size="10.00">boost/mpl/not.hpp</text>
</g>
<!-- Node33&#45;&gt;Node37 -->
<g id="edge66" class="edge"><title>Node33&#45;&gt;Node37</title>
<path fill="none" stroke="midnightblue" d="M637.69,-178.796C633.155,-170.166 625.885,-156.329 620.076,-145.275"/>
<polygon fill="midnightblue" stroke="midnightblue" points="623.023,-143.359 615.274,-136.134 616.827,-146.614 623.023,-143.359"/>
</g>
<!-- Node38 -->
<g id="node36" class="node"><title>Node38</title>
<polygon fill="none" stroke="#bfbfbf" points="676.625,-118 676.625,-136 761.375,-136 761.375,-118 676.625,-118"/>
<text text-anchor="middle" x="719" y="-124" font-family="Helvetica,sans-Serif" font-size="10.00">boost/array.hpp</text>
</g>
<!-- Node33&#45;&gt;Node38 -->
<g id="edge67" class="edge"><title>Node33&#45;&gt;Node38</title>
<path fill="none" stroke="midnightblue" d="M652.707,-178.796C665.004,-169.374 685.402,-153.744 700.33,-142.306"/>
<polygon fill="midnightblue" stroke="midnightblue" points="702.575,-144.994 708.384,-136.134 698.318,-139.438 702.575,-144.994"/>
</g>
<!-- Node39 -->
<g id="node37" class="node"><title>Node39</title>
<polygon fill="none" stroke="#bfbfbf" points="779.582,-118 779.582,-136 898.418,-136 898.418,-118 779.582,-118"/>
<text text-anchor="middle" x="839" y="-124" font-family="Helvetica,sans-Serif" font-size="10.00">boost/static_assert.hpp</text>
</g>
<!-- Node33&#45;&gt;Node39 -->
<g id="edge68" class="edge"><title>Node33&#45;&gt;Node39</title>
<path fill="none" stroke="midnightblue" d="M668.16,-179.165C702.556,-168.864 763.181,-150.707 802.193,-139.023"/>
<polygon fill="midnightblue" stroke="midnightblue" points="803.524,-142.278 812.1,-136.056 801.516,-135.573 803.524,-142.278"/>
</g>
<!-- Node40 -->
<g id="node38" class="node"><title>Node40</title>
<polygon fill="none" stroke="#bfbfbf" points="916.436,-118 916.436,-136 973.564,-136 973.564,-118 916.436,-118"/>
<text text-anchor="middle" x="945" y="-124" font-family="Helvetica,sans-Serif" font-size="10.00">algorithm</text>
</g>
<!-- Node33&#45;&gt;Node40 -->
<g id="edge69" class="edge"><title>Node33&#45;&gt;Node40</title>
<path fill="none" stroke="midnightblue" d="M668.201,-180.858C672.79,-179.853 677.526,-178.86 682,-178 781.45,-158.875 809.024,-167.626 907,-142 909.965,-141.224 913.022,-140.307 916.054,-139.319"/>
<polygon fill="midnightblue" stroke="midnightblue" points="917.229,-142.616 925.51,-136.006 914.915,-136.009 917.229,-142.616"/>
</g>
<!-- Node42&#45;&gt;Node11 -->
<g id="edge78" class="edge"><title>Node42&#45;&gt;Node11</title>
<path fill="none" stroke="midnightblue" d="M193.821,-346.931C149.746,-333.725 76,-302.967 76,-245 76,-245 76,-245 76,-187 76,-152.002 74.1336,-135.576 100,-112 122.491,-91.5008 203.155,-78.5401 256.061,-72.0433"/>
<polygon fill="midnightblue" stroke="midnightblue" points="256.731,-75.4883 266.246,-70.8298 255.902,-68.5375 256.731,-75.4883"/>
</g>
<!-- Node42&#45;&gt;Node29 -->
<g id="edge79" class="edge"><title>Node42&#45;&gt;Node29</title>
<path fill="none" stroke="midnightblue" d="M271.855,-350.234C286.87,-348.761 303.637,-347.21 319,-346 586.25,-324.949 908.469,-308.365 1019.31,-302.914"/>
<polygon fill="midnightblue" stroke="midnightblue" points="1019.55,-306.406 1029.37,-302.421 1019.21,-299.414 1019.55,-306.406"/>
</g>
<!-- Node43&#45;&gt;Node3 -->
<g id="edge86" class="edge"><title>Node43&#45;&gt;Node3</title>
<path fill="none" stroke="midnightblue" d="M1730.43,-290.699C1749.44,-255.031 1823.36,-116.402 1826,-112 1831.75,-102.401 1838.64,-91.9888 1844.37,-83.5999"/>
<polygon fill="midnightblue" stroke="midnightblue" points="1847.42,-85.3549 1850.23,-75.1394 1841.66,-81.3731 1847.42,-85.3549"/>
</g>
<!-- Node43&#45;&gt;Node11 -->
<g id="edge81" class="edge"><title>Node43&#45;&gt;Node11</title>
<path fill="none" stroke="midnightblue" d="M1707.04,-290.883C1686.81,-282.125 1653.89,-267.6 1626,-254 1608.85,-245.636 1606.21,-239.709 1588,-234 1525.82,-214.509 1340.15,-246.821 1297,-198 1291.11,-191.34 1291.77,-185.19 1297,-178 1327.5,-136.05 1377.5,-183.95 1408,-142 1415.84,-131.215 1417.23,-121.618 1408,-112 1370.95,-73.4069 559.856,-67.9034 352.122,-67.1264"/>
<polygon fill="midnightblue" stroke="midnightblue" points="351.853,-63.6255 341.841,-67.09 351.828,-70.6255 351.853,-63.6255"/>
</g>
<!-- Node43&#45;&gt;Node15 -->
<g id="edge87" class="edge"><title>Node43&#45;&gt;Node15</title>
<path fill="none" stroke="midnightblue" d="M1727.14,-290.969C1730.02,-271.411 1738.2,-219.843 1750,-178 1759.49,-144.34 1774.49,-106.361 1783.47,-84.6927"/>
<polygon fill="midnightblue" stroke="midnightblue" points="1786.81,-85.7814 1787.46,-75.2062 1780.36,-83.0714 1786.81,-85.7814"/>
</g>
<!-- Node44 -->
<g id="node41" class="node"><title>Node44</title>
<g id="a_node41"><a xlink:href="Enum_8h.html" target="_top" xlink:title="Declaration of RMF::Enum. ">
<polygon fill="none" stroke="black" points="1305.77,-179 1305.77,-197 1356.23,-197 1356.23,-179 1305.77,-179"/>
<text text-anchor="middle" x="1331" y="-185" font-family="Helvetica,sans-Serif" font-size="10.00">Enum.h</text>
</a>
</g>
</g>
<!-- Node43&#45;&gt;Node44 -->
<g id="edge82" class="edge"><title>Node43&#45;&gt;Node44</title>
<path fill="none" stroke="midnightblue" d="M1716.55,-290.836C1699.65,-276.719 1662.57,-247.928 1626,-234 1536.85,-200.049 1423.33,-191.657 1366.62,-189.621"/>
<polygon fill="midnightblue" stroke="midnightblue" points="1366.48,-186.115 1356.38,-189.302 1366.27,-193.112 1366.48,-186.115"/>
</g>
<!-- Node44&#45;&gt;Node11 -->
<g id="edge83" class="edge"><title>Node44&#45;&gt;Node11</title>
<path fill="none" stroke="midnightblue" d="M1356.33,-180.181C1385.66,-171.716 1431.2,-156.604 1441,-142 1448.43,-130.93 1450.24,-121.613 1441,-112 1402.74,-72.1923 563.904,-67.5935 352.188,-67.0671"/>
<polygon fill="midnightblue" stroke="midnightblue" points="352.017,-63.5668 342.009,-67.0437 352.001,-70.5667 352.017,-63.5668"/>
</g>
<!-- Node44&#45;&gt;Node13 -->
<g id="edge84" class="edge"><title>Node44&#45;&gt;Node13</title>
<path fill="none" stroke="midnightblue" d="M1356.38,-180.574C1396.35,-170.452 1474.37,-150.696 1522.56,-138.494"/>
<polygon fill="midnightblue" stroke="midnightblue" points="1523.53,-141.859 1532.36,-136.011 1521.81,-135.073 1523.53,-141.859"/>
</g>
<!-- Node44&#45;&gt;Node20 -->
<g id="edge85" class="edge"><title>Node44&#45;&gt;Node20</title>
<path fill="none" stroke="midnightblue" d="M1335.45,-178.796C1340.18,-170.078 1347.79,-156.046 1353.81,-144.937"/>
<polygon fill="midnightblue" stroke="midnightblue" points="1356.9,-146.593 1358.59,-136.134 1350.74,-143.256 1356.9,-146.593"/>
</g>
<!-- Node46&#45;&gt;Node11 -->
<g id="edge89" class="edge"><title>Node46&#45;&gt;Node11</title>
<path fill="none" stroke="midnightblue" d="M826.249,-351.356C731.631,-341.392 475.926,-314.156 468,-310 380.907,-264.327 368.9,-229.493 324,-142 314.692,-123.862 309.401,-100.97 306.629,-85.277"/>
<polygon fill="midnightblue" stroke="midnightblue" points="310.068,-84.6161 305.035,-75.293 303.156,-85.7198 310.068,-84.6161"/>
</g>
<!-- Node46&#45;&gt;Node13 -->
<g id="edge92" class="edge"><title>Node46&#45;&gt;Node13</title>
<path fill="none" stroke="midnightblue" d="M895.837,-350.314C942.277,-343.625 1026.77,-329.905 1097,-310 1164.26,-290.935 1178.96,-279.656 1244,-254 1265.88,-245.368 1270.48,-240.782 1293,-234 1371.12,-210.479 1398.73,-231.754 1473,-198 1502.63,-184.535 1531.48,-159.77 1548.5,-143.597"/>
<polygon fill="midnightblue" stroke="midnightblue" points="1551.13,-145.92 1555.85,-136.435 1546.24,-140.905 1551.13,-145.92"/>
</g>
<!-- Node46&#45;&gt;Node29 -->
<g id="edge90" class="edge"><title>Node46&#45;&gt;Node29</title>
<path fill="none" stroke="midnightblue" d="M890.643,-346.916C925.007,-337.544 981.776,-322.061 1019.77,-311.699"/>
<polygon fill="midnightblue" stroke="midnightblue" points="1020.75,-315.059 1029.48,-309.051 1018.91,-308.306 1020.75,-315.059"/>
</g>
<!-- Node46&#45;&gt;Node31 -->
<g id="edge91" class="edge"><title>Node46&#45;&gt;Node31</title>
<path fill="none" stroke="midnightblue" d="M826.138,-351.489C727.019,-341.491 449.46,-313.367 430,-310 428.754,-309.784 427.488,-309.551 426.211,-309.303"/>
<polygon fill="midnightblue" stroke="midnightblue" points="426.9,-305.871 416.388,-307.192 425.43,-312.715 426.9,-305.871"/>
</g>
<!-- Node50&#45;&gt;Node2 -->
<g id="edge104" class="edge"><title>Node50&#45;&gt;Node2</title>
<path fill="none" stroke="midnightblue" d="M1777.47,-458.958C1721.66,-439.81 1582.67,-387.274 1488,-310 1471.21,-296.293 1456.47,-276.117 1447.21,-261.887"/>
<polygon fill="midnightblue" stroke="midnightblue" points="1450,-259.747 1441.72,-253.138 1444.07,-263.468 1450,-259.747"/>
</g>
<!-- Node50&#45;&gt;Node3 -->
<g id="edge105" class="edge"><title>Node50&#45;&gt;Node3</title>
<path fill="none" stroke="midnightblue" d="M1836.44,-458.979C1856.18,-452.473 1879.45,-441.138 1892,-422 1923.03,-374.666 1955.35,-288.95 1892,-112 1888,-100.838 1879.99,-90.3674 1872.54,-82.34"/>
<polygon fill="midnightblue" stroke="midnightblue" points="1874.97,-79.8226 1865.45,-75.1917 1870.01,-84.7543 1874.97,-79.8226"/>
</g>
<!-- Node50&#45;&gt;Node4 -->
<g id="edge106" class="edge"><title>Node50&#45;&gt;Node4</title>
<path fill="none" stroke="midnightblue" d="M1842.11,-467.82C1916.42,-467.027 2068,-453.574 2068,-357 2068,-357 2068,-357 2068,-187 2068,-148.909 2050.38,-107.057 2039.14,-84.2249"/>
<polygon fill="midnightblue" stroke="midnightblue" points="2042.17,-82.469 2034.51,-75.1544 2035.94,-85.6523 2042.17,-82.469"/>
</g>
<!-- Node50&#45;&gt;Node11 -->
<g id="edge110" class="edge"><title>Node50&#45;&gt;Node11</title>
<path fill="none" stroke="midnightblue" d="M1762.03,-465.144C1653.42,-459.957 1343.81,-444.224 1087,-422 973.85,-412.208 691.013,-384.76 579,-366 551.139,-361.334 354.243,-326.056 331,-310 266.797,-265.651 283.473,-219.954 280,-142 279.407,-128.68 276.766,-124.935 280,-112 282.5,-101.998 287.691,-91.7854 292.608,-83.6227"/>
<polygon fill="midnightblue" stroke="midnightblue" points="295.612,-85.4218 298.076,-75.1175 289.724,-81.6363 295.612,-85.4218"/>
</g>
<!-- Node50&#45;&gt;Node13 -->
<g id="edge113" class="edge"><title>Node50&#45;&gt;Node13</title>
<path fill="none" stroke="midnightblue" d="M1825.03,-458.908C1841.4,-451.856 1862.3,-439.914 1873,-422 1890.35,-392.964 1891.76,-376.435 1877,-346 1820.68,-229.858 1668.68,-164.198 1599.34,-139.475"/>
<polygon fill="midnightblue" stroke="midnightblue" points="1600.33,-136.112 1589.73,-136.123 1598.02,-142.722 1600.33,-136.112"/>
</g>
<!-- Node50&#45;&gt;Node20 -->
<g id="edge112" class="edge"><title>Node50&#45;&gt;Node20</title>
<path fill="none" stroke="midnightblue" d="M1794.56,-458.885C1762.87,-424.895 1634.65,-293.013 1500,-234 1412.87,-195.812 1350.35,-270.706 1289,-198 1270.45,-176.021 1305.33,-153.72 1333.24,-140.374"/>
<polygon fill="midnightblue" stroke="midnightblue" points="1334.71,-143.549 1342.35,-136.205 1331.8,-137.183 1334.71,-143.549"/>
</g>
<!-- Node50&#45;&gt;Node27 -->
<g id="edge108" class="edge"><title>Node50&#45;&gt;Node27</title>
<path fill="none" stroke="midnightblue" d="M1761.57,-463.54C1654.57,-454.384 1363.41,-429.466 1234.21,-418.409"/>
<polygon fill="midnightblue" stroke="midnightblue" points="1234.34,-414.908 1224.08,-417.542 1233.74,-421.882 1234.34,-414.908"/>
</g>
<!-- Node50&#45;&gt;Node29 -->
<g id="edge107" class="edge"><title>Node50&#45;&gt;Node29</title>
<path fill="none" stroke="midnightblue" d="M1770.25,-458.944C1690.34,-438.784 1474.38,-384.98 1293,-346 1224.94,-331.373 1145.25,-316.532 1098.63,-308.079"/>
<polygon fill="midnightblue" stroke="midnightblue" points="1099.1,-304.607 1088.63,-306.273 1097.85,-311.496 1099.1,-304.607"/>
</g>
<!-- Node50&#45;&gt;Node30 -->
<g id="edge109" class="edge"><title>Node50&#45;&gt;Node30</title>
<path fill="none" stroke="midnightblue" d="M1761.57,-466.543C1621.84,-464.669 1164.71,-455.976 1109,-422 1091.82,-411.524 1081.25,-390.377 1075.52,-375.041"/>
<polygon fill="midnightblue" stroke="midnightblue" points="1078.7,-373.495 1072.18,-365.138 1072.06,-375.732 1078.7,-373.495"/>
</g>
<!-- Node50&#45;&gt;Node32 -->
<g id="edge114" class="edge"><title>Node50&#45;&gt;Node32</title>
<path fill="none" stroke="midnightblue" d="M1761.84,-466.423C1635.84,-464.301 1237.19,-455.236 909,-422 850.403,-416.066 836.509,-408.752 778,-402 676.361,-390.271 413.738,-404.637 319,-366 262.671,-343.027 212.815,-288.235 190.464,-260.973"/>
<polygon fill="midnightblue" stroke="midnightblue" points="193.188,-258.774 184.2,-253.164 187.727,-263.154 193.188,-258.774"/>
</g>
<!-- Node50&#45;&gt;Node43 -->
<g id="edge111" class="edge"><title>Node50&#45;&gt;Node43</title>
<path fill="none" stroke="midnightblue" d="M1816.75,-458.787C1829.06,-451.047 1845.87,-438.225 1854,-422 1869.15,-391.757 1877.68,-373.507 1858,-346 1839.35,-319.933 1804.68,-308.792 1775.56,-304.111"/>
<polygon fill="midnightblue" stroke="midnightblue" points="1775.91,-300.626 1765.52,-302.71 1774.94,-307.559 1775.91,-300.626"/>
</g>
</g>
</svg>
