<?xml version="1.0" encoding="UTF-8" standalone="no"?>
<!DOCTYPE svg PUBLIC "-//W3C//DTD SVG 1.1//EN"
 "http://www.w3.org/Graphics/SVG/1.1/DTD/svg11.dtd">
<!-- Generated by graphviz version 2.34.0 (20131025.1349)
 -->
<!-- Title: FileHandle.h Pages: 1 -->
<svg width="2486pt" height="634pt"
 viewBox="0.00 0.00 2486.00 634.00" xmlns="http://www.w3.org/2000/svg" xmlns:xlink="http://www.w3.org/1999/xlink">
<g id="graph0" class="graph" transform="scale(1 1) rotate(0) translate(4 630)">
<title>FileHandle.h</title>
<!-- Node1 -->
<g id="node1" class="node"><title>Node1</title>
<polygon fill="#bfbfbf" stroke="black" points="1120.93,-605 1120.93,-625 1193.07,-625 1193.07,-605 1120.93,-605"/>
<text text-anchor="middle" x="1157" y="-611" font-family="Helvetica,sans-Serif" font-size="10.00">FileHandle.h</text>
</g>
<!-- Node2 -->
<g id="node2" class="node"><title>Node2</title>
<polygon fill="none" stroke="#bfbfbf" points="484.018,-187 484.018,-207 593.982,-207 593.982,-187 484.018,-187"/>
<text text-anchor="middle" x="539" y="-193" font-family="Helvetica,sans-Serif" font-size="10.00">boost/shared_ptr.hpp</text>
</g>
<!-- Node1&#45;&gt;Node2 -->
<g id="edge1" class="edge"><title>Node1&#45;&gt;Node2</title>
<path fill="none" stroke="midnightblue" d="M1120.84,-613.972C957.643,-612.955 293.018,-598.997 185,-440 100.649,-315.841 368.753,-237.142 486.454,-209.312"/>
<polygon fill="midnightblue" stroke="midnightblue" points="487.403,-212.684 496.349,-207.008 485.816,-205.867 487.403,-212.684"/>
</g>
<!-- Node3 -->
<g id="node3" class="node"><title>Node3</title>
<polygon fill="none" stroke="#bfbfbf" points="435.773,-59 435.773,-79 476.227,-79 476.227,-59 435.773,-59"/>
<text text-anchor="middle" x="456" y="-65" font-family="Helvetica,sans-Serif" font-size="10.00">string</text>
</g>
<!-- Node1&#45;&gt;Node3 -->
<g id="edge2" class="edge"><title>Node1&#45;&gt;Node3</title>
<path fill="none" stroke="midnightblue" d="M1120.72,-613.868C932.523,-612.718 76,-601.572 76,-494 76,-494 76,-494 76,-312 76,-146.65 335.143,-89.3607 425.425,-74.4192"/>
<polygon fill="midnightblue" stroke="midnightblue" points="426.245,-77.8329 435.57,-72.8026 425.143,-70.9201 426.245,-77.8329"/>
</g>
<!-- Node4 -->
<g id="node4" class="node"><title>Node4</title>
<polygon fill="none" stroke="#bfbfbf" points="130.384,-59 130.384,-79 173.616,-79 173.616,-59 130.384,-59"/>
<text text-anchor="middle" x="152" y="-65" font-family="Helvetica,sans-Serif" font-size="10.00">vector</text>
</g>
<!-- Node1&#45;&gt;Node4 -->
<g id="edge3" class="edge"><title>Node1&#45;&gt;Node4</title>
<path fill="none" stroke="midnightblue" d="M1120.7,-613.342C953.05,-610.165 257.962,-595.434 165,-568 102.344,-549.51 38,-559.327 38,-494 38,-494 38,-494 38,-196 38,-144.228 91.5771,-104.224 125.272,-84.1837"/>
<polygon fill="midnightblue" stroke="midnightblue" points="127.256,-87.0806 134.188,-79.0676 123.772,-81.0092 127.256,-87.0806"/>
</g>
<!-- Node5 -->
<g id="node5" class="node"><title>Node5</title>
<g id="a_node5"><a xlink:href="FileConstHandle_8h.html" target="_top" xlink:title="Handle read/write of Model data from/to files. ">
<polygon fill="none" stroke="black" points="1743.87,-547 1743.87,-567 1842.13,-567 1842.13,-547 1743.87,-547"/>
<text text-anchor="middle" x="1793" y="-553" font-family="Helvetica,sans-Serif" font-size="10.00">FileConstHandle.h</text>
</a>
</g>
</g>
<!-- Node1&#45;&gt;Node5 -->
<g id="edge4" class="edge"><title>Node1&#45;&gt;Node5</title>
<path fill="none" stroke="midnightblue" d="M1193.48,-610.788C1298.72,-601.522 1603.6,-574.677 1733.38,-563.249"/>
<polygon fill="midnightblue" stroke="midnightblue" points="1733.88,-566.719 1743.53,-562.356 1733.26,-559.746 1733.88,-566.719"/>
</g>
<!-- Node11 -->
<g id="node11" class="node"><title>Node11</title>
<g id="a_node11"><a xlink:href="config_8h_source.html" target="_top" xlink:title="RMF/config.h">
<polygon fill="none" stroke="black" points="1520.27,-59 1520.27,-79 1595.73,-79 1595.73,-59 1520.27,-59"/>
<text text-anchor="middle" x="1558" y="-65" font-family="Helvetica,sans-Serif" font-size="10.00">RMF/config.h</text>
</a>
</g>
</g>
<!-- Node1&#45;&gt;Node11 -->
<g id="edge133" class="edge"><title>Node1&#45;&gt;Node11</title>
<path fill="none" stroke="midnightblue" d="M1193.29,-614.047C1361.53,-614.029 2066.52,-611.323 2282,-568 2354.52,-553.42 2395.34,-570.431 2438,-510 2473.37,-459.887 2440,-433.34 2440,-372 2440,-372 2440,-372 2440,-254 2440,-131.727 2318.87,-151.945 2202,-116 2090.65,-81.7515 1735.52,-72.7928 1605.92,-70.6347"/>
<polygon fill="midnightblue" stroke="midnightblue" points="1605.95,-67.1349 1595.9,-70.474 1605.84,-74.134 1605.95,-67.1349"/>
</g>
<!-- Node12 -->
<g id="node12" class="node"><title>Node12</title>
<g id="a_node12"><a xlink:href="compiler__macros_8h.html" target="_top" xlink:title="Various compiler workarounds. ">
<polygon fill="none" stroke="black" points="1185.54,-1 1185.54,-21 1310.46,-21 1310.46,-1 1185.54,-1"/>
<text text-anchor="middle" x="1248" y="-7" font-family="Helvetica,sans-Serif" font-size="10.00">RMF/compiler_macros.h</text>
</a>
</g>
</g>
<!-- Node1&#45;&gt;Node12 -->
<g id="edge135" class="edge"><title>Node1&#45;&gt;Node12</title>
<path fill="none" stroke="midnightblue" d="M1120.86,-614.091C943.111,-614.324 166.25,-612.754 69,-568 28.15,-549.201 0,-538.968 0,-494 0,-494 0,-494 0,-132 0,-68.9625 60.6826,-76.3178 121,-58 221.276,-27.5472 941.886,-15.859 1175.26,-12.8471"/>
<polygon fill="midnightblue" stroke="midnightblue" points="1175.39,-16.3458 1185.35,-12.7185 1175.3,-9.3464 1175.39,-16.3458"/>
</g>
<!-- Node30 -->
<g id="node30" class="node"><title>Node30</title>
<g id="a_node30"><a xlink:href="ID_8h.html" target="_top" xlink:title="Handle read/write of Model data from/to files. ">
<polygon fill="none" stroke="black" points="1497.61,-245 1497.61,-265 1556.39,-265 1556.39,-245 1497.61,-245"/>
<text text-anchor="middle" x="1527" y="-251" font-family="Helvetica,sans-Serif" font-size="10.00">RMF/ID.h</text>
</a>
</g>
</g>
<!-- Node1&#45;&gt;Node30 -->
<g id="edge118" class="edge"><title>Node1&#45;&gt;Node30</title>
<path fill="none" stroke="midnightblue" d="M1193.4,-613.895C1391.74,-612.95 2336.5,-603.538 2421,-510 2431.13,-498.787 2430.32,-487.893 2421,-476 2393.54,-440.958 1736.52,-300.231 1566.74,-264.356"/>
<polygon fill="midnightblue" stroke="midnightblue" points="1567.24,-260.884 1556.73,-262.243 1565.79,-267.733 1567.24,-260.884"/>
</g>
<!-- Node33 -->
<g id="node33" class="node"><title>Node33</title>
<g id="a_node33"><a xlink:href="types_8h.html" target="_top" xlink:title="RMF/types.h">
<polygon fill="none" stroke="black" points="1363.66,-303 1363.66,-323 1436.34,-323 1436.34,-303 1363.66,-303"/>
<text text-anchor="middle" x="1400" y="-309" font-family="Helvetica,sans-Serif" font-size="10.00">RMF/types.h</text>
</a>
</g>
</g>
<!-- Node1&#45;&gt;Node33 -->
<g id="edge138" class="edge"><title>Node1&#45;&gt;Node33</title>
<path fill="none" stroke="midnightblue" d="M1193.11,-607.481C1246.95,-595.446 1342,-564.25 1342,-494 1342,-494 1342,-494 1342,-428 1342,-390.137 1367.73,-352.139 1384.91,-330.982"/>
<polygon fill="midnightblue" stroke="midnightblue" points="1387.67,-333.142 1391.44,-323.241 1382.32,-328.63 1387.67,-333.142"/>
</g>
<!-- Node41 -->
<g id="node41" class="node"><title>Node41</title>
<polygon fill="none" stroke="#bfbfbf" points="1522.14,-419 1522.14,-439 1659.86,-439 1659.86,-419 1522.14,-419"/>
<text text-anchor="middle" x="1591" y="-425" font-family="Helvetica,sans-Serif" font-size="10.00">RMF/internal/SharedData.h</text>
</g>
<!-- Node1&#45;&gt;Node41 -->
<g id="edge134" class="edge"><title>Node1&#45;&gt;Node41</title>
<path fill="none" stroke="midnightblue" d="M1193.17,-610.064C1284.64,-599.348 1521.55,-566.604 1573,-510 1588,-493.502 1591.38,-467.252 1591.75,-449.355"/>
<polygon fill="midnightblue" stroke="midnightblue" points="1595.25,-449.187 1591.66,-439.219 1588.25,-449.251 1595.25,-449.187"/>
</g>
<!-- Node43 -->
<g id="node43" class="node"><title>Node43</title>
<g id="a_node43"><a xlink:href="enums_8h.html" target="_top" xlink:title="Handle read/write of Model data from/to files. ">
<polygon fill="none" stroke="black" points="463.604,-361 463.604,-381 542.396,-381 542.396,-361 463.604,-361"/>
<text text-anchor="middle" x="503" y="-367" font-family="Helvetica,sans-Serif" font-size="10.00">RMF/enums.h</text>
</a>
</g>
</g>
<!-- Node1&#45;&gt;Node43 -->
<g id="edge136" class="edge"><title>Node1&#45;&gt;Node43</title>
<path fill="none" stroke="midnightblue" d="M1120.89,-614.544C989.634,-615.682 540.992,-611.946 453,-510 442.815,-498.199 456.192,-428.252 461,-418 466.289,-406.722 475.322,-396.28 483.658,-388.205"/>
<polygon fill="midnightblue" stroke="midnightblue" points="486.265,-390.565 491.293,-381.239 481.547,-385.394 486.265,-390.565"/>
</g>
<!-- Node48 -->
<g id="node48" class="node"><title>Node48</title>
<polygon fill="none" stroke="#bfbfbf" points="1451.36,-483 1451.36,-503 1564.64,-503 1564.64,-483 1451.36,-483"/>
<text text-anchor="middle" x="1508" y="-489" font-family="Helvetica,sans-Serif" font-size="10.00">internal/SharedData.h</text>
</g>
<!-- Node1&#45;&gt;Node48 -->
<g id="edge137" class="edge"><title>Node1&#45;&gt;Node48</title>
<path fill="none" stroke="midnightblue" d="M1193.28,-608.158C1233.71,-601.067 1300.68,-587.577 1356,-568 1402.69,-551.479 1453.87,-524.587 1483.33,-508.174"/>
<polygon fill="midnightblue" stroke="midnightblue" points="1485.1,-511.193 1492.1,-503.239 1481.67,-505.092 1485.1,-511.193"/>
</g>
<!-- Node50 -->
<g id="node50" class="node"><title>Node50</title>
<g id="a_node50"><a xlink:href="NodeHandle_8h.html" target="_top" xlink:title="Handle read/write of Model data from/to files. ">
<polygon fill="none" stroke="black" points="933.032,-547 933.032,-567 1012.97,-567 1012.97,-547 933.032,-547"/>
<text text-anchor="middle" x="973" y="-553" font-family="Helvetica,sans-Serif" font-size="10.00">NodeHandle.h</text>
</a>
</g>
</g>
<!-- Node1&#45;&gt;Node50 -->
<g id="edge119" class="edge"><title>Node1&#45;&gt;Node50</title>
<path fill="none" stroke="midnightblue" d="M1127.03,-604.878C1095.79,-595.372 1046.7,-580.432 1012.36,-569.98"/>
<polygon fill="midnightblue" stroke="midnightblue" points="1013.24,-566.589 1002.65,-567.025 1011.2,-573.285 1013.24,-566.589"/>
</g>
<!-- Node5&#45;&gt;Node2 -->
<g id="edge7" class="edge"><title>Node5&#45;&gt;Node2</title>
<path fill="none" stroke="midnightblue" d="M1743.71,-555.208C1575.65,-552.257 1025.9,-540.454 852,-510 747.587,-491.715 700.972,-512.881 624,-440 558.56,-378.037 543.465,-262.799 540.012,-217.246"/>
<polygon fill="midnightblue" stroke="midnightblue" points="543.489,-216.768 539.35,-207.015 536.503,-217.22 543.489,-216.768"/>
</g>
<!-- Node5&#45;&gt;Node3 -->
<g id="edge10" class="edge"><title>Node5&#45;&gt;Node3</title>
<path fill="none" stroke="midnightblue" d="M1743.7,-555.735C1512.04,-554.306 540.639,-546.167 488,-510 386.895,-440.533 380,-378.67 380,-256 380,-256 380,-256 380,-196 380,-151.21 415.648,-108.67 438.115,-86.3076"/>
<polygon fill="midnightblue" stroke="midnightblue" points="440.652,-88.7236 445.433,-79.2684 435.799,-83.6789 440.652,-88.7236"/>
</g>
<!-- Node5&#45;&gt;Node4 -->
<g id="edge11" class="edge"><title>Node5&#45;&gt;Node4</title>
<path fill="none" stroke="midnightblue" d="M1743.71,-555.529C1507.52,-553.121 500.532,-541.059 442,-510 265.18,-416.173 178.772,-161.327 157.391,-89.2338"/>
<polygon fill="midnightblue" stroke="midnightblue" points="160.654,-87.9191 154.514,-79.2851 153.93,-89.8638 160.654,-87.9191"/>
</g>
<!-- Node6 -->
<g id="node6" class="node"><title>Node6</title>
<polygon fill="none" stroke="#bfbfbf" points="1677.79,-419 1677.79,-439 1812.21,-439 1812.21,-419 1677.79,-419"/>
<text text-anchor="middle" x="1745" y="-425" font-family="Helvetica,sans-Serif" font-size="10.00">boost/current_function.hpp</text>
</g>
<!-- Node5&#45;&gt;Node6 -->
<g id="edge5" class="edge"><title>Node5&#45;&gt;Node6</title>
<path fill="none" stroke="midnightblue" d="M1840.36,-546.961C1861.14,-540.388 1883.58,-529.142 1896,-510 1904.22,-497.322 1904.99,-488.143 1896,-476 1878.86,-452.857 1850.34,-440.963 1822.68,-434.983"/>
<polygon fill="midnightblue" stroke="midnightblue" points="1823.03,-431.486 1812.55,-433.037 1821.71,-438.36 1823.03,-431.486"/>
</g>
<!-- Node7 -->
<g id="node7" class="node"><title>Node7</title>
<polygon fill="none" stroke="#bfbfbf" points="2096.01,-483 2096.01,-503 2225.99,-503 2225.99,-483 2096.01,-483"/>
<text text-anchor="middle" x="2161" y="-489" font-family="Helvetica,sans-Serif" font-size="10.00">boost/functional/hash.hpp</text>
</g>
<!-- Node5&#45;&gt;Node7 -->
<g id="edge6" class="edge"><title>Node5&#45;&gt;Node7</title>
<path fill="none" stroke="midnightblue" d="M1842.2,-548.813C1899.79,-540.249 1998.01,-525.183 2082,-510 2090.41,-508.479 2099.31,-506.773 2107.98,-505.057"/>
<polygon fill="midnightblue" stroke="midnightblue" points="2108.89,-508.443 2118.01,-503.047 2107.52,-501.579 2108.89,-508.443"/>
</g>
<!-- Node8 -->
<g id="node8" class="node"><title>Node8</title>
<polygon fill="none" stroke="#bfbfbf" points="2243.83,-483 2243.83,-503 2288.17,-503 2288.17,-483 2243.83,-483"/>
<text text-anchor="middle" x="2266" y="-489" font-family="Helvetica,sans-Serif" font-size="10.00">iosfwd</text>
</g>
<!-- Node5&#45;&gt;Node8 -->
<g id="edge8" class="edge"><title>Node5&#45;&gt;Node8</title>
<path fill="none" stroke="midnightblue" d="M1842.39,-556.558C1925.11,-556.24 2096.18,-550.197 2234,-510 2236.45,-509.285 2238.94,-508.386 2241.4,-507.382"/>
<polygon fill="midnightblue" stroke="midnightblue" points="2242.91,-510.536 2250.51,-503.149 2239.96,-504.187 2242.91,-510.536"/>
</g>
<!-- Node9 -->
<g id="node9" class="node"><title>Node9</title>
<polygon fill="none" stroke="#bfbfbf" points="1459.61,-187 1459.61,-207 1498.39,-207 1498.39,-187 1459.61,-187"/>
<text text-anchor="middle" x="1479" y="-193" font-family="Helvetica,sans-Serif" font-size="10.00">limits</text>
</g>
<!-- Node5&#45;&gt;Node9 -->
<g id="edge9" class="edge"><title>Node5&#45;&gt;Node9</title>
<path fill="none" stroke="midnightblue" d="M1786.23,-546.985C1775.48,-531.492 1757.1,-499.243 1771,-476 1788.35,-446.986 1820.65,-469.014 1838,-440 1843.02,-431.608 1843.47,-426.107 1838,-418 1814.15,-382.621 1786.16,-402.977 1749,-382 1659.98,-331.747 1651.21,-298.933 1565,-244 1546.38,-232.134 1524.41,-220.421 1507.34,-211.784"/>
<polygon fill="midnightblue" stroke="midnightblue" points="1508.43,-208.414 1497.92,-207.076 1505.3,-214.676 1508.43,-208.414"/>
</g>
<!-- Node10 -->
<g id="node10" class="node"><title>Node10</title>
<g id="a_node10"><a xlink:href="BufferHandle_8h.html" target="_top" xlink:title="Manage a memory buffer for reading/writing RMF files. ">
<polygon fill="none" stroke="black" points="1856.73,-303 1856.73,-323 1939.27,-323 1939.27,-303 1856.73,-303"/>
<text text-anchor="middle" x="1898" y="-309" font-family="Helvetica,sans-Serif" font-size="10.00">BufferHandle.h</text>
</a>
</g>
</g>
<!-- Node5&#45;&gt;Node10 -->
<g id="edge12" class="edge"><title>Node5&#45;&gt;Node10</title>
<path fill="none" stroke="midnightblue" d="M1842.62,-552.339C1899.02,-547.027 1985.86,-534.95 2006,-510 2031.68,-478.182 2022,-455.627 2006,-418 1989.05,-378.145 1948.51,-346.165 1922.21,-328.659"/>
<polygon fill="midnightblue" stroke="midnightblue" points="1923.86,-325.56 1913.56,-323.082 1920.07,-331.443 1923.86,-325.56"/>
</g>
<!-- Node5&#45;&gt;Node11 -->
<g id="edge107" class="edge"><title>Node5&#45;&gt;Node11</title>
<path fill="none" stroke="midnightblue" d="M1842.36,-551.132C1902.22,-544.42 1998.75,-530.747 2028,-510 2180.44,-401.859 2302.15,-252.984 2175,-116 2155.71,-95.2147 1748.25,-77.4145 1606.27,-71.8225"/>
<polygon fill="midnightblue" stroke="midnightblue" points="1606.25,-68.3191 1596.12,-71.4258 1605.98,-75.3138 1606.25,-68.3191"/>
</g>
<!-- Node13 -->
<g id="node13" class="node"><title>Node13</title>
<g id="a_node13"><a xlink:href="infrastructure__macros_8h.html" target="_top" xlink:title="Various general useful macros for IMP. ">
<polygon fill="none" stroke="black" points="656.48,-123 656.48,-143 777.52,-143 777.52,-123 656.48,-123"/>
<text text-anchor="middle" x="717" y="-129" font-family="Helvetica,sans-Serif" font-size="10.00">infrastructure_macros.h</text>
</a>
</g>
</g>
<!-- Node5&#45;&gt;Node13 -->
<g id="edge111" class="edge"><title>Node5&#45;&gt;Node13</title>
<path fill="none" stroke="midnightblue" d="M1743.55,-556.129C1624.54,-555.742 1313.06,-550.575 1057,-510 933.71,-490.464 893.933,-500.957 785,-440 726.103,-407.042 706.299,-388.673 687,-324 668.74,-262.809 694.496,-187.024 708.701,-152.587"/>
<polygon fill="midnightblue" stroke="midnightblue" points="711.963,-153.86 712.677,-143.29 705.527,-151.108 711.963,-153.86"/>
</g>
<!-- Node20 -->
<g id="node20" class="node"><title>Node20</title>
<g id="a_node20"><a xlink:href="exceptions_8h.html" target="_top" xlink:title="Various general useful macros for IMP. ">
<polygon fill="none" stroke="black" points="2093.93,-123 2093.93,-143 2166.07,-143 2166.07,-123 2093.93,-123"/>
<text text-anchor="middle" x="2130" y="-129" font-family="Helvetica,sans-Serif" font-size="10.00">exceptions.h</text>
</a>
</g>
</g>
<!-- Node5&#45;&gt;Node20 -->
<g id="edge110" class="edge"><title>Node5&#45;&gt;Node20</title>
<path fill="none" stroke="midnightblue" d="M1842.25,-556.15C1983.42,-556.071 2381.88,-552.089 2421,-510 2431.29,-498.931 2422.36,-491.049 2421,-476 2416.76,-429.204 2402,-418.987 2402,-372 2402,-372 2402,-372 2402,-312 2402,-205.33 2253.72,-159.142 2176.12,-142.274"/>
<polygon fill="midnightblue" stroke="midnightblue" points="2176.62,-138.803 2166.12,-140.176 2175.19,-145.654 2176.62,-138.803"/>
</g>
<!-- Node23 -->
<g id="node23" class="node"><title>Node23</title>
<polygon fill="none" stroke="#bfbfbf" points="2289.77,-59 2289.77,-79 2400.23,-79 2400.23,-59 2289.77,-59"/>
<text text-anchor="middle" x="2345" y="-65" font-family="Helvetica,sans-Serif" font-size="10.00">RMF/internal/errors.h</text>
</g>
<!-- Node5&#45;&gt;Node23 -->
<g id="edge113" class="edge"><title>Node5&#45;&gt;Node23</title>
<path fill="none" stroke="midnightblue" d="M1842.14,-555.241C1984.09,-552.667 2387.8,-542.536 2437,-510 2470.33,-487.963 2478,-469.953 2478,-430 2478,-430 2478,-430 2478,-196 2478,-140.582 2416.39,-102.233 2377.04,-83.3901"/>
<polygon fill="midnightblue" stroke="midnightblue" points="2378.11,-80.0301 2367.56,-79.0212 2375.18,-86.3869 2378.11,-80.0301"/>
</g>
<!-- Node28 -->
<g id="node28" class="node"><title>Node28</title>
<g id="a_node28"><a xlink:href="NodeConstHandle_8h.html" target="_top" xlink:title="Handle read/write of Model data from/to files. ">
<polygon fill="none" stroke="black" points="1065.97,-483 1065.97,-503 1172.03,-503 1172.03,-483 1065.97,-483"/>
<text text-anchor="middle" x="1119" y="-489" font-family="Helvetica,sans-Serif" font-size="10.00">NodeConstHandle.h</text>
</a>
</g>
</g>
<!-- Node5&#45;&gt;Node28 -->
<g id="edge44" class="edge"><title>Node5&#45;&gt;Node28</title>
<path fill="none" stroke="midnightblue" d="M1743.71,-551.466C1623.63,-540.42 1316.03,-512.125 1182.48,-499.839"/>
<polygon fill="midnightblue" stroke="midnightblue" points="1182.68,-496.343 1172.4,-498.912 1182.04,-503.313 1182.68,-496.343"/>
</g>
<!-- Node5&#45;&gt;Node30 -->
<g id="edge106" class="edge"><title>Node5&#45;&gt;Node30</title>
<path fill="none" stroke="midnightblue" d="M1842.38,-553.075C1873.92,-548.481 1913.05,-537.21 1936,-510 1962.52,-478.562 1965.5,-454.212 1946,-418 1870.85,-278.457 1745.53,-391.236 1602,-324 1577.02,-312.299 1554.48,-289.389 1540.78,-273.41"/>
<polygon fill="midnightblue" stroke="midnightblue" points="1543.19,-270.832 1534.12,-265.362 1537.8,-275.296 1543.19,-270.832"/>
</g>
<!-- Node5&#45;&gt;Node33 -->
<g id="edge117" class="edge"><title>Node5&#45;&gt;Node33</title>
<path fill="none" stroke="midnightblue" d="M1775.52,-546.94C1762.5,-539.112 1745.69,-526.465 1738,-510 1731.6,-496.31 1729.71,-488.633 1738,-476 1760.06,-442.383 1798.94,-473.617 1821,-440 1826.36,-431.825 1827.03,-425.698 1821,-418 1809.27,-403.016 1553.36,-346.807 1446.37,-323.855"/>
<polygon fill="midnightblue" stroke="midnightblue" points="1447,-320.412 1436.49,-321.74 1445.54,-327.257 1447,-320.412"/>
</g>
<!-- Node5&#45;&gt;Node41 -->
<g id="edge112" class="edge"><title>Node5&#45;&gt;Node41</title>
<path fill="none" stroke="midnightblue" d="M1772.14,-546.942C1752.92,-538.308 1723.86,-524.504 1700,-510 1666.86,-489.851 1631.09,-462.384 1609.89,-445.44"/>
<polygon fill="midnightblue" stroke="midnightblue" points="1611.99,-442.633 1602,-439.082 1607.59,-448.083 1611.99,-442.633"/>
</g>
<!-- Node42 -->
<g id="node42" class="node"><title>Node42</title>
<g id="a_node42"><a xlink:href="constants_8h.html" target="_top" xlink:title="Various utilities for rmfing. ">
<polygon fill="none" stroke="black" points="1758.21,-361 1758.21,-381 1849.79,-381 1849.79,-361 1758.21,-361"/>
<text text-anchor="middle" x="1804" y="-367" font-family="Helvetica,sans-Serif" font-size="10.00">RMF/constants.h</text>
</a>
</g>
</g>
<!-- Node5&#45;&gt;Node42 -->
<g id="edge108" class="edge"><title>Node5&#45;&gt;Node42</title>
<path fill="none" stroke="midnightblue" d="M1842.35,-548.538C1867.21,-542.286 1895.85,-530.853 1914,-510 1934.95,-485.926 1926.42,-471.712 1930,-440 1931.1,-430.284 1935.6,-426.012 1930,-418 1914.15,-395.342 1885.9,-383.807 1860.16,-377.95"/>
<polygon fill="midnightblue" stroke="midnightblue" points="1860.57,-374.463 1850.07,-375.906 1859.18,-381.323 1860.57,-374.463"/>
</g>
<!-- Node5&#45;&gt;Node43 -->
<g id="edge109" class="edge"><title>Node5&#45;&gt;Node43</title>
<path fill="none" stroke="midnightblue" d="M1743.66,-555.136C1510.83,-550.945 532.377,-532.047 510,-510 478.344,-478.81 488.837,-420.497 497.055,-390.648"/>
<polygon fill="midnightblue" stroke="midnightblue" points="500.416,-391.624 499.897,-381.042 493.704,-389.638 500.416,-391.624"/>
</g>
<!-- Node47 -->
<g id="node47" class="node"><title>Node47</title>
<polygon fill="none" stroke="#bfbfbf" points="2305.7,-477 2305.7,-509 2412.3,-509 2412.3,-477 2305.7,-477"/>
<text text-anchor="start" x="2313.7" y="-495" font-family="Helvetica,sans-Serif" font-size="10.00">RMF/internal/shared</text>
<text text-anchor="middle" x="2359" y="-483" font-family="Helvetica,sans-Serif" font-size="10.00">_data_ranges.h</text>
</g>
<!-- Node5&#45;&gt;Node47 -->
<g id="edge114" class="edge"><title>Node5&#45;&gt;Node47</title>
<path fill="none" stroke="midnightblue" d="M1842.35,-554.142C1931.27,-550.22 2124.33,-539.085 2295.73,-510.053"/>
<polygon fill="midnightblue" stroke="midnightblue" points="2296.42,-513.485 2305.68,-508.342 2295.24,-506.586 2296.42,-513.485"/>
</g>
<!-- Node5&#45;&gt;Node48 -->
<g id="edge115" class="edge"><title>Node5&#45;&gt;Node48</title>
<path fill="none" stroke="midnightblue" d="M1751.56,-546.985C1700.69,-535.919 1614.43,-517.152 1559.39,-505.179"/>
<polygon fill="midnightblue" stroke="midnightblue" points="1560.01,-501.732 1549.49,-503.026 1558.52,-508.572 1560.01,-501.732"/>
</g>
<!-- Node49 -->
<g id="node49" class="node"><title>Node49</title>
<polygon fill="none" stroke="#bfbfbf" points="1780.41,-477 1780.41,-509 1887.59,-509 1887.59,-477 1780.41,-477"/>
<text text-anchor="start" x="1788.41" y="-495" font-family="Helvetica,sans-Serif" font-size="10.00">internal/shared_data</text>
<text text-anchor="middle" x="1834" y="-483" font-family="Helvetica,sans-Serif" font-size="10.00">_ranges.h</text>
</g>
<!-- Node5&#45;&gt;Node49 -->
<g id="edge116" class="edge"><title>Node5&#45;&gt;Node49</title>
<path fill="none" stroke="midnightblue" d="M1799.05,-546.852C1804.08,-539.244 1811.47,-528.065 1818.17,-517.945"/>
<polygon fill="midnightblue" stroke="midnightblue" points="1821.19,-519.712 1823.79,-509.44 1815.35,-515.851 1821.19,-519.712"/>
</g>
<!-- Node10&#45;&gt;Node9 -->
<g id="edge43" class="edge"><title>Node10&#45;&gt;Node9</title>
<path fill="none" stroke="midnightblue" d="M1856.54,-303.648C1815.34,-295.103 1750.47,-280.988 1695,-266 1627.47,-247.753 1549.47,-222.023 1508.18,-208.026"/>
<polygon fill="midnightblue" stroke="midnightblue" points="1509.09,-204.64 1498.5,-204.732 1506.84,-211.267 1509.09,-204.64"/>
</g>
<!-- Node10&#45;&gt;Node11 -->
<g id="edge13" class="edge"><title>Node10&#45;&gt;Node11</title>
<path fill="none" stroke="midnightblue" d="M1916.16,-302.865C1954.57,-282.362 2037.74,-230.95 2003,-186 1954.22,-122.874 1710.41,-87.6149 1605.8,-75.1837"/>
<polygon fill="midnightblue" stroke="midnightblue" points="1606.16,-71.7024 1595.83,-74.0176 1605.35,-78.6551 1606.16,-71.7024"/>
</g>
<!-- Node10&#45;&gt;Node13 -->
<g id="edge15" class="edge"><title>Node10&#45;&gt;Node13</title>
<path fill="none" stroke="midnightblue" d="M1856.63,-312.03C1753.31,-311.466 1475.93,-306.013 1249,-266 1213.95,-259.82 1206.94,-250.756 1172,-244 1020.2,-214.651 971.232,-261.022 826,-208 816.362,-204.481 766.683,-169.539 737.83,-148.953"/>
<polygon fill="midnightblue" stroke="midnightblue" points="739.782,-146.046 729.612,-143.076 735.71,-151.74 739.782,-146.046"/>
</g>
<!-- Node10&#45;&gt;Node20 -->
<g id="edge25" class="edge"><title>Node10&#45;&gt;Node20</title>
<path fill="none" stroke="midnightblue" d="M1939.5,-305.244C1968.69,-298.896 2007.47,-287.101 2036,-266 2077.5,-235.305 2107.8,-180.808 2121.63,-152.392"/>
<polygon fill="midnightblue" stroke="midnightblue" points="2124.87,-153.732 2125.98,-143.195 2118.54,-150.743 2124.87,-153.732"/>
</g>
<!-- Node24 -->
<g id="node24" class="node"><title>Node24</title>
<g id="a_node24"><a xlink:href="BufferConstHandle_8h.html" target="_top" xlink:title="Manage a memory buffer for reading/writing RMF files. ">
<polygon fill="none" stroke="black" points="1703.67,-245 1703.67,-265 1812.33,-265 1812.33,-245 1703.67,-245"/>
<text text-anchor="middle" x="1758" y="-251" font-family="Helvetica,sans-Serif" font-size="10.00">BufferConstHandle.h</text>
</a>
</g>
</g>
<!-- Node10&#45;&gt;Node24 -->
<g id="edge32" class="edge"><title>Node10&#45;&gt;Node24</title>
<path fill="none" stroke="midnightblue" d="M1875.19,-302.878C1852.11,-293.644 1816.21,-279.283 1790.22,-268.889"/>
<polygon fill="midnightblue" stroke="midnightblue" points="1791.38,-265.582 1780.8,-265.118 1788.78,-272.082 1791.38,-265.582"/>
</g>
<!-- Node11&#45;&gt;Node12 -->
<g id="edge14" class="edge"><title>Node11&#45;&gt;Node12</title>
<path fill="none" stroke="midnightblue" d="M1519.99,-61.1333C1467.07,-51.5747 1370.67,-34.1602 1308,-22.8388"/>
<polygon fill="midnightblue" stroke="midnightblue" points="1308.32,-19.3406 1297.86,-21.0071 1307.08,-26.2291 1308.32,-19.3406"/>
</g>
<!-- Node13&#45;&gt;Node3 -->
<g id="edge18" class="edge"><title>Node13&#45;&gt;Node3</title>
<path fill="none" stroke="midnightblue" d="M675.657,-122.936C619.97,-110.663 523.828,-89.2365 489,-80 488.114,-79.765 487.216,-79.5224 486.31,-79.2738"/>
<polygon fill="midnightblue" stroke="midnightblue" points="487.11,-75.8621 476.533,-76.4647 485.177,-82.59 487.11,-75.8621"/>
</g>
<!-- Node13&#45;&gt;Node4 -->
<g id="edge24" class="edge"><title>Node13&#45;&gt;Node4</title>
<path fill="none" stroke="midnightblue" d="M656.267,-125.335C536.735,-112.219 274.677,-83.4619 183.791,-73.4886"/>
<polygon fill="midnightblue" stroke="midnightblue" points="184.142,-70.0062 173.82,-72.3944 183.379,-76.9644 184.142,-70.0062"/>
</g>
<!-- Node13&#45;&gt;Node12 -->
<g id="edge19" class="edge"><title>Node13&#45;&gt;Node12</title>
<path fill="none" stroke="midnightblue" d="M763.779,-122.921C804.714,-114.24 865.377,-99.5795 916,-80 935.654,-72.3985 937.997,-64.6269 958,-58 1029.82,-34.2073 1115.83,-22.5412 1175.45,-16.9379"/>
<polygon fill="midnightblue" stroke="midnightblue" points="1175.88,-20.4134 1185.52,-16.0251 1175.24,-13.4419 1175.88,-20.4134"/>
</g>
<!-- Node14 -->
<g id="node14" class="node"><title>Node14</title>
<polygon fill="none" stroke="#bfbfbf" points="967.219,-59 967.219,-79 1018.78,-79 1018.78,-59 967.219,-59"/>
<text text-anchor="middle" x="993" y="-65" font-family="Helvetica,sans-Serif" font-size="10.00">sstream</text>
</g>
<!-- Node13&#45;&gt;Node14 -->
<g id="edge16" class="edge"><title>Node13&#45;&gt;Node14</title>
<path fill="none" stroke="midnightblue" d="M759.088,-122.972C806.16,-112.808 884.643,-95.6647 952,-80 953.668,-79.6121 955.373,-79.2116 957.095,-78.8041"/>
<polygon fill="midnightblue" stroke="midnightblue" points="958.084,-82.1664 966.993,-76.4322 956.453,-75.3591 958.084,-82.1664"/>
</g>
<!-- Node15 -->
<g id="node15" class="node"><title>Node15</title>
<polygon fill="none" stroke="#bfbfbf" points="276.828,-59 276.828,-79 331.172,-79 331.172,-59 276.828,-59"/>
<text text-anchor="middle" x="304" y="-65" font-family="Helvetica,sans-Serif" font-size="10.00">iostream</text>
</g>
<!-- Node13&#45;&gt;Node15 -->
<g id="edge17" class="edge"><title>Node13&#45;&gt;Node15</title>
<path fill="none" stroke="midnightblue" d="M656.946,-122.985C570.374,-109.988 413.05,-86.3707 341.375,-75.6108"/>
<polygon fill="midnightblue" stroke="midnightblue" points="341.849,-72.1428 331.44,-74.1194 340.81,-79.0653 341.849,-72.1428"/>
</g>
<!-- Node16 -->
<g id="node16" class="node"><title>Node16</title>
<polygon fill="none" stroke="#bfbfbf" points="723.98,-59 723.98,-79 800.02,-79 800.02,-59 723.98,-59"/>
<text text-anchor="middle" x="762" y="-65" font-family="Helvetica,sans-Serif" font-size="10.00">internal/use.h</text>
</g>
<!-- Node13&#45;&gt;Node16 -->
<g id="edge20" class="edge"><title>Node13&#45;&gt;Node16</title>
<path fill="none" stroke="midnightblue" d="M723.64,-122.852C730.353,-113.602 740.899,-99.072 749.236,-87.5859"/>
<polygon fill="midnightblue" stroke="midnightblue" points="752.291,-89.3348 755.333,-79.1858 746.626,-85.223 752.291,-89.3348"/>
</g>
<!-- Node17 -->
<g id="node17" class="node"><title>Node17</title>
<polygon fill="none" stroke="#bfbfbf" points="818.306,-59 818.306,-79 907.694,-79 907.694,-59 818.306,-59"/>
<text text-anchor="middle" x="863" y="-65" font-family="Helvetica,sans-Serif" font-size="10.00">boost/config.hpp</text>
</g>
<!-- Node13&#45;&gt;Node17 -->
<g id="edge21" class="edge"><title>Node13&#45;&gt;Node17</title>
<path fill="none" stroke="midnightblue" d="M738.23,-122.985C762.991,-112.47 804.124,-95.002 832.348,-83.0166"/>
<polygon fill="midnightblue" stroke="midnightblue" points="833.908,-86.1566 841.745,-79.0262 831.172,-79.7135 833.908,-86.1566"/>
</g>
<!-- Node18 -->
<g id="node18" class="node"><title>Node18</title>
<polygon fill="none" stroke="#bfbfbf" points="497.53,-59 497.53,-79 592.47,-79 592.47,-59 497.53,-59"/>
<text text-anchor="middle" x="545" y="-65" font-family="Helvetica,sans-Serif" font-size="10.00">boost/version.hpp</text>
</g>
<!-- Node13&#45;&gt;Node18 -->
<g id="edge22" class="edge"><title>Node13&#45;&gt;Node18</title>
<path fill="none" stroke="midnightblue" d="M691.99,-122.985C662.437,-112.332 613.087,-94.5431 579.812,-82.5484"/>
<polygon fill="midnightblue" stroke="midnightblue" points="580.635,-79.1247 570.04,-79.0262 578.261,-85.71 580.635,-79.1247"/>
</g>
<!-- Node19 -->
<g id="node19" class="node"><title>Node19</title>
<polygon fill="none" stroke="#bfbfbf" points="609.971,-59 609.971,-79 706.029,-79 706.029,-59 609.971,-59"/>
<text text-anchor="middle" x="658" y="-65" font-family="Helvetica,sans-Serif" font-size="10.00">boost/foreach.hpp</text>
</g>
<!-- Node13&#45;&gt;Node19 -->
<g id="edge23" class="edge"><title>Node13&#45;&gt;Node19</title>
<path fill="none" stroke="midnightblue" d="M708.294,-122.852C699.231,-113.327 684.839,-98.2042 673.769,-86.5706"/>
<polygon fill="midnightblue" stroke="midnightblue" points="676.17,-84.0172 666.741,-79.1858 671.1,-88.8428 676.17,-84.0172"/>
</g>
<!-- Node20&#45;&gt;Node3 -->
<g id="edge28" class="edge"><title>Node20&#45;&gt;Node3</title>
<path fill="none" stroke="midnightblue" d="M2093.88,-131.124C1860.33,-125.427 570.83,-93.454 489,-80 488.095,-79.8513 487.181,-79.6846 486.261,-79.5026"/>
<polygon fill="midnightblue" stroke="midnightblue" points="486.944,-76.0665 476.399,-77.0892 485.28,-82.8659 486.944,-76.0665"/>
</g>
<!-- Node20&#45;&gt;Node11 -->
<g id="edge29" class="edge"><title>Node20&#45;&gt;Node11</title>
<path fill="none" stroke="midnightblue" d="M2105.36,-122.92C2097.37,-120.299 2088.4,-117.692 2080,-116 1907.82,-81.3128 1698.46,-72.7822 1605.92,-70.6842"/>
<polygon fill="midnightblue" stroke="midnightblue" points="1605.82,-67.1815 1595.75,-70.4692 1605.68,-74.1799 1605.82,-67.1815"/>
</g>
<!-- Node20&#45;&gt;Node12 -->
<g id="edge30" class="edge"><title>Node20&#45;&gt;Node12</title>
<path fill="none" stroke="midnightblue" d="M2135.11,-122.845C2143.05,-107.281 2155.76,-75.6424 2139,-58 2110.97,-28.4892 1528.26,-16.4276 1320.66,-13.0565"/>
<polygon fill="midnightblue" stroke="midnightblue" points="1320.52,-9.55396 1310.47,-12.8931 1320.41,-16.5531 1320.52,-9.55396"/>
</g>
<!-- Node21 -->
<g id="node21" class="node"><title>Node21</title>
<polygon fill="none" stroke="#bfbfbf" points="1902.45,-59 1902.45,-79 2053.55,-79 2053.55,-59 1902.45,-59"/>
<text text-anchor="middle" x="1978" y="-65" font-family="Helvetica,sans-Serif" font-size="10.00">boost/exception/exception.hpp</text>
</g>
<!-- Node20&#45;&gt;Node21 -->
<g id="edge26" class="edge"><title>Node20&#45;&gt;Node21</title>
<path fill="none" stroke="midnightblue" d="M2107.9,-122.985C2082.01,-112.424 2038.92,-94.8493 2009.53,-82.8599"/>
<polygon fill="midnightblue" stroke="midnightblue" points="2010.71,-79.5623 2000.13,-79.0262 2008.07,-86.0439 2010.71,-79.5623"/>
</g>
<!-- Node22 -->
<g id="node22" class="node"><title>Node22</title>
<polygon fill="none" stroke="#bfbfbf" points="2071.6,-59 2071.6,-79 2130.4,-79 2130.4,-59 2071.6,-59"/>
<text text-anchor="middle" x="2101" y="-65" font-family="Helvetica,sans-Serif" font-size="10.00">exception</text>
</g>
<!-- Node20&#45;&gt;Node22 -->
<g id="edge27" class="edge"><title>Node20&#45;&gt;Node22</title>
<path fill="none" stroke="midnightblue" d="M2125.72,-122.852C2121.48,-113.785 2114.87,-99.6454 2109.55,-88.2717"/>
<polygon fill="midnightblue" stroke="midnightblue" points="2112.7,-86.761 2105.3,-79.1858 2106.36,-89.7269 2112.7,-86.761"/>
</g>
<!-- Node20&#45;&gt;Node23 -->
<g id="edge31" class="edge"><title>Node20&#45;&gt;Node23</title>
<path fill="none" stroke="midnightblue" d="M2161.26,-122.985C2198.92,-112.125 2262.29,-93.8504 2303.88,-81.8571"/>
<polygon fill="midnightblue" stroke="midnightblue" points="2305.06,-85.1601 2313.7,-79.0262 2303.12,-78.4341 2305.06,-85.1601"/>
</g>
<!-- Node24&#45;&gt;Node2 -->
<g id="edge39" class="edge"><title>Node24&#45;&gt;Node2</title>
<path fill="none" stroke="midnightblue" d="M1703.52,-251.076C1664.86,-249.026 1611.75,-246.259 1565,-244 1202.08,-226.463 766.84,-207.698 604.364,-200.772"/>
<polygon fill="midnightblue" stroke="midnightblue" points="604.2,-197.262 594.06,-200.334 603.902,-204.256 604.2,-197.262"/>
</g>
<!-- Node24&#45;&gt;Node3 -->
<g id="edge37" class="edge"><title>Node24&#45;&gt;Node3</title>
<path fill="none" stroke="midnightblue" d="M1703.46,-251.067C1522.69,-241.327 954.166,-210.532 945,-208 924.688,-202.389 921.906,-195.307 903,-186 868.745,-169.137 857.047,-170.755 825,-150 805.699,-137.5 807.008,-125.352 786,-116 664.526,-61.9252 619.116,-107.384 489,-80 488.103,-79.8112 487.195,-79.6092 486.281,-79.3963"/>
<polygon fill="midnightblue" stroke="midnightblue" points="487.015,-75.9703 476.453,-76.7991 485.227,-82.738 487.015,-75.9703"/>
</g>
<!-- Node24&#45;&gt;Node9 -->
<g id="edge41" class="edge"><title>Node24&#45;&gt;Node9</title>
<path fill="none" stroke="midnightblue" d="M1712.86,-244.94C1655.25,-233.376 1557.2,-213.696 1508.4,-203.901"/>
<polygon fill="midnightblue" stroke="midnightblue" points="1508.98,-200.448 1498.49,-201.912 1507.6,-207.311 1508.98,-200.448"/>
</g>
<!-- Node24&#45;&gt;Node11 -->
<g id="edge33" class="edge"><title>Node24&#45;&gt;Node11</title>
<path fill="none" stroke="midnightblue" d="M1713.97,-244.997C1693.56,-238.384 1671.18,-227.093 1659,-208 1643.71,-184.029 1677.01,-176.975 1686,-150 1690.78,-135.664 1694.69,-128.361 1686,-116 1667.97,-90.3676 1634.24,-78.9488 1605.93,-73.8954"/>
<polygon fill="midnightblue" stroke="midnightblue" points="1606.2,-70.3958 1595.78,-72.3071 1605.12,-77.3116 1606.2,-70.3958"/>
</g>
<!-- Node24&#45;&gt;Node13 -->
<g id="edge34" class="edge"><title>Node24&#45;&gt;Node13</title>
<path fill="none" stroke="midnightblue" d="M1703.52,-251.179C1517.98,-241.552 921.625,-210.46 912,-208 890.043,-202.389 886.952,-194.636 866,-186 829.132,-170.804 786.023,-156.079 755.687,-146.201"/>
<polygon fill="midnightblue" stroke="midnightblue" points="756.508,-142.788 745.916,-143.043 754.355,-149.449 756.508,-142.788"/>
</g>
<!-- Node24&#45;&gt;Node14 -->
<g id="edge36" class="edge"><title>Node24&#45;&gt;Node14</title>
<path fill="none" stroke="midnightblue" d="M1703.45,-250.902C1597.65,-244.517 1368.29,-228.737 1292,-208 1183.68,-178.556 1065.63,-113.099 1016.49,-84.1916"/>
<polygon fill="midnightblue" stroke="midnightblue" points="1018.26,-81.1698 1007.87,-79.0773 1014.69,-87.19 1018.26,-81.1698"/>
</g>
<!-- Node24&#45;&gt;Node20 -->
<g id="edge38" class="edge"><title>Node24&#45;&gt;Node20</title>
<path fill="none" stroke="midnightblue" d="M1812.47,-249.16C1863.09,-243.417 1939.94,-231.492 2003,-208 2043.08,-193.071 2085.11,-165.975 2109.36,-149.04"/>
<polygon fill="midnightblue" stroke="midnightblue" points="2111.61,-151.734 2117.74,-143.093 2107.56,-146.024 2111.61,-151.734"/>
</g>
<!-- Node25 -->
<g id="node25" class="node"><title>Node25</title>
<polygon fill="none" stroke="#bfbfbf" points="1667.85,-187 1667.85,-207 1786.15,-207 1786.15,-187 1667.85,-187"/>
<text text-anchor="middle" x="1727" y="-193" font-family="Helvetica,sans-Serif" font-size="10.00">boost/exception/all.hpp</text>
</g>
<!-- Node24&#45;&gt;Node25 -->
<g id="edge35" class="edge"><title>Node24&#45;&gt;Node25</title>
<path fill="none" stroke="midnightblue" d="M1752.88,-244.753C1748.55,-236.924 1742.21,-225.476 1736.89,-215.868"/>
<polygon fill="midnightblue" stroke="midnightblue" points="1739.93,-214.129 1732.02,-207.075 1733.8,-217.519 1739.93,-214.129"/>
</g>
<!-- Node26 -->
<g id="node26" class="node"><title>Node26</title>
<polygon fill="none" stroke="#bfbfbf" points="1804.35,-187 1804.35,-207 1927.65,-207 1927.65,-187 1804.35,-187"/>
<text text-anchor="middle" x="1866" y="-193" font-family="Helvetica,sans-Serif" font-size="10.00">boost/make_shared.hpp</text>
</g>
<!-- Node24&#45;&gt;Node26 -->
<g id="edge40" class="edge"><title>Node24&#45;&gt;Node26</title>
<path fill="none" stroke="midnightblue" d="M1775.83,-244.753C1793.13,-235.783 1819.6,-222.06 1839.39,-211.799"/>
<polygon fill="midnightblue" stroke="midnightblue" points="1841.23,-214.786 1848.5,-207.075 1838.01,-208.571 1841.23,-214.786"/>
</g>
<!-- Node27 -->
<g id="node27" class="node"><title>Node27</title>
<polygon fill="none" stroke="#bfbfbf" points="1945.88,-187 1945.88,-207 1994.12,-207 1994.12,-187 1945.88,-187"/>
<text text-anchor="middle" x="1970" y="-193" font-family="Helvetica,sans-Serif" font-size="10.00">stdint.h</text>
</g>
<!-- Node24&#45;&gt;Node27 -->
<g id="edge42" class="edge"><title>Node24&#45;&gt;Node27</title>
<path fill="none" stroke="midnightblue" d="M1794.57,-244.926C1828.58,-236.404 1880.89,-223.085 1935.63,-208.036"/>
<polygon fill="midnightblue" stroke="midnightblue" points="1936.81,-211.342 1945.51,-205.307 1934.94,-204.595 1936.81,-211.342"/>
</g>
<!-- Node28&#45;&gt;Node2 -->
<g id="edge47" class="edge"><title>Node28&#45;&gt;Node2</title>
<path fill="none" stroke="midnightblue" d="M1065.69,-489.498C974.502,-484.438 793.086,-470.749 738,-440 640.414,-385.527 571.286,-262.611 547.795,-216.202"/>
<polygon fill="midnightblue" stroke="midnightblue" points="550.834,-214.452 543.256,-207.048 544.563,-217.562 550.834,-214.452"/>
</g>
<!-- Node28&#45;&gt;Node3 -->
<g id="edge49" class="edge"><title>Node28&#45;&gt;Node3</title>
<path fill="none" stroke="midnightblue" d="M1065.74,-487.043C991.65,-479.42 861.941,-463.224 821,-440 691.352,-366.454 709.493,-289.262 602,-186 560.742,-146.366 506.873,-106.175 477.464,-85.0818"/>
<polygon fill="midnightblue" stroke="midnightblue" points="479.34,-82.1205 469.164,-79.1706 475.279,-87.8224 479.34,-82.1205"/>
</g>
<!-- Node28&#45;&gt;Node4 -->
<g id="edge50" class="edge"><title>Node28&#45;&gt;Node4</title>
<path fill="none" stroke="midnightblue" d="M1065.77,-491.813C967.579,-490.391 751.882,-482.229 576,-440 507.706,-423.603 486.557,-422.251 429,-382 303.827,-294.462 196.918,-139.438 163.118,-87.5052"/>
<polygon fill="midnightblue" stroke="midnightblue" points="166.028,-85.5588 157.67,-79.0475 160.143,-89.3497 166.028,-85.5588"/>
</g>
<!-- Node28&#45;&gt;Node6 -->
<g id="edge46" class="edge"><title>Node28&#45;&gt;Node6</title>
<path fill="none" stroke="midnightblue" d="M1172.06,-487.591C1268.39,-479.451 1478.72,-461.061 1667.31,-440.043"/>
<polygon fill="midnightblue" stroke="midnightblue" points="1667.86,-443.503 1677.41,-438.913 1667.08,-436.547 1667.86,-443.503"/>
</g>
<!-- Node28&#45;&gt;Node11 -->
<g id="edge82" class="edge"><title>Node28&#45;&gt;Node11</title>
<path fill="none" stroke="midnightblue" d="M1149.59,-482.948C1180.46,-473.47 1229.25,-457.544 1270,-440 1339.9,-409.901 1513.28,-321.838 1565,-266 1614.02,-213.076 1661.04,-179.601 1627,-116 1619.38,-101.767 1605.2,-91.1777 1591.67,-83.7704"/>
<polygon fill="midnightblue" stroke="midnightblue" points="1593,-80.52 1582.49,-79.1449 1589.84,-86.771 1593,-80.52"/>
</g>
<!-- Node28&#45;&gt;Node13 -->
<g id="edge84" class="edge"><title>Node28&#45;&gt;Node13</title>
<path fill="none" stroke="midnightblue" d="M1065.92,-487.674C996.604,-481.06 880.185,-466.341 847,-440 752.246,-364.786 725.507,-207.619 718.926,-153.107"/>
<polygon fill="midnightblue" stroke="midnightblue" points="722.397,-152.65 717.81,-143.1 715.44,-153.426 722.397,-152.65"/>
</g>
<!-- Node28&#45;&gt;Node15 -->
<g id="edge48" class="edge"><title>Node28&#45;&gt;Node15</title>
<path fill="none" stroke="midnightblue" d="M1065.72,-491.873C974.063,-490.451 781.325,-482.162 625,-440 601.952,-433.784 598.379,-426.311 576,-418 523.403,-398.466 498.347,-417.625 455,-382 357.56,-301.918 318.456,-143.832 307.481,-89.1472"/>
<polygon fill="midnightblue" stroke="midnightblue" points="310.878,-88.2738 305.555,-79.1128 304.003,-89.5933 310.878,-88.2738"/>
</g>
<!-- Node28&#45;&gt;Node20 -->
<g id="edge83" class="edge"><title>Node28&#45;&gt;Node20</title>
<path fill="none" stroke="midnightblue" d="M1172.06,-483.475C1224.75,-474.512 1307.62,-459.072 1378,-440 1407.03,-432.133 1412.57,-424.232 1442,-418 1623.55,-379.548 1675.23,-414.169 1858,-382 1895.16,-375.459 1903.42,-369.265 1940,-360 2006.88,-343.059 2042.99,-373.549 2091,-324 2136.66,-276.879 2135.41,-191.422 2132.2,-153.281"/>
<polygon fill="midnightblue" stroke="midnightblue" points="2135.66,-152.667 2131.2,-143.058 2128.69,-153.353 2135.66,-152.667"/>
</g>
<!-- Node28&#45;&gt;Node23 -->
<g id="edge86" class="edge"><title>Node28&#45;&gt;Node23</title>
<path fill="none" stroke="midnightblue" d="M1172.12,-484.156C1233.15,-474.862 1336.18,-458.314 1424,-440 1463.89,-431.681 1472.81,-424.735 1513,-418 1689.04,-388.497 1737.58,-415.011 1913,-382 2003.95,-364.884 2034.41,-372.883 2113,-324 2217.63,-258.917 2304.31,-133.753 2334,-87.6286"/>
<polygon fill="midnightblue" stroke="midnightblue" points="2337.05,-89.3536 2339.46,-79.0359 2331.14,-85.6003 2337.05,-89.3536"/>
</g>
<!-- Node29 -->
<g id="node29" class="node"><title>Node29</title>
<polygon fill="none" stroke="#bfbfbf" points="1045.96,-419 1045.96,-439 1124.04,-439 1124.04,-419 1045.96,-419"/>
<text text-anchor="middle" x="1085" y="-425" font-family="Helvetica,sans-Serif" font-size="10.00">boost/any.hpp</text>
</g>
<!-- Node28&#45;&gt;Node29 -->
<g id="edge45" class="edge"><title>Node28&#45;&gt;Node29</title>
<path fill="none" stroke="midnightblue" d="M1113.98,-482.852C1109.01,-473.785 1101.26,-459.645 1095.02,-448.272"/>
<polygon fill="midnightblue" stroke="midnightblue" points="1097.91,-446.271 1090.04,-439.186 1091.78,-449.637 1097.91,-446.271"/>
</g>
<!-- Node28&#45;&gt;Node30 -->
<g id="edge51" class="edge"><title>Node28&#45;&gt;Node30</title>
<path fill="none" stroke="midnightblue" d="M1140.48,-482.887C1193.97,-459.779 1336.65,-395.625 1445,-324 1468.91,-308.194 1493.92,-286.603 1509.94,-272.025"/>
<polygon fill="midnightblue" stroke="midnightblue" points="1512.46,-274.46 1517.44,-265.108 1507.72,-269.313 1512.46,-274.46"/>
</g>
<!-- Node31 -->
<g id="node31" class="node"><title>Node31</title>
<g id="a_node31"><a xlink:href="Nullable_8h.html" target="_top" xlink:title="Handle read/write of Model data from/to files. ">
<polygon fill="none" stroke="black" points="855.544,-419 855.544,-439 940.456,-439 940.456,-419 855.544,-419"/>
<text text-anchor="middle" x="898" y="-425" font-family="Helvetica,sans-Serif" font-size="10.00">RMF/Nullable.h</text>
</a>
</g>
</g>
<!-- Node28&#45;&gt;Node31 -->
<g id="edge56" class="edge"><title>Node28&#45;&gt;Node31</title>
<path fill="none" stroke="midnightblue" d="M1086.86,-482.985C1048.07,-472.102 982.739,-453.773 939.994,-441.781"/>
<polygon fill="midnightblue" stroke="midnightblue" points="940.748,-438.358 930.174,-439.026 938.857,-445.097 940.748,-438.358"/>
</g>
<!-- Node32 -->
<g id="node32" class="node"><title>Node32</title>
<g id="a_node32"><a xlink:href="traits_8h.html" target="_top" xlink:title="Handle read/write of Model data from/to files. ">
<polygon fill="none" stroke="black" points="1078,-361 1078,-381 1124,-381 1124,-361 1078,-361"/>
<text text-anchor="middle" x="1101" y="-367" font-family="Helvetica,sans-Serif" font-size="10.00">traits.h</text>
</a>
</g>
</g>
<!-- Node28&#45;&gt;Node32 -->
<g id="edge104" class="edge"><title>Node28&#45;&gt;Node32</title>
<path fill="none" stroke="midnightblue" d="M1123.62,-482.717C1130.04,-468.529 1140.12,-440.706 1133,-418 1129.71,-407.502 1123.08,-397.302 1116.7,-389.185"/>
<polygon fill="midnightblue" stroke="midnightblue" points="1119.17,-386.681 1110.06,-381.28 1113.81,-391.187 1119.17,-386.681"/>
</g>
<!-- Node28&#45;&gt;Node33 -->
<g id="edge105" class="edge"><title>Node28&#45;&gt;Node33</title>
<path fill="none" stroke="midnightblue" d="M1125.67,-482.814C1143.45,-458.965 1194.57,-394.541 1252,-360 1269.34,-349.574 1317.36,-335.526 1354.05,-325.708"/>
<polygon fill="midnightblue" stroke="midnightblue" points="1355.29,-329 1364.06,-323.057 1353.5,-322.233 1355.29,-329"/>
</g>
<!-- Node28&#45;&gt;Node41 -->
<g id="edge85" class="edge"><title>Node28&#45;&gt;Node41</title>
<path fill="none" stroke="midnightblue" d="M1172.23,-485.008C1255.24,-474.104 1415.99,-452.989 1512.38,-440.327"/>
<polygon fill="midnightblue" stroke="midnightblue" points="1512.91,-443.788 1522.36,-439.016 1511.99,-436.848 1512.91,-443.788"/>
</g>
<!-- Node28&#45;&gt;Node42 -->
<g id="edge87" class="edge"><title>Node28&#45;&gt;Node42</title>
<path fill="none" stroke="midnightblue" d="M1153.6,-482.948C1228.15,-463.456 1397.73,-419.168 1404,-418 1437.01,-411.847 1645.82,-389.015 1747.93,-378.009"/>
<polygon fill="midnightblue" stroke="midnightblue" points="1748.49,-381.469 1758.06,-376.918 1747.74,-374.509 1748.49,-381.469"/>
</g>
<!-- Node28&#45;&gt;Node43 -->
<g id="edge90" class="edge"><title>Node28&#45;&gt;Node43</title>
<path fill="none" stroke="midnightblue" d="M1065.79,-488.967C985.615,-483.597 829.422,-470.02 700,-440 639.82,-426.041 572.283,-400.453 533.972,-384.958"/>
<polygon fill="midnightblue" stroke="midnightblue" points="535.009,-381.601 524.428,-381.061 532.363,-388.082 535.009,-381.601"/>
</g>
<!-- Node46 -->
<g id="node46" class="node"><title>Node46</title>
<g id="a_node46"><a xlink:href="keys_8h.html" target="_top" xlink:title="Handle read/write of Model data from/to files. ">
<polygon fill="none" stroke="black" points="958.33,-419 958.33,-439 1027.67,-439 1027.67,-419 958.33,-419"/>
<text text-anchor="middle" x="993" y="-425" font-family="Helvetica,sans-Serif" font-size="10.00">RMF/keys.h</text>
</a>
</g>
</g>
<!-- Node28&#45;&gt;Node46 -->
<g id="edge99" class="edge"><title>Node28&#45;&gt;Node46</title>
<path fill="none" stroke="midnightblue" d="M1100.68,-482.985C1079.59,-472.607 1044.74,-455.458 1020.42,-443.49"/>
<polygon fill="midnightblue" stroke="midnightblue" points="1021.86,-440.301 1011.34,-439.026 1018.77,-446.582 1021.86,-440.301"/>
</g>
<!-- Node30&#45;&gt;Node9 -->
<g id="edge55" class="edge"><title>Node30&#45;&gt;Node9</title>
<path fill="none" stroke="midnightblue" d="M1519.07,-244.753C1512.08,-236.598 1501.73,-224.516 1493.29,-214.677"/>
<polygon fill="midnightblue" stroke="midnightblue" points="1495.94,-212.39 1486.78,-207.075 1490.63,-216.946 1495.94,-212.39"/>
</g>
<!-- Node30&#45;&gt;Node11 -->
<g id="edge52" class="edge"><title>Node30&#45;&gt;Node11</title>
<path fill="none" stroke="midnightblue" d="M1528.09,-244.666C1530.15,-230.58 1535.77,-203.662 1550,-186 1569.51,-161.785 1594.68,-177.062 1610,-150 1617.45,-136.85 1616.21,-129.778 1610,-116 1604.31,-103.379 1593.26,-92.8246 1582.81,-85.0222"/>
<polygon fill="midnightblue" stroke="midnightblue" points="1584.51,-81.9433 1574.3,-79.1306 1580.53,-87.6994 1584.51,-81.9433"/>
</g>
<!-- Node30&#45;&gt;Node13 -->
<g id="edge53" class="edge"><title>Node30&#45;&gt;Node13</title>
<path fill="none" stroke="midnightblue" d="M1497.59,-252.076C1372.37,-243.865 889.309,-211.997 874,-208 870.613,-207.116 789.388,-168.509 745.134,-147.421"/>
<polygon fill="midnightblue" stroke="midnightblue" points="746.568,-144.227 736.035,-143.084 743.556,-150.546 746.568,-144.227"/>
</g>
<!-- Node30&#45;&gt;Node20 -->
<g id="edge54" class="edge"><title>Node30&#45;&gt;Node20</title>
<path fill="none" stroke="midnightblue" d="M1540.54,-244.876C1563.69,-229.785 1612.85,-199.915 1659,-186 1809.47,-140.635 1997.64,-134.019 2083.47,-133.582"/>
<polygon fill="midnightblue" stroke="midnightblue" points="2083.67,-137.082 2093.66,-133.557 2083.65,-130.082 2083.67,-137.082"/>
</g>
<!-- Node31&#45;&gt;Node9 -->
<g id="edge81" class="edge"><title>Node31&#45;&gt;Node9</title>
<path fill="none" stroke="midnightblue" d="M903.028,-418.599C920.341,-387.295 980.96,-286.186 1063,-244 1080.21,-235.15 1356.93,-209.168 1449.27,-200.701"/>
<polygon fill="midnightblue" stroke="midnightblue" points="1449.71,-204.176 1459.35,-199.78 1449.07,-197.205 1449.71,-204.176"/>
</g>
<!-- Node31&#45;&gt;Node11 -->
<g id="edge57" class="edge"><title>Node31&#45;&gt;Node11</title>
<path fill="none" stroke="midnightblue" d="M900.156,-418.672C903.576,-405.055 911.102,-379.262 923,-360 960.176,-299.811 978.397,-290.169 1032,-244 1053.3,-225.656 1063.36,-227.082 1084,-208 1122.74,-172.188 1112.72,-141.329 1159,-116 1218.41,-83.4804 1417.42,-73.8266 1509.94,-71.0616"/>
<polygon fill="midnightblue" stroke="midnightblue" points="1510.26,-74.5543 1520.15,-70.7717 1510.06,-67.5571 1510.26,-74.5543"/>
</g>
<!-- Node31&#45;&gt;Node13 -->
<g id="edge79" class="edge"><title>Node31&#45;&gt;Node13</title>
<path fill="none" stroke="midnightblue" d="M892.103,-418.847C872.8,-388.835 809.881,-290.592 760,-208 748.532,-189.011 735.815,-167.002 727.207,-151.954"/>
<polygon fill="midnightblue" stroke="midnightblue" points="730.192,-150.124 722.197,-143.172 724.112,-153.593 730.192,-150.124"/>
</g>
<!-- Node31&#45;&gt;Node20 -->
<g id="edge80" class="edge"><title>Node31&#45;&gt;Node20</title>
<path fill="none" stroke="midnightblue" d="M940.522,-419.333C943.386,-418.851 946.232,-418.401 949,-418 1169.68,-386.063 1733.84,-386.1 1948,-324 2033.75,-299.136 2071.17,-287.394 2112,-208 2120.95,-190.591 2125.57,-168.566 2127.87,-153.088"/>
<polygon fill="midnightblue" stroke="midnightblue" points="2131.35,-153.502 2129.17,-143.134 2124.41,-152.598 2131.35,-153.502"/>
</g>
<!-- Node31&#45;&gt;Node32 -->
<g id="edge58" class="edge"><title>Node31&#45;&gt;Node32</title>
<path fill="none" stroke="midnightblue" d="M931.067,-418.878C968.756,-408.481 1030.01,-391.584 1067.77,-381.168"/>
<polygon fill="midnightblue" stroke="midnightblue" points="1069.04,-384.446 1077.75,-378.413 1067.18,-377.698 1069.04,-384.446"/>
</g>
<!-- Node32&#45;&gt;Node9 -->
<g id="edge71" class="edge"><title>Node32&#45;&gt;Node9</title>
<path fill="none" stroke="midnightblue" d="M1112.63,-360.833C1134,-344.139 1179,-309.778 1197,-302 1271.09,-269.981 1300.46,-296.968 1375,-266 1391.28,-259.237 1393.27,-253.681 1408,-244 1424.11,-233.412 1442.36,-221.59 1456.33,-212.582"/>
<polygon fill="midnightblue" stroke="midnightblue" points="1458.31,-215.468 1464.82,-207.11 1454.52,-209.584 1458.31,-215.468"/>
</g>
<!-- Node32&#45;&gt;Node11 -->
<g id="edge59" class="edge"><title>Node32&#45;&gt;Node11</title>
<path fill="none" stroke="midnightblue" d="M1093.38,-360.931C1075.93,-338.995 1036.52,-282.077 1063,-244 1089.26,-206.249 1122.69,-234.883 1160,-208 1202.57,-177.323 1188.39,-141.947 1234,-116 1280.14,-89.753 1431.55,-77.3143 1509.96,-72.51"/>
<polygon fill="midnightblue" stroke="midnightblue" points="1510.29,-75.9967 1520.07,-71.9086 1509.88,-69.009 1510.29,-75.9967"/>
</g>
<!-- Node32&#45;&gt;Node33 -->
<g id="edge60" class="edge"><title>Node32&#45;&gt;Node33</title>
<path fill="none" stroke="midnightblue" d="M1124.46,-365.606C1173.73,-356.379 1288.73,-334.84 1353.51,-322.707"/>
<polygon fill="midnightblue" stroke="midnightblue" points="1354.27,-326.125 1363.46,-320.844 1352.98,-319.245 1354.27,-326.125"/>
</g>
<!-- Node38 -->
<g id="node38" class="node"><title>Node38</title>
<polygon fill="none" stroke="#bfbfbf" points="1072.2,-245 1072.2,-265 1163.8,-265 1163.8,-245 1072.2,-245"/>
<text text-anchor="middle" x="1118" y="-251" font-family="Helvetica,sans-Serif" font-size="10.00">boost/cstdint.hpp</text>
</g>
<!-- Node32&#45;&gt;Node38 -->
<g id="edge70" class="edge"><title>Node32&#45;&gt;Node38</title>
<path fill="none" stroke="midnightblue" d="M1098.87,-360.637C1096.21,-347.41 1092.53,-322.569 1097,-302 1099.1,-292.364 1103.4,-282.328 1107.56,-274.098"/>
<polygon fill="midnightblue" stroke="midnightblue" points="1110.75,-275.565 1112.42,-265.103 1104.59,-272.238 1110.75,-275.565"/>
</g>
<!-- Node39 -->
<g id="node39" class="node"><title>Node39</title>
<polygon fill="none" stroke="#bfbfbf" points="1106.38,-303 1106.38,-323 1149.62,-323 1149.62,-303 1106.38,-303"/>
<text text-anchor="middle" x="1128" y="-309" font-family="Helvetica,sans-Serif" font-size="10.00">cmath</text>
</g>
<!-- Node32&#45;&gt;Node39 -->
<g id="edge72" class="edge"><title>Node32&#45;&gt;Node39</title>
<path fill="none" stroke="midnightblue" d="M1105.46,-360.753C1109.19,-353.006 1114.64,-341.714 1119.24,-332.169"/>
<polygon fill="midnightblue" stroke="midnightblue" points="1122.43,-333.603 1123.62,-323.075 1116.13,-330.563 1122.43,-333.603"/>
</g>
<!-- Node40 -->
<g id="node40" class="node"><title>Node40</title>
<g id="a_node40"><a xlink:href="HDF5_2types_8h.html" target="_top" xlink:title="Handle read/write of Model data from/to files. ">
<polygon fill="none" stroke="red" points="1206.21,-303 1206.21,-323 1307.79,-323 1307.79,-303 1206.21,-303"/>
<text text-anchor="middle" x="1257" y="-309" font-family="Helvetica,sans-Serif" font-size="10.00">RMF/HDF5/types.h</text>
</a>
</g>
</g>
<!-- Node32&#45;&gt;Node40 -->
<g id="edge73" class="edge"><title>Node32&#45;&gt;Node40</title>
<path fill="none" stroke="midnightblue" d="M1124.02,-361.737C1149.91,-352.443 1192.24,-337.247 1222.18,-326.499"/>
<polygon fill="midnightblue" stroke="midnightblue" points="1223.59,-329.713 1231.82,-323.04 1221.22,-323.125 1223.59,-329.713"/>
</g>
<!-- Node33&#45;&gt;Node11 -->
<g id="edge61" class="edge"><title>Node33&#45;&gt;Node11</title>
<path fill="none" stroke="midnightblue" d="M1401.1,-302.964C1404.34,-280.094 1415.97,-219.371 1451,-186 1486.11,-152.549 1524.95,-188.831 1554,-150 1566.98,-132.654 1565.64,-106.796 1562.61,-89.2078"/>
<polygon fill="midnightblue" stroke="midnightblue" points="1566,-88.3351 1560.56,-79.2462 1559.14,-89.7465 1566,-88.3351"/>
</g>
<!-- Node34 -->
<g id="node34" class="node"><title>Node34</title>
<g id="a_node34"><a xlink:href="default__types_8h.html" target="_top" xlink:title="Default implementation for types.h. ">
<polygon fill="none" stroke="black" points="1257.87,-245 1257.87,-265 1366.13,-265 1366.13,-245 1257.87,-245"/>
<text text-anchor="middle" x="1312" y="-251" font-family="Helvetica,sans-Serif" font-size="10.00">RMF/default_types.h</text>
</a>
</g>
</g>
<!-- Node33&#45;&gt;Node34 -->
<g id="edge62" class="edge"><title>Node33&#45;&gt;Node34</title>
<path fill="none" stroke="midnightblue" d="M1385.47,-302.753C1371.76,-294.027 1350.98,-280.805 1335.01,-270.646"/>
<polygon fill="midnightblue" stroke="midnightblue" points="1336.58,-267.491 1326.26,-265.075 1332.82,-273.397 1336.58,-267.491"/>
</g>
<!-- Node34&#45;&gt;Node11 -->
<g id="edge63" class="edge"><title>Node34&#45;&gt;Node11</title>
<path fill="none" stroke="midnightblue" d="M1323.8,-244.961C1342.77,-230.782 1381.61,-203.161 1418,-186 1465.29,-163.697 1492.56,-186.494 1530,-150 1546.67,-133.755 1553.43,-107.044 1556.16,-89.0019"/>
<polygon fill="midnightblue" stroke="midnightblue" points="1559.64,-89.4142 1557.39,-79.0594 1552.69,-88.5523 1559.64,-89.4142"/>
</g>
<!-- Node35 -->
<g id="node35" class="node"><title>Node35</title>
<g id="a_node35"><a xlink:href="Vector_8h.html" target="_top" xlink:title="Represent coordinates. ">
<polygon fill="none" stroke="red" points="1300.93,-187 1300.93,-207 1353.07,-207 1353.07,-187 1300.93,-187"/>
<text text-anchor="middle" x="1327" y="-193" font-family="Helvetica,sans-Serif" font-size="10.00">Vector.h</text>
</a>
</g>
</g>
<!-- Node34&#45;&gt;Node35 -->
<g id="edge64" class="edge"><title>Node34&#45;&gt;Node35</title>
<path fill="none" stroke="midnightblue" d="M1314.48,-244.753C1316.51,-237.169 1319.45,-226.188 1321.97,-216.774"/>
<polygon fill="midnightblue" stroke="midnightblue" points="1325.36,-217.64 1324.57,-207.075 1318.6,-215.829 1325.36,-217.64"/>
</g>
<!-- Node35&#45;&gt;Node11 -->
<g id="edge65" class="edge"><title>Node35&#45;&gt;Node11</title>
<path fill="none" stroke="midnightblue" d="M1353.39,-191.232C1395.64,-183.23 1476.17,-166.36 1500,-150 1522.91,-134.269 1540.05,-106.412 1549.55,-88.0746"/>
<polygon fill="midnightblue" stroke="midnightblue" points="1552.74,-89.5204 1554.03,-79.0043 1546.46,-86.421 1552.74,-89.5204"/>
</g>
<!-- Node35&#45;&gt;Node13 -->
<g id="edge66" class="edge"><title>Node35&#45;&gt;Node13</title>
<path fill="none" stroke="midnightblue" d="M1300.82,-194.118C1226.28,-188.649 1006.61,-171.757 825,-150 811.727,-148.41 797.571,-146.482 784.026,-144.522"/>
<polygon fill="midnightblue" stroke="midnightblue" points="784.214,-141.012 773.811,-143.023 783.197,-147.938 784.214,-141.012"/>
</g>
<!-- Node35&#45;&gt;Node20 -->
<g id="edge67" class="edge"><title>Node35&#45;&gt;Node20</title>
<path fill="none" stroke="midnightblue" d="M1353.12,-193.862C1378.22,-191.817 1417.2,-188.657 1451,-186 1688.78,-167.307 1973.47,-145.783 2083.47,-137.498"/>
<polygon fill="midnightblue" stroke="midnightblue" points="2083.85,-140.98 2093.56,-136.739 2083.33,-133.999 2083.85,-140.98"/>
</g>
<!-- Node36 -->
<g id="node36" class="node"><title>Node36</title>
<polygon fill="none" stroke="#bfbfbf" points="1376.24,-123 1376.24,-143 1491.76,-143 1491.76,-123 1376.24,-123"/>
<text text-anchor="middle" x="1434" y="-129" font-family="Helvetica,sans-Serif" font-size="10.00">boost/range/begin.hpp</text>
</g>
<!-- Node35&#45;&gt;Node36 -->
<g id="edge68" class="edge"><title>Node35&#45;&gt;Node36</title>
<path fill="none" stroke="midnightblue" d="M1342.79,-186.852C1360.33,-176.686 1388.88,-160.143 1409.37,-148.272"/>
<polygon fill="midnightblue" stroke="midnightblue" points="1411.25,-151.228 1418.15,-143.186 1407.74,-145.171 1411.25,-151.228"/>
</g>
<!-- Node37 -->
<g id="node37" class="node"><title>Node37</title>
<polygon fill="none" stroke="#bfbfbf" points="1250.13,-123 1250.13,-143 1357.87,-143 1357.87,-123 1250.13,-123"/>
<text text-anchor="middle" x="1304" y="-129" font-family="Helvetica,sans-Serif" font-size="10.00">boost/range/end.hpp</text>
</g>
<!-- Node35&#45;&gt;Node37 -->
<g id="edge69" class="edge"><title>Node35&#45;&gt;Node37</title>
<path fill="none" stroke="midnightblue" d="M1323.61,-186.852C1320.28,-177.877 1315.1,-163.931 1310.91,-152.617"/>
<polygon fill="midnightblue" stroke="midnightblue" points="1314.17,-151.344 1307.41,-143.186 1307.6,-153.779 1314.17,-151.344"/>
</g>
<!-- Node40&#45;&gt;Node9 -->
<g id="edge78" class="edge"><title>Node40&#45;&gt;Node9</title>
<path fill="none" stroke="midnightblue" d="M1306.99,-302.944C1337.61,-295.939 1376.78,-284.28 1408,-266 1430.87,-252.61 1452.11,-230.452 1465.29,-215.085"/>
<polygon fill="midnightblue" stroke="midnightblue" points="1468.03,-217.267 1471.74,-207.345 1462.65,-212.785 1468.03,-217.267"/>
</g>
<!-- Node40&#45;&gt;Node11 -->
<g id="edge74" class="edge"><title>Node40&#45;&gt;Node11</title>
<path fill="none" stroke="midnightblue" d="M1255.13,-302.877C1253.29,-293.625 1250.56,-278.875 1249,-266 1246.99,-249.431 1230.08,-128.621 1241,-116 1275.17,-76.5097 1429.83,-70.2045 1509.79,-69.6472"/>
<polygon fill="midnightblue" stroke="midnightblue" points="1510.11,-73.146 1520.09,-69.6044 1510.08,-66.146 1510.11,-73.146"/>
</g>
<!-- Node40&#45;&gt;Node23 -->
<g id="edge75" class="edge"><title>Node40&#45;&gt;Node23</title>
<path fill="none" stroke="midnightblue" d="M1307.84,-306.572C1323.01,-305.018 1339.67,-303.374 1355,-302 1660.63,-274.605 1748.86,-307.892 2039,-208 2146.12,-171.12 2267.01,-110.674 2318.98,-83.7192"/>
<polygon fill="midnightblue" stroke="midnightblue" points="2320.61,-86.8147 2327.87,-79.0892 2317.38,-80.6072 2320.61,-86.8147"/>
</g>
<!-- Node40&#45;&gt;Node30 -->
<g id="edge76" class="edge"><title>Node40&#45;&gt;Node30</title>
<path fill="none" stroke="midnightblue" d="M1303.6,-302.961C1349.55,-293.954 1421.72,-279.549 1484,-266 1485.09,-265.764 1486.19,-265.522 1487.3,-265.277"/>
<polygon fill="midnightblue" stroke="midnightblue" points="1488.43,-268.609 1497.42,-262.997 1486.89,-261.78 1488.43,-268.609"/>
</g>
<!-- Node40&#45;&gt;Node38 -->
<g id="edge77" class="edge"><title>Node40&#45;&gt;Node38</title>
<path fill="none" stroke="midnightblue" d="M1234.36,-302.878C1211.44,-293.644 1175.79,-279.283 1149.99,-268.889"/>
<polygon fill="midnightblue" stroke="midnightblue" points="1151.22,-265.609 1140.63,-265.118 1148.6,-272.102 1151.22,-265.609"/>
</g>
<!-- Node42&#45;&gt;Node11 -->
<g id="edge88" class="edge"><title>Node42&#45;&gt;Node11</title>
<path fill="none" stroke="midnightblue" d="M1849.86,-362.327C1924.52,-349.785 2064.26,-326.072 2066,-324 2094.51,-290.054 2120.62,-307.128 2022,-186 1985.41,-141.062 1966.48,-135.76 1912,-116 1807.54,-78.1092 1675.76,-70.7298 1606.16,-69.7093"/>
<polygon fill="midnightblue" stroke="midnightblue" points="1605.99,-66.2073 1595.95,-69.5992 1605.91,-73.2069 1605.99,-66.2073"/>
</g>
<!-- Node42&#45;&gt;Node30 -->
<g id="edge89" class="edge"><title>Node42&#45;&gt;Node30</title>
<path fill="none" stroke="midnightblue" d="M1758.2,-365.889C1697.44,-359.66 1594.32,-346.148 1564,-324 1547.6,-312.019 1537.67,-290.486 1532.28,-274.854"/>
<polygon fill="midnightblue" stroke="midnightblue" points="1535.58,-273.667 1529.26,-265.165 1528.9,-275.753 1535.58,-273.667"/>
</g>
<!-- Node43&#45;&gt;Node3 -->
<g id="edge97" class="edge"><title>Node43&#45;&gt;Node3</title>
<path fill="none" stroke="midnightblue" d="M501.311,-360.884C496.776,-336.269 484.062,-266.383 475,-208 468.441,-165.74 461.878,-116.018 458.445,-89.3058"/>
<polygon fill="midnightblue" stroke="midnightblue" points="461.875,-88.534 457.138,-79.0576 454.932,-89.4202 461.875,-88.534"/>
</g>
<!-- Node43&#45;&gt;Node11 -->
<g id="edge91" class="edge"><title>Node43&#45;&gt;Node11</title>
<path fill="none" stroke="midnightblue" d="M526.67,-360.955C550.198,-351.884 587.258,-337.38 619,-324 624.019,-321.885 792.786,-245.574 798,-244 890.754,-216.008 935.855,-266.614 1013,-208 1048.94,-180.695 1019.07,-141.948 1056,-116 1092.62,-90.2676 1391.29,-76.2864 1509.8,-71.7078"/>
<polygon fill="midnightblue" stroke="midnightblue" points="1510.17,-75.1965 1520.03,-71.3188 1509.9,-68.2015 1510.17,-75.1965"/>
</g>
<!-- Node43&#45;&gt;Node15 -->
<g id="edge98" class="edge"><title>Node43&#45;&gt;Node15</title>
<path fill="none" stroke="midnightblue" d="M496.826,-360.693C468.795,-318.435 353.257,-144.256 315.789,-87.7719"/>
<polygon fill="midnightblue" stroke="midnightblue" points="318.546,-85.5974 310.102,-79.1988 312.713,-89.4669 318.546,-85.5974"/>
</g>
<!-- Node44 -->
<g id="node44" class="node"><title>Node44</title>
<g id="a_node44"><a xlink:href="Enum_8h.html" target="_top" xlink:title="Handle read/write of Model data from/to files. ">
<polygon fill="none" stroke="black" points="953.769,-187 953.769,-207 1004.23,-207 1004.23,-187 953.769,-187"/>
<text text-anchor="middle" x="979" y="-193" font-family="Helvetica,sans-Serif" font-size="10.00">Enum.h</text>
</a>
</g>
</g>
<!-- Node43&#45;&gt;Node44 -->
<g id="edge92" class="edge"><title>Node43&#45;&gt;Node44</title>
<path fill="none" stroke="midnightblue" d="M518.067,-360.937C556.819,-338.005 663.676,-277.148 760,-244 822.918,-222.348 899.671,-209.078 943.586,-202.666"/>
<polygon fill="midnightblue" stroke="midnightblue" points="944.084,-206.131 953.491,-201.255 943.097,-199.2 944.084,-206.131"/>
</g>
<!-- Node44&#45;&gt;Node11 -->
<g id="edge93" class="edge"><title>Node44&#45;&gt;Node11</title>
<path fill="none" stroke="midnightblue" d="M980.455,-186.914C983.728,-169.771 993.406,-132.865 1018,-116 1058.1,-88.5044 1385.45,-75.4219 1510.08,-71.4022"/>
<polygon fill="midnightblue" stroke="midnightblue" points="1510.21,-74.8998 1520.09,-71.0845 1509.99,-67.9033 1510.21,-74.8998"/>
</g>
<!-- Node44&#45;&gt;Node13 -->
<g id="edge94" class="edge"><title>Node44&#45;&gt;Node13</title>
<path fill="none" stroke="midnightblue" d="M953.401,-189.942C909.884,-179.644 820.814,-158.567 765.289,-145.427"/>
<polygon fill="midnightblue" stroke="midnightblue" points="765.868,-141.968 755.33,-143.071 764.256,-148.779 765.868,-141.968"/>
</g>
<!-- Node44&#45;&gt;Node20 -->
<g id="edge95" class="edge"><title>Node44&#45;&gt;Node20</title>
<path fill="none" stroke="midnightblue" d="M1004.38,-194.633C1151.03,-186.733 1890.07,-146.924 2083.57,-136.501"/>
<polygon fill="midnightblue" stroke="midnightblue" points="2083.89,-139.989 2093.69,-135.956 2083.52,-132.999 2083.89,-139.989"/>
</g>
<!-- Node45 -->
<g id="node45" class="node"><title>Node45</title>
<polygon fill="none" stroke="#bfbfbf" points="834.094,-117 834.094,-149 927.906,-149 927.906,-117 834.094,-117"/>
<text text-anchor="start" x="842.094" y="-135" font-family="Helvetica,sans-Serif" font-size="10.00">internal/small_set</text>
<text text-anchor="middle" x="881" y="-123" font-family="Helvetica,sans-Serif" font-size="10.00">_map.h</text>
</g>
<!-- Node44&#45;&gt;Node45 -->
<g id="edge96" class="edge"><title>Node44&#45;&gt;Node45</title>
<path fill="none" stroke="midnightblue" d="M964.54,-186.852C951.21,-178.419 930.941,-165.596 913.707,-154.692"/>
<polygon fill="midnightblue" stroke="midnightblue" points="915.347,-151.588 905.024,-149.199 911.604,-157.503 915.347,-151.588"/>
</g>
<!-- Node46&#45;&gt;Node11 -->
<g id="edge100" class="edge"><title>Node46&#45;&gt;Node11</title>
<path fill="none" stroke="midnightblue" d="M993.453,-418.775C995.345,-389.656 1004.85,-298.407 1051,-244 1073.89,-217.018 1094.45,-230.193 1122,-208 1163.08,-174.908 1150.88,-141.606 1197,-116 1249.7,-86.7456 1424.36,-75.5463 1509.92,-71.739"/>
<polygon fill="midnightblue" stroke="midnightblue" points="1510.31,-75.2258 1520.15,-71.3004 1510.01,-68.2322 1510.31,-75.2258"/>
</g>
<!-- Node46&#45;&gt;Node13 -->
<g id="edge103" class="edge"><title>Node46&#45;&gt;Node13</title>
<path fill="none" stroke="midnightblue" d="M984.437,-418.879C945.319,-377.209 783.325,-204.65 732.396,-150.4"/>
<polygon fill="midnightblue" stroke="midnightblue" points="734.859,-147.91 725.463,-143.015 729.756,-152.701 734.859,-147.91"/>
</g>
<!-- Node46&#45;&gt;Node30 -->
<g id="edge101" class="edge"><title>Node46&#45;&gt;Node30</title>
<path fill="none" stroke="midnightblue" d="M1023.81,-418.949C1093.57,-398.313 1261.76,-347.739 1316,-324 1334.23,-316.021 1336.57,-309.519 1355,-302 1398.89,-284.088 1451.92,-271.129 1487.39,-263.616"/>
<polygon fill="midnightblue" stroke="midnightblue" points="1488.27,-267.008 1497.36,-261.551 1486.85,-260.153 1488.27,-267.008"/>
</g>
<!-- Node46&#45;&gt;Node32 -->
<g id="edge102" class="edge"><title>Node46&#45;&gt;Node32</title>
<path fill="none" stroke="midnightblue" d="M1010.83,-418.753C1028.13,-409.783 1054.6,-396.06 1074.39,-385.799"/>
<polygon fill="midnightblue" stroke="midnightblue" points="1076.23,-388.786 1083.5,-381.075 1073.01,-382.571 1076.23,-388.786"/>
</g>
<!-- Node50&#45;&gt;Node2 -->
<g id="edge120" class="edge"><title>Node50&#45;&gt;Node2</title>
<path fill="none" stroke="midnightblue" d="M933.026,-555.498C816.817,-553.627 485.243,-545.221 453,-510 372.664,-422.243 484.067,-266.2 524.979,-214.877"/>
<polygon fill="midnightblue" stroke="midnightblue" points="527.742,-217.027 531.321,-207.055 522.305,-212.618 527.742,-217.027"/>
</g>
<!-- Node50&#45;&gt;Node3 -->
<g id="edge121" class="edge"><title>Node50&#45;&gt;Node3</title>
<path fill="none" stroke="midnightblue" d="M932.899,-554.994C805.512,-551.519 415.573,-538.629 367,-510 280.674,-459.119 258.47,-399.865 280,-302 299.568,-213.052 302.881,-181.656 366,-116 382.57,-98.7642 406.995,-86.8449 426.221,-79.4653"/>
<polygon fill="midnightblue" stroke="midnightblue" points="427.525,-82.7157 435.732,-76.0159 425.138,-76.1352 427.525,-82.7157"/>
</g>
<!-- Node50&#45;&gt;Node4 -->
<g id="edge122" class="edge"><title>Node50&#45;&gt;Node4</title>
<path fill="none" stroke="midnightblue" d="M932.981,-555.909C808.842,-555.204 431.754,-549.759 317,-510 213.916,-474.285 114,-481.095 114,-372 114,-372 114,-372 114,-196 114,-156.216 131.58,-112.259 142.825,-88.2124"/>
<polygon fill="midnightblue" stroke="midnightblue" points="145.983,-89.7219 147.187,-79.1957 139.682,-86.6736 145.983,-89.7219"/>
</g>
<!-- Node50&#45;&gt;Node11 -->
<g id="edge126" class="edge"><title>Node50&#45;&gt;Node11</title>
<path fill="none" stroke="midnightblue" d="M956.263,-546.898C927.49,-530.166 869.567,-491.466 847,-440 840.382,-424.907 841.994,-379.071 852,-360 901.28,-266.07 959.161,-281.124 1036,-208 1076.11,-169.83 1070.58,-140.964 1120,-116 1187.32,-81.9979 1410.97,-73.084 1510.05,-70.7836"/>
<polygon fill="midnightblue" stroke="midnightblue" points="1510.16,-74.2819 1520.09,-70.5634 1510.01,-67.2836 1510.16,-74.2819"/>
</g>
<!-- Node50&#45;&gt;Node13 -->
<g id="edge129" class="edge"><title>Node50&#45;&gt;Node13</title>
<path fill="none" stroke="midnightblue" d="M932.958,-556.266C822.888,-556.427 518.019,-552.884 429,-510 358.473,-476.025 336.939,-454.739 308,-382 266.849,-278.564 253.317,-309.649 475,-186 527.842,-156.526 595.762,-143.744 646.191,-138.208"/>
<polygon fill="midnightblue" stroke="midnightblue" points="646.764,-141.667 656.353,-137.164 646.048,-134.704 646.764,-141.667"/>
</g>
<!-- Node50&#45;&gt;Node20 -->
<g id="edge128" class="edge"><title>Node50&#45;&gt;Node20</title>
<path fill="none" stroke="midnightblue" d="M1013.01,-555.666C1109.89,-554.266 1364.45,-547.048 1573,-510 1685.76,-489.968 1712.53,-476.746 1821,-440 1953.26,-395.196 2011.46,-419.861 2113,-324 2159.01,-280.563 2158.49,-248.399 2148,-186 2146.09,-174.654 2142,-162.474 2138.19,-152.756"/>
<polygon fill="midnightblue" stroke="midnightblue" points="2141.35,-151.239 2134.3,-143.334 2134.88,-153.913 2141.35,-151.239"/>
</g>
<!-- Node50&#45;&gt;Node28 -->
<g id="edge124" class="edge"><title>Node50&#45;&gt;Node28</title>
<path fill="none" stroke="midnightblue" d="M994.23,-546.985C1018.99,-536.47 1060.12,-519.002 1088.35,-507.017"/>
<polygon fill="midnightblue" stroke="midnightblue" points="1089.91,-510.157 1097.74,-503.026 1087.17,-503.713 1089.91,-510.157"/>
</g>
<!-- Node50&#45;&gt;Node30 -->
<g id="edge123" class="edge"><title>Node50&#45;&gt;Node30</title>
<path fill="none" stroke="midnightblue" d="M1013.35,-553.926C1063.43,-550.141 1150.59,-539.533 1219,-510 1347.79,-454.402 1373.24,-421.599 1474,-324 1490.05,-308.452 1505.41,-287.912 1515.42,-273.49"/>
<polygon fill="midnightblue" stroke="midnightblue" points="1518.45,-275.248 1521.18,-265.01 1512.66,-271.314 1518.45,-275.248"/>
</g>
<!-- Node50&#45;&gt;Node31 -->
<g id="edge125" class="edge"><title>Node50&#45;&gt;Node31</title>
<path fill="none" stroke="midnightblue" d="M967.606,-546.938C955.341,-526.334 925.166,-475.639 908.866,-448.255"/>
<polygon fill="midnightblue" stroke="midnightblue" points="911.67,-446.122 903.547,-439.319 905.655,-449.703 911.67,-446.122"/>
</g>
<!-- Node50&#45;&gt;Node33 -->
<g id="edge132" class="edge"><title>Node50&#45;&gt;Node33</title>
<path fill="none" stroke="midnightblue" d="M1013.33,-553.884C1057.09,-550.094 1127.8,-539.518 1181,-510 1262.62,-464.711 1255.54,-418.839 1328,-360 1342.64,-348.111 1360.5,-336.685 1374.77,-328.194"/>
<polygon fill="midnightblue" stroke="midnightblue" points="1376.69,-331.128 1383.56,-323.063 1373.16,-325.083 1376.69,-331.128"/>
</g>
<!-- Node50&#45;&gt;Node41 -->
<g id="edge130" class="edge"><title>Node50&#45;&gt;Node41</title>
<path fill="none" stroke="midnightblue" d="M1013.27,-554.491C1105.54,-550.581 1329.63,-538.376 1399,-510 1421.55,-500.776 1420.44,-487.342 1442,-476 1471.79,-460.329 1507.79,-449.029 1536.95,-441.551"/>
<polygon fill="midnightblue" stroke="midnightblue" points="1538.09,-444.874 1546.95,-439.065 1536.4,-438.08 1538.09,-444.874"/>
</g>
<!-- Node50&#45;&gt;Node43 -->
<g id="edge127" class="edge"><title>Node50&#45;&gt;Node43</title>
<path fill="none" stroke="midnightblue" d="M932.874,-555.351C819.481,-553.106 502.871,-543.835 472,-510 444.441,-479.794 460.053,-457.105 472,-418 475.182,-407.584 481.603,-397.393 487.78,-389.262"/>
<polygon fill="midnightblue" stroke="midnightblue" points="490.632,-391.302 494.221,-381.334 485.199,-386.888 490.632,-391.302"/>
</g>
<!-- Node50&#45;&gt;Node48 -->
<g id="edge131" class="edge"><title>Node50&#45;&gt;Node48</title>
<path fill="none" stroke="midnightblue" d="M1013.25,-553.68C1094,-548.658 1281.37,-535.153 1437,-510 1445.16,-508.681 1453.78,-506.992 1462.1,-505.208"/>
<polygon fill="midnightblue" stroke="midnightblue" points="1463.04,-508.584 1472.05,-503.003 1461.53,-501.75 1463.04,-508.584"/>
</g>
</g>
</svg>
