<?xml version="1.0" encoding="UTF-8" standalone="no"?>
<!DOCTYPE svg PUBLIC "-//W3C//DTD SVG 1.1//EN"
 "http://www.w3.org/Graphics/SVG/1.1/DTD/svg11.dtd">
<!-- Generated by graphviz version 2.34.0 (20131025.1349)
 -->
<!-- Title: FileHandle.h Pages: 1 -->
<svg width="2585pt" height="634pt"
 viewBox="0.00 0.00 2585.00 634.00" xmlns="http://www.w3.org/2000/svg" xmlns:xlink="http://www.w3.org/1999/xlink">
<g id="graph0" class="graph" transform="scale(1 1) rotate(0) translate(4 630)">
<title>FileHandle.h</title>
<!-- Node1 -->
<g id="node1" class="node"><title>Node1</title>
<polygon fill="#bfbfbf" stroke="black" points="1180.93,-605 1180.93,-625 1253.07,-625 1253.07,-605 1180.93,-605"/>
<text text-anchor="middle" x="1217" y="-611" font-family="Helvetica,sans-Serif" font-size="10.00">FileHandle.h</text>
</g>
<!-- Node2 -->
<g id="node2" class="node"><title>Node2</title>
<polygon fill="none" stroke="#bfbfbf" points="2315.02,-187 2315.02,-207 2424.98,-207 2424.98,-187 2315.02,-187"/>
<text text-anchor="middle" x="2370" y="-193" font-family="Helvetica,sans-Serif" font-size="10.00">boost/shared_ptr.hpp</text>
</g>
<!-- Node1&#45;&gt;Node2 -->
<g id="edge1" class="edge"><title>Node1&#45;&gt;Node2</title>
<path fill="none" stroke="midnightblue" d="M1253.2,-613.277C1410.52,-609.994 2035.52,-595.449 2230,-568 2369.83,-548.264 2539,-635.217 2539,-494 2539,-494 2539,-494 2539,-428 2539,-329.982 2438.09,-246.115 2392.22,-213.054"/>
<polygon fill="midnightblue" stroke="midnightblue" points="2394.02,-210.037 2383.83,-207.13 2389.98,-215.756 2394.02,-210.037"/>
</g>
<!-- Node3 -->
<g id="node3" class="node"><title>Node3</title>
<polygon fill="none" stroke="#bfbfbf" points="414.773,-59 414.773,-79 455.227,-79 455.227,-59 414.773,-59"/>
<text text-anchor="middle" x="435" y="-65" font-family="Helvetica,sans-Serif" font-size="10.00">string</text>
</g>
<!-- Node1&#45;&gt;Node3 -->
<g id="edge2" class="edge"><title>Node1&#45;&gt;Node3</title>
<path fill="none" stroke="midnightblue" d="M1180.68,-614.038C1038.02,-613.885 516.112,-610.375 357,-568 235.192,-535.56 152,-498.054 152,-372 152,-372 152,-372 152,-196 152,-141.151 331.653,-93.7175 404.68,-76.7018"/>
<polygon fill="midnightblue" stroke="midnightblue" points="405.683,-80.0627 414.647,-74.4148 404.118,-73.24 405.683,-80.0627"/>
</g>
<!-- Node4 -->
<g id="node4" class="node"><title>Node4</title>
<polygon fill="none" stroke="#bfbfbf" points="92.3843,-59 92.3843,-79 135.616,-79 135.616,-59 92.3843,-59"/>
<text text-anchor="middle" x="114" y="-65" font-family="Helvetica,sans-Serif" font-size="10.00">vector</text>
</g>
<!-- Node1&#45;&gt;Node4 -->
<g id="edge3" class="edge"><title>Node1&#45;&gt;Node4</title>
<path fill="none" stroke="midnightblue" d="M1180.75,-614.207C982.45,-614.872 38,-611.853 38,-494 38,-494 38,-494 38,-196 38,-151.21 73.6481,-108.67 96.1153,-86.3076"/>
<polygon fill="midnightblue" stroke="midnightblue" points="98.6524,-88.7236 103.433,-79.2684 93.7993,-83.6789 98.6524,-88.7236"/>
</g>
<!-- Node5 -->
<g id="node5" class="node"><title>Node5</title>
<g id="a_node5"><a xlink:href="FileConstHandle_8h.html" target="_top" xlink:title="Handle read/write of Model data from/to files. ">
<polygon fill="none" stroke="black" points="1611.87,-547 1611.87,-567 1710.13,-567 1710.13,-547 1611.87,-547"/>
<text text-anchor="middle" x="1661" y="-553" font-family="Helvetica,sans-Serif" font-size="10.00">FileConstHandle.h</text>
</a>
</g>
</g>
<!-- Node1&#45;&gt;Node5 -->
<g id="edge4" class="edge"><title>Node1&#45;&gt;Node5</title>
<path fill="none" stroke="midnightblue" d="M1253.33,-609.417C1329.89,-599.761 1508.39,-577.248 1601.73,-565.475"/>
<polygon fill="midnightblue" stroke="midnightblue" points="1602.38,-568.921 1611.86,-564.197 1601.5,-561.976 1602.38,-568.921"/>
</g>
<!-- Node11 -->
<g id="node11" class="node"><title>Node11</title>
<g id="a_node11"><a xlink:href="config_8h_source.html" target="_top" xlink:title="RMF/config.h">
<polygon fill="none" stroke="black" points="1639.27,-59 1639.27,-79 1714.73,-79 1714.73,-59 1639.27,-59"/>
<text text-anchor="middle" x="1677" y="-65" font-family="Helvetica,sans-Serif" font-size="10.00">RMF/config.h</text>
</a>
</g>
</g>
<!-- Node1&#45;&gt;Node11 -->
<g id="edge132" class="edge"><title>Node1&#45;&gt;Node11</title>
<path fill="none" stroke="midnightblue" d="M1253.09,-614.059C1425.28,-614.116 2164.29,-611.76 2390,-568 2477.75,-550.988 2577,-583.382 2577,-494 2577,-494 2577,-494 2577,-196 2577,-107.642 2480.85,-136.922 2395,-116 2267.41,-84.9041 1865.02,-73.8568 1725.33,-70.9023"/>
<polygon fill="midnightblue" stroke="midnightblue" points="1725.03,-67.3954 1714.96,-70.6876 1724.88,-74.3939 1725.03,-67.3954"/>
</g>
<!-- Node12 -->
<g id="node12" class="node"><title>Node12</title>
<g id="a_node12"><a xlink:href="compiler__macros_8h.html" target="_top" xlink:title="Various compiler workarounds. ">
<polygon fill="none" stroke="black" points="1013.54,-1 1013.54,-21 1138.46,-21 1138.46,-1 1013.54,-1"/>
<text text-anchor="middle" x="1076" y="-7" font-family="Helvetica,sans-Serif" font-size="10.00">RMF/compiler_macros.h</text>
</a>
</g>
</g>
<!-- Node1&#45;&gt;Node12 -->
<g id="edge134" class="edge"><title>Node1&#45;&gt;Node12</title>
<path fill="none" stroke="midnightblue" d="M1180.89,-613.616C1002.34,-611.567 218.425,-600.759 115,-568 57.0586,-549.647 0,-554.778 0,-494 0,-494 0,-494 0,-132 0,-82.5787 37.2376,-76.662 83,-58 167.363,-23.5966 788.196,-14.651 1003.06,-12.5729"/>
<polygon fill="midnightblue" stroke="midnightblue" points="1003.32,-16.0707 1013.29,-12.4762 1003.26,-9.07098 1003.32,-16.0707"/>
</g>
<!-- Node30 -->
<g id="node30" class="node"><title>Node30</title>
<g id="a_node30"><a xlink:href="ID_8h.html" target="_top" xlink:title="Handle read/write of Model data from/to files. ">
<polygon fill="none" stroke="black" points="1306.61,-245 1306.61,-265 1365.39,-265 1365.39,-245 1306.61,-245"/>
<text text-anchor="middle" x="1336" y="-251" font-family="Helvetica,sans-Serif" font-size="10.00">RMF/ID.h</text>
</a>
</g>
</g>
<!-- Node1&#45;&gt;Node30 -->
<g id="edge117" class="edge"><title>Node1&#45;&gt;Node30</title>
<path fill="none" stroke="midnightblue" d="M1253.25,-614.178C1405.84,-614.633 1996.41,-613.369 2176,-568 2233.82,-553.393 2260.41,-557.09 2297,-510 2316.47,-484.948 2307.87,-471.573 2311,-440 2317.54,-373.964 2310.73,-336.42 2254,-302 2215.94,-278.907 1546.4,-261.114 1375.47,-256.935"/>
<polygon fill="midnightblue" stroke="midnightblue" points="1375.48,-253.434 1365.4,-256.69 1375.31,-260.432 1375.48,-253.434"/>
</g>
<!-- Node32 -->
<g id="node32" class="node"><title>Node32</title>
<polygon fill="none" stroke="#bfbfbf" points="1504.14,-419 1504.14,-439 1641.86,-439 1641.86,-419 1504.14,-419"/>
<text text-anchor="middle" x="1573" y="-425" font-family="Helvetica,sans-Serif" font-size="10.00">RMF/internal/SharedData.h</text>
</g>
<!-- Node1&#45;&gt;Node32 -->
<g id="edge133" class="edge"><title>Node1&#45;&gt;Node32</title>
<path fill="none" stroke="midnightblue" d="M1253.28,-613.192C1428.97,-608.91 2185.68,-586.125 2254,-510 2264.09,-498.754 2264.32,-487.039 2254,-476 2213.66,-432.84 1822.9,-429.009 1652.16,-429.423"/>
<polygon fill="midnightblue" stroke="midnightblue" points="1651.97,-425.924 1641.98,-429.454 1651.99,-432.924 1651.97,-425.924"/>
</g>
<!-- Node34 -->
<g id="node34" class="node"><title>Node34</title>
<g id="a_node34"><a xlink:href="enums_8h.html" target="_top" xlink:title="Handle read/write of Model data from/to files. ">
<polygon fill="none" stroke="black" points="305.604,-361 305.604,-381 384.396,-381 384.396,-361 305.604,-361"/>
<text text-anchor="middle" x="345" y="-367" font-family="Helvetica,sans-Serif" font-size="10.00">RMF/enums.h</text>
</a>
</g>
</g>
<!-- Node1&#45;&gt;Node34 -->
<g id="edge135" class="edge"><title>Node1&#45;&gt;Node34</title>
<path fill="none" stroke="midnightblue" d="M1180.65,-612.932C1013.78,-607.653 326.633,-581.656 267,-510 233.872,-470.192 291.596,-414.34 324.504,-387.541"/>
<polygon fill="midnightblue" stroke="midnightblue" points="326.987,-390.04 332.65,-381.085 322.639,-384.554 326.987,-390.04"/>
</g>
<!-- Node39 -->
<g id="node39" class="node"><title>Node39</title>
<g id="a_node39"><a xlink:href="types_8h.html" target="_top" xlink:title="RMF/types.h">
<polygon fill="none" stroke="black" points="2172.66,-303 2172.66,-323 2245.34,-323 2245.34,-303 2172.66,-303"/>
<text text-anchor="middle" x="2209" y="-309" font-family="Helvetica,sans-Serif" font-size="10.00">RMF/types.h</text>
</a>
</g>
</g>
<!-- Node1&#45;&gt;Node39 -->
<g id="edge137" class="edge"><title>Node1&#45;&gt;Node39</title>
<path fill="none" stroke="midnightblue" d="M1253.32,-613.481C1398.45,-611.196 1936.96,-600.652 2104,-568 2181.11,-552.926 2215.2,-565.315 2271,-510 2301.09,-480.17 2305.74,-459.238 2296,-418 2289.38,-389.951 2285.17,-382.374 2267,-360 2257.19,-347.915 2243.68,-336.968 2232.16,-328.788"/>
<polygon fill="midnightblue" stroke="midnightblue" points="2234.07,-325.853 2223.84,-323.098 2230.12,-331.632 2234.07,-325.853"/>
</g>
<!-- Node48 -->
<g id="node48" class="node"><title>Node48</title>
<polygon fill="none" stroke="#bfbfbf" points="276.357,-483 276.357,-503 389.643,-503 389.643,-483 276.357,-483"/>
<text text-anchor="middle" x="333" y="-489" font-family="Helvetica,sans-Serif" font-size="10.00">internal/SharedData.h</text>
</g>
<!-- Node1&#45;&gt;Node48 -->
<g id="edge136" class="edge"><title>Node1&#45;&gt;Node48</title>
<path fill="none" stroke="midnightblue" d="M1180.69,-611.689C1098.91,-606.249 894.12,-591.309 724,-568 580.799,-548.379 545.645,-538.783 404,-510 396.682,-508.513 388.958,-506.86 381.407,-505.196"/>
<polygon fill="midnightblue" stroke="midnightblue" points="382.149,-501.776 371.627,-503.017 380.627,-508.608 382.149,-501.776"/>
</g>
<!-- Node50 -->
<g id="node50" class="node"><title>Node50</title>
<g id="a_node50"><a xlink:href="NodeHandle_8h.html" target="_top" xlink:title="Handle read/write of Model data from/to files. ">
<polygon fill="none" stroke="black" points="733.032,-547 733.032,-567 812.968,-567 812.968,-547 733.032,-547"/>
<text text-anchor="middle" x="773" y="-553" font-family="Helvetica,sans-Serif" font-size="10.00">NodeHandle.h</text>
</a>
</g>
</g>
<!-- Node1&#45;&gt;Node50 -->
<g id="edge118" class="edge"><title>Node1&#45;&gt;Node50</title>
<path fill="none" stroke="midnightblue" d="M1180.67,-609.417C1101.49,-599.432 913.297,-575.695 823.007,-564.307"/>
<polygon fill="midnightblue" stroke="midnightblue" points="823.376,-560.826 813.016,-563.047 822.5,-567.771 823.376,-560.826"/>
</g>
<!-- Node5&#45;&gt;Node2 -->
<g id="edge7" class="edge"><title>Node5&#45;&gt;Node2</title>
<path fill="none" stroke="midnightblue" d="M1710.32,-554.445C1849.87,-549.761 2240.81,-534.579 2293,-510 2369.78,-473.838 2425,-456.874 2425,-372 2425,-372 2425,-372 2425,-312 2425,-274.506 2400.57,-236.35 2384.27,-215.07"/>
<polygon fill="midnightblue" stroke="midnightblue" points="2386.84,-212.682 2377.88,-207.035 2381.37,-217.04 2386.84,-212.682"/>
</g>
<!-- Node5&#45;&gt;Node3 -->
<g id="edge10" class="edge"><title>Node5&#45;&gt;Node3</title>
<path fill="none" stroke="midnightblue" d="M1611.56,-555.415C1425.43,-552.976 773.073,-542.189 686,-510 597.511,-477.288 419,-265.891 419,-256 419,-256 419,-256 419,-196 419,-157.756 426.344,-113.499 431.081,-88.9298"/>
<polygon fill="midnightblue" stroke="midnightblue" points="434.514,-89.6107 433.038,-79.1191 427.649,-88.2411 434.514,-89.6107"/>
</g>
<!-- Node5&#45;&gt;Node4 -->
<g id="edge11" class="edge"><title>Node5&#45;&gt;Node4</title>
<path fill="none" stroke="midnightblue" d="M1611.75,-555.663C1420.7,-554.104 728.5,-546.035 512,-510 459.845,-501.319 449.387,-488.444 398,-476 267.357,-444.362 114,-506.419 114,-372 114,-372 114,-372 114,-196 114,-158.231 114,-114.095 114,-89.3594"/>
<polygon fill="midnightblue" stroke="midnightblue" points="117.5,-89.1695 114,-79.1696 110.5,-89.1696 117.5,-89.1695"/>
</g>
<!-- Node6 -->
<g id="node6" class="node"><title>Node6</title>
<polygon fill="none" stroke="#bfbfbf" points="1313.79,-419 1313.79,-439 1448.21,-439 1448.21,-419 1313.79,-419"/>
<text text-anchor="middle" x="1381" y="-425" font-family="Helvetica,sans-Serif" font-size="10.00">boost/current_function.hpp</text>
</g>
<!-- Node5&#45;&gt;Node6 -->
<g id="edge5" class="edge"><title>Node5&#45;&gt;Node6</title>
<path fill="none" stroke="midnightblue" d="M1640.86,-546.938C1592.14,-525.015 1467.73,-469.027 1410.55,-443.298"/>
<polygon fill="midnightblue" stroke="midnightblue" points="1411.89,-440.061 1401.33,-439.149 1409.01,-446.444 1411.89,-440.061"/>
</g>
<!-- Node7 -->
<g id="node7" class="node"><title>Node7</title>
<polygon fill="none" stroke="#bfbfbf" points="1929.01,-483 1929.01,-503 2058.99,-503 2058.99,-483 1929.01,-483"/>
<text text-anchor="middle" x="1994" y="-489" font-family="Helvetica,sans-Serif" font-size="10.00">boost/functional/hash.hpp</text>
</g>
<!-- Node5&#45;&gt;Node7 -->
<g id="edge6" class="edge"><title>Node5&#45;&gt;Node7</title>
<path fill="none" stroke="midnightblue" d="M1710.55,-547.676C1762.56,-538.819 1846.67,-524.16 1919,-510 1926.72,-508.489 1934.87,-506.824 1942.84,-505.156"/>
<polygon fill="midnightblue" stroke="midnightblue" points="1943.73,-508.545 1952.79,-503.053 1942.28,-501.696 1943.73,-508.545"/>
</g>
<!-- Node8 -->
<g id="node8" class="node"><title>Node8</title>
<polygon fill="none" stroke="#bfbfbf" points="2076.83,-483 2076.83,-503 2121.17,-503 2121.17,-483 2076.83,-483"/>
<text text-anchor="middle" x="2099" y="-489" font-family="Helvetica,sans-Serif" font-size="10.00">iosfwd</text>
</g>
<!-- Node5&#45;&gt;Node8 -->
<g id="edge8" class="edge"><title>Node5&#45;&gt;Node8</title>
<path fill="none" stroke="midnightblue" d="M1710.22,-555.925C1787.71,-554.593 1942.2,-547.002 2067,-510 2069.45,-509.274 2071.94,-508.368 2074.39,-507.359"/>
<polygon fill="midnightblue" stroke="midnightblue" points="2075.91,-510.511 2083.5,-503.119 2072.96,-504.165 2075.91,-510.511"/>
</g>
<!-- Node9 -->
<g id="node9" class="node"><title>Node9</title>
<polygon fill="none" stroke="#bfbfbf" points="1236.61,-187 1236.61,-207 1275.39,-207 1275.39,-187 1236.61,-187"/>
<text text-anchor="middle" x="1256" y="-193" font-family="Helvetica,sans-Serif" font-size="10.00">limits</text>
</g>
<!-- Node5&#45;&gt;Node9 -->
<g id="edge9" class="edge"><title>Node5&#45;&gt;Node9</title>
<path fill="none" stroke="midnightblue" d="M1667.59,-546.674C1673.47,-537.744 1681.65,-523.648 1685,-510 1694.85,-469.83 1695.66,-451.203 1671,-418 1625.39,-356.593 1442.85,-277.329 1374,-244 1344.56,-229.749 1309.49,-216.529 1285.28,-207.953"/>
<polygon fill="midnightblue" stroke="midnightblue" points="1286.21,-204.57 1275.61,-204.572 1283.9,-211.177 1286.21,-204.57"/>
</g>
<!-- Node10 -->
<g id="node10" class="node"><title>Node10</title>
<g id="a_node10"><a xlink:href="BufferHandle_8h.html" target="_top" xlink:title="Manage a memory buffer for reading/writing RMF files. ">
<polygon fill="none" stroke="black" points="1591.73,-303 1591.73,-323 1674.27,-323 1674.27,-303 1591.73,-303"/>
<text text-anchor="middle" x="1633" y="-309" font-family="Helvetica,sans-Serif" font-size="10.00">BufferHandle.h</text>
</a>
</g>
</g>
<!-- Node5&#45;&gt;Node10 -->
<g id="edge12" class="edge"><title>Node5&#45;&gt;Node10</title>
<path fill="none" stroke="midnightblue" d="M1681.65,-546.865C1700.31,-538.281 1728.26,-524.6 1751,-510 1771.5,-496.837 1773.18,-488.65 1794,-476 1827.32,-455.755 1852.83,-472.742 1874,-440 1879.31,-431.789 1879.37,-426.17 1874,-418 1832.07,-354.245 1741.89,-329.398 1684.51,-319.837"/>
<polygon fill="midnightblue" stroke="midnightblue" points="1684.97,-316.367 1674.55,-318.275 1683.89,-323.282 1684.97,-316.367"/>
</g>
<!-- Node5&#45;&gt;Node11 -->
<g id="edge106" class="edge"><title>Node5&#45;&gt;Node11</title>
<path fill="none" stroke="midnightblue" d="M1710.3,-556.579C1846.8,-557.568 2227.19,-556.002 2342,-510 2428.86,-475.198 2501,-465.571 2501,-372 2501,-372 2501,-372 2501,-196 2501,-89.4482 2379.24,-138.055 2275,-116 2073.84,-73.44 1827.2,-69.1683 1724.94,-69.4399"/>
<polygon fill="midnightblue" stroke="midnightblue" points="1724.91,-65.9399 1714.92,-69.4826 1724.94,-72.9398 1724.91,-65.9399"/>
</g>
<!-- Node13 -->
<g id="node13" class="node"><title>Node13</title>
<g id="a_node13"><a xlink:href="infrastructure__macros_8h.html" target="_top" xlink:title="Various general useful macros for IMP. ">
<polygon fill="none" stroke="black" points="778.48,-123 778.48,-143 899.52,-143 899.52,-123 778.48,-123"/>
<text text-anchor="middle" x="839" y="-129" font-family="Helvetica,sans-Serif" font-size="10.00">infrastructure_macros.h</text>
</a>
</g>
</g>
<!-- Node5&#45;&gt;Node13 -->
<g id="edge110" class="edge"><title>Node5&#45;&gt;Node13</title>
<path fill="none" stroke="midnightblue" d="M1611.76,-555.585C1462.27,-553.938 1015.34,-546.049 875,-510 804.913,-491.996 769.902,-498.996 728,-440 662.599,-347.917 657.417,-267.125 736,-186 753.525,-167.908 778.684,-155.043 799.749,-146.636"/>
<polygon fill="midnightblue" stroke="midnightblue" points="800.993,-149.908 809.097,-143.084 798.506,-143.364 800.993,-149.908"/>
</g>
<!-- Node20 -->
<g id="node20" class="node"><title>Node20</title>
<g id="a_node20"><a xlink:href="exceptions_8h.html" target="_top" xlink:title="Various general useful macros for IMP. ">
<polygon fill="none" stroke="black" points="1070.93,-123 1070.93,-143 1143.07,-143 1143.07,-123 1070.93,-123"/>
<text text-anchor="middle" x="1107" y="-129" font-family="Helvetica,sans-Serif" font-size="10.00">exceptions.h</text>
</a>
</g>
</g>
<!-- Node5&#45;&gt;Node20 -->
<g id="edge109" class="edge"><title>Node5&#45;&gt;Node20</title>
<path fill="none" stroke="midnightblue" d="M1673.22,-546.981C1683.36,-538.669 1697.06,-525.325 1703,-510 1708.46,-495.911 1704.41,-491.045 1703,-476 1700.54,-449.878 1704.56,-441.038 1692,-418 1674.1,-385.152 1660.89,-382.493 1631,-360 1590.25,-329.339 1577.03,-325.931 1532,-302 1479.34,-274.014 1465.78,-267.573 1411,-244 1369.91,-226.317 1356.75,-228.534 1317,-208 1301.34,-199.909 1299.97,-193.458 1284,-186 1241.56,-166.181 1189.84,-152.036 1153.3,-143.549"/>
<polygon fill="midnightblue" stroke="midnightblue" points="1153.94,-140.106 1143.42,-141.306 1152.39,-146.933 1153.94,-140.106"/>
</g>
<!-- Node23 -->
<g id="node23" class="node"><title>Node23</title>
<polygon fill="none" stroke="#bfbfbf" points="489.766,-59 489.766,-79 600.234,-79 600.234,-59 489.766,-59"/>
<text text-anchor="middle" x="545" y="-65" font-family="Helvetica,sans-Serif" font-size="10.00">RMF/internal/errors.h</text>
</g>
<!-- Node5&#45;&gt;Node23 -->
<g id="edge112" class="edge"><title>Node5&#45;&gt;Node23</title>
<path fill="none" stroke="midnightblue" d="M1611.76,-555.699C1434.59,-554.314 835.96,-546.921 759,-510 622.761,-444.64 533,-407.106 533,-256 533,-256 533,-256 533,-196 533,-158.061 538.458,-113.983 542.013,-89.3051"/>
<polygon fill="midnightblue" stroke="midnightblue" points="545.515,-89.5481 543.529,-79.1411 538.591,-88.5153 545.515,-89.5481"/>
</g>
<!-- Node28 -->
<g id="node28" class="node"><title>Node28</title>
<g id="a_node28"><a xlink:href="NodeConstHandle_8h.html" target="_top" xlink:title="Handle read/write of Model data from/to files. ">
<polygon fill="none" stroke="black" points="883.971,-483 883.971,-503 990.029,-503 990.029,-483 883.971,-483"/>
<text text-anchor="middle" x="937" y="-489" font-family="Helvetica,sans-Serif" font-size="10.00">NodeConstHandle.h</text>
</a>
</g>
</g>
<!-- Node5&#45;&gt;Node28 -->
<g id="edge44" class="edge"><title>Node5&#45;&gt;Node28</title>
<path fill="none" stroke="midnightblue" d="M1611.81,-551.787C1484.19,-540.859 1142.6,-511.606 1000.44,-499.433"/>
<polygon fill="midnightblue" stroke="midnightblue" points="1000.41,-495.917 990.147,-498.551 999.812,-502.892 1000.41,-495.917"/>
</g>
<!-- Node5&#45;&gt;Node30 -->
<g id="edge105" class="edge"><title>Node5&#45;&gt;Node30</title>
<path fill="none" stroke="midnightblue" d="M1663.65,-546.792C1670.09,-522.244 1683.68,-454.615 1650,-418 1583.22,-345.405 1511.27,-439.334 1431,-382 1398.15,-358.537 1413.06,-333.643 1388,-302 1379,-290.632 1366.97,-279.789 1356.75,-271.489"/>
<polygon fill="midnightblue" stroke="midnightblue" points="1358.72,-268.587 1348.7,-265.159 1354.4,-274.09 1358.72,-268.587"/>
</g>
<!-- Node5&#45;&gt;Node32 -->
<g id="edge111" class="edge"><title>Node5&#45;&gt;Node32</title>
<path fill="none" stroke="midnightblue" d="M1647.61,-546.697C1636.16,-538.203 1619.86,-524.753 1609,-510 1595.07,-491.086 1584.86,-465.928 1578.94,-448.913"/>
<polygon fill="midnightblue" stroke="midnightblue" points="1582.14,-447.447 1575.68,-439.055 1575.5,-449.648 1582.14,-447.447"/>
</g>
<!-- Node33 -->
<g id="node33" class="node"><title>Node33</title>
<g id="a_node33"><a xlink:href="constants_8h.html" target="_top" xlink:title="Various utilities for rmfing. ">
<polygon fill="none" stroke="black" points="1440.21,-361 1440.21,-381 1531.79,-381 1531.79,-361 1440.21,-361"/>
<text text-anchor="middle" x="1486" y="-367" font-family="Helvetica,sans-Serif" font-size="10.00">RMF/constants.h</text>
</a>
</g>
</g>
<!-- Node5&#45;&gt;Node33 -->
<g id="edge107" class="edge"><title>Node5&#45;&gt;Node33</title>
<path fill="none" stroke="midnightblue" d="M1710.41,-555.919C1846.19,-555.187 2217.4,-549.551 2254,-510 2264.26,-498.909 2263.94,-487.38 2254,-476 2207.09,-422.314 1711.48,-386.239 1542.25,-375.411"/>
<polygon fill="midnightblue" stroke="midnightblue" points="1542.26,-371.905 1532.06,-374.764 1541.82,-378.891 1542.26,-371.905"/>
</g>
<!-- Node5&#45;&gt;Node34 -->
<g id="edge108" class="edge"><title>Node5&#45;&gt;Node34</title>
<path fill="none" stroke="midnightblue" d="M1611.73,-555.802C1433.51,-554.773 822.859,-548.457 632,-510 543.78,-492.224 521.732,-481.733 442,-440 413.084,-424.865 382.743,-402.363 363.856,-387.444"/>
<polygon fill="midnightblue" stroke="midnightblue" points="366.023,-384.696 356.03,-381.177 361.647,-390.16 366.023,-384.696"/>
</g>
<!-- Node5&#45;&gt;Node39 -->
<g id="edge116" class="edge"><title>Node5&#45;&gt;Node39</title>
<path fill="none" stroke="midnightblue" d="M1710.32,-556.035C1848.73,-555.623 2233.18,-550.784 2271,-510 2319.31,-457.914 2255.01,-368.336 2224.02,-331.054"/>
<polygon fill="midnightblue" stroke="midnightblue" points="2226.43,-328.486 2217.28,-323.143 2221.1,-333.025 2226.43,-328.486"/>
</g>
<!-- Node47 -->
<g id="node47" class="node"><title>Node47</title>
<polygon fill="none" stroke="#bfbfbf" points="2138.7,-477 2138.7,-509 2245.3,-509 2245.3,-477 2138.7,-477"/>
<text text-anchor="start" x="2146.7" y="-495" font-family="Helvetica,sans-Serif" font-size="10.00">RMF/internal/shared</text>
<text text-anchor="middle" x="2192" y="-483" font-family="Helvetica,sans-Serif" font-size="10.00">_data_ranges.h</text>
</g>
<!-- Node5&#45;&gt;Node47 -->
<g id="edge113" class="edge"><title>Node5&#45;&gt;Node47</title>
<path fill="none" stroke="midnightblue" d="M1710.29,-553.679C1794.36,-549.175 1970.91,-537.339 2128.79,-510.053"/>
<polygon fill="midnightblue" stroke="midnightblue" points="2129.44,-513.493 2138.68,-508.319 2128.23,-506.598 2129.44,-513.493"/>
</g>
<!-- Node5&#45;&gt;Node48 -->
<g id="edge114" class="edge"><title>Node5&#45;&gt;Node48</title>
<path fill="none" stroke="midnightblue" d="M1611.71,-555.306C1449.58,-552.762 918.172,-542.34 480,-510 453.786,-508.065 425.025,-505.118 399.948,-502.279"/>
<polygon fill="midnightblue" stroke="midnightblue" points="400.143,-498.778 389.809,-501.114 399.344,-505.733 400.143,-498.778"/>
</g>
<!-- Node49 -->
<g id="node49" class="node"><title>Node49</title>
<polygon fill="none" stroke="#bfbfbf" points="1803.41,-477 1803.41,-509 1910.59,-509 1910.59,-477 1803.41,-477"/>
<text text-anchor="start" x="1811.41" y="-495" font-family="Helvetica,sans-Serif" font-size="10.00">internal/shared_data</text>
<text text-anchor="middle" x="1857" y="-483" font-family="Helvetica,sans-Serif" font-size="10.00">_ranges.h</text>
</g>
<!-- Node5&#45;&gt;Node49 -->
<g id="edge115" class="edge"><title>Node5&#45;&gt;Node49</title>
<path fill="none" stroke="midnightblue" d="M1689.5,-546.985C1718.23,-537.898 1763.37,-523.619 1799.55,-512.172"/>
<polygon fill="midnightblue" stroke="midnightblue" points="1801.02,-515.379 1809.5,-509.026 1798.91,-508.705 1801.02,-515.379"/>
</g>
<!-- Node10&#45;&gt;Node9 -->
<g id="edge43" class="edge"><title>Node10&#45;&gt;Node9</title>
<path fill="none" stroke="midnightblue" d="M1618.7,-302.773C1595.27,-288.078 1546.82,-259.443 1502,-244 1462.25,-230.304 1342.01,-211.027 1285.7,-202.434"/>
<polygon fill="midnightblue" stroke="midnightblue" points="1286.06,-198.949 1275.64,-200.91 1285.01,-205.87 1286.06,-198.949"/>
</g>
<!-- Node10&#45;&gt;Node11 -->
<g id="edge13" class="edge"><title>Node10&#45;&gt;Node11</title>
<path fill="none" stroke="midnightblue" d="M1674.38,-309.626C1778.86,-302.627 2048.38,-277.985 2096,-208 2138.74,-145.191 2086.55,-153.037 1989,-116 1899.97,-82.1971 1787.89,-73.0929 1725.18,-70.7296"/>
<polygon fill="midnightblue" stroke="midnightblue" points="1724.92,-67.219 1714.81,-70.3836 1724.68,-74.2151 1724.92,-67.219"/>
</g>
<!-- Node10&#45;&gt;Node13 -->
<g id="edge15" class="edge"><title>Node10&#45;&gt;Node13</title>
<path fill="none" stroke="midnightblue" d="M1604.99,-302.91C1557.87,-288.009 1459.47,-258.584 1374,-244 1179.71,-210.847 1115.28,-280.5 932,-208 900.22,-195.429 870.633,-168.147 853.704,-150.453"/>
<polygon fill="midnightblue" stroke="midnightblue" points="856.227,-148.026 846.854,-143.086 851.1,-152.793 856.227,-148.026"/>
</g>
<!-- Node10&#45;&gt;Node20 -->
<g id="edge25" class="edge"><title>Node10&#45;&gt;Node20</title>
<path fill="none" stroke="midnightblue" d="M1628.33,-302.807C1620.25,-287.891 1602.16,-258.618 1578,-244 1508.19,-201.772 1477.41,-226.703 1398,-208 1361.69,-199.448 1353.11,-195.373 1317,-186 1260.63,-171.366 1195.49,-155.381 1152.9,-145.051"/>
<polygon fill="midnightblue" stroke="midnightblue" points="1153.65,-141.632 1143.11,-142.68 1152,-148.435 1153.65,-141.632"/>
</g>
<!-- Node24 -->
<g id="node24" class="node"><title>Node24</title>
<g id="a_node24"><a xlink:href="BufferConstHandle_8h.html" target="_top" xlink:title="Manage a memory buffer for reading/writing RMF files. ">
<polygon fill="none" stroke="black" points="1831.67,-245 1831.67,-265 1940.33,-265 1940.33,-245 1831.67,-245"/>
<text text-anchor="middle" x="1886" y="-251" font-family="Helvetica,sans-Serif" font-size="10.00">BufferConstHandle.h</text>
</a>
</g>
</g>
<!-- Node10&#45;&gt;Node24 -->
<g id="edge32" class="edge"><title>Node10&#45;&gt;Node24</title>
<path fill="none" stroke="midnightblue" d="M1673.93,-302.94C1717.84,-293.222 1787.64,-277.771 1835.07,-267.273"/>
<polygon fill="midnightblue" stroke="midnightblue" points="1836.12,-270.625 1845.13,-265.047 1834.61,-263.791 1836.12,-270.625"/>
</g>
<!-- Node11&#45;&gt;Node12 -->
<g id="edge14" class="edge"><title>Node11&#45;&gt;Node12</title>
<path fill="none" stroke="midnightblue" d="M1638.95,-64.4545C1540.72,-55.3016 1277.34,-30.7605 1148.71,-18.7747"/>
<polygon fill="midnightblue" stroke="midnightblue" points="1148.84,-15.272 1138.56,-17.8291 1148.19,-22.2418 1148.84,-15.272"/>
</g>
<!-- Node13&#45;&gt;Node3 -->
<g id="edge18" class="edge"><title>Node13&#45;&gt;Node3</title>
<path fill="none" stroke="midnightblue" d="M799.805,-122.992C788.306,-120.524 775.682,-117.985 764,-116 639.001,-94.7546 605.957,-101.488 481,-80 476.026,-79.1447 470.776,-78.1202 465.671,-77.0579"/>
<polygon fill="midnightblue" stroke="midnightblue" points="466.048,-73.5585 455.534,-74.8663 464.568,-80.4004 466.048,-73.5585"/>
</g>
<!-- Node13&#45;&gt;Node4 -->
<g id="edge24" class="edge"><title>Node13&#45;&gt;Node4</title>
<path fill="none" stroke="midnightblue" d="M778.434,-126.821C631.046,-114.216 257.611,-82.2813 145.988,-72.7356"/>
<polygon fill="midnightblue" stroke="midnightblue" points="145.988,-69.2229 135.726,-71.858 145.392,-76.1974 145.988,-69.2229"/>
</g>
<!-- Node13&#45;&gt;Node12 -->
<g id="edge19" class="edge"><title>Node13&#45;&gt;Node12</title>
<path fill="none" stroke="midnightblue" d="M876.544,-122.932C932.14,-109.391 1030.54,-84.9424 1037,-80 1053.33,-67.4967 1063.97,-46.0581 1069.95,-30.5911"/>
<polygon fill="midnightblue" stroke="midnightblue" points="1073.3,-31.6152 1073.36,-21.0205 1066.7,-29.2681 1073.3,-31.6152"/>
</g>
<!-- Node14 -->
<g id="node14" class="node"><title>Node14</title>
<polygon fill="none" stroke="#bfbfbf" points="1199.22,-59 1199.22,-79 1250.78,-79 1250.78,-59 1199.22,-59"/>
<text text-anchor="middle" x="1225" y="-65" font-family="Helvetica,sans-Serif" font-size="10.00">sstream</text>
</g>
<!-- Node13&#45;&gt;Node14 -->
<g id="edge16" class="edge"><title>Node13&#45;&gt;Node14</title>
<path fill="none" stroke="midnightblue" d="M876.084,-122.953C886.97,-120.485 898.926,-117.955 910,-116 1030.42,-94.7385 1065.35,-104.762 1189.25,-79.8823"/>
<polygon fill="midnightblue" stroke="midnightblue" points="1190.02,-83.2971 1199.11,-77.8655 1188.62,-76.4389 1190.02,-83.2971"/>
</g>
<!-- Node15 -->
<g id="node15" class="node"><title>Node15</title>
<polygon fill="none" stroke="#bfbfbf" points="277.828,-59 277.828,-79 332.172,-79 332.172,-59 277.828,-59"/>
<text text-anchor="middle" x="305" y="-65" font-family="Helvetica,sans-Serif" font-size="10.00">iostream</text>
</g>
<!-- Node13&#45;&gt;Node15 -->
<g id="edge17" class="edge"><title>Node13&#45;&gt;Node15</title>
<path fill="none" stroke="midnightblue" d="M778.263,-124.948C667.035,-112.034 433.701,-84.9428 342.585,-74.3638"/>
<polygon fill="midnightblue" stroke="midnightblue" points="342.784,-70.8635 332.447,-73.1868 341.977,-77.8168 342.784,-70.8635"/>
</g>
<!-- Node16 -->
<g id="node16" class="node"><title>Node16</title>
<polygon fill="none" stroke="#bfbfbf" points="844.98,-59 844.98,-79 921.02,-79 921.02,-59 844.98,-59"/>
<text text-anchor="middle" x="883" y="-65" font-family="Helvetica,sans-Serif" font-size="10.00">internal/use.h</text>
</g>
<!-- Node13&#45;&gt;Node16 -->
<g id="edge20" class="edge"><title>Node13&#45;&gt;Node16</title>
<path fill="none" stroke="midnightblue" d="M845.492,-122.852C852.057,-113.602 862.368,-99.072 870.52,-87.5859"/>
<polygon fill="midnightblue" stroke="midnightblue" points="873.548,-89.3666 876.481,-79.1858 867.839,-85.3153 873.548,-89.3666"/>
</g>
<!-- Node17 -->
<g id="node17" class="node"><title>Node17</title>
<polygon fill="none" stroke="#bfbfbf" points="939.306,-59 939.306,-79 1028.69,-79 1028.69,-59 939.306,-59"/>
<text text-anchor="middle" x="984" y="-65" font-family="Helvetica,sans-Serif" font-size="10.00">boost/config.hpp</text>
</g>
<!-- Node13&#45;&gt;Node17 -->
<g id="edge21" class="edge"><title>Node13&#45;&gt;Node17</title>
<path fill="none" stroke="midnightblue" d="M860.084,-122.985C884.676,-112.47 925.528,-95.002 953.558,-83.0166"/>
<polygon fill="midnightblue" stroke="midnightblue" points="955.072,-86.176 962.89,-79.0262 952.32,-79.7397 955.072,-86.176"/>
</g>
<!-- Node18 -->
<g id="node18" class="node"><title>Node18</title>
<polygon fill="none" stroke="#bfbfbf" points="618.53,-59 618.53,-79 713.47,-79 713.47,-59 618.53,-59"/>
<text text-anchor="middle" x="666" y="-65" font-family="Helvetica,sans-Serif" font-size="10.00">boost/version.hpp</text>
</g>
<!-- Node13&#45;&gt;Node18 -->
<g id="edge22" class="edge"><title>Node13&#45;&gt;Node18</title>
<path fill="none" stroke="midnightblue" d="M813.844,-122.985C784.12,-112.332 734.483,-94.5431 701.014,-82.5484"/>
<polygon fill="midnightblue" stroke="midnightblue" points="701.781,-79.1052 691.186,-79.0262 699.419,-85.6948 701.781,-79.1052"/>
</g>
<!-- Node19 -->
<g id="node19" class="node"><title>Node19</title>
<polygon fill="none" stroke="#bfbfbf" points="730.971,-59 730.971,-79 827.029,-79 827.029,-59 730.971,-59"/>
<text text-anchor="middle" x="779" y="-65" font-family="Helvetica,sans-Serif" font-size="10.00">boost/foreach.hpp</text>
</g>
<!-- Node13&#45;&gt;Node19 -->
<g id="edge23" class="edge"><title>Node13&#45;&gt;Node19</title>
<path fill="none" stroke="midnightblue" d="M830.147,-122.852C820.93,-113.327 806.294,-98.2042 795.036,-86.5706"/>
<polygon fill="midnightblue" stroke="midnightblue" points="797.359,-83.9379 787.89,-79.1858 792.329,-88.8059 797.359,-83.9379"/>
</g>
<!-- Node20&#45;&gt;Node3 -->
<g id="edge28" class="edge"><title>Node20&#45;&gt;Node3</title>
<path fill="none" stroke="midnightblue" d="M1070.74,-124.277C1055.45,-121.276 1037.42,-118.068 1021,-116 782.352,-85.9506 719.169,-113.64 481,-80 476.003,-79.2942 470.74,-78.3471 465.631,-77.3161"/>
<polygon fill="midnightblue" stroke="midnightblue" points="466.005,-73.8165 455.492,-75.1326 464.531,-80.6596 466.005,-73.8165"/>
</g>
<!-- Node20&#45;&gt;Node11 -->
<g id="edge29" class="edge"><title>Node20&#45;&gt;Node11</title>
<path fill="none" stroke="midnightblue" d="M1131.64,-122.922C1139.63,-120.3 1148.6,-117.693 1157,-116 1328.3,-81.4589 1536.56,-72.8543 1628.92,-70.7109"/>
<polygon fill="midnightblue" stroke="midnightblue" points="1629.15,-74.2068 1639.07,-70.4908 1629,-67.2084 1629.15,-74.2068"/>
</g>
<!-- Node20&#45;&gt;Node12 -->
<g id="edge30" class="edge"><title>Node20&#45;&gt;Node12</title>
<path fill="none" stroke="midnightblue" d="M1104.67,-122.98C1099.64,-103.522 1087.69,-57.2423 1080.91,-31.005"/>
<polygon fill="midnightblue" stroke="midnightblue" points="1084.25,-29.9309 1078.36,-21.1242 1077.47,-31.6818 1084.25,-29.9309"/>
</g>
<!-- Node21 -->
<g id="node21" class="node"><title>Node21</title>
<polygon fill="none" stroke="#bfbfbf" points="1268.45,-59 1268.45,-79 1419.55,-79 1419.55,-59 1268.45,-59"/>
<text text-anchor="middle" x="1344" y="-65" font-family="Helvetica,sans-Serif" font-size="10.00">boost/exception/exception.hpp</text>
</g>
<!-- Node20&#45;&gt;Node21 -->
<g id="edge26" class="edge"><title>Node20&#45;&gt;Node21</title>
<path fill="none" stroke="midnightblue" d="M1134.14,-122.941C1141.53,-120.579 1149.55,-118.107 1157,-116 1203.07,-102.978 1256.12,-90.1309 1293.91,-81.3375"/>
<polygon fill="midnightblue" stroke="midnightblue" points="1294.71,-84.7451 1303.67,-79.08 1293.13,-77.9255 1294.71,-84.7451"/>
</g>
<!-- Node22 -->
<g id="node22" class="node"><title>Node22</title>
<polygon fill="none" stroke="#bfbfbf" points="1122.6,-59 1122.6,-79 1181.4,-79 1181.4,-59 1122.6,-59"/>
<text text-anchor="middle" x="1152" y="-65" font-family="Helvetica,sans-Serif" font-size="10.00">exception</text>
</g>
<!-- Node20&#45;&gt;Node22 -->
<g id="edge27" class="edge"><title>Node20&#45;&gt;Node22</title>
<path fill="none" stroke="midnightblue" d="M1113.64,-122.852C1120.35,-113.602 1130.9,-99.072 1139.24,-87.5859"/>
<polygon fill="midnightblue" stroke="midnightblue" points="1142.29,-89.3348 1145.33,-79.1858 1136.63,-85.223 1142.29,-89.3348"/>
</g>
<!-- Node20&#45;&gt;Node23 -->
<g id="edge31" class="edge"><title>Node20&#45;&gt;Node23</title>
<path fill="none" stroke="midnightblue" d="M1070.72,-124.446C1055.43,-121.472 1037.4,-118.239 1021,-116 842.512,-91.6375 793.751,-101.586 610.265,-79.9487"/>
<polygon fill="midnightblue" stroke="midnightblue" points="610.629,-76.4674 600.285,-78.7565 609.799,-83.418 610.629,-76.4674"/>
</g>
<!-- Node24&#45;&gt;Node2 -->
<g id="edge39" class="edge"><title>Node24&#45;&gt;Node2</title>
<path fill="none" stroke="midnightblue" d="M1940.58,-247.685C2030.27,-237.308 2208.45,-216.692 2304.69,-205.556"/>
<polygon fill="midnightblue" stroke="midnightblue" points="2305.35,-209.004 2314.88,-204.378 2304.54,-202.051 2305.35,-209.004"/>
</g>
<!-- Node24&#45;&gt;Node3 -->
<g id="edge37" class="edge"><title>Node24&#45;&gt;Node3</title>
<path fill="none" stroke="midnightblue" d="M1831.76,-244.977C1828.8,-244.614 1825.87,-244.284 1823,-244 1428.61,-204.868 1323.53,-269.424 932,-208 750.815,-179.576 541.438,-108.307 464.941,-80.9393"/>
<polygon fill="midnightblue" stroke="midnightblue" points="466.05,-77.6187 455.456,-77.5263 463.68,-84.2053 466.05,-77.6187"/>
</g>
<!-- Node24&#45;&gt;Node9 -->
<g id="edge41" class="edge"><title>Node24&#45;&gt;Node9</title>
<path fill="none" stroke="midnightblue" d="M1831.4,-245.043C1828.56,-244.668 1825.75,-244.318 1823,-244 1603.43,-218.652 1546.78,-231.426 1327,-208 1313.36,-206.547 1298.32,-204.492 1285.6,-202.624"/>
<polygon fill="midnightblue" stroke="midnightblue" points="1285.95,-199.138 1275.54,-201.115 1284.91,-206.06 1285.95,-199.138"/>
</g>
<!-- Node24&#45;&gt;Node11 -->
<g id="edge33" class="edge"><title>Node24&#45;&gt;Node11</title>
<path fill="none" stroke="midnightblue" d="M1940.61,-252.848C2009.73,-249.348 2115.56,-235.961 2078,-186 2035.2,-129.059 1821.66,-91.1649 1724.85,-76.643"/>
<polygon fill="midnightblue" stroke="midnightblue" points="1725.16,-73.1495 1714.75,-75.1489 1724.13,-80.0742 1725.16,-73.1495"/>
</g>
<!-- Node24&#45;&gt;Node13 -->
<g id="edge34" class="edge"><title>Node24&#45;&gt;Node13</title>
<path fill="none" stroke="midnightblue" d="M1831.4,-245.084C1828.56,-244.698 1825.75,-244.334 1823,-244 1634.82,-221.126 1585.77,-233.997 1398,-208 1346.89,-200.923 1335.07,-193.369 1284,-186 1118.72,-162.152 1074.89,-176.408 910,-150 901.84,-148.693 893.214,-147.01 884.895,-145.227"/>
<polygon fill="midnightblue" stroke="midnightblue" points="885.47,-141.77 874.949,-143.023 883.955,-148.604 885.47,-141.77"/>
</g>
<!-- Node24&#45;&gt;Node14 -->
<g id="edge36" class="edge"><title>Node24&#45;&gt;Node14</title>
<path fill="none" stroke="midnightblue" d="M1852.64,-244.937C1760.23,-219.788 1492.92,-146.758 1260.62,-80.4386"/>
<polygon fill="midnightblue" stroke="midnightblue" points="1261.55,-77.0665 1250.98,-77.6848 1259.63,-83.7972 1261.55,-77.0665"/>
</g>
<!-- Node24&#45;&gt;Node20 -->
<g id="edge38" class="edge"><title>Node24&#45;&gt;Node20</title>
<path fill="none" stroke="midnightblue" d="M1832.6,-244.994C1753.18,-231.67 1599.18,-206.116 1468,-186 1355.04,-168.677 1221.92,-149.934 1153.22,-140.383"/>
<polygon fill="midnightblue" stroke="midnightblue" points="1153.54,-136.895 1143.16,-138.986 1152.58,-143.828 1153.54,-136.895"/>
</g>
<!-- Node25 -->
<g id="node25" class="node"><title>Node25</title>
<polygon fill="none" stroke="#bfbfbf" points="1742.85,-187 1742.85,-207 1861.15,-207 1861.15,-187 1742.85,-187"/>
<text text-anchor="middle" x="1802" y="-193" font-family="Helvetica,sans-Serif" font-size="10.00">boost/exception/all.hpp</text>
</g>
<!-- Node24&#45;&gt;Node25 -->
<g id="edge35" class="edge"><title>Node24&#45;&gt;Node25</title>
<path fill="none" stroke="midnightblue" d="M1872.13,-244.753C1859.04,-236.027 1839.21,-222.805 1823.97,-212.646"/>
<polygon fill="midnightblue" stroke="midnightblue" points="1825.87,-209.71 1815.61,-207.075 1821.99,-215.534 1825.87,-209.71"/>
</g>
<!-- Node26 -->
<g id="node26" class="node"><title>Node26</title>
<polygon fill="none" stroke="#bfbfbf" points="1879.35,-187 1879.35,-207 2002.65,-207 2002.65,-187 1879.35,-187"/>
<text text-anchor="middle" x="1941" y="-193" font-family="Helvetica,sans-Serif" font-size="10.00">boost/make_shared.hpp</text>
</g>
<!-- Node24&#45;&gt;Node26 -->
<g id="edge40" class="edge"><title>Node24&#45;&gt;Node26</title>
<path fill="none" stroke="midnightblue" d="M1895.08,-244.753C1903.17,-236.516 1915.2,-224.274 1924.91,-214.382"/>
<polygon fill="midnightblue" stroke="midnightblue" points="1927.58,-216.662 1932.09,-207.075 1922.58,-211.757 1927.58,-216.662"/>
</g>
<!-- Node27 -->
<g id="node27" class="node"><title>Node27</title>
<polygon fill="none" stroke="#bfbfbf" points="2020.88,-187 2020.88,-207 2069.12,-207 2069.12,-187 2020.88,-187"/>
<text text-anchor="middle" x="2045" y="-193" font-family="Helvetica,sans-Serif" font-size="10.00">stdint.h</text>
</g>
<!-- Node24&#45;&gt;Node27 -->
<g id="edge42" class="edge"><title>Node24&#45;&gt;Node27</title>
<path fill="none" stroke="midnightblue" d="M1911.9,-244.878C1938.94,-235.355 1981.46,-220.379 2011.14,-209.924"/>
<polygon fill="midnightblue" stroke="midnightblue" points="2012.41,-213.19 2020.68,-206.567 2010.08,-206.587 2012.41,-213.19"/>
</g>
<!-- Node28&#45;&gt;Node2 -->
<g id="edge47" class="edge"><title>Node28&#45;&gt;Node2</title>
<path fill="none" stroke="midnightblue" d="M990.264,-488.622C1055.65,-483.315 1169.26,-470.301 1262,-440 1282.41,-433.333 1284.32,-423.755 1305,-418 1516.19,-359.228 2100.78,-439.666 2287,-324 2292.42,-320.636 2337.6,-249.51 2358.93,-215.638"/>
<polygon fill="midnightblue" stroke="midnightblue" points="2361.9,-217.488 2364.26,-207.159 2355.98,-213.762 2361.9,-217.488"/>
</g>
<!-- Node28&#45;&gt;Node3 -->
<g id="edge49" class="edge"><title>Node28&#45;&gt;Node3</title>
<path fill="none" stroke="midnightblue" d="M883.684,-488.126C766.126,-476.389 495,-430.414 495,-256 495,-256 495,-256 495,-196 495,-153.649 467.027,-110.389 449.281,-87.2066"/>
<polygon fill="midnightblue" stroke="midnightblue" points="451.798,-84.748 442.844,-79.0849 446.312,-89.096 451.798,-84.748"/>
</g>
<!-- Node28&#45;&gt;Node4 -->
<g id="edge50" class="edge"><title>Node28&#45;&gt;Node4</title>
<path fill="none" stroke="midnightblue" d="M883.869,-492.048C782.02,-491.071 552.826,-483.696 366,-440 284.346,-420.902 190,-455.858 190,-372 190,-372 190,-372 190,-196 190,-151.21 154.352,-108.67 131.885,-86.3076"/>
<polygon fill="midnightblue" stroke="midnightblue" points="134.201,-83.6789 124.567,-79.2684 129.348,-88.7236 134.201,-83.6789"/>
</g>
<!-- Node28&#45;&gt;Node6 -->
<g id="edge46" class="edge"><title>Node28&#45;&gt;Node6</title>
<path fill="none" stroke="midnightblue" d="M990.116,-484.583C1068.8,-473.596 1216.65,-452.95 1306.24,-440.44"/>
<polygon fill="midnightblue" stroke="midnightblue" points="1306.91,-443.88 1316.33,-439.031 1305.94,-436.947 1306.91,-443.88"/>
</g>
<!-- Node28&#45;&gt;Node11 -->
<g id="edge61" class="edge"><title>Node28&#45;&gt;Node11</title>
<path fill="none" stroke="midnightblue" d="M990.216,-486.288C1047.13,-479.214 1139.53,-464.935 1216,-440 1237.55,-432.975 1240.16,-424.051 1262,-418 1315.35,-403.219 2215.7,-363.973 2254,-324 2317.99,-257.21 2315.69,-177.948 2247,-116 2208.6,-81.3651 1855.12,-72.637 1724.89,-70.5879"/>
<polygon fill="midnightblue" stroke="midnightblue" points="1724.86,-67.0872 1714.81,-70.4357 1724.75,-74.0864 1724.86,-67.0872"/>
</g>
<!-- Node28&#45;&gt;Node13 -->
<g id="edge63" class="edge"><title>Node28&#45;&gt;Node13</title>
<path fill="none" stroke="midnightblue" d="M883.87,-483.14C852.3,-475.771 812.914,-462.686 784,-440 735.051,-401.594 723,-376.217 723,-314 723,-314 723,-314 723,-254 723,-203.942 775.827,-166.797 810.181,-147.934"/>
<polygon fill="midnightblue" stroke="midnightblue" points="812.117,-150.87 819.322,-143.103 808.846,-144.681 812.117,-150.87"/>
</g>
<!-- Node28&#45;&gt;Node15 -->
<g id="edge48" class="edge"><title>Node28&#45;&gt;Node15</title>
<path fill="none" stroke="midnightblue" d="M883.785,-490.046C719.131,-482.57 229,-448.98 229,-314 229,-314 229,-314 229,-196 229,-158.879 232.999,-147.272 253,-116 260.61,-104.101 272.15,-93.4564 282.426,-85.4115"/>
<polygon fill="midnightblue" stroke="midnightblue" points="284.714,-88.072 290.647,-79.2947 280.535,-82.4559 284.714,-88.072"/>
</g>
<!-- Node28&#45;&gt;Node20 -->
<g id="edge62" class="edge"><title>Node28&#45;&gt;Node20</title>
<path fill="none" stroke="midnightblue" d="M902.839,-482.84C880.949,-475.118 853.933,-461.755 839,-440 818.802,-410.574 823.328,-394.622 832,-360 839.102,-331.647 843.537,-323.806 863,-302 893.21,-268.153 907.194,-265.766 947,-244 983.356,-224.121 998.59,-231.085 1033,-208 1056.9,-191.967 1079.55,-167.446 1093.35,-151.078"/>
<polygon fill="midnightblue" stroke="midnightblue" points="1096.06,-153.293 1099.72,-143.35 1090.66,-148.84 1096.06,-153.293"/>
</g>
<!-- Node28&#45;&gt;Node23 -->
<g id="edge65" class="edge"><title>Node28&#45;&gt;Node23</title>
<path fill="none" stroke="midnightblue" d="M883.923,-487.589C844.765,-481.96 792.066,-469.151 755,-440 630.932,-342.425 567.665,-149.927 550.144,-88.9758"/>
<polygon fill="midnightblue" stroke="midnightblue" points="553.467,-87.8641 547.4,-79.1783 546.727,-89.7516 553.467,-87.8641"/>
</g>
<!-- Node29 -->
<g id="node29" class="node"><title>Node29</title>
<polygon fill="none" stroke="#bfbfbf" points="863.955,-419 863.955,-439 942.045,-439 942.045,-419 863.955,-419"/>
<text text-anchor="middle" x="903" y="-425" font-family="Helvetica,sans-Serif" font-size="10.00">boost/any.hpp</text>
</g>
<!-- Node28&#45;&gt;Node29 -->
<g id="edge45" class="edge"><title>Node28&#45;&gt;Node29</title>
<path fill="none" stroke="midnightblue" d="M931.983,-482.852C927.011,-473.785 919.257,-459.645 913.02,-448.272"/>
<polygon fill="midnightblue" stroke="midnightblue" points="915.915,-446.271 908.037,-439.186 909.777,-449.637 915.915,-446.271"/>
</g>
<!-- Node28&#45;&gt;Node30 -->
<g id="edge51" class="edge"><title>Node28&#45;&gt;Node30</title>
<path fill="none" stroke="midnightblue" d="M966.202,-483C994.837,-473.731 1039.4,-458.114 1076,-440 1092.47,-431.85 1094.51,-426.101 1111,-418 1196.64,-375.933 1240.28,-395.018 1304,-324 1316.76,-309.777 1325.39,-289.573 1330.45,-274.885"/>
<polygon fill="midnightblue" stroke="midnightblue" points="1333.79,-275.921 1333.5,-265.33 1327.12,-273.79 1333.79,-275.921"/>
</g>
<!-- Node31 -->
<g id="node31" class="node"><title>Node31</title>
<g id="a_node31"><a xlink:href="Nullable_8h.html" target="_top" xlink:title="Handle read/write of Model data from/to files. ">
<polygon fill="none" stroke="black" points="955.544,-245 955.544,-265 1040.46,-265 1040.46,-245 955.544,-245"/>
<text text-anchor="middle" x="998" y="-251" font-family="Helvetica,sans-Serif" font-size="10.00">RMF/Nullable.h</text>
</a>
</g>
</g>
<!-- Node28&#45;&gt;Node31 -->
<g id="edge56" class="edge"><title>Node28&#45;&gt;Node31</title>
<path fill="none" stroke="midnightblue" d="M909.964,-482.896C890.842,-474.872 866.617,-461.122 855,-440 834.639,-402.977 812.184,-383.797 883,-302 899,-283.519 923.466,-272.381 945.725,-265.708"/>
<polygon fill="midnightblue" stroke="midnightblue" points="946.719,-269.065 955.427,-263.03 944.856,-262.317 946.719,-269.065"/>
</g>
<!-- Node28&#45;&gt;Node32 -->
<g id="edge64" class="edge"><title>Node28&#45;&gt;Node32</title>
<path fill="none" stroke="midnightblue" d="M990.131,-486.821C1102.01,-475.914 1362.35,-450.535 1493.91,-437.71"/>
<polygon fill="midnightblue" stroke="midnightblue" points="1494.31,-441.188 1503.92,-436.734 1493.63,-434.221 1494.31,-441.188"/>
</g>
<!-- Node28&#45;&gt;Node33 -->
<g id="edge66" class="edge"><title>Node28&#45;&gt;Node33</title>
<path fill="none" stroke="midnightblue" d="M966.973,-482.941C1025.16,-465.438 1151.6,-427.827 1196,-418 1276.52,-400.179 1371.09,-386.51 1429.8,-378.864"/>
<polygon fill="midnightblue" stroke="midnightblue" points="1430.5,-382.302 1439.97,-377.552 1429.61,-375.36 1430.5,-382.302"/>
</g>
<!-- Node28&#45;&gt;Node34 -->
<g id="edge69" class="edge"><title>Node28&#45;&gt;Node34</title>
<path fill="none" stroke="midnightblue" d="M883.914,-484.001C822.914,-474.567 719.903,-457.888 632,-440 546.028,-422.505 446.577,-397.968 390.199,-383.652"/>
<polygon fill="midnightblue" stroke="midnightblue" points="390.741,-380.179 380.187,-381.102 389.013,-386.962 390.741,-380.179"/>
</g>
<!-- Node37 -->
<g id="node37" class="node"><title>Node37</title>
<g id="a_node37"><a xlink:href="keys_8h.html" target="_top" xlink:title="Handle read/write of Model data from/to files. ">
<polygon fill="none" stroke="black" points="998.33,-419 998.33,-439 1067.67,-439 1067.67,-419 998.33,-419"/>
<text text-anchor="middle" x="1033" y="-425" font-family="Helvetica,sans-Serif" font-size="10.00">RMF/keys.h</text>
</a>
</g>
</g>
<!-- Node28&#45;&gt;Node37 -->
<g id="edge78" class="edge"><title>Node28&#45;&gt;Node37</title>
<path fill="none" stroke="midnightblue" d="M951.165,-482.852C966.692,-472.824 991.83,-456.589 1010.15,-444.756"/>
<polygon fill="midnightblue" stroke="midnightblue" points="1012.28,-447.551 1018.78,-439.186 1008.48,-441.671 1012.28,-447.551"/>
</g>
<!-- Node38 -->
<g id="node38" class="node"><title>Node38</title>
<g id="a_node38"><a xlink:href="traits_8h.html" target="_top" xlink:title="Handle read/write of Model data from/to files. ">
<polygon fill="none" stroke="black" points="1038,-361 1038,-381 1084,-381 1084,-361 1038,-361"/>
<text text-anchor="middle" x="1061" y="-367" font-family="Helvetica,sans-Serif" font-size="10.00">traits.h</text>
</a>
</g>
</g>
<!-- Node28&#45;&gt;Node38 -->
<g id="edge103" class="edge"><title>Node28&#45;&gt;Node38</title>
<path fill="none" stroke="midnightblue" d="M941.805,-482.956C950.01,-468.107 967.899,-438.192 989,-418 1002.27,-405.297 1019.56,-394.117 1033.87,-385.961"/>
<polygon fill="midnightblue" stroke="midnightblue" points="1035.7,-388.947 1042.77,-381.052 1032.32,-382.817 1035.7,-388.947"/>
</g>
<!-- Node28&#45;&gt;Node39 -->
<g id="edge104" class="edge"><title>Node28&#45;&gt;Node39</title>
<path fill="none" stroke="midnightblue" d="M984.691,-482.977C1032.06,-473.637 1106.58,-457.916 1170,-440 1198.95,-431.823 1204.67,-424.684 1234,-418 1367.51,-387.568 1404.18,-399.444 1540,-382 1610.32,-372.969 1627.51,-367.652 1698,-360 1902.31,-337.819 1955.43,-352.202 2159,-324 2160.1,-323.848 2161.2,-323.687 2162.32,-323.519"/>
<polygon fill="midnightblue" stroke="midnightblue" points="2163.2,-326.92 2172.49,-321.825 2162.05,-320.015 2163.2,-326.92"/>
</g>
<!-- Node30&#45;&gt;Node9 -->
<g id="edge55" class="edge"><title>Node30&#45;&gt;Node9</title>
<path fill="none" stroke="midnightblue" d="M1322.79,-244.753C1310.44,-236.109 1291.79,-223.052 1277.33,-212.931"/>
<polygon fill="midnightblue" stroke="midnightblue" points="1279.16,-209.943 1268.96,-207.075 1275.15,-215.677 1279.16,-209.943"/>
</g>
<!-- Node30&#45;&gt;Node11 -->
<g id="edge52" class="edge"><title>Node30&#45;&gt;Node11</title>
<path fill="none" stroke="midnightblue" d="M1365.61,-250.424C1394.82,-245.486 1439.18,-234.023 1468,-208 1501.5,-177.752 1476.54,-145.144 1511,-116 1544.05,-88.0553 1592.78,-77.0049 1628.9,-72.6782"/>
<polygon fill="midnightblue" stroke="midnightblue" points="1629.63,-76.1207 1639.2,-71.5837 1628.89,-69.1599 1629.63,-76.1207"/>
</g>
<!-- Node30&#45;&gt;Node13 -->
<g id="edge53" class="edge"><title>Node30&#45;&gt;Node13</title>
<path fill="none" stroke="midnightblue" d="M1306.54,-251.591C1204.17,-243.164 869.662,-215.137 861,-208 844.963,-194.786 840.281,-170.436 839.083,-153.285"/>
<polygon fill="midnightblue" stroke="midnightblue" points="842.579,-153.108 838.715,-143.243 835.584,-153.365 842.579,-153.108"/>
</g>
<!-- Node30&#45;&gt;Node20 -->
<g id="edge54" class="edge"><title>Node30&#45;&gt;Node20</title>
<path fill="none" stroke="midnightblue" d="M1311.95,-244.926C1289.75,-236.28 1256.08,-222.468 1228,-208 1192.25,-189.58 1152.87,-164.545 1129.04,-148.831"/>
<polygon fill="midnightblue" stroke="midnightblue" points="1130.68,-145.721 1120.41,-143.104 1126.81,-151.552 1130.68,-145.721"/>
</g>
<!-- Node31&#45;&gt;Node9 -->
<g id="edge60" class="edge"><title>Node31&#45;&gt;Node9</title>
<path fill="none" stroke="midnightblue" d="M1039.74,-244.94C1092.13,-233.568 1180.68,-214.348 1226.53,-204.397"/>
<polygon fill="midnightblue" stroke="midnightblue" points="1227.39,-207.791 1236.42,-202.249 1225.91,-200.95 1227.39,-207.791"/>
</g>
<!-- Node31&#45;&gt;Node11 -->
<g id="edge57" class="edge"><title>Node31&#45;&gt;Node11</title>
<path fill="none" stroke="midnightblue" d="M1021.25,-244.93C1041.12,-236.678 1070.04,-223.45 1093,-208 1118.32,-190.956 1167.06,-128.294 1195,-116 1234.08,-98.8049 1514.69,-79.9316 1628.86,-72.8728"/>
<polygon fill="midnightblue" stroke="midnightblue" points="1629.29,-76.3532 1639.06,-72.2466 1628.86,-69.3663 1629.29,-76.3532"/>
</g>
<!-- Node31&#45;&gt;Node13 -->
<g id="edge58" class="edge"><title>Node31&#45;&gt;Node13</title>
<path fill="none" stroke="midnightblue" d="M955.477,-248.778C909.026,-242.098 839.066,-228.834 823,-208 810.637,-191.967 818.944,-168.438 827.522,-152.238"/>
<polygon fill="midnightblue" stroke="midnightblue" points="830.753,-153.641 832.717,-143.23 824.689,-150.144 830.753,-153.641"/>
</g>
<!-- Node31&#45;&gt;Node20 -->
<g id="edge59" class="edge"><title>Node31&#45;&gt;Node20</title>
<path fill="none" stroke="midnightblue" d="M1018.77,-244.841C1034.71,-236.959 1056.4,-224.288 1071,-208 1085.41,-191.92 1095.35,-169.037 1101.08,-152.986"/>
<polygon fill="midnightblue" stroke="midnightblue" points="1104.52,-153.727 1104.37,-143.134 1097.88,-151.507 1104.52,-153.727"/>
</g>
<!-- Node33&#45;&gt;Node11 -->
<g id="edge67" class="edge"><title>Node33&#45;&gt;Node11</title>
<path fill="none" stroke="midnightblue" d="M1529.58,-360.985C1531.75,-360.631 1533.9,-360.3 1536,-360 1679.18,-339.611 2084.77,-374.849 2180,-266 2197.49,-246.014 2192.12,-121.605 2187,-116 2156.19,-82.2833 1846.18,-73.0559 1725.09,-70.7276"/>
<polygon fill="midnightblue" stroke="midnightblue" points="1725.06,-67.2265 1715,-70.5412 1724.93,-74.2253 1725.06,-67.2265"/>
</g>
<!-- Node33&#45;&gt;Node30 -->
<g id="edge68" class="edge"><title>Node33&#45;&gt;Node30</title>
<path fill="none" stroke="midnightblue" d="M1479.53,-360.644C1469.41,-346.528 1448.63,-319.572 1426,-302 1408.69,-288.562 1386.85,-277.289 1369.02,-269.266"/>
<polygon fill="midnightblue" stroke="midnightblue" points="1370.15,-265.939 1359.59,-265.15 1367.35,-272.355 1370.15,-265.939"/>
</g>
<!-- Node34&#45;&gt;Node3 -->
<g id="edge76" class="edge"><title>Node34&#45;&gt;Node3</title>
<path fill="none" stroke="midnightblue" d="M344.73,-360.839C344.184,-341.483 343,-294.996 343,-256 343,-256 343,-256 343,-196 343,-148.341 386.463,-106.672 413.642,-85.2733"/>
<polygon fill="midnightblue" stroke="midnightblue" points="415.977,-87.895 421.819,-79.0562 411.74,-82.3229 415.977,-87.895"/>
</g>
<!-- Node34&#45;&gt;Node11 -->
<g id="edge70" class="edge"><title>Node34&#45;&gt;Node11</title>
<path fill="none" stroke="midnightblue" d="M384.447,-370.396C539.381,-371.593 1106.11,-372.491 1278,-324 1445.29,-276.806 1608.72,-133.999 1660.3,-85.9621"/>
<polygon fill="midnightblue" stroke="midnightblue" points="1662.72,-88.496 1667.6,-79.0954 1657.92,-83.3968 1662.72,-88.496"/>
</g>
<!-- Node34&#45;&gt;Node15 -->
<g id="edge77" class="edge"><title>Node34&#45;&gt;Node15</title>
<path fill="none" stroke="midnightblue" d="M339.438,-360.924C328.447,-342.095 305,-297.11 305,-256 305,-256 305,-256 305,-196 305,-158.231 305,-114.095 305,-89.3594"/>
<polygon fill="midnightblue" stroke="midnightblue" points="308.5,-89.1695 305,-79.1696 301.5,-89.1696 308.5,-89.1695"/>
</g>
<!-- Node35 -->
<g id="node35" class="node"><title>Node35</title>
<g id="a_node35"><a xlink:href="Enum_8h.html" target="_top" xlink:title="Handle read/write of Model data from/to files. ">
<polygon fill="none" stroke="black" points="940.769,-187 940.769,-207 991.231,-207 991.231,-187 940.769,-187"/>
<text text-anchor="middle" x="966" y="-193" font-family="Helvetica,sans-Serif" font-size="10.00">Enum.h</text>
</a>
</g>
</g>
<!-- Node34&#45;&gt;Node35 -->
<g id="edge71" class="edge"><title>Node34&#45;&gt;Node35</title>
<path fill="none" stroke="midnightblue" d="M377.513,-360.995C483.768,-331.565 820.253,-238.368 930.584,-207.809"/>
<polygon fill="midnightblue" stroke="midnightblue" points="931.837,-211.094 940.54,-205.052 929.969,-204.348 931.837,-211.094"/>
</g>
<!-- Node35&#45;&gt;Node11 -->
<g id="edge72" class="edge"><title>Node35&#45;&gt;Node11</title>
<path fill="none" stroke="midnightblue" d="M976.928,-186.857C1001.96,-165.918 1061.37,-116.257 1062,-116 1113.99,-94.9512 1492.9,-77.5413 1628.72,-71.9154"/>
<polygon fill="midnightblue" stroke="midnightblue" points="1628.99,-75.4077 1638.83,-71.4999 1628.7,-68.4136 1628.99,-75.4077"/>
</g>
<!-- Node35&#45;&gt;Node13 -->
<g id="edge73" class="edge"><title>Node35&#45;&gt;Node13</title>
<path fill="none" stroke="midnightblue" d="M947.533,-186.985C926.276,-176.607 891.149,-159.458 866.634,-147.49"/>
<polygon fill="midnightblue" stroke="midnightblue" points="868.011,-144.268 857.489,-143.026 864.94,-150.559 868.011,-144.268"/>
</g>
<!-- Node35&#45;&gt;Node20 -->
<g id="edge74" class="edge"><title>Node35&#45;&gt;Node20</title>
<path fill="none" stroke="midnightblue" d="M986.503,-186.985C1010.31,-176.516 1049.79,-159.154 1077.04,-147.174"/>
<polygon fill="midnightblue" stroke="midnightblue" points="1078.73,-150.255 1086.47,-143.026 1075.91,-143.848 1078.73,-150.255"/>
</g>
<!-- Node36 -->
<g id="node36" class="node"><title>Node36</title>
<polygon fill="none" stroke="#bfbfbf" points="919.094,-117 919.094,-149 1012.91,-149 1012.91,-117 919.094,-117"/>
<text text-anchor="start" x="927.094" y="-135" font-family="Helvetica,sans-Serif" font-size="10.00">internal/small_set</text>
<text text-anchor="middle" x="966" y="-123" font-family="Helvetica,sans-Serif" font-size="10.00">_map.h</text>
</g>
<!-- Node35&#45;&gt;Node36 -->
<g id="edge75" class="edge"><title>Node35&#45;&gt;Node36</title>
<path fill="none" stroke="midnightblue" d="M966,-186.852C966,-179.629 966,-169.185 966,-159.486"/>
<polygon fill="midnightblue" stroke="midnightblue" points="969.5,-159.44 966,-149.44 962.5,-159.44 969.5,-159.44"/>
</g>
<!-- Node37&#45;&gt;Node11 -->
<g id="edge79" class="edge"><title>Node37&#45;&gt;Node11</title>
<path fill="none" stroke="midnightblue" d="M1067.8,-421.618C1136.91,-409.042 1296.39,-380.5 1431,-360 1585.36,-336.492 2041.91,-344.901 2117,-208 2142.04,-162.338 2070.67,-124.672 2054,-116 1997.73,-86.7284 1813.13,-75.4734 1724.85,-71.6873"/>
<polygon fill="midnightblue" stroke="midnightblue" points="1724.97,-68.1893 1714.83,-71.272 1724.68,-75.1833 1724.97,-68.1893"/>
</g>
<!-- Node37&#45;&gt;Node13 -->
<g id="edge102" class="edge"><title>Node37&#45;&gt;Node13</title>
<path fill="none" stroke="midnightblue" d="M1015.02,-418.823C984.899,-402.784 923.555,-367.206 883,-324 841.79,-280.096 829.147,-266.01 813,-208 807.608,-188.63 817.086,-166.986 826.074,-152.136"/>
<polygon fill="midnightblue" stroke="midnightblue" points="829.209,-153.736 831.748,-143.45 823.349,-149.908 829.209,-153.736"/>
</g>
<!-- Node37&#45;&gt;Node30 -->
<g id="edge80" class="edge"><title>Node37&#45;&gt;Node30</title>
<path fill="none" stroke="midnightblue" d="M1067.23,-418.954C1117.06,-404.631 1210.94,-373.205 1278,-324 1297.06,-310.013 1313.98,-288.585 1324.55,-273.53"/>
<polygon fill="midnightblue" stroke="midnightblue" points="1327.55,-275.341 1330.28,-265.103 1321.76,-271.407 1327.55,-275.341"/>
</g>
<!-- Node37&#45;&gt;Node38 -->
<g id="edge81" class="edge"><title>Node37&#45;&gt;Node38</title>
<path fill="none" stroke="midnightblue" d="M1037.62,-418.753C1041.5,-411.006 1047.14,-399.714 1051.92,-390.169"/>
<polygon fill="midnightblue" stroke="midnightblue" points="1055.12,-391.585 1056.46,-381.075 1048.86,-388.454 1055.12,-391.585"/>
</g>
<!-- Node38&#45;&gt;Node9 -->
<g id="edge101" class="edge"><title>Node38&#45;&gt;Node9</title>
<path fill="none" stroke="midnightblue" d="M1080.28,-360.941C1094.15,-353.26 1111.79,-340.806 1120,-324 1124.29,-315.214 1123.4,-311.167 1120,-302 1112.65,-282.205 1096.35,-285.795 1089,-266 1085.6,-256.833 1083.07,-251.778 1089,-244 1105.58,-222.232 1182.99,-208.166 1226.36,-201.852"/>
<polygon fill="midnightblue" stroke="midnightblue" points="1226.92,-205.308 1236.34,-200.449 1225.95,-198.376 1226.92,-205.308"/>
</g>
<!-- Node38&#45;&gt;Node11 -->
<g id="edge82" class="edge"><title>Node38&#45;&gt;Node11</title>
<path fill="none" stroke="midnightblue" d="M1084.13,-369.163C1194.4,-365.062 1662.21,-346.389 1683,-324 1701.46,-304.125 1670.75,-292.273 1664,-266 1660.39,-251.947 1660.51,-132.751 1663,-116 1664.35,-106.929 1667.12,-97.1721 1669.84,-88.9885"/>
<polygon fill="midnightblue" stroke="midnightblue" points="1673.22,-89.9214 1673.27,-79.3267 1666.63,-87.5808 1673.22,-89.9214"/>
</g>
<!-- Node38&#45;&gt;Node39 -->
<g id="edge83" class="edge"><title>Node38&#45;&gt;Node39</title>
<path fill="none" stroke="midnightblue" d="M1084.19,-368.869C1225.19,-361.991 1967.78,-325.767 2162.31,-316.277"/>
<polygon fill="midnightblue" stroke="midnightblue" points="2162.67,-319.764 2172.49,-315.781 2162.33,-312.773 2162.67,-319.764"/>
</g>
<!-- Node42 -->
<g id="node42" class="node"><title>Node42</title>
<g id="a_node42"><a xlink:href="HDF5_2types_8h.html" target="_top" xlink:title="Handle read/write of Model data from/to files. ">
<polygon fill="none" stroke="red" points="1168.21,-303 1168.21,-323 1269.79,-323 1269.79,-303 1168.21,-303"/>
<text text-anchor="middle" x="1219" y="-309" font-family="Helvetica,sans-Serif" font-size="10.00">RMF/HDF5/types.h</text>
</a>
</g>
</g>
<!-- Node38&#45;&gt;Node42 -->
<g id="edge91" class="edge"><title>Node38&#45;&gt;Node42</title>
<path fill="none" stroke="midnightblue" d="M1084.31,-361.737C1110.54,-352.443 1153.41,-337.247 1183.73,-326.499"/>
<polygon fill="midnightblue" stroke="midnightblue" points="1185.24,-329.68 1193.49,-323.04 1182.9,-323.082 1185.24,-329.68"/>
</g>
<!-- Node43 -->
<g id="node43" class="node"><title>Node43</title>
<polygon fill="none" stroke="#bfbfbf" points="1098.2,-245 1098.2,-265 1189.8,-265 1189.8,-245 1098.2,-245"/>
<text text-anchor="middle" x="1144" y="-251" font-family="Helvetica,sans-Serif" font-size="10.00">boost/cstdint.hpp</text>
</g>
<!-- Node38&#45;&gt;Node43 -->
<g id="edge98" class="edge"><title>Node38&#45;&gt;Node43</title>
<path fill="none" stroke="midnightblue" d="M1037.67,-368.77C982.807,-365.047 853.233,-350.952 894,-302 906.332,-287.192 1018.21,-271.178 1088.06,-262.496"/>
<polygon fill="midnightblue" stroke="midnightblue" points="1088.54,-265.963 1098.04,-261.269 1087.69,-259.015 1088.54,-265.963"/>
</g>
<!-- Node44 -->
<g id="node44" class="node"><title>Node44</title>
<polygon fill="none" stroke="#bfbfbf" points="965.625,-303 965.625,-323 1050.38,-323 1050.38,-303 965.625,-303"/>
<text text-anchor="middle" x="1008" y="-309" font-family="Helvetica,sans-Serif" font-size="10.00">boost/array.hpp</text>
</g>
<!-- Node38&#45;&gt;Node44 -->
<g id="edge97" class="edge"><title>Node38&#45;&gt;Node44</title>
<path fill="none" stroke="midnightblue" d="M1052.25,-360.753C1044.45,-352.516 1032.87,-340.274 1023.5,-330.382"/>
<polygon fill="midnightblue" stroke="midnightblue" points="1026,-327.932 1016.59,-323.075 1020.92,-332.744 1026,-327.932"/>
</g>
<!-- Node45 -->
<g id="node45" class="node"><title>Node45</title>
<polygon fill="none" stroke="#bfbfbf" points="1068.38,-303 1068.38,-323 1111.62,-323 1111.62,-303 1068.38,-303"/>
<text text-anchor="middle" x="1090" y="-309" font-family="Helvetica,sans-Serif" font-size="10.00">cmath</text>
</g>
<!-- Node38&#45;&gt;Node45 -->
<g id="edge99" class="edge"><title>Node38&#45;&gt;Node45</title>
<path fill="none" stroke="midnightblue" d="M1065.79,-360.753C1069.8,-353.006 1075.65,-341.714 1080.59,-332.169"/>
<polygon fill="midnightblue" stroke="midnightblue" points="1083.81,-333.565 1085.3,-323.075 1077.59,-330.346 1083.81,-333.565"/>
</g>
<!-- Node46 -->
<g id="node46" class="node"><title>Node46</title>
<polygon fill="none" stroke="#bfbfbf" points="902.828,-303 902.828,-323 947.172,-323 947.172,-303 902.828,-303"/>
<text text-anchor="middle" x="925" y="-309" font-family="Helvetica,sans-Serif" font-size="10.00">cstdlib</text>
</g>
<!-- Node38&#45;&gt;Node46 -->
<g id="edge100" class="edge"><title>Node38&#45;&gt;Node46</title>
<path fill="none" stroke="midnightblue" d="M1038.85,-360.878C1016.52,-351.685 981.852,-337.409 956.635,-327.026"/>
<polygon fill="midnightblue" stroke="midnightblue" points="957.723,-323.689 947.144,-323.118 955.058,-330.162 957.723,-323.689"/>
</g>
<!-- Node39&#45;&gt;Node11 -->
<g id="edge84" class="edge"><title>Node39&#45;&gt;Node11</title>
<path fill="none" stroke="midnightblue" d="M2213.92,-302.686C2229.63,-271.553 2274.69,-170.031 2225,-116 2191.49,-79.5582 1852.53,-71.9711 1725.09,-70.4039"/>
<polygon fill="midnightblue" stroke="midnightblue" points="1724.9,-66.9015 1714.86,-70.2855 1724.82,-73.901 1724.9,-66.9015"/>
</g>
<!-- Node40 -->
<g id="node40" class="node"><title>Node40</title>
<g id="a_node40"><a xlink:href="default__types_8h.html" target="_top" xlink:title="Default implementation for types.h. ">
<polygon fill="none" stroke="black" points="1705.87,-245 1705.87,-265 1814.13,-265 1814.13,-245 1705.87,-245"/>
<text text-anchor="middle" x="1760" y="-251" font-family="Helvetica,sans-Serif" font-size="10.00">RMF/default_types.h</text>
</a>
</g>
</g>
<!-- Node39&#45;&gt;Node40 -->
<g id="edge85" class="edge"><title>Node39&#45;&gt;Node40</title>
<path fill="none" stroke="midnightblue" d="M2172.48,-308.126C2105.57,-300.924 1958.58,-284.625 1824.33,-266.144"/>
<polygon fill="midnightblue" stroke="midnightblue" points="1824.66,-262.656 1814.28,-264.752 1823.7,-269.59 1824.66,-262.656"/>
</g>
<!-- Node40&#45;&gt;Node11 -->
<g id="edge86" class="edge"><title>Node40&#45;&gt;Node11</title>
<path fill="none" stroke="midnightblue" d="M1754.28,-244.667C1748.76,-235.5 1740.34,-221.032 1734,-208 1713.76,-166.417 1694.04,-115.765 1683.95,-88.8836"/>
<polygon fill="midnightblue" stroke="midnightblue" points="1687.12,-87.3641 1680.36,-79.2121 1680.56,-89.8049 1687.12,-87.3641"/>
</g>
<!-- Node41 -->
<g id="node41" class="node"><title>Node41</title>
<g id="a_node41"><a xlink:href="Vector_8h.html" target="_top" xlink:title="Represent coordinates. ">
<polygon fill="none" stroke="red" points="1406.93,-187 1406.93,-207 1459.07,-207 1459.07,-187 1406.93,-187"/>
<text text-anchor="middle" x="1433" y="-193" font-family="Helvetica,sans-Serif" font-size="10.00">Vector.h</text>
</a>
</g>
</g>
<!-- Node40&#45;&gt;Node41 -->
<g id="edge87" class="edge"><title>Node40&#45;&gt;Node41</title>
<path fill="none" stroke="midnightblue" d="M1707.1,-244.94C1640.39,-233.517 1527.45,-214.175 1469.58,-204.264"/>
<polygon fill="midnightblue" stroke="midnightblue" points="1469.88,-200.765 1459.44,-202.527 1468.7,-207.665 1469.88,-200.765"/>
</g>
<!-- Node41&#45;&gt;Node11 -->
<g id="edge88" class="edge"><title>Node41&#45;&gt;Node11</title>
<path fill="none" stroke="midnightblue" d="M1434.85,-186.947C1438.76,-170.192 1449.53,-134.385 1473,-116 1517.81,-80.8991 1584.25,-71.5389 1629.02,-69.5558"/>
<polygon fill="midnightblue" stroke="midnightblue" points="1629.19,-73.0522 1639.07,-69.218 1628.96,-66.0562 1629.19,-73.0522"/>
</g>
<!-- Node41&#45;&gt;Node13 -->
<g id="edge89" class="edge"><title>Node41&#45;&gt;Node13</title>
<path fill="none" stroke="midnightblue" d="M1406.68,-192.314C1391.58,-190.277 1372.24,-187.802 1355,-186 1157.65,-165.378 1106.16,-179.885 910,-150 901.741,-148.742 893.012,-147.066 884.607,-145.273"/>
<polygon fill="midnightblue" stroke="midnightblue" points="885.089,-141.795 874.569,-143.047 883.574,-148.629 885.089,-141.795"/>
</g>
<!-- Node41&#45;&gt;Node20 -->
<g id="edge90" class="edge"><title>Node41&#45;&gt;Node20</title>
<path fill="none" stroke="midnightblue" d="M1406.81,-189.192C1402.22,-188.074 1397.48,-186.966 1393,-186 1308.94,-167.871 1210.08,-150.838 1153.35,-141.474"/>
<polygon fill="midnightblue" stroke="midnightblue" points="1153.7,-137.984 1143.27,-139.816 1152.57,-144.891 1153.7,-137.984"/>
</g>
<!-- Node42&#45;&gt;Node9 -->
<g id="edge96" class="edge"><title>Node42&#45;&gt;Node9</title>
<path fill="none" stroke="midnightblue" d="M1222.03,-302.671C1228.1,-283.957 1241.88,-241.517 1249.9,-216.809"/>
<polygon fill="midnightblue" stroke="midnightblue" points="1253.28,-217.731 1253.03,-207.139 1246.62,-215.57 1253.28,-217.731"/>
</g>
<!-- Node42&#45;&gt;Node11 -->
<g id="edge92" class="edge"><title>Node42&#45;&gt;Node11</title>
<path fill="none" stroke="midnightblue" d="M1216.55,-302.873C1211.07,-280.313 1200.39,-221.205 1228,-186 1277.7,-122.619 1524,-87.4513 1629.21,-75.113"/>
<polygon fill="midnightblue" stroke="midnightblue" points="1629.71,-78.5791 1639.24,-73.9562 1628.91,-71.6252 1629.71,-78.5791"/>
</g>
<!-- Node42&#45;&gt;Node23 -->
<g id="edge93" class="edge"><title>Node42&#45;&gt;Node23</title>
<path fill="none" stroke="midnightblue" d="M1168.04,-307.091C1112.76,-300.914 1022.31,-288.31 947,-266 794.007,-220.676 627.59,-121.814 567.893,-84.578"/>
<polygon fill="midnightblue" stroke="midnightblue" points="569.577,-81.5024 559.247,-79.1485 565.854,-87.4306 569.577,-81.5024"/>
</g>
<!-- Node42&#45;&gt;Node30 -->
<g id="edge94" class="edge"><title>Node42&#45;&gt;Node30</title>
<path fill="none" stroke="midnightblue" d="M1238.06,-302.878C1257.01,-293.807 1286.3,-279.788 1307.92,-269.442"/>
<polygon fill="midnightblue" stroke="midnightblue" points="1309.44,-272.592 1316.95,-265.118 1306.42,-266.278 1309.44,-272.592"/>
</g>
<!-- Node42&#45;&gt;Node43 -->
<g id="edge95" class="edge"><title>Node42&#45;&gt;Node43</title>
<path fill="none" stroke="midnightblue" d="M1206.62,-302.753C1195.15,-294.19 1177.88,-281.298 1164.38,-271.219"/>
<polygon fill="midnightblue" stroke="midnightblue" points="1166.26,-268.254 1156.15,-265.075 1162.07,-273.863 1166.26,-268.254"/>
</g>
<!-- Node50&#45;&gt;Node2 -->
<g id="edge119" class="edge"><title>Node50&#45;&gt;Node2</title>
<path fill="none" stroke="midnightblue" d="M813.338,-556.047C931.302,-555.68 1285.64,-550.977 1576,-510 1830.52,-474.082 1892.81,-452.491 2140,-382 2215.96,-360.338 2246.9,-374.067 2308,-324 2341.98,-296.158 2358.84,-245.093 2365.85,-217.285"/>
<polygon fill="midnightblue" stroke="midnightblue" points="2369.33,-217.773 2368.2,-207.238 2362.51,-216.176 2369.33,-217.773"/>
</g>
<!-- Node50&#45;&gt;Node3 -->
<g id="edge120" class="edge"><title>Node50&#45;&gt;Node3</title>
<path fill="none" stroke="midnightblue" d="M732.884,-555.39C618.717,-553.243 298.229,-544.196 267,-510 208.258,-445.675 267,-401.111 267,-314 267,-314 267,-314 267,-196 267,-127.755 356.82,-91.9456 405.109,-77.625"/>
<polygon fill="midnightblue" stroke="midnightblue" points="406.072,-80.99 414.735,-74.8914 404.159,-74.2562 406.072,-80.99"/>
</g>
<!-- Node50&#45;&gt;Node4 -->
<g id="edge121" class="edge"><title>Node50&#45;&gt;Node4</title>
<path fill="none" stroke="midnightblue" d="M733.002,-554.452C625.896,-550.001 334.468,-535.811 242,-510 149.59,-484.205 76,-467.942 76,-372 76,-372 76,-372 76,-196 76,-156.216 93.5803,-112.259 104.825,-88.2124"/>
<polygon fill="midnightblue" stroke="midnightblue" points="107.983,-89.7219 109.187,-79.1957 101.682,-86.6736 107.983,-89.7219"/>
</g>
<!-- Node50&#45;&gt;Node11 -->
<g id="edge125" class="edge"><title>Node50&#45;&gt;Node11</title>
<path fill="none" stroke="midnightblue" d="M813.147,-549.697C868.347,-540.99 970.767,-524.691 1058,-510 1235.54,-480.1 1287.83,-501.606 1457,-440 1475.34,-433.322 1477.67,-426.966 1495,-418 1584.03,-371.949 1645.87,-408.363 1700,-324 1705.28,-315.77 1700.48,-311.766 1700,-302 1698.96,-281 1684.46,-141.25 1679.03,-89.3537"/>
<polygon fill="midnightblue" stroke="midnightblue" points="1682.49,-88.757 1677.96,-79.1759 1675.52,-89.4861 1682.49,-88.757"/>
</g>
<!-- Node50&#45;&gt;Node13 -->
<g id="edge128" class="edge"><title>Node50&#45;&gt;Node13</title>
<path fill="none" stroke="midnightblue" d="M732.88,-551.533C670.893,-544.171 555.109,-528.45 518,-510 450.345,-476.363 404.141,-427.544 438,-360 504.947,-226.452 687.947,-167.434 781.812,-145.311"/>
<polygon fill="midnightblue" stroke="midnightblue" points="782.745,-148.688 791.707,-143.038 781.178,-141.865 782.745,-148.688"/>
</g>
<!-- Node50&#45;&gt;Node20 -->
<g id="edge127" class="edge"><title>Node50&#45;&gt;Node20</title>
<path fill="none" stroke="midnightblue" d="M763.16,-546.869C754.684,-538.287 743.042,-524.608 738,-510 715.995,-446.245 722.173,-415.149 761,-360 807.716,-293.647 830.739,-282.82 902,-244 942.747,-221.802 958.811,-229.368 1000,-208 1004.5,-205.667 1055.26,-170.248 1085.22,-149.272"/>
<polygon fill="midnightblue" stroke="midnightblue" points="1087.59,-151.882 1093.78,-143.278 1083.58,-146.149 1087.59,-151.882"/>
</g>
<!-- Node50&#45;&gt;Node28 -->
<g id="edge123" class="edge"><title>Node50&#45;&gt;Node28</title>
<path fill="none" stroke="midnightblue" d="M796.847,-546.985C824.904,-536.378 871.674,-518.696 903.396,-506.704"/>
<polygon fill="midnightblue" stroke="midnightblue" points="905.008,-509.836 913.124,-503.026 902.533,-503.289 905.008,-509.836"/>
</g>
<!-- Node50&#45;&gt;Node30 -->
<g id="edge122" class="edge"><title>Node50&#45;&gt;Node30</title>
<path fill="none" stroke="midnightblue" d="M813.046,-551.13C858.897,-544.808 935.823,-531.908 999,-510 1118.44,-468.583 1146.51,-450.12 1253,-382 1287.91,-359.67 1305.31,-359.905 1326,-324 1334.55,-309.152 1336.66,-289.564 1336.86,-275.226"/>
<polygon fill="midnightblue" stroke="midnightblue" points="1340.35,-274.987 1336.69,-265.044 1333.35,-275.099 1340.35,-274.987"/>
</g>
<!-- Node50&#45;&gt;Node31 -->
<g id="edge124" class="edge"><title>Node50&#45;&gt;Node31</title>
<path fill="none" stroke="midnightblue" d="M767.739,-546.922C755.363,-524.307 726.843,-463.97 746,-418 774.167,-350.409 800.756,-340.57 863,-302 888.475,-286.214 920.039,-275.072 946.239,-267.712"/>
<polygon fill="midnightblue" stroke="midnightblue" points="947.254,-271.063 955.994,-265.075 945.427,-264.306 947.254,-271.063"/>
</g>
<!-- Node50&#45;&gt;Node32 -->
<g id="edge129" class="edge"><title>Node50&#45;&gt;Node32</title>
<path fill="none" stroke="midnightblue" d="M813.168,-555.841C939.623,-554.936 1328.17,-548.973 1447,-510 1489.35,-496.109 1531.68,-464.763 1554.89,-445.693"/>
<polygon fill="midnightblue" stroke="midnightblue" points="1557.4,-448.157 1562.81,-439.048 1552.9,-442.794 1557.4,-448.157"/>
</g>
<!-- Node50&#45;&gt;Node34 -->
<g id="edge126" class="edge"><title>Node50&#45;&gt;Node34</title>
<path fill="none" stroke="midnightblue" d="M732.791,-551.774C650.383,-542.917 467.87,-522.217 442,-510 421.238,-500.195 378.255,-459.417 366,-440 356.634,-425.16 351.196,-405.855 348.211,-391.608"/>
<polygon fill="midnightblue" stroke="midnightblue" points="351.59,-390.636 346.315,-381.448 344.709,-391.921 351.59,-390.636"/>
</g>
<!-- Node50&#45;&gt;Node39 -->
<g id="edge131" class="edge"><title>Node50&#45;&gt;Node39</title>
<path fill="none" stroke="midnightblue" d="M813.23,-556.534C923.193,-557.329 1237.68,-555.151 1494,-510 1637.22,-484.772 1667.82,-456.703 1808,-418 1935.96,-382.671 2087.85,-344.225 2162.65,-325.521"/>
<polygon fill="midnightblue" stroke="midnightblue" points="2163.83,-328.834 2172.68,-323.015 2162.13,-322.043 2163.83,-328.834"/>
</g>
<!-- Node50&#45;&gt;Node48 -->
<g id="edge130" class="edge"><title>Node50&#45;&gt;Node48</title>
<path fill="none" stroke="midnightblue" d="M732.949,-552.301C665.001,-545.737 522.925,-530.762 404,-510 396.211,-508.64 387.987,-506.989 380.007,-505.27"/>
<polygon fill="midnightblue" stroke="midnightblue" points="380.6,-501.817 370.08,-503.074 379.087,-508.652 380.6,-501.817"/>
</g>
</g>
</svg>
