<?xml version="1.0" encoding="UTF-8" standalone="no"?>
<!DOCTYPE svg PUBLIC "-//W3C//DTD SVG 1.1//EN"
 "http://www.w3.org/Graphics/SVG/1.1/DTD/svg11.dtd">
<!-- Generated by graphviz version 2.34.0 (20131025.1349)
 -->
<!-- Title: FileHandle.h Pages: 1 -->
<svg width="729pt" height="204pt"
 viewBox="0.00 0.00 729.00 204.00" xmlns="http://www.w3.org/2000/svg" xmlns:xlink="http://www.w3.org/1999/xlink">
<g id="graph0" class="graph" transform="scale(1 1) rotate(0) translate(4 200)">
<title>FileHandle.h</title>
<!-- Node1 -->
<g id="node1" class="node"><title>Node1</title>
<polygon fill="#bfbfbf" stroke="black" points="330.929,-175 330.929,-195 403.071,-195 403.071,-175 330.929,-175"/>
<text text-anchor="middle" x="367" y="-181" font-family="Helvetica,sans-Serif" font-size="10.00">FileHandle.h</text>
</g>
<!-- Node2 -->
<g id="node2" class="node"><title>Node2</title>
<g id="a_node2"><a xlink:href="alias_8h.html" target="_top" xlink:title="Helper functions for manipulating RMF files. ">
<polygon fill="none" stroke="black" points="472.547,-117 472.547,-137 517.453,-137 517.453,-117 472.547,-117"/>
<text text-anchor="middle" x="495" y="-123" font-family="Helvetica,sans-Serif" font-size="10.00">alias.h</text>
</a>
</g>
</g>
<!-- Node1&#45;&gt;Node2 -->
<g id="edge1" class="edge"><title>Node1&#45;&gt;Node2</title>
<path fill="none" stroke="midnightblue" d="M397.1,-170.831C420.808,-160.459 453.242,-146.269 474.159,-137.118"/>
<polygon fill="midnightblue" stroke="midnightblue" points="395.609,-167.663 387.85,-174.878 398.415,-174.076 395.609,-167.663"/>
</g>
<!-- Node4 -->
<g id="node4" class="node"><title>Node4</title>
<g id="a_node4"><a xlink:href="physics_8h.html" target="_top" xlink:title="Helper functions for manipulating RMF files. ">
<polygon fill="none" stroke="black" points="463.158,-59 463.158,-79 520.842,-79 520.842,-59 463.158,-59"/>
<text text-anchor="middle" x="492" y="-65" font-family="Helvetica,sans-Serif" font-size="10.00">physics.h</text>
</a>
</g>
</g>
<!-- Node1&#45;&gt;Node4 -->
<g id="edge10" class="edge"><title>Node1&#45;&gt;Node4</title>
<path fill="none" stroke="midnightblue" d="M413.454,-176.846C455.343,-169.334 512.401,-156.09 526,-138 540.276,-119.009 517.667,-93.1059 502.985,-79.3997"/>
<polygon fill="midnightblue" stroke="midnightblue" points="412.688,-173.427 403.435,-178.587 413.886,-180.323 412.688,-173.427"/>
</g>
<!-- Node5 -->
<g id="node5" class="node"><title>Node5</title>
<g id="a_node5"><a xlink:href="benchmark__rmf_8cpp_source.html" target="_top" xlink:title="benchmark_rmf.cpp">
<polygon fill="none" stroke="black" points="520.815,-1 520.815,-21 625.185,-21 625.185,-1 520.815,-1"/>
<text text-anchor="middle" x="573" y="-7" font-family="Helvetica,sans-Serif" font-size="10.00">benchmark_rmf.cpp</text>
</a>
</g>
</g>
<!-- Node1&#45;&gt;Node5 -->
<g id="edge25" class="edge"><title>Node1&#45;&gt;Node5</title>
<path fill="none" stroke="midnightblue" d="M413.116,-181.402C455.315,-177.224 518.129,-166.339 565,-138 600.88,-116.306 630.162,-97.0916 615,-58 609.056,-42.6748 595.364,-29.3314 585.22,-21.0193"/>
<polygon fill="midnightblue" stroke="midnightblue" points="412.764,-177.919 403.119,-182.304 413.393,-184.891 412.764,-177.919"/>
</g>
<!-- Node6 -->
<g id="node6" class="node"><title>Node6</title>
<g id="a_node6"><a xlink:href="external_8h.html" target="_top" xlink:title="Helper functions for manipulating RMF files. ">
<polygon fill="none" stroke="black" points="-0.958008,-59 -0.958008,-79 58.958,-79 58.958,-59 -0.958008,-59"/>
<text text-anchor="middle" x="29" y="-65" font-family="Helvetica,sans-Serif" font-size="10.00">external.h</text>
</a>
</g>
</g>
<!-- Node1&#45;&gt;Node6 -->
<g id="edge6" class="edge"><title>Node1&#45;&gt;Node6</title>
<path fill="none" stroke="midnightblue" d="M320.613,-178.752C275.029,-172.582 204.058,-160.242 146,-138 105.412,-122.451 62.3854,-93.8635 41.6409,-79.2023"/>
<polygon fill="midnightblue" stroke="midnightblue" points="320.415,-182.256 330.785,-180.083 321.323,-175.315 320.415,-182.256"/>
</g>
<!-- Node7 -->
<g id="node7" class="node"><title>Node7</title>
<g id="a_node7"><a xlink:href="feature_8h.html" target="_top" xlink:title="Helper functions for manipulating RMF files. ">
<polygon fill="none" stroke="black" points="77.2637,-59 77.2637,-79 132.736,-79 132.736,-59 77.2637,-59"/>
<text text-anchor="middle" x="105" y="-65" font-family="Helvetica,sans-Serif" font-size="10.00">feature.h</text>
</a>
</g>
</g>
<!-- Node1&#45;&gt;Node7 -->
<g id="edge8" class="edge"><title>Node1&#45;&gt;Node7</title>
<path fill="none" stroke="midnightblue" d="M320.643,-179.22C281.106,-173.651 223.733,-161.95 179,-138 150.39,-122.682 124.29,-93.7263 112.155,-79.0364"/>
<polygon fill="midnightblue" stroke="midnightblue" points="320.419,-182.721 330.793,-180.57 321.342,-175.782 320.419,-182.721"/>
</g>
<!-- Node8 -->
<g id="node8" class="node"><title>Node8</title>
<g id="a_node8"><a xlink:href="publication_8h.html" target="_top" xlink:title="Helper functions for manipulating RMF files. ">
<polygon fill="none" stroke="black" points="150.924,-59 150.924,-79 223.076,-79 223.076,-59 150.924,-59"/>
<text text-anchor="middle" x="187" y="-65" font-family="Helvetica,sans-Serif" font-size="10.00">publication.h</text>
</a>
</g>
</g>
<!-- Node1&#45;&gt;Node8 -->
<g id="edge11" class="edge"><title>Node1&#45;&gt;Node8</title>
<path fill="none" stroke="midnightblue" d="M320.715,-177.954C274.59,-170.903 208.337,-157.651 192,-138 178.076,-121.251 181.585,-93.4499 184.66,-79.1365"/>
<polygon fill="midnightblue" stroke="midnightblue" points="320.4,-181.445 330.805,-179.447 321.425,-174.52 320.4,-181.445"/>
</g>
<!-- Node9 -->
<g id="node9" class="node"><title>Node9</title>
<g id="a_node9"><a xlink:href="sequence_8h.html" target="_top" xlink:title="Helper functions for manipulating RMF files. ">
<polygon fill="none" stroke="black" points="539.146,-59 539.146,-79 606.854,-79 606.854,-59 539.146,-59"/>
<text text-anchor="middle" x="573" y="-65" font-family="Helvetica,sans-Serif" font-size="10.00">sequence.h</text>
</a>
</g>
</g>
<!-- Node1&#45;&gt;Node9 -->
<g id="edge13" class="edge"><title>Node1&#45;&gt;Node9</title>
<path fill="none" stroke="midnightblue" d="M413.209,-182.738C451.981,-179.37 506.693,-168.922 543,-138 561.075,-122.606 568.665,-94.2118 571.505,-79.4579"/>
<polygon fill="midnightblue" stroke="midnightblue" points="412.934,-179.249 403.221,-183.481 413.454,-186.23 412.934,-179.249"/>
</g>
<!-- Node10 -->
<g id="node10" class="node"><title>Node10</title>
<g id="a_node10"><a xlink:href="shape_8h.html" target="_top" xlink:title="Helper functions for manipulating RMF files. ">
<polygon fill="none" stroke="black" points="241.207,-59 241.207,-79 292.793,-79 292.793,-59 241.207,-59"/>
<text text-anchor="middle" x="267" y="-65" font-family="Helvetica,sans-Serif" font-size="10.00">shape.h</text>
</a>
</g>
</g>
<!-- Node1&#45;&gt;Node10 -->
<g id="edge16" class="edge"><title>Node1&#45;&gt;Node10</title>
<path fill="none" stroke="midnightblue" d="M320.722,-177.586C276.553,-170.404 214.624,-157.197 200,-138 182.424,-114.929 220.187,-91.6238 245.843,-79.1858"/>
<polygon fill="midnightblue" stroke="midnightblue" points="320.268,-181.058 330.69,-179.155 321.356,-174.143 320.268,-181.058"/>
</g>
<!-- Node11 -->
<g id="node11" class="node"><title>Node11</title>
<g id="a_node11"><a xlink:href="bond_8h.html" target="_top" xlink:title="Helper functions for manipulating RMF files. ">
<polygon fill="none" stroke="black" points="208.707,-117 208.707,-137 255.293,-137 255.293,-117 208.707,-117"/>
<text text-anchor="middle" x="232" y="-123" font-family="Helvetica,sans-Serif" font-size="10.00">bond.h</text>
</a>
</g>
</g>
<!-- Node1&#45;&gt;Node11 -->
<g id="edge18" class="edge"><title>Node1&#45;&gt;Node11</title>
<path fill="none" stroke="midnightblue" d="M335.587,-170.969C310.553,-160.585 276.14,-146.31 253.981,-137.118"/>
<polygon fill="midnightblue" stroke="midnightblue" points="334.432,-174.279 345.009,-174.878 337.114,-167.813 334.432,-174.279"/>
</g>
<!-- Node12 -->
<g id="node12" class="node"><title>Node12</title>
<g id="a_node12"><a xlink:href="representation_8h.html" target="_top" xlink:title="Helper functions for manipulating RMF files. ">
<polygon fill="none" stroke="black" points="272.865,-117 272.865,-137 361.135,-137 361.135,-117 272.865,-117"/>
<text text-anchor="middle" x="317" y="-123" font-family="Helvetica,sans-Serif" font-size="10.00">representation.h</text>
</a>
</g>
</g>
<!-- Node1&#45;&gt;Node12 -->
<g id="edge20" class="edge"><title>Node1&#45;&gt;Node12</title>
<path fill="none" stroke="midnightblue" d="M351.924,-167.114C343.111,-157.244 332.334,-145.174 325.103,-137.075"/>
<polygon fill="midnightblue" stroke="midnightblue" points="349.473,-169.624 358.744,-174.753 354.694,-164.962 349.473,-169.624"/>
</g>
<!-- Node13 -->
<g id="node13" class="node"><title>Node13</title>
<g id="a_node13"><a xlink:href="alternatives_8h.html" target="_top" xlink:title="Helper functions for manipulating RMF files. ">
<polygon fill="none" stroke="black" points="379.261,-117 379.261,-137 454.739,-137 454.739,-117 379.261,-117"/>
<text text-anchor="middle" x="417" y="-123" font-family="Helvetica,sans-Serif" font-size="10.00">alternatives.h</text>
</a>
</g>
</g>
<!-- Node1&#45;&gt;Node13 -->
<g id="edge22" class="edge"><title>Node1&#45;&gt;Node13</title>
<path fill="none" stroke="midnightblue" d="M382.076,-167.114C390.889,-157.244 401.666,-145.174 408.897,-137.075"/>
<polygon fill="midnightblue" stroke="midnightblue" points="379.306,-164.962 375.256,-174.753 384.527,-169.624 379.306,-164.962"/>
</g>
<!-- Node14 -->
<g id="node14" class="node"><title>Node14</title>
<g id="a_node14"><a xlink:href="validate_8h.html" target="_top" xlink:title="Handle read/write of Model data from/to files. ">
<polygon fill="none" stroke="black" points="662.596,-117 662.596,-137 721.404,-137 721.404,-117 662.596,-117"/>
<text text-anchor="middle" x="692" y="-123" font-family="Helvetica,sans-Serif" font-size="10.00">validate.h</text>
</a>
</g>
</g>
<!-- Node1&#45;&gt;Node14 -->
<g id="edge24" class="edge"><title>Node1&#45;&gt;Node14</title>
<path fill="none" stroke="midnightblue" d="M413.158,-177.438C469.147,-169.256 566.308,-154.341 649,-138 653.361,-137.138 657.953,-136.154 662.448,-135.146"/>
<polygon fill="midnightblue" stroke="midnightblue" points="412.588,-173.984 403.196,-178.886 413.596,-180.911 412.588,-173.984"/>
</g>
<!-- Node3 -->
<g id="node3" class="node"><title>Node3</title>
<g id="a_node3"><a xlink:href="decorators_8h.html" target="_top" xlink:title="Import all the decorators headers. ">
<polygon fill="none" stroke="black" points="304.207,-1 304.207,-21 375.793,-21 375.793,-1 304.207,-1"/>
<text text-anchor="middle" x="340" y="-7" font-family="Helvetica,sans-Serif" font-size="10.00">decorators.h</text>
</a>
</g>
</g>
<!-- Node2&#45;&gt;Node3 -->
<g id="edge2" class="edge"><title>Node2&#45;&gt;Node3</title>
<path fill="none" stroke="midnightblue" d="M474.198,-110.7C441.498,-86.6504 379.063,-40.7303 352.481,-21.1799"/>
<polygon fill="midnightblue" stroke="midnightblue" points="472.448,-113.758 482.578,-116.864 476.596,-108.119 472.448,-113.758"/>
</g>
<!-- Node2&#45;&gt;Node4 -->
<g id="edge3" class="edge"><title>Node2&#45;&gt;Node4</title>
<path fill="none" stroke="midnightblue" d="M493.966,-106.707C493.465,-97.3384 492.885,-86.5262 492.486,-79.0752"/>
<polygon fill="midnightblue" stroke="midnightblue" points="490.475,-106.954 494.505,-116.753 497.465,-106.58 490.475,-106.954"/>
</g>
<!-- Node4&#45;&gt;Node3 -->
<g id="edge4" class="edge"><title>Node4&#45;&gt;Node3</title>
<path fill="none" stroke="midnightblue" d="M457.748,-55.3808C429.476,-44.9649 390.029,-30.4319 364.749,-21.1181"/>
<polygon fill="midnightblue" stroke="midnightblue" points="456.647,-58.7051 467.24,-58.878 459.067,-52.1367 456.647,-58.7051"/>
</g>
<!-- Node4&#45;&gt;Node5 -->
<g id="edge5" class="edge"><title>Node4&#45;&gt;Node5</title>
<path fill="none" stroke="midnightblue" d="M513.89,-52.8661C528.585,-42.7069 547.456,-29.6601 559.873,-21.0752"/>
<polygon fill="midnightblue" stroke="midnightblue" points="511.611,-50.1869 505.376,-58.7527 515.591,-55.9448 511.611,-50.1869"/>
</g>
<!-- Node6&#45;&gt;Node3 -->
<g id="edge7" class="edge"><title>Node6&#45;&gt;Node3</title>
<path fill="none" stroke="midnightblue" d="M68.9984,-57.92C159.057,-39.0655 253.82,-24.4427 304.177,-17.0838"/>
<polygon fill="midnightblue" stroke="midnightblue" points="68.2343,-54.5041 59.1751,-59.9977 69.6829,-61.3526 68.2343,-54.5041"/>
</g>
<!-- Node7&#45;&gt;Node3 -->
<g id="edge9" class="edge"><title>Node7&#45;&gt;Node3</title>
<path fill="none" stroke="midnightblue" d="M142.849,-57.85C205.103,-42.3044 266.421,-28.3537 304.138,-19.9272"/>
<polygon fill="midnightblue" stroke="midnightblue" points="141.7,-54.5296 132.852,-60.3581 143.404,-61.3192 141.7,-54.5296"/>
</g>
<!-- Node8&#45;&gt;Node3 -->
<g id="edge12" class="edge"><title>Node8&#45;&gt;Node3</title>
<path fill="none" stroke="midnightblue" d="M221.507,-55.3698C250.058,-44.92 289.915,-30.3319 315.342,-21.0253"/>
<polygon fill="midnightblue" stroke="midnightblue" points="220.11,-52.154 211.923,-58.878 222.516,-58.7276 220.11,-52.154"/>
</g>
<!-- Node9&#45;&gt;Node3 -->
<g id="edge14" class="edge"><title>Node9&#45;&gt;Node3</title>
<path fill="none" stroke="midnightblue" d="M529.206,-57.4744C484.858,-46.8155 417.091,-30.5284 375.835,-20.6127"/>
<polygon fill="midnightblue" stroke="midnightblue" points="528.579,-60.9232 539.12,-59.8571 530.215,-54.1171 528.579,-60.9232"/>
</g>
<!-- Node9&#45;&gt;Node5 -->
<g id="edge15" class="edge"><title>Node9&#45;&gt;Node5</title>
<path fill="none" stroke="midnightblue" d="M573,-48.7065C573,-39.3384 573,-28.5262 573,-21.0752"/>
<polygon fill="midnightblue" stroke="midnightblue" points="569.5,-48.7527 573,-58.7527 576.5,-48.7528 569.5,-48.7527"/>
</g>
<!-- Node10&#45;&gt;Node3 -->
<g id="edge17" class="edge"><title>Node10&#45;&gt;Node3</title>
<path fill="none" stroke="midnightblue" d="M287.104,-52.5778C300.292,-42.4611 317.084,-29.5791 328.17,-21.0752"/>
<polygon fill="midnightblue" stroke="midnightblue" points="284.858,-49.8891 279.054,-58.7527 289.119,-55.4431 284.858,-49.8891"/>
</g>
<!-- Node11&#45;&gt;Node3 -->
<g id="edge19" class="edge"><title>Node11&#45;&gt;Node3</title>
<path fill="none" stroke="midnightblue" d="M259.106,-111.906C272.805,-103.857 289.017,-92.8175 301,-80 317.915,-61.9065 330.491,-35.1703 336.348,-21.2253"/>
<polygon fill="midnightblue" stroke="midnightblue" points="257.095,-109.022 250.107,-116.985 260.536,-115.118 257.095,-109.022"/>
</g>
<!-- Node12&#45;&gt;Node3 -->
<g id="edge21" class="edge"><title>Node12&#45;&gt;Node3</title>
<path fill="none" stroke="midnightblue" d="M325.746,-107.4C329.223,-99.1807 332.891,-89.2908 335,-80 339.664,-59.452 340.259,-34.6033 340.189,-21.3687"/>
<polygon fill="midnightblue" stroke="midnightblue" points="322.454,-106.189 321.575,-116.747 328.846,-109.041 322.454,-106.189"/>
</g>
<!-- Node13&#45;&gt;Node3 -->
<g id="edge23" class="edge"><title>Node13&#45;&gt;Node3</title>
<path fill="none" stroke="midnightblue" d="M405.016,-108.257C388.388,-83.6399 358.929,-40.0248 346.173,-21.1394"/>
<polygon fill="midnightblue" stroke="midnightblue" points="402.201,-110.343 410.699,-116.671 408.002,-106.425 402.201,-110.343"/>
</g>
</g>
</svg>
