<?xml version="1.0" encoding="UTF-8" standalone="no"?>
<!DOCTYPE svg PUBLIC "-//W3C//DTD SVG 1.1//EN"
 "http://www.w3.org/Graphics/SVG/1.1/DTD/svg11.dtd">
<!-- Generated by graphviz version 2.34.0 (20131025.1349)
 -->
<!-- Title: FileHandle.h Pages: 1 -->
<svg width="2460pt" height="634pt"
 viewBox="0.00 0.00 2460.00 634.00" xmlns="http://www.w3.org/2000/svg" xmlns:xlink="http://www.w3.org/1999/xlink">
<g id="graph0" class="graph" transform="scale(1 1) rotate(0) translate(4 630)">
<title>FileHandle.h</title>
<!-- Node1 -->
<g id="node1" class="node"><title>Node1</title>
<polygon fill="#bfbfbf" stroke="black" points="1675.93,-605 1675.93,-625 1748.07,-625 1748.07,-605 1675.93,-605"/>
<text text-anchor="middle" x="1712" y="-611" font-family="Helvetica,sans-Serif" font-size="10.00">FileHandle.h</text>
</g>
<!-- Node2 -->
<g id="node2" class="node"><title>Node2</title>
<polygon fill="none" stroke="#bfbfbf" points="180.018,-187 180.018,-207 289.982,-207 289.982,-187 180.018,-187"/>
<text text-anchor="middle" x="235" y="-193" font-family="Helvetica,sans-Serif" font-size="10.00">boost/shared_ptr.hpp</text>
</g>
<!-- Node1&#45;&gt;Node2 -->
<g id="edge1" class="edge"><title>Node1&#45;&gt;Node2</title>
<path fill="none" stroke="midnightblue" d="M1675.91,-613.806C1471.47,-612.573 463.001,-604.662 330,-568 278.604,-553.833 254.035,-554.713 225,-510 163.552,-415.372 208.663,-268.308 227.655,-216.679"/>
<polygon fill="midnightblue" stroke="midnightblue" points="230.99,-217.755 231.263,-207.164 224.445,-215.273 230.99,-217.755"/>
</g>
<!-- Node3 -->
<g id="node3" class="node"><title>Node3</title>
<polygon fill="none" stroke="#bfbfbf" points="2051.77,-59 2051.77,-79 2092.23,-79 2092.23,-59 2051.77,-59"/>
<text text-anchor="middle" x="2072" y="-65" font-family="Helvetica,sans-Serif" font-size="10.00">string</text>
</g>
<!-- Node1&#45;&gt;Node3 -->
<g id="edge2" class="edge"><title>Node1&#45;&gt;Node3</title>
<path fill="none" stroke="midnightblue" d="M1748.17,-611.334C1886.73,-600.648 2376,-558.357 2376,-494 2376,-494 2376,-494 2376,-254 2376,-127.025 2179.5,-85.2861 2102.46,-73.8016"/>
<polygon fill="midnightblue" stroke="midnightblue" points="2102.81,-70.3161 2092.42,-72.3762 2101.83,-77.2466 2102.81,-70.3161"/>
</g>
<!-- Node4 -->
<g id="node4" class="node"><title>Node4</title>
<polygon fill="none" stroke="#bfbfbf" points="2354.38,-59 2354.38,-79 2397.62,-79 2397.62,-59 2354.38,-59"/>
<text text-anchor="middle" x="2376" y="-65" font-family="Helvetica,sans-Serif" font-size="10.00">vector</text>
</g>
<!-- Node1&#45;&gt;Node4 -->
<g id="edge3" class="edge"><title>Node1&#45;&gt;Node4</title>
<path fill="none" stroke="midnightblue" d="M1748.31,-613.596C1833.05,-612.038 2050.07,-604.495 2227,-568 2330.1,-546.734 2452,-599.27 2452,-494 2452,-494 2452,-494 2452,-196 2452,-151.21 2416.35,-108.67 2393.88,-86.3076"/>
<polygon fill="midnightblue" stroke="midnightblue" points="2396.2,-83.6789 2386.57,-79.2684 2391.35,-88.7236 2396.2,-83.6789"/>
</g>
<!-- Node5 -->
<g id="node5" class="node"><title>Node5</title>
<g id="a_node5"><a xlink:href="FileConstHandle_8h.html" target="_top" xlink:title="Handle read/write of Model data from/to files. ">
<polygon fill="none" stroke="black" points="809.867,-547 809.867,-567 908.133,-567 908.133,-547 809.867,-547"/>
<text text-anchor="middle" x="859" y="-553" font-family="Helvetica,sans-Serif" font-size="10.00">FileConstHandle.h</text>
</a>
</g>
</g>
<!-- Node1&#45;&gt;Node5 -->
<g id="edge4" class="edge"><title>Node1&#45;&gt;Node5</title>
<path fill="none" stroke="midnightblue" d="M1675.89,-611.63C1543.48,-602.936 1083.67,-572.75 918.586,-561.912"/>
<polygon fill="midnightblue" stroke="midnightblue" points="918.353,-558.389 908.145,-561.226 917.894,-565.374 918.353,-558.389"/>
</g>
<!-- Node11 -->
<g id="node11" class="node"><title>Node11</title>
<g id="a_node11"><a xlink:href="config_8h_source.html" target="_top" xlink:title="RMF/config.h">
<polygon fill="none" stroke="black" points="584.269,-59 584.269,-79 659.731,-79 659.731,-59 584.269,-59"/>
<text text-anchor="middle" x="622" y="-65" font-family="Helvetica,sans-Serif" font-size="10.00">RMF/config.h</text>
</a>
</g>
</g>
<!-- Node1&#45;&gt;Node11 -->
<g id="edge134" class="edge"><title>Node1&#45;&gt;Node11</title>
<path fill="none" stroke="midnightblue" d="M1675.72,-614.294C1479.29,-615.668 541.456,-619.389 257,-568 155.897,-549.735 38,-596.74 38,-494 38,-494 38,-494 38,-370 38,-232.659 92.9078,-180.802 214,-116 275.259,-83.2174 479.809,-73.6881 573.897,-71.0074"/>
<polygon fill="midnightblue" stroke="midnightblue" points="574.098,-74.5034 584,-70.7339 573.909,-67.5059 574.098,-74.5034"/>
</g>
<!-- Node12 -->
<g id="node12" class="node"><title>Node12</title>
<g id="a_node12"><a xlink:href="compiler__macros_8h.html" target="_top" xlink:title="Various compiler workarounds. ">
<polygon fill="none" stroke="black" points="932.544,-1 932.544,-21 1057.46,-21 1057.46,-1 932.544,-1"/>
<text text-anchor="middle" x="995" y="-7" font-family="Helvetica,sans-Serif" font-size="10.00">RMF/compiler_macros.h</text>
</a>
</g>
</g>
<!-- Node1&#45;&gt;Node12 -->
<g id="edge136" class="edge"><title>Node1&#45;&gt;Node12</title>
<path fill="none" stroke="midnightblue" d="M1675.73,-613.88C1439.78,-612.987 130.439,-606.317 56,-568 19.3284,-549.123 0,-535.245 0,-494 0,-494 0,-494 0,-132 0,-39.0902 692.65,-17.6823 922.133,-13.1392"/>
<polygon fill="midnightblue" stroke="midnightblue" points="922.451,-16.6338 932.381,-12.9415 922.316,-9.63511 922.451,-16.6338"/>
</g>
<!-- Node30 -->
<g id="node30" class="node"><title>Node30</title>
<g id="a_node30"><a xlink:href="ID_8h.html" target="_top" xlink:title="Handle read/write of Model data from/to files. ">
<polygon fill="none" stroke="black" points="1305.61,-245 1305.61,-265 1364.39,-265 1364.39,-245 1305.61,-245"/>
<text text-anchor="middle" x="1335" y="-251" font-family="Helvetica,sans-Serif" font-size="10.00">RMF/ID.h</text>
</a>
</g>
</g>
<!-- Node1&#45;&gt;Node30 -->
<g id="edge119" class="edge"><title>Node1&#45;&gt;Node30</title>
<path fill="none" stroke="midnightblue" d="M1699.89,-604.848C1667.31,-579.997 1575.74,-508.525 1508,-440 1451.87,-383.223 1450.13,-357.766 1393,-302 1381.57,-290.84 1367.56,-279.672 1356.18,-271.135"/>
<polygon fill="midnightblue" stroke="midnightblue" points="1358.2,-268.275 1348.07,-265.163 1354.04,-273.911 1358.2,-268.275"/>
</g>
<!-- Node33 -->
<g id="node33" class="node"><title>Node33</title>
<g id="a_node33"><a xlink:href="types_8h.html" target="_top" xlink:title="RMF/types.h">
<polygon fill="none" stroke="black" points="572.66,-303 572.66,-323 645.34,-323 645.34,-303 572.66,-303"/>
<text text-anchor="middle" x="609" y="-309" font-family="Helvetica,sans-Serif" font-size="10.00">RMF/types.h</text>
</a>
</g>
</g>
<!-- Node1&#45;&gt;Node33 -->
<g id="edge139" class="edge"><title>Node1&#45;&gt;Node33</title>
<path fill="none" stroke="midnightblue" d="M1675.63,-614.348C1459.09,-616.048 345.552,-619.409 247,-510 148.334,-400.466 443.698,-340.195 562.164,-320.914"/>
<polygon fill="midnightblue" stroke="midnightblue" points="563.069,-324.314 572.391,-319.28 561.964,-317.402 563.069,-324.314"/>
</g>
<!-- Node41 -->
<g id="node41" class="node"><title>Node41</title>
<polygon fill="none" stroke="#bfbfbf" points="1944.14,-419 1944.14,-439 2081.86,-439 2081.86,-419 1944.14,-419"/>
<text text-anchor="middle" x="2013" y="-425" font-family="Helvetica,sans-Serif" font-size="10.00">RMF/internal/SharedData.h</text>
</g>
<!-- Node1&#45;&gt;Node41 -->
<g id="edge135" class="edge"><title>Node1&#45;&gt;Node41</title>
<path fill="none" stroke="midnightblue" d="M1748.24,-613.588C1818.56,-611.974 1969.62,-604.263 2004,-568 2034.32,-536.021 2025.79,-478.956 2018.53,-449.218"/>
<polygon fill="midnightblue" stroke="midnightblue" points="2021.84,-448.039 2015.9,-439.268 2015.07,-449.831 2021.84,-448.039"/>
</g>
<!-- Node43 -->
<g id="node43" class="node"><title>Node43</title>
<g id="a_node43"><a xlink:href="enums_8h.html" target="_top" xlink:title="Handle read/write of Model data from/to files. ">
<polygon fill="none" stroke="black" points="2003.6,-361 2003.6,-381 2082.4,-381 2082.4,-361 2003.6,-361"/>
<text text-anchor="middle" x="2043" y="-367" font-family="Helvetica,sans-Serif" font-size="10.00">RMF/enums.h</text>
</a>
</g>
</g>
<!-- Node1&#45;&gt;Node43 -->
<g id="edge137" class="edge"><title>Node1&#45;&gt;Node43</title>
<path fill="none" stroke="midnightblue" d="M1748.29,-611.549C1844.91,-604.132 2103.97,-578.105 2147,-510 2153.93,-499.032 2151.06,-428.369 2144,-418 2132.04,-400.422 2111.62,-389.45 2092.26,-382.657"/>
<polygon fill="midnightblue" stroke="midnightblue" points="2093.17,-379.275 2082.58,-379.559 2091.04,-385.941 2093.17,-379.275"/>
</g>
<!-- Node48 -->
<g id="node48" class="node"><title>Node48</title>
<polygon fill="none" stroke="#bfbfbf" points="1795.36,-483 1795.36,-503 1908.64,-503 1908.64,-483 1795.36,-483"/>
<text text-anchor="middle" x="1852" y="-489" font-family="Helvetica,sans-Serif" font-size="10.00">internal/SharedData.h</text>
</g>
<!-- Node1&#45;&gt;Node48 -->
<g id="edge138" class="edge"><title>Node1&#45;&gt;Node48</title>
<path fill="none" stroke="midnightblue" d="M1722.52,-604.98C1746.14,-584.74 1803.61,-535.48 1833.4,-509.943"/>
<polygon fill="midnightblue" stroke="midnightblue" points="1836.04,-512.29 1841.36,-503.124 1831.48,-506.975 1836.04,-512.29"/>
</g>
<!-- Node50 -->
<g id="node50" class="node"><title>Node50</title>
<g id="a_node50"><a xlink:href="NodeHandle_8h.html" target="_top" xlink:title="Handle read/write of Model data from/to files. ">
<polygon fill="none" stroke="black" points="1916.03,-547 1916.03,-567 1995.97,-567 1995.97,-547 1916.03,-547"/>
<text text-anchor="middle" x="1956" y="-553" font-family="Helvetica,sans-Serif" font-size="10.00">NodeHandle.h</text>
</a>
</g>
</g>
<!-- Node1&#45;&gt;Node50 -->
<g id="edge120" class="edge"><title>Node1&#45;&gt;Node50</title>
<path fill="none" stroke="midnightblue" d="M1748.27,-605.677C1790.32,-596.026 1859.85,-580.068 1906.76,-569.301"/>
<polygon fill="midnightblue" stroke="midnightblue" points="1907.74,-572.668 1916.7,-567.019 1906.17,-565.845 1907.74,-572.668"/>
</g>
<!-- Node5&#45;&gt;Node2 -->
<g id="edge7" class="edge"><title>Node5&#45;&gt;Node2</title>
<path fill="none" stroke="midnightblue" d="M809.468,-555.577C671.373,-553.946 289.404,-546.177 247,-510 219.198,-486.281 228,-466.545 228,-430 228,-430 228,-430 228,-312 228,-278.583 231.034,-239.759 233.107,-217.129"/>
<polygon fill="midnightblue" stroke="midnightblue" points="236.593,-217.436 234.056,-207.15 229.625,-216.774 236.593,-217.436"/>
</g>
<!-- Node5&#45;&gt;Node3 -->
<g id="edge10" class="edge"><title>Node5&#45;&gt;Node3</title>
<path fill="none" stroke="midnightblue" d="M908.324,-556.175C1058.59,-556.232 1508.89,-552.734 1648,-510 1676.2,-501.338 1677.43,-486.502 1705,-476 1784.09,-445.867 1811.97,-467.55 1892,-440 1912.3,-433.012 1914.83,-425.358 1935,-418 2001.85,-393.611 2045.12,-436.391 2091,-382 2167.23,-291.622 2127.06,-229.806 2095,-116 2092.25,-106.24 2087.41,-96.0872 2082.88,-87.8106"/>
<polygon fill="midnightblue" stroke="midnightblue" points="2085.88,-86.0017 2077.85,-79.0923 2079.82,-89.5024 2085.88,-86.0017"/>
</g>
<!-- Node5&#45;&gt;Node4 -->
<g id="edge11" class="edge"><title>Node5&#45;&gt;Node4</title>
<path fill="none" stroke="midnightblue" d="M908.263,-555.181C1082.72,-552.042 1664.9,-539.444 1743,-510 1765.8,-501.406 1763.5,-485.341 1786,-476 1911.66,-423.839 1971.61,-507.049 2090,-440 2242.26,-353.765 2340.86,-150.469 2368.23,-88.3502"/>
<polygon fill="midnightblue" stroke="midnightblue" points="2371.5,-89.6042 2372.26,-79.0366 2365.08,-86.8235 2371.5,-89.6042"/>
</g>
<!-- Node6 -->
<g id="node6" class="node"><title>Node6</title>
<polygon fill="none" stroke="#bfbfbf" points="541.793,-419 541.793,-439 676.207,-439 676.207,-419 541.793,-419"/>
<text text-anchor="middle" x="609" y="-425" font-family="Helvetica,sans-Serif" font-size="10.00">boost/current_function.hpp</text>
</g>
<!-- Node5&#45;&gt;Node6 -->
<g id="edge5" class="edge"><title>Node5&#45;&gt;Node6</title>
<path fill="none" stroke="midnightblue" d="M809.738,-555.518C735.682,-553.632 601.107,-545.297 571,-510 554.646,-490.826 574.808,-463.412 591.433,-446.168"/>
<polygon fill="midnightblue" stroke="midnightblue" points="594.013,-448.54 598.678,-439.027 589.099,-443.554 594.013,-448.54"/>
</g>
<!-- Node7 -->
<g id="node7" class="node"><title>Node7</title>
<polygon fill="none" stroke="#bfbfbf" points="256.013,-483 256.013,-503 385.987,-503 385.987,-483 256.013,-483"/>
<text text-anchor="middle" x="321" y="-489" font-family="Helvetica,sans-Serif" font-size="10.00">boost/functional/hash.hpp</text>
</g>
<!-- Node5&#45;&gt;Node7 -->
<g id="edge6" class="edge"><title>Node5&#45;&gt;Node7</title>
<path fill="none" stroke="midnightblue" d="M809.661,-552.966C724.629,-547.323 545.142,-533.595 395,-510 386.507,-508.665 377.524,-506.968 368.854,-505.181"/>
<polygon fill="midnightblue" stroke="midnightblue" points="369.379,-501.715 358.87,-503.058 367.923,-508.561 369.379,-501.715"/>
</g>
<!-- Node8 -->
<g id="node8" class="node"><title>Node8</title>
<polygon fill="none" stroke="#bfbfbf" points="403.828,-483 403.828,-503 448.172,-503 448.172,-483 403.828,-483"/>
<text text-anchor="middle" x="426" y="-489" font-family="Helvetica,sans-Serif" font-size="10.00">iosfwd</text>
</g>
<!-- Node5&#45;&gt;Node8 -->
<g id="edge8" class="edge"><title>Node5&#45;&gt;Node8</title>
<path fill="none" stroke="midnightblue" d="M809.822,-555.057C733.9,-552.547 584.147,-543.383 462,-510 458.996,-509.179 455.922,-508.144 452.897,-506.997"/>
<polygon fill="midnightblue" stroke="midnightblue" points="454.128,-503.718 443.553,-503.076 451.42,-510.173 454.128,-503.718"/>
</g>
<!-- Node9 -->
<g id="node9" class="node"><title>Node9</title>
<polygon fill="none" stroke="#bfbfbf" points="1557.61,-187 1557.61,-207 1596.39,-207 1596.39,-187 1557.61,-187"/>
<text text-anchor="middle" x="1577" y="-193" font-family="Helvetica,sans-Serif" font-size="10.00">limits</text>
</g>
<!-- Node5&#45;&gt;Node9 -->
<g id="edge9" class="edge"><title>Node5&#45;&gt;Node9</title>
<path fill="none" stroke="midnightblue" d="M908.153,-555.43C1015.33,-553.531 1266.58,-545.331 1343,-510 1473.49,-449.676 1548.49,-274.807 1570.28,-216.884"/>
<polygon fill="midnightblue" stroke="midnightblue" points="1573.68,-217.798 1573.84,-207.204 1567.1,-215.387 1573.68,-217.798"/>
</g>
<!-- Node10 -->
<g id="node10" class="node"><title>Node10</title>
<g id="a_node10"><a xlink:href="BufferHandle_8h.html" target="_top" xlink:title="Manage a memory buffer for reading/writing RMF files. ">
<polygon fill="none" stroke="black" points="852.733,-303 852.733,-323 935.267,-323 935.267,-303 852.733,-303"/>
<text text-anchor="middle" x="894" y="-309" font-family="Helvetica,sans-Serif" font-size="10.00">BufferHandle.h</text>
</a>
</g>
</g>
<!-- Node5&#45;&gt;Node10 -->
<g id="edge12" class="edge"><title>Node5&#45;&gt;Node10</title>
<path fill="none" stroke="midnightblue" d="M860.329,-546.809C865.473,-511.246 884.134,-382.219 891.233,-333.134"/>
<polygon fill="midnightblue" stroke="midnightblue" points="894.702,-333.598 892.669,-323.2 887.774,-332.596 894.702,-333.598"/>
</g>
<!-- Node5&#45;&gt;Node11 -->
<g id="edge108" class="edge"><title>Node5&#45;&gt;Node11</title>
<path fill="none" stroke="midnightblue" d="M809.791,-555.851C668.203,-554.955 267.137,-548.97 224,-510 115.726,-412.185 92.9368,-309.276 171,-186 214.376,-117.501 466.626,-85.1316 573.827,-74.3257"/>
<polygon fill="midnightblue" stroke="midnightblue" points="574.433,-77.783 584.04,-73.3174 573.745,-70.8168 574.433,-77.783"/>
</g>
<!-- Node13 -->
<g id="node13" class="node"><title>Node13</title>
<g id="a_node13"><a xlink:href="infrastructure__macros_8h.html" target="_top" xlink:title="Various general useful macros for IMP. ">
<polygon fill="none" stroke="black" points="1800.48,-123 1800.48,-143 1921.52,-143 1921.52,-123 1800.48,-123"/>
<text text-anchor="middle" x="1861" y="-129" font-family="Helvetica,sans-Serif" font-size="10.00">infrastructure_macros.h</text>
</a>
</g>
</g>
<!-- Node5&#45;&gt;Node13 -->
<g id="edge112" class="edge"><title>Node5&#45;&gt;Node13</title>
<path fill="none" stroke="midnightblue" d="M908.15,-553.469C1001.45,-548.274 1210.52,-534.759 1385,-510 1404.9,-507.176 1723.61,-451.641 1740,-440 1837.44,-370.784 1844.68,-323.346 1876,-208 1881.08,-189.293 1875.29,-167.507 1869.49,-152.44"/>
<polygon fill="midnightblue" stroke="midnightblue" points="1872.7,-151.066 1865.6,-143.204 1866.25,-153.779 1872.7,-151.066"/>
</g>
<!-- Node20 -->
<g id="node20" class="node"><title>Node20</title>
<g id="a_node20"><a xlink:href="exceptions_8h.html" target="_top" xlink:title="Various general useful macros for IMP. ">
<polygon fill="none" stroke="black" points="1277.93,-123 1277.93,-143 1350.07,-143 1350.07,-123 1277.93,-123"/>
<text text-anchor="middle" x="1314" y="-129" font-family="Helvetica,sans-Serif" font-size="10.00">exceptions.h</text>
</a>
</g>
</g>
<!-- Node5&#45;&gt;Node20 -->
<g id="edge111" class="edge"><title>Node5&#45;&gt;Node20</title>
<path fill="none" stroke="midnightblue" d="M854.522,-546.789C837.673,-510.66 782.117,-376.933 844,-302 897.895,-236.74 952.689,-298.107 1031,-266 1047.31,-259.313 1047.62,-250.52 1064,-244 1151.98,-208.973 1197.07,-263.214 1274,-208 1292.39,-194.798 1303.18,-170.445 1308.83,-153.29"/>
<polygon fill="midnightblue" stroke="midnightblue" points="1312.32,-153.829 1311.82,-143.246 1305.61,-151.828 1312.32,-153.829"/>
</g>
<!-- Node23 -->
<g id="node23" class="node"><title>Node23</title>
<polygon fill="none" stroke="#bfbfbf" points="221.766,-59 221.766,-79 332.234,-79 332.234,-59 221.766,-59"/>
<text text-anchor="middle" x="277" y="-65" font-family="Helvetica,sans-Serif" font-size="10.00">RMF/internal/errors.h</text>
</g>
<!-- Node5&#45;&gt;Node23 -->
<g id="edge114" class="edge"><title>Node5&#45;&gt;Node23</title>
<path fill="none" stroke="midnightblue" d="M809.537,-556.111C674.417,-555.863 301.53,-551.343 187,-510 129.802,-489.353 76,-490.811 76,-430 76,-430 76,-430 76,-370 76,-256.914 18.6974,-202.952 91,-116 106.455,-97.4135 164.31,-85.1048 211.442,-77.9364"/>
<polygon fill="midnightblue" stroke="midnightblue" points="212.238,-81.3572 221.623,-76.441 211.22,-74.4315 212.238,-81.3572"/>
</g>
<!-- Node28 -->
<g id="node28" class="node"><title>Node28</title>
<g id="a_node28"><a xlink:href="NodeConstHandle_8h.html" target="_top" xlink:title="Handle read/write of Model data from/to files. ">
<polygon fill="none" stroke="black" points="1227.97,-483 1227.97,-503 1334.03,-503 1334.03,-483 1227.97,-483"/>
<text text-anchor="middle" x="1281" y="-489" font-family="Helvetica,sans-Serif" font-size="10.00">NodeConstHandle.h</text>
</a>
</g>
</g>
<!-- Node5&#45;&gt;Node28 -->
<g id="edge44" class="edge"><title>Node5&#45;&gt;Node28</title>
<path fill="none" stroke="midnightblue" d="M908.235,-548.766C985.015,-537.486 1133.22,-515.712 1217.79,-503.287"/>
<polygon fill="midnightblue" stroke="midnightblue" points="1218.39,-506.736 1227.78,-501.819 1217.38,-499.81 1218.39,-506.736"/>
</g>
<!-- Node5&#45;&gt;Node30 -->
<g id="edge107" class="edge"><title>Node5&#45;&gt;Node30</title>
<path fill="none" stroke="midnightblue" d="M865.277,-546.998C891.643,-509.932 997.832,-367.965 1122,-302 1190.2,-265.766 1216.61,-282.748 1292,-266 1293.08,-265.759 1294.18,-265.513 1295.29,-265.264"/>
<polygon fill="midnightblue" stroke="midnightblue" points="1296.44,-268.594 1305.41,-262.963 1294.88,-261.768 1296.44,-268.594"/>
</g>
<!-- Node5&#45;&gt;Node33 -->
<g id="edge118" class="edge"><title>Node5&#45;&gt;Node33</title>
<path fill="none" stroke="midnightblue" d="M809.802,-556.389C726.914,-555.917 564.756,-549.779 527,-510 498.791,-480.28 509.765,-457.405 521,-418 531.811,-380.083 565.858,-347.447 588.294,-329.294"/>
<polygon fill="midnightblue" stroke="midnightblue" points="590.535,-331.984 596.252,-323.064 586.22,-326.472 590.535,-331.984"/>
</g>
<!-- Node5&#45;&gt;Node41 -->
<g id="edge113" class="edge"><title>Node5&#45;&gt;Node41</title>
<path fill="none" stroke="midnightblue" d="M908.425,-554.91C1078.01,-550.95 1629.91,-536.167 1705,-510 1729.69,-501.397 1728.88,-486.077 1753,-476 1784.97,-462.645 1869.84,-449.023 1933.99,-440.106"/>
<polygon fill="midnightblue" stroke="midnightblue" points="1934.66,-443.546 1944.09,-438.716 1933.71,-436.611 1934.66,-443.546"/>
</g>
<!-- Node42 -->
<g id="node42" class="node"><title>Node42</title>
<g id="a_node42"><a xlink:href="constants_8h.html" target="_top" xlink:title="Various utilities for rmfing. ">
<polygon fill="none" stroke="black" points="566.209,-361 566.209,-381 657.791,-381 657.791,-361 566.209,-361"/>
<text text-anchor="middle" x="612" y="-367" font-family="Helvetica,sans-Serif" font-size="10.00">RMF/constants.h</text>
</a>
</g>
</g>
<!-- Node5&#45;&gt;Node42 -->
<g id="edge109" class="edge"><title>Node5&#45;&gt;Node42</title>
<path fill="none" stroke="midnightblue" d="M809.576,-554.199C735.034,-550.536 598.544,-539.85 561,-510 527.545,-483.401 511.698,-455.054 533,-418 541.647,-402.959 557.313,-392.376 572.428,-385.186"/>
<polygon fill="midnightblue" stroke="midnightblue" points="573.936,-388.347 581.7,-381.139 571.135,-381.932 573.936,-388.347"/>
</g>
<!-- Node5&#45;&gt;Node43 -->
<g id="edge110" class="edge"><title>Node5&#45;&gt;Node43</title>
<path fill="none" stroke="midnightblue" d="M908.262,-554.912C1050.56,-551.451 1460.36,-539.163 1591,-510 1631.11,-501.046 1637.6,-487.697 1677,-476 1753.96,-453.154 1777.68,-464.887 1854,-440 1876.31,-432.725 1880.14,-426.542 1902,-418 1935.25,-405.005 1973.85,-392.592 2002.24,-383.944"/>
<polygon fill="midnightblue" stroke="midnightblue" points="2003.27,-387.288 2011.83,-381.047 2001.25,-380.587 2003.27,-387.288"/>
</g>
<!-- Node47 -->
<g id="node47" class="node"><title>Node47</title>
<polygon fill="none" stroke="#bfbfbf" points="579.705,-477 579.705,-509 686.295,-509 686.295,-477 579.705,-477"/>
<text text-anchor="start" x="587.705" y="-495" font-family="Helvetica,sans-Serif" font-size="10.00">RMF/internal/shared</text>
<text text-anchor="middle" x="633" y="-483" font-family="Helvetica,sans-Serif" font-size="10.00">_data_ranges.h</text>
</g>
<!-- Node5&#45;&gt;Node47 -->
<g id="edge115" class="edge"><title>Node5&#45;&gt;Node47</title>
<path fill="none" stroke="midnightblue" d="M826.138,-546.985C792.25,-537.688 738.552,-522.957 696.369,-511.384"/>
<polygon fill="midnightblue" stroke="midnightblue" points="697.031,-507.937 686.462,-508.666 695.179,-514.687 697.031,-507.937"/>
</g>
<!-- Node5&#45;&gt;Node48 -->
<g id="edge116" class="edge"><title>Node5&#45;&gt;Node48</title>
<path fill="none" stroke="midnightblue" d="M908.252,-556.507C1046.54,-557.295 1449.91,-555.223 1781,-510 1789.64,-508.82 1798.78,-507.114 1807.52,-505.251"/>
<polygon fill="midnightblue" stroke="midnightblue" points="1808.55,-508.607 1817.55,-503.014 1807.03,-501.775 1808.55,-508.607"/>
</g>
<!-- Node49 -->
<g id="node49" class="node"><title>Node49</title>
<polygon fill="none" stroke="#bfbfbf" points="704.412,-477 704.412,-509 811.588,-509 811.588,-477 704.412,-477"/>
<text text-anchor="start" x="712.412" y="-495" font-family="Helvetica,sans-Serif" font-size="10.00">internal/shared_data</text>
<text text-anchor="middle" x="758" y="-483" font-family="Helvetica,sans-Serif" font-size="10.00">_ranges.h</text>
</g>
<!-- Node5&#45;&gt;Node49 -->
<g id="edge117" class="edge"><title>Node5&#45;&gt;Node49</title>
<path fill="none" stroke="midnightblue" d="M844.097,-546.852C830.359,-538.419 809.47,-525.596 791.709,-514.692"/>
<polygon fill="midnightblue" stroke="midnightblue" points="793.113,-511.448 782.76,-509.199 789.451,-517.414 793.113,-511.448"/>
</g>
<!-- Node10&#45;&gt;Node9 -->
<g id="edge43" class="edge"><title>Node10&#45;&gt;Node9</title>
<path fill="none" stroke="midnightblue" d="M935.271,-304.415C1004.05,-291.757 1135.12,-267.548 1140,-266 1162.37,-258.901 1165.41,-250.344 1188,-244 1255.85,-224.95 1468.8,-206.596 1547.44,-200.296"/>
<polygon fill="midnightblue" stroke="midnightblue" points="1547.92,-203.769 1557.61,-199.489 1547.37,-196.791 1547.92,-203.769"/>
</g>
<!-- Node10&#45;&gt;Node11 -->
<g id="edge13" class="edge"><title>Node10&#45;&gt;Node11</title>
<path fill="none" stroke="midnightblue" d="M852.591,-308.729C773.22,-302.036 605.984,-285.737 589,-266 544.579,-214.377 588.265,-125.856 610.608,-88.0132"/>
<polygon fill="midnightblue" stroke="midnightblue" points="613.797,-89.506 616.008,-79.1445 607.818,-85.8653 613.797,-89.506"/>
</g>
<!-- Node10&#45;&gt;Node13 -->
<g id="edge15" class="edge"><title>Node10&#45;&gt;Node13</title>
<path fill="none" stroke="midnightblue" d="M935.103,-302.928C936.755,-302.607 938.392,-302.296 940,-302 1045.21,-282.627 1072.5,-283.727 1178,-266 1231.04,-257.088 1243.66,-250.87 1297,-244 1405.29,-230.055 1687.73,-253.452 1787,-208 1813.87,-195.698 1836.47,-169.157 1849.37,-151.436"/>
<polygon fill="midnightblue" stroke="midnightblue" points="1852.35,-153.295 1855.21,-143.095 1846.61,-149.281 1852.35,-153.295"/>
</g>
<!-- Node10&#45;&gt;Node20 -->
<g id="edge25" class="edge"><title>Node10&#45;&gt;Node20</title>
<path fill="none" stroke="midnightblue" d="M928.238,-302.924C962.604,-293.77 1017.04,-279.15 1064,-266 1097.86,-256.518 1105.86,-252.419 1140,-244 1217.52,-224.884 1265.52,-269.855 1316,-208 1328.4,-192.808 1325.31,-169.439 1320.79,-153.036"/>
<polygon fill="midnightblue" stroke="midnightblue" points="1324.1,-151.905 1317.76,-143.419 1317.42,-154.008 1324.1,-151.905"/>
</g>
<!-- Node24 -->
<g id="node24" class="node"><title>Node24</title>
<g id="a_node24"><a xlink:href="BufferConstHandle_8h.html" target="_top" xlink:title="Manage a memory buffer for reading/writing RMF files. ">
<polygon fill="none" stroke="black" points="913.672,-245 913.672,-265 1022.33,-265 1022.33,-245 913.672,-245"/>
<text text-anchor="middle" x="968" y="-251" font-family="Helvetica,sans-Serif" font-size="10.00">BufferConstHandle.h</text>
</a>
</g>
</g>
<!-- Node10&#45;&gt;Node24 -->
<g id="edge32" class="edge"><title>Node10&#45;&gt;Node24</title>
<path fill="none" stroke="midnightblue" d="M906.22,-302.753C917.534,-294.19 934.571,-281.298 947.89,-271.219"/>
<polygon fill="midnightblue" stroke="midnightblue" points="950.146,-273.901 956.008,-265.075 945.922,-268.319 950.146,-273.901"/>
</g>
<!-- Node11&#45;&gt;Node12 -->
<g id="edge14" class="edge"><title>Node11&#45;&gt;Node12</title>
<path fill="none" stroke="midnightblue" d="M659.818,-62.3222C721.856,-53.0082 846.18,-34.3429 924.74,-22.5483"/>
<polygon fill="midnightblue" stroke="midnightblue" points="925.666,-25.9487 935.036,-21.0027 924.627,-19.0263 925.666,-25.9487"/>
</g>
<!-- Node13&#45;&gt;Node3 -->
<g id="edge18" class="edge"><title>Node13&#45;&gt;Node3</title>
<path fill="none" stroke="midnightblue" d="M1891.68,-122.985C1931.95,-111.152 2002.19,-90.5138 2042.08,-78.7925"/>
<polygon fill="midnightblue" stroke="midnightblue" points="2043.16,-82.1232 2051.76,-75.9459 2041.18,-75.4072 2043.16,-82.1232"/>
</g>
<!-- Node13&#45;&gt;Node4 -->
<g id="edge24" class="edge"><title>Node13&#45;&gt;Node4</title>
<path fill="none" stroke="midnightblue" d="M1921.59,-124.705C2031.62,-111.46 2260.61,-83.891 2344.41,-73.8033"/>
<polygon fill="midnightblue" stroke="midnightblue" points="2344.83,-77.2777 2354.34,-72.6074 2343.99,-70.3278 2344.83,-77.2777"/>
</g>
<!-- Node13&#45;&gt;Node12 -->
<g id="edge19" class="edge"><title>Node13&#45;&gt;Node12</title>
<path fill="none" stroke="midnightblue" d="M1891.88,-122.897C1930.13,-110.17 1987.23,-85.5103 1961,-58 1930.28,-25.7789 1287.17,-15.3715 1067.67,-12.7509"/>
<polygon fill="midnightblue" stroke="midnightblue" points="1067.58,-9.2497 1057.54,-12.6319 1067.5,-16.2492 1067.58,-9.2497"/>
</g>
<!-- Node14 -->
<g id="node14" class="node"><title>Node14</title>
<polygon fill="none" stroke="#bfbfbf" points="1401.22,-59 1401.22,-79 1452.78,-79 1452.78,-59 1401.22,-59"/>
<text text-anchor="middle" x="1427" y="-65" font-family="Helvetica,sans-Serif" font-size="10.00">sstream</text>
</g>
<!-- Node13&#45;&gt;Node14 -->
<g id="edge16" class="edge"><title>Node13&#45;&gt;Node14</title>
<path fill="none" stroke="midnightblue" d="M1824.45,-122.926C1813.71,-120.457 1801.93,-117.934 1791,-116 1671.87,-94.9119 1529.16,-79.7951 1463.42,-73.3967"/>
<polygon fill="midnightblue" stroke="midnightblue" points="1463.46,-69.8849 1453.17,-72.4097 1462.79,-76.8526 1463.46,-69.8849"/>
</g>
<!-- Node15 -->
<g id="node15" class="node"><title>Node15</title>
<polygon fill="none" stroke="#bfbfbf" points="2196.83,-59 2196.83,-79 2251.17,-79 2251.17,-59 2196.83,-59"/>
<text text-anchor="middle" x="2224" y="-65" font-family="Helvetica,sans-Serif" font-size="10.00">iostream</text>
</g>
<!-- Node13&#45;&gt;Node15 -->
<g id="edge17" class="edge"><title>Node13&#45;&gt;Node15</title>
<path fill="none" stroke="midnightblue" d="M1913.78,-122.985C1988.1,-110.291 2121.75,-87.4647 2186.63,-76.383"/>
<polygon fill="midnightblue" stroke="midnightblue" points="2187.54,-79.7789 2196.8,-74.6452 2186.36,-72.8789 2187.54,-79.7789"/>
</g>
<!-- Node16 -->
<g id="node16" class="node"><title>Node16</title>
<polygon fill="none" stroke="#bfbfbf" points="1541.98,-59 1541.98,-79 1618.02,-79 1618.02,-59 1541.98,-59"/>
<text text-anchor="middle" x="1580" y="-65" font-family="Helvetica,sans-Serif" font-size="10.00">internal/use.h</text>
</g>
<!-- Node13&#45;&gt;Node16 -->
<g id="edge20" class="edge"><title>Node13&#45;&gt;Node16</title>
<path fill="none" stroke="midnightblue" d="M1821.77,-122.96C1811.74,-120.67 1800.98,-118.228 1791,-116 1735.11,-103.52 1670.79,-89.5551 1628,-80.3212"/>
<polygon fill="midnightblue" stroke="midnightblue" points="1628.66,-76.8817 1618.14,-78.1948 1627.18,-83.7244 1628.66,-76.8817"/>
</g>
<!-- Node17 -->
<g id="node17" class="node"><title>Node17</title>
<polygon fill="none" stroke="#bfbfbf" points="1636.31,-59 1636.31,-79 1725.69,-79 1725.69,-59 1636.31,-59"/>
<text text-anchor="middle" x="1681" y="-65" font-family="Helvetica,sans-Serif" font-size="10.00">boost/config.hpp</text>
</g>
<!-- Node13&#45;&gt;Node17 -->
<g id="edge21" class="edge"><title>Node13&#45;&gt;Node17</title>
<path fill="none" stroke="midnightblue" d="M1834.83,-122.985C1803.77,-112.286 1751.81,-94.3897 1716.98,-82.3936"/>
<polygon fill="midnightblue" stroke="midnightblue" points="1717.8,-78.9737 1707.21,-79.0262 1715.52,-85.5921 1717.8,-78.9737"/>
</g>
<!-- Node18 -->
<g id="node18" class="node"><title>Node18</title>
<polygon fill="none" stroke="#bfbfbf" points="1743.53,-59 1743.53,-79 1838.47,-79 1838.47,-59 1743.53,-59"/>
<text text-anchor="middle" x="1791" y="-65" font-family="Helvetica,sans-Serif" font-size="10.00">boost/version.hpp</text>
</g>
<!-- Node13&#45;&gt;Node18 -->
<g id="edge22" class="edge"><title>Node13&#45;&gt;Node18</title>
<path fill="none" stroke="midnightblue" d="M1850.67,-122.852C1839.71,-113.144 1822.18,-97.6205 1808.96,-85.9034"/>
<polygon fill="midnightblue" stroke="midnightblue" points="1811.18,-83.1962 1801.37,-79.1858 1806.54,-88.4363 1811.18,-83.1962"/>
</g>
<!-- Node19 -->
<g id="node19" class="node"><title>Node19</title>
<polygon fill="none" stroke="#bfbfbf" points="1855.97,-59 1855.97,-79 1952.03,-79 1952.03,-59 1855.97,-59"/>
<text text-anchor="middle" x="1904" y="-65" font-family="Helvetica,sans-Serif" font-size="10.00">boost/foreach.hpp</text>
</g>
<!-- Node13&#45;&gt;Node19 -->
<g id="edge23" class="edge"><title>Node13&#45;&gt;Node19</title>
<path fill="none" stroke="midnightblue" d="M1867.34,-122.852C1873.76,-113.602 1883.84,-99.072 1891.8,-87.5859"/>
<polygon fill="midnightblue" stroke="midnightblue" points="1894.81,-89.3977 1897.63,-79.1858 1889.05,-85.4084 1894.81,-89.3977"/>
</g>
<!-- Node20&#45;&gt;Node3 -->
<g id="edge28" class="edge"><title>Node20&#45;&gt;Node3</title>
<path fill="none" stroke="midnightblue" d="M1350.14,-129.219C1448.33,-121.635 1728.3,-99.833 1961,-80 1988.17,-77.6842 2019.07,-74.8874 2041.35,-72.8411"/>
<polygon fill="midnightblue" stroke="midnightblue" points="2041.91,-76.3046 2051.55,-71.9022 2041.27,-69.3341 2041.91,-76.3046"/>
</g>
<!-- Node20&#45;&gt;Node11 -->
<g id="edge29" class="edge"><title>Node20&#45;&gt;Node11</title>
<path fill="none" stroke="midnightblue" d="M1277.78,-124.711C1261.41,-121.637 1241.79,-118.255 1224,-116 1018.66,-89.9682 771.914,-76.7263 669.817,-72.032"/>
<polygon fill="midnightblue" stroke="midnightblue" points="669.965,-68.5352 659.817,-71.5784 669.648,-75.528 669.965,-68.5352"/>
</g>
<!-- Node20&#45;&gt;Node12 -->
<g id="edge30" class="edge"><title>Node20&#45;&gt;Node12</title>
<path fill="none" stroke="midnightblue" d="M1324.13,-122.86C1339.54,-107.87 1365.35,-77.76 1348,-58 1329.83,-37.3121 1165.92,-23.1371 1067.97,-16.4316"/>
<polygon fill="midnightblue" stroke="midnightblue" points="1068.04,-12.9285 1057.83,-15.7478 1067.57,-19.9126 1068.04,-12.9285"/>
</g>
<!-- Node21 -->
<g id="node21" class="node"><title>Node21</title>
<polygon fill="none" stroke="#bfbfbf" points="1188.45,-59 1188.45,-79 1339.55,-79 1339.55,-59 1188.45,-59"/>
<text text-anchor="middle" x="1264" y="-65" font-family="Helvetica,sans-Serif" font-size="10.00">boost/exception/exception.hpp</text>
</g>
<!-- Node20&#45;&gt;Node21 -->
<g id="edge26" class="edge"><title>Node20&#45;&gt;Node21</title>
<path fill="none" stroke="midnightblue" d="M1306.62,-122.852C1299.09,-113.511 1287.21,-98.7838 1277.91,-87.2456"/>
<polygon fill="midnightblue" stroke="midnightblue" points="1280.41,-84.7729 1271.41,-79.1858 1274.96,-89.1671 1280.41,-84.7729"/>
</g>
<!-- Node22 -->
<g id="node22" class="node"><title>Node22</title>
<polygon fill="none" stroke="#bfbfbf" points="1111.6,-59 1111.6,-79 1170.4,-79 1170.4,-59 1111.6,-59"/>
<text text-anchor="middle" x="1141" y="-65" font-family="Helvetica,sans-Serif" font-size="10.00">exception</text>
</g>
<!-- Node20&#45;&gt;Node22 -->
<g id="edge27" class="edge"><title>Node20&#45;&gt;Node22</title>
<path fill="none" stroke="midnightblue" d="M1288.84,-122.985C1259.12,-112.332 1209.48,-94.5431 1176.01,-82.5484"/>
<polygon fill="midnightblue" stroke="midnightblue" points="1176.78,-79.1052 1166.19,-79.0262 1174.42,-85.6948 1176.78,-79.1052"/>
</g>
<!-- Node20&#45;&gt;Node23 -->
<g id="edge31" class="edge"><title>Node20&#45;&gt;Node23</title>
<path fill="none" stroke="midnightblue" d="M1277.91,-127.928C1245.31,-124.366 1195.99,-119.263 1153,-116 850.474,-93.0372 488.299,-77.9564 342.521,-72.3961"/>
<polygon fill="midnightblue" stroke="midnightblue" points="342.528,-68.894 332.402,-72.0123 342.262,-75.8889 342.528,-68.894"/>
</g>
<!-- Node24&#45;&gt;Node2 -->
<g id="edge39" class="edge"><title>Node24&#45;&gt;Node2</title>
<path fill="none" stroke="midnightblue" d="M913.505,-249.837C781.198,-239.729 443.4,-213.921 300.463,-203.001"/>
<polygon fill="midnightblue" stroke="midnightblue" points="300.341,-199.482 290.104,-202.21 299.808,-206.462 300.341,-199.482"/>
</g>
<!-- Node24&#45;&gt;Node3 -->
<g id="edge37" class="edge"><title>Node24&#45;&gt;Node3</title>
<path fill="none" stroke="midnightblue" d="M1022.39,-251.982C1193.34,-245.495 1712.88,-224.631 1787,-208 1892.64,-184.299 2004.4,-115.398 2050.36,-84.8646"/>
<polygon fill="midnightblue" stroke="midnightblue" points="2052.54,-87.6103 2058.89,-79.1275 2048.64,-81.8004 2052.54,-87.6103"/>
</g>
<!-- Node24&#45;&gt;Node9 -->
<g id="edge41" class="edge"><title>Node24&#45;&gt;Node9</title>
<path fill="none" stroke="midnightblue" d="M1022.58,-248.981C1147.54,-237.491 1451.01,-209.585 1547.22,-200.738"/>
<polygon fill="midnightblue" stroke="midnightblue" points="1547.76,-204.203 1557.4,-199.802 1547.12,-197.233 1547.76,-204.203"/>
</g>
<!-- Node24&#45;&gt;Node11 -->
<g id="edge33" class="edge"><title>Node24&#45;&gt;Node11</title>
<path fill="none" stroke="midnightblue" d="M984.729,-244.925C1006.31,-232.04 1039.24,-207.604 1023,-186 980.196,-129.059 766.663,-91.1649 669.854,-76.643"/>
<polygon fill="midnightblue" stroke="midnightblue" points="670.155,-73.1495 659.751,-75.1489 669.131,-80.0742 670.155,-73.1495"/>
</g>
<!-- Node24&#45;&gt;Node13 -->
<g id="edge34" class="edge"><title>Node24&#45;&gt;Node13</title>
<path fill="none" stroke="midnightblue" d="M1022.54,-250.436C1103.59,-244.609 1260.4,-231.296 1392,-208 1432.12,-200.898 1440.9,-193.254 1481,-186 1617.49,-161.308 1654.3,-173.488 1791,-150 1798.77,-148.664 1806.98,-147.011 1814.94,-145.279"/>
<polygon fill="midnightblue" stroke="midnightblue" points="1815.83,-148.666 1824.82,-143.061 1814.3,-141.836 1815.83,-148.666"/>
</g>
<!-- Node24&#45;&gt;Node14 -->
<g id="edge36" class="edge"><title>Node24&#45;&gt;Node14</title>
<path fill="none" stroke="midnightblue" d="M1022.39,-253.095C1085.09,-250.423 1190.24,-240.875 1274,-208 1337.64,-183.022 1391.54,-118.416 1414.77,-87.2796"/>
<polygon fill="midnightblue" stroke="midnightblue" points="1417.66,-89.249 1420.73,-79.1075 1412.01,-85.1235 1417.66,-89.249"/>
</g>
<!-- Node24&#45;&gt;Node20 -->
<g id="edge38" class="edge"><title>Node24&#45;&gt;Node20</title>
<path fill="none" stroke="midnightblue" d="M1022.57,-245.86C1100.46,-234.108 1235.27,-213.222 1245,-208 1269.81,-194.686 1290.61,-169.028 1302.69,-151.707"/>
<polygon fill="midnightblue" stroke="midnightblue" points="1305.81,-153.329 1308.47,-143.073 1300,-149.433 1305.81,-153.329"/>
</g>
<!-- Node25 -->
<g id="node25" class="node"><title>Node25</title>
<polygon fill="none" stroke="#bfbfbf" points="687.853,-187 687.853,-207 806.147,-207 806.147,-187 687.853,-187"/>
<text text-anchor="middle" x="747" y="-193" font-family="Helvetica,sans-Serif" font-size="10.00">boost/exception/all.hpp</text>
</g>
<!-- Node24&#45;&gt;Node25 -->
<g id="edge35" class="edge"><title>Node24&#45;&gt;Node25</title>
<path fill="none" stroke="midnightblue" d="M932.001,-244.878C893.922,-235.229 833.749,-219.982 792.431,-209.512"/>
<polygon fill="midnightblue" stroke="midnightblue" points="793.171,-206.089 782.618,-207.025 791.452,-212.874 793.171,-206.089"/>
</g>
<!-- Node26 -->
<g id="node26" class="node"><title>Node26</title>
<polygon fill="none" stroke="#bfbfbf" points="824.353,-187 824.353,-207 947.647,-207 947.647,-187 824.353,-187"/>
<text text-anchor="middle" x="886" y="-193" font-family="Helvetica,sans-Serif" font-size="10.00">boost/make_shared.hpp</text>
</g>
<!-- Node24&#45;&gt;Node26 -->
<g id="edge40" class="edge"><title>Node24&#45;&gt;Node26</title>
<path fill="none" stroke="midnightblue" d="M954.459,-244.753C941.802,-236.109 922.683,-223.052 907.864,-212.931"/>
<polygon fill="midnightblue" stroke="midnightblue" points="909.521,-209.825 899.289,-207.075 905.573,-215.605 909.521,-209.825"/>
</g>
<!-- Node27 -->
<g id="node27" class="node"><title>Node27</title>
<polygon fill="none" stroke="#bfbfbf" points="965.879,-187 965.879,-207 1014.12,-207 1014.12,-187 965.879,-187"/>
<text text-anchor="middle" x="990" y="-193" font-family="Helvetica,sans-Serif" font-size="10.00">stdint.h</text>
</g>
<!-- Node24&#45;&gt;Node27 -->
<g id="edge42" class="edge"><title>Node24&#45;&gt;Node27</title>
<path fill="none" stroke="midnightblue" d="M971.633,-244.753C974.644,-237.087 979.019,-225.952 982.744,-216.471"/>
<polygon fill="midnightblue" stroke="midnightblue" points="986.036,-217.663 986.435,-207.075 979.521,-215.103 986.036,-217.663"/>
</g>
<!-- Node28&#45;&gt;Node2 -->
<g id="edge47" class="edge"><title>Node28&#45;&gt;Node2</title>
<path fill="none" stroke="midnightblue" d="M1227.9,-484.625C1169.93,-476.055 1074.62,-460.436 994,-440 963.619,-432.299 957.234,-426.259 927,-418 855.013,-398.335 835.833,-398.253 763,-382 719.855,-372.372 709.382,-368.494 666,-360 569.629,-341.131 540.284,-357.573 448,-324 371.324,-296.105 291.194,-240.258 254.929,-213.281"/>
<polygon fill="midnightblue" stroke="midnightblue" points="256.779,-210.293 246.683,-207.079 252.571,-215.887 256.779,-210.293"/>
</g>
<!-- Node28&#45;&gt;Node3 -->
<g id="edge49" class="edge"><title>Node28&#45;&gt;Node3</title>
<path fill="none" stroke="midnightblue" d="M1334.2,-492.601C1410.18,-491.749 1552.98,-483.739 1665,-440 1763.31,-401.612 1995.29,-153.658 2056.81,-86.6631"/>
<polygon fill="midnightblue" stroke="midnightblue" points="2059.57,-88.8295 2063.74,-79.0906 2054.41,-84.1022 2059.57,-88.8295"/>
</g>
<!-- Node28&#45;&gt;Node4 -->
<g id="edge50" class="edge"><title>Node28&#45;&gt;Node4</title>
<path fill="none" stroke="midnightblue" d="M1334.13,-483.035C1349.25,-480.609 1365.76,-478.081 1381,-476 1521.93,-456.759 1563.39,-482.909 1699,-440 1703.51,-438.574 2227.14,-151.601 2350.28,-84.0987"/>
<polygon fill="midnightblue" stroke="midnightblue" points="2352.3,-86.9836 2359.39,-79.1075 2348.94,-80.8453 2352.3,-86.9836"/>
</g>
<!-- Node28&#45;&gt;Node6 -->
<g id="edge46" class="edge"><title>Node28&#45;&gt;Node6</title>
<path fill="none" stroke="midnightblue" d="M1227.71,-487.083C1109.37,-476.165 824.263,-449.861 686.326,-437.134"/>
<polygon fill="midnightblue" stroke="midnightblue" points="686.531,-433.638 676.252,-436.205 685.888,-440.609 686.531,-433.638"/>
</g>
<!-- Node28&#45;&gt;Node11 -->
<g id="edge83" class="edge"><title>Node28&#45;&gt;Node11</title>
<path fill="none" stroke="midnightblue" d="M1227.96,-485.153C1174.92,-477.427 1091.48,-462.869 1022,-440 1000.09,-432.789 996.784,-425.576 975,-418 961.738,-413.388 742.693,-363.108 729,-360 655.803,-343.387 635.784,-345.929 564,-324 497.225,-303.601 468.771,-313.931 418,-266 368.956,-219.7 350.834,-166.973 395,-116 417.853,-89.6248 514.076,-77.8685 573.667,-73.0324"/>
<polygon fill="midnightblue" stroke="midnightblue" points="574.281,-76.4955 583.981,-72.2345 573.741,-69.5164 574.281,-76.4955"/>
</g>
<!-- Node28&#45;&gt;Node13 -->
<g id="edge85" class="edge"><title>Node28&#45;&gt;Node13</title>
<path fill="none" stroke="midnightblue" d="M1334.14,-492.101C1404.65,-490.477 1531.77,-481.366 1631,-440 1687.1,-416.614 1805.27,-314.418 1842,-266 1860.06,-242.195 1868.17,-236.837 1876,-208 1881.08,-189.293 1875.29,-167.507 1869.49,-152.44"/>
<polygon fill="midnightblue" stroke="midnightblue" points="1872.7,-151.066 1865.6,-143.204 1866.25,-153.779 1872.7,-151.066"/>
</g>
<!-- Node28&#45;&gt;Node15 -->
<g id="edge48" class="edge"><title>Node28&#45;&gt;Node15</title>
<path fill="none" stroke="midnightblue" d="M1334.13,-487.828C1425.23,-480.365 1617.01,-463.301 1778,-440 1813.01,-434.934 2062.78,-403.318 2091,-382 2189.7,-307.45 2215.97,-145.177 2222.22,-89.335"/>
<polygon fill="midnightblue" stroke="midnightblue" points="2225.73,-89.4092 2223.27,-79.1044 2218.77,-88.6952 2225.73,-89.4092"/>
</g>
<!-- Node28&#45;&gt;Node20 -->
<g id="edge84" class="edge"><title>Node28&#45;&gt;Node20</title>
<path fill="none" stroke="midnightblue" d="M1242.64,-482.977C1215.77,-475.139 1180.29,-461.584 1155,-440 1102.53,-395.224 1044.7,-358.684 1084,-302 1151.87,-204.105 1267.13,-305.895 1335,-208 1346.7,-191.119 1336.76,-167.81 1326.96,-151.891"/>
<polygon fill="midnightblue" stroke="midnightblue" points="1329.82,-149.869 1321.37,-143.476 1323.99,-153.742 1329.82,-149.869"/>
</g>
<!-- Node28&#45;&gt;Node23 -->
<g id="edge87" class="edge"><title>Node28&#45;&gt;Node23</title>
<path fill="none" stroke="midnightblue" d="M1227.93,-488.023C1107.09,-478.086 802.868,-448.076 557,-382 337.02,-322.882 197.623,-355.805 100,-150 93.5237,-136.347 90.7558,-127.954 100,-116 113.859,-98.0789 167.269,-85.8435 211.829,-78.5238"/>
<polygon fill="midnightblue" stroke="midnightblue" points="212.438,-81.971 221.766,-76.9471 211.341,-75.0575 212.438,-81.971"/>
</g>
<!-- Node29 -->
<g id="node29" class="node"><title>Node29</title>
<polygon fill="none" stroke="#bfbfbf" points="1327.96,-419 1327.96,-439 1406.04,-439 1406.04,-419 1327.96,-419"/>
<text text-anchor="middle" x="1367" y="-425" font-family="Helvetica,sans-Serif" font-size="10.00">boost/any.hpp</text>
</g>
<!-- Node28&#45;&gt;Node29 -->
<g id="edge45" class="edge"><title>Node28&#45;&gt;Node29</title>
<path fill="none" stroke="midnightblue" d="M1293.69,-482.852C1307.41,-472.961 1329.5,-457.033 1345.85,-445.244"/>
<polygon fill="midnightblue" stroke="midnightblue" points="1348.19,-447.873 1354.26,-439.186 1344.1,-442.195 1348.19,-447.873"/>
</g>
<!-- Node28&#45;&gt;Node30 -->
<g id="edge51" class="edge"><title>Node28&#45;&gt;Node30</title>
<path fill="none" stroke="midnightblue" d="M1285.45,-482.764C1292.33,-468.637 1306.09,-440.893 1319,-418 1343.12,-375.244 1363.6,-371.227 1377,-324 1379.67,-314.593 1380.54,-311.116 1377,-302 1372.45,-290.267 1363.36,-279.695 1354.79,-271.654"/>
<polygon fill="midnightblue" stroke="midnightblue" points="1357.05,-268.977 1347.22,-265.019 1352.43,-274.242 1357.05,-268.977"/>
</g>
<!-- Node31 -->
<g id="node31" class="node"><title>Node31</title>
<g id="a_node31"><a xlink:href="Nullable_8h.html" target="_top" xlink:title="Handle read/write of Model data from/to files. ">
<polygon fill="none" stroke="black" points="1537.54,-419 1537.54,-439 1622.46,-439 1622.46,-419 1537.54,-419"/>
<text text-anchor="middle" x="1580" y="-425" font-family="Helvetica,sans-Serif" font-size="10.00">RMF/Nullable.h</text>
</a>
</g>
</g>
<!-- Node28&#45;&gt;Node31 -->
<g id="edge56" class="edge"><title>Node28&#45;&gt;Node31</title>
<path fill="none" stroke="midnightblue" d="M1324.48,-482.985C1378.26,-471.832 1469.76,-452.859 1527.43,-440.9"/>
<polygon fill="midnightblue" stroke="midnightblue" points="1528.36,-444.283 1537.44,-438.825 1526.94,-437.429 1528.36,-444.283"/>
</g>
<!-- Node32 -->
<g id="node32" class="node"><title>Node32</title>
<g id="a_node32"><a xlink:href="traits_8h.html" target="_top" xlink:title="Handle read/write of Model data from/to files. ">
<polygon fill="none" stroke="black" points="1239,-361 1239,-381 1285,-381 1285,-361 1239,-361"/>
<text text-anchor="middle" x="1262" y="-367" font-family="Helvetica,sans-Serif" font-size="10.00">traits.h</text>
</a>
</g>
</g>
<!-- Node28&#45;&gt;Node32 -->
<g id="edge105" class="edge"><title>Node28&#45;&gt;Node32</title>
<path fill="none" stroke="midnightblue" d="M1279.57,-482.98C1276.49,-463.522 1269.16,-417.242 1265.01,-391.005"/>
<polygon fill="midnightblue" stroke="midnightblue" points="1268.47,-390.454 1263.44,-381.124 1261.55,-391.549 1268.47,-390.454"/>
</g>
<!-- Node28&#45;&gt;Node33 -->
<g id="edge106" class="edge"><title>Node28&#45;&gt;Node33</title>
<path fill="none" stroke="midnightblue" d="M1233.33,-482.929C1190.07,-474.07 1124.86,-459.14 1070,-440 1047.84,-432.269 1043.96,-426.286 1022,-418 938.201,-386.377 915.805,-382.075 829,-360 769.533,-344.877 700.113,-330.976 655.405,-322.503"/>
<polygon fill="midnightblue" stroke="midnightblue" points="655.899,-319.034 645.424,-320.623 654.603,-325.913 655.899,-319.034"/>
</g>
<!-- Node28&#45;&gt;Node41 -->
<g id="edge86" class="edge"><title>Node28&#45;&gt;Node41</title>
<path fill="none" stroke="midnightblue" d="M1334.23,-487.491C1461.51,-476.711 1783.97,-449.399 1933.99,-436.692"/>
<polygon fill="midnightblue" stroke="midnightblue" points="1934.38,-440.172 1944.05,-435.84 1933.79,-433.197 1934.38,-440.172"/>
</g>
<!-- Node28&#45;&gt;Node42 -->
<g id="edge88" class="edge"><title>Node28&#45;&gt;Node42</title>
<path fill="none" stroke="midnightblue" d="M1227.81,-485.018C1163.22,-476.188 1051.12,-459.732 956,-440 917.369,-431.986 908.558,-426.357 870,-418 800.8,-403.001 720.39,-389.239 667.972,-380.752"/>
<polygon fill="midnightblue" stroke="midnightblue" points="668.303,-377.261 657.873,-379.127 667.19,-384.172 668.303,-377.261"/>
</g>
<!-- Node28&#45;&gt;Node43 -->
<g id="edge91" class="edge"><title>Node28&#45;&gt;Node43</title>
<path fill="none" stroke="midnightblue" d="M1334.35,-491.394C1421.01,-489.209 1597.06,-479.757 1740,-440 1762.61,-433.711 1765.61,-425.027 1788,-418 1857.61,-396.152 1941.37,-383.524 1993.41,-377.203"/>
<polygon fill="midnightblue" stroke="midnightblue" points="1993.86,-380.674 2003.38,-376.022 1993.04,-373.722 1993.86,-380.674"/>
</g>
<!-- Node46 -->
<g id="node46" class="node"><title>Node46</title>
<g id="a_node46"><a xlink:href="keys_8h.html" target="_top" xlink:title="Handle read/write of Model data from/to files. ">
<polygon fill="none" stroke="black" points="1164.33,-419 1164.33,-439 1233.67,-439 1233.67,-419 1164.33,-419"/>
<text text-anchor="middle" x="1199" y="-425" font-family="Helvetica,sans-Serif" font-size="10.00">RMF/keys.h</text>
</a>
</g>
</g>
<!-- Node28&#45;&gt;Node46 -->
<g id="edge100" class="edge"><title>Node28&#45;&gt;Node46</title>
<path fill="none" stroke="midnightblue" d="M1268.9,-482.852C1255.82,-472.961 1234.75,-457.033 1219.16,-445.244"/>
<polygon fill="midnightblue" stroke="midnightblue" points="1221.24,-442.425 1211.15,-439.186 1217.01,-448.009 1221.24,-442.425"/>
</g>
<!-- Node30&#45;&gt;Node9 -->
<g id="edge55" class="edge"><title>Node30&#45;&gt;Node9</title>
<path fill="none" stroke="midnightblue" d="M1364.59,-247.056C1369.08,-246.021 1373.66,-244.975 1378,-244 1451.66,-227.449 1470.93,-226.962 1544,-208 1545.24,-207.679 1546.5,-207.341 1547.77,-206.993"/>
<polygon fill="midnightblue" stroke="midnightblue" points="1548.89,-210.314 1557.53,-204.184 1546.95,-203.587 1548.89,-210.314"/>
</g>
<!-- Node30&#45;&gt;Node11 -->
<g id="edge52" class="edge"><title>Node30&#45;&gt;Node11</title>
<path fill="none" stroke="midnightblue" d="M1305.48,-249.156C1264.37,-241.823 1192.92,-226.753 1175,-208 1145.95,-177.607 1184.85,-143.444 1153,-116 1116.86,-84.8563 794.317,-74.0375 670.292,-71.0083"/>
<polygon fill="midnightblue" stroke="midnightblue" points="670.046,-67.5015 659.966,-70.763 669.88,-74.4996 670.046,-67.5015"/>
</g>
<!-- Node30&#45;&gt;Node13 -->
<g id="edge53" class="edge"><title>Node30&#45;&gt;Node13</title>
<path fill="none" stroke="midnightblue" d="M1364.41,-245.299C1394.72,-236.257 1443.29,-221.559 1485,-208 1513.6,-198.701 1519.78,-193.132 1549,-186 1654.64,-160.217 1684.14,-170.13 1791,-150 1798.5,-148.588 1806.41,-146.937 1814.11,-145.242"/>
<polygon fill="midnightblue" stroke="midnightblue" points="1815.07,-148.613 1824.06,-143.004 1813.53,-141.784 1815.07,-148.613"/>
</g>
<!-- Node30&#45;&gt;Node20 -->
<g id="edge54" class="edge"><title>Node30&#45;&gt;Node20</title>
<path fill="none" stroke="midnightblue" d="M1364.66,-245.714C1401.92,-235.005 1461.8,-216.706 1468,-208 1473.67,-200.036 1473.7,-193.943 1468,-186 1443.74,-152.199 1396.34,-140.084 1360.5,-135.887"/>
<polygon fill="midnightblue" stroke="midnightblue" points="1360.56,-132.376 1350.26,-134.863 1359.86,-139.341 1360.56,-132.376"/>
</g>
<!-- Node31&#45;&gt;Node9 -->
<g id="edge82" class="edge"><title>Node31&#45;&gt;Node9</title>
<path fill="none" stroke="midnightblue" d="M1585.32,-418.86C1590.24,-409.836 1597.2,-395.471 1600,-382 1612.49,-321.952 1614.09,-303.693 1600,-244 1597.67,-234.132 1592.88,-223.966 1588.27,-215.71"/>
<polygon fill="midnightblue" stroke="midnightblue" points="1591.23,-213.829 1583.11,-207.026 1585.21,-217.409 1591.23,-213.829"/>
</g>
<!-- Node31&#45;&gt;Node11 -->
<g id="edge57" class="edge"><title>Node31&#45;&gt;Node11</title>
<path fill="none" stroke="midnightblue" d="M1537.24,-425.087C1399.64,-415.229 969.97,-380.548 844,-324 793.331,-301.255 794.218,-274.799 748,-244 719.216,-224.819 702.344,-233.525 679,-208 662.34,-189.783 638.917,-122.282 628.018,-88.9174"/>
<polygon fill="midnightblue" stroke="midnightblue" points="631.23,-87.4746 624.829,-79.0317 624.568,-89.6233 631.23,-87.4746"/>
</g>
<!-- Node31&#45;&gt;Node13 -->
<g id="edge80" class="edge"><title>Node31&#45;&gt;Node13</title>
<path fill="none" stroke="midnightblue" d="M1601.49,-418.853C1656.22,-394.233 1800.61,-320.714 1858,-208 1866.64,-191.035 1866.29,-168.94 1864.46,-153.324"/>
<polygon fill="midnightblue" stroke="midnightblue" points="1867.89,-152.645 1862.97,-143.265 1860.97,-153.669 1867.89,-152.645"/>
</g>
<!-- Node31&#45;&gt;Node20 -->
<g id="edge81" class="edge"><title>Node31&#45;&gt;Node20</title>
<path fill="none" stroke="midnightblue" d="M1590.02,-418.839C1598.73,-410.237 1610.87,-396.545 1617,-382 1650.89,-301.573 1667.55,-246.868 1605,-186 1570.91,-152.823 1433.59,-140.428 1360.43,-136.114"/>
<polygon fill="midnightblue" stroke="midnightblue" points="1360.3,-132.601 1350.12,-135.535 1359.91,-139.59 1360.3,-132.601"/>
</g>
<!-- Node31&#45;&gt;Node32 -->
<g id="edge58" class="edge"><title>Node31&#45;&gt;Node32</title>
<path fill="none" stroke="midnightblue" d="M1537.44,-420.506C1473.39,-409.227 1353.54,-388.121 1295.37,-377.877"/>
<polygon fill="midnightblue" stroke="midnightblue" points="1295.71,-374.383 1285.26,-376.096 1294.5,-381.277 1295.71,-374.383"/>
</g>
<!-- Node32&#45;&gt;Node9 -->
<g id="edge79" class="edge"><title>Node32&#45;&gt;Node9</title>
<path fill="none" stroke="midnightblue" d="M1285.33,-365.374C1333.57,-354.857 1445.94,-325.338 1520,-266 1538.12,-251.482 1554.66,-230.489 1565.2,-215.677"/>
<polygon fill="midnightblue" stroke="midnightblue" points="1568.14,-217.582 1570.95,-207.366 1562.38,-213.6 1568.14,-217.582"/>
</g>
<!-- Node32&#45;&gt;Node11 -->
<g id="edge59" class="edge"><title>Node32&#45;&gt;Node11</title>
<path fill="none" stroke="midnightblue" d="M1238.78,-368.269C1175.29,-363.358 993.559,-348.112 844,-324 836.373,-322.77 577.163,-271.747 572,-266 527.412,-216.366 547.993,-175.591 578,-116 583.784,-104.513 593.402,-93.964 602.173,-85.8737"/>
<polygon fill="midnightblue" stroke="midnightblue" points="604.616,-88.3873 609.855,-79.1787 600.017,-83.11 604.616,-88.3873"/>
</g>
<!-- Node32&#45;&gt;Node33 -->
<g id="edge60" class="edge"><title>Node32&#45;&gt;Node33</title>
<path fill="none" stroke="midnightblue" d="M1238.76,-368.007C1143.86,-359.869 784.677,-329.066 655.572,-317.994"/>
<polygon fill="midnightblue" stroke="midnightblue" points="655.862,-314.506 645.599,-317.139 655.264,-321.48 655.862,-314.506"/>
</g>
<!-- Node36 -->
<g id="node36" class="node"><title>Node36</title>
<polygon fill="none" stroke="#bfbfbf" points="1059.62,-123 1059.62,-143 1144.38,-143 1144.38,-123 1059.62,-123"/>
<text text-anchor="middle" x="1102" y="-129" font-family="Helvetica,sans-Serif" font-size="10.00">boost/array.hpp</text>
</g>
<!-- Node32&#45;&gt;Node36 -->
<g id="edge75" class="edge"><title>Node32&#45;&gt;Node36</title>
<path fill="none" stroke="midnightblue" d="M1238.88,-368.54C1209.73,-365.388 1160.28,-355.432 1134,-324 1092.39,-274.229 1095.46,-190.825 1099.39,-153.311"/>
<polygon fill="midnightblue" stroke="midnightblue" points="1102.89,-153.573 1100.59,-143.23 1095.94,-152.746 1102.89,-153.573"/>
</g>
<!-- Node37 -->
<g id="node37" class="node"><title>Node37</title>
<g id="a_node37"><a xlink:href="HDF5_2types_8h.html" target="_top" xlink:title="Handle read/write of Model data from/to files. ">
<polygon fill="none" stroke="red" points="1143.21,-303 1143.21,-323 1244.79,-323 1244.79,-303 1143.21,-303"/>
<text text-anchor="middle" x="1194" y="-309" font-family="Helvetica,sans-Serif" font-size="10.00">RMF/HDF5/types.h</text>
</a>
</g>
</g>
<!-- Node32&#45;&gt;Node37 -->
<g id="edge69" class="edge"><title>Node32&#45;&gt;Node37</title>
<path fill="none" stroke="midnightblue" d="M1250.77,-360.753C1240.47,-352.272 1225.02,-339.543 1212.83,-329.507"/>
<polygon fill="midnightblue" stroke="midnightblue" points="1214.96,-326.731 1205.02,-323.075 1210.51,-332.134 1214.96,-326.731"/>
</g>
<!-- Node38 -->
<g id="node38" class="node"><title>Node38</title>
<polygon fill="none" stroke="#bfbfbf" points="1420.2,-245 1420.2,-265 1511.8,-265 1511.8,-245 1420.2,-245"/>
<text text-anchor="middle" x="1466" y="-251" font-family="Helvetica,sans-Serif" font-size="10.00">boost/cstdint.hpp</text>
</g>
<!-- Node32&#45;&gt;Node38 -->
<g id="edge76" class="edge"><title>Node32&#45;&gt;Node38</title>
<path fill="none" stroke="midnightblue" d="M1285.32,-362.76C1309.17,-354.882 1346.9,-341.096 1377,-324 1403.59,-308.899 1431.1,-286.689 1448.36,-271.804"/>
<polygon fill="midnightblue" stroke="midnightblue" points="1450.75,-274.369 1455.96,-265.148 1446.14,-269.102 1450.75,-274.369"/>
</g>
<!-- Node39 -->
<g id="node39" class="node"><title>Node39</title>
<polygon fill="none" stroke="#bfbfbf" points="1262.38,-303 1262.38,-323 1305.62,-323 1305.62,-303 1262.38,-303"/>
<text text-anchor="middle" x="1284" y="-309" font-family="Helvetica,sans-Serif" font-size="10.00">cmath</text>
</g>
<!-- Node32&#45;&gt;Node39 -->
<g id="edge77" class="edge"><title>Node32&#45;&gt;Node39</title>
<path fill="none" stroke="midnightblue" d="M1265.63,-360.753C1268.64,-353.087 1273.02,-341.952 1276.74,-332.471"/>
<polygon fill="midnightblue" stroke="midnightblue" points="1280.04,-333.663 1280.43,-323.075 1273.52,-331.103 1280.04,-333.663"/>
</g>
<!-- Node40 -->
<g id="node40" class="node"><title>Node40</title>
<polygon fill="none" stroke="#bfbfbf" points="1323.83,-303 1323.83,-323 1368.17,-323 1368.17,-303 1323.83,-303"/>
<text text-anchor="middle" x="1346" y="-309" font-family="Helvetica,sans-Serif" font-size="10.00">cstdlib</text>
</g>
<!-- Node32&#45;&gt;Node40 -->
<g id="edge78" class="edge"><title>Node32&#45;&gt;Node40</title>
<path fill="none" stroke="midnightblue" d="M1275.87,-360.753C1288.96,-352.027 1308.79,-338.805 1324.03,-328.646"/>
<polygon fill="midnightblue" stroke="midnightblue" points="1326.01,-331.534 1332.39,-323.075 1322.13,-325.71 1326.01,-331.534"/>
</g>
<!-- Node33&#45;&gt;Node11 -->
<g id="edge61" class="edge"><title>Node33&#45;&gt;Node11</title>
<path fill="none" stroke="midnightblue" d="M572.411,-310.969C535.335,-308.048 478.397,-298.157 442,-266 391.404,-221.298 375.836,-168.73 418,-116 437.171,-92.0253 520.026,-79.6525 574.067,-74.0152"/>
<polygon fill="midnightblue" stroke="midnightblue" points="574.531,-77.4864 584.132,-73.0078 573.833,-70.5212 574.531,-77.4864"/>
</g>
<!-- Node34 -->
<g id="node34" class="node"><title>Node34</title>
<g id="a_node34"><a xlink:href="default__types_8h.html" target="_top" xlink:title="Default implementation for types.h. ">
<polygon fill="none" stroke="black" points="597.867,-245 597.867,-265 706.133,-265 706.133,-245 597.867,-245"/>
<text text-anchor="middle" x="652" y="-251" font-family="Helvetica,sans-Serif" font-size="10.00">RMF/default_types.h</text>
</a>
</g>
</g>
<!-- Node33&#45;&gt;Node34 -->
<g id="edge62" class="edge"><title>Node33&#45;&gt;Node34</title>
<path fill="none" stroke="midnightblue" d="M616.101,-302.753C622.237,-294.761 631.27,-282.998 638.739,-273.27"/>
<polygon fill="midnightblue" stroke="midnightblue" points="641.717,-275.138 645.032,-265.075 636.165,-270.875 641.717,-275.138"/>
</g>
<!-- Node34&#45;&gt;Node11 -->
<g id="edge63" class="edge"><title>Node34&#45;&gt;Node11</title>
<path fill="none" stroke="midnightblue" d="M638.791,-244.784C628.218,-236.533 614.173,-223.385 608,-208 591.85,-167.75 605.351,-115.835 614.778,-88.5871"/>
<polygon fill="midnightblue" stroke="midnightblue" points="618.09,-89.7188 618.237,-79.125 611.516,-87.315 618.09,-89.7188"/>
</g>
<!-- Node35 -->
<g id="node35" class="node"><title>Node35</title>
<g id="a_node35"><a xlink:href="Vector_8h.html" target="_top" xlink:title="Represent coordinates. ">
<polygon fill="none" stroke="red" points="1183.93,-187 1183.93,-207 1236.07,-207 1236.07,-187 1183.93,-187"/>
<text text-anchor="middle" x="1210" y="-193" font-family="Helvetica,sans-Serif" font-size="10.00">Vector.h</text>
</a>
</g>
</g>
<!-- Node34&#45;&gt;Node35 -->
<g id="edge64" class="edge"><title>Node34&#45;&gt;Node35</title>
<path fill="none" stroke="midnightblue" d="M706.265,-248.554C819.51,-237.189 1078.4,-211.208 1173.82,-201.631"/>
<polygon fill="midnightblue" stroke="midnightblue" points="1174.24,-205.106 1183.84,-200.625 1173.54,-198.141 1174.24,-205.106"/>
</g>
<!-- Node35&#45;&gt;Node11 -->
<g id="edge65" class="edge"><title>Node35&#45;&gt;Node11</title>
<path fill="none" stroke="midnightblue" d="M1210.31,-186.784C1210.32,-169.757 1207.64,-133.514 1186,-116 1146.31,-83.8833 799.212,-73.5944 670.101,-70.8608"/>
<polygon fill="midnightblue" stroke="midnightblue" points="670.172,-67.3616 660.102,-70.6551 670.028,-74.3601 670.172,-67.3616"/>
</g>
<!-- Node35&#45;&gt;Node13 -->
<g id="edge66" class="edge"><title>Node35&#45;&gt;Node13</title>
<path fill="none" stroke="midnightblue" d="M1236.38,-194.425C1334.94,-188.459 1681.6,-166.742 1791,-150 1799.15,-148.753 1807.76,-147.083 1816.04,-145.292"/>
<polygon fill="midnightblue" stroke="midnightblue" points="1816.95,-148.675 1825.94,-143.066 1815.42,-141.845 1816.95,-148.675"/>
</g>
<!-- Node35&#45;&gt;Node20 -->
<g id="edge67" class="edge"><title>Node35&#45;&gt;Node20</title>
<path fill="none" stroke="midnightblue" d="M1225.35,-186.852C1242.32,-176.732 1269.9,-160.292 1289.79,-148.432"/>
<polygon fill="midnightblue" stroke="midnightblue" points="1291.79,-151.313 1298.59,-143.186 1288.21,-145.3 1291.79,-151.313"/>
</g>
<!-- Node35&#45;&gt;Node36 -->
<g id="edge68" class="edge"><title>Node35&#45;&gt;Node36</title>
<path fill="none" stroke="midnightblue" d="M1194.06,-186.852C1176.36,-176.686 1147.54,-160.143 1126.86,-148.272"/>
<polygon fill="midnightblue" stroke="midnightblue" points="1128.42,-145.129 1118,-143.186 1124.93,-151.2 1128.42,-145.129"/>
</g>
<!-- Node37&#45;&gt;Node9 -->
<g id="edge74" class="edge"><title>Node37&#45;&gt;Node9</title>
<path fill="none" stroke="midnightblue" d="M1244.17,-302.938C1280.72,-295.426 1330.98,-283.184 1373,-266 1391.06,-258.614 1392.98,-251.502 1411,-244 1467.53,-220.459 1485.13,-224.882 1544,-208 1545.23,-207.647 1546.48,-207.284 1547.75,-206.914"/>
<polygon fill="midnightblue" stroke="midnightblue" points="1548.9,-210.224 1557.48,-204.019 1546.9,-203.515 1548.9,-210.224"/>
</g>
<!-- Node37&#45;&gt;Node11 -->
<g id="edge70" class="edge"><title>Node37&#45;&gt;Node11</title>
<path fill="none" stroke="midnightblue" d="M1185.71,-302.788C1155.73,-270.171 1048.58,-159.786 934,-116 845.039,-82.0053 732.933,-72.97 670.202,-70.6705"/>
<polygon fill="midnightblue" stroke="midnightblue" points="669.932,-67.16 659.825,-70.3355 669.707,-74.1564 669.932,-67.16"/>
</g>
<!-- Node37&#45;&gt;Node23 -->
<g id="edge71" class="edge"><title>Node37&#45;&gt;Node23</title>
<path fill="none" stroke="midnightblue" d="M1143.16,-309.539C1007.02,-302.75 640.96,-283.126 589,-266 464.863,-225.083 340.124,-124.617 294.828,-85.7295"/>
<polygon fill="midnightblue" stroke="midnightblue" points="296.929,-82.9188 287.082,-79.0104 292.342,-88.2068 296.929,-82.9188"/>
</g>
<!-- Node37&#45;&gt;Node30 -->
<g id="edge72" class="edge"><title>Node37&#45;&gt;Node30</title>
<path fill="none" stroke="midnightblue" d="M1216.97,-302.878C1240.22,-293.644 1276.38,-279.283 1302.55,-268.889"/>
<polygon fill="midnightblue" stroke="midnightblue" points="1304.04,-272.062 1312.04,-265.118 1301.46,-265.556 1304.04,-272.062"/>
</g>
<!-- Node37&#45;&gt;Node38 -->
<g id="edge73" class="edge"><title>Node37&#45;&gt;Node38</title>
<path fill="none" stroke="midnightblue" d="M1238,-302.94C1285.51,-293.16 1361.2,-277.577 1412.2,-267.076"/>
<polygon fill="midnightblue" stroke="midnightblue" points="1412.97,-270.491 1422.06,-265.047 1411.56,-263.635 1412.97,-270.491"/>
</g>
<!-- Node42&#45;&gt;Node11 -->
<g id="edge89" class="edge"><title>Node42&#45;&gt;Node11</title>
<path fill="none" stroke="midnightblue" d="M565.996,-363.887C509.703,-353.849 415.76,-328.326 366,-266 323.876,-213.239 298.301,-167.464 342,-116 371.213,-81.5956 502.06,-72.8755 574.079,-70.6978"/>
<polygon fill="midnightblue" stroke="midnightblue" points="574.358,-74.1916 584.259,-70.4217 574.168,-67.1942 574.358,-74.1916"/>
</g>
<!-- Node42&#45;&gt;Node30 -->
<g id="edge90" class="edge"><title>Node42&#45;&gt;Node30</title>
<path fill="none" stroke="midnightblue" d="M657.961,-365.506C722.329,-358.788 842.802,-344.666 944,-324 980.55,-316.536 988.486,-309.64 1025,-302 1121.21,-281.87 1236.01,-267.243 1295.25,-260.377"/>
<polygon fill="midnightblue" stroke="midnightblue" points="1295.77,-263.841 1305.3,-259.225 1294.97,-256.887 1295.77,-263.841"/>
</g>
<!-- Node43&#45;&gt;Node3 -->
<g id="edge98" class="edge"><title>Node43&#45;&gt;Node3</title>
<path fill="none" stroke="midnightblue" d="M2047.07,-360.973C2058.55,-334.529 2090.13,-254.767 2086,-186 2083.95,-151.876 2078.53,-112.409 2075.07,-89.4223"/>
<polygon fill="midnightblue" stroke="midnightblue" points="2078.49,-88.6381 2073.51,-79.288 2071.57,-89.7045 2078.49,-88.6381"/>
</g>
<!-- Node43&#45;&gt;Node11 -->
<g id="edge92" class="edge"><title>Node43&#45;&gt;Node11</title>
<path fill="none" stroke="midnightblue" d="M2024.7,-360.925C1975.31,-336.412 1835.17,-266.757 1719,-208 1699.84,-198.311 1696.2,-193.263 1676,-186 1540.22,-137.188 1501.87,-136.11 1359,-116 1100.83,-79.6625 787.753,-72.0288 669.919,-70.4258"/>
<polygon fill="midnightblue" stroke="midnightblue" points="669.834,-66.9245 659.79,-70.2965 669.745,-73.9239 669.834,-66.9245"/>
</g>
<!-- Node43&#45;&gt;Node15 -->
<g id="edge99" class="edge"><title>Node43&#45;&gt;Node15</title>
<path fill="none" stroke="midnightblue" d="M2051.12,-360.827C2058.94,-351.779 2070.9,-337.396 2080,-324 2137.35,-239.545 2193.59,-130.772 2214.97,-88.2118"/>
<polygon fill="midnightblue" stroke="midnightblue" points="2218.19,-89.5954 2219.53,-79.0853 2211.93,-86.4673 2218.19,-89.5954"/>
</g>
<!-- Node44 -->
<g id="node44" class="node"><title>Node44</title>
<g id="a_node44"><a xlink:href="Enum_8h.html" target="_top" xlink:title="Handle read/write of Model data from/to files. ">
<polygon fill="none" stroke="black" points="1727.77,-187 1727.77,-207 1778.23,-207 1778.23,-187 1727.77,-187"/>
<text text-anchor="middle" x="1753" y="-193" font-family="Helvetica,sans-Serif" font-size="10.00">Enum.h</text>
</a>
</g>
</g>
<!-- Node43&#45;&gt;Node44 -->
<g id="edge93" class="edge"><title>Node43&#45;&gt;Node44</title>
<path fill="none" stroke="midnightblue" d="M2035.31,-360.731C2023.87,-347.187 2001.44,-321.484 1980,-302 1948.56,-273.421 1941.81,-263.387 1904,-244 1866.64,-224.846 1819.93,-212.145 1788.43,-205.031"/>
<polygon fill="midnightblue" stroke="midnightblue" points="1788.88,-201.548 1778.37,-202.832 1787.39,-208.386 1788.88,-201.548"/>
</g>
<!-- Node44&#45;&gt;Node11 -->
<g id="edge94" class="edge"><title>Node44&#45;&gt;Node11</title>
<path fill="none" stroke="midnightblue" d="M1737.59,-186.947C1722.6,-177.987 1699.32,-163.668 1680,-150 1660.11,-135.93 1659.83,-124.518 1637,-116 1591.26,-98.9303 865.292,-76.9753 670.036,-71.3564"/>
<polygon fill="midnightblue" stroke="midnightblue" points="669.902,-67.8512 659.806,-71.063 669.701,-74.8483 669.902,-67.8512"/>
</g>
<!-- Node44&#45;&gt;Node13 -->
<g id="edge95" class="edge"><title>Node44&#45;&gt;Node13</title>
<path fill="none" stroke="midnightblue" d="M1768.94,-186.852C1786.64,-176.686 1815.46,-160.143 1836.14,-148.272"/>
<polygon fill="midnightblue" stroke="midnightblue" points="1838.07,-151.2 1845,-143.186 1834.58,-145.129 1838.07,-151.2"/>
</g>
<!-- Node44&#45;&gt;Node20 -->
<g id="edge96" class="edge"><title>Node44&#45;&gt;Node20</title>
<path fill="none" stroke="midnightblue" d="M1727.5,-192.399C1655.96,-182.295 1452.6,-153.574 1360.43,-140.557"/>
<polygon fill="midnightblue" stroke="midnightblue" points="1360.67,-137.056 1350.28,-139.124 1359.69,-143.988 1360.67,-137.056"/>
</g>
<!-- Node45 -->
<g id="node45" class="node"><title>Node45</title>
<polygon fill="none" stroke="#bfbfbf" points="1689.09,-117 1689.09,-149 1782.91,-149 1782.91,-117 1689.09,-117"/>
<text text-anchor="start" x="1697.09" y="-135" font-family="Helvetica,sans-Serif" font-size="10.00">internal/small_set</text>
<text text-anchor="middle" x="1736" y="-123" font-family="Helvetica,sans-Serif" font-size="10.00">_map.h</text>
</g>
<!-- Node44&#45;&gt;Node45 -->
<g id="edge97" class="edge"><title>Node44&#45;&gt;Node45</title>
<path fill="none" stroke="midnightblue" d="M1750.49,-186.852C1748.49,-179.552 1745.59,-168.962 1742.9,-159.176"/>
<polygon fill="midnightblue" stroke="midnightblue" points="1746.25,-158.159 1740.23,-149.44 1739.5,-160.01 1746.25,-158.159"/>
</g>
<!-- Node46&#45;&gt;Node11 -->
<g id="edge101" class="edge"><title>Node46&#45;&gt;Node11</title>
<path fill="none" stroke="midnightblue" d="M1163.98,-420.402C1062.74,-398.405 774.172,-335.501 732,-324 721.915,-321.25 559.846,-273.9 553,-266 509.314,-215.593 521.481,-171.819 558,-116 566.741,-102.64 580.809,-91.9021 593.532,-84.1721"/>
<polygon fill="midnightblue" stroke="midnightblue" points="595.51,-87.0736 602.464,-79.0805 592.043,-80.9924 595.51,-87.0736"/>
</g>
<!-- Node46&#45;&gt;Node13 -->
<g id="edge104" class="edge"><title>Node46&#45;&gt;Node13</title>
<path fill="none" stroke="midnightblue" d="M1233.8,-423.956C1334.75,-410.63 1632.27,-359.9 1817,-208 1834.8,-193.36 1847.13,-169.504 1854.11,-152.848"/>
<polygon fill="midnightblue" stroke="midnightblue" points="1857.53,-153.7 1857.93,-143.112 1851.02,-151.142 1857.53,-153.7"/>
</g>
<!-- Node46&#45;&gt;Node30 -->
<g id="edge102" class="edge"><title>Node46&#45;&gt;Node30</title>
<path fill="none" stroke="midnightblue" d="M1187.4,-418.734C1161.39,-396.847 1102.99,-340.867 1134,-302 1178.92,-245.699 1221.81,-282.157 1292,-266 1293.08,-265.751 1294.18,-265.498 1295.29,-265.242"/>
<polygon fill="midnightblue" stroke="midnightblue" points="1296.44,-268.568 1305.4,-262.903 1294.86,-261.748 1296.44,-268.568"/>
</g>
<!-- Node46&#45;&gt;Node32 -->
<g id="edge103" class="edge"><title>Node46&#45;&gt;Node32</title>
<path fill="none" stroke="midnightblue" d="M1209.4,-418.753C1218.85,-410.353 1232.99,-397.787 1244.23,-387.798"/>
<polygon fill="midnightblue" stroke="midnightblue" points="1246.64,-390.335 1251.79,-381.075 1241.99,-385.103 1246.64,-390.335"/>
</g>
<!-- Node50&#45;&gt;Node2 -->
<g id="edge121" class="edge"><title>Node50&#45;&gt;Node2</title>
<path fill="none" stroke="midnightblue" d="M1915.84,-555.562C1754.67,-553.581 1154.56,-544.029 968,-510 837.89,-486.268 811.573,-456.356 685,-418 628.444,-400.861 613.315,-399.916 557,-382 436.42,-343.639 394.974,-346.076 297,-266 278.356,-250.762 260.175,-229.896 248.374,-215.311"/>
<polygon fill="midnightblue" stroke="midnightblue" points="250.858,-212.811 241.903,-207.148 245.372,-217.159 250.858,-212.811"/>
</g>
<!-- Node50&#45;&gt;Node3 -->
<g id="edge122" class="edge"><title>Node50&#45;&gt;Node3</title>
<path fill="none" stroke="midnightblue" d="M1996.13,-550.012C2086.88,-535.346 2300,-494.079 2300,-430 2300,-430 2300,-430 2300,-370 2300,-241.526 2253.98,-205.694 2162,-116 2144.99,-99.4127 2120.8,-87.5036 2101.78,-79.9642"/>
<polygon fill="midnightblue" stroke="midnightblue" points="2102.96,-76.6698 2092.37,-76.4182 2100.49,-83.22 2102.96,-76.6698"/>
</g>
<!-- Node50&#45;&gt;Node4 -->
<g id="edge123" class="edge"><title>Node50&#45;&gt;Node4</title>
<path fill="none" stroke="midnightblue" d="M1996.07,-556.043C2051.79,-554.651 2154.66,-546.748 2233,-510 2358.5,-451.13 2414,-394.619 2414,-256 2414,-256 2414,-256 2414,-196 2414,-156.216 2396.42,-112.259 2385.17,-88.2124"/>
<polygon fill="midnightblue" stroke="midnightblue" points="2388.32,-86.6736 2380.81,-79.1957 2382.02,-89.7219 2388.32,-86.6736"/>
</g>
<!-- Node50&#45;&gt;Node11 -->
<g id="edge127" class="edge"><title>Node50&#45;&gt;Node11</title>
<path fill="none" stroke="midnightblue" d="M1915.64,-555.387C1781.68,-553.056 1352.77,-543.126 1219,-510 1023.59,-461.611 975.25,-433 806,-324 760.725,-294.842 757.578,-276.971 715,-244 692.485,-226.566 680.296,-229.82 662,-208 632.853,-173.239 624.931,-118.224 622.788,-89.2731"/>
<polygon fill="midnightblue" stroke="midnightblue" points="626.278,-89.0101 622.203,-79.2303 619.29,-89.4168 626.278,-89.0101"/>
</g>
<!-- Node50&#45;&gt;Node13 -->
<g id="edge130" class="edge"><title>Node50&#45;&gt;Node13</title>
<path fill="none" stroke="midnightblue" d="M1996.15,-552.09C2046.53,-546.258 2128.58,-533.377 2147,-510 2153.48,-501.771 2150.29,-433.048 2144,-418 2089.44,-287.516 1943.21,-185.253 1885.2,-148.613"/>
<polygon fill="midnightblue" stroke="midnightblue" points="1886.7,-145.425 1876.36,-143.11 1883,-151.367 1886.7,-145.425"/>
</g>
<!-- Node50&#45;&gt;Node20 -->
<g id="edge129" class="edge"><title>Node50&#45;&gt;Node20</title>
<path fill="none" stroke="midnightblue" d="M1977.88,-546.968C2024.82,-526.274 2127.95,-472.962 2090,-418 2064.35,-380.844 2036.1,-400.697 1995,-382 1974.01,-372.449 1650.96,-193.062 1629,-186 1512.07,-148.397 1473.96,-180.548 1355,-150 1351.38,-149.071 1347.65,-147.914 1343.98,-146.649"/>
<polygon fill="midnightblue" stroke="midnightblue" points="1345.13,-143.341 1334.54,-143.133 1342.69,-149.902 1345.13,-143.341"/>
</g>
<!-- Node50&#45;&gt;Node28 -->
<g id="edge125" class="edge"><title>Node50&#45;&gt;Node28</title>
<path fill="none" stroke="midnightblue" d="M1915.8,-552.307C1802.8,-541.928 1481.7,-512.435 1344.46,-499.829"/>
<polygon fill="midnightblue" stroke="midnightblue" points="1344.4,-496.309 1334.12,-498.879 1343.76,-503.279 1344.4,-496.309"/>
</g>
<!-- Node50&#45;&gt;Node30 -->
<g id="edge124" class="edge"><title>Node50&#45;&gt;Node30</title>
<path fill="none" stroke="midnightblue" d="M1954.53,-546.931C1951.24,-529.816 1941.53,-492.958 1917,-476 1845.77,-426.76 1596.3,-494.491 1529,-440 1479.07,-399.574 1531.57,-347.281 1486,-302 1470.22,-286.318 1413.71,-272.025 1374.49,-263.666"/>
<polygon fill="midnightblue" stroke="midnightblue" points="1375.18,-260.235 1364.68,-261.621 1373.75,-267.088 1375.18,-260.235"/>
</g>
<!-- Node50&#45;&gt;Node31 -->
<g id="edge126" class="edge"><title>Node50&#45;&gt;Node31</title>
<path fill="none" stroke="midnightblue" d="M1958.72,-546.891C1963.03,-530.363 1969.21,-495.358 1951,-476 1929.57,-453.224 1730.14,-438.67 1632.86,-432.867"/>
<polygon fill="midnightblue" stroke="midnightblue" points="1632.84,-429.36 1622.65,-432.268 1632.42,-436.348 1632.84,-429.36"/>
</g>
<!-- Node50&#45;&gt;Node33 -->
<g id="edge133" class="edge"><title>Node50&#45;&gt;Node33</title>
<path fill="none" stroke="midnightblue" d="M1915.77,-555.358C1747.11,-552.486 1101.81,-539.641 1016,-510 991.29,-501.464 990.914,-488.587 968,-476 930.963,-455.655 918.725,-456.913 880,-440 790.365,-400.854 685.79,-351.036 636.883,-327.491"/>
<polygon fill="midnightblue" stroke="midnightblue" points="638.118,-324.201 627.59,-323.011 635.078,-330.507 638.118,-324.201"/>
</g>
<!-- Node50&#45;&gt;Node41 -->
<g id="edge131" class="edge"><title>Node50&#45;&gt;Node41</title>
<path fill="none" stroke="midnightblue" d="M1964.08,-546.725C1971.46,-537.832 1982.24,-523.76 1989,-510 1998.67,-490.334 2005.28,-466.007 2009.08,-449.377"/>
<polygon fill="midnightblue" stroke="midnightblue" points="2012.58,-449.757 2011.27,-439.244 2005.74,-448.283 2012.58,-449.757"/>
</g>
<!-- Node50&#45;&gt;Node43 -->
<g id="edge128" class="edge"><title>Node50&#45;&gt;Node43</title>
<path fill="none" stroke="midnightblue" d="M1996.05,-550.651C2040.65,-543.775 2108.55,-530.255 2124,-510 2148.8,-477.493 2144.57,-453.338 2124,-418 2115.17,-402.838 2099.28,-392.265 2083.9,-385.116"/>
<polygon fill="midnightblue" stroke="midnightblue" points="2085.03,-381.791 2074.45,-381.096 2082.28,-388.232 2085.03,-381.791"/>
</g>
<!-- Node50&#45;&gt;Node48 -->
<g id="edge132" class="edge"><title>Node50&#45;&gt;Node48</title>
<path fill="none" stroke="midnightblue" d="M1940.65,-546.852C1923.68,-536.732 1896.1,-520.292 1876.21,-508.432"/>
<polygon fill="midnightblue" stroke="midnightblue" points="1877.79,-505.3 1867.41,-503.186 1874.21,-511.313 1877.79,-505.3"/>
</g>
</g>
</svg>
