<?xml version="1.0" encoding="UTF-8" standalone="no"?>
<!DOCTYPE svg PUBLIC "-//W3C//DTD SVG 1.1//EN"
 "http://www.w3.org/Graphics/SVG/1.1/DTD/svg11.dtd">
<!-- Generated by graphviz version 2.34.0 (20131025.1349)
 -->
<!-- Title: FileConstHandle.h Pages: 1 -->
<svg width="2772pt" height="576pt"
 viewBox="0.00 0.00 2772.32 576.00" xmlns="http://www.w3.org/2000/svg" xmlns:xlink="http://www.w3.org/1999/xlink">
<g id="graph0" class="graph" transform="scale(1 1) rotate(0) translate(4 572)">
<title>FileConstHandle.h</title>
<!-- Node1 -->
<g id="node1" class="node"><title>Node1</title>
<polygon fill="#bfbfbf" stroke="black" points="1290.19,-547 1290.19,-567 1388.45,-567 1388.45,-547 1290.19,-547"/>
<text text-anchor="middle" x="1339.32" y="-553" font-family="Helvetica,sans-Serif" font-size="10.00">FileConstHandle.h</text>
</g>
<!-- Node2 -->
<g id="node2" class="node"><title>Node2</title>
<polygon fill="none" stroke="#bfbfbf" points="840.111,-419 840.111,-439 974.525,-439 974.525,-419 840.111,-419"/>
<text text-anchor="middle" x="907.318" y="-425" font-family="Helvetica,sans-Serif" font-size="10.00">boost/current_function.hpp</text>
</g>
<!-- Node1&#45;&gt;Node2 -->
<g id="edge1" class="edge"><title>Node1&#45;&gt;Node2</title>
<path fill="none" stroke="midnightblue" d="M1308.25,-546.938C1231.67,-524.603 1033.87,-466.91 948.047,-441.879"/>
<polygon fill="midnightblue" stroke="midnightblue" points="948.975,-438.504 938.394,-439.064 947.014,-445.224 948.975,-438.504"/>
</g>
<!-- Node3 -->
<g id="node3" class="node"><title>Node3</title>
<polygon fill="none" stroke="#bfbfbf" points="30.3307,-483 30.3307,-503 160.305,-503 160.305,-483 30.3307,-483"/>
<text text-anchor="middle" x="95.318" y="-489" font-family="Helvetica,sans-Serif" font-size="10.00">boost/functional/hash.hpp</text>
</g>
<!-- Node1&#45;&gt;Node3 -->
<g id="edge2" class="edge"><title>Node1&#45;&gt;Node3</title>
<path fill="none" stroke="midnightblue" d="M1290.13,-555.11C1097.67,-551.464 395.508,-536.592 174.318,-510 164.314,-508.797 153.689,-507.006 143.583,-505.051"/>
<polygon fill="midnightblue" stroke="midnightblue" points="144.186,-501.602 133.691,-503.058 142.803,-508.465 144.186,-501.602"/>
</g>
<!-- Node4 -->
<g id="node4" class="node"><title>Node4</title>
<polygon fill="none" stroke="#bfbfbf" points="147.336,-123 147.336,-143 257.3,-143 257.3,-123 147.336,-123"/>
<text text-anchor="middle" x="202.318" y="-129" font-family="Helvetica,sans-Serif" font-size="10.00">boost/shared_ptr.hpp</text>
</g>
<!-- Node1&#45;&gt;Node4 -->
<g id="edge3" class="edge"><title>Node1&#45;&gt;Node4</title>
<path fill="none" stroke="midnightblue" d="M1290.15,-555.038C1132.14,-551.669 643.863,-538.999 579.318,-510 396.431,-427.831 252.822,-214.991 213.218,-151.887"/>
<polygon fill="midnightblue" stroke="midnightblue" points="216.007,-149.744 207.764,-143.088 210.057,-153.431 216.007,-149.744"/>
</g>
<!-- Node5 -->
<g id="node5" class="node"><title>Node5</title>
<polygon fill="none" stroke="#bfbfbf" points="588.146,-483 588.146,-503 632.49,-503 632.49,-483 588.146,-483"/>
<text text-anchor="middle" x="610.318" y="-489" font-family="Helvetica,sans-Serif" font-size="10.00">iosfwd</text>
</g>
<!-- Node1&#45;&gt;Node5 -->
<g id="edge4" class="edge"><title>Node1&#45;&gt;Node5</title>
<path fill="none" stroke="midnightblue" d="M1289.7,-554.963C1152.21,-551.731 768.496,-540.191 646.318,-510 643.131,-509.212 639.873,-508.158 636.684,-506.964"/>
<polygon fill="midnightblue" stroke="midnightblue" points="638.033,-503.734 627.458,-503.092 635.324,-510.189 638.033,-503.734"/>
</g>
<!-- Node6 -->
<g id="node6" class="node"><title>Node6</title>
<polygon fill="none" stroke="#bfbfbf" points="1831.93,-123 1831.93,-143 1870.7,-143 1870.7,-123 1831.93,-123"/>
<text text-anchor="middle" x="1851.32" y="-129" font-family="Helvetica,sans-Serif" font-size="10.00">limits</text>
</g>
<!-- Node1&#45;&gt;Node6 -->
<g id="edge5" class="edge"><title>Node1&#45;&gt;Node6</title>
<path fill="none" stroke="midnightblue" d="M1388.67,-555.025C1526.34,-551.942 1912.56,-540.725 2035.32,-510 2119.06,-489.04 2212.32,-516.329 2212.32,-430 2212.32,-430 2212.32,-430 2212.32,-312 2212.32,-164.573 1967.13,-139.248 1880.89,-134.9"/>
<polygon fill="midnightblue" stroke="midnightblue" points="1880.87,-131.396 1870.73,-134.45 1880.56,-138.389 1880.87,-131.396"/>
</g>
<!-- Node7 -->
<g id="node7" class="node"><title>Node7</title>
<polygon fill="none" stroke="#bfbfbf" points="276.091,-59 276.091,-79 316.545,-79 316.545,-59 276.091,-59"/>
<text text-anchor="middle" x="296.318" y="-65" font-family="Helvetica,sans-Serif" font-size="10.00">string</text>
</g>
<!-- Node1&#45;&gt;Node7 -->
<g id="edge6" class="edge"><title>Node1&#45;&gt;Node7</title>
<path fill="none" stroke="midnightblue" d="M1290.17,-555.939C1056.96,-555.441 71.2737,-550.916 21.318,-510 -6.95389,-486.844 2.31796,-466.545 2.31796,-430 2.31796,-430 2.31796,-430 2.31796,-196 2.31796,-82.4681 189.827,-69.9117 265.35,-69.4588"/>
<polygon fill="midnightblue" stroke="midnightblue" points="265.641,-72.959 275.644,-69.4692 265.648,-65.959 265.641,-72.959"/>
</g>
<!-- Node8 -->
<g id="node8" class="node"><title>Node8</title>
<polygon fill="none" stroke="#bfbfbf" points="1050.7,-59 1050.7,-79 1093.93,-79 1093.93,-59 1050.7,-59"/>
<text text-anchor="middle" x="1072.32" y="-65" font-family="Helvetica,sans-Serif" font-size="10.00">vector</text>
</g>
<!-- Node1&#45;&gt;Node8 -->
<g id="edge7" class="edge"><title>Node1&#45;&gt;Node8</title>
<path fill="none" stroke="midnightblue" d="M1290.09,-554.848C1168.53,-551.55 861.522,-540.282 827.318,-510 682.196,-381.519 915.359,-283.861 1014.32,-150 1030,-128.782 1047.78,-104.181 1059.47,-87.922"/>
<polygon fill="midnightblue" stroke="midnightblue" points="1062.6,-89.5656 1065.59,-79.4015 1056.91,-85.4826 1062.6,-89.5656"/>
</g>
<!-- Node9 -->
<g id="node9" class="node"><title>Node9</title>
<g id="a_node9"><a xlink:href="BufferHandle_8h.html" target="_top" xlink:title="Manage a memory buffer for reading/writing RMF files. ">
<polygon fill="none" stroke="black" points="1169.05,-245 1169.05,-265 1251.58,-265 1251.58,-245 1169.05,-245"/>
<text text-anchor="middle" x="1210.32" y="-251" font-family="Helvetica,sans-Serif" font-size="10.00">BufferHandle.h</text>
</a>
</g>
</g>
<!-- Node1&#45;&gt;Node9 -->
<g id="edge8" class="edge"><title>Node1&#45;&gt;Node9</title>
<path fill="none" stroke="midnightblue" d="M1290.08,-552.6C1173.51,-543.395 886.286,-513.551 831.318,-440 825.465,-432.168 825.05,-425.504 831.318,-418 888.939,-349.02 947.354,-416.574 1030.32,-382 1096.62,-354.371 1162.77,-299.219 1193.12,-271.979"/>
<polygon fill="midnightblue" stroke="midnightblue" points="1195.66,-274.401 1200.7,-265.083 1190.95,-269.223 1195.66,-274.401"/>
</g>
<!-- Node10 -->
<g id="node10" class="node"><title>Node10</title>
<g id="a_node10"><a xlink:href="config_8h_source.html" target="_top" xlink:title="RMF/config.h">
<polygon fill="none" stroke="black" points="1597.59,-59 1597.59,-79 1673.05,-79 1673.05,-59 1597.59,-59"/>
<text text-anchor="middle" x="1635.32" y="-65" font-family="Helvetica,sans-Serif" font-size="10.00">RMF/config.h</text>
</a>
</g>
</g>
<!-- Node1&#45;&gt;Node10 -->
<g id="edge115" class="edge"><title>Node1&#45;&gt;Node10</title>
<path fill="none" stroke="midnightblue" d="M1388.45,-555.236C1538.18,-552.579 1987.18,-542.077 2129.32,-510 2221.5,-489.197 2326.32,-524.5 2326.32,-430 2326.32,-430 2326.32,-430 2326.32,-254 2326.32,-171.544 2276.21,-152.596 2202.32,-116 2111.69,-71.111 1803.13,-68.6056 1683.38,-69.398"/>
<polygon fill="midnightblue" stroke="midnightblue" points="1683.04,-65.9005 1673.06,-69.4777 1683.09,-72.9003 1683.04,-65.9005"/>
</g>
<!-- Node12 -->
<g id="node12" class="node"><title>Node12</title>
<g id="a_node12"><a xlink:href="infrastructure__macros_8h.html" target="_top" xlink:title="Various general useful macros for IMP. ">
<polygon fill="none" stroke="black" points="884.798,-123 884.798,-143 1005.84,-143 1005.84,-123 884.798,-123"/>
<text text-anchor="middle" x="945.318" y="-129" font-family="Helvetica,sans-Serif" font-size="10.00">infrastructure_macros.h</text>
</a>
</g>
</g>
<!-- Node1&#45;&gt;Node12 -->
<g id="edge119" class="edge"><title>Node1&#45;&gt;Node12</title>
<path fill="none" stroke="midnightblue" d="M1289.98,-555.486C1151.46,-553.608 766.173,-545.238 722.318,-510 693.381,-486.749 698.318,-467.121 698.318,-430 698.318,-430 698.318,-430 698.318,-312 698.318,-280.62 697.178,-268.064 717.318,-244 731.045,-227.598 855.728,-172.537 914.688,-147.094"/>
<polygon fill="midnightblue" stroke="midnightblue" points="916.092,-150.3 923.893,-143.131 913.324,-143.87 916.092,-150.3"/>
</g>
<!-- Node19 -->
<g id="node19" class="node"><title>Node19</title>
<g id="a_node19"><a xlink:href="exceptions_8h.html" target="_top" xlink:title="Various general useful macros for IMP. ">
<polygon fill="none" stroke="black" points="1364.24,-123 1364.24,-143 1436.39,-143 1436.39,-123 1364.24,-123"/>
<text text-anchor="middle" x="1400.32" y="-129" font-family="Helvetica,sans-Serif" font-size="10.00">exceptions.h</text>
</a>
</g>
</g>
<!-- Node1&#45;&gt;Node19 -->
<g id="edge118" class="edge"><title>Node1&#45;&gt;Node19</title>
<path fill="none" stroke="midnightblue" d="M1289.93,-555.829C1186.13,-554.711 949.129,-547.944 879.318,-510 837.261,-487.141 798.479,-458.919 823.318,-418 885.242,-315.987 1246.08,-186.314 1363.45,-146.307"/>
<polygon fill="midnightblue" stroke="midnightblue" points="1364.73,-149.568 1373.08,-143.041 1362.48,-142.939 1364.73,-149.568"/>
</g>
<!-- Node22 -->
<g id="node22" class="node"><title>Node22</title>
<polygon fill="none" stroke="#bfbfbf" points="2290.08,-59 2290.08,-79 2400.55,-79 2400.55,-59 2290.08,-59"/>
<text text-anchor="middle" x="2345.32" y="-65" font-family="Helvetica,sans-Serif" font-size="10.00">RMF/internal/errors.h</text>
</g>
<!-- Node1&#45;&gt;Node22 -->
<g id="edge121" class="edge"><title>Node1&#45;&gt;Node22</title>
<path fill="none" stroke="midnightblue" d="M1388.5,-554.984C1564.1,-551.148 2153.95,-536.411 2234.32,-510 2362.9,-467.746 2402.32,-391.348 2402.32,-256 2402.32,-256 2402.32,-256 2402.32,-196 2402.32,-154.033 2375.74,-110.633 2358.88,-87.3223"/>
<polygon fill="midnightblue" stroke="midnightblue" points="2361.56,-85.0606 2352.77,-79.1518 2355.96,-89.255 2361.56,-85.0606"/>
</g>
<!-- Node27 -->
<g id="node27" class="node"><title>Node27</title>
<g id="a_node27"><a xlink:href="NodeConstHandle_8h.html" target="_top" xlink:title="Handle read/write of Model data from/to files. ">
<polygon fill="none" stroke="black" points="1286.29,-483 1286.29,-503 1392.35,-503 1392.35,-483 1286.29,-483"/>
<text text-anchor="middle" x="1339.32" y="-489" font-family="Helvetica,sans-Serif" font-size="10.00">NodeConstHandle.h</text>
</a>
</g>
</g>
<!-- Node1&#45;&gt;Node27 -->
<g id="edge40" class="edge"><title>Node1&#45;&gt;Node27</title>
<path fill="none" stroke="midnightblue" d="M1339.32,-546.852C1339.32,-538.06 1339.32,-524.498 1339.32,-513.313"/>
<polygon fill="midnightblue" stroke="midnightblue" points="1342.82,-513.186 1339.32,-503.186 1335.82,-513.186 1342.82,-513.186"/>
</g>
<!-- Node29 -->
<g id="node29" class="node"><title>Node29</title>
<g id="a_node29"><a xlink:href="ID_8h.html" target="_top" xlink:title="Handle read/write of Model data from/to files. ">
<polygon fill="none" stroke="black" points="1434.93,-245 1434.93,-265 1493.71,-265 1493.71,-245 1434.93,-245"/>
<text text-anchor="middle" x="1464.32" y="-251" font-family="Helvetica,sans-Serif" font-size="10.00">RMF/ID.h</text>
</a>
</g>
</g>
<!-- Node1&#45;&gt;Node29 -->
<g id="edge114" class="edge"><title>Node1&#45;&gt;Node29</title>
<path fill="none" stroke="midnightblue" d="M1388.67,-554.533C1499.01,-550.767 1762.58,-538.944 1846.32,-510 1900.38,-491.314 1927,-490.257 1954.32,-440 1958.99,-431.409 1960.78,-425.334 1954.32,-418 1912.1,-370.116 1729.92,-402.058 1669.32,-382 1650.42,-375.747 1648.52,-368.048 1630.32,-360 1583.66,-339.369 1563.54,-352.642 1521.32,-324 1501.89,-310.822 1485.4,-289.241 1475.23,-273.928"/>
<polygon fill="midnightblue" stroke="midnightblue" points="1478.07,-271.881 1469.74,-265.335 1472.17,-275.647 1478.07,-271.881"/>
</g>
<!-- Node31 -->
<g id="node31" class="node"><title>Node31</title>
<polygon fill="none" stroke="#bfbfbf" points="1789.46,-419 1789.46,-439 1927.18,-439 1927.18,-419 1789.46,-419"/>
<text text-anchor="middle" x="1858.32" y="-425" font-family="Helvetica,sans-Serif" font-size="10.00">RMF/internal/SharedData.h</text>
</g>
<!-- Node1&#45;&gt;Node31 -->
<g id="edge120" class="edge"><title>Node1&#45;&gt;Node31</title>
<path fill="none" stroke="midnightblue" d="M1376.64,-546.938C1469.2,-524.467 1709.18,-466.206 1811.26,-441.426"/>
<polygon fill="midnightblue" stroke="midnightblue" points="1812.09,-444.824 1820.98,-439.064 1810.44,-438.022 1812.09,-444.824"/>
</g>
<!-- Node32 -->
<g id="node32" class="node"><title>Node32</title>
<g id="a_node32"><a xlink:href="constants_8h.html" target="_top" xlink:title="Various utilities for rmfing. ">
<polygon fill="none" stroke="black" points="1530.53,-361 1530.53,-381 1622.11,-381 1622.11,-361 1530.53,-361"/>
<text text-anchor="middle" x="1576.32" y="-367" font-family="Helvetica,sans-Serif" font-size="10.00">RMF/constants.h</text>
</a>
</g>
</g>
<!-- Node1&#45;&gt;Node32 -->
<g id="edge116" class="edge"><title>Node1&#45;&gt;Node32</title>
<path fill="none" stroke="midnightblue" d="M1388.47,-554.235C1518.59,-548.419 1866.77,-525.05 1935.32,-440 1964.91,-403.278 1939.37,-425.476 1636.32,-382 1635.02,-381.814 1633.72,-381.623 1632.4,-381.428"/>
<polygon fill="midnightblue" stroke="midnightblue" points="1632.56,-377.913 1622.15,-379.858 1631.5,-384.832 1632.56,-377.913"/>
</g>
<!-- Node33 -->
<g id="node33" class="node"><title>Node33</title>
<g id="a_node33"><a xlink:href="enums_8h.html" target="_top" xlink:title="Handle read/write of Model data from/to files. ">
<polygon fill="none" stroke="black" points="725.921,-245 725.921,-265 804.714,-265 804.714,-245 725.921,-245"/>
<text text-anchor="middle" x="765.318" y="-251" font-family="Helvetica,sans-Serif" font-size="10.00">RMF/enums.h</text>
</a>
</g>
</g>
<!-- Node1&#45;&gt;Node33 -->
<g id="edge117" class="edge"><title>Node1&#45;&gt;Node33</title>
<path fill="none" stroke="midnightblue" d="M1290.07,-555.718C1145.79,-554.456 731.274,-547.564 684.318,-510 655.331,-486.811 660.318,-467.121 660.318,-430 660.318,-430 660.318,-430 660.318,-370 660.318,-323.959 707.227,-288.535 738.338,-270.105"/>
<polygon fill="midnightblue" stroke="midnightblue" points="740.075,-273.143 747.028,-265.15 736.608,-267.062 740.075,-273.143"/>
</g>
<!-- Node38 -->
<g id="node38" class="node"><title>Node38</title>
<g id="a_node38"><a xlink:href="types_8h.html" target="_top" xlink:title="RMF/types.h">
<polygon fill="none" stroke="black" points="2027.98,-303 2027.98,-323 2100.66,-323 2100.66,-303 2027.98,-303"/>
<text text-anchor="middle" x="2064.32" y="-309" font-family="Helvetica,sans-Serif" font-size="10.00">RMF/types.h</text>
</a>
</g>
</g>
<!-- Node1&#45;&gt;Node38 -->
<g id="edge125" class="edge"><title>Node1&#45;&gt;Node38</title>
<path fill="none" stroke="midnightblue" d="M1388.52,-555.809C1534.73,-554.806 1959.46,-548.566 2007.32,-510 2061.68,-466.193 2066.13,-373.728 2065.29,-333.444"/>
<polygon fill="midnightblue" stroke="midnightblue" points="2068.79,-333.216 2064.94,-323.342 2061.79,-333.457 2068.79,-333.216"/>
</g>
<!-- Node48 -->
<g id="node48" class="node"><title>Node48</title>
<polygon fill="none" stroke="#bfbfbf" points="2401.02,-477 2401.02,-509 2507.61,-509 2507.61,-477 2401.02,-477"/>
<text text-anchor="start" x="2409.02" y="-495" font-family="Helvetica,sans-Serif" font-size="10.00">RMF/internal/shared</text>
<text text-anchor="middle" x="2454.32" y="-483" font-family="Helvetica,sans-Serif" font-size="10.00">_data_ranges.h</text>
</g>
<!-- Node1&#45;&gt;Node48 -->
<g id="edge122" class="edge"><title>Node1&#45;&gt;Node48</title>
<path fill="none" stroke="midnightblue" d="M1388.74,-555.08C1568.99,-551.531 2190.73,-537.532 2387.32,-510 2388.41,-509.847 2389.52,-509.683 2390.63,-509.511"/>
<polygon fill="midnightblue" stroke="midnightblue" points="2391.48,-512.915 2400.73,-507.747 2390.28,-506.019 2391.48,-512.915"/>
</g>
<!-- Node49 -->
<g id="node49" class="node"><title>Node49</title>
<polygon fill="none" stroke="#bfbfbf" points="2525.68,-483 2525.68,-503 2638.96,-503 2638.96,-483 2525.68,-483"/>
<text text-anchor="middle" x="2582.32" y="-489" font-family="Helvetica,sans-Serif" font-size="10.00">internal/SharedData.h</text>
</g>
<!-- Node1&#45;&gt;Node49 -->
<g id="edge123" class="edge"><title>Node1&#45;&gt;Node49</title>
<path fill="none" stroke="midnightblue" d="M1388.72,-555.378C1582.8,-552.73 2293.27,-541.079 2516.32,-510 2524.28,-508.89 2532.69,-507.236 2540.73,-505.407"/>
<polygon fill="midnightblue" stroke="midnightblue" points="2541.76,-508.759 2550.67,-503.023 2540.13,-501.952 2541.76,-508.759"/>
</g>
<!-- Node50 -->
<g id="node50" class="node"><title>Node50</title>
<polygon fill="none" stroke="#bfbfbf" points="2656.73,-477 2656.73,-509 2763.91,-509 2763.91,-477 2656.73,-477"/>
<text text-anchor="start" x="2664.73" y="-495" font-family="Helvetica,sans-Serif" font-size="10.00">internal/shared_data</text>
<text text-anchor="middle" x="2710.32" y="-483" font-family="Helvetica,sans-Serif" font-size="10.00">_ranges.h</text>
</g>
<!-- Node1&#45;&gt;Node50 -->
<g id="edge124" class="edge"><title>Node1&#45;&gt;Node50</title>
<path fill="none" stroke="midnightblue" d="M1388.49,-555.675C1592.93,-554.109 2377.09,-545.929 2646.38,-509.874"/>
<polygon fill="midnightblue" stroke="midnightblue" points="2647.09,-513.309 2656.51,-508.469 2646.13,-506.376 2647.09,-513.309"/>
</g>
<!-- Node9&#45;&gt;Node6 -->
<g id="edge39" class="edge"><title>Node9&#45;&gt;Node6</title>
<path fill="none" stroke="midnightblue" d="M1251.84,-249.93C1271.39,-248.052 1295.05,-245.837 1316.32,-244 1418.25,-235.195 1682.11,-250.202 1775.32,-208 1802.6,-195.645 1825.9,-169.118 1839.26,-151.415"/>
<polygon fill="midnightblue" stroke="midnightblue" points="1842.26,-153.232 1845.3,-143.083 1836.6,-149.119 1842.26,-153.232"/>
</g>
<!-- Node9&#45;&gt;Node10 -->
<g id="edge9" class="edge"><title>Node9&#45;&gt;Node10</title>
<path fill="none" stroke="midnightblue" d="M1231.39,-244.875C1300.92,-214.773 1523.24,-118.524 1604.88,-83.1795"/>
<polygon fill="midnightblue" stroke="midnightblue" points="1606.33,-86.3647 1614.11,-79.1797 1603.55,-79.9409 1606.33,-86.3647"/>
</g>
<!-- Node9&#45;&gt;Node12 -->
<g id="edge11" class="edge"><title>Node9&#45;&gt;Node12</title>
<path fill="none" stroke="midnightblue" d="M1168.74,-246.643C1134.66,-239.616 1085.8,-227.215 1046.32,-208 1014.31,-192.423 981.92,-166.493 962.737,-149.83"/>
<polygon fill="midnightblue" stroke="midnightblue" points="964.942,-147.107 955.133,-143.105 960.305,-152.351 964.942,-147.107"/>
</g>
<!-- Node9&#45;&gt;Node19 -->
<g id="edge21" class="edge"><title>Node9&#45;&gt;Node19</title>
<path fill="none" stroke="midnightblue" d="M1221.85,-244.907C1239.24,-231.364 1273.46,-205.407 1304.32,-186 1326.79,-171.866 1353.42,-157.631 1372.92,-147.637"/>
<polygon fill="midnightblue" stroke="midnightblue" points="1374.54,-150.739 1381.87,-143.09 1371.37,-144.498 1374.54,-150.739"/>
</g>
<!-- Node23 -->
<g id="node23" class="node"><title>Node23</title>
<g id="a_node23"><a xlink:href="BufferConstHandle_8h.html" target="_top" xlink:title="Manage a memory buffer for reading/writing RMF files. ">
<polygon fill="none" stroke="black" points="653.99,-187 653.99,-207 762.646,-207 762.646,-187 653.99,-187"/>
<text text-anchor="middle" x="708.318" y="-193" font-family="Helvetica,sans-Serif" font-size="10.00">BufferConstHandle.h</text>
</a>
</g>
</g>
<!-- Node9&#45;&gt;Node23 -->
<g id="edge28" class="edge"><title>Node9&#45;&gt;Node23</title>
<path fill="none" stroke="midnightblue" d="M1168.81,-249.37C1081.4,-239.619 877.811,-216.908 773.086,-205.225"/>
<polygon fill="midnightblue" stroke="midnightblue" points="773.288,-201.726 762.961,-204.096 772.512,-208.683 773.288,-201.726"/>
</g>
<!-- Node11 -->
<g id="node11" class="node"><title>Node11</title>
<g id="a_node11"><a xlink:href="compiler__macros_8h.html" target="_top" xlink:title="Various compiler workarounds. ">
<polygon fill="none" stroke="black" points="1203.86,-1 1203.86,-21 1328.77,-21 1328.77,-1 1203.86,-1"/>
<text text-anchor="middle" x="1266.32" y="-7" font-family="Helvetica,sans-Serif" font-size="10.00">RMF/compiler_macros.h</text>
</a>
</g>
</g>
<!-- Node10&#45;&gt;Node11 -->
<g id="edge10" class="edge"><title>Node10&#45;&gt;Node11</title>
<path fill="none" stroke="midnightblue" d="M1597.56,-62.2702C1536.12,-52.9462 1413.59,-34.3502 1336.01,-22.5761"/>
<polygon fill="midnightblue" stroke="midnightblue" points="1336.25,-19.073 1325.84,-21.0329 1335.2,-25.9938 1336.25,-19.073"/>
</g>
<!-- Node12&#45;&gt;Node7 -->
<g id="edge14" class="edge"><title>Node12&#45;&gt;Node7</title>
<path fill="none" stroke="midnightblue" d="M910.631,-122.922C899.431,-120.301 886.913,-117.694 875.318,-116 636.236,-81.0793 567.342,-127.067 326.827,-79.8118"/>
<polygon fill="midnightblue" stroke="midnightblue" points="327.217,-76.3207 316.725,-77.7925 325.845,-83.1849 327.217,-76.3207"/>
</g>
<!-- Node12&#45;&gt;Node8 -->
<g id="edge20" class="edge"><title>Node12&#45;&gt;Node8</title>
<path fill="none" stroke="midnightblue" d="M963.785,-122.985C985.041,-112.607 1020.17,-95.4585 1044.68,-83.4904"/>
<polygon fill="midnightblue" stroke="midnightblue" points="1046.38,-86.5585 1053.83,-79.0262 1043.31,-80.2681 1046.38,-86.5585"/>
</g>
<!-- Node12&#45;&gt;Node11 -->
<g id="edge15" class="edge"><title>Node12&#45;&gt;Node11</title>
<path fill="none" stroke="midnightblue" d="M954.171,-122.848C970.062,-106.997 1005.15,-74.5504 1041.32,-58 1089.52,-35.9427 1148.33,-24.3891 1193.74,-18.3784"/>
<polygon fill="midnightblue" stroke="midnightblue" points="1194.32,-21.833 1203.81,-17.1076 1193.45,-14.8882 1194.32,-21.833"/>
</g>
<!-- Node13 -->
<g id="node13" class="node"><title>Node13</title>
<polygon fill="none" stroke="#bfbfbf" points="449.537,-59 449.537,-79 501.099,-79 501.099,-59 449.537,-59"/>
<text text-anchor="middle" x="475.318" y="-65" font-family="Helvetica,sans-Serif" font-size="10.00">sstream</text>
</g>
<!-- Node12&#45;&gt;Node13 -->
<g id="edge12" class="edge"><title>Node12&#45;&gt;Node13</title>
<path fill="none" stroke="midnightblue" d="M909.139,-122.931C898.311,-120.434 886.377,-117.894 875.318,-116 805.611,-104.063 596.197,-82.2576 511.479,-73.6418"/>
<polygon fill="midnightblue" stroke="midnightblue" points="511.616,-70.1378 501.314,-72.6105 510.909,-77.1021 511.616,-70.1378"/>
</g>
<!-- Node14 -->
<g id="node14" class="node"><title>Node14</title>
<polygon fill="none" stroke="#bfbfbf" points="334.146,-59 334.146,-79 388.49,-79 388.49,-59 334.146,-59"/>
<text text-anchor="middle" x="361.318" y="-65" font-family="Helvetica,sans-Serif" font-size="10.00">iostream</text>
</g>
<!-- Node12&#45;&gt;Node14 -->
<g id="edge13" class="edge"><title>Node12&#45;&gt;Node14</title>
<path fill="none" stroke="midnightblue" d="M910.255,-122.958C899.146,-120.371 886.775,-117.774 875.318,-116 683.609,-86.3117 633.259,-100.186 440.318,-80 426.756,-78.5812 411.918,-76.7712 398.799,-75.0821"/>
<polygon fill="midnightblue" stroke="midnightblue" points="399.074,-71.5883 388.705,-73.7632 398.167,-78.5293 399.074,-71.5883"/>
</g>
<!-- Node15 -->
<g id="node15" class="node"><title>Node15</title>
<polygon fill="none" stroke="#bfbfbf" points="584.298,-59 584.298,-79 660.337,-79 660.337,-59 584.298,-59"/>
<text text-anchor="middle" x="622.318" y="-65" font-family="Helvetica,sans-Serif" font-size="10.00">internal/use.h</text>
</g>
<!-- Node12&#45;&gt;Node15 -->
<g id="edge16" class="edge"><title>Node12&#45;&gt;Node15</title>
<path fill="none" stroke="midnightblue" d="M907.249,-122.922C896.912,-120.56 885.705,-118.093 875.318,-116 787.321,-98.2664 762.26,-97.6931 670.511,-80.1741"/>
<polygon fill="midnightblue" stroke="midnightblue" points="670.995,-76.7031 660.514,-78.249 669.671,-83.5769 670.995,-76.7031"/>
</g>
<!-- Node16 -->
<g id="node16" class="node"><title>Node16</title>
<polygon fill="none" stroke="#bfbfbf" points="678.624,-59 678.624,-79 768.012,-79 768.012,-59 678.624,-59"/>
<text text-anchor="middle" x="723.318" y="-65" font-family="Helvetica,sans-Serif" font-size="10.00">boost/config.hpp</text>
</g>
<!-- Node12&#45;&gt;Node16 -->
<g id="edge17" class="edge"><title>Node12&#45;&gt;Node16</title>
<path fill="none" stroke="midnightblue" d="M913.037,-122.985C874.071,-112.102 808.441,-93.7731 765.502,-81.7811"/>
<polygon fill="midnightblue" stroke="midnightblue" points="766.211,-78.3451 755.638,-79.0262 764.328,-85.0872 766.211,-78.3451"/>
</g>
<!-- Node17 -->
<g id="node17" class="node"><title>Node17</title>
<polygon fill="none" stroke="#bfbfbf" points="785.848,-59 785.848,-79 880.788,-79 880.788,-59 785.848,-59"/>
<text text-anchor="middle" x="833.318" y="-65" font-family="Helvetica,sans-Serif" font-size="10.00">boost/version.hpp</text>
</g>
<!-- Node12&#45;&gt;Node17 -->
<g id="edge18" class="edge"><title>Node12&#45;&gt;Node17</title>
<path fill="none" stroke="midnightblue" d="M928.792,-122.852C910.346,-112.641 880.275,-95.9938 858.81,-84.1116"/>
<polygon fill="midnightblue" stroke="midnightblue" points="860.356,-80.9669 849.912,-79.1858 856.966,-87.0912 860.356,-80.9669"/>
</g>
<!-- Node18 -->
<g id="node18" class="node"><title>Node18</title>
<polygon fill="none" stroke="#bfbfbf" points="898.289,-59 898.289,-79 994.347,-79 994.347,-59 898.289,-59"/>
<text text-anchor="middle" x="946.318" y="-65" font-family="Helvetica,sans-Serif" font-size="10.00">boost/foreach.hpp</text>
</g>
<!-- Node12&#45;&gt;Node18 -->
<g id="edge19" class="edge"><title>Node12&#45;&gt;Node18</title>
<path fill="none" stroke="midnightblue" d="M945.466,-122.852C945.607,-114.06 945.826,-100.498 946.006,-89.3131"/>
<polygon fill="midnightblue" stroke="midnightblue" points="949.508,-89.241 946.17,-79.1858 942.509,-89.1281 949.508,-89.241"/>
</g>
<!-- Node19&#45;&gt;Node7 -->
<g id="edge24" class="edge"><title>Node19&#45;&gt;Node7</title>
<path fill="none" stroke="midnightblue" d="M1364.15,-127.754C1331.76,-124.102 1282.93,-118.966 1240.32,-116 1040.49,-102.09 541.235,-117.086 326.71,-79.6822"/>
<polygon fill="midnightblue" stroke="midnightblue" points="327.177,-76.2098 316.712,-77.8611 325.923,-83.0965 327.177,-76.2098"/>
</g>
<!-- Node19&#45;&gt;Node10 -->
<g id="edge25" class="edge"><title>Node19&#45;&gt;Node10</title>
<path fill="none" stroke="midnightblue" d="M1434.49,-122.985C1475.91,-112.056 1545.8,-93.6183 1591.24,-81.6296"/>
<polygon fill="midnightblue" stroke="midnightblue" points="1592.33,-84.9615 1601.11,-79.0262 1590.54,-78.1931 1592.33,-84.9615"/>
</g>
<!-- Node19&#45;&gt;Node11 -->
<g id="edge26" class="edge"><title>Node19&#45;&gt;Node11</title>
<path fill="none" stroke="midnightblue" d="M1364,-124.217C1338.52,-116.932 1305.51,-103.527 1285.32,-80 1273.61,-66.3618 1269.08,-46.0391 1267.35,-31.163"/>
<polygon fill="midnightblue" stroke="midnightblue" points="1270.82,-30.72 1266.5,-21.0497 1263.85,-31.3086 1270.82,-30.72"/>
</g>
<!-- Node20 -->
<g id="node20" class="node"><title>Node20</title>
<polygon fill="none" stroke="#bfbfbf" points="1294.77,-59 1294.77,-79 1445.87,-79 1445.87,-59 1294.77,-59"/>
<text text-anchor="middle" x="1370.32" y="-65" font-family="Helvetica,sans-Serif" font-size="10.00">boost/exception/exception.hpp</text>
</g>
<!-- Node19&#45;&gt;Node20 -->
<g id="edge22" class="edge"><title>Node19&#45;&gt;Node20</title>
<path fill="none" stroke="midnightblue" d="M1395.89,-122.852C1391.5,-113.785 1384.66,-99.6454 1379.16,-88.2717"/>
<polygon fill="midnightblue" stroke="midnightblue" points="1382.27,-86.663 1374.76,-79.1858 1375.97,-89.7119 1382.27,-86.663"/>
</g>
<!-- Node21 -->
<g id="node21" class="node"><title>Node21</title>
<polygon fill="none" stroke="#bfbfbf" points="1463.91,-59 1463.91,-79 1522.72,-79 1522.72,-59 1463.91,-59"/>
<text text-anchor="middle" x="1493.32" y="-65" font-family="Helvetica,sans-Serif" font-size="10.00">exception</text>
</g>
<!-- Node19&#45;&gt;Node21 -->
<g id="edge23" class="edge"><title>Node19&#45;&gt;Node21</title>
<path fill="none" stroke="midnightblue" d="M1414.04,-122.852C1429.01,-112.87 1453.21,-96.7371 1470.94,-84.9179"/>
<polygon fill="midnightblue" stroke="midnightblue" points="1473.16,-87.6451 1479.54,-79.1858 1469.28,-81.8207 1473.16,-87.6451"/>
</g>
<!-- Node19&#45;&gt;Node22 -->
<g id="edge27" class="edge"><title>Node19&#45;&gt;Node22</title>
<path fill="none" stroke="midnightblue" d="M1436.5,-129.626C1578.05,-120.339 2095.6,-86.3838 2279.74,-74.3027"/>
<polygon fill="midnightblue" stroke="midnightblue" points="2280.07,-77.7886 2289.82,-73.6413 2279.61,-70.8036 2280.07,-77.7886"/>
</g>
<!-- Node23&#45;&gt;Node4 -->
<g id="edge35" class="edge"><title>Node23&#45;&gt;Node4</title>
<path fill="none" stroke="midnightblue" d="M653.871,-187.349C650.641,-186.88 647.438,-186.427 644.318,-186 510.805,-167.722 354.057,-150.213 267.705,-140.909"/>
<polygon fill="midnightblue" stroke="midnightblue" points="267.846,-137.404 257.529,-139.816 267.098,-144.364 267.846,-137.404"/>
</g>
<!-- Node23&#45;&gt;Node6 -->
<g id="edge37" class="edge"><title>Node23&#45;&gt;Node6</title>
<path fill="none" stroke="midnightblue" d="M762.678,-193.051C964.575,-182.1 1667.61,-143.965 1821.43,-135.621"/>
<polygon fill="midnightblue" stroke="midnightblue" points="1821.75,-139.109 1831.54,-135.073 1821.37,-132.12 1821.75,-139.109"/>
</g>
<!-- Node23&#45;&gt;Node7 -->
<g id="edge33" class="edge"><title>Node23&#45;&gt;Node7</title>
<path fill="none" stroke="midnightblue" d="M655.239,-186.929C612.192,-178.977 550.203,-166.169 497.318,-150 434.674,-130.847 364.09,-100.658 325.463,-83.361"/>
<polygon fill="midnightblue" stroke="midnightblue" points="326.456,-79.9697 315.901,-79.0499 323.579,-86.351 326.456,-79.9697"/>
</g>
<!-- Node23&#45;&gt;Node10 -->
<g id="edge29" class="edge"><title>Node23&#45;&gt;Node10</title>
<path fill="none" stroke="midnightblue" d="M762.905,-190.104C824.439,-182.924 927.257,-169.317 1014.32,-150 1066.35,-138.455 1076.96,-125.981 1129.32,-116 1305.53,-82.4061 1352.7,-96.5846 1531.32,-80 1549.59,-78.3037 1569.65,-76.3868 1587.25,-74.6883"/>
<polygon fill="midnightblue" stroke="midnightblue" points="1587.67,-78.1637 1597.29,-73.7168 1587,-71.1962 1587.67,-78.1637"/>
</g>
<!-- Node23&#45;&gt;Node12 -->
<g id="edge30" class="edge"><title>Node23&#45;&gt;Node12</title>
<path fill="none" stroke="midnightblue" d="M742.78,-186.985C784.554,-176.056 855.035,-157.618 900.863,-145.63"/>
<polygon fill="midnightblue" stroke="midnightblue" points="902.026,-148.943 910.815,-143.026 900.254,-142.171 902.026,-148.943"/>
</g>
<!-- Node23&#45;&gt;Node13 -->
<g id="edge32" class="edge"><title>Node23&#45;&gt;Node13</title>
<path fill="none" stroke="midnightblue" d="M658.869,-186.997C614.3,-178.187 552.728,-164.074 532.318,-150 509.574,-134.317 492.79,-106.446 483.53,-88.0937"/>
<polygon fill="midnightblue" stroke="midnightblue" points="486.654,-86.514 479.17,-79.0148 480.344,-89.5444 486.654,-86.514"/>
</g>
<!-- Node23&#45;&gt;Node19 -->
<g id="edge34" class="edge"><title>Node23&#45;&gt;Node19</title>
<path fill="none" stroke="midnightblue" d="M762.715,-191.539C859.029,-183.586 1065.86,-166.264 1240.32,-150 1278.53,-146.438 1321.83,-142.088 1353.75,-138.823"/>
<polygon fill="midnightblue" stroke="midnightblue" points="1354.52,-142.263 1364.11,-137.761 1353.81,-135.299 1354.52,-142.263"/>
</g>
<!-- Node24 -->
<g id="node24" class="node"><title>Node24</title>
<polygon fill="none" stroke="#bfbfbf" points="607.171,-123 607.171,-143 725.465,-143 725.465,-123 607.171,-123"/>
<text text-anchor="middle" x="666.318" y="-129" font-family="Helvetica,sans-Serif" font-size="10.00">boost/exception/all.hpp</text>
</g>
<!-- Node23&#45;&gt;Node24 -->
<g id="edge31" class="edge"><title>Node23&#45;&gt;Node24</title>
<path fill="none" stroke="midnightblue" d="M702.121,-186.852C695.855,-177.602 686.012,-163.072 678.231,-151.586"/>
<polygon fill="midnightblue" stroke="midnightblue" points="681.047,-149.502 672.541,-143.186 675.251,-153.428 681.047,-149.502"/>
</g>
<!-- Node25 -->
<g id="node25" class="node"><title>Node25</title>
<polygon fill="none" stroke="#bfbfbf" points="743.671,-123 743.671,-143 866.965,-143 866.965,-123 743.671,-123"/>
<text text-anchor="middle" x="805.318" y="-129" font-family="Helvetica,sans-Serif" font-size="10.00">boost/make_shared.hpp</text>
</g>
<!-- Node23&#45;&gt;Node25 -->
<g id="edge36" class="edge"><title>Node23&#45;&gt;Node25</title>
<path fill="none" stroke="midnightblue" d="M722.631,-186.852C738.391,-176.778 763.951,-160.441 782.486,-148.594"/>
<polygon fill="midnightblue" stroke="midnightblue" points="784.406,-151.521 790.947,-143.186 780.636,-145.622 784.406,-151.521"/>
</g>
<!-- Node26 -->
<g id="node26" class="node"><title>Node26</title>
<polygon fill="none" stroke="#bfbfbf" points="541.197,-123 541.197,-143 589.439,-143 589.439,-123 541.197,-123"/>
<text text-anchor="middle" x="565.318" y="-129" font-family="Helvetica,sans-Serif" font-size="10.00">stdint.h</text>
</g>
<!-- Node23&#45;&gt;Node26 -->
<g id="edge38" class="edge"><title>Node23&#45;&gt;Node26</title>
<path fill="none" stroke="midnightblue" d="M685.407,-186.85C663.045,-177.819 628.131,-163.448 598.318,-150 596.533,-149.195 594.701,-148.352 592.859,-147.493"/>
<polygon fill="midnightblue" stroke="midnightblue" points="594.268,-144.287 583.734,-143.151 591.26,-150.608 594.268,-144.287"/>
</g>
<!-- Node27&#45;&gt;Node2 -->
<g id="edge42" class="edge"><title>Node27&#45;&gt;Node2</title>
<path fill="none" stroke="midnightblue" d="M1285.91,-484.335C1208.93,-473.287 1066.56,-452.854 980.042,-440.437"/>
<polygon fill="midnightblue" stroke="midnightblue" points="980.432,-436.957 970.036,-439.001 979.437,-443.886 980.432,-436.957"/>
</g>
<!-- Node27&#45;&gt;Node4 -->
<g id="edge43" class="edge"><title>Node27&#45;&gt;Node4</title>
<path fill="none" stroke="midnightblue" d="M1286.2,-483.698C1237.58,-475.315 1164.04,-460.65 1102.32,-440 1080.06,-432.554 1075.89,-427.249 1054.32,-418 1014.72,-401.02 1000.81,-404.902 964.318,-382 887.312,-333.67 896.228,-281.305 813.318,-244 674.341,-181.467 622.077,-236.234 472.318,-208 387.689,-192.045 290.865,-162.726 239.269,-146.186"/>
<polygon fill="midnightblue" stroke="midnightblue" points="240.162,-142.796 229.57,-143.056 238.012,-149.458 240.162,-142.796"/>
</g>
<!-- Node27&#45;&gt;Node7 -->
<g id="edge45" class="edge"><title>Node27&#45;&gt;Node7</title>
<path fill="none" stroke="midnightblue" d="M1286.04,-490.339C1220.48,-486.754 1106.74,-475.467 1016.32,-440 999.908,-433.563 999.434,-425.14 983.318,-418 633.056,-262.819 452.342,-439.787 147.318,-208 112.731,-181.718 87.6289,-150.274 114.318,-116 132.755,-92.323 218.847,-78.9066 265.717,-73.241"/>
<polygon fill="midnightblue" stroke="midnightblue" points="266.376,-76.688 275.905,-72.0569 265.568,-69.7348 266.376,-76.688"/>
</g>
<!-- Node27&#45;&gt;Node8 -->
<g id="edge46" class="edge"><title>Node27&#45;&gt;Node8</title>
<path fill="none" stroke="midnightblue" d="M1320.37,-482.968C1277.59,-461.595 1173.01,-403.666 1118.32,-324 1067.22,-249.567 1068.06,-134.981 1070.73,-89.5369"/>
<polygon fill="midnightblue" stroke="midnightblue" points="1074.24,-89.5311 1071.44,-79.3133 1067.26,-89.0477 1074.24,-89.5311"/>
</g>
<!-- Node27&#45;&gt;Node10 -->
<g id="edge57" class="edge"><title>Node27&#45;&gt;Node10</title>
<path fill="none" stroke="midnightblue" d="M1392.44,-484.19C1453.48,-474.928 1556.52,-458.408 1644.32,-440 1696.43,-429.073 2062.65,-349.638 2109.32,-324 2165.11,-293.353 2181.37,-270.523 2193.32,-208 2201.12,-167.158 2207.89,-143.063 2176.32,-116 2139.29,-84.2619 1808.64,-73.7772 1683.24,-70.924"/>
<polygon fill="midnightblue" stroke="midnightblue" points="1683.24,-67.4232 1673.17,-70.7012 1683.09,-74.4215 1683.24,-67.4232"/>
</g>
<!-- Node27&#45;&gt;Node12 -->
<g id="edge59" class="edge"><title>Node27&#45;&gt;Node12</title>
<path fill="none" stroke="midnightblue" d="M1298.77,-482.977C1265.27,-474.579 1217.09,-460.293 1178.32,-440 1111.74,-405.158 960.67,-277.589 932.318,-208 925.04,-190.137 930.508,-168.219 936.425,-152.892"/>
<polygon fill="midnightblue" stroke="midnightblue" points="939.742,-154.036 940.442,-143.464 933.302,-151.292 939.742,-154.036"/>
</g>
<!-- Node27&#45;&gt;Node14 -->
<g id="edge44" class="edge"><title>Node27&#45;&gt;Node14</title>
<path fill="none" stroke="midnightblue" d="M1286.02,-482.961C1245.22,-474.876 1188.18,-461.018 1141.32,-440 997.692,-375.579 994.411,-297.356 846.318,-244 702.942,-192.344 650.4,-254.651 505.318,-208 455.672,-192.036 439.569,-187.49 403.318,-150 386.251,-132.35 374.354,-106.378 367.684,-88.858"/>
<polygon fill="midnightblue" stroke="midnightblue" points="370.885,-87.4167 364.208,-79.1913 364.299,-89.7857 370.885,-87.4167"/>
</g>
<!-- Node27&#45;&gt;Node19 -->
<g id="edge58" class="edge"><title>Node27&#45;&gt;Node19</title>
<path fill="none" stroke="midnightblue" d="M1315.98,-482.969C1298.25,-474.717 1275.12,-460.635 1264.32,-440 1259.78,-431.337 1262.93,-427.679 1264.32,-418 1275.79,-338.106 1279.29,-315.72 1316.32,-244 1335.01,-207.782 1365.81,-171.265 1384.47,-150.747"/>
<polygon fill="midnightblue" stroke="midnightblue" points="1387.21,-152.939 1391.43,-143.22 1382.07,-148.189 1387.21,-152.939"/>
</g>
<!-- Node27&#45;&gt;Node22 -->
<g id="edge61" class="edge"><title>Node27&#45;&gt;Node22</title>
<path fill="none" stroke="midnightblue" d="M1392.49,-487.24C1464.8,-480.153 1597.9,-464.92 1709.32,-440 1741.56,-432.789 1748.3,-426.122 1780.32,-418 2041.41,-351.776 2364.32,-525.357 2364.32,-256 2364.32,-256 2364.32,-256 2364.32,-196 2364.32,-157.632 2355.6,-113.419 2349.97,-88.891"/>
<polygon fill="midnightblue" stroke="midnightblue" points="2353.36,-88.02 2347.65,-79.0986 2346.55,-89.6365 2353.36,-88.02"/>
</g>
<!-- Node28 -->
<g id="node28" class="node"><title>Node28</title>
<polygon fill="none" stroke="#bfbfbf" points="1399.27,-419 1399.27,-439 1477.36,-439 1477.36,-419 1399.27,-419"/>
<text text-anchor="middle" x="1438.32" y="-425" font-family="Helvetica,sans-Serif" font-size="10.00">boost/any.hpp</text>
</g>
<!-- Node27&#45;&gt;Node28 -->
<g id="edge41" class="edge"><title>Node27&#45;&gt;Node28</title>
<path fill="none" stroke="midnightblue" d="M1353.93,-482.852C1370.01,-472.778 1396.1,-456.441 1415.02,-444.594"/>
<polygon fill="midnightblue" stroke="midnightblue" points="1417.03,-447.46 1423.65,-439.186 1413.32,-441.527 1417.03,-447.46"/>
</g>
<!-- Node27&#45;&gt;Node29 -->
<g id="edge47" class="edge"><title>Node27&#45;&gt;Node29</title>
<path fill="none" stroke="midnightblue" d="M1344.22,-482.749C1362.85,-447.577 1429.48,-321.772 1454.62,-274.304"/>
<polygon fill="midnightblue" stroke="midnightblue" points="1457.86,-275.663 1459.45,-265.188 1451.68,-272.386 1457.86,-275.663"/>
</g>
<!-- Node30 -->
<g id="node30" class="node"><title>Node30</title>
<g id="a_node30"><a xlink:href="Nullable_8h.html" target="_top" xlink:title="Handle read/write of Model data from/to files. ">
<polygon fill="none" stroke="black" points="1681.86,-187 1681.86,-207 1766.77,-207 1766.77,-187 1681.86,-187"/>
<text text-anchor="middle" x="1724.32" y="-193" font-family="Helvetica,sans-Serif" font-size="10.00">RMF/Nullable.h</text>
</a>
</g>
</g>
<!-- Node27&#45;&gt;Node30 -->
<g id="edge52" class="edge"><title>Node27&#45;&gt;Node30</title>
<path fill="none" stroke="midnightblue" d="M1392.42,-485.799C1423.9,-479.398 1462.23,-466.398 1486.32,-440 1528.96,-393.256 1481.88,-351.484 1521.32,-302 1560.86,-252.376 1630.44,-224.128 1676.96,-209.938"/>
<polygon fill="midnightblue" stroke="midnightblue" points="1678.2,-213.221 1686.8,-207.039 1676.22,-206.506 1678.2,-213.221"/>
</g>
<!-- Node27&#45;&gt;Node31 -->
<g id="edge60" class="edge"><title>Node27&#45;&gt;Node31</title>
<path fill="none" stroke="midnightblue" d="M1392.68,-485.657C1474.86,-475.882 1637.37,-456.536 1775.32,-440 1776.43,-439.866 1777.56,-439.731 1778.69,-439.595"/>
<polygon fill="midnightblue" stroke="midnightblue" points="1779.52,-443.022 1789.03,-438.355 1778.68,-436.072 1779.52,-443.022"/>
</g>
<!-- Node27&#45;&gt;Node32 -->
<g id="edge62" class="edge"><title>Node27&#45;&gt;Node32</title>
<path fill="none" stroke="midnightblue" d="M1392.39,-485.099C1430.18,-478.26 1480.88,-465.027 1519.32,-440 1538.99,-427.191 1555.44,-405.539 1565.53,-390.109"/>
<polygon fill="midnightblue" stroke="midnightblue" points="1568.62,-391.772 1570.96,-381.441 1562.69,-388.054 1568.62,-391.772"/>
</g>
<!-- Node27&#45;&gt;Node33 -->
<g id="edge65" class="edge"><title>Node27&#45;&gt;Node33</title>
<path fill="none" stroke="midnightblue" d="M1286.17,-485.846C1230.08,-478.455 1139.55,-463.96 1064.32,-440 1041.96,-432.879 1037.89,-427.249 1016.32,-418 976.724,-401.02 963.656,-403.491 926.318,-382 911.161,-373.276 823.911,-303.299 784.561,-271.558"/>
<polygon fill="midnightblue" stroke="midnightblue" points="786.486,-268.614 776.506,-265.055 782.089,-274.06 786.486,-268.614"/>
</g>
<!-- Node36 -->
<g id="node36" class="node"><title>Node36</title>
<g id="a_node36"><a xlink:href="keys_8h.html" target="_top" xlink:title="Handle read/write of Model data from/to files. ">
<polygon fill="none" stroke="black" points="1273.65,-419 1273.65,-439 1342.99,-439 1342.99,-419 1273.65,-419"/>
<text text-anchor="middle" x="1308.32" y="-425" font-family="Helvetica,sans-Serif" font-size="10.00">RMF/keys.h</text>
</a>
</g>
</g>
<!-- Node27&#45;&gt;Node36 -->
<g id="edge74" class="edge"><title>Node27&#45;&gt;Node36</title>
<path fill="none" stroke="midnightblue" d="M1334.74,-482.852C1330.21,-473.785 1323.14,-459.645 1317.45,-448.272"/>
<polygon fill="midnightblue" stroke="midnightblue" points="1320.51,-446.565 1312.91,-439.186 1314.25,-449.695 1320.51,-446.565"/>
</g>
<!-- Node37 -->
<g id="node37" class="node"><title>Node37</title>
<g id="a_node37"><a xlink:href="traits_8h.html" target="_top" xlink:title="Handle read/write of Model data from/to files. ">
<polygon fill="none" stroke="black" points="1678.31,-361 1678.31,-381 1724.32,-381 1724.32,-361 1678.31,-361"/>
<text text-anchor="middle" x="1701.32" y="-367" font-family="Helvetica,sans-Serif" font-size="10.00">traits.h</text>
</a>
</g>
</g>
<!-- Node27&#45;&gt;Node37 -->
<g id="edge112" class="edge"><title>Node27&#45;&gt;Node37</title>
<path fill="none" stroke="midnightblue" d="M1383.73,-482.997C1425.87,-473.939 1490.69,-458.66 1545.32,-440 1591.49,-424.23 1643,-400.511 1673.76,-385.66"/>
<polygon fill="midnightblue" stroke="midnightblue" points="1675.52,-388.695 1682.98,-381.171 1672.46,-382.401 1675.52,-388.695"/>
</g>
<!-- Node27&#45;&gt;Node38 -->
<g id="edge113" class="edge"><title>Node27&#45;&gt;Node38</title>
<path fill="none" stroke="midnightblue" d="M1386.29,-482.96C1436.48,-473.123 1518.27,-456.573 1588.32,-440 1749.83,-401.787 1940.14,-349.063 2022.67,-325.818"/>
<polygon fill="midnightblue" stroke="midnightblue" points="2023.75,-329.15 2032.43,-323.067 2021.85,-322.413 2023.75,-329.15"/>
</g>
<!-- Node29&#45;&gt;Node6 -->
<g id="edge51" class="edge"><title>Node29&#45;&gt;Node6</title>
<path fill="none" stroke="midnightblue" d="M1493.94,-252.574C1579.44,-248.166 1822.12,-233.499 1846.32,-208 1859.99,-193.595 1859,-169.691 1856.06,-152.96"/>
<polygon fill="midnightblue" stroke="midnightblue" points="1859.48,-152.225 1853.97,-143.173 1852.63,-153.683 1859.48,-152.225"/>
</g>
<!-- Node29&#45;&gt;Node10 -->
<g id="edge48" class="edge"><title>Node29&#45;&gt;Node10</title>
<path fill="none" stroke="midnightblue" d="M1493.8,-246.787C1540.33,-235.267 1626.01,-213.457 1630.32,-208 1657.46,-173.63 1648.41,-118.049 1641,-89.0245"/>
<polygon fill="midnightblue" stroke="midnightblue" points="1644.35,-88.0109 1638.32,-79.3006 1637.61,-89.8712 1644.35,-88.0109"/>
</g>
<!-- Node29&#45;&gt;Node12 -->
<g id="edge49" class="edge"><title>Node29&#45;&gt;Node12</title>
<path fill="none" stroke="midnightblue" d="M1434.74,-250.004C1420.68,-248.132 1403.64,-245.9 1388.32,-244 1251.11,-226.981 1210.02,-253.099 1079.32,-208 1061.59,-201.884 1059.61,-195.288 1043.32,-186 1019.59,-172.473 992.084,-157.977 972.261,-147.736"/>
<polygon fill="midnightblue" stroke="midnightblue" points="973.692,-144.536 963.198,-143.074 970.489,-150.761 973.692,-144.536"/>
</g>
<!-- Node29&#45;&gt;Node19 -->
<g id="edge50" class="edge"><title>Node29&#45;&gt;Node19</title>
<path fill="none" stroke="midnightblue" d="M1459.51,-244.98C1448.99,-225.261 1423.78,-177.998 1409.9,-151.962"/>
<polygon fill="midnightblue" stroke="midnightblue" points="1412.98,-150.301 1405.18,-143.124 1406.8,-153.595 1412.98,-150.301"/>
</g>
<!-- Node30&#45;&gt;Node6 -->
<g id="edge56" class="edge"><title>Node30&#45;&gt;Node6</title>
<path fill="none" stroke="midnightblue" d="M1742.78,-186.985C1764.04,-176.607 1799.17,-159.458 1823.68,-147.49"/>
<polygon fill="midnightblue" stroke="midnightblue" points="1825.38,-150.559 1832.83,-143.026 1822.31,-144.268 1825.38,-150.559"/>
</g>
<!-- Node30&#45;&gt;Node10 -->
<g id="edge53" class="edge"><title>Node30&#45;&gt;Node10</title>
<path fill="none" stroke="midnightblue" d="M1717.8,-186.615C1707.39,-171.645 1686.35,-141.452 1668.32,-116 1661.57,-106.477 1653.98,-95.8912 1647.78,-87.2772"/>
<polygon fill="midnightblue" stroke="midnightblue" points="1650.61,-85.2098 1641.92,-79.1418 1644.93,-89.3014 1650.61,-85.2098"/>
</g>
<!-- Node30&#45;&gt;Node12 -->
<g id="edge54" class="edge"><title>Node30&#45;&gt;Node12</title>
<path fill="none" stroke="midnightblue" d="M1681.74,-192.849C1584.06,-185.59 1336.35,-167.004 1129.32,-150 1092.1,-146.943 1050.67,-143.357 1016.56,-140.355"/>
<polygon fill="midnightblue" stroke="midnightblue" points="1016.49,-136.835 1006.22,-139.443 1015.87,-143.808 1016.49,-136.835"/>
</g>
<!-- Node30&#45;&gt;Node19 -->
<g id="edge55" class="edge"><title>Node30&#45;&gt;Node19</title>
<path fill="none" stroke="midnightblue" d="M1681.63,-187.831C1620.75,-176.181 1509.43,-154.88 1446.63,-142.861"/>
<polygon fill="midnightblue" stroke="midnightblue" points="1447.08,-139.386 1436.6,-140.944 1445.77,-146.261 1447.08,-139.386"/>
</g>
<!-- Node32&#45;&gt;Node10 -->
<g id="edge63" class="edge"><title>Node32&#45;&gt;Node10</title>
<path fill="none" stroke="midnightblue" d="M1622.53,-364.563C1747.75,-349.36 2086.32,-304.972 2117.32,-266 2145.37,-230.731 2229.91,-241.421 2095.32,-116 2065.6,-88.3099 1795.25,-75.6486 1683.41,-71.5623"/>
<polygon fill="midnightblue" stroke="midnightblue" points="1683.53,-68.0644 1673.41,-71.2044 1683.28,-75.0599 1683.53,-68.0644"/>
</g>
<!-- Node32&#45;&gt;Node29 -->
<g id="edge64" class="edge"><title>Node32&#45;&gt;Node29</title>
<path fill="none" stroke="midnightblue" d="M1530.24,-366.094C1502.14,-361.06 1468.27,-349.666 1450.32,-324 1440.1,-309.395 1446.36,-288.973 1453.47,-274.328"/>
<polygon fill="midnightblue" stroke="midnightblue" points="1456.69,-275.722 1458.33,-265.255 1450.52,-272.414 1456.69,-275.722"/>
</g>
<!-- Node33&#45;&gt;Node7 -->
<g id="edge72" class="edge"><title>Node33&#45;&gt;Node7</title>
<path fill="none" stroke="midnightblue" d="M725.731,-252.351C603.625,-247.054 238.127,-229.556 189.318,-208 144.214,-188.08 97.3789,-155.177 127.318,-116 144.034,-94.1262 221.651,-80.1824 265.655,-73.8937"/>
<polygon fill="midnightblue" stroke="midnightblue" points="266.373,-77.3279 275.801,-72.4942 265.417,-70.3936 266.373,-77.3279"/>
</g>
<!-- Node33&#45;&gt;Node10 -->
<g id="edge66" class="edge"><title>Node33&#45;&gt;Node10</title>
<path fill="none" stroke="midnightblue" d="M804.749,-253.784C875.105,-252.412 1026.25,-244.969 1147.32,-208 1167.85,-201.73 1170.56,-194.391 1190.32,-186 1235.73,-166.716 1250.33,-170.248 1295.32,-150 1323.27,-137.42 1326.41,-126.198 1355.32,-116 1397.19,-101.228 1518.9,-84.4534 1587.27,-75.8194"/>
<polygon fill="midnightblue" stroke="midnightblue" points="1587.88,-79.2715 1597.36,-74.5555 1587.01,-72.3258 1587.88,-79.2715"/>
</g>
<!-- Node33&#45;&gt;Node14 -->
<g id="edge73" class="edge"><title>Node33&#45;&gt;Node14</title>
<path fill="none" stroke="midnightblue" d="M725.844,-253.877C600.174,-252.559 213.26,-241.052 138.318,-150 128.715,-138.333 128.696,-127.651 138.318,-116 190.213,-53.1621 239.153,-95.8917 323.899,-79.9834"/>
<polygon fill="midnightblue" stroke="midnightblue" points="324.802,-83.3699 333.859,-77.8734 323.351,-76.5219 324.802,-83.3699"/>
</g>
<!-- Node34 -->
<g id="node34" class="node"><title>Node34</title>
<g id="a_node34"><a xlink:href="Enum_8h.html" target="_top" xlink:title="Handle read/write of Model data from/to files. ">
<polygon fill="none" stroke="black" points="1088.09,-187 1088.09,-207 1138.55,-207 1138.55,-187 1088.09,-187"/>
<text text-anchor="middle" x="1113.32" y="-193" font-family="Helvetica,sans-Serif" font-size="10.00">Enum.h</text>
</a>
</g>
</g>
<!-- Node33&#45;&gt;Node34 -->
<g id="edge67" class="edge"><title>Node33&#45;&gt;Node34</title>
<path fill="none" stroke="midnightblue" d="M804.899,-247.631C873.243,-236.633 1012.33,-214.251 1077.77,-203.72"/>
<polygon fill="midnightblue" stroke="midnightblue" points="1078.67,-207.12 1087.99,-202.076 1077.56,-200.209 1078.67,-207.12"/>
</g>
<!-- Node34&#45;&gt;Node10 -->
<g id="edge68" class="edge"><title>Node34&#45;&gt;Node10</title>
<path fill="none" stroke="midnightblue" d="M1138.75,-187.173C1164.48,-178.152 1205.34,-163.578 1240.32,-150 1277.1,-135.723 1284.29,-126.504 1322.32,-116 1371.17,-102.505 1512.28,-84.5584 1587.22,-75.5936"/>
<polygon fill="midnightblue" stroke="midnightblue" points="1587.82,-79.0467 1597.34,-74.3897 1587,-72.0958 1587.82,-79.0467"/>
</g>
<!-- Node34&#45;&gt;Node12 -->
<g id="edge69" class="edge"><title>Node34&#45;&gt;Node12</title>
<path fill="none" stroke="midnightblue" d="M1088.89,-186.985C1060.02,-176.332 1011.82,-158.543 979.32,-146.548"/>
<polygon fill="midnightblue" stroke="midnightblue" points="980.369,-143.205 969.776,-143.026 977.946,-149.772 980.369,-143.205"/>
</g>
<!-- Node34&#45;&gt;Node19 -->
<g id="edge70" class="edge"><title>Node34&#45;&gt;Node19</title>
<path fill="none" stroke="midnightblue" d="M1138.79,-190.498C1187.13,-180.055 1292.81,-157.224 1354.01,-144.004"/>
<polygon fill="midnightblue" stroke="midnightblue" points="1354.76,-147.422 1363.8,-141.89 1353.28,-140.58 1354.76,-147.422"/>
</g>
<!-- Node35 -->
<g id="node35" class="node"><title>Node35</title>
<polygon fill="none" stroke="#bfbfbf" points="1138.41,-117 1138.41,-149 1232.22,-149 1232.22,-117 1138.41,-117"/>
<text text-anchor="start" x="1146.41" y="-135" font-family="Helvetica,sans-Serif" font-size="10.00">internal/small_set</text>
<text text-anchor="middle" x="1185.32" y="-123" font-family="Helvetica,sans-Serif" font-size="10.00">_map.h</text>
</g>
<!-- Node34&#45;&gt;Node35 -->
<g id="edge71" class="edge"><title>Node34&#45;&gt;Node35</title>
<path fill="none" stroke="midnightblue" d="M1123.94,-186.852C1133.38,-178.728 1147.54,-166.531 1159.89,-155.9"/>
<polygon fill="midnightblue" stroke="midnightblue" points="1162.37,-158.377 1167.67,-149.199 1157.81,-153.072 1162.37,-158.377"/>
</g>
<!-- Node36&#45;&gt;Node10 -->
<g id="edge75" class="edge"><title>Node36&#45;&gt;Node10</title>
<path fill="none" stroke="midnightblue" d="M1309.72,-418.793C1313.51,-396.553 1325.71,-339.009 1355.32,-302 1380.77,-270.183 1389.72,-261.913 1426.32,-244 1490.62,-212.528 1529.4,-255.092 1583.32,-208 1618.88,-176.937 1630.19,-119.003 1633.74,-89.0402"/>
<polygon fill="midnightblue" stroke="midnightblue" points="1637.22,-89.3423 1634.75,-79.0406 1630.26,-88.6372 1637.22,-89.3423"/>
</g>
<!-- Node36&#45;&gt;Node12 -->
<g id="edge111" class="edge"><title>Node36&#45;&gt;Node12</title>
<path fill="none" stroke="midnightblue" d="M1293.26,-418.848C1247.52,-390.684 1107.27,-301.543 1007.32,-208 988.495,-190.385 969.909,-167.223 958.071,-151.539"/>
<polygon fill="midnightblue" stroke="midnightblue" points="960.7,-149.21 951.929,-143.267 955.08,-153.383 960.7,-149.21"/>
</g>
<!-- Node36&#45;&gt;Node29 -->
<g id="edge76" class="edge"><title>Node36&#45;&gt;Node29</title>
<path fill="none" stroke="midnightblue" d="M1312.32,-418.654C1323.59,-392.648 1355.98,-320.156 1374.32,-302 1389.05,-287.417 1409.35,-276.497 1426.94,-268.966"/>
<polygon fill="midnightblue" stroke="midnightblue" points="1428.43,-272.136 1436.38,-265.129 1425.8,-265.651 1428.43,-272.136"/>
</g>
<!-- Node36&#45;&gt;Node37 -->
<g id="edge77" class="edge"><title>Node36&#45;&gt;Node37</title>
<path fill="none" stroke="midnightblue" d="M1343.19,-423.03C1418.22,-412.34 1594.09,-387.28 1667.84,-376.771"/>
<polygon fill="midnightblue" stroke="midnightblue" points="1668.55,-380.205 1677.95,-375.329 1667.56,-373.275 1668.55,-380.205"/>
</g>
<!-- Node37&#45;&gt;Node6 -->
<g id="edge110" class="edge"><title>Node37&#45;&gt;Node6</title>
<path fill="none" stroke="midnightblue" d="M1724.47,-370.04C1761.99,-368.933 1836.68,-361.729 1884.32,-324 1914.09,-300.423 1923.54,-280.835 1914.32,-244 1905.33,-208.109 1880.98,-171.918 1865.31,-151.3"/>
<polygon fill="midnightblue" stroke="midnightblue" points="1867.92,-148.952 1859.01,-143.221 1862.4,-153.258 1867.92,-148.952"/>
</g>
<!-- Node37&#45;&gt;Node10 -->
<g id="edge78" class="edge"><title>Node37&#45;&gt;Node10</title>
<path fill="none" stroke="midnightblue" d="M1724.64,-367.666C1772.98,-362.391 1881.87,-348.096 1909.32,-324 1936.94,-299.746 1934.27,-280.547 1930.32,-244 1924.06,-186.103 1944.41,-156.246 1902.32,-116 1871.64,-86.6642 1751.51,-75.8286 1683.3,-71.9886"/>
<polygon fill="midnightblue" stroke="midnightblue" points="1683.4,-68.489 1673.23,-71.451 1683.03,-75.479 1683.4,-68.489"/>
</g>
<!-- Node37&#45;&gt;Node38 -->
<g id="edge79" class="edge"><title>Node37&#45;&gt;Node38</title>
<path fill="none" stroke="midnightblue" d="M1724.69,-363.174C1729.19,-362.005 1733.88,-360.885 1738.32,-360 1859.64,-335.808 1892.26,-344.142 2014.32,-324 2015.41,-323.82 2016.51,-323.633 2017.63,-323.442"/>
<polygon fill="midnightblue" stroke="midnightblue" points="2018.56,-326.83 2027.78,-321.605 2017.31,-319.942 2018.56,-326.83"/>
</g>
<!-- Node41 -->
<g id="node41" class="node"><title>Node41</title>
<g id="a_node41"><a xlink:href="HDF5_2types_8h.html" target="_top" xlink:title="Handle read/write of Model data from/to files. ">
<polygon fill="none" stroke="red" points="1756.53,-303 1756.53,-323 1858.1,-323 1858.1,-303 1756.53,-303"/>
<text text-anchor="middle" x="1807.32" y="-309" font-family="Helvetica,sans-Serif" font-size="10.00">RMF/HDF5/types.h</text>
</a>
</g>
</g>
<!-- Node37&#45;&gt;Node41 -->
<g id="edge87" class="edge"><title>Node37&#45;&gt;Node41</title>
<path fill="none" stroke="midnightblue" d="M1718.82,-360.753C1735.8,-351.783 1761.78,-338.06 1781.2,-327.799"/>
<polygon fill="midnightblue" stroke="midnightblue" points="1782.93,-330.841 1790.14,-323.075 1779.66,-324.652 1782.93,-330.841"/>
</g>
<!-- Node44 -->
<g id="node44" class="node"><title>Node44</title>
<polygon fill="none" stroke="#bfbfbf" points="1814.52,-245 1814.52,-265 1906.12,-265 1906.12,-245 1814.52,-245"/>
<text text-anchor="middle" x="1860.32" y="-251" font-family="Helvetica,sans-Serif" font-size="10.00">boost/cstdint.hpp</text>
</g>
<!-- Node37&#45;&gt;Node44 -->
<g id="edge107" class="edge"><title>Node37&#45;&gt;Node44</title>
<path fill="none" stroke="midnightblue" d="M1724.42,-363.749C1769.57,-351.511 1865.22,-325.447 1866.32,-324 1876.81,-310.177 1873.34,-289.915 1868.44,-275.105"/>
<polygon fill="midnightblue" stroke="midnightblue" points="1871.6,-273.577 1864.8,-265.455 1865.05,-276.047 1871.6,-273.577"/>
</g>
<!-- Node45 -->
<g id="node45" class="node"><title>Node45</title>
<polygon fill="none" stroke="#bfbfbf" points="1529.94,-303 1529.94,-323 1614.69,-323 1614.69,-303 1529.94,-303"/>
<text text-anchor="middle" x="1572.32" y="-309" font-family="Helvetica,sans-Serif" font-size="10.00">boost/array.hpp</text>
</g>
<!-- Node37&#45;&gt;Node45 -->
<g id="edge106" class="edge"><title>Node37&#45;&gt;Node45</title>
<path fill="none" stroke="midnightblue" d="M1680.3,-360.878C1659.22,-351.725 1626.53,-337.536 1602.64,-327.164"/>
<polygon fill="midnightblue" stroke="midnightblue" points="1603.89,-323.89 1593.32,-323.118 1601.1,-330.311 1603.89,-323.89"/>
</g>
<!-- Node46 -->
<g id="node46" class="node"><title>Node46</title>
<polygon fill="none" stroke="#bfbfbf" points="1632.7,-303 1632.7,-323 1675.93,-323 1675.93,-303 1632.7,-303"/>
<text text-anchor="middle" x="1654.32" y="-309" font-family="Helvetica,sans-Serif" font-size="10.00">cmath</text>
</g>
<!-- Node37&#45;&gt;Node46 -->
<g id="edge108" class="edge"><title>Node37&#45;&gt;Node46</title>
<path fill="none" stroke="midnightblue" d="M1693.56,-360.753C1686.78,-352.68 1676.77,-340.757 1668.56,-330.973"/>
<polygon fill="midnightblue" stroke="midnightblue" points="1671.04,-328.485 1661.93,-323.075 1665.68,-332.985 1671.04,-328.485"/>
</g>
<!-- Node47 -->
<g id="node47" class="node"><title>Node47</title>
<polygon fill="none" stroke="#bfbfbf" points="1694.15,-303 1694.15,-323 1738.49,-323 1738.49,-303 1694.15,-303"/>
<text text-anchor="middle" x="1716.32" y="-309" font-family="Helvetica,sans-Serif" font-size="10.00">cstdlib</text>
</g>
<!-- Node37&#45;&gt;Node47 -->
<g id="edge109" class="edge"><title>Node37&#45;&gt;Node47</title>
<path fill="none" stroke="midnightblue" d="M1703.79,-360.753C1705.83,-353.169 1708.77,-342.188 1711.29,-332.774"/>
<polygon fill="midnightblue" stroke="midnightblue" points="1714.68,-333.64 1713.89,-323.075 1707.92,-331.829 1714.68,-333.64"/>
</g>
<!-- Node38&#45;&gt;Node10 -->
<g id="edge80" class="edge"><title>Node38&#45;&gt;Node10</title>
<path fill="none" stroke="midnightblue" d="M2098.96,-302.944C2117.68,-296.091 2139.18,-284.591 2150.32,-266 2184.58,-208.813 2195.31,-165.193 2150.32,-116 2119.15,-81.9287 1805.41,-72.9105 1683.45,-70.683"/>
<polygon fill="midnightblue" stroke="midnightblue" points="1683.34,-67.1807 1673.28,-70.5051 1683.22,-74.1797 1683.34,-67.1807"/>
</g>
<!-- Node39 -->
<g id="node39" class="node"><title>Node39</title>
<g id="a_node39"><a xlink:href="default__types_8h.html" target="_top" xlink:title="Default implementation for types.h. ">
<polygon fill="none" stroke="black" points="2000.19,-245 2000.19,-265 2108.45,-265 2108.45,-245 2000.19,-245"/>
<text text-anchor="middle" x="2054.32" y="-251" font-family="Helvetica,sans-Serif" font-size="10.00">RMF/default_types.h</text>
</a>
</g>
</g>
<!-- Node38&#45;&gt;Node39 -->
<g id="edge81" class="edge"><title>Node38&#45;&gt;Node39</title>
<path fill="none" stroke="midnightblue" d="M2062.67,-302.753C2061.33,-295.25 2059.39,-284.424 2057.72,-275.078"/>
<polygon fill="midnightblue" stroke="midnightblue" points="2061.14,-274.304 2055.94,-265.075 2054.25,-275.535 2061.14,-274.304"/>
</g>
<!-- Node39&#45;&gt;Node10 -->
<g id="edge82" class="edge"><title>Node39&#45;&gt;Node10</title>
<path fill="none" stroke="midnightblue" d="M2059.92,-244.86C2074.08,-220.482 2107.86,-153.235 2074.32,-116 2048.51,-87.3505 1791.96,-75.3169 1683.41,-71.4805"/>
<polygon fill="midnightblue" stroke="midnightblue" points="1683.5,-67.9815 1673.39,-71.1346 1683.26,-74.9773 1683.5,-67.9815"/>
</g>
<!-- Node40 -->
<g id="node40" class="node"><title>Node40</title>
<g id="a_node40"><a xlink:href="Vector_8h.html" target="_top" xlink:title="Represent coordinates. ">
<polygon fill="none" stroke="red" points="1498.24,-187 1498.24,-207 1550.39,-207 1550.39,-187 1498.24,-187"/>
<text text-anchor="middle" x="1524.32" y="-193" font-family="Helvetica,sans-Serif" font-size="10.00">Vector.h</text>
</a>
</g>
</g>
<!-- Node39&#45;&gt;Node40 -->
<g id="edge83" class="edge"><title>Node39&#45;&gt;Node40</title>
<path fill="none" stroke="midnightblue" d="M2000.09,-248.27C1891.98,-236.847 1652.17,-211.508 1560.71,-201.846"/>
<polygon fill="midnightblue" stroke="midnightblue" points="1560.88,-198.344 1550.57,-200.773 1560.14,-205.305 1560.88,-198.344"/>
</g>
<!-- Node40&#45;&gt;Node10 -->
<g id="edge84" class="edge"><title>Node40&#45;&gt;Node10</title>
<path fill="none" stroke="midnightblue" d="M1527.08,-186.924C1532.27,-171.054 1544.75,-137.874 1564.32,-116 1576.21,-102.71 1592.79,-91.6796 1606.94,-83.7547"/>
<polygon fill="midnightblue" stroke="midnightblue" points="1608.65,-86.8094 1615.81,-79.0028 1605.34,-80.6386 1608.65,-86.8094"/>
</g>
<!-- Node40&#45;&gt;Node12 -->
<g id="edge85" class="edge"><title>Node40&#45;&gt;Node12</title>
<path fill="none" stroke="midnightblue" d="M1497.93,-193.175C1413.07,-184.087 1145.15,-155.399 1016.13,-141.582"/>
<polygon fill="midnightblue" stroke="midnightblue" points="1016.27,-138.078 1005.96,-140.493 1015.53,-145.038 1016.27,-138.078"/>
</g>
<!-- Node40&#45;&gt;Node19 -->
<g id="edge86" class="edge"><title>Node40&#45;&gt;Node19</title>
<path fill="none" stroke="midnightblue" d="M1506.29,-186.985C1485.62,-176.653 1451.54,-159.61 1427.62,-147.65"/>
<polygon fill="midnightblue" stroke="midnightblue" points="1428.88,-144.368 1418.37,-143.026 1425.75,-150.629 1428.88,-144.368"/>
</g>
<!-- Node41&#45;&gt;Node6 -->
<g id="edge105" class="edge"><title>Node41&#45;&gt;Node6</title>
<path fill="none" stroke="midnightblue" d="M1796.31,-302.785C1781.58,-289.31 1758.77,-263.691 1772.32,-244 1797.67,-207.141 1840.96,-244.859 1866.32,-208 1877.76,-191.364 1870,-167.958 1862.01,-151.951"/>
<polygon fill="midnightblue" stroke="midnightblue" points="1865.03,-150.174 1857.17,-143.067 1858.88,-153.523 1865.03,-150.174"/>
</g>
<!-- Node41&#45;&gt;Node10 -->
<g id="edge88" class="edge"><title>Node41&#45;&gt;Node10</title>
<path fill="none" stroke="midnightblue" d="M1804.01,-302.778C1799.63,-288.837 1793.73,-262.106 1805.32,-244 1825.9,-211.839 1862.74,-240.161 1883.32,-208 1894.52,-190.498 1909.12,-149.923 1879.32,-116 1854.12,-87.3155 1746.97,-76.303 1683.34,-72.2401"/>
<polygon fill="midnightblue" stroke="midnightblue" points="1683.34,-68.7334 1673.14,-71.6243 1682.91,-75.7207 1683.34,-68.7334"/>
</g>
<!-- Node41&#45;&gt;Node22 -->
<g id="edge102" class="edge"><title>Node41&#45;&gt;Node22</title>
<path fill="none" stroke="midnightblue" d="M1858.35,-312.366C1921.64,-311.068 2031.65,-302.997 2117.32,-266 2213.99,-224.247 2299.89,-126.579 2331.96,-87.0544"/>
<polygon fill="midnightblue" stroke="midnightblue" points="2334.78,-89.1296 2338.3,-79.1337 2329.32,-84.7579 2334.78,-89.1296"/>
</g>
<!-- Node41&#45;&gt;Node29 -->
<g id="edge103" class="edge"><title>Node41&#45;&gt;Node29</title>
<path fill="none" stroke="midnightblue" d="M1756.26,-303.476C1753.23,-302.975 1750.24,-302.48 1747.32,-302 1660.57,-287.721 1558.82,-271.25 1504.05,-262.407"/>
<polygon fill="midnightblue" stroke="midnightblue" points="1504.5,-258.934 1494.07,-260.795 1503.38,-265.844 1504.5,-258.934"/>
</g>
<!-- Node42 -->
<g id="node42" class="node"><title>Node42</title>
<g id="a_node42"><a xlink:href="handle_8h.html" target="_top" xlink:title="Handle read/write of Model data from/to files. ">
<polygon fill="none" stroke="red" points="1325.13,-245 1325.13,-265 1379.5,-265 1379.5,-245 1325.13,-245"/>
<text text-anchor="middle" x="1352.32" y="-251" font-family="Helvetica,sans-Serif" font-size="10.00">handle.h</text>
</a>
</g>
</g>
<!-- Node41&#45;&gt;Node42 -->
<g id="edge89" class="edge"><title>Node41&#45;&gt;Node42</title>
<path fill="none" stroke="midnightblue" d="M1756.28,-303.304C1753.25,-302.846 1750.25,-302.408 1747.32,-302 1605.13,-282.192 1568.79,-283.614 1426.32,-266 1414.38,-264.524 1401.37,-262.803 1389.63,-261.21"/>
<polygon fill="midnightblue" stroke="midnightblue" points="1390.09,-257.74 1379.71,-259.852 1389.14,-264.676 1390.09,-257.74"/>
</g>
<!-- Node43 -->
<g id="node43" class="node"><title>Node43</title>
<g id="a_node43"><a xlink:href="HDF5_2infrastructure__macros_8h.html" target="_top" xlink:title="Various general useful macros for IMP. ">
<polygon fill="none" stroke="black" points="514.798,-187 514.798,-207 635.837,-207 635.837,-187 514.798,-187"/>
<text text-anchor="middle" x="575.318" y="-193" font-family="Helvetica,sans-Serif" font-size="10.00">infrastructure_macros.h</text>
</a>
</g>
</g>
<!-- Node41&#45;&gt;Node43 -->
<g id="edge101" class="edge"><title>Node41&#45;&gt;Node43</title>
<path fill="none" stroke="midnightblue" d="M1756.31,-303.128C1753.27,-302.715 1750.26,-302.334 1747.32,-302 1487.61,-272.475 1420.72,-288.633 1160.32,-266 934.097,-246.337 875.448,-237.433 646.003,-208.061"/>
<polygon fill="midnightblue" stroke="midnightblue" points="646.373,-204.58 636.009,-206.783 645.484,-211.524 646.373,-204.58"/>
</g>
<!-- Node41&#45;&gt;Node44 -->
<g id="edge104" class="edge"><title>Node41&#45;&gt;Node44</title>
<path fill="none" stroke="midnightblue" d="M1816.07,-302.753C1823.86,-294.516 1835.45,-282.274 1844.81,-272.382"/>
<polygon fill="midnightblue" stroke="midnightblue" points="1847.4,-274.744 1851.73,-265.075 1842.31,-269.932 1847.4,-274.744"/>
</g>
<!-- Node42&#45;&gt;Node6 -->
<g id="edge100" class="edge"><title>Node42&#45;&gt;Node6</title>
<path fill="none" stroke="midnightblue" d="M1379.7,-250.032C1393.64,-248.08 1410.86,-245.772 1426.32,-244 1511.03,-234.289 1736.5,-253.953 1808.32,-208 1828.01,-195.4 1839.74,-170.334 1845.86,-152.886"/>
<polygon fill="midnightblue" stroke="midnightblue" points="1849.25,-153.777 1848.96,-143.186 1842.58,-151.644 1849.25,-153.777"/>
</g>
<!-- Node42&#45;&gt;Node8 -->
<g id="edge98" class="edge"><title>Node42&#45;&gt;Node8</title>
<path fill="none" stroke="midnightblue" d="M1347.65,-244.964C1334.41,-220.254 1294.07,-151.073 1240.32,-116 1198.32,-88.5937 1140.23,-77.3912 1104.52,-72.8999"/>
<polygon fill="midnightblue" stroke="midnightblue" points="1104.54,-69.3786 1094.2,-71.711 1103.74,-76.3326 1104.54,-69.3786"/>
</g>
<!-- Node42&#45;&gt;Node10 -->
<g id="edge90" class="edge"><title>Node42&#45;&gt;Node10</title>
<path fill="none" stroke="midnightblue" d="M1379.64,-247.232C1384.2,-246.132 1388.89,-245.02 1393.32,-244 1466.88,-227.054 1500.31,-255.091 1559.32,-208 1594.6,-179.846 1579.51,-154.948 1602.32,-116 1608.14,-106.054 1615.55,-95.5682 1621.88,-87.1236"/>
<polygon fill="midnightblue" stroke="midnightblue" points="1624.67,-89.2399 1627.96,-79.1708 1619.11,-84.9867 1624.67,-89.2399"/>
</g>
<!-- Node42&#45;&gt;Node19 -->
<g id="edge97" class="edge"><title>Node42&#45;&gt;Node19</title>
<path fill="none" stroke="midnightblue" d="M1355.93,-244.98C1363.74,-225.435 1382.39,-178.829 1392.86,-152.655"/>
<polygon fill="midnightblue" stroke="midnightblue" points="1396.2,-153.709 1396.67,-143.124 1389.7,-151.109 1396.2,-153.709"/>
</g>
<!-- Node42&#45;&gt;Node21 -->
<g id="edge99" class="edge"><title>Node42&#45;&gt;Node21</title>
<path fill="none" stroke="midnightblue" d="M1361.68,-244.77C1379.21,-227.22 1417.73,-187.44 1445.32,-150 1460.12,-129.915 1474.48,-105.038 1483.58,-88.4063"/>
<polygon fill="midnightblue" stroke="midnightblue" points="1486.86,-89.697 1488.52,-79.233 1480.7,-86.3778 1486.86,-89.697"/>
</g>
<!-- Node42&#45;&gt;Node43 -->
<g id="edge91" class="edge"><title>Node42&#45;&gt;Node43</title>
<path fill="none" stroke="midnightblue" d="M1324.98,-250.668C1306.7,-248.528 1282.09,-245.82 1260.32,-244 990.798,-221.478 919.479,-235.044 646.211,-208.004"/>
<polygon fill="midnightblue" stroke="midnightblue" points="646.285,-204.494 635.987,-206.983 645.589,-211.459 646.285,-204.494"/>
</g>
<!-- Node43&#45;&gt;Node7 -->
<g id="edge94" class="edge"><title>Node43&#45;&gt;Node7</title>
<path fill="none" stroke="midnightblue" d="M520.751,-186.933C485.963,-179.834 440.585,-168.078 403.318,-150 368.286,-133.005 333.188,-103.899 313.174,-85.8728"/>
<polygon fill="midnightblue" stroke="midnightblue" points="315.537,-83.2909 305.8,-79.1137 310.807,-88.451 315.537,-83.2909"/>
</g>
<!-- Node43&#45;&gt;Node8 -->
<g id="edge95" class="edge"><title>Node43&#45;&gt;Node8</title>
<path fill="none" stroke="midnightblue" d="M563.862,-186.921C545.154,-171.048 512.064,-137.861 532.318,-116 567.989,-77.4986 951.15,-85.7673 1003.32,-80 1015.48,-78.6558 1028.79,-76.8145 1040.45,-75.078"/>
<polygon fill="midnightblue" stroke="midnightblue" points="1041.25,-78.4959 1050.61,-73.53 1040.2,-71.5757 1041.25,-78.4959"/>
</g>
<!-- Node43&#45;&gt;Node12 -->
<g id="edge96" class="edge"><title>Node43&#45;&gt;Node12</title>
<path fill="none" stroke="midnightblue" d="M635.998,-187.228C709.982,-176.439 830.676,-158.513 875.318,-150 882.726,-148.587 890.541,-146.949 898.158,-145.27"/>
<polygon fill="midnightblue" stroke="midnightblue" points="899.017,-148.665 908.005,-143.056 897.481,-141.835 899.017,-148.665"/>
</g>
<!-- Node43&#45;&gt;Node13 -->
<g id="edge92" class="edge"><title>Node43&#45;&gt;Node13</title>
<path fill="none" stroke="midnightblue" d="M518.592,-186.991C496.929,-180.485 474.331,-169.283 461.318,-150 448.857,-131.534 457.109,-105.391 465.254,-88.079"/>
<polygon fill="midnightblue" stroke="midnightblue" points="468.444,-89.5288 469.88,-79.0317 462.211,-86.342 468.444,-89.5288"/>
</g>
<!-- Node43&#45;&gt;Node14 -->
<g id="edge93" class="edge"><title>Node43&#45;&gt;Node14</title>
<path fill="none" stroke="midnightblue" d="M540.889,-186.987C515.105,-179.366 479.563,-166.967 451.318,-150 421.791,-132.263 392.99,-104.218 376.212,-86.4817"/>
<polygon fill="midnightblue" stroke="midnightblue" points="378.758,-84.0801 369.39,-79.1319 373.628,-88.8423 378.758,-84.0801"/>
</g>
</g>
</svg>
