<?xml version="1.0" encoding="UTF-8" standalone="no"?>
<!DOCTYPE svg PUBLIC "-//W3C//DTD SVG 1.1//EN"
 "http://www.w3.org/Graphics/SVG/1.1/DTD/svg11.dtd">
<!-- Generated by graphviz version 2.36.0 (20140111.2315)
 -->
<!-- Title: handle.h Pages: 1 -->
<svg width="1073pt" height="232pt"
 viewBox="0.00 0.00 1073.00 232.00" xmlns="http://www.w3.org/2000/svg" xmlns:xlink="http://www.w3.org/1999/xlink">
<g id="graph0" class="graph" transform="scale(1 1) rotate(0) translate(4 228)">
<title>handle.h</title>
<!-- Node1 -->
<g id="node1" class="node"><title>Node1</title>
<polygon fill="#bfbfbf" stroke="black" points="708.815,-205 708.815,-223 763.185,-223 763.185,-205 708.815,-205"/>
<text text-anchor="middle" x="736" y="-211" font-family="Helvetica,sans-Serif" font-size="10.00">handle.h</text>
</g>
<!-- Node2 -->
<g id="node2" class="node"><title>Node2</title>
<g id="a_node2"><a xlink:href="config_8h_source.html" target="_top" xlink:title="RMF/config.h">
<polygon fill="none" stroke="black" points="525.269,-84 525.269,-102 600.731,-102 600.731,-84 525.269,-84"/>
<text text-anchor="middle" x="563" y="-90" font-family="Helvetica,sans-Serif" font-size="10.00">RMF/config.h</text>
</a>
</g>
</g>
<!-- Node1&#45;&gt;Node2 -->
<g id="edge1" class="edge"><title>Node1&#45;&gt;Node2</title>
<path fill="none" stroke="midnightblue" d="M708.654,-209.729C679.546,-204.995 633.557,-193.777 603,-168 585.419,-153.169 574.33,-128.577 568.4,-111.848"/>
<polygon fill="midnightblue" stroke="midnightblue" points="571.67,-110.587 565.231,-102.173 565.017,-112.765 571.67,-110.587"/>
</g>
<!-- Node4 -->
<g id="node4" class="node"><title>Node4</title>
<g id="a_node4"><a xlink:href="HDF5_2infrastructure__macros_8h.html" target="_top" xlink:title="Various general useful macros for IMP. ">
<polygon fill="none" stroke="black" points="186.48,-149 186.48,-167 307.52,-167 307.52,-149 186.48,-149"/>
<text text-anchor="middle" x="247" y="-155" font-family="Helvetica,sans-Serif" font-size="10.00">infrastructure_macros.h</text>
</a>
</g>
</g>
<!-- Node1&#45;&gt;Node4 -->
<g id="edge3" class="edge"><title>Node1&#45;&gt;Node4</title>
<path fill="none" stroke="midnightblue" d="M708.661,-209.981C634.447,-201.786 427.432,-178.925 317.57,-166.793"/>
<polygon fill="midnightblue" stroke="midnightblue" points="317.896,-163.308 307.572,-165.689 317.127,-170.265 317.896,-163.308"/>
</g>
<!-- Node8 -->
<g id="node8" class="node"><title>Node8</title>
<polygon fill="none" stroke="#bfbfbf" points="-0.615723,-10 -0.615723,-28 42.6157,-28 42.6157,-10 -0.615723,-10"/>
<text text-anchor="middle" x="21" y="-16" font-family="Helvetica,sans-Serif" font-size="10.00">vector</text>
</g>
<!-- Node1&#45;&gt;Node8 -->
<g id="edge27" class="edge"><title>Node1&#45;&gt;Node8</title>
<path fill="none" stroke="midnightblue" d="M708.708,-212.469C610.801,-210.306 277.719,-200.659 177,-168 131.466,-153.235 119.865,-144.8 85,-112 61.2265,-89.6345 41.1277,-57.0745 30.0963,-37.2852"/>
<polygon fill="midnightblue" stroke="midnightblue" points="33.0259,-35.3453 25.1827,-28.2224 26.8722,-38.6817 33.0259,-35.3453"/>
</g>
<!-- Node14 -->
<g id="node14" class="node"><title>Node14</title>
<g id="a_node14"><a xlink:href="exceptions_8h.html" target="_top" xlink:title="Declarations of the various exception types. ">
<polygon fill="none" stroke="black" points="611.707,-149 611.707,-167 708.293,-167 708.293,-149 611.707,-149"/>
<text text-anchor="middle" x="660" y="-155" font-family="Helvetica,sans-Serif" font-size="10.00">RMF/exceptions.h</text>
</a>
</g>
</g>
<!-- Node1&#45;&gt;Node14 -->
<g id="edge18" class="edge"><title>Node1&#45;&gt;Node14</title>
<path fill="none" stroke="midnightblue" d="M724.457,-204.799C712.628,-196.393 694.008,-183.163 679.815,-173.079"/>
<polygon fill="midnightblue" stroke="midnightblue" points="681.83,-170.218 671.651,-167.279 677.776,-175.924 681.83,-170.218"/>
</g>
<!-- Node16 -->
<g id="node16" class="node"><title>Node16</title>
<polygon fill="none" stroke="#bfbfbf" points="936.596,-84 936.596,-102 995.404,-102 995.404,-84 936.596,-84"/>
<text text-anchor="middle" x="966" y="-90" font-family="Helvetica,sans-Serif" font-size="10.00">exception</text>
</g>
<!-- Node1&#45;&gt;Node16 -->
<g id="edge28" class="edge"><title>Node1&#45;&gt;Node16</title>
<path fill="none" stroke="midnightblue" d="M735.873,-204.853C736.128,-191.023 738.764,-162.998 755,-148 812.689,-94.7093 853.545,-136.986 928,-112 932.561,-110.469 937.292,-108.534 941.804,-106.503"/>
<polygon fill="midnightblue" stroke="midnightblue" points="943.662,-109.495 951.178,-102.027 940.645,-103.178 943.662,-109.495"/>
</g>
<!-- Node18 -->
<g id="node18" class="node"><title>Node18</title>
<polygon fill="none" stroke="#bfbfbf" points="763.985,-149 763.985,-167 830.015,-167 830.015,-149 763.985,-149"/>
<text text-anchor="middle" x="797" y="-155" font-family="Helvetica,sans-Serif" font-size="10.00">H5Ipublic.h</text>
</g>
<!-- Node1&#45;&gt;Node18 -->
<g id="edge25" class="edge"><title>Node1&#45;&gt;Node18</title>
<path fill="none" stroke="midnightblue" d="M745.265,-204.799C754.491,-196.631 768.863,-183.908 780.12,-173.943"/>
<polygon fill="midnightblue" stroke="midnightblue" points="782.481,-176.528 787.648,-167.279 777.841,-171.286 782.481,-176.528"/>
</g>
<!-- Node19 -->
<g id="node19" class="node"><title>Node19</title>
<polygon fill="none" stroke="#bfbfbf" points="848.436,-149 848.436,-167 905.564,-167 905.564,-149 848.436,-149"/>
<text text-anchor="middle" x="877" y="-155" font-family="Helvetica,sans-Serif" font-size="10.00">algorithm</text>
</g>
<!-- Node1&#45;&gt;Node19 -->
<g id="edge26" class="edge"><title>Node1&#45;&gt;Node19</title>
<path fill="none" stroke="midnightblue" d="M757.109,-204.916C780.783,-195.849 819.39,-181.063 846.378,-170.727"/>
<polygon fill="midnightblue" stroke="midnightblue" points="847.66,-173.985 855.747,-167.14 845.156,-167.448 847.66,-173.985"/>
</g>
<!-- Node20 -->
<g id="node20" class="node"><title>Node20</title>
<polygon fill="none" stroke="#bfbfbf" points="923.613,-149 923.613,-167 962.387,-167 962.387,-149 923.613,-149"/>
<text text-anchor="middle" x="943" y="-155" font-family="Helvetica,sans-Serif" font-size="10.00">limits</text>
</g>
<!-- Node1&#45;&gt;Node20 -->
<g id="edge29" class="edge"><title>Node1&#45;&gt;Node20</title>
<path fill="none" stroke="midnightblue" d="M763.26,-206.586C796.443,-198.676 854.389,-184.53 913.507,-168.021"/>
<polygon fill="midnightblue" stroke="midnightblue" points="914.708,-171.319 923.387,-165.242 912.813,-164.58 914.708,-171.319"/>
</g>
<!-- Node21 -->
<g id="node21" class="node"><title>Node21</title>
<polygon fill="none" stroke="#bfbfbf" points="980.625,-149 980.625,-167 1065.38,-167 1065.38,-149 980.625,-149"/>
<text text-anchor="middle" x="1023" y="-155" font-family="Helvetica,sans-Serif" font-size="10.00">boost/utility.hpp</text>
</g>
<!-- Node1&#45;&gt;Node21 -->
<g id="edge30" class="edge"><title>Node1&#45;&gt;Node21</title>
<path fill="none" stroke="midnightblue" d="M763.259,-207.871C810.776,-198.931 909.527,-180.35 970.644,-168.851"/>
<polygon fill="midnightblue" stroke="midnightblue" points="971.306,-172.288 980.486,-166.999 970.011,-165.409 971.306,-172.288"/>
</g>
<!-- Node3 -->
<g id="node3" class="node"><title>Node3</title>
<g id="a_node3"><a xlink:href="compiler__macros_8h.html" target="_top" xlink:title="Various compiler workarounds. ">
<polygon fill="none" stroke="black" points="667.544,-10 667.544,-28 792.456,-28 792.456,-10 667.544,-10"/>
<text text-anchor="middle" x="730" y="-16" font-family="Helvetica,sans-Serif" font-size="10.00">RMF/compiler_macros.h</text>
</a>
</g>
</g>
<!-- Node2&#45;&gt;Node3 -->
<g id="edge2" class="edge"><title>Node2&#45;&gt;Node3</title>
<path fill="none" stroke="midnightblue" d="M581.832,-83.8806C611.102,-71.2614 667.687,-46.8654 701.83,-32.1454"/>
<polygon fill="midnightblue" stroke="midnightblue" points="703.439,-35.2629 711.236,-28.0897 700.668,-28.8348 703.439,-35.2629"/>
</g>
<!-- Node5 -->
<g id="node5" class="node"><title>Node5</title>
<polygon fill="none" stroke="#bfbfbf" points="133.219,-10 133.219,-28 184.781,-28 184.781,-10 133.219,-10"/>
<text text-anchor="middle" x="159" y="-16" font-family="Helvetica,sans-Serif" font-size="10.00">sstream</text>
</g>
<!-- Node4&#45;&gt;Node5 -->
<g id="edge4" class="edge"><title>Node4&#45;&gt;Node5</title>
<path fill="none" stroke="midnightblue" d="M241.759,-148.84C227.669,-126.905 188.761,-66.3318 169.744,-36.7261"/>
<polygon fill="midnightblue" stroke="midnightblue" points="172.674,-34.8124 164.325,-28.2902 166.785,-38.5955 172.674,-34.8124"/>
</g>
<!-- Node6 -->
<g id="node6" class="node"><title>Node6</title>
<polygon fill="none" stroke="#bfbfbf" points="60.8276,-10 60.8276,-28 115.172,-28 115.172,-10 60.8276,-10"/>
<text text-anchor="middle" x="88" y="-16" font-family="Helvetica,sans-Serif" font-size="10.00">iostream</text>
</g>
<!-- Node4&#45;&gt;Node6 -->
<g id="edge5" class="edge"><title>Node4&#45;&gt;Node6</title>
<path fill="none" stroke="midnightblue" d="M236.766,-148.822C225.648,-139.892 207.41,-125.112 192,-112 160.695,-85.3641 124.955,-53.3969 104.575,-35.0163"/>
<polygon fill="midnightblue" stroke="midnightblue" points="106.844,-32.3495 97.0781,-28.2422 102.151,-37.5434 106.844,-32.3495"/>
</g>
<!-- Node7 -->
<g id="node7" class="node"><title>Node7</title>
<polygon fill="none" stroke="#bfbfbf" points="608.773,-10 608.773,-28 649.227,-28 649.227,-10 608.773,-10"/>
<text text-anchor="middle" x="629" y="-16" font-family="Helvetica,sans-Serif" font-size="10.00">string</text>
</g>
<!-- Node4&#45;&gt;Node7 -->
<g id="edge6" class="edge"><title>Node4&#45;&gt;Node7</title>
<path fill="none" stroke="midnightblue" d="M277.986,-148.945C340.354,-132.211 484.828,-90.8062 599,-38 602.032,-36.5976 605.146,-34.967 608.167,-33.2709"/>
<polygon fill="midnightblue" stroke="midnightblue" points="609.97,-36.2706 616.774,-28.1491 606.391,-30.2551 609.97,-36.2706"/>
</g>
<!-- Node4&#45;&gt;Node8 -->
<g id="edge7" class="edge"><title>Node4&#45;&gt;Node8</title>
<path fill="none" stroke="midnightblue" d="M224.82,-148.871C203.679,-140.744 171.266,-127.281 145,-112 104.526,-88.4532 61.5513,-54.2048 38.3342,-34.8231"/>
<polygon fill="midnightblue" stroke="midnightblue" points="40.3513,-31.9458 30.4497,-28.1761 35.8393,-37.2977 40.3513,-31.9458"/>
</g>
<!-- Node9 -->
<g id="node9" class="node"><title>Node9</title>
<g id="a_node9"><a xlink:href="infrastructure__macros_8h.html" target="_top" xlink:title="Various general useful macros for IMP. ">
<polygon fill="none" stroke="black" points="242.604,-79 242.604,-107 341.396,-107 341.396,-79 242.604,-79"/>
<text text-anchor="start" x="250.604" y="-95" font-family="Helvetica,sans-Serif" font-size="10.00">RMF/infrastructure</text>
<text text-anchor="middle" x="292" y="-85" font-family="Helvetica,sans-Serif" font-size="10.00">_macros.h</text>
</a>
</g>
</g>
<!-- Node4&#45;&gt;Node9 -->
<g id="edge8" class="edge"><title>Node4&#45;&gt;Node9</title>
<path fill="none" stroke="midnightblue" d="M252.883,-148.764C258.882,-140.365 268.442,-126.981 276.609,-115.547"/>
<polygon fill="midnightblue" stroke="midnightblue" points="279.537,-117.47 282.501,-107.298 273.841,-113.401 279.537,-117.47"/>
</g>
<!-- Node9&#45;&gt;Node3 -->
<g id="edge12" class="edge"><title>Node9&#45;&gt;Node3</title>
<path fill="none" stroke="midnightblue" d="M341.4,-86.2801C411.967,-77.7542 545.539,-60.2975 658,-38 668.727,-35.8731 680.255,-33.178 690.875,-30.5252"/>
<polygon fill="midnightblue" stroke="midnightblue" points="691.896,-33.8768 700.722,-28.0147 690.167,-27.0937 691.896,-33.8768"/>
</g>
<!-- Node9&#45;&gt;Node5 -->
<g id="edge9" class="edge"><title>Node9&#45;&gt;Node5</title>
<path fill="none" stroke="midnightblue" d="M267.915,-78.9613C243.728,-65.8676 206.693,-45.8185 182.658,-32.8074"/>
<polygon fill="midnightblue" stroke="midnightblue" points="184.295,-29.7136 173.835,-28.0307 180.962,-35.8694 184.295,-29.7136"/>
</g>
<!-- Node9&#45;&gt;Node6 -->
<g id="edge10" class="edge"><title>Node9&#45;&gt;Node6</title>
<path fill="none" stroke="midnightblue" d="M244.967,-78.9768C210.9,-69.0404 163.997,-54.3161 124,-38 119.997,-36.3669 115.825,-34.4717 111.801,-32.5365"/>
<polygon fill="midnightblue" stroke="midnightblue" points="113.337,-29.3914 102.827,-28.053 110.209,-35.6534 113.337,-29.3914"/>
</g>
<!-- Node9&#45;&gt;Node7 -->
<g id="edge11" class="edge"><title>Node9&#45;&gt;Node7</title>
<path fill="none" stroke="midnightblue" d="M341.494,-83.5311C426.787,-68.9043 592.979,-40.2474 599,-38 602.404,-36.7295 605.854,-35.0701 609.145,-33.2728"/>
<polygon fill="midnightblue" stroke="midnightblue" points="611.057,-36.2071 617.819,-28.0512 607.447,-30.2098 611.057,-36.2071"/>
</g>
<!-- Node9&#45;&gt;Node8 -->
<g id="edge14" class="edge"><title>Node9&#45;&gt;Node8</title>
<path fill="none" stroke="midnightblue" d="M242.437,-85.3661C192.977,-77.7098 115.419,-62.8674 52,-38 48.5943,-36.6646 45.1181,-34.9934 41.7835,-33.2111"/>
<polygon fill="midnightblue" stroke="midnightblue" points="43.3426,-30.0693 32.9361,-28.0801 39.8307,-36.1246 43.3426,-30.0693"/>
</g>
<!-- Node10 -->
<g id="node10" class="node"><title>Node10</title>
<polygon fill="none" stroke="black" points="429,-1 429,-37 483,-37 483,-1 429,-1"/>
<text text-anchor="middle" x="455.515" y="-16" font-family="Helvetica,sans-Serif" font-size="10.00">Node10</text>
</g>
<!-- Node9&#45;&gt;Node10 -->
<g id="edge13" class="edge"><title>Node9&#45;&gt;Node10</title>
<path fill="none" stroke="midnightblue" d="M324.605,-78.9227C348.591,-69.1526 382.147,-55.1751 419.413,-38.1462"/>
<polygon fill="midnightblue" stroke="midnightblue" points="421.342,-41.1114 428.964,-33.7518 418.416,-34.7522 421.342,-41.1114"/>
</g>
<!-- Node11 -->
<g id="node11" class="node"><title>Node11</title>
<polygon fill="none" stroke="#bfbfbf" points="501.306,-10 501.306,-28 590.694,-28 590.694,-10 501.306,-10"/>
<text text-anchor="middle" x="546" y="-16" font-family="Helvetica,sans-Serif" font-size="10.00">boost/config.hpp</text>
</g>
<!-- Node9&#45;&gt;Node11 -->
<g id="edge15" class="edge"><title>Node9&#45;&gt;Node11</title>
<path fill="none" stroke="midnightblue" d="M341.541,-79.478C382.153,-69.0085 441.035,-53.3602 492,-38 498.866,-35.9308 506.178,-33.5884 513.131,-31.294"/>
<polygon fill="midnightblue" stroke="midnightblue" points="514.596,-34.4949 522.969,-28.0041 512.376,-27.8563 514.596,-34.4949"/>
</g>
<!-- Node12 -->
<g id="node12" class="node"><title>Node12</title>
<polygon fill="none" stroke="#bfbfbf" points="202.53,-10 202.53,-28 297.47,-28 297.47,-10 202.53,-10"/>
<text text-anchor="middle" x="250" y="-16" font-family="Helvetica,sans-Serif" font-size="10.00">boost/version.hpp</text>
</g>
<!-- Node9&#45;&gt;Node12 -->
<g id="edge16" class="edge"><title>Node9&#45;&gt;Node12</title>
<path fill="none" stroke="midnightblue" d="M284.297,-78.7941C277.427,-67.0184 267.334,-49.715 259.874,-36.9266"/>
<polygon fill="midnightblue" stroke="midnightblue" points="262.842,-35.0678 254.78,-28.1936 256.795,-38.595 262.842,-35.0678"/>
</g>
<!-- Node13 -->
<g id="node13" class="node"><title>Node13</title>
<polygon fill="none" stroke="#bfbfbf" points="314.971,-10 314.971,-28 411.029,-28 411.029,-10 314.971,-10"/>
<text text-anchor="middle" x="363" y="-16" font-family="Helvetica,sans-Serif" font-size="10.00">boost/foreach.hpp</text>
</g>
<!-- Node9&#45;&gt;Node13 -->
<g id="edge17" class="edge"><title>Node9&#45;&gt;Node13</title>
<path fill="none" stroke="midnightblue" d="M305.022,-78.7941C317.09,-66.5566 335.044,-48.3493 347.771,-35.4435"/>
<polygon fill="midnightblue" stroke="midnightblue" points="350.391,-37.7715 354.92,-28.1936 345.407,-32.8564 350.391,-37.7715"/>
</g>
<!-- Node14&#45;&gt;Node2 -->
<g id="edge22" class="edge"><title>Node14&#45;&gt;Node2</title>
<path fill="none" stroke="midnightblue" d="M647.319,-148.764C631.182,-138.283 603.092,-120.039 583.799,-107.509"/>
<polygon fill="midnightblue" stroke="midnightblue" points="585.67,-104.551 575.377,-102.039 581.857,-110.421 585.67,-104.551"/>
</g>
<!-- Node14&#45;&gt;Node3 -->
<g id="edge23" class="edge"><title>Node14&#45;&gt;Node3</title>
<path fill="none" stroke="midnightblue" d="M661.487,-148.818C664.506,-133.453 672.262,-99.5311 686,-74 693.686,-59.7149 705.398,-45.5738 714.807,-35.348"/>
<polygon fill="midnightblue" stroke="midnightblue" points="717.384,-37.7175 721.738,-28.0586 712.311,-32.8941 717.384,-37.7175"/>
</g>
<!-- Node14&#45;&gt;Node7 -->
<g id="edge21" class="edge"><title>Node14&#45;&gt;Node7</title>
<path fill="none" stroke="midnightblue" d="M658.154,-148.84C653.276,-127.285 639.956,-68.418 633.139,-38.2915"/>
<polygon fill="midnightblue" stroke="midnightblue" points="636.497,-37.2711 630.876,-28.2902 629.669,-38.816 636.497,-37.2711"/>
</g>
<!-- Node15 -->
<g id="node15" class="node"><title>Node15</title>
<polygon fill="none" stroke="#bfbfbf" points="695.451,-84 695.451,-102 846.549,-102 846.549,-84 695.451,-84"/>
<text text-anchor="middle" x="771" y="-90" font-family="Helvetica,sans-Serif" font-size="10.00">boost/exception/exception.hpp</text>
</g>
<!-- Node14&#45;&gt;Node15 -->
<g id="edge19" class="edge"><title>Node14&#45;&gt;Node15</title>
<path fill="none" stroke="midnightblue" d="M674.511,-148.764C693.228,-138.141 725.997,-119.542 748.092,-107.002"/>
<polygon fill="midnightblue" stroke="midnightblue" points="749.867,-110.019 756.836,-102.039 746.412,-103.931 749.867,-110.019"/>
</g>
<!-- Node14&#45;&gt;Node16 -->
<g id="edge20" class="edge"><title>Node14&#45;&gt;Node16</title>
<path fill="none" stroke="midnightblue" d="M708.511,-149.597C780.007,-138.574 907.464,-118.451 928,-112 932.59,-110.558 937.335,-108.666 941.852,-106.65"/>
<polygon fill="midnightblue" stroke="midnightblue" points="943.712,-109.64 951.224,-102.169 940.692,-103.325 943.712,-109.64"/>
</g>
<!-- Node17 -->
<g id="node17" class="node"><title>Node17</title>
<polygon fill="none" stroke="black" points="865,-75 865,-111 919,-111 919,-75 865,-75"/>
<text text-anchor="middle" x="891.515" y="-90" font-family="Helvetica,sans-Serif" font-size="10.00">Node17</text>
</g>
<!-- Node14&#45;&gt;Node17 -->
<g id="edge24" class="edge"><title>Node14&#45;&gt;Node17</title>
<path fill="none" stroke="midnightblue" d="M708.544,-148.956C748.53,-141.584 806.355,-129.196 855,-112 855.101,-111.964 855.202,-111.928 855.303,-111.892"/>
<polygon fill="midnightblue" stroke="midnightblue" points="856.839,-115.047 864.817,-108.076 854.233,-108.551 856.839,-115.047"/>
</g>
</g>
</svg>
