<?xml version="1.0" encoding="UTF-8" standalone="no"?>
<!DOCTYPE svg PUBLIC "-//W3C//DTD SVG 1.1//EN"
 "http://www.w3.org/Graphics/SVG/1.1/DTD/svg11.dtd">
<!-- Generated by graphviz version 2.36.0 (20140111.2315)
 -->
<!-- Title: handle.h Pages: 1 -->
<svg width="1185pt" height="206pt"
 viewBox="0.00 0.00 1185.00 206.00" xmlns="http://www.w3.org/2000/svg" xmlns:xlink="http://www.w3.org/1999/xlink">
<g id="graph0" class="graph" transform="scale(1 1) rotate(0) translate(4 202)">
<title>handle.h</title>
<!-- Node1 -->
<g id="node1" class="node"><title>Node1</title>
<polygon fill="#bfbfbf" stroke="black" points="820.815,-179 820.815,-197 875.185,-197 875.185,-179 820.815,-179"/>
<text text-anchor="middle" x="848" y="-185" font-family="Helvetica,sans-Serif" font-size="10.00">handle.h</text>
</g>
<!-- Node2 -->
<g id="node2" class="node"><title>Node2</title>
<g id="a_node2"><a xlink:href="config_8h_source.html" target="_top" xlink:title="RMF/config.h">
<polygon fill="none" stroke="black" points="772.269,-62 772.269,-80 847.731,-80 847.731,-62 772.269,-62"/>
<text text-anchor="middle" x="810" y="-68" font-family="Helvetica,sans-Serif" font-size="10.00">RMF/config.h</text>
</a>
</g>
</g>
<!-- Node1&#45;&gt;Node2 -->
<g id="edge1" class="edge"><title>Node1&#45;&gt;Node2</title>
<path fill="none" stroke="midnightblue" d="M845.267,-178.729C839.16,-160.246 824.286,-115.234 815.937,-89.9662"/>
<polygon fill="midnightblue" stroke="midnightblue" points="819.169,-88.5925 812.708,-80.1956 812.522,-90.7888 819.169,-88.5925"/>
</g>
<!-- Node4 -->
<g id="node4" class="node"><title>Node4</title>
<g id="a_node4"><a xlink:href="HDF5_2infrastructure__macros_8h.html" target="_top" xlink:title="Various general useful macros for IMP. ">
<polygon fill="none" stroke="black" points="316.48,-123 316.48,-141 437.52,-141 437.52,-123 316.48,-123"/>
<text text-anchor="middle" x="377" y="-129" font-family="Helvetica,sans-Serif" font-size="10.00">infrastructure_macros.h</text>
</a>
</g>
</g>
<!-- Node1&#45;&gt;Node4 -->
<g id="edge3" class="edge"><title>Node1&#45;&gt;Node4</title>
<path fill="none" stroke="midnightblue" d="M820.641,-183.863C748.936,-175.642 553.794,-153.269 447.799,-141.117"/>
<polygon fill="midnightblue" stroke="midnightblue" points="448.16,-137.636 437.827,-139.974 447.363,-144.59 448.16,-137.636"/>
</g>
<!-- Node8 -->
<g id="node8" class="node"><title>Node8</title>
<polygon fill="none" stroke="#bfbfbf" points="476.384,-1 476.384,-19 519.616,-19 519.616,-1 476.384,-1"/>
<text text-anchor="middle" x="498" y="-7" font-family="Helvetica,sans-Serif" font-size="10.00">vector</text>
</g>
<!-- Node1&#45;&gt;Node8 -->
<g id="edge25" class="edge"><title>Node1&#45;&gt;Node8</title>
<path fill="none" stroke="midnightblue" d="M820.551,-184.878C762.612,-179.051 626.32,-158.068 543,-86 524.912,-70.3543 512.047,-45.5717 504.826,-28.8169"/>
<polygon fill="midnightblue" stroke="midnightblue" points="507.902,-27.0907 500.897,-19.1426 501.417,-29.7247 507.902,-27.0907"/>
</g>
<!-- Node14 -->
<g id="node13" class="node"><title>Node14</title>
<g id="a_node13"><a xlink:href="exceptions_8h.html" target="_top" xlink:title="Declarations of the various exception types. ">
<polygon fill="none" stroke="black" points="685.707,-123 685.707,-141 782.293,-141 782.293,-123 685.707,-123"/>
<text text-anchor="middle" x="734" y="-129" font-family="Helvetica,sans-Serif" font-size="10.00">RMF/exceptions.h</text>
</a>
</g>
</g>
<!-- Node1&#45;&gt;Node14 -->
<g id="edge17" class="edge"><title>Node1&#45;&gt;Node14</title>
<path fill="none" stroke="midnightblue" d="M830.686,-178.799C811.997,-169.946 782.008,-155.74 760.381,-145.496"/>
<polygon fill="midnightblue" stroke="midnightblue" points="761.639,-142.22 751.104,-141.102 758.643,-148.546 761.639,-142.22"/>
</g>
<!-- Node16 -->
<g id="node15" class="node"><title>Node16</title>
<polygon fill="none" stroke="#bfbfbf" points="865.596,-62 865.596,-80 924.404,-80 924.404,-62 865.596,-62"/>
<text text-anchor="middle" x="895" y="-68" font-family="Helvetica,sans-Serif" font-size="10.00">exception</text>
</g>
<!-- Node1&#45;&gt;Node16 -->
<g id="edge26" class="edge"><title>Node1&#45;&gt;Node16</title>
<path fill="none" stroke="midnightblue" d="M849.769,-178.792C852.609,-166.259 858.718,-141.73 867,-122 871.801,-110.562 878.568,-98.4043 884.247,-88.9418"/>
<polygon fill="midnightblue" stroke="midnightblue" points="887.369,-90.5475 889.642,-80.1995 881.412,-86.871 887.369,-90.5475"/>
</g>
<!-- Node18 -->
<g id="node16" class="node"><title>Node18</title>
<polygon fill="none" stroke="#bfbfbf" points="875.985,-123 875.985,-141 942.015,-141 942.015,-123 875.985,-123"/>
<text text-anchor="middle" x="909" y="-129" font-family="Helvetica,sans-Serif" font-size="10.00">H5Ipublic.h</text>
</g>
<!-- Node1&#45;&gt;Node18 -->
<g id="edge23" class="edge"><title>Node1&#45;&gt;Node18</title>
<path fill="none" stroke="midnightblue" d="M857.265,-178.799C866.491,-170.631 880.863,-157.908 892.12,-147.943"/>
<polygon fill="midnightblue" stroke="midnightblue" points="894.481,-150.528 899.648,-141.279 889.841,-145.286 894.481,-150.528"/>
</g>
<!-- Node19 -->
<g id="node17" class="node"><title>Node19</title>
<polygon fill="none" stroke="#bfbfbf" points="960.436,-123 960.436,-141 1017.56,-141 1017.56,-123 960.436,-123"/>
<text text-anchor="middle" x="989" y="-129" font-family="Helvetica,sans-Serif" font-size="10.00">algorithm</text>
</g>
<!-- Node1&#45;&gt;Node19 -->
<g id="edge24" class="edge"><title>Node1&#45;&gt;Node19</title>
<path fill="none" stroke="midnightblue" d="M869.109,-178.916C892.783,-169.849 931.39,-155.063 958.378,-144.727"/>
<polygon fill="midnightblue" stroke="midnightblue" points="959.66,-147.985 967.747,-141.14 957.156,-141.448 959.66,-147.985"/>
</g>
<!-- Node20 -->
<g id="node18" class="node"><title>Node20</title>
<polygon fill="none" stroke="#bfbfbf" points="1035.61,-123 1035.61,-141 1074.39,-141 1074.39,-123 1035.61,-123"/>
<text text-anchor="middle" x="1055" y="-129" font-family="Helvetica,sans-Serif" font-size="10.00">limits</text>
</g>
<!-- Node1&#45;&gt;Node20 -->
<g id="edge27" class="edge"><title>Node1&#45;&gt;Node20</title>
<path fill="none" stroke="midnightblue" d="M875.26,-180.586C908.443,-172.676 966.389,-158.53 1025.51,-142.021"/>
<polygon fill="midnightblue" stroke="midnightblue" points="1026.71,-145.319 1035.39,-139.242 1024.81,-138.58 1026.71,-145.319"/>
</g>
<!-- Node21 -->
<g id="node19" class="node"><title>Node21</title>
<polygon fill="none" stroke="#bfbfbf" points="1092.62,-123 1092.62,-141 1177.38,-141 1177.38,-123 1092.62,-123"/>
<text text-anchor="middle" x="1135" y="-129" font-family="Helvetica,sans-Serif" font-size="10.00">boost/utility.hpp</text>
</g>
<!-- Node1&#45;&gt;Node21 -->
<g id="edge28" class="edge"><title>Node1&#45;&gt;Node21</title>
<path fill="none" stroke="midnightblue" d="M875.259,-181.871C922.776,-172.931 1021.53,-154.35 1082.64,-142.851"/>
<polygon fill="midnightblue" stroke="midnightblue" points="1083.31,-146.288 1092.49,-140.999 1082.01,-139.409 1083.31,-146.288"/>
</g>
<!-- Node3 -->
<g id="node3" class="node"><title>Node3</title>
<g id="a_node3"><a xlink:href="compiler__macros_8h.html" target="_top" xlink:title="Various compiler workarounds. ">
<polygon fill="none" stroke="black" points="681.544,-1 681.544,-19 806.456,-19 806.456,-1 681.544,-1"/>
<text text-anchor="middle" x="744" y="-7" font-family="Helvetica,sans-Serif" font-size="10.00">RMF/compiler_macros.h</text>
</a>
</g>
</g>
<!-- Node2&#45;&gt;Node3 -->
<g id="edge2" class="edge"><title>Node2&#45;&gt;Node3</title>
<path fill="none" stroke="midnightblue" d="M800.823,-61.7963C790.479,-52.5496 773.449,-37.3257 760.725,-25.9513"/>
<polygon fill="midnightblue" stroke="midnightblue" points="762.887,-23.1893 753.099,-19.134 758.222,-28.4081 762.887,-23.1893"/>
</g>
<!-- Node5 -->
<g id="node5" class="node"><title>Node5</title>
<polygon fill="none" stroke="#bfbfbf" points="72.2192,-1 72.2192,-19 123.781,-19 123.781,-1 72.2192,-1"/>
<text text-anchor="middle" x="98" y="-7" font-family="Helvetica,sans-Serif" font-size="10.00">sstream</text>
</g>
<!-- Node4&#45;&gt;Node5 -->
<g id="edge4" class="edge"><title>Node4&#45;&gt;Node5</title>
<path fill="none" stroke="midnightblue" d="M358.261,-122.94C310.313,-102.318 182.967,-47.5448 126.105,-23.0882"/>
<polygon fill="midnightblue" stroke="midnightblue" points="127.227,-19.7607 116.658,-19.0248 124.461,-26.1912 127.227,-19.7607"/>
</g>
<!-- Node6 -->
<g id="node6" class="node"><title>Node6</title>
<polygon fill="none" stroke="#bfbfbf" points="-0.172363,-1 -0.172363,-19 54.1724,-19 54.1724,-1 -0.172363,-1"/>
<text text-anchor="middle" x="27" y="-7" font-family="Helvetica,sans-Serif" font-size="10.00">iostream</text>
</g>
<!-- Node4&#45;&gt;Node6 -->
<g id="edge5" class="edge"><title>Node4&#45;&gt;Node6</title>
<path fill="none" stroke="midnightblue" d="M338.384,-122.958C302.382,-115.031 247.418,-101.829 201,-86 146.876,-67.543 86.0232,-39.5685 52.5382,-23.5135"/>
<polygon fill="midnightblue" stroke="midnightblue" points="53.982,-20.324 43.4549,-19.128 50.9385,-26.6277 53.982,-20.324"/>
</g>
<!-- Node7 -->
<g id="node7" class="node"><title>Node7</title>
<polygon fill="none" stroke="#bfbfbf" points="537.773,-1 537.773,-19 578.227,-19 578.227,-1 537.773,-1"/>
<text text-anchor="middle" x="558" y="-7" font-family="Helvetica,sans-Serif" font-size="10.00">string</text>
</g>
<!-- Node4&#45;&gt;Node7 -->
<g id="edge6" class="edge"><title>Node4&#45;&gt;Node7</title>
<path fill="none" stroke="midnightblue" d="M389.495,-122.916C403.34,-113.944 426.313,-99.0105 446,-86 478.088,-64.7942 515.138,-39.9036 537.553,-24.8003"/>
<polygon fill="midnightblue" stroke="midnightblue" points="539.598,-27.6425 545.933,-19.1501 535.685,-21.8385 539.598,-27.6425"/>
</g>
<!-- Node4&#45;&gt;Node8 -->
<g id="edge7" class="edge"><title>Node4&#45;&gt;Node8</title>
<path fill="none" stroke="midnightblue" d="M383.965,-122.838C396.104,-108.752 422.125,-79.1602 446,-56 456.846,-45.4792 469.677,-34.3623 479.88,-25.8102"/>
<polygon fill="midnightblue" stroke="midnightblue" points="482.268,-28.3768 487.731,-19.299 477.799,-22.9887 482.268,-28.3768"/>
</g>
<!-- Node9 -->
<g id="node9" class="node"><title>Node9</title>
<g id="a_node9"><a xlink:href="infrastructure__macros_8h.html" target="_top" xlink:title="Various general useful macros for IMP. ">
<polygon fill="none" stroke="black" points="295.604,-57 295.604,-85 394.396,-85 394.396,-57 295.604,-57"/>
<text text-anchor="start" x="303.604" y="-73" font-family="Helvetica,sans-Serif" font-size="10.00">RMF/infrastructure</text>
<text text-anchor="middle" x="345" y="-63" font-family="Helvetica,sans-Serif" font-size="10.00">_macros.h</text>
</a>
</g>
</g>
<!-- Node4&#45;&gt;Node9 -->
<g id="edge8" class="edge"><title>Node4&#45;&gt;Node9</title>
<path fill="none" stroke="midnightblue" d="M372.551,-122.796C368.542,-115.406 362.463,-104.197 357.034,-94.1874"/>
<polygon fill="midnightblue" stroke="midnightblue" points="359.961,-92.2431 352.117,-85.1215 353.808,-95.5805 359.961,-92.2431"/>
</g>
<!-- Node9&#45;&gt;Node3 -->
<g id="edge12" class="edge"><title>Node9&#45;&gt;Node3</title>
<path fill="none" stroke="midnightblue" d="M394.727,-62.6469C466.701,-52.0041 599.965,-32.2984 679.443,-20.546"/>
<polygon fill="midnightblue" stroke="midnightblue" points="680.432,-23.9379 689.813,-19.0126 679.408,-17.0132 680.432,-23.9379"/>
</g>
<!-- Node9&#45;&gt;Node5 -->
<g id="edge9" class="edge"><title>Node9&#45;&gt;Node5</title>
<path fill="none" stroke="midnightblue" d="M295.244,-58.5622C254.422,-49.1108 194.868,-35.1693 133.792,-20.1597"/>
<polygon fill="midnightblue" stroke="midnightblue" points="134.526,-16.736 123.979,-17.7421 132.851,-23.5328 134.526,-16.736"/>
</g>
<!-- Node9&#45;&gt;Node6 -->
<g id="edge10" class="edge"><title>Node9&#45;&gt;Node6</title>
<path fill="none" stroke="midnightblue" d="M295.385,-62.2741C240.996,-53.566 150.957,-38.451 64.4549,-20.2006"/>
<polygon fill="midnightblue" stroke="midnightblue" points="64.9811,-16.7343 54.4716,-18.0768 63.5244,-23.5811 64.9811,-16.7343"/>
</g>
<!-- Node9&#45;&gt;Node7 -->
<g id="edge11" class="edge"><title>Node9&#45;&gt;Node7</title>
<path fill="none" stroke="midnightblue" d="M394.025,-56.9581C430.93,-47.0552 482.725,-32.9743 528,-20 528.098,-19.9719 528.196,-19.9438 528.295,-19.9155"/>
<polygon fill="midnightblue" stroke="midnightblue" points="529.072,-23.335 537.687,-17.1681 527.106,-16.6165 529.072,-23.335"/>
</g>
<!-- Node9&#45;&gt;Node8 -->
<g id="edge13" class="edge"><title>Node9&#45;&gt;Node8</title>
<path fill="none" stroke="midnightblue" d="M378.956,-56.906C405.381,-46.716 441.736,-32.6966 467.297,-22.8399"/>
<polygon fill="midnightblue" stroke="midnightblue" points="468.786,-26.017 476.857,-19.1534 466.267,-19.4858 468.786,-26.017"/>
</g>
<!-- Node11 -->
<g id="node10" class="node"><title>Node11</title>
<polygon fill="none" stroke="#bfbfbf" points="256.306,-1 256.306,-19 345.694,-19 345.694,-1 256.306,-1"/>
<text text-anchor="middle" x="301" y="-7" font-family="Helvetica,sans-Serif" font-size="10.00">boost/config.hpp</text>
</g>
<!-- Node9&#45;&gt;Node11 -->
<g id="edge14" class="edge"><title>Node9&#45;&gt;Node11</title>
<path fill="none" stroke="midnightblue" d="M335.235,-56.906C328.712,-48.1588 320.084,-36.5899 313.122,-27.2545"/>
<polygon fill="midnightblue" stroke="midnightblue" points="315.864,-25.0773 307.08,-19.1534 310.253,-29.262 315.864,-25.0773"/>
</g>
<!-- Node12 -->
<g id="node11" class="node"><title>Node12</title>
<polygon fill="none" stroke="#bfbfbf" points="363.53,-1 363.53,-19 458.47,-19 458.47,-1 363.53,-1"/>
<text text-anchor="middle" x="411" y="-7" font-family="Helvetica,sans-Serif" font-size="10.00">boost/version.hpp</text>
</g>
<!-- Node9&#45;&gt;Node12 -->
<g id="edge15" class="edge"><title>Node9&#45;&gt;Node12</title>
<path fill="none" stroke="midnightblue" d="M359.648,-56.906C369.937,-47.7079 383.717,-35.3898 394.411,-25.8294"/>
<polygon fill="midnightblue" stroke="midnightblue" points="396.757,-28.4274 401.879,-19.1534 392.091,-23.2086 396.757,-28.4274"/>
</g>
<!-- Node13 -->
<g id="node12" class="node"><title>Node13</title>
<polygon fill="none" stroke="#bfbfbf" points="141.971,-1 141.971,-19 238.029,-19 238.029,-1 141.971,-1"/>
<text text-anchor="middle" x="190" y="-7" font-family="Helvetica,sans-Serif" font-size="10.00">boost/foreach.hpp</text>
</g>
<!-- Node9&#45;&gt;Node13 -->
<g id="edge16" class="edge"><title>Node9&#45;&gt;Node13</title>
<path fill="none" stroke="midnightblue" d="M310.6,-56.906C283.83,-46.716 247,-32.6966 221.105,-22.8399"/>
<polygon fill="midnightblue" stroke="midnightblue" points="222.011,-19.4398 211.42,-19.1534 219.521,-25.9819 222.011,-19.4398"/>
</g>
<!-- Node14&#45;&gt;Node2 -->
<g id="edge21" class="edge"><title>Node14&#45;&gt;Node2</title>
<path fill="none" stroke="midnightblue" d="M744.567,-122.796C756.705,-113.374 776.839,-97.7436 791.572,-86.3056"/>
<polygon fill="midnightblue" stroke="midnightblue" points="793.769,-89.031 799.522,-80.134 789.477,-83.5016 793.769,-89.031"/>
</g>
<!-- Node14&#45;&gt;Node3 -->
<g id="edge22" class="edge"><title>Node14&#45;&gt;Node3</title>
<path fill="none" stroke="midnightblue" d="M734.687,-122.752C736.279,-103.656 740.249,-56.0179 742.457,-29.5198"/>
<polygon fill="midnightblue" stroke="midnightblue" points="745.965,-29.562 743.308,-19.3058 738.989,-28.9806 745.965,-29.562"/>
</g>
<!-- Node14&#45;&gt;Node7 -->
<g id="edge20" class="edge"><title>Node14&#45;&gt;Node7</title>
<path fill="none" stroke="midnightblue" d="M685.338,-125.473C637.985,-118.974 570.91,-106.405 555,-86 542.38,-69.8144 546.424,-45.1562 551.404,-28.5771"/>
<polygon fill="midnightblue" stroke="midnightblue" points="554.749,-29.6135 554.647,-19.0192 548.12,-27.3647 554.749,-29.6135"/>
</g>
<!-- Node15 -->
<g id="node14" class="node"><title>Node15</title>
<polygon fill="none" stroke="#bfbfbf" points="564.451,-62 564.451,-80 715.549,-80 715.549,-62 564.451,-62"/>
<text text-anchor="middle" x="640" y="-68" font-family="Helvetica,sans-Serif" font-size="10.00">boost/exception/exception.hpp</text>
</g>
<!-- Node14&#45;&gt;Node15 -->
<g id="edge18" class="edge"><title>Node14&#45;&gt;Node15</title>
<path fill="none" stroke="midnightblue" d="M720.93,-122.796C705.566,-113.153 679.846,-97.0098 661.526,-85.5108"/>
<polygon fill="midnightblue" stroke="midnightblue" points="663.29,-82.4858 652.959,-80.134 659.568,-88.4147 663.29,-82.4858"/>
</g>
<!-- Node14&#45;&gt;Node16 -->
<g id="edge19" class="edge"><title>Node14&#45;&gt;Node16</title>
<path fill="none" stroke="midnightblue" d="M756.049,-122.92C783.791,-112.753 831.629,-95.2228 863.293,-83.6192"/>
<polygon fill="midnightblue" stroke="midnightblue" points="864.775,-86.804 872.96,-80.0769 862.366,-80.2315 864.775,-86.804"/>
</g>
</g>
</svg>
