<?xml version="1.0" encoding="UTF-8" standalone="no"?>
<!DOCTYPE svg PUBLIC "-//W3C//DTD SVG 1.1//EN"
 "http://www.w3.org/Graphics/SVG/1.1/DTD/svg11.dtd">
<!-- Generated by graphviz version 2.34.0 (20131025.1349)
 -->
<!-- Title: handle.h Pages: 1 -->
<!--zoomable 216 -->
<svg id="main" version="1.1" xmlns="http://www.w3.org/2000/svg" xmlns:xlink="http://www.w3.org/1999/xlink" xml:space="preserve" onload="init(evt)">
<style type="text/css"><![CDATA[
.edge:hover path { stroke: red; }
.edge:hover polygon { stroke: red; fill: red; }
]]></style>
<script type="text/javascript"><![CDATA[
var edges = document.getElementsByTagName('g');
if (edges && edges.length) {
  for (var i=0;i<edges.length;i++) {
    if (edges[i].id.substr(0,4)=='edge') {
      edges[i].setAttribute('class','edge');
    }
  }
}
]]></script>
        <defs>
                <circle id="rim" cx="0" cy="0" r="7"/>
                <circle id="rim2" cx="0" cy="0" r="3.5"/>
                <g id="zoomPlus">
                        <use xlink:href="#rim" fill="#404040">
                                <set attributeName="fill" to="#808080" begin="zoomplus.mouseover" end="zoomplus.mouseout"/>
                        </use>
                        <path d="M-4,0h8M0,-4v8" fill="none" stroke="white" stroke-width="1.5" pointer-events="none"/>
                </g>
                <g id="zoomMin">
                        <use xlink:href="#rim" fill="#404040">
                                <set attributeName="fill" to="#808080" begin="zoomminus.mouseover" end="zoomminus.mouseout"/>
                        </use>
                        <path d="M-4,0h8" fill="none" stroke="white" stroke-width="1.5" pointer-events="none"/>
                </g>
                <g id="dirArrow">
                        <path fill="none" stroke="white" stroke-width="1.5" d="M0,-3.0v7 M-2.5,-0.5L0,-3.0L2.5,-0.5"/>
                </g>
               <g id="resetDef">
                       <use xlink:href="#rim2" fill="#404040">
                               <set attributeName="fill" to="#808080" begin="reset.mouseover" end="reset.mouseout"/>
                       </use>
               </g>
        </defs>

<script type="text/javascript">
var viewWidth = 1095;
var viewHeight = 216;
var sectionId = 'dynsection-0';
</script>
<script xlink:href="svgpan.js"/>
<svg id="graph" class="graph">
<g id="viewport">
<title>handle.h</title>
<!-- Node1 -->
<g id="node1" class="node"><title>Node1</title>
<polygon fill="#bfbfbf" stroke="black" points="730.815,-187 730.815,-207 785.185,-207 785.185,-187 730.815,-187"/>
<text text-anchor="middle" x="758" y="-193" font-family="Helvetica,sans-Serif" font-size="10.00">handle.h</text>
</g>
<!-- Node2 -->
<g id="node2" class="node"><title>Node2</title>
<g id="a_node2"><a xlink:href="config_8h_source.html" target="_top" xlink:title="RMF/config.h">
<polygon fill="none" stroke="black" points="547.269,-65 547.269,-85 622.731,-85 622.731,-65 547.269,-65"/>
<text text-anchor="middle" x="585" y="-71" font-family="Helvetica,sans-Serif" font-size="10.00">RMF/config.h</text>
</a>
</g>
</g>
<!-- Node1&#45;&gt;Node2 -->
<g id="edge1" class="edge"><title>Node1&#45;&gt;Node2</title>
<path fill="none" stroke="midnightblue" d="M730.648,-192.497C701.534,-187.522 655.54,-175.939 625,-150 607.834,-135.42 596.834,-111.552 590.801,-94.8767"/>
<polygon fill="midnightblue" stroke="midnightblue" points="594.031,-93.5 587.538,-85.1277 587.393,-95.7215 594.031,-93.5"/>
</g>
<!-- Node4 -->
<g id="node4" class="node"><title>Node4</title>
<g id="a_node4"><a xlink:href="HDF5_2infrastructure__macros_8h.html" target="_top" xlink:title="Various general useful macros for IMP. ">
<polygon fill="none" stroke="black" points="192.48,-129 192.48,-149 313.52,-149 313.52,-129 192.48,-129"/>
<text text-anchor="middle" x="253" y="-135" font-family="Helvetica,sans-Serif" font-size="10.00">infrastructure_macros.h</text>
</a>
</g>
</g>
<!-- Node1&#45;&gt;Node4 -->
<g id="edge3" class="edge"><title>Node1&#45;&gt;Node4</title>
<path fill="none" stroke="midnightblue" d="M730.49,-192.949C653.969,-184.464 436.812,-160.383 323.606,-147.83"/>
<polygon fill="midnightblue" stroke="midnightblue" points="323.972,-144.349 313.647,-146.725 323.2,-151.306 323.972,-144.349"/>
</g>
<!-- Node8 -->
<g id="node8" class="node"><title>Node8</title>
<polygon fill="none" stroke="#bfbfbf" points="-0.615723,-1 -0.615723,-21 42.6157,-21 42.6157,-1 -0.615723,-1"/>
<text text-anchor="middle" x="21" y="-7" font-family="Helvetica,sans-Serif" font-size="10.00">vector</text>
</g>
<!-- Node1&#45;&gt;Node8 -->
<g id="edge27" class="edge"><title>Node1&#45;&gt;Node8</title>
<path fill="none" stroke="midnightblue" d="M730.626,-195.457C630.834,-193.224 286.976,-183.234 183,-150 135.154,-134.707 123.971,-124.882 86,-92 64.427,-73.3185 44.5084,-46.8685 32.5542,-29.5775"/>
<polygon fill="midnightblue" stroke="midnightblue" points="35.2713,-27.3472 26.7724,-21.0211 29.4713,-31.2665 35.2713,-27.3472"/>
</g>
<!-- Node14 -->
<g id="node14" class="node"><title>Node14</title>
<g id="a_node14"><a xlink:href="exceptions_8h.html" target="_top" xlink:title="Declarations of the various exception types. ">
<polygon fill="none" stroke="black" points="633.707,-129 633.707,-149 730.293,-149 730.293,-129 633.707,-129"/>
<text text-anchor="middle" x="682" y="-135" font-family="Helvetica,sans-Serif" font-size="10.00">RMF/exceptions.h</text>
</a>
</g>
</g>
<!-- Node1&#45;&gt;Node14 -->
<g id="edge18" class="edge"><title>Node1&#45;&gt;Node14</title>
<path fill="none" stroke="midnightblue" d="M745.45,-186.753C733.83,-178.19 716.333,-165.298 702.654,-155.219"/>
<polygon fill="midnightblue" stroke="midnightblue" points="704.443,-152.19 694.316,-149.075 700.291,-157.825 704.443,-152.19"/>
</g>
<!-- Node16 -->
<g id="node16" class="node"><title>Node16</title>
<polygon fill="none" stroke="#bfbfbf" points="1015.6,-65 1015.6,-85 1074.4,-85 1074.4,-65 1015.6,-65"/>
<text text-anchor="middle" x="1045" y="-71" font-family="Helvetica,sans-Serif" font-size="10.00">exception</text>
</g>
<!-- Node1&#45;&gt;Node16 -->
<g id="edge28" class="edge"><title>Node1&#45;&gt;Node16</title>
<path fill="none" stroke="midnightblue" d="M757.664,-186.927C757.655,-172.185 759.967,-143.155 777,-128 853.97,-59.5145 906.777,-119.741 1006,-92 1009.24,-91.0935 1012.58,-89.9962 1015.87,-88.8059"/>
<polygon fill="midnightblue" stroke="midnightblue" points="1017.43,-91.953 1025.47,-85.0539 1014.89,-85.433 1017.43,-91.953"/>
</g>
<!-- Node18 -->
<g id="node18" class="node"><title>Node18</title>
<polygon fill="none" stroke="#bfbfbf" points="785.985,-129 785.985,-149 852.015,-149 852.015,-129 785.985,-129"/>
<text text-anchor="middle" x="819" y="-135" font-family="Helvetica,sans-Serif" font-size="10.00">H5Ipublic.h</text>
</g>
<!-- Node1&#45;&gt;Node18 -->
<g id="edge25" class="edge"><title>Node1&#45;&gt;Node18</title>
<path fill="none" stroke="midnightblue" d="M768.073,-186.753C777.133,-178.435 790.645,-166.031 801.474,-156.089"/>
<polygon fill="midnightblue" stroke="midnightblue" points="804.115,-158.416 809.115,-149.075 799.381,-153.26 804.115,-158.416"/>
</g>
<!-- Node19 -->
<g id="node19" class="node"><title>Node19</title>
<polygon fill="none" stroke="#bfbfbf" points="870.436,-129 870.436,-149 927.564,-149 927.564,-129 870.436,-129"/>
<text text-anchor="middle" x="899" y="-135" font-family="Helvetica,sans-Serif" font-size="10.00">algorithm</text>
</g>
<!-- Node1&#45;&gt;Node19 -->
<g id="edge26" class="edge"><title>Node1&#45;&gt;Node19</title>
<path fill="none" stroke="midnightblue" d="M780.968,-186.878C804.218,-177.644 840.377,-163.283 866.548,-152.889"/>
<polygon fill="midnightblue" stroke="midnightblue" points="868.04,-156.062 876.042,-149.118 865.456,-149.556 868.04,-156.062"/>
</g>
<!-- Node20 -->
<g id="node20" class="node"><title>Node20</title>
<polygon fill="none" stroke="#bfbfbf" points="945.613,-129 945.613,-149 984.387,-149 984.387,-129 945.613,-129"/>
<text text-anchor="middle" x="965" y="-135" font-family="Helvetica,sans-Serif" font-size="10.00">limits</text>
</g>
<!-- Node1&#45;&gt;Node20 -->
<g id="edge29" class="edge"><title>Node1&#45;&gt;Node20</title>
<path fill="none" stroke="midnightblue" d="M785.326,-189.65C818.575,-181.77 876.591,-167.526 935.56,-149.954"/>
<polygon fill="midnightblue" stroke="midnightblue" points="936.846,-153.223 945.413,-146.989 934.829,-146.52 936.846,-153.223"/>
</g>
<!-- Node21 -->
<g id="node21" class="node"><title>Node21</title>
<polygon fill="none" stroke="#bfbfbf" points="1002.62,-129 1002.62,-149 1087.38,-149 1087.38,-129 1002.62,-129"/>
<text text-anchor="middle" x="1045" y="-135" font-family="Helvetica,sans-Serif" font-size="10.00">boost/utility.hpp</text>
</g>
<!-- Node1&#45;&gt;Node21 -->
<g id="edge30" class="edge"><title>Node1&#45;&gt;Node21</title>
<path fill="none" stroke="midnightblue" d="M785.259,-190.681C832.776,-181.41 931.527,-162.141 992.644,-150.216"/>
<polygon fill="midnightblue" stroke="midnightblue" points="993.341,-153.646 1002.49,-148.295 992.001,-146.775 993.341,-153.646"/>
</g>
<!-- Node3 -->
<g id="node3" class="node"><title>Node3</title>
<g id="a_node3"><a xlink:href="compiler__macros_8h.html" target="_top" xlink:title="Various compiler workarounds. ">
<polygon fill="none" stroke="black" points="689.544,-1 689.544,-21 814.456,-21 814.456,-1 689.544,-1"/>
<text text-anchor="middle" x="752" y="-7" font-family="Helvetica,sans-Serif" font-size="10.00">RMF/compiler_macros.h</text>
</a>
</g>
</g>
<!-- Node2&#45;&gt;Node3 -->
<g id="edge2" class="edge"><title>Node2&#45;&gt;Node3</title>
<path fill="none" stroke="midnightblue" d="M609.283,-64.9847C637.977,-54.3319 685.892,-36.5431 718.2,-24.5484"/>
<polygon fill="midnightblue" stroke="midnightblue" points="719.531,-27.7879 727.687,-21.0262 717.094,-21.2256 719.531,-27.7879"/>
</g>
<!-- Node5 -->
<g id="node5" class="node"><title>Node5</title>
<polygon fill="none" stroke="#bfbfbf" points="133.219,-1 133.219,-21 184.781,-21 184.781,-1 133.219,-1"/>
<text text-anchor="middle" x="159" y="-7" font-family="Helvetica,sans-Serif" font-size="10.00">sstream</text>
</g>
<!-- Node4&#45;&gt;Node5 -->
<g id="edge4" class="edge"><title>Node4&#45;&gt;Node5</title>
<path fill="none" stroke="midnightblue" d="M246.24,-128.938C230.733,-108.153 192.383,-56.7472 172.085,-29.5395"/>
<polygon fill="midnightblue" stroke="midnightblue" points="174.738,-27.2418 165.953,-21.3195 169.127,-31.4276 174.738,-27.2418"/>
</g>
<!-- Node6 -->
<g id="node6" class="node"><title>Node6</title>
<polygon fill="none" stroke="#bfbfbf" points="60.8276,-1 60.8276,-21 115.172,-21 115.172,-1 60.8276,-1"/>
<text text-anchor="middle" x="88" y="-7" font-family="Helvetica,sans-Serif" font-size="10.00">iostream</text>
</g>
<!-- Node4&#45;&gt;Node6 -->
<g id="edge5" class="edge"><title>Node4&#45;&gt;Node6</title>
<path fill="none" stroke="midnightblue" d="M240.589,-128.916C228.029,-119.694 208.08,-104.967 191,-92 161.807,-69.8379 128.35,-43.7163 107.694,-27.5038"/>
<polygon fill="midnightblue" stroke="midnightblue" points="109.7,-24.629 99.6747,-21.2027 105.375,-30.1332 109.7,-24.629"/>
</g>
<!-- Node7 -->
<g id="node7" class="node"><title>Node7</title>
<polygon fill="none" stroke="#bfbfbf" points="630.773,-1 630.773,-21 671.227,-21 671.227,-1 630.773,-1"/>
<text text-anchor="middle" x="651" y="-7" font-family="Helvetica,sans-Serif" font-size="10.00">string</text>
</g>
<!-- Node4&#45;&gt;Node7 -->
<g id="edge6" class="edge"><title>Node4&#45;&gt;Node7</title>
<path fill="none" stroke="midnightblue" d="M282.152,-128.989C344.453,-109.692 495.15,-62.8071 621,-22 621.098,-21.9682 621.196,-21.9364 621.294,-21.9045"/>
<polygon fill="midnightblue" stroke="midnightblue" points="622.272,-25.2673 630.682,-18.8228 620.089,-18.6166 622.272,-25.2673"/>
</g>
<!-- Node4&#45;&gt;Node8 -->
<g id="edge7" class="edge"><title>Node4&#45;&gt;Node8</title>
<path fill="none" stroke="midnightblue" d="M228.431,-128.917C206.176,-120.368 172.724,-106.71 145,-92 107.273,-71.983 66.0996,-44.1123 41.9658,-27.1042"/>
<polygon fill="midnightblue" stroke="midnightblue" points="43.7727,-24.0946 33.5934,-21.1567 39.7188,-29.8013 43.7727,-24.0946"/>
</g>
<!-- Node9 -->
<g id="node9" class="node"><title>Node9</title>
<g id="a_node9"><a xlink:href="infrastructure__macros_8h.html" target="_top" xlink:title="Various general useful macros for IMP. ">
<polygon fill="none" stroke="black" points="248.604,-59 248.604,-91 347.396,-91 347.396,-59 248.604,-59"/>
<text text-anchor="start" x="256.604" y="-77" font-family="Helvetica,sans-Serif" font-size="10.00">RMF/infrastructure</text>
<text text-anchor="middle" x="298" y="-65" font-family="Helvetica,sans-Serif" font-size="10.00">_macros.h</text>
</a>
</g>
</g>
<!-- Node4&#45;&gt;Node9 -->
<g id="edge8" class="edge"><title>Node4&#45;&gt;Node9</title>
<path fill="none" stroke="midnightblue" d="M259.64,-128.852C265.217,-121.167 273.44,-109.839 280.843,-99.6384"/>
<polygon fill="midnightblue" stroke="midnightblue" points="283.752,-101.589 286.793,-91.4404 278.087,-97.4775 283.752,-101.589"/>
</g>
<!-- Node9&#45;&gt;Node3 -->
<g id="edge12" class="edge"><title>Node9&#45;&gt;Node3</title>
<path fill="none" stroke="midnightblue" d="M347.455,-67.3115C418.359,-57.7125 553.292,-39.4096 678.983,-22.137"/>
<polygon fill="midnightblue" stroke="midnightblue" points="679.743,-25.5656 689.173,-20.7362 678.789,-18.6308 679.743,-25.5656"/>
</g>
<!-- Node9&#45;&gt;Node5 -->
<g id="edge9" class="edge"><title>Node9&#45;&gt;Node5</title>
<path fill="none" stroke="midnightblue" d="M264.352,-58.9915C241.255,-48.6895 210.885,-35.1427 188.688,-25.2422"/>
<polygon fill="midnightblue" stroke="midnightblue" points="189.98,-21.9859 179.421,-21.1088 187.128,-28.3788 189.98,-21.9859"/>
</g>
<!-- Node9&#45;&gt;Node6 -->
<g id="edge10" class="edge"><title>Node9&#45;&gt;Node6</title>
<path fill="none" stroke="midnightblue" d="M248.499,-59.3854C210.643,-48.209 159.282,-33.0452 124.958,-22.9115"/>
<polygon fill="midnightblue" stroke="midnightblue" points="125.903,-19.5412 115.321,-20.0663 123.921,-26.2547 125.903,-19.5412"/>
</g>
<!-- Node9&#45;&gt;Node7 -->
<g id="edge11" class="edge"><title>Node9&#45;&gt;Node7</title>
<path fill="none" stroke="midnightblue" d="M347.437,-66.4935C425.079,-54.6417 571.086,-32.083 620.528,-21.6057"/>
<polygon fill="midnightblue" stroke="midnightblue" points="621.504,-24.9728 630.472,-19.3305 619.943,-18.1491 621.504,-24.9728"/>
</g>
<!-- Node9&#45;&gt;Node8 -->
<g id="edge14" class="edge"><title>Node9&#45;&gt;Node8</title>
<path fill="none" stroke="midnightblue" d="M248.169,-65.0391C200.365,-56.0909 126.012,-41.2553 52.7857,-22.005"/>
<polygon fill="midnightblue" stroke="midnightblue" points="53.4955,-18.5722 42.932,-19.3855 51.6971,-25.3372 53.4955,-18.5722"/>
</g>
<!-- Node10 -->
<g id="node10" class="node"><title>Node10</title>
<polygon fill="none" stroke="#bfbfbf" points="428.98,-1 428.98,-21 505.02,-21 505.02,-1 428.98,-1"/>
<text text-anchor="middle" x="467" y="-7" font-family="Helvetica,sans-Serif" font-size="10.00">internal/use.h</text>
</g>
<!-- Node9&#45;&gt;Node10 -->
<g id="edge13" class="edge"><title>Node9&#45;&gt;Node10</title>
<path fill="none" stroke="midnightblue" d="M338.91,-58.9915C367.621,-48.4585 405.578,-34.5336 432.704,-24.5818"/>
<polygon fill="midnightblue" stroke="midnightblue" points="433.989,-27.8389 442.171,-21.1088 431.578,-21.2671 433.989,-27.8389"/>
</g>
<!-- Node11 -->
<g id="node11" class="node"><title>Node11</title>
<polygon fill="none" stroke="#bfbfbf" points="523.306,-1 523.306,-21 612.694,-21 612.694,-1 523.306,-1"/>
<text text-anchor="middle" x="568" y="-7" font-family="Helvetica,sans-Serif" font-size="10.00">boost/config.hpp</text>
</g>
<!-- Node9&#45;&gt;Node11 -->
<g id="edge15" class="edge"><title>Node9&#45;&gt;Node11</title>
<path fill="none" stroke="midnightblue" d="M347.522,-62.6282C396.131,-51.4663 469.855,-34.5369 518.467,-23.3741"/>
<polygon fill="midnightblue" stroke="midnightblue" points="519.478,-26.7332 528.441,-21.0838 517.912,-19.9107 519.478,-26.7332"/>
</g>
<!-- Node12 -->
<g id="node12" class="node"><title>Node12</title>
<polygon fill="none" stroke="#bfbfbf" points="202.53,-1 202.53,-21 297.47,-21 297.47,-1 202.53,-1"/>
<text text-anchor="middle" x="250" y="-7" font-family="Helvetica,sans-Serif" font-size="10.00">boost/version.hpp</text>
</g>
<!-- Node9&#45;&gt;Node12 -->
<g id="edge16" class="edge"><title>Node9&#45;&gt;Node12</title>
<path fill="none" stroke="midnightblue" d="M286.381,-58.9915C279.484,-50.0835 270.709,-38.7496 263.505,-29.4446"/>
<polygon fill="midnightblue" stroke="midnightblue" points="266.082,-27.055 257.193,-21.2904 260.547,-31.3403 266.082,-27.055"/>
</g>
<!-- Node13 -->
<g id="node13" class="node"><title>Node13</title>
<polygon fill="none" stroke="#bfbfbf" points="314.971,-1 314.971,-21 411.029,-21 411.029,-1 314.971,-1"/>
<text text-anchor="middle" x="363" y="-7" font-family="Helvetica,sans-Serif" font-size="10.00">boost/foreach.hpp</text>
</g>
<!-- Node9&#45;&gt;Node13 -->
<g id="edge17" class="edge"><title>Node9&#45;&gt;Node13</title>
<path fill="none" stroke="midnightblue" d="M313.735,-58.9915C323.459,-49.7162 335.94,-37.8107 345.907,-28.3041"/>
<polygon fill="midnightblue" stroke="midnightblue" points="348.44,-30.7252 353.26,-21.2904 343.608,-25.6599 348.44,-30.7252"/>
</g>
<!-- Node14&#45;&gt;Node2 -->
<g id="edge22" class="edge"><title>Node14&#45;&gt;Node2</title>
<path fill="none" stroke="midnightblue" d="M667.687,-128.852C651.927,-118.778 626.367,-102.441 607.832,-90.5937"/>
<polygon fill="midnightblue" stroke="midnightblue" points="609.682,-87.6224 599.371,-85.1858 605.912,-93.5206 609.682,-87.6224"/>
</g>
<!-- Node14&#45;&gt;Node3 -->
<g id="edge23" class="edge"><title>Node14&#45;&gt;Node3</title>
<path fill="none" stroke="midnightblue" d="M683.643,-128.557C686.654,-112.983 694.064,-81.3164 708,-58 714.685,-46.8153 724.545,-36.1755 733.239,-27.9512"/>
<polygon fill="midnightblue" stroke="midnightblue" points="735.707,-30.4381 740.769,-21.1311 731.008,-25.2497 735.707,-30.4381"/>
</g>
<!-- Node14&#45;&gt;Node7 -->
<g id="edge21" class="edge"><title>Node14&#45;&gt;Node7</title>
<path fill="none" stroke="midnightblue" d="M679.771,-128.938C674.768,-108.605 662.556,-58.9677 655.76,-31.3477"/>
<polygon fill="midnightblue" stroke="midnightblue" points="659.081,-30.1937 653.293,-21.3195 652.283,-31.8661 659.081,-30.1937"/>
</g>
<!-- Node15 -->
<g id="node15" class="node"><title>Node15</title>
<polygon fill="none" stroke="#bfbfbf" points="717.451,-65 717.451,-85 868.549,-85 868.549,-65 717.451,-65"/>
<text text-anchor="middle" x="793" y="-71" font-family="Helvetica,sans-Serif" font-size="10.00">boost/exception/exception.hpp</text>
</g>
<!-- Node14&#45;&gt;Node15 -->
<g id="edge19" class="edge"><title>Node14&#45;&gt;Node15</title>
<path fill="none" stroke="midnightblue" d="M698.378,-128.852C716.66,-118.641 746.463,-101.994 767.736,-90.1116"/>
<polygon fill="midnightblue" stroke="midnightblue" points="769.531,-93.118 776.554,-85.1858 766.117,-87.0067 769.531,-93.118"/>
</g>
<!-- Node14&#45;&gt;Node16 -->
<g id="edge20" class="edge"><title>Node14&#45;&gt;Node16</title>
<path fill="none" stroke="midnightblue" d="M730.383,-130.084C734.983,-129.365 739.579,-128.66 744,-128 860.25,-110.641 892.501,-122.55 1006,-92 1009.25,-91.125 1012.59,-90.0478 1015.89,-88.8695"/>
<polygon fill="midnightblue" stroke="midnightblue" points="1017.44,-92.0193 1025.5,-85.1314 1014.91,-85.4956 1017.44,-92.0193"/>
</g>
<!-- Node17 -->
<g id="node17" class="node"><title>Node17</title>
<polygon fill="none" stroke="#bfbfbf" points="886.766,-65 886.766,-85 997.234,-85 997.234,-65 886.766,-65"/>
<text text-anchor="middle" x="942" y="-71" font-family="Helvetica,sans-Serif" font-size="10.00">RMF/internal/errors.h</text>
</g>
<!-- Node14&#45;&gt;Node17 -->
<g id="edge24" class="edge"><title>Node14&#45;&gt;Node17</title>
<path fill="none" stroke="midnightblue" d="M720.874,-128.947C760.25,-119.749 822.896,-105.04 877,-92 883.08,-90.5347 889.476,-88.9784 895.786,-87.4341"/>
<polygon fill="midnightblue" stroke="midnightblue" points="896.697,-90.8146 905.574,-85.0322 895.028,-84.0163 896.697,-90.8146"/>
</g>
</g>
</svg>
        <g id="navigator" transform="translate(0 0)" fill="#404254">
                <rect fill="#f2f5e9" fill-opacity="0.5" stroke="#606060" stroke-width=".5" x="0" y="0" width="60" height="60"/>
                <use id="zoomplus" xlink:href="#zoomPlus" x="17" y="9" onmousedown="handleZoom(evt,'in')"/>
                <use id="zoomminus" xlink:href="#zoomMin" x="42" y="9" onmousedown="handleZoom(evt,'out')"/>
                <use id="reset" xlink:href="#resetDef" x="30" y="36" onmousedown="handleReset()"/>
                <g id="arrowUp" xlink:href="#dirArrow" transform="translate(30 24)" onmousedown="handlePan(0,-1)">
                  <use xlink:href="#rim" fill="#404040">
                        <set attributeName="fill" to="#808080" begin="arrowUp.mouseover" end="arrowUp.mouseout"/>
                  </use>
                  <path fill="none" stroke="white" stroke-width="1.5" d="M0,-3.0v7 M-2.5,-0.5L0,-3.0L2.5,-0.5"/>
                </g>
                <g id="arrowRight" xlink:href="#dirArrow" transform="rotate(90) translate(36 -43)" onmousedown="handlePan(1,0)">
                  <use xlink:href="#rim" fill="#404040">
                        <set attributeName="fill" to="#808080" begin="arrowRight.mouseover" end="arrowRight.mouseout"/>
                  </use>
                  <path fill="none" stroke="white" stroke-width="1.5" d="M0,-3.0v7 M-2.5,-0.5L0,-3.0L2.5,-0.5"/>
                </g>
                <g id="arrowDown" xlink:href="#dirArrow" transform="rotate(180) translate(-30 -48)" onmousedown="handlePan(0,1)">
                  <use xlink:href="#rim" fill="#404040">
                        <set attributeName="fill" to="#808080" begin="arrowDown.mouseover" end="arrowDown.mouseout"/>
                  </use>
                  <path fill="none" stroke="white" stroke-width="1.5" d="M0,-3.0v7 M-2.5,-0.5L0,-3.0L2.5,-0.5"/>
                </g>
                <g id="arrowLeft" xlink:href="#dirArrow" transform="rotate(270) translate(-36 17)" onmousedown="handlePan(-1,0)">
                  <use xlink:href="#rim" fill="#404040">
                        <set attributeName="fill" to="#808080" begin="arrowLeft.mouseover" end="arrowLeft.mouseout"/>
                  </use>
                  <path fill="none" stroke="white" stroke-width="1.5" d="M0,-3.0v7 M-2.5,-0.5L0,-3.0L2.5,-0.5"/>
                </g>
        </g>
        <svg viewBox="0 0 15 15" width="100%" height="30px" preserveAspectRatio="xMaxYMin meet">
         <g id="arrow_out" transform="scale(0.3 0.3)">
          <a xlink:href="handle_8h__incl_org.svg" target="_base">
           <rect id="button" ry="5" rx="5" y="6" x="6" height="38" width="38"
                fill="#f2f5e9" fill-opacity="0.5" stroke="#606060" stroke-width="1.0"/>
           <path id="arrow"
             d="M 11.500037,31.436501 C 11.940474,20.09759 22.043105,11.32322 32.158766,21.979434 L 37.068811,17.246167 C 37.068811,17.246167 37.088388,32 37.088388,32 L 22.160133,31.978069 C 22.160133,31.978069 26.997745,27.140456 26.997745,27.140456 C 18.528582,18.264221 13.291696,25.230495 11.500037,31.436501 z"
             style="fill:#404040;"/>
          </a>
         </g>
        </svg>
</svg>
