<?xml version="1.0" encoding="UTF-8" standalone="no"?>
<!DOCTYPE svg PUBLIC "-//W3C//DTD SVG 1.1//EN"
 "http://www.w3.org/Graphics/SVG/1.1/DTD/svg11.dtd">
<!-- Generated by graphviz version 2.36.0 (20140111.2315)
 -->
<!-- Title: infrastructure_macros.h Pages: 1 -->
<svg width="727pt" height="150pt"
 viewBox="0.00 0.00 727.00 150.00" xmlns="http://www.w3.org/2000/svg" xmlns:xlink="http://www.w3.org/1999/xlink">
<g id="graph0" class="graph" transform="scale(1 1) rotate(0) translate(4 146)">
<title>infrastructure_macros.h</title>
<!-- Node1 -->
<g id="node1" class="node"><title>Node1</title>
<polygon fill="#bfbfbf" stroke="black" points="93.4805,-123 93.4805,-141 214.52,-141 214.52,-123 93.4805,-123"/>
<text text-anchor="middle" x="154" y="-129" font-family="Helvetica,sans-Serif" font-size="10.00">infrastructure_macros.h</text>
</g>
<!-- Node2 -->
<g id="node2" class="node"><title>Node2</title>
<polygon fill="none" stroke="#bfbfbf" points="-0.780762,-1 -0.780762,-19 50.7808,-19 50.7808,-1 -0.780762,-1"/>
<text text-anchor="middle" x="25" y="-7" font-family="Helvetica,sans-Serif" font-size="10.00">sstream</text>
</g>
<!-- Node1&#45;&gt;Node2 -->
<g id="edge1" class="edge"><title>Node1&#45;&gt;Node2</title>
<path fill="none" stroke="midnightblue" d="M145.133,-122.752C123.776,-102.885 69.2107,-52.1262 41.5744,-26.418"/>
<polygon fill="midnightblue" stroke="midnightblue" points="43.6345,-23.5542 33.9287,-19.3058 38.8668,-28.6795 43.6345,-23.5542"/>
</g>
<!-- Node3 -->
<g id="node3" class="node"><title>Node3</title>
<polygon fill="none" stroke="#bfbfbf" points="68.8276,-1 68.8276,-19 123.172,-19 123.172,-1 68.8276,-1"/>
<text text-anchor="middle" x="96" y="-7" font-family="Helvetica,sans-Serif" font-size="10.00">iostream</text>
</g>
<!-- Node1&#45;&gt;Node3 -->
<g id="edge2" class="edge"><title>Node1&#45;&gt;Node3</title>
<path fill="none" stroke="midnightblue" d="M150.013,-122.752C140.659,-103.399 117.137,-54.731 104.44,-28.4619"/>
<polygon fill="midnightblue" stroke="midnightblue" points="107.517,-26.7862 100.014,-19.3058 101.215,-29.8324 107.517,-26.7862"/>
</g>
<!-- Node4 -->
<g id="node4" class="node"><title>Node4</title>
<polygon fill="none" stroke="#bfbfbf" points="140.773,-1 140.773,-19 181.227,-19 181.227,-1 140.773,-1"/>
<text text-anchor="middle" x="161" y="-7" font-family="Helvetica,sans-Serif" font-size="10.00">string</text>
</g>
<!-- Node1&#45;&gt;Node4 -->
<g id="edge3" class="edge"><title>Node1&#45;&gt;Node4</title>
<path fill="none" stroke="midnightblue" d="M154.481,-122.752C155.595,-103.656 158.374,-56.0179 159.92,-29.5198"/>
<polygon fill="midnightblue" stroke="midnightblue" points="163.427,-29.4927 160.515,-19.3058 156.439,-29.085 163.427,-29.4927"/>
</g>
<!-- Node5 -->
<g id="node5" class="node"><title>Node5</title>
<polygon fill="none" stroke="#bfbfbf" points="199.384,-1 199.384,-19 242.616,-19 242.616,-1 199.384,-1"/>
<text text-anchor="middle" x="221" y="-7" font-family="Helvetica,sans-Serif" font-size="10.00">vector</text>
</g>
<!-- Node1&#45;&gt;Node5 -->
<g id="edge4" class="edge"><title>Node1&#45;&gt;Node5</title>
<path fill="none" stroke="midnightblue" d="M158.605,-122.752C169.458,-103.313 196.824,-54.2997 211.444,-28.1145"/>
<polygon fill="midnightblue" stroke="midnightblue" points="214.544,-29.7433 216.363,-19.3058 208.432,-26.3308 214.544,-29.7433"/>
</g>
<!-- Node6 -->
<g id="node6" class="node"><title>Node6</title>
<g id="a_node6"><a xlink:href="infrastructure__macros_8h.html" target="_top" xlink:title="Various general useful macros for IMP. ">
<polygon fill="none" stroke="black" points="219.604,-57 219.604,-85 318.396,-85 318.396,-57 219.604,-57"/>
<text text-anchor="start" x="227.604" y="-73" font-family="Helvetica,sans-Serif" font-size="10.00">RMF/infrastructure</text>
<text text-anchor="middle" x="269" y="-63" font-family="Helvetica,sans-Serif" font-size="10.00">_macros.h</text>
</a>
</g>
</g>
<!-- Node1&#45;&gt;Node6 -->
<g id="edge5" class="edge"><title>Node1&#45;&gt;Node6</title>
<path fill="none" stroke="midnightblue" d="M169.99,-122.796C186.549,-114.301 212.941,-100.761 234.314,-89.7956"/>
<polygon fill="midnightblue" stroke="midnightblue" points="236.125,-92.8004 243.424,-85.1215 232.929,-86.5722 236.125,-92.8004"/>
</g>
<!-- Node6&#45;&gt;Node2 -->
<g id="edge6" class="edge"><title>Node6&#45;&gt;Node2</title>
<path fill="none" stroke="midnightblue" d="M219.536,-58.4146C179.386,-48.9544 121.048,-35.0825 61.0196,-20.2231"/>
<polygon fill="midnightblue" stroke="midnightblue" points="61.5299,-16.7437 50.9813,-17.7329 59.8444,-23.5378 61.5299,-16.7437"/>
</g>
<!-- Node6&#45;&gt;Node3 -->
<g id="edge7" class="edge"><title>Node6&#45;&gt;Node3</title>
<path fill="none" stroke="midnightblue" d="M230.606,-56.906C200.241,-46.5504 158.28,-32.2399 129.317,-22.3626"/>
<polygon fill="midnightblue" stroke="midnightblue" points="130.25,-18.9827 119.655,-19.0675 127.99,-25.608 130.25,-18.9827"/>
</g>
<!-- Node6&#45;&gt;Node4 -->
<g id="edge8" class="edge"><title>Node6&#45;&gt;Node4</title>
<path fill="none" stroke="midnightblue" d="M245.031,-56.906C227.204,-47.1669 202.973,-33.9298 185.112,-24.172"/>
<polygon fill="midnightblue" stroke="midnightblue" points="186.379,-20.8761 175.925,-19.1534 183.023,-27.0192 186.379,-20.8761"/>
</g>
<!-- Node6&#45;&gt;Node5 -->
<g id="edge10" class="edge"><title>Node6&#45;&gt;Node5</title>
<path fill="none" stroke="midnightblue" d="M258.347,-56.906C251.158,-48.0686 241.625,-36.3511 233.99,-26.9665"/>
<polygon fill="midnightblue" stroke="midnightblue" points="236.659,-24.7017 227.633,-19.1534 231.229,-29.1193 236.659,-24.7017"/>
</g>
<!-- Node7 -->
<g id="node7" class="node"><title>Node7</title>
<g id="a_node7"><a xlink:href="compiler__macros_8h.html" target="_top" xlink:title="Various compiler workarounds. ">
<polygon fill="none" stroke="black" points="260.544,-1 260.544,-19 385.456,-19 385.456,-1 260.544,-1"/>
<text text-anchor="middle" x="323" y="-7" font-family="Helvetica,sans-Serif" font-size="10.00">RMF/compiler_macros.h</text>
</a>
</g>
</g>
<!-- Node6&#45;&gt;Node7 -->
<g id="edge9" class="edge"><title>Node6&#45;&gt;Node7</title>
<path fill="none" stroke="midnightblue" d="M280.984,-56.906C289.155,-47.9785 300.016,-36.1117 308.649,-26.6799"/>
<polygon fill="midnightblue" stroke="midnightblue" points="311.368,-28.8932 315.538,-19.1534 306.204,-24.167 311.368,-28.8932"/>
</g>
<!-- Node9 -->
<g id="node8" class="node"><title>Node9</title>
<polygon fill="none" stroke="#bfbfbf" points="403.306,-1 403.306,-19 492.694,-19 492.694,-1 403.306,-1"/>
<text text-anchor="middle" x="448" y="-7" font-family="Helvetica,sans-Serif" font-size="10.00">boost/config.hpp</text>
</g>
<!-- Node6&#45;&gt;Node9 -->
<g id="edge11" class="edge"><title>Node6&#45;&gt;Node9</title>
<path fill="none" stroke="midnightblue" d="M308.726,-56.906C340.281,-46.5051 383.94,-32.1148 413.919,-22.2334"/>
<polygon fill="midnightblue" stroke="midnightblue" points="415.122,-25.522 423.524,-19.0675 412.931,-18.8739 415.122,-25.522"/>
</g>
<!-- Node10 -->
<g id="node9" class="node"><title>Node10</title>
<polygon fill="none" stroke="#bfbfbf" points="510.53,-1 510.53,-19 605.47,-19 605.47,-1 510.53,-1"/>
<text text-anchor="middle" x="558" y="-7" font-family="Helvetica,sans-Serif" font-size="10.00">boost/version.hpp</text>
</g>
<!-- Node6&#45;&gt;Node10 -->
<g id="edge12" class="edge"><title>Node6&#45;&gt;Node10</title>
<path fill="none" stroke="midnightblue" d="M318.681,-59.8575C371.897,-48.9933 455.833,-31.8576 508.846,-21.0349"/>
<polygon fill="midnightblue" stroke="midnightblue" points="509.596,-24.454 518.694,-19.0244 508.196,-17.5955 509.596,-24.454"/>
</g>
<!-- Node11 -->
<g id="node10" class="node"><title>Node11</title>
<polygon fill="none" stroke="#bfbfbf" points="622.971,-1 622.971,-19 719.029,-19 719.029,-1 622.971,-1"/>
<text text-anchor="middle" x="671" y="-7" font-family="Helvetica,sans-Serif" font-size="10.00">boost/foreach.hpp</text>
</g>
<!-- Node6&#45;&gt;Node11 -->
<g id="edge13" class="edge"><title>Node6&#45;&gt;Node11</title>
<path fill="none" stroke="midnightblue" d="M318.448,-63.0345C383.498,-53.8266 501.651,-36.9487 612.765,-20.1723"/>
<polygon fill="midnightblue" stroke="midnightblue" points="613.441,-23.61 622.805,-18.6538 612.394,-16.6887 613.441,-23.61"/>
</g>
</g>
</svg>
