<?xml version="1.0" encoding="UTF-8" standalone="no"?>
<!DOCTYPE svg PUBLIC "-//W3C//DTD SVG 1.1//EN"
 "http://www.w3.org/Graphics/SVG/1.1/DTD/svg11.dtd">
<!-- Generated by graphviz version 2.36.0 (20140111.2315)
 -->
<!-- Title: infrastructure_macros.h Pages: 1 -->
<svg width="798pt" height="168pt"
 viewBox="0.00 0.00 798.00 168.00" xmlns="http://www.w3.org/2000/svg" xmlns:xlink="http://www.w3.org/1999/xlink">
<g id="graph0" class="graph" transform="scale(1 1) rotate(0) translate(4 164)">
<title>infrastructure_macros.h</title>
<!-- Node1 -->
<g id="node1" class="node"><title>Node1</title>
<polygon fill="#bfbfbf" stroke="black" points="100.48,-141 100.48,-159 221.52,-159 221.52,-141 100.48,-141"/>
<text text-anchor="middle" x="161" y="-147" font-family="Helvetica,sans-Serif" font-size="10.00">infrastructure_macros.h</text>
</g>
<!-- Node2 -->
<g id="node2" class="node"><title>Node2</title>
<polygon fill="none" stroke="#bfbfbf" points="-0.780762,-10 -0.780762,-28 50.7808,-28 50.7808,-10 -0.780762,-10"/>
<text text-anchor="middle" x="25" y="-16" font-family="Helvetica,sans-Serif" font-size="10.00">sstream</text>
</g>
<!-- Node1&#45;&gt;Node2 -->
<g id="edge1" class="edge"><title>Node1&#45;&gt;Node2</title>
<path fill="none" stroke="midnightblue" d="M152.493,-140.93C130.263,-119.845 70.159,-62.8347 41.127,-35.297"/>
<polygon fill="midnightblue" stroke="midnightblue" points="43.1682,-32.409 33.5042,-28.0665 38.3509,-37.4878 43.1682,-32.409"/>
</g>
<!-- Node3 -->
<g id="node3" class="node"><title>Node3</title>
<polygon fill="none" stroke="#bfbfbf" points="68.8276,-10 68.8276,-28 123.172,-28 123.172,-10 68.8276,-10"/>
<text text-anchor="middle" x="96" y="-16" font-family="Helvetica,sans-Serif" font-size="10.00">iostream</text>
</g>
<!-- Node1&#45;&gt;Node3 -->
<g id="edge2" class="edge"><title>Node1&#45;&gt;Node3</title>
<path fill="none" stroke="midnightblue" d="M156.934,-140.93C146.538,-120.298 118.808,-65.2649 104.621,-37.1098"/>
<polygon fill="midnightblue" stroke="midnightblue" points="107.69,-35.4219 100.065,-28.0665 101.439,-38.5718 107.69,-35.4219"/>
</g>
<!-- Node4 -->
<g id="node4" class="node"><title>Node4</title>
<polygon fill="none" stroke="#bfbfbf" points="140.773,-10 140.773,-28 181.227,-28 181.227,-10 140.773,-10"/>
<text text-anchor="middle" x="161" y="-16" font-family="Helvetica,sans-Serif" font-size="10.00">string</text>
</g>
<!-- Node1&#45;&gt;Node4 -->
<g id="edge3" class="edge"><title>Node1&#45;&gt;Node4</title>
<path fill="none" stroke="midnightblue" d="M161,-140.93C161,-120.569 161,-66.7072 161,-38.235"/>
<polygon fill="midnightblue" stroke="midnightblue" points="164.5,-38.0664 161,-28.0665 157.5,-38.0665 164.5,-38.0664"/>
</g>
<!-- Node5 -->
<g id="node5" class="node"><title>Node5</title>
<polygon fill="none" stroke="#bfbfbf" points="199.384,-10 199.384,-28 242.616,-28 242.616,-10 199.384,-10"/>
<text text-anchor="middle" x="221" y="-16" font-family="Helvetica,sans-Serif" font-size="10.00">vector</text>
</g>
<!-- Node1&#45;&gt;Node5 -->
<g id="edge4" class="edge"><title>Node1&#45;&gt;Node5</title>
<path fill="none" stroke="midnightblue" d="M164.753,-140.93C174.308,-120.388 199.722,-65.747 212.869,-37.4819"/>
<polygon fill="midnightblue" stroke="midnightblue" points="216.204,-38.6098 217.248,-28.0665 209.857,-35.6576 216.204,-38.6098"/>
</g>
<!-- Node6 -->
<g id="node6" class="node"><title>Node6</title>
<g id="a_node6"><a xlink:href="infrastructure__macros_8h.html" target="_top" xlink:title="Various general useful macros for IMP. ">
<polygon fill="none" stroke="black" points="247.604,-75 247.604,-103 346.396,-103 346.396,-75 247.604,-75"/>
<text text-anchor="start" x="255.604" y="-91" font-family="Helvetica,sans-Serif" font-size="10.00">RMF/infrastructure</text>
<text text-anchor="middle" x="297" y="-81" font-family="Helvetica,sans-Serif" font-size="10.00">_macros.h</text>
</a>
</g>
</g>
<!-- Node1&#45;&gt;Node6 -->
<g id="edge5" class="edge"><title>Node1&#45;&gt;Node6</title>
<path fill="none" stroke="midnightblue" d="M179.625,-140.92C199.558,-132.273 231.771,-118.298 257.412,-107.174"/>
<polygon fill="midnightblue" stroke="midnightblue" points="259.098,-110.258 266.879,-103.067 256.312,-103.836 259.098,-110.258"/>
</g>
<!-- Node6&#45;&gt;Node2 -->
<g id="edge6" class="edge"><title>Node6&#45;&gt;Node2</title>
<path fill="none" stroke="midnightblue" d="M247.383,-81.4791C198.689,-74.168 122.804,-60.3196 60,-38 55.8714,-36.5327 51.6151,-34.6712 47.5541,-32.7048"/>
<polygon fill="midnightblue" stroke="midnightblue" points="49.0747,-29.5509 38.5848,-28.063 45.8572,-35.7677 49.0747,-29.5509"/>
</g>
<!-- Node6&#45;&gt;Node3 -->
<g id="edge7" class="edge"><title>Node6&#45;&gt;Node3</title>
<path fill="none" stroke="midnightblue" d="M247.519,-75.367C214.349,-66.3262 169.959,-53.1147 132,-38 127.983,-36.4005 123.805,-34.5227 119.778,-32.5945"/>
<polygon fill="midnightblue" stroke="midnightblue" points="121.314,-29.4493 110.804,-28.1113 118.185,-35.7114 121.314,-29.4493"/>
</g>
<!-- Node6&#45;&gt;Node4 -->
<g id="edge8" class="edge"><title>Node6&#45;&gt;Node4</title>
<path fill="none" stroke="midnightblue" d="M266.55,-74.9254C244.877,-65.3417 215.243,-51.6696 190,-38 187.362,-36.5715 184.633,-35.004 181.953,-33.4085"/>
<polygon fill="midnightblue" stroke="midnightblue" points="183.579,-30.2991 173.228,-28.0365 179.908,-36.2599 183.579,-30.2991"/>
</g>
<!-- Node6&#45;&gt;Node5 -->
<g id="edge11" class="edge"><title>Node6&#45;&gt;Node5</title>
<path fill="none" stroke="midnightblue" d="M282.346,-74.8889C269.63,-63.511 251.218,-47.0375 237.886,-35.1089"/>
<polygon fill="midnightblue" stroke="midnightblue" points="240.124,-32.4148 230.338,-28.3552 235.457,-37.6315 240.124,-32.4148"/>
</g>
<!-- Node7 -->
<g id="node7" class="node"><title>Node7</title>
<g id="a_node7"><a xlink:href="compiler__macros_8h.html" target="_top" xlink:title="Various compiler workarounds. ">
<polygon fill="none" stroke="black" points="593.544,-10 593.544,-28 718.456,-28 718.456,-10 593.544,-10"/>
<text text-anchor="middle" x="656" y="-16" font-family="Helvetica,sans-Serif" font-size="10.00">RMF/compiler_macros.h</text>
</a>
</g>
</g>
<!-- Node6&#45;&gt;Node7 -->
<g id="edge9" class="edge"><title>Node6&#45;&gt;Node7</title>
<path fill="none" stroke="midnightblue" d="M346.654,-80.5608C404.227,-71.6621 501.866,-55.7275 585,-38 595.26,-35.8121 606.281,-33.165 616.507,-30.5818"/>
<polygon fill="midnightblue" stroke="midnightblue" points="617.594,-33.9162 626.41,-28.0394 615.854,-27.1361 617.594,-33.9162"/>
</g>
<!-- Node8 -->
<g id="node8" class="node"><title>Node8</title>
<polygon fill="none" stroke="black" points="736,-1 736,-37 790,-37 790,-1 736,-1"/>
<text text-anchor="middle" x="762.734" y="-16" font-family="Helvetica,sans-Serif" font-size="10.00">Node8</text>
</g>
<!-- Node6&#45;&gt;Node8 -->
<g id="edge10" class="edge"><title>Node6&#45;&gt;Node8</title>
<path fill="none" stroke="midnightblue" d="M346.474,-87.7738C425.815,-86.224 585.992,-78.1983 726.251,-37.6289"/>
<polygon fill="midnightblue" stroke="midnightblue" points="727.289,-40.9719 735.887,-34.7806 725.305,-34.2591 727.289,-40.9719"/>
</g>
<!-- Node9 -->
<g id="node9" class="node"><title>Node9</title>
<polygon fill="none" stroke="#bfbfbf" points="260.306,-10 260.306,-28 349.694,-28 349.694,-10 260.306,-10"/>
<text text-anchor="middle" x="305" y="-16" font-family="Helvetica,sans-Serif" font-size="10.00">boost/config.hpp</text>
</g>
<!-- Node6&#45;&gt;Node9 -->
<g id="edge12" class="edge"><title>Node6&#45;&gt;Node9</title>
<path fill="none" stroke="midnightblue" d="M298.542,-74.8889C299.755,-64.5844 301.459,-50.1003 302.812,-38.5982"/>
<polygon fill="midnightblue" stroke="midnightblue" points="306.325,-38.6956 304.017,-28.3552 299.373,-37.8777 306.325,-38.6956"/>
</g>
<!-- Node10 -->
<g id="node10" class="node"><title>Node10</title>
<polygon fill="none" stroke="#bfbfbf" points="367.53,-10 367.53,-28 462.47,-28 462.47,-10 367.53,-10"/>
<text text-anchor="middle" x="415" y="-16" font-family="Helvetica,sans-Serif" font-size="10.00">boost/version.hpp</text>
</g>
<!-- Node6&#45;&gt;Node10 -->
<g id="edge13" class="edge"><title>Node6&#45;&gt;Node10</title>
<path fill="none" stroke="midnightblue" d="M319.752,-74.8889C340.543,-62.9074 371.14,-45.2752 392.007,-33.2502"/>
<polygon fill="midnightblue" stroke="midnightblue" points="393.923,-36.1857 400.84,-28.1601 390.428,-30.1207 393.923,-36.1857"/>
</g>
<!-- Node11 -->
<g id="node11" class="node"><title>Node11</title>
<polygon fill="none" stroke="#bfbfbf" points="479.971,-10 479.971,-28 576.029,-28 576.029,-10 479.971,-10"/>
<text text-anchor="middle" x="528" y="-16" font-family="Helvetica,sans-Serif" font-size="10.00">boost/foreach.hpp</text>
</g>
<!-- Node6&#45;&gt;Node11 -->
<g id="edge14" class="edge"><title>Node6&#45;&gt;Node11</title>
<path fill="none" stroke="midnightblue" d="M343.624,-74.9586C378.718,-65.0559 427.968,-50.975 471,-38 478.241,-35.8168 485.978,-33.418 493.342,-31.1031"/>
<polygon fill="midnightblue" stroke="midnightblue" points="494.593,-34.3787 503.072,-28.0268 492.482,-27.7044 494.593,-34.3787"/>
</g>
</g>
</svg>
