<?xml version="1.0" encoding="UTF-8" standalone="no"?>
<!DOCTYPE svg PUBLIC "-//W3C//DTD SVG 1.1//EN"
 "http://www.w3.org/Graphics/SVG/1.1/DTD/svg11.dtd">
<!-- Generated by graphviz version 2.34.0 (20131025.1349)
 -->
<!-- Title: infrastructure_macros.h Pages: 1 -->
<svg width="820pt" height="158pt"
 viewBox="0.00 0.00 820.00 158.00" xmlns="http://www.w3.org/2000/svg" xmlns:xlink="http://www.w3.org/1999/xlink">
<g id="graph0" class="graph" transform="scale(1 1) rotate(0) translate(4 154)">
<title>infrastructure_macros.h</title>
<!-- Node1 -->
<g id="node1" class="node"><title>Node1</title>
<polygon fill="#bfbfbf" stroke="black" points="100.48,-129 100.48,-149 221.52,-149 221.52,-129 100.48,-129"/>
<text text-anchor="middle" x="161" y="-135" font-family="Helvetica,sans-Serif" font-size="10.00">infrastructure_macros.h</text>
</g>
<!-- Node2 -->
<g id="node2" class="node"><title>Node2</title>
<polygon fill="none" stroke="#bfbfbf" points="-0.780762,-1 -0.780762,-21 50.7808,-21 50.7808,-1 -0.780762,-1"/>
<text text-anchor="middle" x="25" y="-7" font-family="Helvetica,sans-Serif" font-size="10.00">sstream</text>
</g>
<!-- Node1&#45;&gt;Node2 -->
<g id="edge1" class="edge"><title>Node1&#45;&gt;Node2</title>
<path fill="none" stroke="midnightblue" d="M151.219,-128.938C128.394,-107.791 71.3586,-54.9499 42.4234,-28.1422"/>
<polygon fill="midnightblue" stroke="midnightblue" points="44.7734,-25.5482 35.0591,-21.3195 40.016,-30.6832 44.7734,-25.5482"/>
</g>
<!-- Node3 -->
<g id="node3" class="node"><title>Node3</title>
<polygon fill="none" stroke="#bfbfbf" points="68.8276,-1 68.8276,-21 123.172,-21 123.172,-1 68.8276,-1"/>
<text text-anchor="middle" x="96" y="-7" font-family="Helvetica,sans-Serif" font-size="10.00">iostream</text>
</g>
<!-- Node1&#45;&gt;Node3 -->
<g id="edge2" class="edge"><title>Node1&#45;&gt;Node3</title>
<path fill="none" stroke="midnightblue" d="M156.325,-128.938C145.696,-108.334 119.544,-57.6389 105.417,-30.2547"/>
<polygon fill="midnightblue" stroke="midnightblue" points="108.503,-28.602 100.808,-21.3195 102.282,-31.8112 108.503,-28.602"/>
</g>
<!-- Node4 -->
<g id="node4" class="node"><title>Node4</title>
<polygon fill="none" stroke="#bfbfbf" points="140.773,-1 140.773,-21 181.227,-21 181.227,-1 140.773,-1"/>
<text text-anchor="middle" x="161" y="-7" font-family="Helvetica,sans-Serif" font-size="10.00">string</text>
</g>
<!-- Node1&#45;&gt;Node4 -->
<g id="edge3" class="edge"><title>Node1&#45;&gt;Node4</title>
<path fill="none" stroke="midnightblue" d="M161,-128.938C161,-108.605 161,-58.9677 161,-31.3477"/>
<polygon fill="midnightblue" stroke="midnightblue" points="164.5,-31.3194 161,-21.3195 157.5,-31.3195 164.5,-31.3194"/>
</g>
<!-- Node5 -->
<g id="node5" class="node"><title>Node5</title>
<polygon fill="none" stroke="#bfbfbf" points="199.384,-1 199.384,-21 242.616,-21 242.616,-1 199.384,-1"/>
<text text-anchor="middle" x="221" y="-7" font-family="Helvetica,sans-Serif" font-size="10.00">vector</text>
</g>
<!-- Node1&#45;&gt;Node5 -->
<g id="edge4" class="edge"><title>Node1&#45;&gt;Node5</title>
<path fill="none" stroke="midnightblue" d="M165.315,-128.938C175.084,-108.424 199.056,-58.083 212.135,-30.6164"/>
<polygon fill="midnightblue" stroke="midnightblue" points="215.423,-31.8529 216.562,-21.3195 209.103,-28.8433 215.423,-31.8529"/>
</g>
<!-- Node6 -->
<g id="node6" class="node"><title>Node6</title>
<g id="a_node6"><a xlink:href="infrastructure__macros_8h.html" target="_top" xlink:title="Various general useful macros for IMP. ">
<polygon fill="none" stroke="black" points="247.604,-59 247.604,-91 346.396,-91 346.396,-59 247.604,-59"/>
<text text-anchor="start" x="255.604" y="-77" font-family="Helvetica,sans-Serif" font-size="10.00">RMF/infrastructure</text>
<text text-anchor="middle" x="297" y="-65" font-family="Helvetica,sans-Serif" font-size="10.00">_macros.h</text>
</a>
</g>
</g>
<!-- Node1&#45;&gt;Node6 -->
<g id="edge5" class="edge"><title>Node1&#45;&gt;Node6</title>
<path fill="none" stroke="midnightblue" d="M180.776,-128.985C200.112,-120.17 230.166,-106.468 254.868,-95.207"/>
<polygon fill="midnightblue" stroke="midnightblue" points="256.393,-98.3586 264.04,-91.0258 253.489,-91.9893 256.393,-98.3586"/>
</g>
<!-- Node6&#45;&gt;Node2 -->
<g id="edge6" class="edge"><title>Node6&#45;&gt;Node2</title>
<path fill="none" stroke="midnightblue" d="M247.312,-64.0377C201.373,-54.6158 131.004,-39.6506 60.8413,-22.1007"/>
<polygon fill="midnightblue" stroke="midnightblue" points="61.4971,-18.6566 50.945,-19.6075 59.787,-25.4445 61.4971,-18.6566"/>
</g>
<!-- Node6&#45;&gt;Node3 -->
<g id="edge7" class="edge"><title>Node6&#45;&gt;Node3</title>
<path fill="none" stroke="midnightblue" d="M248.344,-58.9915C212.908,-48.0612 165.631,-33.4783 133.195,-23.473"/>
<polygon fill="midnightblue" stroke="midnightblue" points="133.806,-19.9989 123.219,-20.3959 131.743,-26.688 133.806,-19.9989"/>
</g>
<!-- Node6&#45;&gt;Node4 -->
<g id="edge8" class="edge"><title>Node6&#45;&gt;Node4</title>
<path fill="none" stroke="midnightblue" d="M264.078,-58.9915C241.582,-48.7357 212.031,-35.2642 190.34,-25.3756"/>
<polygon fill="midnightblue" stroke="midnightblue" points="191.531,-22.0722 180.981,-21.1088 188.628,-28.4416 191.531,-22.0722"/>
</g>
<!-- Node6&#45;&gt;Node5 -->
<g id="edge11" class="edge"><title>Node6&#45;&gt;Node5</title>
<path fill="none" stroke="midnightblue" d="M278.603,-58.9915C267.008,-49.5325 252.06,-37.3381 240.297,-27.7422"/>
<polygon fill="midnightblue" stroke="midnightblue" points="242.349,-24.8997 232.388,-21.2904 237.924,-30.3237 242.349,-24.8997"/>
</g>
<!-- Node7 -->
<g id="node7" class="node"><title>Node7</title>
<g id="a_node7"><a xlink:href="compiler__macros_8h.html" target="_top" xlink:title="Various compiler workarounds. ">
<polygon fill="none" stroke="black" points="593.544,-1 593.544,-21 718.456,-21 718.456,-1 593.544,-1"/>
<text text-anchor="middle" x="656" y="-7" font-family="Helvetica,sans-Serif" font-size="10.00">RMF/compiler_macros.h</text>
</a>
</g>
</g>
<!-- Node6&#45;&gt;Node7 -->
<g id="edge9" class="edge"><title>Node6&#45;&gt;Node7</title>
<path fill="none" stroke="midnightblue" d="M346.54,-65.4443C410.982,-54.3151 523.59,-34.8676 593.737,-22.7529"/>
<polygon fill="midnightblue" stroke="midnightblue" points="594.509,-26.1714 603.768,-21.0206 593.318,-19.2735 594.509,-26.1714"/>
</g>
<!-- Node8 -->
<g id="node8" class="node"><title>Node8</title>
<polygon fill="none" stroke="#bfbfbf" points="735.98,-1 735.98,-21 812.02,-21 812.02,-1 735.98,-1"/>
<text text-anchor="middle" x="774" y="-7" font-family="Helvetica,sans-Serif" font-size="10.00">internal/use.h</text>
</g>
<!-- Node6&#45;&gt;Node8 -->
<g id="edge10" class="edge"><title>Node6&#45;&gt;Node8</title>
<path fill="none" stroke="midnightblue" d="M346.539,-69.4606C424.885,-61.964 582.357,-45.6081 725.551,-22.1215"/>
<polygon fill="midnightblue" stroke="midnightblue" points="726.541,-25.5052 735.835,-20.4181 725.397,-18.5993 726.541,-25.5052"/>
</g>
<!-- Node9 -->
<g id="node9" class="node"><title>Node9</title>
<polygon fill="none" stroke="#bfbfbf" points="260.306,-1 260.306,-21 349.694,-21 349.694,-1 260.306,-1"/>
<text text-anchor="middle" x="305" y="-7" font-family="Helvetica,sans-Serif" font-size="10.00">boost/config.hpp</text>
</g>
<!-- Node6&#45;&gt;Node9 -->
<g id="edge12" class="edge"><title>Node6&#45;&gt;Node9</title>
<path fill="none" stroke="midnightblue" d="M298.937,-58.9915C300.003,-50.7264 301.339,-40.3728 302.485,-31.4891"/>
<polygon fill="midnightblue" stroke="midnightblue" points="305.993,-31.6561 303.801,-21.2904 299.05,-30.7603 305.993,-31.6561"/>
</g>
<!-- Node10 -->
<g id="node10" class="node"><title>Node10</title>
<polygon fill="none" stroke="#bfbfbf" points="367.53,-1 367.53,-21 462.47,-21 462.47,-1 367.53,-1"/>
<text text-anchor="middle" x="415" y="-7" font-family="Helvetica,sans-Serif" font-size="10.00">boost/version.hpp</text>
</g>
<!-- Node6&#45;&gt;Node10 -->
<g id="edge13" class="edge"><title>Node6&#45;&gt;Node10</title>
<path fill="none" stroke="midnightblue" d="M325.565,-58.9915C344.82,-48.8743 370.031,-35.6277 388.777,-25.7784"/>
<polygon fill="midnightblue" stroke="midnightblue" points="390.439,-28.8584 397.664,-21.1088 387.184,-22.6617 390.439,-28.8584"/>
</g>
<!-- Node11 -->
<g id="node11" class="node"><title>Node11</title>
<polygon fill="none" stroke="#bfbfbf" points="479.971,-1 479.971,-21 576.029,-21 576.029,-1 479.971,-1"/>
<text text-anchor="middle" x="528" y="-7" font-family="Helvetica,sans-Serif" font-size="10.00">boost/foreach.hpp</text>
</g>
<!-- Node6&#45;&gt;Node11 -->
<g id="edge14" class="edge"><title>Node6&#45;&gt;Node11</title>
<path fill="none" stroke="midnightblue" d="M346.555,-60.6994C387.532,-49.7015 445.161,-34.2338 484.403,-23.7014"/>
<polygon fill="midnightblue" stroke="midnightblue" points="485.459,-27.0419 494.21,-21.0693 483.644,-20.2812 485.459,-27.0419"/>
</g>
</g>
</svg>
