<?xml version="1.0" encoding="UTF-8" standalone="no"?>
<!DOCTYPE svg PUBLIC "-//W3C//DTD SVG 1.1//EN"
 "http://www.w3.org/Graphics/SVG/1.1/DTD/svg11.dtd">
<!-- Generated by graphviz version 2.36.0 (20140111.2315)
 -->
<!-- Title: ID.h Pages: 1 -->
<!--zoomable 214 -->
<svg id="main" version="1.1" xmlns="http://www.w3.org/2000/svg" xmlns:xlink="http://www.w3.org/1999/xlink" xml:space="preserve" onload="init(evt)">
<style type="text/css"><![CDATA[
.edge:hover path { stroke: red; }
.edge:hover polygon { stroke: red; fill: red; }
]]></style>
<script type="text/javascript"><![CDATA[
var edges = document.getElementsByTagName('g');
if (edges && edges.length) {
  for (var i=0;i<edges.length;i++) {
    if (edges[i].id.substr(0,4)=='edge') {
      edges[i].setAttribute('class','edge');
    }
  }
}
]]></script>
        <defs>
                <circle id="rim" cx="0" cy="0" r="7"/>
                <circle id="rim2" cx="0" cy="0" r="3.5"/>
                <g id="zoomPlus">
                        <use xlink:href="#rim" fill="#404040">
                                <set attributeName="fill" to="#808080" begin="zoomplus.mouseover" end="zoomplus.mouseout"/>
                        </use>
                        <path d="M-4,0h8M0,-4v8" fill="none" stroke="white" stroke-width="1.5" pointer-events="none"/>
                </g>
                <g id="zoomMin">
                        <use xlink:href="#rim" fill="#404040">
                                <set attributeName="fill" to="#808080" begin="zoomminus.mouseover" end="zoomminus.mouseout"/>
                        </use>
                        <path d="M-4,0h8" fill="none" stroke="white" stroke-width="1.5" pointer-events="none"/>
                </g>
                <g id="dirArrow">
                        <path fill="none" stroke="white" stroke-width="1.5" d="M0,-3.0v7 M-2.5,-0.5L0,-3.0L2.5,-0.5"/>
                </g>
               <g id="resetDef">
                       <use xlink:href="#rim2" fill="#404040">
                               <set attributeName="fill" to="#808080" begin="reset.mouseover" end="reset.mouseout"/>
                       </use>
               </g>
        </defs>

<script type="text/javascript">
var viewWidth = 1144;
var viewHeight = 214;
var sectionId = 'dynsection-0';
</script>
<script xlink:href="svgpan.js"/>
<svg id="graph" class="graph">
<g id="viewport">
<title>ID.h</title>
<!-- Node1 -->
<g id="node1" class="node"><title>Node1</title>
<polygon fill="#bfbfbf" stroke="black" points="468.83,-187 468.83,-205 503.17,-205 503.17,-187 468.83,-187"/>
<text text-anchor="middle" x="486" y="-193" font-family="Helvetica,sans-Serif" font-size="10.00">ID.h</text>
</g>
<!-- Node2 -->
<g id="node2" class="node"><title>Node2</title>
<g id="a_node2"><a xlink:href="config_8h_source.html" target="_top" xlink:title="RMF/config.h">
<polygon fill="none" stroke="black" points="-0.731445,-66 -0.731445,-84 74.7314,-84 74.7314,-66 -0.731445,-66"/>
<text text-anchor="middle" x="37" y="-72" font-family="Helvetica,sans-Serif" font-size="10.00">RMF/config.h</text>
</a>
</g>
</g>
<!-- Node1&#45;&gt;Node2 -->
<g id="edge1" class="edge"><title>Node1&#45;&gt;Node2</title>
<path fill="none" stroke="midnightblue" d="M468.695,-191.55C433.779,-184.496 352.475,-167.597 285,-150 208.082,-129.94 119.035,-102.265 71.3577,-87.0797"/>
<polygon fill="midnightblue" stroke="midnightblue" points="72.422,-83.7455 61.8312,-84.0363 70.2918,-90.4135 72.422,-83.7455"/>
</g>
<!-- Node4 -->
<g id="node4" class="node"><title>Node4</title>
<g id="a_node4"><a xlink:href="infrastructure__macros_8h.html" target="_top" xlink:title="Various general useful macros for IMP. ">
<polygon fill="none" stroke="black" points="581.48,-131 581.48,-149 702.52,-149 702.52,-131 581.48,-131"/>
<text text-anchor="middle" x="642" y="-137" font-family="Helvetica,sans-Serif" font-size="10.00">infrastructure_macros.h</text>
</a>
</g>
</g>
<!-- Node1&#45;&gt;Node4 -->
<g id="edge3" class="edge"><title>Node1&#45;&gt;Node4</title>
<path fill="none" stroke="midnightblue" d="M503.291,-189.015C528.812,-180.18 577.028,-163.49 609.34,-152.305"/>
<polygon fill="midnightblue" stroke="midnightblue" points="610.51,-155.604 618.815,-149.026 608.22,-148.989 610.51,-155.604"/>
</g>
<!-- Node13 -->
<g id="node13" class="node"><title>Node13</title>
<g id="a_node13"><a xlink:href="exceptions_8h.html" target="_top" xlink:title="Declarations of the various exception types. ">
<polygon fill="none" stroke="black" points="293.926,-131 293.926,-149 366.074,-149 366.074,-131 293.926,-131"/>
<text text-anchor="middle" x="330" y="-137" font-family="Helvetica,sans-Serif" font-size="10.00">exceptions.h</text>
</a>
</g>
</g>
<!-- Node1&#45;&gt;Node13 -->
<g id="edge13" class="edge"><title>Node1&#45;&gt;Node13</title>
<path fill="none" stroke="midnightblue" d="M468.709,-189.015C443.188,-180.18 394.972,-163.49 362.66,-152.305"/>
<polygon fill="midnightblue" stroke="midnightblue" points="363.78,-148.989 353.185,-149.026 361.49,-155.604 363.78,-148.989"/>
</g>
<!-- Node17 -->
<g id="node17" class="node"><title>Node17</title>
<polygon fill="none" stroke="#bfbfbf" points="720.613,-131 720.613,-149 759.387,-149 759.387,-131 720.613,-131"/>
<text text-anchor="middle" x="740" y="-137" font-family="Helvetica,sans-Serif" font-size="10.00">limits</text>
</g>
<!-- Node1&#45;&gt;Node17 -->
<g id="edge20" class="edge"><title>Node1&#45;&gt;Node17</title>
<path fill="none" stroke="midnightblue" d="M503.356,-192.16C539.853,-186.056 627.358,-170.727 710.563,-149.879"/>
<polygon fill="midnightblue" stroke="midnightblue" points="711.591,-153.229 720.423,-147.377 709.869,-146.444 711.591,-153.229"/>
</g>
<!-- Node3 -->
<g id="node3" class="node"><title>Node3</title>
<g id="a_node3"><a xlink:href="compiler__macros_8h.html" target="_top" xlink:title="Various compiler workarounds. ">
<polygon fill="none" stroke="black" points="40.5444,-1 40.5444,-19 165.456,-19 165.456,-1 40.5444,-1"/>
<text text-anchor="middle" x="103" y="-7" font-family="Helvetica,sans-Serif" font-size="10.00">RMF/compiler_macros.h</text>
</a>
</g>
</g>
<!-- Node2&#45;&gt;Node3 -->
<g id="edge2" class="edge"><title>Node2&#45;&gt;Node3</title>
<path fill="none" stroke="midnightblue" d="M45.6283,-65.7639C56.161,-55.7099 74.1778,-38.5121 87.2154,-26.0672"/>
<polygon fill="midnightblue" stroke="midnightblue" points="89.7613,-28.4755 94.5782,-19.039 84.928,-23.412 89.7613,-28.4755"/>
</g>
<!-- Node4&#45;&gt;Node3 -->
<g id="edge7" class="edge"><title>Node4&#45;&gt;Node3</title>
<path fill="none" stroke="midnightblue" d="M615.317,-130.869C592.981,-123.337 560.861,-110.77 536,-94 516.199,-80.6435 519.513,-66.3764 498,-56 442.762,-29.3566 273.868,-18.019 175.733,-13.5762"/>
<polygon fill="midnightblue" stroke="midnightblue" points="175.732,-10.0729 165.588,-13.1301 175.424,-17.0662 175.732,-10.0729"/>
</g>
<!-- Node5 -->
<g id="node5" class="node"><title>Node5</title>
<polygon fill="none" stroke="#bfbfbf" points="545.219,-66 545.219,-84 596.781,-84 596.781,-66 545.219,-66"/>
<text text-anchor="middle" x="571" y="-72" font-family="Helvetica,sans-Serif" font-size="10.00">sstream</text>
</g>
<!-- Node4&#45;&gt;Node5 -->
<g id="edge4" class="edge"><title>Node4&#45;&gt;Node5</title>
<path fill="none" stroke="midnightblue" d="M632.718,-130.764C621.28,-120.615 601.639,-103.187 587.585,-90.7162"/>
<polygon fill="midnightblue" stroke="midnightblue" points="589.863,-88.0581 580.06,-84.039 585.217,-93.2941 589.863,-88.0581"/>
</g>
<!-- Node6 -->
<g id="node6" class="node"><title>Node6</title>
<polygon fill="none" stroke="#bfbfbf" points="614.828,-66 614.828,-84 669.172,-84 669.172,-66 614.828,-66"/>
<text text-anchor="middle" x="642" y="-72" font-family="Helvetica,sans-Serif" font-size="10.00">iostream</text>
</g>
<!-- Node4&#45;&gt;Node6 -->
<g id="edge5" class="edge"><title>Node4&#45;&gt;Node6</title>
<path fill="none" stroke="midnightblue" d="M642,-130.764C642,-121.564 642,-106.381 642,-94.3326"/>
<polygon fill="midnightblue" stroke="midnightblue" points="645.5,-94.0389 642,-84.039 638.5,-94.039 645.5,-94.0389"/>
</g>
<!-- Node7 -->
<g id="node7" class="node"><title>Node7</title>
<polygon fill="none" stroke="#bfbfbf" points="448.773,-66 448.773,-84 489.227,-84 489.227,-66 448.773,-66"/>
<text text-anchor="middle" x="469" y="-72" font-family="Helvetica,sans-Serif" font-size="10.00">string</text>
</g>
<!-- Node4&#45;&gt;Node7 -->
<g id="edge6" class="edge"><title>Node4&#45;&gt;Node7</title>
<path fill="none" stroke="midnightblue" d="M612.171,-130.973C583.649,-122.919 539.68,-109.508 503,-94 499.405,-92.4801 495.68,-90.7162 492.071,-88.8988"/>
<polygon fill="midnightblue" stroke="midnightblue" points="493.437,-85.6627 482.959,-84.0943 490.172,-91.8546 493.437,-85.6627"/>
</g>
<!-- Node8 -->
<g id="node8" class="node"><title>Node8</title>
<polygon fill="none" stroke="black" points="687,-57 687,-93 741,-93 741,-57 687,-57"/>
<text text-anchor="middle" x="713.734" y="-72" font-family="Helvetica,sans-Serif" font-size="10.00">Node8</text>
</g>
<!-- Node4&#45;&gt;Node8 -->
<g id="edge8" class="edge"><title>Node4&#45;&gt;Node8</title>
<path fill="none" stroke="midnightblue" d="M651.413,-130.764C660.441,-122.864 674.509,-110.555 687.023,-99.6051"/>
<polygon fill="midnightblue" stroke="midnightblue" points="689.333,-102.234 694.554,-93.015 684.724,-96.966 689.333,-102.234"/>
</g>
<!-- Node9 -->
<g id="node9" class="node"><title>Node9</title>
<polygon fill="none" stroke="#bfbfbf" points="759.384,-66 759.384,-84 802.616,-84 802.616,-66 759.384,-66"/>
<text text-anchor="middle" x="781" y="-72" font-family="Helvetica,sans-Serif" font-size="10.00">vector</text>
</g>
<!-- Node4&#45;&gt;Node9 -->
<g id="edge9" class="edge"><title>Node4&#45;&gt;Node9</title>
<path fill="none" stroke="midnightblue" d="M663.889,-130.854C685.976,-122.409 720.884,-108.441 750,-94 753.011,-92.5068 756.131,-90.8426 759.18,-89.146"/>
<polygon fill="midnightblue" stroke="midnightblue" points="761.02,-92.1252 767.934,-84.0977 757.523,-86.0611 761.02,-92.1252"/>
</g>
<!-- Node10 -->
<g id="node10" class="node"><title>Node10</title>
<polygon fill="none" stroke="#bfbfbf" points="820.306,-66 820.306,-84 909.694,-84 909.694,-66 820.306,-66"/>
<text text-anchor="middle" x="865" y="-72" font-family="Helvetica,sans-Serif" font-size="10.00">boost/config.hpp</text>
</g>
<!-- Node4&#45;&gt;Node10 -->
<g id="edge10" class="edge"><title>Node4&#45;&gt;Node10</title>
<path fill="none" stroke="midnightblue" d="M674.565,-130.962C708.72,-122.384 763.88,-108.112 811,-94 817.869,-91.9427 825.183,-89.6055 832.137,-87.3124"/>
<polygon fill="midnightblue" stroke="midnightblue" points="833.601,-90.5132 841.975,-84.022 831.381,-83.8747 833.601,-90.5132"/>
</g>
<!-- Node11 -->
<g id="node11" class="node"><title>Node11</title>
<polygon fill="none" stroke="#bfbfbf" points="927.53,-66 927.53,-84 1022.47,-84 1022.47,-66 927.53,-66"/>
<text text-anchor="middle" x="975" y="-72" font-family="Helvetica,sans-Serif" font-size="10.00">boost/version.hpp</text>
</g>
<!-- Node4&#45;&gt;Node11 -->
<g id="edge11" class="edge"><title>Node4&#45;&gt;Node11</title>
<path fill="none" stroke="midnightblue" d="M697.046,-130.988C765.143,-120.908 877.088,-103.741 918,-94 926.021,-92.0902 934.554,-89.632 942.508,-87.1497"/>
<polygon fill="midnightblue" stroke="midnightblue" points="943.745,-90.4283 952.192,-84.0322 941.6,-83.7651 943.745,-90.4283"/>
</g>
<!-- Node12 -->
<g id="node12" class="node"><title>Node12</title>
<polygon fill="none" stroke="#bfbfbf" points="1039.97,-66 1039.97,-84 1136.03,-84 1136.03,-66 1039.97,-66"/>
<text text-anchor="middle" x="1088" y="-72" font-family="Helvetica,sans-Serif" font-size="10.00">boost/foreach.hpp</text>
</g>
<!-- Node4&#45;&gt;Node12 -->
<g id="edge12" class="edge"><title>Node4&#45;&gt;Node12</title>
<path fill="none" stroke="midnightblue" d="M702.699,-131.137C705.844,-130.748 708.959,-130.367 712,-130 853.65,-112.902 891.431,-123.621 1031,-94 1039.37,-92.2233 1048.26,-89.7233 1056.47,-87.1504"/>
<polygon fill="midnightblue" stroke="midnightblue" points="1057.65,-90.4492 1066.07,-84.0196 1055.48,-83.7945 1057.65,-90.4492"/>
</g>
<!-- Node13&#45;&gt;Node2 -->
<g id="edge17" class="edge"><title>Node13&#45;&gt;Node2</title>
<path fill="none" stroke="midnightblue" d="M293.697,-133.943C246.199,-126.937 160.592,-112.962 89,-94 82.0507,-92.1594 74.6939,-89.8456 67.7695,-87.4958"/>
<polygon fill="midnightblue" stroke="midnightblue" points="68.6266,-84.0874 58.0318,-84.0783 66.3085,-90.6924 68.6266,-84.0874"/>
</g>
<!-- Node13&#45;&gt;Node3 -->
<g id="edge18" class="edge"><title>Node13&#45;&gt;Node3</title>
<path fill="none" stroke="midnightblue" d="M293.903,-135.817C240.956,-130.406 145.916,-117.631 122,-94 104.933,-77.1357 101.87,-48.2906 101.914,-29.4366"/>
<polygon fill="midnightblue" stroke="midnightblue" points="105.42,-29.2928 102.245,-19.1848 98.424,-29.0665 105.42,-29.2928"/>
</g>
<!-- Node13&#45;&gt;Node7 -->
<g id="edge16" class="edge"><title>Node13&#45;&gt;Node7</title>
<path fill="none" stroke="midnightblue" d="M352.824,-130.937C375.422,-122.661 410.779,-108.914 440,-94 442.672,-92.6363 445.421,-91.108 448.113,-89.5336"/>
<polygon fill="midnightblue" stroke="midnightblue" points="450.152,-92.3886 456.845,-84.1752 446.491,-86.4224 450.152,-92.3886"/>
</g>
<!-- Node14 -->
<g id="node14" class="node"><title>Node14</title>
<polygon fill="none" stroke="#bfbfbf" points="131.451,-66 131.451,-84 282.549,-84 282.549,-66 131.451,-66"/>
<text text-anchor="middle" x="207" y="-72" font-family="Helvetica,sans-Serif" font-size="10.00">boost/exception/exception.hpp</text>
</g>
<!-- Node13&#45;&gt;Node14 -->
<g id="edge14" class="edge"><title>Node13&#45;&gt;Node14</title>
<path fill="none" stroke="midnightblue" d="M314.172,-130.893C293.322,-120.214 256.427,-101.316 231.841,-88.7237"/>
<polygon fill="midnightblue" stroke="midnightblue" points="233.264,-85.5197 222.768,-84.0761 230.072,-91.75 233.264,-85.5197"/>
</g>
<!-- Node15 -->
<g id="node15" class="node"><title>Node15</title>
<polygon fill="none" stroke="#bfbfbf" points="300.596,-66 300.596,-84 359.404,-84 359.404,-66 300.596,-66"/>
<text text-anchor="middle" x="330" y="-72" font-family="Helvetica,sans-Serif" font-size="10.00">exception</text>
</g>
<!-- Node13&#45;&gt;Node15 -->
<g id="edge15" class="edge"><title>Node13&#45;&gt;Node15</title>
<path fill="none" stroke="midnightblue" d="M330,-130.764C330,-121.564 330,-106.381 330,-94.3326"/>
<polygon fill="midnightblue" stroke="midnightblue" points="333.5,-94.0389 330,-84.039 326.5,-94.039 333.5,-94.0389"/>
</g>
<!-- Node16 -->
<g id="node16" class="node"><title>Node16</title>
<polygon fill="none" stroke="black" points="377,-57 377,-93 431,-93 431,-57 377,-57"/>
<text text-anchor="middle" x="403.515" y="-72" font-family="Helvetica,sans-Serif" font-size="10.00">Node16</text>
</g>
<!-- Node13&#45;&gt;Node16 -->
<g id="edge19" class="edge"><title>Node13&#45;&gt;Node16</title>
<path fill="none" stroke="midnightblue" d="M339.674,-130.764C348.953,-122.864 363.412,-110.555 376.273,-99.6051"/>
<polygon fill="midnightblue" stroke="midnightblue" points="378.669,-102.162 384.014,-93.015 374.131,-96.8325 378.669,-102.162"/>
</g>
</g>
</svg>
        <g id="navigator" transform="translate(0 0)" fill="#404254">
                <rect fill="#f2f5e9" fill-opacity="0.5" stroke="#606060" stroke-width=".5" x="0" y="0" width="60" height="60"/>
                <use id="zoomplus" xlink:href="#zoomPlus" x="17" y="9" onmousedown="handleZoom(evt,'in')"/>
                <use id="zoomminus" xlink:href="#zoomMin" x="42" y="9" onmousedown="handleZoom(evt,'out')"/>
                <use id="reset" xlink:href="#resetDef" x="30" y="36" onmousedown="handleReset()"/>
                <g id="arrowUp" xlink:href="#dirArrow" transform="translate(30 24)" onmousedown="handlePan(0,-1)">
                  <use xlink:href="#rim" fill="#404040">
                        <set attributeName="fill" to="#808080" begin="arrowUp.mouseover" end="arrowUp.mouseout"/>
                  </use>
                  <path fill="none" stroke="white" stroke-width="1.5" d="M0,-3.0v7 M-2.5,-0.5L0,-3.0L2.5,-0.5"/>
                </g>
                <g id="arrowRight" xlink:href="#dirArrow" transform="rotate(90) translate(36 -43)" onmousedown="handlePan(1,0)">
                  <use xlink:href="#rim" fill="#404040">
                        <set attributeName="fill" to="#808080" begin="arrowRight.mouseover" end="arrowRight.mouseout"/>
                  </use>
                  <path fill="none" stroke="white" stroke-width="1.5" d="M0,-3.0v7 M-2.5,-0.5L0,-3.0L2.5,-0.5"/>
                </g>
                <g id="arrowDown" xlink:href="#dirArrow" transform="rotate(180) translate(-30 -48)" onmousedown="handlePan(0,1)">
                  <use xlink:href="#rim" fill="#404040">
                        <set attributeName="fill" to="#808080" begin="arrowDown.mouseover" end="arrowDown.mouseout"/>
                  </use>
                  <path fill="none" stroke="white" stroke-width="1.5" d="M0,-3.0v7 M-2.5,-0.5L0,-3.0L2.5,-0.5"/>
                </g>
                <g id="arrowLeft" xlink:href="#dirArrow" transform="rotate(270) translate(-36 17)" onmousedown="handlePan(-1,0)">
                  <use xlink:href="#rim" fill="#404040">
                        <set attributeName="fill" to="#808080" begin="arrowLeft.mouseover" end="arrowLeft.mouseout"/>
                  </use>
                  <path fill="none" stroke="white" stroke-width="1.5" d="M0,-3.0v7 M-2.5,-0.5L0,-3.0L2.5,-0.5"/>
                </g>
        </g>
        <svg viewBox="0 0 15 15" width="100%" height="30px" preserveAspectRatio="xMaxYMin meet">
         <g id="arrow_out" transform="scale(0.3 0.3)">
          <a xlink:href="ID_8h__incl_org.svg" target="_base">
           <rect id="button" ry="5" rx="5" y="6" x="6" height="38" width="38"
                fill="#f2f5e9" fill-opacity="0.5" stroke="#606060" stroke-width="1.0"/>
           <path id="arrow"
             d="M 11.500037,31.436501 C 11.940474,20.09759 22.043105,11.32322 32.158766,21.979434 L 37.068811,17.246167 C 37.068811,17.246167 37.088388,32 37.088388,32 L 22.160133,31.978069 C 22.160133,31.978069 26.997745,27.140456 26.997745,27.140456 C 18.528582,18.264221 13.291696,25.230495 11.500037,31.436501 z"
             style="fill:#404040;"/>
          </a>
         </g>
        </svg>
</svg>
