<?xml version="1.0" encoding="UTF-8" standalone="no"?>
<!DOCTYPE svg PUBLIC "-//W3C//DTD SVG 1.1//EN"
 "http://www.w3.org/Graphics/SVG/1.1/DTD/svg11.dtd">
<!-- Generated by graphviz version 2.36.0 (20140111.2315)
 -->
<!-- Title: ID.h Pages: 1 -->
<svg width="1001pt" height="196pt"
 viewBox="0.00 0.00 1001.00 196.00" xmlns="http://www.w3.org/2000/svg" xmlns:xlink="http://www.w3.org/1999/xlink">
<g id="graph0" class="graph" transform="scale(1 1) rotate(0) translate(4 192)">
<title>ID.h</title>
<!-- Node1 -->
<g id="node1" class="node"><title>Node1</title>
<polygon fill="#bfbfbf" stroke="black" points="383.83,-169 383.83,-187 418.17,-187 418.17,-169 383.83,-169"/>
<text text-anchor="middle" x="401" y="-175" font-family="Helvetica,sans-Serif" font-size="10.00">ID.h</text>
</g>
<!-- Node2 -->
<g id="node2" class="node"><title>Node2</title>
<g id="a_node2"><a xlink:href="config_8h_source.html" target="_top" xlink:title="RMF/config.h">
<polygon fill="none" stroke="black" points="-0.731445,-57 -0.731445,-75 74.7314,-75 74.7314,-57 -0.731445,-57"/>
<text text-anchor="middle" x="37" y="-63" font-family="Helvetica,sans-Serif" font-size="10.00">RMF/config.h</text>
</a>
</g>
</g>
<!-- Node1&#45;&gt;Node2 -->
<g id="edge1" class="edge"><title>Node1&#45;&gt;Node2</title>
<path fill="none" stroke="midnightblue" d="M383.678,-173.159C351.693,-165.947 281.306,-149.52 223,-132 167.603,-115.354 104.234,-92.3374 67.596,-78.6299"/>
<polygon fill="midnightblue" stroke="midnightblue" points="68.5921,-75.2653 58,-75.0236 66.1295,-81.8178 68.5921,-75.2653"/>
</g>
<!-- Node4 -->
<g id="node4" class="node"><title>Node4</title>
<g id="a_node4"><a xlink:href="infrastructure__macros_8h.html" target="_top" xlink:title="Various general useful macros for IMP. ">
<polygon fill="none" stroke="black" points="474.48,-113 474.48,-131 595.52,-131 595.52,-113 474.48,-113"/>
<text text-anchor="middle" x="535" y="-119" font-family="Helvetica,sans-Serif" font-size="10.00">infrastructure_macros.h</text>
</a>
</g>
</g>
<!-- Node1&#45;&gt;Node4 -->
<g id="edge3" class="edge"><title>Node1&#45;&gt;Node4</title>
<path fill="none" stroke="midnightblue" d="M418.244,-170.051C440.181,-161.21 478.423,-145.8 505.142,-135.032"/>
<polygon fill="midnightblue" stroke="midnightblue" points="506.794,-138.14 514.761,-131.156 504.177,-131.648 506.794,-138.14"/>
</g>
<!-- Node13 -->
<g id="node12" class="node"><title>Node13</title>
<g id="a_node12"><a xlink:href="exceptions_8h.html" target="_top" xlink:title="Declarations of the various exception types. ">
<polygon fill="none" stroke="black" points="231.926,-113 231.926,-131 304.074,-131 304.074,-113 231.926,-113"/>
<text text-anchor="middle" x="268" y="-119" font-family="Helvetica,sans-Serif" font-size="10.00">exceptions.h</text>
</a>
</g>
</g>
<!-- Node1&#45;&gt;Node13 -->
<g id="edge12" class="edge"><title>Node1&#45;&gt;Node13</title>
<path fill="none" stroke="midnightblue" d="M383.613,-169.94C361.76,-161.068 323.921,-145.705 297.505,-134.979"/>
<polygon fill="midnightblue" stroke="midnightblue" points="298.579,-131.638 287.997,-131.119 295.946,-138.124 298.579,-131.638"/>
</g>
<!-- Node17 -->
<g id="node15" class="node"><title>Node17</title>
<polygon fill="none" stroke="#bfbfbf" points="613.613,-113 613.613,-131 652.387,-131 652.387,-113 613.613,-113"/>
<text text-anchor="middle" x="633" y="-119" font-family="Helvetica,sans-Serif" font-size="10.00">limits</text>
</g>
<!-- Node1&#45;&gt;Node17 -->
<g id="edge18" class="edge"><title>Node1&#45;&gt;Node17</title>
<path fill="none" stroke="midnightblue" d="M418.226,-173.683C451.862,-167.1 528.795,-151.528 603.38,-131.978"/>
<polygon fill="midnightblue" stroke="midnightblue" points="604.638,-135.266 613.408,-129.321 602.845,-128.499 604.638,-135.266"/>
</g>
<!-- Node3 -->
<g id="node3" class="node"><title>Node3</title>
<g id="a_node3"><a xlink:href="compiler__macros_8h.html" target="_top" xlink:title="Various compiler workarounds. ">
<polygon fill="none" stroke="black" points="40.5444,-1 40.5444,-19 165.456,-19 165.456,-1 40.5444,-1"/>
<text text-anchor="middle" x="103" y="-7" font-family="Helvetica,sans-Serif" font-size="10.00">RMF/compiler_macros.h</text>
</a>
</g>
</g>
<!-- Node2&#45;&gt;Node3 -->
<g id="edge2" class="edge"><title>Node2&#45;&gt;Node3</title>
<path fill="none" stroke="midnightblue" d="M47.024,-56.7986C57.1031,-48.552 72.859,-35.6608 85.0902,-25.6535"/>
<polygon fill="midnightblue" stroke="midnightblue" points="87.3584,-28.3199 92.8817,-19.2786 82.9257,-22.9022 87.3584,-28.3199"/>
</g>
<!-- Node4&#45;&gt;Node3 -->
<g id="edge7" class="edge"><title>Node4&#45;&gt;Node3</title>
<path fill="none" stroke="midnightblue" d="M522.054,-112.806C495.639,-96.1478 437.161,-59.5932 427,-56 343.989,-26.6461 242.687,-16.342 175.697,-12.78"/>
<polygon fill="midnightblue" stroke="midnightblue" points="175.819,-9.28188 165.658,-12.2831 175.473,-16.2733 175.819,-9.28188"/>
</g>
<!-- Node5 -->
<g id="node5" class="node"><title>Node5</title>
<polygon fill="none" stroke="#bfbfbf" points="474.219,-57 474.219,-75 525.781,-75 525.781,-57 474.219,-57"/>
<text text-anchor="middle" x="500" y="-63" font-family="Helvetica,sans-Serif" font-size="10.00">sstream</text>
</g>
<!-- Node4&#45;&gt;Node5 -->
<g id="edge4" class="edge"><title>Node4&#45;&gt;Node5</title>
<path fill="none" stroke="midnightblue" d="M529.531,-112.562C524.571,-104.909 517.111,-93.3999 510.93,-83.8638"/>
<polygon fill="midnightblue" stroke="midnightblue" points="513.692,-81.6893 505.316,-75.2014 507.818,-85.4966 513.692,-81.6893"/>
</g>
<!-- Node6 -->
<g id="node6" class="node"><title>Node6</title>
<polygon fill="none" stroke="#bfbfbf" points="543.828,-57 543.828,-75 598.172,-75 598.172,-57 543.828,-57"/>
<text text-anchor="middle" x="571" y="-63" font-family="Helvetica,sans-Serif" font-size="10.00">iostream</text>
</g>
<!-- Node4&#45;&gt;Node6 -->
<g id="edge5" class="edge"><title>Node4&#45;&gt;Node6</title>
<path fill="none" stroke="midnightblue" d="M540.625,-112.562C545.78,-104.83 553.56,-93.1597 559.956,-83.5665"/>
<polygon fill="midnightblue" stroke="midnightblue" points="562.898,-85.4634 565.532,-75.2014 557.073,-81.5805 562.898,-85.4634"/>
</g>
<!-- Node7 -->
<g id="node7" class="node"><title>Node7</title>
<polygon fill="none" stroke="#bfbfbf" points="377.773,-57 377.773,-75 418.227,-75 418.227,-57 377.773,-57"/>
<text text-anchor="middle" x="398" y="-63" font-family="Helvetica,sans-Serif" font-size="10.00">string</text>
</g>
<!-- Node4&#45;&gt;Node7 -->
<g id="edge6" class="edge"><title>Node4&#45;&gt;Node7</title>
<path fill="none" stroke="midnightblue" d="M514.49,-112.916C491.588,-103.889 454.305,-89.1931 428.099,-78.8637"/>
<polygon fill="midnightblue" stroke="midnightblue" points="429.237,-75.5505 418.65,-75.1396 426.67,-82.0629 429.237,-75.5505"/>
</g>
<!-- Node9 -->
<g id="node8" class="node"><title>Node9</title>
<polygon fill="none" stroke="#bfbfbf" points="616.384,-57 616.384,-75 659.616,-75 659.616,-57 616.384,-57"/>
<text text-anchor="middle" x="638" y="-63" font-family="Helvetica,sans-Serif" font-size="10.00">vector</text>
</g>
<!-- Node4&#45;&gt;Node9 -->
<g id="edge8" class="edge"><title>Node4&#45;&gt;Node9</title>
<path fill="none" stroke="midnightblue" d="M550.643,-112.799C567.377,-104.026 594.137,-89.9959 613.635,-79.7741"/>
<polygon fill="midnightblue" stroke="midnightblue" points="615.315,-82.8448 622.547,-75.1017 612.065,-76.6452 615.315,-82.8448"/>
</g>
<!-- Node10 -->
<g id="node9" class="node"><title>Node10</title>
<polygon fill="none" stroke="#bfbfbf" points="677.306,-57 677.306,-75 766.694,-75 766.694,-57 677.306,-57"/>
<text text-anchor="middle" x="722" y="-63" font-family="Helvetica,sans-Serif" font-size="10.00">boost/config.hpp</text>
</g>
<!-- Node4&#45;&gt;Node10 -->
<g id="edge9" class="edge"><title>Node4&#45;&gt;Node10</title>
<path fill="none" stroke="midnightblue" d="M562.996,-112.916C595.313,-103.584 648.61,-88.1927 684.492,-77.8312"/>
<polygon fill="midnightblue" stroke="midnightblue" points="685.482,-81.1883 694.119,-75.0513 683.54,-74.4631 685.482,-81.1883"/>
</g>
<!-- Node11 -->
<g id="node10" class="node"><title>Node11</title>
<polygon fill="none" stroke="#bfbfbf" points="784.53,-57 784.53,-75 879.47,-75 879.47,-57 784.53,-57"/>
<text text-anchor="middle" x="832" y="-63" font-family="Helvetica,sans-Serif" font-size="10.00">boost/version.hpp</text>
</g>
<!-- Node4&#45;&gt;Node11 -->
<g id="edge10" class="edge"><title>Node4&#45;&gt;Node11</title>
<path fill="none" stroke="midnightblue" d="M579.143,-112.974C632.04,-103.356 720.657,-87.2443 777.696,-76.8734"/>
<polygon fill="midnightblue" stroke="midnightblue" points="778.402,-80.3026 787.614,-75.0701 777.15,-73.4155 778.402,-80.3026"/>
</g>
<!-- Node12 -->
<g id="node11" class="node"><title>Node12</title>
<polygon fill="none" stroke="#bfbfbf" points="896.971,-57 896.971,-75 993.029,-75 993.029,-57 896.971,-57"/>
<text text-anchor="middle" x="945" y="-63" font-family="Helvetica,sans-Serif" font-size="10.00">boost/foreach.hpp</text>
</g>
<!-- Node4&#45;&gt;Node12 -->
<g id="edge11" class="edge"><title>Node4&#45;&gt;Node12</title>
<path fill="none" stroke="midnightblue" d="M595.706,-113.19C598.849,-112.787 601.962,-112.389 605,-112 727.574,-96.3241 760.806,-94.0013 886.776,-76.1408"/>
<polygon fill="midnightblue" stroke="midnightblue" points="887.406,-79.5865 896.813,-74.7128 886.42,-72.6563 887.406,-79.5865"/>
</g>
<!-- Node13&#45;&gt;Node2 -->
<g id="edge16" class="edge"><title>Node13&#45;&gt;Node2</title>
<path fill="none" stroke="midnightblue" d="M233.666,-112.974C193.206,-103.516 125.876,-87.7762 81.4606,-77.3934"/>
<polygon fill="midnightblue" stroke="midnightblue" points="82.0563,-73.9383 71.5221,-75.0701 80.4628,-80.7546 82.0563,-73.9383"/>
</g>
<!-- Node13&#45;&gt;Node3 -->
<g id="edge17" class="edge"><title>Node13&#45;&gt;Node3</title>
<path fill="none" stroke="midnightblue" d="M231.866,-119.256C198.906,-115.734 151.044,-105.471 122,-76 109.888,-63.71 105.419,-44.1479 103.81,-29.6912"/>
<polygon fill="midnightblue" stroke="midnightblue" points="107.279,-29.1392 103.042,-19.4284 100.298,-29.6618 107.279,-29.1392"/>
</g>
<!-- Node13&#45;&gt;Node7 -->
<g id="edge15" class="edge"><title>Node13&#45;&gt;Node7</title>
<path fill="none" stroke="midnightblue" d="M287.462,-112.916C309.098,-103.929 344.261,-89.3225 369.11,-79.0005"/>
<polygon fill="midnightblue" stroke="midnightblue" points="370.512,-82.208 378.405,-75.1396 367.827,-75.7435 370.512,-82.208"/>
</g>
<!-- Node14 -->
<g id="node13" class="node"><title>Node14</title>
<polygon fill="none" stroke="#bfbfbf" points="131.451,-57 131.451,-75 282.549,-75 282.549,-57 131.451,-57"/>
<text text-anchor="middle" x="207" y="-63" font-family="Helvetica,sans-Serif" font-size="10.00">boost/exception/exception.hpp</text>
</g>
<!-- Node13&#45;&gt;Node14 -->
<g id="edge13" class="edge"><title>Node13&#45;&gt;Node14</title>
<path fill="none" stroke="midnightblue" d="M258.735,-112.799C249.509,-104.631 235.137,-91.9083 223.88,-81.943"/>
<polygon fill="midnightblue" stroke="midnightblue" points="226.159,-79.2864 216.352,-75.2786 221.519,-84.5277 226.159,-79.2864"/>
</g>
<!-- Node15 -->
<g id="node14" class="node"><title>Node15</title>
<polygon fill="none" stroke="#bfbfbf" points="300.596,-57 300.596,-75 359.404,-75 359.404,-57 300.596,-57"/>
<text text-anchor="middle" x="330" y="-63" font-family="Helvetica,sans-Serif" font-size="10.00">exception</text>
</g>
<!-- Node13&#45;&gt;Node15 -->
<g id="edge14" class="edge"><title>Node13&#45;&gt;Node15</title>
<path fill="none" stroke="midnightblue" d="M277.416,-112.799C286.794,-104.631 301.402,-91.9083 312.843,-81.943"/>
<polygon fill="midnightblue" stroke="midnightblue" points="315.253,-84.4858 320.495,-75.2786 310.655,-79.2072 315.253,-84.4858"/>
</g>
</g>
</svg>
