<?xml version="1.0" encoding="UTF-8" standalone="no"?>
<!DOCTYPE svg PUBLIC "-//W3C//DTD SVG 1.1//EN"
 "http://www.w3.org/Graphics/SVG/1.1/DTD/svg11.dtd">
<!-- Generated by graphviz version 2.34.0 (20131025.1349)
 -->
<!-- Title: ID.h Pages: 1 -->
<!--zoomable 204 -->
<svg id="main" version="1.1" xmlns="http://www.w3.org/2000/svg" xmlns:xlink="http://www.w3.org/1999/xlink" xml:space="preserve" onload="init(evt)">
<style type="text/css"><![CDATA[
.edge:hover path { stroke: red; }
.edge:hover polygon { stroke: red; fill: red; }
]]></style>
<script type="text/javascript"><![CDATA[
var edges = document.getElementsByTagName('g');
if (edges && edges.length) {
  for (var i=0;i<edges.length;i++) {
    if (edges[i].id.substr(0,4)=='edge') {
      edges[i].setAttribute('class','edge');
    }
  }
}
]]></script>
        <defs>
                <circle id="rim" cx="0" cy="0" r="7"/>
                <circle id="rim2" cx="0" cy="0" r="3.5"/>
                <g id="zoomPlus">
                        <use xlink:href="#rim" fill="#404040">
                                <set attributeName="fill" to="#808080" begin="zoomplus.mouseover" end="zoomplus.mouseout"/>
                        </use>
                        <path d="M-4,0h8M0,-4v8" fill="none" stroke="white" stroke-width="1.5" pointer-events="none"/>
                </g>
                <g id="zoomMin">
                        <use xlink:href="#rim" fill="#404040">
                                <set attributeName="fill" to="#808080" begin="zoomminus.mouseover" end="zoomminus.mouseout"/>
                        </use>
                        <path d="M-4,0h8" fill="none" stroke="white" stroke-width="1.5" pointer-events="none"/>
                </g>
                <g id="dirArrow">
                        <path fill="none" stroke="white" stroke-width="1.5" d="M0,-3.0v7 M-2.5,-0.5L0,-3.0L2.5,-0.5"/>
                </g>
               <g id="resetDef">
                       <use xlink:href="#rim2" fill="#404040">
                               <set attributeName="fill" to="#808080" begin="reset.mouseover" end="reset.mouseout"/>
                       </use>
               </g>
        </defs>

<script type="text/javascript">
var viewWidth = 1223;
var viewHeight = 204;
var sectionId = 'dynsection-0';
</script>
<script xlink:href="svgpan.js"/>
<svg id="graph" class="graph">
<g id="viewport">
<title>ID.h</title>
<!-- Node1 -->
<g id="node1" class="node"><title>Node1</title>
<polygon fill="#bfbfbf" stroke="black" points="496.83,-175 496.83,-195 531.17,-195 531.17,-175 496.83,-175"/>
<text text-anchor="middle" x="514" y="-181" font-family="Helvetica,sans-Serif" font-size="10.00">ID.h</text>
</g>
<!-- Node2 -->
<g id="node2" class="node"><title>Node2</title>
<g id="a_node2"><a xlink:href="config_8h_source.html" target="_top" xlink:title="RMF/config.h">
<polygon fill="none" stroke="black" points="-0.731445,-59 -0.731445,-79 74.7314,-79 74.7314,-59 -0.731445,-59"/>
<text text-anchor="middle" x="37" y="-65" font-family="Helvetica,sans-Serif" font-size="10.00">RMF/config.h</text>
</a>
</g>
</g>
<!-- Node1&#45;&gt;Node2 -->
<g id="edge1" class="edge"><title>Node1&#45;&gt;Node2</title>
<path fill="none" stroke="midnightblue" d="M496.675,-180.944C458.341,-174.091 363.518,-156.627 285,-138 211.191,-120.49 126.108,-96.2675 77.2316,-81.9567"/>
<polygon fill="midnightblue" stroke="midnightblue" points="77.9497,-78.5199 67.3686,-79.0594 75.9767,-85.2361 77.9497,-78.5199"/>
</g>
<!-- Node4 -->
<g id="node4" class="node"><title>Node4</title>
<g id="a_node4"><a xlink:href="infrastructure__macros_8h.html" target="_top" xlink:title="Various general useful macros for IMP. ">
<polygon fill="none" stroke="black" points="638.48,-117 638.48,-137 759.52,-137 759.52,-117 638.48,-117"/>
<text text-anchor="middle" x="699" y="-123" font-family="Helvetica,sans-Serif" font-size="10.00">infrastructure_macros.h</text>
</a>
</g>
</g>
<!-- Node1&#45;&gt;Node4 -->
<g id="edge3" class="edge"><title>Node1&#45;&gt;Node4</title>
<path fill="none" stroke="midnightblue" d="M531.404,-178.732C560.509,-169.921 619.766,-151.984 659.438,-139.976"/>
<polygon fill="midnightblue" stroke="midnightblue" points="660.515,-143.307 669.072,-137.059 658.487,-136.607 660.515,-143.307"/>
</g>
<!-- Node13 -->
<g id="node13" class="node"><title>Node13</title>
<g id="a_node13"><a xlink:href="exceptions_8h.html" target="_top" xlink:title="Declarations of the various exception types. ">
<polygon fill="none" stroke="black" points="293.926,-117 293.926,-137 366.074,-137 366.074,-117 293.926,-117"/>
<text text-anchor="middle" x="330" y="-123" font-family="Helvetica,sans-Serif" font-size="10.00">exceptions.h</text>
</a>
</g>
</g>
<!-- Node1&#45;&gt;Node13 -->
<g id="edge13" class="edge"><title>Node1&#45;&gt;Node13</title>
<path fill="none" stroke="midnightblue" d="M496.69,-178.732C467.742,-169.921 408.806,-151.984 369.348,-139.976"/>
<polygon fill="midnightblue" stroke="midnightblue" points="370.352,-136.623 359.766,-137.059 368.314,-143.319 370.352,-136.623"/>
</g>
<!-- Node17 -->
<g id="node17" class="node"><title>Node17</title>
<polygon fill="none" stroke="#bfbfbf" points="777.613,-117 777.613,-137 816.387,-137 816.387,-117 777.613,-117"/>
<text text-anchor="middle" x="797" y="-123" font-family="Helvetica,sans-Serif" font-size="10.00">limits</text>
</g>
<!-- Node1&#45;&gt;Node17 -->
<g id="edge20" class="edge"><title>Node1&#45;&gt;Node17</title>
<path fill="none" stroke="midnightblue" d="M531.446,-181.778C571.528,-176.478 673.349,-161.9 767.77,-137.715"/>
<polygon fill="midnightblue" stroke="midnightblue" points="768.674,-141.096 777.469,-135.189 766.91,-134.322 768.674,-141.096"/>
</g>
<!-- Node3 -->
<g id="node3" class="node"><title>Node3</title>
<g id="a_node3"><a xlink:href="compiler__macros_8h.html" target="_top" xlink:title="Various compiler workarounds. ">
<polygon fill="none" stroke="black" points="40.5444,-1 40.5444,-21 165.456,-21 165.456,-1 40.5444,-1"/>
<text text-anchor="middle" x="103" y="-7" font-family="Helvetica,sans-Serif" font-size="10.00">RMF/compiler_macros.h</text>
</a>
</g>
</g>
<!-- Node2&#45;&gt;Node3 -->
<g id="edge2" class="edge"><title>Node2&#45;&gt;Node3</title>
<path fill="none" stroke="midnightblue" d="M47.8986,-58.7527C57.7978,-50.3534 72.6078,-37.7874 84.3814,-27.7976"/>
<polygon fill="midnightblue" stroke="midnightblue" points="86.9436,-30.2138 92.3042,-21.0752 82.4147,-24.8762 86.9436,-30.2138"/>
</g>
<!-- Node4&#45;&gt;Node3 -->
<g id="edge7" class="edge"><title>Node4&#45;&gt;Node3</title>
<path fill="none" stroke="midnightblue" d="M675.904,-116.878C654.192,-108.091 620.942,-94.0926 593,-80 575.576,-71.2121 573.566,-64.011 555,-58 486.392,-35.7875 285.194,-21.8382 175.817,-15.6801"/>
<polygon fill="midnightblue" stroke="midnightblue" points="175.705,-12.1686 165.526,-15.1085 175.317,-19.1578 175.705,-12.1686"/>
</g>
<!-- Node5 -->
<g id="node5" class="node"><title>Node5</title>
<polygon fill="none" stroke="#bfbfbf" points="602.219,-59 602.219,-79 653.781,-79 653.781,-59 602.219,-59"/>
<text text-anchor="middle" x="628" y="-65" font-family="Helvetica,sans-Serif" font-size="10.00">sstream</text>
</g>
<!-- Node4&#45;&gt;Node5 -->
<g id="edge4" class="edge"><title>Node4&#45;&gt;Node5</title>
<path fill="none" stroke="midnightblue" d="M687.276,-116.753C676.523,-108.272 660.385,-95.543 647.661,-85.5073"/>
<polygon fill="midnightblue" stroke="midnightblue" points="649.525,-82.52 639.506,-79.0752 645.19,-88.0162 649.525,-82.52"/>
</g>
<!-- Node6 -->
<g id="node6" class="node"><title>Node6</title>
<polygon fill="none" stroke="#bfbfbf" points="671.828,-59 671.828,-79 726.172,-79 726.172,-59 671.828,-59"/>
<text text-anchor="middle" x="699" y="-65" font-family="Helvetica,sans-Serif" font-size="10.00">iostream</text>
</g>
<!-- Node4&#45;&gt;Node6 -->
<g id="edge5" class="edge"><title>Node4&#45;&gt;Node6</title>
<path fill="none" stroke="midnightblue" d="M699,-116.753C699,-109.25 699,-98.4238 699,-89.0781"/>
<polygon fill="midnightblue" stroke="midnightblue" points="702.5,-89.0752 699,-79.0752 695.5,-89.0752 702.5,-89.0752"/>
</g>
<!-- Node7 -->
<g id="node7" class="node"><title>Node7</title>
<polygon fill="none" stroke="#bfbfbf" points="505.773,-59 505.773,-79 546.227,-79 546.227,-59 505.773,-59"/>
<text text-anchor="middle" x="526" y="-65" font-family="Helvetica,sans-Serif" font-size="10.00">string</text>
</g>
<!-- Node4&#45;&gt;Node7 -->
<g id="edge6" class="edge"><title>Node4&#45;&gt;Node7</title>
<path fill="none" stroke="midnightblue" d="M670.82,-116.878C639.285,-106.67 588.395,-90.1972 556.1,-79.7433"/>
<polygon fill="midnightblue" stroke="midnightblue" points="556.908,-76.3261 546.316,-76.5763 554.752,-82.9859 556.908,-76.3261"/>
</g>
<!-- Node8 -->
<g id="node8" class="node"><title>Node8</title>
<polygon fill="none" stroke="#bfbfbf" points="743.98,-59 743.98,-79 820.02,-79 820.02,-59 743.98,-59"/>
<text text-anchor="middle" x="782" y="-65" font-family="Helvetica,sans-Serif" font-size="10.00">internal/use.h</text>
</g>
<!-- Node4&#45;&gt;Node8 -->
<g id="edge8" class="edge"><title>Node4&#45;&gt;Node8</title>
<path fill="none" stroke="midnightblue" d="M712.706,-116.753C725.517,-108.109 744.87,-95.0518 759.87,-84.9314"/>
<polygon fill="midnightblue" stroke="midnightblue" points="762.217,-87.5696 768.549,-79.0752 758.302,-81.7669 762.217,-87.5696"/>
</g>
<!-- Node9 -->
<g id="node9" class="node"><title>Node9</title>
<polygon fill="none" stroke="#bfbfbf" points="838.384,-59 838.384,-79 881.616,-79 881.616,-59 838.384,-59"/>
<text text-anchor="middle" x="860" y="-65" font-family="Helvetica,sans-Serif" font-size="10.00">vector</text>
</g>
<!-- Node4&#45;&gt;Node9 -->
<g id="edge9" class="edge"><title>Node4&#45;&gt;Node9</title>
<path fill="none" stroke="midnightblue" d="M725.226,-116.878C753.405,-107.077 798.192,-91.4983 828.32,-81.0191"/>
<polygon fill="midnightblue" stroke="midnightblue" points="829.635,-84.2675 837.93,-77.6765 827.335,-77.656 829.635,-84.2675"/>
</g>
<!-- Node10 -->
<g id="node10" class="node"><title>Node10</title>
<polygon fill="none" stroke="#bfbfbf" points="899.306,-59 899.306,-79 988.694,-79 988.694,-59 899.306,-59"/>
<text text-anchor="middle" x="944" y="-65" font-family="Helvetica,sans-Serif" font-size="10.00">boost/config.hpp</text>
</g>
<!-- Node4&#45;&gt;Node10 -->
<g id="edge10" class="edge"><title>Node4&#45;&gt;Node10</title>
<path fill="none" stroke="midnightblue" d="M738.636,-116.94C781.067,-107.242 848.467,-91.836 894.39,-81.3394"/>
<polygon fill="midnightblue" stroke="midnightblue" points="895.453,-84.6869 904.421,-79.0466 893.893,-77.8629 895.453,-84.6869"/>
</g>
<!-- Node11 -->
<g id="node11" class="node"><title>Node11</title>
<polygon fill="none" stroke="#bfbfbf" points="1006.53,-59 1006.53,-79 1101.47,-79 1101.47,-59 1006.53,-59"/>
<text text-anchor="middle" x="1054" y="-65" font-family="Helvetica,sans-Serif" font-size="10.00">boost/version.hpp</text>
</g>
<!-- Node4&#45;&gt;Node11 -->
<g id="edge11" class="edge"><title>Node4&#45;&gt;Node11</title>
<path fill="none" stroke="midnightblue" d="M759.557,-117.024C817.631,-108.332 908.05,-94.5794 996.491,-80.0575"/>
<polygon fill="midnightblue" stroke="midnightblue" points="997.128,-83.4998 1006.43,-78.4214 995.991,-76.5928 997.128,-83.4998"/>
</g>
<!-- Node12 -->
<g id="node12" class="node"><title>Node12</title>
<polygon fill="none" stroke="#bfbfbf" points="1118.97,-59 1118.97,-79 1215.03,-79 1215.03,-59 1118.97,-59"/>
<text text-anchor="middle" x="1167" y="-65" font-family="Helvetica,sans-Serif" font-size="10.00">boost/foreach.hpp</text>
</g>
<!-- Node4&#45;&gt;Node12 -->
<g id="edge12" class="edge"><title>Node4&#45;&gt;Node12</title>
<path fill="none" stroke="midnightblue" d="M759.688,-117.191C762.836,-116.778 765.954,-116.378 769,-116 916.987,-97.6241 957.36,-101.02 1108.7,-80.1024"/>
<polygon fill="midnightblue" stroke="midnightblue" points="1109.41,-83.5372 1118.83,-78.689 1108.45,-76.6043 1109.41,-83.5372"/>
</g>
<!-- Node13&#45;&gt;Node2 -->
<g id="edge17" class="edge"><title>Node13&#45;&gt;Node2</title>
<path fill="none" stroke="midnightblue" d="M293.659,-119.08C246.479,-110.092 161.583,-93.9062 89,-80 87.561,-79.7243 86.0996,-79.4442 84.6243,-79.1612"/>
<polygon fill="midnightblue" stroke="midnightblue" points="85.253,-75.7181 74.7725,-77.2703 83.9335,-82.5926 85.253,-75.7181"/>
</g>
<!-- Node13&#45;&gt;Node3 -->
<g id="edge18" class="edge"><title>Node13&#45;&gt;Node3</title>
<path fill="none" stroke="midnightblue" d="M293.599,-122.442C240.739,-116.552 146.374,-103.073 122,-80 108.948,-67.6443 104.614,-47.1349 103.294,-31.8653"/>
<polygon fill="midnightblue" stroke="midnightblue" points="106.767,-31.2461 102.777,-21.4316 99.7758,-31.5926 106.767,-31.2461"/>
</g>
<!-- Node13&#45;&gt;Node7 -->
<g id="edge16" class="edge"><title>Node13&#45;&gt;Node7</title>
<path fill="none" stroke="midnightblue" d="M365.374,-116.951C397.253,-108.643 445.6,-95.6642 496.005,-80.1819"/>
<polygon fill="midnightblue" stroke="midnightblue" points="497.255,-83.4589 505.772,-77.1578 495.184,-76.772 497.255,-83.4589"/>
</g>
<!-- Node14 -->
<g id="node14" class="node"><title>Node14</title>
<polygon fill="none" stroke="#bfbfbf" points="131.451,-59 131.451,-79 282.549,-79 282.549,-59 131.451,-59"/>
<text text-anchor="middle" x="207" y="-65" font-family="Helvetica,sans-Serif" font-size="10.00">boost/exception/exception.hpp</text>
</g>
<!-- Node13&#45;&gt;Node14 -->
<g id="edge14" class="edge"><title>Node13&#45;&gt;Node14</title>
<path fill="none" stroke="midnightblue" d="M309.964,-116.878C289.951,-107.766 258.971,-93.6617 236.219,-83.3028"/>
<polygon fill="midnightblue" stroke="midnightblue" points="237.579,-80.0764 227.027,-79.1181 234.678,-86.4472 237.579,-80.0764"/>
</g>
<!-- Node15 -->
<g id="node15" class="node"><title>Node15</title>
<polygon fill="none" stroke="#bfbfbf" points="300.596,-59 300.596,-79 359.404,-79 359.404,-59 300.596,-59"/>
<text text-anchor="middle" x="330" y="-65" font-family="Helvetica,sans-Serif" font-size="10.00">exception</text>
</g>
<!-- Node13&#45;&gt;Node15 -->
<g id="edge15" class="edge"><title>Node13&#45;&gt;Node15</title>
<path fill="none" stroke="midnightblue" d="M330,-116.753C330,-109.25 330,-98.4238 330,-89.0781"/>
<polygon fill="midnightblue" stroke="midnightblue" points="333.5,-89.0752 330,-79.0752 326.5,-89.0752 333.5,-89.0752"/>
</g>
<!-- Node16 -->
<g id="node16" class="node"><title>Node16</title>
<polygon fill="none" stroke="#bfbfbf" points="377.766,-59 377.766,-79 488.234,-79 488.234,-59 377.766,-59"/>
<text text-anchor="middle" x="433" y="-65" font-family="Helvetica,sans-Serif" font-size="10.00">RMF/internal/errors.h</text>
</g>
<!-- Node13&#45;&gt;Node16 -->
<g id="edge19" class="edge"><title>Node13&#45;&gt;Node16</title>
<path fill="none" stroke="midnightblue" d="M347.008,-116.753C363.432,-107.823 388.517,-94.1848 407.363,-83.9388"/>
<polygon fill="midnightblue" stroke="midnightblue" points="409.194,-86.9267 416.308,-79.0752 405.851,-80.7769 409.194,-86.9267"/>
</g>
</g>
</svg>
        <g id="navigator" transform="translate(0 0)" fill="#404254">
                <rect fill="#f2f5e9" fill-opacity="0.5" stroke="#606060" stroke-width=".5" x="0" y="0" width="60" height="60"/>
                <use id="zoomplus" xlink:href="#zoomPlus" x="17" y="9" onmousedown="handleZoom(evt,'in')"/>
                <use id="zoomminus" xlink:href="#zoomMin" x="42" y="9" onmousedown="handleZoom(evt,'out')"/>
                <use id="reset" xlink:href="#resetDef" x="30" y="36" onmousedown="handleReset()"/>
                <g id="arrowUp" xlink:href="#dirArrow" transform="translate(30 24)" onmousedown="handlePan(0,-1)">
                  <use xlink:href="#rim" fill="#404040">
                        <set attributeName="fill" to="#808080" begin="arrowUp.mouseover" end="arrowUp.mouseout"/>
                  </use>
                  <path fill="none" stroke="white" stroke-width="1.5" d="M0,-3.0v7 M-2.5,-0.5L0,-3.0L2.5,-0.5"/>
                </g>
                <g id="arrowRight" xlink:href="#dirArrow" transform="rotate(90) translate(36 -43)" onmousedown="handlePan(1,0)">
                  <use xlink:href="#rim" fill="#404040">
                        <set attributeName="fill" to="#808080" begin="arrowRight.mouseover" end="arrowRight.mouseout"/>
                  </use>
                  <path fill="none" stroke="white" stroke-width="1.5" d="M0,-3.0v7 M-2.5,-0.5L0,-3.0L2.5,-0.5"/>
                </g>
                <g id="arrowDown" xlink:href="#dirArrow" transform="rotate(180) translate(-30 -48)" onmousedown="handlePan(0,1)">
                  <use xlink:href="#rim" fill="#404040">
                        <set attributeName="fill" to="#808080" begin="arrowDown.mouseover" end="arrowDown.mouseout"/>
                  </use>
                  <path fill="none" stroke="white" stroke-width="1.5" d="M0,-3.0v7 M-2.5,-0.5L0,-3.0L2.5,-0.5"/>
                </g>
                <g id="arrowLeft" xlink:href="#dirArrow" transform="rotate(270) translate(-36 17)" onmousedown="handlePan(-1,0)">
                  <use xlink:href="#rim" fill="#404040">
                        <set attributeName="fill" to="#808080" begin="arrowLeft.mouseover" end="arrowLeft.mouseout"/>
                  </use>
                  <path fill="none" stroke="white" stroke-width="1.5" d="M0,-3.0v7 M-2.5,-0.5L0,-3.0L2.5,-0.5"/>
                </g>
        </g>
        <svg viewBox="0 0 15 15" width="100%" height="30px" preserveAspectRatio="xMaxYMin meet">
         <g id="arrow_out" transform="scale(0.3 0.3)">
          <a xlink:href="ID_8h__incl_org.svg" target="_base">
           <rect id="button" ry="5" rx="5" y="6" x="6" height="38" width="38"
                fill="#f2f5e9" fill-opacity="0.5" stroke="#606060" stroke-width="1.0"/>
           <path id="arrow"
             d="M 11.500037,31.436501 C 11.940474,20.09759 22.043105,11.32322 32.158766,21.979434 L 37.068811,17.246167 C 37.068811,17.246167 37.088388,32 37.088388,32 L 22.160133,31.978069 C 22.160133,31.978069 26.997745,27.140456 26.997745,27.140456 C 18.528582,18.264221 13.291696,25.230495 11.500037,31.436501 z"
             style="fill:#404040;"/>
          </a>
         </g>
        </svg>
</svg>
