<?xml version="1.0" encoding="UTF-8" standalone="no"?>
<!DOCTYPE svg PUBLIC "-//W3C//DTD SVG 1.1//EN"
 "http://www.w3.org/Graphics/SVG/1.1/DTD/svg11.dtd">
<!-- Generated by graphviz version 2.34.0 (20131025.1349)
 -->
<!-- Title: infrastructure_macros.h Pages: 1 -->
<svg width="3360pt" height="668pt"
 viewBox="0.00 0.00 3360.00 668.00" xmlns="http://www.w3.org/2000/svg" xmlns:xlink="http://www.w3.org/1999/xlink">
<g id="graph0" class="graph" transform="scale(1 1) rotate(0) translate(4 664)">
<title>infrastructure_macros.h</title>
<!-- Node1 -->
<g id="node1" class="node"><title>Node1</title>
<polygon fill="#bfbfbf" stroke="black" points="1345.48,-639 1345.48,-659 1466.52,-659 1466.52,-639 1345.48,-639"/>
<text text-anchor="middle" x="1406" y="-645" font-family="Helvetica,sans-Serif" font-size="10.00">infrastructure_macros.h</text>
</g>
<!-- Node2 -->
<g id="node2" class="node"><title>Node2</title>
<g id="a_node2"><a xlink:href="BufferConstHandle_8h.html" target="_top" xlink:title="Declare RMF::BufferConstHandle. ">
<polygon fill="none" stroke="black" points="88.6719,-581 88.6719,-601 197.328,-601 197.328,-581 88.6719,-581"/>
<text text-anchor="middle" x="143" y="-587" font-family="Helvetica,sans-Serif" font-size="10.00">BufferConstHandle.h</text>
</a>
</g>
</g>
<!-- Node1&#45;&gt;Node2 -->
<g id="edge1" class="edge"><title>Node1&#45;&gt;Node2</title>
<path fill="none" stroke="midnightblue" d="M1335.07,-647.927C1149.83,-647.16 636.33,-641.346 211,-602 206.604,-601.593 202.058,-601.095 197.497,-600.541"/>
<polygon fill="midnightblue" stroke="midnightblue" points="1335.21,-651.427 1345.23,-647.965 1335.24,-644.427 1335.21,-651.427"/>
</g>
<!-- Node3 -->
<g id="node3" class="node"><title>Node3</title>
<g id="a_node3"><a xlink:href="BufferHandle_8h.html" target="_top" xlink:title="Declare RMF::BufferHandle. ">
<polygon fill="none" stroke="black" points="138.733,-291 138.733,-311 221.267,-311 221.267,-291 138.733,-291"/>
<text text-anchor="middle" x="180" y="-297" font-family="Helvetica,sans-Serif" font-size="10.00">BufferHandle.h</text>
</a>
</g>
</g>
<!-- Node1&#45;&gt;Node3 -->
<g id="edge41" class="edge"><title>Node1&#45;&gt;Node3</title>
<path fill="none" stroke="midnightblue" d="M1335.04,-647.36C1090.12,-644.868 292.781,-634.3 249,-602 223.21,-582.973 225,-566.049 225,-534 225,-534 225,-534 225,-416 225,-374.508 198.89,-330.082 186.447,-311.266"/>
<polygon fill="midnightblue" stroke="midnightblue" points="1335.22,-650.862 1345.25,-647.462 1335.29,-643.862 1335.22,-650.862"/>
</g>
<!-- Node4 -->
<g id="node4" class="node"><title>Node4</title>
<g id="a_node4"><a xlink:href="FileConstHandle_8h.html" target="_top" xlink:title="Handle read/write of Model data from/to files. ">
<polygon fill="none" stroke="black" points="559.867,-233 559.867,-253 658.133,-253 658.133,-233 559.867,-233"/>
<text text-anchor="middle" x="609" y="-239" font-family="Helvetica,sans-Serif" font-size="10.00">FileConstHandle.h</text>
</a>
</g>
</g>
<!-- Node1&#45;&gt;Node4 -->
<g id="edge182" class="edge"><title>Node1&#45;&gt;Node4</title>
<path fill="none" stroke="midnightblue" d="M1334.89,-648.368C1124.63,-648.938 515.73,-646.673 439,-602 408.098,-584.009 396,-569.758 396,-534 396,-534 396,-534 396,-416 396,-323.553 518.953,-272.296 578.028,-253.004"/>
<polygon fill="midnightblue" stroke="midnightblue" points="1335.2,-651.867 1345.19,-648.337 1335.18,-644.867 1335.2,-651.867"/>
</g>
<!-- Node6 -->
<g id="node6" class="node"><title>Node6</title>
<g id="a_node6"><a xlink:href="alias_8h.html" target="_top" xlink:title="Helper functions for manipulating RMF files. ">
<polygon fill="none" stroke="black" points="1887.55,-117 1887.55,-137 1932.45,-137 1932.45,-117 1887.55,-117"/>
<text text-anchor="middle" x="1910" y="-123" font-family="Helvetica,sans-Serif" font-size="10.00">alias.h</text>
</a>
</g>
</g>
<!-- Node1&#45;&gt;Node6 -->
<g id="edge181" class="edge"><title>Node1&#45;&gt;Node6</title>
<path fill="none" stroke="midnightblue" d="M1476.95,-646.545C1691.04,-641.221 2316,-618.447 2316,-534 2316,-534 2316,-534 2316,-474 2316,-369.582 2000.98,-180.653 1925.92,-137.117"/>
<polygon fill="midnightblue" stroke="midnightblue" points="1476.68,-643.05 1466.77,-646.792 1476.85,-650.048 1476.68,-643.05"/>
</g>
<!-- Node8 -->
<g id="node8" class="node"><title>Node8</title>
<g id="a_node8"><a xlink:href="physics_8h.html" target="_top" xlink:title="Helper functions for manipulating RMF files. ">
<polygon fill="none" stroke="black" points="1817.16,-59 1817.16,-79 1874.84,-79 1874.84,-59 1817.16,-59"/>
<text text-anchor="middle" x="1846" y="-65" font-family="Helvetica,sans-Serif" font-size="10.00">physics.h</text>
</a>
</g>
</g>
<!-- Node1&#45;&gt;Node8 -->
<g id="edge185" class="edge"><title>Node1&#45;&gt;Node8</title>
<path fill="none" stroke="midnightblue" d="M1476.98,-647.416C1692.13,-645.276 2327.57,-636.109 2414,-602 2450.95,-587.417 2465.36,-580.068 2482,-544 2551.63,-393.102 2554.62,-281.632 2428,-174 2387.68,-139.723 2374.52,-131.758 2324,-116 2239.34,-89.5943 1965.26,-75.3078 1875.07,-71.2342"/>
<polygon fill="midnightblue" stroke="midnightblue" points="1476.72,-643.918 1466.76,-647.515 1476.79,-650.918 1476.72,-643.918"/>
</g>
<!-- Node10 -->
<g id="node10" class="node"><title>Node10</title>
<g id="a_node10"><a xlink:href="benchmark__rmf_8cpp_source.html" target="_top" xlink:title="benchmark_rmf.cpp">
<polygon fill="none" stroke="black" points="397.815,-1 397.815,-21 502.185,-21 502.185,-1 397.815,-1"/>
<text text-anchor="middle" x="450" y="-7" font-family="Helvetica,sans-Serif" font-size="10.00">benchmark_rmf.cpp</text>
</a>
</g>
</g>
<!-- Node1&#45;&gt;Node10 -->
<g id="edge194" class="edge"><title>Node1&#45;&gt;Node10</title>
<path fill="none" stroke="midnightblue" d="M1335.07,-648.257C1077.01,-648.821 197.109,-647.366 80,-602 36.4864,-585.143 0,-580.665 0,-534 0,-534 0,-534 0,-126 0,-90.9367 10.5828,-77.0804 40,-58 97.8399,-20.4843 300.522,-13.3787 397.512,-12.162"/>
<polygon fill="midnightblue" stroke="midnightblue" points="1335.08,-651.757 1345.08,-648.234 1335.07,-644.757 1335.08,-651.757"/>
</g>
<!-- Node11 -->
<g id="node11" class="node"><title>Node11</title>
<g id="a_node11"><a xlink:href="external_8h.html" target="_top" xlink:title="Helper functions for manipulating RMF files. ">
<polygon fill="none" stroke="black" points="1209.04,-117 1209.04,-137 1268.96,-137 1268.96,-117 1209.04,-117"/>
<text text-anchor="middle" x="1239" y="-123" font-family="Helvetica,sans-Serif" font-size="10.00">external.h</text>
</a>
</g>
</g>
<!-- Node1&#45;&gt;Node11 -->
<g id="edge183" class="edge"><title>Node1&#45;&gt;Node11</title>
<path fill="none" stroke="midnightblue" d="M1335.03,-646.594C1120.12,-641.403 491,-618.953 491,-534 491,-534 491,-534 491,-474 491,-321.74 966.422,-232.487 1107,-174 1141.73,-159.551 1182.79,-145.735 1209.79,-137.083"/>
<polygon fill="midnightblue" stroke="midnightblue" points="1335.18,-650.098 1345.26,-646.835 1335.34,-643.1 1335.18,-650.098"/>
</g>
<!-- Node12 -->
<g id="node12" class="node"><title>Node12</title>
<g id="a_node12"><a xlink:href="feature_8h.html" target="_top" xlink:title="Helper functions for manipulating RMF files. ">
<polygon fill="none" stroke="black" points="1538.26,-117 1538.26,-137 1593.74,-137 1593.74,-117 1538.26,-117"/>
<text text-anchor="middle" x="1566" y="-123" font-family="Helvetica,sans-Serif" font-size="10.00">feature.h</text>
</a>
</g>
</g>
<!-- Node1&#45;&gt;Node12 -->
<g id="edge184" class="edge"><title>Node1&#45;&gt;Node12</title>
<path fill="none" stroke="midnightblue" d="M1437.66,-634.749C1510.47,-602.292 1688.79,-511.026 1757,-370 1806.87,-266.886 1639.89,-167.058 1583.76,-137.078"/>
<polygon fill="midnightblue" stroke="midnightblue" points="1435.86,-631.716 1428.1,-638.938 1438.67,-638.127 1435.86,-631.716"/>
</g>
<!-- Node13 -->
<g id="node13" class="node"><title>Node13</title>
<g id="a_node13"><a xlink:href="publication_8h.html" target="_top" xlink:title="Helper functions for manipulating RMF files. ">
<polygon fill="none" stroke="black" points="1367.92,-117 1367.92,-137 1440.08,-137 1440.08,-117 1367.92,-117"/>
<text text-anchor="middle" x="1404" y="-123" font-family="Helvetica,sans-Serif" font-size="10.00">publication.h</text>
</a>
</g>
</g>
<!-- Node1&#45;&gt;Node13 -->
<g id="edge186" class="edge"><title>Node1&#45;&gt;Node13</title>
<path fill="none" stroke="midnightblue" d="M1335.29,-645.806C1240.3,-641.787 1077.47,-630.816 1026,-602 942.914,-555.485 930.026,-518.688 901,-428 893.132,-403.416 898.667,-395.804 898,-370 897.747,-360.225 894.595,-357.166 898,-348 909.853,-316.097 920.811,-310.471 948,-290 1065.19,-201.766 1117.08,-218.064 1257,-174 1297.94,-161.108 1345.32,-146.3 1374.98,-137.046"/>
<polygon fill="midnightblue" stroke="midnightblue" points="1335.26,-649.307 1345.39,-646.218 1335.54,-642.313 1335.26,-649.307"/>
</g>
<!-- Node14 -->
<g id="node14" class="node"><title>Node14</title>
<g id="a_node14"><a xlink:href="sequence_8h.html" target="_top" xlink:title="Helper functions for manipulating RMF files. ">
<polygon fill="none" stroke="black" points="2084.15,-117 2084.15,-137 2151.85,-137 2151.85,-117 2084.15,-117"/>
<text text-anchor="middle" x="2118" y="-123" font-family="Helvetica,sans-Serif" font-size="10.00">sequence.h</text>
</a>
</g>
</g>
<!-- Node1&#45;&gt;Node14 -->
<g id="edge187" class="edge"><title>Node1&#45;&gt;Node14</title>
<path fill="none" stroke="midnightblue" d="M1476.71,-647.265C1645.49,-644.975 2068.04,-635.927 2205,-602 2275.66,-584.497 2354,-606.793 2354,-534 2354,-534 2354,-534 2354,-300 2354,-201.263 2217.42,-153.212 2152.06,-135.87"/>
<polygon fill="midnightblue" stroke="midnightblue" points="1476.64,-643.766 1466.68,-647.397 1476.73,-650.765 1476.64,-643.766"/>
</g>
<!-- Node15 -->
<g id="node15" class="node"><title>Node15</title>
<g id="a_node15"><a xlink:href="shape_8h.html" target="_top" xlink:title="Helper functions for manipulating RMF files. ">
<polygon fill="none" stroke="black" points="2170.21,-117 2170.21,-137 2221.79,-137 2221.79,-117 2170.21,-117"/>
<text text-anchor="middle" x="2196" y="-123" font-family="Helvetica,sans-Serif" font-size="10.00">shape.h</text>
</a>
</g>
</g>
<!-- Node1&#45;&gt;Node15 -->
<g id="edge188" class="edge"><title>Node1&#45;&gt;Node15</title>
<path fill="none" stroke="midnightblue" d="M1476.73,-647.709C1656.96,-646.42 2129.96,-639.46 2282,-602 2352.29,-584.682 2430,-606.389 2430,-534 2430,-534 2430,-534 2430,-242 2430,-218.84 2279.95,-159.67 2220.16,-137.013"/>
<polygon fill="midnightblue" stroke="midnightblue" points="1476.54,-644.21 1466.57,-647.778 1476.59,-651.21 1476.54,-644.21"/>
</g>
<!-- Node16 -->
<g id="node16" class="node"><title>Node16</title>
<g id="a_node16"><a xlink:href="bond_8h.html" target="_top" xlink:title="Helper functions for manipulating RMF files. ">
<polygon fill="none" stroke="black" points="1024.71,-117 1024.71,-137 1071.29,-137 1071.29,-117 1024.71,-117"/>
<text text-anchor="middle" x="1048" y="-123" font-family="Helvetica,sans-Serif" font-size="10.00">bond.h</text>
</a>
</g>
</g>
<!-- Node1&#45;&gt;Node16 -->
<g id="edge189" class="edge"><title>Node1&#45;&gt;Node16</title>
<path fill="none" stroke="midnightblue" d="M1335.24,-648.272C1120.82,-648.61 487.979,-645.84 407,-602 374.241,-584.265 358,-571.251 358,-534 358,-534 358,-534 358,-358 358,-241.402 439.224,-223.057 545,-174 567.051,-163.773 928.312,-136.749 1024.58,-129.701"/>
<polygon fill="midnightblue" stroke="midnightblue" points="1335.44,-651.772 1345.43,-648.253 1335.43,-644.772 1335.44,-651.772"/>
</g>
<!-- Node17 -->
<g id="node17" class="node"><title>Node17</title>
<g id="a_node17"><a xlink:href="representation_8h.html" target="_top" xlink:title="Helper functions for manipulating RMF files. ">
<polygon fill="none" stroke="black" points="1102.86,-117 1102.86,-137 1191.14,-137 1191.14,-117 1102.86,-117"/>
<text text-anchor="middle" x="1147" y="-123" font-family="Helvetica,sans-Serif" font-size="10.00">representation.h</text>
</a>
</g>
</g>
<!-- Node1&#45;&gt;Node17 -->
<g id="edge190" class="edge"><title>Node1&#45;&gt;Node17</title>
<path fill="none" stroke="midnightblue" d="M1335.15,-648.491C1159.68,-649.009 708.782,-645.888 566,-602 509.973,-584.778 453,-592.614 453,-534 453,-534 453,-534 453,-474 453,-324.897 972.55,-174.786 1112.58,-137.034"/>
<polygon fill="midnightblue" stroke="midnightblue" points="1335.32,-651.99 1345.31,-648.456 1335.3,-644.991 1335.32,-651.99"/>
</g>
<!-- Node18 -->
<g id="node18" class="node"><title>Node18</title>
<g id="a_node18"><a xlink:href="alternatives_8h.html" target="_top" xlink:title="Helper functions for manipulating RMF files. ">
<polygon fill="none" stroke="black" points="2240.26,-117 2240.26,-137 2315.74,-137 2315.74,-117 2240.26,-117"/>
<text text-anchor="middle" x="2278" y="-123" font-family="Helvetica,sans-Serif" font-size="10.00">alternatives.h</text>
</a>
</g>
</g>
<!-- Node1&#45;&gt;Node18 -->
<g id="edge191" class="edge"><title>Node1&#45;&gt;Node18</title>
<path fill="none" stroke="midnightblue" d="M1476.8,-646.641C1683.31,-642.39 2275.68,-628.05 2359,-602 2413.5,-584.963 2468,-591.099 2468,-534 2468,-534 2468,-534 2468,-300 2468,-236.365 2451,-212.063 2400,-174 2374.97,-155.315 2341.47,-143.408 2315.91,-136.401"/>
<polygon fill="midnightblue" stroke="midnightblue" points="1476.6,-643.145 1466.67,-646.848 1476.74,-650.143 1476.6,-643.145"/>
</g>
<!-- Node21 -->
<g id="node21" class="node"><title>Node21</title>
<g id="a_node21"><a xlink:href="RestoreCurrentFrame_8h.html" target="_top" xlink:title="Restore the current frame when exiting a scope. ">
<polygon fill="none" stroke="black" points="104.205,-175 104.205,-195 225.795,-195 225.795,-175 104.205,-175"/>
<text text-anchor="middle" x="165" y="-181" font-family="Helvetica,sans-Serif" font-size="10.00">RestoreCurrentFrame.h</text>
</a>
</g>
</g>
<!-- Node1&#45;&gt;Node21 -->
<g id="edge192" class="edge"><title>Node1&#45;&gt;Node21</title>
<path fill="none" stroke="midnightblue" d="M1335.17,-648.26C1108.69,-648.643 411.656,-646.182 321,-602 285.292,-584.598 263,-573.722 263,-534 263,-534 263,-534 263,-300 263,-250.672 209.584,-212.043 181.624,-195.202"/>
<polygon fill="midnightblue" stroke="midnightblue" points="1335.28,-651.76 1345.27,-648.241 1335.27,-644.76 1335.28,-651.76"/>
</g>
<!-- Node22 -->
<g id="node22" class="node"><title>Node22</title>
<g id="a_node22"><a xlink:href="SetCurrentFrame_8h.html" target="_top" xlink:title="Temporarily change the current frame. ">
<polygon fill="none" stroke="black" points="244.207,-175 244.207,-195 345.793,-195 345.793,-175 244.207,-175"/>
<text text-anchor="middle" x="295" y="-181" font-family="Helvetica,sans-Serif" font-size="10.00">SetCurrentFrame.h</text>
</a>
</g>
</g>
<!-- Node1&#45;&gt;Node22 -->
<g id="edge193" class="edge"><title>Node1&#45;&gt;Node22</title>
<path fill="none" stroke="midnightblue" d="M1335.11,-647.096C1103.82,-643.865 383.803,-631.474 344,-602 318.244,-582.927 320,-566.049 320,-534 320,-534 320,-534 320,-358 320,-295.236 303.496,-220.917 297.307,-195.253"/>
<polygon fill="midnightblue" stroke="midnightblue" points="1335.37,-650.6 1345.42,-647.238 1335.47,-643.601 1335.37,-650.6"/>
</g>
<!-- Node24 -->
<g id="node24" class="node"><title>Node24</title>
<g id="a_node24"><a xlink:href="ID_8h.html" target="_top" xlink:title="Declaration of RMF::ID. ">
<polygon fill="none" stroke="black" points="1001.83,-523 1001.83,-543 1036.17,-543 1036.17,-523 1001.83,-523"/>
<text text-anchor="middle" x="1019" y="-529" font-family="Helvetica,sans-Serif" font-size="10.00">ID.h</text>
</a>
</g>
</g>
<!-- Node1&#45;&gt;Node24 -->
<g id="edge42" class="edge"><title>Node1&#45;&gt;Node24</title>
<path fill="none" stroke="midnightblue" d="M1335.3,-640.208C1284.74,-633.372 1215.55,-621.421 1157,-602 1110.1,-586.445 1058.92,-557.86 1034.13,-543.201"/>
<polygon fill="midnightblue" stroke="midnightblue" points="1335.1,-643.712 1345.47,-641.548 1336.02,-636.772 1335.1,-643.712"/>
</g>
<!-- Node26 -->
<g id="node26" class="node"><title>Node26</title>
<g id="a_node26"><a xlink:href="NodeConstHandle_8h.html" target="_top" xlink:title="Declaration of NodeConstHandlke. ">
<polygon fill="none" stroke="black" points="1031.97,-291 1031.97,-311 1138.03,-311 1138.03,-291 1031.97,-291"/>
<text text-anchor="middle" x="1085" y="-297" font-family="Helvetica,sans-Serif" font-size="10.00">NodeConstHandle.h</text>
</a>
</g>
</g>
<!-- Node1&#45;&gt;Node26 -->
<g id="edge179" class="edge"><title>Node1&#45;&gt;Node26</title>
<path fill="none" stroke="midnightblue" d="M1335.27,-643.962C1272.86,-638.836 1180.08,-627.367 1103,-602 1050.5,-584.722 1021.55,-591.325 993,-544 942.62,-460.482 1043.75,-344.671 1075.74,-311.323"/>
<polygon fill="midnightblue" stroke="midnightblue" points="1335.16,-647.465 1345.41,-644.761 1335.71,-640.486 1335.16,-647.465"/>
</g>
<!-- Node27 -->
<g id="node27" class="node"><title>Node27</title>
<g id="a_node27"><a xlink:href="Decorator_8h.html" target="_top" xlink:title="Mostly empty base classes for decorators and factories. ">
<polygon fill="none" stroke="black" points="1726.15,-175 1726.15,-195 1793.85,-195 1793.85,-175 1726.15,-175"/>
<text text-anchor="middle" x="1760" y="-181" font-family="Helvetica,sans-Serif" font-size="10.00">Decorator.h</text>
</a>
</g>
</g>
<!-- Node1&#45;&gt;Node27 -->
<g id="edge153" class="edge"><title>Node1&#45;&gt;Node27</title>
<path fill="none" stroke="midnightblue" d="M1477.07,-643.693C1565.77,-637.632 1721.88,-624.707 1854,-602 1961.73,-583.486 1993.91,-590.13 2093,-544 2162.6,-511.599 2194.62,-500.1 2221,-428 2224.36,-418.818 2226.22,-414.27 2221,-406 2194.89,-364.607 1871.02,-231.015 1782.33,-195.01"/>
<polygon fill="midnightblue" stroke="midnightblue" points="1476.6,-640.216 1466.86,-644.38 1477.07,-647.2 1476.6,-640.216"/>
</g>
<!-- Node28 -->
<g id="node28" class="node"><title>Node28</title>
<g id="a_node28"><a xlink:href="NodeHandle_8h.html" target="_top" xlink:title="Declaration of NodeHandle. ">
<polygon fill="none" stroke="black" points="1498.03,-233 1498.03,-253 1577.97,-253 1577.97,-233 1498.03,-233"/>
<text text-anchor="middle" x="1538" y="-239" font-family="Helvetica,sans-Serif" font-size="10.00">NodeHandle.h</text>
</a>
</g>
</g>
<!-- Node1&#45;&gt;Node28 -->
<g id="edge180" class="edge"><title>Node1&#45;&gt;Node28</title>
<path fill="none" stroke="midnightblue" d="M1424.33,-632.026C1461.55,-598.433 1545.75,-516.256 1585,-428 1609.94,-371.922 1608.8,-344.198 1580,-290 1572.19,-275.293 1558.57,-261.634 1548.97,-253.084"/>
<polygon fill="midnightblue" stroke="midnightblue" points="1421.87,-629.531 1416.73,-638.796 1426.53,-634.757 1421.87,-629.531"/>
</g>
<!-- Node31 -->
<g id="node31" class="node"><title>Node31</title>
<g id="a_node31"><a xlink:href="keys_8h.html" target="_top" xlink:title="Declarations of the various key types. ">
<polygon fill="none" stroke="black" points="1065.55,-349 1065.55,-369 1110.45,-369 1110.45,-349 1065.55,-349"/>
<text text-anchor="middle" x="1088" y="-355" font-family="Helvetica,sans-Serif" font-size="10.00">keys.h</text>
</a>
</g>
</g>
<!-- Node1&#45;&gt;Node31 -->
<g id="edge177" class="edge"><title>Node1&#45;&gt;Node31</title>
<path fill="none" stroke="midnightblue" d="M1388.05,-631.745C1329.21,-578.454 1143.32,-410.099 1098.02,-369.078"/>
<polygon fill="midnightblue" stroke="midnightblue" points="1386.02,-634.625 1395.78,-638.744 1390.72,-629.437 1386.02,-634.625"/>
</g>
<!-- Node34 -->
<g id="node34" class="node"><title>Node34</title>
<g id="a_node34"><a xlink:href="Nullable_8h.html" target="_top" xlink:title="A helper class for allowing nice return of possibly null values. ">
<polygon fill="none" stroke="black" points="1687.76,-349 1687.76,-369 1748.24,-369 1748.24,-349 1687.76,-349"/>
<text text-anchor="middle" x="1718" y="-355" font-family="Helvetica,sans-Serif" font-size="10.00">Nullable.h</text>
</a>
</g>
</g>
<!-- Node1&#45;&gt;Node34 -->
<g id="edge178" class="edge"><title>Node1&#45;&gt;Node34</title>
<path fill="none" stroke="midnightblue" d="M1476.83,-644.854C1551.24,-640.158 1661.87,-628.786 1694,-602 1718.62,-581.477 1718,-566.049 1718,-534 1718,-534 1718,-534 1718,-474 1718,-435.01 1718,-388.52 1718,-369.162"/>
<polygon fill="midnightblue" stroke="midnightblue" points="1476.35,-641.377 1466.58,-645.474 1476.78,-648.364 1476.35,-641.377"/>
</g>
<!-- Node43 -->
<g id="node43" class="node"><title>Node43</title>
<g id="a_node43"><a xlink:href="Vector_8h.html" target="_top" xlink:title="Represent coordinates. ">
<polygon fill="none" stroke="black" points="1823.93,-523 1823.93,-543 1876.07,-543 1876.07,-523 1823.93,-523"/>
<text text-anchor="middle" x="1850" y="-529" font-family="Helvetica,sans-Serif" font-size="10.00">Vector.h</text>
</a>
</g>
</g>
<!-- Node1&#45;&gt;Node43 -->
<g id="edge130" class="edge"><title>Node1&#45;&gt;Node43</title>
<path fill="none" stroke="midnightblue" d="M1476.86,-645.764C1544.15,-641.849 1647.31,-631.15 1732,-602 1773.81,-587.61 1817.5,-557.959 1838.02,-543.021"/>
<polygon fill="midnightblue" stroke="midnightblue" points="1476.59,-642.273 1466.79,-646.314 1476.97,-649.263 1476.59,-642.273"/>
</g>
<!-- Node44 -->
<g id="node44" class="node"><title>Node44</title>
<g id="a_node44"><a xlink:href="CoordinateTransformer_8h.html" target="_top" xlink:title="Declare the RMF::CoordinateTransformer class. ">
<polygon fill="none" stroke="black" points="2533.6,-465 2533.6,-485 2660.4,-485 2660.4,-465 2533.6,-465"/>
<text text-anchor="middle" x="2597" y="-471" font-family="Helvetica,sans-Serif" font-size="10.00">CoordinateTransformer.h</text>
</a>
</g>
</g>
<!-- Node1&#45;&gt;Node44 -->
<g id="edge152" class="edge"><title>Node1&#45;&gt;Node44</title>
<path fill="none" stroke="midnightblue" d="M1476.89,-646.905C1715.19,-642.985 2475.02,-628.459 2520,-602 2565.74,-575.092 2587.85,-509.318 2594.64,-485.124"/>
<polygon fill="midnightblue" stroke="midnightblue" points="1476.55,-643.41 1466.61,-647.073 1476.67,-650.409 1476.55,-643.41"/>
</g>
<!-- Node47 -->
<g id="node47" class="node"><title>Node47</title>
<g id="a_node47"><a xlink:href="Enum_8h.html" target="_top" xlink:title="Declaration of RMF::Enum. ">
<polygon fill="none" stroke="black" points="2161.77,-407 2161.77,-427 2212.23,-427 2212.23,-407 2161.77,-407"/>
<text text-anchor="middle" x="2187" y="-413" font-family="Helvetica,sans-Serif" font-size="10.00">Enum.h</text>
</a>
</g>
</g>
<!-- Node1&#45;&gt;Node47 -->
<g id="edge154" class="edge"><title>Node1&#45;&gt;Node47</title>
<path fill="none" stroke="midnightblue" d="M1476.87,-642.678C1550.67,-636.291 1669.33,-623.638 1770,-602 1941.81,-565.069 2010.68,-595.665 2148,-486 2167.57,-470.373 2179.15,-442.081 2184.12,-427.403"/>
<polygon fill="midnightblue" stroke="midnightblue" points="1476.42,-639.203 1466.76,-643.538 1477.02,-646.178 1476.42,-639.203"/>
</g>
<!-- Node49 -->
<g id="node49" class="node"><title>Node49</title>
<g id="a_node49"><a xlink:href="HDF5_2infrastructure__macros_8h.html" target="_top" xlink:title="Various general useful macros for IMP. ">
<polygon fill="none" stroke="black" points="2942.48,-581 2942.48,-601 3063.52,-601 3063.52,-581 2942.48,-581"/>
<text text-anchor="middle" x="3003" y="-587" font-family="Helvetica,sans-Serif" font-size="10.00">infrastructure_macros.h</text>
</a>
</g>
</g>
<!-- Node1&#45;&gt;Node49 -->
<g id="edge162" class="edge"><title>Node1&#45;&gt;Node49</title>
<path fill="none" stroke="midnightblue" d="M1477.03,-645.509C1745.06,-636.11 2692.54,-602.887 2942.29,-594.129"/>
<polygon fill="midnightblue" stroke="midnightblue" points="1476.53,-642.025 1466.65,-645.873 1476.77,-649.02 1476.53,-642.025"/>
</g>
<!-- Node2&#45;&gt;Node3 -->
<g id="edge2" class="edge"><title>Node2&#45;&gt;Node3</title>
<path fill="none" stroke="midnightblue" d="M148.861,-571.371C155.379,-548.972 165,-510.125 165,-476 165,-476 165,-476 165,-416 165,-376.674 173.883,-330.365 177.977,-311.108"/>
<polygon fill="midnightblue" stroke="midnightblue" points="145.508,-570.368 145.967,-580.953 152.209,-572.392 145.508,-570.368"/>
</g>
<!-- Node3&#45;&gt;Node4 -->
<g id="edge3" class="edge"><title>Node3&#45;&gt;Node4</title>
<path fill="none" stroke="midnightblue" d="M231.511,-293.276C314.747,-282.411 477.741,-261.134 559.603,-250.448"/>
<polygon fill="midnightblue" stroke="midnightblue" points="230.987,-289.815 221.524,-294.58 231.893,-296.756 230.987,-289.815"/>
</g>
<!-- Node3&#45;&gt;Node10 -->
<g id="edge40" class="edge"><title>Node3&#45;&gt;Node10</title>
<path fill="none" stroke="midnightblue" d="M140.789,-287.52C98.7589,-271.4 38,-238.94 38,-186 38,-186 38,-186 38,-126 38,-93.9507 36.9739,-78.0214 62,-58 112.651,-17.4783 304.17,-11.8285 397.812,-11.5628"/>
<polygon fill="midnightblue" stroke="midnightblue" points="139.639,-290.826 150.232,-290.992 142.054,-284.256 139.639,-290.826"/>
</g>
<!-- Node5 -->
<g id="node5" class="node"><title>Node5</title>
<g id="a_node5"><a xlink:href="FileHandle_8h.html" target="_top" xlink:title="Declaration for RMF::FileHandle. ">
<polygon fill="none" stroke="black" points="1265.93,-175 1265.93,-195 1338.07,-195 1338.07,-175 1265.93,-175"/>
<text text-anchor="middle" x="1302" y="-181" font-family="Helvetica,sans-Serif" font-size="10.00">FileHandle.h</text>
</a>
</g>
</g>
<!-- Node4&#45;&gt;Node5 -->
<g id="edge4" class="edge"><title>Node4&#45;&gt;Node5</title>
<path fill="none" stroke="midnightblue" d="M668.354,-237.204C807.731,-225.941 1152.67,-198.067 1265.58,-188.943"/>
<polygon fill="midnightblue" stroke="midnightblue" points="667.969,-233.723 658.283,-238.018 668.533,-240.701 667.969,-233.723"/>
</g>
<!-- Node4&#45;&gt;Node10 -->
<g id="edge39" class="edge"><title>Node4&#45;&gt;Node10</title>
<path fill="none" stroke="midnightblue" d="M579.798,-228.272C565.481,-220.408 548.821,-209.424 537,-196 487.26,-139.514 460.063,-49.6454 452.329,-21.0489"/>
<polygon fill="midnightblue" stroke="midnightblue" points="578.312,-231.445 588.794,-232.984 581.559,-225.244 578.312,-231.445"/>
</g>
<!-- Node19 -->
<g id="node19" class="node"><title>Node19</title>
<g id="a_node19"><a xlink:href="validate_8h.html" target="_top" xlink:title="Support for validating the data in a file. ">
<polygon fill="none" stroke="black" points="809.596,-117 809.596,-137 868.404,-137 868.404,-117 809.596,-117"/>
<text text-anchor="middle" x="839" y="-123" font-family="Helvetica,sans-Serif" font-size="10.00">validate.h</text>
</a>
</g>
</g>
<!-- Node4&#45;&gt;Node19 -->
<g id="edge38" class="edge"><title>Node4&#45;&gt;Node19</title>
<path fill="none" stroke="midnightblue" d="M580.241,-228.02C556.254,-214.519 528.457,-193.333 545,-174 578.883,-134.403 741.958,-128.648 809.552,-127.987"/>
<polygon fill="midnightblue" stroke="midnightblue" points="578.681,-231.155 589.147,-232.799 581.99,-224.987 578.681,-231.155"/>
</g>
<!-- Node20 -->
<g id="node20" class="node"><title>Node20</title>
<g id="a_node20"><a xlink:href="info_8h.html" target="_top" xlink:title="Show info about the file. ">
<polygon fill="none" stroke="black" points="553.769,-175 553.769,-195 594.231,-195 594.231,-175 553.769,-175"/>
<text text-anchor="middle" x="574" y="-181" font-family="Helvetica,sans-Serif" font-size="10.00">info.h</text>
</a>
</g>
</g>
<!-- Node4&#45;&gt;Node20 -->
<g id="edge34" class="edge"><title>Node4&#45;&gt;Node20</title>
<path fill="none" stroke="midnightblue" d="M597.888,-224.22C591.827,-214.524 584.582,-202.931 579.672,-195.075"/>
<polygon fill="midnightblue" stroke="midnightblue" points="594.952,-226.128 603.22,-232.753 600.888,-222.418 594.952,-226.128"/>
</g>
<!-- Node4&#45;&gt;Node21 -->
<g id="edge35" class="edge"><title>Node4&#45;&gt;Node21</title>
<path fill="none" stroke="midnightblue" d="M549.618,-235.059C475.812,-226.348 346.021,-210.756 235,-196 232.079,-195.612 229.091,-195.209 226.074,-194.796"/>
<polygon fill="midnightblue" stroke="midnightblue" points="549.312,-238.547 559.653,-236.241 550.131,-231.595 549.312,-238.547"/>
</g>
<!-- Node4&#45;&gt;Node22 -->
<g id="edge36" class="edge"><title>Node4&#45;&gt;Node22</title>
<path fill="none" stroke="midnightblue" d="M549.684,-231.421C490.762,-220.913 401.382,-204.973 345.68,-195.038"/>
<polygon fill="midnightblue" stroke="midnightblue" points="549.133,-234.878 559.592,-233.188 550.362,-227.987 549.133,-234.878"/>
</g>
<!-- Node23 -->
<g id="node23" class="node"><title>Node23</title>
<g id="a_node23"><a xlink:href="signature_8h.html" target="_top" xlink:title="Return a (long) string describing a file that can be compared. ">
<polygon fill="none" stroke="black" points="612.261,-175 612.261,-195 677.739,-195 677.739,-175 612.261,-175"/>
<text text-anchor="middle" x="645" y="-181" font-family="Helvetica,sans-Serif" font-size="10.00">signature.h</text>
</a>
</g>
</g>
<!-- Node4&#45;&gt;Node23 -->
<g id="edge37" class="edge"><title>Node4&#45;&gt;Node23</title>
<path fill="none" stroke="midnightblue" d="M620.43,-224.22C626.663,-214.524 634.116,-202.931 639.166,-195.075"/>
<polygon fill="midnightblue" stroke="midnightblue" points="617.408,-222.448 614.945,-232.753 623.296,-226.234 617.408,-222.448"/>
</g>
<!-- Node5&#45;&gt;Node6 -->
<g id="edge5" class="edge"><title>Node5&#45;&gt;Node6</title>
<path fill="none" stroke="midnightblue" d="M1348.37,-179.729C1470.66,-168.466 1798.61,-138.26 1887.51,-130.072"/>
<polygon fill="midnightblue" stroke="midnightblue" points="1347.85,-176.262 1338.21,-180.665 1348.49,-183.233 1347.85,-176.262"/>
</g>
<!-- Node5&#45;&gt;Node8 -->
<g id="edge15" class="edge"><title>Node5&#45;&gt;Node8</title>
<path fill="none" stroke="midnightblue" d="M1311.93,-165.481C1321.63,-149.408 1337.99,-127.034 1359,-116 1399.6,-94.6737 1718.39,-76.5875 1817.02,-71.4562"/>
<polygon fill="midnightblue" stroke="midnightblue" points="1308.69,-164.097 1306.77,-174.516 1314.76,-167.57 1308.69,-164.097"/>
</g>
<!-- Node5&#45;&gt;Node10 -->
<g id="edge33" class="edge"><title>Node5&#45;&gt;Node10</title>
<path fill="none" stroke="midnightblue" d="M1300.05,-164.886C1297.43,-149.409 1291.31,-128.237 1277,-116 1159.89,-15.8233 665.145,-10.3502 502.247,-11.3379"/>
<polygon fill="midnightblue" stroke="midnightblue" points="1296.6,-165.496 1301.4,-174.939 1303.54,-164.561 1296.6,-165.496"/>
</g>
<!-- Node5&#45;&gt;Node11 -->
<g id="edge11" class="edge"><title>Node5&#45;&gt;Node11</title>
<path fill="none" stroke="midnightblue" d="M1284,-167.997C1272.72,-157.972 1258.59,-145.417 1249.21,-137.075"/>
<polygon fill="midnightblue" stroke="midnightblue" points="1281.8,-170.725 1291.6,-174.753 1286.45,-165.493 1281.8,-170.725"/>
</g>
<!-- Node5&#45;&gt;Node12 -->
<g id="edge13" class="edge"><title>Node5&#45;&gt;Node12</title>
<path fill="none" stroke="midnightblue" d="M1347.96,-174.251C1402.75,-162.629 1492.59,-143.573 1537.94,-133.953"/>
<polygon fill="midnightblue" stroke="midnightblue" points="1347.21,-170.832 1338.15,-176.331 1348.66,-177.68 1347.21,-170.832"/>
</g>
<!-- Node5&#45;&gt;Node13 -->
<g id="edge16" class="edge"><title>Node5&#45;&gt;Node13</title>
<path fill="none" stroke="midnightblue" d="M1327.75,-169.863C1346.49,-159.573 1371.32,-145.944 1387.47,-137.075"/>
<polygon fill="midnightblue" stroke="midnightblue" points="1325.92,-166.872 1318.84,-174.753 1329.29,-173.008 1325.92,-166.872"/>
</g>
<!-- Node5&#45;&gt;Node14 -->
<g id="edge18" class="edge"><title>Node5&#45;&gt;Node14</title>
<path fill="none" stroke="midnightblue" d="M1348.21,-180.828C1496.06,-170.682 1955.34,-139.163 2084.12,-130.325"/>
<polygon fill="midnightblue" stroke="midnightblue" points="1347.85,-177.345 1338.12,-181.521 1348.33,-184.329 1347.85,-177.345"/>
</g>
<!-- Node5&#45;&gt;Node15 -->
<g id="edge22" class="edge"><title>Node5&#45;&gt;Node15</title>
<path fill="none" stroke="midnightblue" d="M1348.29,-181.798C1520.97,-173.545 2119.72,-144.594 2160,-138 2163.33,-137.455 2166.79,-136.719 2170.19,-135.892"/>
<polygon fill="midnightblue" stroke="midnightblue" points="1348.07,-178.304 1338.25,-182.277 1348.41,-185.296 1348.07,-178.304"/>
</g>
<!-- Node5&#45;&gt;Node16 -->
<g id="edge25" class="edge"><title>Node5&#45;&gt;Node16</title>
<path fill="none" stroke="midnightblue" d="M1255.81,-173.817C1201.46,-161.833 1113.32,-142.402 1071.49,-133.178"/>
<polygon fill="midnightblue" stroke="midnightblue" points="1255.36,-177.301 1265.88,-176.036 1256.87,-170.465 1255.36,-177.301"/>
</g>
<!-- Node5&#45;&gt;Node17 -->
<g id="edge27" class="edge"><title>Node5&#45;&gt;Node17</title>
<path fill="none" stroke="midnightblue" d="M1267.04,-171.37C1238.12,-160.92 1197.74,-146.332 1171.98,-137.025"/>
<polygon fill="midnightblue" stroke="midnightblue" points="1266.16,-174.772 1276.75,-174.878 1268.54,-168.188 1266.16,-174.772"/>
</g>
<!-- Node5&#45;&gt;Node18 -->
<g id="edge29" class="edge"><title>Node5&#45;&gt;Node18</title>
<path fill="none" stroke="midnightblue" d="M1348.12,-181.914C1529.48,-173.686 2185.91,-143.651 2230,-138 2233.29,-137.578 2236.7,-137.052 2240.1,-136.465"/>
<polygon fill="midnightblue" stroke="midnightblue" points="1347.93,-178.419 1338.1,-182.369 1348.25,-185.412 1347.93,-178.419"/>
</g>
<!-- Node5&#45;&gt;Node19 -->
<g id="edge32" class="edge"><title>Node5&#45;&gt;Node19</title>
<path fill="none" stroke="midnightblue" d="M1255.51,-178.376C1160.55,-166.892 946.722,-141.029 868.435,-131.56"/>
<polygon fill="midnightblue" stroke="midnightblue" points="1255.32,-181.88 1265.67,-179.606 1256.16,-174.93 1255.32,-181.88"/>
</g>
<!-- Node7 -->
<g id="node7" class="node"><title>Node7</title>
<g id="a_node7"><a xlink:href="decorators_8h.html" target="_top" xlink:title="Import all the decorators headers. ">
<polygon fill="none" stroke="black" points="1776.21,-1 1776.21,-21 1847.79,-21 1847.79,-1 1776.21,-1"/>
<text text-anchor="middle" x="1812" y="-7" font-family="Helvetica,sans-Serif" font-size="10.00">decorators.h</text>
</a>
</g>
</g>
<!-- Node6&#45;&gt;Node7 -->
<g id="edge6" class="edge"><title>Node6&#45;&gt;Node7</title>
<path fill="none" stroke="midnightblue" d="M1905.76,-106.775C1901.79,-92.1734 1894.68,-72.2438 1883,-58 1869.49,-41.5336 1848.51,-28.963 1832.85,-21.1577"/>
<polygon fill="midnightblue" stroke="midnightblue" points="1902.42,-107.846 1908.21,-116.72 1909.22,-106.173 1902.42,-107.846"/>
</g>
<!-- Node6&#45;&gt;Node8 -->
<g id="edge7" class="edge"><title>Node6&#45;&gt;Node8</title>
<path fill="none" stroke="midnightblue" d="M1891.71,-109.997C1880.25,-99.9719 1865.91,-87.4171 1856.37,-79.0752"/>
<polygon fill="midnightblue" stroke="midnightblue" points="1889.6,-112.802 1899.43,-116.753 1894.21,-107.534 1889.6,-112.802"/>
</g>
<!-- Node8&#45;&gt;Node7 -->
<g id="edge8" class="edge"><title>Node8&#45;&gt;Node7</title>
<path fill="none" stroke="midnightblue" d="M1835.02,-49.9199C1829.17,-40.2849 1822.23,-28.8502 1817.51,-21.0752"/>
<polygon fill="midnightblue" stroke="midnightblue" points="1832.2,-52.0213 1840.39,-58.7527 1838.19,-48.3884 1832.2,-52.0213"/>
</g>
<!-- Node9 -->
<g id="node9" class="node"><title>Node9</title>
<g id="a_node9"><a xlink:href="TraverseHelper_8h.html" target="_top" xlink:title="A helper function for managing data when traversing an RMF. ">
<polygon fill="none" stroke="black" points="2190.83,-1 2190.83,-21 2283.17,-21 2283.17,-1 2190.83,-1"/>
<text text-anchor="middle" x="2237" y="-7" font-family="Helvetica,sans-Serif" font-size="10.00">TraverseHelper.h</text>
</a>
</g>
</g>
<!-- Node8&#45;&gt;Node9 -->
<g id="edge9" class="edge"><title>Node8&#45;&gt;Node9</title>
<path fill="none" stroke="midnightblue" d="M1885.16,-62.3909C1957.77,-51.9917 2112.94,-29.7689 2190.64,-18.6391"/>
<polygon fill="midnightblue" stroke="midnightblue" points="1884.47,-58.9542 1875.07,-63.8366 1885.46,-65.8835 1884.47,-58.9542"/>
</g>
<!-- Node8&#45;&gt;Node10 -->
<g id="edge10" class="edge"><title>Node8&#45;&gt;Node10</title>
<path fill="none" stroke="midnightblue" d="M1806.65,-66.4215C1609.25,-58.5029 727.46,-23.1302 502.417,-14.1027"/>
<polygon fill="midnightblue" stroke="midnightblue" points="1806.71,-69.9266 1816.84,-66.8304 1806.99,-62.9323 1806.71,-69.9266"/>
</g>
<!-- Node11&#45;&gt;Node7 -->
<g id="edge12" class="edge"><title>Node11&#45;&gt;Node7</title>
<path fill="none" stroke="midnightblue" d="M1279.25,-121.293C1338.13,-114.109 1451.07,-99.1945 1546,-80 1631.73,-62.6655 1731.23,-35.2434 1780.71,-21.1016"/>
<polygon fill="midnightblue" stroke="midnightblue" points="1278.75,-117.828 1269.25,-122.503 1279.59,-124.777 1278.75,-117.828"/>
</g>
<!-- Node12&#45;&gt;Node7 -->
<g id="edge14" class="edge"><title>Node12&#45;&gt;Node7</title>
<path fill="none" stroke="midnightblue" d="M1603.75,-116.767C1650.19,-105.26 1724.33,-86.3333 1736,-80 1764.63,-64.4653 1791.37,-36.1328 1804.14,-21.4246"/>
<polygon fill="midnightblue" stroke="midnightblue" points="1602.88,-113.377 1594.02,-119.173 1604.56,-120.173 1602.88,-113.377"/>
</g>
<!-- Node13&#45;&gt;Node7 -->
<g id="edge17" class="edge"><title>Node13&#45;&gt;Node7</title>
<path fill="none" stroke="midnightblue" d="M1450.5,-121.088C1502.42,-114.815 1588.55,-102.042 1660,-80 1711.11,-64.2345 1767.73,-35.7433 1795.2,-21.1522"/>
<polygon fill="midnightblue" stroke="midnightblue" points="1449.79,-117.647 1440.27,-122.293 1450.61,-124.599 1449.79,-117.647"/>
</g>
<!-- Node14&#45;&gt;Node7 -->
<g id="edge19" class="edge"><title>Node14&#45;&gt;Node7</title>
<path fill="none" stroke="midnightblue" d="M2091.26,-112.383C2061.81,-97.725 2012.81,-74.3193 1969,-58 1928.28,-42.8307 1880.15,-29.3625 1848.02,-20.9805"/>
<polygon fill="midnightblue" stroke="midnightblue" points="2089.95,-115.644 2100.46,-116.996 2093.09,-109.386 2089.95,-115.644"/>
</g>
<!-- Node14&#45;&gt;Node9 -->
<g id="edge20" class="edge"><title>Node14&#45;&gt;Node9</title>
<path fill="none" stroke="midnightblue" d="M2135.18,-109.541C2160.61,-85.1847 2207.4,-40.3575 2227.46,-21.1394"/>
<polygon fill="midnightblue" stroke="midnightblue" points="2132.54,-107.226 2127.74,-116.671 2137.38,-112.281 2132.54,-107.226"/>
</g>
<!-- Node14&#45;&gt;Node10 -->
<g id="edge21" class="edge"><title>Node14&#45;&gt;Node10</title>
<path fill="none" stroke="midnightblue" d="M2078.47,-113.976C2016.72,-95.2845 1902.42,-61.0722 1883,-58 1609.18,-14.6871 726.94,-11.922 502.385,-11.9344"/>
<polygon fill="midnightblue" stroke="midnightblue" points="2077.68,-117.394 2088.26,-116.945 2079.71,-110.695 2077.68,-117.394"/>
</g>
<!-- Node15&#45;&gt;Node7 -->
<g id="edge23" class="edge"><title>Node15&#45;&gt;Node7</title>
<path fill="none" stroke="midnightblue" d="M2163.96,-113.116C2126.84,-98.4937 2063.65,-74.5345 2008,-58 1952.88,-41.6253 1887.67,-27.3009 1848.1,-19.1531"/>
<polygon fill="midnightblue" stroke="midnightblue" points="2163.12,-116.549 2173.71,-116.978 2165.7,-110.041 2163.12,-116.549"/>
</g>
<!-- Node15&#45;&gt;Node9 -->
<g id="edge24" class="edge"><title>Node15&#45;&gt;Node9</title>
<path fill="none" stroke="midnightblue" d="M2202.86,-106.939C2211.78,-82.1105 2227.04,-39.692 2233.71,-21.1394"/>
<polygon fill="midnightblue" stroke="midnightblue" points="2199.45,-106.076 2199.36,-116.671 2206.03,-108.445 2199.45,-106.076"/>
</g>
<!-- Node16&#45;&gt;Node7 -->
<g id="edge26" class="edge"><title>Node16&#45;&gt;Node7</title>
<path fill="none" stroke="midnightblue" d="M1081.2,-118.637C1085.5,-117.726 1089.85,-116.825 1094,-116 1236.19,-87.708 1271.59,-79.2429 1415,-58 1547.64,-38.3529 1706.25,-22.1553 1776.04,-15.3951"/>
<polygon fill="midnightblue" stroke="midnightblue" points="1080.41,-115.227 1071.37,-120.753 1081.88,-122.07 1080.41,-115.227"/>
</g>
<!-- Node17&#45;&gt;Node7 -->
<g id="edge28" class="edge"><title>Node17&#45;&gt;Node7</title>
<path fill="none" stroke="midnightblue" d="M1201.25,-115.798C1426.2,-75.5523 1683.03,-33.1261 1776.09,-17.8683"/>
<polygon fill="midnightblue" stroke="midnightblue" points="1200.46,-112.383 1191.24,-117.592 1201.7,-119.273 1200.46,-112.383"/>
</g>
<!-- Node18&#45;&gt;Node7 -->
<g id="edge30" class="edge"><title>Node18&#45;&gt;Node7</title>
<path fill="none" stroke="midnightblue" d="M2241.69,-113.665C2197.65,-99.0138 2121,-74.4874 2054,-58 1981.53,-40.1678 1895.42,-25.2727 1847.93,-17.5961"/>
<polygon fill="midnightblue" stroke="midnightblue" points="2240.77,-117.049 2251.36,-116.901 2242.99,-110.41 2240.77,-117.049"/>
</g>
<!-- Node18&#45;&gt;Node9 -->
<g id="edge31" class="edge"><title>Node18&#45;&gt;Node9</title>
<path fill="none" stroke="midnightblue" d="M2271.14,-106.939C2262.22,-82.1105 2246.96,-39.692 2240.29,-21.1394"/>
<polygon fill="midnightblue" stroke="midnightblue" points="2267.97,-108.445 2274.64,-116.671 2274.55,-106.076 2267.97,-108.445"/>
</g>
<!-- Node24&#45;&gt;Node4 -->
<g id="edge125" class="edge"><title>Node24&#45;&gt;Node4</title>
<path fill="none" stroke="midnightblue" d="M991.453,-530.064C953.602,-526.356 884.469,-515.757 834,-486 725.282,-421.899 637.255,-289.248 614.647,-253.208"/>
<polygon fill="midnightblue" stroke="midnightblue" points="991.43,-533.575 1001.7,-530.972 992.048,-526.602 991.43,-533.575"/>
</g>
<!-- Node24&#45;&gt;Node5 -->
<g id="edge126" class="edge"><title>Node24&#45;&gt;Node5</title>
<path fill="none" stroke="midnightblue" d="M997.923,-516.902C956.562,-485.368 871.968,-410.27 910,-348 949.342,-283.585 1177.05,-218.452 1266.21,-195.057"/>
<polygon fill="midnightblue" stroke="midnightblue" points="995.925,-519.778 1006.03,-522.95 1000.11,-514.166 995.925,-519.778"/>
</g>
<!-- Node24&#45;&gt;Node10 -->
<g id="edge129" class="edge"><title>Node24&#45;&gt;Node10</title>
<path fill="none" stroke="midnightblue" d="M991.668,-531.831C929.874,-530.751 775.276,-524.114 653,-486 586.292,-465.207 131.268,-255.723 95,-196 22.6648,-76.8856 282.08,-31.4368 397.424,-17.3675"/>
<polygon fill="midnightblue" stroke="midnightblue" points="991.72,-535.332 1001.77,-531.971 991.817,-528.333 991.72,-535.332"/>
</g>
<!-- Node24&#45;&gt;Node21 -->
<g id="edge127" class="edge"><title>Node24&#45;&gt;Node21</title>
<path fill="none" stroke="midnightblue" d="M991.33,-530.825C936.7,-527.864 811.645,-517.884 712,-486 559.6,-437.235 548.685,-369.815 410,-290 354.108,-257.833 336.385,-257.14 277,-232 246.028,-218.888 210.021,-204.197 187.371,-195.023"/>
<polygon fill="midnightblue" stroke="midnightblue" points="991.423,-534.334 1001.59,-531.342 991.776,-527.343 991.423,-534.334"/>
</g>
<!-- Node24&#45;&gt;Node22 -->
<g id="edge128" class="edge"><title>Node24&#45;&gt;Node22</title>
<path fill="none" stroke="midnightblue" d="M991.878,-527.385C950.249,-520.06 868.256,-504.672 800,-486 722.591,-464.825 699.84,-465.713 629,-428 628.302,-427.629 448.641,-290.462 448,-290 397.701,-253.771 336.282,-213.058 309.099,-195.213"/>
<polygon fill="midnightblue" stroke="midnightblue" points="991.343,-530.845 1001.8,-529.112 992.544,-523.949 991.343,-530.845"/>
</g>
<!-- Node25 -->
<g id="node25" class="node"><title>Node25</title>
<g id="a_node25"><a xlink:href="constants_8h.html" target="_top" xlink:title="Various constants. ">
<polygon fill="none" stroke="black" points="1398.43,-349 1398.43,-369 1465.57,-369 1465.57,-349 1398.43,-349"/>
<text text-anchor="middle" x="1432" y="-355" font-family="Helvetica,sans-Serif" font-size="10.00">constants.h</text>
</a>
</g>
</g>
<!-- Node24&#45;&gt;Node25 -->
<g id="edge43" class="edge"><title>Node24&#45;&gt;Node25</title>
<path fill="none" stroke="midnightblue" d="M1045.62,-520.916C1121.95,-489.123 1340.63,-398.053 1410.36,-369.013"/>
<polygon fill="midnightblue" stroke="midnightblue" points="1044.11,-517.753 1036.22,-524.828 1046.8,-524.215 1044.11,-517.753"/>
</g>
<!-- Node24&#45;&gt;Node26 -->
<g id="edge123" class="edge"><title>Node24&#45;&gt;Node26</title>
<path fill="none" stroke="midnightblue" d="M1020.77,-512.883C1024.4,-478.756 1034.34,-405.533 1057,-348 1062.41,-334.256 1071.81,-319.955 1078.21,-311.02"/>
<polygon fill="midnightblue" stroke="midnightblue" points="1017.28,-512.58 1019.77,-522.879 1024.25,-513.276 1017.28,-512.58"/>
</g>
<!-- Node24&#45;&gt;Node27 -->
<g id="edge86" class="edge"><title>Node24&#45;&gt;Node27</title>
<path fill="none" stroke="midnightblue" d="M1046.93,-532.535C1121.96,-533.293 1333.64,-530.957 1502,-486 1622.29,-453.878 1666.19,-455.182 1757,-370 1784.81,-343.912 1793,-327.802 1788,-290 1783.24,-254.038 1769.62,-212.856 1763.29,-195.018"/>
<polygon fill="midnightblue" stroke="midnightblue" points="1046.52,-529.029 1036.48,-532.399 1046.43,-536.029 1046.52,-529.029"/>
</g>
<!-- Node24&#45;&gt;Node28 -->
<g id="edge124" class="edge"><title>Node24&#45;&gt;Node28</title>
<path fill="none" stroke="midnightblue" d="M1046.49,-531.57C1148.9,-529.293 1505.42,-515.132 1565,-428 1603.82,-371.233 1559.35,-281.551 1543.32,-253.025"/>
<polygon fill="midnightblue" stroke="midnightblue" points="1046.26,-528.073 1036.34,-531.774 1046.4,-535.072 1046.26,-528.073"/>
</g>
<!-- Node24&#45;&gt;Node31 -->
<g id="edge87" class="edge"><title>Node24&#45;&gt;Node31</title>
<path fill="none" stroke="midnightblue" d="M1026.52,-513.251C1041.24,-476.572 1073.34,-396.534 1084.27,-369.293"/>
<polygon fill="midnightblue" stroke="midnightblue" points="1023.18,-512.168 1022.71,-522.753 1029.68,-514.775 1023.18,-512.168"/>
</g>
<!-- Node32 -->
<g id="node32" class="node"><title>Node32</title>
<g id="a_node32"><a xlink:href="HDF5_2types_8h.html" target="_top" xlink:title="Handle read/write of Model data from/to files. ">
<polygon fill="none" stroke="black" points="2841.88,-465 2841.88,-485 2890.12,-485 2890.12,-465 2841.88,-465"/>
<text text-anchor="middle" x="2866" y="-471" font-family="Helvetica,sans-Serif" font-size="10.00">types.h</text>
</a>
</g>
</g>
<!-- Node24&#45;&gt;Node32 -->
<g id="edge89" class="edge"><title>Node24&#45;&gt;Node32</title>
<path fill="none" stroke="midnightblue" d="M1046.76,-531.464C1205.21,-528.352 2011.15,-511.863 2669,-486 2731.28,-483.552 2804.57,-479.53 2841.75,-477.41"/>
<polygon fill="midnightblue" stroke="midnightblue" points="1046.42,-527.97 1036.49,-531.664 1046.55,-534.968 1046.42,-527.97"/>
</g>
<!-- Node25&#45;&gt;Node4 -->
<g id="edge75" class="edge"><title>Node25&#45;&gt;Node4</title>
<path fill="none" stroke="midnightblue" d="M1388.25,-353.816C1313.32,-346.485 1155.67,-330.344 1023,-312 953.103,-302.335 751.868,-268.349 658.134,-252.392"/>
<polygon fill="midnightblue" stroke="midnightblue" points="1387.97,-357.305 1398.26,-354.791 1388.65,-350.338 1387.97,-357.305"/>
</g>
<!-- Node25&#45;&gt;Node6 -->
<g id="edge76" class="edge"><title>Node25&#45;&gt;Node6</title>
<path fill="none" stroke="midnightblue" d="M1475.42,-346.451C1574.29,-319.481 1812.38,-250.51 1874,-196 1892.41,-179.716 1902.95,-151.711 1907.43,-137.247"/>
<polygon fill="midnightblue" stroke="midnightblue" points="1474.48,-343.081 1465.74,-349.079 1476.31,-349.837 1474.48,-343.081"/>
</g>
<!-- Node25&#45;&gt;Node8 -->
<g id="edge79" class="edge"><title>Node25&#45;&gt;Node8</title>
<path fill="none" stroke="midnightblue" d="M1462.25,-344.928C1494.69,-330.996 1547.79,-308.448 1594,-290 1688.22,-252.388 1735.39,-272.516 1802,-196 1833.04,-160.348 1842.55,-101.505 1845.13,-79.0712"/>
<polygon fill="midnightblue" stroke="midnightblue" points="1460.68,-341.794 1452.87,-348.961 1463.44,-348.224 1460.68,-341.794"/>
</g>
<!-- Node25&#45;&gt;Node11 -->
<g id="edge77" class="edge"><title>Node25&#45;&gt;Node11</title>
<path fill="none" stroke="midnightblue" d="M1410.43,-343.16C1364.5,-311.06 1259.73,-234.938 1241,-196 1231.78,-176.842 1234.54,-151.007 1236.99,-137.356"/>
<polygon fill="midnightblue" stroke="midnightblue" points="1408.57,-346.135 1418.78,-348.969 1412.57,-340.388 1408.57,-346.135"/>
</g>
<!-- Node25&#45;&gt;Node12 -->
<g id="edge78" class="edge"><title>Node25&#45;&gt;Node12</title>
<path fill="none" stroke="midnightblue" d="M1439.09,-339.466C1448.96,-314.408 1468.02,-268.643 1489,-232 1504.69,-204.606 1511.16,-199.326 1530,-174 1539.69,-160.983 1551.33,-146.268 1558.7,-137.063"/>
<polygon fill="midnightblue" stroke="midnightblue" points="1435.8,-338.262 1435.44,-348.85 1442.33,-340.798 1435.8,-338.262"/>
</g>
<!-- Node25&#45;&gt;Node13 -->
<g id="edge80" class="edge"><title>Node25&#45;&gt;Node13</title>
<path fill="none" stroke="midnightblue" d="M1429.68,-338.921C1423.94,-291.834 1409.29,-171.434 1405.12,-137.204"/>
<polygon fill="midnightblue" stroke="midnightblue" points="1426.22,-339.48 1430.9,-348.984 1433.17,-338.634 1426.22,-339.48"/>
</g>
<!-- Node25&#45;&gt;Node14 -->
<g id="edge81" class="edge"><title>Node25&#45;&gt;Node14</title>
<path fill="none" stroke="midnightblue" d="M1475.85,-350.043C1518.61,-341.899 1585.3,-328.169 1642,-312 1824.33,-260.007 2034.45,-166.362 2098.49,-137.034"/>
<polygon fill="midnightblue" stroke="midnightblue" points="1474.96,-346.65 1465.78,-351.942 1476.26,-353.528 1474.96,-346.65"/>
</g>
<!-- Node25&#45;&gt;Node15 -->
<g id="edge82" class="edge"><title>Node25&#45;&gt;Node15</title>
<path fill="none" stroke="midnightblue" d="M1475.9,-352.278C1527.6,-345.056 1615.83,-331.217 1690,-312 1883.64,-261.828 2107.13,-166.96 2175.25,-137.181"/>
<polygon fill="midnightblue" stroke="midnightblue" points="1475.18,-348.844 1465.75,-353.676 1476.14,-355.778 1475.18,-348.844"/>
</g>
<!-- Node25&#45;&gt;Node16 -->
<g id="edge83" class="edge"><title>Node25&#45;&gt;Node16</title>
<path fill="none" stroke="midnightblue" d="M1388.53,-346.558C1361.86,-338.677 1327.49,-326.936 1299,-312 1197.07,-258.572 1091,-166.673 1058.24,-137.308"/>
<polygon fill="midnightblue" stroke="midnightblue" points="1387.76,-349.98 1398.34,-349.389 1389.7,-343.254 1387.76,-349.98"/>
</g>
<!-- Node25&#45;&gt;Node17 -->
<g id="edge84" class="edge"><title>Node25&#45;&gt;Node17</title>
<path fill="none" stroke="midnightblue" d="M1399.81,-345.01C1380.64,-336.688 1356.19,-325.027 1336,-312 1268.96,-268.75 1253.89,-253.9 1199,-196 1180.6,-176.586 1162.36,-150.855 1153.16,-137.288"/>
<polygon fill="midnightblue" stroke="midnightblue" points="1398.46,-348.238 1409.03,-348.933 1401.2,-341.797 1398.46,-348.238"/>
</g>
<!-- Node25&#45;&gt;Node18 -->
<g id="edge85" class="edge"><title>Node25&#45;&gt;Node18</title>
<path fill="none" stroke="midnightblue" d="M1475.86,-353.666C1535.97,-347.224 1647.08,-333.52 1740,-312 1946.28,-264.225 2184.59,-167.331 2256.43,-137.172"/>
<polygon fill="midnightblue" stroke="midnightblue" points="1475.18,-350.218 1465.6,-354.748 1475.91,-357.18 1475.18,-350.218"/>
</g>
<!-- Node25&#45;&gt;Node26 -->
<g id="edge44" class="edge"><title>Node25&#45;&gt;Node26</title>
<path fill="none" stroke="midnightblue" d="M1388.32,-350.951C1324.76,-340.693 1206.89,-321.671 1138.3,-310.602"/>
<polygon fill="midnightblue" stroke="midnightblue" points="1387.98,-354.442 1398.41,-352.58 1389.1,-347.531 1387.98,-354.442"/>
</g>
<!-- Node26&#45;&gt;Node4 -->
<g id="edge71" class="edge"><title>Node26&#45;&gt;Node4</title>
<path fill="none" stroke="midnightblue" d="M1021.63,-292.545C925.598,-281.247 745.217,-260.025 658.296,-249.8"/>
<polygon fill="midnightblue" stroke="midnightblue" points="1021.44,-296.047 1031.78,-293.739 1022.26,-289.095 1021.44,-296.047"/>
</g>
<!-- Node26&#45;&gt;Node10 -->
<g id="edge74" class="edge"><title>Node26&#45;&gt;Node10</title>
<path fill="none" stroke="midnightblue" d="M1021.9,-289.416C933.104,-272.705 782,-236.804 782,-186 782,-186 782,-186 782,-126 782,-67.5717 595.736,-32.7136 502.24,-18.8968"/>
<polygon fill="midnightblue" stroke="midnightblue" points="1021.4,-292.884 1031.87,-291.263 1022.68,-286.001 1021.4,-292.884"/>
</g>
<!-- Node26&#45;&gt;Node19 -->
<g id="edge73" class="edge"><title>Node26&#45;&gt;Node19</title>
<path fill="none" stroke="midnightblue" d="M1046.88,-287.464C1003.13,-271.606 931.096,-240.846 882,-196 863.23,-178.855 849.415,-151.719 842.997,-137.463"/>
<polygon fill="midnightblue" stroke="midnightblue" points="1045.97,-290.855 1056.56,-290.898 1048.31,-284.257 1045.97,-290.855"/>
</g>
<!-- Node26&#45;&gt;Node27 -->
<g id="edge45" class="edge"><title>Node26&#45;&gt;Node27</title>
<path fill="none" stroke="midnightblue" d="M1148.35,-297.494C1264.28,-292.362 1505.98,-278.981 1586,-254 1605,-248.07 1606.84,-240.133 1625,-232 1659.24,-216.669 1700.23,-203.374 1727.99,-195.074"/>
<polygon fill="midnightblue" stroke="midnightblue" points="1148.05,-294.004 1138.21,-297.936 1148.35,-300.997 1148.05,-294.004"/>
</g>
<!-- Node26&#45;&gt;Node28 -->
<g id="edge56" class="edge"><title>Node26&#45;&gt;Node28</title>
<path fill="none" stroke="midnightblue" d="M1148.32,-292.172C1243.04,-280.463 1418.92,-258.721 1497.84,-248.964"/>
<polygon fill="midnightblue" stroke="midnightblue" points="1147.79,-288.711 1138.3,-293.411 1148.65,-295.658 1147.79,-288.711"/>
</g>
<!-- Node30 -->
<g id="node30" class="node"><title>Node30</title>
<g id="a_node30"><a xlink:href="utility_8h.html" target="_top" xlink:title="Helper functions for manipulating RMF files. ">
<polygon fill="none" stroke="black" points="1633.81,-233 1633.81,-253 1680.19,-253 1680.19,-233 1633.81,-233"/>
<text text-anchor="middle" x="1657" y="-239" font-family="Helvetica,sans-Serif" font-size="10.00">utility.h</text>
</a>
</g>
</g>
<!-- Node26&#45;&gt;Node30 -->
<g id="edge72" class="edge"><title>Node26&#45;&gt;Node30</title>
<path fill="none" stroke="midnightblue" d="M1148.18,-298.209C1248.75,-294.543 1451.14,-283.832 1620,-254 1624.46,-253.213 1629.16,-252.138 1633.65,-250.984"/>
<polygon fill="midnightblue" stroke="midnightblue" points="1148.05,-294.711 1138.18,-298.562 1148.3,-301.706 1148.05,-294.711"/>
</g>
<!-- Node27&#45;&gt;Node6 -->
<g id="edge46" class="edge"><title>Node27&#45;&gt;Node6</title>
<path fill="none" stroke="midnightblue" d="M1794.04,-171.293C1822.66,-160.605 1862.78,-145.63 1887.54,-136.386"/>
<polygon fill="midnightblue" stroke="midnightblue" points="1792.58,-168.101 1784.43,-174.878 1795.03,-174.659 1792.58,-168.101"/>
</g>
<!-- Node27&#45;&gt;Node8 -->
<g id="edge49" class="edge"><title>Node27&#45;&gt;Node8</title>
<path fill="none" stroke="midnightblue" d="M1773.14,-166.582C1791.67,-142.025 1824.8,-98.1079 1839.11,-79.1394"/>
<polygon fill="midnightblue" stroke="midnightblue" points="1770.27,-164.58 1767.04,-174.671 1775.85,-168.796 1770.27,-164.58"/>
</g>
<!-- Node27&#45;&gt;Node11 -->
<g id="edge47" class="edge"><title>Node27&#45;&gt;Node11</title>
<path fill="none" stroke="midnightblue" d="M1715.7,-179.239C1612.19,-168.112 1356.6,-140.64 1269.01,-131.226"/>
<polygon fill="midnightblue" stroke="midnightblue" points="1715.5,-182.737 1725.82,-180.326 1716.25,-175.777 1715.5,-182.737"/>
</g>
<!-- Node27&#45;&gt;Node12 -->
<g id="edge48" class="edge"><title>Node27&#45;&gt;Node12</title>
<path fill="none" stroke="midnightblue" d="M1718.74,-172.091C1681.1,-161.226 1626.52,-145.468 1593.81,-136.028"/>
<polygon fill="midnightblue" stroke="midnightblue" points="1717.82,-175.467 1728.4,-174.878 1719.76,-168.742 1717.82,-175.467"/>
</g>
<!-- Node27&#45;&gt;Node13 -->
<g id="edge50" class="edge"><title>Node27&#45;&gt;Node13</title>
<path fill="none" stroke="midnightblue" d="M1715.87,-177.058C1644.68,-165.86 1505.86,-144.023 1440.14,-133.685"/>
<polygon fill="midnightblue" stroke="midnightblue" points="1715.44,-180.534 1725.87,-178.63 1716.53,-173.619 1715.44,-180.534"/>
</g>
<!-- Node27&#45;&gt;Node14 -->
<g id="edge51" class="edge"><title>Node27&#45;&gt;Node14</title>
<path fill="none" stroke="midnightblue" d="M1804.15,-177.093C1876.52,-165.774 2018.81,-143.516 2083.96,-133.324"/>
<polygon fill="midnightblue" stroke="midnightblue" points="1803.34,-173.678 1794,-178.681 1804.42,-180.594 1803.34,-173.678"/>
</g>
<!-- Node27&#45;&gt;Node15 -->
<g id="edge52" class="edge"><title>Node27&#45;&gt;Node15</title>
<path fill="none" stroke="midnightblue" d="M1804.34,-181.177C1878.5,-175.949 2032.16,-162.947 2160,-138 2163.31,-137.354 2166.76,-136.558 2170.16,-135.699"/>
<polygon fill="midnightblue" stroke="midnightblue" points="1803.72,-177.711 1793.99,-181.892 1804.21,-184.695 1803.72,-177.711"/>
</g>
<!-- Node27&#45;&gt;Node16 -->
<g id="edge53" class="edge"><title>Node27&#45;&gt;Node16</title>
<path fill="none" stroke="midnightblue" d="M1715.85,-181.128C1572.08,-171.751 1124.78,-142.386 1094,-138 1086.72,-136.963 1078.87,-135.419 1071.76,-133.853"/>
<polygon fill="midnightblue" stroke="midnightblue" points="1715.86,-184.636 1726.06,-181.794 1716.31,-177.65 1715.86,-184.636"/>
</g>
<!-- Node27&#45;&gt;Node17 -->
<g id="edge54" class="edge"><title>Node27&#45;&gt;Node17</title>
<path fill="none" stroke="midnightblue" d="M1715.76,-180.968C1601.7,-173.052 1299.6,-151.45 1200,-138 1197.12,-137.612 1194.17,-137.171 1191.19,-136.695"/>
<polygon fill="midnightblue" stroke="midnightblue" points="1715.67,-184.469 1725.88,-181.668 1716.15,-177.486 1715.67,-184.469"/>
</g>
<!-- Node27&#45;&gt;Node18 -->
<g id="edge55" class="edge"><title>Node27&#45;&gt;Node18</title>
<path fill="none" stroke="midnightblue" d="M1804.21,-181.27C1887.75,-175.757 2074.36,-161.758 2230,-138 2233.28,-137.499 2236.68,-136.919 2240.08,-136.295"/>
<polygon fill="midnightblue" stroke="midnightblue" points="1803.82,-177.787 1794.07,-181.93 1804.28,-184.773 1803.82,-177.787"/>
</g>
<!-- Node28&#45;&gt;Node5 -->
<g id="edge59" class="edge"><title>Node28&#45;&gt;Node5</title>
<path fill="none" stroke="midnightblue" d="M1490,-230.611C1445.05,-219.943 1378.85,-204.236 1338.19,-194.587"/>
<polygon fill="midnightblue" stroke="midnightblue" points="1489.28,-234.037 1499.82,-232.94 1490.9,-227.226 1489.28,-234.037"/>
</g>
<!-- Node28&#45;&gt;Node6 -->
<g id="edge58" class="edge"><title>Node28&#45;&gt;Node6</title>
<path fill="none" stroke="midnightblue" d="M1568.45,-229.05C1603.74,-214.369 1663.85,-190.354 1717,-174 1777.74,-155.309 1851.18,-139.667 1887.46,-132.387"/>
<polygon fill="midnightblue" stroke="midnightblue" points="1567.05,-225.84 1559.18,-232.93 1569.76,-232.297 1567.05,-225.84"/>
</g>
<!-- Node28&#45;&gt;Node8 -->
<g id="edge62" class="edge"><title>Node28&#45;&gt;Node8</title>
<path fill="none" stroke="midnightblue" d="M1562.16,-227.518C1585.53,-213.585 1622.01,-192.035 1654,-174 1717.9,-137.978 1794.9,-96.9934 1828.68,-79.1286"/>
<polygon fill="midnightblue" stroke="midnightblue" points="1560.08,-224.681 1553.29,-232.814 1563.67,-230.691 1560.08,-224.681"/>
</g>
<!-- Node28&#45;&gt;Node10 -->
<g id="edge70" class="edge"><title>Node28&#45;&gt;Node10</title>
<path fill="none" stroke="midnightblue" d="M1487.63,-240.609C1410.71,-237.512 1259.84,-227.59 1136,-196 977.976,-155.692 953.65,-99.7476 796,-58 694.073,-31.0085 570.859,-19.4577 502.384,-14.8273"/>
<polygon fill="midnightblue" stroke="midnightblue" points="1487.86,-244.12 1497.98,-241.003 1488.12,-237.125 1487.86,-244.12"/>
</g>
<!-- Node28&#45;&gt;Node11 -->
<g id="edge60" class="edge"><title>Node28&#45;&gt;Node11</title>
<path fill="none" stroke="midnightblue" d="M1487.63,-236.738C1411.41,-228.334 1273.82,-211.273 1257,-196 1240.18,-180.732 1238.3,-151.753 1238.53,-137.048"/>
<polygon fill="midnightblue" stroke="midnightblue" points="1487.64,-240.259 1497.96,-237.865 1488.4,-233.301 1487.64,-240.259"/>
</g>
<!-- Node28&#45;&gt;Node12 -->
<g id="edge61" class="edge"><title>Node28&#45;&gt;Node12</title>
<path fill="none" stroke="midnightblue" d="M1534.77,-222.734C1533.15,-208.897 1532.39,-189.951 1537,-174 1541.09,-159.851 1550.96,-145.865 1558.05,-137.097"/>
<polygon fill="midnightblue" stroke="midnightblue" points="1531.35,-223.573 1536.23,-232.977 1538.28,-222.583 1531.35,-223.573"/>
</g>
<!-- Node28&#45;&gt;Node13 -->
<g id="edge63" class="edge"><title>Node28&#45;&gt;Node13</title>
<path fill="none" stroke="midnightblue" d="M1519.39,-226.169C1490.94,-201.963 1437.53,-156.524 1414.74,-137.139"/>
<polygon fill="midnightblue" stroke="midnightblue" points="1517.15,-228.857 1527.03,-232.671 1521.69,-223.525 1517.15,-228.857"/>
</g>
<!-- Node28&#45;&gt;Node14 -->
<g id="edge64" class="edge"><title>Node28&#45;&gt;Node14</title>
<path fill="none" stroke="midnightblue" d="M1588.53,-233.803C1641.75,-225.029 1727.93,-210.416 1802,-196 1905.01,-175.951 2026.14,-148.909 2083.95,-135.788"/>
<polygon fill="midnightblue" stroke="midnightblue" points="1587.64,-230.403 1578.34,-235.478 1588.78,-237.31 1587.64,-230.403"/>
</g>
<!-- Node28&#45;&gt;Node15 -->
<g id="edge65" class="edge"><title>Node28&#45;&gt;Node15</title>
<path fill="none" stroke="midnightblue" d="M1588.08,-235.969C1653.03,-227.934 1769.76,-212.77 1869,-196 1999.03,-174.025 2031.71,-168.558 2160,-138 2163.28,-137.218 2166.71,-136.342 2170.1,-135.441"/>
<polygon fill="midnightblue" stroke="midnightblue" points="1587.61,-232.5 1578.11,-237.196 1588.47,-239.448 1587.61,-232.5"/>
</g>
<!-- Node28&#45;&gt;Node16 -->
<g id="edge66" class="edge"><title>Node28&#45;&gt;Node16</title>
<path fill="none" stroke="midnightblue" d="M1487.55,-239.688C1420.5,-235.596 1298.86,-224.607 1199,-196 1147.59,-181.273 1091.17,-152.049 1064.16,-137.169"/>
<polygon fill="midnightblue" stroke="midnightblue" points="1487.64,-243.199 1497.83,-240.287 1488.05,-236.211 1487.64,-243.199"/>
</g>
<!-- Node28&#45;&gt;Node17 -->
<g id="edge67" class="edge"><title>Node28&#45;&gt;Node17</title>
<path fill="none" stroke="midnightblue" d="M1487.91,-241.337C1427.28,-238.958 1323.12,-229.751 1241,-196 1206.16,-181.681 1172.06,-151.998 1156.21,-137.036"/>
<polygon fill="midnightblue" stroke="midnightblue" points="1487.87,-244.837 1497.98,-241.685 1488.11,-237.842 1487.87,-244.837"/>
</g>
<!-- Node28&#45;&gt;Node18 -->
<g id="edge68" class="edge"><title>Node28&#45;&gt;Node18</title>
<path fill="none" stroke="midnightblue" d="M1588.55,-236.172C1600.5,-234.799 1613.2,-233.344 1625,-232 1766.76,-215.854 1803.06,-218.2 1944,-196 2072.12,-175.819 2102.96,-164.115 2230,-138 2233.25,-137.332 2236.63,-136.635 2240.01,-135.934"/>
<polygon fill="midnightblue" stroke="midnightblue" points="1587.81,-232.733 1578.28,-237.353 1588.61,-239.687 1587.81,-232.733"/>
</g>
<!-- Node28&#45;&gt;Node27 -->
<g id="edge57" class="edge"><title>Node28&#45;&gt;Node27</title>
<path fill="none" stroke="midnightblue" d="M1583.94,-230.412C1626.24,-219.741 1688.03,-204.154 1726.04,-194.567"/>
<polygon fill="midnightblue" stroke="midnightblue" points="1583,-227.038 1574.16,-232.878 1584.71,-233.826 1583,-227.038"/>
</g>
<!-- Node29 -->
<g id="node29" class="node"><title>Node29</title>
<g id="a_node29"><a xlink:href="Label_8h.html" target="_top" xlink:title="Declaration of RMF::Label. ">
<polygon fill="none" stroke="red" points="1545.6,-175 1545.6,-195 1594.4,-195 1594.4,-175 1545.6,-175"/>
<text text-anchor="middle" x="1570" y="-181" font-family="Helvetica,sans-Serif" font-size="10.00">Label.h</text>
</a>
</g>
</g>
<!-- Node28&#45;&gt;Node29 -->
<g id="edge69" class="edge"><title>Node28&#45;&gt;Node29</title>
<path fill="none" stroke="midnightblue" d="M1548.33,-223.92C1553.84,-214.285 1560.37,-202.85 1564.81,-195.075"/>
<polygon fill="midnightblue" stroke="midnightblue" points="1545.21,-222.334 1543.28,-232.753 1551.28,-225.807 1545.21,-222.334"/>
</g>
<!-- Node31&#45;&gt;Node26 -->
<g id="edge88" class="edge"><title>Node31&#45;&gt;Node26</title>
<path fill="none" stroke="midnightblue" d="M1086.97,-338.707C1086.46,-329.338 1085.89,-318.526 1085.49,-311.075"/>
<polygon fill="midnightblue" stroke="midnightblue" points="1083.47,-338.954 1087.5,-348.753 1090.46,-338.58 1083.47,-338.954"/>
</g>
<!-- Node33 -->
<g id="node33" class="node"><title>Node33</title>
<g id="a_node33"><a xlink:href="traits_8h.html" target="_top" xlink:title="Handle read/write of Model data from/to files. ">
<polygon fill="none" stroke="black" points="1510,-407 1510,-427 1556,-427 1556,-407 1510,-407"/>
<text text-anchor="middle" x="1533" y="-413" font-family="Helvetica,sans-Serif" font-size="10.00">traits.h</text>
</a>
</g>
</g>
<!-- Node32&#45;&gt;Node33 -->
<g id="edge90" class="edge"><title>Node32&#45;&gt;Node33</title>
<path fill="none" stroke="midnightblue" d="M2831.64,-472.149C2792.33,-470.056 2726.03,-466.602 2669,-464 2221.4,-443.578 1674.39,-423.205 1556.2,-418.851"/>
<polygon fill="midnightblue" stroke="midnightblue" points="2831.57,-475.65 2841.74,-472.688 2831.94,-468.66 2831.57,-475.65"/>
</g>
<!-- Node35 -->
<g id="node35" class="node"><title>Node35</title>
<g id="a_node35"><a xlink:href="ConstAttributes_8h.html" target="_top" xlink:title="Handle read/write of Model data from/to files. ">
<polygon fill="none" stroke="black" points="2875.65,-407 2875.65,-427 2968.35,-427 2968.35,-407 2875.65,-407"/>
<text text-anchor="middle" x="2922" y="-413" font-family="Helvetica,sans-Serif" font-size="10.00">ConstAttributes.h</text>
</a>
</g>
</g>
<!-- Node32&#45;&gt;Node35 -->
<g id="edge97" class="edge"><title>Node32&#45;&gt;Node35</title>
<path fill="none" stroke="midnightblue" d="M2882.59,-457.41C2892.51,-447.486 2904.74,-435.255 2912.92,-427.075"/>
<polygon fill="midnightblue" stroke="midnightblue" points="2879.84,-455.207 2875.25,-464.753 2884.79,-460.157 2879.84,-455.207"/>
</g>
<!-- Node36 -->
<g id="node36" class="node"><title>Node36</title>
<g id="a_node36"><a xlink:href="ConstDataSetD_8h.html" target="_top" xlink:title="Handle read/write of Model data from/to files. ">
<polygon fill="none" stroke="black" points="2914.09,-349 2914.09,-369 3007.91,-369 3007.91,-349 2914.09,-349"/>
<text text-anchor="middle" x="2961" y="-355" font-family="Helvetica,sans-Serif" font-size="10.00">ConstDataSetD.h</text>
</a>
</g>
</g>
<!-- Node32&#45;&gt;Node36 -->
<g id="edge116" class="edge"><title>Node32&#45;&gt;Node36</title>
<path fill="none" stroke="midnightblue" d="M2861.23,-454.897C2858.73,-440.361 2857.83,-420.461 2867,-406 2878.97,-387.128 2901.14,-375.772 2920.94,-369.066"/>
<polygon fill="midnightblue" stroke="midnightblue" points="2857.83,-455.726 2863.32,-464.788 2864.68,-454.281 2857.83,-455.726"/>
</g>
<!-- Node37 -->
<g id="node37" class="node"><title>Node37</title>
<g id="a_node37"><a xlink:href="DataSetD_8h.html" target="_top" xlink:title="Handle read/write of Model data from/to files. ">
<polygon fill="none" stroke="black" points="2927.15,-291 2927.15,-311 2994.85,-311 2994.85,-291 2927.15,-291"/>
<text text-anchor="middle" x="2961" y="-297" font-family="Helvetica,sans-Serif" font-size="10.00">DataSetD.h</text>
</a>
</g>
</g>
<!-- Node32&#45;&gt;Node37 -->
<g id="edge121" class="edge"><title>Node32&#45;&gt;Node37</title>
<path fill="none" stroke="midnightblue" d="M2858.95,-455.442C2854.74,-441.481 2851.21,-422.071 2857,-406 2873.09,-361.315 2920.7,-326.662 2945.53,-311.052"/>
<polygon fill="midnightblue" stroke="midnightblue" points="2855.64,-456.569 2862.17,-464.911 2862.27,-454.317 2855.64,-456.569"/>
</g>
<!-- Node39 -->
<g id="node39" class="node"><title>Node39</title>
<g id="a_node39"><a xlink:href="HDF5_8h.html" target="_top" xlink:title="A container which has pairs which ensure a set is connected. ">
<polygon fill="none" stroke="black" points="3071.77,-175 3071.77,-195 3122.23,-195 3122.23,-175 3071.77,-175"/>
<text text-anchor="middle" x="3097" y="-181" font-family="Helvetica,sans-Serif" font-size="10.00">HDF5.h</text>
</a>
</g>
</g>
<!-- Node32&#45;&gt;Node39 -->
<g id="edge122" class="edge"><title>Node32&#45;&gt;Node39</title>
<path fill="none" stroke="midnightblue" d="M2900.59,-469.575C2965.85,-461.549 3101.3,-443.943 3116,-428 3175.14,-363.852 3157.05,-313.91 3127,-232 3121.52,-217.059 3108.8,-203.644 3101.25,-195.21"/>
<polygon fill="midnightblue" stroke="midnightblue" points="2899.88,-466.136 2890.38,-470.824 2900.73,-473.084 2899.88,-466.136"/>
</g>
<!-- Node40 -->
<g id="node40" class="node"><title>Node40</title>
<g id="a_node40"><a xlink:href="Object_8h.html" target="_top" xlink:title="Handle read/write of Model data from/to files. ">
<polygon fill="none" stroke="black" points="2801.38,-117 2801.38,-137 2854.62,-137 2854.62,-117 2801.38,-117"/>
<text text-anchor="middle" x="2828" y="-123" font-family="Helvetica,sans-Serif" font-size="10.00">Object.h</text>
</a>
</g>
</g>
<!-- Node32&#45;&gt;Node40 -->
<g id="edge117" class="edge"><title>Node32&#45;&gt;Node40</title>
<path fill="none" stroke="midnightblue" d="M2839.88,-459.754C2809.66,-441.139 2764,-405.488 2764,-360 2764,-360 2764,-360 2764,-242 2764,-197.967 2800.75,-155.204 2818.56,-137.073"/>
<polygon fill="midnightblue" stroke="midnightblue" points="2838.31,-462.89 2848.7,-464.976 2841.88,-456.868 2838.31,-462.89"/>
</g>
<!-- Node42 -->
<g id="node42" class="node"><title>Node42</title>
<g id="a_node42"><a xlink:href="DataSetIndexD_8h.html" target="_top" xlink:title="Handle read/write of Model data from/to files. ">
<polygon fill="none" stroke="red" points="3023.92,-407 3023.92,-427 3116.08,-427 3116.08,-407 3023.92,-407"/>
<text text-anchor="middle" x="3070" y="-413" font-family="Helvetica,sans-Serif" font-size="10.00">DataSetIndexD.h</text>
</a>
</g>
</g>
<!-- Node32&#45;&gt;Node42 -->
<g id="edge118" class="edge"><title>Node32&#45;&gt;Node42</title>
<path fill="none" stroke="midnightblue" d="M2900.3,-464.583C2938.42,-454.121 2999.52,-437.347 3037.07,-427.039"/>
<polygon fill="midnightblue" stroke="midnightblue" points="2898.92,-461.334 2890.2,-467.356 2900.77,-468.084 2898.92,-461.334"/>
</g>
<!-- Node33&#45;&gt;Node26 -->
<g id="edge96" class="edge"><title>Node33&#45;&gt;Node26</title>
<path fill="none" stroke="midnightblue" d="M1499.73,-413.245C1425.96,-406.852 1250.79,-390.015 1195,-370 1174.71,-362.721 1122.98,-328.111 1098.38,-311.26"/>
<polygon fill="midnightblue" stroke="midnightblue" points="1499.59,-416.746 1509.85,-414.112 1500.19,-409.772 1499.59,-416.746"/>
</g>
<!-- Node33&#45;&gt;Node31 -->
<g id="edge91" class="edge"><title>Node33&#45;&gt;Node31</title>
<path fill="none" stroke="midnightblue" d="M1499.95,-412.025C1435.11,-404.2 1286.69,-386.154 1162,-370 1144.77,-367.768 1125.3,-365.133 1110.66,-363.128"/>
<polygon fill="midnightblue" stroke="midnightblue" points="1499.63,-415.512 1509.98,-413.235 1500.47,-408.563 1499.63,-415.512"/>
</g>
<!-- Node33&#45;&gt;Node34 -->
<g id="edge92" class="edge"><title>Node33&#45;&gt;Node34</title>
<path fill="none" stroke="midnightblue" d="M1565.71,-406.097C1600.4,-395.599 1654.69,-379.163 1688.22,-369.015"/>
<polygon fill="midnightblue" stroke="midnightblue" points="1564.61,-402.774 1556.06,-409.021 1566.64,-409.473 1564.61,-402.774"/>
</g>
<!-- Node34&#45;&gt;Node9 -->
<g id="edge95" class="edge"><title>Node34&#45;&gt;Node9</title>
<path fill="none" stroke="midnightblue" d="M1758.59,-354.265C1888.7,-341.372 2291.39,-294.05 2368,-196 2418.94,-130.802 2296.92,-48.0809 2252.44,-21.0138"/>
<polygon fill="midnightblue" stroke="midnightblue" points="1757.89,-350.816 1748.27,-355.271 1758.57,-357.783 1757.89,-350.816"/>
</g>
<!-- Node34&#45;&gt;Node26 -->
<g id="edge93" class="edge"><title>Node34&#45;&gt;Node26</title>
<path fill="none" stroke="midnightblue" d="M1677.42,-354.41C1567.22,-344.661 1262.33,-317.688 1138.41,-306.725"/>
<polygon fill="midnightblue" stroke="midnightblue" points="1677.2,-357.904 1687.47,-355.299 1677.82,-350.931 1677.2,-357.904"/>
</g>
<!-- Node34&#45;&gt;Node28 -->
<g id="edge94" class="edge"><title>Node34&#45;&gt;Node28</title>
<path fill="none" stroke="midnightblue" d="M1710.1,-339.189C1702.81,-323.933 1690.59,-302.911 1674,-290 1646.07,-268.263 1607.28,-256.487 1578.27,-250.31"/>
<polygon fill="midnightblue" stroke="midnightblue" points="1707.07,-340.974 1714.36,-348.66 1713.45,-338.104 1707.07,-340.974"/>
</g>
<!-- Node35&#45;&gt;Node36 -->
<g id="edge98" class="edge"><title>Node35&#45;&gt;Node36</title>
<path fill="none" stroke="midnightblue" d="M2934.17,-398.52C2940.97,-388.763 2949.15,-377.012 2954.68,-369.075"/>
<polygon fill="midnightblue" stroke="midnightblue" points="2931.28,-396.546 2928.44,-406.753 2937.03,-400.547 2931.28,-396.546"/>
</g>
<!-- Node38 -->
<g id="node38" class="node"><title>Node38</title>
<g id="a_node38"><a xlink:href="ConstGroup_8h.html" target="_top" xlink:title="Handle read/write of Model data from/to files. ">
<polygon fill="none" stroke="red" points="2829.87,-233 2829.87,-253 2908.13,-253 2908.13,-233 2829.87,-233"/>
<text text-anchor="middle" x="2869" y="-239" font-family="Helvetica,sans-Serif" font-size="10.00">ConstGroup.h</text>
</a>
</g>
</g>
<!-- Node35&#45;&gt;Node38 -->
<g id="edge114" class="edge"><title>Node35&#45;&gt;Node38</title>
<path fill="none" stroke="midnightblue" d="M2914.77,-397.424C2911.62,-389.089 2907.98,-379.104 2905,-370 2890.85,-326.754 2876.84,-274.176 2871.38,-253.242"/>
<polygon fill="midnightblue" stroke="midnightblue" points="2911.56,-398.824 2918.41,-406.907 2918.09,-396.317 2911.56,-398.824"/>
</g>
<!-- Node35&#45;&gt;Node39 -->
<g id="edge115" class="edge"><title>Node35&#45;&gt;Node39</title>
<path fill="none" stroke="midnightblue" d="M2954.9,-403.039C2972.14,-395.682 2992.48,-384.907 3007,-370 3058.87,-316.739 3080.5,-224.729 3091.49,-195.322"/>
<polygon fill="midnightblue" stroke="midnightblue" points="2953.13,-399.982 2945.17,-406.982 2955.76,-406.469 2953.13,-399.982"/>
</g>
<!-- Node36&#45;&gt;Node37 -->
<g id="edge99" class="edge"><title>Node36&#45;&gt;Node37</title>
<path fill="none" stroke="midnightblue" d="M2961,-338.707C2961,-329.338 2961,-318.526 2961,-311.075"/>
<polygon fill="midnightblue" stroke="midnightblue" points="2957.5,-338.753 2961,-348.753 2964.5,-338.753 2957.5,-338.753"/>
</g>
<!-- Node36&#45;&gt;Node39 -->
<g id="edge113" class="edge"><title>Node36&#45;&gt;Node39</title>
<path fill="none" stroke="midnightblue" d="M2977.02,-341.26C2985.03,-332.69 2994.75,-321.982 3003,-312 3037.94,-269.708 3075.96,-216.153 3090.69,-195.092"/>
<polygon fill="midnightblue" stroke="midnightblue" points="2974.29,-339.056 2969.97,-348.729 2979.38,-343.862 2974.29,-339.056"/>
</g>
<!-- Node37&#45;&gt;Node38 -->
<g id="edge100" class="edge"><title>Node37&#45;&gt;Node38</title>
<path fill="none" stroke="midnightblue" d="M2937.08,-285.438C2920.26,-275.201 2898.28,-261.822 2883.91,-253.075"/>
<polygon fill="midnightblue" stroke="midnightblue" points="2935.45,-288.543 2945.81,-290.753 2939.09,-282.564 2935.45,-288.543"/>
</g>
<!-- Node37&#45;&gt;Node39 -->
<g id="edge112" class="edge"><title>Node37&#45;&gt;Node39</title>
<path fill="none" stroke="midnightblue" d="M2977.92,-283.849C2992.87,-269.777 3015.43,-249.018 3036,-232 3052.15,-218.639 3071.6,-204.248 3084.12,-195.188"/>
<polygon fill="midnightblue" stroke="midnightblue" points="2975.32,-281.496 2970.46,-290.912 2980.13,-286.579 2975.32,-281.496"/>
</g>
<!-- Node38&#45;&gt;Node39 -->
<g id="edge101" class="edge"><title>Node38&#45;&gt;Node39</title>
<path fill="none" stroke="midnightblue" d="M2915.85,-230.492C2962.98,-218.918 3033.89,-201.501 3071.49,-192.267"/>
<polygon fill="midnightblue" stroke="midnightblue" points="2914.76,-227.156 2905.89,-232.94 2916.43,-233.954 2914.76,-227.156"/>
</g>
<!-- Node39&#45;&gt;Node32 -->
<g id="edge102" class="edge"><title>Node39&#45;&gt;Node32</title>
<path fill="none" stroke="midnightblue" d="M3123.29,-201.669C3132.19,-209.801 3140.76,-220.444 3145,-232 3175.05,-313.91 3193.14,-363.852 3134,-428 3117.75,-445.628 2953.88,-465.289 2890.54,-471.786"/>
<polygon fill="midnightblue" stroke="midnightblue" points="3125.42,-198.888 3115.48,-195.21 3120.96,-204.281 3125.42,-198.888"/>
</g>
<!-- Node39&#45;&gt;Node35 -->
<g id="edge103" class="edge"><title>Node39&#45;&gt;Node35</title>
<path fill="none" stroke="midnightblue" d="M3098.33,-205.634C3093.98,-242.33 3071.8,-321.94 3025,-370 3007.63,-387.833 2981.93,-399.753 2960.41,-406.982"/>
<polygon fill="midnightblue" stroke="midnightblue" points="3101.84,-205.56 3099.12,-195.322 3094.86,-205.025 3101.84,-205.56"/>
</g>
<!-- Node39&#45;&gt;Node40 -->
<g id="edge104" class="edge"><title>Node39&#45;&gt;Node40</title>
<path fill="none" stroke="midnightblue" d="M3061.64,-177.575C3007.06,-166.836 2903.86,-145.355 2854.89,-134.54"/>
<polygon fill="midnightblue" stroke="midnightblue" points="3061.08,-181.031 3071.56,-179.512 3062.42,-174.161 3061.08,-181.031"/>
</g>
<!-- Node41 -->
<g id="node41" class="node"><title>Node41</title>
<g id="a_node41"><a xlink:href="MutableAttributes_8h.html" target="_top" xlink:title="Handle read/write of Model data from/to files. ">
<polygon fill="none" stroke="red" points="3045.92,-117 3045.92,-137 3148.08,-137 3148.08,-117 3045.92,-117"/>
<text text-anchor="middle" x="3097" y="-123" font-family="Helvetica,sans-Serif" font-size="10.00">MutableAttributes.h</text>
</a>
</g>
</g>
<!-- Node39&#45;&gt;Node41 -->
<g id="edge109" class="edge"><title>Node39&#45;&gt;Node41</title>
<path fill="none" stroke="midnightblue" d="M3090.55,-164.707C3089.89,-155.338 3090.33,-144.526 3091.87,-137.075"/>
<polygon fill="midnightblue" stroke="midnightblue" points="3087.09,-165.278 3091.83,-174.753 3094.04,-164.389 3087.09,-165.278"/>
</g>
<!-- Node40&#45;&gt;Node36 -->
<g id="edge105" class="edge"><title>Node40&#45;&gt;Node36</title>
<path fill="none" stroke="midnightblue" d="M2821.4,-146.803C2813.57,-172.517 2803.6,-219.404 2821,-254 2845.55,-302.826 2905.08,-334.502 2938.06,-348.939"/>
<polygon fill="midnightblue" stroke="midnightblue" points="2824.77,-147.769 2824.54,-137.176 2818.11,-145.597 2824.77,-147.769"/>
</g>
<!-- Node40&#45;&gt;Node37 -->
<g id="edge107" class="edge"><title>Node40&#45;&gt;Node37</title>
<path fill="none" stroke="midnightblue" d="M2843.32,-144.494C2861.66,-164.538 2892.89,-199.692 2917,-232 2932.14,-252.285 2947.74,-277.663 2955.67,-290.942"/>
<polygon fill="midnightblue" stroke="midnightblue" points="2845.88,-142.104 2836.53,-137.117 2840.73,-146.845 2845.88,-142.104"/>
</g>
<!-- Node40&#45;&gt;Node38 -->
<g id="edge106" class="edge"><title>Node40&#45;&gt;Node38</title>
<path fill="none" stroke="midnightblue" d="M2834.76,-146.809C2843.65,-171.517 2858.91,-213.957 2865.64,-232.671"/>
<polygon fill="midnightblue" stroke="midnightblue" points="2837.96,-145.365 2831.29,-137.139 2831.38,-147.734 2837.96,-145.365"/>
</g>
<!-- Node40&#45;&gt;Node39 -->
<g id="edge108" class="edge"><title>Node40&#45;&gt;Node39</title>
<path fill="none" stroke="midnightblue" d="M2865.03,-134.755C2920.6,-145.712 3023.77,-167.199 3071.62,-177.793"/>
<polygon fill="midnightblue" stroke="midnightblue" points="2865.39,-131.259 2854.91,-132.773 2864.05,-138.129 2865.39,-131.259"/>
</g>
<!-- Node41&#45;&gt;Node37 -->
<g id="edge110" class="edge"><title>Node41&#45;&gt;Node37</title>
<path fill="none" stroke="midnightblue" d="M3081.34,-144.478C3062.61,-164.505 3030.68,-199.644 3006,-232 2990.54,-252.259 2974.58,-277.647 2966.46,-290.936"/>
<polygon fill="midnightblue" stroke="midnightblue" points="3083.98,-146.787 3088.28,-137.107 3078.88,-141.989 3083.98,-146.787"/>
</g>
<!-- Node41&#45;&gt;Node39 -->
<g id="edge111" class="edge"><title>Node41&#45;&gt;Node39</title>
<path fill="none" stroke="midnightblue" d="M3103.44,-147.078C3104.12,-156.424 3103.69,-167.25 3102.17,-174.753"/>
<polygon fill="midnightblue" stroke="midnightblue" points="3106.9,-146.538 3102.13,-137.075 3099.95,-147.444 3106.9,-146.538"/>
</g>
<!-- Node42&#45;&gt;Node36 -->
<g id="edge119" class="edge"><title>Node42&#45;&gt;Node36</title>
<path fill="none" stroke="midnightblue" d="M3043.03,-402.144C3022.94,-391.823 2996.08,-378.025 2978.66,-369.075"/>
<polygon fill="midnightblue" stroke="midnightblue" points="3041.51,-405.296 3052,-406.753 3044.71,-399.07 3041.51,-405.296"/>
</g>
<!-- Node42&#45;&gt;Node39 -->
<g id="edge120" class="edge"><title>Node42&#45;&gt;Node39</title>
<path fill="none" stroke="midnightblue" d="M3081.68,-398.136C3094.01,-378.117 3112.65,-344.229 3120,-312 3127.9,-277.333 3128.17,-266.604 3120,-232 3116.76,-218.27 3108.76,-203.966 3103.11,-195.026"/>
<polygon fill="midnightblue" stroke="midnightblue" points="3078.6,-396.459 3076.21,-406.782 3084.51,-400.201 3078.6,-396.459"/>
</g>
<!-- Node43&#45;&gt;Node6 -->
<g id="edge140" class="edge"><title>Node43&#45;&gt;Node6</title>
<path fill="none" stroke="midnightblue" d="M1886.06,-523.419C1905.66,-516.716 1928.25,-505.206 1940,-486 2013.25,-366.3 1934.57,-180.464 1914.44,-137.212"/>
<polygon fill="midnightblue" stroke="midnightblue" points="1884.95,-520.099 1876.45,-526.419 1887.03,-526.781 1884.95,-520.099"/>
</g>
<!-- Node43&#45;&gt;Node8 -->
<g id="edge143" class="edge"><title>Node43&#45;&gt;Node8</title>
<path fill="none" stroke="midnightblue" d="M1885.98,-525.005C1909.91,-518.617 1940.42,-506.873 1960,-486 2002.64,-440.537 1987.68,-410.274 1985,-348 1980.49,-243.148 2006.19,-198.25 1941,-116 1931.72,-104.295 1895.75,-88.847 1870.83,-79.1675"/>
<polygon fill="midnightblue" stroke="midnightblue" points="1885.05,-521.629 1876.18,-527.425 1886.73,-528.425 1885.05,-521.629"/>
</g>
<!-- Node43&#45;&gt;Node10 -->
<g id="edge151" class="edge"><title>Node43&#45;&gt;Node10</title>
<path fill="none" stroke="midnightblue" d="M1813.28,-531.211C1681.98,-528.163 1236.2,-515.81 1097,-486 882.858,-440.142 836.02,-401.172 636,-312 584.801,-289.175 565.61,-291.562 524,-254 501.124,-233.35 499.992,-223.458 486,-196 461.608,-148.132 458.256,-133.359 452,-80 449.552,-59.12 449.541,-34.401 449.762,-21.2763"/>
<polygon fill="midnightblue" stroke="midnightblue" points="1813.52,-534.717 1823.59,-531.446 1813.68,-527.719 1813.52,-534.717"/>
</g>
<!-- Node43&#45;&gt;Node11 -->
<g id="edge141" class="edge"><title>Node43&#45;&gt;Node11</title>
<path fill="none" stroke="midnightblue" d="M1813.61,-532.174C1730.34,-531.813 1519.97,-526.579 1350,-486 1213.77,-453.477 1163.33,-461.163 1057,-370 1027.67,-344.853 1005.72,-324.555 1023,-290 1063.98,-208.034 1168.34,-156.781 1215.38,-137.133"/>
<polygon fill="midnightblue" stroke="midnightblue" points="1813.81,-535.674 1823.82,-532.196 1813.82,-528.674 1813.81,-535.674"/>
</g>
<!-- Node43&#45;&gt;Node12 -->
<g id="edge142" class="edge"><title>Node43&#45;&gt;Node12</title>
<path fill="none" stroke="midnightblue" d="M1869.57,-516.095C1892.09,-495.876 1926,-458.675 1926,-418 1926,-418 1926,-418 1926,-358 1926,-259.385 1884.21,-228.467 1802,-174 1768.07,-151.521 1648.9,-136.597 1594.03,-130.762"/>
<polygon fill="midnightblue" stroke="midnightblue" points="1867.15,-513.562 1861.88,-522.751 1871.73,-518.857 1867.15,-513.562"/>
</g>
<!-- Node43&#45;&gt;Node13 -->
<g id="edge144" class="edge"><title>Node43&#45;&gt;Node13</title>
<path fill="none" stroke="midnightblue" d="M1823.81,-518.123C1774.46,-492.508 1663.81,-437.543 1565,-406 1488.94,-381.718 1439.48,-431.855 1389,-370 1330.71,-298.58 1383.13,-172.253 1399.5,-137.229"/>
<polygon fill="midnightblue" stroke="midnightblue" points="1822.35,-521.312 1832.83,-522.839 1825.59,-515.107 1822.35,-521.312"/>
</g>
<!-- Node43&#45;&gt;Node14 -->
<g id="edge145" class="edge"><title>Node43&#45;&gt;Node14</title>
<path fill="none" stroke="midnightblue" d="M1886.45,-528.529C1941.9,-522.586 2043.99,-508.842 2072,-486 2117.29,-449.074 2146.08,-290.115 2140,-232 2136.27,-196.391 2125.56,-155.027 2120.59,-137.08"/>
<polygon fill="midnightblue" stroke="midnightblue" points="1885.92,-525.064 1876.34,-529.581 1886.65,-532.027 1885.92,-525.064"/>
</g>
<!-- Node43&#45;&gt;Node15 -->
<g id="edge146" class="edge"><title>Node43&#45;&gt;Node15</title>
<path fill="none" stroke="midnightblue" d="M1886.67,-529.306C1946.92,-524.206 2063.36,-511.312 2095,-486 2152.87,-439.709 2188.15,-188.697 2194.84,-137.226"/>
<polygon fill="midnightblue" stroke="midnightblue" points="1886.13,-525.838 1876.45,-530.141 1886.7,-532.815 1886.13,-525.838"/>
</g>
<!-- Node43&#45;&gt;Node16 -->
<g id="edge147" class="edge"><title>Node43&#45;&gt;Node16</title>
<path fill="none" stroke="midnightblue" d="M1813.71,-531.646C1690.63,-530.12 1289.9,-522.407 1167,-486 1084.16,-461.46 1045.32,-449.293 1011,-370 974.368,-285.357 1026.42,-170.328 1043.13,-137.245"/>
<polygon fill="midnightblue" stroke="midnightblue" points="1813.71,-535.146 1823.75,-531.764 1813.79,-528.146 1813.71,-535.146"/>
</g>
<!-- Node43&#45;&gt;Node17 -->
<g id="edge148" class="edge"><title>Node43&#45;&gt;Node17</title>
<path fill="none" stroke="midnightblue" d="M1813.59,-530.695C1700.15,-526.398 1354.19,-511.495 1245,-486 1177.81,-470.311 1160.39,-463.114 1101,-428 1038.38,-390.98 995.803,-360.68 1013,-290 1030.43,-218.361 1103.78,-158.913 1133.96,-137.021"/>
<polygon fill="midnightblue" stroke="midnightblue" points="1813.7,-534.201 1823.82,-531.077 1813.96,-527.206 1813.7,-534.201"/>
</g>
<!-- Node43&#45;&gt;Node18 -->
<g id="edge149" class="edge"><title>Node43&#45;&gt;Node18</title>
<path fill="none" stroke="midnightblue" d="M1886.4,-529.709C1938.9,-525.53 2038.3,-514.318 2118,-486 2167.5,-468.41 2179.43,-460.124 2221,-428 2320.71,-350.947 2367.09,-320.877 2384,-196 2385.31,-186.311 2389.36,-182.175 2384,-174 2368.98,-151.105 2339.84,-139.548 2315.91,-133.746"/>
<polygon fill="midnightblue" stroke="midnightblue" points="1885.95,-526.233 1876.24,-530.476 1886.48,-533.213 1885.95,-526.233"/>
</g>
<!-- Node43&#45;&gt;Node30 -->
<g id="edge150" class="edge"><title>Node43&#45;&gt;Node30</title>
<path fill="none" stroke="midnightblue" d="M1850,-512.538C1850,-489.843 1850,-451.202 1850,-418 1850,-418 1850,-418 1850,-358 1850,-279.974 1731.61,-254.24 1680.28,-246.749"/>
<polygon fill="midnightblue" stroke="midnightblue" points="1846.5,-512.838 1850,-522.838 1853.5,-512.838 1846.5,-512.838"/>
</g>
<!-- Node43&#45;&gt;Node44 -->
<g id="edge131" class="edge"><title>Node43&#45;&gt;Node44</title>
<path fill="none" stroke="midnightblue" d="M1886.15,-529.29C2004.63,-520.408 2382.23,-492.1 2533.47,-480.763"/>
<polygon fill="midnightblue" stroke="midnightblue" points="1885.86,-525.802 1876.15,-530.04 1886.38,-532.782 1885.86,-525.802"/>
</g>
<!-- Node45 -->
<g id="node45" class="node"><title>Node45</title>
<g id="a_node45"><a xlink:href="types_8h.html" target="_top" xlink:title="Default implementation for types.h. ">
<polygon fill="none" stroke="black" points="1358.88,-465 1358.88,-485 1407.12,-485 1407.12,-465 1358.88,-465"/>
<text text-anchor="middle" x="1383" y="-471" font-family="Helvetica,sans-Serif" font-size="10.00">types.h</text>
</a>
</g>
</g>
<!-- Node43&#45;&gt;Node45 -->
<g id="edge133" class="edge"><title>Node43&#45;&gt;Node45</title>
<path fill="none" stroke="midnightblue" d="M1813.74,-527.651C1722.27,-516.683 1484.01,-488.113 1407.23,-478.905"/>
<polygon fill="midnightblue" stroke="midnightblue" points="1813.55,-531.154 1823.89,-528.869 1814.38,-524.203 1813.55,-531.154"/>
</g>
<!-- Node44&#45;&gt;Node9 -->
<g id="edge132" class="edge"><title>Node44&#45;&gt;Node9</title>
<path fill="none" stroke="midnightblue" d="M2603.13,-455.391C2609.94,-433.01 2620,-394.182 2620,-360 2620,-360 2620,-360 2620,-126 2620,-56.4505 2385.07,-25.9154 2283.2,-15.9444"/>
<polygon fill="midnightblue" stroke="midnightblue" points="2599.78,-454.374 2600.1,-464.964 2606.45,-456.483 2599.78,-454.374"/>
</g>
<!-- Node45&#45;&gt;Node4 -->
<g id="edge138" class="edge"><title>Node45&#45;&gt;Node4</title>
<path fill="none" stroke="midnightblue" d="M1348.77,-464.903C1314.41,-455.732 1259.98,-441.099 1213,-428 1033.05,-377.824 987.263,-367.861 809,-312 745.832,-292.205 672.314,-266.519 634.444,-253.09"/>
<polygon fill="midnightblue" stroke="midnightblue" points="1348.19,-468.371 1358.76,-467.566 1350,-461.608 1348.19,-468.371"/>
</g>
<!-- Node45&#45;&gt;Node5 -->
<g id="edge139" class="edge"><title>Node45&#45;&gt;Node5</title>
<path fill="none" stroke="midnightblue" d="M1366.73,-457.289C1359.62,-449.082 1351.82,-438.676 1347,-428 1308.85,-343.477 1303.04,-228.365 1302.16,-195.253"/>
<polygon fill="midnightblue" stroke="midnightblue" points="1364.15,-459.655 1373.47,-464.691 1369.32,-454.941 1364.15,-459.655"/>
</g>
<!-- Node45&#45;&gt;Node26 -->
<g id="edge136" class="edge"><title>Node45&#45;&gt;Node26</title>
<path fill="none" stroke="midnightblue" d="M1348.86,-463.27C1301.94,-447.516 1216.16,-415.038 1153,-370 1128.26,-352.358 1104.33,-325.431 1092.56,-311.339"/>
<polygon fill="midnightblue" stroke="midnightblue" points="1347.95,-466.653 1358.54,-466.466 1350.14,-460.006 1347.95,-466.653"/>
</g>
<!-- Node45&#45;&gt;Node28 -->
<g id="edge137" class="edge"><title>Node45&#45;&gt;Node28</title>
<path fill="none" stroke="midnightblue" d="M1399.61,-457.682C1419,-438.053 1451.33,-403.542 1474,-370 1501.62,-329.143 1525.32,-274.769 1534.23,-253.291"/>
<polygon fill="midnightblue" stroke="midnightblue" points="1396.98,-455.359 1392.38,-464.906 1401.93,-460.309 1396.98,-455.359"/>
</g>
<!-- Node45&#45;&gt;Node33 -->
<g id="edge134" class="edge"><title>Node45&#45;&gt;Node33</title>
<path fill="none" stroke="midnightblue" d="M1416.92,-461.337C1445.18,-450.785 1484.7,-436.031 1509.57,-426.749"/>
<polygon fill="midnightblue" stroke="midnightblue" points="1415.58,-458.101 1407.43,-464.878 1418.03,-464.659 1415.58,-458.101"/>
</g>
<!-- Node46 -->
<g id="node46" class="node"><title>Node46</title>
<g id="a_node46"><a xlink:href="names_8h.html" target="_top" xlink:title="Functions to check if names are valid. ">
<polygon fill="none" stroke="black" points="1355.82,-407 1355.82,-427 1410.18,-427 1410.18,-407 1355.82,-407"/>
<text text-anchor="middle" x="1383" y="-413" font-family="Helvetica,sans-Serif" font-size="10.00">names.h</text>
</a>
</g>
</g>
<!-- Node45&#45;&gt;Node46 -->
<g id="edge135" class="edge"><title>Node45&#45;&gt;Node46</title>
<path fill="none" stroke="midnightblue" d="M1383,-454.707C1383,-445.338 1383,-434.526 1383,-427.075"/>
<polygon fill="midnightblue" stroke="midnightblue" points="1379.5,-454.753 1383,-464.753 1386.5,-454.753 1379.5,-454.753"/>
</g>
<!-- Node47&#45;&gt;Node18 -->
<g id="edge161" class="edge"><title>Node47&#45;&gt;Node18</title>
<path fill="none" stroke="midnightblue" d="M2212.02,-401.386C2224.85,-393.162 2240.21,-382.122 2252,-370 2316.8,-303.37 2341.07,-284.955 2368,-196 2370.83,-186.642 2373.1,-182.34 2368,-174 2356.55,-155.291 2334.83,-143.885 2315.59,-137.111"/>
<polygon fill="midnightblue" stroke="midnightblue" points="2209.86,-398.604 2203.21,-406.852 2213.56,-404.552 2209.86,-398.604"/>
</g>
<!-- Node48 -->
<g id="node48" class="node"><title>Node48</title>
<g id="a_node48"><a xlink:href="enums_8h.html" target="_top" xlink:title="The various enums used in RMF. ">
<polygon fill="none" stroke="black" points="1203.82,-349 1203.82,-369 1258.18,-369 1258.18,-349 1203.82,-349"/>
<text text-anchor="middle" x="1231" y="-355" font-family="Helvetica,sans-Serif" font-size="10.00">enums.h</text>
</a>
</g>
</g>
<!-- Node47&#45;&gt;Node48 -->
<g id="edge155" class="edge"><title>Node47&#45;&gt;Node48</title>
<path fill="none" stroke="midnightblue" d="M2151.43,-414.021C2039.35,-407.771 1683.55,-387.81 1389,-370 1343.18,-367.23 1289.91,-363.818 1258.4,-361.781"/>
<polygon fill="midnightblue" stroke="midnightblue" points="2151.32,-417.521 2161.5,-414.583 2151.71,-410.531 2151.32,-417.521"/>
</g>
<!-- Node48&#45;&gt;Node4 -->
<g id="edge158" class="edge"><title>Node48&#45;&gt;Node4</title>
<path fill="none" stroke="midnightblue" d="M1193.72,-353.514C1134.31,-346.159 1014.61,-330.489 914,-312 816.355,-294.057 702.456,-267.019 645.438,-253.057"/>
<polygon fill="midnightblue" stroke="midnightblue" points="1193.4,-357.001 1203.75,-354.748 1194.25,-350.053 1193.4,-357.001"/>
</g>
<!-- Node48&#45;&gt;Node5 -->
<g id="edge159" class="edge"><title>Node48&#45;&gt;Node5</title>
<path fill="none" stroke="midnightblue" d="M1233.97,-338.488C1238.39,-312.96 1248.17,-267.327 1266,-232 1273.13,-217.877 1284.94,-203.885 1293.08,-195.109"/>
<polygon fill="midnightblue" stroke="midnightblue" points="1230.46,-338.259 1232.3,-348.692 1237.37,-339.386 1230.46,-338.259"/>
</g>
<!-- Node48&#45;&gt;Node10 -->
<g id="edge160" class="edge"><title>Node48&#45;&gt;Node10</title>
<path fill="none" stroke="midnightblue" d="M1193.4,-354.45C1104.38,-345.956 882.701,-324.261 809,-312 693.065,-292.713 645.907,-323.322 551,-254 469.753,-194.655 453.513,-57.4212 450.591,-21.0057"/>
<polygon fill="midnightblue" stroke="midnightblue" points="1193.29,-357.955 1203.58,-355.418 1193.95,-350.987 1193.29,-357.955"/>
</g>
<!-- Node48&#45;&gt;Node26 -->
<g id="edge156" class="edge"><title>Node48&#45;&gt;Node26</title>
<path fill="none" stroke="midnightblue" d="M1197.74,-345.244C1170.61,-334.838 1132.95,-320.391 1108.77,-311.118"/>
<polygon fill="midnightblue" stroke="midnightblue" points="1196.63,-348.565 1207.22,-348.878 1199.13,-342.029 1196.63,-348.565"/>
</g>
<!-- Node48&#45;&gt;Node28 -->
<g id="edge157" class="edge"><title>Node48&#45;&gt;Node28</title>
<path fill="none" stroke="midnightblue" d="M1264.74,-345.471C1327.13,-322.304 1459.13,-273.288 1513.65,-253.042"/>
<polygon fill="midnightblue" stroke="midnightblue" points="1263.5,-342.197 1255.35,-348.959 1265.94,-348.759 1263.5,-342.197"/>
</g>
<!-- Node49&#45;&gt;Node32 -->
<g id="edge169" class="edge"><title>Node49&#45;&gt;Node32</title>
<path fill="none" stroke="midnightblue" d="M2961.61,-577.421C2942.4,-570.025 2920.28,-559.109 2904,-544 2885.76,-527.073 2874.11,-499.35 2869,-485.094"/>
<polygon fill="midnightblue" stroke="midnightblue" points="2960.46,-580.726 2971.05,-580.871 2962.86,-574.151 2960.46,-580.726"/>
</g>
<!-- Node49&#45;&gt;Node35 -->
<g id="edge170" class="edge"><title>Node49&#45;&gt;Node35</title>
<path fill="none" stroke="midnightblue" d="M2973.8,-575.959C2961.05,-568.305 2947.16,-557.593 2939,-544 2915.93,-505.587 2918.76,-448.866 2920.92,-427.026"/>
<polygon fill="midnightblue" stroke="midnightblue" points="2972.36,-579.161 2982.79,-580.99 2975.78,-573.052 2972.36,-579.161"/>
</g>
<!-- Node49&#45;&gt;Node36 -->
<g id="edge173" class="edge"><title>Node49&#45;&gt;Node36</title>
<path fill="none" stroke="midnightblue" d="M3007.95,-570.639C3010.78,-557.014 3013.35,-538.363 3011,-522 3002.39,-461.981 2975.26,-393.656 2964.99,-369.257"/>
<polygon fill="midnightblue" stroke="midnightblue" points="3004.46,-570.21 3005.61,-580.742 3011.28,-571.789 3004.46,-570.21"/>
</g>
<!-- Node49&#45;&gt;Node37 -->
<g id="edge175" class="edge"><title>Node49&#45;&gt;Node37</title>
<path fill="none" stroke="midnightblue" d="M3025.93,-575.262C3070.46,-544.711 3161.2,-471.824 3125,-406 3096.49,-354.155 3029.99,-324.517 2990.99,-311.004"/>
<polygon fill="midnightblue" stroke="midnightblue" points="3023.8,-572.479 3017.44,-580.957 3027.7,-578.292 3023.8,-572.479"/>
</g>
<!-- Node49&#45;&gt;Node39 -->
<g id="edge176" class="edge"><title>Node49&#45;&gt;Node39</title>
<path fill="none" stroke="midnightblue" d="M3070.79,-579.176C3162.29,-562.617 3314,-527.41 3314,-476 3314,-476 3314,-476 3314,-300 3314,-214.25 3179.56,-192.861 3122.32,-187.641"/>
<polygon fill="midnightblue" stroke="midnightblue" points="3070,-575.762 3060.77,-580.96 3071.23,-582.654 3070,-575.762"/>
</g>
<!-- Node49&#45;&gt;Node40 -->
<g id="edge171" class="edge"><title>Node49&#45;&gt;Node40</title>
<path fill="none" stroke="midnightblue" d="M2933.87,-579.253C2841.14,-562.851 2688,-527.905 2688,-476 2688,-476 2688,-476 2688,-242 2688,-184.17 2760.72,-150.483 2801.34,-136.177"/>
<polygon fill="midnightblue" stroke="midnightblue" points="2933.3,-582.706 2943.75,-580.972 2934.5,-575.81 2933.3,-582.706"/>
</g>
<!-- Node49&#45;&gt;Node41 -->
<g id="edge174" class="edge"><title>Node49&#45;&gt;Node41</title>
<path fill="none" stroke="midnightblue" d="M3073.94,-585.878C3126.75,-580.787 3199.65,-569.412 3259,-544 3306.07,-523.845 3352,-527.204 3352,-476 3352,-476 3352,-476 3352,-242 3352,-153.621 3222.76,-133.301 3148.3,-128.928"/>
<polygon fill="midnightblue" stroke="midnightblue" points="3073.3,-582.422 3063.66,-586.815 3073.93,-589.393 3073.3,-582.422"/>
</g>
<!-- Node49&#45;&gt;Node42 -->
<g id="edge172" class="edge"><title>Node49&#45;&gt;Node42</title>
<path fill="none" stroke="midnightblue" d="M3022.28,-573.998C3030.83,-565.879 3040.24,-555.343 3046,-544 3066.37,-503.895 3069.54,-448.631 3069.97,-427.1"/>
<polygon fill="midnightblue" stroke="midnightblue" points="3019.89,-571.438 3014.8,-580.728 3024.57,-576.642 3019.89,-571.438"/>
</g>
<!-- Node50 -->
<g id="node50" class="node"><title>Node50</title>
<g id="a_node50"><a xlink:href="handle_8h.html" target="_top" xlink:title="Handle read/write of Model data from/to files. ">
<polygon fill="none" stroke="black" points="2947.82,-523 2947.82,-543 3002.18,-543 3002.18,-523 2947.82,-523"/>
<text text-anchor="middle" x="2975" y="-529" font-family="Helvetica,sans-Serif" font-size="10.00">handle.h</text>
</a>
</g>
</g>
<!-- Node49&#45;&gt;Node50 -->
<g id="edge163" class="edge"><title>Node49&#45;&gt;Node50</title>
<path fill="none" stroke="midnightblue" d="M2993.81,-571.618C2989.02,-562.047 2983.38,-550.769 2979.54,-543.075"/>
<polygon fill="midnightblue" stroke="midnightblue" points="2990.77,-573.374 2998.38,-580.753 2997.03,-570.243 2990.77,-573.374"/>
</g>
<!-- Node50&#45;&gt;Node32 -->
<g id="edge164" class="edge"><title>Node50&#45;&gt;Node32</title>
<path fill="none" stroke="midnightblue" d="M2948.03,-518.144C2927.94,-507.823 2901.08,-494.025 2883.66,-485.075"/>
<polygon fill="midnightblue" stroke="midnightblue" points="2946.51,-521.296 2957,-522.753 2949.71,-515.07 2946.51,-521.296"/>
</g>
<!-- Node50&#45;&gt;Node35 -->
<g id="edge165" class="edge"><title>Node50&#45;&gt;Node35</title>
<path fill="none" stroke="midnightblue" d="M2966.45,-513.602C2954.95,-488.873 2934.95,-445.858 2926.25,-427.139"/>
<polygon fill="midnightblue" stroke="midnightblue" points="2963.27,-515.079 2970.66,-522.671 2969.62,-512.127 2963.27,-515.079"/>
</g>
<!-- Node50&#45;&gt;Node39 -->
<g id="edge168" class="edge"><title>Node50&#45;&gt;Node39</title>
<path fill="none" stroke="midnightblue" d="M3012.78,-525.458C3085.54,-510.458 3238,-466.34 3238,-360 3238,-360 3238,-360 3238,-300 3238,-241.291 3163.17,-207.619 3122.53,-193.663"/>
<polygon fill="midnightblue" stroke="midnightblue" points="3011.78,-522.088 3002.65,-527.464 3013.14,-528.955 3011.78,-522.088"/>
</g>
<!-- Node50&#45;&gt;Node40 -->
<g id="edge166" class="edge"><title>Node50&#45;&gt;Node40</title>
<path fill="none" stroke="midnightblue" d="M2937.28,-531.362C2867.65,-527.975 2726,-509.802 2726,-418 2726,-418 2726,-418 2726,-242 2726,-191.807 2781.6,-153.59 2810.7,-137.024"/>
<polygon fill="midnightblue" stroke="midnightblue" points="2937.27,-534.865 2947.4,-531.775 2937.55,-527.87 2937.27,-534.865"/>
</g>
<!-- Node50&#45;&gt;Node41 -->
<g id="edge167" class="edge"><title>Node50&#45;&gt;Node41</title>
<path fill="none" stroke="midnightblue" d="M3012.46,-525.946C3093.13,-511.852 3276,-473.751 3276,-418 3276,-418 3276,-418 3276,-242 3276,-179.919 3198.45,-150.173 3145.44,-137.092"/>
<polygon fill="midnightblue" stroke="midnightblue" points="3011.51,-522.559 3002.24,-527.699 3012.69,-529.458 3011.51,-522.559"/>
</g>
</g>
</svg>
