<?xml version="1.0" encoding="UTF-8" standalone="no"?>
<!DOCTYPE svg PUBLIC "-//W3C//DTD SVG 1.1//EN"
 "http://www.w3.org/Graphics/SVG/1.1/DTD/svg11.dtd">
<!-- Generated by graphviz version 2.34.0 (20131025.1349)
 -->
<!-- Title: infrastructure_macros.h Pages: 1 -->
<svg width="821pt" height="88pt"
 viewBox="0.00 0.00 821.00 88.00" xmlns="http://www.w3.org/2000/svg" xmlns:xlink="http://www.w3.org/1999/xlink">
<g id="graph0" class="graph" transform="scale(1 1) rotate(0) translate(4 84)">
<title>infrastructure_macros.h</title>
<!-- Node1 -->
<g id="node1" class="node"><title>Node1</title>
<polygon fill="#bfbfbf" stroke="black" points="319.48,-59 319.48,-79 440.52,-79 440.52,-59 319.48,-59"/>
<text text-anchor="middle" x="380" y="-65" font-family="Helvetica,sans-Serif" font-size="10.00">infrastructure_macros.h</text>
</g>
<!-- Node2 -->
<g id="node2" class="node"><title>Node2</title>
<polygon fill="none" stroke="#bfbfbf" points="-0.780762,-1 -0.780762,-21 50.7808,-21 50.7808,-1 -0.780762,-1"/>
<text text-anchor="middle" x="25" y="-7" font-family="Helvetica,sans-Serif" font-size="10.00">sstream</text>
</g>
<!-- Node1&#45;&gt;Node2 -->
<g id="edge1" class="edge"><title>Node1&#45;&gt;Node2</title>
<path fill="none" stroke="midnightblue" d="M319.411,-61.7681C256.882,-54.7802 156.412,-42.0036 60.7342,-21.9171"/>
<polygon fill="midnightblue" stroke="midnightblue" points="61.4049,-18.4815 50.8952,-19.8217 59.9467,-25.328 61.4049,-18.4815"/>
</g>
<!-- Node3 -->
<g id="node3" class="node"><title>Node3</title>
<polygon fill="none" stroke="#bfbfbf" points="68.8276,-1 68.8276,-21 123.172,-21 123.172,-1 68.8276,-1"/>
<text text-anchor="middle" x="96" y="-7" font-family="Helvetica,sans-Serif" font-size="10.00">iostream</text>
</g>
<!-- Node1&#45;&gt;Node3 -->
<g id="edge2" class="edge"><title>Node1&#45;&gt;Node3</title>
<path fill="none" stroke="midnightblue" d="M323.568,-58.9808C275.378,-50.9511 204.039,-38.2909 133.413,-22.1877"/>
<polygon fill="midnightblue" stroke="midnightblue" points="133.985,-18.7279 123.454,-19.8928 132.413,-25.5491 133.985,-18.7279"/>
</g>
<!-- Node4 -->
<g id="node4" class="node"><title>Node4</title>
<polygon fill="none" stroke="#bfbfbf" points="140.773,-1 140.773,-21 181.227,-21 181.227,-1 140.773,-1"/>
<text text-anchor="middle" x="161" y="-7" font-family="Helvetica,sans-Serif" font-size="10.00">string</text>
</g>
<!-- Node1&#45;&gt;Node4 -->
<g id="edge3" class="edge"><title>Node1&#45;&gt;Node4</title>
<path fill="none" stroke="midnightblue" d="M338.446,-58.9301C299.977,-50.2873 241.302,-36.478 191,-22 190.901,-21.9715 190.802,-21.9429 190.703,-21.9142"/>
<polygon fill="midnightblue" stroke="midnightblue" points="191.849,-18.6051 181.262,-19.0073 189.789,-25.2952 191.849,-18.6051"/>
</g>
<!-- Node5 -->
<g id="node5" class="node"><title>Node5</title>
<g id="a_node5"><a xlink:href="compiler__macros_8h.html" target="_top" xlink:title="Various compiler workarounds. ">
<polygon fill="none" stroke="black" points="199.544,-1 199.544,-21 324.456,-21 324.456,-1 199.544,-1"/>
<text text-anchor="middle" x="262" y="-7" font-family="Helvetica,sans-Serif" font-size="10.00">RMF/compiler_macros.h</text>
</a>
</g>
</g>
<!-- Node1&#45;&gt;Node5 -->
<g id="edge4" class="edge"><title>Node1&#45;&gt;Node5</title>
<path fill="none" stroke="midnightblue" d="M360.779,-58.878C341.664,-49.8068 312.124,-35.7876 290.324,-25.4418"/>
<polygon fill="midnightblue" stroke="midnightblue" points="291.748,-22.2436 281.213,-21.1181 288.747,-28.5676 291.748,-22.2436"/>
</g>
<!-- Node6 -->
<g id="node6" class="node"><title>Node6</title>
<polygon fill="none" stroke="#bfbfbf" points="341.98,-1 341.98,-21 418.02,-21 418.02,-1 341.98,-1"/>
<text text-anchor="middle" x="380" y="-7" font-family="Helvetica,sans-Serif" font-size="10.00">internal/use.h</text>
</g>
<!-- Node1&#45;&gt;Node6 -->
<g id="edge5" class="edge"><title>Node1&#45;&gt;Node6</title>
<path fill="none" stroke="midnightblue" d="M380,-58.7527C380,-51.2504 380,-40.4238 380,-31.0781"/>
<polygon fill="midnightblue" stroke="midnightblue" points="383.5,-31.0752 380,-21.0752 376.5,-31.0752 383.5,-31.0752"/>
</g>
<!-- Node7 -->
<g id="node7" class="node"><title>Node7</title>
<polygon fill="none" stroke="#bfbfbf" points="436.384,-1 436.384,-21 479.616,-21 479.616,-1 436.384,-1"/>
<text text-anchor="middle" x="458" y="-7" font-family="Helvetica,sans-Serif" font-size="10.00">vector</text>
</g>
<!-- Node1&#45;&gt;Node7 -->
<g id="edge6" class="edge"><title>Node1&#45;&gt;Node7</title>
<path fill="none" stroke="midnightblue" d="M392.88,-58.7527C404.92,-50.1087 423.106,-37.0518 437.203,-26.9314"/>
<polygon fill="midnightblue" stroke="midnightblue" points="439.278,-29.7504 445.36,-21.0752 435.195,-24.0642 439.278,-29.7504"/>
</g>
<!-- Node8 -->
<g id="node8" class="node"><title>Node8</title>
<polygon fill="none" stroke="#bfbfbf" points="497.306,-1 497.306,-21 586.694,-21 586.694,-1 497.306,-1"/>
<text text-anchor="middle" x="542" y="-7" font-family="Helvetica,sans-Serif" font-size="10.00">boost/config.hpp</text>
</g>
<!-- Node1&#45;&gt;Node8 -->
<g id="edge7" class="edge"><title>Node1&#45;&gt;Node8</title>
<path fill="none" stroke="midnightblue" d="M406.389,-58.878C433.535,-49.4942 475.998,-34.8155 506.17,-24.3857"/>
<polygon fill="midnightblue" stroke="midnightblue" points="507.583,-27.6004 515.891,-21.0253 505.296,-20.9845 507.583,-27.6004"/>
</g>
<!-- Node9 -->
<g id="node9" class="node"><title>Node9</title>
<polygon fill="none" stroke="#bfbfbf" points="604.53,-1 604.53,-21 699.47,-21 699.47,-1 604.53,-1"/>
<text text-anchor="middle" x="652" y="-7" font-family="Helvetica,sans-Serif" font-size="10.00">boost/version.hpp</text>
</g>
<!-- Node1&#45;&gt;Node9 -->
<g id="edge8" class="edge"><title>Node1&#45;&gt;Node9</title>
<path fill="none" stroke="midnightblue" d="M424.004,-58.9404C471.507,-49.1604 547.199,-33.5767 598.203,-23.0758"/>
<polygon fill="midnightblue" stroke="midnightblue" points="598.971,-26.4913 608.059,-21.0466 597.559,-19.6351 598.971,-26.4913"/>
</g>
<!-- Node10 -->
<g id="node10" class="node"><title>Node10</title>
<polygon fill="none" stroke="#bfbfbf" points="716.971,-1 716.971,-21 813.029,-21 813.029,-1 716.971,-1"/>
<text text-anchor="middle" x="765" y="-7" font-family="Helvetica,sans-Serif" font-size="10.00">boost/foreach.hpp</text>
</g>
<!-- Node1&#45;&gt;Node10 -->
<g id="edge9" class="edge"><title>Node1&#45;&gt;Node10</title>
<path fill="none" stroke="midnightblue" d="M440.546,-60.1422C504.249,-51.7318 607.697,-37.671 706.641,-22.1744"/>
<polygon fill="midnightblue" stroke="midnightblue" points="707.483,-25.585 716.817,-20.5729 706.395,-18.6701 707.483,-25.585"/>
</g>
</g>
</svg>
