<?xml version="1.0" encoding="UTF-8" standalone="no"?>
<!DOCTYPE svg PUBLIC "-//W3C//DTD SVG 1.1//EN"
 "http://www.w3.org/Graphics/SVG/1.1/DTD/svg11.dtd">
<!-- Generated by graphviz version 2.34.0 (20131025.1349)
 -->
<!-- Title: infrastructure_macros.h Pages: 1 -->
<svg width="3314pt" height="668pt"
 viewBox="0.00 0.00 3314.41 668.00" xmlns="http://www.w3.org/2000/svg" xmlns:xlink="http://www.w3.org/1999/xlink">
<g id="graph0" class="graph" transform="scale(1 1) rotate(0) translate(4 664)">
<title>infrastructure_macros.h</title>
<!-- Node1 -->
<g id="node1" class="node"><title>Node1</title>
<polygon fill="#bfbfbf" stroke="black" points="1178.89,-639 1178.89,-659 1299.93,-659 1299.93,-639 1178.89,-639"/>
<text text-anchor="middle" x="1239.41" y="-645" font-family="Helvetica,sans-Serif" font-size="10.00">infrastructure_macros.h</text>
</g>
<!-- Node2 -->
<g id="node2" class="node"><title>Node2</title>
<g id="a_node2"><a xlink:href="BufferConstHandle_8h.html" target="_top" xlink:title="Manage a memory buffer for reading/writing RMF files. ">
<polygon fill="none" stroke="black" points="29.0805,-581 29.0805,-601 137.737,-601 137.737,-581 29.0805,-581"/>
<text text-anchor="middle" x="83.4086" y="-587" font-family="Helvetica,sans-Serif" font-size="10.00">BufferConstHandle.h</text>
</a>
</g>
</g>
<!-- Node1&#45;&gt;Node2 -->
<g id="edge1" class="edge"><title>Node1&#45;&gt;Node2</title>
<path fill="none" stroke="midnightblue" d="M1168.78,-647.548C995.223,-645.886 534.108,-638.131 151.409,-602 147.013,-601.585 142.468,-601.081 137.908,-600.523"/>
<polygon fill="midnightblue" stroke="midnightblue" points="1168.78,-651.048 1178.81,-647.64 1168.84,-644.048 1168.78,-651.048"/>
</g>
<!-- Node3 -->
<g id="node3" class="node"><title>Node3</title>
<g id="a_node3"><a xlink:href="BufferHandle_8h.html" target="_top" xlink:title="Manage a memory buffer for reading/writing RMF files. ">
<polygon fill="none" stroke="black" points="72.142,-465 72.142,-485 154.675,-485 154.675,-465 72.142,-465"/>
<text text-anchor="middle" x="113.409" y="-471" font-family="Helvetica,sans-Serif" font-size="10.00">BufferHandle.h</text>
</a>
</g>
</g>
<!-- Node1&#45;&gt;Node3 -->
<g id="edge37" class="edge"><title>Node1&#45;&gt;Node3</title>
<path fill="none" stroke="midnightblue" d="M1168.35,-646.725C939.093,-642.37 231.44,-626.962 189.409,-602 143.942,-574.998 122.313,-509.281 115.699,-485.114"/>
<polygon fill="midnightblue" stroke="midnightblue" points="1168.51,-650.228 1178.58,-646.918 1168.64,-643.229 1168.51,-650.228"/>
</g>
<!-- Node4 -->
<g id="node4" class="node"><title>Node4</title>
<g id="a_node4"><a xlink:href="FileConstHandle_8h.html" target="_top" xlink:title="Handle read/write of Model data from/to files. ">
<polygon fill="none" stroke="black" points="491.276,-233 491.276,-253 589.541,-253 589.541,-233 491.276,-233"/>
<text text-anchor="middle" x="540.409" y="-239" font-family="Helvetica,sans-Serif" font-size="10.00">FileConstHandle.h</text>
</a>
</g>
</g>
<!-- Node1&#45;&gt;Node4 -->
<g id="edge178" class="edge"><title>Node1&#45;&gt;Node4</title>
<path fill="none" stroke="midnightblue" d="M1168.41,-646.911C986.467,-643.693 513.315,-632.464 449.409,-602 412.49,-584.401 387.409,-574.899 387.409,-534 387.409,-534 387.409,-534 387.409,-358 387.409,-299.368 460.549,-267.316 505.691,-253.118"/>
<polygon fill="midnightblue" stroke="midnightblue" points="1168.61,-650.415 1178.67,-647.09 1168.73,-643.416 1168.61,-650.415"/>
</g>
<!-- Node6 -->
<g id="node6" class="node"><title>Node6</title>
<g id="a_node6"><a xlink:href="alias_8h.html" target="_top" xlink:title="Helper functions for manipulating RMF files. ">
<polygon fill="none" stroke="black" points="1375.96,-117 1375.96,-137 1420.86,-137 1420.86,-117 1375.96,-117"/>
<text text-anchor="middle" x="1398.41" y="-123" font-family="Helvetica,sans-Serif" font-size="10.00">alias.h</text>
</a>
</g>
</g>
<!-- Node1&#45;&gt;Node6 -->
<g id="edge177" class="edge"><title>Node1&#45;&gt;Node6</title>
<path fill="none" stroke="midnightblue" d="M1239.45,-628.724C1238.99,-614.882 1237.37,-595.935 1232.41,-580 1198.2,-470.118 1078.97,-456.476 1117.41,-348 1150.65,-254.178 1176.46,-230.5 1258.41,-174 1295.06,-148.732 1346.56,-136.562 1375.8,-131.358"/>
<polygon fill="midnightblue" stroke="midnightblue" points="1235.95,-629.026 1239.6,-638.972 1242.95,-628.92 1235.95,-629.026"/>
</g>
<!-- Node8 -->
<g id="node8" class="node"><title>Node8</title>
<g id="a_node8"><a xlink:href="physics_8h.html" target="_top" xlink:title="Helper functions for manipulating RMF files. ">
<polygon fill="none" stroke="black" points="1158.57,-59 1158.57,-79 1216.25,-79 1216.25,-59 1158.57,-59"/>
<text text-anchor="middle" x="1187.41" y="-65" font-family="Helvetica,sans-Serif" font-size="10.00">physics.h</text>
</a>
</g>
</g>
<!-- Node1&#45;&gt;Node8 -->
<g id="edge181" class="edge"><title>Node1&#45;&gt;Node8</title>
<path fill="none" stroke="midnightblue" d="M1168.66,-647.336C979.641,-645.107 472.586,-635.996 405.409,-602 370.476,-584.322 349.409,-573.151 349.409,-534 349.409,-534 349.409,-534 349.409,-242 349.409,-174.199 376.452,-149.482 435.409,-116 499.173,-79.7876 1028.26,-71.7202 1158.52,-70.2761"/>
<polygon fill="midnightblue" stroke="midnightblue" points="1168.73,-650.837 1178.77,-647.452 1168.81,-643.837 1168.73,-650.837"/>
</g>
<!-- Node9 -->
<g id="node9" class="node"><title>Node9</title>
<g id="a_node9"><a xlink:href="benchmark__rmf_8cpp_source.html" target="_top" xlink:title="benchmark_rmf.cpp">
<polygon fill="none" stroke="black" points="326.224,-1 326.224,-21 430.593,-21 430.593,-1 326.224,-1"/>
<text text-anchor="middle" x="378.409" y="-7" font-family="Helvetica,sans-Serif" font-size="10.00">benchmark_rmf.cpp</text>
</a>
</g>
</g>
<!-- Node1&#45;&gt;Node9 -->
<g id="edge190" class="edge"><title>Node1&#45;&gt;Node9</title>
<path fill="none" stroke="midnightblue" d="M1168.44,-647.614C914.77,-645.94 65.6329,-637.684 20.4086,-602 -4.22594,-582.562 1.40865,-565.38 1.40865,-534 1.40865,-534 1.40865,-534 1.40865,-126 1.40865,-90.9367 12.2219,-77.431 41.4086,-58 86.998,-27.649 243.463,-17.1305 326.184,-13.639"/>
<polygon fill="midnightblue" stroke="midnightblue" points="1168.62,-651.115 1178.64,-647.68 1168.66,-644.116 1168.62,-651.115"/>
</g>
<!-- Node10 -->
<g id="node10" class="node"><title>Node10</title>
<g id="a_node10"><a xlink:href="external_8h.html" target="_top" xlink:title="Helper functions for manipulating RMF files. ">
<polygon fill="none" stroke="black" points="1215.45,-117 1215.45,-137 1275.37,-137 1275.37,-117 1215.45,-117"/>
<text text-anchor="middle" x="1245.41" y="-123" font-family="Helvetica,sans-Serif" font-size="10.00">external.h</text>
</a>
</g>
</g>
<!-- Node1&#45;&gt;Node10 -->
<g id="edge179" class="edge"><title>Node1&#45;&gt;Node10</title>
<path fill="none" stroke="midnightblue" d="M1168.67,-647.325C1023.21,-645.232 695.315,-636.694 589.409,-602 485.306,-567.897 425.409,-527.546 425.409,-418 425.409,-418 425.409,-418 425.409,-300 425.409,-229.866 458.662,-207.258 520.409,-174 551.465,-157.273 1082.07,-134.645 1215.27,-129.21"/>
<polygon fill="midnightblue" stroke="midnightblue" points="1168.77,-650.826 1178.82,-647.465 1168.87,-643.827 1168.77,-650.826"/>
</g>
<!-- Node11 -->
<g id="node11" class="node"><title>Node11</title>
<g id="a_node11"><a xlink:href="feature_8h.html" target="_top" xlink:title="Helper functions for manipulating RMF files. ">
<polygon fill="none" stroke="black" points="1870.67,-117 1870.67,-137 1926.14,-137 1926.14,-117 1870.67,-117"/>
<text text-anchor="middle" x="1898.41" y="-123" font-family="Helvetica,sans-Serif" font-size="10.00">feature.h</text>
</a>
</g>
</g>
<!-- Node1&#45;&gt;Node11 -->
<g id="edge180" class="edge"><title>Node1&#45;&gt;Node11</title>
<path fill="none" stroke="midnightblue" d="M1310.28,-648.113C1504.73,-647.876 2043.57,-643.39 2215.41,-602 2286.57,-584.86 2365.41,-607.197 2365.41,-534 2365.41,-534 2365.41,-534 2365.41,-242 2365.41,-151.032 2026.76,-132.326 1926.22,-128.777"/>
<polygon fill="midnightblue" stroke="midnightblue" points="1310.17,-644.613 1300.17,-648.122 1310.18,-651.613 1310.17,-644.613"/>
</g>
<!-- Node12 -->
<g id="node12" class="node"><title>Node12</title>
<g id="a_node12"><a xlink:href="publication_8h.html" target="_top" xlink:title="Helper functions for manipulating RMF files. ">
<polygon fill="none" stroke="black" points="1644.33,-117 1644.33,-137 1716.48,-137 1716.48,-117 1644.33,-117"/>
<text text-anchor="middle" x="1680.41" y="-123" font-family="Helvetica,sans-Serif" font-size="10.00">publication.h</text>
</a>
</g>
</g>
<!-- Node1&#45;&gt;Node12 -->
<g id="edge182" class="edge"><title>Node1&#45;&gt;Node12</title>
<path fill="none" stroke="midnightblue" d="M1310.58,-646.316C1475.1,-642.009 1877.81,-628.978 2010.41,-602 2085.76,-586.669 2129.08,-606.829 2173.41,-544 2317.07,-340.402 1838.59,-176.466 1710.91,-137.047"/>
<polygon fill="midnightblue" stroke="midnightblue" points="1310,-642.83 1300.09,-646.587 1310.18,-649.827 1310,-642.83"/>
</g>
<!-- Node13 -->
<g id="node13" class="node"><title>Node13</title>
<g id="a_node13"><a xlink:href="sequence_8h.html" target="_top" xlink:title="Helper functions for manipulating RMF files. ">
<polygon fill="none" stroke="black" points="875.554,-117 875.554,-137 943.263,-137 943.263,-117 875.554,-117"/>
<text text-anchor="middle" x="909.409" y="-123" font-family="Helvetica,sans-Serif" font-size="10.00">sequence.h</text>
</a>
</g>
</g>
<!-- Node1&#45;&gt;Node13 -->
<g id="edge183" class="edge"><title>Node1&#45;&gt;Node13</title>
<path fill="none" stroke="midnightblue" d="M1168.49,-646.599C951.771,-642.059 310.611,-626.604 273.409,-602 256.923,-591.097 210.383,-474.312 197.409,-428 166.809,-318.771 94.7369,-256.671 172.409,-174 196.768,-148.073 733.114,-132.52 875.151,-128.847"/>
<polygon fill="midnightblue" stroke="midnightblue" points="1168.73,-650.105 1178.8,-646.813 1168.87,-643.106 1168.73,-650.105"/>
</g>
<!-- Node14 -->
<g id="node14" class="node"><title>Node14</title>
<g id="a_node14"><a xlink:href="shape_8h.html" target="_top" xlink:title="Helper functions for manipulating RMF files. ">
<polygon fill="none" stroke="black" points="1734.62,-117 1734.62,-137 1786.2,-137 1786.2,-117 1734.62,-117"/>
<text text-anchor="middle" x="1760.41" y="-123" font-family="Helvetica,sans-Serif" font-size="10.00">shape.h</text>
</a>
</g>
</g>
<!-- Node1&#45;&gt;Node14 -->
<g id="edge184" class="edge"><title>Node1&#45;&gt;Node14</title>
<path fill="none" stroke="midnightblue" d="M1310.19,-648.178C1486.63,-647.98 1942.21,-643.349 2087.41,-602 2139.06,-587.292 2158.45,-584.769 2193.41,-544 2250.77,-477.098 2222.98,-412.94 2163.41,-348 2051.6,-226.115 1856.28,-157.28 1786.28,-135.573"/>
<polygon fill="midnightblue" stroke="midnightblue" points="1309.98,-644.678 1299.98,-648.185 1309.98,-651.678 1309.98,-644.678"/>
</g>
<!-- Node15 -->
<g id="node15" class="node"><title>Node15</title>
<g id="a_node15"><a xlink:href="bond_8h.html" target="_top" xlink:title="Helper functions for manipulating RMF files. ">
<polygon fill="none" stroke="black" points="1806.12,-117 1806.12,-137 1852.7,-137 1852.7,-117 1806.12,-117"/>
<text text-anchor="middle" x="1829.41" y="-123" font-family="Helvetica,sans-Serif" font-size="10.00">bond.h</text>
</a>
</g>
</g>
<!-- Node1&#45;&gt;Node15 -->
<g id="edge185" class="edge"><title>Node1&#45;&gt;Node15</title>
<path fill="none" stroke="midnightblue" d="M1310.05,-647.65C1492.9,-646.219 1978.29,-638.948 2134.41,-602 2207.61,-584.675 2289.41,-609.227 2289.41,-534 2289.41,-534 2289.41,-534 2289.41,-300 2289.41,-276.447 1946.59,-165.376 1852.85,-135.445"/>
<polygon fill="midnightblue" stroke="midnightblue" points="1309.98,-644.15 1300.01,-647.725 1310.03,-651.15 1309.98,-644.15"/>
</g>
<!-- Node16 -->
<g id="node16" class="node"><title>Node16</title>
<g id="a_node16"><a xlink:href="representation_8h.html" target="_top" xlink:title="Helper functions for manipulating RMF files. ">
<polygon fill="none" stroke="black" points="1475.27,-117 1475.27,-137 1563.54,-137 1563.54,-117 1475.27,-117"/>
<text text-anchor="middle" x="1519.41" y="-123" font-family="Helvetica,sans-Serif" font-size="10.00">representation.h</text>
</a>
</g>
</g>
<!-- Node1&#45;&gt;Node16 -->
<g id="edge186" class="edge"><title>Node1&#45;&gt;Node16</title>
<path fill="none" stroke="midnightblue" d="M1249.24,-630.112C1271.97,-589.225 1330.62,-486.273 1388.41,-406 1439.84,-334.555 1484.08,-336.268 1515.41,-254 1531.07,-212.89 1524.6,-158.66 1521.1,-137.256"/>
<polygon fill="midnightblue" stroke="midnightblue" points="1246.15,-628.467 1244.37,-638.912 1252.28,-631.855 1246.15,-628.467"/>
</g>
<!-- Node17 -->
<g id="node17" class="node"><title>Node17</title>
<g id="a_node17"><a xlink:href="alternatives_8h.html" target="_top" xlink:title="Helper functions for manipulating RMF files. ">
<polygon fill="none" stroke="black" points="2213.67,-117 2213.67,-137 2289.15,-137 2289.15,-117 2213.67,-117"/>
<text text-anchor="middle" x="2251.41" y="-123" font-family="Helvetica,sans-Serif" font-size="10.00">alternatives.h</text>
</a>
</g>
</g>
<!-- Node1&#45;&gt;Node17 -->
<g id="edge187" class="edge"><title>Node1&#45;&gt;Node17</title>
<path fill="none" stroke="midnightblue" d="M1310.06,-647.731C1514.56,-646.506 2104.52,-639.711 2293.41,-602 2379.72,-584.768 2479.41,-622.018 2479.41,-534 2479.41,-534 2479.41,-534 2479.41,-242 2479.41,-158.025 2354.15,-135.906 2289.31,-130.081"/>
<polygon fill="midnightblue" stroke="midnightblue" points="1310.01,-644.231 1300.03,-647.788 1310.05,-651.231 1310.01,-644.231"/>
</g>
<!-- Node20 -->
<g id="node20" class="node"><title>Node20</title>
<g id="a_node20"><a xlink:href="RestoreCurrentFrame_8h.html" target="_top" xlink:title="Handle read/write of Model data from/to files. ">
<polygon fill="none" stroke="black" points="671.613,-175 671.613,-195 793.204,-195 793.204,-175 671.613,-175"/>
<text text-anchor="middle" x="732.409" y="-181" font-family="Helvetica,sans-Serif" font-size="10.00">RestoreCurrentFrame.h</text>
</a>
</g>
</g>
<!-- Node1&#45;&gt;Node20 -->
<g id="edge188" class="edge"><title>Node1&#45;&gt;Node20</title>
<path fill="none" stroke="midnightblue" d="M1233.35,-629.163C1224.1,-602.704 1204.3,-554.175 1174.41,-522 1086.42,-427.286 1036.2,-438.251 926.409,-370 905.883,-357.241 852.476,-328.052 834.409,-312 791.697,-274.054 752.586,-217.059 738.222,-195.086"/>
<polygon fill="midnightblue" stroke="midnightblue" points="1230.07,-630.38 1236.58,-638.742 1236.7,-628.148 1230.07,-630.38"/>
</g>
<!-- Node21 -->
<g id="node21" class="node"><title>Node21</title>
<g id="a_node21"><a xlink:href="SetCurrentFrame_8h.html" target="_top" xlink:title="Handle read/write of Model data from/to files. ">
<polygon fill="none" stroke="black" points="181.616,-175 181.616,-195 283.202,-195 283.202,-175 181.616,-175"/>
<text text-anchor="middle" x="232.409" y="-181" font-family="Helvetica,sans-Serif" font-size="10.00">SetCurrentFrame.h</text>
</a>
</g>
</g>
<!-- Node1&#45;&gt;Node21 -->
<g id="edge189" class="edge"><title>Node1&#45;&gt;Node21</title>
<path fill="none" stroke="midnightblue" d="M1168.69,-646.873C969.373,-643.351 412.479,-631.004 335.409,-602 289.804,-584.837 249.409,-582.727 249.409,-534 249.409,-534 249.409,-534 249.409,-474 249.409,-364.059 236.911,-230.92 233.347,-195.19"/>
<polygon fill="midnightblue" stroke="midnightblue" points="1168.7,-650.374 1178.76,-647.049 1168.82,-643.375 1168.7,-650.374"/>
</g>
<!-- Node23 -->
<g id="node23" class="node"><title>Node23</title>
<g id="a_node23"><a xlink:href="ID_8h.html" target="_top" xlink:title="Handle read/write of Model data from/to files. ">
<polygon fill="none" stroke="black" points="851.239,-523 851.239,-543 885.579,-543 885.579,-523 851.239,-523"/>
<text text-anchor="middle" x="868.409" y="-529" font-family="Helvetica,sans-Serif" font-size="10.00">ID.h</text>
</a>
</g>
</g>
<!-- Node1&#45;&gt;Node23 -->
<g id="edge38" class="edge"><title>Node1&#45;&gt;Node23</title>
<path fill="none" stroke="midnightblue" d="M1181.17,-636.93C1141.17,-628.745 1087.07,-616.528 1040.41,-602 982.464,-583.959 916.328,-555.493 885.679,-541.828"/>
<polygon fill="midnightblue" stroke="midnightblue" points="1180.53,-640.371 1191.02,-638.922 1181.91,-633.509 1180.53,-640.371"/>
</g>
<!-- Node25 -->
<g id="node25" class="node"><title>Node25</title>
<g id="a_node25"><a xlink:href="NodeConstHandle_8h.html" target="_top" xlink:title="Handle read/write of Model data from/to files. ">
<polygon fill="none" stroke="black" points="619.379,-291 619.379,-311 725.438,-311 725.438,-291 619.379,-291"/>
<text text-anchor="middle" x="672.409" y="-297" font-family="Helvetica,sans-Serif" font-size="10.00">NodeConstHandle.h</text>
</a>
</g>
</g>
<!-- Node1&#45;&gt;Node25 -->
<g id="edge175" class="edge"><title>Node1&#45;&gt;Node25</title>
<path fill="none" stroke="midnightblue" d="M1168.55,-644.438C983.755,-634.207 501.409,-601.079 501.409,-534 501.409,-534 501.409,-534 501.409,-474 501.409,-389.785 605.779,-332.176 651.441,-311.001"/>
<polygon fill="midnightblue" stroke="midnightblue" points="1168.53,-647.942 1178.7,-644.993 1168.91,-640.952 1168.53,-647.942"/>
</g>
<!-- Node26 -->
<g id="node26" class="node"><title>Node26</title>
<g id="a_node26"><a xlink:href="Decorator_8h.html" target="_top" xlink:title="Helper functions for manipulating RMF files. ">
<polygon fill="none" stroke="black" points="1661.56,-175 1661.56,-195 1729.26,-195 1729.26,-175 1661.56,-175"/>
<text text-anchor="middle" x="1695.41" y="-181" font-family="Helvetica,sans-Serif" font-size="10.00">Decorator.h</text>
</a>
</g>
</g>
<!-- Node1&#45;&gt;Node26 -->
<g id="edge147" class="edge"><title>Node1&#45;&gt;Node26</title>
<path fill="none" stroke="midnightblue" d="M1310.04,-645.543C1515.72,-637.638 2103.07,-609.468 2156.41,-544 2162.58,-536.419 2160.84,-530.715 2156.41,-522 2105.85,-422.579 1787.36,-237.986 1711.58,-195.076"/>
<polygon fill="midnightblue" stroke="midnightblue" points="1309.81,-642.049 1299.95,-645.926 1310.08,-649.044 1309.81,-642.049"/>
</g>
<!-- Node27 -->
<g id="node27" class="node"><title>Node27</title>
<g id="a_node27"><a xlink:href="NodeHandle_8h.html" target="_top" xlink:title="Handle read/write of Model data from/to files. ">
<polygon fill="none" stroke="black" points="1427.44,-233 1427.44,-253 1507.38,-253 1507.38,-233 1427.44,-233"/>
<text text-anchor="middle" x="1467.41" y="-239" font-family="Helvetica,sans-Serif" font-size="10.00">NodeHandle.h</text>
</a>
</g>
</g>
<!-- Node1&#45;&gt;Node27 -->
<g id="edge176" class="edge"><title>Node1&#45;&gt;Node27</title>
<path fill="none" stroke="midnightblue" d="M1291.25,-636.092C1314.17,-628.964 1340.41,-618.077 1360.41,-602 1384.43,-582.693 1383.05,-570.716 1398.41,-544 1427.14,-494.031 1441.5,-483.679 1456.41,-428 1473.88,-362.776 1470.02,-280.072 1468.13,-253.011"/>
<polygon fill="midnightblue" stroke="midnightblue" points="1290.26,-632.736 1281.66,-638.921 1292.24,-639.45 1290.26,-632.736"/>
</g>
<!-- Node29 -->
<g id="node29" class="node"><title>Node29</title>
<g id="a_node29"><a xlink:href="keys_8h.html" target="_top" xlink:title="Handle read/write of Model data from/to files. ">
<polygon fill="none" stroke="black" points="680.958,-349 680.958,-369 725.859,-369 725.859,-349 680.958,-349"/>
<text text-anchor="middle" x="703.409" y="-355" font-family="Helvetica,sans-Serif" font-size="10.00">keys.h</text>
</a>
</g>
</g>
<!-- Node1&#45;&gt;Node29 -->
<g id="edge171" class="edge"><title>Node1&#45;&gt;Node29</title>
<path fill="none" stroke="midnightblue" d="M1168.44,-645.258C1083.22,-638.654 939.628,-616.634 842.409,-544 773.774,-492.722 722.756,-398.597 707.863,-369.092"/>
<polygon fill="midnightblue" stroke="midnightblue" points="1168.31,-648.757 1178.54,-645.989 1168.82,-641.775 1168.31,-648.757"/>
</g>
<!-- Node42 -->
<g id="node42" class="node"><title>Node42</title>
<g id="a_node42"><a xlink:href="Vector_8h.html" target="_top" xlink:title="Represent coordinates. ">
<polygon fill="none" stroke="black" points="1746.33,-581 1746.33,-601 1798.48,-601 1798.48,-581 1746.33,-581"/>
<text text-anchor="middle" x="1772.41" y="-587" font-family="Helvetica,sans-Serif" font-size="10.00">Vector.h</text>
</a>
</g>
</g>
<!-- Node1&#45;&gt;Node42 -->
<g id="edge126" class="edge"><title>Node1&#45;&gt;Node42</title>
<path fill="none" stroke="midnightblue" d="M1310.2,-640.563C1429.96,-627.98 1667.22,-603.051 1746.17,-594.757"/>
<polygon fill="midnightblue" stroke="midnightblue" points="1309.61,-637.105 1300.03,-641.631 1310.34,-644.066 1309.61,-637.105"/>
</g>
<!-- Node43 -->
<g id="node43" class="node"><title>Node43</title>
<g id="a_node43"><a xlink:href="CoordinateTransformer_8h.html" target="_top" xlink:title="Handle read/write of Model data from/to files. ">
<polygon fill="none" stroke="black" points="2021.01,-523 2021.01,-543 2147.81,-543 2147.81,-523 2021.01,-523"/>
<text text-anchor="middle" x="2084.41" y="-529" font-family="Helvetica,sans-Serif" font-size="10.00">CoordinateTransformer.h</text>
</a>
</g>
</g>
<!-- Node1&#45;&gt;Node43 -->
<g id="edge146" class="edge"><title>Node1&#45;&gt;Node43</title>
<path fill="none" stroke="midnightblue" d="M1310.44,-645.893C1418.41,-641.87 1630.02,-630.766 1807.41,-602 1898.57,-587.217 2003.92,-557.883 2054.4,-543.046"/>
<polygon fill="midnightblue" stroke="midnightblue" points="1310.18,-642.399 1300.32,-646.26 1310.44,-649.395 1310.18,-642.399"/>
</g>
<!-- Node46 -->
<g id="node46" class="node"><title>Node46</title>
<g id="a_node46"><a xlink:href="Enum_8h.html" target="_top" xlink:title="Handle read/write of Model data from/to files. ">
<polygon fill="none" stroke="black" points="1397.18,-407 1397.18,-427 1447.64,-427 1447.64,-407 1397.18,-407"/>
<text text-anchor="middle" x="1422.41" y="-413" font-family="Helvetica,sans-Serif" font-size="10.00">Enum.h</text>
</a>
</g>
</g>
<!-- Node1&#45;&gt;Node46 -->
<g id="edge148" class="edge"><title>Node1&#45;&gt;Node46</title>
<path fill="none" stroke="midnightblue" d="M1282,-635.452C1300.86,-628.162 1322.18,-617.325 1337.41,-602 1390.24,-548.84 1414,-456.763 1420.49,-427.33"/>
<polygon fill="midnightblue" stroke="midnightblue" points="1280.6,-632.236 1272.41,-638.946 1283,-638.813 1280.6,-632.236"/>
</g>
<!-- Node48 -->
<g id="node48" class="node"><title>Node48</title>
<g id="a_node48"><a xlink:href="HDF5_2infrastructure__macros_8h.html" target="_top" xlink:title="Various general useful macros for IMP. ">
<polygon fill="none" stroke="black" points="2784.89,-581 2784.89,-601 2905.93,-601 2905.93,-581 2784.89,-581"/>
<text text-anchor="middle" x="2845.41" y="-587" font-family="Helvetica,sans-Serif" font-size="10.00">infrastructure_macros.h</text>
</a>
</g>
</g>
<!-- Node1&#45;&gt;Node48 -->
<g id="edge156" class="edge"><title>Node1&#45;&gt;Node48</title>
<path fill="none" stroke="midnightblue" d="M1310.44,-645.523C1579.61,-636.138 2534.16,-602.853 2784.78,-594.114"/>
<polygon fill="midnightblue" stroke="midnightblue" points="1310.28,-642.027 1300.4,-645.873 1310.52,-649.022 1310.28,-642.027"/>
</g>
<!-- Node50 -->
<g id="node50" class="node"><title>Node50</title>
<g id="a_node50"><a xlink:href="Nullable_8h.html" target="_top" xlink:title="Handle read/write of Model data from/to files. ">
<polygon fill="none" stroke="black" points="819.172,-349 819.172,-369 879.645,-369 879.645,-349 819.172,-349"/>
<text text-anchor="middle" x="849.409" y="-355" font-family="Helvetica,sans-Serif" font-size="10.00">Nullable.h</text>
</a>
</g>
</g>
<!-- Node1&#45;&gt;Node50 -->
<g id="edge172" class="edge"><title>Node1&#45;&gt;Node50</title>
<path fill="none" stroke="midnightblue" d="M1214.44,-633.71C1181.38,-614.492 1121.65,-578.708 1073.41,-544 1072.7,-543.491 905.525,-406.115 860.478,-369.097"/>
<polygon fill="midnightblue" stroke="midnightblue" points="1213,-636.923 1223.41,-638.9 1216.51,-630.863 1213,-636.923"/>
</g>
<!-- Node2&#45;&gt;Node3 -->
<g id="edge2" class="edge"><title>Node2&#45;&gt;Node3</title>
<path fill="none" stroke="midnightblue" d="M88.4248,-570.939C94.9585,-546.11 106.121,-503.692 111.004,-485.139"/>
<polygon fill="midnightblue" stroke="midnightblue" points="85.0239,-570.109 85.8637,-580.671 91.7934,-571.891 85.0239,-570.109"/>
</g>
<!-- Node3&#45;&gt;Node4 -->
<g id="edge3" class="edge"><title>Node3&#45;&gt;Node4</title>
<path fill="none" stroke="midnightblue" d="M131.068,-458.122C171.204,-422.836 273.56,-337.291 373.409,-290 411.051,-272.172 456.844,-260.17 490.95,-252.909"/>
<polygon fill="midnightblue" stroke="midnightblue" points="128.632,-455.605 123.471,-464.858 133.276,-460.842 128.632,-455.605"/>
</g>
<!-- Node3&#45;&gt;Node9 -->
<g id="edge36" class="edge"><title>Node3&#45;&gt;Node9</title>
<path fill="none" stroke="midnightblue" d="M94.6935,-458.303C72.771,-438.047 39.4086,-400.559 39.4086,-360 39.4086,-360 39.4086,-360 39.4086,-126 39.4086,-93.9507 38.6552,-78.3574 63.4086,-58 102.52,-25.8347 247.043,-16.1482 326.026,-13.2404"/>
<polygon fill="midnightblue" stroke="midnightblue" points="92.3736,-460.924 102.17,-464.96 97.0286,-455.696 92.3736,-460.924"/>
</g>
<!-- Node5 -->
<g id="node5" class="node"><title>Node5</title>
<g id="a_node5"><a xlink:href="FileHandle_8h.html" target="_top" xlink:title="Handle read/write of Model data from/to files. ">
<polygon fill="none" stroke="black" points="1267.34,-175 1267.34,-195 1339.48,-195 1339.48,-175 1267.34,-175"/>
<text text-anchor="middle" x="1303.41" y="-181" font-family="Helvetica,sans-Serif" font-size="10.00">FileHandle.h</text>
</a>
</g>
</g>
<!-- Node4&#45;&gt;Node5 -->
<g id="edge4" class="edge"><title>Node4&#45;&gt;Node5</title>
<path fill="none" stroke="midnightblue" d="M599.762,-235.764C613.125,-234.444 627.247,-233.114 640.409,-232 879.258,-211.776 1167.08,-194.082 1267.08,-188.131"/>
<polygon fill="midnightblue" stroke="midnightblue" points="599.321,-232.291 589.719,-236.769 600.017,-239.256 599.321,-232.291"/>
</g>
<!-- Node4&#45;&gt;Node9 -->
<g id="edge35" class="edge"><title>Node4&#45;&gt;Node9</title>
<path fill="none" stroke="midnightblue" d="M520.634,-226.289C497.757,-207.312 460.083,-173.492 435.409,-138 407.725,-98.1791 388.24,-42.7505 381.252,-21.1383"/>
<polygon fill="midnightblue" stroke="midnightblue" points="518.659,-229.195 528.619,-232.808 523.086,-223.773 518.659,-229.195"/>
</g>
<!-- Node18 -->
<g id="node18" class="node"><title>Node18</title>
<g id="a_node18"><a xlink:href="validate_8h.html" target="_top" xlink:title="Handle read/write of Model data from/to files. ">
<polygon fill="none" stroke="black" points="444.005,-117 444.005,-137 502.812,-137 502.812,-117 444.005,-117"/>
<text text-anchor="middle" x="473.409" y="-123" font-family="Helvetica,sans-Serif" font-size="10.00">validate.h</text>
</a>
</g>
</g>
<!-- Node4&#45;&gt;Node18 -->
<g id="edge34" class="edge"><title>Node4&#45;&gt;Node18</title>
<path fill="none" stroke="midnightblue" d="M529.789,-223.931C515.287,-199.256 489.83,-155.942 478.78,-137.139"/>
<polygon fill="midnightblue" stroke="midnightblue" points="526.841,-225.823 534.926,-232.671 532.876,-222.276 526.841,-225.823"/>
</g>
<!-- Node19 -->
<g id="node19" class="node"><title>Node19</title>
<g id="a_node19"><a xlink:href="info_8h.html" target="_top" xlink:title="Helper functions for manipulating RMF files. ">
<polygon fill="none" stroke="black" points="529.177,-175 529.177,-195 569.64,-195 569.64,-175 529.177,-175"/>
<text text-anchor="middle" x="549.409" y="-181" font-family="Helvetica,sans-Serif" font-size="10.00">info.h</text>
</a>
</g>
</g>
<!-- Node4&#45;&gt;Node19 -->
<g id="edge30" class="edge"><title>Node4&#45;&gt;Node19</title>
<path fill="none" stroke="midnightblue" d="M543.509,-222.707C545.015,-213.338 546.753,-202.526 547.95,-195.075"/>
<polygon fill="midnightblue" stroke="midnightblue" points="540.026,-222.324 541.895,-232.753 546.937,-223.435 540.026,-222.324"/>
</g>
<!-- Node4&#45;&gt;Node20 -->
<g id="edge31" class="edge"><title>Node4&#45;&gt;Node20</title>
<path fill="none" stroke="midnightblue" d="M581.386,-230.048C617.347,-219.56 668.86,-204.535 701.465,-195.025"/>
<polygon fill="midnightblue" stroke="midnightblue" points="580.304,-226.718 571.684,-232.878 582.264,-233.438 580.304,-226.718"/>
</g>
<!-- Node4&#45;&gt;Node21 -->
<g id="edge32" class="edge"><title>Node4&#45;&gt;Node21</title>
<path fill="none" stroke="midnightblue" d="M481.183,-231.232C423.388,-220.723 336.454,-204.917 282.143,-195.043"/>
<polygon fill="midnightblue" stroke="midnightblue" points="480.8,-234.719 491.265,-233.065 482.052,-227.832 480.8,-234.719"/>
</g>
<!-- Node22 -->
<g id="node22" class="node"><title>Node22</title>
<g id="a_node22"><a xlink:href="signature_8h.html" target="_top" xlink:title="Helper functions for manipulating RMF files. ">
<polygon fill="none" stroke="black" points="587.67,-175 587.67,-195 653.147,-195 653.147,-175 587.67,-175"/>
<text text-anchor="middle" x="620.409" y="-181" font-family="Helvetica,sans-Serif" font-size="10.00">signature.h</text>
</a>
</g>
</g>
<!-- Node4&#45;&gt;Node22 -->
<g id="edge33" class="edge"><title>Node4&#45;&gt;Node22</title>
<path fill="none" stroke="midnightblue" d="M562.029,-226.866C576.542,-216.707 595.18,-203.66 607.444,-195.075"/>
<polygon fill="midnightblue" stroke="midnightblue" points="559.804,-224.151 553.619,-232.753 563.818,-229.885 559.804,-224.151"/>
</g>
<!-- Node5&#45;&gt;Node6 -->
<g id="edge5" class="edge"><title>Node5&#45;&gt;Node6</title>
<path fill="none" stroke="midnightblue" d="M1328.11,-169.438C1345.48,-159.201 1368.17,-145.822 1383.01,-137.075"/>
<polygon fill="midnightblue" stroke="midnightblue" points="1325.93,-166.659 1319.1,-174.753 1329.49,-172.69 1325.93,-166.659"/>
</g>
<!-- Node5&#45;&gt;Node8 -->
<g id="edge14" class="edge"><title>Node5&#45;&gt;Node8</title>
<path fill="none" stroke="midnightblue" d="M1301.98,-164.894C1299.96,-150.049 1295.1,-129.742 1283.41,-116 1266.16,-95.7313 1237.94,-83.7102 1216.55,-77.0713"/>
<polygon fill="midnightblue" stroke="midnightblue" points="1298.51,-165.4 1303.03,-174.981 1305.47,-164.671 1298.51,-165.4"/>
</g>
<!-- Node5&#45;&gt;Node9 -->
<g id="edge29" class="edge"><title>Node5&#45;&gt;Node9</title>
<path fill="none" stroke="midnightblue" d="M1308.36,-164.45C1310.89,-150.232 1312.03,-130.938 1304.41,-116 1284.45,-76.8799 1265.8,-72.6794 1224.41,-58 1149.89,-31.5732 603.825,-17.0896 430.824,-13.1282"/>
<polygon fill="midnightblue" stroke="midnightblue" points="1304.86,-164.072 1306.17,-174.584 1311.7,-165.546 1304.86,-164.072"/>
</g>
<!-- Node5&#45;&gt;Node10 -->
<g id="edge10" class="edge"><title>Node5&#45;&gt;Node10</title>
<path fill="none" stroke="midnightblue" d="M1286.53,-167.704C1276.2,-157.729 1263.36,-145.336 1254.81,-137.075"/>
<polygon fill="midnightblue" stroke="midnightblue" points="1284.21,-170.325 1293.83,-174.753 1289.07,-165.289 1284.21,-170.325"/>
</g>
<!-- Node5&#45;&gt;Node11 -->
<g id="edge12" class="edge"><title>Node5&#45;&gt;Node11</title>
<path fill="none" stroke="midnightblue" d="M1349.85,-183.018C1446.01,-180.361 1673.6,-170.84 1861.41,-138 1864.42,-137.473 1867.55,-136.812 1870.65,-136.083"/>
<polygon fill="midnightblue" stroke="midnightblue" points="1349.51,-179.526 1339.6,-183.288 1349.69,-186.523 1349.51,-179.526"/>
</g>
<!-- Node5&#45;&gt;Node12 -->
<g id="edge15" class="edge"><title>Node5&#45;&gt;Node12</title>
<path fill="none" stroke="midnightblue" d="M1349.78,-177.113C1425.76,-165.825 1575.23,-143.624 1644.09,-133.394"/>
<polygon fill="midnightblue" stroke="midnightblue" points="1348.93,-173.699 1339.56,-178.63 1349.96,-180.623 1348.93,-173.699"/>
</g>
<!-- Node5&#45;&gt;Node13 -->
<g id="edge17" class="edge"><title>Node5&#45;&gt;Node13</title>
<path fill="none" stroke="midnightblue" d="M1256.75,-177.368C1176.46,-165.956 1014.01,-142.867 943.427,-132.835"/>
<polygon fill="midnightblue" stroke="midnightblue" points="1256.66,-180.89 1267.05,-178.832 1257.64,-173.96 1256.66,-180.89"/>
</g>
<!-- Node5&#45;&gt;Node14 -->
<g id="edge20" class="edge"><title>Node5&#45;&gt;Node14</title>
<path fill="none" stroke="midnightblue" d="M1349.55,-181.539C1427.57,-176.808 1590.27,-164.473 1725.41,-138 1728.39,-137.417 1731.48,-136.701 1734.53,-135.922"/>
<polygon fill="midnightblue" stroke="midnightblue" points="1349.34,-178.046 1339.57,-182.131 1349.76,-185.033 1349.34,-178.046"/>
</g>
<!-- Node5&#45;&gt;Node15 -->
<g id="edge22" class="edge"><title>Node5&#45;&gt;Node15</title>
<path fill="none" stroke="midnightblue" d="M1349.91,-182.505C1437.55,-179.057 1632.9,-168.368 1794.41,-138 1798.14,-137.299 1802.04,-136.378 1805.83,-135.377"/>
<polygon fill="midnightblue" stroke="midnightblue" points="1349.62,-179.013 1339.76,-182.891 1349.89,-186.008 1349.62,-179.013"/>
</g>
<!-- Node5&#45;&gt;Node16 -->
<g id="edge24" class="edge"><title>Node5&#45;&gt;Node16</title>
<path fill="none" stroke="midnightblue" d="M1348.47,-172.316C1388.97,-161.817 1447.6,-146.616 1484.6,-137.025"/>
<polygon fill="midnightblue" stroke="midnightblue" points="1347.4,-168.98 1338.59,-174.878 1349.15,-175.756 1347.4,-168.98"/>
</g>
<!-- Node5&#45;&gt;Node17 -->
<g id="edge26" class="edge"><title>Node5&#45;&gt;Node17</title>
<path fill="none" stroke="midnightblue" d="M1349.95,-181.251C1514.08,-171.555 2064.08,-139.066 2213.61,-130.233"/>
<polygon fill="midnightblue" stroke="midnightblue" points="1349.48,-177.772 1339.7,-181.856 1349.89,-184.76 1349.48,-177.772"/>
</g>
<!-- Node5&#45;&gt;Node18 -->
<g id="edge28" class="edge"><title>Node5&#45;&gt;Node18</title>
<path fill="none" stroke="midnightblue" d="M1256.85,-180.859C1105.06,-170.618 627.135,-138.372 503.069,-130.001"/>
<polygon fill="midnightblue" stroke="midnightblue" points="1257,-184.377 1267.21,-181.558 1257.47,-177.392 1257,-184.377"/>
</g>
<!-- Node7 -->
<g id="node7" class="node"><title>Node7</title>
<g id="a_node7"><a xlink:href="decorators_8h.html" target="_top" xlink:title="Import all the decorators headers. ">
<polygon fill="none" stroke="black" points="1548.62,-1 1548.62,-21 1620.2,-21 1620.2,-1 1548.62,-1"/>
<text text-anchor="middle" x="1584.41" y="-7" font-family="Helvetica,sans-Serif" font-size="10.00">decorators.h</text>
</a>
</g>
</g>
<!-- Node6&#45;&gt;Node7 -->
<g id="edge6" class="edge"><title>Node6&#45;&gt;Node7</title>
<path fill="none" stroke="midnightblue" d="M1421.9,-111.6C1460.82,-87.75 1537.54,-40.7263 1569.69,-21.0217"/>
<polygon fill="midnightblue" stroke="midnightblue" points="1420.01,-108.654 1413.32,-116.864 1423.67,-114.622 1420.01,-108.654"/>
</g>
<!-- Node6&#45;&gt;Node8 -->
<g id="edge7" class="edge"><title>Node6&#45;&gt;Node8</title>
<path fill="none" stroke="midnightblue" d="M1366.12,-117.429C1325.33,-106.606 1255.76,-88.1418 1216.54,-77.7314"/>
<polygon fill="midnightblue" stroke="midnightblue" points="1365.26,-120.825 1375.83,-120.007 1367.06,-114.059 1365.26,-120.825"/>
</g>
<!-- Node8&#45;&gt;Node7 -->
<g id="edge8" class="edge"><title>Node8&#45;&gt;Node7</title>
<path fill="none" stroke="midnightblue" d="M1226.51,-62.4846C1303.53,-51.6202 1473.85,-27.5946 1548.35,-17.0868"/>
<polygon fill="midnightblue" stroke="midnightblue" points="1225.69,-59.065 1216.28,-63.9275 1226.67,-65.9964 1225.69,-59.065"/>
</g>
<!-- Node8&#45;&gt;Node9 -->
<g id="edge9" class="edge"><title>Node8&#45;&gt;Node9</title>
<path fill="none" stroke="midnightblue" d="M1147.99,-65.2716C1014.86,-56.0561 581.79,-26.0783 430.86,-15.6308"/>
<polygon fill="midnightblue" stroke="midnightblue" points="1147.92,-68.7748 1158.14,-65.9738 1148.4,-61.7916 1147.92,-68.7748"/>
</g>
<!-- Node10&#45;&gt;Node7 -->
<g id="edge11" class="edge"><title>Node10&#45;&gt;Node7</title>
<path fill="none" stroke="midnightblue" d="M1281.82,-113.756C1350.36,-90.7079 1497.07,-41.3712 1557.52,-21.0416"/>
<polygon fill="midnightblue" stroke="midnightblue" points="1280.66,-110.454 1272.29,-116.959 1282.89,-117.089 1280.66,-110.454"/>
</g>
<!-- Node11&#45;&gt;Node7 -->
<g id="edge13" class="edge"><title>Node11&#45;&gt;Node7</title>
<path fill="none" stroke="midnightblue" d="M1866.32,-113.082C1831.17,-99.0526 1773.05,-76.211 1722.41,-58 1684.74,-44.4542 1640.82,-30.0485 1612.82,-21.0403"/>
<polygon fill="midnightblue" stroke="midnightblue" points="1865.45,-116.501 1876.03,-116.966 1868.05,-110.002 1865.45,-116.501"/>
</g>
<!-- Node12&#45;&gt;Node7 -->
<g id="edge16" class="edge"><title>Node12&#45;&gt;Node7</title>
<path fill="none" stroke="midnightblue" d="M1666.01,-108.904C1645.39,-84.4104 1608.15,-40.1911 1592.1,-21.1394"/>
<polygon fill="midnightblue" stroke="midnightblue" points="1663.43,-111.276 1672.55,-116.671 1668.79,-106.767 1663.43,-111.276"/>
</g>
<!-- Node13&#45;&gt;Node7 -->
<g id="edge18" class="edge"><title>Node13&#45;&gt;Node7</title>
<path fill="none" stroke="midnightblue" d="M945.306,-113.746C991.829,-98.3499 1075.73,-72.2263 1149.41,-58 1295.93,-29.7109 1473.81,-17.7479 1548.58,-13.7151"/>
<polygon fill="midnightblue" stroke="midnightblue" points="944.068,-110.47 935.688,-116.953 946.282,-117.11 944.068,-110.47"/>
</g>
<!-- Node13&#45;&gt;Node9 -->
<g id="edge19" class="edge"><title>Node13&#45;&gt;Node9</title>
<path fill="none" stroke="midnightblue" d="M901.575,-107.088C893.87,-91.0926 880.482,-69.0612 861.409,-58 789.362,-16.2169 540.418,-11.5374 430.859,-11.5712"/>
<polygon fill="midnightblue" stroke="midnightblue" points="898.534,-108.861 905.82,-116.552 904.921,-105.996 898.534,-108.861"/>
</g>
<!-- Node14&#45;&gt;Node7 -->
<g id="edge21" class="edge"><title>Node14&#45;&gt;Node7</title>
<path fill="none" stroke="midnightblue" d="M1737.73,-111.312C1700.87,-87.4373 1629.02,-40.8973 1598.58,-21.1799"/>
<polygon fill="midnightblue" stroke="midnightblue" points="1736.01,-114.365 1746.3,-116.864 1739.81,-108.489 1736.01,-114.365"/>
</g>
<!-- Node15&#45;&gt;Node7 -->
<g id="edge23" class="edge"><title>Node15&#45;&gt;Node7</title>
<path fill="none" stroke="midnightblue" d="M1801.44,-112.496C1772.67,-98.6525 1726.52,-76.5814 1686.41,-58 1658.21,-44.9366 1625.41,-30.2337 1604.78,-21.0436"/>
<polygon fill="midnightblue" stroke="midnightblue" points="1799.97,-115.672 1810.5,-116.858 1803.01,-109.365 1799.97,-115.672"/>
</g>
<!-- Node16&#45;&gt;Node7 -->
<g id="edge25" class="edge"><title>Node16&#45;&gt;Node7</title>
<path fill="none" stroke="midnightblue" d="M1529.71,-107.931C1543.78,-83.2561 1568.48,-39.9416 1579.2,-21.1394"/>
<polygon fill="midnightblue" stroke="midnightblue" points="1526.64,-106.25 1524.73,-116.671 1532.72,-109.717 1526.64,-106.25"/>
</g>
<!-- Node17&#45;&gt;Node7 -->
<g id="edge27" class="edge"><title>Node17&#45;&gt;Node7</title>
<path fill="none" stroke="midnightblue" d="M2203.44,-117.801C2076.33,-96.077 1732.92,-37.3824 1620.54,-18.1756"/>
<polygon fill="midnightblue" stroke="midnightblue" points="2203.19,-121.309 2213.64,-119.544 2204.37,-114.409 2203.19,-121.309"/>
</g>
<!-- Node23&#45;&gt;Node4 -->
<g id="edge121" class="edge"><title>Node23&#45;&gt;Node4</title>
<path fill="none" stroke="midnightblue" d="M840.88,-530.71C780.188,-527.332 637.407,-516.294 601.409,-486 570.002,-459.57 546.4,-352.448 539.409,-312 535.829,-291.291 537.711,-266.505 539.19,-253.324"/>
<polygon fill="midnightblue" stroke="midnightblue" points="841.043,-534.223 851.213,-531.254 841.411,-527.233 841.043,-534.223"/>
</g>
<!-- Node23&#45;&gt;Node5 -->
<g id="edge122" class="edge"><title>Node23&#45;&gt;Node5</title>
<path fill="none" stroke="midnightblue" d="M892.637,-517.545C906.84,-508.821 924.968,-497.249 940.409,-486 1086.78,-379.37 1251.61,-232.671 1293.38,-195.067"/>
<polygon fill="midnightblue" stroke="midnightblue" points="890.664,-514.649 883.938,-522.835 894.301,-520.63 890.664,-514.649"/>
</g>
<!-- Node23&#45;&gt;Node9 -->
<g id="edge125" class="edge"><title>Node23&#45;&gt;Node9</title>
<path fill="none" stroke="midnightblue" d="M840.846,-532.388C782.454,-532.321 642.837,-527.424 535.409,-486 416.632,-440.2 215.221,-287.49 172.409,-196 131.15,-107.831 284.858,-43.7934 350.271,-21.057"/>
<polygon fill="midnightblue" stroke="midnightblue" points="841.107,-535.887 851.094,-532.349 841.081,-528.887 841.107,-535.887"/>
</g>
<!-- Node23&#45;&gt;Node20 -->
<g id="edge123" class="edge"><title>Node23&#45;&gt;Node20</title>
<path fill="none" stroke="midnightblue" d="M841.287,-525.279C815.865,-518.159 777.519,-505.26 748.409,-486 666.092,-431.538 640.3,-406.068 610.409,-312 598.909,-275.81 613.374,-258.667 640.409,-232 658.08,-214.569 683.685,-202.505 703.397,-195.12"/>
<polygon fill="midnightblue" stroke="midnightblue" points="840.435,-528.674 851.001,-527.894 842.255,-521.915 840.435,-528.674"/>
</g>
<!-- Node23&#45;&gt;Node21 -->
<g id="edge124" class="edge"><title>Node23&#45;&gt;Node21</title>
<path fill="none" stroke="midnightblue" d="M840.695,-532.462C787.753,-532.311 669.655,-526.951 581.409,-486 418.701,-410.494 272.97,-236.704 239.57,-195.079"/>
<polygon fill="midnightblue" stroke="midnightblue" points="840.982,-535.961 850.969,-532.426 840.957,-528.961 840.982,-535.961"/>
</g>
<!-- Node24 -->
<g id="node24" class="node"><title>Node24</title>
<g id="a_node24"><a xlink:href="constants_8h.html" target="_top" xlink:title="Various utilities for rmfing. ">
<polygon fill="none" stroke="black" points="1251.84,-349 1251.84,-369 1318.98,-369 1318.98,-349 1251.84,-349"/>
<text text-anchor="middle" x="1285.41" y="-355" font-family="Helvetica,sans-Serif" font-size="10.00">constants.h</text>
</a>
</g>
</g>
<!-- Node23&#45;&gt;Node24 -->
<g id="edge39" class="edge"><title>Node23&#45;&gt;Node24</title>
<path fill="none" stroke="midnightblue" d="M895.377,-522.443C920.597,-513.4 959.246,-499.272 992.409,-486 1096,-444.544 1218.04,-390.287 1265.31,-369.064"/>
<polygon fill="midnightblue" stroke="midnightblue" points="894.006,-519.216 885.766,-525.876 896.361,-525.808 894.006,-519.216"/>
</g>
<!-- Node23&#45;&gt;Node25 -->
<g id="edge119" class="edge"><title>Node23&#45;&gt;Node25</title>
<path fill="none" stroke="midnightblue" d="M841.862,-520.073C796.611,-498.038 706.161,-446.139 672.409,-370 663.797,-350.573 667.295,-324.847 670.132,-311.285"/>
<polygon fill="midnightblue" stroke="midnightblue" points="840.518,-523.31 851.053,-524.439 843.522,-516.987 840.518,-523.31"/>
</g>
<!-- Node23&#45;&gt;Node26 -->
<g id="edge81" class="edge"><title>Node23&#45;&gt;Node26</title>
<path fill="none" stroke="midnightblue" d="M895.758,-528.677C942.96,-522.591 1042.53,-508.203 1124.41,-486 1367.58,-420.058 1624.39,-238.287 1683.02,-195.231"/>
<polygon fill="midnightblue" stroke="midnightblue" points="895.196,-525.221 885.714,-529.948 896.074,-532.165 895.196,-525.221"/>
</g>
<!-- Node23&#45;&gt;Node27 -->
<g id="edge120" class="edge"><title>Node23&#45;&gt;Node27</title>
<path fill="none" stroke="midnightblue" d="M895.498,-527.435C972.585,-513.559 1197.93,-466.785 1358.41,-370 1393.89,-348.599 1404.93,-343.876 1431.41,-312 1446.94,-293.299 1458.58,-266.819 1464.02,-253.073"/>
<polygon fill="midnightblue" stroke="midnightblue" points="894.867,-523.992 885.627,-529.177 896.083,-530.886 894.867,-523.992"/>
</g>
<!-- Node23&#45;&gt;Node29 -->
<g id="edge82" class="edge"><title>Node23&#45;&gt;Node29</title>
<path fill="none" stroke="midnightblue" d="M852.197,-515.101C817.887,-479.335 738.904,-397.002 712.324,-369.293"/>
<polygon fill="midnightblue" stroke="midnightblue" points="850.089,-517.959 859.538,-522.753 855.141,-513.113 850.089,-517.959"/>
</g>
<!-- Node30 -->
<g id="node30" class="node"><title>Node30</title>
<g id="a_node30"><a xlink:href="HDF5_2types_8h.html" target="_top" xlink:title="Handle read/write of Model data from/to files. ">
<polygon fill="none" stroke="black" points="2701.29,-465 2701.29,-485 2749.53,-485 2749.53,-465 2701.29,-465"/>
<text text-anchor="middle" x="2725.41" y="-471" font-family="Helvetica,sans-Serif" font-size="10.00">types.h</text>
</a>
</g>
</g>
<!-- Node23&#45;&gt;Node30 -->
<g id="edge84" class="edge"><title>Node23&#45;&gt;Node30</title>
<path fill="none" stroke="midnightblue" d="M895.79,-530.482C935.093,-528.345 1009.78,-524.438 1073.41,-522 1737.13,-496.574 2551.38,-479.517 2701.15,-476.485"/>
<polygon fill="midnightblue" stroke="midnightblue" points="895.476,-526.994 885.682,-531.035 895.858,-533.983 895.476,-526.994"/>
</g>
<!-- Node24&#45;&gt;Node4 -->
<g id="edge70" class="edge"><title>Node24&#45;&gt;Node4</title>
<path fill="none" stroke="midnightblue" d="M1241.43,-351.271C1110.99,-331.31 726.786,-272.519 589.703,-251.543"/>
<polygon fill="midnightblue" stroke="midnightblue" points="1241.05,-354.752 1251.46,-352.805 1242.11,-347.833 1241.05,-354.752"/>
</g>
<!-- Node24&#45;&gt;Node6 -->
<g id="edge71" class="edge"><title>Node24&#45;&gt;Node6</title>
<path fill="none" stroke="midnightblue" d="M1294.35,-339.808C1317.16,-293.364 1376.96,-171.651 1393.89,-137.204"/>
<polygon fill="midnightblue" stroke="midnightblue" points="1291.11,-338.465 1289.84,-348.984 1297.39,-341.552 1291.11,-338.465"/>
</g>
<!-- Node24&#45;&gt;Node8 -->
<g id="edge74" class="edge"><title>Node24&#45;&gt;Node8</title>
<path fill="none" stroke="midnightblue" d="M1275.07,-339.732C1254.84,-302.937 1210.46,-216.691 1192.41,-138 1187.7,-117.463 1187.12,-92.6098 1187.21,-79.3717"/>
<polygon fill="midnightblue" stroke="midnightblue" points="1272.17,-341.716 1280.09,-348.751 1278.28,-338.311 1272.17,-341.716"/>
</g>
<!-- Node24&#45;&gt;Node10 -->
<g id="edge72" class="edge"><title>Node24&#45;&gt;Node10</title>
<path fill="none" stroke="midnightblue" d="M1279.39,-339.105C1276.81,-330.82 1273.85,-320.96 1271.41,-312 1257.46,-260.831 1249.67,-248.665 1243.41,-196 1242.25,-186.291 1243.2,-183.775 1243.41,-174 1243.69,-161.213 1244.4,-146.441 1244.89,-137.16"/>
<polygon fill="midnightblue" stroke="midnightblue" points="1276.12,-340.393 1282.46,-348.882 1282.8,-338.292 1276.12,-340.393"/>
</g>
<!-- Node24&#45;&gt;Node11 -->
<g id="edge73" class="edge"><title>Node24&#45;&gt;Node11</title>
<path fill="none" stroke="midnightblue" d="M1329.22,-353.296C1382.97,-346.891 1476.53,-333.674 1554.41,-312 1670.47,-279.699 1698,-261.052 1799.41,-196 1831,-175.734 1867.11,-150.349 1885.77,-137.063"/>
<polygon fill="midnightblue" stroke="midnightblue" points="1328.55,-349.851 1319.02,-354.487 1329.36,-356.804 1328.55,-349.851"/>
</g>
<!-- Node24&#45;&gt;Node12 -->
<g id="edge75" class="edge"><title>Node24&#45;&gt;Node12</title>
<path fill="none" stroke="midnightblue" d="M1319.84,-345.523C1382.56,-322.816 1519.63,-273.27 1635.41,-232 1680.69,-215.858 1709.64,-235.245 1737.41,-196 1753.16,-173.742 1719.88,-149.756 1697.84,-137.071"/>
<polygon fill="midnightblue" stroke="midnightblue" points="1318.64,-342.236 1310.43,-348.932 1321.02,-348.818 1318.64,-342.236"/>
</g>
<!-- Node24&#45;&gt;Node13 -->
<g id="edge76" class="edge"><title>Node24&#45;&gt;Node13</title>
<path fill="none" stroke="midnightblue" d="M1241.57,-349.469C1183.28,-336.491 1079.04,-307.455 1005.41,-254 959.787,-220.879 925.671,-160.006 913.889,-137.066"/>
<polygon fill="midnightblue" stroke="midnightblue" points="1241.05,-352.936 1251.56,-351.635 1242.53,-346.095 1241.05,-352.936"/>
</g>
<!-- Node24&#45;&gt;Node14 -->
<g id="edge77" class="edge"><title>Node24&#45;&gt;Node14</title>
<path fill="none" stroke="midnightblue" d="M1329.14,-347.341C1364.07,-338.578 1414.16,-325.454 1457.41,-312 1530.83,-289.159 1548.86,-282.177 1620.41,-254 1624.18,-252.514 1752.04,-199.289 1754.41,-196 1767.03,-178.51 1764.74,-151.519 1762.36,-137.377"/>
<polygon fill="midnightblue" stroke="midnightblue" points="1328.11,-343.989 1319.26,-349.805 1329.81,-350.781 1328.11,-343.989"/>
</g>
<!-- Node24&#45;&gt;Node15 -->
<g id="edge78" class="edge"><title>Node24&#45;&gt;Node15</title>
<path fill="none" stroke="midnightblue" d="M1329.3,-350.823C1374.04,-343.041 1445.24,-329.37 1505.41,-312 1576.48,-291.484 1593.77,-283.952 1661.41,-254 1712.66,-231.301 1729.82,-231.241 1773.41,-196 1795.05,-178.501 1814.23,-151.514 1823.5,-137.374"/>
<polygon fill="midnightblue" stroke="midnightblue" points="1328.6,-347.391 1319.34,-352.534 1329.79,-354.29 1328.6,-347.391"/>
</g>
<!-- Node24&#45;&gt;Node16 -->
<g id="edge79" class="edge"><title>Node24&#45;&gt;Node16</title>
<path fill="none" stroke="midnightblue" d="M1301.88,-341.808C1347.51,-296.963 1474.48,-172.158 1510.04,-137.204"/>
<polygon fill="midnightblue" stroke="midnightblue" points="1299.26,-339.478 1294.58,-348.984 1304.17,-344.47 1299.26,-339.478"/>
</g>
<!-- Node24&#45;&gt;Node17 -->
<g id="edge80" class="edge"><title>Node24&#45;&gt;Node17</title>
<path fill="none" stroke="midnightblue" d="M1329.23,-353.528C1390.86,-346.817 1506.45,-332.682 1603.41,-312 1848.17,-259.789 2136.54,-166.291 2224.57,-137.017"/>
<polygon fill="midnightblue" stroke="midnightblue" points="1328.66,-350.07 1319.09,-354.618 1329.41,-357.029 1328.66,-350.07"/>
</g>
<!-- Node24&#45;&gt;Node25 -->
<g id="edge40" class="edge"><title>Node24&#45;&gt;Node25</title>
<path fill="none" stroke="midnightblue" d="M1241.51,-353.99C1131.64,-343.953 845.095,-317.776 725.768,-306.875"/>
<polygon fill="midnightblue" stroke="midnightblue" points="1241.3,-357.485 1251.58,-354.909 1241.94,-350.514 1241.3,-357.485"/>
</g>
<!-- Node25&#45;&gt;Node4 -->
<g id="edge66" class="edge"><title>Node25&#45;&gt;Node4</title>
<path fill="none" stroke="midnightblue" d="M641.693,-286.969C617.216,-276.585 583.568,-262.31 561.901,-253.118"/>
<polygon fill="midnightblue" stroke="midnightblue" points="640.334,-290.194 650.907,-290.878 643.068,-283.75 640.334,-290.194"/>
</g>
<!-- Node25&#45;&gt;Node9 -->
<g id="edge69" class="edge"><title>Node25&#45;&gt;Node9</title>
<path fill="none" stroke="midnightblue" d="M608.858,-292.109C556.94,-284.53 488.773,-271.628 467.409,-254 391.445,-191.322 380.315,-57.6488 378.687,-21.2925"/>
<polygon fill="midnightblue" stroke="midnightblue" points="608.612,-295.61 619.006,-293.554 609.599,-288.68 608.612,-295.61"/>
</g>
<!-- Node25&#45;&gt;Node18 -->
<g id="edge68" class="edge"><title>Node25&#45;&gt;Node18</title>
<path fill="none" stroke="midnightblue" d="M609.048,-292.712C560.35,-285.703 498.732,-273.29 482.409,-254 453.509,-219.848 464.953,-160.114 470.795,-137.257"/>
<polygon fill="midnightblue" stroke="midnightblue" points="608.835,-296.216 619.222,-294.127 609.799,-289.283 608.835,-296.216"/>
</g>
<!-- Node25&#45;&gt;Node26 -->
<g id="edge41" class="edge"><title>Node25&#45;&gt;Node26</title>
<path fill="none" stroke="midnightblue" d="M735.663,-292.951C929.979,-271.297 1513.99,-206.217 1661.35,-189.795"/>
<polygon fill="midnightblue" stroke="midnightblue" points="735.163,-289.485 725.612,-294.071 735.938,-296.442 735.163,-289.485"/>
</g>
<!-- Node25&#45;&gt;Node27 -->
<g id="edge52" class="edge"><title>Node25&#45;&gt;Node27</title>
<path fill="none" stroke="midnightblue" d="M735.828,-296.217C856.645,-288.904 1128.13,-271.956 1356.41,-254 1379.94,-252.149 1406.25,-249.791 1427.35,-247.83"/>
<polygon fill="midnightblue" stroke="midnightblue" points="735.423,-292.735 725.652,-296.832 735.845,-299.723 735.423,-292.735"/>
</g>
<!-- Node28 -->
<g id="node28" class="node"><title>Node28</title>
<g id="a_node28"><a xlink:href="utility_8h.html" target="_top" xlink:title="Helper functions for manipulating RMF files. ">
<polygon fill="none" stroke="black" points="649.216,-233 649.216,-253 695.602,-253 695.602,-233 649.216,-233"/>
<text text-anchor="middle" x="672.409" y="-239" font-family="Helvetica,sans-Serif" font-size="10.00">utility.h</text>
</a>
</g>
</g>
<!-- Node25&#45;&gt;Node28 -->
<g id="edge67" class="edge"><title>Node25&#45;&gt;Node28</title>
<path fill="none" stroke="midnightblue" d="M672.409,-280.707C672.409,-271.338 672.409,-260.526 672.409,-253.075"/>
<polygon fill="midnightblue" stroke="midnightblue" points="668.909,-280.753 672.409,-290.753 675.909,-280.753 668.909,-280.753"/>
</g>
<!-- Node26&#45;&gt;Node6 -->
<g id="edge42" class="edge"><title>Node26&#45;&gt;Node6</title>
<path fill="none" stroke="midnightblue" d="M1651.12,-175.649C1586.89,-163.538 1470.2,-141.536 1421.12,-132.282"/>
<polygon fill="midnightblue" stroke="midnightblue" points="1650.86,-179.163 1661.34,-177.576 1652.16,-172.284 1650.86,-179.163"/>
</g>
<!-- Node26&#45;&gt;Node8 -->
<g id="edge45" class="edge"><title>Node26&#45;&gt;Node8</title>
<path fill="none" stroke="midnightblue" d="M1674.39,-169.041C1650.79,-153.06 1610.75,-128.364 1572.41,-116 1444.6,-74.7802 1282.18,-69.8694 1216.71,-69.7095"/>
<polygon fill="midnightblue" stroke="midnightblue" points="1672.66,-172.099 1682.88,-174.895 1676.64,-166.337 1672.66,-172.099"/>
</g>
<!-- Node26&#45;&gt;Node10 -->
<g id="edge43" class="edge"><title>Node26&#45;&gt;Node10</title>
<path fill="none" stroke="midnightblue" d="M1651.21,-178.5C1560.07,-167.158 1353.32,-141.429 1275.65,-131.764"/>
<polygon fill="midnightblue" stroke="midnightblue" points="1650.86,-181.983 1661.22,-179.745 1651.72,-175.037 1650.86,-181.983"/>
</g>
<!-- Node26&#45;&gt;Node11 -->
<g id="edge44" class="edge"><title>Node26&#45;&gt;Node11</title>
<path fill="none" stroke="midnightblue" d="M1738.19,-172.197C1778.08,-161.194 1836.41,-145.104 1870.58,-135.676"/>
<polygon fill="midnightblue" stroke="midnightblue" points="1737.19,-168.845 1728.48,-174.878 1739.05,-175.593 1737.19,-168.845"/>
</g>
<!-- Node26&#45;&gt;Node12 -->
<g id="edge46" class="edge"><title>Node26&#45;&gt;Node12</title>
<path fill="none" stroke="midnightblue" d="M1690.32,-165.012C1687.79,-155.574 1684.86,-144.607 1682.84,-137.075"/>
<polygon fill="midnightblue" stroke="midnightblue" points="1686.96,-165.999 1692.93,-174.753 1693.73,-164.188 1686.96,-165.999"/>
</g>
<!-- Node26&#45;&gt;Node13 -->
<g id="edge47" class="edge"><title>Node26&#45;&gt;Node13</title>
<path fill="none" stroke="midnightblue" d="M1651.34,-180.86C1509.94,-170.786 1069.56,-139.41 943.461,-130.426"/>
<polygon fill="midnightblue" stroke="midnightblue" points="1651.16,-184.356 1661.38,-181.576 1651.66,-177.374 1651.16,-184.356"/>
</g>
<!-- Node26&#45;&gt;Node14 -->
<g id="edge48" class="edge"><title>Node26&#45;&gt;Node14</title>
<path fill="none" stroke="midnightblue" d="M1713.98,-167.997C1725.62,-157.972 1740.19,-145.417 1749.87,-137.075"/>
<polygon fill="midnightblue" stroke="midnightblue" points="1711.43,-165.574 1706.14,-174.753 1716,-170.877 1711.43,-165.574"/>
</g>
<!-- Node26&#45;&gt;Node15 -->
<g id="edge49" class="edge"><title>Node26&#45;&gt;Node15</title>
<path fill="none" stroke="midnightblue" d="M1726.59,-170.969C1751.44,-160.585 1785.6,-146.31 1807.59,-137.118"/>
<polygon fill="midnightblue" stroke="midnightblue" points="1725.11,-167.793 1717.24,-174.878 1727.81,-174.251 1725.11,-167.793"/>
</g>
<!-- Node26&#45;&gt;Node16 -->
<g id="edge50" class="edge"><title>Node26&#45;&gt;Node16</title>
<path fill="none" stroke="midnightblue" d="M1657,-171.778C1624.08,-161.303 1577.41,-146.454 1547.77,-137.025"/>
<polygon fill="midnightblue" stroke="midnightblue" points="1656.15,-175.181 1666.74,-174.878 1658.27,-168.511 1656.15,-175.181"/>
</g>
<!-- Node26&#45;&gt;Node17 -->
<g id="edge51" class="edge"><title>Node26&#45;&gt;Node17</title>
<path fill="none" stroke="midnightblue" d="M1739.4,-179.569C1845.51,-168.882 2114.08,-141.831 2213.58,-131.811"/>
<polygon fill="midnightblue" stroke="midnightblue" points="1738.95,-176.097 1729.35,-180.581 1739.65,-183.061 1738.95,-176.097"/>
</g>
<!-- Node27&#45;&gt;Node5 -->
<g id="edge55" class="edge"><title>Node27&#45;&gt;Node5</title>
<path fill="none" stroke="midnightblue" d="M1431.22,-229.643C1400.56,-219.175 1357.33,-204.413 1329.84,-195.025"/>
<polygon fill="midnightblue" stroke="midnightblue" points="1430.1,-232.959 1440.69,-232.878 1432.36,-226.334 1430.1,-232.959"/>
</g>
<!-- Node27&#45;&gt;Node6 -->
<g id="edge54" class="edge"><title>Node27&#45;&gt;Node6</title>
<path fill="none" stroke="midnightblue" d="M1456.47,-223.931C1441.54,-199.256 1415.32,-155.942 1403.94,-137.139"/>
<polygon fill="midnightblue" stroke="midnightblue" points="1453.59,-225.928 1461.76,-232.671 1459.58,-222.304 1453.59,-225.928"/>
</g>
<!-- Node27&#45;&gt;Node8 -->
<g id="edge58" class="edge"><title>Node27&#45;&gt;Node8</title>
<path fill="none" stroke="midnightblue" d="M1417.13,-242.584C1368.65,-240.792 1295.21,-231.645 1243.41,-196 1202.79,-168.044 1191.28,-103.492 1188.33,-79.3427"/>
<polygon fill="midnightblue" stroke="midnightblue" points="1417.29,-246.09 1427.38,-242.868 1417.48,-239.093 1417.29,-246.09"/>
</g>
<!-- Node27&#45;&gt;Node9 -->
<g id="edge65" class="edge"><title>Node27&#45;&gt;Node9</title>
<path fill="none" stroke="midnightblue" d="M1417.15,-237.953C1344.74,-231.648 1207.04,-217.88 1091.41,-196 989.94,-176.8 947.676,-201.718 866.409,-138 834.642,-113.093 856.944,-80.4683 823.409,-58 760.336,-15.7414 534.075,-11.1992 430.654,-11.4126"/>
<polygon fill="midnightblue" stroke="midnightblue" points="1417.09,-241.461 1427.35,-238.83 1417.69,-234.487 1417.09,-241.461"/>
</g>
<!-- Node27&#45;&gt;Node10 -->
<g id="edge56" class="edge"><title>Node27&#45;&gt;Node10</title>
<path fill="none" stroke="midnightblue" d="M1416.79,-237.222C1362.15,-231 1280.01,-218.206 1258.41,-196 1242.99,-180.146 1243.02,-151.953 1244.26,-137.349"/>
<polygon fill="midnightblue" stroke="midnightblue" points="1416.67,-240.73 1426.99,-238.344 1417.43,-233.772 1416.67,-240.73"/>
</g>
<!-- Node27&#45;&gt;Node11 -->
<g id="edge57" class="edge"><title>Node27&#45;&gt;Node11</title>
<path fill="none" stroke="midnightblue" d="M1517.94,-241.193C1582.7,-238.732 1697.57,-229.506 1789.41,-196 1828.59,-181.705 1868.69,-152.01 1887.46,-137.041"/>
<polygon fill="midnightblue" stroke="midnightblue" points="1517.47,-237.707 1507.6,-241.545 1517.71,-244.703 1517.47,-237.707"/>
</g>
<!-- Node27&#45;&gt;Node12 -->
<g id="edge59" class="edge"><title>Node27&#45;&gt;Node12</title>
<path fill="none" stroke="midnightblue" d="M1493.47,-228.05C1537.76,-204.346 1626.5,-156.851 1663.55,-137.022"/>
<polygon fill="midnightblue" stroke="midnightblue" points="1491.64,-225.059 1484.48,-232.864 1494.95,-231.231 1491.64,-225.059"/>
</g>
<!-- Node27&#45;&gt;Node13 -->
<g id="edge60" class="edge"><title>Node27&#45;&gt;Node13</title>
<path fill="none" stroke="midnightblue" d="M1417.31,-234.96C1361.12,-226.787 1267.38,-212.325 1187.41,-196 1098.56,-177.864 995.108,-151.027 943.027,-137.112"/>
<polygon fill="midnightblue" stroke="midnightblue" points="1416.96,-238.445 1427.36,-236.411 1417.96,-231.517 1416.96,-238.445"/>
</g>
<!-- Node27&#45;&gt;Node14 -->
<g id="edge61" class="edge"><title>Node27&#45;&gt;Node14</title>
<path fill="none" stroke="midnightblue" d="M1517.69,-239.488C1586.49,-235.059 1705.12,-223.569 1737.41,-196 1755.04,-180.948 1759.19,-151.872 1760.14,-137.096"/>
<polygon fill="midnightblue" stroke="midnightblue" points="1517.28,-236.007 1507.51,-240.115 1517.71,-242.993 1517.28,-236.007"/>
</g>
<!-- Node27&#45;&gt;Node15 -->
<g id="edge62" class="edge"><title>Node27&#45;&gt;Node15</title>
<path fill="none" stroke="midnightblue" d="M1517.67,-237.774C1589.64,-231.103 1717.95,-216.724 1759.41,-196 1787.6,-181.909 1811.78,-152.397 1822.89,-137.311"/>
<polygon fill="midnightblue" stroke="midnightblue" points="1517.12,-234.31 1507.48,-238.702 1517.75,-241.281 1517.12,-234.31"/>
</g>
<!-- Node27&#45;&gt;Node16 -->
<g id="edge63" class="edge"><title>Node27&#45;&gt;Node16</title>
<path fill="none" stroke="midnightblue" d="M1475.95,-223.271C1487.25,-198.491 1506.74,-155.775 1515.24,-137.139"/>
<polygon fill="midnightblue" stroke="midnightblue" points="1472.63,-222.12 1471.66,-232.671 1479,-225.025 1472.63,-222.12"/>
</g>
<!-- Node27&#45;&gt;Node17 -->
<g id="edge64" class="edge"><title>Node27&#45;&gt;Node17</title>
<path fill="none" stroke="midnightblue" d="M1517.8,-236.046C1587.32,-227.718 1716.52,-211.827 1826.41,-196 1969.71,-175.361 2139.54,-147.012 2213.66,-134.446"/>
<polygon fill="midnightblue" stroke="midnightblue" points="1517.09,-232.606 1507.57,-237.268 1517.92,-239.557 1517.09,-232.606"/>
</g>
<!-- Node27&#45;&gt;Node26 -->
<g id="edge53" class="edge"><title>Node27&#45;&gt;Node26</title>
<path fill="none" stroke="midnightblue" d="M1514.14,-230.522C1557.98,-219.755 1622.48,-203.913 1661.55,-194.315"/>
<polygon fill="midnightblue" stroke="midnightblue" points="1513.17,-227.156 1504.29,-232.94 1514.84,-233.954 1513.17,-227.156"/>
</g>
<!-- Node29&#45;&gt;Node25 -->
<g id="edge83" class="edge"><title>Node29&#45;&gt;Node25</title>
<path fill="none" stroke="midnightblue" d="M693.4,-339.92C688.066,-330.285 681.736,-318.85 677.432,-311.075"/>
<polygon fill="midnightblue" stroke="midnightblue" points="690.384,-341.699 698.29,-348.753 696.509,-338.309 690.384,-341.699"/>
</g>
<!-- Node31 -->
<g id="node31" class="node"><title>Node31</title>
<g id="a_node31"><a xlink:href="traits_8h.html" target="_top" xlink:title="Handle read/write of Model data from/to files. ">
<polygon fill="none" stroke="black" points="850.404,-407 850.404,-427 896.414,-427 896.414,-407 850.404,-407"/>
<text text-anchor="middle" x="873.409" y="-413" font-family="Helvetica,sans-Serif" font-size="10.00">traits.h</text>
</a>
</g>
</g>
<!-- Node30&#45;&gt;Node31 -->
<g id="edge85" class="edge"><title>Node30&#45;&gt;Node31</title>
<path fill="none" stroke="midnightblue" d="M2690.94,-472.958C2455.79,-465.847 1091.3,-424.589 896.543,-418.7"/>
<polygon fill="midnightblue" stroke="midnightblue" points="2690.87,-476.457 2700.97,-473.261 2691.08,-469.46 2690.87,-476.457"/>
</g>
<!-- Node32 -->
<g id="node32" class="node"><title>Node32</title>
<g id="a_node32"><a xlink:href="ConstAttributes_8h.html" target="_top" xlink:title="Handle read/write of Model data from/to files. ">
<polygon fill="none" stroke="black" points="2796.06,-407 2796.06,-427 2888.76,-427 2888.76,-407 2796.06,-407"/>
<text text-anchor="middle" x="2842.41" y="-413" font-family="Helvetica,sans-Serif" font-size="10.00">ConstAttributes.h</text>
</a>
</g>
</g>
<!-- Node30&#45;&gt;Node32 -->
<g id="edge88" class="edge"><title>Node30&#45;&gt;Node32</title>
<path fill="none" stroke="midnightblue" d="M2753.5,-460.554C2775.12,-450.207 2804.41,-436.188 2823.36,-427.118"/>
<polygon fill="midnightblue" stroke="midnightblue" points="2751.98,-457.404 2744.47,-464.878 2755,-463.718 2751.98,-457.404"/>
</g>
<!-- Node33 -->
<g id="node33" class="node"><title>Node33</title>
<g id="a_node33"><a xlink:href="ConstDataSetD_8h.html" target="_top" xlink:title="Handle read/write of Model data from/to files. ">
<polygon fill="none" stroke="black" points="2677.5,-349 2677.5,-369 2771.32,-369 2771.32,-349 2677.5,-349"/>
<text text-anchor="middle" x="2724.41" y="-355" font-family="Helvetica,sans-Serif" font-size="10.00">ConstDataSetD.h</text>
</a>
</g>
</g>
<!-- Node30&#45;&gt;Node33 -->
<g id="edge110" class="edge"><title>Node30&#45;&gt;Node33</title>
<path fill="none" stroke="midnightblue" d="M2725.24,-454.603C2725.02,-429.731 2724.65,-387.609 2724.49,-369.139"/>
<polygon fill="midnightblue" stroke="midnightblue" points="2721.74,-454.702 2725.33,-464.671 2728.74,-454.641 2721.74,-454.702"/>
</g>
<!-- Node34 -->
<g id="node34" class="node"><title>Node34</title>
<g id="a_node34"><a xlink:href="DataSetD_8h.html" target="_top" xlink:title="Handle read/write of Model data from/to files. ">
<polygon fill="none" stroke="black" points="2767.56,-291 2767.56,-311 2835.26,-311 2835.26,-291 2767.56,-291"/>
<text text-anchor="middle" x="2801.41" y="-297" font-family="Helvetica,sans-Serif" font-size="10.00">DataSetD.h</text>
</a>
</g>
</g>
<!-- Node30&#45;&gt;Node34 -->
<g id="edge117" class="edge"><title>Node30&#45;&gt;Node34</title>
<path fill="none" stroke="midnightblue" d="M2735.94,-455.978C2747.58,-435.579 2766.4,-401.133 2779.41,-370 2787.93,-349.622 2795.24,-324.707 2798.9,-311.416"/>
<polygon fill="midnightblue" stroke="midnightblue" points="2732.82,-454.375 2730.86,-464.787 2738.89,-457.872 2732.82,-454.375"/>
</g>
<!-- Node37 -->
<g id="node37" class="node"><title>Node37</title>
<g id="a_node37"><a xlink:href="HDF5_8h.html" target="_top" xlink:title="A container which has pairs which ensure a set is connected. ">
<polygon fill="none" stroke="black" points="2957.18,-117 2957.18,-137 3007.64,-137 3007.64,-117 2957.18,-117"/>
<text text-anchor="middle" x="2982.41" y="-123" font-family="Helvetica,sans-Serif" font-size="10.00">HDF5.h</text>
</a>
</g>
</g>
<!-- Node30&#45;&gt;Node37 -->
<g id="edge118" class="edge"><title>Node30&#45;&gt;Node37</title>
<path fill="none" stroke="midnightblue" d="M2703.25,-458.012C2677.9,-434.218 2642.74,-387.995 2659.41,-348 2703.33,-242.608 2749.06,-230.273 2848.41,-174 2883.42,-154.169 2928.58,-140.045 2956.75,-133.031"/>
<polygon fill="midnightblue" stroke="midnightblue" points="2701.25,-460.913 2711.06,-464.913 2705.88,-455.668 2701.25,-460.913"/>
</g>
<!-- Node38 -->
<g id="node38" class="node"><title>Node38</title>
<g id="a_node38"><a xlink:href="Object_8h.html" target="_top" xlink:title="Handle read/write of Model data from/to files. ">
<polygon fill="none" stroke="black" points="2643.79,-59 2643.79,-79 2697.03,-79 2697.03,-59 2643.79,-59"/>
<text text-anchor="middle" x="2670.41" y="-65" font-family="Helvetica,sans-Serif" font-size="10.00">Object.h</text>
</a>
</g>
</g>
<!-- Node30&#45;&gt;Node38 -->
<g id="edge111" class="edge"><title>Node30&#45;&gt;Node38</title>
<path fill="none" stroke="midnightblue" d="M2702.65,-459.187C2664.9,-432.606 2593.41,-372.915 2593.41,-302 2593.41,-302 2593.41,-302 2593.41,-184 2593.41,-138.144 2636.72,-96.947 2658.38,-79.2145"/>
<polygon fill="midnightblue" stroke="midnightblue" points="2700.8,-462.162 2711.03,-464.93 2704.76,-456.389 2700.8,-462.162"/>
</g>
<!-- Node40 -->
<g id="node40" class="node"><title>Node40</title>
<g id="a_node40"><a xlink:href="DataSetIndexD_8h.html" target="_top" xlink:title="Handle read/write of Model data from/to files. ">
<polygon fill="none" stroke="black" points="2944.33,-407 2944.33,-427 3036.49,-427 3036.49,-407 2944.33,-407"/>
<text text-anchor="middle" x="2990.41" y="-413" font-family="Helvetica,sans-Serif" font-size="10.00">DataSetIndexD.h</text>
</a>
</g>
</g>
<!-- Node30&#45;&gt;Node40 -->
<g id="edge112" class="edge"><title>Node30&#45;&gt;Node40</title>
<path fill="none" stroke="midnightblue" d="M2759.78,-466.737C2807.82,-456.584 2895.04,-438.154 2947.35,-427.099"/>
<polygon fill="midnightblue" stroke="midnightblue" points="2758.92,-463.34 2749.86,-468.832 2760.37,-470.189 2758.92,-463.34"/>
</g>
<!-- Node31&#45;&gt;Node25 -->
<g id="edge87" class="edge"><title>Node31&#45;&gt;Node25</title>
<path fill="none" stroke="midnightblue" d="M851.817,-401.067C830.721,-386.737 797.483,-364.849 767.409,-348 742.309,-333.939 712.265,-319.823 692.781,-311.009"/>
<polygon fill="midnightblue" stroke="midnightblue" points="850.105,-404.136 860.335,-406.891 854.056,-398.357 850.105,-404.136"/>
</g>
<!-- Node31&#45;&gt;Node29 -->
<g id="edge86" class="edge"><title>Node31&#45;&gt;Node29</title>
<path fill="none" stroke="midnightblue" d="M840.265,-405.082C806.521,-393.966 755.128,-377.037 725.868,-367.398"/>
<polygon fill="midnightblue" stroke="midnightblue" points="839.534,-408.526 850.127,-408.331 841.724,-401.878 839.534,-408.526"/>
</g>
<!-- Node32&#45;&gt;Node33 -->
<g id="edge89" class="edge"><title>Node32&#45;&gt;Node33</title>
<path fill="none" stroke="midnightblue" d="M2814.08,-402.554C2792.27,-392.207 2762.73,-378.188 2743.62,-369.118"/>
<polygon fill="midnightblue" stroke="midnightblue" points="2812.65,-405.752 2823.19,-406.878 2815.65,-399.429 2812.65,-405.752"/>
</g>
<!-- Node35 -->
<g id="node35" class="node"><title>Node35</title>
<g id="a_node35"><a xlink:href="ConstGroup_8h.html" target="_top" xlink:title="Handle read/write of Model data from/to files. ">
<polygon fill="none" stroke="red" points="2867.28,-233 2867.28,-253 2945.54,-253 2945.54,-233 2867.28,-233"/>
<text text-anchor="middle" x="2906.41" y="-239" font-family="Helvetica,sans-Serif" font-size="10.00">ConstGroup.h</text>
</a>
</g>
</g>
<!-- Node32&#45;&gt;Node35 -->
<g id="edge108" class="edge"><title>Node32&#45;&gt;Node35</title>
<path fill="none" stroke="midnightblue" d="M2849.39,-397.251C2863.03,-360.572 2892.81,-280.534 2902.95,-253.293"/>
<polygon fill="midnightblue" stroke="midnightblue" points="2846.06,-396.16 2845.85,-406.753 2852.62,-398.601 2846.06,-396.16"/>
</g>
<!-- Node32&#45;&gt;Node37 -->
<g id="edge109" class="edge"><title>Node32&#45;&gt;Node37</title>
<path fill="none" stroke="midnightblue" d="M2852.48,-398.602C2873.7,-370.408 2920.92,-312.02 2945.41,-254 2962.92,-212.503 2970.19,-158.494 2976.87,-137.202"/>
<polygon fill="midnightblue" stroke="midnightblue" points="2849.44,-396.828 2846.35,-406.962 2855.08,-400.967 2849.44,-396.828"/>
</g>
<!-- Node33&#45;&gt;Node34 -->
<g id="edge90" class="edge"><title>Node33&#45;&gt;Node34</title>
<path fill="none" stroke="midnightblue" d="M2745.22,-342.866C2759.19,-332.707 2777.13,-319.66 2788.93,-311.075"/>
<polygon fill="midnightblue" stroke="midnightblue" points="2743.15,-340.04 2737.12,-348.753 2747.27,-345.702 2743.15,-340.04"/>
</g>
<!-- Node33&#45;&gt;Node37 -->
<g id="edge107" class="edge"><title>Node33&#45;&gt;Node37</title>
<path fill="none" stroke="midnightblue" d="M2731.4,-339.255C2737.29,-324.912 2746.64,-305.096 2758.41,-290 2807.05,-227.617 2827.83,-218.238 2893.41,-174 2915.47,-159.118 2942.95,-145.594 2961.49,-137.12"/>
<polygon fill="midnightblue" stroke="midnightblue" points="2727.98,-338.4 2727.59,-348.988 2734.49,-340.954 2727.98,-338.4"/>
</g>
<!-- Node34&#45;&gt;Node35 -->
<g id="edge91" class="edge"><title>Node34&#45;&gt;Node35</title>
<path fill="none" stroke="midnightblue" d="M2827.65,-286.003C2846.98,-275.698 2872.69,-261.984 2889.39,-253.075"/>
<polygon fill="midnightblue" stroke="midnightblue" points="2825.92,-282.959 2818.75,-290.753 2829.22,-289.135 2825.92,-282.959"/>
</g>
<!-- Node34&#45;&gt;Node37 -->
<g id="edge106" class="edge"><title>Node34&#45;&gt;Node37</title>
<path fill="none" stroke="midnightblue" d="M2814.44,-282.817C2825.52,-268.622 2842.17,-248.239 2858.41,-232 2896.55,-193.849 2947.23,-154.424 2970.19,-137.097"/>
<polygon fill="midnightblue" stroke="midnightblue" points="2811.65,-280.707 2808.31,-290.764 2817.19,-284.981 2811.65,-280.707"/>
</g>
<!-- Node36 -->
<g id="node36" class="node"><title>Node36</title>
<g id="a_node36"><a xlink:href="Group_8h.html" target="_top" xlink:title="Handle read/write of Model data from/to files. ">
<polygon fill="none" stroke="red" points="3095.34,-175 3095.34,-195 3147.48,-195 3147.48,-175 3095.34,-175"/>
<text text-anchor="middle" x="3121.41" y="-181" font-family="Helvetica,sans-Serif" font-size="10.00">Group.h</text>
</a>
</g>
</g>
<!-- Node35&#45;&gt;Node36 -->
<g id="edge92" class="edge"><title>Node35&#45;&gt;Node36</title>
<path fill="none" stroke="midnightblue" d="M2951.2,-230.333C2994.76,-218.989 3059.43,-202.144 3095.21,-192.824"/>
<polygon fill="midnightblue" stroke="midnightblue" points="2950.23,-226.97 2941.43,-232.878 2951.99,-233.744 2950.23,-226.97"/>
</g>
<!-- Node35&#45;&gt;Node37 -->
<g id="edge105" class="edge"><title>Node35&#45;&gt;Node37</title>
<path fill="none" stroke="midnightblue" d="M2918.24,-224.257C2934.65,-199.64 2963.73,-156.025 2976.32,-137.139"/>
<polygon fill="midnightblue" stroke="midnightblue" points="2915.26,-222.409 2912.63,-232.671 2921.09,-226.292 2915.26,-222.409"/>
</g>
<!-- Node36&#45;&gt;Node37 -->
<g id="edge93" class="edge"><title>Node36&#45;&gt;Node37</title>
<path fill="none" stroke="midnightblue" d="M3089.41,-171.107C3063.6,-160.711 3027.96,-146.351 3005.04,-137.118"/>
<polygon fill="midnightblue" stroke="midnightblue" points="3088.18,-174.387 3098.77,-174.878 3090.8,-167.895 3088.18,-174.387"/>
</g>
<!-- Node37&#45;&gt;Node30 -->
<g id="edge94" class="edge"><title>Node37&#45;&gt;Node30</title>
<path fill="none" stroke="midnightblue" d="M2947.45,-139.944C2923.72,-147.8 2892.29,-159.341 2866.41,-174 2767.06,-230.273 2721.33,-242.608 2677.41,-348 2658.94,-392.324 2704.12,-444.296 2720.48,-464.913"/>
<polygon fill="midnightblue" stroke="midnightblue" points="2948.68,-143.225 2957.1,-136.805 2946.51,-136.567 2948.68,-143.225"/>
</g>
<!-- Node37&#45;&gt;Node32 -->
<g id="edge95" class="edge"><title>Node37&#45;&gt;Node32</title>
<path fill="none" stroke="midnightblue" d="M2986.47,-147.311C2986.08,-172.619 2978.6,-218.014 2963.41,-254 2936.16,-318.579 2880.73,-383.613 2855.11,-406.962"/>
<polygon fill="midnightblue" stroke="midnightblue" points="2989.97,-147.088 2986.16,-137.202 2982.97,-147.307 2989.97,-147.088"/>
</g>
<!-- Node37&#45;&gt;Node38 -->
<g id="edge96" class="edge"><title>Node37&#45;&gt;Node38</title>
<path fill="none" stroke="midnightblue" d="M2947.18,-120.438C2884.07,-109.71 2753.52,-86.2785 2697.13,-75.5562"/>
<polygon fill="midnightblue" stroke="midnightblue" points="2946.62,-123.894 2957.07,-122.107 2947.79,-116.991 2946.62,-123.894"/>
</g>
<!-- Node39 -->
<g id="node39" class="node"><title>Node39</title>
<g id="a_node39"><a xlink:href="MutableAttributes_8h.html" target="_top" xlink:title="Handle read/write of Model data from/to files. ">
<polygon fill="none" stroke="black" points="2979.33,-59 2979.33,-79 3081.49,-79 3081.49,-59 2979.33,-59"/>
<text text-anchor="middle" x="3030.41" y="-65" font-family="Helvetica,sans-Serif" font-size="10.00">MutableAttributes.h</text>
</a>
</g>
</g>
<!-- Node37&#45;&gt;Node39 -->
<g id="edge101" class="edge"><title>Node37&#45;&gt;Node39</title>
<path fill="none" stroke="midnightblue" d="M2991.08,-108.52C2998.59,-98.763 3009.05,-87.0122 3017.5,-79.0752"/>
<polygon fill="midnightblue" stroke="midnightblue" points="2988.16,-106.589 2985.17,-116.753 2993.85,-110.674 2988.16,-106.589"/>
</g>
<!-- Node38&#45;&gt;Node33 -->
<g id="edge97" class="edge"><title>Node38&#45;&gt;Node33</title>
<path fill="none" stroke="midnightblue" d="M2672.23,-89.3907C2673.62,-103.03 2675.75,-121.685 2678.41,-138 2691.85,-220.416 2714.96,-318.777 2722.19,-348.833"/>
<polygon fill="midnightblue" stroke="midnightblue" points="2675.69,-88.8867 2671.24,-79.2754 2668.73,-89.5689 2675.69,-88.8867"/>
</g>
<!-- Node38&#45;&gt;Node34 -->
<g id="edge99" class="edge"><title>Node38&#45;&gt;Node34</title>
<path fill="none" stroke="midnightblue" d="M2674.51,-88.8717C2680.55,-114.346 2693.36,-160.616 2713.41,-196 2735.68,-235.303 2773.7,-273.851 2791.58,-290.892"/>
<polygon fill="midnightblue" stroke="midnightblue" points="2677.9,-88.0045 2672.27,-79.0316 2671.08,-89.5592 2677.9,-88.0045"/>
</g>
<!-- Node38&#45;&gt;Node35 -->
<g id="edge98" class="edge"><title>Node38&#45;&gt;Node35</title>
<path fill="none" stroke="midnightblue" d="M2691.3,-85.2225C2739.21,-120.141 2855.83,-205.137 2894.05,-232.995"/>
<polygon fill="midnightblue" stroke="midnightblue" points="2693.07,-82.1851 2682.93,-79.1237 2688.95,-87.8421 2693.07,-82.1851"/>
</g>
<!-- Node38&#45;&gt;Node37 -->
<g id="edge100" class="edge"><title>Node38&#45;&gt;Node37</title>
<path fill="none" stroke="midnightblue" d="M2707.16,-75.822C2771.31,-86.7446 2901.69,-110.155 2956.94,-120.681"/>
<polygon fill="midnightblue" stroke="midnightblue" points="2707.54,-72.335 2697.09,-74.1183 2706.37,-79.237 2707.54,-72.335"/>
</g>
<!-- Node39&#45;&gt;Node34 -->
<g id="edge102" class="edge"><title>Node39&#45;&gt;Node34</title>
<path fill="none" stroke="midnightblue" d="M3001.5,-83.6669C2985.21,-91.9798 2964.89,-103.404 2948.41,-116 2890.98,-159.899 2876.07,-172.929 2834.41,-232 2820.8,-251.302 2810.01,-277.079 2804.81,-290.683"/>
<polygon fill="midnightblue" stroke="midnightblue" points="3003.18,-86.741 3010.56,-79.1467 3000.05,-80.4765 3003.18,-86.741"/>
</g>
<!-- Node39&#45;&gt;Node36 -->
<g id="edge103" class="edge"><title>Node39&#45;&gt;Node36</title>
<path fill="none" stroke="midnightblue" d="M3044.12,-87.1745C3063.62,-111.602 3098.69,-155.537 3113.96,-174.671"/>
<polygon fill="midnightblue" stroke="midnightblue" points="3046.68,-84.7713 3037.7,-79.1394 3041.21,-89.1383 3046.68,-84.7713"/>
</g>
<!-- Node39&#45;&gt;Node37 -->
<g id="edge104" class="edge"><title>Node39&#45;&gt;Node37</title>
<path fill="none" stroke="midnightblue" d="M3021.89,-87.2698C3014.43,-96.9975 3003.98,-108.761 2995.5,-116.753"/>
<polygon fill="midnightblue" stroke="midnightblue" points="3024.79,-89.2438 3027.76,-79.0752 3019.09,-85.1691 3024.79,-89.2438"/>
</g>
<!-- Node40&#45;&gt;Node33 -->
<g id="edge113" class="edge"><title>Node40&#45;&gt;Node33</title>
<path fill="none" stroke="midnightblue" d="M2937.42,-404.845C2887.52,-394.34 2813.71,-378.801 2767.38,-369.047"/>
<polygon fill="midnightblue" stroke="midnightblue" points="2936.87,-408.305 2947.38,-406.94 2938.31,-401.455 2936.87,-408.305"/>
</g>
<!-- Node40&#45;&gt;Node37 -->
<g id="edge116" class="edge"><title>Node40&#45;&gt;Node37</title>
<path fill="none" stroke="midnightblue" d="M2993,-397.043C2999.52,-347.719 3015.39,-216.284 3005.41,-174 3002.17,-160.27 2994.17,-145.966 2988.51,-137.026"/>
<polygon fill="midnightblue" stroke="midnightblue" points="2989.53,-396.617 2991.66,-406.994 2996.47,-397.549 2989.53,-396.617"/>
</g>
<!-- Node41 -->
<g id="node41" class="node"><title>Node41</title>
<g id="a_node41"><a xlink:href="DataSetAccessPropertiesD_8h.html" target="_top" xlink:title="Handle read/write of Model data from/to files. ">
<polygon fill="none" stroke="red" points="3018.66,-291 3018.66,-311 3164.16,-311 3164.16,-291 3018.66,-291"/>
<text text-anchor="middle" x="3091.41" y="-297" font-family="Helvetica,sans-Serif" font-size="10.00">DataSetAccessPropertiesD.h</text>
</a>
</g>
</g>
<!-- Node40&#45;&gt;Node41 -->
<g id="edge114" class="edge"><title>Node40&#45;&gt;Node41</title>
<path fill="none" stroke="midnightblue" d="M3005.56,-398.904C3027.26,-374.41 3066.43,-330.191 3083.31,-311.139"/>
<polygon fill="midnightblue" stroke="midnightblue" points="3002.69,-396.865 2998.67,-406.671 3007.93,-401.507 3002.69,-396.865"/>
</g>
<!-- Node41&#45;&gt;Node37 -->
<g id="edge115" class="edge"><title>Node41&#45;&gt;Node37</title>
<path fill="none" stroke="midnightblue" d="M3087.61,-280.798C3081.69,-254.588 3068.27,-207.094 3043.41,-174 3031.54,-158.199 3012.82,-145.209 2999.25,-137.11"/>
<polygon fill="midnightblue" stroke="midnightblue" points="3084.26,-281.864 3089.76,-290.92 3091.11,-280.411 3084.26,-281.864"/>
</g>
<!-- Node42&#45;&gt;Node6 -->
<g id="edge135" class="edge"><title>Node42&#45;&gt;Node6</title>
<path fill="none" stroke="midnightblue" d="M1764.13,-571.54C1754.95,-549.334 1741.41,-510.704 1741.41,-476 1741.41,-476 1741.41,-476 1741.41,-358 1741.41,-280.298 1495.52,-169.294 1420.13,-137.082"/>
<polygon fill="midnightblue" stroke="midnightblue" points="1760.94,-572.965 1768.1,-580.774 1767.37,-570.204 1760.94,-572.965"/>
</g>
<!-- Node42&#45;&gt;Node8 -->
<g id="edge138" class="edge"><title>Node42&#45;&gt;Node8</title>
<path fill="none" stroke="midnightblue" d="M1745.83,-575.915C1729.01,-566.925 1706.84,-554.946 1687.41,-544 1598.55,-493.944 1575.88,-482.088 1489.41,-428 1474.46,-418.652 1472.84,-412.39 1456.41,-406 1359.16,-368.172 1302.32,-439.412 1224.41,-370 1136.64,-291.803 1174.14,-120.763 1184.88,-79.2251"/>
<polygon fill="midnightblue" stroke="midnightblue" points="1744.59,-579.218 1755.06,-580.832 1747.88,-573.04 1744.59,-579.218"/>
</g>
<!-- Node42&#45;&gt;Node9 -->
<g id="edge145" class="edge"><title>Node42&#45;&gt;Node9</title>
<path fill="none" stroke="midnightblue" d="M1736.05,-589.66C1552.22,-587.55 724.52,-573.277 485.409,-486 304.178,-419.85 208.019,-383.457 162.409,-196 146.512,-130.667 166.967,-92.95 224.409,-58 255.517,-39.0725 294.928,-27.4886 326.093,-20.6797"/>
<polygon fill="midnightblue" stroke="midnightblue" points="1736.22,-593.162 1746.26,-589.772 1736.3,-586.162 1736.22,-593.162"/>
</g>
<!-- Node42&#45;&gt;Node10 -->
<g id="edge136" class="edge"><title>Node42&#45;&gt;Node10</title>
<path fill="none" stroke="midnightblue" d="M1754.45,-574.232C1711.85,-537.792 1599.93,-447.68 1489.41,-406 1437.51,-386.428 1279.05,-411.641 1242.41,-370 1181.62,-300.921 1227.03,-172.93 1241.43,-137.375"/>
<polygon fill="midnightblue" stroke="midnightblue" points="1752.17,-576.887 1762.03,-580.774 1756.75,-571.589 1752.17,-576.887"/>
</g>
<!-- Node42&#45;&gt;Node11 -->
<g id="edge137" class="edge"><title>Node42&#45;&gt;Node11</title>
<path fill="none" stroke="midnightblue" d="M1808.35,-578.362C1844.23,-566.59 1895.18,-549.383 1903.41,-544 1956.67,-509.149 1964.2,-487.271 1987.41,-428 2019.54,-345.942 2053.85,-312.239 2017.41,-232 1996.53,-186.033 1944.19,-152.417 1916.4,-137.144"/>
<polygon fill="midnightblue" stroke="midnightblue" points="1807.1,-575.09 1798.68,-581.524 1809.27,-581.743 1807.1,-575.09"/>
</g>
<!-- Node42&#45;&gt;Node12 -->
<g id="edge139" class="edge"><title>Node42&#45;&gt;Node12</title>
<path fill="none" stroke="midnightblue" d="M1791.73,-574.192C1800.65,-566.002 1810.72,-555.349 1817.41,-544 1875.9,-444.719 1907.32,-398.815 1869.41,-290 1841.4,-209.603 1744.58,-157.009 1701.43,-137.037"/>
<polygon fill="midnightblue" stroke="midnightblue" points="1789.2,-571.75 1783.99,-580.971 1793.82,-577.015 1789.2,-571.75"/>
</g>
<!-- Node42&#45;&gt;Node13 -->
<g id="edge140" class="edge"><title>Node42&#45;&gt;Node13</title>
<path fill="none" stroke="midnightblue" d="M1735.66,-588.375C1676.58,-584.924 1557.39,-574.489 1461.41,-544 1393.68,-522.488 928.447,-314.643 891.409,-254 868.028,-215.718 893.046,-158.92 904.407,-137.043"/>
<polygon fill="midnightblue" stroke="midnightblue" points="1735.79,-591.887 1745.97,-588.941 1736.17,-584.898 1735.79,-591.887"/>
</g>
<!-- Node42&#45;&gt;Node14 -->
<g id="edge141" class="edge"><title>Node42&#45;&gt;Node14</title>
<path fill="none" stroke="midnightblue" d="M1805.82,-576.766C1822.21,-569.043 1841.4,-558.036 1855.41,-544 1876.21,-523.162 1976.07,-340.51 1983.41,-312 1985.85,-302.531 1984.32,-299.735 1983.41,-290 1978.5,-237.756 1997.98,-211.633 1961.41,-174 1909.4,-120.482 1869.89,-155.74 1797.41,-138 1793.79,-137.114 1789.98,-136.137 1786.24,-135.152"/>
<polygon fill="midnightblue" stroke="midnightblue" points="1804.23,-573.641 1796.54,-580.932 1807.1,-580.026 1804.23,-573.641"/>
</g>
<!-- Node42&#45;&gt;Node15 -->
<g id="edge142" class="edge"><title>Node42&#45;&gt;Node15</title>
<path fill="none" stroke="midnightblue" d="M1807.24,-577.39C1833.36,-567.451 1866.43,-553.697 1877.41,-544 1964.57,-467.009 1977.44,-426.387 1998.41,-312 2004.82,-277.027 2015.75,-263.038 1998.41,-232 1981.77,-202.227 1889.77,-156.296 1848.94,-137.011"/>
<polygon fill="midnightblue" stroke="midnightblue" points="1805.76,-574.207 1797.63,-580.996 1808.22,-580.761 1805.76,-574.207"/>
</g>
<!-- Node42&#45;&gt;Node16 -->
<g id="edge143" class="edge"><title>Node42&#45;&gt;Node16</title>
<path fill="none" stroke="midnightblue" d="M1776.38,-571.027C1785.73,-521.473 1804.83,-385.399 1755.41,-290 1717.28,-216.413 1679.1,-218.858 1609.41,-174 1586.69,-159.373 1558.73,-145.698 1540.06,-137.122"/>
<polygon fill="midnightblue" stroke="midnightblue" points="1772.92,-570.482 1774.41,-580.972 1779.79,-571.844 1772.92,-570.482"/>
</g>
<!-- Node42&#45;&gt;Node17 -->
<g id="edge144" class="edge"><title>Node42&#45;&gt;Node17</title>
<path fill="none" stroke="midnightblue" d="M1808.49,-578.548C1862.3,-562.987 1879.63,-563.508 1932.41,-544 2023.24,-510.429 2327.41,-456.834 2327.41,-360 2327.41,-360 2327.41,-360 2327.41,-300 2327.41,-232.422 2277.72,-161.673 2258.7,-137.065"/>
<polygon fill="midnightblue" stroke="midnightblue" points="1807.37,-575.23 1798.77,-581.418 1809.35,-581.943 1807.37,-575.23"/>
</g>
<!-- Node42&#45;&gt;Node43 -->
<g id="edge127" class="edge"><title>Node42&#45;&gt;Node43</title>
<path fill="none" stroke="midnightblue" d="M1808.86,-583.458C1864.59,-573.455 1971.13,-554.332 2034.16,-543.019"/>
<polygon fill="midnightblue" stroke="midnightblue" points="1807.97,-580.062 1798.74,-585.274 1809.2,-586.952 1807.97,-580.062"/>
</g>
<!-- Node44 -->
<g id="node44" class="node"><title>Node44</title>
<g id="a_node44"><a xlink:href="default__types_8h.html" target="_top" xlink:title="Default implementation for types.h. ">
<polygon fill="none" stroke="black" points="1082.5,-523 1082.5,-543 1166.32,-543 1166.32,-523 1082.5,-523"/>
<text text-anchor="middle" x="1124.41" y="-529" font-family="Helvetica,sans-Serif" font-size="10.00">default_types.h</text>
</a>
</g>
</g>
<!-- Node42&#45;&gt;Node44 -->
<g id="edge128" class="edge"><title>Node42&#45;&gt;Node44</title>
<path fill="none" stroke="midnightblue" d="M1736.11,-586.863C1624.32,-577.203 1285.67,-547.936 1166.47,-537.635"/>
<polygon fill="midnightblue" stroke="midnightblue" points="1735.94,-590.361 1746.2,-587.735 1736.54,-583.387 1735.94,-590.361"/>
</g>
<!-- Node45 -->
<g id="node45" class="node"><title>Node45</title>
<g id="a_node45"><a xlink:href="types_8h.html" target="_top" xlink:title="types.h">
<polygon fill="none" stroke="red" points="883.288,-465 883.288,-485 931.529,-485 931.529,-465 883.288,-465"/>
<text text-anchor="middle" x="907.409" y="-471" font-family="Helvetica,sans-Serif" font-size="10.00">types.h</text>
</a>
</g>
</g>
<!-- Node44&#45;&gt;Node45 -->
<g id="edge129" class="edge"><title>Node44&#45;&gt;Node45</title>
<path fill="none" stroke="midnightblue" d="M1079.28,-520.355C1034.41,-508.774 967.259,-491.445 931.633,-482.251"/>
<polygon fill="midnightblue" stroke="midnightblue" points="1078.5,-523.768 1089.06,-522.878 1080.25,-516.99 1078.5,-523.768"/>
</g>
<!-- Node45&#45;&gt;Node4 -->
<g id="edge133" class="edge"><title>Node45&#45;&gt;Node4</title>
<path fill="none" stroke="midnightblue" d="M873.284,-462.978C825.87,-446.782 738.452,-413.682 672.409,-370 640.937,-349.184 637.72,-338.036 610.409,-312 588.58,-291.191 563.265,-266.444 549.865,-253.296"/>
<polygon fill="midnightblue" stroke="midnightblue" points="872.457,-466.392 883.051,-466.267 874.691,-459.758 872.457,-466.392"/>
</g>
<!-- Node45&#45;&gt;Node5 -->
<g id="edge134" class="edge"><title>Node45&#45;&gt;Node5</title>
<path fill="none" stroke="midnightblue" d="M922.925,-457.497C963.799,-414.852 1079.29,-299.608 1195.41,-232 1222,-216.516 1254.8,-203.294 1277.23,-195.053"/>
<polygon fill="midnightblue" stroke="midnightblue" points="920.329,-455.148 915.972,-464.806 925.401,-459.973 920.329,-455.148"/>
</g>
<!-- Node45&#45;&gt;Node25 -->
<g id="edge131" class="edge"><title>Node45&#45;&gt;Node25</title>
<path fill="none" stroke="midnightblue" d="M885.88,-459.263C872.919,-450.325 856.129,-438.629 841.409,-428 793.267,-393.241 782.03,-383.468 734.409,-348 717.21,-335.191 697.291,-320.424 684.77,-311.151"/>
<polygon fill="midnightblue" stroke="midnightblue" points="883.946,-462.181 894.169,-464.964 887.913,-456.414 883.946,-462.181"/>
</g>
<!-- Node45&#45;&gt;Node27 -->
<g id="edge132" class="edge"><title>Node45&#45;&gt;Node27</title>
<path fill="none" stroke="midnightblue" d="M941.802,-471.166C1016.17,-463.86 1195.85,-439.795 1327.41,-370 1386.63,-338.583 1440.78,-276.685 1460,-253.269"/>
<polygon fill="midnightblue" stroke="midnightblue" points="941.239,-467.703 931.611,-472.126 941.895,-474.672 941.239,-467.703"/>
</g>
<!-- Node45&#45;&gt;Node31 -->
<g id="edge130" class="edge"><title>Node45&#45;&gt;Node31</title>
<path fill="none" stroke="midnightblue" d="M896.431,-455.92C890.582,-446.285 883.639,-434.85 878.919,-427.075"/>
<polygon fill="midnightblue" stroke="midnightblue" points="893.613,-458.021 901.794,-464.753 899.596,-454.388 893.613,-458.021"/>
</g>
<!-- Node46&#45;&gt;Node17 -->
<g id="edge155" class="edge"><title>Node46&#45;&gt;Node17</title>
<path fill="none" stroke="midnightblue" d="M1457.99,-407.997C1494.69,-399.501 1553.44,-385.22 1603.41,-370 1823.68,-302.901 1876.91,-279.736 2091.41,-196 2142.02,-176.243 2200.56,-150.651 2230.86,-137.197"/>
<polygon fill="midnightblue" stroke="midnightblue" points="1456.76,-404.689 1447.8,-410.339 1458.33,-411.511 1456.76,-404.689"/>
</g>
<!-- Node47 -->
<g id="node47" class="node"><title>Node47</title>
<g id="a_node47"><a xlink:href="enums_8h.html" target="_top" xlink:title="Handle read/write of Model data from/to files. ">
<polygon fill="none" stroke="black" points="935.231,-349 935.231,-369 989.586,-369 989.586,-349 935.231,-349"/>
<text text-anchor="middle" x="962.409" y="-355" font-family="Helvetica,sans-Serif" font-size="10.00">enums.h</text>
</a>
</g>
</g>
<!-- Node46&#45;&gt;Node47 -->
<g id="edge149" class="edge"><title>Node46&#45;&gt;Node47</title>
<path fill="none" stroke="midnightblue" d="M1386.94,-411.682C1298.35,-400.897 1068.88,-372.961 989.726,-363.326"/>
<polygon fill="midnightblue" stroke="midnightblue" points="1386.67,-415.175 1397.02,-412.909 1387.52,-408.227 1386.67,-415.175"/>
</g>
<!-- Node47&#45;&gt;Node4 -->
<g id="edge152" class="edge"><title>Node47&#45;&gt;Node4</title>
<path fill="none" stroke="midnightblue" d="M925.576,-346.309C880.652,-332.214 802.298,-308.157 734.409,-290 681.909,-275.959 620.837,-261.839 581.454,-253.018"/>
<polygon fill="midnightblue" stroke="midnightblue" points="924.587,-349.667 935.177,-349.33 926.688,-342.99 924.587,-349.667"/>
</g>
<!-- Node47&#45;&gt;Node5 -->
<g id="edge153" class="edge"><title>Node47&#45;&gt;Node5</title>
<path fill="none" stroke="midnightblue" d="M980.727,-342.205C997.013,-328.262 1021.56,-307.492 1043.41,-290 1076.58,-263.444 1081.12,-250.422 1119.41,-232 1167.63,-208.802 1228.77,-196.52 1267,-190.643"/>
<polygon fill="midnightblue" stroke="midnightblue" points="978.329,-339.65 973.021,-348.82 982.888,-344.962 978.329,-339.65"/>
</g>
<!-- Node47&#45;&gt;Node9 -->
<g id="edge154" class="edge"><title>Node47&#45;&gt;Node9</title>
<path fill="none" stroke="midnightblue" d="M925.371,-345.905C898.03,-336.343 863.839,-322.845 853.409,-312 807.975,-264.759 847.63,-220.471 801.409,-174 697.428,-69.4579 518.848,-31.1501 430.725,-18.1344"/>
<polygon fill="midnightblue" stroke="midnightblue" points="924.482,-349.3 935.076,-349.238 926.755,-342.68 924.482,-349.3"/>
</g>
<!-- Node47&#45;&gt;Node25 -->
<g id="edge150" class="edge"><title>Node47&#45;&gt;Node25</title>
<path fill="none" stroke="midnightblue" d="M925.204,-350.816C872.571,-340.652 776.408,-322.083 719.062,-311.009"/>
<polygon fill="midnightblue" stroke="midnightblue" points="924.644,-354.272 935.126,-352.732 925.971,-347.399 924.644,-354.272"/>
</g>
<!-- Node47&#45;&gt;Node27 -->
<g id="edge151" class="edge"><title>Node47&#45;&gt;Node27</title>
<path fill="none" stroke="midnightblue" d="M1000.26,-357.802C1068.99,-356.476 1218.22,-349.129 1337.41,-312 1382.88,-297.834 1431.29,-268.08 1454.08,-253.07"/>
<polygon fill="midnightblue" stroke="midnightblue" points="999.881,-354.307 989.938,-357.967 999.993,-361.307 999.881,-354.307"/>
</g>
<!-- Node48&#45;&gt;Node30 -->
<g id="edge163" class="edge"><title>Node48&#45;&gt;Node30</title>
<path fill="none" stroke="midnightblue" d="M2819.47,-575.608C2805.84,-567.354 2789.33,-556.219 2776.41,-544 2756.9,-525.543 2739.35,-498.96 2730.84,-485.134"/>
<polygon fill="midnightblue" stroke="midnightblue" points="2817.97,-578.788 2828.37,-580.839 2821.52,-572.754 2817.97,-578.788"/>
</g>
<!-- Node48&#45;&gt;Node32 -->
<g id="edge164" class="edge"><title>Node48&#45;&gt;Node32</title>
<path fill="none" stroke="midnightblue" d="M2846.94,-570.766C2847.53,-562.529 2848.12,-552.799 2848.41,-544 2849.83,-500.224 2845.37,-447.944 2843.35,-427.166"/>
<polygon fill="midnightblue" stroke="midnightblue" points="2843.45,-570.609 2846.18,-580.845 2850.43,-571.137 2843.45,-570.609"/>
</g>
<!-- Node48&#45;&gt;Node33 -->
<g id="edge167" class="edge"><title>Node48&#45;&gt;Node33</title>
<path fill="none" stroke="midnightblue" d="M2806.41,-577.291C2768.27,-562.379 2713,-533.468 2692.41,-486 2674.35,-444.384 2704.38,-390.443 2718.11,-369.186"/>
<polygon fill="midnightblue" stroke="midnightblue" points="2805.6,-580.723 2816.19,-580.956 2808.06,-574.169 2805.6,-580.723"/>
</g>
<!-- Node48&#45;&gt;Node34 -->
<g id="edge169" class="edge"><title>Node48&#45;&gt;Node34</title>
<path fill="none" stroke="midnightblue" d="M2857.87,-572.402C2879.74,-539.213 2920.62,-465.373 2897.41,-406 2880.59,-362.976 2836.7,-327.056 2814.57,-311.009"/>
<polygon fill="midnightblue" stroke="midnightblue" points="2854.76,-570.753 2852.03,-580.99 2860.55,-574.69 2854.76,-570.753"/>
</g>
<!-- Node48&#45;&gt;Node37 -->
<g id="edge170" class="edge"><title>Node48&#45;&gt;Node37</title>
<path fill="none" stroke="midnightblue" d="M2916.25,-585.504C3036.68,-575.899 3268.41,-548.056 3268.41,-476 3268.41,-476 3268.41,-476 3268.41,-242 3268.41,-191.866 3223.79,-195.299 3178.41,-174 3120.82,-146.975 3046.05,-135.126 3007.64,-130.534"/>
<polygon fill="midnightblue" stroke="midnightblue" points="2915.71,-582.035 2906.01,-586.298 2916.25,-589.014 2915.71,-582.035"/>
</g>
<!-- Node48&#45;&gt;Node38 -->
<g id="edge165" class="edge"><title>Node48&#45;&gt;Node38</title>
<path fill="none" stroke="midnightblue" d="M2774.89,-580.013C2678.49,-564.347 2517.41,-530.077 2517.41,-476 2517.41,-476 2517.41,-476 2517.41,-184 2517.41,-121.725 2599.92,-89.4353 2643.76,-76.6755"/>
<polygon fill="midnightblue" stroke="midnightblue" points="2774.44,-583.486 2784.87,-581.607 2775.54,-576.574 2774.44,-583.486"/>
</g>
<!-- Node48&#45;&gt;Node39 -->
<g id="edge168" class="edge"><title>Node48&#45;&gt;Node39</title>
<path fill="none" stroke="midnightblue" d="M2916.36,-587.089C3045.65,-579.835 3306.41,-555.369 3306.41,-476 3306.41,-476 3306.41,-476 3306.41,-184 3306.41,-87.8309 3161.49,-71.1751 3081.68,-69.295"/>
<polygon fill="midnightblue" stroke="midnightblue" points="2915.95,-583.606 2906.15,-587.641 2916.32,-590.595 2915.95,-583.606"/>
</g>
<!-- Node48&#45;&gt;Node40 -->
<g id="edge166" class="edge"><title>Node48&#45;&gt;Node40</title>
<path fill="none" stroke="midnightblue" d="M2881.05,-576.801C2897.69,-569.228 2916.79,-558.341 2930.41,-544 2964.44,-508.16 2982.34,-449.429 2988.2,-427.048"/>
<polygon fill="midnightblue" stroke="midnightblue" points="2879.39,-573.704 2871.59,-580.878 2882.16,-580.132 2879.39,-573.704"/>
</g>
<!-- Node49 -->
<g id="node49" class="node"><title>Node49</title>
<g id="a_node49"><a xlink:href="handle_8h.html" target="_top" xlink:title="Handle read/write of Model data from/to files. ">
<polygon fill="none" stroke="black" points="2785.22,-523 2785.22,-543 2839.59,-543 2839.59,-523 2785.22,-523"/>
<text text-anchor="middle" x="2812.41" y="-529" font-family="Helvetica,sans-Serif" font-size="10.00">handle.h</text>
</a>
</g>
</g>
<!-- Node48&#45;&gt;Node49 -->
<g id="edge157" class="edge"><title>Node48&#45;&gt;Node49</title>
<path fill="none" stroke="midnightblue" d="M2834.75,-571.92C2829.08,-562.285 2822.34,-550.85 2817.76,-543.075"/>
<polygon fill="midnightblue" stroke="midnightblue" points="2831.87,-573.914 2839.96,-580.753 2837.9,-570.36 2831.87,-573.914"/>
</g>
<!-- Node49&#45;&gt;Node30 -->
<g id="edge158" class="edge"><title>Node49&#45;&gt;Node30</title>
<path fill="none" stroke="midnightblue" d="M2789.34,-517.153C2773.5,-506.953 2752.97,-493.741 2739.51,-485.075"/>
<polygon fill="midnightblue" stroke="midnightblue" points="2787.74,-520.283 2798.04,-522.753 2791.53,-514.397 2787.74,-520.283"/>
</g>
<!-- Node49&#45;&gt;Node32 -->
<g id="edge159" class="edge"><title>Node49&#45;&gt;Node32</title>
<path fill="none" stroke="midnightblue" d="M2815.72,-512.512C2818.21,-498.828 2821.96,-480.159 2826.41,-464 2830,-450.957 2835.35,-436.249 2838.86,-427.052"/>
<polygon fill="midnightblue" stroke="midnightblue" points="2812.21,-512.214 2813.93,-522.669 2819.11,-513.427 2812.21,-512.214"/>
</g>
<!-- Node49&#45;&gt;Node37 -->
<g id="edge162" class="edge"><title>Node49&#45;&gt;Node37</title>
<path fill="none" stroke="midnightblue" d="M2849.76,-523.849C2929.46,-504.082 3113.72,-445.091 3172.41,-312 3188.69,-275.079 3220.4,-246.269 3156.41,-174 3136.83,-151.893 3051.32,-137.356 3007.9,-131.26"/>
<polygon fill="midnightblue" stroke="midnightblue" points="2848.58,-520.533 2839.67,-526.277 2850.21,-527.338 2848.58,-520.533"/>
</g>
<!-- Node49&#45;&gt;Node38 -->
<g id="edge160" class="edge"><title>Node49&#45;&gt;Node38</title>
<path fill="none" stroke="midnightblue" d="M2774.97,-525.054C2703.66,-509.43 2555.41,-464.391 2555.41,-360 2555.41,-360 2555.41,-360 2555.41,-184 2555.41,-131.57 2616.44,-95.0283 2649.58,-79.0516"/>
<polygon fill="midnightblue" stroke="midnightblue" points="2774.4,-528.511 2784.91,-527.15 2775.84,-521.661 2774.4,-528.511"/>
</g>
<!-- Node49&#45;&gt;Node39 -->
<g id="edge161" class="edge"><title>Node49&#45;&gt;Node39</title>
<path fill="none" stroke="midnightblue" d="M2850.07,-529.793C2952.82,-522.75 3230.41,-496.461 3230.41,-418 3230.41,-418 3230.41,-418 3230.41,-184 3230.41,-115.557 3140.91,-87.6696 3081.65,-76.7063"/>
<polygon fill="midnightblue" stroke="midnightblue" points="2849.58,-526.318 2839.83,-530.47 2850.04,-533.302 2849.58,-526.318"/>
</g>
<!-- Node50&#45;&gt;Node25 -->
<g id="edge173" class="edge"><title>Node50&#45;&gt;Node25</title>
<path fill="none" stroke="midnightblue" d="M810.78,-345.778C777.67,-335.303 730.736,-320.454 700.935,-311.025"/>
<polygon fill="midnightblue" stroke="midnightblue" points="809.987,-349.198 820.577,-348.878 812.098,-342.524 809.987,-349.198"/>
</g>
<!-- Node50&#45;&gt;Node27 -->
<g id="edge174" class="edge"><title>Node50&#45;&gt;Node27</title>
<path fill="none" stroke="midnightblue" d="M889.959,-350.52C1002.11,-329.831 1315.54,-272.014 1427.24,-251.41"/>
<polygon fill="midnightblue" stroke="midnightblue" points="889.255,-347.091 880.055,-352.347 890.524,-353.975 889.255,-347.091"/>
</g>
</g>
</svg>
