<?xml version="1.0" encoding="UTF-8" standalone="no"?>
<!DOCTYPE svg PUBLIC "-//W3C//DTD SVG 1.1//EN"
 "http://www.w3.org/Graphics/SVG/1.1/DTD/svg11.dtd">
<!-- Generated by graphviz version 2.36.0 (20140111.2315)
 -->
<!-- Title: infrastructure_macros.h Pages: 1 -->
<svg width="799pt" height="102pt"
 viewBox="0.00 0.00 799.00 102.00" xmlns="http://www.w3.org/2000/svg" xmlns:xlink="http://www.w3.org/1999/xlink">
<g id="graph0" class="graph" transform="scale(1 1) rotate(0) translate(4 98)">
<title>infrastructure_macros.h</title>
<!-- Node1 -->
<g id="node1" class="node"><title>Node1</title>
<polygon fill="#bfbfbf" stroke="black" points="308.48,-75 308.48,-93 429.52,-93 429.52,-75 308.48,-75"/>
<text text-anchor="middle" x="369" y="-81" font-family="Helvetica,sans-Serif" font-size="10.00">infrastructure_macros.h</text>
</g>
<!-- Node2 -->
<g id="node2" class="node"><title>Node2</title>
<polygon fill="none" stroke="#bfbfbf" points="-0.780762,-10 -0.780762,-28 50.7808,-28 50.7808,-10 -0.780762,-10"/>
<text text-anchor="middle" x="25" y="-16" font-family="Helvetica,sans-Serif" font-size="10.00">sstream</text>
</g>
<!-- Node1&#45;&gt;Node2 -->
<g id="edge1" class="edge"><title>Node1&#45;&gt;Node2</title>
<path fill="none" stroke="midnightblue" d="M308.442,-80.0841C245.164,-75.6836 143.642,-64.7755 60,-38 55.7538,-36.6407 51.3984,-34.805 47.2653,-32.8239"/>
<polygon fill="midnightblue" stroke="midnightblue" points="48.667,-29.6078 38.1808,-28.0938 45.4341,-35.8165 48.667,-29.6078"/>
</g>
<!-- Node3 -->
<g id="node3" class="node"><title>Node3</title>
<polygon fill="none" stroke="#bfbfbf" points="68.8276,-10 68.8276,-28 123.172,-28 123.172,-10 68.8276,-10"/>
<text text-anchor="middle" x="96" y="-16" font-family="Helvetica,sans-Serif" font-size="10.00">iostream</text>
</g>
<!-- Node1&#45;&gt;Node3 -->
<g id="edge2" class="edge"><title>Node1&#45;&gt;Node3</title>
<path fill="none" stroke="midnightblue" d="M308.415,-76.1849C259.817,-69.6099 190.329,-57.6958 132,-38 127.755,-36.5665 123.377,-34.7217 119.2,-32.7617"/>
<polygon fill="midnightblue" stroke="midnightblue" points="120.481,-29.4879 109.975,-28.1183 117.334,-35.7405 120.481,-29.4879"/>
</g>
<!-- Node4 -->
<g id="node4" class="node"><title>Node4</title>
<polygon fill="none" stroke="#bfbfbf" points="140.773,-10 140.773,-28 181.227,-28 181.227,-10 140.773,-10"/>
<text text-anchor="middle" x="161" y="-16" font-family="Helvetica,sans-Serif" font-size="10.00">string</text>
</g>
<!-- Node1&#45;&gt;Node4 -->
<g id="edge3" class="edge"><title>Node1&#45;&gt;Node4</title>
<path fill="none" stroke="midnightblue" d="M321.697,-74.9636C285.114,-67.8237 233.677,-55.7436 191,-38 187.803,-36.6709 184.543,-35.0413 181.405,-33.3109"/>
<polygon fill="midnightblue" stroke="midnightblue" points="182.929,-30.1439 172.55,-28.017 179.337,-36.1522 182.929,-30.1439"/>
</g>
<!-- Node5 -->
<g id="node5" class="node"><title>Node5</title>
<g id="a_node5"><a xlink:href="compiler__macros_8h.html" target="_top" xlink:title="Various compiler workarounds. ">
<polygon fill="none" stroke="black" points="199.544,-10 199.544,-28 324.456,-28 324.456,-10 199.544,-10"/>
<text text-anchor="middle" x="262" y="-16" font-family="Helvetica,sans-Serif" font-size="10.00">RMF/compiler_macros.h</text>
</a>
</g>
</g>
<!-- Node1&#45;&gt;Node5 -->
<g id="edge4" class="edge"><title>Node1&#45;&gt;Node5</title>
<path fill="none" stroke="midnightblue" d="M355.012,-74.7639C337.05,-64.1882 305.663,-45.7082 284.368,-33.17"/>
<polygon fill="midnightblue" stroke="midnightblue" points="286.047,-30.0967 275.654,-28.039 282.495,-36.1288 286.047,-30.0967"/>
</g>
<!-- Node6 -->
<g id="node6" class="node"><title>Node6</title>
<polygon fill="none" stroke="black" points="342,-1 342,-37 396,-37 396,-1 342,-1"/>
<text text-anchor="middle" x="368.734" y="-16" font-family="Helvetica,sans-Serif" font-size="10.00">Node6</text>
</g>
<!-- Node1&#45;&gt;Node6 -->
<g id="edge5" class="edge"><title>Node1&#45;&gt;Node6</title>
<path fill="none" stroke="midnightblue" d="M369,-74.7639C369,-67.6841 369,-57.0619 369,-47.0514"/>
<polygon fill="midnightblue" stroke="midnightblue" points="372.5,-47.0149 369,-37.015 365.5,-47.015 372.5,-47.0149"/>
</g>
<!-- Node7 -->
<g id="node7" class="node"><title>Node7</title>
<polygon fill="none" stroke="#bfbfbf" points="414.384,-10 414.384,-28 457.616,-28 457.616,-10 414.384,-10"/>
<text text-anchor="middle" x="436" y="-16" font-family="Helvetica,sans-Serif" font-size="10.00">vector</text>
</g>
<!-- Node1&#45;&gt;Node7 -->
<g id="edge6" class="edge"><title>Node1&#45;&gt;Node7</title>
<path fill="none" stroke="midnightblue" d="M377.759,-74.7639C388.451,-64.7099 406.741,-47.5121 419.976,-35.0672"/>
<polygon fill="midnightblue" stroke="midnightblue" points="422.563,-37.4391 427.451,-28.039 417.768,-32.3394 422.563,-37.4391"/>
</g>
<!-- Node8 -->
<g id="node8" class="node"><title>Node8</title>
<polygon fill="none" stroke="#bfbfbf" points="475.306,-10 475.306,-28 564.694,-28 564.694,-10 475.306,-10"/>
<text text-anchor="middle" x="520" y="-16" font-family="Helvetica,sans-Serif" font-size="10.00">boost/config.hpp</text>
</g>
<!-- Node1&#45;&gt;Node8 -->
<g id="edge7" class="edge"><title>Node1&#45;&gt;Node8</title>
<path fill="none" stroke="midnightblue" d="M388.431,-74.8928C414.481,-64.0246 460.93,-44.645 491.092,-32.061"/>
<polygon fill="midnightblue" stroke="midnightblue" points="492.762,-35.1567 500.643,-28.0761 490.066,-28.6965 492.762,-35.1567"/>
</g>
<!-- Node9 -->
<g id="node9" class="node"><title>Node9</title>
<polygon fill="none" stroke="#bfbfbf" points="582.53,-10 582.53,-28 677.47,-28 677.47,-10 582.53,-10"/>
<text text-anchor="middle" x="630" y="-16" font-family="Helvetica,sans-Serif" font-size="10.00">boost/version.hpp</text>
</g>
<!-- Node1&#45;&gt;Node9 -->
<g id="edge8" class="edge"><title>Node1&#45;&gt;Node9</title>
<path fill="none" stroke="midnightblue" d="M410.677,-74.9351C452.091,-66.6567 517.294,-52.9082 573,-38 580.667,-35.948 588.841,-33.5155 596.534,-31.1129"/>
<polygon fill="midnightblue" stroke="midnightblue" points="597.822,-34.3762 606.288,-28.0063 595.697,-27.7063 597.822,-34.3762"/>
</g>
<!-- Node10 -->
<g id="node10" class="node"><title>Node10</title>
<polygon fill="none" stroke="#bfbfbf" points="694.971,-10 694.971,-28 791.029,-28 791.029,-10 694.971,-10"/>
<text text-anchor="middle" x="743" y="-16" font-family="Helvetica,sans-Serif" font-size="10.00">boost/foreach.hpp</text>
</g>
<!-- Node1&#45;&gt;Node10 -->
<g id="edge9" class="edge"><title>Node1&#45;&gt;Node10</title>
<path fill="none" stroke="midnightblue" d="M429.721,-77.3865C493.931,-70.7527 597.918,-58.0159 686,-38 694.111,-36.1567 702.732,-33.7031 710.746,-31.202"/>
<polygon fill="midnightblue" stroke="midnightblue" points="712.053,-34.4579 720.491,-28.0509 709.899,-27.7975 712.053,-34.4579"/>
</g>
</g>
</svg>
