<?xml version="1.0" encoding="UTF-8" standalone="no"?>
<!DOCTYPE svg PUBLIC "-//W3C//DTD SVG 1.1//EN"
 "http://www.w3.org/Graphics/SVG/1.1/DTD/svg11.dtd">
<!-- Generated by graphviz version 2.36.0 (20140111.2315)
 -->
<!-- Title: infrastructure_macros.h Pages: 1 -->
<svg width="727pt" height="84pt"
 viewBox="0.00 0.00 727.00 84.00" xmlns="http://www.w3.org/2000/svg" xmlns:xlink="http://www.w3.org/1999/xlink">
<g id="graph0" class="graph" transform="scale(1 1) rotate(0) translate(4 80)">
<title>infrastructure_macros.h</title>
<!-- Node1 -->
<g id="node1" class="node"><title>Node1</title>
<polygon fill="#bfbfbf" stroke="black" points="252.48,-57 252.48,-75 373.52,-75 373.52,-57 252.48,-57"/>
<text text-anchor="middle" x="313" y="-63" font-family="Helvetica,sans-Serif" font-size="10.00">infrastructure_macros.h</text>
</g>
<!-- Node2 -->
<g id="node2" class="node"><title>Node2</title>
<polygon fill="none" stroke="#bfbfbf" points="-0.780762,-1 -0.780762,-19 50.7808,-19 50.7808,-1 -0.780762,-1"/>
<text text-anchor="middle" x="25" y="-7" font-family="Helvetica,sans-Serif" font-size="10.00">sstream</text>
</g>
<!-- Node1&#45;&gt;Node2 -->
<g id="edge1" class="edge"><title>Node1&#45;&gt;Node2</title>
<path fill="none" stroke="midnightblue" d="M261.413,-56.9982C212.331,-49.1213 136.209,-36.2229 61.0558,-20.0953"/>
<polygon fill="midnightblue" stroke="midnightblue" points="61.456,-16.6008 50.9416,-17.9036 59.9736,-23.4421 61.456,-16.6008"/>
</g>
<!-- Node3 -->
<g id="node3" class="node"><title>Node3</title>
<polygon fill="none" stroke="#bfbfbf" points="68.8276,-1 68.8276,-19 123.172,-19 123.172,-1 68.8276,-1"/>
<text text-anchor="middle" x="96" y="-7" font-family="Helvetica,sans-Serif" font-size="10.00">iostream</text>
</g>
<!-- Node1&#45;&gt;Node3 -->
<g id="edge2" class="edge"><title>Node1&#45;&gt;Node3</title>
<path fill="none" stroke="midnightblue" d="M280.628,-56.9651C246.392,-48.4647 190.533,-34.5872 133.435,-20.3556"/>
<polygon fill="midnightblue" stroke="midnightblue" points="134.066,-16.9059 123.516,-17.883 132.373,-23.6981 134.066,-16.9059"/>
</g>
<!-- Node4 -->
<g id="node4" class="node"><title>Node4</title>
<polygon fill="none" stroke="#bfbfbf" points="140.773,-1 140.773,-19 181.227,-19 181.227,-1 140.773,-1"/>
<text text-anchor="middle" x="161" y="-7" font-family="Helvetica,sans-Serif" font-size="10.00">string</text>
</g>
<!-- Node1&#45;&gt;Node4 -->
<g id="edge3" class="edge"><title>Node1&#45;&gt;Node4</title>
<path fill="none" stroke="midnightblue" d="M290.244,-56.9157C263.87,-47.546 220.305,-32.069 191.137,-21.7066"/>
<polygon fill="midnightblue" stroke="midnightblue" points="192.067,-18.3227 181.472,-18.273 189.724,-24.9188 192.067,-18.3227"/>
</g>
<!-- Node5 -->
<g id="node5" class="node"><title>Node5</title>
<g id="a_node5"><a xlink:href="compiler__macros_8h.html" target="_top" xlink:title="Various compiler workarounds. ">
<polygon fill="none" stroke="black" points="199.544,-1 199.544,-19 324.456,-19 324.456,-1 199.544,-1"/>
<text text-anchor="middle" x="262" y="-7" font-family="Helvetica,sans-Serif" font-size="10.00">RMF/compiler_macros.h</text>
</a>
</g>
</g>
<!-- Node1&#45;&gt;Node5 -->
<g id="edge4" class="edge"><title>Node1&#45;&gt;Node5</title>
<path fill="none" stroke="midnightblue" d="M305.031,-56.5625C297.502,-48.5905 286.021,-36.4341 276.811,-26.6825"/>
<polygon fill="midnightblue" stroke="midnightblue" points="279.157,-24.0684 269.746,-19.2014 274.068,-28.8748 279.157,-24.0684"/>
</g>
<!-- Node7 -->
<g id="node6" class="node"><title>Node7</title>
<polygon fill="none" stroke="#bfbfbf" points="342.384,-1 342.384,-19 385.616,-19 385.616,-1 342.384,-1"/>
<text text-anchor="middle" x="364" y="-7" font-family="Helvetica,sans-Serif" font-size="10.00">vector</text>
</g>
<!-- Node1&#45;&gt;Node7 -->
<g id="edge5" class="edge"><title>Node1&#45;&gt;Node7</title>
<path fill="none" stroke="midnightblue" d="M320.969,-56.5625C328.498,-48.5905 339.979,-36.4341 349.189,-26.6825"/>
<polygon fill="midnightblue" stroke="midnightblue" points="351.932,-28.8748 356.254,-19.2014 346.843,-24.0684 351.932,-28.8748"/>
</g>
<!-- Node8 -->
<g id="node7" class="node"><title>Node8</title>
<polygon fill="none" stroke="#bfbfbf" points="403.306,-1 403.306,-19 492.694,-19 492.694,-1 403.306,-1"/>
<text text-anchor="middle" x="448" y="-7" font-family="Helvetica,sans-Serif" font-size="10.00">boost/config.hpp</text>
</g>
<!-- Node1&#45;&gt;Node8 -->
<g id="edge6" class="edge"><title>Node1&#45;&gt;Node8</title>
<path fill="none" stroke="midnightblue" d="M333.211,-56.9157C355.778,-47.8888 392.517,-33.1931 418.341,-22.8637"/>
<polygon fill="midnightblue" stroke="midnightblue" points="419.666,-26.1033 427.651,-19.1396 417.066,-19.6039 419.666,-26.1033"/>
</g>
<!-- Node9 -->
<g id="node8" class="node"><title>Node9</title>
<polygon fill="none" stroke="#bfbfbf" points="510.53,-1 510.53,-19 605.47,-19 605.47,-1 510.53,-1"/>
<text text-anchor="middle" x="558" y="-7" font-family="Helvetica,sans-Serif" font-size="10.00">boost/version.hpp</text>
</g>
<!-- Node1&#45;&gt;Node9 -->
<g id="edge7" class="edge"><title>Node1&#45;&gt;Node9</title>
<path fill="none" stroke="midnightblue" d="M349.414,-56.974C392.507,-47.4759 464.339,-31.6436 511.439,-21.2625"/>
<polygon fill="midnightblue" stroke="midnightblue" points="512.373,-24.6406 521.386,-19.0701 510.867,-17.8046 512.373,-24.6406"/>
</g>
<!-- Node10 -->
<g id="node9" class="node"><title>Node10</title>
<polygon fill="none" stroke="#bfbfbf" points="622.971,-1 622.971,-19 719.029,-19 719.029,-1 622.971,-1"/>
<text text-anchor="middle" x="671" y="-7" font-family="Helvetica,sans-Serif" font-size="10.00">boost/foreach.hpp</text>
</g>
<!-- Node1&#45;&gt;Node10 -->
<g id="edge8" class="edge"><title>Node1&#45;&gt;Node10</title>
<path fill="none" stroke="midnightblue" d="M367.671,-56.9641C425.879,-48.3774 520.981,-34.2601 612.782,-20.1776"/>
<polygon fill="midnightblue" stroke="midnightblue" points="613.45,-23.6162 622.802,-18.6386 612.387,-16.6974 613.45,-23.6162"/>
</g>
</g>
</svg>
