<?xml version="1.0" encoding="UTF-8" standalone="no"?>
<!DOCTYPE svg PUBLIC "-//W3C//DTD SVG 1.1//EN"
 "http://www.w3.org/Graphics/SVG/1.1/DTD/svg11.dtd">
<!-- Generated by graphviz version 2.34.0 (20131025.1349)
 -->
<!-- Title: Graphical Class Hierarchy Pages: 1 -->
<svg width="366pt" height="145pt"
 viewBox="0.00 0.00 366.00 145.00" xmlns="http://www.w3.org/2000/svg" xmlns:xlink="http://www.w3.org/1999/xlink">
<g id="graph0" class="graph" transform="scale(1 1) rotate(0) translate(4 141)">
<title>Graphical Class Hierarchy</title>
<!-- Node1 -->
<g id="node1" class="node"><title>Node1</title>
<g id="a_node1"><a xlink:title="STL class. ">
<polygon fill="none" stroke="#bfbfbf" points="0.147949,-58 0.147949,-78 77.8521,-78 77.8521,-58 0.147949,-58"/>
<text text-anchor="middle" x="39" y="-64" font-family="Helvetica,sans-Serif" font-size="10.00">std::exception</text>
</a>
</g>
</g>
<!-- Node2 -->
<g id="node2" class="node"><title>Node2</title>
<g id="a_node2"><a xlink:href="classRMF_1_1Exception.html" target="_top" xlink:title="RMF::Exception">
<polygon fill="none" stroke="black" points="114.434,-58 114.434,-78 201.566,-78 201.566,-58 114.434,-58"/>
<text text-anchor="middle" x="158" y="-64" font-family="Helvetica,sans-Serif" font-size="10.00">RMF::Exception</text>
</a>
</g>
</g>
<!-- Node1&#45;&gt;Node2 -->
<g id="edge1" class="edge"><title>Node1&#45;&gt;Node2</title>
<path fill="none" stroke="midnightblue" d="M88.027,-68C96.7469,-68 105.788,-68 114.34,-68"/>
<polygon fill="midnightblue" stroke="midnightblue" points="87.9866,-64.5001 77.9865,-68 87.9865,-71.5001 87.9866,-64.5001"/>
</g>
<!-- Node3 -->
<g id="node3" class="node"><title>Node3</title>
<g id="a_node3"><a xlink:href="classRMF_1_1IndexException.html" target="_top" xlink:title="RMF::IndexException">
<polygon fill="none" stroke="black" points="242.202,-117 242.202,-137 353.798,-137 353.798,-117 242.202,-117"/>
<text text-anchor="middle" x="298" y="-123" font-family="Helvetica,sans-Serif" font-size="10.00">RMF::IndexException</text>
</a>
</g>
</g>
<!-- Node2&#45;&gt;Node3 -->
<g id="edge2" class="edge"><title>Node2&#45;&gt;Node3</title>
<path fill="none" stroke="midnightblue" d="M186.722,-82.8034C201.688,-90.5089 220.612,-99.7976 238,-107 246.593,-110.559 256.071,-113.985 264.87,-116.964"/>
<polygon fill="midnightblue" stroke="midnightblue" points="188,-79.5228 177.514,-78.0062 184.766,-85.7308 188,-79.5228"/>
</g>
<!-- Node4 -->
<g id="node4" class="node"><title>Node4</title>
<g id="a_node4"><a xlink:href="classRMF_1_1InternalException.html" target="_top" xlink:title="RMF::InternalException">
<polygon fill="none" stroke="black" points="237.756,-78 237.756,-98 358.244,-98 358.244,-78 237.756,-78"/>
<text text-anchor="middle" x="298" y="-84" font-family="Helvetica,sans-Serif" font-size="10.00">RMF::InternalException</text>
</a>
</g>
</g>
<!-- Node2&#45;&gt;Node4 -->
<g id="edge3" class="edge"><title>Node2&#45;&gt;Node4</title>
<path fill="none" stroke="midnightblue" d="M211.958,-75.6751C220.364,-76.8934 229.107,-78.1604 237.648,-79.3983"/>
<polygon fill="midnightblue" stroke="midnightblue" points="212.306,-72.1891 201.908,-74.2185 211.302,-79.1167 212.306,-72.1891"/>
</g>
<!-- Node5 -->
<g id="node5" class="node"><title>Node5</title>
<g id="a_node5"><a xlink:href="classRMF_1_1IOException.html" target="_top" xlink:title="RMF::IOException">
<polygon fill="none" stroke="black" points="249.155,-39 249.155,-59 346.845,-59 346.845,-39 249.155,-39"/>
<text text-anchor="middle" x="298" y="-45" font-family="Helvetica,sans-Serif" font-size="10.00">RMF::IOException</text>
</a>
</g>
</g>
<!-- Node2&#45;&gt;Node5 -->
<g id="edge4" class="edge"><title>Node2&#45;&gt;Node5</title>
<path fill="none" stroke="midnightblue" d="M211.906,-60.7158C224.048,-59.0441 236.895,-57.2753 248.825,-55.6328"/>
<polygon fill="midnightblue" stroke="midnightblue" points="211.337,-57.2611 201.908,-62.0924 212.292,-64.1957 211.337,-57.2611"/>
</g>
<!-- Node6 -->
<g id="node6" class="node"><title>Node6</title>
<g id="a_node6"><a xlink:href="classRMF_1_1UsageException.html" target="_top" xlink:title="RMF::UsageException">
<polygon fill="none" stroke="black" points="239.98,-0 239.98,-20 356.02,-20 356.02,-0 239.98,-0"/>
<text text-anchor="middle" x="298" y="-6" font-family="Helvetica,sans-Serif" font-size="10.00">RMF::UsageException</text>
</a>
</g>
</g>
<!-- Node2&#45;&gt;Node6 -->
<g id="edge5" class="edge"><title>Node2&#45;&gt;Node6</title>
<path fill="none" stroke="midnightblue" d="M187.363,-53.3244C202.244,-45.8898 220.893,-36.9836 238,-30 246.611,-26.4845 256.095,-23.0739 264.894,-20.0945"/>
<polygon fill="midnightblue" stroke="midnightblue" points="185.53,-50.3292 178.183,-57.9625 188.687,-56.5771 185.53,-50.3292"/>
</g>
</g>
</svg>
