<?xml version="1.0" encoding="UTF-8" standalone="no"?>
<!DOCTYPE svg PUBLIC "-//W3C//DTD SVG 1.1//EN"
 "http://www.w3.org/Graphics/SVG/1.1/DTD/svg11.dtd">
<!-- Generated by graphviz version 2.36.0 (20140111.2315)
 -->
<!-- Title: Graphical Class Hierarchy Pages: 1 -->
<svg width="282pt" height="63pt"
 viewBox="0.00 0.00 282.00 63.00" xmlns="http://www.w3.org/2000/svg" xmlns:xlink="http://www.w3.org/1999/xlink">
<g id="graph0" class="graph" transform="scale(1 1) rotate(0) translate(4 59)">
<title>Graphical Class Hierarchy</title>
<!-- Node1 -->
<g id="node1" class="node"><title>Node1</title>
<g id="a_node1"><a xlink:href="classRMF_1_1NodeConstHandle.html" target="_top" xlink:title="A handle for a particular node in a read&#45;only hierarchy. ">
<polygon fill="none" stroke="black" points="0.532227,-18 0.532227,-36 125.468,-36 125.468,-18 0.532227,-18"/>
<text text-anchor="middle" x="63" y="-24" font-family="Helvetica,sans-Serif" font-size="10.00">RMF::NodeConstHandle</text>
</a>
</g>
</g>
<!-- Node2 -->
<g id="node2" class="node"><title>Node2</title>
<g id="a_node2"><a xlink:href="classRMF_1_1NodeHandle.html" target="_top" xlink:title="A handle for a particular node in the hierarchy. ">
<polygon fill="none" stroke="black" points="168.594,-37 168.594,-55 267.406,-55 267.406,-37 168.594,-37"/>
<text text-anchor="middle" x="218" y="-43" font-family="Helvetica,sans-Serif" font-size="10.00">RMF::NodeHandle</text>
</a>
</g>
</g>
<!-- Node1&#45;&gt;Node2 -->
<g id="edge1" class="edge"><title>Node1&#45;&gt;Node2</title>
<path fill="none" stroke="midnightblue" d="M135.792,-35.9153C146.75,-37.2762 157.838,-38.6531 168.151,-39.9338"/>
<polygon fill="midnightblue" stroke="midnightblue" points="136.145,-32.4324 125.79,-34.6733 135.282,-39.379 136.145,-32.4324"/>
</g>
<!-- Node3 -->
<g id="node3" class="node"><title>Node3</title>
<g id="a_node3"><a xlink:href="classRMF_1_1TraverseHelper.html" target="_top" xlink:title="This class tracks common data that one needs to keep as one traverses the hierarchy. ">
<polygon fill="none" stroke="black" points="162.119,-0 162.119,-18 273.881,-18 273.881,-0 162.119,-0"/>
<text text-anchor="middle" x="218" y="-6" font-family="Helvetica,sans-Serif" font-size="10.00">RMF::TraverseHelper</text>
</a>
</g>
</g>
<!-- Node1&#45;&gt;Node3 -->
<g id="edge2" class="edge"><title>Node1&#45;&gt;Node3</title>
<path fill="none" stroke="midnightblue" d="M135.957,-18.5344C144.673,-17.5091 153.467,-16.4745 161.885,-15.4841"/>
<polygon fill="midnightblue" stroke="midnightblue" points="135.312,-15.0861 125.79,-19.7306 136.13,-22.0381 135.312,-15.0861"/>
</g>
</g>
</svg>
