<?xml version="1.0" encoding="UTF-8" standalone="no"?>
<!DOCTYPE svg PUBLIC "-//W3C//DTD SVG 1.1//EN"
 "http://www.w3.org/Graphics/SVG/1.1/DTD/svg11.dtd">
<!-- Generated by graphviz version 2.34.0 (20131025.1349)
 -->
<!-- Title: Graphical Class Hierarchy Pages: 1 -->
<svg width="246pt" height="67pt"
 viewBox="0.00 0.00 246.00 67.00" xmlns="http://www.w3.org/2000/svg" xmlns:xlink="http://www.w3.org/1999/xlink">
<g id="graph0" class="graph" transform="scale(1 1) rotate(0) translate(4 63)">
<title>Graphical Class Hierarchy</title>
<!-- Node1 -->
<g id="node1" class="node"><title>Node1</title>
<g id="a_node1"><a xlink:href="classRMF_1_1Label.html" target="_top" xlink:title="RMF::Label">
<polygon fill="none" stroke="black" points="0.157715,-19 0.157715,-39 67.8423,-39 67.8423,-19 0.157715,-19"/>
<text text-anchor="middle" x="34" y="-25" font-family="Helvetica,sans-Serif" font-size="10.00">RMF::Label</text>
</a>
</g>
</g>
<!-- Node2 -->
<g id="node2" class="node"><title>Node2</title>
<g id="a_node2"><a xlink:href="classRMF_1_1decorator_1_1Assembly.html" target="_top" xlink:title="RMF::decorator::Assembly">
<polygon fill="none" stroke="black" points="103.818,-39 103.818,-59 238.182,-59 238.182,-39 103.818,-39"/>
<text text-anchor="middle" x="171" y="-45" font-family="Helvetica,sans-Serif" font-size="10.00">RMF::decorator::Assembly</text>
</a>
</g>
</g>
<!-- Node1&#45;&gt;Node2 -->
<g id="edge1" class="edge"><title>Node1&#45;&gt;Node2</title>
<path fill="none" stroke="midnightblue" d="M78.0738,-35.3813C86.2769,-36.5966 95.0364,-37.8943 103.768,-39.1878"/>
<polygon fill="midnightblue" stroke="midnightblue" points="78.4297,-31.8959 68.0247,-33.8926 77.4038,-38.8203 78.4297,-31.8959"/>
</g>
<!-- Node3 -->
<g id="node3" class="node"><title>Node3</title>
<g id="a_node3"><a xlink:href="classRMF_1_1decorator_1_1Molecule.html" target="_top" xlink:title="RMF::decorator::Molecule">
<polygon fill="none" stroke="black" points="105.48,-0 105.48,-20 236.52,-20 236.52,-0 105.48,-0"/>
<text text-anchor="middle" x="171" y="-6" font-family="Helvetica,sans-Serif" font-size="10.00">RMF::decorator::Molecule</text>
</a>
</g>
</g>
<!-- Node1&#45;&gt;Node3 -->
<g id="edge2" class="edge"><title>Node1&#45;&gt;Node3</title>
<path fill="none" stroke="midnightblue" d="M77.9519,-22.9549C86.6934,-21.7246 96.0707,-20.4049 105.375,-19.0953"/>
<polygon fill="midnightblue" stroke="midnightblue" points="77.4393,-19.4925 68.0247,-24.3521 78.4149,-26.4242 77.4393,-19.4925"/>
</g>
</g>
</svg>
