<?xml version="1.0" encoding="UTF-8" standalone="no"?>
<!DOCTYPE svg PUBLIC "-//W3C//DTD SVG 1.1//EN"
 "http://www.w3.org/Graphics/SVG/1.1/DTD/svg11.dtd">
<!-- Generated by graphviz version 2.36.0 (20140111.2315)
 -->
<!-- Title: Graphical Class Hierarchy Pages: 1 -->
<svg width="246pt" height="63pt"
 viewBox="0.00 0.00 246.00 63.00" xmlns="http://www.w3.org/2000/svg" xmlns:xlink="http://www.w3.org/1999/xlink">
<g id="graph0" class="graph" transform="scale(1 1) rotate(0) translate(4 59)">
<title>Graphical Class Hierarchy</title>
<!-- Node1 -->
<g id="node1" class="node"><title>Node1</title>
<g id="a_node1"><a xlink:href="classRMF_1_1Label.html" target="_top" xlink:title="A decorator&#45;like class to mark certain nodes (eg molecule bounaries) ">
<polygon fill="none" stroke="black" points="0.157715,-18 0.157715,-36 67.8423,-36 67.8423,-18 0.157715,-18"/>
<text text-anchor="middle" x="34" y="-24" font-family="Helvetica,sans-Serif" font-size="10.00">RMF::Label</text>
</a>
</g>
</g>
<!-- Node2 -->
<g id="node2" class="node"><title>Node2</title>
<g id="a_node2"><a xlink:href="classRMF_1_1decorator_1_1Assembly.html" target="_top" xlink:title="RMF::decorator::Assembly">
<polygon fill="none" stroke="black" points="103.818,-37 103.818,-55 238.182,-55 238.182,-37 103.818,-37"/>
<text text-anchor="middle" x="171" y="-43" font-family="Helvetica,sans-Serif" font-size="10.00">RMF::decorator::Assembly</text>
</a>
</g>
</g>
<!-- Node1&#45;&gt;Node2 -->
<g id="edge1" class="edge"><title>Node1&#45;&gt;Node2</title>
<path fill="none" stroke="midnightblue" d="M78.0935,-33.065C86.9625,-34.3132 96.4811,-35.6529 105.911,-36.98"/>
<polygon fill="midnightblue" stroke="midnightblue" points="78.4149,-29.5758 68.0247,-31.6479 77.4393,-36.5075 78.4149,-29.5758"/>
</g>
<!-- Node3 -->
<g id="node3" class="node"><title>Node3</title>
<g id="a_node3"><a xlink:href="classRMF_1_1decorator_1_1Molecule.html" target="_top" xlink:title="RMF::decorator::Molecule">
<polygon fill="none" stroke="black" points="105.48,-0 105.48,-18 236.52,-18 236.52,-0 105.48,-0"/>
<text text-anchor="middle" x="171" y="-6" font-family="Helvetica,sans-Serif" font-size="10.00">RMF::decorator::Molecule</text>
</a>
</g>
</g>
<!-- Node1&#45;&gt;Node3 -->
<g id="edge2" class="edge"><title>Node1&#45;&gt;Node3</title>
<path fill="none" stroke="midnightblue" d="M77.9519,-21.2731C86.6934,-20.1076 96.0707,-18.8572 105.375,-17.6166"/>
<polygon fill="midnightblue" stroke="midnightblue" points="77.4744,-17.8057 68.0247,-22.5967 78.3996,-24.7443 77.4744,-17.8057"/>
</g>
</g>
</svg>
