<?xml version="1.0" encoding="UTF-8" standalone="no"?>
<!DOCTYPE svg PUBLIC "-//W3C//DTD SVG 1.1//EN"
 "http://www.w3.org/Graphics/SVG/1.1/DTD/svg11.dtd">
<!-- Generated by graphviz version 2.36.0 (20140111.2315)
 -->
<!-- Title: Graphical Class Hierarchy Pages: 1 -->
<svg width="970pt" height="120pt"
 viewBox="0.00 0.00 970.00 120.00" xmlns="http://www.w3.org/2000/svg" xmlns:xlink="http://www.w3.org/1999/xlink">
<g id="graph0" class="graph" transform="scale(1 1) rotate(0) translate(4 116)">
<title>Graphical Class Hierarchy</title>
<!-- Node1 -->
<g id="node1" class="node"><title>Node1</title>
<g id="a_node1"><a xlink:href="classRMF_1_1HDF5_1_1Object.html" target="_top" xlink:title="RMF::HDF5::Object">
<polygon fill="none" stroke="black" points="0.105957,-64 0.105957,-82 103.894,-82 103.894,-64 0.105957,-64"/>
<text text-anchor="middle" x="52" y="-70" font-family="Helvetica,sans-Serif" font-size="10.00">RMF::HDF5::Object</text>
</a>
</g>
</g>
<!-- Node2 -->
<g id="node2" class="node"><title>Node2</title>
<g id="a_node2"><a xlink:href="classRMF_1_1HDF5_1_1ConstAttributes.html" target="_top" xlink:title="RMF::HDF5::ConstAttributes\l\&lt; Object \&gt;">
<polygon fill="none" stroke="black" points="140.375,-59 140.375,-87 283.625,-87 283.625,-59 140.375,-59"/>
<text text-anchor="start" x="148.375" y="-75" font-family="Helvetica,sans-Serif" font-size="10.00">RMF::HDF5::ConstAttributes</text>
<text text-anchor="middle" x="212" y="-65" font-family="Helvetica,sans-Serif" font-size="10.00">&lt; Object &gt;</text>
</a>
</g>
</g>
<!-- Node1&#45;&gt;Node2 -->
<g id="edge1" class="edge"><title>Node1&#45;&gt;Node2</title>
<path fill="none" stroke="midnightblue" d="M114.417,-73C122.849,-73 131.564,-73 140.148,-73"/>
<polygon fill="midnightblue" stroke="midnightblue" points="114.298,-69.5001 104.298,-73 114.298,-76.5001 114.298,-69.5001"/>
</g>
<!-- Node3 -->
<g id="node3" class="node"><title>Node3</title>
<g id="a_node3"><a xlink:href="classRMF_1_1HDF5_1_1ConstDataSetD.html" target="_top" xlink:title="RMF::HDF5::ConstDataSetD\l\&lt; TypeTraits, D \&gt;">
<polygon fill="none" stroke="black" points="319.818,-81 319.818,-109 464.182,-109 464.182,-81 319.818,-81"/>
<text text-anchor="start" x="327.818" y="-97" font-family="Helvetica,sans-Serif" font-size="10.00">RMF::HDF5::ConstDataSetD</text>
<text text-anchor="middle" x="392" y="-87" font-family="Helvetica,sans-Serif" font-size="10.00">&lt; TypeTraits, D &gt;</text>
</a>
</g>
</g>
<!-- Node2&#45;&gt;Node3 -->
<g id="edge2" class="edge"><title>Node2&#45;&gt;Node3</title>
<path fill="none" stroke="midnightblue" d="M293.928,-83.0023C302.559,-84.0691 311.293,-85.1486 319.8,-86.2"/>
<polygon fill="midnightblue" stroke="midnightblue" points="294.216,-79.5113 283.862,-81.7582 293.357,-86.4585 294.216,-79.5113"/>
</g>
<!-- Node6 -->
<g id="node6" class="node"><title>Node6</title>
<g id="a_node6"><a xlink:href="classRMF_1_1HDF5_1_1ConstGroup.html" target="_top" xlink:title="RMF::HDF5::ConstGroup">
<polygon fill="none" stroke="black" points="327.599,-42 327.599,-60 456.401,-60 456.401,-42 327.599,-42"/>
<text text-anchor="middle" x="392" y="-48" font-family="Helvetica,sans-Serif" font-size="10.00">RMF::HDF5::ConstGroup</text>
</a>
</g>
</g>
<!-- Node2&#45;&gt;Node6 -->
<g id="edge5" class="edge"><title>Node2&#45;&gt;Node6</title>
<path fill="none" stroke="midnightblue" d="M294.108,-62.9754C305.339,-61.5873 316.739,-60.1783 327.585,-58.8378"/>
<polygon fill="midnightblue" stroke="midnightblue" points="293.357,-59.5415 283.862,-64.2418 294.216,-66.4887 293.357,-59.5415"/>
</g>
<!-- Node4 -->
<g id="node4" class="node"><title>Node4</title>
<g id="a_node4"><a xlink:href="classRMF_1_1HDF5_1_1MutableAttributes.html" target="_top" xlink:title="RMF::HDF5::MutableAttributes\l\&lt; ConstDataSetD\&lt; TypeTraits, D \&gt; \&gt;">
<polygon fill="none" stroke="black" points="500.564,-84 500.564,-112 679.436,-112 679.436,-84 500.564,-84"/>
<text text-anchor="start" x="508.564" y="-100" font-family="Helvetica,sans-Serif" font-size="10.00">RMF::HDF5::MutableAttributes</text>
<text text-anchor="middle" x="590" y="-90" font-family="Helvetica,sans-Serif" font-size="10.00">&lt; ConstDataSetD&lt; TypeTraits, D &gt; &gt;</text>
</a>
</g>
</g>
<!-- Node3&#45;&gt;Node4 -->
<g id="edge3" class="edge"><title>Node3&#45;&gt;Node4</title>
<path fill="none" stroke="midnightblue" d="M474.591,-96.2488C483.1,-96.3791 491.778,-96.5119 500.36,-96.6433"/>
<polygon fill="midnightblue" stroke="midnightblue" points="474.367,-92.7451 464.315,-96.0916 474.26,-99.7443 474.367,-92.7451"/>
</g>
<!-- Node5 -->
<g id="node5" class="node"><title>Node5</title>
<g id="a_node5"><a xlink:href="classRMF_1_1HDF5_1_1DataSetD.html" target="_top" xlink:title="RMF::HDF5::DataSetD\l\&lt; TypeTraits, D \&gt;">
<polygon fill="none" stroke="black" points="715.879,-84 715.879,-112 834.121,-112 834.121,-84 715.879,-84"/>
<text text-anchor="start" x="723.879" y="-100" font-family="Helvetica,sans-Serif" font-size="10.00">RMF::HDF5::DataSetD</text>
<text text-anchor="middle" x="775" y="-90" font-family="Helvetica,sans-Serif" font-size="10.00">&lt; TypeTraits, D &gt;</text>
</a>
</g>
</g>
<!-- Node4&#45;&gt;Node5 -->
<g id="edge4" class="edge"><title>Node4&#45;&gt;Node5</title>
<path fill="none" stroke="midnightblue" d="M689.653,-98C698.581,-98 707.418,-98 715.821,-98"/>
<polygon fill="midnightblue" stroke="midnightblue" points="689.552,-94.5001 679.552,-98 689.552,-101.5 689.552,-94.5001"/>
</g>
<!-- Node7 -->
<g id="node7" class="node"><title>Node7</title>
<g id="a_node7"><a xlink:href="classRMF_1_1HDF5_1_1MutableAttributes.html" target="_top" xlink:title="RMF::HDF5::MutableAttributes\l\&lt; ConstGroup \&gt;">
<polygon fill="none" stroke="black" points="513.648,-37 513.648,-65 666.352,-65 666.352,-37 513.648,-37"/>
<text text-anchor="start" x="521.648" y="-53" font-family="Helvetica,sans-Serif" font-size="10.00">RMF::HDF5::MutableAttributes</text>
<text text-anchor="middle" x="590" y="-43" font-family="Helvetica,sans-Serif" font-size="10.00">&lt; ConstGroup &gt;</text>
</a>
</g>
</g>
<!-- Node6&#45;&gt;Node7 -->
<g id="edge6" class="edge"><title>Node6&#45;&gt;Node7</title>
<path fill="none" stroke="midnightblue" d="M466.991,-51C482.166,-51 498.159,-51 513.39,-51"/>
<polygon fill="midnightblue" stroke="midnightblue" points="466.636,-47.5001 456.636,-51 466.636,-54.5001 466.636,-47.5001"/>
</g>
<!-- Node10 -->
<g id="node10" class="node"><title>Node10</title>
<g id="a_node10"><a xlink:href="classRMF_1_1HDF5_1_1ConstFile.html" target="_top" xlink:title="RMF::HDF5::ConstFile">
<polygon fill="none" stroke="black" points="531.438,-0 531.438,-18 648.562,-18 648.562,-0 531.438,-0"/>
<text text-anchor="middle" x="590" y="-6" font-family="Helvetica,sans-Serif" font-size="10.00">RMF::HDF5::ConstFile</text>
</a>
</g>
</g>
<!-- Node6&#45;&gt;Node10 -->
<g id="edge9" class="edge"><title>Node6&#45;&gt;Node10</title>
<path fill="none" stroke="midnightblue" d="M444.943,-39.8192C462.434,-36.0585 482.062,-31.8427 500,-28 515.14,-24.7567 531.731,-21.2122 546.443,-18.0724"/>
<polygon fill="midnightblue" stroke="midnightblue" points="443.961,-36.4503 434.921,-41.9747 445.433,-43.2939 443.961,-36.4503"/>
</g>
<!-- Node8 -->
<g id="node8" class="node"><title>Node8</title>
<g id="a_node8"><a xlink:href="classRMF_1_1HDF5_1_1Group.html" target="_top" xlink:title="RMF::HDF5::Group">
<polygon fill="none" stroke="black" points="723.66,-42 723.66,-60 826.34,-60 826.34,-42 723.66,-42"/>
<text text-anchor="middle" x="775" y="-48" font-family="Helvetica,sans-Serif" font-size="10.00">RMF::HDF5::Group</text>
</a>
</g>
</g>
<!-- Node7&#45;&gt;Node8 -->
<g id="edge7" class="edge"><title>Node7&#45;&gt;Node8</title>
<path fill="none" stroke="midnightblue" d="M676.913,-51C692.855,-51 709.023,-51 723.474,-51"/>
<polygon fill="midnightblue" stroke="midnightblue" points="676.49,-47.5001 666.49,-51 676.49,-54.5001 676.49,-47.5001"/>
</g>
<!-- Node9 -->
<g id="node9" class="node"><title>Node9</title>
<g id="a_node9"><a xlink:href="classRMF_1_1HDF5_1_1File.html" target="_top" xlink:title="RMF::HDF5::File">
<polygon fill="none" stroke="black" points="870.5,-42 870.5,-60 961.5,-60 961.5,-42 870.5,-42"/>
<text text-anchor="middle" x="916" y="-48" font-family="Helvetica,sans-Serif" font-size="10.00">RMF::HDF5::File</text>
</a>
</g>
</g>
<!-- Node8&#45;&gt;Node9 -->
<g id="edge8" class="edge"><title>Node8&#45;&gt;Node9</title>
<path fill="none" stroke="midnightblue" d="M836.774,-51C848.011,-51 859.557,-51 870.212,-51"/>
<polygon fill="midnightblue" stroke="midnightblue" points="836.575,-47.5001 826.575,-51 836.575,-54.5001 836.575,-47.5001"/>
</g>
</g>
</svg>
