<?xml version="1.0" encoding="UTF-8" standalone="no"?>
<!DOCTYPE svg PUBLIC "-//W3C//DTD SVG 1.1//EN"
 "http://www.w3.org/Graphics/SVG/1.1/DTD/svg11.dtd">
<!-- Generated by graphviz version 2.36.0 (20140111.2315)
 -->
<!-- Title: Graphical Class Hierarchy Pages: 1 -->
<svg width="366pt" height="137pt"
 viewBox="0.00 0.00 366.00 137.00" xmlns="http://www.w3.org/2000/svg" xmlns:xlink="http://www.w3.org/1999/xlink">
<g id="graph0" class="graph" transform="scale(1 1) rotate(0) translate(4 133)">
<title>Graphical Class Hierarchy</title>
<!-- Node1 -->
<g id="node1" class="node"><title>Node1</title>
<g id="a_node1"><a xlink:title="STL class. ">
<polygon fill="none" stroke="#bfbfbf" points="0.147949,-55 0.147949,-73 77.8521,-73 77.8521,-55 0.147949,-55"/>
<text text-anchor="middle" x="39" y="-61" font-family="Helvetica,sans-Serif" font-size="10.00">std::exception</text>
</a>
</g>
</g>
<!-- Node2 -->
<g id="node2" class="node"><title>Node2</title>
<g id="a_node2"><a xlink:href="classRMF_1_1Exception.html" target="_top" xlink:title="RMF::Exception">
<polygon fill="none" stroke="black" points="114.434,-55 114.434,-73 201.566,-73 201.566,-55 114.434,-55"/>
<text text-anchor="middle" x="158" y="-61" font-family="Helvetica,sans-Serif" font-size="10.00">RMF::Exception</text>
</a>
</g>
</g>
<!-- Node1&#45;&gt;Node2 -->
<g id="edge1" class="edge"><title>Node1&#45;&gt;Node2</title>
<path fill="none" stroke="midnightblue" d="M88.027,-64C96.7469,-64 105.788,-64 114.34,-64"/>
<polygon fill="midnightblue" stroke="midnightblue" points="87.9866,-60.5001 77.9865,-64 87.9865,-67.5001 87.9866,-60.5001"/>
</g>
<!-- Node3 -->
<g id="node3" class="node"><title>Node3</title>
<g id="a_node3"><a xlink:href="classRMF_1_1IndexException.html" target="_top" xlink:title="RMF::IndexException">
<polygon fill="none" stroke="black" points="242.202,-111 242.202,-129 353.798,-129 353.798,-111 242.202,-111"/>
<text text-anchor="middle" x="298" y="-117" font-family="Helvetica,sans-Serif" font-size="10.00">RMF::IndexException</text>
</a>
</g>
</g>
<!-- Node2&#45;&gt;Node3 -->
<g id="edge2" class="edge"><title>Node2&#45;&gt;Node3</title>
<path fill="none" stroke="midnightblue" d="M185.865,-77.6163C200.978,-85.0129 220.311,-94.0417 238,-101 247.113,-104.585 257.202,-108.022 266.422,-110.963"/>
<polygon fill="midnightblue" stroke="midnightblue" points="187.117,-74.3308 176.603,-73.0296 184.011,-80.6038 187.117,-74.3308"/>
</g>
<!-- Node4 -->
<g id="node4" class="node"><title>Node4</title>
<g id="a_node4"><a xlink:href="classRMF_1_1InternalException.html" target="_top" xlink:title="RMF::InternalException">
<polygon fill="none" stroke="black" points="237.756,-74 237.756,-92 358.244,-92 358.244,-74 237.756,-74"/>
<text text-anchor="middle" x="298" y="-80" font-family="Helvetica,sans-Serif" font-size="10.00">RMF::InternalException</text>
</a>
</g>
</g>
<!-- Node2&#45;&gt;Node4 -->
<g id="edge3" class="edge"><title>Node2&#45;&gt;Node4</title>
<path fill="none" stroke="midnightblue" d="M211.958,-71.2914C220.364,-72.4487 229.107,-73.6524 237.648,-74.8284"/>
<polygon fill="midnightblue" stroke="midnightblue" points="212.292,-67.8043 201.908,-69.9076 211.337,-74.7389 212.292,-67.8043"/>
</g>
<!-- Node5 -->
<g id="node5" class="node"><title>Node5</title>
<g id="a_node5"><a xlink:href="classRMF_1_1IOException.html" target="_top" xlink:title="RMF::IOException">
<polygon fill="none" stroke="black" points="249.155,-37 249.155,-55 346.845,-55 346.845,-37 249.155,-37"/>
<text text-anchor="middle" x="298" y="-43" font-family="Helvetica,sans-Serif" font-size="10.00">RMF::IOException</text>
</a>
</g>
</g>
<!-- Node2&#45;&gt;Node5 -->
<g id="edge4" class="edge"><title>Node2&#45;&gt;Node5</title>
<path fill="none" stroke="midnightblue" d="M211.906,-57.0992C224.048,-55.5154 236.895,-53.8398 248.825,-52.2837"/>
<polygon fill="midnightblue" stroke="midnightblue" points="211.371,-53.6393 201.908,-58.4034 212.276,-60.5805 211.371,-53.6393"/>
</g>
<!-- Node6 -->
<g id="node6" class="node"><title>Node6</title>
<g id="a_node6"><a xlink:href="classRMF_1_1UsageException.html" target="_top" xlink:title="RMF::UsageException">
<polygon fill="none" stroke="black" points="239.98,-0 239.98,-18 356.02,-18 356.02,-0 239.98,-0"/>
<text text-anchor="middle" x="298" y="-6" font-family="Helvetica,sans-Serif" font-size="10.00">RMF::UsageException</text>
</a>
</g>
</g>
<!-- Node2&#45;&gt;Node6 -->
<g id="edge5" class="edge"><title>Node2&#45;&gt;Node6</title>
<path fill="none" stroke="midnightblue" d="M186.499,-50.5181C201.534,-43.3895 220.591,-34.7436 238,-28 247.131,-24.4628 257.226,-21.0396 266.445,-18.0962"/>
<polygon fill="midnightblue" stroke="midnightblue" points="184.762,-47.4693 177.257,-54.9482 187.788,-53.7815 184.762,-47.4693"/>
</g>
</g>
</svg>
