<?xml version="1.0" encoding="UTF-8" standalone="no"?>
<!DOCTYPE svg PUBLIC "-//W3C//DTD SVG 1.1//EN"
 "http://www.w3.org/Graphics/SVG/1.1/DTD/svg11.dtd">
<!-- Generated by graphviz version 2.34.0 (20131025.1349)
 -->
<!-- Title: Graphical Class Hierarchy Pages: 1 -->
<svg width="970pt" height="130pt"
 viewBox="0.00 0.00 970.00 130.00" xmlns="http://www.w3.org/2000/svg" xmlns:xlink="http://www.w3.org/1999/xlink">
<g id="graph0" class="graph" transform="scale(1 1) rotate(0) translate(4 126)">
<title>Graphical Class Hierarchy</title>
<!-- Node1 -->
<g id="node1" class="node"><title>Node1</title>
<g id="a_node1"><a xlink:href="classRMF_1_1HDF5_1_1Object.html" target="_top" xlink:title="RMF::HDF5::Object">
<polygon fill="none" stroke="black" points="0.105957,-69 0.105957,-89 103.894,-89 103.894,-69 0.105957,-69"/>
<text text-anchor="middle" x="52" y="-75" font-family="Helvetica,sans-Serif" font-size="10.00">RMF::HDF5::Object</text>
</a>
</g>
</g>
<!-- Node2 -->
<g id="node2" class="node"><title>Node2</title>
<g id="a_node2"><a xlink:href="classRMF_1_1HDF5_1_1ConstAttributes.html" target="_top" xlink:title="RMF::HDF5::ConstAttributes\l\&lt; Object \&gt;">
<polygon fill="none" stroke="black" points="140.375,-63 140.375,-95 283.625,-95 283.625,-63 140.375,-63"/>
<text text-anchor="start" x="148.375" y="-81" font-family="Helvetica,sans-Serif" font-size="10.00">RMF::HDF5::ConstAttributes</text>
<text text-anchor="middle" x="212" y="-69" font-family="Helvetica,sans-Serif" font-size="10.00">&lt; Object &gt;</text>
</a>
</g>
</g>
<!-- Node1&#45;&gt;Node2 -->
<g id="edge1" class="edge"><title>Node1&#45;&gt;Node2</title>
<path fill="none" stroke="midnightblue" d="M114.417,-79C122.849,-79 131.564,-79 140.148,-79"/>
<polygon fill="midnightblue" stroke="midnightblue" points="114.298,-75.5001 104.298,-79 114.298,-82.5001 114.298,-75.5001"/>
</g>
<!-- Node3 -->
<g id="node3" class="node"><title>Node3</title>
<g id="a_node3"><a xlink:href="classRMF_1_1HDF5_1_1ConstDataSetD.html" target="_top" xlink:title="RMF::HDF5::ConstDataSetD\l\&lt; TypeTraits, D \&gt;">
<polygon fill="none" stroke="black" points="319.818,-87 319.818,-119 464.182,-119 464.182,-87 319.818,-87"/>
<text text-anchor="start" x="327.818" y="-105" font-family="Helvetica,sans-Serif" font-size="10.00">RMF::HDF5::ConstDataSetD</text>
<text text-anchor="middle" x="392" y="-93" font-family="Helvetica,sans-Serif" font-size="10.00">&lt; TypeTraits, D &gt;</text>
</a>
</g>
</g>
<!-- Node2&#45;&gt;Node3 -->
<g id="edge2" class="edge"><title>Node2&#45;&gt;Node3</title>
<path fill="none" stroke="midnightblue" d="M293.928,-89.9116C302.559,-91.0754 311.293,-92.253 319.8,-93.4"/>
<polygon fill="midnightblue" stroke="midnightblue" points="294.24,-86.4221 283.862,-88.5544 293.304,-93.3593 294.24,-86.4221"/>
</g>
<!-- Node6 -->
<g id="node6" class="node"><title>Node6</title>
<g id="a_node6"><a xlink:href="classRMF_1_1HDF5_1_1ConstGroup.html" target="_top" xlink:title="RMF::HDF5::ConstGroup">
<polygon fill="none" stroke="black" points="327.599,-45 327.599,-65 456.401,-65 456.401,-45 327.599,-45"/>
<text text-anchor="middle" x="392" y="-51" font-family="Helvetica,sans-Serif" font-size="10.00">RMF::HDF5::ConstGroup</text>
</a>
</g>
</g>
<!-- Node2&#45;&gt;Node6 -->
<g id="edge5" class="edge"><title>Node2&#45;&gt;Node6</title>
<path fill="none" stroke="midnightblue" d="M294.108,-68.0641C305.339,-66.5498 316.739,-65.0127 327.585,-63.5504"/>
<polygon fill="midnightblue" stroke="midnightblue" points="293.304,-64.6407 283.862,-69.4456 294.24,-71.5779 293.304,-64.6407"/>
</g>
<!-- Node4 -->
<g id="node4" class="node"><title>Node4</title>
<g id="a_node4"><a xlink:href="classRMF_1_1HDF5_1_1MutableAttributes.html" target="_top" xlink:title="RMF::HDF5::MutableAttributes\l\&lt; ConstDataSetD\&lt; TypeTraits, D \&gt; \&gt;">
<polygon fill="none" stroke="black" points="500.564,-90 500.564,-122 679.436,-122 679.436,-90 500.564,-90"/>
<text text-anchor="start" x="508.564" y="-108" font-family="Helvetica,sans-Serif" font-size="10.00">RMF::HDF5::MutableAttributes</text>
<text text-anchor="middle" x="590" y="-96" font-family="Helvetica,sans-Serif" font-size="10.00">&lt; ConstDataSetD&lt; TypeTraits, D &gt; &gt;</text>
</a>
</g>
</g>
<!-- Node3&#45;&gt;Node4 -->
<g id="edge3" class="edge"><title>Node3&#45;&gt;Node4</title>
<path fill="none" stroke="midnightblue" d="M474.591,-104.249C483.1,-104.379 491.778,-104.512 500.36,-104.643"/>
<polygon fill="midnightblue" stroke="midnightblue" points="474.367,-100.745 464.315,-104.092 474.26,-107.744 474.367,-100.745"/>
</g>
<!-- Node5 -->
<g id="node5" class="node"><title>Node5</title>
<g id="a_node5"><a xlink:href="classRMF_1_1HDF5_1_1DataSetD.html" target="_top" xlink:title="RMF::HDF5::DataSetD\l\&lt; TypeTraits, D \&gt;">
<polygon fill="none" stroke="black" points="715.879,-90 715.879,-122 834.121,-122 834.121,-90 715.879,-90"/>
<text text-anchor="start" x="723.879" y="-108" font-family="Helvetica,sans-Serif" font-size="10.00">RMF::HDF5::DataSetD</text>
<text text-anchor="middle" x="775" y="-96" font-family="Helvetica,sans-Serif" font-size="10.00">&lt; TypeTraits, D &gt;</text>
</a>
</g>
</g>
<!-- Node4&#45;&gt;Node5 -->
<g id="edge4" class="edge"><title>Node4&#45;&gt;Node5</title>
<path fill="none" stroke="midnightblue" d="M689.653,-106C698.581,-106 707.418,-106 715.821,-106"/>
<polygon fill="midnightblue" stroke="midnightblue" points="689.552,-102.5 679.552,-106 689.552,-109.5 689.552,-102.5"/>
</g>
<!-- Node7 -->
<g id="node7" class="node"><title>Node7</title>
<g id="a_node7"><a xlink:href="classRMF_1_1HDF5_1_1MutableAttributes.html" target="_top" xlink:title="RMF::HDF5::MutableAttributes\l\&lt; ConstGroup \&gt;">
<polygon fill="none" stroke="black" points="513.648,-39 513.648,-71 666.352,-71 666.352,-39 513.648,-39"/>
<text text-anchor="start" x="521.648" y="-57" font-family="Helvetica,sans-Serif" font-size="10.00">RMF::HDF5::MutableAttributes</text>
<text text-anchor="middle" x="590" y="-45" font-family="Helvetica,sans-Serif" font-size="10.00">&lt; ConstGroup &gt;</text>
</a>
</g>
</g>
<!-- Node6&#45;&gt;Node7 -->
<g id="edge6" class="edge"><title>Node6&#45;&gt;Node7</title>
<path fill="none" stroke="midnightblue" d="M466.991,-55C482.166,-55 498.159,-55 513.39,-55"/>
<polygon fill="midnightblue" stroke="midnightblue" points="466.636,-51.5001 456.636,-55 466.636,-58.5001 466.636,-51.5001"/>
</g>
<!-- Node10 -->
<g id="node10" class="node"><title>Node10</title>
<g id="a_node10"><a xlink:href="classRMF_1_1HDF5_1_1ConstFile.html" target="_top" xlink:title="RMF::HDF5::ConstFile">
<polygon fill="none" stroke="black" points="531.438,-0 531.438,-20 648.562,-20 648.562,-0 531.438,-0"/>
<text text-anchor="middle" x="590" y="-6" font-family="Helvetica,sans-Serif" font-size="10.00">RMF::HDF5::ConstFile</text>
</a>
</g>
</g>
<!-- Node6&#45;&gt;Node10 -->
<g id="edge9" class="edge"><title>Node6&#45;&gt;Node10</title>
<path fill="none" stroke="midnightblue" d="M445.609,-42.6147C462.925,-38.5629 482.28,-34.0611 500,-30 514.202,-26.7453 529.69,-23.2469 543.707,-20.1003"/>
<polygon fill="midnightblue" stroke="midnightblue" points="444.614,-39.2528 435.676,-44.9416 446.211,-46.0683 444.614,-39.2528"/>
</g>
<!-- Node8 -->
<g id="node8" class="node"><title>Node8</title>
<g id="a_node8"><a xlink:href="classRMF_1_1HDF5_1_1Group.html" target="_top" xlink:title="RMF::HDF5::Group">
<polygon fill="none" stroke="black" points="723.66,-45 723.66,-65 826.34,-65 826.34,-45 723.66,-45"/>
<text text-anchor="middle" x="775" y="-51" font-family="Helvetica,sans-Serif" font-size="10.00">RMF::HDF5::Group</text>
</a>
</g>
</g>
<!-- Node7&#45;&gt;Node8 -->
<g id="edge7" class="edge"><title>Node7&#45;&gt;Node8</title>
<path fill="none" stroke="midnightblue" d="M676.913,-55C692.855,-55 709.023,-55 723.474,-55"/>
<polygon fill="midnightblue" stroke="midnightblue" points="676.49,-51.5001 666.49,-55 676.49,-58.5001 676.49,-51.5001"/>
</g>
<!-- Node9 -->
<g id="node9" class="node"><title>Node9</title>
<g id="a_node9"><a xlink:href="classRMF_1_1HDF5_1_1File.html" target="_top" xlink:title="RMF::HDF5::File">
<polygon fill="none" stroke="black" points="870.5,-45 870.5,-65 961.5,-65 961.5,-45 870.5,-45"/>
<text text-anchor="middle" x="916" y="-51" font-family="Helvetica,sans-Serif" font-size="10.00">RMF::HDF5::File</text>
</a>
</g>
</g>
<!-- Node8&#45;&gt;Node9 -->
<g id="edge8" class="edge"><title>Node8&#45;&gt;Node9</title>
<path fill="none" stroke="midnightblue" d="M836.774,-55C848.011,-55 859.557,-55 870.212,-55"/>
<polygon fill="midnightblue" stroke="midnightblue" points="836.575,-51.5001 826.575,-55 836.575,-58.5001 836.575,-51.5001"/>
</g>
</g>
</svg>
