<?xml version="1.0" encoding="UTF-8" standalone="no"?>
<!DOCTYPE svg PUBLIC "-//W3C//DTD SVG 1.1//EN"
 "http://www.w3.org/Graphics/SVG/1.1/DTD/svg11.dtd">
<!-- Generated by graphviz version 2.36.0 (20140111.2315)
 -->
<!-- Title: Graphical Class Hierarchy Pages: 1 -->
<svg width="286pt" height="1128pt"
 viewBox="0.00 0.00 286.00 1128.00" xmlns="http://www.w3.org/2000/svg" xmlns:xlink="http://www.w3.org/1999/xlink">
<g id="graph0" class="graph" transform="scale(1 1) rotate(0) translate(4 1124)">
<title>Graphical Class Hierarchy</title>
<!-- Node1 -->
<g id="node1" class="node"><title>Node1</title>
<g id="a_node1"><a xlink:href="classRMF_1_1Factory.html" target="_top" xlink:title="The base class for Factories. ">
<polygon fill="none" stroke="black" points="0.72168,-566 0.72168,-584 77.2783,-584 77.2783,-566 0.72168,-566"/>
<text text-anchor="middle" x="39" y="-572" font-family="Helvetica,sans-Serif" font-size="10.00">RMF::Factory</text>
</a>
</g>
</g>
<!-- Node2 -->
<g id="node2" class="node"><title>Node2</title>
<g id="a_node2"><a xlink:href="classRMF_1_1decorator_1_1AliasFactory.html" target="_top" xlink:title="RMF::decorator::AliasFactory">
<polygon fill="none" stroke="black" points="122.983,-1102 122.983,-1120 269.017,-1120 269.017,-1102 122.983,-1102"/>
<text text-anchor="middle" x="196" y="-1108" font-family="Helvetica,sans-Serif" font-size="10.00">RMF::decorator::AliasFactory</text>
</a>
</g>
</g>
<!-- Node1&#45;&gt;Node2 -->
<g id="edge1" class="edge"><title>Node1&#45;&gt;Node2</title>
<path fill="none" stroke="midnightblue" d="M39.9671,-594.282C40.2251,-678.996 45.5851,-1017.27 114,-1092 117.706,-1096.05 122.097,-1099.31 126.887,-1101.94"/>
<polygon fill="midnightblue" stroke="midnightblue" points="43.467,-594.062 39.9585,-584.065 36.467,-594.068 43.467,-594.062"/>
</g>
<!-- Node3 -->
<g id="node3" class="node"><title>Node3</title>
<g id="a_node3"><a xlink:href="classRMF_1_1decorator_1_1AlternativesFactory.html" target="_top" xlink:title="RMF::decorator::Alternatives\lFactory">
<polygon fill="none" stroke="black" points="124.367,-1055 124.367,-1083 267.633,-1083 267.633,-1055 124.367,-1055"/>
<text text-anchor="start" x="132.367" y="-1071" font-family="Helvetica,sans-Serif" font-size="10.00">RMF::decorator::Alternatives</text>
<text text-anchor="middle" x="196" y="-1061" font-family="Helvetica,sans-Serif" font-size="10.00">Factory</text>
</a>
</g>
</g>
<!-- Node1&#45;&gt;Node3 -->
<g id="edge2" class="edge"><title>Node1&#45;&gt;Node3</title>
<path fill="none" stroke="midnightblue" d="M40.3824,-594.448C42.3424,-674.321 53.6881,-976.159 114,-1045 117.383,-1048.86 121.355,-1052.12 125.691,-1054.86"/>
<polygon fill="midnightblue" stroke="midnightblue" points="43.8789,-594.248 40.1566,-584.329 36.8806,-594.404 43.8789,-594.248"/>
</g>
<!-- Node4 -->
<g id="node4" class="node"><title>Node4</title>
<g id="a_node4"><a xlink:href="classRMF_1_1decorator_1_1AtomFactory.html" target="_top" xlink:title="RMF::decorator::AtomFactory">
<polygon fill="none" stroke="black" points="122.15,-1018 122.15,-1036 269.85,-1036 269.85,-1018 122.15,-1018"/>
<text text-anchor="middle" x="196" y="-1024" font-family="Helvetica,sans-Serif" font-size="10.00">RMF::decorator::AtomFactory</text>
</a>
</g>
</g>
<!-- Node1&#45;&gt;Node4 -->
<g id="edge3" class="edge"><title>Node1&#45;&gt;Node4</title>
<path fill="none" stroke="midnightblue" d="M40.5608,-594.428C43.1569,-670.484 56.4645,-946.835 114,-1008 117.761,-1012 122.19,-1015.23 127.006,-1017.83"/>
<polygon fill="midnightblue" stroke="midnightblue" points="44.0456,-593.889 40.231,-584.004 37.0491,-594.11 44.0456,-593.889"/>
</g>
<!-- Node5 -->
<g id="node5" class="node"><title>Node5</title>
<g id="a_node5"><a xlink:href="classRMF_1_1decorator_1_1BackwardsCompatibilityFragmentFactory.html" target="_top" xlink:title="RMF::decorator::Backwards\lCompatibilityFragmentFactory">
<polygon fill="none" stroke="black" points="121.313,-971 121.313,-999 270.687,-999 270.687,-971 121.313,-971"/>
<text text-anchor="start" x="129.313" y="-987" font-family="Helvetica,sans-Serif" font-size="10.00">RMF::decorator::Backwards</text>
<text text-anchor="middle" x="196" y="-977" font-family="Helvetica,sans-Serif" font-size="10.00">CompatibilityFragmentFactory</text>
</a>
</g>
</g>
<!-- Node1&#45;&gt;Node5 -->
<g id="edge4" class="edge"><title>Node1&#45;&gt;Node5</title>
<path fill="none" stroke="midnightblue" d="M41.1145,-594.472C45.5359,-665.01 64.095,-905.912 114,-961 117.545,-964.913 121.695,-968.2 126.209,-970.96"/>
<polygon fill="midnightblue" stroke="midnightblue" points="44.5991,-594.108 40.5046,-584.336 37.6117,-594.529 44.5991,-594.108"/>
</g>
<!-- Node6 -->
<g id="node6" class="node"><title>Node6</title>
<g id="a_node6"><a xlink:href="classRMF_1_1decorator_1_1BallFactory.html" target="_top" xlink:title="RMF::decorator::BallFactory">
<polygon fill="none" stroke="black" points="125.483,-934 125.483,-952 266.517,-952 266.517,-934 125.483,-934"/>
<text text-anchor="middle" x="196" y="-940" font-family="Helvetica,sans-Serif" font-size="10.00">RMF::decorator::BallFactory</text>
</a>
</g>
</g>
<!-- Node1&#45;&gt;Node6 -->
<g id="edge5" class="edge"><title>Node1&#45;&gt;Node6</title>
<path fill="none" stroke="midnightblue" d="M41.4262,-594.371C46.691,-660.544 67.2039,-876.189 114,-924 117.94,-928.026 122.56,-931.266 127.561,-933.866"/>
<polygon fill="midnightblue" stroke="midnightblue" points="44.8958,-593.839 40.6404,-584.136 37.9163,-594.375 44.8958,-593.839"/>
</g>
<!-- Node7 -->
<g id="node7" class="node"><title>Node7</title>
<g id="a_node7"><a xlink:href="classRMF_1_1decorator_1_1BondFactory.html" target="_top" xlink:title="RMF::decorator::BondFactory">
<polygon fill="none" stroke="black" points="122.143,-897 122.143,-915 269.857,-915 269.857,-897 122.143,-897"/>
<text text-anchor="middle" x="196" y="-903" font-family="Helvetica,sans-Serif" font-size="10.00">RMF::decorator::BondFactory</text>
</a>
</g>
</g>
<!-- Node1&#45;&gt;Node7 -->
<g id="edge6" class="edge"><title>Node1&#45;&gt;Node7</title>
<path fill="none" stroke="midnightblue" d="M41.9418,-594.277C48.5118,-655.66 71.8823,-844.986 114,-887 118.09,-891.08 122.88,-894.35 128.051,-896.961"/>
<polygon fill="midnightblue" stroke="midnightblue" points="45.3966,-593.661 40.8803,-584.077 38.4342,-594.386 45.3966,-593.661"/>
</g>
<!-- Node8 -->
<g id="node8" class="node"><title>Node8</title>
<g id="a_node8"><a xlink:href="classRMF_1_1decorator_1_1ChainFactory.html" target="_top" xlink:title="RMF::decorator::ChainFactory">
<polygon fill="none" stroke="black" points="120.756,-860 120.756,-878 271.244,-878 271.244,-860 120.756,-860"/>
<text text-anchor="middle" x="196" y="-866" font-family="Helvetica,sans-Serif" font-size="10.00">RMF::decorator::ChainFactory</text>
</a>
</g>
</g>
<!-- Node1&#45;&gt;Node8 -->
<g id="edge7" class="edge"><title>Node1&#45;&gt;Node8</title>
<path fill="none" stroke="midnightblue" d="M42.5856,-594.169C50.562,-650.481 76.5292,-813.726 114,-850 118.151,-854.019 122.983,-857.245 128.181,-859.829"/>
<polygon fill="midnightblue" stroke="midnightblue" points="46.034,-593.555 41.1953,-584.129 39.1002,-594.515 46.034,-593.555"/>
</g>
<!-- Node9 -->
<g id="node9" class="node"><title>Node9</title>
<g id="a_node9"><a xlink:href="classRMF_1_1decorator_1_1ColoredFactory.html" target="_top" xlink:title="RMF::decorator::ColoredFactory">
<polygon fill="none" stroke="black" points="116.311,-823 116.311,-841 275.689,-841 275.689,-823 116.311,-823"/>
<text text-anchor="middle" x="196" y="-829" font-family="Helvetica,sans-Serif" font-size="10.00">RMF::decorator::ColoredFactory</text>
</a>
</g>
</g>
<!-- Node1&#45;&gt;Node9 -->
<g id="edge8" class="edge"><title>Node1&#45;&gt;Node9</title>
<path fill="none" stroke="midnightblue" d="M39.9589,-594.713C40.991,-640.289 50.2081,-753.587 114,-813 118.334,-817.036 123.357,-820.267 128.738,-822.847"/>
<polygon fill="midnightblue" stroke="midnightblue" points="43.4557,-594.391 39.8449,-584.43 36.4561,-594.469 43.4557,-594.391"/>
</g>
<!-- Node10 -->
<g id="node10" class="node"><title>Node10</title>
<g id="a_node10"><a xlink:href="classRMF_1_1decorator_1_1CopyFactory.html" target="_top" xlink:title="RMF::decorator::CopyFactory">
<polygon fill="none" stroke="black" points="122.148,-786 122.148,-804 269.852,-804 269.852,-786 122.148,-786"/>
<text text-anchor="middle" x="196" y="-792" font-family="Helvetica,sans-Serif" font-size="10.00">RMF::decorator::CopyFactory</text>
</a>
</g>
</g>
<!-- Node1&#45;&gt;Node10 -->
<g id="edge9" class="edge"><title>Node1&#45;&gt;Node10</title>
<path fill="none" stroke="midnightblue" d="M41.2357,-594.364C44.885,-634.586 59.1259,-727.461 114,-776 118.652,-780.115 124.027,-783.384 129.75,-785.974"/>
<polygon fill="midnightblue" stroke="midnightblue" points="44.7171,-593.988 40.449,-584.29 37.7383,-594.533 44.7171,-593.988"/>
</g>
<!-- Node11 -->
<g id="node11" class="node"><title>Node11</title>
<g id="a_node11"><a xlink:href="classRMF_1_1decorator_1_1CylinderFactory.html" target="_top" xlink:title="RMF::decorator::Cylinder\lFactory">
<polygon fill="none" stroke="black" points="132.15,-739 132.15,-767 259.85,-767 259.85,-739 132.15,-739"/>
<text text-anchor="start" x="140.15" y="-755" font-family="Helvetica,sans-Serif" font-size="10.00">RMF::decorator::Cylinder</text>
<text text-anchor="middle" x="196" y="-745" font-family="Helvetica,sans-Serif" font-size="10.00">Factory</text>
</a>
</g>
</g>
<!-- Node1&#45;&gt;Node11 -->
<g id="edge10" class="edge"><title>Node1&#45;&gt;Node11</title>
<path fill="none" stroke="midnightblue" d="M43.9214,-594.249C51.5685,-626.843 71.5781,-692.871 114,-729 119.36,-733.565 125.557,-737.261 132.09,-740.255"/>
<polygon fill="midnightblue" stroke="midnightblue" points="47.2817,-593.233 41.7156,-584.218 40.4451,-594.736 47.2817,-593.233"/>
</g>
<!-- Node12 -->
<g id="node12" class="node"><title>Node12</title>
<g id="a_node12"><a xlink:href="classRMF_1_1decorator_1_1DiffuserFactory.html" target="_top" xlink:title="RMF::decorator::Diffuser\lFactory">
<polygon fill="none" stroke="black" points="133.352,-692 133.352,-720 258.648,-720 258.648,-692 133.352,-692"/>
<text text-anchor="start" x="141.352" y="-708" font-family="Helvetica,sans-Serif" font-size="10.00">RMF::decorator::Diffuser</text>
<text text-anchor="middle" x="196" y="-698" font-family="Helvetica,sans-Serif" font-size="10.00">Factory</text>
</a>
</g>
</g>
<!-- Node1&#45;&gt;Node12 -->
<g id="edge11" class="edge"><title>Node1&#45;&gt;Node12</title>
<path fill="none" stroke="midnightblue" d="M47.9058,-593.357C59.14,-617.283 81.9736,-658.801 114,-682 119.82,-686.216 126.38,-689.697 133.183,-692.571"/>
<polygon fill="midnightblue" stroke="midnightblue" points="50.9906,-591.683 43.6883,-584.007 44.6097,-594.561 50.9906,-591.683"/>
</g>
<!-- Node13 -->
<g id="node13" class="node"><title>Node13</title>
<g id="a_node13"><a xlink:href="classRMF_1_1decorator_1_1DomainFactory.html" target="_top" xlink:title="RMF::decorator::DomainFactory">
<polygon fill="none" stroke="black" points="116.591,-655 116.591,-673 275.409,-673 275.409,-655 116.591,-655"/>
<text text-anchor="middle" x="196" y="-661" font-family="Helvetica,sans-Serif" font-size="10.00">RMF::decorator::DomainFactory</text>
</a>
</g>
</g>
<!-- Node1&#45;&gt;Node13 -->
<g id="edge12" class="edge"><title>Node1&#45;&gt;Node13</title>
<path fill="none" stroke="midnightblue" d="M53.6898,-592.422C67.2786,-608.508 89.5647,-631.84 114,-645 121.757,-649.178 130.417,-652.443 139.108,-654.994"/>
<polygon fill="midnightblue" stroke="midnightblue" points="56.1186,-589.863 47.0768,-584.341 50.7013,-594.296 56.1186,-589.863"/>
</g>
<!-- Node14 -->
<g id="node14" class="node"><title>Node14</title>
<g id="a_node14"><a xlink:href="classRMF_1_1decorator_1_1EllipsoidFactory.html" target="_top" xlink:title="RMF::decorator::Ellipsoid\lFactory">
<polygon fill="none" stroke="black" points="131.87,-608 131.87,-636 260.13,-636 260.13,-608 131.87,-608"/>
<text text-anchor="start" x="139.87" y="-624" font-family="Helvetica,sans-Serif" font-size="10.00">RMF::decorator::Ellipsoid</text>
<text text-anchor="middle" x="196" y="-614" font-family="Helvetica,sans-Serif" font-size="10.00">Factory</text>
</a>
</g>
</g>
<!-- Node1&#45;&gt;Node14 -->
<g id="edge13" class="edge"><title>Node1&#45;&gt;Node14</title>
<path fill="none" stroke="midnightblue" d="M78.485,-587.068C89.9068,-590.621 102.45,-594.494 114,-598 124.666,-601.238 136.138,-604.668 146.998,-607.892"/>
<polygon fill="midnightblue" stroke="midnightblue" points="79.3781,-583.68 68.7895,-584.046 77.2948,-590.363 79.3781,-583.68"/>
</g>
<!-- Node15 -->
<g id="node15" class="node"><title>Node15</title>
<g id="a_node15"><a xlink:href="classRMF_1_1decorator_1_1ExternalFactory.html" target="_top" xlink:title="RMF::decorator::External\lFactory">
<polygon fill="none" stroke="black" points="132.148,-561 132.148,-589 259.852,-589 259.852,-561 132.148,-561"/>
<text text-anchor="start" x="140.148" y="-577" font-family="Helvetica,sans-Serif" font-size="10.00">RMF::decorator::External</text>
<text text-anchor="middle" x="196" y="-567" font-family="Helvetica,sans-Serif" font-size="10.00">Factory</text>
</a>
</g>
</g>
<!-- Node1&#45;&gt;Node15 -->
<g id="edge14" class="edge"><title>Node1&#45;&gt;Node15</title>
<path fill="none" stroke="midnightblue" d="M87.8821,-575C101.866,-575 117.364,-575 132.127,-575"/>
<polygon fill="midnightblue" stroke="midnightblue" points="87.5212,-571.5 77.5212,-575 87.5211,-578.5 87.5212,-571.5"/>
</g>
<!-- Node16 -->
<g id="node16" class="node"><title>Node16</title>
<g id="a_node16"><a xlink:href="classRMF_1_1decorator_1_1FragmentFactory.html" target="_top" xlink:title="RMF::decorator::Fragment\lFactory">
<polygon fill="none" stroke="black" points="129.094,-514 129.094,-542 262.906,-542 262.906,-514 129.094,-514"/>
<text text-anchor="start" x="137.094" y="-530" font-family="Helvetica,sans-Serif" font-size="10.00">RMF::decorator::Fragment</text>
<text text-anchor="middle" x="196" y="-520" font-family="Helvetica,sans-Serif" font-size="10.00">Factory</text>
</a>
</g>
</g>
<!-- Node1&#45;&gt;Node16 -->
<g id="edge15" class="edge"><title>Node1&#45;&gt;Node16</title>
<path fill="none" stroke="midnightblue" d="M78.485,-562.932C89.9068,-559.379 102.45,-555.506 114,-552 124.666,-548.762 136.138,-545.332 146.998,-542.108"/>
<polygon fill="midnightblue" stroke="midnightblue" points="77.2948,-559.637 68.7895,-565.954 79.3781,-566.32 77.2948,-559.637"/>
</g>
<!-- Node17 -->
<g id="node17" class="node"><title>Node17</title>
<g id="a_node17"><a xlink:href="classRMF_1_1decorator_1_1GaussianParticleFactory.html" target="_top" xlink:title="RMF::decorator::Gaussian\lParticleFactory">
<polygon fill="none" stroke="black" points="129.367,-467 129.367,-495 262.633,-495 262.633,-467 129.367,-467"/>
<text text-anchor="start" x="137.367" y="-483" font-family="Helvetica,sans-Serif" font-size="10.00">RMF::decorator::Gaussian</text>
<text text-anchor="middle" x="196" y="-473" font-family="Helvetica,sans-Serif" font-size="10.00">ParticleFactory</text>
</a>
</g>
</g>
<!-- Node1&#45;&gt;Node17 -->
<g id="edge16" class="edge"><title>Node1&#45;&gt;Node17</title>
<path fill="none" stroke="midnightblue" d="M53.8648,-557.892C67.58,-542.033 89.9542,-518.859 114,-505 120.735,-501.118 128.153,-497.815 135.683,-495.018"/>
<polygon fill="midnightblue" stroke="midnightblue" points="50.9353,-555.938 47.1804,-565.845 56.2939,-560.442 50.9353,-555.938"/>
</g>
<!-- Node18 -->
<g id="node18" class="node"><title>Node18</title>
<g id="a_node18"><a xlink:href="classRMF_1_1decorator_1_1IntermediateParticleFactory.html" target="_top" xlink:title="RMF::decorator::Intermediate\lParticleFactory">
<polygon fill="none" stroke="black" points="122.697,-420 122.697,-448 269.303,-448 269.303,-420 122.697,-420"/>
<text text-anchor="start" x="130.697" y="-436" font-family="Helvetica,sans-Serif" font-size="10.00">RMF::decorator::Intermediate</text>
<text text-anchor="middle" x="196" y="-426" font-family="Helvetica,sans-Serif" font-size="10.00">ParticleFactory</text>
</a>
</g>
</g>
<!-- Node1&#45;&gt;Node18 -->
<g id="edge17" class="edge"><title>Node1&#45;&gt;Node18</title>
<path fill="none" stroke="midnightblue" d="M46.8457,-556.403C57.3247,-530.507 79.7965,-483.864 114,-458 119.147,-454.108 124.918,-450.844 130.946,-448.109"/>
<polygon fill="midnightblue" stroke="midnightblue" points="43.5478,-555.227 43.198,-565.816 50.0748,-557.756 43.5478,-555.227"/>
</g>
<!-- Node19 -->
<g id="node19" class="node"><title>Node19</title>
<g id="a_node19"><a xlink:href="classRMF_1_1decorator_1_1JournalArticleFactory.html" target="_top" xlink:title="RMF::decorator::JournalArticle\lFactory">
<polygon fill="none" stroke="black" points="120.2,-373 120.2,-401 271.8,-401 271.8,-373 120.2,-373"/>
<text text-anchor="start" x="128.2" y="-389" font-family="Helvetica,sans-Serif" font-size="10.00">RMF::decorator::JournalArticle</text>
<text text-anchor="middle" x="196" y="-379" font-family="Helvetica,sans-Serif" font-size="10.00">Factory</text>
</a>
</g>
</g>
<!-- Node1&#45;&gt;Node19 -->
<g id="edge18" class="edge"><title>Node1&#45;&gt;Node19</title>
<path fill="none" stroke="midnightblue" d="M43.2522,-555.953C50.0863,-521.812 69.1725,-450.118 114,-411 118.42,-407.143 123.437,-403.905 128.755,-401.187"/>
<polygon fill="midnightblue" stroke="midnightblue" points="39.773,-555.518 41.3848,-565.99 46.6549,-556.799 39.773,-555.518"/>
</g>
<!-- Node20 -->
<g id="node20" class="node"><title>Node20</title>
<g id="a_node20"><a xlink:href="classRMF_1_1decorator_1_1ParticleFactory.html" target="_top" xlink:title="RMF::decorator::Particle\lFactory">
<polygon fill="none" stroke="black" points="133.818,-326 133.818,-354 258.182,-354 258.182,-326 133.818,-326"/>
<text text-anchor="start" x="141.818" y="-342" font-family="Helvetica,sans-Serif" font-size="10.00">RMF::decorator::Particle</text>
<text text-anchor="middle" x="196" y="-332" font-family="Helvetica,sans-Serif" font-size="10.00">Factory</text>
</a>
</g>
</g>
<!-- Node1&#45;&gt;Node20 -->
<g id="edge19" class="edge"><title>Node1&#45;&gt;Node20</title>
<path fill="none" stroke="midnightblue" d="M41.0832,-555.796C44.4575,-514.58 58.2293,-417.089 114,-364 119.63,-358.64 126.401,-354.471 133.599,-351.23"/>
<polygon fill="midnightblue" stroke="midnightblue" points="37.5867,-555.625 40.3809,-565.845 44.5696,-556.113 37.5867,-555.625"/>
</g>
<!-- Node21 -->
<g id="node21" class="node"><title>Node21</title>
<g id="a_node21"><a xlink:href="classRMF_1_1decorator_1_1ReferenceFrameFactory.html" target="_top" xlink:title="RMF::decorator::Reference\lFrameFactory">
<polygon fill="none" stroke="black" points="127.421,-279 127.421,-307 264.579,-307 264.579,-279 127.421,-279"/>
<text text-anchor="start" x="135.421" y="-295" font-family="Helvetica,sans-Serif" font-size="10.00">RMF::decorator::Reference</text>
<text text-anchor="middle" x="196" y="-285" font-family="Helvetica,sans-Serif" font-size="10.00">FrameFactory</text>
</a>
</g>
</g>
<!-- Node1&#45;&gt;Node21 -->
<g id="edge20" class="edge"><title>Node1&#45;&gt;Node21</title>
<path fill="none" stroke="midnightblue" d="M39.6352,-555.862C39.8101,-508.46 47.0226,-384.565 114,-317 117.924,-313.042 122.467,-309.73 127.36,-306.96"/>
<polygon fill="midnightblue" stroke="midnightblue" points="36.1358,-555.977 39.7059,-565.952 43.1356,-555.928 36.1358,-555.977"/>
</g>
<!-- Node22 -->
<g id="node22" class="node"><title>Node22</title>
<g id="a_node22"><a xlink:href="classRMF_1_1decorator_1_1RepresentationFactory.html" target="_top" xlink:title="RMF::decorator::Representation\lFactory">
<polygon fill="none" stroke="black" points="116.579,-232 116.579,-260 275.421,-260 275.421,-232 116.579,-232"/>
<text text-anchor="start" x="124.579" y="-248" font-family="Helvetica,sans-Serif" font-size="10.00">RMF::decorator::Representation</text>
<text text-anchor="middle" x="196" y="-238" font-family="Helvetica,sans-Serif" font-size="10.00">Factory</text>
</a>
</g>
</g>
<!-- Node1&#45;&gt;Node22 -->
<g id="edge21" class="edge"><title>Node1&#45;&gt;Node22</title>
<path fill="none" stroke="midnightblue" d="M42.1512,-555.851C49.2769,-495.71 73.9582,-312.097 114,-270 117.74,-266.068 122.091,-262.771 126.798,-260.008"/>
<polygon fill="midnightblue" stroke="midnightblue" points="38.6646,-555.534 40.9928,-565.87 45.6183,-556.338 38.6646,-555.534"/>
</g>
<!-- Node23 -->
<g id="node23" class="node"><title>Node23</title>
<g id="a_node23"><a xlink:href="classRMF_1_1decorator_1_1ResidueFactory.html" target="_top" xlink:title="RMF::decorator::ResidueFactory">
<polygon fill="none" stroke="black" points="115.476,-195 115.476,-213 276.524,-213 276.524,-195 115.476,-195"/>
<text text-anchor="middle" x="196" y="-201" font-family="Helvetica,sans-Serif" font-size="10.00">RMF::decorator::ResidueFactory</text>
</a>
</g>
</g>
<!-- Node1&#45;&gt;Node23 -->
<g id="edge22" class="edge"><title>Node1&#45;&gt;Node23</title>
<path fill="none" stroke="midnightblue" d="M41.4011,-555.465C46.5838,-488.727 66.8606,-271.246 114,-223 117.937,-218.971 122.554,-215.728 127.553,-213.126"/>
<polygon fill="midnightblue" stroke="midnightblue" points="37.8848,-555.553 40.6283,-565.786 44.8653,-556.075 37.8848,-555.553"/>
</g>
<!-- Node24 -->
<g id="node24" class="node"><title>Node24</title>
<g id="a_node24"><a xlink:href="classRMF_1_1decorator_1_1RigidParticleFactory.html" target="_top" xlink:title="RMF::decorator::RigidParticle\lFactory">
<polygon fill="none" stroke="black" points="122.424,-148 122.424,-176 269.576,-176 269.576,-148 122.424,-148"/>
<text text-anchor="start" x="130.424" y="-164" font-family="Helvetica,sans-Serif" font-size="10.00">RMF::decorator::RigidParticle</text>
<text text-anchor="middle" x="196" y="-154" font-family="Helvetica,sans-Serif" font-size="10.00">Factory</text>
</a>
</g>
</g>
<!-- Node1&#45;&gt;Node24 -->
<g id="edge23" class="edge"><title>Node1&#45;&gt;Node24</title>
<path fill="none" stroke="midnightblue" d="M41.0641,-555.84C45.3567,-485.353 63.6512,-241.657 114,-186 117.542,-182.084 121.69,-178.795 126.203,-176.034"/>
<polygon fill="midnightblue" stroke="midnightblue" points="37.5634,-555.752 40.4743,-565.939 44.5515,-556.16 37.5634,-555.752"/>
</g>
<!-- Node25 -->
<g id="node25" class="node"><title>Node25</title>
<g id="a_node25"><a xlink:href="classRMF_1_1decorator_1_1ScoreFactory.html" target="_top" xlink:title="RMF::decorator::ScoreFactory">
<polygon fill="none" stroke="black" points="120.759,-111 120.759,-129 271.241,-129 271.241,-111 120.759,-111"/>
<text text-anchor="middle" x="196" y="-117" font-family="Helvetica,sans-Serif" font-size="10.00">RMF::decorator::ScoreFactory</text>
</a>
</g>
</g>
<!-- Node1&#45;&gt;Node25 -->
<g id="edge24" class="edge"><title>Node1&#45;&gt;Node25</title>
<path fill="none" stroke="midnightblue" d="M40.5248,-555.909C43.0049,-480.006 55.9932,-200.737 114,-139 117.758,-135 122.186,-131.769 127.001,-129.166"/>
<polygon fill="midnightblue" stroke="midnightblue" points="37.0256,-555.832 40.2212,-565.934 44.0224,-556.044 37.0256,-555.832"/>
</g>
<!-- Node26 -->
<g id="node26" class="node"><title>Node26</title>
<g id="a_node26"><a xlink:href="classRMF_1_1decorator_1_1SegmentFactory.html" target="_top" xlink:title="RMF::decorator::SegmentFactory">
<polygon fill="none" stroke="black" points="113.808,-74 113.808,-92 278.192,-92 278.192,-74 113.808,-74"/>
<text text-anchor="middle" x="196" y="-80" font-family="Helvetica,sans-Serif" font-size="10.00">RMF::decorator::SegmentFactory</text>
</a>
</g>
</g>
<!-- Node1&#45;&gt;Node26 -->
<g id="edge25" class="edge"><title>Node1&#45;&gt;Node26</title>
<path fill="none" stroke="midnightblue" d="M40.2477,-555.85C41.6793,-475.886 51.2393,-169.668 114,-102 117.732,-97.9757 122.142,-94.7274 126.944,-92.1135"/>
<polygon fill="midnightblue" stroke="midnightblue" points="36.7466,-555.898 40.0901,-565.951 43.7458,-556.007 36.7466,-555.898"/>
</g>
<!-- Node27 -->
<g id="node27" class="node"><title>Node27</title>
<g id="a_node27"><a xlink:href="classRMF_1_1decorator_1_1StateFactory.html" target="_top" xlink:title="RMF::decorator::StateFactory">
<polygon fill="none" stroke="black" points="122.146,-37 122.146,-55 269.854,-55 269.854,-37 122.146,-37"/>
<text text-anchor="middle" x="196" y="-43" font-family="Helvetica,sans-Serif" font-size="10.00">RMF::decorator::StateFactory</text>
</a>
</g>
</g>
<!-- Node1&#45;&gt;Node27 -->
<g id="edge26" class="edge"><title>Node1&#45;&gt;Node27</title>
<path fill="none" stroke="midnightblue" d="M40.0104,-555.438C40.4635,-470.976 46.5662,-138.52 114,-65 117.71,-60.955 122.104,-57.6922 126.896,-55.0686"/>
<polygon fill="midnightblue" stroke="midnightblue" points="36.5098,-555.647 39.9782,-565.658 43.5098,-555.669 36.5098,-555.647"/>
</g>
<!-- Node28 -->
<g id="node28" class="node"><title>Node28</title>
<g id="a_node28"><a xlink:href="classRMF_1_1decorator_1_1TypedFactory.html" target="_top" xlink:title="RMF::decorator::TypedFactory">
<polygon fill="none" stroke="black" points="120.197,-0 120.197,-18 271.803,-18 271.803,-0 120.197,-0"/>
<text text-anchor="middle" x="196" y="-6" font-family="Helvetica,sans-Serif" font-size="10.00">RMF::decorator::TypedFactory</text>
</a>
</g>
</g>
<!-- Node1&#45;&gt;Node28 -->
<g id="edge27" class="edge"><title>Node1&#45;&gt;Node28</title>
<path fill="none" stroke="midnightblue" d="M39.7997,-555.72C39.2926,-468.019 41.696,-107.596 114,-28 117.691,-23.9372 122.07,-20.6619 126.853,-18.0298"/>
<polygon fill="midnightblue" stroke="midnightblue" points="36.3006,-555.861 39.8795,-565.833 43.3004,-555.806 36.3006,-555.861"/>
</g>
</g>
</svg>
