<?xml version="1.0" encoding="UTF-8" standalone="no"?>
<!DOCTYPE svg PUBLIC "-//W3C//DTD SVG 1.1//EN"
 "http://www.w3.org/Graphics/SVG/1.1/DTD/svg11.dtd">
<!-- Generated by graphviz version 2.34.0 (20131025.1349)
 -->
<!-- Title: Graphical Class Hierarchy Pages: 1 -->
<svg width="282pt" height="67pt"
 viewBox="0.00 0.00 282.00 67.00" xmlns="http://www.w3.org/2000/svg" xmlns:xlink="http://www.w3.org/1999/xlink">
<g id="graph0" class="graph" transform="scale(1 1) rotate(0) translate(4 63)">
<title>Graphical Class Hierarchy</title>
<!-- Node1 -->
<g id="node1" class="node"><title>Node1</title>
<g id="a_node1"><a xlink:href="classRMF_1_1NodeConstHandle.html" target="_top" xlink:title="A handle for a particular node in a read&#45;only hierarchy. ">
<polygon fill="none" stroke="black" points="0.532227,-19 0.532227,-39 125.468,-39 125.468,-19 0.532227,-19"/>
<text text-anchor="middle" x="63" y="-25" font-family="Helvetica,sans-Serif" font-size="10.00">RMF::NodeConstHandle</text>
</a>
</g>
</g>
<!-- Node2 -->
<g id="node2" class="node"><title>Node2</title>
<g id="a_node2"><a xlink:href="classRMF_1_1NodeHandle.html" target="_top" xlink:title="A handle for a particular node in the hierarchy. ">
<polygon fill="none" stroke="black" points="168.594,-39 168.594,-59 267.406,-59 267.406,-39 168.594,-39"/>
<text text-anchor="middle" x="218" y="-45" font-family="Helvetica,sans-Serif" font-size="10.00">RMF::NodeHandle</text>
</a>
</g>
</g>
<!-- Node1&#45;&gt;Node2 -->
<g id="edge1" class="edge"><title>Node1&#45;&gt;Node2</title>
<path fill="none" stroke="midnightblue" d="M135.792,-38.3845C146.75,-39.817 157.838,-41.2664 168.151,-42.6145"/>
<polygon fill="midnightblue" stroke="midnightblue" points="136.159,-34.9029 125.79,-37.0771 135.252,-41.8438 136.159,-34.9029"/>
</g>
<!-- Node3 -->
<g id="node3" class="node"><title>Node3</title>
<g id="a_node3"><a xlink:href="classRMF_1_1TraverseHelper.html" target="_top" xlink:title="This class tracks common data that one needs to keep as one traverses the hierarchy. ">
<polygon fill="none" stroke="black" points="162.119,-0 162.119,-20 273.881,-20 273.881,-0 162.119,-0"/>
<text text-anchor="middle" x="218" y="-6" font-family="Helvetica,sans-Serif" font-size="10.00">RMF::TraverseHelper</text>
</a>
</g>
</g>
<!-- Node1&#45;&gt;Node3 -->
<g id="edge2" class="edge"><title>Node1&#45;&gt;Node3</title>
<path fill="none" stroke="midnightblue" d="M135.957,-20.0641C144.673,-18.9818 153.467,-17.8898 161.885,-16.8443"/>
<polygon fill="midnightblue" stroke="midnightblue" points="135.282,-16.621 125.79,-21.3267 136.145,-23.5676 135.282,-16.621"/>
</g>
</g>
</svg>
