<?xml version="1.0" encoding="UTF-8" standalone="no"?>
<!DOCTYPE svg PUBLIC "-//W3C//DTD SVG 1.1//EN"
 "http://www.w3.org/Graphics/SVG/1.1/DTD/svg11.dtd">
<!-- Generated by graphviz version 2.36.0 (20140111.2315)
 -->
<!-- Title: keys.h Pages: 1 -->
<!--zoomable 364 -->
<svg id="main" version="1.1" xmlns="http://www.w3.org/2000/svg" xmlns:xlink="http://www.w3.org/1999/xlink" xml:space="preserve" onload="init(evt)">
<style type="text/css"><![CDATA[
.edge:hover path { stroke: red; }
.edge:hover polygon { stroke: red; fill: red; }
]]></style>
<script type="text/javascript"><![CDATA[
var edges = document.getElementsByTagName('g');
if (edges && edges.length) {
  for (var i=0;i<edges.length;i++) {
    if (edges[i].id.substr(0,4)=='edge') {
      edges[i].setAttribute('class','edge');
    }
  }
}
]]></script>
        <defs>
                <circle id="rim" cx="0" cy="0" r="7"/>
                <circle id="rim2" cx="0" cy="0" r="3.5"/>
                <g id="zoomPlus">
                        <use xlink:href="#rim" fill="#404040">
                                <set attributeName="fill" to="#808080" begin="zoomplus.mouseover" end="zoomplus.mouseout"/>
                        </use>
                        <path d="M-4,0h8M0,-4v8" fill="none" stroke="white" stroke-width="1.5" pointer-events="none"/>
                </g>
                <g id="zoomMin">
                        <use xlink:href="#rim" fill="#404040">
                                <set attributeName="fill" to="#808080" begin="zoomminus.mouseover" end="zoomminus.mouseout"/>
                        </use>
                        <path d="M-4,0h8" fill="none" stroke="white" stroke-width="1.5" pointer-events="none"/>
                </g>
                <g id="dirArrow">
                        <path fill="none" stroke="white" stroke-width="1.5" d="M0,-3.0v7 M-2.5,-0.5L0,-3.0L2.5,-0.5"/>
                </g>
               <g id="resetDef">
                       <use xlink:href="#rim2" fill="#404040">
                               <set attributeName="fill" to="#808080" begin="reset.mouseover" end="reset.mouseout"/>
                       </use>
               </g>
        </defs>

<script type="text/javascript">
var viewWidth = 1564;
var viewHeight = 364;
var sectionId = 'dynsection-1';
</script>
<script xlink:href="svgpan.js"/>
<svg id="graph" class="graph">
<g id="viewport">
<title>keys.h</title>
<!-- Node1 -->
<g id="node1" class="node"><title>Node1</title>
<polygon fill="#bfbfbf" stroke="black" points="1001.75,-337 1001.75,-355 1046.65,-355 1046.65,-337 1001.75,-337"/>
<text text-anchor="middle" x="1024.2" y="-343" font-family="Helvetica,sans-Serif" font-size="10.00">keys.h</text>
</g>
<!-- Node2 -->
<g id="node2" class="node"><title>Node2</title>
<g id="a_node2"><a xlink:href="NodeConstHandle_8h.html" target="_top" xlink:title="Declaration of NodeConstHandlke. ">
<polygon fill="none" stroke="black" points="971.173,-281 971.173,-299 1077.23,-299 1077.23,-281 971.173,-281"/>
<text text-anchor="middle" x="1024.2" y="-287" font-family="Helvetica,sans-Serif" font-size="10.00">NodeConstHandle.h</text>
</a>
</g>
</g>
<!-- Node1&#45;&gt;Node2 -->
<g id="edge1" class="edge"><title>Node1&#45;&gt;Node2</title>
<path fill="none" stroke="midnightblue" d="M1024.2,-326.329C1024.2,-317.077 1024.2,-306.38 1024.2,-299.201"/>
<polygon fill="midnightblue" stroke="midnightblue" points="1020.7,-326.562 1024.2,-336.562 1027.7,-326.563 1020.7,-326.562"/>
</g>
<!-- Node3 -->
<g id="node3" class="node"><title>Node3</title>
<g id="a_node3"><a xlink:href="Decorator_8h.html" target="_top" xlink:title="Mostly empty base classes for decorators and factories. ">
<polygon fill="none" stroke="black" points="334.353,-169 334.353,-187 402.052,-187 402.052,-169 334.353,-169"/>
<text text-anchor="middle" x="368.203" y="-175" font-family="Helvetica,sans-Serif" font-size="10.00">Decorator.h</text>
</a>
</g>
</g>
<!-- Node2&#45;&gt;Node3 -->
<g id="edge2" class="edge"><title>Node2&#45;&gt;Node3</title>
<path fill="none" stroke="midnightblue" d="M960.9,-287.549C835.994,-284.078 562.212,-273.289 473.203,-244 434.509,-231.267 395.413,-201.63 377.826,-187.195"/>
<polygon fill="midnightblue" stroke="midnightblue" points="960.983,-291.052 971.074,-287.824 961.172,-284.055 960.983,-291.052"/>
</g>
<!-- Node8 -->
<g id="node8" class="node"><title>Node8</title>
<g id="a_node8"><a xlink:href="benchmark__rmf_8cpp_source.html" target="_top" xlink:title="benchmark_rmf.cpp">
<polygon fill="none" stroke="black" points="823.018,-1 823.018,-19 927.387,-19 927.387,-1 823.018,-1"/>
<text text-anchor="middle" x="875.203" y="-7" font-family="Helvetica,sans-Serif" font-size="10.00">benchmark_rmf.cpp</text>
</a>
</g>
</g>
<!-- Node2&#45;&gt;Node8 -->
<g id="edge69" class="edge"><title>Node2&#45;&gt;Node8</title>
<path fill="none" stroke="midnightblue" d="M1009.68,-273.368C992.499,-253.186 966.203,-216.215 966.203,-179 966.203,-179 966.203,-179 966.203,-121 966.203,-73.1648 914.481,-34.9349 889.024,-19.0156"/>
<polygon fill="midnightblue" stroke="midnightblue" points="1007.13,-275.772 1016.38,-280.942 1012.38,-271.134 1007.13,-275.772"/>
</g>
<!-- Node17 -->
<g id="node17" class="node"><title>Node17</title>
<g id="a_node17"><a xlink:href="NodeHandle_8h.html" target="_top" xlink:title="Declaration of NodeHandle. ">
<polygon fill="none" stroke="black" points="482.235,-225 482.235,-243 562.171,-243 562.171,-225 482.235,-225"/>
<text text-anchor="middle" x="522.203" y="-231" font-family="Helvetica,sans-Serif" font-size="10.00">NodeHandle.h</text>
</a>
</g>
</g>
<!-- Node2&#45;&gt;Node17 -->
<g id="edge30" class="edge"><title>Node2&#45;&gt;Node17</title>
<path fill="none" stroke="midnightblue" d="M960.83,-282.183C856.006,-270.907 649.458,-248.689 562.402,-239.324"/>
<polygon fill="midnightblue" stroke="midnightblue" points="960.638,-285.682 970.955,-283.272 961.387,-278.723 960.638,-285.682"/>
</g>
<!-- Node19 -->
<g id="node19" class="node"><title>Node19</title>
<g id="a_node19"><a xlink:href="validate_8h.html" target="_top" xlink:title="Support for validating the data in a file. ">
<polygon fill="none" stroke="black" points="1031.8,-113 1031.8,-131 1090.61,-131 1090.61,-113 1031.8,-113"/>
<text text-anchor="middle" x="1061.2" y="-119" font-family="Helvetica,sans-Serif" font-size="10.00">validate.h</text>
</a>
</g>
</g>
<!-- Node2&#45;&gt;Node19 -->
<g id="edge68" class="edge"><title>Node2&#45;&gt;Node19</title>
<path fill="none" stroke="midnightblue" d="M1087.54,-283.869C1197.42,-273.512 1416.08,-245.975 1462.2,-188 1509.68,-128.327 1190.81,-123.087 1090.64,-122.899"/>
<polygon fill="midnightblue" stroke="midnightblue" points="1086.89,-280.414 1077.26,-284.819 1087.54,-287.385 1086.89,-280.414"/>
</g>
<!-- Node22 -->
<g id="node22" class="node"><title>Node22</title>
<g id="a_node22"><a xlink:href="FileConstHandle_8h.html" target="_top" xlink:title="Handle read/write of Model data from/to files. ">
<polygon fill="none" stroke="black" points="1033.07,-225 1033.07,-243 1131.34,-243 1131.34,-225 1033.07,-225"/>
<text text-anchor="middle" x="1082.2" y="-231" font-family="Helvetica,sans-Serif" font-size="10.00">FileConstHandle.h</text>
</a>
</g>
</g>
<!-- Node2&#45;&gt;Node22 -->
<g id="edge59" class="edge"><title>Node2&#45;&gt;Node22</title>
<path fill="none" stroke="midnightblue" d="M1040.73,-273.612C1051.36,-263.715 1064.75,-251.247 1073.39,-243.201"/>
<polygon fill="midnightblue" stroke="midnightblue" points="1038.2,-271.187 1033.27,-280.562 1042.97,-276.31 1038.2,-271.187"/>
</g>
<!-- Node27 -->
<g id="node27" class="node"><title>Node27</title>
<g id="a_node27"><a xlink:href="utility_8h.html" target="_top" xlink:title="Helper functions for manipulating RMF files. ">
<polygon fill="none" stroke="black" points="1510.01,-225 1510.01,-243 1556.4,-243 1556.4,-225 1510.01,-225"/>
<text text-anchor="middle" x="1533.2" y="-231" font-family="Helvetica,sans-Serif" font-size="10.00">utility.h</text>
</a>
</g>
</g>
<!-- Node2&#45;&gt;Node27 -->
<g id="edge67" class="edge"><title>Node2&#45;&gt;Node27</title>
<path fill="none" stroke="midnightblue" d="M1087.4,-285.864C1178.31,-280.7 1351.02,-268.448 1496.2,-244 1500.64,-243.254 1505.32,-242.269 1509.82,-241.225"/>
<polygon fill="midnightblue" stroke="midnightblue" points="1087.05,-282.378 1077.26,-286.43 1087.44,-289.367 1087.05,-282.378"/>
</g>
<!-- Node4 -->
<g id="node4" class="node"><title>Node4</title>
<g id="a_node4"><a xlink:href="alias_8h.html" target="_top" xlink:title="Helper functions for manipulating RMF files. ">
<polygon fill="none" stroke="black" points="513.75,-113 513.75,-131 558.656,-131 558.656,-113 513.75,-113"/>
<text text-anchor="middle" x="536.203" y="-119" font-family="Helvetica,sans-Serif" font-size="10.00">alias.h</text>
</a>
</g>
</g>
<!-- Node3&#45;&gt;Node4 -->
<g id="edge3" class="edge"><title>Node3&#45;&gt;Node4</title>
<path fill="none" stroke="midnightblue" d="M403.105,-165.781C436.283,-155.117 485.208,-139.391 513.576,-130.273"/>
<polygon fill="midnightblue" stroke="midnightblue" points="401.803,-162.523 393.354,-168.916 403.945,-169.188 401.803,-162.523"/>
</g>
<!-- Node6 -->
<g id="node6" class="node"><title>Node6</title>
<g id="a_node6"><a xlink:href="physics_8h.html" target="_top" xlink:title="Helper functions for manipulating RMF files. ">
<polygon fill="none" stroke="black" points="517.36,-57 517.36,-75 575.045,-75 575.045,-57 517.36,-57"/>
<text text-anchor="middle" x="546.203" y="-63" font-family="Helvetica,sans-Serif" font-size="10.00">physics.h</text>
</a>
</g>
</g>
<!-- Node3&#45;&gt;Node6 -->
<g id="edge13" class="edge"><title>Node3&#45;&gt;Node6</title>
<path fill="none" stroke="midnightblue" d="M350.767,-161.86C336.912,-147.998 321.758,-127.364 334.203,-112 356.938,-83.9322 464.82,-72.6536 517.341,-68.7685"/>
<polygon fill="midnightblue" stroke="midnightblue" points="348.461,-164.496 358.147,-168.788 353.252,-159.392 348.461,-164.496"/>
</g>
<!-- Node9 -->
<g id="node9" class="node"><title>Node9</title>
<g id="a_node9"><a xlink:href="external_8h.html" target="_top" xlink:title="Helper functions for manipulating RMF files. ">
<polygon fill="none" stroke="black" points="652.245,-113 652.245,-131 712.161,-131 712.161,-113 652.245,-113"/>
<text text-anchor="middle" x="682.203" y="-119" font-family="Helvetica,sans-Serif" font-size="10.00">external.h</text>
</a>
</g>
</g>
<!-- Node3&#45;&gt;Node9 -->
<g id="edge9" class="edge"><title>Node3&#45;&gt;Node9</title>
<path fill="none" stroke="midnightblue" d="M412.01,-169.466C476.776,-158.328 596.411,-137.754 652.155,-128.168"/>
<polygon fill="midnightblue" stroke="midnightblue" points="411.367,-166.025 402.105,-171.17 412.553,-172.924 411.367,-166.025"/>
</g>
<!-- Node10 -->
<g id="node10" class="node"><title>Node10</title>
<g id="a_node10"><a xlink:href="feature_8h.html" target="_top" xlink:title="Helper functions for manipulating RMF files. ">
<polygon fill="none" stroke="black" points="730.466,-113 730.466,-131 785.939,-131 785.939,-113 730.466,-113"/>
<text text-anchor="middle" x="758.203" y="-119" font-family="Helvetica,sans-Serif" font-size="10.00">feature.h</text>
</a>
</g>
</g>
<!-- Node3&#45;&gt;Node10 -->
<g id="edge11" class="edge"><title>Node3&#45;&gt;Node10</title>
<path fill="none" stroke="midnightblue" d="M412.553,-172.845C479.522,-166.231 610.308,-151.981 720.203,-132 723.538,-131.394 727.02,-130.681 730.464,-129.926"/>
<polygon fill="midnightblue" stroke="midnightblue" points="411.978,-169.385 402.366,-173.841 412.659,-176.352 411.978,-169.385"/>
</g>
<!-- Node11 -->
<g id="node11" class="node"><title>Node11</title>
<g id="a_node11"><a xlink:href="publication_8h.html" target="_top" xlink:title="Helper functions for manipulating RMF files. ">
<polygon fill="none" stroke="black" points="13.1266,-113 13.1266,-131 85.2789,-131 85.2789,-113 13.1266,-113"/>
<text text-anchor="middle" x="49.2027" y="-119" font-family="Helvetica,sans-Serif" font-size="10.00">publication.h</text>
</a>
</g>
</g>
<!-- Node3&#45;&gt;Node11 -->
<g id="edge14" class="edge"><title>Node3&#45;&gt;Node11</title>
<path fill="none" stroke="midnightblue" d="M323.998,-170.222C269.769,-161.797 175.071,-146.723 94.2027,-132 91.3809,-131.486 88.4629,-130.939 85.5314,-130.378"/>
<polygon fill="midnightblue" stroke="midnightblue" points="323.546,-173.694 333.964,-171.767 324.618,-166.777 323.546,-173.694"/>
</g>
<!-- Node12 -->
<g id="node12" class="node"><title>Node12</title>
<g id="a_node12"><a xlink:href="sequence_8h.html" target="_top" xlink:title="Helper functions for manipulating RMF files. ">
<polygon fill="none" stroke="black" points="317.348,-57 317.348,-75 385.057,-75 385.057,-57 317.348,-57"/>
<text text-anchor="middle" x="351.203" y="-63" font-family="Helvetica,sans-Serif" font-size="10.00">sequence.h</text>
</a>
</g>
</g>
<!-- Node3&#45;&gt;Node12 -->
<g id="edge16" class="edge"><title>Node3&#45;&gt;Node12</title>
<path fill="none" stroke="midnightblue" d="M337.215,-164.402C323.571,-157.11 308.914,-146.468 301.203,-132 289.216,-109.51 318.437,-86.6921 337.1,-75.0001"/>
<polygon fill="midnightblue" stroke="midnightblue" points="335.883,-167.648 346.401,-168.921 338.973,-161.367 335.883,-167.648"/>
</g>
<!-- Node13 -->
<g id="node13" class="node"><title>Node13</title>
<g id="a_node13"><a xlink:href="shape_8h.html" target="_top" xlink:title="Helper functions for manipulating RMF files. ">
<polygon fill="none" stroke="black" points="103.41,-113 103.41,-131 154.996,-131 154.996,-113 103.41,-113"/>
<text text-anchor="middle" x="129.203" y="-119" font-family="Helvetica,sans-Serif" font-size="10.00">shape.h</text>
</a>
</g>
</g>
<!-- Node3&#45;&gt;Node13 -->
<g id="edge20" class="edge"><title>Node3&#45;&gt;Node13</title>
<path fill="none" stroke="midnightblue" d="M324.167,-167.746C282.783,-158.94 219.162,-145.124 164.203,-132 161.274,-131.301 158.212,-130.547 155.172,-129.784"/>
<polygon fill="midnightblue" stroke="midnightblue" points="323.682,-171.221 334.191,-169.873 325.135,-164.373 323.682,-171.221"/>
</g>
<!-- Node14 -->
<g id="node14" class="node"><title>Node14</title>
<g id="a_node14"><a xlink:href="bond_8h.html" target="_top" xlink:title="Helper functions for manipulating RMF files. ">
<polygon fill="none" stroke="black" points="342.91,-113 342.91,-131 389.496,-131 389.496,-113 342.91,-113"/>
<text text-anchor="middle" x="366.203" y="-119" font-family="Helvetica,sans-Serif" font-size="10.00">bond.h</text>
</a>
</g>
</g>
<!-- Node3&#45;&gt;Node14 -->
<g id="edge23" class="edge"><title>Node3&#45;&gt;Node14</title>
<path fill="none" stroke="midnightblue" d="M367.511,-158.329C367.169,-149.077 366.772,-138.38 366.506,-131.201"/>
<polygon fill="midnightblue" stroke="midnightblue" points="364.022,-158.699 367.89,-168.562 371.018,-158.44 364.022,-158.699"/>
</g>
<!-- Node15 -->
<g id="node15" class="node"><title>Node15</title>
<g id="a_node15"><a xlink:href="representation_8h.html" target="_top" xlink:title="Helper functions for manipulating RMF files. ">
<polygon fill="none" stroke="black" points="407.067,-113 407.067,-131 495.338,-131 495.338,-113 407.067,-113"/>
<text text-anchor="middle" x="451.203" y="-119" font-family="Helvetica,sans-Serif" font-size="10.00">representation.h</text>
</a>
</g>
</g>
<!-- Node3&#45;&gt;Node15 -->
<g id="edge25" class="edge"><title>Node3&#45;&gt;Node15</title>
<path fill="none" stroke="midnightblue" d="M389.318,-163.262C404.942,-153.098 425.693,-139.596 438.75,-131.102"/>
<polygon fill="midnightblue" stroke="midnightblue" points="387.282,-160.411 380.809,-168.799 391.1,-166.279 387.282,-160.411"/>
</g>
<!-- Node16 -->
<g id="node16" class="node"><title>Node16</title>
<g id="a_node16"><a xlink:href="alternatives_8h.html" target="_top" xlink:title="Helper functions for manipulating RMF files. ">
<polygon fill="none" stroke="black" points="173.464,-113 173.464,-131 248.942,-131 248.942,-113 173.464,-113"/>
<text text-anchor="middle" x="211.203" y="-119" font-family="Helvetica,sans-Serif" font-size="10.00">alternatives.h</text>
</a>
</g>
</g>
<!-- Node3&#45;&gt;Node16 -->
<g id="edge27" class="edge"><title>Node3&#45;&gt;Node16</title>
<path fill="none" stroke="midnightblue" d="M335.046,-165.596C304.921,-155.234 261.239,-140.21 234.611,-131.051"/>
<polygon fill="midnightblue" stroke="midnightblue" points="334.104,-168.973 344.698,-168.916 336.38,-162.353 334.104,-168.973"/>
</g>
<!-- Node5 -->
<g id="node5" class="node"><title>Node5</title>
<g id="a_node5"><a xlink:href="decorators_8h.html" target="_top" xlink:title="Import all the decorators headers. ">
<polygon fill="none" stroke="black" points="415.41,-1 415.41,-19 486.996,-19 486.996,-1 415.41,-1"/>
<text text-anchor="middle" x="451.203" y="-7" font-family="Helvetica,sans-Serif" font-size="10.00">decorators.h</text>
</a>
</g>
</g>
<!-- Node4&#45;&gt;Node5 -->
<g id="edge4" class="edge"><title>Node4&#45;&gt;Node5</title>
<path fill="none" stroke="midnightblue" d="M523.543,-104.617C505.045,-80.6776 471.323,-37.0381 457.435,-19.0649"/>
<polygon fill="midnightblue" stroke="midnightblue" points="520.93,-106.959 529.814,-112.732 526.469,-102.679 520.93,-106.959"/>
</g>
<!-- Node4&#45;&gt;Node6 -->
<g id="edge5" class="edge"><title>Node4&#45;&gt;Node6</title>
<path fill="none" stroke="midnightblue" d="M539.604,-102.633C541.33,-93.3129 543.34,-82.4586 544.684,-75.2014"/>
<polygon fill="midnightblue" stroke="midnightblue" points="536.145,-102.092 537.765,-112.562 543.028,-103.367 536.145,-102.092"/>
</g>
<!-- Node6&#45;&gt;Node5 -->
<g id="edge6" class="edge"><title>Node6&#45;&gt;Node5</title>
<path fill="none" stroke="midnightblue" d="M523.031,-51.8288C505.043,-41.6041 480.68,-27.7552 465.456,-19.1017"/>
<polygon fill="midnightblue" stroke="midnightblue" points="521.351,-54.8996 531.774,-56.7986 524.81,-48.8141 521.351,-54.8996"/>
</g>
<!-- Node7 -->
<g id="node7" class="node"><title>Node7</title>
<g id="a_node7"><a xlink:href="TraverseHelper_8h.html" target="_top" xlink:title="A helper function for managing data when traversing an RMF. ">
<polygon fill="none" stroke="black" points="235.034,-1 235.034,-19 327.372,-19 327.372,-1 235.034,-1"/>
<text text-anchor="middle" x="281.203" y="-7" font-family="Helvetica,sans-Serif" font-size="10.00">TraverseHelper.h</text>
</a>
</g>
</g>
<!-- Node6&#45;&gt;Node7 -->
<g id="edge7" class="edge"><title>Node6&#45;&gt;Node7</title>
<path fill="none" stroke="midnightblue" d="M507.249,-57.0623C457.268,-46.8774 371.036,-29.3056 320.763,-19.0613"/>
<polygon fill="midnightblue" stroke="midnightblue" points="506.841,-60.551 517.339,-59.1183 508.239,-53.692 506.841,-60.551"/>
</g>
<!-- Node6&#45;&gt;Node8 -->
<g id="edge8" class="edge"><title>Node6&#45;&gt;Node8</title>
<path fill="none" stroke="midnightblue" d="M585.329,-58.5781C645.481,-48.7051 760.579,-29.8136 826.196,-19.0436"/>
<polygon fill="midnightblue" stroke="midnightblue" points="584.412,-55.1817 575.111,-60.2552 585.546,-62.0892 584.412,-55.1817"/>
</g>
<!-- Node9&#45;&gt;Node5 -->
<g id="edge10" class="edge"><title>Node9&#45;&gt;Node5</title>
<path fill="none" stroke="midnightblue" d="M663.553,-106.682C644.263,-92.3837 612.862,-70.5018 583.203,-56 549.815,-39.6752 509.008,-26.7485 481.684,-19.0141"/>
<polygon fill="midnightblue" stroke="midnightblue" points="661.655,-109.634 671.751,-112.846 665.861,-104.039 661.655,-109.634"/>
</g>
<!-- Node10&#45;&gt;Node5 -->
<g id="edge12" class="edge"><title>Node10&#45;&gt;Node5</title>
<path fill="none" stroke="midnightblue" d="M733.585,-108.357C705.48,-94.2667 657.869,-71.4398 615.203,-56 571.893,-40.3273 520.468,-27.0455 486.9,-19.0606"/>
<polygon fill="midnightblue" stroke="midnightblue" points="732.169,-111.563 742.673,-112.95 735.327,-105.315 732.169,-111.563"/>
</g>
<!-- Node11&#45;&gt;Node5 -->
<g id="edge15" class="edge"><title>Node11&#45;&gt;Node5</title>
<path fill="none" stroke="midnightblue" d="M76.8658,-108.801C110.275,-94.464 168.443,-70.7617 220.203,-56 287.98,-36.67 369.301,-22.9582 415.14,-16.0699"/>
<polygon fill="midnightblue" stroke="midnightblue" points="75.1139,-105.745 67.3267,-112.929 77.8942,-112.169 75.1139,-105.745"/>
</g>
<!-- Node12&#45;&gt;Node5 -->
<g id="edge17" class="edge"><title>Node12&#45;&gt;Node5</title>
<path fill="none" stroke="midnightblue" d="M375.334,-51.9693C394.293,-41.7312 420.101,-27.7949 436.2,-19.1017"/>
<polygon fill="midnightblue" stroke="midnightblue" points="373.527,-48.9673 366.391,-56.7986 376.853,-55.1267 373.527,-48.9673"/>
</g>
<!-- Node12&#45;&gt;Node7 -->
<g id="edge18" class="edge"><title>Node12&#45;&gt;Node7</title>
<path fill="none" stroke="midnightblue" d="M332.329,-50.4399C319.379,-40.4506 302.662,-27.554 291.934,-19.2786"/>
<polygon fill="midnightblue" stroke="midnightblue" points="330.516,-53.4617 340.571,-56.7986 334.791,-47.9192 330.516,-53.4617"/>
</g>
<!-- Node12&#45;&gt;Node8 -->
<g id="edge19" class="edge"><title>Node12&#45;&gt;Node8</title>
<path fill="none" stroke="midnightblue" d="M395.144,-60.4717C491.236,-50.569 719.696,-27.0255 822.947,-16.3851"/>
<polygon fill="midnightblue" stroke="midnightblue" points="394.769,-56.9918 385.18,-61.4985 395.486,-63.9549 394.769,-56.9918"/>
</g>
<!-- Node13&#45;&gt;Node5 -->
<g id="edge21" class="edge"><title>Node13&#45;&gt;Node5</title>
<path fill="none" stroke="midnightblue" d="M153.573,-108.166C181.414,-93.9041 228.631,-70.9217 271.203,-56 319.992,-38.8988 378.357,-25.5528 415.113,-17.9752"/>
<polygon fill="midnightblue" stroke="midnightblue" points="151.848,-105.118 144.573,-112.82 155.063,-111.336 151.848,-105.118"/>
</g>
<!-- Node13&#45;&gt;Node7 -->
<g id="edge22" class="edge"><title>Node13&#45;&gt;Node7</title>
<path fill="none" stroke="midnightblue" d="M148.861,-106.774C181.168,-83.3935 244.457,-37.5923 270.059,-19.0649"/>
<polygon fill="midnightblue" stroke="midnightblue" points="146.677,-104.034 140.627,-112.732 150.781,-109.705 146.677,-104.034"/>
</g>
<!-- Node14&#45;&gt;Node5 -->
<g id="edge24" class="edge"><title>Node14&#45;&gt;Node5</title>
<path fill="none" stroke="midnightblue" d="M378.863,-104.617C397.361,-80.6776 431.082,-37.0381 444.971,-19.0649"/>
<polygon fill="midnightblue" stroke="midnightblue" points="375.937,-102.679 372.592,-112.732 381.476,-106.959 375.937,-102.679"/>
</g>
<!-- Node15&#45;&gt;Node5 -->
<g id="edge26" class="edge"><title>Node15&#45;&gt;Node5</title>
<path fill="none" stroke="midnightblue" d="M451.203,-102.678C451.203,-78.3886 451.203,-36.563 451.203,-19.0649"/>
<polygon fill="midnightblue" stroke="midnightblue" points="447.703,-102.732 451.203,-112.732 454.703,-102.732 447.703,-102.732"/>
</g>
<!-- Node16&#45;&gt;Node5 -->
<g id="edge28" class="edge"><title>Node16&#45;&gt;Node5</title>
<path fill="none" stroke="midnightblue" d="M229.056,-106.742C247.835,-92.3123 278.702,-70.1644 308.203,-56 343.396,-39.1025 386.443,-26.5572 416.056,-19.0652"/>
<polygon fill="midnightblue" stroke="midnightblue" points="226.826,-104.043 221.097,-112.955 231.133,-109.561 226.826,-104.043"/>
</g>
<!-- Node16&#45;&gt;Node7 -->
<g id="edge29" class="edge"><title>Node16&#45;&gt;Node7</title>
<path fill="none" stroke="midnightblue" d="M222.034,-103.979C237.351,-79.9106 264.734,-36.8797 276.071,-19.0649"/>
<polygon fill="midnightblue" stroke="midnightblue" points="218.88,-102.416 216.464,-112.732 224.786,-106.175 218.88,-102.416"/>
</g>
<!-- Node17&#45;&gt;Node3 -->
<g id="edge31" class="edge"><title>Node17&#45;&gt;Node3</title>
<path fill="none" stroke="midnightblue" d="M489.68,-221.596C460.13,-211.234 417.283,-196.21 391.164,-187.051"/>
<polygon fill="midnightblue" stroke="midnightblue" points="488.553,-224.909 499.147,-224.916 490.869,-218.304 488.553,-224.909"/>
</g>
<!-- Node17&#45;&gt;Node4 -->
<g id="edge32" class="edge"><title>Node17&#45;&gt;Node4</title>
<path fill="none" stroke="midnightblue" d="M524.535,-214.678C527.626,-190.389 532.949,-148.563 535.176,-131.065"/>
<polygon fill="midnightblue" stroke="midnightblue" points="521.046,-214.37 523.255,-224.732 527.99,-215.254 521.046,-214.37"/>
</g>
<!-- Node17&#45;&gt;Node6 -->
<g id="edge48" class="edge"><title>Node17&#45;&gt;Node6</title>
<path fill="none" stroke="midnightblue" d="M572.277,-231.763C637.446,-227.054 748.397,-207.673 794.203,-132 798.806,-124.396 799.899,-118.823 794.203,-112 766.579,-78.9131 634.61,-70.101 575.247,-67.7966"/>
<polygon fill="midnightblue" stroke="midnightblue" points="571.987,-228.274 562.228,-232.399 572.429,-235.26 571.987,-228.274"/>
</g>
<!-- Node17&#45;&gt;Node8 -->
<g id="edge58" class="edge"><title>Node17&#45;&gt;Node8</title>
<path fill="none" stroke="midnightblue" d="M572.281,-230.659C670.748,-225.552 881.969,-211.911 904.203,-188 944.181,-145.006 927.867,-111.663 909.203,-56 904.284,-41.3317 892.486,-27.6282 884.173,-19.286"/>
<polygon fill="midnightblue" stroke="midnightblue" points="572.073,-227.165 562.264,-231.169 572.429,-234.156 572.073,-227.165"/>
</g>
<!-- Node17&#45;&gt;Node9 -->
<g id="edge46" class="edge"><title>Node17&#45;&gt;Node9</title>
<path fill="none" stroke="midnightblue" d="M562.662,-221.83C584.394,-214.526 610.828,-203.442 631.203,-188 652.466,-171.886 669.753,-144.874 677.618,-131.307"/>
<polygon fill="midnightblue" stroke="midnightblue" points="561.494,-218.529 553.046,-224.922 563.637,-225.193 561.494,-218.529"/>
</g>
<!-- Node17&#45;&gt;Node10 -->
<g id="edge47" class="edge"><title>Node17&#45;&gt;Node10</title>
<path fill="none" stroke="midnightblue" d="M562.42,-222.102C589.318,-214.164 625.152,-202.317 655.203,-188 690.709,-171.084 728.993,-144.436 747.275,-131.128"/>
<polygon fill="midnightblue" stroke="midnightblue" points="561.212,-218.808 552.579,-224.951 563.158,-225.532 561.212,-218.808"/>
</g>
<!-- Node17&#45;&gt;Node11 -->
<g id="edge49" class="edge"><title>Node17&#45;&gt;Node11</title>
<path fill="none" stroke="midnightblue" d="M472.211,-228.811C411.951,-223.013 307.964,-210.603 221.203,-188 163.127,-172.87 97.5895,-144.907 66.8701,-131.12"/>
<polygon fill="midnightblue" stroke="midnightblue" points="471.934,-232.301 482.218,-229.752 472.59,-225.331 471.934,-232.301"/>
</g>
<!-- Node17&#45;&gt;Node12 -->
<g id="edge50" class="edge"><title>Node17&#45;&gt;Node12</title>
<path fill="none" stroke="midnightblue" d="M471.829,-231.63C352.259,-227.141 57.3443,-208.386 4.20274,-132 -0.873588,-124.703 -1.66458,-118.677 4.20274,-112 24.7028,-88.6698 233.881,-73.8976 317.212,-68.8982"/>
<polygon fill="midnightblue" stroke="midnightblue" points="472.046,-235.14 482.165,-231.998 472.296,-228.144 472.046,-235.14"/>
</g>
<!-- Node17&#45;&gt;Node13 -->
<g id="edge51" class="edge"><title>Node17&#45;&gt;Node13</title>
<path fill="none" stroke="midnightblue" d="M471.812,-227.049C422.107,-220.394 344.336,-207.864 279.203,-188 228.166,-172.435 171.193,-144.676 144.528,-131.028"/>
<polygon fill="midnightblue" stroke="midnightblue" points="471.608,-230.552 481.977,-228.38 472.517,-223.611 471.608,-230.552"/>
</g>
<!-- Node17&#45;&gt;Node14 -->
<g id="edge52" class="edge"><title>Node17&#45;&gt;Node14</title>
<path fill="none" stroke="midnightblue" d="M502.323,-218.982C469.279,-195.682 404.077,-149.706 377.691,-131.1"/>
<polygon fill="midnightblue" stroke="midnightblue" points="500.542,-222.009 510.732,-224.911 504.576,-216.288 500.542,-222.009"/>
</g>
<!-- Node17&#45;&gt;Node15 -->
<g id="edge53" class="edge"><title>Node17&#45;&gt;Node15</title>
<path fill="none" stroke="midnightblue" d="M511.423,-216.299C495.929,-192.294 467.958,-148.959 456.408,-131.065"/>
<polygon fill="midnightblue" stroke="midnightblue" points="508.502,-218.228 516.866,-224.732 514.384,-214.432 508.502,-218.228"/>
</g>
<!-- Node17&#45;&gt;Node16 -->
<g id="edge54" class="edge"><title>Node17&#45;&gt;Node16</title>
<path fill="none" stroke="midnightblue" d="M472.022,-225.722C431.474,-218.857 373.421,-206.779 325.203,-188 285.291,-172.456 242.519,-144.687 222.612,-131.032"/>
<polygon fill="midnightblue" stroke="midnightblue" points="471.501,-229.183 481.937,-227.356 472.639,-222.276 471.501,-229.183"/>
</g>
<!-- Node18 -->
<g id="node18" class="node"><title>Node18</title>
<g id="a_node18"><a xlink:href="FileHandle_8h.html" target="_top" xlink:title="Declaration for RMF::FileHandle. ">
<polygon fill="none" stroke="black" points="550.131,-169 550.131,-187 622.274,-187 622.274,-169 550.131,-169"/>
<text text-anchor="middle" x="586.203" y="-175" font-family="Helvetica,sans-Serif" font-size="10.00">FileHandle.h</text>
</a>
</g>
</g>
<!-- Node17&#45;&gt;Node18 -->
<g id="edge33" class="edge"><title>Node17&#45;&gt;Node18</title>
<path fill="none" stroke="midnightblue" d="M539.802,-218.151C551.592,-208.203 566.677,-195.474 576.391,-187.279"/>
<polygon fill="midnightblue" stroke="midnightblue" points="537.309,-215.675 531.923,-224.799 541.823,-221.025 537.309,-215.675"/>
</g>
<!-- Node20 -->
<g id="node20" class="node"><title>Node20</title>
<g id="a_node20"><a xlink:href="Label_8h.html" target="_top" xlink:title="Declaration of RMF::Label. ">
<polygon fill="none" stroke="black" points="846.799,-169 846.799,-187 895.607,-187 895.607,-169 846.799,-169"/>
<text text-anchor="middle" x="871.203" y="-175" font-family="Helvetica,sans-Serif" font-size="10.00">Label.h</text>
</a>
</g>
</g>
<!-- Node17&#45;&gt;Node20 -->
<g id="edge55" class="edge"><title>Node17&#45;&gt;Node20</title>
<path fill="none" stroke="midnightblue" d="M572.513,-226.548C633.274,-218.539 738.499,-203.968 828.203,-188 834.21,-186.931 840.662,-185.651 846.694,-184.396"/>
<polygon fill="midnightblue" stroke="midnightblue" points="571.886,-223.101 562.426,-227.872 572.796,-230.041 571.886,-223.101"/>
</g>
<!-- Node18&#45;&gt;Node4 -->
<g id="edge34" class="edge"><title>Node18&#45;&gt;Node4</title>
<path fill="none" stroke="midnightblue" d="M571.412,-161.027C562.34,-151.228 551.101,-139.09 543.797,-131.201"/>
<polygon fill="midnightblue" stroke="midnightblue" points="569.028,-163.603 578.39,-168.562 574.164,-158.847 569.028,-163.603"/>
</g>
<!-- Node18&#45;&gt;Node6 -->
<g id="edge37" class="edge"><title>Node18&#45;&gt;Node6</title>
<path fill="none" stroke="midnightblue" d="M595.817,-159.494C601.866,-146.006 607.304,-127.161 600.203,-112 592.387,-95.3124 575.004,-82.6548 562.059,-75.0789"/>
<polygon fill="midnightblue" stroke="midnightblue" points="592.599,-158.104 591.27,-168.615 598.864,-161.228 592.599,-158.104"/>
</g>
<!-- Node18&#45;&gt;Node8 -->
<g id="edge45" class="edge"><title>Node18&#45;&gt;Node8</title>
<path fill="none" stroke="midnightblue" d="M632.404,-177.116C677.512,-175.056 746.189,-165.916 794.203,-132 826.641,-109.086 818.763,-88.7681 841.203,-56 850.276,-42.7505 861.678,-28.0089 868.701,-19.1246"/>
<polygon fill="midnightblue" stroke="midnightblue" points="632.181,-173.622 622.312,-177.477 632.431,-180.618 632.181,-173.622"/>
</g>
<!-- Node18&#45;&gt;Node9 -->
<g id="edge35" class="edge"><title>Node18&#45;&gt;Node9</title>
<path fill="none" stroke="midnightblue" d="M609.618,-163.829C627.795,-153.604 652.416,-139.755 667.8,-131.102"/>
<polygon fill="midnightblue" stroke="midnightblue" points="607.783,-160.845 600.783,-168.799 611.215,-166.946 607.783,-160.845"/>
</g>
<!-- Node18&#45;&gt;Node10 -->
<g id="edge36" class="edge"><title>Node18&#45;&gt;Node10</title>
<path fill="none" stroke="midnightblue" d="M621.67,-165.865C654.697,-155.496 703.133,-140.289 732.558,-131.051"/>
<polygon fill="midnightblue" stroke="midnightblue" points="620.445,-162.581 611.953,-168.916 622.542,-169.26 620.445,-162.581"/>
</g>
<!-- Node18&#45;&gt;Node11 -->
<g id="edge38" class="edge"><title>Node18&#45;&gt;Node11</title>
<path fill="none" stroke="midnightblue" d="M539.813,-174.405C452.332,-169.146 257.131,-155.676 94.2027,-132 91.3644,-131.588 88.4344,-131.113 85.4947,-130.602"/>
<polygon fill="midnightblue" stroke="midnightblue" points="539.748,-177.907 549.938,-175.006 540.163,-170.919 539.748,-177.907"/>
</g>
<!-- Node18&#45;&gt;Node12 -->
<g id="edge39" class="edge"><title>Node18&#45;&gt;Node12</title>
<path fill="none" stroke="midnightblue" d="M585.745,-158.462C584.356,-143.781 580.012,-123.836 567.203,-112 541.108,-87.8894 439.418,-75.0927 385.387,-69.8731"/>
<polygon fill="midnightblue" stroke="midnightblue" points="582.273,-159.065 586.329,-168.853 589.262,-158.672 582.273,-159.065"/>
</g>
<!-- Node18&#45;&gt;Node13 -->
<g id="edge40" class="edge"><title>Node18&#45;&gt;Node13</title>
<path fill="none" stroke="midnightblue" d="M539.653,-174.258C461.555,-169.161 299.405,-156.458 164.203,-132 161.239,-131.464 158.157,-130.812 155.104,-130.108"/>
<polygon fill="midnightblue" stroke="midnightblue" points="539.901,-177.781 550.104,-174.927 540.348,-170.795 539.901,-177.781"/>
</g>
<!-- Node18&#45;&gt;Node14 -->
<g id="edge41" class="edge"><title>Node18&#45;&gt;Node14</title>
<path fill="none" stroke="midnightblue" d="M540.973,-166.698C502.815,-157.882 446.801,-144.645 398.203,-132 395.41,-131.273 392.488,-130.487 389.593,-129.693"/>
<polygon fill="midnightblue" stroke="midnightblue" points="540.227,-170.118 550.757,-168.952 541.798,-163.297 540.227,-170.118"/>
</g>
<!-- Node18&#45;&gt;Node15 -->
<g id="edge42" class="edge"><title>Node18&#45;&gt;Node15</title>
<path fill="none" stroke="midnightblue" d="M556.701,-165.199C530.922,-154.888 494.177,-140.19 471.552,-131.14"/>
<polygon fill="midnightblue" stroke="midnightblue" points="555.407,-168.451 565.992,-168.916 558.007,-161.952 555.407,-168.451"/>
</g>
<!-- Node18&#45;&gt;Node16 -->
<g id="edge43" class="edge"><title>Node18&#45;&gt;Node16</title>
<path fill="none" stroke="midnightblue" d="M539.814,-170.32C464.827,-159.522 318.407,-138.437 249.19,-128.47"/>
<polygon fill="midnightblue" stroke="midnightblue" points="539.509,-173.812 549.905,-171.773 540.506,-166.884 539.509,-173.812"/>
</g>
<!-- Node18&#45;&gt;Node19 -->
<g id="edge44" class="edge"><title>Node18&#45;&gt;Node19</title>
<path fill="none" stroke="midnightblue" d="M632.376,-171.751C729.286,-160.734 951.548,-135.466 1031.7,-126.354"/>
<polygon fill="midnightblue" stroke="midnightblue" points="631.835,-168.29 622.295,-172.897 632.626,-175.245 631.835,-168.29"/>
</g>
<!-- Node21 -->
<g id="node21" class="node"><title>Node21</title>
<g id="a_node21"><a xlink:href="labels_8h.html" target="_top" xlink:title="Helper functions for manipulating RMF files. ">
<polygon fill="none" stroke="black" points="849.969,-57 849.969,-75 900.437,-75 900.437,-57 849.969,-57"/>
<text text-anchor="middle" x="875.203" y="-63" font-family="Helvetica,sans-Serif" font-size="10.00">labels.h</text>
</a>
</g>
</g>
<!-- Node20&#45;&gt;Node21 -->
<g id="edge56" class="edge"><title>Node20&#45;&gt;Node21</title>
<path fill="none" stroke="midnightblue" d="M871.869,-158.678C872.752,-134.389 874.273,-92.563 874.909,-75.0649"/>
<polygon fill="midnightblue" stroke="midnightblue" points="868.369,-158.612 871.503,-168.732 875.365,-158.866 868.369,-158.612"/>
</g>
<!-- Node21&#45;&gt;Node5 -->
<g id="edge57" class="edge"><title>Node21&#45;&gt;Node5</title>
<path fill="none" stroke="midnightblue" d="M839.926,-60.5073C760.269,-50.3623 567.185,-25.7714 487.019,-15.5615"/>
<polygon fill="midnightblue" stroke="midnightblue" points="839.587,-63.9923 849.949,-61.7838 840.472,-57.0483 839.587,-63.9923"/>
</g>
<!-- Node22&#45;&gt;Node8 -->
<g id="edge66" class="edge"><title>Node22&#45;&gt;Node8</title>
<path fill="none" stroke="midnightblue" d="M1071.84,-215.929C1066.78,-207.541 1060.63,-197.267 1055.2,-188 1040.72,-163.264 1037.37,-156.919 1023.2,-132 1004.02,-98.263 1009.11,-81.8925 980.203,-56 959.668,-37.6078 930.477,-25.9217 908.084,-19.0816"/>
<polygon fill="midnightblue" stroke="midnightblue" points="1069,-217.994 1077.17,-224.738 1074.99,-214.37 1069,-217.994"/>
</g>
<!-- Node22&#45;&gt;Node18 -->
<g id="edge60" class="edge"><title>Node22&#45;&gt;Node18</title>
<path fill="none" stroke="midnightblue" d="M1022.83,-226.536C918.994,-215.231 707.426,-192.198 622.59,-182.962"/>
<polygon fill="midnightblue" stroke="midnightblue" points="1022.51,-230.022 1032.83,-227.625 1023.27,-223.063 1022.51,-230.022"/>
</g>
<!-- Node22&#45;&gt;Node19 -->
<g id="edge65" class="edge"><title>Node22&#45;&gt;Node19</title>
<path fill="none" stroke="midnightblue" d="M1072.08,-215.929C1067.82,-207.773 1063.35,-197.694 1061.2,-188 1056.75,-167.949 1058.63,-143.555 1060.09,-131.128"/>
<polygon fill="midnightblue" stroke="midnightblue" points="1069.08,-217.74 1077.01,-224.769 1075.2,-214.331 1069.08,-217.74"/>
</g>
<!-- Node23 -->
<g id="node23" class="node"><title>Node23</title>
<g id="a_node23"><a xlink:href="info_8h.html" target="_top" xlink:title="Show info about the file. ">
<polygon fill="none" stroke="black" points="1273.97,-169 1273.97,-187 1314.43,-187 1314.43,-169 1273.97,-169"/>
<text text-anchor="middle" x="1294.2" y="-175" font-family="Helvetica,sans-Serif" font-size="10.00">info.h</text>
</a>
</g>
</g>
<!-- Node22&#45;&gt;Node23 -->
<g id="edge61" class="edge"><title>Node22&#45;&gt;Node23</title>
<path fill="none" stroke="midnightblue" d="M1126.84,-222.61C1163.78,-213.856 1217.57,-200.752 1264.2,-188 1267.35,-187.139 1270.67,-186.188 1273.91,-185.235"/>
<polygon fill="midnightblue" stroke="midnightblue" points="1125.81,-219.255 1116.89,-224.959 1127.42,-226.068 1125.81,-219.255"/>
</g>
<!-- Node24 -->
<g id="node24" class="node"><title>Node24</title>
<g id="a_node24"><a xlink:href="RestoreCurrentFrame_8h.html" target="_top" xlink:title="Restore the current frame when exiting a scope. ">
<polygon fill="none" stroke="black" points="1332.41,-169 1332.41,-187 1454,-187 1454,-169 1332.41,-169"/>
<text text-anchor="middle" x="1393.2" y="-175" font-family="Helvetica,sans-Serif" font-size="10.00">RestoreCurrentFrame.h</text>
</a>
</g>
</g>
<!-- Node22&#45;&gt;Node24 -->
<g id="edge62" class="edge"><title>Node22&#45;&gt;Node24</title>
<path fill="none" stroke="midnightblue" d="M1138.44,-223.236C1198.14,-212.869 1291.39,-196.677 1346.98,-187.026"/>
<polygon fill="midnightblue" stroke="midnightblue" points="1137.68,-219.815 1128.43,-224.974 1138.88,-226.712 1137.68,-219.815"/>
</g>
<!-- Node25 -->
<g id="node25" class="node"><title>Node25</title>
<g id="a_node25"><a xlink:href="SetCurrentFrame_8h.html" target="_top" xlink:title="Temporarily change the current frame. ">
<polygon fill="none" stroke="black" points="1070.41,-169 1070.41,-187 1172,-187 1172,-169 1070.41,-169"/>
<text text-anchor="middle" x="1121.2" y="-175" font-family="Helvetica,sans-Serif" font-size="10.00">SetCurrentFrame.h</text>
</a>
</g>
</g>
<!-- Node22&#45;&gt;Node25 -->
<g id="edge63" class="edge"><title>Node22&#45;&gt;Node25</title>
<path fill="none" stroke="midnightblue" d="M1094.17,-216.436C1101.17,-206.744 1109.7,-194.932 1115.28,-187.201"/>
<polygon fill="midnightblue" stroke="midnightblue" points="1091.31,-214.406 1088.3,-224.562 1096.99,-218.505 1091.31,-214.406"/>
</g>
<!-- Node26 -->
<g id="node26" class="node"><title>Node26</title>
<g id="a_node26"><a xlink:href="signature_8h.html" target="_top" xlink:title="Return a (long) string describing a file that can be compared. ">
<polygon fill="none" stroke="black" points="1190.46,-169 1190.46,-187 1255.94,-187 1255.94,-169 1190.46,-169"/>
<text text-anchor="middle" x="1223.2" y="-175" font-family="Helvetica,sans-Serif" font-size="10.00">signature.h</text>
</a>
</g>
</g>
<!-- Node22&#45;&gt;Node26 -->
<g id="edge64" class="edge"><title>Node22&#45;&gt;Node26</title>
<path fill="none" stroke="midnightblue" d="M1112.66,-221.335C1139.6,-211.017 1178.21,-196.229 1201.95,-187.14"/>
<polygon fill="midnightblue" stroke="midnightblue" points="1111.4,-218.071 1103.31,-224.916 1113.9,-224.608 1111.4,-218.071"/>
</g>
</g>
</svg>
        <g id="navigator" transform="translate(0 0)" fill="#404254">
                <rect fill="#f2f5e9" fill-opacity="0.5" stroke="#606060" stroke-width=".5" x="0" y="0" width="60" height="60"/>
                <use id="zoomplus" xlink:href="#zoomPlus" x="17" y="9" onmousedown="handleZoom(evt,'in')"/>
                <use id="zoomminus" xlink:href="#zoomMin" x="42" y="9" onmousedown="handleZoom(evt,'out')"/>
                <use id="reset" xlink:href="#resetDef" x="30" y="36" onmousedown="handleReset()"/>
                <g id="arrowUp" xlink:href="#dirArrow" transform="translate(30 24)" onmousedown="handlePan(0,-1)">
                  <use xlink:href="#rim" fill="#404040">
                        <set attributeName="fill" to="#808080" begin="arrowUp.mouseover" end="arrowUp.mouseout"/>
                  </use>
                  <path fill="none" stroke="white" stroke-width="1.5" d="M0,-3.0v7 M-2.5,-0.5L0,-3.0L2.5,-0.5"/>
                </g>
                <g id="arrowRight" xlink:href="#dirArrow" transform="rotate(90) translate(36 -43)" onmousedown="handlePan(1,0)">
                  <use xlink:href="#rim" fill="#404040">
                        <set attributeName="fill" to="#808080" begin="arrowRight.mouseover" end="arrowRight.mouseout"/>
                  </use>
                  <path fill="none" stroke="white" stroke-width="1.5" d="M0,-3.0v7 M-2.5,-0.5L0,-3.0L2.5,-0.5"/>
                </g>
                <g id="arrowDown" xlink:href="#dirArrow" transform="rotate(180) translate(-30 -48)" onmousedown="handlePan(0,1)">
                  <use xlink:href="#rim" fill="#404040">
                        <set attributeName="fill" to="#808080" begin="arrowDown.mouseover" end="arrowDown.mouseout"/>
                  </use>
                  <path fill="none" stroke="white" stroke-width="1.5" d="M0,-3.0v7 M-2.5,-0.5L0,-3.0L2.5,-0.5"/>
                </g>
                <g id="arrowLeft" xlink:href="#dirArrow" transform="rotate(270) translate(-36 17)" onmousedown="handlePan(-1,0)">
                  <use xlink:href="#rim" fill="#404040">
                        <set attributeName="fill" to="#808080" begin="arrowLeft.mouseover" end="arrowLeft.mouseout"/>
                  </use>
                  <path fill="none" stroke="white" stroke-width="1.5" d="M0,-3.0v7 M-2.5,-0.5L0,-3.0L2.5,-0.5"/>
                </g>
        </g>
        <svg viewBox="0 0 15 15" width="100%" height="30px" preserveAspectRatio="xMaxYMin meet">
         <g id="arrow_out" transform="scale(0.3 0.3)">
          <a xlink:href="keys_8h__dep__incl_org.svg" target="_base">
           <rect id="button" ry="5" rx="5" y="6" x="6" height="38" width="38"
                fill="#f2f5e9" fill-opacity="0.5" stroke="#606060" stroke-width="1.0"/>
           <path id="arrow"
             d="M 11.500037,31.436501 C 11.940474,20.09759 22.043105,11.32322 32.158766,21.979434 L 37.068811,17.246167 C 37.068811,17.246167 37.088388,32 37.088388,32 L 22.160133,31.978069 C 22.160133,31.978069 26.997745,27.140456 26.997745,27.140456 C 18.528582,18.264221 13.291696,25.230495 11.500037,31.436501 z"
             style="fill:#404040;"/>
          </a>
         </g>
        </svg>
</svg>
