<?xml version="1.0" encoding="UTF-8" standalone="no"?>
<!DOCTYPE svg PUBLIC "-//W3C//DTD SVG 1.1//EN"
 "http://www.w3.org/Graphics/SVG/1.1/DTD/svg11.dtd">
<!-- Generated by graphviz version 2.34.0 (20131025.1349)
 -->
<!-- Title: Label.h Pages: 1 -->
<svg width="78pt" height="146pt"
 viewBox="0.00 0.00 78.00 146.00" xmlns="http://www.w3.org/2000/svg" xmlns:xlink="http://www.w3.org/1999/xlink">
<g id="graph0" class="graph" transform="scale(1 1) rotate(0) translate(4 142)">
<title>Label.h</title>
<!-- Node1 -->
<g id="node1" class="node"><title>Node1</title>
<polygon fill="#bfbfbf" stroke="black" points="10.5962,-117 10.5962,-137 59.4038,-137 59.4038,-117 10.5962,-117"/>
<text text-anchor="middle" x="35" y="-123" font-family="Helvetica,sans-Serif" font-size="10.00">Label.h</text>
</g>
<!-- Node2 -->
<g id="node2" class="node"><title>Node2</title>
<g id="a_node2"><a xlink:href="labels_8h.html" target="_top" xlink:title="Helper functions for manipulating RMF files. ">
<polygon fill="none" stroke="black" points="9.76611,-59 9.76611,-79 60.2339,-79 60.2339,-59 9.76611,-59"/>
<text text-anchor="middle" x="35" y="-65" font-family="Helvetica,sans-Serif" font-size="10.00">labels.h</text>
</a>
</g>
</g>
<!-- Node1&#45;&gt;Node2 -->
<g id="edge1" class="edge"><title>Node1&#45;&gt;Node2</title>
<path fill="none" stroke="midnightblue" d="M35,-106.707C35,-97.3384 35,-86.5262 35,-79.0752"/>
<polygon fill="midnightblue" stroke="midnightblue" points="31.5001,-106.753 35,-116.753 38.5001,-106.753 31.5001,-106.753"/>
</g>
<!-- Node3 -->
<g id="node3" class="node"><title>Node3</title>
<g id="a_node3"><a xlink:href="decorators_8h.html" target="_top" xlink:title="Import all the decorators headers. ">
<polygon fill="none" stroke="black" points="-0.792969,-1 -0.792969,-21 70.793,-21 70.793,-1 -0.792969,-1"/>
<text text-anchor="middle" x="35" y="-7" font-family="Helvetica,sans-Serif" font-size="10.00">decorators.h</text>
</a>
</g>
</g>
<!-- Node2&#45;&gt;Node3 -->
<g id="edge2" class="edge"><title>Node2&#45;&gt;Node3</title>
<path fill="none" stroke="midnightblue" d="M35,-48.7065C35,-39.3384 35,-28.5262 35,-21.0752"/>
<polygon fill="midnightblue" stroke="midnightblue" points="31.5001,-48.7527 35,-58.7527 38.5001,-48.7528 31.5001,-48.7527"/>
</g>
</g>
</svg>
