<?xml version="1.0" encoding="UTF-8" standalone="no"?>
<!DOCTYPE svg PUBLIC "-//W3C//DTD SVG 1.1//EN"
 "http://www.w3.org/Graphics/SVG/1.1/DTD/svg11.dtd">
<!-- Generated by graphviz version 2.34.0 (20131025.1349)
 -->
<!-- Title: log.h Pages: 1 -->
<svg width="676pt" height="146pt"
 viewBox="0.00 0.00 676.00 146.00" xmlns="http://www.w3.org/2000/svg" xmlns:xlink="http://www.w3.org/1999/xlink">
<g id="graph0" class="graph" transform="scale(1 1) rotate(0) translate(4 142)">
<title>log.h</title>
<!-- Node1 -->
<g id="node1" class="node"><title>Node1</title>
<polygon fill="#bfbfbf" stroke="black" points="227.158,-117 227.158,-137 264.842,-137 264.842,-117 227.158,-117"/>
<text text-anchor="middle" x="246" y="-123" font-family="Helvetica,sans-Serif" font-size="10.00">log.h</text>
</g>
<!-- Node2 -->
<g id="node2" class="node"><title>Node2</title>
<polygon fill="none" stroke="#bfbfbf" points="-0.226562,-59 -0.226562,-79 40.2266,-79 40.2266,-59 -0.226562,-59"/>
<text text-anchor="middle" x="20" y="-65" font-family="Helvetica,sans-Serif" font-size="10.00">string</text>
</g>
<!-- Node1&#45;&gt;Node2 -->
<g id="edge1" class="edge"><title>Node1&#45;&gt;Node2</title>
<path fill="none" stroke="midnightblue" d="M227.092,-122.26C193.386,-115.45 120.562,-100.097 50.3913,-80.2017"/>
<polygon fill="midnightblue" stroke="midnightblue" points="51.0895,-76.7608 40.5119,-77.3646 49.1574,-83.4889 51.0895,-76.7608"/>
</g>
<!-- Node3 -->
<g id="node3" class="node"><title>Node3</title>
<g id="a_node3"><a xlink:href="config_8h_source.html" target="_top" xlink:title="RMF/config.h">
<polygon fill="none" stroke="black" points="58.2686,-59 58.2686,-79 133.731,-79 133.731,-59 58.2686,-59"/>
<text text-anchor="middle" x="96" y="-65" font-family="Helvetica,sans-Serif" font-size="10.00">RMF/config.h</text>
</a>
</g>
</g>
<!-- Node1&#45;&gt;Node3 -->
<g id="edge2" class="edge"><title>Node1&#45;&gt;Node3</title>
<path fill="none" stroke="midnightblue" d="M227.002,-118.908C202.638,-109.811 159.954,-93.876 129.944,-82.6726"/>
<polygon fill="midnightblue" stroke="midnightblue" points="130.891,-79.29 120.298,-79.0713 128.442,-85.8478 130.891,-79.29"/>
</g>
<!-- Node5 -->
<g id="node5" class="node"><title>Node5</title>
<polygon fill="none" stroke="#bfbfbf" points="151.862,-59 151.862,-79 240.138,-79 240.138,-59 151.862,-59"/>
<text text-anchor="middle" x="196" y="-65" font-family="Helvetica,sans-Serif" font-size="10.00">log4cxx/logger.h</text>
</g>
<!-- Node1&#45;&gt;Node5 -->
<g id="edge4" class="edge"><title>Node1&#45;&gt;Node5</title>
<path fill="none" stroke="midnightblue" d="M237.744,-116.753C230.463,-108.598 219.675,-96.5158 210.89,-86.6769"/>
<polygon fill="midnightblue" stroke="midnightblue" points="213.374,-84.2035 204.103,-79.0752 208.152,-88.8657 213.374,-84.2035"/>
</g>
<!-- Node6 -->
<g id="node6" class="node"><title>Node6</title>
<polygon fill="none" stroke="#bfbfbf" points="258.426,-59 258.426,-79 335.574,-79 335.574,-59 258.426,-59"/>
<text text-anchor="middle" x="297" y="-65" font-family="Helvetica,sans-Serif" font-size="10.00">log4cxx/ndc.h</text>
</g>
<!-- Node1&#45;&gt;Node6 -->
<g id="edge5" class="edge"><title>Node1&#45;&gt;Node6</title>
<path fill="none" stroke="midnightblue" d="M254.422,-116.753C261.848,-108.598 272.852,-96.5158 281.812,-86.6769"/>
<polygon fill="midnightblue" stroke="midnightblue" points="284.589,-88.8253 288.735,-79.0752 279.414,-84.112 284.589,-88.8253"/>
</g>
<!-- Node7 -->
<g id="node7" class="node"><title>Node7</title>
<polygon fill="none" stroke="#bfbfbf" points="353.987,-59 353.987,-79 516.013,-79 516.013,-59 353.987,-59"/>
<text text-anchor="middle" x="435" y="-65" font-family="Helvetica,sans-Serif" font-size="10.00">log4cxx/helpers/messagebuffer.h</text>
</g>
<!-- Node1&#45;&gt;Node7 -->
<g id="edge6" class="edge"><title>Node1&#45;&gt;Node7</title>
<path fill="none" stroke="midnightblue" d="M265.162,-120.322C295.443,-111.35 355.007,-93.7016 394.921,-81.8752"/>
<polygon fill="midnightblue" stroke="midnightblue" points="396.022,-85.1995 404.616,-79.0027 394.034,-78.4879 396.022,-85.1995"/>
</g>
<!-- Node8 -->
<g id="node8" class="node"><title>Node8</title>
<polygon fill="none" stroke="#bfbfbf" points="533.796,-59 533.796,-79 668.204,-79 668.204,-59 533.796,-59"/>
<text text-anchor="middle" x="601" y="-65" font-family="Helvetica,sans-Serif" font-size="10.00">log4cxx/helpers/objectptr.h</text>
</g>
<!-- Node1&#45;&gt;Node8 -->
<g id="edge7" class="edge"><title>Node1&#45;&gt;Node8</title>
<path fill="none" stroke="midnightblue" d="M265.086,-122.989C314.926,-115.127 450.855,-93.6848 533.727,-80.6121"/>
<polygon fill="midnightblue" stroke="midnightblue" points="534.477,-84.0372 543.809,-79.0217 533.386,-77.1227 534.477,-84.0372"/>
</g>
<!-- Node4 -->
<g id="node4" class="node"><title>Node4</title>
<g id="a_node4"><a xlink:href="compiler__macros_8h.html" target="_top" xlink:title="Various compiler workarounds. ">
<polygon fill="none" stroke="black" points="33.5444,-1 33.5444,-21 158.456,-21 158.456,-1 33.5444,-1"/>
<text text-anchor="middle" x="96" y="-7" font-family="Helvetica,sans-Serif" font-size="10.00">RMF/compiler_macros.h</text>
</a>
</g>
</g>
<!-- Node3&#45;&gt;Node4 -->
<g id="edge3" class="edge"><title>Node3&#45;&gt;Node4</title>
<path fill="none" stroke="midnightblue" d="M96,-58.7527C96,-51.2504 96,-40.4238 96,-31.0781"/>
<polygon fill="midnightblue" stroke="midnightblue" points="99.5001,-31.0752 96,-21.0752 92.5001,-31.0752 99.5001,-31.0752"/>
</g>
</g>
</svg>
