<?xml version="1.0" encoding="UTF-8" standalone="no"?>
<!DOCTYPE svg PUBLIC "-//W3C//DTD SVG 1.1//EN"
 "http://www.w3.org/Graphics/SVG/1.1/DTD/svg11.dtd">
<!-- Generated by graphviz version 2.36.0 (20140111.2315)
 -->
<!-- Title: log.h Pages: 1 -->
<svg width="166pt" height="140pt"
 viewBox="0.00 0.00 166.00 140.00" xmlns="http://www.w3.org/2000/svg" xmlns:xlink="http://www.w3.org/1999/xlink">
<g id="graph0" class="graph" transform="scale(1 1) rotate(0) translate(4 136)">
<title>log.h</title>
<!-- Node1 -->
<g id="node1" class="node"><title>Node1</title>
<polygon fill="#bfbfbf" stroke="black" points="39.1577,-113 39.1577,-131 76.8423,-131 76.8423,-113 39.1577,-113"/>
<text text-anchor="middle" x="58" y="-119" font-family="Helvetica,sans-Serif" font-size="10.00">log.h</text>
</g>
<!-- Node2 -->
<g id="node2" class="node"><title>Node2</title>
<polygon fill="none" stroke="#bfbfbf" points="-0.226562,-57 -0.226562,-75 40.2266,-75 40.2266,-57 -0.226562,-57"/>
<text text-anchor="middle" x="20" y="-63" font-family="Helvetica,sans-Serif" font-size="10.00">string</text>
</g>
<!-- Node1&#45;&gt;Node2 -->
<g id="edge1" class="edge"><title>Node1&#45;&gt;Node2</title>
<path fill="none" stroke="midnightblue" d="M52.0625,-112.562C46.6209,-104.83 38.4087,-93.1597 31.6579,-83.5665"/>
<polygon fill="midnightblue" stroke="midnightblue" points="34.3887,-81.3653 25.7714,-75.2014 28.664,-85.3938 34.3887,-81.3653"/>
</g>
<!-- Node3 -->
<g id="node3" class="node"><title>Node3</title>
<g id="a_node3"><a xlink:href="config_8h_source.html" target="_top" xlink:title="RMF/config.h">
<polygon fill="none" stroke="black" points="58.2686,-57 58.2686,-75 133.731,-75 133.731,-57 58.2686,-57"/>
<text text-anchor="middle" x="96" y="-63" font-family="Helvetica,sans-Serif" font-size="10.00">RMF/config.h</text>
</a>
</g>
</g>
<!-- Node1&#45;&gt;Node3 -->
<g id="edge2" class="edge"><title>Node1&#45;&gt;Node3</title>
<path fill="none" stroke="midnightblue" d="M63.9375,-112.562C69.3791,-104.83 77.5913,-93.1597 84.3421,-83.5665"/>
<polygon fill="midnightblue" stroke="midnightblue" points="87.336,-85.3938 90.2286,-75.2014 81.6113,-81.3653 87.336,-85.3938"/>
</g>
<!-- Node4 -->
<g id="node4" class="node"><title>Node4</title>
<g id="a_node4"><a xlink:href="compiler__macros_8h.html" target="_top" xlink:title="Various compiler workarounds. ">
<polygon fill="none" stroke="black" points="33.5444,-1 33.5444,-19 158.456,-19 158.456,-1 33.5444,-1"/>
<text text-anchor="middle" x="96" y="-7" font-family="Helvetica,sans-Serif" font-size="10.00">RMF/compiler_macros.h</text>
</a>
</g>
</g>
<!-- Node3&#45;&gt;Node4 -->
<g id="edge3" class="edge"><title>Node3&#45;&gt;Node4</title>
<path fill="none" stroke="midnightblue" d="M96,-56.5625C96,-49.308 96,-38.5884 96,-29.3691"/>
<polygon fill="midnightblue" stroke="midnightblue" points="99.5001,-29.2014 96,-19.2014 92.5001,-29.2015 99.5001,-29.2014"/>
</g>
</g>
</svg>
