<?xml version="1.0" encoding="UTF-8" standalone="no"?>
<!DOCTYPE svg PUBLIC "-//W3C//DTD SVG 1.1//EN"
 "http://www.w3.org/Graphics/SVG/1.1/DTD/svg11.dtd">
<!-- Generated by graphviz version 2.34.0 (20131025.1349)
 -->
<!-- Title: names.h Pages: 1 -->
<svg width="1652pt" height="332pt"
 viewBox="0.00 0.00 1652.00 332.00" xmlns="http://www.w3.org/2000/svg" xmlns:xlink="http://www.w3.org/1999/xlink">
<g id="graph0" class="graph" transform="scale(1 1) rotate(0) translate(4 328)">
<title>names.h</title>
<!-- Node1 -->
<g id="node1" class="node"><title>Node1</title>
<polygon fill="#bfbfbf" stroke="black" points="710.823,-303 710.823,-323 765.177,-323 765.177,-303 710.823,-303"/>
<text text-anchor="middle" x="738" y="-309" font-family="Helvetica,sans-Serif" font-size="10.00">names.h</text>
</g>
<!-- Node2 -->
<g id="node2" class="node"><title>Node2</title>
<polygon fill="none" stroke="#bfbfbf" points="993.219,-59 993.219,-79 1044.78,-79 1044.78,-59 993.219,-59"/>
<text text-anchor="middle" x="1019" y="-65" font-family="Helvetica,sans-Serif" font-size="10.00">sstream</text>
</g>
<!-- Node1&#45;&gt;Node2 -->
<g id="edge1" class="edge"><title>Node1&#45;&gt;Node2</title>
<path fill="none" stroke="midnightblue" d="M752.118,-302.946C787.671,-279.812 882.98,-215.703 952,-150 972.593,-130.397 993.117,-104.763 1005.92,-87.8605"/>
<polygon fill="midnightblue" stroke="midnightblue" points="1009.01,-89.5694 1012.19,-79.4619 1003.4,-85.3825 1009.01,-89.5694"/>
</g>
<!-- Node3 -->
<g id="node3" class="node"><title>Node3</title>
<polygon fill="none" stroke="#bfbfbf" points="934.773,-59 934.773,-79 975.227,-79 975.227,-59 934.773,-59"/>
<text text-anchor="middle" x="955" y="-65" font-family="Helvetica,sans-Serif" font-size="10.00">string</text>
</g>
<!-- Node1&#45;&gt;Node3 -->
<g id="edge2" class="edge"><title>Node1&#45;&gt;Node3</title>
<path fill="none" stroke="midnightblue" d="M760.453,-302.975C806.256,-283.197 909.705,-231.211 952,-150 961.807,-131.17 960.978,-106.329 958.715,-89.3542"/>
<polygon fill="midnightblue" stroke="midnightblue" points="962.096,-88.3361 957.032,-79.0295 955.187,-89.4624 962.096,-88.3361"/>
</g>
<!-- Node4 -->
<g id="node4" class="node"><title>Node4</title>
<g id="a_node4"><a xlink:href="config_8h_source.html" target="_top" xlink:title="RMF/config.h">
<polygon fill="none" stroke="black" points="-0.731445,-59 -0.731445,-79 74.7314,-79 74.7314,-59 -0.731445,-59"/>
<text text-anchor="middle" x="37" y="-65" font-family="Helvetica,sans-Serif" font-size="10.00">RMF/config.h</text>
</a>
</g>
</g>
<!-- Node1&#45;&gt;Node4 -->
<g id="edge3" class="edge"><title>Node1&#45;&gt;Node4</title>
<path fill="none" stroke="midnightblue" d="M710.672,-306.82C667.957,-298.643 582.82,-282.022 511,-266 298.477,-218.59 169.513,-321.231 35,-150 21.4959,-132.81 25.3472,-106.53 30.3212,-88.8271"/>
<polygon fill="midnightblue" stroke="midnightblue" points="33.7284,-89.6615 33.4181,-79.0712 27.0565,-87.5435 33.7284,-89.6615"/>
</g>
<!-- Node6 -->
<g id="node6" class="node"><title>Node6</title>
<g id="a_node6"><a xlink:href="types_8h.html" target="_top" xlink:title="Default implementation for types.h. ">
<polygon fill="none" stroke="black" points="519.879,-245 519.879,-265 568.121,-265 568.121,-245 519.879,-245"/>
<text text-anchor="middle" x="544" y="-251" font-family="Helvetica,sans-Serif" font-size="10.00">types.h</text>
</a>
</g>
</g>
<!-- Node1&#45;&gt;Node6 -->
<g id="edge5" class="edge"><title>Node1&#45;&gt;Node6</title>
<path fill="none" stroke="midnightblue" d="M710.616,-304.095C675.865,-294.064 615.918,-276.76 578.198,-265.871"/>
<polygon fill="midnightblue" stroke="midnightblue" points="578.766,-262.393 568.187,-262.982 576.824,-269.118 578.766,-262.393"/>
</g>
<!-- Node5 -->
<g id="node5" class="node"><title>Node5</title>
<g id="a_node5"><a xlink:href="compiler__macros_8h.html" target="_top" xlink:title="Various compiler workarounds. ">
<polygon fill="none" stroke="black" points="844.544,-1 844.544,-21 969.456,-21 969.456,-1 844.544,-1"/>
<text text-anchor="middle" x="907" y="-7" font-family="Helvetica,sans-Serif" font-size="10.00">RMF/compiler_macros.h</text>
</a>
</g>
</g>
<!-- Node4&#45;&gt;Node5 -->
<g id="edge4" class="edge"><title>Node4&#45;&gt;Node5</title>
<path fill="none" stroke="midnightblue" d="M74.9422,-65.5577C208.324,-56.9722 657.148,-28.0824 834.254,-16.6825"/>
<polygon fill="midnightblue" stroke="midnightblue" points="834.503,-20.1738 844.257,-16.0386 834.053,-13.1883 834.503,-20.1738"/>
</g>
<!-- Node6&#45;&gt;Node4 -->
<g id="edge6" class="edge"><title>Node6&#45;&gt;Node4</title>
<path fill="none" stroke="midnightblue" d="M519.726,-252.937C427.053,-248.324 97.598,-226.681 35,-150 21.1108,-132.986 25.1381,-106.478 30.2506,-88.6901"/>
<polygon fill="midnightblue" stroke="midnightblue" points="33.5944,-89.7247 33.3411,-79.1329 26.934,-87.5708 33.5944,-89.7247"/>
</g>
<!-- Node7 -->
<g id="node7" class="node"><title>Node7</title>
<g id="a_node7"><a xlink:href="Vector_8h.html" target="_top" xlink:title="Represent coordinates. ">
<polygon fill="none" stroke="black" points="517.926,-187 517.926,-207 570.074,-207 570.074,-187 517.926,-187"/>
<text text-anchor="middle" x="544" y="-193" font-family="Helvetica,sans-Serif" font-size="10.00">Vector.h</text>
</a>
</g>
</g>
<!-- Node6&#45;&gt;Node7 -->
<g id="edge7" class="edge"><title>Node6&#45;&gt;Node7</title>
<path fill="none" stroke="midnightblue" d="M544,-244.753C544,-237.25 544,-226.424 544,-217.078"/>
<polygon fill="midnightblue" stroke="midnightblue" points="547.5,-217.075 544,-207.075 540.5,-217.075 547.5,-217.075"/>
</g>
<!-- Node7&#45;&gt;Node4 -->
<g id="edge8" class="edge"><title>Node7&#45;&gt;Node4</title>
<path fill="none" stroke="midnightblue" d="M517.912,-195.292C421.779,-192.447 91.0758,-180.504 56,-150 38.8731,-135.105 35.6916,-107.852 35.7396,-89.3376"/>
<polygon fill="midnightblue" stroke="midnightblue" points="39.2448,-89.2421 36.091,-79.1276 32.249,-89.0013 39.2448,-89.2421"/>
</g>
<!-- Node8 -->
<g id="node8" class="node"><title>Node8</title>
<g id="a_node8"><a xlink:href="infrastructure__macros_8h.html" target="_top" xlink:title="Various general useful macros for IMP. ">
<polygon fill="none" stroke="black" points="1108.48,-123 1108.48,-143 1229.52,-143 1229.52,-123 1108.48,-123"/>
<text text-anchor="middle" x="1169" y="-129" font-family="Helvetica,sans-Serif" font-size="10.00">infrastructure_macros.h</text>
</a>
</g>
</g>
<!-- Node7&#45;&gt;Node8 -->
<g id="edge9" class="edge"><title>Node7&#45;&gt;Node8</title>
<path fill="none" stroke="midnightblue" d="M570.456,-193.376C661.011,-184.393 960.534,-154.68 1098.41,-141.003"/>
<polygon fill="midnightblue" stroke="midnightblue" points="1098.84,-144.477 1108.45,-140.007 1098.15,-137.511 1098.84,-144.477"/>
</g>
<!-- Node15 -->
<g id="node15" class="node"><title>Node15</title>
<g id="a_node15"><a xlink:href="exceptions_8h.html" target="_top" xlink:title="Declarations of the various exception types. ">
<polygon fill="none" stroke="black" points="870.926,-123 870.926,-143 943.074,-143 943.074,-123 870.926,-123"/>
<text text-anchor="middle" x="907" y="-129" font-family="Helvetica,sans-Serif" font-size="10.00">exceptions.h</text>
</a>
</g>
</g>
<!-- Node7&#45;&gt;Node15 -->
<g id="edge19" class="edge"><title>Node7&#45;&gt;Node15</title>
<path fill="none" stroke="midnightblue" d="M570.209,-193.9C624.884,-189.148 754.841,-175.914 861,-150 865.369,-148.934 869.908,-147.62 874.358,-146.207"/>
<polygon fill="midnightblue" stroke="midnightblue" points="875.493,-149.518 883.857,-143.015 873.263,-142.883 875.493,-149.518"/>
</g>
<!-- Node19 -->
<g id="node19" class="node"><title>Node19</title>
<polygon fill="none" stroke="#bfbfbf" points="65.2368,-123 65.2368,-143 180.763,-143 180.763,-123 65.2368,-123"/>
<text text-anchor="middle" x="123" y="-129" font-family="Helvetica,sans-Serif" font-size="10.00">boost/range/begin.hpp</text>
</g>
<!-- Node7&#45;&gt;Node19 -->
<g id="edge26" class="edge"><title>Node7&#45;&gt;Node19</title>
<path fill="none" stroke="midnightblue" d="M517.651,-193.534C458.661,-187.804 311.602,-172.356 190,-150 182.722,-148.662 175.049,-147.036 167.595,-145.34"/>
<polygon fill="midnightblue" stroke="midnightblue" points="168.162,-141.878 157.627,-143.003 166.564,-148.693 168.162,-141.878"/>
</g>
<!-- Node20 -->
<g id="node20" class="node"><title>Node20</title>
<polygon fill="none" stroke="#bfbfbf" points="199.128,-123 199.128,-143 306.872,-143 306.872,-123 199.128,-123"/>
<text text-anchor="middle" x="253" y="-129" font-family="Helvetica,sans-Serif" font-size="10.00">boost/range/end.hpp</text>
</g>
<!-- Node7&#45;&gt;Node20 -->
<g id="edge27" class="edge"><title>Node7&#45;&gt;Node20</title>
<path fill="none" stroke="midnightblue" d="M517.923,-191.175C475.472,-183.223 388.84,-166.587 316,-150 309.862,-148.602 303.408,-147.054 297.067,-145.487"/>
<polygon fill="midnightblue" stroke="midnightblue" points="297.808,-142.065 287.257,-143.029 296.106,-148.855 297.808,-142.065"/>
</g>
<!-- Node21 -->
<g id="node21" class="node"><title>Node21</title>
<polygon fill="none" stroke="#bfbfbf" points="325.313,-117 325.313,-149 424.687,-149 424.687,-117 325.313,-117"/>
<text text-anchor="start" x="333.313" y="-135" font-family="Helvetica,sans-Serif" font-size="10.00">boost/type_traits/is</text>
<text text-anchor="middle" x="375" y="-123" font-family="Helvetica,sans-Serif" font-size="10.00">_convertible.hpp</text>
</g>
<!-- Node7&#45;&gt;Node21 -->
<g id="edge28" class="edge"><title>Node7&#45;&gt;Node21</title>
<path fill="none" stroke="midnightblue" d="M519.426,-186.985C494.974,-178.014 456.73,-163.984 425.738,-152.614"/>
<polygon fill="midnightblue" stroke="midnightblue" points="426.551,-149.184 415.957,-149.026 424.14,-155.756 426.551,-149.184"/>
</g>
<!-- Node22 -->
<g id="node22" class="node"><title>Node22</title>
<polygon fill="none" stroke="#bfbfbf" points="442.251,-123 442.251,-143 537.749,-143 537.749,-123 442.251,-123"/>
<text text-anchor="middle" x="490" y="-129" font-family="Helvetica,sans-Serif" font-size="10.00">boost/mpl/not.hpp</text>
</g>
<!-- Node7&#45;&gt;Node22 -->
<g id="edge29" class="edge"><title>Node7&#45;&gt;Node22</title>
<path fill="none" stroke="midnightblue" d="M536.032,-186.852C527.817,-177.419 514.818,-162.495 504.726,-150.907"/>
<polygon fill="midnightblue" stroke="midnightblue" points="507.208,-148.428 498.001,-143.186 501.929,-153.025 507.208,-148.428"/>
</g>
<!-- Node23 -->
<g id="node23" class="node"><title>Node23</title>
<polygon fill="none" stroke="#bfbfbf" points="555.625,-123 555.625,-143 640.375,-143 640.375,-123 555.625,-123"/>
<text text-anchor="middle" x="598" y="-129" font-family="Helvetica,sans-Serif" font-size="10.00">boost/array.hpp</text>
</g>
<!-- Node7&#45;&gt;Node23 -->
<g id="edge30" class="edge"><title>Node7&#45;&gt;Node23</title>
<path fill="none" stroke="midnightblue" d="M551.968,-186.852C560.183,-177.419 573.182,-162.495 583.274,-150.907"/>
<polygon fill="midnightblue" stroke="midnightblue" points="586.071,-153.025 589.999,-143.186 580.792,-148.428 586.071,-153.025"/>
</g>
<!-- Node24 -->
<g id="node24" class="node"><title>Node24</title>
<polygon fill="none" stroke="#bfbfbf" points="658.582,-123 658.582,-143 777.418,-143 777.418,-123 658.582,-123"/>
<text text-anchor="middle" x="718" y="-129" font-family="Helvetica,sans-Serif" font-size="10.00">boost/static_assert.hpp</text>
</g>
<!-- Node7&#45;&gt;Node24 -->
<g id="edge31" class="edge"><title>Node7&#45;&gt;Node24</title>
<path fill="none" stroke="midnightblue" d="M569.301,-186.985C599.326,-176.286 649.552,-158.39 683.218,-146.394"/>
<polygon fill="midnightblue" stroke="midnightblue" points="684.423,-149.68 692.668,-143.026 682.074,-143.086 684.423,-149.68"/>
</g>
<!-- Node25 -->
<g id="node25" class="node"><title>Node25</title>
<polygon fill="none" stroke="#bfbfbf" points="795.436,-123 795.436,-143 852.564,-143 852.564,-123 795.436,-123"/>
<text text-anchor="middle" x="824" y="-129" font-family="Helvetica,sans-Serif" font-size="10.00">algorithm</text>
</g>
<!-- Node7&#45;&gt;Node25 -->
<g id="edge32" class="edge"><title>Node7&#45;&gt;Node25</title>
<path fill="none" stroke="midnightblue" d="M570.219,-192.86C615.1,-187.078 709.235,-173.174 786,-150 788.987,-149.098 792.059,-148.04 795.1,-146.904"/>
<polygon fill="midnightblue" stroke="midnightblue" points="796.587,-150.078 804.567,-143.109 793.983,-143.581 796.587,-150.078"/>
</g>
<!-- Node8&#45;&gt;Node2 -->
<g id="edge10" class="edge"><title>Node8&#45;&gt;Node2</title>
<path fill="none" stroke="midnightblue" d="M1147.19,-122.985C1121.64,-112.424 1079.12,-94.8493 1050.11,-82.8599"/>
<polygon fill="midnightblue" stroke="midnightblue" points="1051.42,-79.6116 1040.84,-79.0262 1048.74,-86.0808 1051.42,-79.6116"/>
</g>
<!-- Node8&#45;&gt;Node3 -->
<g id="edge12" class="edge"><title>Node8&#45;&gt;Node3</title>
<path fill="none" stroke="midnightblue" d="M1134.39,-122.915C1099.05,-113.499 1042.43,-98.0203 984.854,-80.1503"/>
<polygon fill="midnightblue" stroke="midnightblue" points="985.821,-76.7856 975.232,-77.1442 983.733,-83.4671 985.821,-76.7856"/>
</g>
<!-- Node8&#45;&gt;Node5 -->
<g id="edge13" class="edge"><title>Node8&#45;&gt;Node5</title>
<path fill="none" stroke="midnightblue" d="M1155.58,-122.805C1129.79,-105.242 1074,-67.7968 1053,-58 1021.44,-43.2751 983.931,-31.5715 954.836,-23.6546"/>
<polygon fill="midnightblue" stroke="midnightblue" points="955.483,-20.2049 944.919,-21.0135 953.681,-26.9692 955.483,-20.2049"/>
</g>
<!-- Node9 -->
<g id="node9" class="node"><title>Node9</title>
<polygon fill="none" stroke="#bfbfbf" points="1100.83,-59 1100.83,-79 1155.17,-79 1155.17,-59 1100.83,-59"/>
<text text-anchor="middle" x="1128" y="-65" font-family="Helvetica,sans-Serif" font-size="10.00">iostream</text>
</g>
<!-- Node8&#45;&gt;Node9 -->
<g id="edge11" class="edge"><title>Node8&#45;&gt;Node9</title>
<path fill="none" stroke="midnightblue" d="M1162.95,-122.852C1156.83,-113.602 1147.23,-99.072 1139.63,-87.5859"/>
<polygon fill="midnightblue" stroke="midnightblue" points="1142.51,-85.5964 1134.07,-79.1858 1136.67,-89.4576 1142.51,-85.5964"/>
</g>
<!-- Node10 -->
<g id="node10" class="node"><title>Node10</title>
<polygon fill="none" stroke="#bfbfbf" points="1172.98,-59 1172.98,-79 1249.02,-79 1249.02,-59 1172.98,-59"/>
<text text-anchor="middle" x="1211" y="-65" font-family="Helvetica,sans-Serif" font-size="10.00">internal/use.h</text>
</g>
<!-- Node8&#45;&gt;Node10 -->
<g id="edge14" class="edge"><title>Node8&#45;&gt;Node10</title>
<path fill="none" stroke="midnightblue" d="M1175.2,-122.852C1181.46,-113.602 1191.31,-99.072 1199.09,-87.5859"/>
<polygon fill="midnightblue" stroke="midnightblue" points="1202.07,-89.428 1204.78,-79.1858 1196.27,-85.5021 1202.07,-89.428"/>
</g>
<!-- Node11 -->
<g id="node11" class="node"><title>Node11</title>
<polygon fill="none" stroke="#bfbfbf" points="1267.38,-59 1267.38,-79 1310.62,-79 1310.62,-59 1267.38,-59"/>
<text text-anchor="middle" x="1289" y="-65" font-family="Helvetica,sans-Serif" font-size="10.00">vector</text>
</g>
<!-- Node8&#45;&gt;Node11 -->
<g id="edge15" class="edge"><title>Node8&#45;&gt;Node11</title>
<path fill="none" stroke="midnightblue" d="M1186.45,-122.985C1206.45,-112.653 1239.43,-95.6101 1262.58,-83.6496"/>
<polygon fill="midnightblue" stroke="midnightblue" points="1264.25,-86.726 1271.53,-79.0262 1261.04,-80.507 1264.25,-86.726"/>
</g>
<!-- Node12 -->
<g id="node12" class="node"><title>Node12</title>
<polygon fill="none" stroke="#bfbfbf" points="1328.31,-59 1328.31,-79 1417.69,-79 1417.69,-59 1328.31,-59"/>
<text text-anchor="middle" x="1373" y="-65" font-family="Helvetica,sans-Serif" font-size="10.00">boost/config.hpp</text>
</g>
<!-- Node8&#45;&gt;Node12 -->
<g id="edge16" class="edge"><title>Node8&#45;&gt;Node12</title>
<path fill="none" stroke="midnightblue" d="M1198.66,-122.985C1234.24,-112.171 1294.02,-94.0048 1333.48,-82.0095"/>
<polygon fill="midnightblue" stroke="midnightblue" points="1334.75,-85.2829 1343.3,-79.0262 1332.72,-78.5854 1334.75,-85.2829"/>
</g>
<!-- Node13 -->
<g id="node13" class="node"><title>Node13</title>
<polygon fill="none" stroke="#bfbfbf" points="1435.53,-59 1435.53,-79 1530.47,-79 1530.47,-59 1435.53,-59"/>
<text text-anchor="middle" x="1483" y="-65" font-family="Helvetica,sans-Serif" font-size="10.00">boost/version.hpp</text>
</g>
<!-- Node8&#45;&gt;Node13 -->
<g id="edge17" class="edge"><title>Node8&#45;&gt;Node13</title>
<path fill="none" stroke="midnightblue" d="M1214.66,-122.985C1270.93,-111.873 1366.53,-92.9964 1427.13,-81.0307"/>
<polygon fill="midnightblue" stroke="midnightblue" points="1428.15,-84.3971 1437.29,-79.0262 1426.8,-77.5297 1428.15,-84.3971"/>
</g>
<!-- Node14 -->
<g id="node14" class="node"><title>Node14</title>
<polygon fill="none" stroke="#bfbfbf" points="1547.97,-59 1547.97,-79 1644.03,-79 1644.03,-59 1547.97,-59"/>
<text text-anchor="middle" x="1596" y="-65" font-family="Helvetica,sans-Serif" font-size="10.00">boost/foreach.hpp</text>
</g>
<!-- Node8&#45;&gt;Node14 -->
<g id="edge18" class="edge"><title>Node8&#45;&gt;Node14</title>
<path fill="none" stroke="midnightblue" d="M1229.66,-124.119C1300.95,-114.713 1423.07,-98.1501 1537.81,-80.1494"/>
<polygon fill="midnightblue" stroke="midnightblue" points="1538.48,-83.5858 1547.82,-78.5719 1537.39,-76.6711 1538.48,-83.5858"/>
</g>
<!-- Node15&#45;&gt;Node3 -->
<g id="edge22" class="edge"><title>Node15&#45;&gt;Node3</title>
<path fill="none" stroke="midnightblue" d="M914.083,-122.852C921.314,-113.511 932.716,-98.7838 941.649,-87.2456"/>
<polygon fill="midnightblue" stroke="midnightblue" points="944.534,-89.2357 947.888,-79.1858 938.999,-84.9505 944.534,-89.2357"/>
</g>
<!-- Node15&#45;&gt;Node4 -->
<g id="edge23" class="edge"><title>Node15&#45;&gt;Node4</title>
<path fill="none" stroke="midnightblue" d="M884.886,-122.908C877.422,-120.219 868.963,-117.575 861,-116 710.892,-86.3128 237.655,-74.1423 84.9865,-70.9247"/>
<polygon fill="midnightblue" stroke="midnightblue" points="85.0489,-67.4254 74.9784,-70.717 84.9036,-74.4239 85.0489,-67.4254"/>
</g>
<!-- Node15&#45;&gt;Node5 -->
<g id="edge24" class="edge"><title>Node15&#45;&gt;Node5</title>
<path fill="none" stroke="midnightblue" d="M907,-122.98C907,-103.609 907,-57.655 907,-31.3576"/>
<polygon fill="midnightblue" stroke="midnightblue" points="910.5,-31.1241 907,-21.1242 903.5,-31.1242 910.5,-31.1241"/>
</g>
<!-- Node16 -->
<g id="node16" class="node"><title>Node16</title>
<polygon fill="none" stroke="#bfbfbf" points="651.451,-59 651.451,-79 802.549,-79 802.549,-59 651.451,-59"/>
<text text-anchor="middle" x="727" y="-65" font-family="Helvetica,sans-Serif" font-size="10.00">boost/exception/exception.hpp</text>
</g>
<!-- Node15&#45;&gt;Node16 -->
<g id="edge20" class="edge"><title>Node15&#45;&gt;Node16</title>
<path fill="none" stroke="midnightblue" d="M880.735,-122.844C874.283,-120.6 867.393,-118.209 861,-116 827.914,-104.567 790.201,-91.6293 763.232,-82.3933"/>
<polygon fill="midnightblue" stroke="midnightblue" points="764.048,-78.9733 753.453,-79.0456 761.78,-85.596 764.048,-78.9733"/>
</g>
<!-- Node17 -->
<g id="node17" class="node"><title>Node17</title>
<polygon fill="none" stroke="#bfbfbf" points="820.596,-59 820.596,-79 879.404,-79 879.404,-59 820.596,-59"/>
<text text-anchor="middle" x="850" y="-65" font-family="Helvetica,sans-Serif" font-size="10.00">exception</text>
</g>
<!-- Node15&#45;&gt;Node17 -->
<g id="edge21" class="edge"><title>Node15&#45;&gt;Node17</title>
<path fill="none" stroke="midnightblue" d="M898.589,-122.852C889.833,-113.327 875.93,-98.2042 865.234,-86.5706"/>
<polygon fill="midnightblue" stroke="midnightblue" points="867.79,-84.1787 858.445,-79.1858 862.636,-88.9164 867.79,-84.1787"/>
</g>
<!-- Node18 -->
<g id="node18" class="node"><title>Node18</title>
<polygon fill="none" stroke="#bfbfbf" points="522.766,-59 522.766,-79 633.234,-79 633.234,-59 522.766,-59"/>
<text text-anchor="middle" x="578" y="-65" font-family="Helvetica,sans-Serif" font-size="10.00">RMF/internal/errors.h</text>
</g>
<!-- Node15&#45;&gt;Node18 -->
<g id="edge25" class="edge"><title>Node15&#45;&gt;Node18</title>
<path fill="none" stroke="midnightblue" d="M883.364,-122.898C876.253,-120.399 868.377,-117.867 861,-116 850.516,-113.346 723.806,-93.09 643.531,-80.358"/>
<polygon fill="midnightblue" stroke="midnightblue" points="643.923,-76.8765 633.498,-78.7676 642.827,-83.7902 643.923,-76.8765"/>
</g>
</g>
</svg>
