<?xml version="1.0" encoding="UTF-8" standalone="no"?>
<!DOCTYPE svg PUBLIC "-//W3C//DTD SVG 1.1//EN"
 "http://www.w3.org/Graphics/SVG/1.1/DTD/svg11.dtd">
<!-- Generated by graphviz version 2.34.0 (20131025.1349)
 -->
<!-- Title: names.h Pages: 1 -->
<!--zoomable 378 -->
<svg id="main" version="1.1" xmlns="http://www.w3.org/2000/svg" xmlns:xlink="http://www.w3.org/1999/xlink" xml:space="preserve" onload="init(evt)">
<style type="text/css"><![CDATA[
.edge:hover path { stroke: red; }
.edge:hover polygon { stroke: red; fill: red; }
]]></style>
<script type="text/javascript"><![CDATA[
var edges = document.getElementsByTagName('g');
if (edges && edges.length) {
  for (var i=0;i<edges.length;i++) {
    if (edges[i].id.substr(0,4)=='edge') {
      edges[i].setAttribute('class','edge');
    }
  }
}
]]></script>
        <defs>
                <circle id="rim" cx="0" cy="0" r="7"/>
                <circle id="rim2" cx="0" cy="0" r="3.5"/>
                <g id="zoomPlus">
                        <use xlink:href="#rim" fill="#404040">
                                <set attributeName="fill" to="#808080" begin="zoomplus.mouseover" end="zoomplus.mouseout"/>
                        </use>
                        <path d="M-4,0h8M0,-4v8" fill="none" stroke="white" stroke-width="1.5" pointer-events="none"/>
                </g>
                <g id="zoomMin">
                        <use xlink:href="#rim" fill="#404040">
                                <set attributeName="fill" to="#808080" begin="zoomminus.mouseover" end="zoomminus.mouseout"/>
                        </use>
                        <path d="M-4,0h8" fill="none" stroke="white" stroke-width="1.5" pointer-events="none"/>
                </g>
                <g id="dirArrow">
                        <path fill="none" stroke="white" stroke-width="1.5" d="M0,-3.0v7 M-2.5,-0.5L0,-3.0L2.5,-0.5"/>
                </g>
               <g id="resetDef">
                       <use xlink:href="#rim2" fill="#404040">
                               <set attributeName="fill" to="#808080" begin="reset.mouseover" end="reset.mouseout"/>
                       </use>
               </g>
        </defs>

<script type="text/javascript">
var viewWidth = 1222;
var viewHeight = 378;
var sectionId = 'dynsection-0';
</script>
<script xlink:href="svgpan.js"/>
<svg id="graph" class="graph">
<g id="viewport">
<title>names.h</title>
<!-- Node1 -->
<g id="node1" class="node"><title>Node1</title>
<polygon fill="#bfbfbf" stroke="black" points="892.823,-349 892.823,-369 947.177,-369 947.177,-349 892.823,-349"/>
<text text-anchor="middle" x="920" y="-355" font-family="Helvetica,sans-Serif" font-size="10.00">names.h</text>
</g>
<!-- Node2 -->
<g id="node2" class="node"><title>Node2</title>
<polygon fill="none" stroke="#bfbfbf" points="-0.780762,-59 -0.780762,-79 50.7808,-79 50.7808,-59 -0.780762,-59"/>
<text text-anchor="middle" x="25" y="-65" font-family="Helvetica,sans-Serif" font-size="10.00">sstream</text>
</g>
<!-- Node1&#45;&gt;Node2 -->
<g id="edge1" class="edge"><title>Node1&#45;&gt;Node2</title>
<path fill="none" stroke="midnightblue" d="M892.538,-356.834C756.465,-350.699 161,-319.535 161,-244 161,-244 161,-244 161,-184 161,-131.487 100.712,-98.3652 60.4155,-82.0917"/>
<polygon fill="midnightblue" stroke="midnightblue" points="61.4899,-78.7546 50.9007,-78.4085 58.9629,-85.2825 61.4899,-78.7546"/>
</g>
<!-- Node3 -->
<g id="node3" class="node"><title>Node3</title>
<polygon fill="none" stroke="#bfbfbf" points="668.773,-59 668.773,-79 709.227,-79 709.227,-59 668.773,-59"/>
<text text-anchor="middle" x="689" y="-65" font-family="Helvetica,sans-Serif" font-size="10.00">string</text>
</g>
<!-- Node1&#45;&gt;Node3 -->
<g id="edge2" class="edge"><title>Node1&#45;&gt;Node3</title>
<path fill="none" stroke="midnightblue" d="M892.689,-351.963C846.755,-340.019 759,-308.731 759,-244 759,-244 759,-244 759,-184 759,-144.254 727.717,-106.702 706.977,-86.1736"/>
<polygon fill="midnightblue" stroke="midnightblue" points="709.284,-83.5376 699.631,-79.1702 704.454,-88.6039 709.284,-83.5376"/>
</g>
<!-- Node4 -->
<g id="node4" class="node"><title>Node4</title>
<g id="a_node4"><a xlink:href="config_8h_source.html" target="_top" xlink:title="RMF/config.h">
<polygon fill="none" stroke="black" points="1139.27,-59 1139.27,-79 1214.73,-79 1214.73,-59 1139.27,-59"/>
<text text-anchor="middle" x="1177" y="-65" font-family="Helvetica,sans-Serif" font-size="10.00">RMF/config.h</text>
</a>
</g>
</g>
<!-- Node1&#45;&gt;Node4 -->
<g id="edge3" class="edge"><title>Node1&#45;&gt;Node4</title>
<path fill="none" stroke="midnightblue" d="M947.289,-358.045C1013.07,-356.58 1175,-342.927 1175,-244 1175,-244 1175,-244 1175,-184 1175,-150.793 1175.86,-112.153 1176.45,-89.4605"/>
<polygon fill="midnightblue" stroke="midnightblue" points="1179.96,-89.2519 1176.73,-79.1607 1172.96,-89.0621 1179.96,-89.2519"/>
</g>
<!-- Node6 -->
<g id="node6" class="node"><title>Node6</title>
<g id="a_node6"><a xlink:href="types_8h.html" target="_top" xlink:title="types.h">
<polygon fill="none" stroke="black" points="986.879,-291 986.879,-311 1035.12,-311 1035.12,-291 986.879,-291"/>
<text text-anchor="middle" x="1011" y="-297" font-family="Helvetica,sans-Serif" font-size="10.00">types.h</text>
</a>
</g>
</g>
<!-- Node1&#45;&gt;Node6 -->
<g id="edge5" class="edge"><title>Node1&#45;&gt;Node6</title>
<path fill="none" stroke="midnightblue" d="M935.027,-348.753C949.338,-339.946 971.094,-326.558 987.662,-316.362"/>
<polygon fill="midnightblue" stroke="midnightblue" points="989.571,-319.297 996.253,-311.075 985.902,-313.335 989.571,-319.297"/>
</g>
<!-- Node5 -->
<g id="node5" class="node"><title>Node5</title>
<g id="a_node5"><a xlink:href="compiler__macros_8h.html" target="_top" xlink:title="Various compiler workarounds. ">
<polygon fill="none" stroke="black" points="674.544,-1 674.544,-21 799.456,-21 799.456,-1 674.544,-1"/>
<text text-anchor="middle" x="737" y="-7" font-family="Helvetica,sans-Serif" font-size="10.00">RMF/compiler_macros.h</text>
</a>
</g>
</g>
<!-- Node4&#45;&gt;Node5 -->
<g id="edge4" class="edge"><title>Node4&#45;&gt;Node5</title>
<path fill="none" stroke="midnightblue" d="M1139.09,-59.618C1136.02,-59.0358 1132.96,-58.4876 1130,-58 1018.91,-39.721 888.985,-25.993 809.873,-18.4807"/>
<polygon fill="midnightblue" stroke="midnightblue" points="809.815,-14.9598 799.531,-17.5066 809.159,-21.929 809.815,-14.9598"/>
</g>
<!-- Node6&#45;&gt;Node4 -->
<g id="edge6" class="edge"><title>Node6&#45;&gt;Node4</title>
<path fill="none" stroke="midnightblue" d="M1027.26,-290.856C1040.95,-282.558 1060.44,-269.304 1074,-254 1120.65,-201.365 1155.29,-124.099 1169.68,-88.8184"/>
<polygon fill="midnightblue" stroke="midnightblue" points="1173.02,-89.8759 1173.48,-79.2909 1166.52,-87.2803 1173.02,-89.8759"/>
</g>
<!-- Node7 -->
<g id="node7" class="node"><title>Node7</title>
<g id="a_node7"><a xlink:href="default__types_8h.html" target="_top" xlink:title="Default implementation for types.h. ">
<polygon fill="none" stroke="black" points="956.867,-233 956.867,-253 1065.13,-253 1065.13,-233 956.867,-233"/>
<text text-anchor="middle" x="1011" y="-239" font-family="Helvetica,sans-Serif" font-size="10.00">RMF/default_types.h</text>
</a>
</g>
</g>
<!-- Node6&#45;&gt;Node7 -->
<g id="edge7" class="edge"><title>Node6&#45;&gt;Node7</title>
<path fill="none" stroke="midnightblue" d="M1011,-290.753C1011,-283.25 1011,-272.424 1011,-263.078"/>
<polygon fill="midnightblue" stroke="midnightblue" points="1014.5,-263.075 1011,-253.075 1007.5,-263.075 1014.5,-263.075"/>
</g>
<!-- Node7&#45;&gt;Node4 -->
<g id="edge8" class="edge"><title>Node7&#45;&gt;Node4</title>
<path fill="none" stroke="midnightblue" d="M1018,-232.999C1034.75,-211.683 1078.9,-156.849 1121,-116 1132.11,-105.215 1145.49,-94.1658 1156.38,-85.6006"/>
<polygon fill="midnightblue" stroke="midnightblue" points="1158.73,-88.2079 1164.49,-79.3164 1154.44,-82.6744 1158.73,-88.2079"/>
</g>
<!-- Node8 -->
<g id="node8" class="node"><title>Node8</title>
<g id="a_node8"><a xlink:href="Vector_8h.html" target="_top" xlink:title="Represent coordinates. ">
<polygon fill="none" stroke="black" points="942.926,-175 942.926,-195 995.074,-195 995.074,-175 942.926,-175"/>
<text text-anchor="middle" x="969" y="-181" font-family="Helvetica,sans-Serif" font-size="10.00">Vector.h</text>
</a>
</g>
</g>
<!-- Node7&#45;&gt;Node8 -->
<g id="edge9" class="edge"><title>Node7&#45;&gt;Node8</title>
<path fill="none" stroke="midnightblue" d="M1004.06,-232.753C998.071,-224.761 989.248,-212.998 981.952,-203.27"/>
<polygon fill="midnightblue" stroke="midnightblue" points="984.606,-200.975 975.806,-195.075 979.006,-205.175 984.606,-200.975"/>
</g>
<!-- Node8&#45;&gt;Node4 -->
<g id="edge10" class="edge"><title>Node8&#45;&gt;Node4</title>
<path fill="none" stroke="midnightblue" d="M982.152,-174.799C1001.99,-161.117 1040.98,-134.986 1076,-116 1098.71,-103.69 1125.33,-91.6577 1145.54,-82.9884"/>
<polygon fill="midnightblue" stroke="midnightblue" points="1147.06,-86.1445 1154.9,-79.0162 1144.33,-79.7007 1147.06,-86.1445"/>
</g>
<!-- Node9 -->
<g id="node9" class="node"><title>Node9</title>
<g id="a_node9"><a xlink:href="infrastructure__macros_8h.html" target="_top" xlink:title="Various general useful macros for IMP. ">
<polygon fill="none" stroke="black" points="365.48,-117 365.48,-137 486.52,-137 486.52,-117 365.48,-117"/>
<text text-anchor="middle" x="426" y="-123" font-family="Helvetica,sans-Serif" font-size="10.00">infrastructure_macros.h</text>
</a>
</g>
</g>
<!-- Node8&#45;&gt;Node9 -->
<g id="edge11" class="edge"><title>Node8&#45;&gt;Node9</title>
<path fill="none" stroke="midnightblue" d="M942.81,-181.299C862.654,-173.032 618.734,-147.877 496.863,-135.308"/>
<polygon fill="midnightblue" stroke="midnightblue" points="497.187,-131.823 486.881,-134.279 496.469,-138.786 497.187,-131.823"/>
</g>
<!-- Node16 -->
<g id="node16" class="node"><title>Node16</title>
<g id="a_node16"><a xlink:href="exceptions_8h.html" target="_top" xlink:title="Various general useful macros for IMP. ">
<polygon fill="none" stroke="black" points="932.926,-117 932.926,-137 1005.07,-137 1005.07,-117 932.926,-117"/>
<text text-anchor="middle" x="969" y="-123" font-family="Helvetica,sans-Serif" font-size="10.00">exceptions.h</text>
</a>
</g>
</g>
<!-- Node8&#45;&gt;Node16 -->
<g id="edge21" class="edge"><title>Node8&#45;&gt;Node16</title>
<path fill="none" stroke="midnightblue" d="M969,-174.753C969,-167.25 969,-156.424 969,-147.078"/>
<polygon fill="midnightblue" stroke="midnightblue" points="972.5,-147.075 969,-137.075 965.5,-147.075 972.5,-147.075"/>
</g>
<!-- Node20 -->
<g id="node20" class="node"><title>Node20</title>
<polygon fill="none" stroke="#bfbfbf" points="857.436,-117 857.436,-137 914.564,-137 914.564,-117 857.436,-117"/>
<text text-anchor="middle" x="886" y="-123" font-family="Helvetica,sans-Serif" font-size="10.00">algorithm</text>
</g>
<!-- Node8&#45;&gt;Node20 -->
<g id="edge28" class="edge"><title>Node8&#45;&gt;Node20</title>
<path fill="none" stroke="midnightblue" d="M955.294,-174.753C942.483,-166.109 923.13,-153.052 908.13,-142.931"/>
<polygon fill="midnightblue" stroke="midnightblue" points="909.698,-139.767 899.451,-137.075 905.783,-145.57 909.698,-139.767"/>
</g>
<!-- Node9&#45;&gt;Node2 -->
<g id="edge12" class="edge"><title>Node9&#45;&gt;Node2</title>
<path fill="none" stroke="midnightblue" d="M365.306,-121.241C294.387,-115.04 173.443,-102.48 60.7182,-79.876"/>
<polygon fill="midnightblue" stroke="midnightblue" points="61.3815,-76.4393 50.8843,-77.8738 59.9849,-83.2986 61.3815,-76.4393"/>
</g>
<!-- Node9&#45;&gt;Node3 -->
<g id="edge14" class="edge"><title>Node9&#45;&gt;Node3</title>
<path fill="none" stroke="midnightblue" d="M477.674,-116.96C524.276,-108.491 594.57,-94.9256 655,-80 656.243,-79.6929 657.509,-79.3697 658.785,-79.035"/>
<polygon fill="midnightblue" stroke="midnightblue" points="659.88,-82.3636 668.583,-76.3209 658.011,-75.6177 659.88,-82.3636"/>
</g>
<!-- Node9&#45;&gt;Node5 -->
<g id="edge15" class="edge"><title>Node9&#45;&gt;Node5</title>
<path fill="none" stroke="midnightblue" d="M484.126,-116.986C523.642,-109.732 576.601,-97.7818 621,-80 625.832,-78.0647 680.258,-45.8069 712.813,-26.4261"/>
<polygon fill="midnightblue" stroke="midnightblue" points="714.946,-29.2295 721.746,-21.1047 711.363,-23.2157 714.946,-29.2295"/>
</g>
<!-- Node10 -->
<g id="node10" class="node"><title>Node10</title>
<polygon fill="none" stroke="#bfbfbf" points="356.828,-59 356.828,-79 411.172,-79 411.172,-59 356.828,-59"/>
<text text-anchor="middle" x="384" y="-65" font-family="Helvetica,sans-Serif" font-size="10.00">iostream</text>
</g>
<!-- Node9&#45;&gt;Node10 -->
<g id="edge13" class="edge"><title>Node9&#45;&gt;Node10</title>
<path fill="none" stroke="midnightblue" d="M419.065,-116.753C413.071,-108.761 404.248,-96.9975 396.952,-87.2698"/>
<polygon fill="midnightblue" stroke="midnightblue" points="399.606,-84.9752 390.806,-79.0752 394.006,-89.1752 399.606,-84.9752"/>
</g>
<!-- Node11 -->
<g id="node11" class="node"><title>Node11</title>
<polygon fill="none" stroke="#bfbfbf" points="428.98,-59 428.98,-79 505.02,-79 505.02,-59 428.98,-59"/>
<text text-anchor="middle" x="467" y="-65" font-family="Helvetica,sans-Serif" font-size="10.00">internal/use.h</text>
</g>
<!-- Node9&#45;&gt;Node11 -->
<g id="edge16" class="edge"><title>Node9&#45;&gt;Node11</title>
<path fill="none" stroke="midnightblue" d="M432.77,-116.753C438.621,-108.761 447.234,-96.9975 454.356,-87.2698"/>
<polygon fill="midnightblue" stroke="midnightblue" points="457.272,-89.2114 460.356,-79.0752 451.624,-85.0762 457.272,-89.2114"/>
</g>
<!-- Node12 -->
<g id="node12" class="node"><title>Node12</title>
<polygon fill="none" stroke="#bfbfbf" points="523.306,-59 523.306,-79 612.694,-79 612.694,-59 523.306,-59"/>
<text text-anchor="middle" x="568" y="-65" font-family="Helvetica,sans-Serif" font-size="10.00">boost/config.hpp</text>
</g>
<!-- Node9&#45;&gt;Node12 -->
<g id="edge17" class="edge"><title>Node9&#45;&gt;Node12</title>
<path fill="none" stroke="midnightblue" d="M449.131,-116.878C472.545,-107.644 508.961,-93.283 535.318,-82.8887"/>
<polygon fill="midnightblue" stroke="midnightblue" points="536.86,-86.0428 544.879,-79.1181 534.292,-79.5309 536.86,-86.0428"/>
</g>
<!-- Node13 -->
<g id="node13" class="node"><title>Node13</title>
<polygon fill="none" stroke="#bfbfbf" points="68.5298,-59 68.5298,-79 163.47,-79 163.47,-59 68.5298,-59"/>
<text text-anchor="middle" x="116" y="-65" font-family="Helvetica,sans-Serif" font-size="10.00">boost/version.hpp</text>
</g>
<!-- Node9&#45;&gt;Node13 -->
<g id="edge18" class="edge"><title>Node9&#45;&gt;Node13</title>
<path fill="none" stroke="midnightblue" d="M375.849,-116.94C320.563,-106.953 231.774,-90.914 173.657,-80.4155"/>
<polygon fill="midnightblue" stroke="midnightblue" points="173.998,-76.9204 163.535,-78.5869 172.753,-83.8089 173.998,-76.9204"/>
</g>
<!-- Node14 -->
<g id="node14" class="node"><title>Node14</title>
<polygon fill="none" stroke="#bfbfbf" points="180.971,-59 180.971,-79 277.029,-79 277.029,-59 180.971,-59"/>
<text text-anchor="middle" x="229" y="-65" font-family="Helvetica,sans-Serif" font-size="10.00">boost/foreach.hpp</text>
</g>
<!-- Node9&#45;&gt;Node14 -->
<g id="edge19" class="edge"><title>Node9&#45;&gt;Node14</title>
<path fill="none" stroke="midnightblue" d="M393.91,-116.878C360.325,-107.331 307.46,-92.3033 270.671,-81.8454"/>
<polygon fill="midnightblue" stroke="midnightblue" points="271.326,-78.3931 260.75,-79.0253 269.412,-85.1263 271.326,-78.3931"/>
</g>
<!-- Node15 -->
<g id="node15" class="node"><title>Node15</title>
<polygon fill="none" stroke="#bfbfbf" points="295.384,-59 295.384,-79 338.616,-79 338.616,-59 295.384,-59"/>
<text text-anchor="middle" x="317" y="-65" font-family="Helvetica,sans-Serif" font-size="10.00">vector</text>
</g>
<!-- Node9&#45;&gt;Node15 -->
<g id="edge20" class="edge"><title>Node9&#45;&gt;Node15</title>
<path fill="none" stroke="midnightblue" d="M408.001,-116.753C390.462,-107.742 363.588,-93.9353 343.586,-83.6589"/>
<polygon fill="midnightblue" stroke="midnightblue" points="345.158,-80.5319 334.664,-79.0752 341.96,-86.7582 345.158,-80.5319"/>
</g>
<!-- Node16&#45;&gt;Node3 -->
<g id="edge24" class="edge"><title>Node16&#45;&gt;Node3</title>
<path fill="none" stroke="midnightblue" d="M932.866,-118.016C929.534,-117.319 926.206,-116.637 923,-116 834.413,-98.4041 810.896,-100.773 723,-80 721.754,-79.7055 720.485,-79.3928 719.207,-79.0667"/>
<polygon fill="midnightblue" stroke="midnightblue" points="719.97,-75.6469 709.401,-76.3885 718.125,-82.3996 719.97,-75.6469"/>
</g>
<!-- Node16&#45;&gt;Node4 -->
<g id="edge25" class="edge"><title>Node16&#45;&gt;Node4</title>
<path fill="none" stroke="midnightblue" d="M1002.88,-116.878C1038.49,-107.29 1094.64,-92.1748 1133.5,-81.7116"/>
<polygon fill="midnightblue" stroke="midnightblue" points="1134.73,-85.0048 1143.48,-79.0253 1132.91,-78.2455 1134.73,-85.0048"/>
</g>
<!-- Node16&#45;&gt;Node5 -->
<g id="edge26" class="edge"><title>Node16&#45;&gt;Node5</title>
<path fill="none" stroke="midnightblue" d="M932.842,-118.133C929.515,-117.411 926.195,-116.692 923,-116 848.792,-99.9354 811.279,-132.05 756,-80 742.787,-67.5583 738.502,-46.7617 737.238,-31.4364"/>
<polygon fill="midnightblue" stroke="midnightblue" points="740.734,-31.2661 736.767,-21.442 733.742,-31.5957 740.734,-31.2661"/>
</g>
<!-- Node17 -->
<g id="node17" class="node"><title>Node17</title>
<polygon fill="none" stroke="#bfbfbf" points="893.451,-59 893.451,-79 1044.55,-79 1044.55,-59 893.451,-59"/>
<text text-anchor="middle" x="969" y="-65" font-family="Helvetica,sans-Serif" font-size="10.00">boost/exception/exception.hpp</text>
</g>
<!-- Node16&#45;&gt;Node17 -->
<g id="edge22" class="edge"><title>Node16&#45;&gt;Node17</title>
<path fill="none" stroke="midnightblue" d="M969,-116.753C969,-109.25 969,-98.4238 969,-89.0781"/>
<polygon fill="midnightblue" stroke="midnightblue" points="972.5,-89.0752 969,-79.0752 965.5,-89.0752 972.5,-89.0752"/>
</g>
<!-- Node18 -->
<g id="node18" class="node"><title>Node18</title>
<polygon fill="none" stroke="#bfbfbf" points="1062.6,-59 1062.6,-79 1121.4,-79 1121.4,-59 1062.6,-59"/>
<text text-anchor="middle" x="1092" y="-65" font-family="Helvetica,sans-Serif" font-size="10.00">exception</text>
</g>
<!-- Node16&#45;&gt;Node18 -->
<g id="edge23" class="edge"><title>Node16&#45;&gt;Node18</title>
<path fill="none" stroke="midnightblue" d="M989.036,-116.878C1009.05,-107.766 1040.03,-93.6617 1062.78,-83.3028"/>
<polygon fill="midnightblue" stroke="midnightblue" points="1064.32,-86.4472 1071.97,-79.1181 1061.42,-80.0764 1064.32,-86.4472"/>
</g>
<!-- Node19 -->
<g id="node19" class="node"><title>Node19</title>
<polygon fill="none" stroke="#bfbfbf" points="764.766,-59 764.766,-79 875.234,-79 875.234,-59 764.766,-59"/>
<text text-anchor="middle" x="820" y="-65" font-family="Helvetica,sans-Serif" font-size="10.00">RMF/internal/errors.h</text>
</g>
<!-- Node16&#45;&gt;Node19 -->
<g id="edge27" class="edge"><title>Node16&#45;&gt;Node19</title>
<path fill="none" stroke="midnightblue" d="M944.729,-116.878C920.052,-107.603 881.613,-93.1564 853.928,-82.7515"/>
<polygon fill="midnightblue" stroke="midnightblue" points="854.853,-79.36 844.261,-79.1181 852.39,-85.9125 854.853,-79.36"/>
</g>
</g>
</svg>
        <g id="navigator" transform="translate(0 0)" fill="#404254">
                <rect fill="#f2f5e9" fill-opacity="0.5" stroke="#606060" stroke-width=".5" x="0" y="0" width="60" height="60"/>
                <use id="zoomplus" xlink:href="#zoomPlus" x="17" y="9" onmousedown="handleZoom(evt,'in')"/>
                <use id="zoomminus" xlink:href="#zoomMin" x="42" y="9" onmousedown="handleZoom(evt,'out')"/>
                <use id="reset" xlink:href="#resetDef" x="30" y="36" onmousedown="handleReset()"/>
                <g id="arrowUp" xlink:href="#dirArrow" transform="translate(30 24)" onmousedown="handlePan(0,-1)">
                  <use xlink:href="#rim" fill="#404040">
                        <set attributeName="fill" to="#808080" begin="arrowUp.mouseover" end="arrowUp.mouseout"/>
                  </use>
                  <path fill="none" stroke="white" stroke-width="1.5" d="M0,-3.0v7 M-2.5,-0.5L0,-3.0L2.5,-0.5"/>
                </g>
                <g id="arrowRight" xlink:href="#dirArrow" transform="rotate(90) translate(36 -43)" onmousedown="handlePan(1,0)">
                  <use xlink:href="#rim" fill="#404040">
                        <set attributeName="fill" to="#808080" begin="arrowRight.mouseover" end="arrowRight.mouseout"/>
                  </use>
                  <path fill="none" stroke="white" stroke-width="1.5" d="M0,-3.0v7 M-2.5,-0.5L0,-3.0L2.5,-0.5"/>
                </g>
                <g id="arrowDown" xlink:href="#dirArrow" transform="rotate(180) translate(-30 -48)" onmousedown="handlePan(0,1)">
                  <use xlink:href="#rim" fill="#404040">
                        <set attributeName="fill" to="#808080" begin="arrowDown.mouseover" end="arrowDown.mouseout"/>
                  </use>
                  <path fill="none" stroke="white" stroke-width="1.5" d="M0,-3.0v7 M-2.5,-0.5L0,-3.0L2.5,-0.5"/>
                </g>
                <g id="arrowLeft" xlink:href="#dirArrow" transform="rotate(270) translate(-36 17)" onmousedown="handlePan(-1,0)">
                  <use xlink:href="#rim" fill="#404040">
                        <set attributeName="fill" to="#808080" begin="arrowLeft.mouseover" end="arrowLeft.mouseout"/>
                  </use>
                  <path fill="none" stroke="white" stroke-width="1.5" d="M0,-3.0v7 M-2.5,-0.5L0,-3.0L2.5,-0.5"/>
                </g>
        </g>
        <svg viewBox="0 0 15 15" width="100%" height="30px" preserveAspectRatio="xMaxYMin meet">
         <g id="arrow_out" transform="scale(0.3 0.3)">
          <a xlink:href="names_8h__incl_org.svg" target="_base">
           <rect id="button" ry="5" rx="5" y="6" x="6" height="38" width="38"
                fill="#f2f5e9" fill-opacity="0.5" stroke="#606060" stroke-width="1.0"/>
           <path id="arrow"
             d="M 11.500037,31.436501 C 11.940474,20.09759 22.043105,11.32322 32.158766,21.979434 L 37.068811,17.246167 C 37.068811,17.246167 37.088388,32 37.088388,32 L 22.160133,31.978069 C 22.160133,31.978069 26.997745,27.140456 26.997745,27.140456 C 18.528582,18.264221 13.291696,25.230495 11.500037,31.436501 z"
             style="fill:#404040;"/>
          </a>
         </g>
        </svg>
</svg>
