<?xml version="1.0" encoding="UTF-8" standalone="no"?>
<!DOCTYPE svg PUBLIC "-//W3C//DTD SVG 1.1//EN"
 "http://www.w3.org/Graphics/SVG/1.1/DTD/svg11.dtd">
<!-- Generated by graphviz version 2.36.0 (20140111.2315)
 -->
<!-- Title: names.h Pages: 1 -->
<svg width="1376pt" height="318pt"
 viewBox="0.00 0.00 1376.00 318.00" xmlns="http://www.w3.org/2000/svg" xmlns:xlink="http://www.w3.org/1999/xlink">
<g id="graph0" class="graph" transform="scale(1 1) rotate(0) translate(4 314)">
<title>names.h</title>
<!-- Node1 -->
<g id="node1" class="node"><title>Node1</title>
<polygon fill="#bfbfbf" stroke="black" points="593.823,-291 593.823,-309 648.177,-309 648.177,-291 593.823,-291"/>
<text text-anchor="middle" x="621" y="-297" font-family="Helvetica,sans-Serif" font-size="10.00">names.h</text>
</g>
<!-- Node2 -->
<g id="node2" class="node"><title>Node2</title>
<polygon fill="none" stroke="#bfbfbf" points="-0.780762,-57 -0.780762,-75 50.7808,-75 50.7808,-57 -0.780762,-57"/>
<text text-anchor="middle" x="25" y="-63" font-family="Helvetica,sans-Serif" font-size="10.00">sstream</text>
</g>
<!-- Node1&#45;&gt;Node2 -->
<g id="edge1" class="edge"><title>Node1&#45;&gt;Node2</title>
<path fill="none" stroke="midnightblue" d="M593.645,-291.491C563.927,-283.133 515.18,-268.838 474,-254 311.206,-195.34 121.335,-110.77 52.0486,-79.3569"/>
<polygon fill="midnightblue" stroke="midnightblue" points="53.2706,-76.0679 42.7185,-75.1174 50.3748,-82.4408 53.2706,-76.0679"/>
</g>
<!-- Node3 -->
<g id="node3" class="node"><title>Node3</title>
<polygon fill="none" stroke="#bfbfbf" points="573.773,-57 573.773,-75 614.227,-75 614.227,-57 573.773,-57"/>
<text text-anchor="middle" x="594" y="-63" font-family="Helvetica,sans-Serif" font-size="10.00">string</text>
</g>
<!-- Node1&#45;&gt;Node3 -->
<g id="edge2" class="edge"><title>Node1&#45;&gt;Node3</title>
<path fill="none" stroke="midnightblue" d="M595.511,-290.979C544.739,-273.45 432.005,-226.392 387,-142 380.726,-130.235 378.564,-122.325 387,-112 437.794,-49.8354 486.141,-95.5539 564,-76 564.099,-75.9752 564.198,-75.9502 564.297,-75.9251"/>
<polygon fill="midnightblue" stroke="midnightblue" points="565.009,-79.3589 573.736,-73.3511 563.167,-72.6055 565.009,-79.3589"/>
</g>
<!-- Node4 -->
<g id="node4" class="node"><title>Node4</title>
<g id="a_node4"><a xlink:href="config_8h_source.html" target="_top" xlink:title="RMF/config.h">
<polygon fill="none" stroke="black" points="1293.27,-57 1293.27,-75 1368.73,-75 1368.73,-57 1293.27,-57"/>
<text text-anchor="middle" x="1331" y="-63" font-family="Helvetica,sans-Serif" font-size="10.00">RMF/config.h</text>
</a>
</g>
</g>
<!-- Node1&#45;&gt;Node4 -->
<g id="edge3" class="edge"><title>Node1&#45;&gt;Node4</title>
<path fill="none" stroke="midnightblue" d="M648.381,-297.423C734.766,-291.816 1008.46,-269.207 1222,-198 1274.42,-180.52 1304.03,-189.056 1333,-142 1343.54,-124.876 1340.64,-101.131 1336.68,-84.9779"/>
<polygon fill="midnightblue" stroke="midnightblue" points="1340,-83.8574 1333.92,-75.1822 1333.26,-85.7568 1340,-83.8574"/>
</g>
<!-- Node6 -->
<g id="node6" class="node"><title>Node6</title>
<g id="a_node6"><a xlink:href="types_8h.html" target="_top" xlink:title="Default implementation for types.h. ">
<polygon fill="none" stroke="black" points="850.879,-235 850.879,-253 899.121,-253 899.121,-235 850.879,-235"/>
<text text-anchor="middle" x="875" y="-241" font-family="Helvetica,sans-Serif" font-size="10.00">types.h</text>
</a>
</g>
</g>
<!-- Node1&#45;&gt;Node6 -->
<g id="edge5" class="edge"><title>Node1&#45;&gt;Node6</title>
<path fill="none" stroke="midnightblue" d="M648.182,-293.221C694.757,-283.319 789.717,-263.131 840.747,-252.282"/>
<polygon fill="midnightblue" stroke="midnightblue" points="841.585,-255.682 850.638,-250.179 840.129,-248.835 841.585,-255.682"/>
</g>
<!-- Node5 -->
<g id="node5" class="node"><title>Node5</title>
<g id="a_node5"><a xlink:href="compiler__macros_8h.html" target="_top" xlink:title="Various compiler workarounds. ">
<polygon fill="none" stroke="black" points="956.544,-1 956.544,-19 1081.46,-19 1081.46,-1 956.544,-1"/>
<text text-anchor="middle" x="1019" y="-7" font-family="Helvetica,sans-Serif" font-size="10.00">RMF/compiler_macros.h</text>
</a>
</g>
</g>
<!-- Node4&#45;&gt;Node5 -->
<g id="edge4" class="edge"><title>Node4&#45;&gt;Node5</title>
<path fill="none" stroke="midnightblue" d="M1293.05,-57.6618C1289.99,-57.0917 1286.94,-56.5316 1284,-56 1213.46,-43.2589 1132.17,-29.6071 1078.42,-20.7242"/>
<polygon fill="midnightblue" stroke="midnightblue" points="1078.82,-17.2426 1068.38,-19.0677 1077.68,-24.1492 1078.82,-17.2426"/>
</g>
<!-- Node6&#45;&gt;Node4 -->
<g id="edge6" class="edge"><title>Node6&#45;&gt;Node4</title>
<path fill="none" stroke="midnightblue" d="M899.19,-240.647C981.76,-232.138 1250.69,-200.351 1311,-142 1326.11,-127.382 1330.23,-102.729 1331.14,-85.7"/>
<polygon fill="midnightblue" stroke="midnightblue" points="1334.65,-85.4164 1331.36,-75.3454 1327.65,-85.2699 1334.65,-85.4164"/>
</g>
<!-- Node7 -->
<g id="node7" class="node"><title>Node7</title>
<g id="a_node7"><a xlink:href="Vector_8h.html" target="_top" xlink:title="Represent coordinates. ">
<polygon fill="none" stroke="black" points="848.926,-179 848.926,-197 901.074,-197 901.074,-179 848.926,-179"/>
<text text-anchor="middle" x="875" y="-185" font-family="Helvetica,sans-Serif" font-size="10.00">Vector.h</text>
</a>
</g>
</g>
<!-- Node6&#45;&gt;Node7 -->
<g id="edge7" class="edge"><title>Node6&#45;&gt;Node7</title>
<path fill="none" stroke="midnightblue" d="M875,-234.562C875,-227.308 875,-216.588 875,-207.369"/>
<polygon fill="midnightblue" stroke="midnightblue" points="878.5,-207.201 875,-197.201 871.5,-207.201 878.5,-207.201"/>
</g>
<!-- Node7&#45;&gt;Node4 -->
<g id="edge8" class="edge"><title>Node7&#45;&gt;Node4</title>
<path fill="none" stroke="midnightblue" d="M901.328,-187C981.138,-186.558 1218.83,-181.847 1283,-142 1304.1,-128.899 1317.62,-102.703 1324.77,-85.0087"/>
<polygon fill="midnightblue" stroke="midnightblue" points="1328.18,-85.8752 1328.4,-75.2827 1321.62,-83.4243 1328.18,-85.8752"/>
</g>
<!-- Node8 -->
<g id="node8" class="node"><title>Node8</title>
<g id="a_node8"><a xlink:href="infrastructure__macros_8h.html" target="_top" xlink:title="Various general useful macros for IMP. ">
<polygon fill="none" stroke="black" points="218.48,-118 218.48,-136 339.52,-136 339.52,-118 218.48,-118"/>
<text text-anchor="middle" x="279" y="-124" font-family="Helvetica,sans-Serif" font-size="10.00">infrastructure_macros.h</text>
</a>
</g>
</g>
<!-- Node7&#45;&gt;Node8 -->
<g id="edge9" class="edge"><title>Node7&#45;&gt;Node8</title>
<path fill="none" stroke="midnightblue" d="M848.78,-184.925C775.626,-179.063 563.103,-161.527 387,-142 374.396,-140.602 360.984,-138.976 348.051,-137.337"/>
<polygon fill="midnightblue" stroke="midnightblue" points="348.171,-133.824 337.807,-136.024 347.281,-140.767 348.171,-133.824"/>
</g>
<!-- Node15 -->
<g id="node14" class="node"><title>Node15</title>
<g id="a_node14"><a xlink:href="exceptions_8h.html" target="_top" xlink:title="Declarations of the various exception types. ">
<polygon fill="none" stroke="black" points="1201.93,-118 1201.93,-136 1274.07,-136 1274.07,-118 1201.93,-118"/>
<text text-anchor="middle" x="1238" y="-124" font-family="Helvetica,sans-Serif" font-size="10.00">exceptions.h</text>
</a>
</g>
</g>
<!-- Node7&#45;&gt;Node15 -->
<g id="edge18" class="edge"><title>Node7&#45;&gt;Node15</title>
<path fill="none" stroke="midnightblue" d="M901.131,-184.67C955.662,-179.505 1085.36,-165.648 1192,-142 1195.92,-141.13 1200,-140.093 1204.02,-138.981"/>
<polygon fill="midnightblue" stroke="midnightblue" points="1205.22,-142.28 1213.84,-136.12 1203.26,-135.56 1205.22,-142.28"/>
</g>
<!-- Node19 -->
<g id="node17" class="node"><title>Node19</title>
<polygon fill="none" stroke="#bfbfbf" points="396.237,-118 396.237,-136 511.763,-136 511.763,-118 396.237,-118"/>
<text text-anchor="middle" x="454" y="-124" font-family="Helvetica,sans-Serif" font-size="10.00">boost/range/begin.hpp</text>
</g>
<!-- Node7&#45;&gt;Node19 -->
<g id="edge24" class="edge"><title>Node7&#45;&gt;Node19</title>
<path fill="none" stroke="midnightblue" d="M848.694,-184.38C789.79,-178.355 642.893,-162.449 521,-142 514.15,-140.851 506.935,-139.496 499.878,-138.091"/>
<polygon fill="midnightblue" stroke="midnightblue" points="500.213,-134.587 489.715,-136.012 498.811,-141.445 500.213,-134.587"/>
</g>
<!-- Node20 -->
<g id="node18" class="node"><title>Node20</title>
<polygon fill="none" stroke="#bfbfbf" points="530.128,-118 530.128,-136 637.872,-136 637.872,-118 530.128,-118"/>
<text text-anchor="middle" x="584" y="-124" font-family="Helvetica,sans-Serif" font-size="10.00">boost/range/end.hpp</text>
</g>
<!-- Node7&#45;&gt;Node20 -->
<g id="edge25" class="edge"><title>Node7&#45;&gt;Node20</title>
<path fill="none" stroke="midnightblue" d="M848.628,-182.006C806.122,-173.91 719.855,-157.282 647,-142 641.31,-140.806 635.338,-139.521 629.432,-138.231"/>
<polygon fill="midnightblue" stroke="midnightblue" points="630.137,-134.803 619.618,-136.07 628.631,-141.639 630.137,-134.803"/>
</g>
<!-- Node21 -->
<g id="node19" class="node"><title>Node21</title>
<polygon fill="none" stroke="#bfbfbf" points="656.313,-113 656.313,-141 755.687,-141 755.687,-113 656.313,-113"/>
<text text-anchor="start" x="664.313" y="-129" font-family="Helvetica,sans-Serif" font-size="10.00">boost/type_traits/is</text>
<text text-anchor="middle" x="706" y="-119" font-family="Helvetica,sans-Serif" font-size="10.00">_convertible.hpp</text>
</g>
<!-- Node7&#45;&gt;Node21 -->
<g id="edge26" class="edge"><title>Node7&#45;&gt;Node21</title>
<path fill="none" stroke="midnightblue" d="M851.856,-178.92C826.541,-170.082 785.286,-155.68 753.1,-144.443"/>
<polygon fill="midnightblue" stroke="midnightblue" points="754.025,-141.059 743.43,-141.067 751.718,-147.668 754.025,-141.059"/>
</g>
<!-- Node22 -->
<g id="node20" class="node"><title>Node22</title>
<polygon fill="none" stroke="#bfbfbf" points="773.251,-118 773.251,-136 868.749,-136 868.749,-118 773.251,-118"/>
<text text-anchor="middle" x="821" y="-124" font-family="Helvetica,sans-Serif" font-size="10.00">boost/mpl/not.hpp</text>
</g>
<!-- Node7&#45;&gt;Node22 -->
<g id="edge27" class="edge"><title>Node7&#45;&gt;Node22</title>
<path fill="none" stroke="midnightblue" d="M867.492,-178.796C859.19,-169.726 845.624,-154.904 835.283,-143.605"/>
<polygon fill="midnightblue" stroke="midnightblue" points="837.778,-141.148 828.445,-136.134 832.614,-145.874 837.778,-141.148"/>
</g>
<!-- Node23 -->
<g id="node21" class="node"><title>Node23</title>
<polygon fill="none" stroke="#bfbfbf" points="886.625,-118 886.625,-136 971.375,-136 971.375,-118 886.625,-118"/>
<text text-anchor="middle" x="929" y="-124" font-family="Helvetica,sans-Serif" font-size="10.00">boost/array.hpp</text>
</g>
<!-- Node7&#45;&gt;Node23 -->
<g id="edge28" class="edge"><title>Node7&#45;&gt;Node23</title>
<path fill="none" stroke="midnightblue" d="M882.508,-178.796C890.81,-169.726 904.376,-154.904 914.717,-143.605"/>
<polygon fill="midnightblue" stroke="midnightblue" points="917.386,-145.874 921.555,-136.134 912.222,-141.148 917.386,-145.874"/>
</g>
<!-- Node24 -->
<g id="node22" class="node"><title>Node24</title>
<polygon fill="none" stroke="#bfbfbf" points="989.582,-118 989.582,-136 1108.42,-136 1108.42,-118 989.582,-118"/>
<text text-anchor="middle" x="1049" y="-124" font-family="Helvetica,sans-Serif" font-size="10.00">boost/static_assert.hpp</text>
</g>
<!-- Node7&#45;&gt;Node24 -->
<g id="edge29" class="edge"><title>Node7&#45;&gt;Node24</title>
<path fill="none" stroke="midnightblue" d="M898.829,-178.92C929.071,-168.665 981.409,-150.919 1015.62,-139.319"/>
<polygon fill="midnightblue" stroke="midnightblue" points="1016.83,-142.603 1025.18,-136.077 1014.59,-135.974 1016.83,-142.603"/>
</g>
<!-- Node25 -->
<g id="node23" class="node"><title>Node25</title>
<polygon fill="none" stroke="#bfbfbf" points="1126.44,-118 1126.44,-136 1183.56,-136 1183.56,-118 1126.44,-118"/>
<text text-anchor="middle" x="1155" y="-124" font-family="Helvetica,sans-Serif" font-size="10.00">algorithm</text>
</g>
<!-- Node7&#45;&gt;Node25 -->
<g id="edge30" class="edge"><title>Node7&#45;&gt;Node25</title>
<path fill="none" stroke="midnightblue" d="M901.113,-183.623C945.836,-177.512 1039.74,-163.25 1117,-142 1119.8,-141.231 1122.68,-140.346 1125.55,-139.403"/>
<polygon fill="midnightblue" stroke="midnightblue" points="1126.81,-142.667 1135.09,-136.054 1124.5,-136.062 1126.81,-142.667"/>
</g>
<!-- Node8&#45;&gt;Node2 -->
<g id="edge10" class="edge"><title>Node8&#45;&gt;Node2</title>
<path fill="none" stroke="midnightblue" d="M241.927,-117.993C200.09,-108.864 129.768,-93.2439 60.699,-76.3636"/>
<polygon fill="midnightblue" stroke="midnightblue" points="61.5106,-72.959 50.9645,-73.9739 59.8417,-79.7571 61.5106,-72.959"/>
</g>
<!-- Node8&#45;&gt;Node3 -->
<g id="edge12" class="edge"><title>Node8&#45;&gt;Node3</title>
<path fill="none" stroke="midnightblue" d="M321.42,-117.969C332.052,-115.987 343.439,-113.891 354,-112 447.213,-95.3114 471.812,-97.6452 564,-76 564.099,-75.9767 564.199,-75.9532 564.298,-75.9297"/>
<polygon fill="midnightblue" stroke="midnightblue" points="564.979,-79.3699 573.757,-73.4371 563.195,-72.6009 564.979,-79.3699"/>
</g>
<!-- Node8&#45;&gt;Node5 -->
<g id="edge13" class="edge"><title>Node8&#45;&gt;Node5</title>
<path fill="none" stroke="midnightblue" d="M298.555,-117.923C321.416,-108.366 360.29,-91.7567 393,-76 410.194,-67.7174 412.66,-61.2822 431,-56 525.686,-28.7286 810.408,-17.0271 945.861,-12.8994"/>
<polygon fill="midnightblue" stroke="midnightblue" points="946.247,-16.3895 956.138,-12.5921 946.038,-9.39264 946.247,-16.3895"/>
</g>
<!-- Node9 -->
<g id="node9" class="node"><title>Node9</title>
<polygon fill="none" stroke="#bfbfbf" points="439.828,-57 439.828,-75 494.172,-75 494.172,-57 439.828,-57"/>
<text text-anchor="middle" x="467" y="-63" font-family="Helvetica,sans-Serif" font-size="10.00">iostream</text>
</g>
<!-- Node8&#45;&gt;Node9 -->
<g id="edge11" class="edge"><title>Node8&#45;&gt;Node9</title>
<path fill="none" stroke="midnightblue" d="M304.746,-117.92C337.562,-107.621 394.457,-89.7662 431.407,-78.1701"/>
<polygon fill="midnightblue" stroke="midnightblue" points="432.77,-81.4106 441.264,-75.0769 430.674,-74.7318 432.77,-81.4106"/>
</g>
<!-- Node11 -->
<g id="node10" class="node"><title>Node11</title>
<polygon fill="none" stroke="#bfbfbf" points="512.384,-57 512.384,-75 555.616,-75 555.616,-57 512.384,-57"/>
<text text-anchor="middle" x="534" y="-63" font-family="Helvetica,sans-Serif" font-size="10.00">vector</text>
</g>
<!-- Node8&#45;&gt;Node11 -->
<g id="edge14" class="edge"><title>Node8&#45;&gt;Node11</title>
<path fill="none" stroke="midnightblue" d="M318.429,-117.983C361.296,-109.094 432.022,-93.9242 502.437,-76.0138"/>
<polygon fill="midnightblue" stroke="midnightblue" points="503.549,-79.3418 512.367,-73.4687 501.812,-72.5609 503.549,-79.3418"/>
</g>
<!-- Node12 -->
<g id="node11" class="node"><title>Node12</title>
<polygon fill="none" stroke="#bfbfbf" points="68.3057,-57 68.3057,-75 157.694,-75 157.694,-57 68.3057,-57"/>
<text text-anchor="middle" x="113" y="-63" font-family="Helvetica,sans-Serif" font-size="10.00">boost/config.hpp</text>
</g>
<!-- Node8&#45;&gt;Node12 -->
<g id="edge15" class="edge"><title>Node8&#45;&gt;Node12</title>
<path fill="none" stroke="midnightblue" d="M256.266,-117.92C227.538,-107.709 177.911,-90.0709 145.268,-78.4688"/>
<polygon fill="midnightblue" stroke="midnightblue" points="146.319,-75.128 135.725,-75.0769 143.975,-81.7238 146.319,-75.128"/>
</g>
<!-- Node13 -->
<g id="node12" class="node"><title>Node13</title>
<polygon fill="none" stroke="#bfbfbf" points="175.53,-57 175.53,-75 270.47,-75 270.47,-57 175.53,-57"/>
<text text-anchor="middle" x="223" y="-63" font-family="Helvetica,sans-Serif" font-size="10.00">boost/version.hpp</text>
</g>
<!-- Node8&#45;&gt;Node13 -->
<g id="edge16" class="edge"><title>Node8&#45;&gt;Node13</title>
<path fill="none" stroke="midnightblue" d="M271.213,-117.796C262.604,-108.726 248.536,-93.9035 237.812,-82.6054"/>
<polygon fill="midnightblue" stroke="midnightblue" points="240.143,-79.9776 230.72,-75.134 235.066,-84.7966 240.143,-79.9776"/>
</g>
<!-- Node14 -->
<g id="node13" class="node"><title>Node14</title>
<polygon fill="none" stroke="#bfbfbf" points="287.971,-57 287.971,-75 384.029,-75 384.029,-57 287.971,-57"/>
<text text-anchor="middle" x="336" y="-63" font-family="Helvetica,sans-Serif" font-size="10.00">boost/foreach.hpp</text>
</g>
<!-- Node8&#45;&gt;Node14 -->
<g id="edge17" class="edge"><title>Node8&#45;&gt;Node14</title>
<path fill="none" stroke="midnightblue" d="M286.926,-117.796C295.689,-108.726 310.008,-93.9035 320.924,-82.6054"/>
<polygon fill="midnightblue" stroke="midnightblue" points="323.711,-84.7578 328.142,-75.134 318.676,-79.8941 323.711,-84.7578"/>
</g>
<!-- Node15&#45;&gt;Node3 -->
<g id="edge21" class="edge"><title>Node15&#45;&gt;Node3</title>
<path fill="none" stroke="midnightblue" d="M1214.85,-117.867C1207.61,-115.621 1199.55,-113.415 1192,-112 977.359,-71.771 712.997,-67.2552 624.484,-66.9365"/>
<polygon fill="midnightblue" stroke="midnightblue" points="624.349,-63.4363 614.342,-66.9162 624.335,-70.4363 624.349,-63.4363"/>
</g>
<!-- Node15&#45;&gt;Node4 -->
<g id="edge22" class="edge"><title>Node15&#45;&gt;Node4</title>
<path fill="none" stroke="midnightblue" d="M1250.93,-117.796C1266.06,-108.197 1291.35,-92.1571 1309.45,-80.6686"/>
<polygon fill="midnightblue" stroke="midnightblue" points="1311.61,-83.4465 1318.18,-75.134 1307.86,-77.5356 1311.61,-83.4465"/>
</g>
<!-- Node15&#45;&gt;Node5 -->
<g id="edge23" class="edge"><title>Node15&#45;&gt;Node5</title>
<path fill="none" stroke="midnightblue" d="M1212.78,-117.997C1206.05,-115.953 1198.77,-113.82 1192,-112 1124.12,-93.7573 1089.04,-124.323 1038,-76 1025.33,-64.0097 1020.97,-44.0895 1019.53,-29.4558"/>
<polygon fill="midnightblue" stroke="midnightblue" points="1023.01,-28.8774 1018.91,-19.1057 1016.02,-29.2979 1023.01,-28.8774"/>
</g>
<!-- Node16 -->
<g id="node15" class="node"><title>Node16</title>
<polygon fill="none" stroke="#bfbfbf" points="1047.45,-57 1047.45,-75 1198.55,-75 1198.55,-57 1047.45,-57"/>
<text text-anchor="middle" x="1123" y="-63" font-family="Helvetica,sans-Serif" font-size="10.00">boost/exception/exception.hpp</text>
</g>
<!-- Node15&#45;&gt;Node16 -->
<g id="edge19" class="edge"><title>Node15&#45;&gt;Node16</title>
<path fill="none" stroke="midnightblue" d="M1222.01,-117.796C1202.79,-107.933 1170.3,-91.2693 1147.81,-79.7306"/>
<polygon fill="midnightblue" stroke="midnightblue" points="1149.35,-76.5847 1138.85,-75.134 1146.15,-82.8129 1149.35,-76.5847"/>
</g>
<!-- Node17 -->
<g id="node16" class="node"><title>Node17</title>
<polygon fill="none" stroke="#bfbfbf" points="1216.6,-57 1216.6,-75 1275.4,-75 1275.4,-57 1216.6,-57"/>
<text text-anchor="middle" x="1246" y="-63" font-family="Helvetica,sans-Serif" font-size="10.00">exception</text>
</g>
<!-- Node15&#45;&gt;Node17 -->
<g id="edge20" class="edge"><title>Node15&#45;&gt;Node17</title>
<path fill="none" stroke="midnightblue" d="M1239.11,-117.796C1240.25,-109.43 1242.04,-96.1713 1243.52,-85.2974"/>
<polygon fill="midnightblue" stroke="midnightblue" points="1247.02,-85.5136 1244.9,-75.134 1240.09,-84.573 1247.02,-85.5136"/>
</g>
</g>
</svg>
