<?xml version="1.0" encoding="UTF-8" standalone="no"?>
<!DOCTYPE svg PUBLIC "-//W3C//DTD SVG 1.1//EN"
 "http://www.w3.org/Graphics/SVG/1.1/DTD/svg11.dtd">
<!-- Generated by graphviz version 2.34.0 (20131025.1349)
 -->
<!-- Title: names.h Pages: 1 -->
<!--zoomable 378 -->
<svg id="main" version="1.1" xmlns="http://www.w3.org/2000/svg" xmlns:xlink="http://www.w3.org/1999/xlink" xml:space="preserve" onload="init(evt)">
<style type="text/css"><![CDATA[
.edge:hover path { stroke: red; }
.edge:hover polygon { stroke: red; fill: red; }
]]></style>
<script type="text/javascript"><![CDATA[
var edges = document.getElementsByTagName('g');
if (edges && edges.length) {
  for (var i=0;i<edges.length;i++) {
    if (edges[i].id.substr(0,4)=='edge') {
      edges[i].setAttribute('class','edge');
    }
  }
}
]]></script>
        <defs>
                <circle id="rim" cx="0" cy="0" r="7"/>
                <circle id="rim2" cx="0" cy="0" r="3.5"/>
                <g id="zoomPlus">
                        <use xlink:href="#rim" fill="#404040">
                                <set attributeName="fill" to="#808080" begin="zoomplus.mouseover" end="zoomplus.mouseout"/>
                        </use>
                        <path d="M-4,0h8M0,-4v8" fill="none" stroke="white" stroke-width="1.5" pointer-events="none"/>
                </g>
                <g id="zoomMin">
                        <use xlink:href="#rim" fill="#404040">
                                <set attributeName="fill" to="#808080" begin="zoomminus.mouseover" end="zoomminus.mouseout"/>
                        </use>
                        <path d="M-4,0h8" fill="none" stroke="white" stroke-width="1.5" pointer-events="none"/>
                </g>
                <g id="dirArrow">
                        <path fill="none" stroke="white" stroke-width="1.5" d="M0,-3.0v7 M-2.5,-0.5L0,-3.0L2.5,-0.5"/>
                </g>
               <g id="resetDef">
                       <use xlink:href="#rim2" fill="#404040">
                               <set attributeName="fill" to="#808080" begin="reset.mouseover" end="reset.mouseout"/>
                       </use>
               </g>
        </defs>

<script type="text/javascript">
var viewWidth = 1244;
var viewHeight = 378;
var sectionId = 'dynsection-0';
</script>
<script xlink:href="svgpan.js"/>
<svg id="graph" class="graph">
<g id="viewport">
<title>names.h</title>
<!-- Node1 -->
<g id="node1" class="node"><title>Node1</title>
<polygon fill="#bfbfbf" stroke="black" points="439.823,-349 439.823,-369 494.177,-369 494.177,-349 439.823,-349"/>
<text text-anchor="middle" x="467" y="-355" font-family="Helvetica,sans-Serif" font-size="10.00">names.h</text>
</g>
<!-- Node2 -->
<g id="node2" class="node"><title>Node2</title>
<polygon fill="none" stroke="#bfbfbf" points="-0.780762,-59 -0.780762,-79 50.7808,-79 50.7808,-59 -0.780762,-59"/>
<text text-anchor="middle" x="25" y="-65" font-family="Helvetica,sans-Serif" font-size="10.00">sstream</text>
</g>
<!-- Node1&#45;&gt;Node2 -->
<g id="edge1" class="edge"><title>Node1&#45;&gt;Node2</title>
<path fill="none" stroke="midnightblue" d="M439.751,-354.832C359.07,-344.701 127,-309.837 127,-244 127,-244 127,-244 127,-184 127,-138.512 81.3396,-102.861 51.1185,-84.2463"/>
<polygon fill="midnightblue" stroke="midnightblue" points="52.6905,-81.1095 42.3029,-79.0243 49.1229,-87.1322 52.6905,-81.1095"/>
</g>
<!-- Node3 -->
<g id="node3" class="node"><title>Node3</title>
<polygon fill="none" stroke="#bfbfbf" points="668.773,-59 668.773,-79 709.227,-79 709.227,-59 668.773,-59"/>
<text text-anchor="middle" x="689" y="-65" font-family="Helvetica,sans-Serif" font-size="10.00">string</text>
</g>
<!-- Node1&#45;&gt;Node3 -->
<g id="edge2" class="edge"><title>Node1&#45;&gt;Node3</title>
<path fill="none" stroke="midnightblue" d="M457.999,-348.842C441.031,-330.561 406,-287.547 406,-244 406,-244 406,-244 406,-184 406,-139.66 439.586,-136.312 479,-116 549.971,-79.4244 577.521,-99.2815 655,-80 656.243,-79.6908 657.508,-79.3657 658.784,-79.0294"/>
<polygon fill="midnightblue" stroke="midnightblue" points="659.881,-82.3573 668.58,-76.3091 658.008,-75.6126 659.881,-82.3573"/>
</g>
<!-- Node4 -->
<g id="node4" class="node"><title>Node4</title>
<g id="a_node4"><a xlink:href="config_8h_source.html" target="_top" xlink:title="RMF/config.h">
<polygon fill="none" stroke="black" points="748.269,-59 748.269,-79 823.731,-79 823.731,-59 748.269,-59"/>
<text text-anchor="middle" x="786" y="-65" font-family="Helvetica,sans-Serif" font-size="10.00">RMF/config.h</text>
</a>
</g>
</g>
<!-- Node1&#45;&gt;Node4 -->
<g id="edge3" class="edge"><title>Node1&#45;&gt;Node4</title>
<path fill="none" stroke="midnightblue" d="M494.296,-356.615C588.319,-351.11 893,-326.877 893,-244 893,-244 893,-244 893,-184 893,-137.554 845.197,-102.267 813.494,-83.9713"/>
<polygon fill="midnightblue" stroke="midnightblue" points="815.08,-80.8485 804.638,-79.0556 811.683,-86.9689 815.08,-80.8485"/>
</g>
<!-- Node6 -->
<g id="node6" class="node"><title>Node6</title>
<g id="a_node6"><a xlink:href="types_8h.html" target="_top" xlink:title="types.h">
<polygon fill="none" stroke="black" points="503.879,-291 503.879,-311 552.121,-311 552.121,-291 503.879,-291"/>
<text text-anchor="middle" x="528" y="-297" font-family="Helvetica,sans-Serif" font-size="10.00">types.h</text>
</a>
</g>
</g>
<!-- Node1&#45;&gt;Node6 -->
<g id="edge5" class="edge"><title>Node1&#45;&gt;Node6</title>
<path fill="none" stroke="midnightblue" d="M477.073,-348.753C486.133,-340.435 499.645,-328.031 510.474,-318.089"/>
<polygon fill="midnightblue" stroke="midnightblue" points="513.115,-320.416 518.115,-311.075 508.381,-315.26 513.115,-320.416"/>
</g>
<!-- Node5 -->
<g id="node5" class="node"><title>Node5</title>
<g id="a_node5"><a xlink:href="compiler__macros_8h.html" target="_top" xlink:title="Various compiler workarounds. ">
<polygon fill="none" stroke="black" points="723.544,-1 723.544,-21 848.456,-21 848.456,-1 723.544,-1"/>
<text text-anchor="middle" x="786" y="-7" font-family="Helvetica,sans-Serif" font-size="10.00">RMF/compiler_macros.h</text>
</a>
</g>
</g>
<!-- Node4&#45;&gt;Node5 -->
<g id="edge4" class="edge"><title>Node4&#45;&gt;Node5</title>
<path fill="none" stroke="midnightblue" d="M786,-58.7527C786,-51.2504 786,-40.4238 786,-31.0781"/>
<polygon fill="midnightblue" stroke="midnightblue" points="789.5,-31.0752 786,-21.0752 782.5,-31.0752 789.5,-31.0752"/>
</g>
<!-- Node6&#45;&gt;Node4 -->
<g id="edge6" class="edge"><title>Node6&#45;&gt;Node4</title>
<path fill="none" stroke="midnightblue" d="M552.548,-295.783C613.49,-283.839 771.361,-243.537 835,-138 846.43,-119.046 826.977,-98.6085 809.307,-85.1426"/>
<polygon fill="midnightblue" stroke="midnightblue" points="811.085,-82.1109 800.918,-79.129 807.007,-87.8 811.085,-82.1109"/>
</g>
<!-- Node7 -->
<g id="node7" class="node"><title>Node7</title>
<g id="a_node7"><a xlink:href="default__types_8h.html" target="_top" xlink:title="Default implementation for types.h. ">
<polygon fill="none" stroke="black" points="473.867,-233 473.867,-253 582.133,-253 582.133,-233 473.867,-233"/>
<text text-anchor="middle" x="528" y="-239" font-family="Helvetica,sans-Serif" font-size="10.00">RMF/default_types.h</text>
</a>
</g>
</g>
<!-- Node6&#45;&gt;Node7 -->
<g id="edge7" class="edge"><title>Node6&#45;&gt;Node7</title>
<path fill="none" stroke="midnightblue" d="M528,-290.753C528,-283.25 528,-272.424 528,-263.078"/>
<polygon fill="midnightblue" stroke="midnightblue" points="531.5,-263.075 528,-253.075 524.5,-263.075 531.5,-263.075"/>
</g>
<!-- Node7&#45;&gt;Node4 -->
<g id="edge8" class="edge"><title>Node7&#45;&gt;Node4</title>
<path fill="none" stroke="midnightblue" d="M520.412,-232.881C502.602,-210.337 461.826,-151.263 492,-116 493.998,-113.666 655.506,-89.3799 738.258,-77.0705"/>
<polygon fill="midnightblue" stroke="midnightblue" points="738.807,-80.5274 748.184,-75.5953 737.778,-73.6035 738.807,-80.5274"/>
</g>
<!-- Node8 -->
<g id="node8" class="node"><title>Node8</title>
<g id="a_node8"><a xlink:href="Vector_8h.html" target="_top" xlink:title="Represent coordinates. ">
<polygon fill="none" stroke="black" points="541.926,-175 541.926,-195 594.074,-195 594.074,-175 541.926,-175"/>
<text text-anchor="middle" x="568" y="-181" font-family="Helvetica,sans-Serif" font-size="10.00">Vector.h</text>
</a>
</g>
</g>
<!-- Node7&#45;&gt;Node8 -->
<g id="edge9" class="edge"><title>Node7&#45;&gt;Node8</title>
<path fill="none" stroke="midnightblue" d="M534.605,-232.753C540.313,-224.761 548.716,-212.998 555.664,-203.27"/>
<polygon fill="midnightblue" stroke="midnightblue" points="558.553,-205.247 561.518,-195.075 552.857,-201.178 558.553,-205.247"/>
</g>
<!-- Node8&#45;&gt;Node4 -->
<g id="edge10" class="edge"><title>Node8&#45;&gt;Node4</title>
<path fill="none" stroke="midnightblue" d="M547.363,-174.95C521.291,-162.291 481.981,-138.334 501,-116 502.921,-113.744 657.607,-89.707 738.252,-77.3087"/>
<polygon fill="midnightblue" stroke="midnightblue" points="738.823,-80.7622 748.176,-75.7844 737.76,-73.8433 738.823,-80.7622"/>
</g>
<!-- Node9 -->
<g id="node9" class="node"><title>Node9</title>
<g id="a_node9"><a xlink:href="infrastructure__macros_8h.html" target="_top" xlink:title="Various general useful macros for IMP. ">
<polygon fill="none" stroke="black" points="256.48,-117 256.48,-137 377.52,-137 377.52,-117 256.48,-117"/>
<text text-anchor="middle" x="317" y="-123" font-family="Helvetica,sans-Serif" font-size="10.00">infrastructure_macros.h</text>
</a>
</g>
</g>
<!-- Node8&#45;&gt;Node9 -->
<g id="edge11" class="edge"><title>Node8&#45;&gt;Node9</title>
<path fill="none" stroke="midnightblue" d="M541.613,-178.113C500.345,-168.906 419.823,-150.941 367.244,-139.21"/>
<polygon fill="midnightblue" stroke="midnightblue" points="367.966,-135.785 357.444,-137.023 366.442,-142.617 367.966,-135.785"/>
</g>
<!-- Node16 -->
<g id="node16" class="node"><title>Node16</title>
<g id="a_node16"><a xlink:href="exceptions_8h.html" target="_top" xlink:title="Various general useful macros for IMP. ">
<polygon fill="none" stroke="black" points="920.926,-117 920.926,-137 993.074,-137 993.074,-117 920.926,-117"/>
<text text-anchor="middle" x="957" y="-123" font-family="Helvetica,sans-Serif" font-size="10.00">exceptions.h</text>
</a>
</g>
</g>
<!-- Node8&#45;&gt;Node16 -->
<g id="edge21" class="edge"><title>Node8&#45;&gt;Node16</title>
<path fill="none" stroke="midnightblue" d="M594.127,-180.239C659.064,-170.891 828.453,-146.506 910.764,-134.656"/>
<polygon fill="midnightblue" stroke="midnightblue" points="911.434,-138.096 920.833,-133.207 910.436,-131.167 911.434,-138.096"/>
</g>
<!-- Node20 -->
<g id="node20" class="node"><title>Node20</title>
<polygon fill="none" stroke="#bfbfbf" points="510.237,-117 510.237,-137 625.763,-137 625.763,-117 510.237,-117"/>
<text text-anchor="middle" x="568" y="-123" font-family="Helvetica,sans-Serif" font-size="10.00">boost/range/begin.hpp</text>
</g>
<!-- Node8&#45;&gt;Node20 -->
<g id="edge28" class="edge"><title>Node8&#45;&gt;Node20</title>
<path fill="none" stroke="midnightblue" d="M568,-174.753C568,-167.25 568,-156.424 568,-147.078"/>
<polygon fill="midnightblue" stroke="midnightblue" points="571.5,-147.075 568,-137.075 564.5,-147.075 571.5,-147.075"/>
</g>
<!-- Node21 -->
<g id="node21" class="node"><title>Node21</title>
<polygon fill="none" stroke="#bfbfbf" points="644.128,-117 644.128,-137 751.872,-137 751.872,-117 644.128,-117"/>
<text text-anchor="middle" x="698" y="-123" font-family="Helvetica,sans-Serif" font-size="10.00">boost/range/end.hpp</text>
</g>
<!-- Node8&#45;&gt;Node21 -->
<g id="edge29" class="edge"><title>Node8&#45;&gt;Node21</title>
<path fill="none" stroke="midnightblue" d="M589.176,-174.878C610.423,-165.725 643.364,-151.536 667.44,-141.164"/>
<polygon fill="midnightblue" stroke="midnightblue" points="669.034,-144.289 676.833,-137.118 666.264,-137.86 669.034,-144.289"/>
</g>
<!-- Node22 -->
<g id="node22" class="node"><title>Node22</title>
<polygon fill="none" stroke="#bfbfbf" points="769.436,-117 769.436,-137 826.564,-137 826.564,-117 769.436,-117"/>
<text text-anchor="middle" x="798" y="-123" font-family="Helvetica,sans-Serif" font-size="10.00">algorithm</text>
</g>
<!-- Node8&#45;&gt;Node22 -->
<g id="edge30" class="edge"><title>Node8&#45;&gt;Node22</title>
<path fill="none" stroke="midnightblue" d="M594.131,-177.933C629.312,-169.723 694.098,-154.458 759.337,-138.126"/>
<polygon fill="midnightblue" stroke="midnightblue" points="760.537,-141.433 769.384,-135.603 758.832,-134.644 760.537,-141.433"/>
</g>
<!-- Node9&#45;&gt;Node2 -->
<g id="edge12" class="edge"><title>Node9&#45;&gt;Node2</title>
<path fill="none" stroke="midnightblue" d="M256.673,-116.971C206.614,-109.077 133.408,-96.6055 60.705,-79.9848"/>
<polygon fill="midnightblue" stroke="midnightblue" points="61.4491,-76.5645 50.9176,-77.721 59.8716,-83.3845 61.4491,-76.5645"/>
</g>
<!-- Node9&#45;&gt;Node3 -->
<g id="edge14" class="edge"><title>Node9&#45;&gt;Node3</title>
<path fill="none" stroke="midnightblue" d="M377.869,-117.834C473.362,-105.007 648.277,-81.4376 655,-80 656.252,-79.7322 657.526,-79.4419 658.808,-79.1345"/>
<polygon fill="midnightblue" stroke="midnightblue" points="659.861,-82.4764 668.632,-76.5327 658.069,-75.7097 659.861,-82.4764"/>
</g>
<!-- Node9&#45;&gt;Node5 -->
<g id="edge15" class="edge"><title>Node9&#45;&gt;Node5</title>
<path fill="none" stroke="midnightblue" d="M377.757,-117.381C463.155,-105.183 609.614,-83.9242 621,-80 639.815,-73.5156 641.926,-66.3291 660,-58 688.66,-44.7925 722.284,-32.6782 747.586,-24.2006"/>
<polygon fill="midnightblue" stroke="midnightblue" points="748.796,-27.4868 757.191,-21.0227 746.597,-20.841 748.796,-27.4868"/>
</g>
<!-- Node10 -->
<g id="node10" class="node"><title>Node10</title>
<polygon fill="none" stroke="#bfbfbf" points="356.828,-59 356.828,-79 411.172,-79 411.172,-59 356.828,-59"/>
<text text-anchor="middle" x="384" y="-65" font-family="Helvetica,sans-Serif" font-size="10.00">iostream</text>
</g>
<!-- Node9&#45;&gt;Node10 -->
<g id="edge13" class="edge"><title>Node9&#45;&gt;Node10</title>
<path fill="none" stroke="midnightblue" d="M328.064,-116.753C338.21,-108.272 353.44,-95.543 365.447,-85.5073"/>
<polygon fill="midnightblue" stroke="midnightblue" points="367.714,-88.1738 373.142,-79.0752 363.225,-82.8028 367.714,-88.1738"/>
</g>
<!-- Node11 -->
<g id="node11" class="node"><title>Node11</title>
<polygon fill="none" stroke="#bfbfbf" points="428.98,-59 428.98,-79 505.02,-79 505.02,-59 428.98,-59"/>
<text text-anchor="middle" x="467" y="-65" font-family="Helvetica,sans-Serif" font-size="10.00">internal/use.h</text>
</g>
<!-- Node9&#45;&gt;Node11 -->
<g id="edge16" class="edge"><title>Node9&#45;&gt;Node11</title>
<path fill="none" stroke="midnightblue" d="M341.434,-116.878C366.277,-107.603 404.974,-93.1564 432.844,-82.7515"/>
<polygon fill="midnightblue" stroke="midnightblue" points="434.432,-85.8946 442.577,-79.1181 431.984,-79.3368 434.432,-85.8946"/>
</g>
<!-- Node12 -->
<g id="node12" class="node"><title>Node12</title>
<polygon fill="none" stroke="#bfbfbf" points="523.306,-59 523.306,-79 612.694,-79 612.694,-59 523.306,-59"/>
<text text-anchor="middle" x="568" y="-65" font-family="Helvetica,sans-Serif" font-size="10.00">boost/config.hpp</text>
</g>
<!-- Node9&#45;&gt;Node12 -->
<g id="edge17" class="edge"><title>Node9&#45;&gt;Node12</title>
<path fill="none" stroke="midnightblue" d="M357.606,-116.94C401.168,-107.222 470.418,-91.7713 517.472,-81.2733"/>
<polygon fill="midnightblue" stroke="midnightblue" points="518.454,-84.6402 527.452,-79.0466 516.93,-77.8082 518.454,-84.6402"/>
</g>
<!-- Node13 -->
<g id="node13" class="node"><title>Node13</title>
<polygon fill="none" stroke="#bfbfbf" points="68.5298,-59 68.5298,-79 163.47,-79 163.47,-59 68.5298,-59"/>
<text text-anchor="middle" x="116" y="-65" font-family="Helvetica,sans-Serif" font-size="10.00">boost/version.hpp</text>
</g>
<!-- Node9&#45;&gt;Node13 -->
<g id="edge18" class="edge"><title>Node9&#45;&gt;Node13</title>
<path fill="none" stroke="midnightblue" d="M284.259,-116.878C249.845,-107.29 195.592,-92.1748 158.036,-81.7116"/>
<polygon fill="midnightblue" stroke="midnightblue" points="158.967,-78.3376 148.394,-79.0253 157.088,-85.0808 158.967,-78.3376"/>
</g>
<!-- Node14 -->
<g id="node14" class="node"><title>Node14</title>
<polygon fill="none" stroke="#bfbfbf" points="180.971,-59 180.971,-79 277.029,-79 277.029,-59 180.971,-59"/>
<text text-anchor="middle" x="229" y="-65" font-family="Helvetica,sans-Serif" font-size="10.00">boost/foreach.hpp</text>
</g>
<!-- Node9&#45;&gt;Node14 -->
<g id="edge19" class="edge"><title>Node9&#45;&gt;Node14</title>
<path fill="none" stroke="midnightblue" d="M302.469,-116.753C288.757,-108.027 267.979,-94.8051 252.015,-84.6458"/>
<polygon fill="midnightblue" stroke="midnightblue" points="253.577,-81.4912 243.261,-79.0752 249.819,-87.3968 253.577,-81.4912"/>
</g>
<!-- Node15 -->
<g id="node15" class="node"><title>Node15</title>
<polygon fill="none" stroke="#bfbfbf" points="295.384,-59 295.384,-79 338.616,-79 338.616,-59 295.384,-59"/>
<text text-anchor="middle" x="317" y="-65" font-family="Helvetica,sans-Serif" font-size="10.00">vector</text>
</g>
<!-- Node9&#45;&gt;Node15 -->
<g id="edge20" class="edge"><title>Node9&#45;&gt;Node15</title>
<path fill="none" stroke="midnightblue" d="M317,-116.753C317,-109.25 317,-98.4238 317,-89.0781"/>
<polygon fill="midnightblue" stroke="midnightblue" points="320.5,-89.0752 317,-79.0752 313.5,-89.0752 320.5,-89.0752"/>
</g>
<!-- Node16&#45;&gt;Node3 -->
<g id="edge24" class="edge"><title>Node16&#45;&gt;Node3</title>
<path fill="none" stroke="midnightblue" d="M920.856,-118.448C867.634,-107.327 769.128,-86.7432 719.402,-76.3527"/>
<polygon fill="midnightblue" stroke="midnightblue" points="720.07,-72.9167 709.565,-74.2973 718.638,-79.7687 720.07,-72.9167"/>
</g>
<!-- Node16&#45;&gt;Node4 -->
<g id="edge25" class="edge"><title>Node16&#45;&gt;Node4</title>
<path fill="none" stroke="midnightblue" d="M929.145,-116.878C900.367,-107.453 855.279,-92.6878 823.406,-82.2499"/>
<polygon fill="midnightblue" stroke="midnightblue" points="824.152,-78.8114 813.559,-79.0253 821.974,-85.4638 824.152,-78.8114"/>
</g>
<!-- Node16&#45;&gt;Node5 -->
<g id="edge26" class="edge"><title>Node16&#45;&gt;Node5</title>
<path fill="none" stroke="midnightblue" d="M937.635,-116.916C919.816,-108.263 892.91,-94.4476 871,-80 846.548,-63.8766 820.549,-42.3524 803.838,-27.8763"/>
<polygon fill="midnightblue" stroke="midnightblue" points="805.832,-24.9701 796.003,-21.0146 801.22,-30.2361 805.832,-24.9701"/>
</g>
<!-- Node17 -->
<g id="node17" class="node"><title>Node17</title>
<polygon fill="none" stroke="#bfbfbf" points="1008.45,-59 1008.45,-79 1159.55,-79 1159.55,-59 1008.45,-59"/>
<text text-anchor="middle" x="1084" y="-65" font-family="Helvetica,sans-Serif" font-size="10.00">boost/exception/exception.hpp</text>
</g>
<!-- Node16&#45;&gt;Node17 -->
<g id="edge22" class="edge"><title>Node16&#45;&gt;Node17</title>
<path fill="none" stroke="midnightblue" d="M977.687,-116.878C998.444,-107.725 1030.62,-93.5357 1054.15,-83.1643"/>
<polygon fill="midnightblue" stroke="midnightblue" points="1055.58,-86.3553 1063.32,-79.1181 1052.76,-79.9503 1055.58,-86.3553"/>
</g>
<!-- Node18 -->
<g id="node18" class="node"><title>Node18</title>
<polygon fill="none" stroke="#bfbfbf" points="1177.6,-59 1177.6,-79 1236.4,-79 1236.4,-59 1177.6,-59"/>
<text text-anchor="middle" x="1207" y="-65" font-family="Helvetica,sans-Serif" font-size="10.00">exception</text>
</g>
<!-- Node16&#45;&gt;Node18 -->
<g id="edge23" class="edge"><title>Node16&#45;&gt;Node18</title>
<path fill="none" stroke="midnightblue" d="M993.307,-118.504C1033.45,-110.123 1100.26,-95.9026 1167.32,-80.0982"/>
<polygon fill="midnightblue" stroke="midnightblue" points="1168.29,-83.4655 1177.22,-77.7554 1166.68,-76.6539 1168.29,-83.4655"/>
</g>
<!-- Node19 -->
<g id="node19" class="node"><title>Node19</title>
<polygon fill="none" stroke="#bfbfbf" points="879.766,-59 879.766,-79 990.234,-79 990.234,-59 879.766,-59"/>
<text text-anchor="middle" x="935" y="-65" font-family="Helvetica,sans-Serif" font-size="10.00">RMF/internal/errors.h</text>
</g>
<!-- Node16&#45;&gt;Node19 -->
<g id="edge27" class="edge"><title>Node16&#45;&gt;Node19</title>
<path fill="none" stroke="midnightblue" d="M953.367,-116.753C950.356,-109.087 945.981,-97.9515 942.256,-88.4708"/>
<polygon fill="midnightblue" stroke="midnightblue" points="945.479,-87.1029 938.565,-79.0752 938.964,-89.6625 945.479,-87.1029"/>
</g>
</g>
</svg>
        <g id="navigator" transform="translate(0 0)" fill="#404254">
                <rect fill="#f2f5e9" fill-opacity="0.5" stroke="#606060" stroke-width=".5" x="0" y="0" width="60" height="60"/>
                <use id="zoomplus" xlink:href="#zoomPlus" x="17" y="9" onmousedown="handleZoom(evt,'in')"/>
                <use id="zoomminus" xlink:href="#zoomMin" x="42" y="9" onmousedown="handleZoom(evt,'out')"/>
                <use id="reset" xlink:href="#resetDef" x="30" y="36" onmousedown="handleReset()"/>
                <g id="arrowUp" xlink:href="#dirArrow" transform="translate(30 24)" onmousedown="handlePan(0,-1)">
                  <use xlink:href="#rim" fill="#404040">
                        <set attributeName="fill" to="#808080" begin="arrowUp.mouseover" end="arrowUp.mouseout"/>
                  </use>
                  <path fill="none" stroke="white" stroke-width="1.5" d="M0,-3.0v7 M-2.5,-0.5L0,-3.0L2.5,-0.5"/>
                </g>
                <g id="arrowRight" xlink:href="#dirArrow" transform="rotate(90) translate(36 -43)" onmousedown="handlePan(1,0)">
                  <use xlink:href="#rim" fill="#404040">
                        <set attributeName="fill" to="#808080" begin="arrowRight.mouseover" end="arrowRight.mouseout"/>
                  </use>
                  <path fill="none" stroke="white" stroke-width="1.5" d="M0,-3.0v7 M-2.5,-0.5L0,-3.0L2.5,-0.5"/>
                </g>
                <g id="arrowDown" xlink:href="#dirArrow" transform="rotate(180) translate(-30 -48)" onmousedown="handlePan(0,1)">
                  <use xlink:href="#rim" fill="#404040">
                        <set attributeName="fill" to="#808080" begin="arrowDown.mouseover" end="arrowDown.mouseout"/>
                  </use>
                  <path fill="none" stroke="white" stroke-width="1.5" d="M0,-3.0v7 M-2.5,-0.5L0,-3.0L2.5,-0.5"/>
                </g>
                <g id="arrowLeft" xlink:href="#dirArrow" transform="rotate(270) translate(-36 17)" onmousedown="handlePan(-1,0)">
                  <use xlink:href="#rim" fill="#404040">
                        <set attributeName="fill" to="#808080" begin="arrowLeft.mouseover" end="arrowLeft.mouseout"/>
                  </use>
                  <path fill="none" stroke="white" stroke-width="1.5" d="M0,-3.0v7 M-2.5,-0.5L0,-3.0L2.5,-0.5"/>
                </g>
        </g>
        <svg viewBox="0 0 15 15" width="100%" height="30px" preserveAspectRatio="xMaxYMin meet">
         <g id="arrow_out" transform="scale(0.3 0.3)">
          <a xlink:href="names_8h__incl_org.svg" target="_base">
           <rect id="button" ry="5" rx="5" y="6" x="6" height="38" width="38"
                fill="#f2f5e9" fill-opacity="0.5" stroke="#606060" stroke-width="1.0"/>
           <path id="arrow"
             d="M 11.500037,31.436501 C 11.940474,20.09759 22.043105,11.32322 32.158766,21.979434 L 37.068811,17.246167 C 37.068811,17.246167 37.088388,32 37.088388,32 L 22.160133,31.978069 C 22.160133,31.978069 26.997745,27.140456 26.997745,27.140456 C 18.528582,18.264221 13.291696,25.230495 11.500037,31.436501 z"
             style="fill:#404040;"/>
          </a>
         </g>
        </svg>
</svg>
