<?xml version="1.0" encoding="UTF-8" standalone="no"?>
<!DOCTYPE svg PUBLIC "-//W3C//DTD SVG 1.1//EN"
 "http://www.w3.org/Graphics/SVG/1.1/DTD/svg11.dtd">
<!-- Generated by graphviz version 2.34.0 (20131025.1349)
 -->
<!-- Title: names.h Pages: 1 -->
<svg width="1492pt" height="390pt"
 viewBox="0.00 0.00 1491.97 390.00" xmlns="http://www.w3.org/2000/svg" xmlns:xlink="http://www.w3.org/1999/xlink">
<g id="graph0" class="graph" transform="scale(1 1) rotate(0) translate(4 386)">
<title>names.h</title>
<!-- Node1 -->
<g id="node1" class="node"><title>Node1</title>
<polygon fill="#bfbfbf" stroke="black" points="642.823,-361 642.823,-381 697.177,-381 697.177,-361 642.823,-361"/>
<text text-anchor="middle" x="670" y="-367" font-family="Helvetica,sans-Serif" font-size="10.00">names.h</text>
</g>
<!-- Node2 -->
<g id="node2" class="node"><title>Node2</title>
<polygon fill="none" stroke="#bfbfbf" points="857.219,-59 857.219,-79 908.781,-79 908.781,-59 857.219,-59"/>
<text text-anchor="middle" x="883" y="-65" font-family="Helvetica,sans-Serif" font-size="10.00">sstream</text>
</g>
<!-- Node1&#45;&gt;Node2 -->
<g id="edge1" class="edge"><title>Node1&#45;&gt;Node2</title>
<path fill="none" stroke="midnightblue" d="M697.241,-363.112C767.536,-343.69 954.653,-281.163 1028,-150 1035.38,-136.811 1036.92,-128.194 1028,-116 1026.32,-113.7 960.947,-93.5782 918.562,-80.7204"/>
<polygon fill="midnightblue" stroke="midnightblue" points="919.442,-77.3298 908.856,-77.781 917.413,-84.0293 919.442,-77.3298"/>
</g>
<!-- Node3 -->
<g id="node3" class="node"><title>Node3</title>
<polygon fill="none" stroke="#bfbfbf" points="798.773,-59 798.773,-79 839.227,-79 839.227,-59 798.773,-59"/>
<text text-anchor="middle" x="819" y="-65" font-family="Helvetica,sans-Serif" font-size="10.00">string</text>
</g>
<!-- Node1&#45;&gt;Node3 -->
<g id="edge2" class="edge"><title>Node1&#45;&gt;Node3</title>
<path fill="none" stroke="midnightblue" d="M697.385,-370.031C771.516,-369.572 973.897,-364.546 1024,-324 1048.91,-303.839 1048,-288.049 1048,-256 1048,-256 1048,-256 1048,-196 1048,-159.35 1054.52,-141.291 1028,-116 971.262,-61.8991 930.066,-98.2421 849.511,-79.9577"/>
<polygon fill="midnightblue" stroke="midnightblue" points="850.04,-76.482 839.489,-77.4474 848.339,-83.2722 850.04,-76.482"/>
</g>
<!-- Node4 -->
<g id="node4" class="node"><title>Node4</title>
<g id="a_node4"><a xlink:href="config_8h_source.html" target="_top" xlink:title="RMF/config.h">
<polygon fill="none" stroke="black" points="19.2686,-59 19.2686,-79 94.7314,-79 94.7314,-59 19.2686,-59"/>
<text text-anchor="middle" x="57" y="-65" font-family="Helvetica,sans-Serif" font-size="10.00">RMF/config.h</text>
</a>
</g>
</g>
<!-- Node1&#45;&gt;Node4 -->
<g id="edge3" class="edge"><title>Node1&#45;&gt;Node4</title>
<path fill="none" stroke="midnightblue" d="M642.486,-368.282C516.41,-360.052 0,-322.296 0,-256 0,-256 0,-256 0,-196 0,-154.033 26.5743,-110.633 43.4331,-87.3223"/>
<polygon fill="midnightblue" stroke="midnightblue" points="46.3583,-89.255 49.5482,-79.1518 40.7541,-85.0606 46.3583,-89.255"/>
</g>
<!-- Node6 -->
<g id="node6" class="node"><title>Node6</title>
<g id="a_node6"><a xlink:href="types_8h.html" target="_top" xlink:title="types.h">
<polygon fill="none" stroke="black" points="306.879,-303 306.879,-323 355.121,-323 355.121,-303 306.879,-303"/>
<text text-anchor="middle" x="331" y="-309" font-family="Helvetica,sans-Serif" font-size="10.00">types.h</text>
</a>
</g>
</g>
<!-- Node1&#45;&gt;Node6 -->
<g id="edge5" class="edge"><title>Node1&#45;&gt;Node6</title>
<path fill="none" stroke="midnightblue" d="M642.545,-365.465C581.201,-355.331 433.11,-330.868 365.592,-319.714"/>
<polygon fill="midnightblue" stroke="midnightblue" points="365.909,-316.219 355.473,-318.043 364.769,-323.126 365.909,-316.219"/>
</g>
<!-- Node5 -->
<g id="node5" class="node"><title>Node5</title>
<g id="a_node5"><a xlink:href="compiler__macros_8h.html" target="_top" xlink:title="Various compiler workarounds. ">
<polygon fill="none" stroke="black" points="60.5444,-1 60.5444,-21 185.456,-21 185.456,-1 60.5444,-1"/>
<text text-anchor="middle" x="123" y="-7" font-family="Helvetica,sans-Serif" font-size="10.00">RMF/compiler_macros.h</text>
</a>
</g>
</g>
<!-- Node4&#45;&gt;Node5 -->
<g id="edge4" class="edge"><title>Node4&#45;&gt;Node5</title>
<path fill="none" stroke="midnightblue" d="M67.8986,-58.7527C77.7978,-50.3534 92.6078,-37.7874 104.381,-27.7976"/>
<polygon fill="midnightblue" stroke="midnightblue" points="106.944,-30.2138 112.304,-21.0752 102.415,-24.8762 106.944,-30.2138"/>
</g>
<!-- Node6&#45;&gt;Node4 -->
<g id="edge6" class="edge"><title>Node6&#45;&gt;Node4</title>
<path fill="none" stroke="midnightblue" d="M306.601,-306.035C251.213,-290.997 116.847,-245.717 66,-150 55.9843,-131.146 54.7167,-106.31 55.3234,-89.3423"/>
<polygon fill="midnightblue" stroke="midnightblue" points="58.8375,-89.2193 55.9584,-79.0232 51.8507,-88.7893 58.8375,-89.2193"/>
</g>
<!-- Node7 -->
<g id="node7" class="node"><title>Node7</title>
<g id="a_node7"><a xlink:href="default__types_8h.html" target="_top" xlink:title="Default implementation for types.h. ">
<polygon fill="none" stroke="black" points="276.867,-245 276.867,-265 385.133,-265 385.133,-245 276.867,-245"/>
<text text-anchor="middle" x="331" y="-251" font-family="Helvetica,sans-Serif" font-size="10.00">RMF/default_types.h</text>
</a>
</g>
</g>
<!-- Node6&#45;&gt;Node7 -->
<g id="edge7" class="edge"><title>Node6&#45;&gt;Node7</title>
<path fill="none" stroke="midnightblue" d="M331,-302.753C331,-295.25 331,-284.424 331,-275.078"/>
<polygon fill="midnightblue" stroke="midnightblue" points="334.5,-275.075 331,-265.075 327.5,-275.075 334.5,-275.075"/>
</g>
<!-- Node7&#45;&gt;Node4 -->
<g id="edge8" class="edge"><title>Node7&#45;&gt;Node4</title>
<path fill="none" stroke="midnightblue" d="M284.18,-244.926C230.705,-232.306 143.695,-204.57 90,-150 73.4199,-133.15 64.7547,-106.792 60.5383,-88.9786"/>
<polygon fill="midnightblue" stroke="midnightblue" points="63.9534,-88.2107 58.457,-79.1531 57.1054,-89.6613 63.9534,-88.2107"/>
</g>
<!-- Node8 -->
<g id="node8" class="node"><title>Node8</title>
<g id="a_node8"><a xlink:href="Vector_8h.html" target="_top" xlink:title="Represent coordinates. ">
<polygon fill="none" stroke="black" points="515.926,-187 515.926,-207 568.074,-207 568.074,-187 515.926,-187"/>
<text text-anchor="middle" x="542" y="-193" font-family="Helvetica,sans-Serif" font-size="10.00">Vector.h</text>
</a>
</g>
</g>
<!-- Node7&#45;&gt;Node8 -->
<g id="edge9" class="edge"><title>Node7&#45;&gt;Node8</title>
<path fill="none" stroke="midnightblue" d="M365.37,-244.878C404.043,-234.614 466.585,-218.015 505.938,-207.571"/>
<polygon fill="midnightblue" stroke="midnightblue" points="506.889,-210.94 515.657,-204.992 505.094,-204.174 506.889,-210.94"/>
</g>
<!-- Node8&#45;&gt;Node4 -->
<g id="edge10" class="edge"><title>Node8&#45;&gt;Node4</title>
<path fill="none" stroke="midnightblue" d="M515.917,-195.38C436.801,-193.141 200.818,-183.728 133,-150 104.55,-135.851 81.0634,-106.455 68.0506,-87.5082"/>
<polygon fill="midnightblue" stroke="midnightblue" points="70.9641,-85.5686 62.528,-79.1589 65.1257,-89.4304 70.9641,-85.5686"/>
</g>
<!-- Node9 -->
<g id="node9" class="node"><title>Node9</title>
<g id="a_node9"><a xlink:href="infrastructure__macros_8h.html" target="_top" xlink:title="Various general useful macros for IMP. ">
<polygon fill="none" stroke="black" points="1114.48,-123 1114.48,-143 1235.52,-143 1235.52,-123 1114.48,-123"/>
<text text-anchor="middle" x="1175" y="-129" font-family="Helvetica,sans-Serif" font-size="10.00">infrastructure_macros.h</text>
</a>
</g>
</g>
<!-- Node8&#45;&gt;Node9 -->
<g id="edge11" class="edge"><title>Node8&#45;&gt;Node9</title>
<path fill="none" stroke="midnightblue" d="M568.091,-193.66C640.889,-187.105 852.41,-167.865 1028,-150 1052.81,-147.476 1079.95,-144.564 1104.08,-141.922"/>
<polygon fill="midnightblue" stroke="midnightblue" points="1104.67,-145.379 1114.23,-140.808 1103.91,-138.421 1104.67,-145.379"/>
</g>
<!-- Node16 -->
<g id="node16" class="node"><title>Node16</title>
<g id="a_node16"><a xlink:href="exceptions_8h.html" target="_top" xlink:title="Various general useful macros for IMP. ">
<polygon fill="none" stroke="black" points="141.926,-123 141.926,-143 214.074,-143 214.074,-123 141.926,-123"/>
<text text-anchor="middle" x="178" y="-129" font-family="Helvetica,sans-Serif" font-size="10.00">exceptions.h</text>
</a>
</g>
</g>
<!-- Node8&#45;&gt;Node16 -->
<g id="edge21" class="edge"><title>Node8&#45;&gt;Node16</title>
<path fill="none" stroke="midnightblue" d="M515.611,-193.978C460.563,-189.371 329.736,-176.393 223,-150 218.835,-148.97 214.514,-147.703 210.272,-146.336"/>
<polygon fill="midnightblue" stroke="midnightblue" points="211.219,-142.961 200.625,-143.031 208.951,-149.583 211.219,-142.961"/>
</g>
<!-- Node20 -->
<g id="node20" class="node"><title>Node20</title>
<polygon fill="none" stroke="#bfbfbf" points="232.237,-123 232.237,-143 347.763,-143 347.763,-123 232.237,-123"/>
<text text-anchor="middle" x="290" y="-129" font-family="Helvetica,sans-Serif" font-size="10.00">boost/range/begin.hpp</text>
</g>
<!-- Node8&#45;&gt;Node20 -->
<g id="edge28" class="edge"><title>Node8&#45;&gt;Node20</title>
<path fill="none" stroke="midnightblue" d="M515.508,-189.482C473.008,-179.026 389.037,-158.366 336.417,-145.42"/>
<polygon fill="midnightblue" stroke="midnightblue" points="337.2,-142.008 326.653,-143.018 335.528,-148.806 337.2,-142.008"/>
</g>
<!-- Node21 -->
<g id="node21" class="node"><title>Node21</title>
<polygon fill="none" stroke="#bfbfbf" points="366.128,-123 366.128,-143 473.872,-143 473.872,-123 366.128,-123"/>
<text text-anchor="middle" x="420" y="-129" font-family="Helvetica,sans-Serif" font-size="10.00">boost/range/end.hpp</text>
</g>
<!-- Node8&#45;&gt;Node21 -->
<g id="edge29" class="edge"><title>Node8&#45;&gt;Node21</title>
<path fill="none" stroke="midnightblue" d="M524.26,-186.985C503.931,-176.653 470.394,-159.61 446.859,-147.65"/>
<polygon fill="midnightblue" stroke="midnightblue" points="448.262,-144.437 437.761,-143.026 445.09,-150.677 448.262,-144.437"/>
</g>
<!-- Node22 -->
<g id="node22" class="node"><title>Node22</title>
<polygon fill="none" stroke="#bfbfbf" points="492.313,-117 492.313,-149 591.687,-149 591.687,-117 492.313,-117"/>
<text text-anchor="start" x="500.313" y="-135" font-family="Helvetica,sans-Serif" font-size="10.00">boost/type_traits/is</text>
<text text-anchor="middle" x="542" y="-123" font-family="Helvetica,sans-Serif" font-size="10.00">_convertible.hpp</text>
</g>
<!-- Node8&#45;&gt;Node22 -->
<g id="edge30" class="edge"><title>Node8&#45;&gt;Node22</title>
<path fill="none" stroke="midnightblue" d="M542,-186.852C542,-179.629 542,-169.185 542,-159.486"/>
<polygon fill="midnightblue" stroke="midnightblue" points="545.5,-159.44 542,-149.44 538.5,-159.44 545.5,-159.44"/>
</g>
<!-- Node23 -->
<g id="node23" class="node"><title>Node23</title>
<polygon fill="none" stroke="#bfbfbf" points="609.251,-123 609.251,-143 704.749,-143 704.749,-123 609.251,-123"/>
<text text-anchor="middle" x="657" y="-129" font-family="Helvetica,sans-Serif" font-size="10.00">boost/mpl/not.hpp</text>
</g>
<!-- Node8&#45;&gt;Node23 -->
<g id="edge31" class="edge"><title>Node8&#45;&gt;Node23</title>
<path fill="none" stroke="midnightblue" d="M558.969,-186.852C577.993,-176.595 609.063,-159.844 631.121,-147.952"/>
<polygon fill="midnightblue" stroke="midnightblue" points="632.82,-151.012 639.962,-143.186 629.499,-144.851 632.82,-151.012"/>
</g>
<!-- Node24 -->
<g id="node24" class="node"><title>Node24</title>
<polygon fill="none" stroke="#bfbfbf" points="722.625,-123 722.625,-143 807.375,-143 807.375,-123 722.625,-123"/>
<text text-anchor="middle" x="765" y="-129" font-family="Helvetica,sans-Serif" font-size="10.00">boost/array.hpp</text>
</g>
<!-- Node8&#45;&gt;Node24 -->
<g id="edge32" class="edge"><title>Node8&#45;&gt;Node24</title>
<path fill="none" stroke="midnightblue" d="M568.154,-189.275C601.77,-180.559 661.896,-164.731 713,-150 717.355,-148.745 721.904,-147.398 726.422,-146.038"/>
<polygon fill="midnightblue" stroke="midnightblue" points="727.627,-149.33 736.174,-143.07 725.589,-142.633 727.627,-149.33"/>
</g>
<!-- Node25 -->
<g id="node25" class="node"><title>Node25</title>
<polygon fill="none" stroke="#bfbfbf" points="825.582,-123 825.582,-143 944.418,-143 944.418,-123 825.582,-123"/>
<text text-anchor="middle" x="885" y="-129" font-family="Helvetica,sans-Serif" font-size="10.00">boost/static_assert.hpp</text>
</g>
<!-- Node8&#45;&gt;Node25 -->
<g id="edge33" class="edge"><title>Node8&#45;&gt;Node25</title>
<path fill="none" stroke="midnightblue" d="M568.166,-192.156C617.032,-184.855 725.418,-168.088 816,-150 823.13,-148.576 830.647,-146.957 837.992,-145.308"/>
<polygon fill="midnightblue" stroke="midnightblue" points="838.879,-148.695 847.849,-143.057 837.32,-141.871 838.879,-148.695"/>
</g>
<!-- Node26 -->
<g id="node26" class="node"><title>Node26</title>
<polygon fill="none" stroke="#bfbfbf" points="962.436,-123 962.436,-143 1019.56,-143 1019.56,-123 962.436,-123"/>
<text text-anchor="middle" x="991" y="-129" font-family="Helvetica,sans-Serif" font-size="10.00">algorithm</text>
</g>
<!-- Node8&#45;&gt;Node26 -->
<g id="edge34" class="edge"><title>Node8&#45;&gt;Node26</title>
<path fill="none" stroke="midnightblue" d="M568.44,-195.65C634.431,-194.22 811.265,-186.945 953,-150 956.256,-149.151 959.597,-148.075 962.882,-146.883"/>
<polygon fill="midnightblue" stroke="midnightblue" points="964.439,-150.03 972.43,-143.074 961.845,-143.529 964.439,-150.03"/>
</g>
<!-- Node9&#45;&gt;Node2 -->
<g id="edge12" class="edge"><title>Node9&#45;&gt;Node2</title>
<path fill="none" stroke="midnightblue" d="M1132.98,-122.92C1122.23,-120.63 1110.69,-118.198 1100,-116 1022.39,-100.046 999.893,-99.3724 919.082,-80.1112"/>
<polygon fill="midnightblue" stroke="midnightblue" points="919.472,-76.6051 908.93,-77.6679 917.833,-83.4108 919.472,-76.6051"/>
</g>
<!-- Node9&#45;&gt;Node3 -->
<g id="edge14" class="edge"><title>Node9&#45;&gt;Node3</title>
<path fill="none" stroke="midnightblue" d="M1114.47,-122.958C1033.92,-110.845 896.93,-89.9316 849.501,-79.8644"/>
<polygon fill="midnightblue" stroke="midnightblue" points="849.993,-76.3859 839.462,-77.5506 848.42,-83.2071 849.993,-76.3859"/>
</g>
<!-- Node9&#45;&gt;Node5 -->
<g id="edge15" class="edge"><title>Node9&#45;&gt;Node5</title>
<path fill="none" stroke="midnightblue" d="M1235.59,-130.535C1315.2,-127.183 1448.49,-116.171 1479,-80 1485.3,-72.5259 1485.8,-65.0302 1479,-58 1434.12,-11.573 471.011,-10.9325 195.829,-11.7027"/>
<polygon fill="midnightblue" stroke="midnightblue" points="195.548,-8.20345 185.558,-11.7331 195.568,-15.2034 195.548,-8.20345"/>
</g>
<!-- Node10 -->
<g id="node10" class="node"><title>Node10</title>
<polygon fill="none" stroke="#bfbfbf" points="1214.83,-59 1214.83,-79 1269.17,-79 1269.17,-59 1214.83,-59"/>
<text text-anchor="middle" x="1242" y="-65" font-family="Helvetica,sans-Serif" font-size="10.00">iostream</text>
</g>
<!-- Node9&#45;&gt;Node10 -->
<g id="edge13" class="edge"><title>Node9&#45;&gt;Node10</title>
<path fill="none" stroke="midnightblue" d="M1184.89,-122.852C1195.28,-113.236 1211.84,-97.9128 1224.45,-86.236"/>
<polygon fill="midnightblue" stroke="midnightblue" points="1227.11,-88.5467 1232.07,-79.1858 1222.36,-83.4089 1227.11,-88.5467"/>
</g>
<!-- Node11 -->
<g id="node11" class="node"><title>Node11</title>
<polygon fill="none" stroke="#bfbfbf" points="1286.98,-59 1286.98,-79 1363.02,-79 1363.02,-59 1286.98,-59"/>
<text text-anchor="middle" x="1325" y="-65" font-family="Helvetica,sans-Serif" font-size="10.00">internal/use.h</text>
</g>
<!-- Node9&#45;&gt;Node11 -->
<g id="edge16" class="edge"><title>Node9&#45;&gt;Node11</title>
<path fill="none" stroke="midnightblue" d="M1196.81,-122.985C1222.36,-112.424 1264.88,-94.8493 1293.89,-82.8599"/>
<polygon fill="midnightblue" stroke="midnightblue" points="1295.26,-86.0808 1303.16,-79.0262 1292.58,-79.6116 1295.26,-86.0808"/>
</g>
<!-- Node12 -->
<g id="node12" class="node"><title>Node12</title>
<polygon fill="none" stroke="#bfbfbf" points="1381.31,-59 1381.31,-79 1470.69,-79 1470.69,-59 1381.31,-59"/>
<text text-anchor="middle" x="1426" y="-65" font-family="Helvetica,sans-Serif" font-size="10.00">boost/config.hpp</text>
</g>
<!-- Node9&#45;&gt;Node12 -->
<g id="edge17" class="edge"><title>Node9&#45;&gt;Node12</title>
<path fill="none" stroke="midnightblue" d="M1211.5,-122.985C1255.93,-112.01 1331.01,-93.4632 1379.53,-81.4788"/>
<polygon fill="midnightblue" stroke="midnightblue" points="1380.59,-84.8222 1389.46,-79.0262 1378.91,-78.0265 1380.59,-84.8222"/>
</g>
<!-- Node13 -->
<g id="node13" class="node"><title>Node13</title>
<polygon fill="none" stroke="#bfbfbf" points="926.53,-59 926.53,-79 1021.47,-79 1021.47,-59 926.53,-59"/>
<text text-anchor="middle" x="974" y="-65" font-family="Helvetica,sans-Serif" font-size="10.00">boost/version.hpp</text>
</g>
<!-- Node9&#45;&gt;Node13 -->
<g id="edge18" class="edge"><title>Node9&#45;&gt;Node13</title>
<path fill="none" stroke="midnightblue" d="M1145.77,-122.985C1110.79,-112.194 1052.07,-94.0819 1013.18,-82.086"/>
<polygon fill="midnightblue" stroke="midnightblue" points="1013.85,-78.6293 1003.26,-79.0262 1011.79,-85.3183 1013.85,-78.6293"/>
</g>
<!-- Node14 -->
<g id="node14" class="node"><title>Node14</title>
<polygon fill="none" stroke="#bfbfbf" points="1038.97,-59 1038.97,-79 1135.03,-79 1135.03,-59 1038.97,-59"/>
<text text-anchor="middle" x="1087" y="-65" font-family="Helvetica,sans-Serif" font-size="10.00">boost/foreach.hpp</text>
</g>
<!-- Node9&#45;&gt;Node14 -->
<g id="edge19" class="edge"><title>Node9&#45;&gt;Node14</title>
<path fill="none" stroke="midnightblue" d="M1162.02,-122.852C1147.98,-112.961 1125.37,-97.0326 1108.64,-85.2443"/>
<polygon fill="midnightblue" stroke="midnightblue" points="1110.23,-82.0842 1100.04,-79.1858 1106.2,-87.8066 1110.23,-82.0842"/>
</g>
<!-- Node15 -->
<g id="node15" class="node"><title>Node15</title>
<polygon fill="none" stroke="#bfbfbf" points="1153.38,-59 1153.38,-79 1196.62,-79 1196.62,-59 1153.38,-59"/>
<text text-anchor="middle" x="1175" y="-65" font-family="Helvetica,sans-Serif" font-size="10.00">vector</text>
</g>
<!-- Node9&#45;&gt;Node15 -->
<g id="edge20" class="edge"><title>Node9&#45;&gt;Node15</title>
<path fill="none" stroke="midnightblue" d="M1175,-122.852C1175,-114.06 1175,-100.498 1175,-89.3131"/>
<polygon fill="midnightblue" stroke="midnightblue" points="1178.5,-89.1858 1175,-79.1858 1171.5,-89.1859 1178.5,-89.1858"/>
</g>
<!-- Node16&#45;&gt;Node3 -->
<g id="edge24" class="edge"><title>Node16&#45;&gt;Node3</title>
<path fill="none" stroke="midnightblue" d="M200.095,-122.833C207.284,-120.207 215.376,-117.62 223,-116 332.81,-92.6726 682.673,-75.9205 788.431,-71.2902"/>
<polygon fill="midnightblue" stroke="midnightblue" points="788.881,-74.7741 798.72,-70.8444 788.578,-67.7806 788.881,-74.7741"/>
</g>
<!-- Node16&#45;&gt;Node4 -->
<g id="edge25" class="edge"><title>Node16&#45;&gt;Node4</title>
<path fill="none" stroke="midnightblue" d="M160.406,-122.985C140.243,-112.653 106.981,-95.6101 83.6387,-83.6496"/>
<polygon fill="midnightblue" stroke="midnightblue" points="85.1115,-80.4715 74.6157,-79.0262 81.9193,-86.7013 85.1115,-80.4715"/>
</g>
<!-- Node16&#45;&gt;Node5 -->
<g id="edge26" class="edge"><title>Node16&#45;&gt;Node5</title>
<path fill="none" stroke="midnightblue" d="M170.359,-122.995C162.276,-113.056 149.654,-96.2999 142,-80 134.6,-64.2411 129.563,-45.0372 126.544,-31.0618"/>
<polygon fill="midnightblue" stroke="midnightblue" points="129.952,-30.2544 124.55,-21.1404 123.089,-31.6341 129.952,-30.2544"/>
</g>
<!-- Node17 -->
<g id="node17" class="node"><title>Node17</title>
<polygon fill="none" stroke="#bfbfbf" points="151.451,-59 151.451,-79 302.549,-79 302.549,-59 151.451,-59"/>
<text text-anchor="middle" x="227" y="-65" font-family="Helvetica,sans-Serif" font-size="10.00">boost/exception/exception.hpp</text>
</g>
<!-- Node16&#45;&gt;Node17 -->
<g id="edge22" class="edge"><title>Node16&#45;&gt;Node17</title>
<path fill="none" stroke="midnightblue" d="M185.23,-122.852C192.613,-113.511 204.252,-98.7838 213.37,-87.2456"/>
<polygon fill="midnightblue" stroke="midnightblue" points="216.286,-89.2017 219.74,-79.1858 210.794,-84.8613 216.286,-89.2017"/>
</g>
<!-- Node18 -->
<g id="node18" class="node"><title>Node18</title>
<polygon fill="none" stroke="#bfbfbf" points="320.596,-59 320.596,-79 379.404,-79 379.404,-59 320.596,-59"/>
<text text-anchor="middle" x="350" y="-65" font-family="Helvetica,sans-Serif" font-size="10.00">exception</text>
</g>
<!-- Node16&#45;&gt;Node18 -->
<g id="edge23" class="edge"><title>Node16&#45;&gt;Node18</title>
<path fill="none" stroke="midnightblue" d="M203.01,-122.985C232.563,-112.332 281.913,-94.5431 315.188,-82.5484"/>
<polygon fill="midnightblue" stroke="midnightblue" points="316.739,-85.71 324.96,-79.0262 314.365,-79.1247 316.739,-85.71"/>
</g>
<!-- Node19 -->
<g id="node19" class="node"><title>Node19</title>
<polygon fill="none" stroke="#bfbfbf" points="397.766,-59 397.766,-79 508.234,-79 508.234,-59 397.766,-59"/>
<text text-anchor="middle" x="453" y="-65" font-family="Helvetica,sans-Serif" font-size="10.00">RMF/internal/errors.h</text>
</g>
<!-- Node16&#45;&gt;Node19 -->
<g id="edge27" class="edge"><title>Node16&#45;&gt;Node19</title>
<path fill="none" stroke="midnightblue" d="M201.617,-122.882C208.451,-120.441 215.967,-117.943 223,-116 277.852,-100.848 341.356,-88.5313 387.721,-80.4691"/>
<polygon fill="midnightblue" stroke="midnightblue" points="388.377,-83.9077 397.64,-78.7637 387.191,-77.0089 388.377,-83.9077"/>
</g>
</g>
</svg>
