<?xml version="1.0" encoding="UTF-8" standalone="no"?>
<!DOCTYPE svg PUBLIC "-//W3C//DTD SVG 1.1//EN"
 "http://www.w3.org/Graphics/SVG/1.1/DTD/svg11.dtd">
<!-- Generated by graphviz version 2.36.0 (20140111.2315)
 -->
<!-- Title: names.h Pages: 1 -->
<svg width="1630pt" height="336pt"
 viewBox="0.00 0.00 1630.00 336.00" xmlns="http://www.w3.org/2000/svg" xmlns:xlink="http://www.w3.org/1999/xlink">
<g id="graph0" class="graph" transform="scale(1 1) rotate(0) translate(4 332)">
<title>names.h</title>
<!-- Node1 -->
<g id="node1" class="node"><title>Node1</title>
<polygon fill="#bfbfbf" stroke="black" points="710.823,-309 710.823,-327 765.177,-327 765.177,-309 710.823,-309"/>
<text text-anchor="middle" x="738" y="-315" font-family="Helvetica,sans-Serif" font-size="10.00">names.h</text>
</g>
<!-- Node2 -->
<g id="node2" class="node"><title>Node2</title>
<polygon fill="none" stroke="#bfbfbf" points="993.219,-66 993.219,-84 1044.78,-84 1044.78,-66 993.219,-66"/>
<text text-anchor="middle" x="1019" y="-72" font-family="Helvetica,sans-Serif" font-size="10.00">sstream</text>
</g>
<!-- Node1&#45;&gt;Node2 -->
<g id="edge1" class="edge"><title>Node1&#45;&gt;Node2</title>
<path fill="none" stroke="midnightblue" d="M751.467,-308.897C786.688,-287.346 883.54,-225.753 952,-160 973.795,-139.067 994.836,-110.989 1007.35,-93.1921"/>
<polygon fill="midnightblue" stroke="midnightblue" points="1010.57,-94.6898 1013.37,-84.4732 1004.81,-90.7102 1010.57,-94.6898"/>
</g>
<!-- Node3 -->
<g id="node3" class="node"><title>Node3</title>
<polygon fill="none" stroke="#bfbfbf" points="934.773,-66 934.773,-84 975.227,-84 975.227,-66 934.773,-66"/>
<text text-anchor="middle" x="955" y="-72" font-family="Helvetica,sans-Serif" font-size="10.00">string</text>
</g>
<!-- Node1&#45;&gt;Node3 -->
<g id="edge2" class="edge"><title>Node1&#45;&gt;Node3</title>
<path fill="none" stroke="midnightblue" d="M759.405,-308.893C804.645,-290.458 909.322,-240.639 952,-160 962.802,-139.589 961.396,-112.314 958.747,-94.461"/>
<polygon fill="midnightblue" stroke="midnightblue" points="962.171,-93.7229 956.989,-84.4818 955.277,-94.9375 962.171,-93.7229"/>
</g>
<!-- Node4 -->
<g id="node4" class="node"><title>Node4</title>
<g id="a_node4"><a xlink:href="config_8h_source.html" target="_top" xlink:title="RMF/config.h">
<polygon fill="none" stroke="black" points="-0.731445,-66 -0.731445,-84 74.7314,-84 74.7314,-66 -0.731445,-66"/>
<text text-anchor="middle" x="37" y="-72" font-family="Helvetica,sans-Serif" font-size="10.00">RMF/config.h</text>
</a>
</g>
</g>
<!-- Node1&#45;&gt;Node4 -->
<g id="edge3" class="edge"><title>Node1&#45;&gt;Node4</title>
<path fill="none" stroke="midnightblue" d="M710.68,-311.912C667.975,-303.885 582.852,-287.588 511,-272 299.03,-226.015 170.627,-330.063 36,-160 21.244,-141.36 25.6852,-112.4 30.8588,-93.8205"/>
<polygon fill="midnightblue" stroke="midnightblue" points="34.2115,-94.8257 33.85,-84.237 27.5294,-92.74 34.2115,-94.8257"/>
</g>
<!-- Node6 -->
<g id="node6" class="node"><title>Node6</title>
<g id="a_node6"><a xlink:href="types_8h.html" target="_top" xlink:title="Default implementation for types.h. ">
<polygon fill="none" stroke="black" points="519.879,-253 519.879,-271 568.121,-271 568.121,-253 519.879,-253"/>
<text text-anchor="middle" x="544" y="-259" font-family="Helvetica,sans-Serif" font-size="10.00">types.h</text>
</a>
</g>
</g>
<!-- Node1&#45;&gt;Node6 -->
<g id="edge5" class="edge"><title>Node1&#45;&gt;Node6</title>
<path fill="none" stroke="midnightblue" d="M710.616,-309.378C675.865,-299.705 615.918,-283.019 578.198,-272.519"/>
<polygon fill="midnightblue" stroke="midnightblue" points="578.759,-269.042 568.187,-269.733 576.882,-275.786 578.759,-269.042"/>
</g>
<!-- Node5 -->
<g id="node5" class="node"><title>Node5</title>
<g id="a_node5"><a xlink:href="compiler__macros_8h.html" target="_top" xlink:title="Various compiler workarounds. ">
<polygon fill="none" stroke="black" points="844.544,-1 844.544,-19 969.456,-19 969.456,-1 844.544,-1"/>
<text text-anchor="middle" x="907" y="-7" font-family="Helvetica,sans-Serif" font-size="10.00">RMF/compiler_macros.h</text>
</a>
</g>
</g>
<!-- Node4&#45;&gt;Node5 -->
<g id="edge4" class="edge"><title>Node4&#45;&gt;Node5</title>
<path fill="none" stroke="midnightblue" d="M74.9422,-71.2525C208.324,-61.5938 657.148,-29.0927 834.254,-16.2678"/>
<polygon fill="midnightblue" stroke="midnightblue" points="834.536,-19.7566 844.257,-15.5434 834.03,-12.7749 834.536,-19.7566"/>
</g>
<!-- Node6&#45;&gt;Node4 -->
<g id="edge6" class="edge"><title>Node6&#45;&gt;Node4</title>
<path fill="none" stroke="midnightblue" d="M519.782,-260.078C427.321,-256.005 98.6104,-236.284 36,-160 20.84,-141.529 25.4948,-112.294 30.8108,-93.6384"/>
<polygon fill="midnightblue" stroke="midnightblue" points="34.1684,-94.6292 33.8723,-84.0385 27.4994,-92.5023 34.1684,-94.6292"/>
</g>
<!-- Node7 -->
<g id="node7" class="node"><title>Node7</title>
<g id="a_node7"><a xlink:href="Vector_8h.html" target="_top" xlink:title="Represent coordinates. ">
<polygon fill="none" stroke="black" points="517.926,-197 517.926,-215 570.074,-215 570.074,-197 517.926,-197"/>
<text text-anchor="middle" x="544" y="-203" font-family="Helvetica,sans-Serif" font-size="10.00">Vector.h</text>
</a>
</g>
</g>
<!-- Node6&#45;&gt;Node7 -->
<g id="edge7" class="edge"><title>Node6&#45;&gt;Node7</title>
<path fill="none" stroke="midnightblue" d="M544,-252.562C544,-245.308 544,-234.588 544,-225.369"/>
<polygon fill="midnightblue" stroke="midnightblue" points="547.5,-225.201 544,-215.201 540.5,-225.201 547.5,-225.201"/>
</g>
<!-- Node7&#45;&gt;Node4 -->
<g id="edge8" class="edge"><title>Node7&#45;&gt;Node4</title>
<path fill="none" stroke="midnightblue" d="M517.903,-204.359C421.738,-201.762 90.9362,-190.651 56,-160 37.4911,-143.762 34.9327,-113.655 35.4626,-94.2419"/>
<polygon fill="midnightblue" stroke="midnightblue" points="38.9582,-94.4166 36.0342,-84.2332 31.9696,-94.0173 38.9582,-94.4166"/>
</g>
<!-- Node8 -->
<g id="node8" class="node"><title>Node8</title>
<g id="a_node8"><a xlink:href="infrastructure__macros_8h.html" target="_top" xlink:title="Various general useful macros for IMP. ">
<polygon fill="none" stroke="black" points="1103.48,-136 1103.48,-154 1224.52,-154 1224.52,-136 1103.48,-136"/>
<text text-anchor="middle" x="1164" y="-142" font-family="Helvetica,sans-Serif" font-size="10.00">infrastructure_macros.h</text>
</a>
</g>
</g>
<!-- Node7&#45;&gt;Node8 -->
<g id="edge9" class="edge"><title>Node7&#45;&gt;Node8</title>
<path fill="none" stroke="midnightblue" d="M570.245,-202.503C659.962,-193.965 956.458,-165.75 1093.46,-152.713"/>
<polygon fill="midnightblue" stroke="midnightblue" points="1093.82,-156.195 1103.44,-151.763 1093.15,-149.226 1093.82,-156.195"/>
</g>
<!-- Node15 -->
<g id="node15" class="node"><title>Node15</title>
<g id="a_node15"><a xlink:href="exceptions_8h.html" target="_top" xlink:title="Declarations of the various exception types. ">
<polygon fill="none" stroke="black" points="870.926,-136 870.926,-154 943.074,-154 943.074,-136 870.926,-136"/>
<text text-anchor="middle" x="907" y="-142" font-family="Helvetica,sans-Serif" font-size="10.00">exceptions.h</text>
</a>
</g>
</g>
<!-- Node7&#45;&gt;Node15 -->
<g id="edge19" class="edge"><title>Node7&#45;&gt;Node15</title>
<path fill="none" stroke="midnightblue" d="M570.131,-202.67C624.662,-197.505 754.363,-183.648 861,-160 864.922,-159.13 868.995,-158.093 873.024,-156.981"/>
<polygon fill="midnightblue" stroke="midnightblue" points="874.216,-160.28 882.836,-154.12 872.256,-153.56 874.216,-160.28"/>
</g>
<!-- Node19 -->
<g id="node19" class="node"><title>Node19</title>
<polygon fill="none" stroke="#bfbfbf" points="65.2368,-136 65.2368,-154 180.763,-154 180.763,-136 65.2368,-136"/>
<text text-anchor="middle" x="123" y="-142" font-family="Helvetica,sans-Serif" font-size="10.00">boost/range/begin.hpp</text>
</g>
<!-- Node7&#45;&gt;Node19 -->
<g id="edge26" class="edge"><title>Node7&#45;&gt;Node19</title>
<path fill="none" stroke="midnightblue" d="M517.694,-202.38C458.79,-196.355 311.893,-180.449 190,-160 183.15,-158.851 175.935,-157.496 168.878,-156.091"/>
<polygon fill="midnightblue" stroke="midnightblue" points="169.213,-152.587 158.715,-154.012 167.811,-159.445 169.213,-152.587"/>
</g>
<!-- Node20 -->
<g id="node20" class="node"><title>Node20</title>
<polygon fill="none" stroke="#bfbfbf" points="199.128,-136 199.128,-154 306.872,-154 306.872,-136 199.128,-136"/>
<text text-anchor="middle" x="253" y="-142" font-family="Helvetica,sans-Serif" font-size="10.00">boost/range/end.hpp</text>
</g>
<!-- Node7&#45;&gt;Node20 -->
<g id="edge27" class="edge"><title>Node7&#45;&gt;Node20</title>
<path fill="none" stroke="midnightblue" d="M517.628,-200.006C475.122,-191.91 388.855,-175.282 316,-160 310.31,-158.806 304.338,-157.521 298.432,-156.231"/>
<polygon fill="midnightblue" stroke="midnightblue" points="299.137,-152.803 288.618,-154.07 297.631,-159.639 299.137,-152.803"/>
</g>
<!-- Node21 -->
<g id="node21" class="node"><title>Node21</title>
<polygon fill="none" stroke="#bfbfbf" points="325.313,-131 325.313,-159 424.687,-159 424.687,-131 325.313,-131"/>
<text text-anchor="start" x="333.313" y="-147" font-family="Helvetica,sans-Serif" font-size="10.00">boost/type_traits/is</text>
<text text-anchor="middle" x="375" y="-137" font-family="Helvetica,sans-Serif" font-size="10.00">_convertible.hpp</text>
</g>
<!-- Node7&#45;&gt;Node21 -->
<g id="edge28" class="edge"><title>Node7&#45;&gt;Node21</title>
<path fill="none" stroke="midnightblue" d="M520.856,-196.92C495.541,-188.082 454.286,-173.68 422.1,-162.443"/>
<polygon fill="midnightblue" stroke="midnightblue" points="423.025,-159.059 412.43,-159.067 420.718,-165.668 423.025,-159.059"/>
</g>
<!-- Node22 -->
<g id="node22" class="node"><title>Node22</title>
<polygon fill="none" stroke="#bfbfbf" points="442.251,-136 442.251,-154 537.749,-154 537.749,-136 442.251,-136"/>
<text text-anchor="middle" x="490" y="-142" font-family="Helvetica,sans-Serif" font-size="10.00">boost/mpl/not.hpp</text>
</g>
<!-- Node7&#45;&gt;Node22 -->
<g id="edge29" class="edge"><title>Node7&#45;&gt;Node22</title>
<path fill="none" stroke="midnightblue" d="M536.492,-196.796C528.19,-187.726 514.624,-172.904 504.283,-161.605"/>
<polygon fill="midnightblue" stroke="midnightblue" points="506.778,-159.148 497.445,-154.134 501.614,-163.874 506.778,-159.148"/>
</g>
<!-- Node23 -->
<g id="node23" class="node"><title>Node23</title>
<polygon fill="none" stroke="#bfbfbf" points="555.625,-136 555.625,-154 640.375,-154 640.375,-136 555.625,-136"/>
<text text-anchor="middle" x="598" y="-142" font-family="Helvetica,sans-Serif" font-size="10.00">boost/array.hpp</text>
</g>
<!-- Node7&#45;&gt;Node23 -->
<g id="edge30" class="edge"><title>Node7&#45;&gt;Node23</title>
<path fill="none" stroke="midnightblue" d="M551.508,-196.796C559.81,-187.726 573.376,-172.904 583.717,-161.605"/>
<polygon fill="midnightblue" stroke="midnightblue" points="586.386,-163.874 590.555,-154.134 581.222,-159.148 586.386,-163.874"/>
</g>
<!-- Node24 -->
<g id="node24" class="node"><title>Node24</title>
<polygon fill="none" stroke="#bfbfbf" points="658.582,-136 658.582,-154 777.418,-154 777.418,-136 658.582,-136"/>
<text text-anchor="middle" x="718" y="-142" font-family="Helvetica,sans-Serif" font-size="10.00">boost/static_assert.hpp</text>
</g>
<!-- Node7&#45;&gt;Node24 -->
<g id="edge31" class="edge"><title>Node7&#45;&gt;Node24</title>
<path fill="none" stroke="midnightblue" d="M567.829,-196.92C598.071,-186.665 650.409,-168.919 684.618,-157.319"/>
<polygon fill="midnightblue" stroke="midnightblue" points="685.834,-160.603 694.18,-154.077 683.586,-153.974 685.834,-160.603"/>
</g>
<!-- Node25 -->
<g id="node25" class="node"><title>Node25</title>
<polygon fill="none" stroke="#bfbfbf" points="795.436,-136 795.436,-154 852.564,-154 852.564,-136 795.436,-136"/>
<text text-anchor="middle" x="824" y="-142" font-family="Helvetica,sans-Serif" font-size="10.00">algorithm</text>
</g>
<!-- Node7&#45;&gt;Node25 -->
<g id="edge32" class="edge"><title>Node7&#45;&gt;Node25</title>
<path fill="none" stroke="midnightblue" d="M570.113,-201.623C614.836,-195.512 708.743,-181.25 786,-160 788.796,-159.231 791.678,-158.346 794.545,-157.403"/>
<polygon fill="midnightblue" stroke="midnightblue" points="795.813,-160.667 804.091,-154.054 793.496,-154.062 795.813,-160.667"/>
</g>
<!-- Node8&#45;&gt;Node2 -->
<g id="edge10" class="edge"><title>Node8&#45;&gt;Node2</title>
<path fill="none" stroke="midnightblue" d="M1146.8,-135.932C1121.72,-124.174 1074.93,-102.229 1045.46,-88.4068"/>
<polygon fill="midnightblue" stroke="midnightblue" points="1046.72,-85.1342 1036.18,-84.057 1043.75,-91.4719 1046.72,-85.1342"/>
</g>
<!-- Node8&#45;&gt;Node3 -->
<g id="edge12" class="edge"><title>Node8&#45;&gt;Node3</title>
<path fill="none" stroke="midnightblue" d="M1122.47,-135.987C1085.23,-127.986 1029.59,-113.992 984,-94 981.056,-92.7091 978.057,-91.157 975.159,-89.5123"/>
<polygon fill="midnightblue" stroke="midnightblue" points="976.787,-86.4045 966.435,-84.149 973.121,-92.3678 976.787,-86.4045"/>
</g>
<!-- Node8&#45;&gt;Node5 -->
<g id="edge13" class="edge"><title>Node8&#45;&gt;Node5</title>
<path fill="none" stroke="midnightblue" d="M1151.05,-135.936C1136.27,-126.522 1111.61,-110.172 1092,-94 1073.33,-78.6009 1073.81,-68.3531 1053,-56 1024.95,-39.3475 990.147,-28.3088 961.56,-21.3336"/>
<polygon fill="midnightblue" stroke="midnightblue" points="962.263,-17.9037 951.729,-19.0333 960.668,-24.7196 962.263,-17.9037"/>
</g>
<!-- Node9 -->
<g id="node9" class="node"><title>Node9</title>
<polygon fill="none" stroke="#bfbfbf" points="1100.83,-66 1100.83,-84 1155.17,-84 1155.17,-66 1100.83,-66"/>
<text text-anchor="middle" x="1128" y="-72" font-family="Helvetica,sans-Serif" font-size="10.00">iostream</text>
</g>
<!-- Node8&#45;&gt;Node9 -->
<g id="edge11" class="edge"><title>Node8&#45;&gt;Node9</title>
<path fill="none" stroke="midnightblue" d="M1159.73,-135.932C1154.15,-125.401 1144.25,-106.698 1136.99,-92.9783"/>
<polygon fill="midnightblue" stroke="midnightblue" points="1140.04,-91.2573 1132.27,-84.057 1133.85,-94.5325 1140.04,-91.2573"/>
</g>
<!-- Node10 -->
<g id="node10" class="node"><title>Node10</title>
<polygon fill="none" stroke="black" points="1173,-57 1173,-93 1227,-93 1227,-57 1173,-57"/>
<text text-anchor="middle" x="1199.51" y="-72" font-family="Helvetica,sans-Serif" font-size="10.00">Node10</text>
</g>
<!-- Node8&#45;&gt;Node10 -->
<g id="edge14" class="edge"><title>Node8&#45;&gt;Node10</title>
<path fill="none" stroke="midnightblue" d="M1168.27,-135.932C1172.69,-127.578 1179.84,-114.081 1186.23,-102.009"/>
<polygon fill="midnightblue" stroke="midnightblue" points="1189.33,-103.639 1190.91,-93.1634 1183.14,-100.364 1189.33,-103.639"/>
</g>
<!-- Node11 -->
<g id="node11" class="node"><title>Node11</title>
<polygon fill="none" stroke="#bfbfbf" points="1245.38,-66 1245.38,-84 1288.62,-84 1288.62,-66 1245.38,-66"/>
<text text-anchor="middle" x="1267" y="-72" font-family="Helvetica,sans-Serif" font-size="10.00">vector</text>
</g>
<!-- Node8&#45;&gt;Node11 -->
<g id="edge15" class="edge"><title>Node8&#45;&gt;Node11</title>
<path fill="none" stroke="midnightblue" d="M1176.22,-135.932C1193.49,-124.532 1225.26,-103.556 1246.26,-89.6909"/>
<polygon fill="midnightblue" stroke="midnightblue" points="1248.38,-92.4875 1254.8,-84.057 1244.52,-86.6457 1248.38,-92.4875"/>
</g>
<!-- Node12 -->
<g id="node12" class="node"><title>Node12</title>
<polygon fill="none" stroke="#bfbfbf" points="1306.31,-66 1306.31,-84 1395.69,-84 1395.69,-66 1306.31,-66"/>
<text text-anchor="middle" x="1351" y="-72" font-family="Helvetica,sans-Serif" font-size="10.00">boost/config.hpp</text>
</g>
<!-- Node8&#45;&gt;Node12 -->
<g id="edge16" class="edge"><title>Node8&#45;&gt;Node12</title>
<path fill="none" stroke="midnightblue" d="M1186.19,-135.932C1219.22,-123.919 1281.51,-101.27 1319.33,-87.517"/>
<polygon fill="midnightblue" stroke="midnightblue" points="1320.64,-90.7638 1328.84,-84.057 1318.25,-84.1852 1320.64,-90.7638"/>
</g>
<!-- Node13 -->
<g id="node13" class="node"><title>Node13</title>
<polygon fill="none" stroke="#bfbfbf" points="1413.53,-66 1413.53,-84 1508.47,-84 1508.47,-66 1413.53,-66"/>
<text text-anchor="middle" x="1461" y="-72" font-family="Helvetica,sans-Serif" font-size="10.00">boost/version.hpp</text>
</g>
<!-- Node8&#45;&gt;Node13 -->
<g id="edge17" class="edge"><title>Node8&#45;&gt;Node13</title>
<path fill="none" stroke="midnightblue" d="M1209.43,-135.944C1257.93,-127.016 1336.88,-111.542 1404,-94 1411.68,-91.993 1419.86,-89.5785 1427.55,-87.1792"/>
<polygon fill="midnightblue" stroke="midnightblue" points="1428.84,-90.442 1437.3,-84.0694 1426.71,-83.7728 1428.84,-90.442"/>
</g>
<!-- Node14 -->
<g id="node14" class="node"><title>Node14</title>
<polygon fill="none" stroke="#bfbfbf" points="1525.97,-66 1525.97,-84 1622.03,-84 1622.03,-66 1525.97,-66"/>
<text text-anchor="middle" x="1574" y="-72" font-family="Helvetica,sans-Serif" font-size="10.00">boost/foreach.hpp</text>
</g>
<!-- Node8&#45;&gt;Node14 -->
<g id="edge18" class="edge"><title>Node8&#45;&gt;Node14</title>
<path fill="none" stroke="midnightblue" d="M1224.83,-138.468C1295.62,-131.321 1415.75,-116.993 1517,-94 1525.11,-92.158 1533.73,-89.7048 1541.75,-87.2038"/>
<polygon fill="midnightblue" stroke="midnightblue" points="1543.05,-90.4597 1551.49,-84.0526 1540.9,-83.7993 1543.05,-90.4597"/>
</g>
<!-- Node15&#45;&gt;Node3 -->
<g id="edge22" class="edge"><title>Node15&#45;&gt;Node3</title>
<path fill="none" stroke="midnightblue" d="M912.695,-135.932C920.201,-125.299 933.588,-106.334 943.296,-92.5801"/>
<polygon fill="midnightblue" stroke="midnightblue" points="946.405,-94.2451 949.313,-84.057 940.686,-90.2083 946.405,-94.2451"/>
</g>
<!-- Node15&#45;&gt;Node4 -->
<g id="edge23" class="edge"><title>Node15&#45;&gt;Node4</title>
<path fill="none" stroke="midnightblue" d="M884.325,-135.968C876.972,-133.67 868.72,-131.408 861,-130 710.38,-102.523 237.486,-83.3056 84.9444,-77.6926"/>
<polygon fill="midnightblue" stroke="midnightblue" points="85.0659,-74.1948 74.9447,-77.3273 84.8102,-81.1901 85.0659,-74.1948"/>
</g>
<!-- Node15&#45;&gt;Node5 -->
<g id="edge24" class="edge"><title>Node15&#45;&gt;Node5</title>
<path fill="none" stroke="midnightblue" d="M907,-135.68C907,-114.594 907,-58.6612 907,-29.4106"/>
<polygon fill="midnightblue" stroke="midnightblue" points="910.5,-29.3166 907,-19.3166 903.5,-29.3166 910.5,-29.3166"/>
</g>
<!-- Node16 -->
<g id="node16" class="node"><title>Node16</title>
<polygon fill="none" stroke="#bfbfbf" points="651.451,-66 651.451,-84 802.549,-84 802.549,-66 651.451,-66"/>
<text text-anchor="middle" x="727" y="-72" font-family="Helvetica,sans-Serif" font-size="10.00">boost/exception/exception.hpp</text>
</g>
<!-- Node15&#45;&gt;Node16 -->
<g id="edge20" class="edge"><title>Node15&#45;&gt;Node16</title>
<path fill="none" stroke="midnightblue" d="M885.645,-135.932C853.979,-123.97 794.402,-101.463 757.952,-87.6931"/>
<polygon fill="midnightblue" stroke="midnightblue" points="758.919,-84.3169 748.327,-84.057 756.445,-90.8652 758.919,-84.3169"/>
</g>
<!-- Node17 -->
<g id="node17" class="node"><title>Node17</title>
<polygon fill="none" stroke="#bfbfbf" points="820.596,-66 820.596,-84 879.404,-84 879.404,-66 820.596,-66"/>
<text text-anchor="middle" x="850" y="-72" font-family="Helvetica,sans-Serif" font-size="10.00">exception</text>
</g>
<!-- Node15&#45;&gt;Node17 -->
<g id="edge21" class="edge"><title>Node15&#45;&gt;Node17</title>
<path fill="none" stroke="midnightblue" d="M900.238,-135.932C891.153,-125.095 874.813,-105.602 863.238,-91.7925"/>
<polygon fill="midnightblue" stroke="midnightblue" points="865.86,-89.4723 856.754,-84.057 860.495,-93.9692 865.86,-89.4723"/>
</g>
<!-- Node18 -->
<g id="node18" class="node"><title>Node18</title>
<polygon fill="none" stroke="black" points="579,-57 579,-93 633,-93 633,-57 579,-57"/>
<text text-anchor="middle" x="605.515" y="-72" font-family="Helvetica,sans-Serif" font-size="10.00">Node18</text>
</g>
<!-- Node15&#45;&gt;Node18 -->
<g id="edge25" class="edge"><title>Node15&#45;&gt;Node18</title>
<path fill="none" stroke="midnightblue" d="M882.813,-135.982C875.825,-133.845 868.154,-131.669 861,-130 768.035,-108.313 737.784,-123.357 642.86,-93.7476"/>
<polygon fill="midnightblue" stroke="midnightblue" points="643.749,-90.357 633.157,-90.6381 641.612,-97.0231 643.749,-90.357"/>
</g>
</g>
</svg>
