<?xml version="1.0" encoding="UTF-8" standalone="no"?>
<!DOCTYPE svg PUBLIC "-//W3C//DTD SVG 1.1//EN"
 "http://www.w3.org/Graphics/SVG/1.1/DTD/svg11.dtd">
<!-- Generated by graphviz version 2.34.0 (20131025.1349)
 -->
<!-- Title: names.h Pages: 1 -->
<!--zoomable 390 -->
<svg id="main" version="1.1" xmlns="http://www.w3.org/2000/svg" xmlns:xlink="http://www.w3.org/1999/xlink" xml:space="preserve" onload="init(evt)">
<style type="text/css"><![CDATA[
.edge:hover path { stroke: red; }
.edge:hover polygon { stroke: red; fill: red; }
]]></style>
<script type="text/javascript"><![CDATA[
var edges = document.getElementsByTagName('g');
if (edges && edges.length) {
  for (var i=0;i<edges.length;i++) {
    if (edges[i].id.substr(0,4)=='edge') {
      edges[i].setAttribute('class','edge');
    }
  }
}
]]></script>
        <defs>
                <circle id="rim" cx="0" cy="0" r="7"/>
                <circle id="rim2" cx="0" cy="0" r="3.5"/>
                <g id="zoomPlus">
                        <use xlink:href="#rim" fill="#404040">
                                <set attributeName="fill" to="#808080" begin="zoomplus.mouseover" end="zoomplus.mouseout"/>
                        </use>
                        <path d="M-4,0h8M0,-4v8" fill="none" stroke="white" stroke-width="1.5" pointer-events="none"/>
                </g>
                <g id="zoomMin">
                        <use xlink:href="#rim" fill="#404040">
                                <set attributeName="fill" to="#808080" begin="zoomminus.mouseover" end="zoomminus.mouseout"/>
                        </use>
                        <path d="M-4,0h8" fill="none" stroke="white" stroke-width="1.5" pointer-events="none"/>
                </g>
                <g id="dirArrow">
                        <path fill="none" stroke="white" stroke-width="1.5" d="M0,-3.0v7 M-2.5,-0.5L0,-3.0L2.5,-0.5"/>
                </g>
               <g id="resetDef">
                       <use xlink:href="#rim2" fill="#404040">
                               <set attributeName="fill" to="#808080" begin="reset.mouseover" end="reset.mouseout"/>
                       </use>
               </g>
        </defs>

<script type="text/javascript">
var viewWidth = 1257;
var viewHeight = 390;
var sectionId = 'dynsection-0';
</script>
<script xlink:href="svgpan.js"/>
<svg id="graph" class="graph">
<g id="viewport">
<title>names.h</title>
<!-- Node1 -->
<g id="node1" class="node"><title>Node1</title>
<polygon fill="#bfbfbf" stroke="black" points="565.823,-361 565.823,-381 620.177,-381 620.177,-361 565.823,-361"/>
<text text-anchor="middle" x="593" y="-367" font-family="Helvetica,sans-Serif" font-size="10.00">names.h</text>
</g>
<!-- Node2 -->
<g id="node2" class="node"><title>Node2</title>
<polygon fill="none" stroke="#bfbfbf" points="-0.780762,-59 -0.780762,-79 50.7808,-79 50.7808,-59 -0.780762,-59"/>
<text text-anchor="middle" x="25" y="-65" font-family="Helvetica,sans-Serif" font-size="10.00">sstream</text>
</g>
<!-- Node1&#45;&gt;Node2 -->
<g id="edge1" class="edge"><title>Node1&#45;&gt;Node2</title>
<path fill="none" stroke="midnightblue" d="M565.763,-369.674C461.424,-367.705 93,-353.825 93,-256 93,-256 93,-256 93,-196 93,-152.387 61.0588,-109.37 40.9591,-86.6187"/>
<polygon fill="midnightblue" stroke="midnightblue" points="43.5002,-84.2111 34.1708,-79.1898 38.3327,-88.933 43.5002,-84.2111"/>
</g>
<!-- Node3 -->
<g id="node3" class="node"><title>Node3</title>
<polygon fill="none" stroke="#bfbfbf" points="181.773,-59 181.773,-79 222.227,-79 222.227,-59 181.773,-59"/>
<text text-anchor="middle" x="202" y="-65" font-family="Helvetica,sans-Serif" font-size="10.00">string</text>
</g>
<!-- Node1&#45;&gt;Node3 -->
<g id="edge2" class="edge"><title>Node1&#45;&gt;Node3</title>
<path fill="none" stroke="midnightblue" d="M565.607,-368.03C476.257,-360.862 199,-332.46 199,-256 199,-256 199,-256 199,-196 199,-158.221 200.365,-114.088 201.253,-89.356"/>
<polygon fill="midnightblue" stroke="midnightblue" points="204.758,-89.291 201.632,-79.1678 197.763,-89.0307 204.758,-89.291"/>
</g>
<!-- Node4 -->
<g id="node4" class="node"><title>Node4</title>
<g id="a_node4"><a xlink:href="config_8h_source.html" target="_top" xlink:title="RMF/config.h">
<polygon fill="none" stroke="black" points="1164.27,-59 1164.27,-79 1239.73,-79 1239.73,-59 1164.27,-59"/>
<text text-anchor="middle" x="1202" y="-65" font-family="Helvetica,sans-Serif" font-size="10.00">RMF/config.h</text>
</a>
</g>
</g>
<!-- Node1&#45;&gt;Node4 -->
<g id="edge3" class="edge"><title>Node1&#45;&gt;Node4</title>
<path fill="none" stroke="midnightblue" d="M620.352,-368.194C744.505,-359.637 1249,-320.878 1249,-256 1249,-256 1249,-256 1249,-196 1249,-155.165 1227.06,-111.314 1213.16,-87.6287"/>
<polygon fill="midnightblue" stroke="midnightblue" points="1216.13,-85.7799 1207.95,-79.0479 1210.15,-89.4124 1216.13,-85.7799"/>
</g>
<!-- Node6 -->
<g id="node6" class="node"><title>Node6</title>
<g id="a_node6"><a xlink:href="types_8h.html" target="_top" xlink:title="types.h">
<polygon fill="none" stroke="black" points="962.879,-303 962.879,-323 1011.12,-323 1011.12,-303 962.879,-303"/>
<text text-anchor="middle" x="987" y="-309" font-family="Helvetica,sans-Serif" font-size="10.00">types.h</text>
</a>
</g>
</g>
<!-- Node1&#45;&gt;Node6 -->
<g id="edge5" class="edge"><title>Node1&#45;&gt;Node6</title>
<path fill="none" stroke="midnightblue" d="M620.393,-366.107C690.395,-356.157 875.738,-329.814 952.722,-318.872"/>
<polygon fill="midnightblue" stroke="midnightblue" points="953.435,-322.306 962.843,-317.434 952.45,-315.376 953.435,-322.306"/>
</g>
<!-- Node5 -->
<g id="node5" class="node"><title>Node5</title>
<g id="a_node5"><a xlink:href="compiler__macros_8h.html" target="_top" xlink:title="Various compiler workarounds. ">
<polygon fill="none" stroke="black" points="699.544,-1 699.544,-21 824.456,-21 824.456,-1 699.544,-1"/>
<text text-anchor="middle" x="762" y="-7" font-family="Helvetica,sans-Serif" font-size="10.00">RMF/compiler_macros.h</text>
</a>
</g>
</g>
<!-- Node4&#45;&gt;Node5 -->
<g id="edge4" class="edge"><title>Node4&#45;&gt;Node5</title>
<path fill="none" stroke="midnightblue" d="M1164.09,-59.618C1161.02,-59.0358 1157.96,-58.4876 1155,-58 1043.91,-39.721 913.985,-25.993 834.873,-18.4807"/>
<polygon fill="midnightblue" stroke="midnightblue" points="834.815,-14.9598 824.531,-17.5066 834.159,-21.929 834.815,-14.9598"/>
</g>
<!-- Node6&#45;&gt;Node4 -->
<g id="edge6" class="edge"><title>Node6&#45;&gt;Node4</title>
<path fill="none" stroke="midnightblue" d="M1003.62,-302.911C1041.11,-281.513 1132.61,-224.126 1179,-150 1190.71,-131.288 1196.63,-106.424 1199.51,-89.4113"/>
<polygon fill="midnightblue" stroke="midnightblue" points="1203.04,-89.4655 1201.04,-79.06 1196.11,-88.438 1203.04,-89.4655"/>
</g>
<!-- Node7 -->
<g id="node7" class="node"><title>Node7</title>
<g id="a_node7"><a xlink:href="default__types_8h.html" target="_top" xlink:title="Default implementation for types.h. ">
<polygon fill="none" stroke="black" points="932.867,-245 932.867,-265 1041.13,-265 1041.13,-245 932.867,-245"/>
<text text-anchor="middle" x="987" y="-251" font-family="Helvetica,sans-Serif" font-size="10.00">RMF/default_types.h</text>
</a>
</g>
</g>
<!-- Node6&#45;&gt;Node7 -->
<g id="edge7" class="edge"><title>Node6&#45;&gt;Node7</title>
<path fill="none" stroke="midnightblue" d="M987,-302.753C987,-295.25 987,-284.424 987,-275.078"/>
<polygon fill="midnightblue" stroke="midnightblue" points="990.5,-275.075 987,-265.075 983.5,-275.075 990.5,-275.075"/>
</g>
<!-- Node7&#45;&gt;Node4 -->
<g id="edge8" class="edge"><title>Node7&#45;&gt;Node4</title>
<path fill="none" stroke="midnightblue" d="M1006.86,-244.986C1039.79,-229.309 1106.49,-194.408 1151,-150 1169.42,-131.621 1184.53,-105.457 1193.4,-88.117"/>
<polygon fill="midnightblue" stroke="midnightblue" points="1196.59,-89.5688 1197.88,-79.053 1190.31,-86.4682 1196.59,-89.5688"/>
</g>
<!-- Node8 -->
<g id="node8" class="node"><title>Node8</title>
<g id="a_node8"><a xlink:href="Vector_8h.html" target="_top" xlink:title="Represent coordinates. ">
<polygon fill="none" stroke="black" points="818.926,-187 818.926,-207 871.074,-207 871.074,-187 818.926,-187"/>
<text text-anchor="middle" x="845" y="-193" font-family="Helvetica,sans-Serif" font-size="10.00">Vector.h</text>
</a>
</g>
</g>
<!-- Node7&#45;&gt;Node8 -->
<g id="edge9" class="edge"><title>Node7&#45;&gt;Node8</title>
<path fill="none" stroke="midnightblue" d="M963.869,-244.878C940.455,-235.644 904.039,-221.283 877.682,-210.889"/>
<polygon fill="midnightblue" stroke="midnightblue" points="878.708,-207.531 868.121,-207.118 876.14,-214.043 878.708,-207.531"/>
</g>
<!-- Node8&#45;&gt;Node4 -->
<g id="edge10" class="edge"><title>Node8&#45;&gt;Node4</title>
<path fill="none" stroke="midnightblue" d="M871.155,-196.423C921.325,-196.218 1033.42,-190.782 1116,-150 1132.05,-142.074 1166.54,-107.391 1186.62,-86.3809"/>
<polygon fill="midnightblue" stroke="midnightblue" points="1189.2,-88.7458 1193.54,-79.0821 1184.12,-83.9281 1189.2,-88.7458"/>
</g>
<!-- Node9 -->
<g id="node9" class="node"><title>Node9</title>
<g id="a_node9"><a xlink:href="infrastructure__macros_8h.html" target="_top" xlink:title="Various general useful macros for IMP. ">
<polygon fill="none" stroke="black" points="227.48,-123 227.48,-143 348.52,-143 348.52,-123 227.48,-123"/>
<text text-anchor="middle" x="288" y="-129" font-family="Helvetica,sans-Serif" font-size="10.00">infrastructure_macros.h</text>
</a>
</g>
</g>
<!-- Node8&#45;&gt;Node9 -->
<g id="edge11" class="edge"><title>Node8&#45;&gt;Node9</title>
<path fill="none" stroke="midnightblue" d="M818.921,-194.773C745.699,-191.063 532.137,-178.429 357,-150 349.148,-148.725 340.859,-147.073 332.854,-145.316"/>
<polygon fill="midnightblue" stroke="midnightblue" points="333.45,-141.862 322.922,-143.054 331.895,-148.687 333.45,-141.862"/>
</g>
<!-- Node16 -->
<g id="node16" class="node"><title>Node16</title>
<g id="a_node16"><a xlink:href="exceptions_8h.html" target="_top" xlink:title="Various general useful macros for IMP. ">
<polygon fill="none" stroke="black" points="1034.93,-123 1034.93,-143 1107.07,-143 1107.07,-123 1034.93,-123"/>
<text text-anchor="middle" x="1071" y="-129" font-family="Helvetica,sans-Serif" font-size="10.00">exceptions.h</text>
</a>
</g>
</g>
<!-- Node8&#45;&gt;Node16 -->
<g id="edge21" class="edge"><title>Node8&#45;&gt;Node16</title>
<path fill="none" stroke="midnightblue" d="M871.123,-190.056C906.316,-181.883 970.797,-166.321 1025,-150 1028.81,-148.853 1032.77,-147.588 1036.7,-146.286"/>
<polygon fill="midnightblue" stroke="midnightblue" points="1037.96,-149.556 1046.3,-143.023 1035.7,-142.928 1037.96,-149.556"/>
</g>
<!-- Node20 -->
<g id="node20" class="node"><title>Node20</title>
<polygon fill="none" stroke="#bfbfbf" points="366.237,-123 366.237,-143 481.763,-143 481.763,-123 366.237,-123"/>
<text text-anchor="middle" x="424" y="-129" font-family="Helvetica,sans-Serif" font-size="10.00">boost/range/begin.hpp</text>
</g>
<!-- Node8&#45;&gt;Node20 -->
<g id="edge28" class="edge"><title>Node8&#45;&gt;Node20</title>
<path fill="none" stroke="midnightblue" d="M818.651,-193.534C759.661,-187.804 612.602,-172.356 491,-150 483.722,-148.662 476.049,-147.036 468.595,-145.34"/>
<polygon fill="midnightblue" stroke="midnightblue" points="469.162,-141.878 458.627,-143.003 467.564,-148.693 469.162,-141.878"/>
</g>
<!-- Node21 -->
<g id="node21" class="node"><title>Node21</title>
<polygon fill="none" stroke="#bfbfbf" points="500.128,-123 500.128,-143 607.872,-143 607.872,-123 500.128,-123"/>
<text text-anchor="middle" x="554" y="-129" font-family="Helvetica,sans-Serif" font-size="10.00">boost/range/end.hpp</text>
</g>
<!-- Node8&#45;&gt;Node21 -->
<g id="edge29" class="edge"><title>Node8&#45;&gt;Node21</title>
<path fill="none" stroke="midnightblue" d="M818.923,-191.175C776.472,-183.223 689.84,-166.587 617,-150 610.862,-148.602 604.408,-147.054 598.067,-145.487"/>
<polygon fill="midnightblue" stroke="midnightblue" points="598.808,-142.065 588.257,-143.029 597.106,-148.855 598.808,-142.065"/>
</g>
<!-- Node22 -->
<g id="node22" class="node"><title>Node22</title>
<polygon fill="none" stroke="#bfbfbf" points="626.313,-117 626.313,-149 725.687,-149 725.687,-117 626.313,-117"/>
<text text-anchor="start" x="634.313" y="-135" font-family="Helvetica,sans-Serif" font-size="10.00">boost/type_traits/is</text>
<text text-anchor="middle" x="676" y="-123" font-family="Helvetica,sans-Serif" font-size="10.00">_convertible.hpp</text>
</g>
<!-- Node8&#45;&gt;Node22 -->
<g id="edge30" class="edge"><title>Node8&#45;&gt;Node22</title>
<path fill="none" stroke="midnightblue" d="M820.426,-186.985C795.974,-178.014 757.73,-163.984 726.738,-152.614"/>
<polygon fill="midnightblue" stroke="midnightblue" points="727.551,-149.184 716.957,-149.026 725.14,-155.756 727.551,-149.184"/>
</g>
<!-- Node23 -->
<g id="node23" class="node"><title>Node23</title>
<polygon fill="none" stroke="#bfbfbf" points="743.251,-123 743.251,-143 838.749,-143 838.749,-123 743.251,-123"/>
<text text-anchor="middle" x="791" y="-129" font-family="Helvetica,sans-Serif" font-size="10.00">boost/mpl/not.hpp</text>
</g>
<!-- Node8&#45;&gt;Node23 -->
<g id="edge31" class="edge"><title>Node8&#45;&gt;Node23</title>
<path fill="none" stroke="midnightblue" d="M837.032,-186.852C828.817,-177.419 815.818,-162.495 805.726,-150.907"/>
<polygon fill="midnightblue" stroke="midnightblue" points="808.208,-148.428 799.001,-143.186 802.929,-153.025 808.208,-148.428"/>
</g>
<!-- Node24 -->
<g id="node24" class="node"><title>Node24</title>
<polygon fill="none" stroke="#bfbfbf" points="856.625,-123 856.625,-143 941.375,-143 941.375,-123 856.625,-123"/>
<text text-anchor="middle" x="899" y="-129" font-family="Helvetica,sans-Serif" font-size="10.00">boost/array.hpp</text>
</g>
<!-- Node8&#45;&gt;Node24 -->
<g id="edge32" class="edge"><title>Node8&#45;&gt;Node24</title>
<path fill="none" stroke="midnightblue" d="M852.968,-186.852C861.183,-177.419 874.182,-162.495 884.274,-150.907"/>
<polygon fill="midnightblue" stroke="midnightblue" points="887.071,-153.025 890.999,-143.186 881.792,-148.428 887.071,-153.025"/>
</g>
<!-- Node25 -->
<g id="node25" class="node"><title>Node25</title>
<polygon fill="none" stroke="#bfbfbf" points="959.436,-123 959.436,-143 1016.56,-143 1016.56,-123 959.436,-123"/>
<text text-anchor="middle" x="988" y="-129" font-family="Helvetica,sans-Serif" font-size="10.00">algorithm</text>
</g>
<!-- Node8&#45;&gt;Node25 -->
<g id="edge33" class="edge"><title>Node8&#45;&gt;Node25</title>
<path fill="none" stroke="midnightblue" d="M865.793,-186.985C890.046,-176.47 930.334,-159.002 957.978,-147.017"/>
<polygon fill="midnightblue" stroke="midnightblue" points="959.399,-150.215 967.181,-143.026 956.614,-143.793 959.399,-150.215"/>
</g>
<!-- Node9&#45;&gt;Node2 -->
<g id="edge12" class="edge"><title>Node9&#45;&gt;Node2</title>
<path fill="none" stroke="midnightblue" d="M244.971,-122.913C201.071,-113.48 130.771,-97.9301 60.8169,-80.1123"/>
<polygon fill="midnightblue" stroke="midnightblue" points="61.5071,-76.6761 50.9512,-77.5835 59.7689,-83.4569 61.5071,-76.6761"/>
</g>
<!-- Node9&#45;&gt;Node3 -->
<g id="edge14" class="edge"><title>Node9&#45;&gt;Node3</title>
<path fill="none" stroke="midnightblue" d="M275.31,-122.852C261.591,-112.961 239.497,-97.0326 223.145,-85.2443"/>
<polygon fill="midnightblue" stroke="midnightblue" points="224.9,-82.1948 214.742,-79.1858 220.807,-87.873 224.9,-82.1948"/>
</g>
<!-- Node9&#45;&gt;Node5 -->
<g id="edge15" class="edge"><title>Node9&#45;&gt;Node5</title>
<path fill="none" stroke="midnightblue" d="M323.296,-122.979C334.063,-120.454 345.97,-117.887 357,-116 499.376,-91.6441 547.052,-136.471 680,-80 706.962,-68.5478 731.95,-45.236 747.086,-29.124"/>
<polygon fill="midnightblue" stroke="midnightblue" points="749.922,-31.2083 754.062,-21.4557 744.744,-26.498 749.922,-31.2083"/>
</g>
<!-- Node10 -->
<g id="node10" class="node"><title>Node10</title>
<polygon fill="none" stroke="#bfbfbf" points="415.828,-59 415.828,-79 470.172,-79 470.172,-59 415.828,-59"/>
<text text-anchor="middle" x="443" y="-65" font-family="Helvetica,sans-Serif" font-size="10.00">iostream</text>
</g>
<!-- Node9&#45;&gt;Node10 -->
<g id="edge13" class="edge"><title>Node9&#45;&gt;Node10</title>
<path fill="none" stroke="midnightblue" d="M310.538,-122.985C336.941,-112.424 380.877,-94.8493 410.85,-82.8599"/>
<polygon fill="midnightblue" stroke="midnightblue" points="412.45,-85.9899 420.434,-79.0262 409.85,-79.4905 412.45,-85.9899"/>
</g>
<!-- Node11 -->
<g id="node11" class="node"><title>Node11</title>
<polygon fill="none" stroke="#bfbfbf" points="487.98,-59 487.98,-79 564.02,-79 564.02,-59 487.98,-59"/>
<text text-anchor="middle" x="526" y="-65" font-family="Helvetica,sans-Serif" font-size="10.00">internal/use.h</text>
</g>
<!-- Node9&#45;&gt;Node11 -->
<g id="edge16" class="edge"><title>Node9&#45;&gt;Node11</title>
<path fill="none" stroke="midnightblue" d="M322.607,-122.985C364.646,-112.033 435.634,-93.5408 481.647,-81.5541"/>
<polygon fill="midnightblue" stroke="midnightblue" points="482.556,-84.9342 491.351,-79.0262 480.792,-78.1602 482.556,-84.9342"/>
</g>
<!-- Node12 -->
<g id="node12" class="node"><title>Node12</title>
<polygon fill="none" stroke="#bfbfbf" points="582.306,-59 582.306,-79 671.694,-79 671.694,-59 582.306,-59"/>
<text text-anchor="middle" x="627" y="-65" font-family="Helvetica,sans-Serif" font-size="10.00">boost/config.hpp</text>
</g>
<!-- Node9&#45;&gt;Node12 -->
<g id="edge17" class="edge"><title>Node9&#45;&gt;Node12</title>
<path fill="none" stroke="midnightblue" d="M325.15,-122.935C335.438,-120.548 346.628,-118.065 357,-116 449.375,-97.6107 475.482,-96.8899 572.309,-80.0893"/>
<polygon fill="midnightblue" stroke="midnightblue" points="572.974,-83.5262 582.222,-78.3562 571.769,-76.6307 572.974,-83.5262"/>
</g>
<!-- Node13 -->
<g id="node13" class="node"><title>Node13</title>
<polygon fill="none" stroke="#bfbfbf" points="68.5298,-59 68.5298,-79 163.47,-79 163.47,-59 68.5298,-59"/>
<text text-anchor="middle" x="116" y="-65" font-family="Helvetica,sans-Serif" font-size="10.00">boost/version.hpp</text>
</g>
<!-- Node9&#45;&gt;Node13 -->
<g id="edge18" class="edge"><title>Node9&#45;&gt;Node13</title>
<path fill="none" stroke="midnightblue" d="M262.99,-122.985C233.437,-112.332 184.087,-94.5431 150.812,-82.5484"/>
<polygon fill="midnightblue" stroke="midnightblue" points="151.635,-79.1247 141.04,-79.0262 149.261,-85.71 151.635,-79.1247"/>
</g>
<!-- Node14 -->
<g id="node14" class="node"><title>Node14</title>
<polygon fill="none" stroke="#bfbfbf" points="239.971,-59 239.971,-79 336.029,-79 336.029,-59 239.971,-59"/>
<text text-anchor="middle" x="288" y="-65" font-family="Helvetica,sans-Serif" font-size="10.00">boost/foreach.hpp</text>
</g>
<!-- Node9&#45;&gt;Node14 -->
<g id="edge19" class="edge"><title>Node9&#45;&gt;Node14</title>
<path fill="none" stroke="midnightblue" d="M288,-122.852C288,-114.06 288,-100.498 288,-89.3131"/>
<polygon fill="midnightblue" stroke="midnightblue" points="291.5,-89.1858 288,-79.1858 284.5,-89.1859 291.5,-89.1858"/>
</g>
<!-- Node15 -->
<g id="node15" class="node"><title>Node15</title>
<polygon fill="none" stroke="#bfbfbf" points="354.384,-59 354.384,-79 397.616,-79 397.616,-59 354.384,-59"/>
<text text-anchor="middle" x="376" y="-65" font-family="Helvetica,sans-Serif" font-size="10.00">vector</text>
</g>
<!-- Node9&#45;&gt;Node15 -->
<g id="edge20" class="edge"><title>Node9&#45;&gt;Node15</title>
<path fill="none" stroke="midnightblue" d="M300.985,-122.852C315.023,-112.961 337.631,-97.0326 354.363,-85.2443"/>
<polygon fill="midnightblue" stroke="midnightblue" points="356.803,-87.8066 362.962,-79.1858 352.771,-82.0842 356.803,-87.8066"/>
</g>
<!-- Node16&#45;&gt;Node3 -->
<g id="edge24" class="edge"><title>Node16&#45;&gt;Node3</title>
<path fill="none" stroke="midnightblue" d="M1048.9,-122.859C1041.43,-120.166 1032.97,-117.533 1025,-116 681.325,-49.8964 579.861,-144.473 232.228,-79.707"/>
<polygon fill="midnightblue" stroke="midnightblue" points="232.874,-76.2671 222.397,-77.8453 231.571,-83.1448 232.874,-76.2671"/>
</g>
<!-- Node16&#45;&gt;Node4 -->
<g id="edge25" class="edge"><title>Node16&#45;&gt;Node4</title>
<path fill="none" stroke="midnightblue" d="M1090.05,-122.985C1112.07,-112.561 1148.53,-95.3066 1173.83,-83.3319"/>
<polygon fill="midnightblue" stroke="midnightblue" points="1175.39,-86.4677 1182.93,-79.0262 1172.39,-80.1406 1175.39,-86.4677"/>
</g>
<!-- Node16&#45;&gt;Node5 -->
<g id="edge26" class="edge"><title>Node16&#45;&gt;Node5</title>
<path fill="none" stroke="midnightblue" d="M1047.85,-122.996C1040.62,-120.441 1032.55,-117.854 1025,-116 971.77,-102.939 822.119,-116.239 781,-80 767.236,-67.8695 763.072,-46.6794 761.987,-31.1697"/>
<polygon fill="midnightblue" stroke="midnightblue" points="765.482,-30.9676 761.648,-21.0909 758.486,-31.2029 765.482,-30.9676"/>
</g>
<!-- Node17 -->
<g id="node17" class="node"><title>Node17</title>
<polygon fill="none" stroke="#bfbfbf" points="918.451,-59 918.451,-79 1069.55,-79 1069.55,-59 918.451,-59"/>
<text text-anchor="middle" x="994" y="-65" font-family="Helvetica,sans-Serif" font-size="10.00">boost/exception/exception.hpp</text>
</g>
<!-- Node16&#45;&gt;Node17 -->
<g id="edge22" class="edge"><title>Node16&#45;&gt;Node17</title>
<path fill="none" stroke="midnightblue" d="M1059.64,-122.852C1047.47,-113.053 1027.94,-97.327 1013.34,-85.5728"/>
<polygon fill="midnightblue" stroke="midnightblue" points="1015.39,-82.7313 1005.41,-79.1858 1011,-88.1836 1015.39,-82.7313"/>
</g>
<!-- Node18 -->
<g id="node18" class="node"><title>Node18</title>
<polygon fill="none" stroke="#bfbfbf" points="1087.6,-59 1087.6,-79 1146.4,-79 1146.4,-59 1087.6,-59"/>
<text text-anchor="middle" x="1117" y="-65" font-family="Helvetica,sans-Serif" font-size="10.00">exception</text>
</g>
<!-- Node16&#45;&gt;Node18 -->
<g id="edge23" class="edge"><title>Node16&#45;&gt;Node18</title>
<path fill="none" stroke="midnightblue" d="M1077.79,-122.852C1084.72,-113.511 1095.64,-98.7838 1104.2,-87.2456"/>
<polygon fill="midnightblue" stroke="midnightblue" points="1107.04,-89.3023 1110.18,-79.1858 1101.42,-85.1314 1107.04,-89.3023"/>
</g>
<!-- Node19 -->
<g id="node19" class="node"><title>Node19</title>
<polygon fill="none" stroke="#bfbfbf" points="789.766,-59 789.766,-79 900.234,-79 900.234,-59 789.766,-59"/>
<text text-anchor="middle" x="845" y="-65" font-family="Helvetica,sans-Serif" font-size="10.00">RMF/internal/errors.h</text>
</g>
<!-- Node16&#45;&gt;Node19 -->
<g id="edge27" class="edge"><title>Node16&#45;&gt;Node19</title>
<path fill="none" stroke="midnightblue" d="M1046.3,-122.977C1039.44,-120.59 1031.96,-118.097 1025,-116 981.102,-102.782 930.461,-90.0614 894.098,-81.3606"/>
<polygon fill="midnightblue" stroke="midnightblue" points="894.776,-77.9243 884.238,-79.016 893.157,-84.7344 894.776,-77.9243"/>
</g>
</g>
</svg>
        <g id="navigator" transform="translate(0 0)" fill="#404254">
                <rect fill="#f2f5e9" fill-opacity="0.5" stroke="#606060" stroke-width=".5" x="0" y="0" width="60" height="60"/>
                <use id="zoomplus" xlink:href="#zoomPlus" x="17" y="9" onmousedown="handleZoom(evt,'in')"/>
                <use id="zoomminus" xlink:href="#zoomMin" x="42" y="9" onmousedown="handleZoom(evt,'out')"/>
                <use id="reset" xlink:href="#resetDef" x="30" y="36" onmousedown="handleReset()"/>
                <g id="arrowUp" xlink:href="#dirArrow" transform="translate(30 24)" onmousedown="handlePan(0,-1)">
                  <use xlink:href="#rim" fill="#404040">
                        <set attributeName="fill" to="#808080" begin="arrowUp.mouseover" end="arrowUp.mouseout"/>
                  </use>
                  <path fill="none" stroke="white" stroke-width="1.5" d="M0,-3.0v7 M-2.5,-0.5L0,-3.0L2.5,-0.5"/>
                </g>
                <g id="arrowRight" xlink:href="#dirArrow" transform="rotate(90) translate(36 -43)" onmousedown="handlePan(1,0)">
                  <use xlink:href="#rim" fill="#404040">
                        <set attributeName="fill" to="#808080" begin="arrowRight.mouseover" end="arrowRight.mouseout"/>
                  </use>
                  <path fill="none" stroke="white" stroke-width="1.5" d="M0,-3.0v7 M-2.5,-0.5L0,-3.0L2.5,-0.5"/>
                </g>
                <g id="arrowDown" xlink:href="#dirArrow" transform="rotate(180) translate(-30 -48)" onmousedown="handlePan(0,1)">
                  <use xlink:href="#rim" fill="#404040">
                        <set attributeName="fill" to="#808080" begin="arrowDown.mouseover" end="arrowDown.mouseout"/>
                  </use>
                  <path fill="none" stroke="white" stroke-width="1.5" d="M0,-3.0v7 M-2.5,-0.5L0,-3.0L2.5,-0.5"/>
                </g>
                <g id="arrowLeft" xlink:href="#dirArrow" transform="rotate(270) translate(-36 17)" onmousedown="handlePan(-1,0)">
                  <use xlink:href="#rim" fill="#404040">
                        <set attributeName="fill" to="#808080" begin="arrowLeft.mouseover" end="arrowLeft.mouseout"/>
                  </use>
                  <path fill="none" stroke="white" stroke-width="1.5" d="M0,-3.0v7 M-2.5,-0.5L0,-3.0L2.5,-0.5"/>
                </g>
        </g>
        <svg viewBox="0 0 15 15" width="100%" height="30px" preserveAspectRatio="xMaxYMin meet">
         <g id="arrow_out" transform="scale(0.3 0.3)">
          <a xlink:href="names_8h__incl_org.svg" target="_base">
           <rect id="button" ry="5" rx="5" y="6" x="6" height="38" width="38"
                fill="#f2f5e9" fill-opacity="0.5" stroke="#606060" stroke-width="1.0"/>
           <path id="arrow"
             d="M 11.500037,31.436501 C 11.940474,20.09759 22.043105,11.32322 32.158766,21.979434 L 37.068811,17.246167 C 37.068811,17.246167 37.088388,32 37.088388,32 L 22.160133,31.978069 C 22.160133,31.978069 26.997745,27.140456 26.997745,27.140456 C 18.528582,18.264221 13.291696,25.230495 11.500037,31.436501 z"
             style="fill:#404040;"/>
          </a>
         </g>
        </svg>
</svg>
