<?xml version="1.0" encoding="UTF-8" standalone="no"?>
<!DOCTYPE svg PUBLIC "-//W3C//DTD SVG 1.1//EN"
 "http://www.w3.org/Graphics/SVG/1.1/DTD/svg11.dtd">
<!-- Generated by graphviz version 2.34.0 (20131025.1349)
 -->
<!-- Title: NodeHandle.h Pages: 1 -->
<!--zoomable 262 -->
<svg id="main" version="1.1" xmlns="http://www.w3.org/2000/svg" xmlns:xlink="http://www.w3.org/1999/xlink" xml:space="preserve" onload="init(evt)">
<style type="text/css"><![CDATA[
.edge:hover path { stroke: red; }
.edge:hover polygon { stroke: red; fill: red; }
]]></style>
<script type="text/javascript"><![CDATA[
var edges = document.getElementsByTagName('g');
if (edges && edges.length) {
  for (var i=0;i<edges.length;i++) {
    if (edges[i].id.substr(0,4)=='edge') {
      edges[i].setAttribute('class','edge');
    }
  }
}
]]></script>
        <defs>
                <circle id="rim" cx="0" cy="0" r="7"/>
                <circle id="rim2" cx="0" cy="0" r="3.5"/>
                <g id="zoomPlus">
                        <use xlink:href="#rim" fill="#404040">
                                <set attributeName="fill" to="#808080" begin="zoomplus.mouseover" end="zoomplus.mouseout"/>
                        </use>
                        <path d="M-4,0h8M0,-4v8" fill="none" stroke="white" stroke-width="1.5" pointer-events="none"/>
                </g>
                <g id="zoomMin">
                        <use xlink:href="#rim" fill="#404040">
                                <set attributeName="fill" to="#808080" begin="zoomminus.mouseover" end="zoomminus.mouseout"/>
                        </use>
                        <path d="M-4,0h8" fill="none" stroke="white" stroke-width="1.5" pointer-events="none"/>
                </g>
                <g id="dirArrow">
                        <path fill="none" stroke="white" stroke-width="1.5" d="M0,-3.0v7 M-2.5,-0.5L0,-3.0L2.5,-0.5"/>
                </g>
               <g id="resetDef">
                       <use xlink:href="#rim2" fill="#404040">
                               <set attributeName="fill" to="#808080" begin="reset.mouseover" end="reset.mouseout"/>
                       </use>
               </g>
        </defs>

<script type="text/javascript">
var viewWidth = 973;
var viewHeight = 262;
var sectionId = 'dynsection-1';
</script>
<script xlink:href="svgpan.js"/>
<svg id="graph" class="graph">
<g id="viewport">
<title>NodeHandle.h</title>
<!-- Node1 -->
<g id="node1" class="node"><title>Node1</title>
<polygon fill="#bfbfbf" stroke="black" points="436.032,-233 436.032,-253 515.968,-253 515.968,-233 436.032,-233"/>
<text text-anchor="middle" x="476" y="-239" font-family="Helvetica,sans-Serif" font-size="10.00">NodeHandle.h</text>
</g>
<!-- Node2 -->
<g id="node2" class="node"><title>Node2</title>
<g id="a_node2"><a xlink:href="Decorator_8h.html" target="_top" xlink:title="Mostly empty base classes for decorators and factories. ">
<polygon fill="none" stroke="black" points="411.15,-175 411.15,-195 478.85,-195 478.85,-175 411.15,-175"/>
<text text-anchor="middle" x="445" y="-181" font-family="Helvetica,sans-Serif" font-size="10.00">Decorator.h</text>
</a>
</g>
</g>
<!-- Node1&#45;&gt;Node2 -->
<g id="edge1" class="edge"><title>Node1&#45;&gt;Node2</title>
<path fill="none" stroke="midnightblue" d="M465.991,-223.92C460.658,-214.285 454.328,-202.85 450.024,-195.075"/>
<polygon fill="midnightblue" stroke="midnightblue" points="462.976,-225.699 470.881,-232.753 469.1,-222.309 462.976,-225.699"/>
</g>
<!-- Node3 -->
<g id="node3" class="node"><title>Node3</title>
<g id="a_node3"><a xlink:href="alias_8h.html" target="_top" xlink:title="Helper functions for manipulating RMF files. ">
<polygon fill="none" stroke="black" points="307.547,-117 307.547,-137 352.453,-137 352.453,-117 307.547,-117"/>
<text text-anchor="middle" x="330" y="-123" font-family="Helvetica,sans-Serif" font-size="10.00">alias.h</text>
</a>
</g>
</g>
<!-- Node1&#45;&gt;Node3 -->
<g id="edge29" class="edge"><title>Node1&#45;&gt;Node3</title>
<path fill="none" stroke="midnightblue" d="M445.847,-228.522C429.15,-220.335 408.499,-208.971 392,-196 369.142,-178.029 347.448,-151.241 336.817,-137.256"/>
<polygon fill="midnightblue" stroke="midnightblue" points="444.627,-231.818 455.159,-232.964 447.64,-225.5 444.627,-231.818"/>
</g>
<!-- Node5 -->
<g id="node5" class="node"><title>Node5</title>
<g id="a_node5"><a xlink:href="physics_8h.html" target="_top" xlink:title="Helper functions for manipulating RMF files. ">
<polygon fill="none" stroke="black" points="734.158,-59 734.158,-79 791.842,-79 791.842,-59 734.158,-59"/>
<text text-anchor="middle" x="763" y="-65" font-family="Helvetica,sans-Serif" font-size="10.00">physics.h</text>
</a>
</g>
</g>
<!-- Node1&#45;&gt;Node5 -->
<g id="edge45" class="edge"><title>Node1&#45;&gt;Node5</title>
<path fill="none" stroke="midnightblue" d="M526.214,-236.259C622.216,-224.13 825.932,-192.444 867,-138 890.254,-107.172 830.142,-86.2093 791.878,-76.388"/>
<polygon fill="midnightblue" stroke="midnightblue" points="525.654,-232.801 516.162,-237.507 526.517,-239.748 525.654,-232.801"/>
</g>
<!-- Node7 -->
<g id="node7" class="node"><title>Node7</title>
<g id="a_node7"><a xlink:href="benchmark__rmf_8cpp_source.html" target="_top" xlink:title="benchmark_rmf.cpp">
<polygon fill="none" stroke="black" points="860.815,-1 860.815,-21 965.185,-21 965.185,-1 860.815,-1"/>
<text text-anchor="middle" x="913" y="-7" font-family="Helvetica,sans-Serif" font-size="10.00">benchmark_rmf.cpp</text>
</a>
</g>
</g>
<!-- Node1&#45;&gt;Node7 -->
<g id="edge55" class="edge"><title>Node1&#45;&gt;Node7</title>
<path fill="none" stroke="midnightblue" d="M526.337,-239.317C611.808,-234.141 781.274,-221.016 835,-196 895.156,-167.99 912.877,-144.369 929,-80 934.245,-59.0591 924.461,-34.3639 918.012,-21.2593"/>
<polygon fill="midnightblue" stroke="midnightblue" points="525.87,-235.838 516.095,-239.924 526.284,-242.826 525.87,-235.838"/>
</g>
<!-- Node8 -->
<g id="node8" class="node"><title>Node8</title>
<g id="a_node8"><a xlink:href="external_8h.html" target="_top" xlink:title="Helper functions for manipulating RMF files. ">
<polygon fill="none" stroke="black" points="370.042,-117 370.042,-137 429.958,-137 429.958,-117 370.042,-117"/>
<text text-anchor="middle" x="400" y="-123" font-family="Helvetica,sans-Serif" font-size="10.00">external.h</text>
</a>
</g>
</g>
<!-- Node1&#45;&gt;Node8 -->
<g id="edge43" class="edge"><title>Node1&#45;&gt;Node8</title>
<path fill="none" stroke="midnightblue" d="M439.948,-228.564C425.549,-221.243 410.415,-210.629 402,-196 391.282,-177.367 394.793,-150.859 397.718,-137.09"/>
<polygon fill="midnightblue" stroke="midnightblue" points="438.686,-231.838 449.226,-232.909 441.654,-225.498 438.686,-231.838"/>
</g>
<!-- Node9 -->
<g id="node9" class="node"><title>Node9</title>
<g id="a_node9"><a xlink:href="feature_8h.html" target="_top" xlink:title="Helper functions for manipulating RMF files. ">
<polygon fill="none" stroke="black" points="524.264,-117 524.264,-137 579.736,-137 579.736,-117 524.264,-117"/>
<text text-anchor="middle" x="552" y="-123" font-family="Helvetica,sans-Serif" font-size="10.00">feature.h</text>
</a>
</g>
</g>
<!-- Node1&#45;&gt;Node9 -->
<g id="edge44" class="edge"><title>Node1&#45;&gt;Node9</title>
<path fill="none" stroke="midnightblue" d="M487.828,-224.257C504.24,-199.64 533.317,-156.025 545.907,-137.139"/>
<polygon fill="midnightblue" stroke="midnightblue" points="484.854,-222.409 482.219,-232.671 490.679,-226.292 484.854,-222.409"/>
</g>
<!-- Node10 -->
<g id="node10" class="node"><title>Node10</title>
<g id="a_node10"><a xlink:href="publication_8h.html" target="_top" xlink:title="Helper functions for manipulating RMF files. ">
<polygon fill="none" stroke="black" points="46.9238,-117 46.9238,-137 119.076,-137 119.076,-117 46.9238,-117"/>
<text text-anchor="middle" x="83" y="-123" font-family="Helvetica,sans-Serif" font-size="10.00">publication.h</text>
</a>
</g>
</g>
<!-- Node1&#45;&gt;Node10 -->
<g id="edge46" class="edge"><title>Node1&#45;&gt;Node10</title>
<path fill="none" stroke="midnightblue" d="M425.71,-233.228C382.424,-225.172 318.516,-212.062 264,-196 204.914,-178.591 137.536,-151.201 104.111,-137.084"/>
<polygon fill="midnightblue" stroke="midnightblue" points="425.239,-236.7 435.707,-235.068 426.506,-229.816 425.239,-236.7"/>
</g>
<!-- Node11 -->
<g id="node11" class="node"><title>Node11</title>
<g id="a_node11"><a xlink:href="sequence_8h.html" target="_top" xlink:title="Helper functions for manipulating RMF files. ">
<polygon fill="none" stroke="black" points="831.146,-59 831.146,-79 898.854,-79 898.854,-59 831.146,-59"/>
<text text-anchor="middle" x="865" y="-65" font-family="Helvetica,sans-Serif" font-size="10.00">sequence.h</text>
</a>
</g>
</g>
<!-- Node1&#45;&gt;Node11 -->
<g id="edge47" class="edge"><title>Node1&#45;&gt;Node11</title>
<path fill="none" stroke="midnightblue" d="M526.347,-241.253C590.281,-238.845 703.09,-229.666 793,-196 837.565,-179.313 860.22,-179.78 883,-138 893.523,-118.7 880.349,-92.9227 871.6,-79.3181"/>
<polygon fill="midnightblue" stroke="midnightblue" points="526.013,-237.762 516.136,-241.595 526.248,-244.758 526.013,-237.762"/>
</g>
<!-- Node12 -->
<g id="node12" class="node"><title>Node12</title>
<g id="a_node12"><a xlink:href="shape_8h.html" target="_top" xlink:title="Helper functions for manipulating RMF files. ">
<polygon fill="none" stroke="black" points="598.207,-117 598.207,-137 649.793,-137 649.793,-117 598.207,-117"/>
<text text-anchor="middle" x="624" y="-123" font-family="Helvetica,sans-Serif" font-size="10.00">shape.h</text>
</a>
</g>
</g>
<!-- Node1&#45;&gt;Node12 -->
<g id="edge48" class="edge"><title>Node1&#45;&gt;Node12</title>
<path fill="none" stroke="midnightblue" d="M526.391,-238.687C557.037,-233.881 594.326,-222.518 616,-196 629.842,-179.065 627.919,-151.345 625.742,-137.092"/>
<polygon fill="midnightblue" stroke="midnightblue" points="525.714,-235.247 516.285,-240.078 526.669,-242.182 525.714,-235.247"/>
</g>
<!-- Node13 -->
<g id="node13" class="node"><title>Node13</title>
<g id="a_node13"><a xlink:href="bond_8h.html" target="_top" xlink:title="Helper functions for manipulating RMF files. ">
<polygon fill="none" stroke="black" points="136.707,-117 136.707,-137 183.293,-137 183.293,-117 136.707,-117"/>
<text text-anchor="middle" x="160" y="-123" font-family="Helvetica,sans-Serif" font-size="10.00">bond.h</text>
</a>
</g>
</g>
<!-- Node1&#45;&gt;Node13 -->
<g id="edge49" class="edge"><title>Node1&#45;&gt;Node13</title>
<path fill="none" stroke="midnightblue" d="M432.359,-230.311C401.304,-221.667 358.742,-209.156 322,-196 269.735,-177.286 209.904,-150.812 179.682,-137.07"/>
<polygon fill="midnightblue" stroke="midnightblue" points="431.445,-233.69 442.016,-232.978 433.308,-226.942 431.445,-233.69"/>
</g>
<!-- Node14 -->
<g id="node14" class="node"><title>Node14</title>
<g id="a_node14"><a xlink:href="representation_8h.html" target="_top" xlink:title="Helper functions for manipulating RMF files. ">
<polygon fill="none" stroke="black" points="200.865,-117 200.865,-137 289.135,-137 289.135,-117 200.865,-117"/>
<text text-anchor="middle" x="245" y="-123" font-family="Helvetica,sans-Serif" font-size="10.00">representation.h</text>
</a>
</g>
</g>
<!-- Node1&#45;&gt;Node14 -->
<g id="edge50" class="edge"><title>Node1&#45;&gt;Node14</title>
<path fill="none" stroke="midnightblue" d="M442.476,-229.154C420.452,-220.429 391.166,-208.282 366,-196 326.804,-176.87 282.546,-150.798 259.978,-137.164"/>
<polygon fill="midnightblue" stroke="midnightblue" points="441.456,-232.513 452.043,-232.91 444.014,-225.997 441.456,-232.513"/>
</g>
<!-- Node15 -->
<g id="node15" class="node"><title>Node15</title>
<g id="a_node15"><a xlink:href="alternatives_8h.html" target="_top" xlink:title="Helper functions for manipulating RMF files. ">
<polygon fill="none" stroke="black" points="668.261,-117 668.261,-137 743.739,-137 743.739,-117 668.261,-117"/>
<text text-anchor="middle" x="706" y="-123" font-family="Helvetica,sans-Serif" font-size="10.00">alternatives.h</text>
</a>
</g>
</g>
<!-- Node1&#45;&gt;Node15 -->
<g id="edge51" class="edge"><title>Node1&#45;&gt;Node15</title>
<path fill="none" stroke="midnightblue" d="M526.203,-233.918C558.787,-227.161 601.299,-215.418 635,-196 662.211,-180.322 686.985,-152.052 698.768,-137.391"/>
<polygon fill="midnightblue" stroke="midnightblue" points="525.125,-230.563 515.996,-235.94 526.485,-237.43 525.125,-230.563"/>
</g>
<!-- Node16 -->
<g id="node16" class="node"><title>Node16</title>
<g id="a_node16"><a xlink:href="FileHandle_8h.html" target="_top" xlink:title="Declaration for RMF::FileHandle. ">
<polygon fill="none" stroke="black" points="534.929,-175 534.929,-195 607.071,-195 607.071,-175 534.929,-175"/>
<text text-anchor="middle" x="571" y="-181" font-family="Helvetica,sans-Serif" font-size="10.00">FileHandle.h</text>
</a>
</g>
</g>
<!-- Node1&#45;&gt;Node16 -->
<g id="edge30" class="edge"><title>Node1&#45;&gt;Node16</title>
<path fill="none" stroke="midnightblue" d="M500.703,-227.438C518.07,-217.201 540.766,-203.822 555.605,-195.075"/>
<polygon fill="midnightblue" stroke="midnightblue" points="498.525,-224.659 491.687,-232.753 502.079,-230.69 498.525,-224.659"/>
</g>
<!-- Node18 -->
<g id="node18" class="node"><title>Node18</title>
<g id="a_node18"><a xlink:href="Label_8h.html" target="_top" xlink:title="Declaration of RMF::Label. ">
<polygon fill="none" stroke="black" points="20.5962,-175 20.5962,-195 69.4038,-195 69.4038,-175 20.5962,-175"/>
<text text-anchor="middle" x="45" y="-181" font-family="Helvetica,sans-Serif" font-size="10.00">Label.h</text>
</a>
</g>
</g>
<!-- Node1&#45;&gt;Node18 -->
<g id="edge52" class="edge"><title>Node1&#45;&gt;Node18</title>
<path fill="none" stroke="midnightblue" d="M425.926,-236.273C355.054,-228.045 221.469,-212.093 108,-196 95.2809,-194.196 81.1532,-191.974 69.505,-190.083"/>
<polygon fill="midnightblue" stroke="midnightblue" points="425.582,-239.756 435.918,-237.429 426.387,-232.802 425.582,-239.756"/>
</g>
<!-- Node2&#45;&gt;Node3 -->
<g id="edge2" class="edge"><title>Node2&#45;&gt;Node3</title>
<path fill="none" stroke="midnightblue" d="M417.101,-170.414C395.881,-160.081 367.267,-146.147 348.725,-137.118"/>
<polygon fill="midnightblue" stroke="midnightblue" points="415.744,-173.647 426.267,-174.878 418.809,-167.353 415.744,-173.647"/>
</g>
<!-- Node2&#45;&gt;Node5 -->
<g id="edge12" class="edge"><title>Node2&#45;&gt;Node5</title>
<path fill="none" stroke="midnightblue" d="M450.203,-165.034C455.536,-149.331 465.438,-127.758 482,-116 522.208,-87.4545 670.4,-75.4639 733.855,-71.5616"/>
<polygon fill="midnightblue" stroke="midnightblue" points="446.801,-164.187 447.214,-174.774 453.493,-166.24 446.801,-164.187"/>
</g>
<!-- Node2&#45;&gt;Node8 -->
<g id="edge8" class="edge"><title>Node2&#45;&gt;Node8</title>
<path fill="none" stroke="midnightblue" d="M431.193,-166.818C423.306,-157.003 413.736,-145.093 407.293,-137.075"/>
<polygon fill="midnightblue" stroke="midnightblue" points="428.577,-169.15 437.569,-174.753 434.034,-164.765 428.577,-169.15"/>
</g>
<!-- Node2&#45;&gt;Node9 -->
<g id="edge10" class="edge"><title>Node2&#45;&gt;Node9</title>
<path fill="none" stroke="midnightblue" d="M471.743,-170.003C491.434,-159.698 517.638,-145.984 534.66,-137.075"/>
<polygon fill="midnightblue" stroke="midnightblue" points="469.906,-167.015 462.669,-174.753 473.152,-173.217 469.906,-167.015"/>
</g>
<!-- Node2&#45;&gt;Node10 -->
<g id="edge13" class="edge"><title>Node2&#45;&gt;Node10</title>
<path fill="none" stroke="midnightblue" d="M400.983,-178.667C339.612,-170.991 224.952,-155.781 128,-138 125.166,-137.48 122.239,-136.909 119.302,-136.311"/>
<polygon fill="midnightblue" stroke="midnightblue" points="400.73,-182.162 411.086,-179.922 401.594,-175.216 400.73,-182.162"/>
</g>
<!-- Node2&#45;&gt;Node11 -->
<g id="edge15" class="edge"><title>Node2&#45;&gt;Node11</title>
<path fill="none" stroke="midnightblue" d="M457.569,-166.51C470.148,-150.474 491.037,-127.524 515,-116 630.058,-60.6646 673.561,-97.7084 800,-80 810.063,-78.5906 820.986,-76.9525 830.954,-75.4151"/>
<polygon fill="midnightblue" stroke="midnightblue" points="454.7,-164.501 451.469,-174.591 460.287,-168.719 454.7,-164.501"/>
</g>
<!-- Node2&#45;&gt;Node12 -->
<g id="edge19" class="edge"><title>Node2&#45;&gt;Node12</title>
<path fill="none" stroke="midnightblue" d="M483.928,-171.821C518.514,-161.001 568.097,-145.489 598.055,-136.117"/>
<polygon fill="midnightblue" stroke="midnightblue" points="482.657,-168.552 474.158,-174.878 484.747,-175.232 482.657,-168.552"/>
</g>
<!-- Node2&#45;&gt;Node13 -->
<g id="edge22" class="edge"><title>Node2&#45;&gt;Node13</title>
<path fill="none" stroke="midnightblue" d="M400.771,-177.648C349.996,-169.966 264.392,-155.821 192,-138 189.174,-137.304 186.231,-136.499 183.325,-135.653"/>
<polygon fill="midnightblue" stroke="midnightblue" points="400.345,-181.123 410.753,-179.142 401.382,-174.2 400.345,-181.123"/>
</g>
<!-- Node2&#45;&gt;Node14 -->
<g id="edge24" class="edge"><title>Node2&#45;&gt;Node14</title>
<path fill="none" stroke="midnightblue" d="M402.315,-172.048C364.856,-161.56 311.197,-146.535 277.233,-137.025"/>
<polygon fill="midnightblue" stroke="midnightblue" points="401.848,-175.552 412.421,-174.878 403.736,-168.811 401.848,-175.552"/>
</g>
<!-- Node2&#45;&gt;Node15 -->
<g id="edge26" class="edge"><title>Node2&#45;&gt;Node15</title>
<path fill="none" stroke="midnightblue" d="M488.756,-174.612C538.923,-163.848 620.348,-146.377 667.975,-136.159"/>
<polygon fill="midnightblue" stroke="midnightblue" points="487.897,-171.216 478.854,-176.736 489.365,-178.061 487.897,-171.216"/>
</g>
<!-- Node4 -->
<g id="node4" class="node"><title>Node4</title>
<g id="a_node4"><a xlink:href="decorators_8h.html" target="_top" xlink:title="Import all the decorators headers. ">
<polygon fill="none" stroke="black" points="364.207,-1 364.207,-21 435.793,-21 435.793,-1 364.207,-1"/>
<text text-anchor="middle" x="400" y="-7" font-family="Helvetica,sans-Serif" font-size="10.00">decorators.h</text>
</a>
</g>
</g>
<!-- Node3&#45;&gt;Node4 -->
<g id="edge3" class="edge"><title>Node3&#45;&gt;Node4</title>
<path fill="none" stroke="midnightblue" d="M341.095,-107.931C356.246,-83.2561 382.843,-39.9416 394.388,-21.1394"/>
<polygon fill="midnightblue" stroke="midnightblue" points="337.978,-106.318 335.728,-116.671 343.944,-109.981 337.978,-106.318"/>
</g>
<!-- Node3&#45;&gt;Node5 -->
<g id="edge4" class="edge"><title>Node3&#45;&gt;Node5</title>
<path fill="none" stroke="midnightblue" d="M362.424,-116.036C506.186,-85.7219 668.776,-74.7952 733.92,-71.3507"/>
<polygon fill="midnightblue" stroke="midnightblue" points="361.588,-112.636 352.546,-118.156 363.058,-119.48 361.588,-112.636"/>
</g>
<!-- Node5&#45;&gt;Node4 -->
<g id="edge5" class="edge"><title>Node5&#45;&gt;Node4</title>
<path fill="none" stroke="midnightblue" d="M723.605,-61.9225C652.592,-50.9674 504.165,-28.0696 435.835,-17.5283"/>
<polygon fill="midnightblue" stroke="midnightblue" points="723.491,-65.4463 733.908,-63.5119 724.558,-58.5281 723.491,-65.4463"/>
</g>
<!-- Node6 -->
<g id="node6" class="node"><title>Node6</title>
<g id="a_node6"><a xlink:href="TraverseHelper_8h.html" target="_top" xlink:title="A helper function for managing data when traversing an RMF. ">
<polygon fill="none" stroke="black" points="687.831,-1 687.831,-21 780.169,-21 780.169,-1 687.831,-1"/>
<text text-anchor="middle" x="734" y="-7" font-family="Helvetica,sans-Serif" font-size="10.00">TraverseHelper.h</text>
</a>
</g>
</g>
<!-- Node5&#45;&gt;Node6 -->
<g id="edge6" class="edge"><title>Node5&#45;&gt;Node6</title>
<path fill="none" stroke="midnightblue" d="M753.481,-49.6182C748.524,-40.0471 742.684,-28.7692 738.7,-21.0752"/>
<polygon fill="midnightblue" stroke="midnightblue" points="750.505,-51.4823 758.211,-58.7527 756.721,-48.2633 750.505,-51.4823"/>
</g>
<!-- Node5&#45;&gt;Node7 -->
<g id="edge7" class="edge"><title>Node5&#45;&gt;Node7</title>
<path fill="none" stroke="midnightblue" d="M797.168,-55.2441C825.041,-44.8381 863.738,-30.3912 888.577,-21.1181"/>
<polygon fill="midnightblue" stroke="midnightblue" points="795.578,-52.1014 787.434,-58.878 798.027,-58.6593 795.578,-52.1014"/>
</g>
<!-- Node8&#45;&gt;Node4 -->
<g id="edge9" class="edge"><title>Node8&#45;&gt;Node4</title>
<path fill="none" stroke="midnightblue" d="M400,-106.603C400,-81.7305 400,-39.6088 400,-21.1394"/>
<polygon fill="midnightblue" stroke="midnightblue" points="396.5,-106.671 400,-116.671 403.5,-106.671 396.5,-106.671"/>
</g>
<!-- Node9&#45;&gt;Node4 -->
<g id="edge11" class="edge"><title>Node9&#45;&gt;Node4</title>
<path fill="none" stroke="midnightblue" d="M531.6,-110.7C499.534,-86.6504 438.307,-40.7303 412.24,-21.1799"/>
<polygon fill="midnightblue" stroke="midnightblue" points="529.718,-113.664 539.818,-116.864 533.918,-108.064 529.718,-113.664"/>
</g>
<!-- Node10&#45;&gt;Node4 -->
<g id="edge14" class="edge"><title>Node10&#45;&gt;Node4</title>
<path fill="none" stroke="midnightblue" d="M113.991,-112.997C148.241,-98.8021 205.163,-75.7326 255,-58 294.065,-44.1003 339.75,-29.9482 369.244,-21.0812"/>
<polygon fill="midnightblue" stroke="midnightblue" points="112.429,-109.856 104.539,-116.927 115.117,-116.319 112.429,-109.856"/>
</g>
<!-- Node11&#45;&gt;Node4 -->
<g id="edge16" class="edge"><title>Node11&#45;&gt;Node4</title>
<path fill="none" stroke="midnightblue" d="M820.906,-60.9842C813.918,-59.9393 806.766,-58.9092 800,-58 665.944,-39.9865 506.014,-22.9235 435.913,-15.6656"/>
<polygon fill="midnightblue" stroke="midnightblue" points="820.551,-64.4703 830.963,-62.5132 821.603,-57.5498 820.551,-64.4703"/>
</g>
<!-- Node11&#45;&gt;Node6 -->
<g id="edge17" class="edge"><title>Node11&#45;&gt;Node6</title>
<path fill="none" stroke="midnightblue" d="M834.195,-54.8313C809.93,-44.4588 776.737,-30.2692 755.33,-21.1181"/>
<polygon fill="midnightblue" stroke="midnightblue" points="833.09,-58.1655 843.661,-58.878 835.842,-51.7289 833.09,-58.1655"/>
</g>
<!-- Node11&#45;&gt;Node7 -->
<g id="edge18" class="edge"><title>Node11&#45;&gt;Node7</title>
<path fill="none" stroke="midnightblue" d="M879.473,-51.1145C887.934,-41.2442 898.279,-29.1742 905.221,-21.0752"/>
<polygon fill="midnightblue" stroke="midnightblue" points="876.777,-48.8824 872.926,-58.7527 882.092,-53.4379 876.777,-48.8824"/>
</g>
<!-- Node12&#45;&gt;Node4 -->
<g id="edge20" class="edge"><title>Node12&#45;&gt;Node4</title>
<path fill="none" stroke="midnightblue" d="M596.882,-112.199C550.405,-88.5456 456.771,-40.8926 417.727,-21.0217"/>
<polygon fill="midnightblue" stroke="midnightblue" points="595.548,-115.447 606.048,-116.864 598.723,-109.209 595.548,-115.447"/>
</g>
<!-- Node12&#45;&gt;Node6 -->
<g id="edge21" class="edge"><title>Node12&#45;&gt;Node6</title>
<path fill="none" stroke="midnightblue" d="M640.188,-109.223C663.757,-84.797 706.718,-40.2743 725.181,-21.1394"/>
<polygon fill="midnightblue" stroke="midnightblue" points="637.427,-107.044 633.002,-116.671 642.464,-111.905 637.427,-107.044"/>
</g>
<!-- Node13&#45;&gt;Node4 -->
<g id="edge23" class="edge"><title>Node13&#45;&gt;Node4</title>
<path fill="none" stroke="midnightblue" d="M188.432,-112.495C238.011,-88.9448 338.998,-40.9757 381.007,-21.0217"/>
<polygon fill="midnightblue" stroke="midnightblue" points="186.766,-109.412 179.235,-116.864 189.769,-115.734 186.766,-109.412"/>
</g>
<!-- Node14&#45;&gt;Node4 -->
<g id="edge25" class="edge"><title>Node14&#45;&gt;Node4</title>
<path fill="none" stroke="midnightblue" d="M265.802,-110.7C298.502,-86.6504 360.937,-40.7303 387.519,-21.1799"/>
<polygon fill="midnightblue" stroke="midnightblue" points="263.404,-108.119 257.422,-116.864 267.552,-113.758 263.404,-108.119"/>
</g>
<!-- Node15&#45;&gt;Node4 -->
<g id="edge27" class="edge"><title>Node15&#45;&gt;Node4</title>
<path fill="none" stroke="midnightblue" d="M672.613,-113.26C636.508,-99.5121 577.237,-77.0303 526,-58 491.072,-45.0271 450.585,-30.3016 425.132,-21.0818"/>
<polygon fill="midnightblue" stroke="midnightblue" points="671.565,-116.606 682.156,-116.896 674.058,-110.065 671.565,-116.606"/>
</g>
<!-- Node15&#45;&gt;Node6 -->
<g id="edge28" class="edge"><title>Node15&#45;&gt;Node6</title>
<path fill="none" stroke="midnightblue" d="M710.682,-106.939C716.78,-82.1105 727.198,-39.692 731.755,-21.1394"/>
<polygon fill="midnightblue" stroke="midnightblue" points="707.278,-106.125 708.291,-116.671 714.076,-107.794 707.278,-106.125"/>
</g>
<!-- Node16&#45;&gt;Node3 -->
<g id="edge31" class="edge"><title>Node16&#45;&gt;Node3</title>
<path fill="none" stroke="midnightblue" d="M524.866,-175.226C482.11,-166.78 416.873,-153.094 361,-138 358.27,-137.263 355.424,-136.432 352.612,-135.572"/>
<polygon fill="midnightblue" stroke="midnightblue" points="524.212,-178.664 534.699,-177.154 525.559,-171.795 524.212,-178.664"/>
</g>
<!-- Node16&#45;&gt;Node5 -->
<g id="edge34" class="edge"><title>Node16&#45;&gt;Node5</title>
<path fill="none" stroke="midnightblue" d="M617.4,-178.042C664.843,-170.97 734.054,-157.609 752,-138 766.856,-121.767 766.039,-93.7402 764.405,-79.259"/>
<polygon fill="midnightblue" stroke="midnightblue" points="616.733,-174.602 607.337,-179.497 617.735,-181.53 616.733,-174.602"/>
</g>
<!-- Node16&#45;&gt;Node7 -->
<g id="edge42" class="edge"><title>Node16&#45;&gt;Node7</title>
<path fill="none" stroke="midnightblue" d="M617.552,-182.839C694.733,-180.008 844.698,-170.382 885,-138 920.985,-109.087 917.187,-45.118 914.331,-21.2332"/>
<polygon fill="midnightblue" stroke="midnightblue" points="617.038,-179.354 607.163,-183.195 617.277,-186.35 617.038,-179.354"/>
</g>
<!-- Node16&#45;&gt;Node8 -->
<g id="edge32" class="edge"><title>Node16&#45;&gt;Node8</title>
<path fill="none" stroke="midnightblue" d="M533.266,-171.643C501.303,-161.175 456.226,-146.413 427.559,-137.025"/>
<polygon fill="midnightblue" stroke="midnightblue" points="532.553,-175.092 543.145,-174.878 534.731,-168.44 532.553,-175.092"/>
</g>
<!-- Node16&#45;&gt;Node9 -->
<g id="edge33" class="edge"><title>Node16&#45;&gt;Node9</title>
<path fill="none" stroke="midnightblue" d="M564.557,-165.012C561.355,-155.574 557.635,-144.607 555.079,-137.075"/>
<polygon fill="midnightblue" stroke="midnightblue" points="561.335,-166.408 567.863,-174.753 567.964,-164.158 561.335,-166.408"/>
</g>
<!-- Node16&#45;&gt;Node10 -->
<g id="edge35" class="edge"><title>Node16&#45;&gt;Node10</title>
<path fill="none" stroke="midnightblue" d="M524.626,-178.323C512.394,-176.869 499.204,-175.338 487,-174 327.6,-156.521 286.325,-163.438 128,-138 125.155,-137.543 122.221,-137.017 119.278,-136.45"/>
<polygon fill="midnightblue" stroke="midnightblue" points="524.287,-181.808 534.632,-179.521 525.119,-174.857 524.287,-181.808"/>
</g>
<!-- Node16&#45;&gt;Node11 -->
<g id="edge36" class="edge"><title>Node16&#45;&gt;Node11</title>
<path fill="none" stroke="midnightblue" d="M617.365,-183.818C692.439,-182.429 835.414,-174.873 867,-138 881.138,-121.496 873.919,-93.5874 868.741,-79.1945"/>
<polygon fill="midnightblue" stroke="midnightblue" points="617.185,-180.321 607.241,-183.976 617.294,-187.32 617.185,-180.321"/>
</g>
<!-- Node16&#45;&gt;Node12 -->
<g id="edge37" class="edge"><title>Node16&#45;&gt;Node12</title>
<path fill="none" stroke="midnightblue" d="M586.701,-167.41C596.094,-157.486 607.669,-145.255 615.411,-137.075"/>
<polygon fill="midnightblue" stroke="midnightblue" points="584.084,-165.084 579.752,-174.753 589.168,-169.896 584.084,-165.084"/>
</g>
<!-- Node16&#45;&gt;Node13 -->
<g id="edge38" class="edge"><title>Node16&#45;&gt;Node13</title>
<path fill="none" stroke="midnightblue" d="M524.86,-178.511C425.603,-166.687 200.077,-139.737 192,-138 189.269,-137.413 186.436,-136.694 183.637,-135.914"/>
<polygon fill="midnightblue" stroke="midnightblue" points="524.564,-182 534.908,-179.707 525.392,-175.049 524.564,-182"/>
</g>
<!-- Node16&#45;&gt;Node14 -->
<g id="edge39" class="edge"><title>Node16&#45;&gt;Node14</title>
<path fill="none" stroke="midnightblue" d="M524.917,-176.431C470.787,-167.489 378.303,-152.048 299,-138 295.808,-137.435 292.511,-136.843 289.194,-136.242"/>
<polygon fill="midnightblue" stroke="midnightblue" points="524.454,-179.902 534.891,-178.077 525.594,-172.996 524.454,-179.902"/>
</g>
<!-- Node16&#45;&gt;Node15 -->
<g id="edge40" class="edge"><title>Node16&#45;&gt;Node15</title>
<path fill="none" stroke="midnightblue" d="M602.413,-170.969C627.447,-160.585 661.86,-146.31 684.019,-137.118"/>
<polygon fill="midnightblue" stroke="midnightblue" points="600.886,-167.813 592.991,-174.878 603.568,-174.279 600.886,-167.813"/>
</g>
<!-- Node17 -->
<g id="node17" class="node"><title>Node17</title>
<g id="a_node17"><a xlink:href="validate_8h.html" target="_top" xlink:title="Support for validating the data in a file. ">
<polygon fill="none" stroke="black" points="799.596,-117 799.596,-137 858.404,-137 858.404,-117 799.596,-117"/>
<text text-anchor="middle" x="829" y="-123" font-family="Helvetica,sans-Serif" font-size="10.00">validate.h</text>
</a>
</g>
</g>
<!-- Node16&#45;&gt;Node17 -->
<g id="edge41" class="edge"><title>Node16&#45;&gt;Node17</title>
<path fill="none" stroke="midnightblue" d="M617.19,-174.364C660.764,-165.216 727.886,-150.973 786,-138 790.339,-137.031 794.919,-135.988 799.408,-134.955"/>
<polygon fill="midnightblue" stroke="midnightblue" points="616.25,-170.985 607.182,-176.463 617.687,-177.836 616.25,-170.985"/>
</g>
<!-- Node19 -->
<g id="node19" class="node"><title>Node19</title>
<g id="a_node19"><a xlink:href="labels_8h.html" target="_top" xlink:title="Helper functions for manipulating RMF files. ">
<polygon fill="none" stroke="black" points="-0.233887,-59 -0.233887,-79 50.2339,-79 50.2339,-59 -0.233887,-59"/>
<text text-anchor="middle" x="25" y="-65" font-family="Helvetica,sans-Serif" font-size="10.00">labels.h</text>
</a>
</g>
</g>
<!-- Node18&#45;&gt;Node19 -->
<g id="edge53" class="edge"><title>Node18&#45;&gt;Node19</title>
<path fill="none" stroke="midnightblue" d="M41.5971,-164.603C37.2334,-139.731 29.8436,-97.6088 26.6034,-79.1394"/>
<polygon fill="midnightblue" stroke="midnightblue" points="38.1879,-165.426 43.3633,-174.671 45.0826,-164.217 38.1879,-165.426"/>
</g>
<!-- Node19&#45;&gt;Node4 -->
<g id="edge54" class="edge"><title>Node19&#45;&gt;Node4</title>
<path fill="none" stroke="midnightblue" d="M60.7782,-62.6571C132.343,-51.9702 292.387,-28.0702 364.074,-17.365"/>
<polygon fill="midnightblue" stroke="midnightblue" points="59.8538,-59.2563 50.4805,-64.1949 60.8877,-66.1795 59.8538,-59.2563"/>
</g>
</g>
</svg>
        <g id="navigator" transform="translate(0 0)" fill="#404254">
                <rect fill="#f2f5e9" fill-opacity="0.5" stroke="#606060" stroke-width=".5" x="0" y="0" width="60" height="60"/>
                <use id="zoomplus" xlink:href="#zoomPlus" x="17" y="9" onmousedown="handleZoom(evt,'in')"/>
                <use id="zoomminus" xlink:href="#zoomMin" x="42" y="9" onmousedown="handleZoom(evt,'out')"/>
                <use id="reset" xlink:href="#resetDef" x="30" y="36" onmousedown="handleReset()"/>
                <g id="arrowUp" xlink:href="#dirArrow" transform="translate(30 24)" onmousedown="handlePan(0,-1)">
                  <use xlink:href="#rim" fill="#404040">
                        <set attributeName="fill" to="#808080" begin="arrowUp.mouseover" end="arrowUp.mouseout"/>
                  </use>
                  <path fill="none" stroke="white" stroke-width="1.5" d="M0,-3.0v7 M-2.5,-0.5L0,-3.0L2.5,-0.5"/>
                </g>
                <g id="arrowRight" xlink:href="#dirArrow" transform="rotate(90) translate(36 -43)" onmousedown="handlePan(1,0)">
                  <use xlink:href="#rim" fill="#404040">
                        <set attributeName="fill" to="#808080" begin="arrowRight.mouseover" end="arrowRight.mouseout"/>
                  </use>
                  <path fill="none" stroke="white" stroke-width="1.5" d="M0,-3.0v7 M-2.5,-0.5L0,-3.0L2.5,-0.5"/>
                </g>
                <g id="arrowDown" xlink:href="#dirArrow" transform="rotate(180) translate(-30 -48)" onmousedown="handlePan(0,1)">
                  <use xlink:href="#rim" fill="#404040">
                        <set attributeName="fill" to="#808080" begin="arrowDown.mouseover" end="arrowDown.mouseout"/>
                  </use>
                  <path fill="none" stroke="white" stroke-width="1.5" d="M0,-3.0v7 M-2.5,-0.5L0,-3.0L2.5,-0.5"/>
                </g>
                <g id="arrowLeft" xlink:href="#dirArrow" transform="rotate(270) translate(-36 17)" onmousedown="handlePan(-1,0)">
                  <use xlink:href="#rim" fill="#404040">
                        <set attributeName="fill" to="#808080" begin="arrowLeft.mouseover" end="arrowLeft.mouseout"/>
                  </use>
                  <path fill="none" stroke="white" stroke-width="1.5" d="M0,-3.0v7 M-2.5,-0.5L0,-3.0L2.5,-0.5"/>
                </g>
        </g>
        <svg viewBox="0 0 15 15" width="100%" height="30px" preserveAspectRatio="xMaxYMin meet">
         <g id="arrow_out" transform="scale(0.3 0.3)">
          <a xlink:href="NodeHandle_8h__dep__incl_org.svg" target="_base">
           <rect id="button" ry="5" rx="5" y="6" x="6" height="38" width="38"
                fill="#f2f5e9" fill-opacity="0.5" stroke="#606060" stroke-width="1.0"/>
           <path id="arrow"
             d="M 11.500037,31.436501 C 11.940474,20.09759 22.043105,11.32322 32.158766,21.979434 L 37.068811,17.246167 C 37.068811,17.246167 37.088388,32 37.088388,32 L 22.160133,31.978069 C 22.160133,31.978069 26.997745,27.140456 26.997745,27.140456 C 18.528582,18.264221 13.291696,25.230495 11.500037,31.436501 z"
             style="fill:#404040;"/>
          </a>
         </g>
        </svg>
</svg>
