<?xml version="1.0" encoding="UTF-8" standalone="no"?>
<!DOCTYPE svg PUBLIC "-//W3C//DTD SVG 1.1//EN"
 "http://www.w3.org/Graphics/SVG/1.1/DTD/svg11.dtd">
<!-- Generated by graphviz version 2.34.0 (20131025.1349)
 -->
<!-- Title: NodeConstHandle.h Pages: 1 -->
<svg width="1433pt" height="320pt"
 viewBox="0.00 0.00 1432.72 320.00" xmlns="http://www.w3.org/2000/svg" xmlns:xlink="http://www.w3.org/1999/xlink">
<g id="graph0" class="graph" transform="scale(1 1) rotate(0) translate(4 316)">
<title>NodeConstHandle.h</title>
<!-- Node1 -->
<g id="node1" class="node"><title>Node1</title>
<polygon fill="#bfbfbf" stroke="black" points="889.971,-291 889.971,-311 996.029,-311 996.029,-291 889.971,-291"/>
<text text-anchor="middle" x="943" y="-297" font-family="Helvetica,sans-Serif" font-size="10.00">NodeConstHandle.h</text>
</g>
<!-- Node2 -->
<g id="node2" class="node"><title>Node2</title>
<g id="a_node2"><a xlink:href="Decorator_8h.html" target="_top" xlink:title="Helper functions for manipulating RMF files. ">
<polygon fill="none" stroke="black" points="353.15,-175 353.15,-195 420.85,-195 420.85,-175 353.15,-175"/>
<text text-anchor="middle" x="387" y="-181" font-family="Helvetica,sans-Serif" font-size="10.00">Decorator.h</text>
</a>
</g>
</g>
<!-- Node1&#45;&gt;Node2 -->
<g id="edge1" class="edge"><title>Node1&#45;&gt;Node2</title>
<path fill="none" stroke="midnightblue" d="M879.486,-297.922C769.769,-293.639 549.616,-281.792 478,-254 443.434,-240.586 410.56,-210.201 395.534,-195.005"/>
<polygon fill="midnightblue" stroke="midnightblue" points="879.624,-301.43 889.75,-298.314 879.89,-294.435 879.624,-301.43"/>
</g>
<!-- Node6 -->
<g id="node6" class="node"><title>Node6</title>
<g id="a_node6"><a xlink:href="benchmark__rmf_8cpp_source.html" target="_top" xlink:title="benchmark_rmf.cpp">
<polygon fill="none" stroke="black" points="814.815,-1 814.815,-21 919.185,-21 919.185,-1 814.815,-1"/>
<text text-anchor="middle" x="867" y="-7" font-family="Helvetica,sans-Serif" font-size="10.00">benchmark_rmf.cpp</text>
</a>
</g>
</g>
<!-- Node1&#45;&gt;Node6 -->
<g id="edge61" class="edge"><title>Node1&#45;&gt;Node6</title>
<path fill="none" stroke="midnightblue" d="M937.861,-281.01C932.234,-258.513 924,-219.814 924,-186 924,-186 924,-186 924,-126 924,-83.0722 891.266,-39.7389 875.411,-21.2673"/>
<polygon fill="midnightblue" stroke="midnightblue" points="934.535,-282.126 940.438,-290.924 941.31,-280.365 934.535,-282.126"/>
</g>
<!-- Node15 -->
<g id="node15" class="node"><title>Node15</title>
<g id="a_node15"><a xlink:href="NodeHandle_8h.html" target="_top" xlink:title="Handle read/write of Model data from/to files. ">
<polygon fill="none" stroke="black" points="487.032,-233 487.032,-253 566.968,-253 566.968,-233 487.032,-233"/>
<text text-anchor="middle" x="527" y="-239" font-family="Helvetica,sans-Serif" font-size="10.00">NodeHandle.h</text>
</a>
</g>
</g>
<!-- Node1&#45;&gt;Node15 -->
<g id="edge25" class="edge"><title>Node1&#45;&gt;Node15</title>
<path fill="none" stroke="midnightblue" d="M879.91,-291.507C793.161,-279.829 639.57,-259.154 567.047,-249.391"/>
<polygon fill="midnightblue" stroke="midnightblue" points="879.513,-294.985 889.891,-292.851 880.447,-288.048 879.513,-294.985"/>
</g>
<!-- Node17 -->
<g id="node17" class="node"><title>Node17</title>
<g id="a_node17"><a xlink:href="validate_8h.html" target="_top" xlink:title="Handle read/write of Model data from/to files. ">
<polygon fill="none" stroke="black" points="951.596,-117 951.596,-137 1010.4,-137 1010.4,-117 951.596,-117"/>
<text text-anchor="middle" x="981" y="-123" font-family="Helvetica,sans-Serif" font-size="10.00">validate.h</text>
</a>
</g>
</g>
<!-- Node1&#45;&gt;Node17 -->
<g id="edge60" class="edge"><title>Node1&#45;&gt;Node17</title>
<path fill="none" stroke="midnightblue" d="M947.247,-280.776C955.397,-243.886 972.954,-164.417 978.947,-137.293"/>
<polygon fill="midnightblue" stroke="midnightblue" points="943.783,-280.233 945.043,-290.753 950.618,-281.743 943.783,-280.233"/>
</g>
<!-- Node18 -->
<g id="node18" class="node"><title>Node18</title>
<g id="a_node18"><a xlink:href="FileConstHandle_8h.html" target="_top" xlink:title="Handle read/write of Model data from/to files. ">
<polygon fill="none" stroke="black" points="998.867,-233 998.867,-253 1097.13,-253 1097.13,-233 998.867,-233"/>
<text text-anchor="middle" x="1048" y="-239" font-family="Helvetica,sans-Serif" font-size="10.00">FileConstHandle.h</text>
</a>
</g>
</g>
<!-- Node1&#45;&gt;Node18 -->
<g id="edge51" class="edge"><title>Node1&#45;&gt;Node18</title>
<path fill="none" stroke="midnightblue" d="M969.244,-286.003C988.566,-275.698 1014.28,-261.984 1030.98,-253.075"/>
<polygon fill="midnightblue" stroke="midnightblue" points="967.515,-282.959 960.339,-290.753 970.809,-289.135 967.515,-282.959"/>
</g>
<!-- Node23 -->
<g id="node23" class="node"><title>Node23</title>
<g id="a_node23"><a xlink:href="utility_8h.html" target="_top" xlink:title="Helper functions for manipulating RMF files. ">
<polygon fill="none" stroke="black" points="1114.81,-233 1114.81,-253 1161.19,-253 1161.19,-233 1114.81,-233"/>
<text text-anchor="middle" x="1138" y="-239" font-family="Helvetica,sans-Serif" font-size="10.00">utility.h</text>
</a>
</g>
</g>
<!-- Node1&#45;&gt;Node23 -->
<g id="edge59" class="edge"><title>Node1&#45;&gt;Node23</title>
<path fill="none" stroke="midnightblue" d="M985.929,-288.236C1018.85,-279.129 1065.39,-266.074 1106,-254 1108.79,-253.171 1111.71,-252.284 1114.6,-251.394"/>
<polygon fill="midnightblue" stroke="midnightblue" points="984.878,-284.895 976.17,-290.93 986.741,-291.643 984.878,-284.895"/>
</g>
<!-- Node3 -->
<g id="node3" class="node"><title>Node3</title>
<g id="a_node3"><a xlink:href="alias_8h.html" target="_top" xlink:title="Helper functions for manipulating RMF files. ">
<polygon fill="none" stroke="black" points="548.547,-117 548.547,-137 593.453,-137 593.453,-117 548.547,-117"/>
<text text-anchor="middle" x="571" y="-123" font-family="Helvetica,sans-Serif" font-size="10.00">alias.h</text>
</a>
</g>
</g>
<!-- Node2&#45;&gt;Node3 -->
<g id="edge2" class="edge"><title>Node2&#45;&gt;Node3</title>
<path fill="none" stroke="midnightblue" d="M427.194,-171.944C457.852,-162.722 501.118,-149.651 539,-138 542.004,-137.076 545.165,-136.097 548.282,-135.127"/>
<polygon fill="midnightblue" stroke="midnightblue" points="425.875,-168.685 417.306,-174.916 427.89,-175.389 425.875,-168.685"/>
</g>
<!-- Node5 -->
<g id="node5" class="node"><title>Node5</title>
<g id="a_node5"><a xlink:href="physics_8h.html" target="_top" xlink:title="Helper functions for manipulating RMF files. ">
<polygon fill="none" stroke="black" points="622.158,-59 622.158,-79 679.842,-79 679.842,-59 622.158,-59"/>
<text text-anchor="middle" x="651" y="-65" font-family="Helvetica,sans-Serif" font-size="10.00">physics.h</text>
</a>
</g>
</g>
<!-- Node2&#45;&gt;Node5 -->
<g id="edge11" class="edge"><title>Node2&#45;&gt;Node5</title>
<path fill="none" stroke="midnightblue" d="M378.43,-165.524C372.862,-150.469 368.552,-129.555 380,-116 410.715,-79.6325 558.137,-72.0112 621.714,-70.4186"/>
<polygon fill="midnightblue" stroke="midnightblue" points="375.235,-166.958 382.307,-174.848 381.699,-164.271 375.235,-166.958"/>
</g>
<!-- Node7 -->
<g id="node7" class="node"><title>Node7</title>
<g id="a_node7"><a xlink:href="external_8h.html" target="_top" xlink:title="Helper functions for manipulating RMF files. ">
<polygon fill="none" stroke="black" points="93.042,-117 93.042,-137 152.958,-137 152.958,-117 93.042,-117"/>
<text text-anchor="middle" x="123" y="-123" font-family="Helvetica,sans-Serif" font-size="10.00">external.h</text>
</a>
</g>
</g>
<!-- Node2&#45;&gt;Node7 -->
<g id="edge7" class="edge"><title>Node2&#45;&gt;Node7</title>
<path fill="none" stroke="midnightblue" d="M343.14,-175.698C297.692,-166.939 224.671,-152.432 162,-138 159.139,-137.341 156.167,-136.629 153.198,-135.9"/>
<polygon fill="midnightblue" stroke="midnightblue" points="342.481,-179.135 352.962,-177.584 343.801,-172.261 342.481,-179.135"/>
</g>
<!-- Node8 -->
<g id="node8" class="node"><title>Node8</title>
<g id="a_node8"><a xlink:href="feature_8h.html" target="_top" xlink:title="Helper functions for manipulating RMF files. ">
<polygon fill="none" stroke="black" points="277.264,-117 277.264,-137 332.736,-137 332.736,-117 277.264,-117"/>
<text text-anchor="middle" x="305" y="-123" font-family="Helvetica,sans-Serif" font-size="10.00">feature.h</text>
</a>
</g>
</g>
<!-- Node2&#45;&gt;Node8 -->
<g id="edge9" class="edge"><title>Node2&#45;&gt;Node8</title>
<path fill="none" stroke="midnightblue" d="M364.84,-168.866C349.964,-158.707 330.859,-145.66 318.289,-137.075"/>
<polygon fill="midnightblue" stroke="midnightblue" points="363.227,-172.003 373.459,-174.753 367.175,-166.223 363.227,-172.003"/>
</g>
<!-- Node9 -->
<g id="node9" class="node"><title>Node9</title>
<g id="a_node9"><a xlink:href="publication_8h.html" target="_top" xlink:title="Helper functions for manipulating RMF files. ">
<polygon fill="none" stroke="black" points="388.924,-117 388.924,-137 461.076,-137 461.076,-117 388.924,-117"/>
<text text-anchor="middle" x="425" y="-123" font-family="Helvetica,sans-Serif" font-size="10.00">publication.h</text>
</a>
</g>
</g>
<!-- Node2&#45;&gt;Node9 -->
<g id="edge12" class="edge"><title>Node2&#45;&gt;Node9</title>
<path fill="none" stroke="midnightblue" d="M399.065,-166.22C405.645,-156.524 413.511,-144.931 418.842,-137.075"/>
<polygon fill="midnightblue" stroke="midnightblue" points="395.994,-164.513 393.275,-174.753 401.786,-168.443 395.994,-164.513"/>
</g>
<!-- Node10 -->
<g id="node10" class="node"><title>Node10</title>
<g id="a_node10"><a xlink:href="sequence_8h.html" target="_top" xlink:title="Helper functions for manipulating RMF files. ">
<polygon fill="none" stroke="black" points="714.146,-117 714.146,-137 781.854,-137 781.854,-117 714.146,-117"/>
<text text-anchor="middle" x="748" y="-123" font-family="Helvetica,sans-Serif" font-size="10.00">sequence.h</text>
</a>
</g>
</g>
<!-- Node2&#45;&gt;Node10 -->
<g id="edge14" class="edge"><title>Node2&#45;&gt;Node10</title>
<path fill="none" stroke="midnightblue" d="M431.203,-177.143C504.237,-165.814 648.539,-143.429 714.129,-133.254"/>
<polygon fill="midnightblue" stroke="midnightblue" points="430.307,-173.74 420.962,-178.732 431.38,-180.657 430.307,-173.74"/>
</g>
<!-- Node11 -->
<g id="node11" class="node"><title>Node11</title>
<g id="a_node11"><a xlink:href="shape_8h.html" target="_top" xlink:title="Helper functions for manipulating RMF files. ">
<polygon fill="none" stroke="black" points="479.207,-117 479.207,-137 530.793,-137 530.793,-117 479.207,-117"/>
<text text-anchor="middle" x="505" y="-123" font-family="Helvetica,sans-Serif" font-size="10.00">shape.h</text>
</a>
</g>
</g>
<!-- Node2&#45;&gt;Node11 -->
<g id="edge17" class="edge"><title>Node2&#45;&gt;Node11</title>
<path fill="none" stroke="midnightblue" d="M415.333,-170.554C437.135,-160.207 466.676,-146.188 485.787,-137.118"/>
<polygon fill="midnightblue" stroke="midnightblue" points="413.755,-167.429 406.221,-174.878 416.756,-173.752 413.755,-167.429"/>
</g>
<!-- Node12 -->
<g id="node12" class="node"><title>Node12</title>
<g id="a_node12"><a xlink:href="bond_8h.html" target="_top" xlink:title="Helper functions for manipulating RMF files. ">
<polygon fill="none" stroke="black" points="611.707,-117 611.707,-137 658.293,-137 658.293,-117 611.707,-117"/>
<text text-anchor="middle" x="635" y="-123" font-family="Helvetica,sans-Serif" font-size="10.00">bond.h</text>
</a>
</g>
</g>
<!-- Node2&#45;&gt;Node12 -->
<g id="edge19" class="edge"><title>Node2&#45;&gt;Node12</title>
<path fill="none" stroke="midnightblue" d="M431.087,-175.686C474.725,-167.195 543.317,-153.141 602,-138 605.13,-137.192 608.408,-136.281 611.632,-135.344"/>
<polygon fill="midnightblue" stroke="midnightblue" points="430.245,-172.284 421.091,-177.619 431.574,-179.157 430.245,-172.284"/>
</g>
<!-- Node13 -->
<g id="node13" class="node"><title>Node13</title>
<g id="a_node13"><a xlink:href="representation_8h.html" target="_top" xlink:title="Helper functions for manipulating RMF files. ">
<polygon fill="none" stroke="black" points="170.865,-117 170.865,-137 259.135,-137 259.135,-117 170.865,-117"/>
<text text-anchor="middle" x="215" y="-123" font-family="Helvetica,sans-Serif" font-size="10.00">representation.h</text>
</a>
</g>
</g>
<!-- Node2&#45;&gt;Node13 -->
<g id="edge21" class="edge"><title>Node2&#45;&gt;Node13</title>
<path fill="none" stroke="midnightblue" d="M349.462,-171.778C317.288,-161.303 271.68,-146.454 242.721,-137.025"/>
<polygon fill="midnightblue" stroke="midnightblue" points="348.39,-175.11 358.982,-174.878 350.557,-168.454 348.39,-175.11"/>
</g>
<!-- Node14 -->
<g id="node14" class="node"><title>Node14</title>
<g id="a_node14"><a xlink:href="alternatives_8h.html" target="_top" xlink:title="Helper functions for manipulating RMF files. ">
<polygon fill="none" stroke="black" points="-0.73877,-117 -0.73877,-137 74.7388,-137 74.7388,-117 -0.73877,-117"/>
<text text-anchor="middle" x="37" y="-123" font-family="Helvetica,sans-Serif" font-size="10.00">alternatives.h</text>
</a>
</g>
</g>
<!-- Node2&#45;&gt;Node14 -->
<g id="edge23" class="edge"><title>Node2&#45;&gt;Node14</title>
<path fill="none" stroke="midnightblue" d="M342.699,-178.108C283.553,-170.052 175.602,-154.683 84,-138 81.0453,-137.462 77.9923,-136.877 74.9268,-136.27"/>
<polygon fill="midnightblue" stroke="midnightblue" points="342.431,-181.604 352.811,-179.479 343.371,-174.668 342.431,-181.604"/>
</g>
<!-- Node4 -->
<g id="node4" class="node"><title>Node4</title>
<g id="a_node4"><a xlink:href="decorators_8h.html" target="_top" xlink:title="Import all the decorators headers. ">
<polygon fill="none" stroke="black" points="429.207,-1 429.207,-21 500.793,-21 500.793,-1 429.207,-1"/>
<text text-anchor="middle" x="465" y="-7" font-family="Helvetica,sans-Serif" font-size="10.00">decorators.h</text>
</a>
</g>
</g>
<!-- Node3&#45;&gt;Node4 -->
<g id="edge3" class="edge"><title>Node3&#45;&gt;Node4</title>
<path fill="none" stroke="midnightblue" d="M555.401,-109.223C532.688,-84.797 491.29,-40.2743 473.498,-21.1394"/>
<polygon fill="midnightblue" stroke="midnightblue" points="552.953,-111.731 562.326,-116.671 558.079,-106.964 552.953,-111.731"/>
</g>
<!-- Node3&#45;&gt;Node5 -->
<g id="edge4" class="edge"><title>Node3&#45;&gt;Node5</title>
<path fill="none" stroke="midnightblue" d="M592.62,-110.866C607.133,-100.707 625.771,-87.6601 638.035,-79.0752"/>
<polygon fill="midnightblue" stroke="midnightblue" points="590.396,-108.151 584.21,-116.753 594.41,-113.885 590.396,-108.151"/>
</g>
<!-- Node5&#45;&gt;Node4 -->
<g id="edge5" class="edge"><title>Node5&#45;&gt;Node4</title>
<path fill="none" stroke="midnightblue" d="M612.11,-56.2912C577.282,-45.8052 526.928,-30.6449 495.091,-21.0596"/>
<polygon fill="midnightblue" stroke="midnightblue" points="611.353,-59.7184 621.938,-59.25 613.371,-53.0156 611.353,-59.7184"/>
</g>
<!-- Node5&#45;&gt;Node6 -->
<g id="edge6" class="edge"><title>Node5&#45;&gt;Node6</title>
<path fill="none" stroke="midnightblue" d="M689.926,-57.908C730.463,-47.3985 793.368,-31.0897 832.272,-21.0037"/>
<polygon fill="midnightblue" stroke="midnightblue" points="688.932,-54.5499 680.131,-60.4476 690.689,-61.3259 688.932,-54.5499"/>
</g>
<!-- Node7&#45;&gt;Node4 -->
<g id="edge8" class="edge"><title>Node7&#45;&gt;Node4</title>
<path fill="none" stroke="midnightblue" d="M156.86,-113.41C194.913,-99.3857 258.618,-76.2833 314,-58 355.247,-44.3831 403.302,-29.9943 433.924,-21.0093"/>
<polygon fill="midnightblue" stroke="midnightblue" points="155.465,-110.194 147.297,-116.942 157.891,-116.76 155.465,-110.194"/>
</g>
<!-- Node8&#45;&gt;Node4 -->
<g id="edge10" class="edge"><title>Node8&#45;&gt;Node4</title>
<path fill="none" stroke="midnightblue" d="M326.042,-111.007C359.676,-87.0434 424.56,-40.8138 452.116,-21.1799"/>
<polygon fill="midnightblue" stroke="midnightblue" points="323.936,-108.21 317.823,-116.864 327.998,-113.911 323.936,-108.21"/>
</g>
<!-- Node9&#45;&gt;Node4 -->
<g id="edge13" class="edge"><title>Node9&#45;&gt;Node4</title>
<path fill="none" stroke="midnightblue" d="M431.688,-106.939C440.4,-82.1105 455.284,-39.692 461.793,-21.1394"/>
<polygon fill="midnightblue" stroke="midnightblue" points="428.282,-106.076 428.273,-116.671 434.887,-108.394 428.282,-106.076"/>
</g>
<!-- Node10&#45;&gt;Node4 -->
<g id="edge15" class="edge"><title>Node10&#45;&gt;Node4</title>
<path fill="none" stroke="midnightblue" d="M737.01,-108.02C726.433,-92.311 708.977,-70.1679 688,-58 628.673,-23.5874 547.333,-14.6911 501.068,-12.5311"/>
<polygon fill="midnightblue" stroke="midnightblue" points="734.321,-110.31 742.677,-116.824 740.207,-106.521 734.321,-110.31"/>
</g>
<!-- Node10&#45;&gt;Node6 -->
<g id="edge16" class="edge"><title>Node10&#45;&gt;Node6</title>
<path fill="none" stroke="midnightblue" d="M765.181,-109.541C790.605,-85.1847 837.399,-40.3575 857.46,-21.1394"/>
<polygon fill="midnightblue" stroke="midnightblue" points="762.538,-107.226 757.738,-116.671 767.381,-112.281 762.538,-107.226"/>
</g>
<!-- Node11&#45;&gt;Node4 -->
<g id="edge18" class="edge"><title>Node11&#45;&gt;Node4</title>
<path fill="none" stroke="midnightblue" d="M498.312,-106.939C489.6,-82.1105 474.716,-39.692 468.207,-21.1394"/>
<polygon fill="midnightblue" stroke="midnightblue" points="495.113,-108.394 501.727,-116.671 501.718,-106.076 495.113,-108.394"/>
</g>
<!-- Node12&#45;&gt;Node4 -->
<g id="edge20" class="edge"><title>Node12&#45;&gt;Node4</title>
<path fill="none" stroke="midnightblue" d="M612.643,-111.007C576.907,-87.0434 507.968,-40.8138 478.689,-21.1799"/>
<polygon fill="midnightblue" stroke="midnightblue" points="611.121,-114.201 621.376,-116.864 615.019,-108.387 611.121,-114.201"/>
</g>
<!-- Node13&#45;&gt;Node4 -->
<g id="edge22" class="edge"><title>Node13&#45;&gt;Node4</title>
<path fill="none" stroke="midnightblue" d="M244.295,-112.642C295.823,-89.1448 401.366,-41.0173 445.216,-21.0217"/>
<polygon fill="midnightblue" stroke="midnightblue" points="242.682,-109.53 235.036,-116.864 245.587,-115.899 242.682,-109.53"/>
</g>
<!-- Node14&#45;&gt;Node4 -->
<g id="edge24" class="edge"><title>Node14&#45;&gt;Node4</title>
<path fill="none" stroke="midnightblue" d="M71.5495,-113.574C112.896,-98.9925 184.399,-74.6905 247,-58 310.351,-41.1096 385.38,-26.4199 428.851,-18.4212"/>
<polygon fill="midnightblue" stroke="midnightblue" points="70.2156,-110.333 61.9592,-116.973 72.5539,-116.931 70.2156,-110.333"/>
</g>
<!-- Node15&#45;&gt;Node2 -->
<g id="edge26" class="edge"><title>Node15&#45;&gt;Node2</title>
<path fill="none" stroke="midnightblue" d="M494.767,-229.107C468.779,-218.711 432.876,-204.351 409.795,-195.118"/>
<polygon fill="midnightblue" stroke="midnightblue" points="493.61,-232.414 504.195,-232.878 496.21,-225.914 493.61,-232.414"/>
</g>
<!-- Node15&#45;&gt;Node3 -->
<g id="edge27" class="edge"><title>Node15&#45;&gt;Node3</title>
<path fill="none" stroke="midnightblue" d="M560.668,-228.23C574.202,-220.822 588.383,-210.233 596,-196 606.683,-176.038 589.984,-150.53 579.127,-137.143"/>
<polygon fill="midnightblue" stroke="midnightblue" points="558.845,-225.229 551.49,-232.855 561.995,-231.48 558.845,-225.229"/>
</g>
<!-- Node15&#45;&gt;Node5 -->
<g id="edge43" class="edge"><title>Node15&#45;&gt;Node5</title>
<path fill="none" stroke="midnightblue" d="M577.287,-238.957C639.977,-232.102 744.422,-209.883 790,-138 817.189,-95.1187 728.469,-78.4903 680.167,-72.7236"/>
<polygon fill="midnightblue" stroke="midnightblue" points="576.824,-235.485 567.223,-239.964 577.522,-242.451 576.824,-235.485"/>
</g>
<!-- Node15&#45;&gt;Node6 -->
<g id="edge50" class="edge"><title>Node15&#45;&gt;Node6</title>
<path fill="none" stroke="midnightblue" d="M577.276,-239.841C625.328,-235.989 698.595,-225.339 755,-196 816.429,-164.048 833.475,-144.366 859,-80 866.887,-60.1103 867.638,-34.5723 867.389,-21.1621"/>
<polygon fill="midnightblue" stroke="midnightblue" points="576.841,-236.364 567.123,-240.584 577.351,-243.345 576.841,-236.364"/>
</g>
<!-- Node15&#45;&gt;Node7 -->
<g id="edge41" class="edge"><title>Node15&#45;&gt;Node7</title>
<path fill="none" stroke="midnightblue" d="M476.559,-236.156C425.671,-229.457 345.227,-216.652 278,-196 226.034,-180.036 168.229,-151.633 140.163,-137.106"/>
<polygon fill="midnightblue" stroke="midnightblue" points="476.277,-239.649 486.642,-237.455 477.171,-232.706 476.277,-239.649"/>
</g>
<!-- Node15&#45;&gt;Node8 -->
<g id="edge42" class="edge"><title>Node15&#45;&gt;Node8</title>
<path fill="none" stroke="midnightblue" d="M476.754,-239.911C437.171,-235.953 382.439,-225.11 344,-196 323.82,-180.718 312.376,-151.746 307.627,-137.044"/>
<polygon fill="midnightblue" stroke="midnightblue" points="476.455,-243.398 486.726,-240.795 477.074,-236.425 476.455,-243.398"/>
</g>
<!-- Node15&#45;&gt;Node9 -->
<g id="edge44" class="edge"><title>Node15&#45;&gt;Node9</title>
<path fill="none" stroke="midnightblue" d="M511.703,-224.904C489.788,-200.41 450.224,-156.191 433.177,-137.139"/>
<polygon fill="midnightblue" stroke="midnightblue" points="509.377,-227.552 518.653,-232.671 514.593,-222.885 509.377,-227.552"/>
</g>
<!-- Node15&#45;&gt;Node10 -->
<g id="edge45" class="edge"><title>Node15&#45;&gt;Node10</title>
<path fill="none" stroke="midnightblue" d="M559.643,-229.069C580.854,-220.367 608.934,-208.277 633,-196 670.397,-176.923 712.4,-150.829 733.801,-137.177"/>
<polygon fill="midnightblue" stroke="midnightblue" points="558.073,-225.93 550.126,-232.936 560.708,-232.415 558.073,-225.93"/>
</g>
<!-- Node15&#45;&gt;Node11 -->
<g id="edge46" class="edge"><title>Node15&#45;&gt;Node11</title>
<path fill="none" stroke="midnightblue" d="M516.628,-223.887C512.475,-215.655 508.166,-205.62 506,-196 501.383,-175.497 502.703,-150.631 503.936,-137.381"/>
<polygon fill="midnightblue" stroke="midnightblue" points="513.647,-225.734 521.463,-232.887 519.814,-222.421 513.647,-225.734"/>
</g>
<!-- Node15&#45;&gt;Node12 -->
<g id="edge47" class="edge"><title>Node15&#45;&gt;Node12</title>
<path fill="none" stroke="midnightblue" d="M564.478,-229.004C581.031,-221.601 599.523,-210.799 612,-196 626.62,-178.659 632.077,-151.605 634.01,-137.414"/>
<polygon fill="midnightblue" stroke="midnightblue" points="562.883,-225.877 555.016,-232.974 565.592,-232.332 562.883,-225.877"/>
</g>
<!-- Node15&#45;&gt;Node13 -->
<g id="edge48" class="edge"><title>Node15&#45;&gt;Node13</title>
<path fill="none" stroke="midnightblue" d="M476.76,-235.675C434.329,-229.182 372.574,-216.992 322,-196 284.392,-180.39 245.26,-151.83 226.447,-137.188"/>
<polygon fill="midnightblue" stroke="midnightblue" points="476.44,-239.166 486.845,-237.167 477.465,-232.241 476.44,-239.166"/>
</g>
<!-- Node15&#45;&gt;Node14 -->
<g id="edge49" class="edge"><title>Node15&#45;&gt;Node14</title>
<path fill="none" stroke="midnightblue" d="M476.716,-237.811C415.022,-231.92 307.585,-219.217 218,-196 157.723,-180.379 89.7647,-151.692 56.9062,-137.077"/>
<polygon fill="midnightblue" stroke="midnightblue" points="476.67,-241.322 486.952,-238.765 477.32,-234.352 476.67,-241.322"/>
</g>
<!-- Node16 -->
<g id="node16" class="node"><title>Node16</title>
<g id="a_node16"><a xlink:href="FileHandle_8h.html" target="_top" xlink:title="Handle read/write of Model data from/to files. ">
<polygon fill="none" stroke="black" points="514.929,-175 514.929,-195 587.071,-195 587.071,-175 514.929,-175"/>
<text text-anchor="middle" x="551" y="-181" font-family="Helvetica,sans-Serif" font-size="10.00">FileHandle.h</text>
</a>
</g>
</g>
<!-- Node15&#45;&gt;Node16 -->
<g id="edge28" class="edge"><title>Node15&#45;&gt;Node16</title>
<path fill="none" stroke="midnightblue" d="M535.008,-223.315C539.081,-213.81 543.848,-202.688 547.111,-195.075"/>
<polygon fill="midnightblue" stroke="midnightblue" points="531.685,-222.183 530.963,-232.753 538.119,-224.94 531.685,-222.183"/>
</g>
<!-- Node16&#45;&gt;Node3 -->
<g id="edge29" class="edge"><title>Node16&#45;&gt;Node3</title>
<path fill="none" stroke="midnightblue" d="M557.673,-165.315C561.068,-155.81 565.04,-144.688 567.759,-137.075"/>
<polygon fill="midnightblue" stroke="midnightblue" points="554.37,-164.158 554.303,-174.753 560.962,-166.513 554.37,-164.158"/>
</g>
<!-- Node16&#45;&gt;Node5 -->
<g id="edge32" class="edge"><title>Node16&#45;&gt;Node5</title>
<path fill="none" stroke="midnightblue" d="M597.385,-178.189C622.473,-172.418 651.434,-160.918 667,-138 679.402,-119.741 666.083,-93.0744 657.347,-79.1837"/>
<polygon fill="midnightblue" stroke="midnightblue" points="596.372,-174.823 587.28,-180.262 597.78,-181.68 596.372,-174.823"/>
</g>
<!-- Node16&#45;&gt;Node6 -->
<g id="edge40" class="edge"><title>Node16&#45;&gt;Node6</title>
<path fill="none" stroke="midnightblue" d="M597.17,-179.571C657.589,-173.03 759.389,-159.222 790,-138 833.401,-107.911 856.813,-44.6588 864.302,-21.0986"/>
<polygon fill="midnightblue" stroke="midnightblue" points="596.698,-176.102 587.121,-180.634 597.434,-183.063 596.698,-176.102"/>
</g>
<!-- Node16&#45;&gt;Node7 -->
<g id="edge30" class="edge"><title>Node16&#45;&gt;Node7</title>
<path fill="none" stroke="midnightblue" d="M504.562,-180.523C431.314,-174.588 284.659,-160.872 162,-138 159.114,-137.462 156.125,-136.831 153.145,-136.153"/>
<polygon fill="midnightblue" stroke="midnightblue" points="504.579,-184.036 514.825,-181.343 505.136,-177.058 504.579,-184.036"/>
</g>
<!-- Node16&#45;&gt;Node8 -->
<g id="edge31" class="edge"><title>Node16&#45;&gt;Node8</title>
<path fill="none" stroke="midnightblue" d="M504.688,-173.457C454.151,-161.953 374.876,-143.907 333.032,-134.381"/>
<polygon fill="midnightblue" stroke="midnightblue" points="504.174,-176.93 514.702,-175.737 505.728,-170.105 504.174,-176.93"/>
</g>
<!-- Node16&#45;&gt;Node9 -->
<g id="edge33" class="edge"><title>Node16&#45;&gt;Node9</title>
<path fill="none" stroke="midnightblue" d="M521.059,-170.693C497.749,-160.333 466.014,-146.229 445.516,-137.118"/>
<polygon fill="midnightblue" stroke="midnightblue" points="519.916,-174.015 530.475,-174.878 522.759,-167.618 519.916,-174.015"/>
</g>
<!-- Node16&#45;&gt;Node10 -->
<g id="edge34" class="edge"><title>Node16&#45;&gt;Node10</title>
<path fill="none" stroke="midnightblue" d="M593.044,-172.048C629.942,-161.56 682.796,-146.535 716.25,-137.025"/>
<polygon fill="midnightblue" stroke="midnightblue" points="591.752,-168.777 583.09,-174.878 593.666,-175.51 591.752,-168.777"/>
</g>
<!-- Node16&#45;&gt;Node11 -->
<g id="edge35" class="edge"><title>Node16&#45;&gt;Node11</title>
<path fill="none" stroke="midnightblue" d="M536.886,-166.818C528.824,-157.003 519.041,-145.093 512.455,-137.075"/>
<polygon fill="midnightblue" stroke="midnightblue" points="534.352,-169.247 543.404,-174.753 539.761,-164.804 534.352,-169.247"/>
</g>
<!-- Node16&#45;&gt;Node12 -->
<g id="edge36" class="edge"><title>Node16&#45;&gt;Node12</title>
<path fill="none" stroke="midnightblue" d="M573.271,-169.153C588.57,-158.953 608.388,-145.741 621.387,-137.075"/>
<polygon fill="midnightblue" stroke="midnightblue" points="571.25,-166.294 564.871,-174.753 575.133,-172.118 571.25,-166.294"/>
</g>
<!-- Node16&#45;&gt;Node13 -->
<g id="edge37" class="edge"><title>Node16&#45;&gt;Node13</title>
<path fill="none" stroke="midnightblue" d="M504.787,-176.857C448.707,-168.103 351.308,-152.627 268,-138 265.141,-137.498 262.197,-136.971 259.231,-136.432"/>
<polygon fill="midnightblue" stroke="midnightblue" points="504.345,-180.33 514.765,-178.411 505.423,-173.414 504.345,-180.33"/>
</g>
<!-- Node16&#45;&gt;Node14 -->
<g id="edge38" class="edge"><title>Node16&#45;&gt;Node14</title>
<path fill="none" stroke="midnightblue" d="M504.445,-180.08C402.919,-171.423 164.281,-150.455 84,-138 81.0322,-137.54 77.9697,-137.011 74.8978,-136.442"/>
<polygon fill="midnightblue" stroke="midnightblue" points="504.434,-183.592 514.695,-180.952 505.028,-176.617 504.434,-183.592"/>
</g>
<!-- Node16&#45;&gt;Node17 -->
<g id="edge39" class="edge"><title>Node16&#45;&gt;Node17</title>
<path fill="none" stroke="midnightblue" d="M597.334,-177.966C686.072,-166.409 877.727,-141.449 951.357,-131.86"/>
<polygon fill="midnightblue" stroke="midnightblue" points="596.755,-174.512 587.291,-179.274 597.659,-181.453 596.755,-174.512"/>
</g>
<!-- Node18&#45;&gt;Node6 -->
<g id="edge58" class="edge"><title>Node18&#45;&gt;Node6</title>
<path fill="none" stroke="midnightblue" d="M1107.28,-232.119C1191.12,-224.016 1375.12,-246.317 1420,-196 1426.51,-188.703 1425.86,-181.826 1420,-174 1358.97,-92.53 1045.53,-38.2166 919.534,-19.3661"/>
<polygon fill="midnightblue" stroke="midnightblue" points="1106.85,-228.646 1097.33,-233.299 1107.67,-235.597 1106.85,-228.646"/>
</g>
<!-- Node18&#45;&gt;Node16 -->
<g id="edge52" class="edge"><title>Node18&#45;&gt;Node16</title>
<path fill="none" stroke="midnightblue" d="M988.49,-235.295C884.312,-223.556 671.925,-199.625 587.137,-190.072"/>
<polygon fill="midnightblue" stroke="midnightblue" points="988.2,-238.784 998.529,-236.426 988.984,-231.828 988.2,-238.784"/>
</g>
<!-- Node18&#45;&gt;Node17 -->
<g id="edge57" class="edge"><title>Node18&#45;&gt;Node17</title>
<path fill="none" stroke="midnightblue" d="M1036.52,-224.277C1031.1,-215.787 1024.61,-205.435 1019,-196 1006.71,-175.304 993.136,-150.513 986.009,-137.328"/>
<polygon fill="midnightblue" stroke="midnightblue" points="1033.73,-226.405 1042.08,-232.924 1039.62,-222.619 1033.73,-226.405"/>
</g>
<!-- Node19 -->
<g id="node19" class="node"><title>Node19</title>
<g id="a_node19"><a xlink:href="info_8h.html" target="_top" xlink:title="Helper functions for manipulating RMF files. ">
<polygon fill="none" stroke="black" points="1027.77,-175 1027.77,-195 1068.23,-195 1068.23,-175 1027.77,-175"/>
<text text-anchor="middle" x="1048" y="-181" font-family="Helvetica,sans-Serif" font-size="10.00">info.h</text>
</a>
</g>
</g>
<!-- Node18&#45;&gt;Node19 -->
<g id="edge53" class="edge"><title>Node18&#45;&gt;Node19</title>
<path fill="none" stroke="midnightblue" d="M1048,-222.707C1048,-213.338 1048,-202.526 1048,-195.075"/>
<polygon fill="midnightblue" stroke="midnightblue" points="1044.5,-222.753 1048,-232.753 1051.5,-222.753 1044.5,-222.753"/>
</g>
<!-- Node20 -->
<g id="node20" class="node"><title>Node20</title>
<g id="a_node20"><a xlink:href="RestoreCurrentFrame_8h.html" target="_top" xlink:title="Handle read/write of Model data from/to files. ">
<polygon fill="none" stroke="black" points="1086.2,-175 1086.2,-195 1207.8,-195 1207.8,-175 1086.2,-175"/>
<text text-anchor="middle" x="1147" y="-181" font-family="Helvetica,sans-Serif" font-size="10.00">RestoreCurrentFrame.h</text>
</a>
</g>
</g>
<!-- Node18&#45;&gt;Node20 -->
<g id="edge54" class="edge"><title>Node18&#45;&gt;Node20</title>
<path fill="none" stroke="midnightblue" d="M1073.24,-227.722C1091.4,-217.449 1115.35,-203.903 1130.96,-195.075"/>
<polygon fill="midnightblue" stroke="midnightblue" points="1071.33,-224.783 1064.35,-232.753 1074.78,-230.876 1071.33,-224.783"/>
</g>
<!-- Node21 -->
<g id="node21" class="node"><title>Node21</title>
<g id="a_node21"><a xlink:href="SetCurrentFrame_8h.html" target="_top" xlink:title="Handle read/write of Model data from/to files. ">
<polygon fill="none" stroke="black" points="1226.21,-175 1226.21,-195 1327.79,-195 1327.79,-175 1226.21,-175"/>
<text text-anchor="middle" x="1277" y="-181" font-family="Helvetica,sans-Serif" font-size="10.00">SetCurrentFrame.h</text>
</a>
</g>
</g>
<!-- Node18&#45;&gt;Node21 -->
<g id="edge55" class="edge"><title>Node18&#45;&gt;Node21</title>
<path fill="none" stroke="midnightblue" d="M1094.97,-230.514C1137.9,-220.016 1200.53,-204.699 1240.01,-195.047"/>
<polygon fill="midnightblue" stroke="midnightblue" points="1093.93,-227.165 1085.05,-232.94 1095.59,-233.965 1093.93,-227.165"/>
</g>
<!-- Node22 -->
<g id="node22" class="node"><title>Node22</title>
<g id="a_node22"><a xlink:href="signature_8h.html" target="_top" xlink:title="Helper functions for manipulating RMF files. ">
<polygon fill="none" stroke="black" points="1346.26,-175 1346.26,-195 1411.74,-195 1411.74,-175 1346.26,-175"/>
<text text-anchor="middle" x="1379" y="-181" font-family="Helvetica,sans-Serif" font-size="10.00">signature.h</text>
</a>
</g>
</g>
<!-- Node18&#45;&gt;Node22 -->
<g id="edge56" class="edge"><title>Node18&#45;&gt;Node22</title>
<path fill="none" stroke="midnightblue" d="M1107.49,-231.782C1209.81,-215.222 1237.61,-215.115 1336,-196 1339.31,-195.357 1342.75,-194.639 1346.19,-193.892"/>
<polygon fill="midnightblue" stroke="midnightblue" points="1106.66,-228.372 1097.35,-233.438 1107.79,-235.281 1106.66,-228.372"/>
</g>
</g>
</svg>
