<?xml version="1.0" encoding="UTF-8" standalone="no"?>
<!DOCTYPE svg PUBLIC "-//W3C//DTD SVG 1.1//EN"
 "http://www.w3.org/Graphics/SVG/1.1/DTD/svg11.dtd">
<!-- Generated by graphviz version 2.36.0 (20140111.2315)
 -->
<!-- Title: NodeHandle.h Pages: 1 -->
<!--zoomable 252 -->
<svg id="main" version="1.1" xmlns="http://www.w3.org/2000/svg" xmlns:xlink="http://www.w3.org/1999/xlink" xml:space="preserve" onload="init(evt)">
<style type="text/css"><![CDATA[
.edge:hover path { stroke: red; }
.edge:hover polygon { stroke: red; fill: red; }
]]></style>
<script type="text/javascript"><![CDATA[
var edges = document.getElementsByTagName('g');
if (edges && edges.length) {
  for (var i=0;i<edges.length;i++) {
    if (edges[i].id.substr(0,4)=='edge') {
      edges[i].setAttribute('class','edge');
    }
  }
}
]]></script>
        <defs>
                <circle id="rim" cx="0" cy="0" r="7"/>
                <circle id="rim2" cx="0" cy="0" r="3.5"/>
                <g id="zoomPlus">
                        <use xlink:href="#rim" fill="#404040">
                                <set attributeName="fill" to="#808080" begin="zoomplus.mouseover" end="zoomplus.mouseout"/>
                        </use>
                        <path d="M-4,0h8M0,-4v8" fill="none" stroke="white" stroke-width="1.5" pointer-events="none"/>
                </g>
                <g id="zoomMin">
                        <use xlink:href="#rim" fill="#404040">
                                <set attributeName="fill" to="#808080" begin="zoomminus.mouseover" end="zoomminus.mouseout"/>
                        </use>
                        <path d="M-4,0h8" fill="none" stroke="white" stroke-width="1.5" pointer-events="none"/>
                </g>
                <g id="dirArrow">
                        <path fill="none" stroke="white" stroke-width="1.5" d="M0,-3.0v7 M-2.5,-0.5L0,-3.0L2.5,-0.5"/>
                </g>
               <g id="resetDef">
                       <use xlink:href="#rim2" fill="#404040">
                               <set attributeName="fill" to="#808080" begin="reset.mouseover" end="reset.mouseout"/>
                       </use>
               </g>
        </defs>

<script type="text/javascript">
var viewWidth = 973;
var viewHeight = 252;
var sectionId = 'dynsection-1';
</script>
<script xlink:href="svgpan.js"/>
<svg id="graph" class="graph">
<g id="viewport">
<title>NodeHandle.h</title>
<!-- Node1 -->
<g id="node1" class="node"><title>Node1</title>
<polygon fill="#bfbfbf" stroke="black" points="436.032,-225 436.032,-243 515.968,-243 515.968,-225 436.032,-225"/>
<text text-anchor="middle" x="476" y="-231" font-family="Helvetica,sans-Serif" font-size="10.00">NodeHandle.h</text>
</g>
<!-- Node2 -->
<g id="node2" class="node"><title>Node2</title>
<g id="a_node2"><a xlink:href="Decorator_8h.html" target="_top" xlink:title="Mostly empty base classes for decorators and factories. ">
<polygon fill="none" stroke="black" points="411.15,-169 411.15,-187 478.85,-187 478.85,-169 411.15,-169"/>
<text text-anchor="middle" x="445" y="-175" font-family="Helvetica,sans-Serif" font-size="10.00">Decorator.h</text>
</a>
</g>
</g>
<!-- Node1&#45;&gt;Node2 -->
<g id="edge1" class="edge"><title>Node1&#45;&gt;Node2</title>
<path fill="none" stroke="midnightblue" d="M466.149,-215.84C460.651,-206.264 454.056,-194.774 449.708,-187.201"/>
<polygon fill="midnightblue" stroke="midnightblue" points="463.142,-217.633 471.156,-224.562 469.213,-214.147 463.142,-217.633"/>
</g>
<!-- Node3 -->
<g id="node3" class="node"><title>Node3</title>
<g id="a_node3"><a xlink:href="alias_8h.html" target="_top" xlink:title="Helper functions for manipulating RMF files. ">
<polygon fill="none" stroke="black" points="307.547,-113 307.547,-131 352.453,-131 352.453,-113 307.547,-113"/>
<text text-anchor="middle" x="330" y="-119" font-family="Helvetica,sans-Serif" font-size="10.00">alias.h</text>
</a>
</g>
</g>
<!-- Node1&#45;&gt;Node3 -->
<g id="edge29" class="edge"><title>Node1&#45;&gt;Node3</title>
<path fill="none" stroke="midnightblue" d="M447.582,-220.567C430.644,-212.495 409.17,-201.064 392,-188 369.164,-170.625 347.125,-144.647 336.535,-131.409"/>
<polygon fill="midnightblue" stroke="midnightblue" points="446.419,-223.886 456.964,-224.919 449.365,-217.536 446.419,-223.886"/>
</g>
<!-- Node5 -->
<g id="node5" class="node"><title>Node5</title>
<g id="a_node5"><a xlink:href="physics_8h.html" target="_top" xlink:title="Helper functions for manipulating RMF files. ">
<polygon fill="none" stroke="black" points="734.158,-57 734.158,-75 791.842,-75 791.842,-57 734.158,-57"/>
<text text-anchor="middle" x="763" y="-63" font-family="Helvetica,sans-Serif" font-size="10.00">physics.h</text>
</a>
</g>
</g>
<!-- Node1&#45;&gt;Node5 -->
<g id="edge45" class="edge"><title>Node1&#45;&gt;Node5</title>
<path fill="none" stroke="midnightblue" d="M526.178,-227.644C622.117,-216.251 825.728,-186.128 867,-132 890.044,-101.777 830.39,-82.0993 792.159,-72.9549"/>
<polygon fill="midnightblue" stroke="midnightblue" points="525.66,-224.181 516.133,-228.815 526.471,-231.134 525.66,-224.181"/>
</g>
<!-- Node7 -->
<g id="node7" class="node"><title>Node7</title>
<g id="a_node7"><a xlink:href="benchmark__rmf_8cpp_source.html" target="_top" xlink:title="benchmark_rmf.cpp">
<polygon fill="none" stroke="black" points="860.815,-1 860.815,-19 965.185,-19 965.185,-1 860.815,-1"/>
<text text-anchor="middle" x="913" y="-7" font-family="Helvetica,sans-Serif" font-size="10.00">benchmark_rmf.cpp</text>
</a>
</g>
</g>
<!-- Node1&#45;&gt;Node7 -->
<g id="edge55" class="edge"><title>Node1&#45;&gt;Node7</title>
<path fill="none" stroke="midnightblue" d="M526.455,-230.298C611.689,-225.134 780.169,-212.165 834,-188 893.287,-161.386 912.18,-139.031 928,-76 933.131,-55.5561 923.385,-31.3278 917.322,-19.029"/>
<polygon fill="midnightblue" stroke="midnightblue" points="526.014,-226.818 516.238,-230.904 526.428,-233.806 526.014,-226.818"/>
</g>
<!-- Node8 -->
<g id="node8" class="node"><title>Node8</title>
<g id="a_node8"><a xlink:href="external_8h.html" target="_top" xlink:title="Helper functions for manipulating RMF files. ">
<polygon fill="none" stroke="black" points="370.042,-113 370.042,-131 429.958,-131 429.958,-113 370.042,-113"/>
<text text-anchor="middle" x="400" y="-119" font-family="Helvetica,sans-Serif" font-size="10.00">external.h</text>
</a>
</g>
</g>
<!-- Node1&#45;&gt;Node8 -->
<g id="edge43" class="edge"><title>Node1&#45;&gt;Node8</title>
<path fill="none" stroke="midnightblue" d="M441.245,-220.652C426.48,-213.51 410.694,-202.92 402,-188 391.541,-170.051 395.084,-144.325 397.904,-131.273"/>
<polygon fill="midnightblue" stroke="midnightblue" points="440.156,-223.998 450.716,-224.858 442.998,-217.6 440.156,-223.998"/>
</g>
<!-- Node9 -->
<g id="node9" class="node"><title>Node9</title>
<g id="a_node9"><a xlink:href="feature_8h.html" target="_top" xlink:title="Helper functions for manipulating RMF files. ">
<polygon fill="none" stroke="black" points="524.264,-113 524.264,-131 579.736,-131 579.736,-113 524.264,-113"/>
<text text-anchor="middle" x="552" y="-119" font-family="Helvetica,sans-Serif" font-size="10.00">feature.h</text>
</a>
</g>
</g>
<!-- Node1&#45;&gt;Node9 -->
<g id="edge44" class="edge"><title>Node1&#45;&gt;Node9</title>
<path fill="none" stroke="midnightblue" d="M487.539,-216.299C504.124,-192.294 534.065,-148.959 546.428,-131.065"/>
<polygon fill="midnightblue" stroke="midnightblue" points="484.517,-214.515 481.712,-224.732 490.276,-218.494 484.517,-214.515"/>
</g>
<!-- Node10 -->
<g id="node10" class="node"><title>Node10</title>
<g id="a_node10"><a xlink:href="publication_8h.html" target="_top" xlink:title="Helper functions for manipulating RMF files. ">
<polygon fill="none" stroke="black" points="46.9238,-113 46.9238,-131 119.076,-131 119.076,-113 46.9238,-113"/>
<text text-anchor="middle" x="83" y="-119" font-family="Helvetica,sans-Serif" font-size="10.00">publication.h</text>
</a>
</g>
</g>
<!-- Node1&#45;&gt;Node10 -->
<g id="edge46" class="edge"><title>Node1&#45;&gt;Node10</title>
<path fill="none" stroke="midnightblue" d="M426.054,-223.732C384.294,-215.58 323.329,-202.735 271,-188 209.17,-170.589 137.943,-144.166 103.613,-131.017"/>
<polygon fill="midnightblue" stroke="midnightblue" points="425.493,-227.189 435.976,-225.652 426.823,-220.316 425.493,-227.189"/>
</g>
<!-- Node11 -->
<g id="node11" class="node"><title>Node11</title>
<g id="a_node11"><a xlink:href="sequence_8h.html" target="_top" xlink:title="Helper functions for manipulating RMF files. ">
<polygon fill="none" stroke="black" points="831.146,-57 831.146,-75 898.854,-75 898.854,-57 831.146,-57"/>
<text text-anchor="middle" x="865" y="-63" font-family="Helvetica,sans-Serif" font-size="10.00">sequence.h</text>
</a>
</g>
</g>
<!-- Node1&#45;&gt;Node11 -->
<g id="edge47" class="edge"><title>Node1&#45;&gt;Node11</title>
<path fill="none" stroke="midnightblue" d="M526.26,-232.226C590.102,-229.825 702.815,-220.798 793,-188 837.274,-171.899 860.121,-173.183 883,-132 893.463,-113.166 879.587,-87.8268 870.954,-75.0633"/>
<polygon fill="midnightblue" stroke="midnightblue" points="525.941,-228.735 516.064,-232.568 526.176,-235.731 525.941,-228.735"/>
</g>
<!-- Node12 -->
<g id="node12" class="node"><title>Node12</title>
<g id="a_node12"><a xlink:href="shape_8h.html" target="_top" xlink:title="Helper functions for manipulating RMF files. ">
<polygon fill="none" stroke="black" points="598.207,-113 598.207,-131 649.793,-131 649.793,-113 598.207,-113"/>
<text text-anchor="middle" x="624" y="-119" font-family="Helvetica,sans-Serif" font-size="10.00">shape.h</text>
</a>
</g>
</g>
<!-- Node1&#45;&gt;Node12 -->
<g id="edge48" class="edge"><title>Node1&#45;&gt;Node12</title>
<path fill="none" stroke="midnightblue" d="M526.316,-230.027C556.932,-225.432 594.216,-214.334 616,-188 629.48,-171.705 627.595,-144.776 625.556,-131.267"/>
<polygon fill="midnightblue" stroke="midnightblue" points="525.681,-226.58 516.22,-231.349 526.59,-233.521 525.681,-226.58"/>
</g>
<!-- Node13 -->
<g id="node13" class="node"><title>Node13</title>
<g id="a_node13"><a xlink:href="bond_8h.html" target="_top" xlink:title="Helper functions for manipulating RMF files. ">
<polygon fill="none" stroke="black" points="136.707,-113 136.707,-131 183.293,-131 183.293,-113 136.707,-113"/>
<text text-anchor="middle" x="160" y="-119" font-family="Helvetica,sans-Serif" font-size="10.00">bond.h</text>
</a>
</g>
</g>
<!-- Node1&#45;&gt;Node13 -->
<g id="edge49" class="edge"><title>Node1&#45;&gt;Node13</title>
<path fill="none" stroke="midnightblue" d="M436.376,-222.195C405.745,-213.601 362.401,-200.913 325,-188 271.451,-169.511 209.64,-144.021 179.106,-131.145"/>
<polygon fill="midnightblue" stroke="midnightblue" points="435.676,-225.633 446.249,-224.946 437.556,-218.89 435.676,-225.633"/>
</g>
<!-- Node14 -->
<g id="node14" class="node"><title>Node14</title>
<g id="a_node14"><a xlink:href="representation_8h.html" target="_top" xlink:title="Helper functions for manipulating RMF files. ">
<polygon fill="none" stroke="black" points="200.865,-113 200.865,-131 289.135,-131 289.135,-113 200.865,-113"/>
<text text-anchor="middle" x="245" y="-119" font-family="Helvetica,sans-Serif" font-size="10.00">representation.h</text>
</a>
</g>
</g>
<!-- Node1&#45;&gt;Node14 -->
<g id="edge50" class="edge"><title>Node1&#45;&gt;Node14</title>
<path fill="none" stroke="midnightblue" d="M444.623,-221.173C422.41,-212.557 392.056,-200.287 366,-188 326.314,-169.286 281.168,-143.894 258.912,-131.092"/>
<polygon fill="midnightblue" stroke="midnightblue" points="443.622,-224.538 454.212,-224.862 446.135,-218.005 443.622,-224.538"/>
</g>
<!-- Node15 -->
<g id="node15" class="node"><title>Node15</title>
<g id="a_node15"><a xlink:href="alternatives_8h.html" target="_top" xlink:title="Helper functions for manipulating RMF files. ">
<polygon fill="none" stroke="black" points="668.261,-113 668.261,-131 743.739,-131 743.739,-113 668.261,-113"/>
<text text-anchor="middle" x="706" y="-119" font-family="Helvetica,sans-Serif" font-size="10.00">alternatives.h</text>
</a>
</g>
</g>
<!-- Node1&#45;&gt;Node15 -->
<g id="edge51" class="edge"><title>Node1&#45;&gt;Node15</title>
<path fill="none" stroke="midnightblue" d="M526.385,-224.968C558.868,-218.324 601.197,-206.844 635,-188 662.442,-172.702 687.869,-144.818 699.441,-131.084"/>
<polygon fill="midnightblue" stroke="midnightblue" points="525.35,-221.604 516.208,-226.958 526.694,-228.474 525.35,-221.604"/>
</g>
<!-- Node16 -->
<g id="node16" class="node"><title>Node16</title>
<g id="a_node16"><a xlink:href="FileHandle_8h.html" target="_top" xlink:title="Declaration for RMF::FileHandle. ">
<polygon fill="none" stroke="black" points="534.929,-169 534.929,-187 607.071,-187 607.071,-169 534.929,-169"/>
<text text-anchor="middle" x="571" y="-175" font-family="Helvetica,sans-Serif" font-size="10.00">FileHandle.h</text>
</a>
</g>
</g>
<!-- Node1&#45;&gt;Node16 -->
<g id="edge30" class="edge"><title>Node1&#45;&gt;Node16</title>
<path fill="none" stroke="midnightblue" d="M499.172,-219.829C517.159,-209.604 541.523,-195.755 556.747,-187.102"/>
<polygon fill="midnightblue" stroke="midnightblue" points="497.393,-216.814 490.428,-224.799 500.852,-222.9 497.393,-216.814"/>
</g>
<!-- Node18 -->
<g id="node18" class="node"><title>Node18</title>
<g id="a_node18"><a xlink:href="Label_8h.html" target="_top" xlink:title="Declaration of RMF::Label. ">
<polygon fill="none" stroke="black" points="20.5962,-169 20.5962,-187 69.4038,-187 69.4038,-169 20.5962,-169"/>
<text text-anchor="middle" x="45" y="-175" font-family="Helvetica,sans-Serif" font-size="10.00">Label.h</text>
</a>
</g>
</g>
<!-- Node1&#45;&gt;Node18 -->
<g id="edge52" class="edge"><title>Node1&#45;&gt;Node18</title>
<path fill="none" stroke="midnightblue" d="M425.955,-227.205C355.117,-218.929 221.573,-203.055 108,-188 95.2948,-186.316 81.1684,-184.31 69.5174,-182.62"/>
<polygon fill="midnightblue" stroke="midnightblue" points="425.604,-230.688 435.942,-228.37 426.415,-223.735 425.604,-230.688"/>
</g>
<!-- Node2&#45;&gt;Node3 -->
<g id="edge2" class="edge"><title>Node2&#45;&gt;Node3</title>
<path fill="none" stroke="midnightblue" d="M418.436,-164.526C396.534,-154.242 366.105,-139.954 347.254,-131.102"/>
<polygon fill="midnightblue" stroke="midnightblue" points="416.995,-167.716 427.534,-168.799 419.97,-161.38 416.995,-167.716"/>
</g>
<!-- Node2&#45;&gt;Node5 -->
<g id="edge12" class="edge"><title>Node2&#45;&gt;Node5</title>
<path fill="none" stroke="midnightblue" d="M450.404,-158.886C455.87,-143.853 465.855,-123.19 482,-112 522.506,-83.9272 670.532,-72.2798 733.898,-68.506"/>
<polygon fill="midnightblue" stroke="midnightblue" points="447.001,-158.028 447.198,-168.621 453.65,-160.218 447.001,-158.028"/>
</g>
<!-- Node2&#45;&gt;Node8 -->
<g id="edge8" class="edge"><title>Node2&#45;&gt;Node8</title>
<path fill="none" stroke="midnightblue" d="M431.443,-160.732C423.321,-150.986 413.342,-139.011 406.835,-131.201"/>
<polygon fill="midnightblue" stroke="midnightblue" points="428.878,-163.121 437.969,-168.562 434.256,-158.64 428.878,-163.121"/>
</g>
<!-- Node2&#45;&gt;Node9 -->
<g id="edge10" class="edge"><title>Node2&#45;&gt;Node9</title>
<path fill="none" stroke="midnightblue" d="M470.266,-164.249C490.601,-153.986 518.564,-139.874 535.947,-131.102"/>
<polygon fill="midnightblue" stroke="midnightblue" points="468.602,-161.168 461.251,-168.799 471.755,-167.418 468.602,-161.168"/>
</g>
<!-- Node2&#45;&gt;Node10 -->
<g id="edge13" class="edge"><title>Node2&#45;&gt;Node10</title>
<path fill="none" stroke="midnightblue" d="M401.031,-171.555C339.714,-163.78 225.118,-148.591 128,-132 125.173,-131.517 122.251,-130.992 119.317,-130.446"/>
<polygon fill="midnightblue" stroke="midnightblue" points="400.764,-175.049 411.124,-172.828 401.641,-168.104 400.764,-175.049"/>
</g>
<!-- Node2&#45;&gt;Node11 -->
<g id="edge15" class="edge"><title>Node2&#45;&gt;Node11</title>
<path fill="none" stroke="midnightblue" d="M457.285,-160.833C469.938,-145.483 491.135,-123.148 515,-112 630.674,-57.9641 673.431,-92.7557 800,-76 810.052,-74.6693 820.97,-73.1761 830.938,-71.7942"/>
<polygon fill="midnightblue" stroke="midnightblue" points="454.338,-158.916 450.866,-168.926 459.823,-163.266 454.338,-158.916"/>
</g>
<!-- Node2&#45;&gt;Node12 -->
<g id="edge19" class="edge"><title>Node2&#45;&gt;Node12</title>
<path fill="none" stroke="midnightblue" d="M481.555,-165.972C516.26,-155.503 567.547,-140.03 598.182,-130.789"/>
<polygon fill="midnightblue" stroke="midnightblue" points="480.361,-162.677 471.798,-168.916 482.383,-169.378 480.361,-162.677"/>
</g>
<!-- Node2&#45;&gt;Node13 -->
<g id="edge22" class="edge"><title>Node2&#45;&gt;Node13</title>
<path fill="none" stroke="midnightblue" d="M400.854,-170.494C350.156,-162.712 264.622,-148.629 192,-132 189.187,-131.356 186.253,-130.62 183.351,-129.853"/>
<polygon fill="midnightblue" stroke="midnightblue" points="400.408,-173.966 410.821,-172.012 401.462,-167.046 400.408,-173.966"/>
</g>
<!-- Node2&#45;&gt;Node14 -->
<g id="edge24" class="edge"><title>Node2&#45;&gt;Node14</title>
<path fill="none" stroke="midnightblue" d="M405.24,-166.265C366.816,-155.89 309.478,-140.409 274.82,-131.051"/>
<polygon fill="midnightblue" stroke="midnightblue" points="404.491,-169.688 415.058,-168.916 406.316,-162.93 404.491,-169.688"/>
</g>
<!-- Node2&#45;&gt;Node15 -->
<g id="edge26" class="edge"><title>Node2&#45;&gt;Node15</title>
<path fill="none" stroke="midnightblue" d="M488.756,-167.947C538.923,-157.568 620.348,-140.721 667.975,-130.867"/>
<polygon fill="midnightblue" stroke="midnightblue" points="487.937,-164.542 478.854,-169.996 489.355,-171.397 487.937,-164.542"/>
</g>
<!-- Node4 -->
<g id="node4" class="node"><title>Node4</title>
<g id="a_node4"><a xlink:href="decorators_8h.html" target="_top" xlink:title="Import all the decorators headers. ">
<polygon fill="none" stroke="black" points="364.207,-1 364.207,-19 435.793,-19 435.793,-1 364.207,-1"/>
<text text-anchor="middle" x="400" y="-7" font-family="Helvetica,sans-Serif" font-size="10.00">decorators.h</text>
</a>
</g>
</g>
<!-- Node3&#45;&gt;Node4 -->
<g id="edge3" class="edge"><title>Node3&#45;&gt;Node4</title>
<path fill="none" stroke="midnightblue" d="M340.831,-103.979C356.148,-79.9106 383.531,-36.8797 394.868,-19.0649"/>
<polygon fill="midnightblue" stroke="midnightblue" points="337.677,-102.416 335.261,-112.732 343.583,-106.175 337.677,-102.416"/>
</g>
<!-- Node3&#45;&gt;Node5 -->
<g id="edge4" class="edge"><title>Node3&#45;&gt;Node5</title>
<path fill="none" stroke="midnightblue" d="M362.48,-111.998C506.595,-83.9035 668.955,-72.3583 733.979,-68.5417"/>
<polygon fill="midnightblue" stroke="midnightblue" points="361.705,-108.584 352.576,-113.961 363.066,-115.45 361.705,-108.584"/>
</g>
<!-- Node5&#45;&gt;Node4 -->
<g id="edge5" class="edge"><title>Node5&#45;&gt;Node4</title>
<path fill="none" stroke="midnightblue" d="M723.605,-59.1396C652.592,-48.5757 504.165,-26.4957 435.835,-16.3308"/>
<polygon fill="midnightblue" stroke="midnightblue" points="723.502,-62.6626 733.908,-60.6722 724.532,-55.7388 723.502,-62.6626"/>
</g>
<!-- Node6 -->
<g id="node6" class="node"><title>Node6</title>
<g id="a_node6"><a xlink:href="TraverseHelper_8h.html" target="_top" xlink:title="A helper function for managing data when traversing an RMF. ">
<polygon fill="none" stroke="black" points="687.831,-1 687.831,-19 780.169,-19 780.169,-1 687.831,-1"/>
<text text-anchor="middle" x="734" y="-7" font-family="Helvetica,sans-Serif" font-size="10.00">TraverseHelper.h</text>
</a>
</g>
</g>
<!-- Node5&#45;&gt;Node6 -->
<g id="edge6" class="edge"><title>Node5&#45;&gt;Node6</title>
<path fill="none" stroke="midnightblue" d="M753.623,-47.54C748.513,-38.0247 742.429,-26.6953 738.404,-19.2014"/>
<polygon fill="midnightblue" stroke="midnightblue" points="750.654,-49.4085 758.469,-56.5625 756.821,-46.0966 750.654,-49.4085"/>
</g>
<!-- Node5&#45;&gt;Node7 -->
<g id="edge7" class="edge"><title>Node5&#45;&gt;Node7</title>
<path fill="none" stroke="midnightblue" d="M795.025,-53.4709C823.702,-43.1473 865.03,-28.2693 890.39,-19.1396"/>
<polygon fill="midnightblue" stroke="midnightblue" points="793.68,-50.2353 785.457,-56.9157 796.051,-56.8215 793.68,-50.2353"/>
</g>
<!-- Node8&#45;&gt;Node4 -->
<g id="edge9" class="edge"><title>Node8&#45;&gt;Node4</title>
<path fill="none" stroke="midnightblue" d="M400,-102.678C400,-78.3886 400,-36.563 400,-19.0649"/>
<polygon fill="midnightblue" stroke="midnightblue" points="396.5,-102.732 400,-112.732 403.5,-102.732 396.5,-102.732"/>
</g>
<!-- Node9&#45;&gt;Node4 -->
<g id="edge11" class="edge"><title>Node9&#45;&gt;Node4</title>
<path fill="none" stroke="midnightblue" d="M532.342,-106.774C500.035,-83.3935 436.746,-37.5923 411.144,-19.0649"/>
<polygon fill="midnightblue" stroke="midnightblue" points="530.422,-109.705 540.575,-112.732 534.526,-104.034 530.422,-109.705"/>
</g>
<!-- Node10&#45;&gt;Node4 -->
<g id="edge14" class="edge"><title>Node10&#45;&gt;Node4</title>
<path fill="none" stroke="midnightblue" d="M112.345,-109.291C146.427,-95.8372 204.444,-73.3798 255,-56 295.505,-42.0753 343.012,-27.6967 372.311,-19.0511"/>
<polygon fill="midnightblue" stroke="midnightblue" points="110.991,-106.063 102.982,-112.999 113.568,-112.571 110.991,-106.063"/>
</g>
<!-- Node11&#45;&gt;Node4 -->
<g id="edge16" class="edge"><title>Node11&#45;&gt;Node4</title>
<path fill="none" stroke="midnightblue" d="M820.894,-58.7381C813.907,-57.7909 806.759,-56.848 800,-56 665.829,-39.1669 505.958,-22.0712 435.892,-14.727"/>
<polygon fill="midnightblue" stroke="midnightblue" points="820.567,-62.226 830.95,-60.1184 821.519,-55.291 820.567,-62.226"/>
</g>
<!-- Node11&#45;&gt;Node6 -->
<g id="edge17" class="edge"><title>Node11&#45;&gt;Node6</title>
<path fill="none" stroke="midnightblue" d="M836.041,-53.0628C811.044,-42.7585 775.604,-28.1497 753.746,-19.1396"/>
<polygon fill="midnightblue" stroke="midnightblue" points="834.809,-56.3404 845.388,-56.9157 837.477,-49.8687 834.809,-56.3404"/>
</g>
<!-- Node11&#45;&gt;Node7 -->
<g id="edge18" class="edge"><title>Node11&#45;&gt;Node7</title>
<path fill="none" stroke="midnightblue" d="M879.199,-49.0265C887.909,-39.2278 898.698,-27.0897 905.71,-19.2014"/>
<polygon fill="midnightblue" stroke="midnightblue" points="876.528,-46.7631 872.5,-56.5625 881.76,-51.4137 876.528,-46.7631"/>
</g>
<!-- Node12&#45;&gt;Node4 -->
<g id="edge20" class="edge"><title>Node12&#45;&gt;Node4</title>
<path fill="none" stroke="midnightblue" d="M598.432,-108.445C552.034,-85.6594 455.193,-38.1038 416.495,-19.1004"/>
<polygon fill="midnightblue" stroke="midnightblue" points="597.01,-111.645 607.529,-112.911 600.095,-105.362 597.01,-111.645"/>
</g>
<!-- Node12&#45;&gt;Node6 -->
<g id="edge21" class="edge"><title>Node12&#45;&gt;Node6</title>
<path fill="none" stroke="midnightblue" d="M639.445,-105.555C663.164,-81.8356 707.724,-37.2756 725.935,-19.0649"/>
<polygon fill="midnightblue" stroke="midnightblue" points="636.864,-103.186 632.268,-112.732 641.814,-108.136 636.864,-103.186"/>
</g>
<!-- Node13&#45;&gt;Node4 -->
<g id="edge23" class="edge"><title>Node13&#45;&gt;Node4</title>
<path fill="none" stroke="midnightblue" d="M186.773,-108.729C236.237,-86.0578 340.691,-38.1833 382.326,-19.1004"/>
<polygon fill="midnightblue" stroke="midnightblue" points="185.28,-105.563 177.648,-112.911 188.197,-111.927 185.28,-105.563"/>
</g>
<!-- Node14&#45;&gt;Node4 -->
<g id="edge25" class="edge"><title>Node14&#45;&gt;Node4</title>
<path fill="none" stroke="midnightblue" d="M264.752,-106.982C297.584,-83.6821 362.368,-37.7062 388.586,-19.1004"/>
<polygon fill="midnightblue" stroke="midnightblue" points="262.527,-104.27 256.398,-112.911 266.578,-109.978 262.527,-104.27"/>
</g>
<!-- Node15&#45;&gt;Node4 -->
<g id="edge27" class="edge"><title>Node15&#45;&gt;Node4</title>
<path fill="none" stroke="midnightblue" d="M674.381,-109.544C638.444,-96.5323 578.02,-74.6818 526,-56 489.929,-43.046 448.013,-28.0966 422.771,-19.1053"/>
<polygon fill="midnightblue" stroke="midnightblue" points="673.246,-112.855 683.84,-112.97 675.63,-106.274 673.246,-112.855"/>
</g>
<!-- Node15&#45;&gt;Node6 -->
<g id="edge28" class="edge"><title>Node15&#45;&gt;Node6</title>
<path fill="none" stroke="midnightblue" d="M710.58,-103.006C716.75,-78.7676 727.473,-36.6422 731.947,-19.0649"/>
<polygon fill="midnightblue" stroke="midnightblue" points="707.18,-102.178 708.105,-112.732 713.963,-103.905 707.18,-102.178"/>
</g>
<!-- Node16&#45;&gt;Node3 -->
<g id="edge31" class="edge"><title>Node16&#45;&gt;Node3</title>
<path fill="none" stroke="midnightblue" d="M524.956,-168.118C482.262,-159.65 417.066,-146.127 361,-132 358.283,-131.315 355.445,-130.555 352.636,-129.774"/>
<polygon fill="midnightblue" stroke="midnightblue" points="524.285,-171.554 534.774,-170.055 525.64,-164.686 524.285,-171.554"/>
</g>
<!-- Node16&#45;&gt;Node5 -->
<g id="edge34" class="edge"><title>Node16&#45;&gt;Node5</title>
<path fill="none" stroke="midnightblue" d="M617.361,-171.284C664.772,-164.461 733.956,-151.471 752,-132 766.47,-116.386 765.72,-89.148 764.228,-75.4197"/>
<polygon fill="midnightblue" stroke="midnightblue" points="616.726,-167.838 607.306,-172.686 617.693,-174.771 616.726,-167.838"/>
</g>
<!-- Node16&#45;&gt;Node7 -->
<g id="edge42" class="edge"><title>Node16&#45;&gt;Node7</title>
<path fill="none" stroke="midnightblue" d="M617.599,-175.85C694.472,-173.063 843.416,-163.623 884,-132 919.442,-104.383 916.435,-41.7646 914.062,-19.2537"/>
<polygon fill="midnightblue" stroke="midnightblue" points="617.124,-172.364 607.248,-176.201 617.361,-179.36 617.124,-172.364"/>
</g>
<!-- Node16&#45;&gt;Node8 -->
<g id="edge32" class="edge"><title>Node16&#45;&gt;Node8</title>
<path fill="none" stroke="midnightblue" d="M535.739,-165.865C502.904,-155.496 454.75,-140.289 425.496,-131.051"/>
<polygon fill="midnightblue" stroke="midnightblue" points="534.81,-169.242 545.4,-168.916 536.918,-162.567 534.81,-169.242"/>
</g>
<!-- Node16&#45;&gt;Node9 -->
<g id="edge33" class="edge"><title>Node16&#45;&gt;Node9</title>
<path fill="none" stroke="midnightblue" d="M564.644,-158.937C561.341,-149.549 557.467,-138.538 554.886,-131.201"/>
<polygon fill="midnightblue" stroke="midnightblue" points="561.411,-160.291 568.031,-168.562 568.014,-157.968 561.411,-160.291"/>
</g>
<!-- Node16&#45;&gt;Node10 -->
<g id="edge35" class="edge"><title>Node16&#45;&gt;Node10</title>
<path fill="none" stroke="midnightblue" d="M524.614,-171.973C512.383,-170.663 499.195,-169.265 487,-168 327.5,-151.458 286.587,-155.752 128,-132 125.163,-131.575 122.235,-131.092 119.296,-130.575"/>
<polygon fill="midnightblue" stroke="midnightblue" points="524.304,-175.46 534.621,-173.048 525.052,-168.5 524.304,-175.46"/>
</g>
<!-- Node16&#45;&gt;Node11 -->
<g id="edge36" class="edge"><title>Node16&#45;&gt;Node11</title>
<path fill="none" stroke="midnightblue" d="M617.355,-176.983C692.415,-175.859 835.37,-168.802 867,-132 880.688,-116.074 873.43,-88.9776 868.437,-75.3498"/>
<polygon fill="midnightblue" stroke="midnightblue" points="617.19,-173.484 607.233,-177.104 617.274,-180.484 617.19,-173.484"/>
</g>
<!-- Node16&#45;&gt;Node12 -->
<g id="edge37" class="edge"><title>Node16&#45;&gt;Node12</title>
<path fill="none" stroke="midnightblue" d="M586.39,-161.32C596.056,-151.471 608.131,-139.169 615.95,-131.201"/>
<polygon fill="midnightblue" stroke="midnightblue" points="583.788,-158.974 579.281,-168.562 588.784,-163.877 583.788,-158.974"/>
</g>
<!-- Node16&#45;&gt;Node13 -->
<g id="edge38" class="edge"><title>Node16&#45;&gt;Node13</title>
<path fill="none" stroke="midnightblue" d="M524.801,-171.924C430.915,-161.549 223.986,-138.357 192,-132 189.17,-131.438 186.224,-130.751 183.317,-130.012"/>
<polygon fill="midnightblue" stroke="midnightblue" points="524.544,-175.417 534.867,-173.035 525.312,-168.459 524.544,-175.417"/>
</g>
<!-- Node16&#45;&gt;Node14 -->
<g id="edge39" class="edge"><title>Node16&#45;&gt;Node14</title>
<path fill="none" stroke="midnightblue" d="M524.952,-169.399C470.855,-160.465 378.402,-145.185 299,-132 295.812,-131.471 292.519,-130.923 289.204,-130.372"/>
<polygon fill="midnightblue" stroke="midnightblue" points="524.483,-172.869 534.919,-171.045 525.623,-165.962 524.483,-172.869"/>
</g>
<!-- Node16&#45;&gt;Node15 -->
<g id="edge40" class="edge"><title>Node16&#45;&gt;Node15</title>
<path fill="none" stroke="midnightblue" d="M600.502,-165.199C626.28,-154.888 663.026,-140.19 685.651,-131.14"/>
<polygon fill="midnightblue" stroke="midnightblue" points="599.196,-161.952 591.211,-168.916 601.796,-168.451 599.196,-161.952"/>
</g>
<!-- Node17 -->
<g id="node17" class="node"><title>Node17</title>
<g id="a_node17"><a xlink:href="validate_8h.html" target="_top" xlink:title="Support for validating the data in a file. ">
<polygon fill="none" stroke="black" points="799.596,-113 799.596,-131 858.404,-131 858.404,-113 799.596,-113"/>
<text text-anchor="middle" x="829" y="-119" font-family="Helvetica,sans-Serif" font-size="10.00">validate.h</text>
</a>
</g>
</g>
<!-- Node16&#45;&gt;Node17 -->
<g id="edge41" class="edge"><title>Node16&#45;&gt;Node17</title>
<path fill="none" stroke="midnightblue" d="M617.262,-167.317C670.089,-156.26 754.941,-138.501 799.497,-129.175"/>
<polygon fill="midnightblue" stroke="midnightblue" points="616.216,-163.96 607.145,-169.435 617.65,-170.812 616.216,-163.96"/>
</g>
<!-- Node19 -->
<g id="node19" class="node"><title>Node19</title>
<g id="a_node19"><a xlink:href="labels_8h.html" target="_top" xlink:title="Helper functions for manipulating RMF files. ">
<polygon fill="none" stroke="black" points="-0.233887,-57 -0.233887,-75 50.2339,-75 50.2339,-57 -0.233887,-57"/>
<text text-anchor="middle" x="25" y="-63" font-family="Helvetica,sans-Serif" font-size="10.00">labels.h</text>
</a>
</g>
</g>
<!-- Node18&#45;&gt;Node19 -->
<g id="edge53" class="edge"><title>Node18&#45;&gt;Node19</title>
<path fill="none" stroke="midnightblue" d="M41.6687,-158.678C37.2525,-134.389 29.6478,-92.563 26.4663,-75.0649"/>
<polygon fill="midnightblue" stroke="midnightblue" points="38.2643,-159.52 43.4967,-168.732 45.1514,-158.267 38.2643,-159.52"/>
</g>
<!-- Node19&#45;&gt;Node4 -->
<g id="edge54" class="edge"><title>Node19&#45;&gt;Node4</title>
<path fill="none" stroke="midnightblue" d="M60.7782,-59.8479C132.343,-49.5427 292.387,-26.4962 364.074,-16.1734"/>
<polygon fill="midnightblue" stroke="midnightblue" points="59.8795,-56.4412 50.4805,-61.3308 60.8772,-63.3697 59.8795,-56.4412"/>
</g>
</g>
</svg>
        <g id="navigator" transform="translate(0 0)" fill="#404254">
                <rect fill="#f2f5e9" fill-opacity="0.5" stroke="#606060" stroke-width=".5" x="0" y="0" width="60" height="60"/>
                <use id="zoomplus" xlink:href="#zoomPlus" x="17" y="9" onmousedown="handleZoom(evt,'in')"/>
                <use id="zoomminus" xlink:href="#zoomMin" x="42" y="9" onmousedown="handleZoom(evt,'out')"/>
                <use id="reset" xlink:href="#resetDef" x="30" y="36" onmousedown="handleReset()"/>
                <g id="arrowUp" xlink:href="#dirArrow" transform="translate(30 24)" onmousedown="handlePan(0,-1)">
                  <use xlink:href="#rim" fill="#404040">
                        <set attributeName="fill" to="#808080" begin="arrowUp.mouseover" end="arrowUp.mouseout"/>
                  </use>
                  <path fill="none" stroke="white" stroke-width="1.5" d="M0,-3.0v7 M-2.5,-0.5L0,-3.0L2.5,-0.5"/>
                </g>
                <g id="arrowRight" xlink:href="#dirArrow" transform="rotate(90) translate(36 -43)" onmousedown="handlePan(1,0)">
                  <use xlink:href="#rim" fill="#404040">
                        <set attributeName="fill" to="#808080" begin="arrowRight.mouseover" end="arrowRight.mouseout"/>
                  </use>
                  <path fill="none" stroke="white" stroke-width="1.5" d="M0,-3.0v7 M-2.5,-0.5L0,-3.0L2.5,-0.5"/>
                </g>
                <g id="arrowDown" xlink:href="#dirArrow" transform="rotate(180) translate(-30 -48)" onmousedown="handlePan(0,1)">
                  <use xlink:href="#rim" fill="#404040">
                        <set attributeName="fill" to="#808080" begin="arrowDown.mouseover" end="arrowDown.mouseout"/>
                  </use>
                  <path fill="none" stroke="white" stroke-width="1.5" d="M0,-3.0v7 M-2.5,-0.5L0,-3.0L2.5,-0.5"/>
                </g>
                <g id="arrowLeft" xlink:href="#dirArrow" transform="rotate(270) translate(-36 17)" onmousedown="handlePan(-1,0)">
                  <use xlink:href="#rim" fill="#404040">
                        <set attributeName="fill" to="#808080" begin="arrowLeft.mouseover" end="arrowLeft.mouseout"/>
                  </use>
                  <path fill="none" stroke="white" stroke-width="1.5" d="M0,-3.0v7 M-2.5,-0.5L0,-3.0L2.5,-0.5"/>
                </g>
        </g>
        <svg viewBox="0 0 15 15" width="100%" height="30px" preserveAspectRatio="xMaxYMin meet">
         <g id="arrow_out" transform="scale(0.3 0.3)">
          <a xlink:href="NodeHandle_8h__dep__incl_org.svg" target="_base">
           <rect id="button" ry="5" rx="5" y="6" x="6" height="38" width="38"
                fill="#f2f5e9" fill-opacity="0.5" stroke="#606060" stroke-width="1.0"/>
           <path id="arrow"
             d="M 11.500037,31.436501 C 11.940474,20.09759 22.043105,11.32322 32.158766,21.979434 L 37.068811,17.246167 C 37.068811,17.246167 37.088388,32 37.088388,32 L 22.160133,31.978069 C 22.160133,31.978069 26.997745,27.140456 26.997745,27.140456 C 18.528582,18.264221 13.291696,25.230495 11.500037,31.436501 z"
             style="fill:#404040;"/>
          </a>
         </g>
        </svg>
</svg>
