<?xml version="1.0" encoding="UTF-8" standalone="no"?>
<!DOCTYPE svg PUBLIC "-//W3C//DTD SVG 1.1//EN"
 "http://www.w3.org/Graphics/SVG/1.1/DTD/svg11.dtd">
<!-- Generated by graphviz version 2.36.0 (20140111.2315)
 -->
<!-- Title: NodeHandle.h Pages: 1 -->
<svg width="2619pt" height="696pt"
 viewBox="0.00 0.00 2619.00 696.00" xmlns="http://www.w3.org/2000/svg" xmlns:xlink="http://www.w3.org/1999/xlink">
<g id="graph0" class="graph" transform="scale(1 1) rotate(0) translate(4 692)">
<title>NodeHandle.h</title>
<!-- Node1 -->
<g id="node1" class="node"><title>Node1</title>
<polygon fill="#bfbfbf" stroke="black" points="1757.03,-669 1757.03,-687 1836.97,-687 1836.97,-669 1757.03,-669"/>
<text text-anchor="middle" x="1797" y="-675" font-family="Helvetica,sans-Serif" font-size="10.00">NodeHandle.h</text>
</g>
<!-- Node2 -->
<g id="node2" class="node"><title>Node2</title>
<polygon fill="none" stroke="#bfbfbf" points="798.018,-530 798.018,-548 907.982,-548 907.982,-530 798.018,-530"/>
<text text-anchor="middle" x="853" y="-536" font-family="Helvetica,sans-Serif" font-size="10.00">boost/shared_ptr.hpp</text>
</g>
<!-- Node1&#45;&gt;Node2 -->
<g id="edge1" class="edge"><title>Node1&#45;&gt;Node2</title>
<path fill="none" stroke="midnightblue" d="M1756.6,-673.248C1631.67,-661.277 1240.84,-621.033 922,-558 911.707,-555.965 900.667,-553.305 890.503,-550.656"/>
<polygon fill="midnightblue" stroke="midnightblue" points="891.255,-547.234 880.69,-548.035 889.448,-553.997 891.255,-547.234"/>
</g>
<!-- Node3 -->
<g id="node3" class="node"><title>Node3</title>
<polygon fill="none" stroke="#bfbfbf" points="2249.77,-10 2249.77,-28 2290.23,-28 2290.23,-10 2249.77,-10"/>
<text text-anchor="middle" x="2270" y="-16" font-family="Helvetica,sans-Serif" font-size="10.00">string</text>
</g>
<!-- Node1&#45;&gt;Node3 -->
<g id="edge2" class="edge"><title>Node1&#45;&gt;Node3</title>
<path fill="none" stroke="midnightblue" d="M1837.11,-676.805C1954.55,-675.797 2295.97,-669.62 2400,-632 2466.22,-608.051 2529,-610.42 2529,-540 2529,-540 2529,-540 2529,-166 2529,-120.084 2517.88,-102.655 2482,-74 2428.54,-31.2999 2345.34,-21.9554 2300.73,-20.1667"/>
<polygon fill="midnightblue" stroke="midnightblue" points="2300.62,-16.662 2290.52,-19.8639 2300.41,-23.6589 2300.62,-16.662"/>
</g>
<!-- Node4 -->
<g id="node4" class="node"><title>Node4</title>
<polygon fill="none" stroke="#bfbfbf" points="872.384,-10 872.384,-28 915.616,-28 915.616,-10 872.384,-10"/>
<text text-anchor="middle" x="894" y="-16" font-family="Helvetica,sans-Serif" font-size="10.00">vector</text>
</g>
<!-- Node1&#45;&gt;Node4 -->
<g id="edge3" class="edge"><title>Node1&#45;&gt;Node4</title>
<path fill="none" stroke="midnightblue" d="M1756.85,-677.134C1550.47,-677.615 607.486,-677.257 319,-632 173.227,-609.131 0,-687.556 0,-540 0,-540 0,-540 0,-166 0,-118.588 13.6325,-98.8669 54,-74 123.796,-31.0049 716.575,-21.8946 861.924,-20.3001"/>
<polygon fill="midnightblue" stroke="midnightblue" points="862.018,-23.7994 871.98,-20.1941 861.944,-16.7998 862.018,-23.7994"/>
</g>
<!-- Node5 -->
<g id="node5" class="node"><title>Node5</title>
<g id="a_node5"><a xlink:href="ID_8h.html" target="_top" xlink:title="Declaration of RMF::ID. ">
<polygon fill="none" stroke="black" points="1943.83,-344 1943.83,-362 1978.17,-362 1978.17,-344 1943.83,-344"/>
<text text-anchor="middle" x="1961" y="-350" font-family="Helvetica,sans-Serif" font-size="10.00">ID.h</text>
</a>
</g>
</g>
<!-- Node1&#45;&gt;Node5 -->
<g id="edge4" class="edge"><title>Node1&#45;&gt;Node5</title>
<path fill="none" stroke="midnightblue" d="M1837.07,-675.057C1954.76,-668.403 2295.05,-642.089 2358,-558 2460.15,-421.544 2093.65,-368.973 1988.45,-356.877"/>
<polygon fill="midnightblue" stroke="midnightblue" points="1988.63,-353.374 1978.3,-355.743 1987.85,-360.331 1988.63,-353.374"/>
</g>
<!-- Node6 -->
<g id="node6" class="node"><title>Node6</title>
<g id="a_node6"><a xlink:href="config_8h_source.html" target="_top" xlink:title="RMF/config.h">
<polygon fill="none" stroke="black" points="1878.27,-84 1878.27,-102 1953.73,-102 1953.73,-84 1878.27,-84"/>
<text text-anchor="middle" x="1916" y="-90" font-family="Helvetica,sans-Serif" font-size="10.00">RMF/config.h</text>
</a>
</g>
</g>
<!-- Node1&#45;&gt;Node6 -->
<g id="edge115" class="edge"><title>Node1&#45;&gt;Node6</title>
<path fill="none" stroke="midnightblue" d="M1837.26,-676.784C1947.2,-675.704 2250.46,-669.33 2342,-632 2401.33,-607.804 2453,-604.076 2453,-540 2453,-540 2453,-540 2453,-287 2453,-199.002 2390.97,-186.821 2312,-148 2251.67,-118.341 2055.77,-102.642 1964.11,-96.763"/>
<polygon fill="midnightblue" stroke="midnightblue" points="1964.19,-93.2612 1953.99,-96.1267 1963.75,-100.247 1964.19,-93.2612"/>
</g>
<!-- Node8 -->
<g id="node8" class="node"><title>Node8</title>
<g id="a_node8"><a xlink:href="infrastructure__macros_8h.html" target="_top" xlink:title="Various general useful macros for IMP. ">
<polygon fill="none" stroke="black" points="1126.48,-84 1126.48,-102 1247.52,-102 1247.52,-84 1126.48,-84"/>
<text text-anchor="middle" x="1187" y="-90" font-family="Helvetica,sans-Serif" font-size="10.00">infrastructure_macros.h</text>
</a>
</g>
</g>
<!-- Node1&#45;&gt;Node8 -->
<g id="edge118" class="edge"><title>Node1&#45;&gt;Node8</title>
<path fill="none" stroke="midnightblue" d="M1756.65,-675.891C1500.7,-668.597 114,-625.152 114,-540 114,-540 114,-540 114,-231 114,-160.188 182.409,-169.113 250,-148 411.313,-97.6116 926.408,-93.4268 1116.04,-93.6525"/>
<polygon fill="midnightblue" stroke="midnightblue" points="1116.17,-97.1527 1126.17,-93.6692 1116.18,-90.1527 1116.17,-97.1527"/>
</g>
<!-- Node15 -->
<g id="node15" class="node"><title>Node15</title>
<g id="a_node15"><a xlink:href="exceptions_8h.html" target="_top" xlink:title="Declarations of the various exception types. ">
<polygon fill="none" stroke="black" points="1392.93,-158 1392.93,-176 1465.07,-176 1465.07,-158 1392.93,-158"/>
<text text-anchor="middle" x="1429" y="-164" font-family="Helvetica,sans-Serif" font-size="10.00">exceptions.h</text>
</a>
</g>
</g>
<!-- Node1&#45;&gt;Node15 -->
<g id="edge117" class="edge"><title>Node1&#45;&gt;Node15</title>
<path fill="none" stroke="midnightblue" d="M1756.98,-676.371C1590.68,-673.577 959.041,-661.124 875,-632 821.399,-613.424 797.004,-608.418 771,-558 650.628,-324.618 1011.63,-315.538 1257,-222 1309.83,-201.862 1325.27,-203.582 1379,-186 1385.1,-184.004 1391.58,-181.764 1397.77,-179.559"/>
<polygon fill="midnightblue" stroke="midnightblue" points="1398.97,-182.849 1407.19,-176.165 1396.6,-176.263 1398.97,-182.849"/>
</g>
<!-- Node20 -->
<g id="node20" class="node"><title>Node20</title>
<g id="a_node20"><a xlink:href="NodeConstHandle_8h.html" target="_top" xlink:title="Declaration of NodeConstHandlke. ">
<polygon fill="none" stroke="black" points="1743.97,-604 1743.97,-622 1850.03,-622 1850.03,-604 1743.97,-604"/>
<text text-anchor="middle" x="1797" y="-610" font-family="Helvetica,sans-Serif" font-size="10.00">NodeConstHandle.h</text>
</a>
</g>
</g>
<!-- Node1&#45;&gt;Node20 -->
<g id="edge25" class="edge"><title>Node1&#45;&gt;Node20</title>
<path fill="none" stroke="midnightblue" d="M1797,-668.764C1797,-659.564 1797,-644.381 1797,-632.333"/>
<polygon fill="midnightblue" stroke="midnightblue" points="1800.5,-632.039 1797,-622.039 1793.5,-632.039 1800.5,-632.039"/>
</g>
<!-- Node23 -->
<g id="node23" class="node"><title>Node23</title>
<g id="a_node23"><a xlink:href="Nullable_8h.html" target="_top" xlink:title="A helper class for allowing nice return of possibly null values. ">
<polygon fill="none" stroke="black" points="1573.54,-530 1573.54,-548 1658.46,-548 1658.46,-530 1573.54,-530"/>
<text text-anchor="middle" x="1616" y="-536" font-family="Helvetica,sans-Serif" font-size="10.00">RMF/Nullable.h</text>
</a>
</g>
</g>
<!-- Node1&#45;&gt;Node23 -->
<g id="edge114" class="edge"><title>Node1&#45;&gt;Node23</title>
<path fill="none" stroke="midnightblue" d="M1785.5,-668.809C1772.99,-659.868 1752.46,-645.078 1735,-632 1699.05,-605.065 1657.68,-572.788 1634.41,-554.509"/>
<polygon fill="midnightblue" stroke="midnightblue" points="1636.45,-551.661 1626.42,-548.23 1632.12,-557.163 1636.45,-551.661"/>
</g>
<!-- Node25 -->
<g id="node25" class="node"><title>Node25</title>
<g id="a_node25"><a xlink:href="types_8h.html" target="_top" xlink:title="Default implementation for types.h. ">
<polygon fill="none" stroke="black" points="1077.66,-409 1077.66,-427 1150.34,-427 1150.34,-409 1077.66,-409"/>
<text text-anchor="middle" x="1114" y="-415" font-family="Helvetica,sans-Serif" font-size="10.00">RMF/types.h</text>
</a>
</g>
</g>
<!-- Node1&#45;&gt;Node25 -->
<g id="edge121" class="edge"><title>Node1&#45;&gt;Node25</title>
<path fill="none" stroke="midnightblue" d="M1756.9,-675.497C1577.06,-668.338 851.042,-634.808 789,-558 710.911,-461.326 959.733,-430.619 1067.13,-422.008"/>
<polygon fill="midnightblue" stroke="midnightblue" points="1067.67,-425.477 1077.37,-421.219 1067.13,-418.497 1067.67,-425.477"/>
</g>
<!-- Node44 -->
<g id="node44" class="node"><title>Node44</title>
<polygon fill="none" stroke="black" points="2295,-521 2295,-557 2349,-557 2349,-521 2295,-521"/>
<text text-anchor="middle" x="2321.51" y="-536" font-family="Helvetica,sans-Serif" font-size="10.00">Node44</text>
</g>
<!-- Node1&#45;&gt;Node44 -->
<g id="edge119" class="edge"><title>Node1&#45;&gt;Node44</title>
<path fill="none" stroke="midnightblue" d="M1837.19,-669.564C1921,-653.528 2120,-612.677 2281,-558 2282.43,-557.516 2283.87,-557.002 2285.32,-556.465"/>
<polygon fill="midnightblue" stroke="midnightblue" points="2286.9,-559.606 2294.91,-552.674 2284.33,-553.096 2286.9,-559.606"/>
</g>
<!-- Node46 -->
<g id="node46" class="node"><title>Node46</title>
<g id="a_node46"><a xlink:href="enums_8h.html" target="_top" xlink:title="The various enums used in RMF. ">
<polygon fill="none" stroke="black" points="2299.6,-279 2299.6,-297 2378.4,-297 2378.4,-279 2299.6,-279"/>
<text text-anchor="middle" x="2339" y="-285" font-family="Helvetica,sans-Serif" font-size="10.00">RMF/enums.h</text>
</a>
</g>
</g>
<!-- Node1&#45;&gt;Node46 -->
<g id="edge116" class="edge"><title>Node1&#45;&gt;Node46</title>
<path fill="none" stroke="midnightblue" d="M1837.07,-676.711C1974.02,-674.659 2415,-658.825 2415,-540 2415,-540 2415,-540 2415,-417 2415,-370.763 2377.88,-326.637 2355.53,-304.254"/>
<polygon fill="midnightblue" stroke="midnightblue" points="2357.94,-301.717 2348.32,-297.275 2353.07,-306.746 2357.94,-301.717"/>
</g>
<!-- Node50 -->
<g id="node50" class="node"><title>Node50</title>
<polygon fill="none" stroke="black" points="2557,-595 2557,-631 2611,-631 2611,-595 2557,-595"/>
<text text-anchor="middle" x="2583.51" y="-610" font-family="Helvetica,sans-Serif" font-size="10.00">Node50</text>
</g>
<!-- Node1&#45;&gt;Node50 -->
<g id="edge120" class="edge"><title>Node1&#45;&gt;Node50</title>
<path fill="none" stroke="midnightblue" d="M1837.37,-676.434C1972.38,-674.251 2407.26,-664.782 2543,-632 2544.28,-631.692 2545.56,-631.346 2546.85,-630.97"/>
<polygon fill="midnightblue" stroke="midnightblue" points="2548.37,-634.148 2556.67,-627.572 2546.08,-627.532 2548.37,-634.148"/>
</g>
<!-- Node5&#45;&gt;Node6 -->
<g id="edge5" class="edge"><title>Node5&#45;&gt;Node6</title>
<path fill="none" stroke="midnightblue" d="M1964.36,-343.74C1975.46,-315.096 2008.51,-217.969 1977,-148 1969.28,-130.862 1953.14,-116.965 1939.4,-107.563"/>
<polygon fill="midnightblue" stroke="midnightblue" points="1941.13,-104.516 1930.83,-102.045 1937.34,-110.401 1941.13,-104.516"/>
</g>
<!-- Node5&#45;&gt;Node8 -->
<g id="edge7" class="edge"><title>Node5&#45;&gt;Node8</title>
<path fill="none" stroke="midnightblue" d="M1943.62,-348.313C1831.33,-324.479 1212.86,-192.946 1206,-186 1186.76,-166.513 1184.59,-133.012 1185.37,-112.262"/>
<polygon fill="midnightblue" stroke="midnightblue" points="1188.86,-112.422 1186.02,-102.217 1181.88,-111.971 1188.86,-112.422"/>
</g>
<!-- Node5&#45;&gt;Node15 -->
<g id="edge17" class="edge"><title>Node5&#45;&gt;Node15</title>
<path fill="none" stroke="midnightblue" d="M1943.77,-344.499C1911.53,-330.586 1839.76,-300.183 1778,-278 1666.2,-237.846 1531.51,-197.661 1467.03,-178.916"/>
<polygon fill="midnightblue" stroke="midnightblue" points="1467.88,-175.517 1457.3,-176.094 1465.93,-182.24 1467.88,-175.517"/>
</g>
<!-- Node19 -->
<g id="node19" class="node"><title>Node19</title>
<polygon fill="none" stroke="#bfbfbf" points="1896.61,-158 1896.61,-176 1935.39,-176 1935.39,-158 1896.61,-158"/>
<text text-anchor="middle" x="1916" y="-164" font-family="Helvetica,sans-Serif" font-size="10.00">limits</text>
</g>
<!-- Node5&#45;&gt;Node19 -->
<g id="edge24" class="edge"><title>Node5&#45;&gt;Node19</title>
<path fill="none" stroke="midnightblue" d="M1959.1,-343.773C1954.33,-323.211 1941.43,-267.932 1930,-222 1927.01,-209.991 1923.52,-196.516 1920.77,-186.031"/>
<polygon fill="midnightblue" stroke="midnightblue" points="1924.07,-184.817 1918.14,-176.038 1917.3,-186.6 1924.07,-184.817"/>
</g>
<!-- Node7 -->
<g id="node7" class="node"><title>Node7</title>
<g id="a_node7"><a xlink:href="compiler__macros_8h.html" target="_top" xlink:title="Various compiler workarounds. ">
<polygon fill="none" stroke="black" points="1497.54,-10 1497.54,-28 1622.46,-28 1622.46,-10 1497.54,-10"/>
<text text-anchor="middle" x="1560" y="-16" font-family="Helvetica,sans-Serif" font-size="10.00">RMF/compiler_macros.h</text>
</a>
</g>
</g>
<!-- Node6&#45;&gt;Node7 -->
<g id="edge6" class="edge"><title>Node6&#45;&gt;Node7</title>
<path fill="none" stroke="midnightblue" d="M1878.24,-84.3629C1813.68,-71.3065 1682.1,-44.6952 1610,-30.1127"/>
<polygon fill="midnightblue" stroke="midnightblue" points="1610.31,-26.6034 1599.81,-28.0516 1608.92,-33.4645 1610.31,-26.6034"/>
</g>
<!-- Node8&#45;&gt;Node3 -->
<g id="edge10" class="edge"><title>Node8&#45;&gt;Node3</title>
<path fill="none" stroke="midnightblue" d="M1246.43,-83.9602C1274.2,-80.4485 1307.75,-76.5565 1338,-74 1657.26,-47.0217 1738.33,-59.5564 2058,-38 2122.62,-33.6427 2198.17,-26.8106 2239.36,-22.9375"/>
<polygon fill="midnightblue" stroke="midnightblue" points="2239.93,-26.4 2249.55,-21.974 2239.27,-19.4311 2239.93,-26.4"/>
</g>
<!-- Node8&#45;&gt;Node4 -->
<g id="edge13" class="edge"><title>Node8&#45;&gt;Node4</title>
<path fill="none" stroke="midnightblue" d="M1154.96,-83.9712C1141.69,-80.7362 1126.14,-77.0552 1112,-74 1029.27,-56.1194 1004.27,-67.6671 925,-38 921.574,-36.7177 918.087,-35.0753 914.747,-33.3057"/>
<polygon fill="midnightblue" stroke="midnightblue" points="916.306,-30.1639 905.9,-28.1752 912.795,-36.2194 916.306,-30.1639"/>
</g>
<!-- Node8&#45;&gt;Node7 -->
<g id="edge11" class="edge"><title>Node8&#45;&gt;Node7</title>
<path fill="none" stroke="midnightblue" d="M1228.7,-83.9503C1297.24,-70.72 1433.53,-44.4115 1508.17,-30.0043"/>
<polygon fill="midnightblue" stroke="midnightblue" points="1509.13,-33.3849 1518.28,-28.0529 1507.8,-26.5118 1509.13,-33.3849"/>
</g>
<!-- Node9 -->
<g id="node9" class="node"><title>Node9</title>
<polygon fill="none" stroke="#bfbfbf" points="1339.22,-10 1339.22,-28 1390.78,-28 1390.78,-10 1339.22,-10"/>
<text text-anchor="middle" x="1365" y="-16" font-family="Helvetica,sans-Serif" font-size="10.00">sstream</text>
</g>
<!-- Node8&#45;&gt;Node9 -->
<g id="edge8" class="edge"><title>Node8&#45;&gt;Node9</title>
<path fill="none" stroke="midnightblue" d="M1210.87,-83.9253C1239.53,-74.0134 1288.89,-56.2609 1330,-38 1333.69,-36.3616 1337.54,-34.5212 1341.28,-32.659"/>
<polygon fill="midnightblue" stroke="midnightblue" points="1342.89,-35.7646 1350.19,-28.0883 1339.7,-29.5354 1342.89,-35.7646"/>
</g>
<!-- Node10 -->
<g id="node10" class="node"><title>Node10</title>
<polygon fill="none" stroke="#bfbfbf" points="1994.83,-10 1994.83,-28 2049.17,-28 2049.17,-10 1994.83,-10"/>
<text text-anchor="middle" x="2022" y="-16" font-family="Helvetica,sans-Serif" font-size="10.00">iostream</text>
</g>
<!-- Node8&#45;&gt;Node10 -->
<g id="edge9" class="edge"><title>Node8&#45;&gt;Node10</title>
<path fill="none" stroke="midnightblue" d="M1231.97,-83.9551C1252.64,-80.485 1277.51,-76.6281 1300,-74 1561.02,-43.5034 1877.25,-26.8026 1984.42,-21.7042"/>
<polygon fill="midnightblue" stroke="midnightblue" points="1984.89,-25.1862 1994.71,-21.2199 1984.56,-18.194 1984.89,-25.1862"/>
</g>
<!-- Node11 -->
<g id="node11" class="node"><title>Node11</title>
<polygon fill="none" stroke="black" points="1160,-1 1160,-37 1214,-37 1214,-1 1160,-1"/>
<text text-anchor="middle" x="1186.65" y="-16" font-family="Helvetica,sans-Serif" font-size="10.00">Node11</text>
</g>
<!-- Node8&#45;&gt;Node11 -->
<g id="edge12" class="edge"><title>Node8&#45;&gt;Node11</title>
<path fill="none" stroke="midnightblue" d="M1187,-83.7407C1187,-74.9103 1187,-60.4297 1187,-47.5005"/>
<polygon fill="midnightblue" stroke="midnightblue" points="1190.5,-47.1629 1187,-37.1629 1183.5,-47.1629 1190.5,-47.1629"/>
</g>
<!-- Node12 -->
<g id="node12" class="node"><title>Node12</title>
<polygon fill="none" stroke="#bfbfbf" points="1232.31,-10 1232.31,-28 1321.69,-28 1321.69,-10 1232.31,-10"/>
<text text-anchor="middle" x="1277" y="-16" font-family="Helvetica,sans-Serif" font-size="10.00">boost/config.hpp</text>
</g>
<!-- Node8&#45;&gt;Node12 -->
<g id="edge14" class="edge"><title>Node8&#45;&gt;Node12</title>
<path fill="none" stroke="midnightblue" d="M1197.32,-83.7407C1212.31,-71.751 1240.32,-49.3448 1258.81,-34.5486"/>
<polygon fill="midnightblue" stroke="midnightblue" points="1261.17,-37.143 1266.8,-28.163 1256.8,-31.6769 1261.17,-37.143"/>
</g>
<!-- Node13 -->
<g id="node13" class="node"><title>Node13</title>
<polygon fill="none" stroke="#bfbfbf" points="933.53,-10 933.53,-28 1028.47,-28 1028.47,-10 933.53,-10"/>
<text text-anchor="middle" x="981" y="-16" font-family="Helvetica,sans-Serif" font-size="10.00">boost/version.hpp</text>
</g>
<!-- Node8&#45;&gt;Node13 -->
<g id="edge15" class="edge"><title>Node8&#45;&gt;Node13</title>
<path fill="none" stroke="midnightblue" d="M1163.77,-83.8806C1127.04,-71.0447 1055.46,-46.0243 1013.6,-31.3959"/>
<polygon fill="midnightblue" stroke="midnightblue" points="1014.74,-28.0852 1004.15,-28.0897 1012.43,-34.6932 1014.74,-28.0852"/>
</g>
<!-- Node14 -->
<g id="node14" class="node"><title>Node14</title>
<polygon fill="none" stroke="#bfbfbf" points="1045.97,-10 1045.97,-28 1142.03,-28 1142.03,-10 1045.97,-10"/>
<text text-anchor="middle" x="1094" y="-16" font-family="Helvetica,sans-Serif" font-size="10.00">boost/foreach.hpp</text>
</g>
<!-- Node8&#45;&gt;Node14 -->
<g id="edge16" class="edge"><title>Node8&#45;&gt;Node14</title>
<path fill="none" stroke="midnightblue" d="M1176.33,-83.7407C1160.77,-71.6967 1131.64,-49.1419 1112.53,-34.3483"/>
<polygon fill="midnightblue" stroke="midnightblue" points="1114.59,-31.5172 1104.54,-28.163 1110.31,-37.0523 1114.59,-31.5172"/>
</g>
<!-- Node15&#45;&gt;Node3 -->
<g id="edge20" class="edge"><title>Node15&#45;&gt;Node3</title>
<path fill="none" stroke="midnightblue" d="M1449.12,-157.943C1503.99,-135.997 1652.88,-76.6145 1664,-74 1678.19,-70.6621 2118.85,-32.8993 2239.64,-22.5879"/>
<polygon fill="midnightblue" stroke="midnightblue" points="2240.02,-26.0686 2249.68,-21.7309 2239.42,-19.0939 2240.02,-26.0686"/>
</g>
<!-- Node15&#45;&gt;Node6 -->
<g id="edge21" class="edge"><title>Node15&#45;&gt;Node6</title>
<path fill="none" stroke="midnightblue" d="M1448.17,-157.967C1457.35,-154.413 1468.59,-150.484 1479,-148 1516.19,-139.124 1762.2,-111.135 1867.89,-99.3324"/>
<polygon fill="midnightblue" stroke="midnightblue" points="1868.42,-102.795 1877.97,-98.2085 1867.64,-95.8385 1868.42,-102.795"/>
</g>
<!-- Node15&#45;&gt;Node7 -->
<g id="edge22" class="edge"><title>Node15&#45;&gt;Node7</title>
<path fill="none" stroke="midnightblue" d="M1451.33,-157.82C1480.25,-146.791 1528.35,-126.828 1540,-112 1556.72,-90.7281 1560.18,-58.5048 1560.54,-38.3833"/>
<polygon fill="midnightblue" stroke="midnightblue" points="1564.03,-38.0844 1560.46,-28.1088 1557.03,-38.1327 1564.03,-38.0844"/>
</g>
<!-- Node16 -->
<g id="node16" class="node"><title>Node16</title>
<polygon fill="none" stroke="#bfbfbf" points="1380.45,-84 1380.45,-102 1531.55,-102 1531.55,-84 1380.45,-84"/>
<text text-anchor="middle" x="1456" y="-90" font-family="Helvetica,sans-Serif" font-size="10.00">boost/exception/exception.hpp</text>
</g>
<!-- Node15&#45;&gt;Node16 -->
<g id="edge18" class="edge"><title>Node15&#45;&gt;Node16</title>
<path fill="none" stroke="midnightblue" d="M1432.1,-157.741C1436.29,-146.565 1443.87,-126.338 1449.38,-111.661"/>
<polygon fill="midnightblue" stroke="midnightblue" points="1452.7,-112.755 1452.94,-102.163 1446.15,-110.297 1452.7,-112.755"/>
</g>
<!-- Node17 -->
<g id="node17" class="node"><title>Node17</title>
<polygon fill="none" stroke="#bfbfbf" points="1672.6,-84 1672.6,-102 1731.4,-102 1731.4,-84 1672.6,-84"/>
<text text-anchor="middle" x="1702" y="-90" font-family="Helvetica,sans-Serif" font-size="10.00">exception</text>
</g>
<!-- Node15&#45;&gt;Node17 -->
<g id="edge19" class="edge"><title>Node15&#45;&gt;Node17</title>
<path fill="none" stroke="midnightblue" d="M1449.72,-157.859C1458.65,-154.531 1469.25,-150.813 1479,-148 1550.7,-127.318 1570.81,-130.903 1643,-112 1650.94,-109.921 1659.41,-107.473 1667.39,-105.064"/>
<polygon fill="midnightblue" stroke="midnightblue" points="1668.62,-108.348 1677.15,-102.064 1666.56,-101.657 1668.62,-108.348"/>
</g>
<!-- Node18 -->
<g id="node18" class="node"><title>Node18</title>
<polygon fill="none" stroke="black" points="125,-75 125,-111 179,-111 179,-75 125,-75"/>
<text text-anchor="middle" x="151.515" y="-90" font-family="Helvetica,sans-Serif" font-size="10.00">Node18</text>
</g>
<!-- Node15&#45;&gt;Node18 -->
<g id="edge23" class="edge"><title>Node15&#45;&gt;Node18</title>
<path fill="none" stroke="midnightblue" d="M1397.3,-157.908C1381.67,-154.249 1362.45,-150.249 1345,-148 1113.26,-118.136 364.785,-98.999 189.138,-94.8503"/>
<polygon fill="midnightblue" stroke="midnightblue" points="189.179,-91.3504 179.1,-94.6149 189.015,-98.3485 189.179,-91.3504"/>
</g>
<!-- Node20&#45;&gt;Node2 -->
<g id="edge28" class="edge"><title>Node20&#45;&gt;Node2</title>
<path fill="none" stroke="midnightblue" d="M1743.92,-610.073C1579.75,-603.901 1081.78,-583.525 922,-558 911.068,-556.254 899.354,-553.531 888.739,-550.727"/>
<polygon fill="midnightblue" stroke="midnightblue" points="889.529,-547.315 878.959,-548.044 887.676,-554.065 889.529,-547.315"/>
</g>
<!-- Node20&#45;&gt;Node3 -->
<g id="edge30" class="edge"><title>Node20&#45;&gt;Node3</title>
<path fill="none" stroke="midnightblue" d="M1850.03,-607.008C1958.08,-596.603 2196.48,-572.374 2231,-558 2239.47,-554.471 2491,-363.18 2491,-354 2491,-354 2491,-354 2491,-166 2491,-121.589 2485.12,-103.588 2452,-74 2409.11,-35.6831 2340.13,-24.5127 2300.55,-21.2838"/>
<polygon fill="midnightblue" stroke="midnightblue" points="2300.67,-17.7836 2290.45,-20.5811 2300.18,-24.7668 2300.67,-17.7836"/>
</g>
<!-- Node20&#45;&gt;Node4 -->
<g id="edge31" class="edge"><title>Node20&#45;&gt;Node4</title>
<path fill="none" stroke="midnightblue" d="M1743.73,-609.717C1563.5,-601.846 985.763,-575.376 950,-558 929.616,-548.096 935.289,-531.896 916,-520 863.877,-487.855 841.953,-500.574 783,-484 611.857,-435.884 567.433,-428.879 399,-372 236.11,-316.993 38,-404.927 38,-233 38,-233 38,-233 38,-166 38,-112.393 68.1679,-98.2028 116,-74 183.34,-39.9265 723.529,-24.2438 861.836,-20.7635"/>
<polygon fill="midnightblue" stroke="midnightblue" points="862.261,-24.2541 872.171,-20.5075 862.087,-17.2563 862.261,-24.2541"/>
</g>
<!-- Node20&#45;&gt;Node5 -->
<g id="edge32" class="edge"><title>Node20&#45;&gt;Node5</title>
<path fill="none" stroke="midnightblue" d="M1801.14,-603.716C1809.36,-587.399 1828.57,-550.069 1847,-520 1881.62,-463.515 1927.45,-399.699 1948.92,-370.353"/>
<polygon fill="midnightblue" stroke="midnightblue" points="1951.9,-372.22 1955,-362.09 1946.25,-368.075 1951.9,-372.22"/>
</g>
<!-- Node20&#45;&gt;Node6 -->
<g id="edge90" class="edge"><title>Node20&#45;&gt;Node6</title>
<path fill="none" stroke="midnightblue" d="M1812.3,-603.976C1830.4,-594.18 1861.09,-576.607 1885,-558 1904.1,-543.135 1904.65,-534.539 1924,-520 1990.19,-470.257 2021.4,-479.79 2086,-428 2120.62,-400.25 2153,-398.367 2153,-354 2153,-354 2153,-354 2153,-231 2153,-144.545 2033.33,-111.782 1964.06,-100.059"/>
<polygon fill="midnightblue" stroke="midnightblue" points="1964.24,-96.5434 1953.82,-98.4154 1963.13,-103.455 1964.24,-96.5434"/>
</g>
<!-- Node20&#45;&gt;Node8 -->
<g id="edge92" class="edge"><title>Node20&#45;&gt;Node8</title>
<path fill="none" stroke="midnightblue" d="M1743.87,-609.772C1612.42,-603.887 1274.78,-586.405 1166,-558 1009.73,-517.192 985.28,-467.178 835,-408 619.88,-323.288 548.666,-345.643 342,-242 302.878,-222.38 281.325,-224.76 261,-186 253.157,-171.043 249.411,-160.285 261,-148 290.254,-116.99 904.841,-100.331 1116.28,-95.5012"/>
<polygon fill="midnightblue" stroke="midnightblue" points="1116.42,-98.999 1126.34,-95.2734 1116.26,-92.0008 1116.42,-98.999"/>
</g>
<!-- Node20&#45;&gt;Node10 -->
<g id="edge29" class="edge"><title>Node20&#45;&gt;Node10</title>
<path fill="none" stroke="midnightblue" d="M1850.09,-607.672C1947.89,-599.224 2148.69,-579.474 2172,-558 2199.83,-532.361 2191,-512.843 2191,-475 2191,-475 2191,-475 2191,-417 2191,-290.789 2348.68,-255.156 2282,-148 2232.85,-69.0178 2119.07,-37.3546 2059.65,-25.8589"/>
<polygon fill="midnightblue" stroke="midnightblue" points="2060.03,-22.3702 2049.57,-24.0005 2058.77,-29.2544 2060.03,-22.3702"/>
</g>
<!-- Node20&#45;&gt;Node15 -->
<g id="edge91" class="edge"><title>Node20&#45;&gt;Node15</title>
<path fill="none" stroke="midnightblue" d="M1743.58,-608.913C1632.48,-602.053 1380.01,-584.067 1298,-558 1186.47,-522.547 1127.29,-529.485 1069,-428 1005.84,-318.031 679.559,-580.104 1284,-222 1289.1,-218.98 1356.05,-194.469 1397.18,-179.527"/>
<polygon fill="midnightblue" stroke="midnightblue" points="1398.56,-182.746 1406.77,-176.044 1396.18,-176.166 1398.56,-182.746"/>
</g>
<!-- Node20&#45;&gt;Node18 -->
<g id="edge94" class="edge"><title>Node20&#45;&gt;Node18</title>
<path fill="none" stroke="midnightblue" d="M1743.9,-610.056C1596.76,-604.364 1185.99,-586.329 1054,-558 1005.88,-547.673 996.347,-536.542 950,-520 667.635,-419.217 587.997,-417.43 313,-298 214.896,-255.394 155.297,-277.552 100,-186 91.2683,-171.543 93.6844,-163.664 100,-148 104.555,-136.703 112.729,-126.45 121.267,-117.986"/>
<polygon fill="midnightblue" stroke="midnightblue" points="123.822,-120.39 128.782,-111.028 119.067,-115.253 123.822,-120.39"/>
</g>
<!-- Node21 -->
<g id="node21" class="node"><title>Node21</title>
<polygon fill="none" stroke="#bfbfbf" points="1932.96,-530 1932.96,-548 2011.04,-548 2011.04,-530 1932.96,-530"/>
<text text-anchor="middle" x="1972" y="-536" font-family="Helvetica,sans-Serif" font-size="10.00">boost/any.hpp</text>
</g>
<!-- Node20&#45;&gt;Node21 -->
<g id="edge26" class="edge"><title>Node20&#45;&gt;Node21</title>
<path fill="none" stroke="midnightblue" d="M1816.73,-603.881C1847.54,-591.207 1907.21,-566.656 1942.94,-551.956"/>
<polygon fill="midnightblue" stroke="midnightblue" points="1944.42,-555.131 1952.34,-548.09 1941.76,-548.658 1944.42,-555.131"/>
</g>
<!-- Node22 -->
<g id="node22" class="node"><title>Node22</title>
<polygon fill="none" stroke="#bfbfbf" points="2028.79,-530 2028.79,-548 2163.21,-548 2163.21,-530 2028.79,-530"/>
<text text-anchor="middle" x="2096" y="-536" font-family="Helvetica,sans-Serif" font-size="10.00">boost/current_function.hpp</text>
</g>
<!-- Node20&#45;&gt;Node22 -->
<g id="edge27" class="edge"><title>Node20&#45;&gt;Node22</title>
<path fill="none" stroke="midnightblue" d="M1830.43,-603.95C1884.74,-590.873 1992.11,-565.017 2052.36,-550.508"/>
<polygon fill="midnightblue" stroke="midnightblue" points="2053.43,-553.852 2062.33,-548.108 2051.79,-547.047 2053.43,-553.852"/>
</g>
<!-- Node20&#45;&gt;Node23 -->
<g id="edge33" class="edge"><title>Node20&#45;&gt;Node23</title>
<path fill="none" stroke="midnightblue" d="M1776.59,-603.881C1744.73,-591.207 1683.01,-566.656 1646.06,-551.956"/>
<polygon fill="midnightblue" stroke="midnightblue" points="1646.92,-548.534 1636.34,-548.09 1644.33,-555.038 1646.92,-548.534"/>
</g>
<!-- Node24 -->
<g id="node24" class="node"><title>Node24</title>
<g id="a_node24"><a xlink:href="traits_8h.html" target="_top" xlink:title="Handle read/write of Model data from/to files. ">
<polygon fill="none" stroke="black" points="1682,-465 1682,-483 1728,-483 1728,-465 1682,-465"/>
<text text-anchor="middle" x="1705" y="-471" font-family="Helvetica,sans-Serif" font-size="10.00">traits.h</text>
</a>
</g>
</g>
<!-- Node20&#45;&gt;Node24 -->
<g id="edge112" class="edge"><title>Node20&#45;&gt;Node24</title>
<path fill="none" stroke="midnightblue" d="M1778.83,-603.841C1761.44,-595.061 1735.86,-579.417 1722,-558 1709.28,-538.349 1705.81,-511.055 1705,-493.215"/>
<polygon fill="midnightblue" stroke="midnightblue" points="1708.49,-492.955 1704.78,-483.032 1701.49,-493.104 1708.49,-492.955"/>
</g>
<!-- Node20&#45;&gt;Node25 -->
<g id="edge113" class="edge"><title>Node20&#45;&gt;Node25</title>
<path fill="none" stroke="midnightblue" d="M1743.74,-608.101C1636.72,-598.668 1389.79,-568.775 1202,-484 1174.29,-471.489 1146.82,-449.205 1130.13,-434.265"/>
<polygon fill="midnightblue" stroke="midnightblue" points="1132.18,-431.392 1122.44,-427.212 1127.44,-436.551 1132.18,-431.392"/>
</g>
<!-- Node20&#45;&gt;Node44 -->
<g id="edge93" class="edge"><title>Node20&#45;&gt;Node44</title>
<path fill="none" stroke="midnightblue" d="M1850.25,-611.284C1940.43,-608.922 2128.31,-599.013 2281,-558 2282.27,-557.66 2283.54,-557.286 2284.83,-556.885"/>
<polygon fill="midnightblue" stroke="midnightblue" points="2286.39,-560.042 2294.62,-553.369 2284.03,-553.453 2286.39,-560.042"/>
</g>
<!-- Node45 -->
<g id="node45" class="node"><title>Node45</title>
<g id="a_node45"><a xlink:href="constants_8h.html" target="_top" xlink:title="Various constants. ">
<polygon fill="none" stroke="black" points="1957.21,-409 1957.21,-427 2048.79,-427 2048.79,-409 1957.21,-409"/>
<text text-anchor="middle" x="2003" y="-415" font-family="Helvetica,sans-Serif" font-size="10.00">RMF/constants.h</text>
</a>
</g>
</g>
<!-- Node20&#45;&gt;Node45 -->
<g id="edge95" class="edge"><title>Node20&#45;&gt;Node45</title>
<path fill="none" stroke="midnightblue" d="M1804.38,-603.903C1819.72,-587.285 1856.48,-548.492 1891,-520 1912.68,-502.105 1921.78,-502.439 1943,-484 1960.5,-468.795 1978.22,-448.924 1989.82,-435.174"/>
<polygon fill="midnightblue" stroke="midnightblue" points="1992.8,-437.064 1996.49,-427.134 1987.41,-432.593 1992.8,-437.064"/>
</g>
<!-- Node20&#45;&gt;Node46 -->
<g id="edge98" class="edge"><title>Node20&#45;&gt;Node46</title>
<path fill="none" stroke="midnightblue" d="M1850.16,-608.194C1954.54,-600.257 2178.53,-580.775 2205,-558 2234.11,-532.956 2229,-513.4 2229,-475 2229,-475 2229,-475 2229,-417 2229,-364.464 2282.96,-322.729 2315.29,-302.437"/>
<polygon fill="midnightblue" stroke="midnightblue" points="2317.42,-305.239 2324.16,-297.065 2313.8,-299.251 2317.42,-305.239"/>
</g>
<!-- Node49 -->
<g id="node49" class="node"><title>Node49</title>
<g id="a_node49"><a xlink:href="keys_8h.html" target="_top" xlink:title="Declarations of the various key types. ">
<polygon fill="none" stroke="black" points="1731.33,-530 1731.33,-548 1800.67,-548 1800.67,-530 1731.33,-530"/>
<text text-anchor="middle" x="1766" y="-536" font-family="Helvetica,sans-Serif" font-size="10.00">RMF/keys.h</text>
</a>
</g>
</g>
<!-- Node20&#45;&gt;Node49 -->
<g id="edge107" class="edge"><title>Node20&#45;&gt;Node49</title>
<path fill="none" stroke="midnightblue" d="M1793.44,-603.741C1788.63,-592.565 1779.92,-572.338 1773.6,-557.661"/>
<polygon fill="midnightblue" stroke="midnightblue" points="1776.68,-555.964 1769.51,-548.163 1770.25,-558.732 1776.68,-555.964"/>
</g>
<!-- Node23&#45;&gt;Node6 -->
<g id="edge34" class="edge"><title>Node23&#45;&gt;Node6</title>
<path fill="none" stroke="midnightblue" d="M1573.41,-533.134C1477.72,-521.017 1254,-485.569 1254,-419 1254,-419 1254,-419 1254,-352 1254,-340.368 1264.08,-341.463 1273,-334 1358.1,-262.827 1389.87,-258.316 1474,-186 1492.11,-170.431 1490.59,-158.585 1512,-148 1543.4,-132.477 1767.89,-108.665 1868.01,-98.6701"/>
<polygon fill="midnightblue" stroke="midnightblue" points="1868.55,-102.133 1878.16,-97.6619 1867.86,-95.1678 1868.55,-102.133"/>
</g>
<!-- Node23&#45;&gt;Node8 -->
<g id="edge87" class="edge"><title>Node23&#45;&gt;Node8</title>
<path fill="none" stroke="midnightblue" d="M1573.52,-534.83C1500.37,-528.794 1346.21,-513.536 1219,-484 1013.23,-436.225 969.44,-397.597 768,-334 713.258,-316.717 307.289,-232.04 273,-186 262.912,-172.455 261.415,-160.289 273,-148 301.817,-117.431 906.485,-100.522 1116.16,-95.5607"/>
<polygon fill="midnightblue" stroke="midnightblue" points="1116.52,-99.0532 1126.43,-95.3196 1116.35,-92.0552 1116.52,-99.0532"/>
</g>
<!-- Node23&#45;&gt;Node15 -->
<g id="edge88" class="edge"><title>Node23&#45;&gt;Node15</title>
<path fill="none" stroke="midnightblue" d="M1573.23,-534.323C1480.17,-525.975 1265.61,-504.704 1240,-484 1216.05,-464.639 1216,-449.795 1216,-419 1216,-419 1216,-419 1216,-352 1216,-317.425 1218.3,-304.914 1240,-278 1262.7,-249.858 1356.23,-202.707 1402.64,-180.406"/>
<polygon fill="midnightblue" stroke="midnightblue" points="1404.27,-183.507 1411.78,-176.041 1401.25,-177.19 1404.27,-183.507"/>
</g>
<!-- Node23&#45;&gt;Node19 -->
<g id="edge89" class="edge"><title>Node23&#45;&gt;Node19</title>
<path fill="none" stroke="midnightblue" d="M1617.24,-529.849C1621.16,-506.94 1635.47,-441.477 1675,-408 1722.39,-367.869 1761.56,-410.857 1810,-372 1872.19,-322.111 1901.86,-225.874 1911.9,-185.992"/>
<polygon fill="midnightblue" stroke="midnightblue" points="1915.34,-186.665 1914.27,-176.125 1908.53,-185.033 1915.34,-186.665"/>
</g>
<!-- Node23&#45;&gt;Node24 -->
<g id="edge35" class="edge"><title>Node23&#45;&gt;Node24</title>
<path fill="none" stroke="midnightblue" d="M1627.64,-529.764C1642.24,-519.425 1667.52,-501.533 1685.19,-489.022"/>
<polygon fill="midnightblue" stroke="midnightblue" points="1687.5,-491.673 1693.64,-483.039 1683.46,-485.96 1687.5,-491.673"/>
</g>
<!-- Node24&#45;&gt;Node6 -->
<g id="edge36" class="edge"><title>Node24&#45;&gt;Node6</title>
<path fill="none" stroke="midnightblue" d="M1728.03,-466.56C1766.22,-454.626 1842.28,-425.303 1881,-372 1932.29,-301.382 1931.89,-272.436 1944,-186 1946.34,-169.274 1948,-164.408 1944,-148 1940.78,-134.783 1933.71,-121.193 1927.48,-110.953"/>
<polygon fill="midnightblue" stroke="midnightblue" points="1930.26,-108.81 1921.92,-102.283 1924.37,-112.59 1930.26,-108.81"/>
</g>
<!-- Node24&#45;&gt;Node19 -->
<g id="edge51" class="edge"><title>Node24&#45;&gt;Node19</title>
<path fill="none" stroke="midnightblue" d="M1722.23,-464.953C1752.29,-450.197 1814.84,-416.22 1854,-372 1902.48,-317.25 1913.06,-225.509 1915.36,-186.478"/>
<polygon fill="midnightblue" stroke="midnightblue" points="1918.87,-186.309 1915.84,-176.157 1911.88,-185.983 1918.87,-186.309"/>
</g>
<!-- Node24&#45;&gt;Node25 -->
<g id="edge37" class="edge"><title>Node24&#45;&gt;Node25</title>
<path fill="none" stroke="midnightblue" d="M1681.83,-470.883C1594,-462.858 1280.45,-434.208 1160.83,-423.279"/>
<polygon fill="midnightblue" stroke="midnightblue" points="1160.81,-419.763 1150.54,-422.338 1160.18,-426.734 1160.81,-419.763"/>
</g>
<!-- Node34 -->
<g id="node34" class="node"><title>Node34</title>
<polygon fill="none" stroke="#bfbfbf" points="1282.2,-344 1282.2,-362 1373.8,-362 1373.8,-344 1282.2,-344"/>
<text text-anchor="middle" x="1328" y="-350" font-family="Helvetica,sans-Serif" font-size="10.00">boost/cstdint.hpp</text>
</g>
<!-- Node24&#45;&gt;Node34 -->
<g id="edge50" class="edge"><title>Node24&#45;&gt;Node34</title>
<path fill="none" stroke="midnightblue" d="M1681.91,-467.367C1677.3,-466.247 1672.5,-465.083 1668,-464 1600.93,-447.847 1582.84,-448.627 1517,-428 1458.45,-409.655 1392.11,-382.03 1355.66,-366.236"/>
<polygon fill="midnightblue" stroke="midnightblue" points="1356.77,-362.902 1346.21,-362.113 1353.97,-369.318 1356.77,-362.902"/>
</g>
<!-- Node35 -->
<g id="node35" class="node"><title>Node35</title>
<polygon fill="none" stroke="#bfbfbf" points="1684.38,-409 1684.38,-427 1727.62,-427 1727.62,-409 1684.38,-409"/>
<text text-anchor="middle" x="1706" y="-415" font-family="Helvetica,sans-Serif" font-size="10.00">cmath</text>
</g>
<!-- Node24&#45;&gt;Node35 -->
<g id="edge52" class="edge"><title>Node24&#45;&gt;Node35</title>
<path fill="none" stroke="midnightblue" d="M1705.16,-464.562C1705.29,-457.308 1705.49,-446.588 1705.66,-437.369"/>
<polygon fill="midnightblue" stroke="midnightblue" points="1709.16,-437.265 1705.85,-427.201 1702.16,-437.135 1709.16,-437.265"/>
</g>
<!-- Node36 -->
<g id="node36" class="node"><title>Node36</title>
<g id="a_node36"><a xlink:href="HDF5_2types_8h.html" target="_top" xlink:title="Handle read/write of Model data from/to files. ">
<polygon fill="none" stroke="black" points="1526.21,-409 1526.21,-427 1627.79,-427 1627.79,-409 1526.21,-409"/>
<text text-anchor="middle" x="1577" y="-415" font-family="Helvetica,sans-Serif" font-size="10.00">RMF/HDF5/types.h</text>
</a>
</g>
</g>
<!-- Node24&#45;&gt;Node36 -->
<g id="edge53" class="edge"><title>Node24&#45;&gt;Node36</title>
<path fill="none" stroke="midnightblue" d="M1685.84,-464.916C1664.63,-455.968 1630.22,-441.452 1605.77,-431.138"/>
<polygon fill="midnightblue" stroke="midnightblue" points="1606.87,-427.802 1596.29,-427.14 1604.15,-434.251 1606.87,-427.802"/>
</g>
<!-- Node25&#45;&gt;Node6 -->
<g id="edge38" class="edge"><title>Node25&#45;&gt;Node6</title>
<path fill="none" stroke="midnightblue" d="M1150.37,-415.835C1242.66,-412.478 1483.9,-401.099 1558,-372 1637.59,-340.746 1840.03,-162.229 1899.4,-108.987"/>
<polygon fill="midnightblue" stroke="midnightblue" points="1901.99,-111.362 1907.09,-102.073 1897.31,-106.156 1901.99,-111.362"/>
</g>
<!-- Node26 -->
<g id="node26" class="node"><title>Node26</title>
<g id="a_node26"><a xlink:href="Vector_8h.html" target="_top" xlink:title="Represent coordinates. ">
<polygon fill="none" stroke="black" points="808.926,-223 808.926,-241 861.074,-241 861.074,-223 808.926,-223"/>
<text text-anchor="middle" x="835" y="-229" font-family="Helvetica,sans-Serif" font-size="10.00">Vector.h</text>
</a>
</g>
</g>
<!-- Node25&#45;&gt;Node26 -->
<g id="edge39" class="edge"><title>Node25&#45;&gt;Node26</title>
<path fill="none" stroke="midnightblue" d="M1101.65,-408.856C1057.99,-380.059 910.562,-282.833 855.75,-246.685"/>
<polygon fill="midnightblue" stroke="midnightblue" points="857.481,-243.633 847.206,-241.05 853.627,-249.477 857.481,-243.633"/>
</g>
<!-- Node26&#45;&gt;Node6 -->
<g id="edge40" class="edge"><title>Node26&#45;&gt;Node6</title>
<path fill="none" stroke="midnightblue" d="M861.115,-230.984C952.551,-230.578 1257.45,-226.175 1345,-186 1367,-175.907 1362.07,-158.233 1384,-148 1456.06,-114.377 1660.89,-120.045 1740,-112 1783.39,-107.588 1832.79,-102.533 1868.18,-98.9053"/>
<polygon fill="midnightblue" stroke="midnightblue" points="1868.64,-102.376 1878.24,-97.8748 1867.93,-95.4128 1868.64,-102.376"/>
</g>
<!-- Node26&#45;&gt;Node8 -->
<g id="edge41" class="edge"><title>Node26&#45;&gt;Node8</title>
<path fill="none" stroke="midnightblue" d="M808.626,-230.887C703.83,-230.168 320.83,-224.881 285,-186 273.555,-173.58 273.42,-160.294 285,-148 313.378,-117.872 908.084,-100.717 1116,-95.6226"/>
<polygon fill="midnightblue" stroke="midnightblue" points="1116.28,-99.1169 1126.19,-95.3749 1116.11,-92.1189 1116.28,-99.1169"/>
</g>
<!-- Node26&#45;&gt;Node15 -->
<g id="edge42" class="edge"><title>Node26&#45;&gt;Node15</title>
<path fill="none" stroke="midnightblue" d="M861.124,-231.254C940.172,-231.509 1183.37,-228.524 1379,-186 1386.15,-184.446 1393.66,-182.129 1400.63,-179.669"/>
<polygon fill="midnightblue" stroke="midnightblue" points="1402.21,-182.817 1410.35,-176.037 1399.76,-176.26 1402.21,-182.817"/>
</g>
<!-- Node27 -->
<g id="node27" class="node"><title>Node27</title>
<polygon fill="none" stroke="#bfbfbf" points="647.237,-158 647.237,-176 762.763,-176 762.763,-158 647.237,-158"/>
<text text-anchor="middle" x="705" y="-164" font-family="Helvetica,sans-Serif" font-size="10.00">boost/range/begin.hpp</text>
</g>
<!-- Node26&#45;&gt;Node27 -->
<g id="edge43" class="edge"><title>Node26&#45;&gt;Node27</title>
<path fill="none" stroke="midnightblue" d="M818.271,-222.893C796.137,-212.166 756.895,-193.149 730.911,-180.557"/>
<polygon fill="midnightblue" stroke="midnightblue" points="732.19,-177.288 721.665,-176.076 729.137,-183.587 732.19,-177.288"/>
</g>
<!-- Node28 -->
<g id="node28" class="node"><title>Node28</title>
<polygon fill="none" stroke="#bfbfbf" points="781.128,-158 781.128,-176 888.872,-176 888.872,-158 781.128,-158"/>
<text text-anchor="middle" x="835" y="-164" font-family="Helvetica,sans-Serif" font-size="10.00">boost/range/end.hpp</text>
</g>
<!-- Node26&#45;&gt;Node28 -->
<g id="edge44" class="edge"><title>Node26&#45;&gt;Node28</title>
<path fill="none" stroke="midnightblue" d="M835,-222.764C835,-213.564 835,-198.381 835,-186.333"/>
<polygon fill="midnightblue" stroke="midnightblue" points="838.5,-186.039 835,-176.039 831.5,-186.039 838.5,-186.039"/>
</g>
<!-- Node29 -->
<g id="node29" class="node"><title>Node29</title>
<polygon fill="none" stroke="#bfbfbf" points="907.313,-153 907.313,-181 1006.69,-181 1006.69,-153 907.313,-153"/>
<text text-anchor="start" x="915.313" y="-169" font-family="Helvetica,sans-Serif" font-size="10.00">boost/type_traits/is</text>
<text text-anchor="middle" x="957" y="-159" font-family="Helvetica,sans-Serif" font-size="10.00">_convertible.hpp</text>
</g>
<!-- Node26&#45;&gt;Node29 -->
<g id="edge45" class="edge"><title>Node26&#45;&gt;Node29</title>
<path fill="none" stroke="midnightblue" d="M850.949,-222.764C869.082,-213.4 899.213,-197.841 922.734,-185.695"/>
<polygon fill="midnightblue" stroke="midnightblue" points="924.428,-188.759 931.708,-181.061 921.216,-182.539 924.428,-188.759"/>
</g>
<!-- Node30 -->
<g id="node30" class="node"><title>Node30</title>
<polygon fill="none" stroke="#bfbfbf" points="294.251,-158 294.251,-176 389.749,-176 389.749,-158 294.251,-158"/>
<text text-anchor="middle" x="342" y="-164" font-family="Helvetica,sans-Serif" font-size="10.00">boost/mpl/not.hpp</text>
</g>
<!-- Node26&#45;&gt;Node30 -->
<g id="edge46" class="edge"><title>Node26&#45;&gt;Node30</title>
<path fill="none" stroke="midnightblue" d="M808.919,-230.152C740.821,-227.542 552.311,-217.775 399,-186 390.62,-184.263 381.724,-181.777 373.514,-179.205"/>
<polygon fill="midnightblue" stroke="midnightblue" points="374.513,-175.85 363.92,-176.07 372.338,-182.503 374.513,-175.85"/>
</g>
<!-- Node31 -->
<g id="node31" class="node"><title>Node31</title>
<polygon fill="none" stroke="#bfbfbf" points="407.625,-158 407.625,-176 492.375,-176 492.375,-158 407.625,-158"/>
<text text-anchor="middle" x="450" y="-164" font-family="Helvetica,sans-Serif" font-size="10.00">boost/array.hpp</text>
</g>
<!-- Node26&#45;&gt;Node31 -->
<g id="edge47" class="edge"><title>Node26&#45;&gt;Node31</title>
<path fill="none" stroke="midnightblue" d="M808.77,-229.238C752.119,-225.044 614.367,-212.759 502,-186 494.882,-184.305 487.368,-182.013 480.333,-179.633"/>
<polygon fill="midnightblue" stroke="midnightblue" points="481.064,-176.179 470.469,-176.142 478.729,-182.778 481.064,-176.179"/>
</g>
<!-- Node32 -->
<g id="node32" class="node"><title>Node32</title>
<polygon fill="none" stroke="#bfbfbf" points="510.582,-158 510.582,-176 629.418,-176 629.418,-158 510.582,-158"/>
<text text-anchor="middle" x="570" y="-164" font-family="Helvetica,sans-Serif" font-size="10.00">boost/static_assert.hpp</text>
</g>
<!-- Node26&#45;&gt;Node32 -->
<g id="edge48" class="edge"><title>Node26&#45;&gt;Node32</title>
<path fill="none" stroke="midnightblue" d="M808.802,-225.315C770.993,-217.042 698.972,-201.029 638,-186 628.683,-183.703 618.679,-181.121 609.287,-178.644"/>
<polygon fill="midnightblue" stroke="midnightblue" points="609.962,-175.202 599.398,-176.017 608.164,-181.967 609.962,-175.202"/>
</g>
<!-- Node33 -->
<g id="node33" class="node"><title>Node33</title>
<polygon fill="none" stroke="#bfbfbf" points="1063.44,-158 1063.44,-176 1120.56,-176 1120.56,-158 1063.44,-158"/>
<text text-anchor="middle" x="1092" y="-164" font-family="Helvetica,sans-Serif" font-size="10.00">algorithm</text>
</g>
<!-- Node26&#45;&gt;Node33 -->
<g id="edge49" class="edge"><title>Node26&#45;&gt;Node33</title>
<path fill="none" stroke="midnightblue" d="M861.536,-224.495C907.104,-213.325 1000.42,-190.45 1053.26,-177.496"/>
<polygon fill="midnightblue" stroke="midnightblue" points="1054.39,-180.824 1063.26,-175.044 1052.72,-174.026 1054.39,-180.824"/>
</g>
<!-- Node36&#45;&gt;Node5 -->
<g id="edge72" class="edge"><title>Node36&#45;&gt;Node5</title>
<path fill="none" stroke="midnightblue" d="M1626.02,-408.957C1707.64,-395.567 1868.77,-369.132 1933.31,-358.543"/>
<polygon fill="midnightblue" stroke="midnightblue" points="1934.21,-361.943 1943.51,-356.87 1933.07,-355.035 1934.21,-361.943"/>
</g>
<!-- Node36&#45;&gt;Node6 -->
<g id="edge54" class="edge"><title>Node36&#45;&gt;Node6</title>
<path fill="none" stroke="midnightblue" d="M1621.58,-408.931C1664.47,-400.492 1725.57,-386.481 1745,-372 1769.48,-353.751 1873.97,-169.132 1906.38,-111.256"/>
<polygon fill="midnightblue" stroke="midnightblue" points="1909.58,-112.702 1911.4,-102.265 1903.47,-109.287 1909.58,-112.702"/>
</g>
<!-- Node36&#45;&gt;Node18 -->
<g id="edge71" class="edge"><title>Node36&#45;&gt;Node18</title>
<path fill="none" stroke="midnightblue" d="M1526.13,-410.355C1492.85,-404.253 1449.51,-392.857 1416,-372 1396.76,-360.025 1402.09,-344.495 1382,-334 903.379,-83.9099 582.396,-541.619 176,-186 157.805,-170.079 152.574,-142.26 151.429,-121.37"/>
<polygon fill="midnightblue" stroke="midnightblue" points="154.922,-121.079 151.155,-111.176 147.925,-121.267 154.922,-121.079"/>
</g>
<!-- Node36&#45;&gt;Node19 -->
<g id="edge86" class="edge"><title>Node36&#45;&gt;Node19</title>
<path fill="none" stroke="midnightblue" d="M1621.8,-408.948C1677.12,-398.702 1765.48,-381.23 1778,-372 1839.86,-326.402 1817.89,-283.475 1864,-222 1874.58,-207.896 1888.52,-193.597 1899.31,-183.26"/>
<polygon fill="midnightblue" stroke="midnightblue" points="1901.94,-185.592 1906.83,-176.195 1897.15,-180.489 1901.94,-185.592"/>
</g>
<!-- Node36&#45;&gt;Node33 -->
<g id="edge84" class="edge"><title>Node36&#45;&gt;Node33</title>
<path fill="none" stroke="midnightblue" d="M1543.36,-408.961C1517.56,-401.819 1481.79,-389.738 1454,-372 1433.87,-359.15 1435.31,-348.059 1416,-334 1299.34,-249.058 1255.39,-251.888 1127,-186 1123.64,-184.276 1120.1,-182.458 1116.62,-180.667"/>
<polygon fill="midnightblue" stroke="midnightblue" points="1118.17,-177.531 1107.68,-176.07 1114.97,-183.756 1118.17,-177.531"/>
</g>
<!-- Node36&#45;&gt;Node34 -->
<g id="edge85" class="edge"><title>Node36&#45;&gt;Node34</title>
<path fill="none" stroke="midnightblue" d="M1540.61,-408.991C1502.44,-400.437 1440.77,-386.185 1388,-372 1379.94,-369.832 1371.31,-367.346 1363.19,-364.927"/>
<polygon fill="midnightblue" stroke="midnightblue" points="1364.19,-361.571 1353.6,-362.035 1362.16,-368.273 1364.19,-361.571"/>
</g>
<!-- Node37 -->
<g id="node37" class="node"><title>Node37</title>
<g id="a_node37"><a xlink:href="handle_8h.html" target="_top" xlink:title="Handle read/write of Model data from/to files. ">
<polygon fill="none" stroke="black" points="1513.82,-223 1513.82,-241 1568.18,-241 1568.18,-223 1513.82,-223"/>
<text text-anchor="middle" x="1541" y="-229" font-family="Helvetica,sans-Serif" font-size="10.00">handle.h</text>
</a>
</g>
</g>
<!-- Node36&#45;&gt;Node37 -->
<g id="edge55" class="edge"><title>Node36&#45;&gt;Node37</title>
<path fill="none" stroke="midnightblue" d="M1582.64,-408.957C1597.43,-386.772 1634.57,-323.362 1610,-278 1602.09,-263.389 1587.14,-252.772 1573.18,-245.532"/>
<polygon fill="midnightblue" stroke="midnightblue" points="1574.3,-242.19 1563.77,-241.052 1571.29,-248.511 1574.3,-242.19"/>
</g>
<!-- Node38 -->
<g id="node38" class="node"><title>Node38</title>
<g id="a_node38"><a xlink:href="HDF5_2infrastructure__macros_8h.html" target="_top" xlink:title="Various general useful macros for IMP. ">
<polygon fill="none" stroke="black" points="1215.48,-158 1215.48,-176 1336.52,-176 1336.52,-158 1215.48,-158"/>
<text text-anchor="middle" x="1276" y="-164" font-family="Helvetica,sans-Serif" font-size="10.00">infrastructure_macros.h</text>
</a>
</g>
</g>
<!-- Node36&#45;&gt;Node38 -->
<g id="edge70" class="edge"><title>Node36&#45;&gt;Node38</title>
<path fill="none" stroke="midnightblue" d="M1560.45,-408.995C1543.83,-400.659 1517.78,-386.774 1497,-372 1476.21,-357.221 1473.59,-350.334 1454,-334 1403.19,-291.636 1384.31,-288.233 1337,-242 1318.29,-223.713 1299.56,-199.99 1287.89,-184.398"/>
<polygon fill="midnightblue" stroke="midnightblue" points="1290.64,-182.229 1281.89,-176.259 1285.01,-186.385 1290.64,-182.229"/>
</g>
<!-- Node41 -->
<g id="node41" class="node"><title>Node41</title>
<polygon fill="none" stroke="black" points="1682,-335 1682,-371 1736,-371 1736,-335 1682,-335"/>
<text text-anchor="middle" x="1708.51" y="-350" font-family="Helvetica,sans-Serif" font-size="10.00">Node41</text>
</g>
<!-- Node36&#45;&gt;Node41 -->
<g id="edge73" class="edge"><title>Node36&#45;&gt;Node41</title>
<path fill="none" stroke="midnightblue" d="M1593.99,-408.893C1613.71,-399.481 1646.8,-383.685 1672.44,-371.448"/>
<polygon fill="midnightblue" stroke="midnightblue" points="1674,-374.585 1681.51,-367.119 1670.98,-368.267 1674,-374.585"/>
</g>
<!-- Node42 -->
<g id="node42" class="node"><title>Node42</title>
<g id="a_node42"><a xlink:href="HDF5_8h.html" target="_top" xlink:title="A container which has pairs which ensure a set is connected. ">
<polygon fill="none" stroke="red" points="1506.1,-344 1506.1,-362 1549.9,-362 1549.9,-344 1506.1,-344"/>
<text text-anchor="middle" x="1528" y="-350" font-family="Helvetica,sans-Serif" font-size="10.00">hdf5.h</text>
</a>
</g>
</g>
<!-- Node36&#45;&gt;Node42 -->
<g id="edge74" class="edge"><title>Node36&#45;&gt;Node42</title>
<path fill="none" stroke="midnightblue" d="M1565.86,-408.764C1556.28,-399.184 1543.34,-383.119 1535.06,-370.859"/>
<polygon fill="midnightblue" stroke="midnightblue" points="1537.82,-368.678 1529.57,-362.039 1531.88,-372.378 1537.82,-368.678"/>
</g>
<!-- Node37&#45;&gt;Node4 -->
<g id="edge66" class="edge"><title>Node37&#45;&gt;Node4</title>
<path fill="none" stroke="midnightblue" d="M1513.81,-230.548C1455.85,-228.899 1316.4,-221.262 1206,-186 1189.19,-180.632 940.438,-46.5428 925,-38 922.204,-36.4529 919.283,-34.8023 916.399,-33.152"/>
<polygon fill="midnightblue" stroke="midnightblue" points="917.92,-29.9884 907.512,-28.0077 914.413,-36.0466 917.92,-29.9884"/>
</g>
<!-- Node37&#45;&gt;Node6 -->
<g id="edge56" class="edge"><title>Node37&#45;&gt;Node6</title>
<path fill="none" stroke="midnightblue" d="M1568.41,-226.85C1604.13,-220.824 1668.05,-207.909 1719,-186 1748,-173.531 1750.86,-162.296 1779,-148 1812.9,-130.778 1853.65,-115.34 1881.85,-105.426"/>
<polygon fill="midnightblue" stroke="midnightblue" points="1883.34,-108.616 1891.64,-102.031 1881.05,-102.003 1883.34,-108.616"/>
</g>
<!-- Node37&#45;&gt;Node15 -->
<g id="edge63" class="edge"><title>Node37&#45;&gt;Node15</title>
<path fill="none" stroke="midnightblue" d="M1526.36,-222.764C1507.47,-212.141 1474.41,-193.542 1452.11,-181.002"/>
<polygon fill="midnightblue" stroke="midnightblue" points="1453.72,-177.891 1443.29,-176.039 1450.29,-183.992 1453.72,-177.891"/>
</g>
<!-- Node37&#45;&gt;Node17 -->
<g id="edge67" class="edge"><title>Node37&#45;&gt;Node17</title>
<path fill="none" stroke="midnightblue" d="M1568.43,-227.027C1609.01,-220.537 1681.98,-206.319 1698,-186 1714.53,-165.025 1711.19,-132.246 1706.87,-112.002"/>
<polygon fill="midnightblue" stroke="midnightblue" points="1710.25,-111.091 1704.49,-102.199 1703.45,-112.743 1710.25,-111.091"/>
</g>
<!-- Node37&#45;&gt;Node19 -->
<g id="edge68" class="edge"><title>Node37&#45;&gt;Node19</title>
<path fill="none" stroke="midnightblue" d="M1568.27,-226.418C1636.72,-214.918 1815.39,-184.903 1886.34,-172.984"/>
<polygon fill="midnightblue" stroke="midnightblue" points="1887.1,-176.404 1896.38,-171.296 1885.94,-169.501 1887.1,-176.404"/>
</g>
<!-- Node37&#45;&gt;Node33 -->
<g id="edge65" class="edge"><title>Node37&#45;&gt;Node33</title>
<path fill="none" stroke="midnightblue" d="M1513.43,-230.643C1447.14,-229.205 1274.02,-222.004 1135,-186 1129.32,-184.529 1123.41,-182.447 1117.85,-180.219"/>
<polygon fill="midnightblue" stroke="midnightblue" points="1118.93,-176.874 1108.36,-176.15 1116.17,-183.307 1118.93,-176.874"/>
</g>
<!-- Node37&#45;&gt;Node38 -->
<g id="edge57" class="edge"><title>Node37&#45;&gt;Node38</title>
<path fill="none" stroke="midnightblue" d="M1513.64,-224.495C1467.7,-213.574 1374.71,-191.466 1319.66,-178.379"/>
<polygon fill="midnightblue" stroke="midnightblue" points="1320.38,-174.952 1309.84,-176.044 1318.76,-181.763 1320.38,-174.952"/>
</g>
<!-- Node39 -->
<g id="node39" class="node"><title>Node39</title>
<polygon fill="none" stroke="#bfbfbf" points="1520.99,-158 1520.99,-176 1587.01,-176 1587.01,-158 1520.99,-158"/>
<text text-anchor="middle" x="1554" y="-164" font-family="Helvetica,sans-Serif" font-size="10.00">H5Ipublic.h</text>
</g>
<!-- Node37&#45;&gt;Node39 -->
<g id="edge64" class="edge"><title>Node37&#45;&gt;Node39</title>
<path fill="none" stroke="midnightblue" d="M1542.7,-222.764C1544.62,-213.469 1547.8,-198.067 1550.29,-185.961"/>
<polygon fill="midnightblue" stroke="midnightblue" points="1553.75,-186.54 1552.34,-176.039 1546.89,-185.125 1553.75,-186.54"/>
</g>
<!-- Node40 -->
<g id="node40" class="node"><title>Node40</title>
<polygon fill="none" stroke="#bfbfbf" points="1604.62,-158 1604.62,-176 1689.38,-176 1689.38,-158 1604.62,-158"/>
<text text-anchor="middle" x="1647" y="-164" font-family="Helvetica,sans-Serif" font-size="10.00">boost/utility.hpp</text>
</g>
<!-- Node37&#45;&gt;Node40 -->
<g id="edge69" class="edge"><title>Node37&#45;&gt;Node40</title>
<path fill="none" stroke="midnightblue" d="M1554.86,-222.764C1572.65,-212.188 1603.74,-193.708 1624.84,-181.17"/>
<polygon fill="midnightblue" stroke="midnightblue" points="1626.67,-184.157 1633.47,-176.039 1623.09,-178.139 1626.67,-184.157"/>
</g>
<!-- Node38&#45;&gt;Node3 -->
<g id="edge60" class="edge"><title>Node38&#45;&gt;Node3</title>
<path fill="none" stroke="midnightblue" d="M1285.39,-157.781C1297.19,-147.364 1317.97,-128.742 1335,-112 1351.59,-95.6916 1349.88,-83.7487 1371,-74 1440.4,-41.9695 1981.74,-43.2341 2058,-38 2122.61,-33.5653 2198.16,-26.7618 2239.36,-22.9145"/>
<polygon fill="midnightblue" stroke="midnightblue" points="2239.92,-26.3773 2249.55,-21.9577 2239.27,-19.408 2239.92,-26.3773"/>
</g>
<!-- Node38&#45;&gt;Node4 -->
<g id="edge61" class="edge"><title>Node38&#45;&gt;Node4</title>
<path fill="none" stroke="midnightblue" d="M1239.21,-157.922C1205.81,-149.588 1155.96,-134.597 1117,-112 1094.94,-99.2042 1096.62,-85.7866 1074,-74 1013.58,-42.5154 988.228,-63.3691 925,-38 921.605,-36.6378 918.135,-34.9521 914.802,-33.1634"/>
<polygon fill="midnightblue" stroke="midnightblue" points="916.362,-30.0216 905.955,-28.0321 912.85,-36.0769 916.362,-30.0216"/>
</g>
<!-- Node38&#45;&gt;Node8 -->
<g id="edge62" class="edge"><title>Node38&#45;&gt;Node8</title>
<path fill="none" stroke="midnightblue" d="M1265.79,-157.741C1251.04,-145.805 1223.52,-123.547 1205.23,-108.75"/>
<polygon fill="midnightblue" stroke="midnightblue" points="1207.07,-105.731 1197.09,-102.163 1202.66,-111.174 1207.07,-105.731"/>
</g>
<!-- Node38&#45;&gt;Node9 -->
<g id="edge58" class="edge"><title>Node38&#45;&gt;Node9</title>
<path fill="none" stroke="midnightblue" d="M1276.46,-157.965C1277.74,-141.129 1282.55,-101.441 1300,-74 1310.59,-57.345 1328,-43.282 1342.14,-33.6862"/>
<polygon fill="midnightblue" stroke="midnightblue" points="1344.36,-36.4169 1350.85,-28.0432 1340.56,-30.5414 1344.36,-36.4169"/>
</g>
<!-- Node38&#45;&gt;Node10 -->
<g id="edge59" class="edge"><title>Node38&#45;&gt;Node10</title>
<path fill="none" stroke="midnightblue" d="M1278.73,-157.787C1285.41,-139.1 1304.56,-93.514 1338,-74 1366.14,-57.5783 1845.83,-29.781 1984.65,-22.0491"/>
<polygon fill="midnightblue" stroke="midnightblue" points="1985,-25.5351 1994.79,-21.4862 1984.61,-18.5459 1985,-25.5351"/>
</g>
<!-- Node42&#45;&gt;Node36 -->
<g id="edge83" class="edge"><title>Node42&#45;&gt;Node36</title>
<path fill="none" stroke="midnightblue" d="M1538.94,-362.039C1548.57,-371.623 1561.68,-387.894 1570.02,-400.252"/>
<polygon fill="midnightblue" stroke="midnightblue" points="1567.06,-402.131 1575.33,-408.764 1573,-398.426 1567.06,-402.131"/>
</g>
<!-- Node42&#45;&gt;Node37 -->
<g id="edge81" class="edge"><title>Node42&#45;&gt;Node37</title>
<path fill="none" stroke="midnightblue" d="M1512.17,-343.928C1490.44,-332.48 1453.24,-311.43 1446,-298 1441.78,-290.175 1441.25,-285.511 1446,-278 1458.66,-257.988 1482.9,-246.702 1503.72,-240.437"/>
<polygon fill="midnightblue" stroke="midnightblue" points="1504.87,-243.751 1513.6,-237.749 1503.03,-236.997 1504.87,-243.751"/>
</g>
<!-- Node42&#45;&gt;Node38 -->
<g id="edge82" class="edge"><title>Node42&#45;&gt;Node38</title>
<path fill="none" stroke="midnightblue" d="M1513.46,-343.943C1495.54,-333.839 1464.34,-315.687 1439,-298 1383.35,-259.161 1321.78,-207.481 1292.82,-182.602"/>
<polygon fill="midnightblue" stroke="midnightblue" points="1295.09,-179.939 1285.23,-176.057 1290.51,-185.239 1295.09,-179.939"/>
</g>
<!-- Node43 -->
<g id="node43" class="node"><title>Node43</title>
<g id="a_node43"><a xlink:href="ConstAttributes_8h.html" target="_top" xlink:title="Handle read/write of Model data from/to files. ">
<polygon fill="none" stroke="black" points="1454.98,-279 1454.98,-297 1601.02,-297 1601.02,-279 1454.98,-279"/>
<text text-anchor="middle" x="1528" y="-285" font-family="Helvetica,sans-Serif" font-size="10.00">RMF/HDF5/ConstAttributes.h</text>
</a>
</g>
</g>
<!-- Node42&#45;&gt;Node43 -->
<g id="edge75" class="edge"><title>Node42&#45;&gt;Node43</title>
<path fill="none" stroke="midnightblue" d="M1523.27,-343.764C1521.2,-334.469 1520.72,-319.067 1521.84,-306.961"/>
<polygon fill="midnightblue" stroke="midnightblue" points="1525.3,-307.445 1523.31,-297.039 1518.38,-306.415 1525.3,-307.445"/>
</g>
<!-- Node43&#45;&gt;Node6 -->
<g id="edge76" class="edge"><title>Node43&#45;&gt;Node6</title>
<path fill="none" stroke="midnightblue" d="M1551.1,-278.896C1594.09,-263.42 1688.76,-227.482 1763,-186 1788.62,-171.685 1792.08,-163.496 1817,-148 1841.54,-132.739 1870.7,-117.123 1890.99,-106.635"/>
<polygon fill="midnightblue" stroke="midnightblue" points="1892.61,-109.738 1899.91,-102.06 1889.41,-103.51 1892.61,-109.738"/>
</g>
<!-- Node43&#45;&gt;Node36 -->
<g id="edge78" class="edge"><title>Node43&#45;&gt;Node36</title>
<path fill="none" stroke="midnightblue" d="M1534.73,-297.095C1541.57,-305.72 1551.99,-320.029 1558,-334 1567.12,-355.181 1572.18,-381.369 1574.74,-398.596"/>
<polygon fill="midnightblue" stroke="midnightblue" points="1571.33,-399.478 1576.14,-408.919 1578.27,-398.541 1571.33,-399.478"/>
</g>
<!-- Node43&#45;&gt;Node37 -->
<g id="edge77" class="edge"><title>Node43&#45;&gt;Node37</title>
<path fill="none" stroke="midnightblue" d="M1530.03,-278.562C1531.8,-271.228 1534.42,-260.352 1536.65,-251.066"/>
<polygon fill="midnightblue" stroke="midnightblue" points="1540.09,-251.743 1539.03,-241.201 1533.28,-250.104 1540.09,-251.743"/>
</g>
<!-- Node43&#45;&gt;Node38 -->
<g id="edge79" class="edge"><title>Node43&#45;&gt;Node38</title>
<path fill="none" stroke="midnightblue" d="M1510.68,-278.821C1467.33,-258.348 1353.92,-204.796 1302.29,-180.413"/>
<polygon fill="midnightblue" stroke="midnightblue" points="1303.65,-177.184 1293.11,-176.079 1300.66,-183.514 1303.65,-177.184"/>
</g>
<!-- Node43&#45;&gt;Node42 -->
<g id="edge80" class="edge"><title>Node43&#45;&gt;Node42</title>
<path fill="none" stroke="midnightblue" d="M1532.69,-297.039C1534.78,-306.247 1535.28,-321.628 1534.19,-333.781"/>
<polygon fill="midnightblue" stroke="midnightblue" points="1530.71,-333.364 1532.73,-343.764 1537.64,-334.373 1530.71,-333.364"/>
</g>
<!-- Node45&#45;&gt;Node5 -->
<g id="edge97" class="edge"><title>Node45&#45;&gt;Node5</title>
<path fill="none" stroke="midnightblue" d="M1997.51,-408.764C1991.06,-399.089 1980.2,-382.8 1972,-370.496"/>
<polygon fill="midnightblue" stroke="midnightblue" points="1974.82,-368.418 1966.36,-362.039 1968.99,-372.301 1974.82,-368.418"/>
</g>
<!-- Node45&#45;&gt;Node6 -->
<g id="edge96" class="edge"><title>Node45&#45;&gt;Node6</title>
<path fill="none" stroke="midnightblue" d="M2011.78,-408.958C2031.38,-390.077 2077,-340.594 2077,-289 2077,-289 2077,-289 2077,-231 2077,-165.041 1997.65,-124.173 1950.37,-105.674"/>
<polygon fill="midnightblue" stroke="midnightblue" points="1951.4,-102.321 1940.8,-102.065 1948.92,-108.87 1951.4,-102.321"/>
</g>
<!-- Node46&#45;&gt;Node3 -->
<g id="edge105" class="edge"><title>Node46&#45;&gt;Node3</title>
<path fill="none" stroke="midnightblue" d="M2351.25,-278.828C2372.67,-263.63 2415.89,-228.656 2429,-186 2443.62,-138.418 2457.99,-114.464 2429,-74 2399.79,-33.2349 2338.05,-22.8721 2300.68,-20.4601"/>
<polygon fill="midnightblue" stroke="midnightblue" points="2300.54,-16.9492 2290.38,-19.9566 2300.2,-23.9408 2300.54,-16.9492"/>
</g>
<!-- Node46&#45;&gt;Node6 -->
<g id="edge99" class="edge"><title>Node46&#45;&gt;Node6</title>
<path fill="none" stroke="midnightblue" d="M2338.35,-278.769C2335.96,-254.352 2325.34,-181.918 2282,-148 2233.46,-110.008 2051.95,-98.63 1964.16,-95.3148"/>
<polygon fill="midnightblue" stroke="midnightblue" points="1964.05,-91.8088 1953.93,-94.9492 1963.8,-98.8043 1964.05,-91.8088"/>
</g>
<!-- Node46&#45;&gt;Node10 -->
<g id="edge106" class="edge"><title>Node46&#45;&gt;Node10</title>
<path fill="none" stroke="midnightblue" d="M2345.36,-278.89C2368.7,-248.11 2445.51,-137.07 2391,-74 2369.44,-49.0567 2148.59,-29.6206 2059.23,-22.7186"/>
<polygon fill="midnightblue" stroke="midnightblue" points="2059.49,-19.2285 2049.25,-21.9582 2058.96,-26.2082 2059.49,-19.2285"/>
</g>
<!-- Node47 -->
<g id="node47" class="node"><title>Node47</title>
<g id="a_node47"><a xlink:href="Enum_8h.html" target="_top" xlink:title="Declaration of RMF::Enum. ">
<polygon fill="none" stroke="black" points="2180.77,-223 2180.77,-241 2231.23,-241 2231.23,-223 2180.77,-223"/>
<text text-anchor="middle" x="2206" y="-229" font-family="Helvetica,sans-Serif" font-size="10.00">Enum.h</text>
</a>
</g>
</g>
<!-- Node46&#45;&gt;Node47 -->
<g id="edge100" class="edge"><title>Node46&#45;&gt;Node47</title>
<path fill="none" stroke="midnightblue" d="M2319.09,-278.916C2296.95,-269.929 2260.98,-255.322 2235.56,-245"/>
<polygon fill="midnightblue" stroke="midnightblue" points="2236.63,-241.659 2226.05,-241.14 2234,-248.144 2236.63,-241.659"/>
</g>
<!-- Node47&#45;&gt;Node6 -->
<g id="edge101" class="edge"><title>Node47&#45;&gt;Node6</title>
<path fill="none" stroke="midnightblue" d="M2204.65,-222.917C2201.41,-206.148 2191.55,-167.519 2167,-148 2136.1,-123.431 2027.78,-107.008 1963.98,-99.2216"/>
<polygon fill="midnightblue" stroke="midnightblue" points="1964.11,-95.7116 1953.76,-98.0015 1963.28,-102.662 1964.11,-95.7116"/>
</g>
<!-- Node47&#45;&gt;Node8 -->
<g id="edge102" class="edge"><title>Node47&#45;&gt;Node8</title>
<path fill="none" stroke="midnightblue" d="M2186.37,-222.953C2143.34,-205.719 2037.1,-165.4 1944,-148 1693.17,-101.121 1625.35,-132.425 1371,-112 1333.74,-109.008 1292.31,-105.013 1258.2,-101.548"/>
<polygon fill="midnightblue" stroke="midnightblue" points="1258.17,-98.0261 1247.87,-100.491 1257.46,-104.99 1258.17,-98.0261"/>
</g>
<!-- Node47&#45;&gt;Node15 -->
<g id="edge103" class="edge"><title>Node47&#45;&gt;Node15</title>
<path fill="none" stroke="midnightblue" d="M2180.65,-230.715C2089.71,-229.406 1771.47,-222.342 1512,-186 1498.39,-184.093 1483.68,-181.188 1470.48,-178.264"/>
<polygon fill="midnightblue" stroke="midnightblue" points="1471.25,-174.85 1460.73,-176.041 1469.7,-181.675 1471.25,-174.85"/>
</g>
<!-- Node48 -->
<g id="node48" class="node"><title>Node48</title>
<polygon fill="none" stroke="black" points="2219,-149 2219,-185 2273,-185 2273,-149 2219,-149"/>
<text text-anchor="middle" x="2245.51" y="-164" font-family="Helvetica,sans-Serif" font-size="10.00">Node48</text>
</g>
<!-- Node47&#45;&gt;Node48 -->
<g id="edge104" class="edge"><title>Node47&#45;&gt;Node48</title>
<path fill="none" stroke="midnightblue" d="M2211.23,-222.764C2215.96,-215.311 2223.18,-203.934 2229.82,-193.477"/>
<polygon fill="midnightblue" stroke="midnightblue" points="2232.79,-195.333 2235.2,-185.015 2226.88,-191.581 2232.79,-195.333"/>
</g>
<!-- Node49&#45;&gt;Node5 -->
<g id="edge109" class="edge"><title>Node49&#45;&gt;Node5</title>
<path fill="none" stroke="midnightblue" d="M1774.63,-529.856C1804.77,-501.416 1905.64,-406.233 1945.04,-369.057"/>
<polygon fill="midnightblue" stroke="midnightblue" points="1947.6,-371.458 1952.47,-362.05 1942.79,-366.367 1947.6,-371.458"/>
</g>
<!-- Node49&#45;&gt;Node6 -->
<g id="edge108" class="edge"><title>Node49&#45;&gt;Node6</title>
<path fill="none" stroke="midnightblue" d="M1800.75,-531.268C1858.48,-518.766 1975.83,-487.645 2057,-428 2090.67,-403.256 2115,-395.787 2115,-354 2115,-354 2115,-354 2115,-231 2115,-157.845 2022.63,-120.78 1963.76,-104.585"/>
<polygon fill="midnightblue" stroke="midnightblue" points="1964.46,-101.151 1953.9,-101.981 1962.67,-107.919 1964.46,-101.151"/>
</g>
<!-- Node49&#45;&gt;Node8 -->
<g id="edge111" class="edge"><title>Node49&#45;&gt;Node8</title>
<path fill="none" stroke="midnightblue" d="M1731.27,-531.071C1648.02,-513.479 1432.21,-461.987 1273,-372 1161.83,-309.165 1107.62,-301.897 1054,-186 1046.91,-170.672 1044.57,-162.01 1054,-148 1069.05,-125.644 1095.12,-112.54 1120.21,-104.86"/>
<polygon fill="midnightblue" stroke="midnightblue" points="1121.44,-108.15 1130.13,-102.079 1119.55,-101.41 1121.44,-108.15"/>
</g>
<!-- Node49&#45;&gt;Node24 -->
<g id="edge110" class="edge"><title>Node49&#45;&gt;Node24</title>
<path fill="none" stroke="midnightblue" d="M1758.03,-529.764C1748.38,-519.805 1731.95,-502.836 1719.93,-490.421"/>
<polygon fill="midnightblue" stroke="midnightblue" points="1722.25,-487.789 1712.78,-483.039 1717.23,-492.658 1722.25,-487.789"/>
</g>
</g>
</svg>
