<?xml version="1.0" encoding="UTF-8" standalone="no"?>
<!DOCTYPE svg PUBLIC "-//W3C//DTD SVG 1.1//EN"
 "http://www.w3.org/Graphics/SVG/1.1/DTD/svg11.dtd">
<!-- Generated by graphviz version 2.34.0 (20131025.1349)
 -->
<!-- Title: Nullable.h Pages: 1 -->
<!--zoomable 378 -->
<svg id="main" version="1.1" xmlns="http://www.w3.org/2000/svg" xmlns:xlink="http://www.w3.org/1999/xlink" xml:space="preserve" onload="init(evt)">
<style type="text/css"><![CDATA[
.edge:hover path { stroke: red; }
.edge:hover polygon { stroke: red; fill: red; }
]]></style>
<script type="text/javascript"><![CDATA[
var edges = document.getElementsByTagName('g');
if (edges && edges.length) {
  for (var i=0;i<edges.length;i++) {
    if (edges[i].id.substr(0,4)=='edge') {
      edges[i].setAttribute('class','edge');
    }
  }
}
]]></script>
        <defs>
                <circle id="rim" cx="0" cy="0" r="7"/>
                <circle id="rim2" cx="0" cy="0" r="3.5"/>
                <g id="zoomPlus">
                        <use xlink:href="#rim" fill="#404040">
                                <set attributeName="fill" to="#808080" begin="zoomplus.mouseover" end="zoomplus.mouseout"/>
                        </use>
                        <path d="M-4,0h8M0,-4v8" fill="none" stroke="white" stroke-width="1.5" pointer-events="none"/>
                </g>
                <g id="zoomMin">
                        <use xlink:href="#rim" fill="#404040">
                                <set attributeName="fill" to="#808080" begin="zoomminus.mouseover" end="zoomminus.mouseout"/>
                        </use>
                        <path d="M-4,0h8" fill="none" stroke="white" stroke-width="1.5" pointer-events="none"/>
                </g>
                <g id="dirArrow">
                        <path fill="none" stroke="white" stroke-width="1.5" d="M0,-3.0v7 M-2.5,-0.5L0,-3.0L2.5,-0.5"/>
                </g>
               <g id="resetDef">
                       <use xlink:href="#rim2" fill="#404040">
                               <set attributeName="fill" to="#808080" begin="reset.mouseover" end="reset.mouseout"/>
                       </use>
               </g>
        </defs>

<script type="text/javascript">
var viewWidth = 1384;
var viewHeight = 378;
var sectionId = 'dynsection-1';
</script>
<script xlink:href="svgpan.js"/>
<svg id="graph" class="graph">
<g id="viewport">
<title>Nullable.h</title>
<!-- Node1 -->
<g id="node1" class="node"><title>Node1</title>
<polygon fill="#bfbfbf" stroke="black" points="683.764,-349 683.764,-369 744.236,-369 744.236,-349 683.764,-349"/>
<text text-anchor="middle" x="714" y="-355" font-family="Helvetica,sans-Serif" font-size="10.00">Nullable.h</text>
</g>
<!-- Node2 -->
<g id="node2" class="node"><title>Node2</title>
<g id="a_node2"><a xlink:href="NodeConstHandle_8h.html" target="_top" xlink:title="Handle read/write of Model data from/to files. ">
<polygon fill="none" stroke="black" points="596.971,-291 596.971,-311 703.029,-311 703.029,-291 596.971,-291"/>
<text text-anchor="middle" x="650" y="-297" font-family="Helvetica,sans-Serif" font-size="10.00">NodeConstHandle.h</text>
</a>
</g>
</g>
<!-- Node1&#45;&gt;Node2 -->
<g id="edge1" class="edge"><title>Node1&#45;&gt;Node2</title>
<path fill="none" stroke="midnightblue" d="M695.711,-341.997C684.254,-331.972 669.905,-319.417 660.372,-311.075"/>
<polygon fill="midnightblue" stroke="midnightblue" points="693.601,-344.802 703.432,-348.753 698.211,-339.534 693.601,-344.802"/>
</g>
<!-- Node16 -->
<g id="node16" class="node"><title>Node16</title>
<g id="a_node16"><a xlink:href="NodeHandle_8h.html" target="_top" xlink:title="Handle read/write of Model data from/to files. ">
<polygon fill="none" stroke="black" points="785.032,-233 785.032,-253 864.968,-253 864.968,-233 785.032,-233"/>
<text text-anchor="middle" x="825" y="-239" font-family="Helvetica,sans-Serif" font-size="10.00">NodeHandle.h</text>
</a>
</g>
</g>
<!-- Node1&#45;&gt;Node16 -->
<g id="edge63" class="edge"><title>Node1&#45;&gt;Node16</title>
<path fill="none" stroke="midnightblue" d="M730.335,-341.223C754.119,-316.797 797.47,-272.274 816.101,-253.139"/>
<polygon fill="midnightblue" stroke="midnightblue" points="727.552,-339.064 723.084,-348.671 732.567,-343.948 727.552,-339.064"/>
</g>
<!-- Node3 -->
<g id="node3" class="node"><title>Node3</title>
<g id="a_node3"><a xlink:href="Decorator_8h.html" target="_top" xlink:title="Helper functions for manipulating RMF files. ">
<polygon fill="none" stroke="black" points="955.15,-175 955.15,-195 1022.85,-195 1022.85,-175 955.15,-175"/>
<text text-anchor="middle" x="989" y="-181" font-family="Helvetica,sans-Serif" font-size="10.00">Decorator.h</text>
</a>
</g>
</g>
<!-- Node2&#45;&gt;Node3 -->
<g id="edge2" class="edge"><title>Node2&#45;&gt;Node3</title>
<path fill="none" stroke="midnightblue" d="M713.221,-292.572C758.74,-285.889 821.026,-273.969 873,-254 913.313,-238.511 955.94,-209.897 976.484,-195.216"/>
<polygon fill="midnightblue" stroke="midnightblue" points="712.6,-289.125 703.193,-294 713.587,-296.055 712.6,-289.125"/>
</g>
<!-- Node7 -->
<g id="node7" class="node"><title>Node7</title>
<g id="a_node7"><a xlink:href="benchmark__rmf_8cpp_source.html" target="_top" xlink:title="benchmark_rmf.cpp">
<polygon fill="none" stroke="black" points="455.815,-1 455.815,-21 560.185,-21 560.185,-1 455.815,-1"/>
<text text-anchor="middle" x="508" y="-7" font-family="Helvetica,sans-Serif" font-size="10.00">benchmark_rmf.cpp</text>
</a>
</g>
</g>
<!-- Node2&#45;&gt;Node7 -->
<g id="edge62" class="edge"><title>Node2&#45;&gt;Node7</title>
<path fill="none" stroke="midnightblue" d="M586.572,-296.9C470.48,-290.78 228.287,-275.819 147,-254 77.476,-235.339 0,-257.985 0,-186 0,-186 0,-186 0,-126 0,-33.3524 325.755,-15.9832 455.548,-12.7396"/>
<polygon fill="midnightblue" stroke="midnightblue" points="586.562,-300.404 596.731,-297.43 586.927,-293.414 586.562,-300.404"/>
</g>
<!-- Node2&#45;&gt;Node16 -->
<g id="edge26" class="edge"><title>Node2&#45;&gt;Node16</title>
<path fill="none" stroke="midnightblue" d="M688.193,-287.778C720.928,-277.303 767.332,-262.454 796.796,-253.025"/>
<polygon fill="midnightblue" stroke="midnightblue" points="686.964,-284.497 678.506,-290.878 689.097,-291.164 686.964,-284.497"/>
</g>
<!-- Node18 -->
<g id="node18" class="node"><title>Node18</title>
<g id="a_node18"><a xlink:href="validate_8h.html" target="_top" xlink:title="Handle read/write of Model data from/to files. ">
<polygon fill="none" stroke="black" points="402.596,-117 402.596,-137 461.404,-137 461.404,-117 402.596,-117"/>
<text text-anchor="middle" x="432" y="-123" font-family="Helvetica,sans-Serif" font-size="10.00">validate.h</text>
</a>
</g>
</g>
<!-- Node2&#45;&gt;Node18 -->
<g id="edge61" class="edge"><title>Node2&#45;&gt;Node18</title>
<path fill="none" stroke="midnightblue" d="M586.565,-297.984C454.29,-292.294 156.197,-271.227 95,-196 88.8297,-188.415 88.5706,-181.367 95,-174 134.896,-128.288 327.897,-126.324 402.49,-127.327"/>
<polygon fill="midnightblue" stroke="midnightblue" points="586.422,-301.481 596.559,-298.398 586.712,-294.487 586.422,-301.481"/>
</g>
<!-- Node19 -->
<g id="node19" class="node"><title>Node19</title>
<g id="a_node19"><a xlink:href="FileConstHandle_8h.html" target="_top" xlink:title="Handle read/write of Model data from/to files. ">
<polygon fill="none" stroke="black" points="382.867,-233 382.867,-253 481.133,-253 481.133,-233 382.867,-233"/>
<text text-anchor="middle" x="432" y="-239" font-family="Helvetica,sans-Serif" font-size="10.00">FileConstHandle.h</text>
</a>
</g>
</g>
<!-- Node2&#45;&gt;Node19 -->
<g id="edge52" class="edge"><title>Node2&#45;&gt;Node19</title>
<path fill="none" stroke="midnightblue" d="M604.776,-288.383C563.895,-277.881 504.55,-262.637 467.134,-253.025"/>
<polygon fill="midnightblue" stroke="midnightblue" points="603.933,-291.78 614.489,-290.878 605.675,-285 603.933,-291.78"/>
</g>
<!-- Node24 -->
<g id="node24" class="node"><title>Node24</title>
<g id="a_node24"><a xlink:href="utility_8h.html" target="_top" xlink:title="Helper functions for manipulating RMF files. ">
<polygon fill="none" stroke="black" points="626.807,-233 626.807,-253 673.193,-253 673.193,-233 626.807,-233"/>
<text text-anchor="middle" x="650" y="-239" font-family="Helvetica,sans-Serif" font-size="10.00">utility.h</text>
</a>
</g>
</g>
<!-- Node2&#45;&gt;Node24 -->
<g id="edge60" class="edge"><title>Node2&#45;&gt;Node24</title>
<path fill="none" stroke="midnightblue" d="M650,-280.707C650,-271.338 650,-260.526 650,-253.075"/>
<polygon fill="midnightblue" stroke="midnightblue" points="646.5,-280.753 650,-290.753 653.5,-280.753 646.5,-280.753"/>
</g>
<!-- Node4 -->
<g id="node4" class="node"><title>Node4</title>
<g id="a_node4"><a xlink:href="alias_8h.html" target="_top" xlink:title="Helper functions for manipulating RMF files. ">
<polygon fill="none" stroke="black" points="700.547,-117 700.547,-137 745.453,-137 745.453,-117 700.547,-117"/>
<text text-anchor="middle" x="723" y="-123" font-family="Helvetica,sans-Serif" font-size="10.00">alias.h</text>
</a>
</g>
</g>
<!-- Node3&#45;&gt;Node4 -->
<g id="edge3" class="edge"><title>Node3&#45;&gt;Node4</title>
<path fill="none" stroke="midnightblue" d="M944.908,-176.979C897.42,-169.044 819.815,-154.993 754,-138 751.262,-137.293 748.411,-136.481 745.596,-135.631"/>
<polygon fill="midnightblue" stroke="midnightblue" points="944.422,-180.446 954.859,-178.626 945.565,-173.54 944.422,-180.446"/>
</g>
<!-- Node6 -->
<g id="node6" class="node"><title>Node6</title>
<g id="a_node6"><a xlink:href="physics_8h.html" target="_top" xlink:title="Helper functions for manipulating RMF files. ">
<polygon fill="none" stroke="black" points="585.158,-59 585.158,-79 642.842,-79 642.842,-59 585.158,-59"/>
<text text-anchor="middle" x="614" y="-65" font-family="Helvetica,sans-Serif" font-size="10.00">physics.h</text>
</a>
</g>
</g>
<!-- Node3&#45;&gt;Node6 -->
<g id="edge12" class="edge"><title>Node3&#45;&gt;Node6</title>
<path fill="none" stroke="midnightblue" d="M1005.91,-167.15C1018.77,-152.297 1032.2,-130.781 1019,-116 993.962,-87.9573 731.434,-74.7745 642.938,-71.1041"/>
<polygon fill="midnightblue" stroke="midnightblue" points="1003.21,-164.911 998.992,-174.63 1008.35,-169.662 1003.21,-164.911"/>
</g>
<!-- Node8 -->
<g id="node8" class="node"><title>Node8</title>
<g id="a_node8"><a xlink:href="external_8h.html" target="_top" xlink:title="Helper functions for manipulating RMF files. ">
<polygon fill="none" stroke="black" points="1067.04,-117 1067.04,-137 1126.96,-137 1126.96,-117 1067.04,-117"/>
<text text-anchor="middle" x="1097" y="-123" font-family="Helvetica,sans-Serif" font-size="10.00">external.h</text>
</a>
</g>
</g>
<!-- Node3&#45;&gt;Node8 -->
<g id="edge8" class="edge"><title>Node3&#45;&gt;Node8</title>
<path fill="none" stroke="midnightblue" d="M1015.72,-170.144C1035.63,-159.823 1062.24,-146.025 1079.5,-137.075"/>
<polygon fill="midnightblue" stroke="midnightblue" points="1014.1,-167.042 1006.83,-174.753 1017.32,-173.257 1014.1,-167.042"/>
</g>
<!-- Node9 -->
<g id="node9" class="node"><title>Node9</title>
<g id="a_node9"><a xlink:href="feature_8h.html" target="_top" xlink:title="Helper functions for manipulating RMF files. ">
<polygon fill="none" stroke="black" points="955.264,-117 955.264,-137 1010.74,-137 1010.74,-117 955.264,-117"/>
<text text-anchor="middle" x="983" y="-123" font-family="Helvetica,sans-Serif" font-size="10.00">feature.h</text>
</a>
</g>
</g>
<!-- Node3&#45;&gt;Node9 -->
<g id="edge10" class="edge"><title>Node3&#45;&gt;Node9</title>
<path fill="none" stroke="midnightblue" d="M986.933,-164.707C985.929,-155.338 984.771,-144.526 983.972,-137.075"/>
<polygon fill="midnightblue" stroke="midnightblue" points="983.464,-165.183 988.009,-174.753 990.424,-164.437 983.464,-165.183"/>
</g>
<!-- Node10 -->
<g id="node10" class="node"><title>Node10</title>
<g id="a_node10"><a xlink:href="publication_8h.html" target="_top" xlink:title="Helper functions for manipulating RMF files. ">
<polygon fill="none" stroke="black" points="1302.92,-117 1302.92,-137 1375.08,-137 1375.08,-117 1302.92,-117"/>
<text text-anchor="middle" x="1339" y="-123" font-family="Helvetica,sans-Serif" font-size="10.00">publication.h</text>
</a>
</g>
</g>
<!-- Node3&#45;&gt;Node10 -->
<g id="edge13" class="edge"><title>Node3&#45;&gt;Node10</title>
<path fill="none" stroke="midnightblue" d="M1033.14,-178.316C1092.6,-170.437 1201.63,-155.208 1294,-138 1296.83,-137.472 1299.76,-136.895 1302.69,-136.293"/>
<polygon fill="midnightblue" stroke="midnightblue" points="1032.44,-174.878 1022.98,-179.655 1033.35,-181.818 1032.44,-174.878"/>
</g>
<!-- Node11 -->
<g id="node11" class="node"><title>Node11</title>
<g id="a_node11"><a xlink:href="sequence_8h.html" target="_top" xlink:title="Helper functions for manipulating RMF files. ">
<polygon fill="none" stroke="black" points="763.146,-117 763.146,-137 830.854,-137 830.854,-117 763.146,-117"/>
<text text-anchor="middle" x="797" y="-123" font-family="Helvetica,sans-Serif" font-size="10.00">sequence.h</text>
</a>
</g>
</g>
<!-- Node3&#45;&gt;Node11 -->
<g id="edge15" class="edge"><title>Node3&#45;&gt;Node11</title>
<path fill="none" stroke="midnightblue" d="M948.023,-172.048C912.061,-161.56 860.549,-146.535 827.944,-137.025"/>
<polygon fill="midnightblue" stroke="midnightblue" points="947.145,-175.438 957.725,-174.878 949.105,-168.718 947.145,-175.438"/>
</g>
<!-- Node12 -->
<g id="node12" class="node"><title>Node12</title>
<g id="a_node12"><a xlink:href="shape_8h.html" target="_top" xlink:title="Helper functions for manipulating RMF files. ">
<polygon fill="none" stroke="black" points="631.207,-117 631.207,-137 682.793,-137 682.793,-117 631.207,-117"/>
<text text-anchor="middle" x="657" y="-123" font-family="Helvetica,sans-Serif" font-size="10.00">shape.h</text>
</a>
</g>
</g>
<!-- Node3&#45;&gt;Node12 -->
<g id="edge18" class="edge"><title>Node3&#45;&gt;Node12</title>
<path fill="none" stroke="midnightblue" d="M944.924,-178.917C886.648,-171.801 780.945,-157.515 692,-138 689.037,-137.35 685.955,-136.592 682.902,-135.79"/>
<polygon fill="midnightblue" stroke="midnightblue" points="944.546,-182.397 954.894,-180.121 945.385,-175.448 944.546,-182.397"/>
</g>
<!-- Node13 -->
<g id="node13" class="node"><title>Node13</title>
<g id="a_node13"><a xlink:href="bond_8h.html" target="_top" xlink:title="Helper functions for manipulating RMF files. ">
<polygon fill="none" stroke="black" points="1238.71,-117 1238.71,-137 1285.29,-137 1285.29,-117 1238.71,-117"/>
<text text-anchor="middle" x="1262" y="-123" font-family="Helvetica,sans-Serif" font-size="10.00">bond.h</text>
</a>
</g>
</g>
<!-- Node3&#45;&gt;Node13 -->
<g id="edge20" class="edge"><title>Node3&#45;&gt;Node13</title>
<path fill="none" stroke="midnightblue" d="M1033.15,-176.966C1081.53,-168.928 1161.27,-154.705 1229,-138 1232.14,-137.226 1235.42,-136.333 1238.65,-135.407"/>
<polygon fill="midnightblue" stroke="midnightblue" points="1032.32,-173.555 1023.03,-178.634 1033.46,-180.462 1032.32,-173.555"/>
</g>
<!-- Node14 -->
<g id="node14" class="node"><title>Node14</title>
<g id="a_node14"><a xlink:href="representation_8h.html" target="_top" xlink:title="Helper functions for manipulating RMF files. ">
<polygon fill="none" stroke="black" points="848.865,-117 848.865,-137 937.135,-137 937.135,-117 848.865,-117"/>
<text text-anchor="middle" x="893" y="-123" font-family="Helvetica,sans-Serif" font-size="10.00">representation.h</text>
</a>
</g>
</g>
<!-- Node3&#45;&gt;Node14 -->
<g id="edge22" class="edge"><title>Node3&#45;&gt;Node14</title>
<path fill="none" stroke="midnightblue" d="M964.037,-169.438C946.487,-159.201 923.552,-145.822 908.557,-137.075"/>
<polygon fill="midnightblue" stroke="midnightblue" points="962.746,-172.737 973.148,-174.753 966.273,-166.691 962.746,-172.737"/>
</g>
<!-- Node15 -->
<g id="node15" class="node"><title>Node15</title>
<g id="a_node15"><a xlink:href="alternatives_8h.html" target="_top" xlink:title="Helper functions for manipulating RMF files. ">
<polygon fill="none" stroke="black" points="1145.26,-117 1145.26,-137 1220.74,-137 1220.74,-117 1145.26,-117"/>
<text text-anchor="middle" x="1183" y="-123" font-family="Helvetica,sans-Serif" font-size="10.00">alternatives.h</text>
</a>
</g>
</g>
<!-- Node3&#45;&gt;Node15 -->
<g id="edge24" class="edge"><title>Node3&#45;&gt;Node15</title>
<path fill="none" stroke="midnightblue" d="M1030.4,-172.048C1066.74,-161.56 1118.79,-146.535 1151.73,-137.025"/>
<polygon fill="midnightblue" stroke="midnightblue" points="1029.24,-168.742 1020.6,-174.878 1031.18,-175.467 1029.24,-168.742"/>
</g>
<!-- Node5 -->
<g id="node5" class="node"><title>Node5</title>
<g id="a_node5"><a xlink:href="decorators_8h.html" target="_top" xlink:title="Import all the decorators headers. ">
<polygon fill="none" stroke="black" points="902.207,-1 902.207,-21 973.793,-21 973.793,-1 902.207,-1"/>
<text text-anchor="middle" x="938" y="-7" font-family="Helvetica,sans-Serif" font-size="10.00">decorators.h</text>
</a>
</g>
</g>
<!-- Node4&#45;&gt;Node5 -->
<g id="edge4" class="edge"><title>Node4&#45;&gt;Node5</title>
<path fill="none" stroke="midnightblue" d="M749.114,-112.108C774.975,-98.3543 815.71,-76.7035 851,-58 875.154,-45.1985 903.1,-30.4301 920.663,-21.1541"/>
<polygon fill="midnightblue" stroke="midnightblue" points="747.158,-109.184 739.972,-116.97 750.445,-115.364 747.158,-109.184"/>
</g>
<!-- Node4&#45;&gt;Node6 -->
<g id="edge5" class="edge"><title>Node4&#45;&gt;Node6</title>
<path fill="none" stroke="midnightblue" d="M696.03,-112.144C675.941,-101.823 649.083,-88.0245 631.664,-79.0752"/>
<polygon fill="midnightblue" stroke="midnightblue" points="694.507,-115.296 705.001,-116.753 697.706,-109.07 694.507,-115.296"/>
</g>
<!-- Node6&#45;&gt;Node5 -->
<g id="edge6" class="edge"><title>Node6&#45;&gt;Node5</title>
<path fill="none" stroke="midnightblue" d="M653.022,-60.7049C658.06,-59.7833 663.151,-58.862 668,-58 751.801,-43.1028 850.417,-26.5487 902.158,-17.9381"/>
<polygon fill="midnightblue" stroke="midnightblue" points="652.052,-57.3246 642.851,-62.5779 653.32,-64.2089 652.052,-57.3246"/>
</g>
<!-- Node6&#45;&gt;Node7 -->
<g id="edge7" class="edge"><title>Node6&#45;&gt;Node7</title>
<path fill="none" stroke="midnightblue" d="M587.506,-54.0034C568,-43.6979 542.041,-29.9841 525.178,-21.0752"/>
<polygon fill="midnightblue" stroke="midnightblue" points="586.019,-57.1762 596.496,-58.7527 589.289,-50.9868 586.019,-57.1762"/>
</g>
<!-- Node8&#45;&gt;Node5 -->
<g id="edge9" class="edge"><title>Node8&#45;&gt;Node5</title>
<path fill="none" stroke="midnightblue" d="M1076.09,-111.007C1042.67,-87.0434 978.188,-40.8138 950.804,-21.1799"/>
<polygon fill="midnightblue" stroke="midnightblue" points="1074.09,-113.881 1084.26,-116.864 1078.17,-108.192 1074.09,-113.881"/>
</g>
<!-- Node9&#45;&gt;Node5 -->
<g id="edge11" class="edge"><title>Node9&#45;&gt;Node5</title>
<path fill="none" stroke="midnightblue" d="M975.607,-107.271C965.826,-82.4914 948.964,-39.7752 941.608,-21.1394"/>
<polygon fill="midnightblue" stroke="midnightblue" points="972.39,-108.654 979.317,-116.671 978.901,-106.084 972.39,-108.654"/>
</g>
<!-- Node10&#45;&gt;Node5 -->
<g id="edge14" class="edge"><title>Node10&#45;&gt;Node5</title>
<path fill="none" stroke="midnightblue" d="M1301.56,-113.876C1257.74,-99.8241 1182.89,-76.2624 1118,-58 1068.32,-44.0186 1010.43,-29.5452 973.996,-20.6563"/>
<polygon fill="midnightblue" stroke="midnightblue" points="1300.63,-117.252 1311.22,-116.979 1302.77,-110.587 1300.63,-117.252"/>
</g>
<!-- Node11&#45;&gt;Node5 -->
<g id="edge16" class="edge"><title>Node11&#45;&gt;Node5</title>
<path fill="none" stroke="midnightblue" d="M816.581,-110.169C846.52,-85.9628 902.72,-40.5239 926.696,-21.1394"/>
<polygon fill="midnightblue" stroke="midnightblue" points="814.114,-107.662 808.539,-116.671 818.515,-113.105 814.114,-107.662"/>
</g>
<!-- Node11&#45;&gt;Node7 -->
<g id="edge17" class="edge"><title>Node11&#45;&gt;Node7</title>
<path fill="none" stroke="midnightblue" d="M770.27,-112.32C741.322,-97.798 693.569,-74.6849 651,-58 613.486,-43.2963 569.168,-29.5858 539.922,-21.0252"/>
<polygon fill="midnightblue" stroke="midnightblue" points="768.827,-115.513 779.332,-116.894 771.982,-109.264 768.827,-115.513"/>
</g>
<!-- Node12&#45;&gt;Node5 -->
<g id="edge19" class="edge"><title>Node12&#45;&gt;Node5</title>
<path fill="none" stroke="midnightblue" d="M685.11,-112.63C715.405,-98.4086 765.18,-75.5834 809,-58 843.645,-44.0981 884.314,-29.9465 910.588,-21.0802"/>
<polygon fill="midnightblue" stroke="midnightblue" points="683.544,-109.499 675.99,-116.928 686.528,-115.831 683.544,-109.499"/>
</g>
<!-- Node13&#45;&gt;Node5 -->
<g id="edge21" class="edge"><title>Node13&#45;&gt;Node5</title>
<path fill="none" stroke="midnightblue" d="M1228.61,-113.575C1191.27,-99.7463 1128.95,-76.8634 1075,-58 1037.22,-44.7921 993.339,-30.1859 965.621,-21.0509"/>
<polygon fill="midnightblue" stroke="midnightblue" points="1227.86,-117.029 1238.45,-117.224 1230.29,-110.466 1227.86,-117.029"/>
</g>
<!-- Node14&#45;&gt;Node5 -->
<g id="edge23" class="edge"><title>Node14&#45;&gt;Node5</title>
<path fill="none" stroke="midnightblue" d="M900.393,-107.271C910.174,-82.4914 927.036,-39.7752 934.392,-21.1394"/>
<polygon fill="midnightblue" stroke="midnightblue" points="897.099,-106.084 896.683,-116.671 903.61,-108.654 897.099,-106.084"/>
</g>
<!-- Node15&#45;&gt;Node5 -->
<g id="edge25" class="edge"><title>Node15&#45;&gt;Node5</title>
<path fill="none" stroke="midnightblue" d="M1154.29,-112.642C1103.79,-89.1448 1000.36,-41.0173 957.389,-21.0217"/>
<polygon fill="midnightblue" stroke="midnightblue" points="1152.82,-115.818 1163.36,-116.864 1155.77,-109.472 1152.82,-115.818"/>
</g>
<!-- Node16&#45;&gt;Node3 -->
<g id="edge27" class="edge"><title>Node16&#45;&gt;Node3</title>
<path fill="none" stroke="midnightblue" d="M861.189,-229.643C891.844,-219.175 935.076,-204.413 962.569,-195.025"/>
<polygon fill="midnightblue" stroke="midnightblue" points="860.047,-226.334 851.714,-232.878 862.309,-232.959 860.047,-226.334"/>
</g>
<!-- Node16&#45;&gt;Node4 -->
<g id="edge28" class="edge"><title>Node16&#45;&gt;Node4</title>
<path fill="none" stroke="midnightblue" d="M805.742,-226.186C795.829,-217.669 783.801,-206.729 774,-196 756.085,-176.388 738.15,-150.737 729.079,-137.236"/>
<polygon fill="midnightblue" stroke="midnightblue" points="803.577,-228.939 813.476,-232.713 808.092,-223.589 803.577,-228.939"/>
</g>
<!-- Node16&#45;&gt;Node6 -->
<g id="edge44" class="edge"><title>Node16&#45;&gt;Node6</title>
<path fill="none" stroke="midnightblue" d="M774.922,-234.052C722.709,-222.774 643.619,-196.558 608,-138 596.791,-119.572 604.552,-92.9768 609.976,-79.1414"/>
<polygon fill="midnightblue" stroke="midnightblue" points="774.486,-237.535 784.985,-236.113 775.891,-230.677 774.486,-237.535"/>
</g>
<!-- Node16&#45;&gt;Node7 -->
<g id="edge51" class="edge"><title>Node16&#45;&gt;Node7</title>
<path fill="none" stroke="midnightblue" d="M774.722,-236.891C735.506,-231.243 680.711,-219.601 638,-196 576.346,-161.931 563.902,-141.746 530,-80 519.251,-60.4224 512.741,-34.7576 509.823,-21.2446"/>
<polygon fill="midnightblue" stroke="midnightblue" points="774.462,-240.388 784.843,-238.266 775.405,-233.452 774.462,-240.388"/>
</g>
<!-- Node16&#45;&gt;Node8 -->
<g id="edge42" class="edge"><title>Node16&#45;&gt;Node8</title>
<path fill="none" stroke="midnightblue" d="M875.052,-238.882C918.637,-234.353 982.295,-223.244 1031,-196 1057.71,-181.061 1080.45,-151.934 1090.88,-137.121"/>
<polygon fill="midnightblue" stroke="midnightblue" points="874.595,-235.41 864.975,-239.85 875.264,-242.378 874.595,-235.41"/>
</g>
<!-- Node16&#45;&gt;Node9 -->
<g id="edge43" class="edge"><title>Node16&#45;&gt;Node9</title>
<path fill="none" stroke="midnightblue" d="M846.504,-226.907C859.195,-217.969 875.551,-206.394 890,-196 919.064,-175.092 952.952,-150.177 970.709,-137.08"/>
<polygon fill="midnightblue" stroke="midnightblue" points="844.157,-224.279 837.991,-232.895 848.184,-230.004 844.157,-224.279"/>
</g>
<!-- Node16&#45;&gt;Node10 -->
<g id="edge45" class="edge"><title>Node16&#45;&gt;Node10</title>
<path fill="none" stroke="midnightblue" d="M875.048,-237.676C937.995,-231.568 1049.09,-218.563 1142,-196 1207.22,-180.161 1281.36,-151.572 1317.25,-137.027"/>
<polygon fill="midnightblue" stroke="midnightblue" points="874.618,-234.201 864.995,-238.632 875.281,-241.169 874.618,-234.201"/>
</g>
<!-- Node16&#45;&gt;Node11 -->
<g id="edge46" class="edge"><title>Node16&#45;&gt;Node11</title>
<path fill="none" stroke="midnightblue" d="M803.462,-226.303C794.399,-218.359 784.845,-207.88 780,-196 771.729,-175.718 783.494,-150.339 791.208,-137.058"/>
<polygon fill="midnightblue" stroke="midnightblue" points="801.536,-229.248 811.498,-232.853 805.958,-223.822 801.536,-229.248"/>
</g>
<!-- Node16&#45;&gt;Node12 -->
<g id="edge47" class="edge"><title>Node16&#45;&gt;Node12</title>
<path fill="none" stroke="midnightblue" d="M801.61,-227.452C787.435,-218.538 769.05,-206.803 753,-196 722.67,-175.587 687.82,-150.474 669.599,-137.215"/>
<polygon fill="midnightblue" stroke="midnightblue" points="799.917,-230.522 810.25,-232.864 803.633,-224.589 799.917,-230.522"/>
</g>
<!-- Node16&#45;&gt;Node13 -->
<g id="edge48" class="edge"><title>Node16&#45;&gt;Node13</title>
<path fill="none" stroke="midnightblue" d="M875.477,-236.882C930.658,-230.5 1021.31,-217.701 1097,-196 1152.1,-180.202 1213.73,-151.726 1243.68,-137.145"/>
<polygon fill="midnightblue" stroke="midnightblue" points="874.807,-233.435 865.263,-238.036 875.593,-240.391 874.807,-233.435"/>
</g>
<!-- Node16&#45;&gt;Node14 -->
<g id="edge49" class="edge"><title>Node16&#45;&gt;Node14</title>
<path fill="none" stroke="midnightblue" d="M844.143,-226.086C853.023,-217.871 863.112,-207.228 870,-196 881.731,-176.879 888.336,-151.029 891.224,-137.365"/>
<polygon fill="midnightblue" stroke="midnightblue" points="841.62,-223.646 836.454,-232.896 846.261,-228.886 841.62,-223.646"/>
</g>
<!-- Node16&#45;&gt;Node15 -->
<g id="edge50" class="edge"><title>Node16&#45;&gt;Node15</title>
<path fill="none" stroke="midnightblue" d="M875.322,-236.753C923.753,-230.641 998.494,-218.393 1060,-196 1102.42,-180.557 1147.76,-151.922 1169.65,-137.227"/>
<polygon fill="midnightblue" stroke="midnightblue" points="874.604,-233.315 865.101,-238.001 875.452,-240.263 874.604,-233.315"/>
</g>
<!-- Node17 -->
<g id="node17" class="node"><title>Node17</title>
<g id="a_node17"><a xlink:href="FileHandle_8h.html" target="_top" xlink:title="Handle read/write of Model data from/to files. ">
<polygon fill="none" stroke="black" points="788.929,-175 788.929,-195 861.071,-195 861.071,-175 788.929,-175"/>
<text text-anchor="middle" x="825" y="-181" font-family="Helvetica,sans-Serif" font-size="10.00">FileHandle.h</text>
</a>
</g>
</g>
<!-- Node16&#45;&gt;Node17 -->
<g id="edge29" class="edge"><title>Node16&#45;&gt;Node17</title>
<path fill="none" stroke="midnightblue" d="M825,-222.707C825,-213.338 825,-202.526 825,-195.075"/>
<polygon fill="midnightblue" stroke="midnightblue" points="821.5,-222.753 825,-232.753 828.5,-222.753 821.5,-222.753"/>
</g>
<!-- Node17&#45;&gt;Node4 -->
<g id="edge30" class="edge"><title>Node17&#45;&gt;Node4</title>
<path fill="none" stroke="midnightblue" d="M799.25,-169.863C780.509,-159.573 755.683,-145.944 739.53,-137.075"/>
<polygon fill="midnightblue" stroke="midnightblue" points="797.707,-173.008 808.157,-174.753 801.075,-166.872 797.707,-173.008"/>
</g>
<!-- Node17&#45;&gt;Node6 -->
<g id="edge33" class="edge"><title>Node17&#45;&gt;Node6</title>
<path fill="none" stroke="midnightblue" d="M778.325,-179.612C725.016,-173.581 642.504,-160.795 622,-138 607.373,-121.739 609.639,-93.724 612.071,-79.2522"/>
<polygon fill="midnightblue" stroke="midnightblue" points="778.249,-183.125 788.57,-180.73 779.008,-176.166 778.249,-183.125"/>
</g>
<!-- Node17&#45;&gt;Node7 -->
<g id="edge41" class="edge"><title>Node17&#45;&gt;Node7</title>
<path fill="none" stroke="midnightblue" d="M778.763,-183.15C732.389,-180.343 660.509,-170.513 608,-138 559.088,-107.714 524.141,-44.5816 512.356,-21.076"/>
<polygon fill="midnightblue" stroke="midnightblue" points="778.66,-186.649 788.828,-183.673 779.023,-179.658 778.66,-186.649"/>
</g>
<!-- Node17&#45;&gt;Node8 -->
<g id="edge31" class="edge"><title>Node17&#45;&gt;Node8</title>
<path fill="none" stroke="midnightblue" d="M871.111,-174.507C927.012,-162.997 1019.61,-143.934 1067.01,-134.174"/>
<polygon fill="midnightblue" stroke="midnightblue" points="870.208,-171.119 861.119,-176.564 871.62,-177.975 870.208,-171.119"/>
</g>
<!-- Node17&#45;&gt;Node9 -->
<g id="edge32" class="edge"><title>Node17&#45;&gt;Node9</title>
<path fill="none" stroke="midnightblue" d="M860.25,-171.506C889.759,-161.048 931.163,-146.373 957.536,-137.025"/>
<polygon fill="midnightblue" stroke="midnightblue" points="858.993,-168.238 850.737,-174.878 861.332,-174.836 858.993,-168.238"/>
</g>
<!-- Node17&#45;&gt;Node10 -->
<g id="edge34" class="edge"><title>Node17&#45;&gt;Node10</title>
<path fill="none" stroke="midnightblue" d="M871.394,-180.17C973.161,-171.65 1213.34,-150.87 1294,-138 1296.85,-137.546 1299.78,-137.022 1302.72,-136.457"/>
<polygon fill="midnightblue" stroke="midnightblue" points="870.797,-176.707 861.122,-181.027 871.379,-183.683 870.797,-176.707"/>
</g>
<!-- Node17&#45;&gt;Node11 -->
<g id="edge35" class="edge"><title>Node17&#45;&gt;Node11</title>
<path fill="none" stroke="midnightblue" d="M815.809,-165.618C811.024,-156.047 805.385,-144.769 801.538,-137.075"/>
<polygon fill="midnightblue" stroke="midnightblue" points="812.774,-167.374 820.376,-174.753 819.035,-164.243 812.774,-167.374"/>
</g>
<!-- Node17&#45;&gt;Node12 -->
<g id="edge36" class="edge"><title>Node17&#45;&gt;Node12</title>
<path fill="none" stroke="midnightblue" d="M787.807,-171.602C755.999,-161 711.037,-146.012 682.973,-136.658"/>
<polygon fill="midnightblue" stroke="midnightblue" points="787.04,-175.036 797.634,-174.878 789.254,-168.395 787.04,-175.036"/>
</g>
<!-- Node17&#45;&gt;Node13 -->
<g id="edge37" class="edge"><title>Node17&#45;&gt;Node13</title>
<path fill="none" stroke="midnightblue" d="M871.423,-179.78C962.501,-171.326 1161.6,-151.929 1229,-138 1232.17,-137.346 1235.46,-136.523 1238.7,-135.631"/>
<polygon fill="midnightblue" stroke="midnightblue" points="871.023,-176.302 861.388,-180.708 871.667,-183.272 871.023,-176.302"/>
</g>
<!-- Node17&#45;&gt;Node14 -->
<g id="edge38" class="edge"><title>Node17&#45;&gt;Node14</title>
<path fill="none" stroke="midnightblue" d="M844.079,-168.288C856.309,-158.216 871.752,-145.498 881.98,-137.075"/>
<polygon fill="midnightblue" stroke="midnightblue" points="841.723,-165.694 836.229,-174.753 846.173,-171.097 841.723,-165.694"/>
</g>
<!-- Node17&#45;&gt;Node15 -->
<g id="edge39" class="edge"><title>Node17&#45;&gt;Node15</title>
<path fill="none" stroke="midnightblue" d="M871.42,-177.968C932.158,-169.88 1041.83,-154.603 1135,-138 1138.27,-137.418 1141.65,-136.781 1145.05,-136.119"/>
<polygon fill="midnightblue" stroke="midnightblue" points="870.836,-174.515 861.383,-179.299 871.756,-181.454 870.836,-174.515"/>
</g>
<!-- Node17&#45;&gt;Node18 -->
<g id="edge40" class="edge"><title>Node17&#45;&gt;Node18</title>
<path fill="none" stroke="midnightblue" d="M778.739,-177.408C697.073,-165.771 529.569,-141.903 461.619,-132.221"/>
<polygon fill="midnightblue" stroke="midnightblue" points="778.338,-180.886 788.732,-178.832 779.326,-173.956 778.338,-180.886"/>
</g>
<!-- Node19&#45;&gt;Node7 -->
<g id="edge59" class="edge"><title>Node19&#45;&gt;Node7</title>
<path fill="none" stroke="midnightblue" d="M372.456,-242.839C285.514,-242.645 130.306,-236.453 95,-196 88.5706,-188.633 89.4912,-182.078 95,-174 177.23,-53.4156 364.023,-22.5852 455.519,-14.7047"/>
<polygon fill="midnightblue" stroke="midnightblue" points="372.709,-246.339 382.707,-242.835 372.706,-239.339 372.709,-246.339"/>
</g>
<!-- Node19&#45;&gt;Node17 -->
<g id="edge53" class="edge"><title>Node19&#45;&gt;Node17</title>
<path fill="none" stroke="midnightblue" d="M491.366,-233.541C573.98,-221.769 721.091,-200.806 788.919,-191.141"/>
<polygon fill="midnightblue" stroke="midnightblue" points="490.782,-230.088 481.376,-234.964 491.77,-237.018 490.782,-230.088"/>
</g>
<!-- Node19&#45;&gt;Node18 -->
<g id="edge58" class="edge"><title>Node19&#45;&gt;Node18</title>
<path fill="none" stroke="midnightblue" d="M461.478,-228.162C483.625,-215.67 508.345,-195.927 497,-174 488.042,-156.687 469.234,-144.491 454.143,-137.027"/>
<polygon fill="midnightblue" stroke="midnightblue" points="459.757,-225.113 452.572,-232.899 463.044,-231.293 459.757,-225.113"/>
</g>
<!-- Node20 -->
<g id="node20" class="node"><title>Node20</title>
<g id="a_node20"><a xlink:href="info_8h.html" target="_top" xlink:title="Helper functions for manipulating RMF files. ">
<polygon fill="none" stroke="black" points="447.769,-175 447.769,-195 488.231,-195 488.231,-175 447.769,-175"/>
<text text-anchor="middle" x="468" y="-181" font-family="Helvetica,sans-Serif" font-size="10.00">info.h</text>
</a>
</g>
</g>
<!-- Node19&#45;&gt;Node20 -->
<g id="edge54" class="edge"><title>Node19&#45;&gt;Node20</title>
<path fill="none" stroke="midnightblue" d="M443.43,-224.22C449.663,-214.524 457.116,-202.931 462.166,-195.075"/>
<polygon fill="midnightblue" stroke="midnightblue" points="440.408,-222.448 437.945,-232.753 446.296,-226.234 440.408,-222.448"/>
</g>
<!-- Node21 -->
<g id="node21" class="node"><title>Node21</title>
<g id="a_node21"><a xlink:href="RestoreCurrentFrame_8h.html" target="_top" xlink:title="Handle read/write of Model data from/to files. ">
<polygon fill="none" stroke="black" points="104.205,-175 104.205,-195 225.795,-195 225.795,-175 104.205,-175"/>
<text text-anchor="middle" x="165" y="-181" font-family="Helvetica,sans-Serif" font-size="10.00">RestoreCurrentFrame.h</text>
</a>
</g>
</g>
<!-- Node19&#45;&gt;Node21 -->
<g id="edge55" class="edge"><title>Node19&#45;&gt;Node21</title>
<path fill="none" stroke="midnightblue" d="M378.812,-230.845C328.728,-220.34 254.641,-204.801 208.133,-195.047"/>
<polygon fill="midnightblue" stroke="midnightblue" points="378.3,-234.313 388.805,-232.94 379.737,-227.462 378.3,-234.313"/>
</g>
<!-- Node22 -->
<g id="node22" class="node"><title>Node22</title>
<g id="a_node22"><a xlink:href="SetCurrentFrame_8h.html" target="_top" xlink:title="Handle read/write of Model data from/to files. ">
<polygon fill="none" stroke="black" points="244.207,-175 244.207,-195 345.793,-195 345.793,-175 244.207,-175"/>
<text text-anchor="middle" x="295" y="-181" font-family="Helvetica,sans-Serif" font-size="10.00">SetCurrentFrame.h</text>
</a>
</g>
</g>
<!-- Node19&#45;&gt;Node22 -->
<g id="edge56" class="edge"><title>Node19&#45;&gt;Node22</title>
<path fill="none" stroke="midnightblue" d="M400.121,-228.969C374.717,-218.585 339.794,-204.31 317.307,-195.118"/>
<polygon fill="midnightblue" stroke="midnightblue" points="399.103,-232.334 409.684,-232.878 401.751,-225.854 399.103,-232.334"/>
</g>
<!-- Node23 -->
<g id="node23" class="node"><title>Node23</title>
<g id="a_node23"><a xlink:href="signature_8h.html" target="_top" xlink:title="Helper functions for manipulating RMF files. ">
<polygon fill="none" stroke="black" points="364.261,-175 364.261,-195 429.739,-195 429.739,-175 364.261,-175"/>
<text text-anchor="middle" x="397" y="-181" font-family="Helvetica,sans-Serif" font-size="10.00">signature.h</text>
</a>
</g>
</g>
<!-- Node19&#45;&gt;Node23 -->
<g id="edge57" class="edge"><title>Node19&#45;&gt;Node23</title>
<path fill="none" stroke="midnightblue" d="M420.888,-224.22C414.827,-214.524 407.582,-202.931 402.672,-195.075"/>
<polygon fill="midnightblue" stroke="midnightblue" points="417.952,-226.128 426.22,-232.753 423.888,-222.418 417.952,-226.128"/>
</g>
</g>
</svg>
        <g id="navigator" transform="translate(0 0)" fill="#404254">
                <rect fill="#f2f5e9" fill-opacity="0.5" stroke="#606060" stroke-width=".5" x="0" y="0" width="60" height="60"/>
                <use id="zoomplus" xlink:href="#zoomPlus" x="17" y="9" onmousedown="handleZoom(evt,'in')"/>
                <use id="zoomminus" xlink:href="#zoomMin" x="42" y="9" onmousedown="handleZoom(evt,'out')"/>
                <use id="reset" xlink:href="#resetDef" x="30" y="36" onmousedown="handleReset()"/>
                <g id="arrowUp" xlink:href="#dirArrow" transform="translate(30 24)" onmousedown="handlePan(0,-1)">
                  <use xlink:href="#rim" fill="#404040">
                        <set attributeName="fill" to="#808080" begin="arrowUp.mouseover" end="arrowUp.mouseout"/>
                  </use>
                  <path fill="none" stroke="white" stroke-width="1.5" d="M0,-3.0v7 M-2.5,-0.5L0,-3.0L2.5,-0.5"/>
                </g>
                <g id="arrowRight" xlink:href="#dirArrow" transform="rotate(90) translate(36 -43)" onmousedown="handlePan(1,0)">
                  <use xlink:href="#rim" fill="#404040">
                        <set attributeName="fill" to="#808080" begin="arrowRight.mouseover" end="arrowRight.mouseout"/>
                  </use>
                  <path fill="none" stroke="white" stroke-width="1.5" d="M0,-3.0v7 M-2.5,-0.5L0,-3.0L2.5,-0.5"/>
                </g>
                <g id="arrowDown" xlink:href="#dirArrow" transform="rotate(180) translate(-30 -48)" onmousedown="handlePan(0,1)">
                  <use xlink:href="#rim" fill="#404040">
                        <set attributeName="fill" to="#808080" begin="arrowDown.mouseover" end="arrowDown.mouseout"/>
                  </use>
                  <path fill="none" stroke="white" stroke-width="1.5" d="M0,-3.0v7 M-2.5,-0.5L0,-3.0L2.5,-0.5"/>
                </g>
                <g id="arrowLeft" xlink:href="#dirArrow" transform="rotate(270) translate(-36 17)" onmousedown="handlePan(-1,0)">
                  <use xlink:href="#rim" fill="#404040">
                        <set attributeName="fill" to="#808080" begin="arrowLeft.mouseover" end="arrowLeft.mouseout"/>
                  </use>
                  <path fill="none" stroke="white" stroke-width="1.5" d="M0,-3.0v7 M-2.5,-0.5L0,-3.0L2.5,-0.5"/>
                </g>
        </g>
        <svg viewBox="0 0 15 15" width="100%" height="30px" preserveAspectRatio="xMaxYMin meet">
         <g id="arrow_out" transform="scale(0.3 0.3)">
          <a xlink:href="Nullable_8h__dep__incl_org.svg" target="_base">
           <rect id="button" ry="5" rx="5" y="6" x="6" height="38" width="38"
                fill="#f2f5e9" fill-opacity="0.5" stroke="#606060" stroke-width="1.0"/>
           <path id="arrow"
             d="M 11.500037,31.436501 C 11.940474,20.09759 22.043105,11.32322 32.158766,21.979434 L 37.068811,17.246167 C 37.068811,17.246167 37.088388,32 37.088388,32 L 22.160133,31.978069 C 22.160133,31.978069 26.997745,27.140456 26.997745,27.140456 C 18.528582,18.264221 13.291696,25.230495 11.500037,31.436501 z"
             style="fill:#404040;"/>
          </a>
         </g>
        </svg>
</svg>
