<?xml version="1.0" encoding="UTF-8" standalone="no"?>
<!DOCTYPE svg PUBLIC "-//W3C//DTD SVG 1.1//EN"
 "http://www.w3.org/Graphics/SVG/1.1/DTD/svg11.dtd">
<!-- Generated by graphviz version 2.36.0 (20140111.2315)
 -->
<!-- Title: Nullable.h Pages: 1 -->
<svg width="1499pt" height="364pt"
 viewBox="0.00 0.00 1499.00 364.00" xmlns="http://www.w3.org/2000/svg" xmlns:xlink="http://www.w3.org/1999/xlink">
<g id="graph0" class="graph" transform="scale(1 1) rotate(0) translate(4 360)">
<title>Nullable.h</title>
<!-- Node1 -->
<g id="node1" class="node"><title>Node1</title>
<polygon fill="#bfbfbf" stroke="black" points="561.764,-337 561.764,-355 622.236,-355 622.236,-337 561.764,-337"/>
<text text-anchor="middle" x="592" y="-343" font-family="Helvetica,sans-Serif" font-size="10.00">Nullable.h</text>
</g>
<!-- Node2 -->
<g id="node2" class="node"><title>Node2</title>
<g id="a_node2"><a xlink:href="NodeConstHandle_8h.html" target="_top" xlink:title="Declaration of NodeConstHandlke. ">
<polygon fill="none" stroke="black" points="410.971,-281 410.971,-299 517.029,-299 517.029,-281 410.971,-281"/>
<text text-anchor="middle" x="464" y="-287" font-family="Helvetica,sans-Serif" font-size="10.00">NodeConstHandle.h</text>
</a>
</g>
</g>
<!-- Node1&#45;&gt;Node2 -->
<g id="edge1" class="edge"><title>Node1&#45;&gt;Node2</title>
<path fill="none" stroke="midnightblue" d="M563.38,-332.926C538.973,-322.629 504.557,-308.11 483.294,-299.14"/>
<polygon fill="midnightblue" stroke="midnightblue" points="562.263,-336.253 572.837,-336.916 564.984,-329.804 562.263,-336.253"/>
</g>
<!-- Node7 -->
<g id="node7" class="node"><title>Node7</title>
<g id="a_node7"><a xlink:href="TraverseHelper_8h.html" target="_top" xlink:title="A helper function for managing data when traversing an RMF. ">
<polygon fill="none" stroke="black" points="734.831,-1 734.831,-19 827.169,-19 827.169,-1 734.831,-1"/>
<text text-anchor="middle" x="781" y="-7" font-family="Helvetica,sans-Serif" font-size="10.00">TraverseHelper.h</text>
</a>
</g>
</g>
<!-- Node1&#45;&gt;Node7 -->
<g id="edge71" class="edge"><title>Node1&#45;&gt;Node7</title>
<path fill="none" stroke="midnightblue" d="M592,-326.91C592,-305.112 592,-267.376 592,-235 592,-235 592,-235 592,-121 592,-55.1302 678.812,-28.0192 734.765,-17.3863"/>
<polygon fill="midnightblue" stroke="midnightblue" points="588.5,-326.995 592,-336.995 595.5,-326.995 588.5,-326.995"/>
</g>
<!-- Node17 -->
<g id="node17" class="node"><title>Node17</title>
<g id="a_node17"><a xlink:href="NodeHandle_8h.html" target="_top" xlink:title="Declaration of NodeHandle. ">
<polygon fill="none" stroke="black" points="923.032,-225 923.032,-243 1002.97,-243 1002.97,-225 923.032,-225"/>
<text text-anchor="middle" x="963" y="-231" font-family="Helvetica,sans-Serif" font-size="10.00">NodeHandle.h</text>
</a>
</g>
</g>
<!-- Node1&#45;&gt;Node17 -->
<g id="edge70" class="edge"><title>Node1&#45;&gt;Node17</title>
<path fill="none" stroke="midnightblue" d="M629.189,-333.974C703.876,-311.829 870.54,-262.414 935.93,-243.026"/>
<polygon fill="midnightblue" stroke="midnightblue" points="627.873,-330.713 619.281,-336.911 629.863,-337.424 627.873,-330.713"/>
</g>
<!-- Node3 -->
<g id="node3" class="node"><title>Node3</title>
<g id="a_node3"><a xlink:href="Decorator_8h.html" target="_top" xlink:title="Mostly empty base classes for decorators and factories. ">
<polygon fill="none" stroke="black" points="1010.15,-169 1010.15,-187 1077.85,-187 1077.85,-169 1010.15,-169"/>
<text text-anchor="middle" x="1044" y="-175" font-family="Helvetica,sans-Serif" font-size="10.00">Decorator.h</text>
</a>
</g>
</g>
<!-- Node2&#45;&gt;Node3 -->
<g id="edge2" class="edge"><title>Node2&#45;&gt;Node3</title>
<path fill="none" stroke="midnightblue" d="M516.801,-278.986C633.913,-256.775 912.741,-203.894 1009.9,-185.466"/>
<polygon fill="midnightblue" stroke="midnightblue" points="515.821,-275.609 506.649,-280.911 517.126,-282.487 515.821,-275.609"/>
</g>
<!-- Node8 -->
<g id="node8" class="node"><title>Node8</title>
<g id="a_node8"><a xlink:href="benchmark__rmf_8cpp_source.html" target="_top" xlink:title="benchmark_rmf.cpp">
<polygon fill="none" stroke="black" points="482.815,-1 482.815,-19 587.185,-19 587.185,-1 482.815,-1"/>
<text text-anchor="middle" x="535" y="-7" font-family="Helvetica,sans-Serif" font-size="10.00">benchmark_rmf.cpp</text>
</a>
</g>
</g>
<!-- Node2&#45;&gt;Node8 -->
<g id="edge69" class="edge"><title>Node2&#45;&gt;Node8</title>
<path fill="none" stroke="midnightblue" d="M400.41,-287.116C273.313,-281.614 0,-260.33 0,-179 0,-179 0,-179 0,-121 0,-23.0933 348.108,-11.564 482.728,-10.766"/>
<polygon fill="midnightblue" stroke="midnightblue" points="400.638,-290.628 410.773,-287.543 400.926,-283.634 400.638,-290.628"/>
</g>
<!-- Node2&#45;&gt;Node17 -->
<g id="edge30" class="edge"><title>Node2&#45;&gt;Node17</title>
<path fill="none" stroke="midnightblue" d="M527.474,-282.131C631.723,-270.85 836.254,-248.716 922.798,-239.351"/>
<polygon fill="midnightblue" stroke="midnightblue" points="526.967,-278.665 517.402,-283.221 527.72,-285.625 526.967,-278.665"/>
</g>
<!-- Node19 -->
<g id="node19" class="node"><title>Node19</title>
<g id="a_node19"><a xlink:href="validate_8h.html" target="_top" xlink:title="Support for validating the data in a file. ">
<polygon fill="none" stroke="black" points="103.596,-113 103.596,-131 162.404,-131 162.404,-113 103.596,-113"/>
<text text-anchor="middle" x="133" y="-119" font-family="Helvetica,sans-Serif" font-size="10.00">validate.h</text>
</a>
</g>
</g>
<!-- Node2&#45;&gt;Node19 -->
<g id="edge68" class="edge"><title>Node2&#45;&gt;Node19</title>
<path fill="none" stroke="midnightblue" d="M400.628,-279.851C310.764,-265.383 153.661,-234.054 122,-188 110.07,-170.646 120.972,-144.659 128.048,-131.415"/>
<polygon fill="midnightblue" stroke="midnightblue" points="400.283,-283.34 410.707,-281.449 401.378,-276.427 400.283,-283.34"/>
</g>
<!-- Node22 -->
<g id="node22" class="node"><title>Node22</title>
<g id="a_node22"><a xlink:href="FileConstHandle_8h.html" target="_top" xlink:title="Handle read/write of Model data from/to files. ">
<polygon fill="none" stroke="black" points="276.867,-225 276.867,-243 375.133,-243 375.133,-225 276.867,-225"/>
<text text-anchor="middle" x="326" y="-231" font-family="Helvetica,sans-Serif" font-size="10.00">FileConstHandle.h</text>
</a>
</g>
</g>
<!-- Node2&#45;&gt;Node22 -->
<g id="edge59" class="edge"><title>Node2&#45;&gt;Node22</title>
<path fill="none" stroke="midnightblue" d="M433.843,-277.199C407.491,-266.888 369.929,-252.19 346.801,-243.14"/>
<polygon fill="midnightblue" stroke="midnightblue" points="432.752,-280.531 443.34,-280.916 435.303,-274.012 432.752,-280.531"/>
</g>
<!-- Node27 -->
<g id="node27" class="node"><title>Node27</title>
<g id="a_node27"><a xlink:href="utility_8h.html" target="_top" xlink:title="Helper functions for manipulating RMF files. ">
<polygon fill="none" stroke="black" points="440.807,-225 440.807,-243 487.193,-243 487.193,-225 440.807,-225"/>
<text text-anchor="middle" x="464" y="-231" font-family="Helvetica,sans-Serif" font-size="10.00">utility.h</text>
</a>
</g>
</g>
<!-- Node2&#45;&gt;Node27 -->
<g id="edge67" class="edge"><title>Node2&#45;&gt;Node27</title>
<path fill="none" stroke="midnightblue" d="M464,-270.329C464,-261.077 464,-250.38 464,-243.201"/>
<polygon fill="midnightblue" stroke="midnightblue" points="460.5,-270.562 464,-280.562 467.5,-270.563 460.5,-270.562"/>
</g>
<!-- Node4 -->
<g id="node4" class="node"><title>Node4</title>
<g id="a_node4"><a xlink:href="alias_8h.html" target="_top" xlink:title="Helper functions for manipulating RMF files. ">
<polygon fill="none" stroke="black" points="973.547,-113 973.547,-131 1018.45,-131 1018.45,-113 973.547,-113"/>
<text text-anchor="middle" x="996" y="-119" font-family="Helvetica,sans-Serif" font-size="10.00">alias.h</text>
</a>
</g>
</g>
<!-- Node3&#45;&gt;Node4 -->
<g id="edge3" class="edge"><title>Node3&#45;&gt;Node4</title>
<path fill="none" stroke="midnightblue" d="M1029.8,-161.027C1021.09,-151.228 1010.3,-139.09 1003.29,-131.201"/>
<polygon fill="midnightblue" stroke="midnightblue" points="1027.24,-163.414 1036.5,-168.562 1032.47,-158.763 1027.24,-163.414"/>
</g>
<!-- Node6 -->
<g id="node6" class="node"><title>Node6</title>
<g id="a_node6"><a xlink:href="physics_8h.html" target="_top" xlink:title="Helper functions for manipulating RMF files. ">
<polygon fill="none" stroke="black" points="885.158,-57 885.158,-75 942.842,-75 942.842,-57 885.158,-57"/>
<text text-anchor="middle" x="914" y="-63" font-family="Helvetica,sans-Serif" font-size="10.00">physics.h</text>
</a>
</g>
</g>
<!-- Node3&#45;&gt;Node6 -->
<g id="edge13" class="edge"><title>Node3&#45;&gt;Node6</title>
<path fill="none" stroke="midnightblue" d="M1043.55,-158.602C1042.26,-144.311 1038.34,-124.827 1027,-112 1005.46,-87.6337 968.947,-76.2987 943.265,-71.1342"/>
<polygon fill="midnightblue" stroke="midnightblue" points="1040.06,-158.932 1044.1,-168.724 1047.05,-158.547 1040.06,-158.932"/>
</g>
<!-- Node9 -->
<g id="node9" class="node"><title>Node9</title>
<g id="a_node9"><a xlink:href="external_8h.html" target="_top" xlink:title="Helper functions for manipulating RMF files. ">
<polygon fill="none" stroke="black" points="1074.04,-113 1074.04,-131 1133.96,-131 1133.96,-113 1074.04,-113"/>
<text text-anchor="middle" x="1104" y="-119" font-family="Helvetica,sans-Serif" font-size="10.00">external.h</text>
</a>
</g>
</g>
<!-- Node3&#45;&gt;Node9 -->
<g id="edge9" class="edge"><title>Node3&#45;&gt;Node9</title>
<path fill="none" stroke="midnightblue" d="M1060.82,-161.86C1071.83,-151.956 1085.78,-139.395 1094.8,-131.279"/>
<polygon fill="midnightblue" stroke="midnightblue" points="1058.2,-159.507 1053.11,-168.799 1062.89,-164.71 1058.2,-159.507"/>
</g>
<!-- Node10 -->
<g id="node10" class="node"><title>Node10</title>
<g id="a_node10"><a xlink:href="feature_8h.html" target="_top" xlink:title="Helper functions for manipulating RMF files. ">
<polygon fill="none" stroke="black" points="1152.26,-113 1152.26,-131 1207.74,-131 1207.74,-113 1152.26,-113"/>
<text text-anchor="middle" x="1180" y="-119" font-family="Helvetica,sans-Serif" font-size="10.00">feature.h</text>
</a>
</g>
</g>
<!-- Node3&#45;&gt;Node10 -->
<g id="edge11" class="edge"><title>Node3&#45;&gt;Node10</title>
<path fill="none" stroke="midnightblue" d="M1073.72,-165.199C1099.69,-154.888 1136.71,-140.19 1159.5,-131.14"/>
<polygon fill="midnightblue" stroke="midnightblue" points="1072.36,-161.972 1064.36,-168.916 1074.95,-168.478 1072.36,-161.972"/>
</g>
<!-- Node11 -->
<g id="node11" class="node"><title>Node11</title>
<g id="a_node11"><a xlink:href="publication_8h.html" target="_top" xlink:title="Helper functions for manipulating RMF files. ">
<polygon fill="none" stroke="black" points="1225.92,-113 1225.92,-131 1298.08,-131 1298.08,-113 1225.92,-113"/>
<text text-anchor="middle" x="1262" y="-119" font-family="Helvetica,sans-Serif" font-size="10.00">publication.h</text>
</a>
</g>
</g>
<!-- Node3&#45;&gt;Node11 -->
<g id="edge14" class="edge"><title>Node3&#45;&gt;Node11</title>
<path fill="none" stroke="midnightblue" d="M1086.54,-166.463C1128.42,-156.088 1191.48,-140.469 1229.5,-131.051"/>
<polygon fill="midnightblue" stroke="midnightblue" points="1085.5,-163.114 1076.64,-168.916 1087.19,-169.909 1085.5,-163.114"/>
</g>
<!-- Node12 -->
<g id="node12" class="node"><title>Node12</title>
<g id="a_node12"><a xlink:href="sequence_8h.html" target="_top" xlink:title="Helper functions for manipulating RMF files. ">
<polygon fill="none" stroke="black" points="676.146,-57 676.146,-75 743.854,-75 743.854,-57 676.146,-57"/>
<text text-anchor="middle" x="710" y="-63" font-family="Helvetica,sans-Serif" font-size="10.00">sequence.h</text>
</a>
</g>
</g>
<!-- Node3&#45;&gt;Node12 -->
<g id="edge16" class="edge"><title>Node3&#45;&gt;Node12</title>
<path fill="none" stroke="midnightblue" d="M1000.02,-173.78C931.384,-168.123 802.547,-154.789 763,-132 739.282,-118.333 721.817,-89.6843 714.212,-75.4292"/>
<polygon fill="midnightblue" stroke="midnightblue" points="999.848,-177.277 1010.1,-174.59 1000.41,-170.299 999.848,-177.277"/>
</g>
<!-- Node13 -->
<g id="node13" class="node"><title>Node13</title>
<g id="a_node13"><a xlink:href="shape_8h.html" target="_top" xlink:title="Helper functions for manipulating RMF files. ">
<polygon fill="none" stroke="black" points="904.207,-113 904.207,-131 955.793,-131 955.793,-113 904.207,-113"/>
<text text-anchor="middle" x="930" y="-119" font-family="Helvetica,sans-Serif" font-size="10.00">shape.h</text>
</a>
</g>
</g>
<!-- Node3&#45;&gt;Node13 -->
<g id="edge20" class="edge"><title>Node3&#45;&gt;Node13</title>
<path fill="none" stroke="midnightblue" d="M1017.37,-164.388C995.685,-154.114 965.707,-139.914 947.104,-131.102"/>
<polygon fill="midnightblue" stroke="midnightblue" points="1016.15,-167.681 1026.69,-168.799 1019.15,-161.355 1016.15,-167.681"/>
</g>
<!-- Node14 -->
<g id="node14" class="node"><title>Node14</title>
<g id="a_node14"><a xlink:href="bond_8h.html" target="_top" xlink:title="Helper functions for manipulating RMF files. ">
<polygon fill="none" stroke="black" points="1315.71,-113 1315.71,-131 1362.29,-131 1362.29,-113 1315.71,-113"/>
<text text-anchor="middle" x="1339" y="-119" font-family="Helvetica,sans-Serif" font-size="10.00">bond.h</text>
</a>
</g>
</g>
<!-- Node3&#45;&gt;Node14 -->
<g id="edge23" class="edge"><title>Node3&#45;&gt;Node14</title>
<path fill="none" stroke="midnightblue" d="M1087.82,-170.938C1140.24,-163.354 1230.53,-149.245 1307,-132 1309.81,-131.365 1312.75,-130.635 1315.65,-129.871"/>
<polygon fill="midnightblue" stroke="midnightblue" points="1087.25,-167.483 1077.85,-172.366 1088.25,-174.412 1087.25,-167.483"/>
</g>
<!-- Node15 -->
<g id="node15" class="node"><title>Node15</title>
<g id="a_node15"><a xlink:href="representation_8h.html" target="_top" xlink:title="Helper functions for manipulating RMF files. ">
<polygon fill="none" stroke="black" points="1379.86,-113 1379.86,-131 1468.14,-131 1468.14,-113 1379.86,-113"/>
<text text-anchor="middle" x="1424" y="-119" font-family="Helvetica,sans-Serif" font-size="10.00">representation.h</text>
</a>
</g>
</g>
<!-- Node3&#45;&gt;Node15 -->
<g id="edge25" class="edge"><title>Node3&#45;&gt;Node15</title>
<path fill="none" stroke="midnightblue" d="M1087.9,-171.405C1150.72,-163.296 1269.86,-147.542 1371,-132 1373.86,-131.561 1376.8,-131.096 1379.77,-130.618"/>
<polygon fill="midnightblue" stroke="midnightblue" points="1087.42,-167.938 1077.94,-172.686 1088.31,-174.881 1087.42,-167.938"/>
</g>
<!-- Node16 -->
<g id="node16" class="node"><title>Node16</title>
<g id="a_node16"><a xlink:href="alternatives_8h.html" target="_top" xlink:title="Helper functions for manipulating RMF files. ">
<polygon fill="none" stroke="black" points="772.261,-113 772.261,-131 847.739,-131 847.739,-113 772.261,-113"/>
<text text-anchor="middle" x="810" y="-119" font-family="Helvetica,sans-Serif" font-size="10.00">alternatives.h</text>
</a>
</g>
</g>
<!-- Node3&#45;&gt;Node16 -->
<g id="edge27" class="edge"><title>Node3&#45;&gt;Node16</title>
<path fill="none" stroke="midnightblue" d="M1000.21,-166.895C955.259,-156.521 886.203,-140.585 844.831,-131.038"/>
<polygon fill="midnightblue" stroke="midnightblue" points="999.443,-170.31 1009.97,-169.148 1001.02,-163.489 999.443,-170.31"/>
</g>
<!-- Node5 -->
<g id="node5" class="node"><title>Node5</title>
<g id="a_node5"><a xlink:href="decorators_8h.html" target="_top" xlink:title="Import all the decorators headers. ">
<polygon fill="none" stroke="black" points="1068.21,-1 1068.21,-19 1139.79,-19 1139.79,-1 1068.21,-1"/>
<text text-anchor="middle" x="1104" y="-7" font-family="Helvetica,sans-Serif" font-size="10.00">decorators.h</text>
</a>
</g>
</g>
<!-- Node4&#45;&gt;Node5 -->
<g id="edge4" class="edge"><title>Node4&#45;&gt;Node5</title>
<path fill="none" stroke="midnightblue" d="M1011.16,-105.555C1034.45,-81.8356 1078.2,-37.2756 1096.08,-19.0649"/>
<polygon fill="midnightblue" stroke="midnightblue" points="1008.63,-103.144 1004.12,-112.732 1013.62,-108.049 1008.63,-103.144"/>
</g>
<!-- Node4&#45;&gt;Node6 -->
<g id="edge5" class="edge"><title>Node4&#45;&gt;Node6</title>
<path fill="none" stroke="midnightblue" d="M975.139,-107.262C959.704,-97.0976 939.202,-83.5964 926.303,-75.1017"/>
<polygon fill="midnightblue" stroke="midnightblue" points="973.269,-110.222 983.546,-112.799 977.119,-104.376 973.269,-110.222"/>
</g>
<!-- Node6&#45;&gt;Node5 -->
<g id="edge6" class="edge"><title>Node6&#45;&gt;Node5</title>
<path fill="none" stroke="midnightblue" d="M952.239,-54.1321C988.738,-43.7587 1042.89,-28.3691 1075.67,-19.0513"/>
<polygon fill="midnightblue" stroke="midnightblue" points="951.107,-50.8151 942.445,-56.9157 953.021,-57.5484 951.107,-50.8151"/>
</g>
<!-- Node6&#45;&gt;Node7 -->
<g id="edge7" class="edge"><title>Node6&#45;&gt;Node7</title>
<path fill="none" stroke="midnightblue" d="M884.599,-53.0628C859.22,-42.7585 823.239,-28.1497 801.048,-19.1396"/>
<polygon fill="midnightblue" stroke="midnightblue" points="883.506,-56.3966 894.089,-56.9157 886.14,-49.9108 883.506,-56.3966"/>
</g>
<!-- Node6&#45;&gt;Node8 -->
<g id="edge8" class="edge"><title>Node6&#45;&gt;Node8</title>
<path fill="none" stroke="midnightblue" d="M874.928,-59.433C806.348,-49.6617 664.304,-29.4233 587.325,-18.4553"/>
<polygon fill="midnightblue" stroke="midnightblue" points="874.496,-62.9067 884.89,-60.8524 875.484,-55.9767 874.496,-62.9067"/>
</g>
<!-- Node9&#45;&gt;Node5 -->
<g id="edge10" class="edge"><title>Node9&#45;&gt;Node5</title>
<path fill="none" stroke="midnightblue" d="M1104,-102.678C1104,-78.3886 1104,-36.563 1104,-19.0649"/>
<polygon fill="midnightblue" stroke="midnightblue" points="1100.5,-102.732 1104,-112.732 1107.5,-102.732 1100.5,-102.732"/>
</g>
<!-- Node10&#45;&gt;Node5 -->
<g id="edge12" class="edge"><title>Node10&#45;&gt;Node5</title>
<path fill="none" stroke="midnightblue" d="M1168.46,-104.299C1151.88,-80.2936 1121.94,-36.9589 1109.57,-19.0649"/>
<polygon fill="midnightblue" stroke="midnightblue" points="1165.72,-106.494 1174.29,-112.732 1171.48,-102.515 1165.72,-106.494"/>
</g>
<!-- Node11&#45;&gt;Node5 -->
<g id="edge15" class="edge"><title>Node11&#45;&gt;Node5</title>
<path fill="none" stroke="midnightblue" d="M1241.87,-106.982C1208.4,-83.6821 1142.36,-37.7062 1115.64,-19.1004"/>
<polygon fill="midnightblue" stroke="midnightblue" points="1240.18,-110.07 1250.38,-112.911 1244.17,-104.325 1240.18,-110.07"/>
</g>
<!-- Node12&#45;&gt;Node5 -->
<g id="edge17" class="edge"><title>Node12&#45;&gt;Node5</title>
<path fill="none" stroke="midnightblue" d="M753.992,-58.9706C832.581,-48.1995 995.63,-25.8528 1068.02,-15.9307"/>
<polygon fill="midnightblue" stroke="midnightblue" points="753.365,-55.5237 743.933,-60.3493 754.316,-62.4589 753.365,-55.5237"/>
</g>
<!-- Node12&#45;&gt;Node7 -->
<g id="edge18" class="edge"><title>Node12&#45;&gt;Node7</title>
<path fill="none" stroke="midnightblue" d="M728.766,-50.7272C741.951,-40.6991 759.13,-27.6336 770.115,-19.2786"/>
<polygon fill="midnightblue" stroke="midnightblue" points="726.624,-47.959 720.783,-56.7986 730.862,-53.5307 726.624,-47.959"/>
</g>
<!-- Node12&#45;&gt;Node8 -->
<g id="edge19" class="edge"><title>Node12&#45;&gt;Node8</title>
<path fill="none" stroke="midnightblue" d="M673.914,-53.865C640.311,-43.4961 591.031,-28.2895 561.092,-19.0513"/>
<polygon fill="midnightblue" stroke="midnightblue" points="673.213,-57.3115 683.801,-56.9157 675.277,-50.6227 673.213,-57.3115"/>
</g>
<!-- Node13&#45;&gt;Node5 -->
<g id="edge21" class="edge"><title>Node13&#45;&gt;Node5</title>
<path fill="none" stroke="midnightblue" d="M951.703,-107.28C988.408,-84.0756 1061.63,-37.7858 1091.19,-19.1004"/>
<polygon fill="midnightblue" stroke="midnightblue" points="949.377,-104.609 942.795,-112.911 953.117,-110.526 949.377,-104.609"/>
</g>
<!-- Node13&#45;&gt;Node7 -->
<g id="edge22" class="edge"><title>Node13&#45;&gt;Node7</title>
<path fill="none" stroke="midnightblue" d="M910.73,-106.774C879.06,-83.3935 817.02,-37.5923 791.924,-19.0649"/>
<polygon fill="midnightblue" stroke="midnightblue" points="908.677,-109.609 918.801,-112.732 912.834,-103.977 908.677,-109.609"/>
</g>
<!-- Node14&#45;&gt;Node5 -->
<g id="edge24" class="edge"><title>Node14&#45;&gt;Node5</title>
<path fill="none" stroke="midnightblue" d="M1312.48,-108.587C1263.92,-85.8585 1161.99,-38.1436 1121.31,-19.1004"/>
<polygon fill="midnightblue" stroke="midnightblue" points="1311.18,-111.842 1321.72,-112.911 1314.15,-105.502 1311.18,-111.842"/>
</g>
<!-- Node15&#45;&gt;Node5 -->
<g id="edge26" class="edge"><title>Node15&#45;&gt;Node5</title>
<path fill="none" stroke="midnightblue" d="M1390.98,-109.534C1353.45,-96.514 1290.34,-74.6557 1236,-56 1198.22,-43.0276 1154.3,-28.0835 1127.86,-19.0984"/>
<polygon fill="midnightblue" stroke="midnightblue" points="1390.26,-112.991 1400.86,-112.962 1392.56,-106.378 1390.26,-112.991"/>
</g>
<!-- Node16&#45;&gt;Node5 -->
<g id="edge28" class="edge"><title>Node16&#45;&gt;Node5</title>
<path fill="none" stroke="midnightblue" d="M821.927,-104.695C833.873,-89.6179 853.656,-67.8124 876,-56 938.064,-23.1889 1021.09,-14.1915 1067.91,-11.794"/>
<polygon fill="midnightblue" stroke="midnightblue" points="819.125,-102.597 815.839,-112.669 824.689,-106.845 819.125,-102.597"/>
</g>
<!-- Node16&#45;&gt;Node7 -->
<g id="edge29" class="edge"><title>Node16&#45;&gt;Node7</title>
<path fill="none" stroke="midnightblue" d="M805.256,-103.006C798.866,-78.7676 787.76,-36.6422 783.126,-19.0649"/>
<polygon fill="midnightblue" stroke="midnightblue" points="801.887,-103.955 807.82,-112.732 808.655,-102.17 801.887,-103.955"/>
</g>
<!-- Node17&#45;&gt;Node3 -->
<g id="edge31" class="edge"><title>Node17&#45;&gt;Node3</title>
<path fill="none" stroke="midnightblue" d="M984.035,-218.976C999.231,-208.846 1019.22,-195.517 1031.85,-187.102"/>
<polygon fill="midnightblue" stroke="midnightblue" points="981.681,-216.339 975.302,-224.799 985.564,-222.164 981.681,-216.339"/>
</g>
<!-- Node17&#45;&gt;Node4 -->
<g id="edge32" class="edge"><title>Node17&#45;&gt;Node4</title>
<path fill="none" stroke="midnightblue" d="M968.398,-215.006C975.67,-190.768 988.307,-148.642 993.581,-131.065"/>
<polygon fill="midnightblue" stroke="midnightblue" points="965.002,-214.148 965.48,-224.732 971.706,-216.16 965.002,-214.148"/>
</g>
<!-- Node17&#45;&gt;Node6 -->
<g id="edge48" class="edge"><title>Node17&#45;&gt;Node6</title>
<path fill="none" stroke="midnightblue" d="M913.155,-226.002C862.254,-215.688 787.352,-190.792 763,-132 742.248,-81.9 835.477,-70.3625 884.927,-67.7434"/>
<polygon fill="midnightblue" stroke="midnightblue" points="912.515,-229.443 922.993,-227.876 913.825,-222.566 912.515,-229.443"/>
</g>
<!-- Node17&#45;&gt;Node8 -->
<g id="edge58" class="edge"><title>Node17&#45;&gt;Node8</title>
<path fill="none" stroke="midnightblue" d="M912.73,-226.613C871.176,-220.198 811.223,-208.287 762,-188 676.97,-152.955 656.247,-137.649 588,-76 568.119,-58.041 549.437,-32.3189 540.501,-19.2709"/>
<polygon fill="midnightblue" stroke="midnightblue" points="912.474,-230.113 922.881,-228.127 913.507,-223.19 912.474,-230.113"/>
</g>
<!-- Node17&#45;&gt;Node9 -->
<g id="edge46" class="edge"><title>Node17&#45;&gt;Node9</title>
<path fill="none" stroke="midnightblue" d="M1013.26,-225.704C1038.29,-219.596 1067.16,-208.418 1086,-188 1100.77,-171.992 1103.58,-144.932 1104.01,-131.331"/>
<polygon fill="midnightblue" stroke="midnightblue" points="1012.16,-222.362 1003.16,-227.951 1013.68,-229.195 1012.16,-222.362"/>
</g>
<!-- Node17&#45;&gt;Node10 -->
<g id="edge47" class="edge"><title>Node17&#45;&gt;Node10</title>
<path fill="none" stroke="midnightblue" d="M1012.78,-222.745C1041.27,-215.58 1076.99,-204.334 1106,-188 1133.71,-172.396 1160.22,-145.153 1172.64,-131.422"/>
<polygon fill="midnightblue" stroke="midnightblue" points="1011.93,-219.351 1003.03,-225.11 1013.58,-226.154 1011.93,-219.351"/>
</g>
<!-- Node17&#45;&gt;Node11 -->
<g id="edge49" class="edge"><title>Node17&#45;&gt;Node11</title>
<path fill="none" stroke="midnightblue" d="M1013.01,-222.792C1047.58,-215.025 1094.31,-203.104 1134,-188 1177.56,-171.425 1225.78,-144.382 1248.61,-131.008"/>
<polygon fill="midnightblue" stroke="midnightblue" points="1012.15,-219.396 1003.14,-224.97 1013.66,-226.232 1012.15,-219.396"/>
</g>
<!-- Node17&#45;&gt;Node12 -->
<g id="edge50" class="edge"><title>Node17&#45;&gt;Node12</title>
<path fill="none" stroke="midnightblue" d="M912.533,-230.17C874.599,-225.821 823.015,-214.958 786,-188 744.491,-157.769 720.419,-97.3146 712.725,-75.2794"/>
<polygon fill="midnightblue" stroke="midnightblue" points="912.541,-233.689 922.847,-231.231 913.258,-226.726 912.541,-233.689"/>
</g>
<!-- Node17&#45;&gt;Node13 -->
<g id="edge51" class="edge"><title>Node17&#45;&gt;Node13</title>
<path fill="none" stroke="midnightblue" d="M957.602,-215.006C950.33,-190.768 937.693,-148.642 932.419,-131.065"/>
<polygon fill="midnightblue" stroke="midnightblue" points="954.294,-216.16 960.52,-224.732 960.998,-214.148 954.294,-216.16"/>
</g>
<!-- Node17&#45;&gt;Node14 -->
<g id="edge52" class="edge"><title>Node17&#45;&gt;Node14</title>
<path fill="none" stroke="midnightblue" d="M1013.18,-224.321C1055.44,-216.482 1117.27,-203.771 1170,-188 1226.02,-171.246 1289.85,-144.524 1320.57,-131.164"/>
<polygon fill="midnightblue" stroke="midnightblue" points="1012.35,-220.915 1003.14,-226.159 1013.61,-227.8 1012.35,-220.915"/>
</g>
<!-- Node17&#45;&gt;Node15 -->
<g id="edge53" class="edge"><title>Node17&#45;&gt;Node15</title>
<path fill="none" stroke="midnightblue" d="M1013.2,-225.79C1063.94,-218.075 1144.45,-204.665 1213,-188 1282.46,-171.114 1362.7,-144.334 1401.15,-131.037"/>
<polygon fill="midnightblue" stroke="midnightblue" points="1012.51,-222.353 1003.15,-227.303 1013.56,-229.275 1012.51,-222.353"/>
</g>
<!-- Node17&#45;&gt;Node16 -->
<g id="edge54" class="edge"><title>Node17&#45;&gt;Node16</title>
<path fill="none" stroke="midnightblue" d="M912.735,-225.683C886.656,-219.551 855.958,-208.357 835,-188 818.868,-172.331 812.981,-145.118 810.967,-131.407"/>
<polygon fill="midnightblue" stroke="midnightblue" points="912.329,-229.176 922.843,-227.867 913.807,-222.334 912.329,-229.176"/>
</g>
<!-- Node18 -->
<g id="node18" class="node"><title>Node18</title>
<g id="a_node18"><a xlink:href="FileHandle_8h.html" target="_top" xlink:title="Declaration for RMF::FileHandle. ">
<polygon fill="none" stroke="black" points="843.929,-169 843.929,-187 916.071,-187 916.071,-169 843.929,-169"/>
<text text-anchor="middle" x="880" y="-175" font-family="Helvetica,sans-Serif" font-size="10.00">FileHandle.h</text>
</a>
</g>
</g>
<!-- Node17&#45;&gt;Node18 -->
<g id="edge33" class="edge"><title>Node17&#45;&gt;Node18</title>
<path fill="none" stroke="midnightblue" d="M941.885,-219.262C926.261,-209.098 905.509,-195.596 892.453,-187.102"/>
<polygon fill="midnightblue" stroke="midnightblue" points="940.103,-222.279 950.394,-224.799 943.921,-216.411 940.103,-222.279"/>
</g>
<!-- Node20 -->
<g id="node20" class="node"><title>Node20</title>
<g id="a_node20"><a xlink:href="Label_8h.html" target="_top" xlink:title="Declaration of RMF::Label. ">
<polygon fill="none" stroke="black" points="1440.6,-169 1440.6,-187 1489.4,-187 1489.4,-169 1440.6,-169"/>
<text text-anchor="middle" x="1465" y="-175" font-family="Helvetica,sans-Serif" font-size="10.00">Label.h</text>
</a>
</g>
</g>
<!-- Node17&#45;&gt;Node20 -->
<g id="edge55" class="edge"><title>Node17&#45;&gt;Node20</title>
<path fill="none" stroke="midnightblue" d="M1013.53,-228.228C1094.53,-220.474 1258.41,-204.353 1397,-188 1411.43,-186.298 1427.55,-184.174 1440.47,-182.417"/>
<polygon fill="midnightblue" stroke="midnightblue" points="1012.75,-224.787 1003.13,-229.221 1013.42,-231.755 1012.75,-224.787"/>
</g>
<!-- Node18&#45;&gt;Node4 -->
<g id="edge34" class="edge"><title>Node18&#45;&gt;Node4</title>
<path fill="none" stroke="midnightblue" d="M906.529,-164.65C928.609,-154.372 959.417,-140.03 978.515,-131.14"/>
<polygon fill="midnightblue" stroke="midnightblue" points="904.955,-161.522 897.366,-168.916 907.909,-167.868 904.955,-161.522"/>
</g>
<!-- Node18&#45;&gt;Node6 -->
<g id="edge37" class="edge"><title>Node18&#45;&gt;Node6</title>
<path fill="none" stroke="midnightblue" d="M883.329,-158.774C885.943,-145.616 889.978,-127.51 895,-112 899.284,-98.7687 905.877,-84.022 910.062,-75.1316"/>
<polygon fill="midnightblue" stroke="midnightblue" points="879.838,-158.395 881.408,-168.873 886.715,-159.703 879.838,-158.395"/>
</g>
<!-- Node18&#45;&gt;Node8 -->
<g id="edge45" class="edge"><title>Node18&#45;&gt;Node8</title>
<path fill="none" stroke="midnightblue" d="M833.698,-168.724C799.592,-161.62 752.625,-149.694 714,-132 643.408,-99.6616 569.942,-40.5078 544.405,-19.0477"/>
<polygon fill="midnightblue" stroke="midnightblue" points="833.351,-172.225 843.846,-170.775 834.738,-165.364 833.351,-172.225"/>
</g>
<!-- Node18&#45;&gt;Node9 -->
<g id="edge35" class="edge"><title>Node18&#45;&gt;Node9</title>
<path fill="none" stroke="midnightblue" d="M923.426,-166.531C967.666,-155.866 1035.11,-139.607 1073.83,-130.273"/>
<polygon fill="midnightblue" stroke="midnightblue" points="922.436,-163.169 913.535,-168.916 924.077,-169.975 922.436,-163.169"/>
</g>
<!-- Node18&#45;&gt;Node10 -->
<g id="edge36" class="edge"><title>Node18&#45;&gt;Node10</title>
<path fill="none" stroke="midnightblue" d="M926.16,-169.966C978.626,-161.764 1066.75,-147.358 1142,-132 1145.32,-131.322 1148.79,-130.566 1152.23,-129.787"/>
<polygon fill="midnightblue" stroke="midnightblue" points="925.499,-166.526 916.156,-171.522 926.575,-173.443 925.499,-166.526"/>
</g>
<!-- Node18&#45;&gt;Node11 -->
<g id="edge38" class="edge"><title>Node18&#45;&gt;Node11</title>
<path fill="none" stroke="midnightblue" d="M926.725,-171.641C991.748,-163.98 1113.13,-148.936 1216,-132 1219.21,-131.471 1222.54,-130.888 1225.88,-130.28"/>
<polygon fill="midnightblue" stroke="midnightblue" points="925.927,-168.211 916.403,-172.851 926.742,-175.163 925.927,-168.211"/>
</g>
<!-- Node18&#45;&gt;Node12 -->
<g id="edge39" class="edge"><title>Node18&#45;&gt;Node12</title>
<path fill="none" stroke="midnightblue" d="M833.322,-174.33C800.349,-170.022 757.331,-159.14 730,-132 714.249,-116.36 710.846,-88.6362 710.15,-75.0116"/>
<polygon fill="midnightblue" stroke="midnightblue" points="833.309,-177.851 843.642,-175.51 834.104,-170.897 833.309,-177.851"/>
</g>
<!-- Node18&#45;&gt;Node13 -->
<g id="edge40" class="edge"><title>Node18&#45;&gt;Node13</title>
<path fill="none" stroke="midnightblue" d="M894.79,-161.027C903.863,-151.228 915.102,-139.09 922.406,-131.201"/>
<polygon fill="midnightblue" stroke="midnightblue" points="892.038,-158.847 887.812,-168.562 897.175,-163.603 892.038,-158.847"/>
</g>
<!-- Node18&#45;&gt;Node14 -->
<g id="edge41" class="edge"><title>Node18&#45;&gt;Node14</title>
<path fill="none" stroke="midnightblue" d="M926.285,-173.12C1021.18,-165.001 1234.94,-145.828 1307,-132 1309.83,-131.456 1312.78,-130.782 1315.69,-130.048"/>
<polygon fill="midnightblue" stroke="midnightblue" points="925.794,-169.649 916.127,-173.986 926.388,-176.624 925.794,-169.649"/>
</g>
<!-- Node18&#45;&gt;Node15 -->
<g id="edge42" class="edge"><title>Node18&#45;&gt;Node15</title>
<path fill="none" stroke="midnightblue" d="M926.354,-173.21C1031.52,-164.538 1285.67,-143.138 1371,-132 1373.87,-131.626 1376.82,-131.21 1379.79,-130.768"/>
<polygon fill="midnightblue" stroke="midnightblue" points="926.034,-169.725 916.355,-174.033 926.608,-176.701 926.034,-169.725"/>
</g>
<!-- Node18&#45;&gt;Node16 -->
<g id="edge43" class="edge"><title>Node18&#45;&gt;Node16</title>
<path fill="none" stroke="midnightblue" d="M861.126,-162.44C848.177,-152.451 831.459,-139.554 820.732,-131.279"/>
<polygon fill="midnightblue" stroke="midnightblue" points="859.313,-165.462 869.369,-168.799 863.588,-159.919 859.313,-165.462"/>
</g>
<!-- Node18&#45;&gt;Node19 -->
<g id="edge44" class="edge"><title>Node18&#45;&gt;Node19</title>
<path fill="none" stroke="midnightblue" d="M833.744,-173.656C693.856,-163.544 277.831,-133.47 162.777,-125.153"/>
<polygon fill="midnightblue" stroke="midnightblue" points="833.492,-177.147 843.718,-174.377 833.997,-170.165 833.492,-177.147"/>
</g>
<!-- Node21 -->
<g id="node21" class="node"><title>Node21</title>
<g id="a_node21"><a xlink:href="labels_8h.html" target="_top" xlink:title="Helper functions for manipulating RMF files. ">
<polygon fill="none" stroke="black" points="1439.77,-57 1439.77,-75 1490.23,-75 1490.23,-57 1439.77,-57"/>
<text text-anchor="middle" x="1465" y="-63" font-family="Helvetica,sans-Serif" font-size="10.00">labels.h</text>
</a>
</g>
</g>
<!-- Node20&#45;&gt;Node21 -->
<g id="edge56" class="edge"><title>Node20&#45;&gt;Node21</title>
<path fill="none" stroke="midnightblue" d="M1471.39,-159.043C1475.27,-146.036 1479.1,-128.001 1477,-112 1475.28,-98.8522 1470.84,-84.082 1467.87,-75.164"/>
<polygon fill="midnightblue" stroke="midnightblue" points="1468.04,-158.038 1468.25,-168.63 1474.69,-160.215 1468.04,-158.038"/>
</g>
<!-- Node21&#45;&gt;Node5 -->
<g id="edge57" class="edge"><title>Node21&#45;&gt;Node5</title>
<path fill="none" stroke="midnightblue" d="M1429.69,-59.7182C1360.86,-49.4219 1209.41,-26.7684 1140.02,-16.3879"/>
<polygon fill="midnightblue" stroke="midnightblue" points="1429.21,-63.1848 1439.62,-61.2028 1430.24,-56.2619 1429.21,-63.1848"/>
</g>
<!-- Node22&#45;&gt;Node8 -->
<g id="edge66" class="edge"><title>Node22&#45;&gt;Node8</title>
<path fill="none" stroke="midnightblue" d="M266.715,-225.746C214.745,-218.361 144.132,-205.51 122,-188 93.8881,-165.759 72.6677,-140.039 95,-112 142.974,-51.7662 376.538,-24.4939 482.517,-15.0704"/>
<polygon fill="midnightblue" stroke="midnightblue" points="266.455,-229.244 276.841,-227.15 267.416,-222.31 266.455,-229.244"/>
</g>
<!-- Node22&#45;&gt;Node18 -->
<g id="edge60" class="edge"><title>Node22&#45;&gt;Node18</title>
<path fill="none" stroke="midnightblue" d="M385.185,-227.231C500.03,-216.037 750.032,-191.668 843.644,-182.544"/>
<polygon fill="midnightblue" stroke="midnightblue" points="384.777,-223.754 375.164,-228.208 385.456,-230.721 384.777,-223.754"/>
</g>
<!-- Node22&#45;&gt;Node19 -->
<g id="edge65" class="edge"><title>Node22&#45;&gt;Node19</title>
<path fill="none" stroke="midnightblue" d="M266.7,-227.189C216.282,-220.878 149.508,-208.8 133,-188 119.952,-171.559 125.864,-144.696 130.073,-131.234"/>
<polygon fill="midnightblue" stroke="midnightblue" points="266.519,-230.692 276.865,-228.412 267.355,-223.742 266.519,-230.692"/>
</g>
<!-- Node23 -->
<g id="node23" class="node"><title>Node23</title>
<g id="a_node23"><a xlink:href="info_8h.html" target="_top" xlink:title="Show info about the file. ">
<polygon fill="none" stroke="black" points="141.769,-169 141.769,-187 182.231,-187 182.231,-169 141.769,-169"/>
<text text-anchor="middle" x="162" y="-175" font-family="Helvetica,sans-Serif" font-size="10.00">info.h</text>
</a>
</g>
</g>
<!-- Node22&#45;&gt;Node23 -->
<g id="edge61" class="edge"><title>Node22&#45;&gt;Node23</title>
<path fill="none" stroke="midnightblue" d="M291.759,-221.726C258.771,-210.864 209.952,-194.789 182.565,-185.771"/>
<polygon fill="midnightblue" stroke="midnightblue" points="290.855,-225.113 301.448,-224.916 293.044,-218.464 290.855,-225.113"/>
</g>
<!-- Node24 -->
<g id="node24" class="node"><title>Node24</title>
<g id="a_node24"><a xlink:href="RestoreCurrentFrame_8h.html" target="_top" xlink:title="Restore the current frame when exiting a scope. ">
<polygon fill="none" stroke="black" points="200.205,-169 200.205,-187 321.795,-187 321.795,-169 200.205,-169"/>
<text text-anchor="middle" x="261" y="-175" font-family="Helvetica,sans-Serif" font-size="10.00">RestoreCurrentFrame.h</text>
</a>
</g>
</g>
<!-- Node22&#45;&gt;Node24 -->
<g id="edge62" class="edge"><title>Node22&#45;&gt;Node24</title>
<path fill="none" stroke="midnightblue" d="M308.126,-218.151C296.152,-208.203 280.83,-195.474 270.965,-187.279"/>
<polygon fill="midnightblue" stroke="midnightblue" points="306.199,-221.101 316.128,-224.799 310.673,-215.716 306.199,-221.101"/>
</g>
<!-- Node25 -->
<g id="node25" class="node"><title>Node25</title>
<g id="a_node25"><a xlink:href="SetCurrentFrame_8h.html" target="_top" xlink:title="Temporarily change the current frame. ">
<polygon fill="none" stroke="black" points="340.207,-169 340.207,-187 441.793,-187 441.793,-169 340.207,-169"/>
<text text-anchor="middle" x="391" y="-175" font-family="Helvetica,sans-Serif" font-size="10.00">SetCurrentFrame.h</text>
</a>
</g>
</g>
<!-- Node22&#45;&gt;Node25 -->
<g id="edge63" class="edge"><title>Node22&#45;&gt;Node25</title>
<path fill="none" stroke="midnightblue" d="M343.874,-218.151C355.848,-208.203 371.17,-195.474 381.035,-187.279"/>
<polygon fill="midnightblue" stroke="midnightblue" points="341.327,-215.716 335.872,-224.799 345.801,-221.101 341.327,-215.716"/>
</g>
<!-- Node26 -->
<g id="node26" class="node"><title>Node26</title>
<g id="a_node26"><a xlink:href="signature_8h.html" target="_top" xlink:title="Return a (long) string describing a file that can be compared. ">
<polygon fill="none" stroke="black" points="460.261,-169 460.261,-187 525.739,-187 525.739,-169 460.261,-169"/>
<text text-anchor="middle" x="493" y="-175" font-family="Helvetica,sans-Serif" font-size="10.00">signature.h</text>
</a>
</g>
</g>
<!-- Node22&#45;&gt;Node26 -->
<g id="edge64" class="edge"><title>Node22&#45;&gt;Node26</title>
<path fill="none" stroke="midnightblue" d="M360.852,-221.731C392.908,-211.365 439.654,-196.25 468.101,-187.051"/>
<polygon fill="midnightblue" stroke="midnightblue" points="359.44,-218.509 351.002,-224.916 361.593,-225.169 359.44,-218.509"/>
</g>
</g>
</svg>
