<?xml version="1.0" encoding="UTF-8" standalone="no"?>
<!DOCTYPE svg PUBLIC "-//W3C//DTD SVG 1.1//EN"
 "http://www.w3.org/Graphics/SVG/1.1/DTD/svg11.dtd">
<!-- Generated by graphviz version 2.34.0 (20131025.1349)
 -->
<!-- Title: sequence.h Pages: 1 -->
<svg width="201pt" height="88pt"
 viewBox="0.00 0.00 201.00 88.00" xmlns="http://www.w3.org/2000/svg" xmlns:xlink="http://www.w3.org/1999/xlink">
<g id="graph0" class="graph" transform="scale(1 1) rotate(0) translate(4 84)">
<title>sequence.h</title>
<!-- Node1 -->
<g id="node1" class="node"><title>Node1</title>
<polygon fill="#bfbfbf" stroke="black" points="54.1455,-59 54.1455,-79 121.854,-79 121.854,-59 54.1455,-59"/>
<text text-anchor="middle" x="88" y="-65" font-family="Helvetica,sans-Serif" font-size="10.00">sequence.h</text>
</g>
<!-- Node2 -->
<g id="node2" class="node"><title>Node2</title>
<g id="a_node2"><a xlink:href="decorators_8h.html" target="_top" xlink:title="Import all the decorators headers. ">
<polygon fill="none" stroke="black" points="-0.792969,-1 -0.792969,-21 70.793,-21 70.793,-1 -0.792969,-1"/>
<text text-anchor="middle" x="35" y="-7" font-family="Helvetica,sans-Serif" font-size="10.00">decorators.h</text>
</a>
</g>
</g>
<!-- Node1&#45;&gt;Node2 -->
<g id="edge1" class="edge"><title>Node1&#45;&gt;Node2</title>
<path fill="none" stroke="midnightblue" d="M72.2987,-51.4099C62.9064,-41.486 51.3308,-29.2551 43.589,-21.0752"/>
<polygon fill="midnightblue" stroke="midnightblue" points="69.8322,-53.8956 79.2481,-58.7527 74.9163,-49.0839 69.8322,-53.8956"/>
</g>
<!-- Node3 -->
<g id="node3" class="node"><title>Node3</title>
<g id="a_node3"><a xlink:href="benchmark__rmf_8cpp_source.html" target="_top" xlink:title="benchmark_rmf.cpp">
<polygon fill="none" stroke="black" points="88.8154,-1 88.8154,-21 193.185,-21 193.185,-1 88.8154,-1"/>
<text text-anchor="middle" x="141" y="-7" font-family="Helvetica,sans-Serif" font-size="10.00">benchmark_rmf.cpp</text>
</a>
</g>
</g>
<!-- Node1&#45;&gt;Node3 -->
<g id="edge2" class="edge"><title>Node1&#45;&gt;Node3</title>
<path fill="none" stroke="midnightblue" d="M103.701,-51.4099C113.094,-41.486 124.669,-29.2551 132.411,-21.0752"/>
<polygon fill="midnightblue" stroke="midnightblue" points="101.084,-49.0839 96.7519,-58.7527 106.168,-53.8956 101.084,-49.0839"/>
</g>
</g>
</svg>
