<?xml version="1.0" encoding="UTF-8" standalone="no"?>
<!DOCTYPE svg PUBLIC "-//W3C//DTD SVG 1.1//EN"
 "http://www.w3.org/Graphics/SVG/1.1/DTD/svg11.dtd">
<!-- Generated by graphviz version 2.36.0 (20140111.2315)
 -->
<!-- Title: sequence.h Pages: 1 -->
<svg width="311pt" height="84pt"
 viewBox="0.00 0.00 311.00 84.00" xmlns="http://www.w3.org/2000/svg" xmlns:xlink="http://www.w3.org/1999/xlink">
<g id="graph0" class="graph" transform="scale(1 1) rotate(0) translate(4 80)">
<title>sequence.h</title>
<!-- Node1 -->
<g id="node1" class="node"><title>Node1</title>
<polygon fill="#bfbfbf" stroke="black" points="101.146,-57 101.146,-75 168.854,-75 168.854,-57 101.146,-57"/>
<text text-anchor="middle" x="135" y="-63" font-family="Helvetica,sans-Serif" font-size="10.00">sequence.h</text>
</g>
<!-- Node2 -->
<g id="node2" class="node"><title>Node2</title>
<g id="a_node2"><a xlink:href="decorators_8h.html" target="_top" xlink:title="Import all the decorators headers. ">
<polygon fill="none" stroke="black" points="-0.792969,-1 -0.792969,-19 70.793,-19 70.793,-1 -0.792969,-1"/>
<text text-anchor="middle" x="35" y="-7" font-family="Helvetica,sans-Serif" font-size="10.00">decorators.h</text>
</a>
</g>
</g>
<!-- Node1&#45;&gt;Node2 -->
<g id="edge1" class="edge"><title>Node1&#45;&gt;Node2</title>
<path fill="none" stroke="midnightblue" d="M110.869,-51.9693C91.9097,-41.7312 66.1017,-27.7949 50.0031,-19.1017"/>
<polygon fill="midnightblue" stroke="midnightblue" points="109.35,-55.1267 119.812,-56.7986 112.676,-48.9673 109.35,-55.1267"/>
</g>
<!-- Node3 -->
<g id="node3" class="node"><title>Node3</title>
<g id="a_node3"><a xlink:href="TraverseHelper_8h.html" target="_top" xlink:title="A helper function for managing data when traversing an RMF. ">
<polygon fill="none" stroke="black" points="88.8311,-1 88.8311,-19 181.169,-19 181.169,-1 88.8311,-1"/>
<text text-anchor="middle" x="135" y="-7" font-family="Helvetica,sans-Serif" font-size="10.00">TraverseHelper.h</text>
</a>
</g>
</g>
<!-- Node1&#45;&gt;Node3 -->
<g id="edge2" class="edge"><title>Node1&#45;&gt;Node3</title>
<path fill="none" stroke="midnightblue" d="M135,-46.3288C135,-37.0774 135,-26.3798 135,-19.2014"/>
<polygon fill="midnightblue" stroke="midnightblue" points="131.5,-46.5625 135,-56.5625 138.5,-46.5625 131.5,-46.5625"/>
</g>
<!-- Node4 -->
<g id="node4" class="node"><title>Node4</title>
<g id="a_node4"><a xlink:href="benchmark__rmf_8cpp_source.html" target="_top" xlink:title="benchmark_rmf.cpp">
<polygon fill="none" stroke="black" points="198.815,-1 198.815,-19 303.185,-19 303.185,-1 198.815,-1"/>
<text text-anchor="middle" x="251" y="-7" font-family="Helvetica,sans-Serif" font-size="10.00">benchmark_rmf.cpp</text>
</a>
</g>
</g>
<!-- Node1&#45;&gt;Node4 -->
<g id="edge3" class="edge"><title>Node1&#45;&gt;Node4</title>
<path fill="none" stroke="midnightblue" d="M161.529,-52.6502C183.609,-42.3716 214.417,-28.0301 233.515,-19.1396"/>
<polygon fill="midnightblue" stroke="midnightblue" points="159.955,-49.5223 152.366,-56.9157 162.909,-55.8683 159.955,-49.5223"/>
</g>
</g>
</svg>
