<?xml version="1.0" encoding="UTF-8" standalone="no"?>
<!DOCTYPE svg PUBLIC "-//W3C//DTD SVG 1.1//EN"
 "http://www.w3.org/Graphics/SVG/1.1/DTD/svg11.dtd">
<!-- Generated by graphviz version 2.36.0 (20140111.2315)
 -->
<!-- Title: sequence.h Pages: 1 -->
<svg width="3204pt" height="576pt"
 viewBox="0.00 0.00 3204.00 576.00" xmlns="http://www.w3.org/2000/svg" xmlns:xlink="http://www.w3.org/1999/xlink">
<g id="graph0" class="graph" transform="scale(1 1) rotate(0) translate(4 572)">
<title>sequence.h</title>
<!-- Node1 -->
<g id="node1" class="node"><title>Node1</title>
<polygon fill="#bfbfbf" stroke="black" points="962.146,-549 962.146,-567 1029.85,-567 1029.85,-549 962.146,-549"/>
<text text-anchor="middle" x="996" y="-555" font-family="Helvetica,sans-Serif" font-size="10.00">sequence.h</text>
</g>
<!-- Node2 -->
<g id="node2" class="node"><title>Node2</title>
<g id="a_node2"><a xlink:href="config_8h_source.html" target="_top" xlink:title="RMF/config.h">
<polygon fill="none" stroke="black" points="1119.27,-66 1119.27,-84 1194.73,-84 1194.73,-66 1119.27,-66"/>
<text text-anchor="middle" x="1157" y="-72" font-family="Helvetica,sans-Serif" font-size="10.00">RMF/config.h</text>
</a>
</g>
</g>
<!-- Node1&#45;&gt;Node2 -->
<g id="edge1" class="edge"><title>Node1&#45;&gt;Node2</title>
<path fill="none" stroke="midnightblue" d="M961.764,-556.908C827.969,-556.266 345.084,-551.231 290,-512 171.347,-427.495 174.894,-338.933 203,-196 209.115,-164.903 204.212,-148.423 230,-130 301.822,-78.6896 929.233,-75.6499 1109.04,-75.8427"/>
<polygon fill="midnightblue" stroke="midnightblue" points="1109.23,-79.3429 1119.24,-75.8577 1109.24,-72.3429 1109.23,-79.3429"/>
</g>
<!-- Node4 -->
<g id="node4" class="node"><title>Node4</title>
<g id="a_node4"><a xlink:href="infrastructure__macros_8h.html" target="_top" xlink:title="Various general useful macros for IMP. ">
<polygon fill="none" stroke="black" points="1937.6,-131 1937.6,-159 2036.4,-159 2036.4,-131 1937.6,-131"/>
<text text-anchor="start" x="1945.6" y="-147" font-family="Helvetica,sans-Serif" font-size="10.00">RMF/infrastructure</text>
<text text-anchor="middle" x="1987" y="-137" font-family="Helvetica,sans-Serif" font-size="10.00">_macros.h</text>
</a>
</g>
</g>
<!-- Node1&#45;&gt;Node4 -->
<g id="edge3" class="edge"><title>Node1&#45;&gt;Node4</title>
<path fill="none" stroke="midnightblue" d="M1030.21,-556.22C1283.23,-550.287 2856.19,-510.543 2923,-438 3178.64,-160.406 2289.6,-144.617 2046.7,-145.37"/>
<polygon fill="midnightblue" stroke="midnightblue" points="2046.63,-141.871 2036.64,-145.412 2046.66,-148.871 2046.63,-141.871"/>
</g>
<!-- Node13 -->
<g id="node13" class="node"><title>Node13</title>
<g id="a_node13"><a xlink:href="NodeHandle_8h.html" target="_top" xlink:title="Declaration of NodeHandle. ">
<polygon fill="none" stroke="black" points="798.813,-410 798.813,-428 903.187,-428 903.187,-410 798.813,-410"/>
<text text-anchor="middle" x="851" y="-416" font-family="Helvetica,sans-Serif" font-size="10.00">RMF/NodeHandle.h</text>
</a>
</g>
</g>
<!-- Node1&#45;&gt;Node13 -->
<g id="edge13" class="edge"><title>Node1&#45;&gt;Node13</title>
<path fill="none" stroke="midnightblue" d="M987.364,-548.84C963.746,-526.525 897.805,-464.222 867.105,-435.216"/>
<polygon fill="midnightblue" stroke="midnightblue" points="869.447,-432.614 859.774,-428.29 864.639,-437.702 869.447,-432.614"/>
</g>
<!-- Node21 -->
<g id="node21" class="node"><title>Node21</title>
<g id="a_node21"><a xlink:href="constants_8h.html" target="_top" xlink:title="Various constants. ">
<polygon fill="none" stroke="black" points="1265.21,-262 1265.21,-280 1356.79,-280 1356.79,-262 1265.21,-262"/>
<text text-anchor="middle" x="1311" y="-268" font-family="Helvetica,sans-Serif" font-size="10.00">RMF/constants.h</text>
</a>
</g>
</g>
<!-- Node1&#45;&gt;Node21 -->
<g id="edge125" class="edge"><title>Node1&#45;&gt;Node21</title>
<path fill="none" stroke="midnightblue" d="M1006.33,-548.98C1051.57,-513.845 1230.39,-374.786 1241,-364 1264.59,-340.006 1287.31,-307.976 1300.18,-288.73"/>
<polygon fill="midnightblue" stroke="midnightblue" points="1303.24,-290.447 1305.81,-280.17 1297.39,-286.598 1303.24,-290.447"/>
</g>
<!-- Node25 -->
<g id="node25" class="node"><title>Node25</title>
<g id="a_node25"><a xlink:href="Vector_8h.html" target="_top" xlink:title="Represent coordinates. ">
<polygon fill="none" stroke="red" points="724.926,-197 724.926,-215 777.074,-215 777.074,-197 724.926,-197"/>
<text text-anchor="middle" x="751" y="-203" font-family="Helvetica,sans-Serif" font-size="10.00">Vector.h</text>
</a>
</g>
</g>
<!-- Node1&#45;&gt;Node25 -->
<g id="edge126" class="edge"><title>Node1&#45;&gt;Node25</title>
<path fill="none" stroke="midnightblue" d="M961.798,-556.772C833.373,-555.118 382.886,-541.89 297,-438 242.741,-372.367 269.507,-295.017 343,-252 405.646,-215.332 626.957,-208.526 714.739,-207.276"/>
<polygon fill="midnightblue" stroke="midnightblue" points="714.807,-210.775 724.762,-207.149 714.719,-203.776 714.807,-210.775"/>
</g>
<!-- Node26 -->
<g id="node26" class="node"><title>Node26</title>
<polygon fill="none" stroke="#bfbfbf" points="264.625,-136 264.625,-154 349.375,-154 349.375,-136 264.625,-136"/>
<text text-anchor="middle" x="307" y="-142" font-family="Helvetica,sans-Serif" font-size="10.00">boost/array.hpp</text>
</g>
<!-- Node1&#45;&gt;Node26 -->
<g id="edge128" class="edge"><title>Node1&#45;&gt;Node26</title>
<path fill="none" stroke="midnightblue" d="M961.98,-556.006C836.534,-552.152 404.23,-537.158 348,-512 265.37,-475.03 254.647,-415.93 265,-326 271.96,-265.545 291.656,-195.881 301.4,-163.827"/>
<polygon fill="midnightblue" stroke="midnightblue" points="304.786,-164.722 304.394,-154.135 298.098,-162.656 304.786,-164.722"/>
</g>
<!-- Node29 -->
<g id="node29" class="node"><title>Node29</title>
<g id="a_node29"><a xlink:href="FileHandle_8h.html" target="_top" xlink:title="Declaration for RMF::FileHandle. ">
<polygon fill="none" stroke="black" points="559.709,-484 559.709,-502 656.291,-502 656.291,-484 559.709,-484"/>
<text text-anchor="middle" x="608" y="-490" font-family="Helvetica,sans-Serif" font-size="10.00">RMF/FileHandle.h</text>
</a>
</g>
</g>
<!-- Node1&#45;&gt;Node29 -->
<g id="edge66" class="edge"><title>Node1&#45;&gt;Node29</title>
<path fill="none" stroke="midnightblue" d="M961.908,-551.464C895.605,-540.699 748.608,-516.831 666.45,-503.491"/>
<polygon fill="midnightblue" stroke="midnightblue" points="666.95,-500.026 656.518,-501.878 665.828,-506.936 666.95,-500.026"/>
</g>
<!-- Node31 -->
<g id="node31" class="node"><title>Node31</title>
<g id="a_node31"><a xlink:href="Decorator_8h.html" target="_top" xlink:title="Mostly empty base classes for decorators and factories. ">
<polygon fill="none" stroke="red" points="1924.93,-484 1924.93,-502 2017.07,-502 2017.07,-484 1924.93,-484"/>
<text text-anchor="middle" x="1971" y="-490" font-family="Helvetica,sans-Serif" font-size="10.00">RMF/Decorator.h</text>
</a>
</g>
</g>
<!-- Node1&#45;&gt;Node31 -->
<g id="edge92" class="edge"><title>Node1&#45;&gt;Node31</title>
<path fill="none" stroke="midnightblue" d="M1030.13,-554.795C1174.28,-545.48 1734.14,-509.305 1914.6,-497.644"/>
<polygon fill="midnightblue" stroke="midnightblue" points="1914.92,-501.131 1924.68,-496.993 1914.47,-494.145 1914.92,-501.131"/>
</g>
<!-- Node49 -->
<g id="node49" class="node"><title>Node49</title>
<polygon fill="none" stroke="black" points="3009,-475 3009,-511 3063,-511 3063,-475 3009,-475"/>
<text text-anchor="middle" x="3035.51" y="-490" font-family="Helvetica,sans-Serif" font-size="10.00">Node49</text>
</g>
<!-- Node1&#45;&gt;Node49 -->
<g id="edge127" class="edge"><title>Node1&#45;&gt;Node49</title>
<path fill="none" stroke="midnightblue" d="M1030.13,-557.032C1277.84,-557.16 2795.89,-556.128 2995,-512 2996.28,-511.716 2997.57,-511.392 2998.86,-511.033"/>
<polygon fill="midnightblue" stroke="midnightblue" points="3000.35,-514.227 3008.71,-507.722 2998.11,-507.592 3000.35,-514.227"/>
</g>
<!-- Node50 -->
<g id="node50" class="node"><title>Node50</title>
<polygon fill="none" stroke="#bfbfbf" points="3080.8,-484 3080.8,-502 3195.2,-502 3195.2,-484 3080.8,-484"/>
<text text-anchor="middle" x="3138" y="-490" font-family="Helvetica,sans-Serif" font-size="10.00">boost/lexical_cast.hpp</text>
</g>
<!-- Node1&#45;&gt;Node50 -->
<g id="edge129" class="edge"><title>Node1&#45;&gt;Node50</title>
<path fill="none" stroke="midnightblue" d="M1030.17,-556.763C1283.21,-554.945 2862.06,-542.434 3072,-512 3082.67,-510.454 3094.06,-507.742 3104.34,-504.885"/>
<polygon fill="midnightblue" stroke="midnightblue" points="3105.54,-508.179 3114.16,-502.017 3103.58,-501.459 3105.54,-508.179"/>
</g>
<!-- Node3 -->
<g id="node3" class="node"><title>Node3</title>
<g id="a_node3"><a xlink:href="compiler__macros_8h.html" target="_top" xlink:title="Various compiler workarounds. ">
<polygon fill="none" stroke="black" points="1061.54,-1 1061.54,-19 1186.46,-19 1186.46,-1 1061.54,-1"/>
<text text-anchor="middle" x="1124" y="-7" font-family="Helvetica,sans-Serif" font-size="10.00">RMF/compiler_macros.h</text>
</a>
</g>
</g>
<!-- Node2&#45;&gt;Node3 -->
<g id="edge2" class="edge"><title>Node2&#45;&gt;Node3</title>
<path fill="none" stroke="midnightblue" d="M1152.69,-65.7639C1147.72,-56.279 1139.42,-40.4361 1133.02,-28.224"/>
<polygon fill="midnightblue" stroke="midnightblue" points="1135.95,-26.2733 1128.21,-19.039 1129.75,-29.5213 1135.95,-26.2733"/>
</g>
<!-- Node4&#45;&gt;Node3 -->
<g id="edge7" class="edge"><title>Node4&#45;&gt;Node3</title>
<path fill="none" stroke="midnightblue" d="M1976.02,-130.683C1956.46,-107.143 1916.83,-60.2491 1908,-56 1844.92,-25.6618 1378.5,-15.0394 1196.47,-12.0243"/>
<polygon fill="midnightblue" stroke="midnightblue" points="1196.51,-8.52461 1186.46,-11.8614 1196.4,-15.5237 1196.51,-8.52461"/>
</g>
<!-- Node5 -->
<g id="node5" class="node"><title>Node5</title>
<polygon fill="none" stroke="#bfbfbf" points="1955.22,-66 1955.22,-84 2006.78,-84 2006.78,-66 1955.22,-66"/>
<text text-anchor="middle" x="1981" y="-72" font-family="Helvetica,sans-Serif" font-size="10.00">sstream</text>
</g>
<!-- Node4&#45;&gt;Node5 -->
<g id="edge4" class="edge"><title>Node4&#45;&gt;Node5</title>
<path fill="none" stroke="midnightblue" d="M1985.84,-130.889C1984.93,-120.584 1983.66,-106.1 1982.64,-94.5982"/>
<polygon fill="midnightblue" stroke="midnightblue" points="1986.1,-94.0088 1981.74,-84.3552 1979.13,-94.6241 1986.1,-94.0088"/>
</g>
<!-- Node6 -->
<g id="node6" class="node"><title>Node6</title>
<polygon fill="none" stroke="#bfbfbf" points="1844.83,-66 1844.83,-84 1899.17,-84 1899.17,-66 1844.83,-66"/>
<text text-anchor="middle" x="1872" y="-72" font-family="Helvetica,sans-Serif" font-size="10.00">iostream</text>
</g>
<!-- Node4&#45;&gt;Node6 -->
<g id="edge5" class="edge"><title>Node4&#45;&gt;Node6</title>
<path fill="none" stroke="midnightblue" d="M1964.83,-130.889C1944.56,-118.907 1914.74,-101.275 1894.41,-89.2502"/>
<polygon fill="midnightblue" stroke="midnightblue" points="1896.19,-86.2373 1885.8,-84.1601 1892.63,-92.2627 1896.19,-86.2373"/>
</g>
<!-- Node7 -->
<g id="node7" class="node"><title>Node7</title>
<polygon fill="none" stroke="#bfbfbf" points="1718.77,-66 1718.77,-84 1759.23,-84 1759.23,-66 1718.77,-66"/>
<text text-anchor="middle" x="1739" y="-72" font-family="Helvetica,sans-Serif" font-size="10.00">string</text>
</g>
<!-- Node4&#45;&gt;Node7 -->
<g id="edge6" class="edge"><title>Node4&#45;&gt;Node7</title>
<path fill="none" stroke="midnightblue" d="M1939.48,-130.969C1889.19,-117.182 1811.38,-95.8464 1769,-84.2271"/>
<polygon fill="midnightblue" stroke="midnightblue" points="1769.85,-80.8298 1759.28,-81.5608 1768,-87.5806 1769.85,-80.8298"/>
</g>
<!-- Node8 -->
<g id="node8" class="node"><title>Node8</title>
<polygon fill="none" stroke="black" points="2025,-57 2025,-93 2079,-93 2079,-57 2025,-57"/>
<text text-anchor="middle" x="2051.73" y="-72" font-family="Helvetica,sans-Serif" font-size="10.00">Node8</text>
</g>
<!-- Node4&#45;&gt;Node8 -->
<g id="edge8" class="edge"><title>Node4&#45;&gt;Node8</title>
<path fill="none" stroke="midnightblue" d="M1999.53,-130.889C2007.71,-122.339 2018.63,-110.912 2028.39,-100.699"/>
<polygon fill="midnightblue" stroke="midnightblue" points="2031.19,-102.839 2035.57,-93.1922 2026.13,-98.0025 2031.19,-102.839"/>
</g>
<!-- Node9 -->
<g id="node9" class="node"><title>Node9</title>
<polygon fill="none" stroke="#bfbfbf" points="133.384,-66 133.384,-84 176.616,-84 176.616,-66 133.384,-66"/>
<text text-anchor="middle" x="155" y="-72" font-family="Helvetica,sans-Serif" font-size="10.00">vector</text>
</g>
<!-- Node4&#45;&gt;Node9 -->
<g id="edge9" class="edge"><title>Node4&#45;&gt;Node9</title>
<path fill="none" stroke="midnightblue" d="M1937.52,-142.164C1670.4,-132.249 404.392,-85.2569 186.855,-77.1824"/>
<polygon fill="midnightblue" stroke="midnightblue" points="186.867,-73.6805 176.744,-76.8071 186.607,-80.6757 186.867,-73.6805"/>
</g>
<!-- Node10 -->
<g id="node10" class="node"><title>Node10</title>
<polygon fill="none" stroke="#bfbfbf" points="2097.31,-66 2097.31,-84 2186.69,-84 2186.69,-66 2097.31,-66"/>
<text text-anchor="middle" x="2142" y="-72" font-family="Helvetica,sans-Serif" font-size="10.00">boost/config.hpp</text>
</g>
<!-- Node4&#45;&gt;Node10 -->
<g id="edge10" class="edge"><title>Node4&#45;&gt;Node10</title>
<path fill="none" stroke="midnightblue" d="M2016.89,-130.889C2044.93,-118.584 2086.57,-100.318 2113.99,-88.2877"/>
<polygon fill="midnightblue" stroke="midnightblue" points="2115.65,-91.3828 2123.4,-84.1601 2112.84,-84.9726 2115.65,-91.3828"/>
</g>
<!-- Node11 -->
<g id="node11" class="node"><title>Node11</title>
<polygon fill="none" stroke="#bfbfbf" points="2607.53,-66 2607.53,-84 2702.47,-84 2702.47,-66 2607.53,-66"/>
<text text-anchor="middle" x="2655" y="-72" font-family="Helvetica,sans-Serif" font-size="10.00">boost/version.hpp</text>
</g>
<!-- Node4&#45;&gt;Node11 -->
<g id="edge11" class="edge"><title>Node4&#45;&gt;Node11</title>
<path fill="none" stroke="midnightblue" d="M2036.66,-138.945C2157.81,-126.613 2467.99,-95.0374 2597.17,-81.8867"/>
<polygon fill="midnightblue" stroke="midnightblue" points="2597.67,-85.3544 2607.26,-80.8595 2596.96,-78.3904 2597.67,-85.3544"/>
</g>
<!-- Node12 -->
<g id="node12" class="node"><title>Node12</title>
<polygon fill="none" stroke="#bfbfbf" points="2204.97,-66 2204.97,-84 2301.03,-84 2301.03,-66 2204.97,-66"/>
<text text-anchor="middle" x="2253" y="-72" font-family="Helvetica,sans-Serif" font-size="10.00">boost/foreach.hpp</text>
</g>
<!-- Node4&#45;&gt;Node12 -->
<g id="edge12" class="edge"><title>Node4&#45;&gt;Node12</title>
<path fill="none" stroke="midnightblue" d="M2036.4,-133.077C2078.69,-123.499 2141.11,-108.824 2195,-94 2202.63,-91.9003 2210.78,-89.4836 2218.48,-87.1166"/>
<polygon fill="midnightblue" stroke="midnightblue" points="2219.76,-90.3831 2228.27,-84.0643 2217.68,-83.7006 2219.76,-90.3831"/>
</g>
<!-- Node13&#45;&gt;Node2 -->
<g id="edge59" class="edge"><title>Node13&#45;&gt;Node2</title>
<path fill="none" stroke="midnightblue" d="M844.283,-409.781C826.616,-388.25 779.551,-331.482 770,-326 697.73,-284.52 638.964,-354.331 586,-290 575.265,-276.962 577.766,-266.746 586,-252 636.396,-161.754 686.832,-165.249 784,-130 895.684,-89.4857 1036.58,-79.2771 1109.07,-76.7656"/>
<polygon fill="midnightblue" stroke="midnightblue" points="1109.37,-80.258 1119.25,-76.4482 1109.15,-73.2614 1109.37,-80.258"/>
</g>
<!-- Node13&#45;&gt;Node4 -->
<g id="edge62" class="edge"><title>Node13&#45;&gt;Node4</title>
<path fill="none" stroke="midnightblue" d="M903.216,-415.307C1104.17,-404.917 1816.97,-367.833 1828,-364 1935.85,-326.507 1985.43,-317.362 2038,-216 2047.52,-197.647 2032.1,-178.815 2015.78,-165.313"/>
<polygon fill="midnightblue" stroke="midnightblue" points="2017.86,-162.493 2007.81,-159.139 2013.57,-168.028 2017.86,-162.493"/>
</g>
<!-- Node13&#45;&gt;Node7 -->
<g id="edge15" class="edge"><title>Node13&#45;&gt;Node7</title>
<path fill="none" stroke="midnightblue" d="M903.319,-414.568C1031.14,-405.994 1356.69,-382.963 1464,-364 1589.06,-341.9 1662.7,-390.761 1740,-290 1785.27,-230.992 1759.13,-133.417 1745.58,-93.6702"/>
<polygon fill="midnightblue" stroke="midnightblue" points="1748.81,-92.3188 1742.16,-84.0732 1742.22,-94.6678 1748.81,-92.3188"/>
</g>
<!-- Node13&#45;&gt;Node9 -->
<g id="edge16" class="edge"><title>Node13&#45;&gt;Node9</title>
<path fill="none" stroke="midnightblue" d="M836.421,-409.895C819.536,-400.155 791.312,-382.762 770,-364 753.211,-349.219 756.218,-337.446 737,-326 673.632,-288.257 645.4,-311.995 575,-290 428.867,-244.344 387.285,-238.762 256,-160 222.802,-140.083 189.222,-109.646 170.364,-91.3976"/>
<polygon fill="midnightblue" stroke="midnightblue" points="172.814,-88.8985 163.227,-84.3892 167.909,-93.893 172.814,-88.8985"/>
</g>
<!-- Node14 -->
<g id="node14" class="node"><title>Node14</title>
<polygon fill="none" stroke="#bfbfbf" points="909.018,-262 909.018,-280 1018.98,-280 1018.98,-262 909.018,-262"/>
<text text-anchor="middle" x="964" y="-268" font-family="Helvetica,sans-Serif" font-size="10.00">boost/shared_ptr.hpp</text>
</g>
<!-- Node13&#45;&gt;Node14 -->
<g id="edge14" class="edge"><title>Node13&#45;&gt;Node14</title>
<path fill="none" stroke="midnightblue" d="M888.188,-409.968C913.003,-402.505 943.926,-388.689 960,-364 974.432,-341.833 971.881,-309.892 968.27,-290.069"/>
<polygon fill="midnightblue" stroke="midnightblue" points="971.678,-289.27 966.199,-280.202 964.828,-290.707 971.678,-289.27"/>
</g>
<!-- Node15 -->
<g id="node15" class="node"><title>Node15</title>
<g id="a_node15"><a xlink:href="ID_8h.html" target="_top" xlink:title="Declaration of RMF::ID. ">
<polygon fill="none" stroke="red" points="1136.83,-197 1136.83,-215 1171.17,-215 1171.17,-197 1136.83,-197"/>
<text text-anchor="middle" x="1154" y="-203" font-family="Helvetica,sans-Serif" font-size="10.00">ID.h</text>
</a>
</g>
</g>
<!-- Node13&#45;&gt;Node15 -->
<g id="edge17" class="edge"><title>Node13&#45;&gt;Node15</title>
<path fill="none" stroke="midnightblue" d="M869.47,-409.956C886.633,-401.354 911.131,-385.922 922,-364 929.502,-348.869 926.574,-342.258 922,-326 916.921,-307.95 905.079,-308.05 900,-290 895.426,-273.742 889.149,-264.942 900,-252 928.712,-217.754 1067.03,-209.555 1126.61,-207.604"/>
<polygon fill="midnightblue" stroke="midnightblue" points="1126.88,-211.097 1136.77,-207.307 1126.67,-204.1 1126.88,-211.097"/>
</g>
<!-- Node16 -->
<g id="node16" class="node"><title>Node16</title>
<g id="a_node16"><a xlink:href="exceptions_8h.html" target="_top" xlink:title="Declarations of the various exception types. ">
<polygon fill="none" stroke="red" points="1056.93,-136 1056.93,-154 1129.07,-154 1129.07,-136 1056.93,-136"/>
<text text-anchor="middle" x="1093" y="-142" font-family="Helvetica,sans-Serif" font-size="10.00">exceptions.h</text>
</a>
</g>
</g>
<!-- Node13&#45;&gt;Node16 -->
<g id="edge61" class="edge"><title>Node13&#45;&gt;Node16</title>
<path fill="none" stroke="midnightblue" d="M853.173,-409.971C856.001,-399.441 861.049,-380.382 865,-364 876.957,-314.419 858.948,-292.46 890,-252 929.916,-199.99 1002.64,-171.002 1049.34,-156.957"/>
<polygon fill="midnightblue" stroke="midnightblue" points="1050.55,-160.251 1059.18,-154.104 1048.6,-153.529 1050.55,-160.251"/>
</g>
<!-- Node17 -->
<g id="node17" class="node"><title>Node17</title>
<g id="a_node17"><a xlink:href="NodeConstHandle_8h.html" target="_top" xlink:title="Declaration of NodeConstHandlke. ">
<polygon fill="none" stroke="red" points="1125.97,-336 1125.97,-354 1232.03,-354 1232.03,-336 1125.97,-336"/>
<text text-anchor="middle" x="1179" y="-342" font-family="Helvetica,sans-Serif" font-size="10.00">NodeConstHandle.h</text>
</a>
</g>
</g>
<!-- Node13&#45;&gt;Node17 -->
<g id="edge24" class="edge"><title>Node13&#45;&gt;Node17</title>
<path fill="none" stroke="midnightblue" d="M887.671,-409.95C947.573,-396.801 1066.32,-370.734 1132.21,-356.271"/>
<polygon fill="midnightblue" stroke="midnightblue" points="1133.3,-359.616 1142.31,-354.053 1131.8,-352.778 1133.3,-359.616"/>
</g>
<!-- Node19 -->
<g id="node19" class="node"><title>Node19</title>
<g id="a_node19"><a xlink:href="Nullable_8h.html" target="_top" xlink:title="A helper class for allowing nice return of possibly null values. ">
<polygon fill="none" stroke="red" points="1226.54,-197 1226.54,-215 1311.46,-215 1311.46,-197 1226.54,-197"/>
<text text-anchor="middle" x="1269" y="-203" font-family="Helvetica,sans-Serif" font-size="10.00">RMF/Nullable.h</text>
</a>
</g>
</g>
<!-- Node13&#45;&gt;Node19 -->
<g id="edge58" class="edge"><title>Node13&#45;&gt;Node19</title>
<path fill="none" stroke="midnightblue" d="M903.334,-417.32C979.67,-414.881 1125.08,-404.721 1241,-364 1301.55,-342.729 1333.31,-345.811 1365,-290 1373.34,-275.313 1374.06,-266.253 1365,-252 1354.59,-235.616 1336.46,-225.094 1318.74,-218.385"/>
<polygon fill="midnightblue" stroke="midnightblue" points="1319.59,-214.975 1308.99,-215.037 1317.31,-221.595 1319.59,-214.975"/>
</g>
<!-- Node20 -->
<g id="node20" class="node"><title>Node20</title>
<polygon fill="none" stroke="black" points="761,-253 761,-289 815,-289 815,-253 761,-253"/>
<text text-anchor="middle" x="787.515" y="-268" font-family="Helvetica,sans-Serif" font-size="10.00">Node20</text>
</g>
<!-- Node13&#45;&gt;Node20 -->
<g id="edge63" class="edge"><title>Node13&#45;&gt;Node20</title>
<path fill="none" stroke="midnightblue" d="M852.495,-409.887C855.16,-393.239 859.289,-354.396 846,-326 840.579,-314.415 831.446,-304.123 822.012,-295.712"/>
<polygon fill="midnightblue" stroke="midnightblue" points="824.012,-292.822 814.091,-289.102 819.527,-298.197 824.012,-292.822"/>
</g>
<!-- Node22 -->
<g id="node22" class="node"><title>Node22</title>
<g id="a_node22"><a xlink:href="enums_8h.html" target="_top" xlink:title="The various enums used in RMF. ">
<polygon fill="none" stroke="red" points="1652.6,-262 1652.6,-280 1731.4,-280 1731.4,-262 1652.6,-262"/>
<text text-anchor="middle" x="1692" y="-268" font-family="Helvetica,sans-Serif" font-size="10.00">RMF/enums.h</text>
</a>
</g>
</g>
<!-- Node13&#45;&gt;Node22 -->
<g id="edge60" class="edge"><title>Node13&#45;&gt;Node22</title>
<path fill="none" stroke="midnightblue" d="M903.487,-413.884C1040.83,-403.005 1401.92,-373.663 1426,-364 1451.25,-353.866 1449.41,-337.644 1474,-326 1541.84,-293.878 1566.68,-310.101 1639,-290 1645.98,-288.059 1653.39,-285.722 1660.39,-283.383"/>
<polygon fill="midnightblue" stroke="midnightblue" points="1661.93,-286.556 1670.25,-280.002 1659.66,-279.935 1661.93,-286.556"/>
</g>
<!-- Node24 -->
<g id="node24" class="node"><title>Node24</title>
<g id="a_node24"><a xlink:href="types_8h.html" target="_top" xlink:title="Default implementation for types.h. ">
<polygon fill="none" stroke="black" points="594.66,-262 594.66,-280 667.34,-280 667.34,-262 594.66,-262"/>
<text text-anchor="middle" x="631" y="-268" font-family="Helvetica,sans-Serif" font-size="10.00">RMF/types.h</text>
</a>
</g>
</g>
<!-- Node13&#45;&gt;Node24 -->
<g id="edge65" class="edge"><title>Node13&#45;&gt;Node24</title>
<path fill="none" stroke="midnightblue" d="M849.495,-409.769C845.782,-391.834 834.496,-348.998 808,-326 771.362,-294.199 716.361,-281.126 677.409,-275.751"/>
<polygon fill="midnightblue" stroke="midnightblue" points="677.734,-272.265 667.375,-274.487 676.859,-279.21 677.734,-272.265"/>
</g>
<!-- Node28 -->
<g id="node28" class="node"><title>Node28</title>
<polygon fill="none" stroke="black" points="674,-327 674,-363 728,-363 728,-327 674,-327"/>
<text text-anchor="middle" x="700.515" y="-342" font-family="Helvetica,sans-Serif" font-size="10.00">Node28</text>
</g>
<!-- Node13&#45;&gt;Node28 -->
<g id="edge64" class="edge"><title>Node13&#45;&gt;Node28</title>
<path fill="none" stroke="midnightblue" d="M834.085,-409.881C810.754,-398.682 768.102,-378.209 737.363,-363.454"/>
<polygon fill="midnightblue" stroke="midnightblue" points="738.77,-360.247 728.24,-359.075 735.741,-366.558 738.77,-360.247"/>
</g>
<!-- Node15&#45;&gt;Node2 -->
<g id="edge18" class="edge"><title>Node15&#45;&gt;Node2</title>
<path fill="none" stroke="midnightblue" d="M1154.19,-196.93C1154.66,-176.569 1155.91,-122.707 1156.58,-94.235"/>
<polygon fill="midnightblue" stroke="midnightblue" points="1160.08,-94.1452 1156.81,-84.0665 1153.08,-93.9824 1160.08,-94.1452"/>
</g>
<!-- Node15&#45;&gt;Node4 -->
<g id="edge19" class="edge"><title>Node15&#45;&gt;Node4</title>
<path fill="none" stroke="midnightblue" d="M1171.34,-202.203C1184.19,-200.219 1202.15,-197.627 1218,-196 1481.7,-168.925 1797.85,-153.809 1927.31,-148.359"/>
<polygon fill="midnightblue" stroke="midnightblue" points="1927.57,-151.851 1937.41,-147.937 1927.27,-144.857 1927.57,-151.851"/>
</g>
<!-- Node15&#45;&gt;Node16 -->
<g id="edge20" class="edge"><title>Node15&#45;&gt;Node16</title>
<path fill="none" stroke="midnightblue" d="M1145.52,-196.796C1136.05,-187.638 1120.52,-172.615 1108.8,-161.277"/>
<polygon fill="midnightblue" stroke="midnightblue" points="1111.03,-158.571 1101.41,-154.134 1106.16,-163.602 1111.03,-158.571"/>
</g>
<!-- Node16&#45;&gt;Node2 -->
<g id="edge22" class="edge"><title>Node16&#45;&gt;Node2</title>
<path fill="none" stroke="midnightblue" d="M1100.59,-135.932C1110.89,-124.992 1129.49,-105.233 1142.5,-91.4032"/>
<polygon fill="midnightblue" stroke="midnightblue" points="1145.11,-93.7378 1149.42,-84.057 1140.01,-88.9403 1145.11,-93.7378"/>
</g>
<!-- Node16&#45;&gt;Node3 -->
<g id="edge23" class="edge"><title>Node16&#45;&gt;Node3</title>
<path fill="none" stroke="midnightblue" d="M1094.29,-135.683C1096.8,-119.987 1102.72,-84.9746 1110,-56 1112.27,-46.9515 1115.3,-37.0355 1117.96,-28.8202"/>
<polygon fill="midnightblue" stroke="midnightblue" points="1121.32,-29.8094 1121.14,-19.216 1114.67,-27.6056 1121.32,-29.8094"/>
</g>
<!-- Node16&#45;&gt;Node7 -->
<g id="edge21" class="edge"><title>Node16&#45;&gt;Node7</title>
<path fill="none" stroke="midnightblue" d="M1129.12,-140.198C1244.33,-128.07 1601.82,-90.4399 1708.59,-79.2011"/>
<polygon fill="midnightblue" stroke="midnightblue" points="1709.1,-82.6664 1718.68,-78.1387 1708.37,-75.7048 1709.1,-82.6664"/>
</g>
<!-- Node17&#45;&gt;Node2 -->
<g id="edge35" class="edge"><title>Node17&#45;&gt;Node2</title>
<path fill="none" stroke="midnightblue" d="M1179.2,-335.95C1179.44,-325.398 1179.85,-306.315 1180,-290 1180.39,-248.224 1183.14,-237.66 1180,-196 1177.77,-166.416 1175.7,-159.116 1170,-130 1167.63,-117.908 1164.39,-104.433 1161.74,-93.969"/>
<polygon fill="midnightblue" stroke="midnightblue" points="1165.05,-92.807 1159.15,-84.0036 1158.27,-94.5617 1165.05,-92.807"/>
</g>
<!-- Node17&#45;&gt;Node4 -->
<g id="edge37" class="edge"><title>Node17&#45;&gt;Node4</title>
<path fill="none" stroke="midnightblue" d="M1216.52,-335.938C1232.9,-332.586 1252.35,-328.826 1270,-326 1399.55,-305.257 1436.92,-326.315 1563,-290 1601.21,-278.993 1606.91,-266.35 1644,-252 1741.51,-214.271 1858.51,-180.473 1927.58,-161.654"/>
<polygon fill="midnightblue" stroke="midnightblue" points="1928.68,-164.982 1937.42,-158.988 1926.85,-158.226 1928.68,-164.982"/>
</g>
<!-- Node17&#45;&gt;Node6 -->
<g id="edge27" class="edge"><title>Node17&#45;&gt;Node6</title>
<path fill="none" stroke="midnightblue" d="M1217.44,-335.915C1233.63,-332.635 1252.69,-328.936 1270,-326 1382.41,-306.931 1421.66,-340.27 1524,-290 1545.72,-279.33 1543.66,-266.551 1563,-252 1659.8,-179.163 1789.74,-114.584 1845.15,-88.3945"/>
<polygon fill="midnightblue" stroke="midnightblue" points="1846.74,-91.5163 1854.31,-84.0989 1843.77,-85.1796 1846.74,-91.5163"/>
</g>
<!-- Node17&#45;&gt;Node7 -->
<g id="edge28" class="edge"><title>Node17&#45;&gt;Node7</title>
<path fill="none" stroke="midnightblue" d="M1206.21,-335.918C1218.32,-332.522 1232.79,-328.735 1246,-326 1353.77,-303.684 1398.75,-350.02 1491,-290 1561.49,-244.139 1526.6,-182.87 1592,-130 1626.48,-102.127 1676.68,-87.8527 1708.58,-81.1625"/>
<polygon fill="midnightblue" stroke="midnightblue" points="1709.51,-84.5455 1718.65,-79.1757 1708.16,-77.6779 1709.51,-84.5455"/>
</g>
<!-- Node17&#45;&gt;Node9 -->
<g id="edge29" class="edge"><title>Node17&#45;&gt;Node9</title>
<path fill="none" stroke="midnightblue" d="M1169.09,-335.865C1145.91,-317.342 1085.66,-272.077 1027,-252 895.352,-206.942 852.9,-240.898 716,-216 610.252,-196.768 288.866,-111.747 186.604,-84.4608"/>
<polygon fill="midnightblue" stroke="midnightblue" points="187.425,-81.0576 176.86,-81.8588 185.619,-87.8205 187.425,-81.0576"/>
</g>
<!-- Node17&#45;&gt;Node14 -->
<g id="edge26" class="edge"><title>Node17&#45;&gt;Node14</title>
<path fill="none" stroke="midnightblue" d="M1154.75,-335.881C1116.34,-323.018 1041.4,-297.919 997.753,-283.303"/>
<polygon fill="midnightblue" stroke="midnightblue" points="998.751,-279.946 988.157,-280.09 996.528,-286.584 998.751,-279.946"/>
</g>
<!-- Node17&#45;&gt;Node15 -->
<g id="edge30" class="edge"><title>Node17&#45;&gt;Node15</title>
<path fill="none" stroke="midnightblue" d="M1177.51,-335.84C1173.58,-314.285 1162.84,-255.418 1157.34,-225.292"/>
<polygon fill="midnightblue" stroke="midnightblue" points="1160.75,-224.499 1155.51,-215.29 1153.86,-225.756 1160.75,-224.499"/>
</g>
<!-- Node17&#45;&gt;Node16 -->
<g id="edge36" class="edge"><title>Node17&#45;&gt;Node16</title>
<path fill="none" stroke="midnightblue" d="M1175.52,-335.993C1162.8,-306.709 1118.62,-204.984 1100.67,-163.658"/>
<polygon fill="midnightblue" stroke="midnightblue" points="1103.81,-162.104 1096.62,-154.326 1097.39,-164.893 1103.81,-162.104"/>
</g>
<!-- Node18 -->
<g id="node18" class="node"><title>Node18</title>
<polygon fill="none" stroke="#bfbfbf" points="1841.96,-262 1841.96,-280 1920.04,-280 1920.04,-262 1841.96,-262"/>
<text text-anchor="middle" x="1881" y="-268" font-family="Helvetica,sans-Serif" font-size="10.00">boost/any.hpp</text>
</g>
<!-- Node17&#45;&gt;Node18 -->
<g id="edge25" class="edge"><title>Node17&#45;&gt;Node18</title>
<path fill="none" stroke="midnightblue" d="M1232.04,-339.447C1331.67,-330.772 1553.54,-310.87 1740,-290 1770.55,-286.58 1804.76,-282.226 1831.83,-278.657"/>
<polygon fill="midnightblue" stroke="midnightblue" points="1832.38,-282.114 1841.84,-277.331 1831.46,-275.175 1832.38,-282.114"/>
</g>
<!-- Node17&#45;&gt;Node19 -->
<g id="edge31" class="edge"><title>Node17&#45;&gt;Node19</title>
<path fill="none" stroke="midnightblue" d="M1184.36,-335.84C1198.77,-313.905 1238.56,-253.332 1258.01,-223.726"/>
<polygon fill="midnightblue" stroke="midnightblue" points="1260.99,-225.57 1263.55,-215.29 1255.14,-221.726 1260.99,-225.57"/>
</g>
<!-- Node17&#45;&gt;Node20 -->
<g id="edge38" class="edge"><title>Node17&#45;&gt;Node20</title>
<path fill="none" stroke="midnightblue" d="M1135.29,-335.95C1057.79,-321.68 897.675,-292.196 825.147,-278.84"/>
<polygon fill="midnightblue" stroke="midnightblue" points="825.57,-275.36 815.102,-276.991 824.303,-282.244 825.57,-275.36"/>
</g>
<!-- Node17&#45;&gt;Node21 -->
<g id="edge39" class="edge"><title>Node17&#45;&gt;Node21</title>
<path fill="none" stroke="midnightblue" d="M1193.89,-335.881C1216.56,-323.511 1259.99,-299.826 1287.11,-285.03"/>
<polygon fill="midnightblue" stroke="midnightblue" points="1288.86,-288.061 1295.97,-280.2 1285.51,-281.916 1288.86,-288.061"/>
</g>
<!-- Node17&#45;&gt;Node22 -->
<g id="edge42" class="edge"><title>Node17&#45;&gt;Node22</title>
<path fill="none" stroke="midnightblue" d="M1232.13,-338.375C1312.3,-329.623 1468.86,-311.497 1601,-290 1615.2,-287.69 1630.57,-284.801 1644.56,-282.018"/>
<polygon fill="midnightblue" stroke="midnightblue" points="1645.36,-285.427 1654.47,-280.02 1643.98,-278.565 1645.36,-285.427"/>
</g>
<!-- Node23 -->
<g id="node23" class="node"><title>Node23</title>
<g id="a_node23"><a xlink:href="keys_8h.html" target="_top" xlink:title="Declarations of the various key types. ">
<polygon fill="none" stroke="red" points="1413.33,-262 1413.33,-280 1482.67,-280 1482.67,-262 1413.33,-262"/>
<text text-anchor="middle" x="1448" y="-268" font-family="Helvetica,sans-Serif" font-size="10.00">RMF/keys.h</text>
</a>
</g>
</g>
<!-- Node17&#45;&gt;Node23 -->
<g id="edge46" class="edge"><title>Node17&#45;&gt;Node23</title>
<path fill="none" stroke="midnightblue" d="M1209.02,-335.928C1220.57,-332.821 1233.9,-329.242 1246,-326 1302.24,-310.927 1367.31,-293.542 1408.06,-282.66"/>
<polygon fill="midnightblue" stroke="midnightblue" points="1409.12,-286.001 1417.88,-280.039 1407.32,-279.237 1409.12,-286.001"/>
</g>
<!-- Node17&#45;&gt;Node24 -->
<g id="edge50" class="edge"><title>Node17&#45;&gt;Node24</title>
<path fill="none" stroke="midnightblue" d="M1125.7,-337.639C1044.83,-327.903 886.355,-308.487 752,-290 727.369,-286.611 699.961,-282.557 677.467,-279.155"/>
<polygon fill="midnightblue" stroke="midnightblue" points="677.918,-275.684 667.505,-277.643 676.867,-282.605 677.918,-275.684"/>
</g>
<!-- Node19&#45;&gt;Node2 -->
<g id="edge32" class="edge"><title>Node19&#45;&gt;Node2</title>
<path fill="none" stroke="midnightblue" d="M1263.52,-196.787C1253.93,-182.623 1233.2,-152.918 1213,-130 1200.78,-116.14 1185.63,-101.673 1174.17,-91.2057"/>
<polygon fill="midnightblue" stroke="midnightblue" points="1176.34,-88.4522 1166.57,-84.3564 1171.66,-93.6516 1176.34,-88.4522"/>
</g>
<!-- Node19&#45;&gt;Node4 -->
<g id="edge33" class="edge"><title>Node19&#45;&gt;Node4</title>
<path fill="none" stroke="midnightblue" d="M1311.5,-201.508C1433.61,-191.473 1785.78,-162.535 1927.18,-150.915"/>
<polygon fill="midnightblue" stroke="midnightblue" points="1927.72,-154.383 1937.4,-150.076 1927.14,-147.407 1927.72,-154.383"/>
</g>
<!-- Node19&#45;&gt;Node16 -->
<g id="edge34" class="edge"><title>Node19&#45;&gt;Node16</title>
<path fill="none" stroke="midnightblue" d="M1244.9,-196.92C1214.31,-186.665 1161.37,-168.919 1126.77,-157.319"/>
<polygon fill="midnightblue" stroke="midnightblue" points="1127.69,-153.937 1117.09,-154.077 1125.46,-160.574 1127.69,-153.937"/>
</g>
<!-- Node21&#45;&gt;Node2 -->
<g id="edge40" class="edge"><title>Node21&#45;&gt;Node2</title>
<path fill="none" stroke="midnightblue" d="M1314.76,-261.769C1320.66,-247.601 1330.37,-218.008 1320,-196 1293.89,-140.618 1227.82,-105.036 1188.27,-87.956"/>
<polygon fill="midnightblue" stroke="midnightblue" points="1189.41,-84.6369 1178.83,-84.0115 1186.71,-91.0959 1189.41,-84.6369"/>
</g>
<!-- Node21&#45;&gt;Node15 -->
<g id="edge41" class="edge"><title>Node21&#45;&gt;Node15</title>
<path fill="none" stroke="midnightblue" d="M1290.8,-261.893C1262.7,-250.617 1211.77,-230.181 1180.61,-217.676"/>
<polygon fill="midnightblue" stroke="midnightblue" points="1181.82,-214.393 1171.24,-213.917 1179.21,-220.889 1181.82,-214.393"/>
</g>
<!-- Node22&#45;&gt;Node2 -->
<g id="edge43" class="edge"><title>Node22&#45;&gt;Node2</title>
<path fill="none" stroke="midnightblue" d="M1678.92,-261.871C1632.95,-233.345 1480.21,-139.033 1456,-130 1370.97,-98.2806 1265.18,-84.806 1204.94,-79.3795"/>
<polygon fill="midnightblue" stroke="midnightblue" points="1205.22,-75.8908 1194.96,-78.5166 1204.62,-82.8648 1205.22,-75.8908"/>
</g>
<!-- Node22&#45;&gt;Node6 -->
<g id="edge45" class="edge"><title>Node22&#45;&gt;Node6</title>
<path fill="none" stroke="midnightblue" d="M1731.53,-263.555C1765.23,-256.475 1813.54,-242.412 1848,-216 1871.87,-197.703 1877.17,-188.752 1886,-160 1892.9,-137.529 1885.83,-110.568 1879.48,-93.3622"/>
<polygon fill="midnightblue" stroke="midnightblue" points="1882.71,-92.0223 1875.75,-84.0373 1876.21,-94.622 1882.71,-92.0223"/>
</g>
<!-- Node22&#45;&gt;Node7 -->
<g id="edge44" class="edge"><title>Node22&#45;&gt;Node7</title>
<path fill="none" stroke="midnightblue" d="M1694.02,-261.664C1701.09,-232.495 1724.81,-134.589 1734.66,-93.9331"/>
<polygon fill="midnightblue" stroke="midnightblue" points="1738.09,-94.6319 1737.04,-84.0889 1731.28,-92.9837 1738.09,-94.6319"/>
</g>
<!-- Node23&#45;&gt;Node2 -->
<g id="edge47" class="edge"><title>Node23&#45;&gt;Node2</title>
<path fill="none" stroke="midnightblue" d="M1450.08,-261.728C1455.56,-237.804 1467.7,-167.834 1433,-130 1402.92,-97.2027 1275.74,-83.7332 1204.99,-78.6955"/>
<polygon fill="midnightblue" stroke="midnightblue" points="1205.2,-75.2014 1194.98,-78.0121 1204.72,-82.1852 1205.2,-75.2014"/>
</g>
<!-- Node23&#45;&gt;Node4 -->
<g id="edge49" class="edge"><title>Node23&#45;&gt;Node4</title>
<path fill="none" stroke="midnightblue" d="M1482.95,-261.96C1573.19,-241.2 1814.79,-185.618 1927.53,-159.682"/>
<polygon fill="midnightblue" stroke="midnightblue" points="1928.42,-163.069 1937.38,-157.416 1926.85,-156.247 1928.42,-163.069"/>
</g>
<!-- Node23&#45;&gt;Node15 -->
<g id="edge48" class="edge"><title>Node23&#45;&gt;Node15</title>
<path fill="none" stroke="midnightblue" d="M1413.28,-262.442C1398.41,-259.213 1380.86,-255.41 1365,-252 1298.95,-237.794 1221.22,-221.266 1181.07,-212.741"/>
<polygon fill="midnightblue" stroke="midnightblue" points="1181.74,-209.307 1171.24,-210.655 1180.29,-216.155 1181.74,-209.307"/>
</g>
<!-- Node24&#45;&gt;Node2 -->
<g id="edge51" class="edge"><title>Node24&#45;&gt;Node2</title>
<path fill="none" stroke="midnightblue" d="M638.676,-261.588C652.732,-246.608 684.104,-215.095 716,-196 844.909,-118.827 1024.39,-90.1659 1109.1,-80.4733"/>
<polygon fill="midnightblue" stroke="midnightblue" points="1109.64,-83.935 1119.2,-79.3573 1108.88,-76.9773 1109.64,-83.935"/>
</g>
<!-- Node24&#45;&gt;Node25 -->
<g id="edge52" class="edge"><title>Node24&#45;&gt;Node25</title>
<path fill="none" stroke="midnightblue" d="M646.688,-261.764C667.013,-251.093 702.665,-232.376 726.554,-219.834"/>
<polygon fill="midnightblue" stroke="midnightblue" points="728.461,-222.786 735.688,-215.039 725.207,-216.588 728.461,-222.786"/>
</g>
<!-- Node25&#45;&gt;Node2 -->
<g id="edge53" class="edge"><title>Node25&#45;&gt;Node2</title>
<path fill="none" stroke="midnightblue" d="M776.397,-196.93C846.319,-174.714 1041.76,-112.614 1121.97,-87.1295"/>
<polygon fill="midnightblue" stroke="midnightblue" points="1123.14,-90.4304 1131.61,-84.0665 1121.02,-83.759 1123.14,-90.4304"/>
</g>
<!-- Node25&#45;&gt;Node4 -->
<g id="edge54" class="edge"><title>Node25&#45;&gt;Node4</title>
<path fill="none" stroke="midnightblue" d="M777.101,-203.754C929.486,-196.48 1705.05,-159.459 1927.37,-148.847"/>
<polygon fill="midnightblue" stroke="midnightblue" points="1927.71,-152.334 1937.53,-148.361 1927.37,-145.342 1927.71,-152.334"/>
</g>
<!-- Node25&#45;&gt;Node16 -->
<g id="edge55" class="edge"><title>Node25&#45;&gt;Node16</title>
<path fill="none" stroke="midnightblue" d="M777.205,-198.878C781.793,-197.871 786.529,-196.872 791,-196 881.047,-178.43 986.983,-161.819 1046.43,-152.864"/>
<polygon fill="midnightblue" stroke="midnightblue" points="1047.25,-156.28 1056.62,-151.335 1046.21,-149.357 1047.25,-156.28"/>
</g>
<!-- Node25&#45;&gt;Node26 -->
<g id="edge56" class="edge"><title>Node25&#45;&gt;Node26</title>
<path fill="none" stroke="midnightblue" d="M724.883,-201.53C653.681,-192.068 455.127,-165.684 359.624,-152.993"/>
<polygon fill="midnightblue" stroke="midnightblue" points="359.98,-149.509 349.606,-151.662 359.058,-156.449 359.98,-149.509"/>
</g>
<!-- Node27 -->
<g id="node27" class="node"><title>Node27</title>
<polygon fill="none" stroke="#bfbfbf" points="1367.44,-136 1367.44,-154 1424.56,-154 1424.56,-136 1367.44,-136"/>
<text text-anchor="middle" x="1396" y="-142" font-family="Helvetica,sans-Serif" font-size="10.00">algorithm</text>
</g>
<!-- Node25&#45;&gt;Node27 -->
<g id="edge57" class="edge"><title>Node25&#45;&gt;Node27</title>
<path fill="none" stroke="midnightblue" d="M777.084,-202.614C877.288,-193.448 1237.86,-160.465 1357.28,-149.542"/>
<polygon fill="midnightblue" stroke="midnightblue" points="1357.78,-153.011 1367.42,-148.614 1357.14,-146.04 1357.78,-153.011"/>
</g>
<!-- Node29&#45;&gt;Node2 -->
<g id="edge86" class="edge"><title>Node29&#45;&gt;Node2</title>
<path fill="none" stroke="midnightblue" d="M559.614,-486.725C476.827,-477.247 315.122,-456.59 297,-438 200.604,-339.114 161.317,-230.527 256,-130 285.478,-98.7027 926.733,-81.3774 1109.05,-77.0721"/>
<polygon fill="midnightblue" stroke="midnightblue" points="1109.22,-80.569 1119.14,-76.836 1109.06,-73.5709 1109.22,-80.569"/>
</g>
<!-- Node29&#45;&gt;Node3 -->
<g id="edge88" class="edge"><title>Node29&#45;&gt;Node3</title>
<path fill="none" stroke="midnightblue" d="M559.44,-489.831C452.861,-484.55 201.688,-469.114 123,-438 59.5159,-412.898 0,-414.267 0,-346 0,-346 0,-346 0,-144 0,-76.4211 60.0912,-77.9676 124,-56 210.813,-26.1595 835.527,-14.9226 1051.09,-11.9078"/>
<polygon fill="midnightblue" stroke="midnightblue" points="1051.4,-15.404 1061.35,-11.7662 1051.3,-8.40462 1051.4,-15.404"/>
</g>
<!-- Node29&#45;&gt;Node7 -->
<g id="edge68" class="edge"><title>Node29&#45;&gt;Node7</title>
<path fill="none" stroke="midnightblue" d="M656.448,-488.135C739.494,-481.081 914.184,-464.372 1060,-438 1130.22,-425.3 1145.62,-411.815 1216,-400 1374.11,-373.457 1828.8,-415.152 1929,-290 1939.56,-276.816 1935.76,-267.477 1929,-252 1910.77,-210.271 1802.45,-124.399 1758.01,-90.3579"/>
<polygon fill="midnightblue" stroke="midnightblue" points="1759.86,-87.3676 1749.78,-84.0916 1755.62,-92.9358 1759.86,-87.3676"/>
</g>
<!-- Node29&#45;&gt;Node9 -->
<g id="edge69" class="edge"><title>Node29&#45;&gt;Node9</title>
<path fill="none" stroke="midnightblue" d="M559.685,-491.184C460.592,-488.683 238.418,-478.581 176,-438 103.789,-391.052 76,-358.131 76,-272 76,-272 76,-272 76,-205 76,-158.016 114.583,-113.699 137.822,-91.2678"/>
<polygon fill="midnightblue" stroke="midnightblue" points="140.389,-93.6591 145.313,-84.2779 135.614,-88.541 140.389,-93.6591"/>
</g>
<!-- Node29&#45;&gt;Node13 -->
<g id="edge85" class="edge"><title>Node29&#45;&gt;Node13</title>
<path fill="none" stroke="midnightblue" d="M635.403,-483.881C679.181,-470.909 764.954,-445.495 814.089,-430.936"/>
<polygon fill="midnightblue" stroke="midnightblue" points="815.104,-434.286 823.697,-428.09 813.115,-427.575 815.104,-434.286"/>
</g>
<!-- Node29&#45;&gt;Node14 -->
<g id="edge67" class="edge"><title>Node29&#45;&gt;Node14</title>
<path fill="none" stroke="midnightblue" d="M656.419,-492.735C719.172,-491.683 830.224,-482.857 912,-438 931.581,-427.259 971.891,-384.809 980,-364 989.685,-339.147 980.312,-308.238 972.377,-289.323"/>
<polygon fill="midnightblue" stroke="midnightblue" points="975.549,-287.842 968.248,-280.164 969.167,-290.719 975.549,-287.842"/>
</g>
<!-- Node29&#45;&gt;Node15 -->
<g id="edge84" class="edge"><title>Node29&#45;&gt;Node15</title>
<path fill="none" stroke="midnightblue" d="M559.593,-488.588C489.288,-482.659 363.733,-468.093 331,-438 293.717,-403.723 279.172,-366.182 310,-326 387.304,-225.239 460.842,-273.55 586,-252 791.719,-216.579 1044.24,-208.977 1126.62,-207.399"/>
<polygon fill="midnightblue" stroke="midnightblue" points="1126.73,-210.898 1136.66,-207.221 1126.6,-203.899 1126.73,-210.898"/>
</g>
<!-- Node29&#45;&gt;Node20 -->
<g id="edge87" class="edge"><title>Node29&#45;&gt;Node20</title>
<path fill="none" stroke="midnightblue" d="M594.142,-483.939C580.017,-474.832 558.95,-458.562 550,-438 529.338,-390.532 542.723,-359.726 582,-326 607.245,-304.323 698.833,-286.432 750.988,-277.72"/>
<polygon fill="midnightblue" stroke="midnightblue" points="751.559,-281.174 760.862,-276.102 750.427,-274.266 751.559,-281.174"/>
</g>
<!-- Node29&#45;&gt;Node22 -->
<g id="edge89" class="edge"><title>Node29&#45;&gt;Node22</title>
<path fill="none" stroke="midnightblue" d="M656.359,-484.789C722.201,-474.859 843.691,-456.137 947,-438 1035.26,-422.506 1056.41,-413.479 1145,-400 1286.05,-378.538 1325.69,-399.016 1464,-364 1540.81,-344.555 1626.1,-304.941 1667.19,-284.629"/>
<polygon fill="midnightblue" stroke="midnightblue" points="1668.81,-287.733 1676.2,-280.136 1665.69,-281.469 1668.81,-287.733"/>
</g>
<!-- Node29&#45;&gt;Node24 -->
<g id="edge91" class="edge"><title>Node29&#45;&gt;Node24</title>
<path fill="none" stroke="midnightblue" d="M562.526,-483.942C466.092,-464.964 255.61,-412.431 328,-326 360.112,-287.659 507.275,-276.517 584.061,-273.297"/>
<polygon fill="midnightblue" stroke="midnightblue" points="584.554,-276.78 594.41,-272.893 584.281,-269.786 584.554,-276.78"/>
</g>
<!-- Node29&#45;&gt;Node28 -->
<g id="edge90" class="edge"><title>Node29&#45;&gt;Node28</title>
<path fill="none" stroke="midnightblue" d="M619.738,-483.696C632.648,-474.028 653.25,-456.948 666,-438 679.505,-417.93 688.777,-391.925 694.367,-372.686"/>
<polygon fill="midnightblue" stroke="midnightblue" points="697.742,-373.613 697.028,-363.042 690.994,-371.751 697.742,-373.613"/>
</g>
<!-- Node30 -->
<g id="node30" class="node"><title>Node30</title>
<g id="a_node30"><a xlink:href="FileConstHandle_8h.html" target="_top" xlink:title="Handle read/write of Model data from/to files. ">
<polygon fill="none" stroke="red" points="558.867,-410 558.867,-428 657.133,-428 657.133,-410 558.867,-410"/>
<text text-anchor="middle" x="608" y="-416" font-family="Helvetica,sans-Serif" font-size="10.00">FileConstHandle.h</text>
</a>
</g>
</g>
<!-- Node29&#45;&gt;Node30 -->
<g id="edge70" class="edge"><title>Node29&#45;&gt;Node30</title>
<path fill="none" stroke="midnightblue" d="M608,-483.741C608,-472.782 608,-453.12 608,-438.522"/>
<polygon fill="midnightblue" stroke="midnightblue" points="611.5,-438.163 608,-428.163 604.5,-438.163 611.5,-438.163"/>
</g>
<!-- Node30&#45;&gt;Node2 -->
<g id="edge76" class="edge"><title>Node30&#45;&gt;Node2</title>
<path fill="none" stroke="midnightblue" d="M562.135,-409.959C495.555,-395.353 380,-357.664 380,-272 380,-272 380,-272 380,-205 380,-130.706 939.964,-89.5852 1109.16,-78.8562"/>
<polygon fill="midnightblue" stroke="midnightblue" points="1109.5,-82.3416 1119.26,-78.2222 1109.06,-75.3553 1109.5,-82.3416"/>
</g>
<!-- Node30&#45;&gt;Node4 -->
<g id="edge80" class="edge"><title>Node30&#45;&gt;Node4</title>
<path fill="none" stroke="midnightblue" d="M657.394,-412.63C693.977,-408.772 745.059,-403.63 790,-400 1213.66,-365.775 1342.36,-440.159 1740,-290 1826.45,-257.353 1917.79,-196.032 1961.19,-165.009"/>
<polygon fill="midnightblue" stroke="midnightblue" points="1963.4,-167.735 1969.46,-159.048 1959.3,-162.056 1963.4,-167.735"/>
</g>
<!-- Node30&#45;&gt;Node7 -->
<g id="edge72" class="edge"><title>Node30&#45;&gt;Node7</title>
<path fill="none" stroke="midnightblue" d="M657.414,-412.858C694.006,-409.112 745.092,-404.013 790,-400 890.142,-391.052 1151.26,-409.325 1241,-364 1260.97,-353.916 1254.36,-336.711 1274,-326 1372.55,-272.244 1423.56,-340.142 1524,-290 1620.17,-241.987 1699.66,-134.506 1727.93,-92.8996"/>
<polygon fill="midnightblue" stroke="midnightblue" points="1730.94,-94.6938 1733.59,-84.4353 1725.12,-90.8032 1730.94,-94.6938"/>
</g>
<!-- Node30&#45;&gt;Node9 -->
<g id="edge73" class="edge"><title>Node30&#45;&gt;Node9</title>
<path fill="none" stroke="midnightblue" d="M558.652,-414.431C507.885,-409.102 427.729,-395.981 366,-364 246.147,-301.905 195.69,-283.408 141,-160 131.476,-138.509 139.183,-111.31 146.391,-93.7839"/>
<polygon fill="midnightblue" stroke="midnightblue" points="149.764,-94.8162 150.656,-84.259 143.375,-91.9554 149.764,-94.8162"/>
</g>
<!-- Node30&#45;&gt;Node14 -->
<g id="edge71" class="edge"><title>Node30&#45;&gt;Node14</title>
<path fill="none" stroke="midnightblue" d="M607.438,-409.909C606.67,-391.875 607.586,-348.222 632,-326 641.805,-317.076 804.822,-293.632 898.708,-280.764"/>
<polygon fill="midnightblue" stroke="midnightblue" points="899.25,-284.223 908.684,-279.401 898.302,-277.287 899.25,-284.223"/>
</g>
<!-- Node30&#45;&gt;Node15 -->
<g id="edge75" class="edge"><title>Node30&#45;&gt;Node15</title>
<path fill="none" stroke="midnightblue" d="M601.352,-409.749C588.308,-392.503 562.282,-352.084 582,-326 617.379,-279.199 657.513,-318.126 709,-290 731.382,-277.773 728.688,-262.344 752,-252 819.439,-222.076 1046.99,-210.959 1126.39,-207.935"/>
<polygon fill="midnightblue" stroke="midnightblue" points="1126.71,-211.425 1136.58,-207.561 1126.45,-204.43 1126.71,-211.425"/>
</g>
<!-- Node30&#45;&gt;Node16 -->
<g id="edge79" class="edge"><title>Node30&#45;&gt;Node16</title>
<path fill="none" stroke="midnightblue" d="M599.869,-409.99C583.824,-393.201 551.288,-353.597 571,-326 599.674,-285.856 635.089,-317.57 676,-290 694.549,-277.499 690.078,-263.93 709,-252 765.896,-216.129 958.005,-173.576 1047.02,-155.202"/>
<polygon fill="midnightblue" stroke="midnightblue" points="1047.75,-158.626 1056.84,-153.187 1046.34,-151.769 1047.75,-158.626"/>
</g>
<!-- Node30&#45;&gt;Node17 -->
<g id="edge74" class="edge"><title>Node30&#45;&gt;Node17</title>
<path fill="none" stroke="midnightblue" d="M657.177,-411.799C760.638,-398.753 1000.7,-368.482 1115.56,-354"/>
<polygon fill="midnightblue" stroke="midnightblue" points="1116.12,-357.456 1125.61,-352.732 1115.25,-350.511 1116.12,-357.456"/>
</g>
<!-- Node30&#45;&gt;Node20 -->
<g id="edge81" class="edge"><title>Node30&#45;&gt;Node20</title>
<path fill="none" stroke="midnightblue" d="M603.111,-409.834C593.375,-392.398 574.139,-351.077 594,-326 637.372,-271.238 680.742,-312.133 747,-290 748.429,-289.523 749.876,-289.015 751.331,-288.483"/>
<polygon fill="midnightblue" stroke="midnightblue" points="752.898,-291.628 760.926,-284.713 750.338,-285.113 752.898,-291.628"/>
</g>
<!-- Node30&#45;&gt;Node21 -->
<g id="edge77" class="edge"><title>Node30&#45;&gt;Node21</title>
<path fill="none" stroke="midnightblue" d="M611.785,-410C621.645,-389.522 648.499,-336.112 665,-326 690.005,-310.678 1102.64,-284.503 1255.03,-275.31"/>
<polygon fill="midnightblue" stroke="midnightblue" points="1255.34,-278.797 1265.11,-274.703 1254.92,-271.81 1255.34,-278.797"/>
</g>
<!-- Node30&#45;&gt;Node22 -->
<g id="edge78" class="edge"><title>Node30&#45;&gt;Node22</title>
<path fill="none" stroke="midnightblue" d="M657.407,-412.786C693.997,-409.004 745.081,-403.891 790,-400 1004.9,-381.384 1061.04,-398.283 1274,-364 1342.75,-352.933 1357.84,-340.257 1426,-326 1519.98,-306.342 1545.91,-313.513 1639,-290 1646.32,-288.151 1654.08,-285.767 1661.33,-283.342"/>
<polygon fill="midnightblue" stroke="midnightblue" points="1662.52,-286.634 1670.83,-280.057 1660.23,-280.019 1662.52,-286.634"/>
</g>
<!-- Node30&#45;&gt;Node24 -->
<g id="edge83" class="edge"><title>Node30&#45;&gt;Node24</title>
<path fill="none" stroke="midnightblue" d="M558.744,-410.78C530.576,-403.851 497.468,-390.328 480,-364 470.663,-349.927 470.274,-339.807 480,-326 503.421,-292.75 549.281,-279.864 584.344,-274.927"/>
<polygon fill="midnightblue" stroke="midnightblue" points="584.886,-278.387 594.38,-273.686 584.026,-271.44 584.886,-278.387"/>
</g>
<!-- Node30&#45;&gt;Node28 -->
<g id="edge82" class="edge"><title>Node30&#45;&gt;Node28</title>
<path fill="none" stroke="midnightblue" d="M618.668,-409.741C631.329,-399.939 652.981,-383.176 670.905,-369.3"/>
<polygon fill="midnightblue" stroke="midnightblue" points="673.067,-372.052 678.831,-363.163 668.781,-366.517 673.067,-372.052"/>
</g>
<!-- Node31&#45;&gt;Node2 -->
<g id="edge93" class="edge"><title>Node31&#45;&gt;Node2</title>
<path fill="none" stroke="midnightblue" d="M2017.26,-491.078C2146.16,-488.033 2502.26,-476.208 2537,-438 2570.19,-401.489 2500.91,-331.577 2493,-326 2384.34,-249.337 1431.14,-113.842 1204.98,-82.5671"/>
<polygon fill="midnightblue" stroke="midnightblue" points="1205.15,-79.0576 1194.77,-81.1572 1204.19,-85.9918 1205.15,-79.0576"/>
</g>
<!-- Node31&#45;&gt;Node4 -->
<g id="edge94" class="edge"><title>Node31&#45;&gt;Node4</title>
<path fill="none" stroke="midnightblue" d="M2017.32,-491.387C2162.75,-489.045 2603.5,-478.63 2652,-438 2684.39,-410.862 2676,-388.257 2676,-346 2676,-346 2676,-346 2676,-270 2676,-206.31 2214.08,-163.785 2046.67,-150.465"/>
<polygon fill="midnightblue" stroke="midnightblue" points="2046.8,-146.964 2036.55,-149.667 2046.25,-153.943 2046.8,-146.964"/>
</g>
<!-- Node31&#45;&gt;Node7 -->
<g id="edge98" class="edge"><title>Node31&#45;&gt;Node7</title>
<path fill="none" stroke="midnightblue" d="M2017.39,-491.642C2158.24,-490.076 2573.76,-481.756 2614,-438 2647.69,-401.359 2644.78,-365.124 2614,-326 2517.16,-202.894 2077.33,-210.311 1929,-160 1868.12,-139.351 1799.91,-106.735 1764.09,-88.8262"/>
<polygon fill="midnightblue" stroke="midnightblue" points="1765.38,-85.5592 1754.88,-84.1872 1762.23,-91.8112 1765.38,-85.5592"/>
</g>
<!-- Node31&#45;&gt;Node11 -->
<g id="edge101" class="edge"><title>Node31&#45;&gt;Node11</title>
<path fill="none" stroke="midnightblue" d="M2017.25,-490.921C2203.23,-486.384 2888.2,-467.711 2923,-438 2954.82,-410.83 2943,-387.844 2943,-346 2943,-346 2943,-346 2943,-205 2943,-105.073 2796.81,-82.054 2712.74,-77.0778"/>
<polygon fill="midnightblue" stroke="midnightblue" points="2712.73,-73.5726 2702.56,-76.5451 2712.36,-80.563 2712.73,-73.5726"/>
</g>
<!-- Node31&#45;&gt;Node13 -->
<g id="edge124" class="edge"><title>Node31&#45;&gt;Node13</title>
<path fill="none" stroke="midnightblue" d="M1924.76,-491.487C1780.75,-489.473 1327.55,-479.992 955,-438 937.357,-436.011 918.172,-432.95 901.139,-429.912"/>
<polygon fill="midnightblue" stroke="midnightblue" points="901.31,-426.386 890.844,-428.034 900.053,-433.272 901.31,-426.386"/>
</g>
<!-- Node31&#45;&gt;Node14 -->
<g id="edge97" class="edge"><title>Node31&#45;&gt;Node14</title>
<path fill="none" stroke="midnightblue" d="M1924.91,-491.197C1735.48,-487.678 1025.4,-472.236 993,-438 981.392,-425.733 992.066,-416.863 993,-400 994.821,-367.113 1005.92,-357.706 997,-326 993.127,-312.234 984.662,-298.507 977.275,-288.338"/>
<polygon fill="midnightblue" stroke="midnightblue" points="979.82,-285.906 970.958,-280.101 974.266,-290.166 979.82,-285.906"/>
</g>
<!-- Node31&#45;&gt;Node15 -->
<g id="edge95" class="edge"><title>Node31&#45;&gt;Node15</title>
<path fill="none" stroke="midnightblue" d="M1924.66,-491.271C1763.2,-488.405 1231.62,-476.138 1166,-438 1119.02,-410.699 1108.84,-379.717 1117,-326 1122.64,-288.884 1137.63,-247.411 1146.71,-224.54"/>
<polygon fill="midnightblue" stroke="midnightblue" points="1150,-225.747 1150.51,-215.165 1143.51,-223.113 1150,-225.747"/>
</g>
<!-- Node31&#45;&gt;Node17 -->
<g id="edge123" class="edge"><title>Node31&#45;&gt;Node17</title>
<path fill="none" stroke="midnightblue" d="M1924.77,-492.332C1763.8,-493.022 1234.88,-491.194 1183,-438 1164.17,-418.694 1168.42,-384.886 1173.51,-364.07"/>
<polygon fill="midnightblue" stroke="midnightblue" points="1176.93,-364.835 1176.2,-354.265 1170.18,-362.979 1176.93,-364.835"/>
</g>
<!-- Node31&#45;&gt;Node18 -->
<g id="edge121" class="edge"><title>Node31&#45;&gt;Node18</title>
<path fill="none" stroke="midnightblue" d="M2017.31,-490.747C2140.29,-486.944 2467.9,-473.541 2500,-438 2511.32,-425.466 2510.74,-413.032 2500,-400 2336.99,-202.264 2181.67,-355.8 1934,-290 1926.93,-288.122 1919.44,-285.793 1912.38,-283.44"/>
<polygon fill="midnightblue" stroke="midnightblue" points="1913.05,-279.969 1902.46,-280.026 1910.78,-286.589 1913.05,-279.969"/>
</g>
<!-- Node31&#45;&gt;Node21 -->
<g id="edge99" class="edge"><title>Node31&#45;&gt;Node21</title>
<path fill="none" stroke="midnightblue" d="M1924.73,-492.262C1768.02,-492.67 1264.33,-489.907 1216,-438 1155.15,-372.644 1291.64,-393.383 1312,-364 1327.2,-342.067 1322.14,-309.58 1316.78,-289.655"/>
<polygon fill="midnightblue" stroke="midnightblue" points="1320.12,-288.604 1313.9,-280.024 1313.41,-290.608 1320.12,-288.604"/>
</g>
<!-- Node31&#45;&gt;Node22 -->
<g id="edge100" class="edge"><title>Node31&#45;&gt;Node22</title>
<path fill="none" stroke="midnightblue" d="M2017.35,-490.356C2134.01,-485.742 2432.6,-470.812 2462,-438 2473.27,-425.422 2472.92,-412.884 2462,-400 2438.37,-372.121 1907.75,-300.33 1741.4,-278.435"/>
<polygon fill="midnightblue" stroke="midnightblue" points="1741.81,-274.959 1731.44,-277.126 1740.9,-281.899 1741.81,-274.959"/>
</g>
<!-- Node31&#45;&gt;Node23 -->
<g id="edge110" class="edge"><title>Node31&#45;&gt;Node23</title>
<path fill="none" stroke="midnightblue" d="M2017.37,-489.951C2128.15,-484.583 2401,-468.38 2428,-438 2439.22,-425.376 2439.28,-412.568 2428,-400 2378.28,-344.613 2168.86,-373.24 2095,-364 1868.38,-335.647 1598.12,-295 1492.96,-278.923"/>
<polygon fill="midnightblue" stroke="midnightblue" points="1493.43,-275.454 1483.01,-277.4 1492.37,-282.373 1493.43,-275.454"/>
</g>
<!-- Node31&#45;&gt;Node24 -->
<g id="edge112" class="edge"><title>Node31&#45;&gt;Node24</title>
<path fill="none" stroke="midnightblue" d="M1924.66,-492.126C1694.42,-492.498 679.487,-491.094 550,-438 493.161,-414.694 433.08,-375.836 469,-326 495.065,-289.837 546.399,-277.526 584.326,-273.523"/>
<polygon fill="midnightblue" stroke="midnightblue" points="584.987,-276.978 594.636,-272.602 584.364,-270.006 584.987,-276.978"/>
</g>
<!-- Node31&#45;&gt;Node27 -->
<g id="edge122" class="edge"><title>Node31&#45;&gt;Node27</title>
<path fill="none" stroke="midnightblue" d="M2017.14,-490.926C2143.07,-487.522 2485.54,-474.923 2519,-438 2530.34,-425.486 2524.89,-415.827 2519,-400 2503.82,-359.252 2493.78,-345.663 2455,-326 2366.51,-281.136 2105.89,-315.476 2010,-290 1971.57,-279.789 1967.13,-263.289 1929,-252 1816.72,-218.756 1782.89,-238.63 1668,-216 1583.01,-199.259 1484.99,-172.042 1432.95,-156.951"/>
<polygon fill="midnightblue" stroke="midnightblue" points="1433.75,-153.54 1423.17,-154.102 1431.79,-160.26 1433.75,-153.54"/>
</g>
<!-- Node31&#45;&gt;Node28 -->
<g id="edge96" class="edge"><title>Node31&#45;&gt;Node28</title>
<path fill="none" stroke="midnightblue" d="M1924.82,-491.894C1719.47,-491.155 894.711,-485.243 790,-438 758.884,-423.961 733.066,-393.646 717.39,-371.642"/>
<polygon fill="midnightblue" stroke="midnightblue" points="720.251,-369.625 711.696,-363.376 714.487,-373.596 720.251,-369.625"/>
</g>
<!-- Node32 -->
<g id="node32" class="node"><title>Node32</title>
<polygon fill="none" stroke="#bfbfbf" points="2703.74,-405 2703.74,-433 2814.26,-433 2814.26,-405 2703.74,-405"/>
<text text-anchor="start" x="2711.74" y="-421" font-family="Helvetica,sans-Serif" font-size="10.00">boost/functional/hash</text>
<text text-anchor="middle" x="2759" y="-411" font-family="Helvetica,sans-Serif" font-size="10.00">/hash.hpp</text>
</g>
<!-- Node31&#45;&gt;Node32 -->
<g id="edge102" class="edge"><title>Node31&#45;&gt;Node32</title>
<path fill="none" stroke="midnightblue" d="M2017.19,-491.407C2131.85,-489.315 2438.42,-479.911 2690,-438 2694.45,-437.259 2699.03,-436.365 2703.61,-435.375"/>
<polygon fill="midnightblue" stroke="midnightblue" points="2704.64,-438.731 2713.6,-433.081 2703.07,-431.909 2704.64,-438.731"/>
</g>
<!-- Node33 -->
<g id="node33" class="node"><title>Node33</title>
<polygon fill="none" stroke="#bfbfbf" points="2832.33,-410 2832.33,-428 2861.67,-428 2861.67,-410 2832.33,-410"/>
<text text-anchor="middle" x="2847" y="-416" font-family="Helvetica,sans-Serif" font-size="10.00">set</text>
</g>
<!-- Node31&#45;&gt;Node33 -->
<g id="edge103" class="edge"><title>Node31&#45;&gt;Node33</title>
<path fill="none" stroke="midnightblue" d="M2017.24,-492.525C2172.43,-493.753 2673.26,-493.238 2823,-438 2825.66,-437.02 2828.27,-435.644 2830.73,-434.085"/>
<polygon fill="midnightblue" stroke="midnightblue" points="2832.94,-436.808 2838.84,-428.011 2828.74,-431.205 2832.94,-436.808"/>
</g>
<!-- Node34 -->
<g id="node34" class="node"><title>Node34</title>
<polygon fill="none" stroke="#bfbfbf" points="2879.27,-410 2879.27,-428 2914.73,-428 2914.73,-410 2879.27,-410"/>
<text text-anchor="middle" x="2897" y="-416" font-family="Helvetica,sans-Serif" font-size="10.00">map</text>
</g>
<!-- Node31&#45;&gt;Node34 -->
<g id="edge104" class="edge"><title>Node31&#45;&gt;Node34</title>
<path fill="none" stroke="midnightblue" d="M2017.14,-492.388C2177.51,-493.25 2709.55,-491.885 2870,-438 2873.1,-436.958 2876.19,-435.46 2879.11,-433.769"/>
<polygon fill="midnightblue" stroke="midnightblue" points="2881.31,-436.503 2887.66,-428.02 2877.41,-430.693 2881.31,-436.503"/>
</g>
<!-- Node35 -->
<g id="node35" class="node"><title>Node35</title>
<polygon fill="none" stroke="#bfbfbf" points="1225.4,-410 1225.4,-428 1352.6,-428 1352.6,-410 1225.4,-410"/>
<text text-anchor="middle" x="1289" y="-416" font-family="Helvetica,sans-Serif" font-size="10.00">boost/unordered_set.hpp</text>
</g>
<!-- Node31&#45;&gt;Node35 -->
<g id="edge105" class="edge"><title>Node31&#45;&gt;Node35</title>
<path fill="none" stroke="midnightblue" d="M1924.77,-490.38C1822.51,-486.257 1569.64,-473.092 1361,-438 1349.72,-436.102 1337.59,-433.354 1326.58,-430.575"/>
<polygon fill="midnightblue" stroke="midnightblue" points="1327.38,-427.169 1316.82,-428.038 1325.62,-433.943 1327.38,-427.169"/>
</g>
<!-- Node36 -->
<g id="node36" class="node"><title>Node36</title>
<polygon fill="none" stroke="#bfbfbf" points="1370.35,-410 1370.35,-428 1503.65,-428 1503.65,-410 1370.35,-410"/>
<text text-anchor="middle" x="1437" y="-416" font-family="Helvetica,sans-Serif" font-size="10.00">boost/unordered_map.hpp</text>
</g>
<!-- Node31&#45;&gt;Node36 -->
<g id="edge106" class="edge"><title>Node31&#45;&gt;Node36</title>
<path fill="none" stroke="midnightblue" d="M1924.91,-488.336C1842.05,-481.355 1662.6,-464.445 1513,-438 1501.33,-435.937 1488.77,-433.185 1477.29,-430.454"/>
<polygon fill="midnightblue" stroke="midnightblue" points="1478.07,-427.042 1467.53,-428.078 1476.41,-433.844 1478.07,-427.042"/>
</g>
<!-- Node37 -->
<g id="node37" class="node"><title>Node37</title>
<polygon fill="none" stroke="black" points="1522,-401 1522,-437 1576,-437 1576,-401 1522,-401"/>
<text text-anchor="middle" x="1548.51" y="-416" font-family="Helvetica,sans-Serif" font-size="10.00">Node37</text>
</g>
<!-- Node31&#45;&gt;Node37 -->
<g id="edge107" class="edge"><title>Node31&#45;&gt;Node37</title>
<path fill="none" stroke="midnightblue" d="M1924.79,-490.357C1853.15,-486.775 1711.33,-475.542 1585.9,-437.721"/>
<polygon fill="midnightblue" stroke="midnightblue" points="1586.72,-434.311 1576.13,-434.71 1584.66,-441 1586.72,-434.311"/>
</g>
<!-- Node38 -->
<g id="node38" class="node"><title>Node38</title>
<polygon fill="none" stroke="black" points="1594,-401 1594,-437 1648,-437 1648,-401 1594,-401"/>
<text text-anchor="middle" x="1620.51" y="-416" font-family="Helvetica,sans-Serif" font-size="10.00">Node38</text>
</g>
<!-- Node31&#45;&gt;Node38 -->
<g id="edge108" class="edge"><title>Node31&#45;&gt;Node38</title>
<path fill="none" stroke="midnightblue" d="M1924.74,-488.315C1864.52,-482.593 1756.27,-469.135 1657.67,-437.713"/>
<polygon fill="midnightblue" stroke="midnightblue" points="1658.76,-434.385 1648.16,-434.616 1656.59,-441.041 1658.76,-434.385"/>
</g>
<!-- Node39 -->
<g id="node39" class="node"><title>Node39</title>
<polygon fill="none" stroke="black" points="1666,-401 1666,-437 1720,-437 1720,-401 1666,-401"/>
<text text-anchor="middle" x="1692.51" y="-416" font-family="Helvetica,sans-Serif" font-size="10.00">Node39</text>
</g>
<!-- Node31&#45;&gt;Node39 -->
<g id="edge109" class="edge"><title>Node31&#45;&gt;Node39</title>
<path fill="none" stroke="midnightblue" d="M1924.57,-485.104C1877.27,-477.32 1801.93,-462.821 1729.9,-437.89"/>
<polygon fill="midnightblue" stroke="midnightblue" points="1730.81,-434.501 1720.22,-434.469 1728.48,-441.101 1730.81,-434.501"/>
</g>
<!-- Node40 -->
<g id="node40" class="node"><title>Node40</title>
<polygon fill="none" stroke="#bfbfbf" points="1738.1,-410 1738.1,-428 1781.9,-428 1781.9,-410 1738.1,-410"/>
<text text-anchor="middle" x="1760" y="-416" font-family="Helvetica,sans-Serif" font-size="10.00">hdf5.h</text>
</g>
<!-- Node31&#45;&gt;Node40 -->
<g id="edge111" class="edge"><title>Node31&#45;&gt;Node40</title>
<path fill="none" stroke="midnightblue" d="M1935.29,-483.919C1898.33,-474.953 1839.35,-458.943 1791,-438 1787.7,-436.571 1784.31,-434.871 1781.05,-433.095"/>
<polygon fill="midnightblue" stroke="midnightblue" points="1782.73,-430.025 1772.32,-428.049 1779.22,-436.085 1782.73,-430.025"/>
</g>
<!-- Node41 -->
<g id="node41" class="node"><title>Node41</title>
<polygon fill="none" stroke="black" points="1800,-401 1800,-437 1854,-437 1854,-401 1800,-401"/>
<text text-anchor="middle" x="1826.51" y="-416" font-family="Helvetica,sans-Serif" font-size="10.00">Node41</text>
</g>
<!-- Node31&#45;&gt;Node41 -->
<g id="edge113" class="edge"><title>Node31&#45;&gt;Node41</title>
<path fill="none" stroke="midnightblue" d="M1954.76,-483.881C1932.73,-472.863 1892.74,-452.869 1863.35,-438.174"/>
<polygon fill="midnightblue" stroke="midnightblue" points="1864.72,-434.949 1854.21,-433.607 1861.59,-441.21 1864.72,-434.949"/>
</g>
<!-- Node42 -->
<g id="node42" class="node"><title>Node42</title>
<polygon fill="none" stroke="black" points="1872,-401 1872,-437 1926,-437 1926,-401 1872,-401"/>
<text text-anchor="middle" x="1898.51" y="-416" font-family="Helvetica,sans-Serif" font-size="10.00">Node42</text>
</g>
<!-- Node31&#45;&gt;Node42 -->
<g id="edge114" class="edge"><title>Node31&#45;&gt;Node42</title>
<path fill="none" stroke="midnightblue" d="M1962.74,-483.741C1953.2,-474.204 1937.08,-458.077 1923.43,-444.431"/>
<polygon fill="midnightblue" stroke="midnightblue" points="1925.71,-441.759 1916.16,-437.163 1920.76,-446.709 1925.71,-441.759"/>
</g>
<!-- Node43 -->
<g id="node43" class="node"><title>Node43</title>
<polygon fill="none" stroke="black" points="1944,-401 1944,-437 1998,-437 1998,-401 1944,-401"/>
<text text-anchor="middle" x="1970.51" y="-416" font-family="Helvetica,sans-Serif" font-size="10.00">Node43</text>
</g>
<!-- Node31&#45;&gt;Node43 -->
<g id="edge115" class="edge"><title>Node31&#45;&gt;Node43</title>
<path fill="none" stroke="midnightblue" d="M1971,-483.741C1971,-474.91 1971,-460.43 1971,-447.5"/>
<polygon fill="midnightblue" stroke="midnightblue" points="1974.5,-447.163 1971,-437.163 1967.5,-447.163 1974.5,-447.163"/>
</g>
<!-- Node44 -->
<g id="node44" class="node"><title>Node44</title>
<polygon fill="none" stroke="black" points="2016,-401 2016,-437 2070,-437 2070,-401 2016,-401"/>
<text text-anchor="middle" x="2042.51" y="-416" font-family="Helvetica,sans-Serif" font-size="10.00">Node44</text>
</g>
<!-- Node31&#45;&gt;Node44 -->
<g id="edge116" class="edge"><title>Node31&#45;&gt;Node44</title>
<path fill="none" stroke="midnightblue" d="M1979.26,-483.741C1988.8,-474.204 2004.92,-458.077 2018.57,-444.431"/>
<polygon fill="midnightblue" stroke="midnightblue" points="2021.24,-446.709 2025.84,-437.163 2016.29,-441.759 2021.24,-446.709"/>
</g>
<!-- Node45 -->
<g id="node45" class="node"><title>Node45</title>
<polygon fill="none" stroke="black" points="2088,-401 2088,-437 2142,-437 2142,-401 2088,-401"/>
<text text-anchor="middle" x="2114.51" y="-416" font-family="Helvetica,sans-Serif" font-size="10.00">Node45</text>
</g>
<!-- Node31&#45;&gt;Node45 -->
<g id="edge117" class="edge"><title>Node31&#45;&gt;Node45</title>
<path fill="none" stroke="midnightblue" d="M1987.24,-483.881C2009.27,-472.863 2049.26,-452.869 2078.65,-438.174"/>
<polygon fill="midnightblue" stroke="midnightblue" points="2080.41,-441.21 2087.79,-433.607 2077.28,-434.949 2080.41,-441.21"/>
</g>
<!-- Node46 -->
<g id="node46" class="node"><title>Node46</title>
<polygon fill="none" stroke="#bfbfbf" points="2159.6,-410 2159.6,-428 2238.4,-428 2238.4,-410 2159.6,-410"/>
<text text-anchor="middle" x="2199" y="-416" font-family="Helvetica,sans-Serif" font-size="10.00">RMF/names.h</text>
</g>
<!-- Node31&#45;&gt;Node46 -->
<g id="edge118" class="edge"><title>Node31&#45;&gt;Node46</title>
<path fill="none" stroke="midnightblue" d="M1999.87,-483.987C2035.58,-473.928 2098.13,-455.82 2151,-438 2156.84,-436.033 2163.02,-433.815 2168.94,-431.624"/>
<polygon fill="midnightblue" stroke="midnightblue" points="2170.42,-434.807 2178.55,-428.014 2167.96,-428.255 2170.42,-434.807"/>
</g>
<!-- Node47 -->
<g id="node47" class="node"><title>Node47</title>
<polygon fill="none" stroke="black" points="2256,-401 2256,-437 2310,-437 2310,-401 2256,-401"/>
<text text-anchor="middle" x="2282.51" y="-416" font-family="Helvetica,sans-Serif" font-size="10.00">Node47</text>
</g>
<!-- Node31&#45;&gt;Node47 -->
<g id="edge119" class="edge"><title>Node31&#45;&gt;Node47</title>
<path fill="none" stroke="midnightblue" d="M2017.41,-486.814C2071.06,-479.969 2161.81,-465.769 2246.33,-437.756"/>
<polygon fill="midnightblue" stroke="midnightblue" points="2247.46,-441.069 2255.81,-434.547 2245.22,-434.439 2247.46,-441.069"/>
</g>
<!-- Node48 -->
<g id="node48" class="node"><title>Node48</title>
<polygon fill="none" stroke="#bfbfbf" points="2328.2,-410 2328.2,-428 2419.8,-428 2419.8,-410 2328.2,-410"/>
<text text-anchor="middle" x="2374" y="-416" font-family="Helvetica,sans-Serif" font-size="10.00">boost/cstdint.hpp</text>
</g>
<!-- Node31&#45;&gt;Node48 -->
<g id="edge120" class="edge"><title>Node31&#45;&gt;Node48</title>
<path fill="none" stroke="midnightblue" d="M2017.34,-487.233C2084.48,-479.783 2212.42,-463.53 2319,-438 2326.74,-436.145 2334.97,-433.713 2342.63,-431.239"/>
<polygon fill="midnightblue" stroke="midnightblue" points="2343.91,-434.499 2352.29,-428.008 2341.69,-427.861 2343.91,-434.499"/>
</g>
</g>
</svg>
