<?xml version="1.0" encoding="UTF-8" standalone="no"?>
<!DOCTYPE svg PUBLIC "-//W3C//DTD SVG 1.1//EN"
 "http://www.w3.org/Graphics/SVG/1.1/DTD/svg11.dtd">
<!-- Generated by graphviz version 2.36.0 (20140111.2315)
 -->
<!-- Title: show_hierarchy.h Pages: 1 -->
<svg width="180pt" height="140pt"
 viewBox="0.00 0.00 180.00 140.00" xmlns="http://www.w3.org/2000/svg" xmlns:xlink="http://www.w3.org/1999/xlink">
<g id="graph0" class="graph" transform="scale(1 1) rotate(0) translate(4 136)">
<title>show_hierarchy.h</title>
<!-- Node1 -->
<g id="node1" class="node"><title>Node1</title>
<polygon fill="#bfbfbf" stroke="black" points="56.1816,-113 56.1816,-131 149.818,-131 149.818,-113 56.1816,-113"/>
<text text-anchor="middle" x="103" y="-119" font-family="Helvetica,sans-Serif" font-size="10.00">show_hierarchy.h</text>
</g>
<!-- Node2 -->
<g id="node2" class="node"><title>Node2</title>
<g id="a_node2"><a xlink:href="config_8h_source.html" target="_top" xlink:title="RMF/config.h">
<polygon fill="none" stroke="black" points="24.2686,-57 24.2686,-75 99.7314,-75 99.7314,-57 24.2686,-57"/>
<text text-anchor="middle" x="62" y="-63" font-family="Helvetica,sans-Serif" font-size="10.00">RMF/config.h</text>
</a>
</g>
</g>
<!-- Node1&#45;&gt;Node2 -->
<g id="edge1" class="edge"><title>Node1&#45;&gt;Node2</title>
<path fill="none" stroke="midnightblue" d="M96.5938,-112.562C90.662,-104.75 81.679,-92.9187 74.3535,-83.2704"/>
<polygon fill="midnightblue" stroke="midnightblue" points="77.0617,-81.0494 68.227,-75.2014 71.4866,-85.2824 77.0617,-81.0494"/>
</g>
<!-- Node4 -->
<g id="node4" class="node"><title>Node4</title>
<polygon fill="none" stroke="#bfbfbf" points="117.828,-57 117.828,-75 172.172,-75 172.172,-57 117.828,-57"/>
<text text-anchor="middle" x="145" y="-63" font-family="Helvetica,sans-Serif" font-size="10.00">iostream</text>
</g>
<!-- Node1&#45;&gt;Node4 -->
<g id="edge3" class="edge"><title>Node1&#45;&gt;Node4</title>
<path fill="none" stroke="midnightblue" d="M109.562,-112.562C115.639,-104.75 124.841,-92.9187 132.345,-83.2704"/>
<polygon fill="midnightblue" stroke="midnightblue" points="135.244,-85.2438 138.621,-75.2014 129.719,-80.9462 135.244,-85.2438"/>
</g>
<!-- Node3 -->
<g id="node3" class="node"><title>Node3</title>
<g id="a_node3"><a xlink:href="compiler__macros_8h.html" target="_top" xlink:title="Various compiler workarounds. ">
<polygon fill="none" stroke="black" points="-0.455566,-1 -0.455566,-19 124.456,-19 124.456,-1 -0.455566,-1"/>
<text text-anchor="middle" x="62" y="-7" font-family="Helvetica,sans-Serif" font-size="10.00">RMF/compiler_macros.h</text>
</a>
</g>
</g>
<!-- Node2&#45;&gt;Node3 -->
<g id="edge2" class="edge"><title>Node2&#45;&gt;Node3</title>
<path fill="none" stroke="midnightblue" d="M62,-56.5625C62,-49.308 62,-38.5884 62,-29.3691"/>
<polygon fill="midnightblue" stroke="midnightblue" points="65.5001,-29.2014 62,-19.2014 58.5001,-29.2015 65.5001,-29.2014"/>
</g>
</g>
</svg>
