<?xml version="1.0" encoding="UTF-8" standalone="no"?>
<!DOCTYPE svg PUBLIC "-//W3C//DTD SVG 1.1//EN"
 "http://www.w3.org/Graphics/SVG/1.1/DTD/svg11.dtd">
<!-- Generated by graphviz version 2.36.0 (20140111.2315)
 -->
<!-- Title: traits.h Pages: 1 -->
<svg width="1528pt" height="420pt"
 viewBox="0.00 0.00 1527.77 420.00" xmlns="http://www.w3.org/2000/svg" xmlns:xlink="http://www.w3.org/1999/xlink">
<g id="graph0" class="graph" transform="scale(1 1) rotate(0) translate(4 416)">
<title>traits.h</title>
<!-- Node1 -->
<g id="node1" class="node"><title>Node1</title>
<polygon fill="#bfbfbf" stroke="black" points="839.768,-393 839.768,-411 885.778,-411 885.778,-393 839.768,-393"/>
<text text-anchor="middle" x="862.773" y="-399" font-family="Helvetica,sans-Serif" font-size="10.00">traits.h</text>
</g>
<!-- Node2 -->
<g id="node2" class="node"><title>Node2</title>
<g id="a_node2"><a xlink:href="keys_8h.html" target="_top" xlink:title="Declarations of the various key types. ">
<polygon fill="none" stroke="black" points="840.322,-337 840.322,-355 885.223,-355 885.223,-337 840.322,-337"/>
<text text-anchor="middle" x="862.773" y="-343" font-family="Helvetica,sans-Serif" font-size="10.00">keys.h</text>
</a>
</g>
</g>
<!-- Node1&#45;&gt;Node2 -->
<g id="edge1" class="edge"><title>Node1&#45;&gt;Node2</title>
<path fill="none" stroke="midnightblue" d="M862.773,-382.329C862.773,-373.077 862.773,-362.38 862.773,-355.201"/>
<polygon fill="midnightblue" stroke="midnightblue" points="859.273,-382.562 862.773,-392.562 866.273,-382.563 859.273,-382.562"/>
</g>
<!-- Node3 -->
<g id="node3" class="node"><title>Node3</title>
<g id="a_node3"><a xlink:href="NodeConstHandle_8h.html" target="_top" xlink:title="Declaration of NodeConstHandlke. ">
<polygon fill="none" stroke="black" points="779.743,-281 779.743,-299 885.802,-299 885.802,-281 779.743,-281"/>
<text text-anchor="middle" x="832.773" y="-287" font-family="Helvetica,sans-Serif" font-size="10.00">NodeConstHandle.h</text>
</a>
</g>
</g>
<!-- Node1&#45;&gt;Node3 -->
<g id="edge75" class="edge"><title>Node1&#45;&gt;Node3</title>
<path fill="none" stroke="midnightblue" d="M848.278,-385.084C841.886,-376.997 835.084,-366.644 831.773,-356 825.671,-336.387 828.751,-311.808 831.041,-299.237"/>
<polygon fill="midnightblue" stroke="midnightblue" points="845.737,-387.5 854.866,-392.876 851.082,-382.98 845.737,-387.5"/>
</g>
<!-- Node29 -->
<g id="node29" class="node"><title>Node29</title>
<g id="a_node29"><a xlink:href="Nullable_8h.html" target="_top" xlink:title="A helper class for allowing nice return of possibly null values. ">
<polygon fill="none" stroke="black" points="903.536,-337 903.536,-355 964.009,-355 964.009,-337 903.536,-337"/>
<text text-anchor="middle" x="933.773" y="-343" font-family="Helvetica,sans-Serif" font-size="10.00">Nullable.h</text>
</a>
</g>
</g>
<!-- Node1&#45;&gt;Node29 -->
<g id="edge71" class="edge"><title>Node1&#45;&gt;Node29</title>
<path fill="none" stroke="midnightblue" d="M881.539,-386.727C894.724,-376.699 911.903,-363.634 922.888,-355.279"/>
<polygon fill="midnightblue" stroke="midnightblue" points="879.397,-383.959 873.556,-392.799 883.634,-389.531 879.397,-383.959"/>
</g>
<!-- Node2&#45;&gt;Node3 -->
<g id="edge2" class="edge"><title>Node2&#45;&gt;Node3</title>
<path fill="none" stroke="midnightblue" d="M853.073,-327.54C847.786,-318.025 841.492,-306.695 837.329,-299.201"/>
<polygon fill="midnightblue" stroke="midnightblue" points="850.169,-329.521 858.085,-336.562 856.288,-326.121 850.169,-329.521"/>
</g>
<!-- Node4 -->
<g id="node4" class="node"><title>Node4</title>
<g id="a_node4"><a xlink:href="Decorator_8h.html" target="_top" xlink:title="Mostly empty base classes for decorators and factories. ">
<polygon fill="none" stroke="black" points="999.923,-169 999.923,-187 1067.62,-187 1067.62,-169 999.923,-169"/>
<text text-anchor="middle" x="1033.77" y="-175" font-family="Helvetica,sans-Serif" font-size="10.00">Decorator.h</text>
</a>
</g>
</g>
<!-- Node3&#45;&gt;Node4 -->
<g id="edge3" class="edge"><title>Node3&#45;&gt;Node4</title>
<path fill="none" stroke="midnightblue" d="M896.222,-278.675C924.17,-271.985 956.356,-261.191 981.773,-244 1004.28,-228.779 1021.77,-200.859 1029.48,-187.1"/>
<polygon fill="midnightblue" stroke="midnightblue" points="895.118,-275.336 886.138,-280.958 896.664,-282.163 895.118,-275.336"/>
</g>
<!-- Node9 -->
<g id="node9" class="node"><title>Node9</title>
<g id="a_node9"><a xlink:href="benchmark__rmf_8cpp_source.html" target="_top" xlink:title="benchmark_rmf.cpp">
<polygon fill="none" stroke="black" points="506.588,-1 506.588,-19 610.957,-19 610.957,-1 506.588,-1"/>
<text text-anchor="middle" x="558.773" y="-7" font-family="Helvetica,sans-Serif" font-size="10.00">benchmark_rmf.cpp</text>
</a>
</g>
</g>
<!-- Node3&#45;&gt;Node9 -->
<g id="edge70" class="edge"><title>Node3&#45;&gt;Node9</title>
<path fill="none" stroke="midnightblue" d="M769.399,-281.076C673.298,-267.264 501.773,-234.797 501.773,-179 501.773,-179 501.773,-179 501.773,-121 501.773,-78.6275 535.527,-36.3293 551.086,-19.0831"/>
<polygon fill="midnightblue" stroke="midnightblue" points="769.201,-284.582 779.592,-282.511 770.178,-277.651 769.201,-284.582"/>
</g>
<!-- Node18 -->
<g id="node18" class="node"><title>Node18</title>
<g id="a_node18"><a xlink:href="NodeHandle_8h.html" target="_top" xlink:title="Declaration of NodeHandle. ">
<polygon fill="none" stroke="black" points="893.805,-225 893.805,-243 973.741,-243 973.741,-225 893.805,-225"/>
<text text-anchor="middle" x="933.773" y="-231" font-family="Helvetica,sans-Serif" font-size="10.00">NodeHandle.h</text>
</a>
</g>
</g>
<!-- Node3&#45;&gt;Node18 -->
<g id="edge31" class="edge"><title>Node3&#45;&gt;Node18</title>
<path fill="none" stroke="midnightblue" d="M857.145,-275.969C876.294,-265.731 902.36,-251.795 918.62,-243.102"/>
<polygon fill="midnightblue" stroke="midnightblue" points="855.281,-272.997 848.113,-280.799 858.581,-279.17 855.281,-272.997"/>
</g>
<!-- Node20 -->
<g id="node20" class="node"><title>Node20</title>
<g id="a_node20"><a xlink:href="validate_8h.html" target="_top" xlink:title="Support for validating the data in a file. ">
<polygon fill="none" stroke="black" points="59.369,-113 59.369,-131 118.177,-131 118.177,-113 59.369,-113"/>
<text text-anchor="middle" x="88.7728" y="-119" font-family="Helvetica,sans-Serif" font-size="10.00">validate.h</text>
</a>
</g>
</g>
<!-- Node3&#45;&gt;Node20 -->
<g id="edge69" class="edge"><title>Node3&#45;&gt;Node20</title>
<path fill="none" stroke="midnightblue" d="M769.237,-289.409C652.593,-289.096 396.891,-283.453 185.773,-244 102.999,-228.532 54.7475,-255.774 4.77278,-188 -14.1047,-162.399 30.5979,-141.787 61.7677,-131.064"/>
<polygon fill="midnightblue" stroke="midnightblue" points="769.408,-292.91 779.413,-289.424 769.418,-285.91 769.408,-292.91"/>
</g>
<!-- Node23 -->
<g id="node23" class="node"><title>Node23</title>
<g id="a_node23"><a xlink:href="FileConstHandle_8h.html" target="_top" xlink:title="Handle read/write of Model data from/to files. ">
<polygon fill="none" stroke="black" points="194.64,-225 194.64,-243 292.906,-243 292.906,-225 194.64,-225"/>
<text text-anchor="middle" x="243.773" y="-231" font-family="Helvetica,sans-Serif" font-size="10.00">FileConstHandle.h</text>
</a>
</g>
</g>
<!-- Node3&#45;&gt;Node23 -->
<g id="edge60" class="edge"><title>Node3&#45;&gt;Node23</title>
<path fill="none" stroke="midnightblue" d="M769.76,-283.223C651.814,-272.41 400.009,-249.324 293.254,-239.536"/>
<polygon fill="midnightblue" stroke="midnightblue" points="769.447,-286.709 779.725,-284.137 770.086,-279.738 769.447,-286.709"/>
</g>
<!-- Node28 -->
<g id="node28" class="node"><title>Node28</title>
<g id="a_node28"><a xlink:href="utility_8h.html" target="_top" xlink:title="Helper functions for manipulating RMF files. ">
<polygon fill="none" stroke="black" points="809.58,-225 809.58,-243 855.966,-243 855.966,-225 809.58,-225"/>
<text text-anchor="middle" x="832.773" y="-231" font-family="Helvetica,sans-Serif" font-size="10.00">utility.h</text>
</a>
</g>
</g>
<!-- Node3&#45;&gt;Node28 -->
<g id="edge68" class="edge"><title>Node3&#45;&gt;Node28</title>
<path fill="none" stroke="midnightblue" d="M832.773,-270.329C832.773,-261.077 832.773,-250.38 832.773,-243.201"/>
<polygon fill="midnightblue" stroke="midnightblue" points="829.273,-270.562 832.773,-280.562 836.273,-270.563 829.273,-270.562"/>
</g>
<!-- Node5 -->
<g id="node5" class="node"><title>Node5</title>
<g id="a_node5"><a xlink:href="alias_8h.html" target="_top" xlink:title="Helper functions for manipulating RMF files. ">
<polygon fill="none" stroke="black" points="717.32,-113 717.32,-131 762.226,-131 762.226,-113 717.32,-113"/>
<text text-anchor="middle" x="739.773" y="-119" font-family="Helvetica,sans-Serif" font-size="10.00">alias.h</text>
</a>
</g>
</g>
<!-- Node4&#45;&gt;Node5 -->
<g id="edge4" class="edge"><title>Node4&#45;&gt;Node5</title>
<path fill="none" stroke="midnightblue" d="M989.653,-168.896C926.154,-157.233 811.29,-136.136 762.587,-127.19"/>
<polygon fill="midnightblue" stroke="midnightblue" points="989.292,-172.389 999.76,-170.753 990.557,-165.504 989.292,-172.389"/>
</g>
<!-- Node7 -->
<g id="node7" class="node"><title>Node7</title>
<g id="a_node7"><a xlink:href="physics_8h.html" target="_top" xlink:title="Helper functions for manipulating RMF files. ">
<polygon fill="none" stroke="black" points="767.93,-57 767.93,-75 825.615,-75 825.615,-57 767.93,-57"/>
<text text-anchor="middle" x="796.773" y="-63" font-family="Helvetica,sans-Serif" font-size="10.00">physics.h</text>
</a>
</g>
</g>
<!-- Node4&#45;&gt;Node7 -->
<g id="edge14" class="edge"><title>Node4&#45;&gt;Node7</title>
<path fill="none" stroke="midnightblue" d="M1054.94,-162.78C1072.6,-149.197 1092.78,-128.421 1078.77,-112 1046.44,-74.0935 891.033,-67.9709 825.751,-67.0898"/>
<polygon fill="midnightblue" stroke="midnightblue" points="1052.67,-160.106 1046.64,-168.819 1056.79,-165.767 1052.67,-160.106"/>
</g>
<!-- Node10 -->
<g id="node10" class="node"><title>Node10</title>
<g id="a_node10"><a xlink:href="external_8h.html" target="_top" xlink:title="Helper functions for manipulating RMF files. ">
<polygon fill="none" stroke="black" points="919.815,-113 919.815,-131 979.731,-131 979.731,-113 919.815,-113"/>
<text text-anchor="middle" x="949.773" y="-119" font-family="Helvetica,sans-Serif" font-size="10.00">external.h</text>
</a>
</g>
</g>
<!-- Node4&#45;&gt;Node10 -->
<g id="edge10" class="edge"><title>Node4&#45;&gt;Node10</title>
<path fill="none" stroke="midnightblue" d="M1012.4,-163.262C996.591,-153.098 975.589,-139.596 962.375,-131.102"/>
<polygon fill="midnightblue" stroke="midnightblue" points="1010.71,-166.335 1021.01,-168.799 1014.5,-160.447 1010.71,-166.335"/>
</g>
<!-- Node11 -->
<g id="node11" class="node"><title>Node11</title>
<g id="a_node11"><a xlink:href="feature_8h.html" target="_top" xlink:title="Helper functions for manipulating RMF files. ">
<polygon fill="none" stroke="black" points="644.036,-113 644.036,-131 699.509,-131 699.509,-113 644.036,-113"/>
<text text-anchor="middle" x="671.773" y="-119" font-family="Helvetica,sans-Serif" font-size="10.00">feature.h</text>
</a>
</g>
</g>
<!-- Node4&#45;&gt;Node11 -->
<g id="edge12" class="edge"><title>Node4&#45;&gt;Node11</title>
<path fill="none" stroke="midnightblue" d="M989.587,-172.316C926.847,-165.34 808.484,-150.98 708.773,-132 705.785,-131.431 702.677,-130.776 699.587,-130.085"/>
<polygon fill="midnightblue" stroke="midnightblue" points="989.58,-175.836 999.903,-173.452 990.346,-168.878 989.58,-175.836"/>
</g>
<!-- Node12 -->
<g id="node12" class="node"><title>Node12</title>
<g id="a_node12"><a xlink:href="publication_8h.html" target="_top" xlink:title="Helper functions for manipulating RMF files. ">
<polygon fill="none" stroke="black" points="997.697,-113 997.697,-131 1069.85,-131 1069.85,-113 997.697,-113"/>
<text text-anchor="middle" x="1033.77" y="-119" font-family="Helvetica,sans-Serif" font-size="10.00">publication.h</text>
</a>
</g>
</g>
<!-- Node4&#45;&gt;Node12 -->
<g id="edge15" class="edge"><title>Node4&#45;&gt;Node12</title>
<path fill="none" stroke="midnightblue" d="M1033.77,-158.329C1033.77,-149.077 1033.77,-138.38 1033.77,-131.201"/>
<polygon fill="midnightblue" stroke="midnightblue" points="1030.27,-158.562 1033.77,-168.562 1037.27,-158.563 1030.27,-158.562"/>
</g>
<!-- Node13 -->
<g id="node13" class="node"><title>Node13</title>
<g id="a_node13"><a xlink:href="sequence_8h.html" target="_top" xlink:title="Helper functions for manipulating RMF files. ">
<polygon fill="none" stroke="black" points="1075.92,-57 1075.92,-75 1143.63,-75 1143.63,-57 1075.92,-57"/>
<text text-anchor="middle" x="1109.77" y="-63" font-family="Helvetica,sans-Serif" font-size="10.00">sequence.h</text>
</a>
</g>
</g>
<!-- Node4&#45;&gt;Node13 -->
<g id="edge17" class="edge"><title>Node4&#45;&gt;Node13</title>
<path fill="none" stroke="midnightblue" d="M1077.9,-172.737C1127.99,-166.879 1205.06,-154.425 1222.77,-132 1247.32,-100.92 1185.5,-81.9574 1143.93,-73.0694"/>
<polygon fill="midnightblue" stroke="midnightblue" points="1077.2,-169.293 1067.66,-173.888 1077.98,-176.25 1077.2,-169.293"/>
</g>
<!-- Node14 -->
<g id="node14" class="node"><title>Node14</title>
<g id="a_node14"><a xlink:href="shape_8h.html" target="_top" xlink:title="Helper functions for manipulating RMF files. ">
<polygon fill="none" stroke="black" points="1269.98,-113 1269.98,-131 1321.57,-131 1321.57,-113 1269.98,-113"/>
<text text-anchor="middle" x="1295.77" y="-119" font-family="Helvetica,sans-Serif" font-size="10.00">shape.h</text>
</a>
</g>
</g>
<!-- Node4&#45;&gt;Node14 -->
<g id="edge21" class="edge"><title>Node4&#45;&gt;Node14</title>
<path fill="none" stroke="midnightblue" d="M1077.64,-168.395C1122.46,-159.535 1194.05,-145.198 1255.77,-132 1260.37,-131.018 1265.25,-129.944 1269.97,-128.891"/>
<polygon fill="midnightblue" stroke="midnightblue" points="1076.8,-164.992 1067.67,-170.363 1078.16,-171.86 1076.8,-164.992"/>
</g>
<!-- Node15 -->
<g id="node15" class="node"><title>Node15</title>
<g id="a_node15"><a xlink:href="bond_8h.html" target="_top" xlink:title="Helper functions for manipulating RMF files. ">
<polygon fill="none" stroke="black" points="855.48,-113 855.48,-131 902.066,-131 902.066,-113 855.48,-113"/>
<text text-anchor="middle" x="878.773" y="-119" font-family="Helvetica,sans-Serif" font-size="10.00">bond.h</text>
</a>
</g>
</g>
<!-- Node4&#45;&gt;Node15 -->
<g id="edge24" class="edge"><title>Node4&#45;&gt;Node15</title>
<path fill="none" stroke="midnightblue" d="M1001.04,-165.596C971.297,-155.234 928.171,-140.21 901.883,-131.051"/>
<polygon fill="midnightblue" stroke="midnightblue" points="999.973,-168.931 1010.57,-168.916 1002.28,-162.32 999.973,-168.931"/>
</g>
<!-- Node16 -->
<g id="node16" class="node"><title>Node16</title>
<g id="a_node16"><a xlink:href="representation_8h.html" target="_top" xlink:title="Helper functions for manipulating RMF files. ">
<polygon fill="none" stroke="black" points="1125.64,-113 1125.64,-131 1213.91,-131 1213.91,-113 1125.64,-113"/>
<text text-anchor="middle" x="1169.77" y="-119" font-family="Helvetica,sans-Serif" font-size="10.00">representation.h</text>
</a>
</g>
</g>
<!-- Node4&#45;&gt;Node16 -->
<g id="edge26" class="edge"><title>Node4&#45;&gt;Node16</title>
<path fill="none" stroke="midnightblue" d="M1063.49,-165.199C1089.46,-154.888 1126.48,-140.19 1149.27,-131.14"/>
<polygon fill="midnightblue" stroke="midnightblue" points="1062.14,-161.972 1054.13,-168.916 1064.72,-168.478 1062.14,-161.972"/>
</g>
<!-- Node17 -->
<g id="node17" class="node"><title>Node17</title>
<g id="a_node17"><a xlink:href="alternatives_8h.html" target="_top" xlink:title="Helper functions for manipulating RMF files. ">
<polygon fill="none" stroke="black" points="1378.03,-113 1378.03,-131 1453.51,-131 1453.51,-113 1378.03,-113"/>
<text text-anchor="middle" x="1415.77" y="-119" font-family="Helvetica,sans-Serif" font-size="10.00">alternatives.h</text>
</a>
</g>
</g>
<!-- Node4&#45;&gt;Node17 -->
<g id="edge28" class="edge"><title>Node4&#45;&gt;Node17</title>
<path fill="none" stroke="midnightblue" d="M1077.82,-170.774C1153.5,-160.075 1306.93,-138.387 1378.03,-128.336"/>
<polygon fill="midnightblue" stroke="midnightblue" points="1077.08,-167.343 1067.67,-172.208 1078.06,-174.274 1077.08,-167.343"/>
</g>
<!-- Node6 -->
<g id="node6" class="node"><title>Node6</title>
<g id="a_node6"><a xlink:href="decorators_8h.html" target="_top" xlink:title="Import all the decorators headers. ">
<polygon fill="none" stroke="black" points="973.98,-1 973.98,-19 1045.57,-19 1045.57,-1 973.98,-1"/>
<text text-anchor="middle" x="1009.77" y="-7" font-family="Helvetica,sans-Serif" font-size="10.00">decorators.h</text>
</a>
</g>
</g>
<!-- Node5&#45;&gt;Node6 -->
<g id="edge5" class="edge"><title>Node5&#45;&gt;Node6</title>
<path fill="none" stroke="midnightblue" d="M740.105,-102.803C741.396,-88.0252 745.67,-67.7708 758.773,-56 789.895,-28.0413 911.873,-16.8377 973.589,-12.8884"/>
<polygon fill="midnightblue" stroke="midnightblue" points="736.609,-102.641 739.602,-112.804 743.6,-102.993 736.609,-102.641"/>
</g>
<!-- Node5&#45;&gt;Node7 -->
<g id="edge6" class="edge"><title>Node5&#45;&gt;Node7</title>
<path fill="none" stroke="midnightblue" d="M756.016,-105.612C766.462,-95.7151 779.623,-83.2475 788.116,-75.2014"/>
<polygon fill="midnightblue" stroke="midnightblue" points="753.531,-103.144 748.679,-112.562 758.346,-108.226 753.531,-103.144"/>
</g>
<!-- Node7&#45;&gt;Node6 -->
<g id="edge7" class="edge"><title>Node7&#45;&gt;Node6</title>
<path fill="none" stroke="midnightblue" d="M835.835,-55.097C876.771,-44.7187 940.293,-28.6146 978.184,-19.0083"/>
<polygon fill="midnightblue" stroke="midnightblue" points="834.776,-51.7545 825.943,-57.6048 836.496,-58.5399 834.776,-51.7545"/>
</g>
<!-- Node8 -->
<g id="node8" class="node"><title>Node8</title>
<g id="a_node8"><a xlink:href="TraverseHelper_8h.html" target="_top" xlink:title="A helper function for managing data when traversing an RMF. ">
<polygon fill="none" stroke="black" points="1269.6,-1 1269.6,-19 1361.94,-19 1361.94,-1 1269.6,-1"/>
<text text-anchor="middle" x="1315.77" y="-7" font-family="Helvetica,sans-Serif" font-size="10.00">TraverseHelper.h</text>
</a>
</g>
</g>
<!-- Node7&#45;&gt;Node8 -->
<g id="edge8" class="edge"><title>Node7&#45;&gt;Node8</title>
<path fill="none" stroke="midnightblue" d="M836.017,-60.9167C930.187,-51.1188 1168.61,-26.3115 1269.52,-15.812"/>
<polygon fill="midnightblue" stroke="midnightblue" points="835.373,-57.4648 825.789,-61.981 836.097,-64.4273 835.373,-57.4648"/>
</g>
<!-- Node7&#45;&gt;Node9 -->
<g id="edge9" class="edge"><title>Node7&#45;&gt;Node9</title>
<path fill="none" stroke="midnightblue" d="M757.826,-56.1633C712.495,-45.8782 638.266,-29.0362 594.404,-19.0843"/>
<polygon fill="midnightblue" stroke="midnightblue" points="757.063,-59.579 767.589,-58.3785 758.612,-52.7525 757.063,-59.579"/>
</g>
<!-- Node10&#45;&gt;Node6 -->
<g id="edge11" class="edge"><title>Node10&#45;&gt;Node6</title>
<path fill="none" stroke="midnightblue" d="M959.233,-103.657C972.394,-79.5286 995.7,-36.8005 1005.37,-19.0649"/>
<polygon fill="midnightblue" stroke="midnightblue" points="955.998,-102.277 954.283,-112.732 962.144,-105.629 955.998,-102.277"/>
</g>
<!-- Node11&#45;&gt;Node6 -->
<g id="edge13" class="edge"><title>Node11&#45;&gt;Node6</title>
<path fill="none" stroke="midnightblue" d="M684.798,-104.565C697.79,-89.3933 719.171,-67.5216 742.773,-56 819.022,-18.7775 920.483,-11.6735 973.697,-10.7208"/>
<polygon fill="midnightblue" stroke="midnightblue" points="681.835,-102.657 678.164,-112.595 687.231,-107.115 681.835,-102.657"/>
</g>
<!-- Node12&#45;&gt;Node6 -->
<g id="edge16" class="edge"><title>Node12&#45;&gt;Node6</title>
<path fill="none" stroke="midnightblue" d="M1029.78,-102.678C1024.48,-78.3886 1015.35,-36.563 1011.53,-19.0649"/>
<polygon fill="midnightblue" stroke="midnightblue" points="1026.42,-103.708 1031.97,-112.732 1033.26,-102.216 1026.42,-103.708"/>
</g>
<!-- Node13&#45;&gt;Node6 -->
<g id="edge18" class="edge"><title>Node13&#45;&gt;Node6</title>
<path fill="none" stroke="midnightblue" d="M1085.64,-51.9693C1066.68,-41.7312 1040.87,-27.7949 1024.78,-19.1017"/>
<polygon fill="midnightblue" stroke="midnightblue" points="1084.12,-55.1267 1094.58,-56.7986 1087.45,-48.9673 1084.12,-55.1267"/>
</g>
<!-- Node13&#45;&gt;Node8 -->
<g id="edge19" class="edge"><title>Node13&#45;&gt;Node8</title>
<path fill="none" stroke="midnightblue" d="M1150.47,-54.3309C1190.05,-43.9562 1249.28,-28.4288 1285.06,-19.0513"/>
<polygon fill="midnightblue" stroke="midnightblue" points="1149.4,-50.9943 1140.61,-56.9157 1151.17,-57.7655 1149.4,-50.9943"/>
</g>
<!-- Node13&#45;&gt;Node9 -->
<g id="edge20" class="edge"><title>Node13&#45;&gt;Node9</title>
<path fill="none" stroke="midnightblue" d="M1065.6,-60.6708C965.006,-50.8124 719.248,-26.7272 611.199,-16.1379"/>
<polygon fill="midnightblue" stroke="midnightblue" points="1065.43,-64.1707 1075.72,-61.6628 1066.11,-57.204 1065.43,-64.1707"/>
</g>
<!-- Node14&#45;&gt;Node6 -->
<g id="edge22" class="edge"><title>Node14&#45;&gt;Node6</title>
<path fill="none" stroke="midnightblue" d="M1268.51,-108.765C1248.4,-99.7312 1220.37,-87.1243 1195.77,-76 1176.2,-67.148 1171.83,-63.7029 1151.77,-56 1113.27,-41.2087 1067.62,-27.3803 1038.68,-19.0567"/>
<polygon fill="midnightblue" stroke="midnightblue" points="1267.14,-111.987 1277.7,-112.891 1270.01,-105.602 1267.14,-111.987"/>
</g>
<!-- Node14&#45;&gt;Node8 -->
<g id="edge23" class="edge"><title>Node14&#45;&gt;Node8</title>
<path fill="none" stroke="midnightblue" d="M1299.1,-102.678C1303.52,-78.3886 1311.12,-36.563 1314.31,-19.0649"/>
<polygon fill="midnightblue" stroke="midnightblue" points="1295.62,-102.267 1297.28,-112.732 1302.51,-103.52 1295.62,-102.267"/>
</g>
<!-- Node15&#45;&gt;Node6 -->
<g id="edge25" class="edge"><title>Node15&#45;&gt;Node6</title>
<path fill="none" stroke="midnightblue" d="M896.435,-106.169C924.489,-82.6125 978.292,-37.4339 1000.17,-19.0649"/>
<polygon fill="midnightblue" stroke="midnightblue" points="894.027,-103.621 888.619,-112.732 898.528,-108.982 894.027,-103.621"/>
</g>
<!-- Node16&#45;&gt;Node6 -->
<g id="edge27" class="edge"><title>Node16&#45;&gt;Node6</title>
<path fill="none" stroke="midnightblue" d="M1133.42,-109.566C1112.7,-102.002 1086.94,-90.7491 1066.77,-76 1044.24,-59.5216 1024.36,-32.6753 1015.17,-19.2258"/>
<polygon fill="midnightblue" stroke="midnightblue" points="1132.54,-112.967 1143.13,-112.982 1134.86,-106.363 1132.54,-112.967"/>
</g>
<!-- Node17&#45;&gt;Node6 -->
<g id="edge29" class="edge"><title>Node17&#45;&gt;Node6</title>
<path fill="none" stroke="midnightblue" d="M1367.96,-112.482C1329.68,-104.953 1274.93,-92.5866 1228.77,-76 1209.69,-69.1432 1206.81,-62.9661 1187.77,-56 1139.88,-38.4771 1082.32,-25.2797 1045.89,-17.8458"/>
<polygon fill="midnightblue" stroke="midnightblue" points="1367.33,-115.925 1377.82,-114.385 1368.66,-109.052 1367.33,-115.925"/>
</g>
<!-- Node17&#45;&gt;Node8 -->
<g id="edge30" class="edge"><title>Node17&#45;&gt;Node8</title>
<path fill="none" stroke="midnightblue" d="M1401.45,-105.245C1379.82,-81.4486 1339.59,-37.1964 1323.1,-19.0649"/>
<polygon fill="midnightblue" stroke="midnightblue" points="1398.94,-107.687 1408.26,-112.732 1404.12,-102.978 1398.94,-107.687"/>
</g>
<!-- Node18&#45;&gt;Node4 -->
<g id="edge32" class="edge"><title>Node18&#45;&gt;Node4</title>
<path fill="none" stroke="midnightblue" d="M957.904,-219.969C976.863,-209.731 1002.67,-195.795 1018.77,-187.102"/>
<polygon fill="midnightblue" stroke="midnightblue" points="956.097,-216.967 948.961,-224.799 959.423,-223.127 956.097,-216.967"/>
</g>
<!-- Node18&#45;&gt;Node5 -->
<g id="edge33" class="edge"><title>Node18&#45;&gt;Node5</title>
<path fill="none" stroke="midnightblue" d="M883.325,-226.64C852.245,-220.713 812.908,-209.404 783.773,-188 763.126,-172.832 749.075,-144.887 743.067,-131.112"/>
<polygon fill="midnightblue" stroke="midnightblue" points="883.065,-230.148 893.523,-228.45 884.288,-223.256 883.065,-230.148"/>
</g>
<!-- Node18&#45;&gt;Node7 -->
<g id="edge49" class="edge"><title>Node18&#45;&gt;Node7</title>
<path fill="none" stroke="midnightblue" d="M883.385,-224.297C830.82,-214.847 752.185,-199.558 723.773,-188 680.483,-170.39 657.366,-172.91 634.773,-132 606.351,-80.5362 714.039,-69.744 767.868,-67.5352"/>
<polygon fill="midnightblue" stroke="midnightblue" points="883.068,-227.796 893.527,-226.107 884.297,-220.905 883.068,-227.796"/>
</g>
<!-- Node18&#45;&gt;Node9 -->
<g id="edge59" class="edge"><title>Node18&#45;&gt;Node9</title>
<path fill="none" stroke="midnightblue" d="M883.43,-226.202C811.451,-216.227 685.687,-197.756 666.773,-188 609.269,-158.341 599.286,-135.459 573.773,-76 565.461,-56.63 561.386,-31.9486 559.725,-19.2982"/>
<polygon fill="midnightblue" stroke="midnightblue" points="883.256,-229.711 893.64,-227.61 884.212,-222.777 883.256,-229.711"/>
</g>
<!-- Node18&#45;&gt;Node10 -->
<g id="edge47" class="edge"><title>Node18&#45;&gt;Node10</title>
<path fill="none" stroke="midnightblue" d="M936.438,-214.678C939.971,-190.389 946.055,-148.563 948.6,-131.065"/>
<polygon fill="midnightblue" stroke="midnightblue" points="932.951,-214.332 934.975,-224.732 939.878,-215.34 932.951,-214.332"/>
</g>
<!-- Node18&#45;&gt;Node11 -->
<g id="edge48" class="edge"><title>Node18&#45;&gt;Node11</title>
<path fill="none" stroke="midnightblue" d="M883.363,-225.075C847.892,-218.275 799.952,-206.571 760.773,-188 728.269,-172.593 695.507,-144.76 680.395,-131.061"/>
<polygon fill="midnightblue" stroke="midnightblue" points="883.012,-228.57 893.482,-226.948 884.286,-221.687 883.012,-228.57"/>
</g>
<!-- Node18&#45;&gt;Node12 -->
<g id="edge50" class="edge"><title>Node18&#45;&gt;Node12</title>
<path fill="none" stroke="midnightblue" d="M947.34,-217.151C958.773,-203.885 975.642,-184.528 990.773,-168 1002.74,-154.929 1017.02,-140.137 1025.74,-131.194"/>
<polygon fill="midnightblue" stroke="midnightblue" points="944.546,-215.031 940.684,-224.897 949.855,-219.593 944.546,-215.031"/>
</g>
<!-- Node18&#45;&gt;Node13 -->
<g id="edge51" class="edge"><title>Node18&#45;&gt;Node13</title>
<path fill="none" stroke="midnightblue" d="M984.037,-227.961C1081.19,-217.047 1288.83,-187.611 1329.77,-132 1335.04,-124.842 1335.39,-118.886 1329.77,-112 1318.06,-97.6537 1202.55,-79.8148 1143.77,-71.5701"/>
<polygon fill="midnightblue" stroke="midnightblue" points="983.426,-224.507 973.869,-229.08 984.192,-231.465 983.426,-224.507"/>
</g>
<!-- Node18&#45;&gt;Node14 -->
<g id="edge52" class="edge"><title>Node18&#45;&gt;Node14</title>
<path fill="none" stroke="midnightblue" d="M977.733,-222.554C1012.86,-213.971 1063.23,-201.129 1106.77,-188 1168.07,-169.518 1239.18,-143.914 1274.12,-131.054"/>
<polygon fill="midnightblue" stroke="midnightblue" points="976.691,-219.206 967.8,-224.968 978.343,-226.008 976.691,-219.206"/>
</g>
<!-- Node18&#45;&gt;Node15 -->
<g id="edge53" class="edge"><title>Node18&#45;&gt;Node15</title>
<path fill="none" stroke="midnightblue" d="M925.101,-215.657C913.037,-191.529 891.673,-148.801 882.805,-131.065"/>
<polygon fill="midnightblue" stroke="midnightblue" points="922.036,-217.353 929.639,-224.732 928.297,-214.223 922.036,-217.353"/>
</g>
<!-- Node18&#45;&gt;Node16 -->
<g id="edge54" class="edge"><title>Node18&#45;&gt;Node16</title>
<path fill="none" stroke="midnightblue" d="M978.757,-222.431C1007.36,-214.826 1044.72,-203.228 1075.77,-188 1109.09,-171.663 1143.89,-144.511 1160.23,-131.06"/>
<polygon fill="midnightblue" stroke="midnightblue" points="977.83,-219.056 969.029,-224.954 979.588,-225.832 977.83,-219.056"/>
</g>
<!-- Node18&#45;&gt;Node17 -->
<g id="edge55" class="edge"><title>Node18&#45;&gt;Node17</title>
<path fill="none" stroke="midnightblue" d="M983.929,-232.54C1082.93,-230.862 1299.44,-223.157 1363.77,-188 1387.87,-174.832 1404.84,-145.406 1411.99,-131.108"/>
<polygon fill="midnightblue" stroke="midnightblue" points="983.816,-229.041 973.872,-232.696 983.925,-236.04 983.816,-229.041"/>
</g>
<!-- Node19 -->
<g id="node19" class="node"><title>Node19</title>
<g id="a_node19"><a xlink:href="FileHandle_8h.html" target="_top" xlink:title="Declaration for RMF::FileHandle. ">
<polygon fill="none" stroke="black" points="792.701,-169 792.701,-187 864.844,-187 864.844,-169 792.701,-169"/>
<text text-anchor="middle" x="828.773" y="-175" font-family="Helvetica,sans-Serif" font-size="10.00">FileHandle.h</text>
</a>
</g>
</g>
<!-- Node18&#45;&gt;Node19 -->
<g id="edge34" class="edge"><title>Node18&#45;&gt;Node19</title>
<path fill="none" stroke="midnightblue" d="M908.707,-220.109C888.776,-209.859 861.507,-195.835 844.526,-187.102"/>
<polygon fill="midnightblue" stroke="midnightblue" points="907.332,-223.338 917.826,-224.799 910.533,-217.113 907.332,-223.338"/>
</g>
<!-- Node21 -->
<g id="node21" class="node"><title>Node21</title>
<g id="a_node21"><a xlink:href="Label_8h.html" target="_top" xlink:title="Declaration of RMF::Label. ">
<polygon fill="none" stroke="black" points="1436.37,-169 1436.37,-187 1485.18,-187 1485.18,-169 1436.37,-169"/>
<text text-anchor="middle" x="1460.77" y="-175" font-family="Helvetica,sans-Serif" font-size="10.00">Label.h</text>
</a>
</g>
</g>
<!-- Node18&#45;&gt;Node21 -->
<g id="edge56" class="edge"><title>Node18&#45;&gt;Node21</title>
<path fill="none" stroke="midnightblue" d="M984.029,-229.516C1070.87,-223.212 1254.53,-208.623 1408.77,-188 1417.76,-186.798 1427.58,-185.18 1436.23,-183.647"/>
<polygon fill="midnightblue" stroke="midnightblue" points="983.649,-226.034 973.927,-230.244 984.152,-233.016 983.649,-226.034"/>
</g>
<!-- Node19&#45;&gt;Node5 -->
<g id="edge35" class="edge"><title>Node19&#45;&gt;Node5</title>
<path fill="none" stroke="midnightblue" d="M806.599,-163.546C789.795,-153.35 767.257,-139.676 753.126,-131.102"/>
<polygon fill="midnightblue" stroke="midnightblue" points="804.891,-166.604 815.256,-168.799 808.522,-160.619 804.891,-166.604"/>
</g>
<!-- Node19&#45;&gt;Node7 -->
<g id="edge38" class="edge"><title>Node19&#45;&gt;Node7</title>
<path fill="none" stroke="midnightblue" d="M822.517,-159.137C819.715,-150.913 816.447,-141.002 813.773,-132 807.727,-111.65 801.685,-87.3821 798.698,-75.0526"/>
<polygon fill="midnightblue" stroke="midnightblue" points="819.268,-160.451 825.844,-168.758 825.884,-158.163 819.268,-160.451"/>
</g>
<!-- Node19&#45;&gt;Node9 -->
<g id="edge46" class="edge"><title>Node19&#45;&gt;Node9</title>
<path fill="none" stroke="midnightblue" d="M782.29,-176.025C740.234,-173.014 678.387,-163.067 634.773,-132 592.746,-102.064 568.841,-40.8949 561.354,-19.0091"/>
<polygon fill="midnightblue" stroke="midnightblue" points="782.338,-179.535 792.532,-176.65 782.764,-172.548 782.338,-179.535"/>
</g>
<!-- Node19&#45;&gt;Node10 -->
<g id="edge36" class="edge"><title>Node19&#45;&gt;Node10</title>
<path fill="none" stroke="midnightblue" d="M856.136,-164.788C879.189,-154.5 911.523,-140.07 931.534,-131.14"/>
<polygon fill="midnightblue" stroke="midnightblue" points="854.593,-161.644 846.888,-168.916 857.446,-168.036 854.593,-161.644"/>
</g>
<!-- Node19&#45;&gt;Node11 -->
<g id="edge37" class="edge"><title>Node19&#45;&gt;Node11</title>
<path fill="none" stroke="midnightblue" d="M795.616,-165.596C765.491,-155.234 721.809,-140.21 695.181,-131.051"/>
<polygon fill="midnightblue" stroke="midnightblue" points="794.674,-168.973 805.268,-168.916 796.95,-162.353 794.674,-168.973"/>
</g>
<!-- Node19&#45;&gt;Node12 -->
<g id="edge39" class="edge"><title>Node19&#45;&gt;Node12</title>
<path fill="none" stroke="midnightblue" d="M869.276,-166.331C908.661,-155.956 967.608,-140.429 1003.21,-131.051"/>
<polygon fill="midnightblue" stroke="midnightblue" points="868.242,-162.984 859.463,-168.916 870.025,-169.753 868.242,-162.984"/>
</g>
<!-- Node19&#45;&gt;Node13 -->
<g id="edge40" class="edge"><title>Node19&#45;&gt;Node13</title>
<path fill="none" stroke="midnightblue" d="M828.778,-158.799C829.813,-144.02 833.76,-123.764 846.773,-112 879.932,-82.0217 1012.58,-71.6682 1075.85,-68.3879"/>
<polygon fill="midnightblue" stroke="midnightblue" points="825.279,-158.694 828.452,-168.803 832.276,-158.922 825.279,-158.694"/>
</g>
<!-- Node19&#45;&gt;Node14 -->
<g id="edge41" class="edge"><title>Node19&#45;&gt;Node14</title>
<path fill="none" stroke="midnightblue" d="M875.231,-171.83C948.932,-163.598 1097.17,-146.915 1222.77,-132 1238.37,-130.148 1255.83,-127.998 1269.76,-126.264"/>
<polygon fill="midnightblue" stroke="midnightblue" points="874.459,-168.394 864.909,-172.982 875.236,-175.351 874.459,-168.394"/>
</g>
<!-- Node19&#45;&gt;Node15 -->
<g id="edge42" class="edge"><title>Node19&#45;&gt;Node15</title>
<path fill="none" stroke="midnightblue" d="M843.563,-161.027C852.636,-151.228 863.875,-139.09 871.179,-131.201"/>
<polygon fill="midnightblue" stroke="midnightblue" points="840.811,-158.847 836.585,-168.562 845.948,-163.603 840.811,-158.847"/>
</g>
<!-- Node19&#45;&gt;Node16 -->
<g id="edge43" class="edge"><title>Node19&#45;&gt;Node16</title>
<path fill="none" stroke="midnightblue" d="M875.024,-169.676C940.828,-159.255 1060.66,-140.279 1125.41,-130.025"/>
<polygon fill="midnightblue" stroke="midnightblue" points="874.272,-166.251 864.943,-171.272 875.367,-173.165 874.272,-166.251"/>
</g>
<!-- Node19&#45;&gt;Node17 -->
<g id="edge44" class="edge"><title>Node19&#45;&gt;Node17</title>
<path fill="none" stroke="midnightblue" d="M875.171,-173.062C963.634,-165.502 1162.52,-148.262 1329.77,-132 1345.46,-130.475 1362.75,-128.686 1377.68,-127.108"/>
<polygon fill="midnightblue" stroke="midnightblue" points="874.606,-169.597 864.94,-173.935 875.202,-176.572 874.606,-169.597"/>
</g>
<!-- Node19&#45;&gt;Node20 -->
<g id="edge45" class="edge"><title>Node19&#45;&gt;Node20</title>
<path fill="none" stroke="midnightblue" d="M782.259,-173.606C642.996,-163.443 231.981,-133.45 118.239,-125.15"/>
<polygon fill="midnightblue" stroke="midnightblue" points="782.352,-177.122 792.58,-174.359 782.861,-170.14 782.352,-177.122"/>
</g>
<!-- Node22 -->
<g id="node22" class="node"><title>Node22</title>
<g id="a_node22"><a xlink:href="labels_8h.html" target="_top" xlink:title="Helper functions for manipulating RMF files. ">
<polygon fill="none" stroke="black" points="1237.54,-57 1237.54,-75 1288.01,-75 1288.01,-57 1237.54,-57"/>
<text text-anchor="middle" x="1262.77" y="-63" font-family="Helvetica,sans-Serif" font-size="10.00">labels.h</text>
</a>
</g>
</g>
<!-- Node21&#45;&gt;Node22 -->
<g id="edge57" class="edge"><title>Node21&#45;&gt;Node22</title>
<path fill="none" stroke="midnightblue" d="M1466.71,-159.086C1470.23,-144.793 1472.22,-125.068 1461.77,-112 1440.32,-85.1591 1337.1,-73.1564 1288.36,-68.9169"/>
<polygon fill="midnightblue" stroke="midnightblue" points="1463.33,-158.177 1463.9,-168.756 1470.05,-160.132 1463.33,-158.177"/>
</g>
<!-- Node22&#45;&gt;Node6 -->
<g id="edge58" class="edge"><title>Node22&#45;&gt;Node6</title>
<path fill="none" stroke="midnightblue" d="M1227.07,-56.7323C1225.96,-56.484 1224.86,-56.2394 1223.77,-56 1161.3,-42.225 1088.36,-27.0881 1045.79,-18.3499"/>
<polygon fill="midnightblue" stroke="midnightblue" points="1226.67,-60.2293 1237.2,-59.0222 1228.21,-53.4018 1226.67,-60.2293"/>
</g>
<!-- Node23&#45;&gt;Node9 -->
<g id="edge67" class="edge"><title>Node23&#45;&gt;Node9</title>
<path fill="none" stroke="midnightblue" d="M209.239,-221.216C181.441,-209.748 149.348,-190.75 164.773,-168 242.456,-53.421 418.529,-22.4587 506.586,-14.0944"/>
<polygon fill="midnightblue" stroke="midnightblue" points="208.219,-224.575 218.807,-224.953 210.765,-218.055 208.219,-224.575"/>
</g>
<!-- Node23&#45;&gt;Node19 -->
<g id="edge61" class="edge"><title>Node23&#45;&gt;Node19</title>
<path fill="none" stroke="midnightblue" d="M303.314,-227.504C424.067,-216.357 694.605,-191.385 792.521,-182.346"/>
<polygon fill="midnightblue" stroke="midnightblue" points="302.781,-224.038 293.145,-228.443 303.425,-231.008 302.781,-224.038"/>
</g>
<!-- Node23&#45;&gt;Node20 -->
<g id="edge66" class="edge"><title>Node23&#45;&gt;Node20</title>
<path fill="none" stroke="midnightblue" d="M199.324,-221.945C177.319,-214.872 151.347,-203.965 131.773,-188 112.27,-172.093 98.408,-144.988 92.2852,-131.354"/>
<polygon fill="midnightblue" stroke="midnightblue" points="198.532,-225.363 209.118,-224.93 200.572,-218.667 198.532,-225.363"/>
</g>
<!-- Node24 -->
<g id="node24" class="node"><title>Node24</title>
<g id="a_node24"><a xlink:href="info_8h.html" target="_top" xlink:title="Show info about the file. ">
<polygon fill="none" stroke="black" points="173.541,-169 173.541,-187 214.004,-187 214.004,-169 173.541,-169"/>
<text text-anchor="middle" x="193.773" y="-175" font-family="Helvetica,sans-Serif" font-size="10.00">info.h</text>
</a>
</g>
</g>
<!-- Node23&#45;&gt;Node24 -->
<g id="edge62" class="edge"><title>Node23&#45;&gt;Node24</title>
<path fill="none" stroke="midnightblue" d="M228.983,-217.027C219.91,-207.228 208.671,-195.09 201.367,-187.201"/>
<polygon fill="midnightblue" stroke="midnightblue" points="226.598,-219.603 235.96,-224.562 231.734,-214.847 226.598,-219.603"/>
</g>
<!-- Node25 -->
<g id="node25" class="node"><title>Node25</title>
<g id="a_node25"><a xlink:href="RestoreCurrentFrame_8h.html" target="_top" xlink:title="Restore the current frame when exiting a scope. ">
<polygon fill="none" stroke="black" points="231.977,-169 231.977,-187 353.568,-187 353.568,-169 231.977,-169"/>
<text text-anchor="middle" x="292.773" y="-175" font-family="Helvetica,sans-Serif" font-size="10.00">RestoreCurrentFrame.h</text>
</a>
</g>
</g>
<!-- Node23&#45;&gt;Node25 -->
<g id="edge63" class="edge"><title>Node23&#45;&gt;Node25</title>
<path fill="none" stroke="midnightblue" d="M258.267,-217.027C267.159,-207.228 278.173,-195.09 285.331,-187.201"/>
<polygon fill="midnightblue" stroke="midnightblue" points="255.557,-214.805 251.429,-224.562 260.741,-219.509 255.557,-214.805"/>
</g>
<!-- Node26 -->
<g id="node26" class="node"><title>Node26</title>
<g id="a_node26"><a xlink:href="SetCurrentFrame_8h.html" target="_top" xlink:title="Temporarily change the current frame. ">
<polygon fill="none" stroke="black" points="371.98,-169 371.98,-187 473.566,-187 473.566,-169 371.98,-169"/>
<text text-anchor="middle" x="422.773" y="-175" font-family="Helvetica,sans-Serif" font-size="10.00">SetCurrentFrame.h</text>
</a>
</g>
</g>
<!-- Node23&#45;&gt;Node26 -->
<g id="edge64" class="edge"><title>Node23&#45;&gt;Node26</title>
<path fill="none" stroke="midnightblue" d="M280.24,-221.999C314.619,-211.627 365.329,-196.329 396.084,-187.051"/>
<polygon fill="midnightblue" stroke="midnightblue" points="279.134,-218.677 270.571,-224.916 281.156,-225.378 279.134,-218.677"/>
</g>
<!-- Node27 -->
<g id="node27" class="node"><title>Node27</title>
<g id="a_node27"><a xlink:href="signature_8h.html" target="_top" xlink:title="Return a (long) string describing a file that can be compared. ">
<polygon fill="none" stroke="black" points="14.034,-169 14.034,-187 79.5115,-187 79.5115,-169 14.034,-169"/>
<text text-anchor="middle" x="46.7728" y="-175" font-family="Helvetica,sans-Serif" font-size="10.00">signature.h</text>
</a>
</g>
</g>
<!-- Node23&#45;&gt;Node27 -->
<g id="edge65" class="edge"><title>Node23&#45;&gt;Node27</title>
<path fill="none" stroke="midnightblue" d="M204.609,-222.265C166.762,-211.89 110.283,-196.409 76.1451,-187.051"/>
<polygon fill="midnightblue" stroke="midnightblue" points="203.71,-225.647 214.28,-224.916 205.561,-218.896 203.71,-225.647"/>
</g>
<!-- Node29&#45;&gt;Node3 -->
<g id="edge72" class="edge"><title>Node29&#45;&gt;Node3</title>
<path fill="none" stroke="midnightblue" d="M909.4,-331.969C890.252,-321.731 864.185,-307.795 847.926,-299.102"/>
<polygon fill="midnightblue" stroke="midnightblue" points="907.964,-335.17 918.433,-336.799 911.265,-328.997 907.964,-335.17"/>
</g>
<!-- Node29&#45;&gt;Node8 -->
<g id="edge74" class="edge"><title>Node29&#45;&gt;Node8</title>
<path fill="none" stroke="midnightblue" d="M974.181,-341.709C1106.72,-330.383 1519.77,-290.62 1519.77,-235 1519.77,-235 1519.77,-235 1519.77,-121 1519.77,-49.7799 1422.25,-24.4592 1362.06,-15.6138"/>
<polygon fill="midnightblue" stroke="midnightblue" points="973.714,-338.236 964.045,-342.567 974.304,-345.211 973.714,-338.236"/>
</g>
<!-- Node29&#45;&gt;Node18 -->
<g id="edge73" class="edge"><title>Node29&#45;&gt;Node18</title>
<path fill="none" stroke="midnightblue" d="M933.773,-326.678C933.773,-302.389 933.773,-260.563 933.773,-243.065"/>
<polygon fill="midnightblue" stroke="midnightblue" points="930.273,-326.732 933.773,-336.732 937.273,-326.732 930.273,-326.732"/>
</g>
</g>
</svg>
