<?xml version="1.0" encoding="UTF-8" standalone="no"?>
<!DOCTYPE svg PUBLIC "-//W3C//DTD SVG 1.1//EN"
 "http://www.w3.org/Graphics/SVG/1.1/DTD/svg11.dtd">
<!-- Generated by graphviz version 2.36.0 (20140111.2315)
 -->
<!-- Title: traits.h Pages: 1 -->
<svg width="2705pt" height="820pt"
 viewBox="0.00 0.00 2704.91 820.00" xmlns="http://www.w3.org/2000/svg" xmlns:xlink="http://www.w3.org/1999/xlink">
<g id="graph0" class="graph" transform="scale(1 1) rotate(0) translate(4 816)">
<title>traits.h</title>
<!-- Node1 -->
<g id="node1" class="node"><title>Node1</title>
<polygon fill="#bfbfbf" stroke="black" points="2279.91,-793 2279.91,-811 2325.92,-811 2325.92,-793 2279.91,-793"/>
<text text-anchor="middle" x="2302.91" y="-799" font-family="Helvetica,sans-Serif" font-size="10.00">traits.h</text>
</g>
<!-- Node2 -->
<g id="node2" class="node"><title>Node2</title>
<g id="a_node2"><a xlink:href="config_8h_source.html" target="_top" xlink:title="RMF/config.h">
<polygon fill="none" stroke="black" points="1195.18,-140 1195.18,-158 1270.65,-158 1270.65,-140 1195.18,-140"/>
<text text-anchor="middle" x="1232.91" y="-146" font-family="Helvetica,sans-Serif" font-size="10.00">RMF/config.h</text>
</a>
</g>
</g>
<!-- Node1&#45;&gt;Node2 -->
<g id="edge1" class="edge"><title>Node1&#45;&gt;Node2</title>
<path fill="none" stroke="midnightblue" d="M2279.77,-801.064C2039.05,-801.586 1.91494,-802.441 1.91494,-682 1.91494,-682 1.91494,-682 1.91494,-279 1.91494,-244.614 -5.74483,-225.718 20.9149,-204 66.7552,-166.657 964.854,-153.276 1184.67,-150.553"/>
<polygon fill="midnightblue" stroke="midnightblue" points="1184.96,-154.05 1194.92,-150.428 1184.88,-147.051 1184.96,-154.05"/>
</g>
<!-- Node4 -->
<g id="node4" class="node"><title>Node4</title>
<g id="a_node4"><a xlink:href="types_8h.html" target="_top" xlink:title="Default implementation for types.h. ">
<polygon fill="none" stroke="black" points="746.575,-327 746.575,-345 819.255,-345 819.255,-327 746.575,-327"/>
<text text-anchor="middle" x="782.915" y="-333" font-family="Helvetica,sans-Serif" font-size="10.00">RMF/types.h</text>
</a>
</g>
</g>
<!-- Node1&#45;&gt;Node4 -->
<g id="edge3" class="edge"><title>Node1&#45;&gt;Node4</title>
<path fill="none" stroke="midnightblue" d="M2279.85,-800.431C2090.25,-795.608 795.915,-759.832 795.915,-682 795.915,-682 795.915,-682 795.915,-447 795.915,-414.562 790.271,-377.113 786.42,-355.34"/>
<polygon fill="midnightblue" stroke="midnightblue" points="789.814,-354.441 784.561,-345.24 782.929,-355.708 789.814,-354.441"/>
</g>
<!-- Node26 -->
<g id="node26" class="node"><title>Node26</title>
<polygon fill="none" stroke="#bfbfbf" points="2505.11,-672 2505.11,-690 2596.72,-690 2596.72,-672 2505.11,-672"/>
<text text-anchor="middle" x="2550.91" y="-678" font-family="Helvetica,sans-Serif" font-size="10.00">boost/cstdint.hpp</text>
</g>
<!-- Node1&#45;&gt;Node26 -->
<g id="edge31" class="edge"><title>Node1&#45;&gt;Node26</title>
<path fill="none" stroke="midnightblue" d="M2319.96,-792.821C2362.63,-772.348 2474.23,-718.796 2525.04,-694.413"/>
<polygon fill="midnightblue" stroke="midnightblue" points="2526.58,-697.561 2534.08,-690.079 2523.55,-691.25 2526.58,-697.561"/>
</g>
<!-- Node27 -->
<g id="node27" class="node"><title>Node27</title>
<polygon fill="none" stroke="#bfbfbf" points="2372.53,-210 2372.53,-228 2411.3,-228 2411.3,-210 2372.53,-210"/>
<text text-anchor="middle" x="2391.91" y="-216" font-family="Helvetica,sans-Serif" font-size="10.00">limits</text>
</g>
<!-- Node1&#45;&gt;Node27 -->
<g id="edge32" class="edge"><title>Node1&#45;&gt;Node27</title>
<path fill="none" stroke="midnightblue" d="M2326.07,-797.591C2399.9,-786.081 2624.91,-745.77 2624.91,-682 2624.91,-682 2624.91,-682 2624.91,-335 2624.91,-245.236 2484.14,-225.537 2421.44,-221.214"/>
<polygon fill="midnightblue" stroke="midnightblue" points="2421.57,-217.716 2411.38,-220.608 2421.15,-224.704 2421.57,-217.716"/>
</g>
<!-- Node28 -->
<g id="node28" class="node"><title>Node28</title>
<polygon fill="none" stroke="#bfbfbf" points="2653.3,-737 2653.3,-755 2696.53,-755 2696.53,-737 2653.3,-737"/>
<text text-anchor="middle" x="2674.91" y="-743" font-family="Helvetica,sans-Serif" font-size="10.00">cmath</text>
</g>
<!-- Node1&#45;&gt;Node28 -->
<g id="edge33" class="edge"><title>Node1&#45;&gt;Node28</title>
<path fill="none" stroke="midnightblue" d="M2326.28,-798.78C2381.15,-793.369 2522.44,-778.287 2638.91,-756 2640.2,-755.755 2641.5,-755.492 2642.81,-755.216"/>
<polygon fill="midnightblue" stroke="midnightblue" points="2643.94,-758.549 2652.92,-752.914 2642.39,-751.724 2643.94,-758.549"/>
</g>
<!-- Node29 -->
<g id="node29" class="node"><title>Node29</title>
<g id="a_node29"><a xlink:href="HDF5_2types_8h.html" target="_top" xlink:title="Handle read/write of Model data from/to files. ">
<polygon fill="none" stroke="black" points="2143.13,-737 2143.13,-755 2244.7,-755 2244.7,-737 2143.13,-737"/>
<text text-anchor="middle" x="2193.91" y="-743" font-family="Helvetica,sans-Serif" font-size="10.00">RMF/HDF5/types.h</text>
</a>
</g>
</g>
<!-- Node1&#45;&gt;Node29 -->
<g id="edge34" class="edge"><title>Node1&#45;&gt;Node29</title>
<path fill="none" stroke="midnightblue" d="M2286.36,-792.799C2268.57,-783.986 2240.07,-769.868 2219.42,-759.635"/>
<polygon fill="midnightblue" stroke="midnightblue" points="2220.78,-756.405 2210.27,-755.102 2217.68,-762.677 2220.78,-756.405"/>
</g>
<!-- Node3 -->
<g id="node3" class="node"><title>Node3</title>
<g id="a_node3"><a xlink:href="compiler__macros_8h.html" target="_top" xlink:title="Various compiler workarounds. ">
<polygon fill="none" stroke="black" points="1335.46,-10 1335.46,-28 1460.37,-28 1460.37,-10 1335.46,-10"/>
<text text-anchor="middle" x="1397.91" y="-16" font-family="Helvetica,sans-Serif" font-size="10.00">RMF/compiler_macros.h</text>
</a>
</g>
</g>
<!-- Node2&#45;&gt;Node3 -->
<g id="edge2" class="edge"><title>Node2&#45;&gt;Node3</title>
<path fill="none" stroke="midnightblue" d="M1243.24,-139.993C1270.55,-118.802 1345.01,-61.04 1379.69,-34.1376"/>
<polygon fill="midnightblue" stroke="midnightblue" points="1381.84,-36.8989 1387.6,-28.0039 1377.55,-31.368 1381.84,-36.8989"/>
</g>
<!-- Node4&#45;&gt;Node2 -->
<g id="edge4" class="edge"><title>Node4&#45;&gt;Node2</title>
<path fill="none" stroke="midnightblue" d="M783.297,-326.907C784.871,-303.563 792.851,-235.753 832.915,-204 886.51,-161.523 1090.9,-152.427 1184.99,-150.503"/>
<polygon fill="midnightblue" stroke="midnightblue" points="1185.16,-154.001 1195.09,-150.315 1185.03,-147.002 1185.16,-154.001"/>
</g>
<!-- Node5 -->
<g id="node5" class="node"><title>Node5</title>
<g id="a_node5"><a xlink:href="Vector_8h.html" target="_top" xlink:title="Represent coordinates. ">
<polygon fill="none" stroke="black" points="666.841,-271 666.841,-289 718.989,-289 718.989,-271 666.841,-271"/>
<text text-anchor="middle" x="692.915" y="-277" font-family="Helvetica,sans-Serif" font-size="10.00">Vector.h</text>
</a>
</g>
</g>
<!-- Node4&#45;&gt;Node5 -->
<g id="edge5" class="edge"><title>Node4&#45;&gt;Node5</title>
<path fill="none" stroke="midnightblue" d="M769.246,-326.799C754.89,-318.185 732.089,-304.504 715.141,-294.335"/>
<polygon fill="midnightblue" stroke="midnightblue" points="716.793,-291.245 706.418,-289.102 713.192,-297.248 716.793,-291.245"/>
</g>
<!-- Node5&#45;&gt;Node2 -->
<g id="edge6" class="edge"><title>Node5&#45;&gt;Node2</title>
<path fill="none" stroke="midnightblue" d="M703.239,-270.944C727.056,-252.426 784.6,-208.1 794.915,-204 864.985,-176.148 1086.23,-159.203 1184.76,-152.857"/>
<polygon fill="midnightblue" stroke="midnightblue" points="1185.27,-156.332 1195.03,-152.206 1184.83,-149.346 1185.27,-156.332"/>
</g>
<!-- Node6 -->
<g id="node6" class="node"><title>Node6</title>
<g id="a_node6"><a xlink:href="infrastructure__macros_8h.html" target="_top" xlink:title="Various general useful macros for IMP. ">
<polygon fill="none" stroke="black" points="1862.4,-75 1862.4,-93 1983.43,-93 1983.43,-75 1862.4,-75"/>
<text text-anchor="middle" x="1922.91" y="-81" font-family="Helvetica,sans-Serif" font-size="10.00">infrastructure_macros.h</text>
</a>
</g>
</g>
<!-- Node5&#45;&gt;Node6 -->
<g id="edge7" class="edge"><title>Node5&#45;&gt;Node6</title>
<path fill="none" stroke="midnightblue" d="M719.116,-278.22C823.808,-274.941 1212.21,-261.163 1331.91,-234 1367.33,-225.964 1373.24,-214.784 1407.91,-204 1572.57,-152.793 1772.97,-112.646 1867.93,-94.9109"/>
<polygon fill="midnightblue" stroke="midnightblue" points="1868.69,-98.3295 1877.89,-93.0621 1867.41,-91.4472 1868.69,-98.3295"/>
</g>
<!-- Node15 -->
<g id="node15" class="node"><title>Node15</title>
<g id="a_node15"><a xlink:href="exceptions_8h.html" target="_top" xlink:title="Declarations of the various exception types. ">
<polygon fill="none" stroke="black" points="1902.84,-210 1902.84,-228 1974.99,-228 1974.99,-210 1902.84,-210"/>
<text text-anchor="middle" x="1938.91" y="-216" font-family="Helvetica,sans-Serif" font-size="10.00">exceptions.h</text>
</a>
</g>
</g>
<!-- Node5&#45;&gt;Node15 -->
<g id="edge17" class="edge"><title>Node5&#45;&gt;Node15</title>
<path fill="none" stroke="midnightblue" d="M719.314,-278.44C870.203,-275.171 1624.77,-257.866 1855.91,-234 1867.83,-232.77 1880.63,-230.891 1892.52,-228.906"/>
<polygon fill="midnightblue" stroke="midnightblue" points="1893.43,-232.301 1902.69,-227.148 1892.24,-225.403 1893.43,-232.301"/>
</g>
<!-- Node19 -->
<g id="node19" class="node"><title>Node19</title>
<polygon fill="none" stroke="#bfbfbf" points="383.152,-210 383.152,-228 498.678,-228 498.678,-210 383.152,-210"/>
<text text-anchor="middle" x="440.915" y="-216" font-family="Helvetica,sans-Serif" font-size="10.00">boost/range/begin.hpp</text>
</g>
<!-- Node5&#45;&gt;Node19 -->
<g id="edge24" class="edge"><title>Node5&#45;&gt;Node19</title>
<path fill="none" stroke="midnightblue" d="M666.423,-272.797C623.418,-262.729 537.955,-242.72 485.474,-230.432"/>
<polygon fill="midnightblue" stroke="midnightblue" points="485.974,-226.955 475.439,-228.083 484.378,-233.771 485.974,-226.955"/>
</g>
<!-- Node20 -->
<g id="node20" class="node"><title>Node20</title>
<polygon fill="none" stroke="#bfbfbf" points="517.043,-210 517.043,-228 624.787,-228 624.787,-210 517.043,-210"/>
<text text-anchor="middle" x="570.915" y="-216" font-family="Helvetica,sans-Serif" font-size="10.00">boost/range/end.hpp</text>
</g>
<!-- Node5&#45;&gt;Node20 -->
<g id="edge25" class="edge"><title>Node5&#45;&gt;Node20</title>
<path fill="none" stroke="midnightblue" d="M676.207,-270.92C655.788,-261.045 621.003,-244.223 597.037,-232.633"/>
<polygon fill="midnightblue" stroke="midnightblue" points="598.339,-229.375 587.812,-228.172 595.291,-235.676 598.339,-229.375"/>
</g>
<!-- Node21 -->
<g id="node21" class="node"><title>Node21</title>
<polygon fill="none" stroke="#bfbfbf" points="643.228,-205 643.228,-233 742.602,-233 742.602,-205 643.228,-205"/>
<text text-anchor="start" x="651.228" y="-221" font-family="Helvetica,sans-Serif" font-size="10.00">boost/type_traits/is</text>
<text text-anchor="middle" x="692.915" y="-211" font-family="Helvetica,sans-Serif" font-size="10.00">_convertible.hpp</text>
</g>
<!-- Node5&#45;&gt;Node21 -->
<g id="edge26" class="edge"><title>Node5&#45;&gt;Node21</title>
<path fill="none" stroke="midnightblue" d="M692.915,-270.796C692.915,-263.711 692.915,-253.115 692.915,-243.431"/>
<polygon fill="midnightblue" stroke="midnightblue" points="696.415,-243.121 692.915,-233.121 689.415,-243.122 696.415,-243.121"/>
</g>
<!-- Node22 -->
<g id="node22" class="node"><title>Node22</title>
<polygon fill="none" stroke="#bfbfbf" points="30.1664,-210 30.1664,-228 125.663,-228 125.663,-210 30.1664,-210"/>
<text text-anchor="middle" x="77.9149" y="-216" font-family="Helvetica,sans-Serif" font-size="10.00">boost/mpl/not.hpp</text>
</g>
<!-- Node5&#45;&gt;Node22 -->
<g id="edge27" class="edge"><title>Node5&#45;&gt;Node22</title>
<path fill="none" stroke="midnightblue" d="M666.588,-278.374C586.326,-276.147 337.824,-266.882 134.915,-234 128.987,-233.039 122.767,-231.779 116.704,-230.408"/>
<polygon fill="midnightblue" stroke="midnightblue" points="117.267,-226.944 106.728,-228.029 115.643,-233.753 117.267,-226.944"/>
</g>
<!-- Node23 -->
<g id="node23" class="node"><title>Node23</title>
<polygon fill="none" stroke="#bfbfbf" points="143.54,-210 143.54,-228 228.29,-228 228.29,-210 143.54,-210"/>
<text text-anchor="middle" x="185.915" y="-216" font-family="Helvetica,sans-Serif" font-size="10.00">boost/array.hpp</text>
</g>
<!-- Node5&#45;&gt;Node23 -->
<g id="edge28" class="edge"><title>Node5&#45;&gt;Node23</title>
<path fill="none" stroke="midnightblue" d="M666.799,-277.921C596.803,-274.705 399.355,-263.509 237.915,-234 232.815,-233.068 227.485,-231.883 222.263,-230.598"/>
<polygon fill="midnightblue" stroke="midnightblue" points="223.003,-227.174 212.444,-228.044 221.241,-233.949 223.003,-227.174"/>
</g>
<!-- Node24 -->
<g id="node24" class="node"><title>Node24</title>
<polygon fill="none" stroke="#bfbfbf" points="246.496,-210 246.496,-228 365.333,-228 365.333,-210 246.496,-210"/>
<text text-anchor="middle" x="305.915" y="-216" font-family="Helvetica,sans-Serif" font-size="10.00">boost/static_assert.hpp</text>
</g>
<!-- Node5&#45;&gt;Node24 -->
<g id="edge29" class="edge"><title>Node5&#45;&gt;Node24</title>
<path fill="none" stroke="midnightblue" d="M666.778,-275.879C612.2,-269.236 482.204,-252.766 373.915,-234 367.133,-232.825 359.992,-231.477 352.991,-230.092"/>
<polygon fill="midnightblue" stroke="midnightblue" points="353.386,-226.602 342.891,-228.053 352,-233.463 353.386,-226.602"/>
</g>
<!-- Node25 -->
<g id="node25" class="node"><title>Node25</title>
<polygon fill="none" stroke="#bfbfbf" points="1147.35,-210 1147.35,-228 1204.48,-228 1204.48,-210 1147.35,-210"/>
<text text-anchor="middle" x="1175.91" y="-216" font-family="Helvetica,sans-Serif" font-size="10.00">algorithm</text>
</g>
<!-- Node5&#45;&gt;Node25 -->
<g id="edge30" class="edge"><title>Node5&#45;&gt;Node25</title>
<path fill="none" stroke="midnightblue" d="M719.226,-275.786C799.583,-265.97 1042.09,-236.347 1137.12,-224.739"/>
<polygon fill="midnightblue" stroke="midnightblue" points="1137.67,-228.198 1147.17,-223.511 1136.82,-221.25 1137.67,-228.198"/>
</g>
<!-- Node6&#45;&gt;Node3 -->
<g id="edge11" class="edge"><title>Node6&#45;&gt;Node3</title>
<path fill="none" stroke="midnightblue" d="M1862.22,-76.8525C1783.45,-68.725 1641.76,-53.6011 1520.91,-38 1501.05,-35.4351 1479.42,-32.3638 1459.91,-29.4905"/>
<polygon fill="midnightblue" stroke="midnightblue" points="1460.34,-26.0147 1449.93,-28.0098 1459.31,-32.939 1460.34,-26.0147"/>
</g>
<!-- Node7 -->
<g id="node7" class="node"><title>Node7</title>
<polygon fill="none" stroke="#bfbfbf" points="2091.13,-10 2091.13,-28 2142.7,-28 2142.7,-10 2091.13,-10"/>
<text text-anchor="middle" x="2116.91" y="-16" font-family="Helvetica,sans-Serif" font-size="10.00">sstream</text>
</g>
<!-- Node6&#45;&gt;Node7 -->
<g id="edge8" class="edge"><title>Node6&#45;&gt;Node7</title>
<path fill="none" stroke="midnightblue" d="M1958.95,-74.976C1991.62,-67.1929 2040.81,-54.1988 2081.91,-38 2085.81,-36.4655 2089.84,-34.6349 2093.73,-32.7377"/>
<polygon fill="midnightblue" stroke="midnightblue" points="2095.62,-35.7015 2102.91,-28.0153 2092.42,-29.4765 2095.62,-35.7015"/>
</g>
<!-- Node8 -->
<g id="node8" class="node"><title>Node8</title>
<polygon fill="none" stroke="#bfbfbf" points="1612.74,-10 1612.74,-28 1667.09,-28 1667.09,-10 1612.74,-10"/>
<text text-anchor="middle" x="1639.91" y="-16" font-family="Helvetica,sans-Serif" font-size="10.00">iostream</text>
</g>
<!-- Node6&#45;&gt;Node8 -->
<g id="edge9" class="edge"><title>Node6&#45;&gt;Node8</title>
<path fill="none" stroke="midnightblue" d="M1862.33,-76.8204C1811.58,-70.5012 1737.73,-58.6176 1675.91,-38 1671.66,-36.5823 1667.28,-34.7454 1663.11,-32.7883"/>
<polygon fill="midnightblue" stroke="midnightblue" points="1664.39,-29.5145 1653.88,-28.1442 1661.24,-35.767 1664.39,-29.5145"/>
</g>
<!-- Node9 -->
<g id="node9" class="node"><title>Node9</title>
<polygon fill="none" stroke="#bfbfbf" points="1529.69,-10 1529.69,-28 1570.14,-28 1570.14,-10 1529.69,-10"/>
<text text-anchor="middle" x="1549.91" y="-16" font-family="Helvetica,sans-Serif" font-size="10.00">string</text>
</g>
<!-- Node6&#45;&gt;Node9 -->
<g id="edge10" class="edge"><title>Node6&#45;&gt;Node9</title>
<path fill="none" stroke="midnightblue" d="M1862.34,-77.7605C1797.72,-71.4053 1692.66,-58.8678 1603.91,-38 1595.93,-36.1232 1587.45,-33.5723 1579.64,-30.9813"/>
<polygon fill="midnightblue" stroke="midnightblue" points="1580.77,-27.6705 1570.18,-27.7257 1578.49,-34.2895 1580.77,-27.6705"/>
</g>
<!-- Node10 -->
<g id="node10" class="node"><title>Node10</title>
<polygon fill="none" stroke="black" points="2018.91,-1 2018.91,-37 2072.91,-37 2072.91,-1 2018.91,-1"/>
<text text-anchor="middle" x="2045.43" y="-16" font-family="Helvetica,sans-Serif" font-size="10.00">Node10</text>
</g>
<!-- Node6&#45;&gt;Node10 -->
<g id="edge12" class="edge"><title>Node6&#45;&gt;Node10</title>
<path fill="none" stroke="midnightblue" d="M1938.74,-74.8928C1956.61,-65.7392 1986.27,-50.548 2009.87,-38.4642"/>
<polygon fill="midnightblue" stroke="midnightblue" points="2011.59,-41.5118 2018.9,-33.8378 2008.4,-35.2815 2011.59,-41.5118"/>
</g>
<!-- Node11 -->
<g id="node11" class="node"><title>Node11</title>
<polygon fill="none" stroke="#bfbfbf" points="2160.3,-10 2160.3,-28 2203.53,-28 2203.53,-10 2160.3,-10"/>
<text text-anchor="middle" x="2181.91" y="-16" font-family="Helvetica,sans-Serif" font-size="10.00">vector</text>
</g>
<!-- Node6&#45;&gt;Node11 -->
<g id="edge13" class="edge"><title>Node6&#45;&gt;Node11</title>
<path fill="none" stroke="midnightblue" d="M1983.46,-76.5942C2030.3,-70.3308 2096.17,-58.6346 2150.91,-38 2154.34,-36.7097 2157.82,-35.063 2161.16,-33.2915"/>
<polygon fill="midnightblue" stroke="midnightblue" points="2163.11,-36.2052 2170.01,-28.1609 2159.6,-30.1496 2163.11,-36.2052"/>
</g>
<!-- Node12 -->
<g id="node12" class="node"><title>Node12</title>
<polygon fill="none" stroke="#bfbfbf" points="1685.22,-10 1685.22,-28 1774.61,-28 1774.61,-10 1685.22,-10"/>
<text text-anchor="middle" x="1729.91" y="-16" font-family="Helvetica,sans-Serif" font-size="10.00">boost/config.hpp</text>
</g>
<!-- Node6&#45;&gt;Node12 -->
<g id="edge14" class="edge"><title>Node6&#45;&gt;Node12</title>
<path fill="none" stroke="midnightblue" d="M1897.78,-74.9359C1869.93,-65.9808 1823.68,-51.0629 1783.91,-38 1777.29,-35.8241 1770.22,-33.4804 1763.45,-31.2268"/>
<polygon fill="midnightblue" stroke="midnightblue" points="1764.42,-27.862 1753.82,-28.0194 1762.2,-34.5026 1764.42,-27.862"/>
</g>
<!-- Node13 -->
<g id="node13" class="node"><title>Node13</title>
<polygon fill="none" stroke="#bfbfbf" points="1792.44,-10 1792.44,-28 1887.39,-28 1887.39,-10 1792.44,-10"/>
<text text-anchor="middle" x="1839.91" y="-16" font-family="Helvetica,sans-Serif" font-size="10.00">boost/version.hpp</text>
</g>
<!-- Node6&#45;&gt;Node13 -->
<g id="edge15" class="edge"><title>Node6&#45;&gt;Node13</title>
<path fill="none" stroke="midnightblue" d="M1912.06,-74.7639C1898.57,-64.5202 1875.3,-46.8606 1858.84,-34.3679"/>
<polygon fill="midnightblue" stroke="midnightblue" points="1860.59,-31.2971 1850.51,-28.039 1856.36,-36.8729 1860.59,-31.2971"/>
</g>
<!-- Node14 -->
<g id="node14" class="node"><title>Node14</title>
<polygon fill="none" stroke="#bfbfbf" points="1904.89,-10 1904.89,-28 2000.94,-28 2000.94,-10 1904.89,-10"/>
<text text-anchor="middle" x="1952.91" y="-16" font-family="Helvetica,sans-Serif" font-size="10.00">boost/foreach.hpp</text>
</g>
<!-- Node6&#45;&gt;Node14 -->
<g id="edge16" class="edge"><title>Node6&#45;&gt;Node14</title>
<path fill="none" stroke="midnightblue" d="M1926.84,-74.7639C1931.35,-65.279 1938.9,-49.4361 1944.71,-37.224"/>
<polygon fill="midnightblue" stroke="midnightblue" points="1947.95,-38.5724 1949.09,-28.039 1941.63,-35.5628 1947.95,-38.5724"/>
</g>
<!-- Node15&#45;&gt;Node2 -->
<g id="edge21" class="edge"><title>Node15&#45;&gt;Node2</title>
<path fill="none" stroke="midnightblue" d="M1913.96,-209.946C1906.03,-207.676 1897.17,-205.436 1888.91,-204 1667.22,-165.469 1607.92,-189.323 1383.91,-168 1349.36,-164.71 1310.46,-160.051 1280.8,-156.297"/>
<polygon fill="midnightblue" stroke="midnightblue" points="1281.08,-152.804 1270.72,-155.011 1280.19,-159.748 1281.08,-152.804"/>
</g>
<!-- Node15&#45;&gt;Node3 -->
<g id="edge22" class="edge"><title>Node15&#45;&gt;Node3</title>
<path fill="none" stroke="midnightblue" d="M1911.49,-209.997C1904.18,-207.952 1896.27,-205.819 1888.91,-204 1815.21,-185.755 1793.98,-191.913 1721.91,-168 1605.05,-129.221 1473.98,-61.236 1421.49,-32.934"/>
<polygon fill="midnightblue" stroke="midnightblue" points="1423.09,-29.8172 1412.63,-28.1272 1419.75,-35.9708 1423.09,-29.8172"/>
</g>
<!-- Node15&#45;&gt;Node9 -->
<g id="edge20" class="edge"><title>Node15&#45;&gt;Node9</title>
<path fill="none" stroke="midnightblue" d="M1910.08,-209.932C1880.5,-201.211 1833.49,-186.102 1794.91,-168 1707.09,-126.781 1610.73,-62.3536 1569.93,-34.0903"/>
<polygon fill="midnightblue" stroke="midnightblue" points="1571.86,-31.1693 1561.65,-28.3238 1567.86,-36.9126 1571.86,-31.1693"/>
</g>
<!-- Node16 -->
<g id="node16" class="node"><title>Node16</title>
<polygon fill="none" stroke="#bfbfbf" points="1804.37,-140 1804.37,-158 1955.46,-158 1955.46,-140 1804.37,-140"/>
<text text-anchor="middle" x="1879.91" y="-146" font-family="Helvetica,sans-Serif" font-size="10.00">boost/exception/exception.hpp</text>
</g>
<!-- Node15&#45;&gt;Node16 -->
<g id="edge18" class="edge"><title>Node15&#45;&gt;Node16</title>
<path fill="none" stroke="midnightblue" d="M1931.92,-209.932C1922.51,-199.095 1905.6,-179.602 1893.62,-165.793"/>
<polygon fill="midnightblue" stroke="midnightblue" points="1896.1,-163.317 1886.91,-158.057 1890.82,-167.904 1896.1,-163.317"/>
</g>
<!-- Node17 -->
<g id="node17" class="node"><title>Node17</title>
<polygon fill="none" stroke="#bfbfbf" points="1973.51,-140 1973.51,-158 2032.32,-158 2032.32,-140 1973.51,-140"/>
<text text-anchor="middle" x="2002.91" y="-146" font-family="Helvetica,sans-Serif" font-size="10.00">exception</text>
</g>
<!-- Node15&#45;&gt;Node17 -->
<g id="edge19" class="edge"><title>Node15&#45;&gt;Node17</title>
<path fill="none" stroke="midnightblue" d="M1946.51,-209.932C1956.8,-198.992 1975.4,-179.233 1988.42,-165.403"/>
<polygon fill="midnightblue" stroke="midnightblue" points="1991.03,-167.738 1995.33,-158.057 1985.93,-162.94 1991.03,-167.738"/>
</g>
<!-- Node18 -->
<g id="node18" class="node"><title>Node18</title>
<polygon fill="none" stroke="black" points="2262.91,-131 2262.91,-167 2316.91,-167 2316.91,-131 2262.91,-131"/>
<text text-anchor="middle" x="2289.43" y="-146" font-family="Helvetica,sans-Serif" font-size="10.00">Node18</text>
</g>
<!-- Node15&#45;&gt;Node18 -->
<g id="edge23" class="edge"><title>Node15&#45;&gt;Node18</title>
<path fill="none" stroke="midnightblue" d="M1975.16,-210.979C2042.16,-197.998 2184.74,-170.375 2252.57,-157.235"/>
<polygon fill="midnightblue" stroke="midnightblue" points="2253.64,-160.593 2262.79,-155.255 2252.31,-153.721 2253.64,-160.593"/>
</g>
<!-- Node29&#45;&gt;Node2 -->
<g id="edge35" class="edge"><title>Node29&#45;&gt;Node2</title>
<path fill="none" stroke="midnightblue" d="M2142.99,-745.006C1923.7,-744.78 1065.81,-741.245 952.915,-700 896.713,-679.467 846.915,-676.835 846.915,-617 846.915,-617 846.915,-617 846.915,-279 846.915,-226.589 890.389,-226.095 937.915,-204 1019.14,-166.236 1124.43,-154.842 1184.75,-151.429"/>
<polygon fill="midnightblue" stroke="midnightblue" points="1184.95,-154.924 1194.76,-150.914 1184.59,-147.933 1184.95,-154.924"/>
</g>
<!-- Node29&#45;&gt;Node18 -->
<g id="edge52" class="edge"><title>Node29&#45;&gt;Node18</title>
<path fill="none" stroke="midnightblue" d="M2244.84,-744.075C2326.31,-739.598 2476.91,-717.703 2476.91,-617 2476.91,-617 2476.91,-617 2476.91,-279 2476.91,-242.583 2470.64,-228.737 2443.91,-204 2411.41,-173.914 2361.18,-160.436 2326.99,-154.501"/>
<polygon fill="midnightblue" stroke="midnightblue" points="2327.36,-151.016 2316.93,-152.892 2326.25,-157.928 2327.36,-151.016"/>
</g>
<!-- Node29&#45;&gt;Node25 -->
<g id="edge128" class="edge"><title>Node29&#45;&gt;Node25</title>
<path fill="none" stroke="midnightblue" d="M2142.92,-744.193C1940.94,-740.819 1203.09,-726.762 1101.91,-700 1024.09,-679.414 940.915,-697.505 940.915,-617 940.915,-617 940.915,-617 940.915,-447 940.915,-351.708 988.558,-330.821 1061.91,-270 1084.04,-251.654 1113.95,-238.875 1137.58,-230.83"/>
<polygon fill="midnightblue" stroke="midnightblue" points="1138.85,-234.095 1147.28,-227.67 1136.69,-227.44 1138.85,-234.095"/>
</g>
<!-- Node29&#45;&gt;Node26 -->
<g id="edge129" class="edge"><title>Node29&#45;&gt;Node26</title>
<path fill="none" stroke="midnightblue" d="M2244.77,-739.509C2304.24,-732.579 2405.43,-719.198 2490.91,-700 2499.53,-698.065 2508.72,-695.545 2517.25,-693.008"/>
<polygon fill="midnightblue" stroke="midnightblue" points="2518.35,-696.331 2526.89,-690.054 2516.3,-689.638 2518.35,-696.331"/>
</g>
<!-- Node29&#45;&gt;Node27 -->
<g id="edge130" class="edge"><title>Node29&#45;&gt;Node27</title>
<path fill="none" stroke="midnightblue" d="M2234.85,-736.99C2291.5,-723.252 2386.91,-689.371 2386.91,-617 2386.91,-617 2386.91,-617 2386.91,-335 2386.91,-300.794 2389.15,-260.92 2390.63,-238.248"/>
<polygon fill="midnightblue" stroke="midnightblue" points="2394.14,-238.296 2391.32,-228.081 2387.15,-237.821 2394.14,-238.296"/>
</g>
<!-- Node30 -->
<g id="node30" class="node"><title>Node30</title>
<g id="a_node30"><a xlink:href="handle_8h.html" target="_top" xlink:title="Handle read/write of Model data from/to files. ">
<polygon fill="none" stroke="black" points="1934.73,-271 1934.73,-289 1989.1,-289 1989.1,-271 1934.73,-271"/>
<text text-anchor="middle" x="1961.91" y="-277" font-family="Helvetica,sans-Serif" font-size="10.00">handle.h</text>
</a>
</g>
</g>
<!-- Node29&#45;&gt;Node30 -->
<g id="edge36" class="edge"><title>Node29&#45;&gt;Node30</title>
<path fill="none" stroke="midnightblue" d="M2208.01,-736.983C2220.92,-729.028 2239.8,-715.767 2251.91,-700 2276.3,-668.251 2286.91,-657.035 2286.91,-617 2286.91,-617 2286.91,-617 2286.91,-447 2286.91,-319.124 2084.9,-289.702 1999.41,-282.976"/>
<polygon fill="midnightblue" stroke="midnightblue" points="1999.57,-279.478 1989.34,-282.247 1999.07,-286.46 1999.57,-279.478"/>
</g>
<!-- Node31 -->
<g id="node31" class="node"><title>Node31</title>
<g id="a_node31"><a xlink:href="HDF5_2infrastructure__macros_8h.html" target="_top" xlink:title="Various general useful macros for IMP. ">
<polygon fill="none" stroke="black" points="2056.4,-140 2056.4,-158 2177.43,-158 2177.43,-140 2056.4,-140"/>
<text text-anchor="middle" x="2116.91" y="-146" font-family="Helvetica,sans-Serif" font-size="10.00">infrastructure_macros.h</text>
</a>
</g>
</g>
<!-- Node29&#45;&gt;Node31 -->
<g id="edge51" class="edge"><title>Node29&#45;&gt;Node31</title>
<path fill="none" stroke="midnightblue" d="M2244.98,-740.807C2316.78,-731.804 2438.91,-703.742 2438.91,-617 2438.91,-617 2438.91,-617 2438.91,-279 2438.91,-244.614 2445.09,-227.427 2419.91,-204 2411.17,-195.859 2266.65,-172.721 2180.41,-159.525"/>
<polygon fill="midnightblue" stroke="midnightblue" points="2180.86,-156.054 2170.45,-158.006 2179.81,-162.974 2180.86,-156.054"/>
</g>
<!-- Node34 -->
<g id="node34" class="node"><title>Node34</title>
<g id="a_node34"><a xlink:href="ID_8h.html" target="_top" xlink:title="Declaration of RMF::ID. ">
<polygon fill="none" stroke="black" points="2296.53,-271 2296.53,-289 2355.3,-289 2355.3,-271 2296.53,-271"/>
<text text-anchor="middle" x="2325.91" y="-277" font-family="Helvetica,sans-Serif" font-size="10.00">RMF/ID.h</text>
</a>
</g>
</g>
<!-- Node29&#45;&gt;Node34 -->
<g id="edge53" class="edge"><title>Node29&#45;&gt;Node34</title>
<path fill="none" stroke="midnightblue" d="M2234.21,-736.958C2256.7,-730.514 2283.6,-719.251 2300.91,-700 2326.68,-671.359 2325.91,-655.526 2325.91,-617 2325.91,-617 2325.91,-617 2325.91,-391 2325.91,-358.624 2325.91,-320.888 2325.91,-299.09"/>
<polygon fill="midnightblue" stroke="midnightblue" points="2329.42,-299.005 2325.91,-289.005 2322.42,-299.005 2329.42,-299.005"/>
</g>
<!-- Node35 -->
<g id="node35" class="node"><title>Node35</title>
<polygon fill="none" stroke="black" points="2166.91,-663 2166.91,-699 2220.91,-699 2220.91,-663 2166.91,-663"/>
<text text-anchor="middle" x="2193.43" y="-678" font-family="Helvetica,sans-Serif" font-size="10.00">Node35</text>
</g>
<!-- Node29&#45;&gt;Node35 -->
<g id="edge58" class="edge"><title>Node29&#45;&gt;Node35</title>
<path fill="none" stroke="midnightblue" d="M2193.91,-736.764C2193.91,-729.684 2193.91,-719.062 2193.91,-709.051"/>
<polygon fill="midnightblue" stroke="midnightblue" points="2197.42,-709.015 2193.91,-699.015 2190.42,-709.015 2197.42,-709.015"/>
</g>
<!-- Node36 -->
<g id="node36" class="node"><title>Node36</title>
<g id="a_node36"><a xlink:href="HDF5_8h.html" target="_top" xlink:title="A container which has pairs which ensure a set is connected. ">
<polygon fill="none" stroke="black" points="1805.01,-672 1805.01,-690 1848.82,-690 1848.82,-672 1805.01,-672"/>
<text text-anchor="middle" x="1826.91" y="-678" font-family="Helvetica,sans-Serif" font-size="10.00">hdf5.h</text>
</a>
</g>
</g>
<!-- Node29&#45;&gt;Node36 -->
<g id="edge59" class="edge"><title>Node29&#45;&gt;Node36</title>
<path fill="none" stroke="midnightblue" d="M2142.76,-737.021C2065.86,-724.319 1922.94,-699.76 1859.06,-688.245"/>
<polygon fill="midnightblue" stroke="midnightblue" points="1859.61,-684.789 1849.15,-686.448 1858.37,-691.677 1859.61,-684.789"/>
</g>
<!-- Node30&#45;&gt;Node2 -->
<g id="edge37" class="edge"><title>Node30&#45;&gt;Node2</title>
<path fill="none" stroke="midnightblue" d="M1934.59,-274.956C1863.19,-264.367 1676.08,-236.468 1669.91,-234 1648.28,-225.334 1648.62,-212.485 1626.91,-204 1610.95,-197.757 1382.46,-168.68 1280.93,-155.971"/>
<polygon fill="midnightblue" stroke="midnightblue" points="1281.29,-152.489 1270.93,-154.721 1280.42,-159.435 1281.29,-152.489"/>
</g>
<!-- Node30&#45;&gt;Node11 -->
<g id="edge47" class="edge"><title>Node30&#45;&gt;Node11</title>
<path fill="none" stroke="midnightblue" d="M1989.42,-275.365C2039.92,-266.993 2145.93,-241.111 2185.91,-168 2208.88,-126.007 2196.32,-66.7986 2187.77,-37.6377"/>
<polygon fill="midnightblue" stroke="midnightblue" points="2191.09,-36.533 2184.76,-28.0312 2184.41,-38.6199 2191.09,-36.533"/>
</g>
<!-- Node30&#45;&gt;Node15 -->
<g id="edge44" class="edge"><title>Node30&#45;&gt;Node15</title>
<path fill="none" stroke="midnightblue" d="M1958.72,-270.796C1955.39,-262.254 1950.07,-248.611 1945.78,-237.614"/>
<polygon fill="midnightblue" stroke="midnightblue" points="1948.98,-236.18 1942.09,-228.134 1942.46,-238.722 1948.98,-236.18"/>
</g>
<!-- Node30&#45;&gt;Node17 -->
<g id="edge48" class="edge"><title>Node30&#45;&gt;Node17</title>
<path fill="none" stroke="midnightblue" d="M1966.56,-270.954C1971.48,-262.137 1979.18,-247.452 1983.91,-234 1991.66,-212 1997.02,-185.62 2000.03,-168.368"/>
<polygon fill="midnightblue" stroke="midnightblue" points="2003.56,-168.485 2001.73,-158.048 1996.65,-167.344 2003.56,-168.485"/>
</g>
<!-- Node30&#45;&gt;Node25 -->
<g id="edge46" class="edge"><title>Node30&#45;&gt;Node25</title>
<path fill="none" stroke="midnightblue" d="M1934.72,-278.44C1840.12,-276.243 1516.69,-266.661 1251.91,-234 1239.76,-232.501 1226.62,-230.291 1214.73,-228.068"/>
<polygon fill="midnightblue" stroke="midnightblue" points="1215.14,-224.584 1204.66,-226.129 1213.82,-231.458 1215.14,-224.584"/>
</g>
<!-- Node30&#45;&gt;Node27 -->
<g id="edge49" class="edge"><title>Node30&#45;&gt;Node27</title>
<path fill="none" stroke="midnightblue" d="M1989.48,-276.21C2049.77,-269.962 2197.82,-253.827 2320.91,-234 2334.58,-231.799 2349.63,-228.9 2362.34,-226.311"/>
<polygon fill="midnightblue" stroke="midnightblue" points="2363.31,-229.686 2372.39,-224.232 2361.89,-222.831 2363.31,-229.686"/>
</g>
<!-- Node30&#45;&gt;Node31 -->
<g id="edge38" class="edge"><title>Node30&#45;&gt;Node31</title>
<path fill="none" stroke="midnightblue" d="M1986.3,-270.934C2006.22,-263.513 2034.35,-251.07 2054.91,-234 2077.97,-214.864 2097.1,-185.42 2107.76,-166.957"/>
<polygon fill="midnightblue" stroke="midnightblue" points="2110.84,-168.626 2112.66,-158.19 2104.73,-165.21 2110.84,-168.626"/>
</g>
<!-- Node32 -->
<g id="node32" class="node"><title>Node32</title>
<polygon fill="none" stroke="#bfbfbf" points="1678.9,-210 1678.9,-228 1744.93,-228 1744.93,-210 1678.9,-210"/>
<text text-anchor="middle" x="1711.91" y="-216" font-family="Helvetica,sans-Serif" font-size="10.00">H5Ipublic.h</text>
</g>
<!-- Node30&#45;&gt;Node32 -->
<g id="edge45" class="edge"><title>Node30&#45;&gt;Node32</title>
<path fill="none" stroke="midnightblue" d="M1934.43,-274.041C1894.4,-266.597 1817.88,-251.524 1753.91,-234 1750.73,-233.127 1747.43,-232.152 1744.14,-231.134"/>
<polygon fill="midnightblue" stroke="midnightblue" points="1745.04,-227.747 1734.45,-228.011 1742.89,-234.409 1745.04,-227.747"/>
</g>
<!-- Node33 -->
<g id="node33" class="node"><title>Node33</title>
<polygon fill="none" stroke="#bfbfbf" points="1762.54,-210 1762.54,-228 1847.29,-228 1847.29,-210 1762.54,-210"/>
<text text-anchor="middle" x="1804.91" y="-216" font-family="Helvetica,sans-Serif" font-size="10.00">boost/utility.hpp</text>
</g>
<!-- Node30&#45;&gt;Node33 -->
<g id="edge50" class="edge"><title>Node30&#45;&gt;Node33</title>
<path fill="none" stroke="midnightblue" d="M1940.41,-270.92C1913.36,-260.753 1866.71,-243.223 1835.83,-231.619"/>
<polygon fill="midnightblue" stroke="midnightblue" points="1837,-228.318 1826.41,-228.077 1834.54,-234.871 1837,-228.318"/>
</g>
<!-- Node31&#45;&gt;Node6 -->
<g id="edge43" class="edge"><title>Node31&#45;&gt;Node6</title>
<path fill="none" stroke="midnightblue" d="M2091.95,-139.893C2057.76,-128.788 1996.2,-108.798 1957.56,-96.2501"/>
<polygon fill="midnightblue" stroke="midnightblue" points="1958.38,-92.8359 1947.78,-93.0761 1956.21,-99.4936 1958.38,-92.8359"/>
</g>
<!-- Node31&#45;&gt;Node7 -->
<g id="edge39" class="edge"><title>Node31&#45;&gt;Node7</title>
<path fill="none" stroke="midnightblue" d="M2116.91,-139.993C2116.91,-119.79 2116.91,-66.3451 2116.91,-38.0937"/>
<polygon fill="midnightblue" stroke="midnightblue" points="2120.42,-38.0039 2116.91,-28.0039 2113.42,-38.004 2120.42,-38.0039"/>
</g>
<!-- Node31&#45;&gt;Node8 -->
<g id="edge40" class="edge"><title>Node31&#45;&gt;Node8</title>
<path fill="none" stroke="midnightblue" d="M2084.44,-139.981C2071,-136.748 2055.23,-133.065 2040.91,-130 1957.73,-112.193 1935.39,-114.867 1852.91,-94 1772.93,-73.7619 1752.38,-68.99 1675.91,-38 1671.91,-36.3761 1667.73,-34.4856 1663.71,-32.5524"/>
<polygon fill="midnightblue" stroke="midnightblue" points="1665.25,-29.4072 1654.74,-28.0689 1662.12,-35.6692 1665.25,-29.4072"/>
</g>
<!-- Node31&#45;&gt;Node9 -->
<g id="edge41" class="edge"><title>Node31&#45;&gt;Node9</title>
<path fill="none" stroke="midnightblue" d="M2086,-139.952C2072.26,-136.563 2055.85,-132.772 2040.91,-130 1923.62,-108.227 1891.19,-120.675 1774.91,-94 1696.97,-76.1189 1679.85,-63.0892 1603.91,-38 1596.06,-35.4059 1587.58,-32.5847 1579.71,-29.9619"/>
<polygon fill="midnightblue" stroke="midnightblue" points="1580.76,-26.623 1570.16,-26.7779 1578.54,-33.2631 1580.76,-26.623"/>
</g>
<!-- Node31&#45;&gt;Node11 -->
<g id="edge42" class="edge"><title>Node31&#45;&gt;Node11</title>
<path fill="none" stroke="midnightblue" d="M2120.98,-139.993C2131.38,-119.52 2159.11,-64.914 2173.29,-36.9772"/>
<polygon fill="midnightblue" stroke="midnightblue" points="2176.44,-38.5049 2177.85,-28.0039 2170.2,-35.3355 2176.44,-38.5049"/>
</g>
<!-- Node34&#45;&gt;Node2 -->
<g id="edge54" class="edge"><title>Node34&#45;&gt;Node2</title>
<path fill="none" stroke="midnightblue" d="M2296.49,-278.062C2211.55,-275.021 1967.35,-263.847 1893.91,-234 1873.98,-225.898 1875.96,-211.825 1855.91,-204 1757.92,-165.744 1488.61,-178.228 1383.91,-168 1349.36,-164.625 1310.47,-159.968 1280.81,-156.236"/>
<polygon fill="midnightblue" stroke="midnightblue" points="1281.08,-152.743 1270.72,-154.959 1280.2,-159.688 1281.08,-152.743"/>
</g>
<!-- Node34&#45;&gt;Node6 -->
<g id="edge55" class="edge"><title>Node34&#45;&gt;Node6</title>
<path fill="none" stroke="midnightblue" d="M2329.16,-270.931C2338.48,-246.233 2362.48,-170.873 2325.91,-130 2304.21,-105.736 2103.47,-93.0422 1993.75,-87.8663"/>
<polygon fill="midnightblue" stroke="midnightblue" points="1993.9,-84.3696 1983.75,-87.4034 1993.58,-91.3621 1993.9,-84.3696"/>
</g>
<!-- Node34&#45;&gt;Node15 -->
<g id="edge56" class="edge"><title>Node34&#45;&gt;Node15</title>
<path fill="none" stroke="midnightblue" d="M2296.51,-274.517C2229.74,-264.338 2066.26,-239.415 1985.55,-227.11"/>
<polygon fill="midnightblue" stroke="midnightblue" points="1985.61,-223.578 1975.2,-225.531 1984.55,-230.498 1985.61,-223.578"/>
</g>
<!-- Node34&#45;&gt;Node27 -->
<g id="edge57" class="edge"><title>Node34&#45;&gt;Node27</title>
<path fill="none" stroke="midnightblue" d="M2335.09,-270.796C2345.44,-261.55 2362.47,-246.326 2375.19,-234.951"/>
<polygon fill="midnightblue" stroke="midnightblue" points="2377.69,-237.408 2382.82,-228.134 2373.03,-232.189 2377.69,-237.408"/>
</g>
<!-- Node36&#45;&gt;Node29 -->
<g id="edge127" class="edge"><title>Node36&#45;&gt;Node29</title>
<path fill="none" stroke="midnightblue" d="M1849.16,-685.268C1906.6,-694.443 2060.25,-720.713 2141.71,-735.169"/>
<polygon fill="midnightblue" stroke="midnightblue" points="2141.29,-738.65 2151.75,-736.957 2142.52,-731.758 2141.29,-738.65"/>
</g>
<!-- Node36&#45;&gt;Node30 -->
<g id="edge125" class="edge"><title>Node36&#45;&gt;Node30</title>
<path fill="none" stroke="midnightblue" d="M1809.8,-671.768C1780.41,-656.519 1721.46,-620.746 1699.91,-570 1686.72,-538.908 1692,-526.837 1699.91,-494 1719.57,-412.455 1720.38,-378.351 1785.91,-326 1825.78,-294.154 1885.55,-284.587 1924.15,-281.859"/>
<polygon fill="midnightblue" stroke="midnightblue" points="1924.66,-285.335 1934.44,-281.258 1924.25,-278.347 1924.66,-285.335"/>
</g>
<!-- Node36&#45;&gt;Node31 -->
<g id="edge126" class="edge"><title>Node36&#45;&gt;Node31</title>
<path fill="none" stroke="midnightblue" d="M1849.07,-679.131C1890.99,-676.557 1983.48,-666.362 2047.91,-626 2130.04,-574.554 2138.67,-542.049 2186.91,-458 2243.87,-358.763 2301.47,-292.479 2228.91,-204 2211.55,-182.822 2183.89,-169.372 2160.4,-161.192"/>
<polygon fill="midnightblue" stroke="midnightblue" points="2161.22,-157.779 2150.63,-158.002 2159.05,-164.433 2161.22,-157.779"/>
</g>
<!-- Node37 -->
<g id="node37" class="node"><title>Node37</title>
<g id="a_node37"><a xlink:href="ConstAttributes_8h.html" target="_top" xlink:title="Handle read/write of Model data from/to files. ">
<polygon fill="none" stroke="black" points="1794.9,-327 1794.9,-345 1940.93,-345 1940.93,-327 1794.9,-327"/>
<text text-anchor="middle" x="1867.91" y="-333" font-family="Helvetica,sans-Serif" font-size="10.00">RMF/HDF5/ConstAttributes.h</text>
</a>
</g>
</g>
<!-- Node36&#45;&gt;Node37 -->
<g id="edge60" class="edge"><title>Node36&#45;&gt;Node37</title>
<path fill="none" stroke="midnightblue" d="M1838.63,-671.833C1865.83,-655.474 1928.91,-615.527 1928.91,-561 1928.91,-561 1928.91,-561 1928.91,-503 1928.91,-444.525 1891.58,-382.925 1874.95,-353.951"/>
<polygon fill="midnightblue" stroke="midnightblue" points="1877.95,-352.15 1870.02,-345.121 1871.84,-355.56 1877.95,-352.15"/>
</g>
<!-- Node38 -->
<g id="node38" class="node"><title>Node38</title>
<g id="a_node38"><a xlink:href="ConstDataSetD_8h.html" target="_top" xlink:title="Handle read/write of Model data from/to files. ">
<polygon fill="none" stroke="red" points="1439.34,-383 1439.34,-401 1586.49,-401 1586.49,-383 1439.34,-383"/>
<text text-anchor="middle" x="1512.91" y="-389" font-family="Helvetica,sans-Serif" font-size="10.00">RMF/HDF5/ConstDataSetD.h</text>
</a>
</g>
</g>
<!-- Node36&#45;&gt;Node38 -->
<g id="edge66" class="edge"><title>Node36&#45;&gt;Node38</title>
<path fill="none" stroke="midnightblue" d="M1804.81,-680.215C1764.61,-679.405 1679.09,-671.972 1628.91,-626 1606.21,-605.197 1604.91,-591.795 1604.91,-561 1604.91,-561 1604.91,-561 1604.91,-503 1604.91,-460.054 1563.14,-425.04 1535.89,-406.767"/>
<polygon fill="midnightblue" stroke="midnightblue" points="1537.59,-403.698 1527.29,-401.225 1533.8,-409.583 1537.59,-403.698"/>
</g>
<!-- Node40 -->
<g id="node40" class="node"><title>Node40</title>
<g id="a_node40"><a xlink:href="Object_8h.html" target="_top" xlink:title="Handle read/write of Model data from/to files. ">
<polygon fill="none" stroke="red" points="1959.29,-327 1959.29,-345 2012.54,-345 2012.54,-327 1959.29,-327"/>
<text text-anchor="middle" x="1985.91" y="-333" font-family="Helvetica,sans-Serif" font-size="10.00">Object.h</text>
</a>
</g>
</g>
<!-- Node36&#45;&gt;Node40 -->
<g id="edge124" class="edge"><title>Node36&#45;&gt;Node40</title>
<path fill="none" stroke="midnightblue" d="M1848.83,-673.935C1892.44,-661.6 1984.91,-628.82 1984.91,-561 1984.91,-561 1984.91,-561 1984.91,-503 1984.91,-449.273 1980.68,-385.877 1981.84,-355.305"/>
<polygon fill="midnightblue" stroke="midnightblue" points="1985.33,-355.511 1982.57,-345.284 1978.35,-355.005 1985.33,-355.511"/>
</g>
<!-- Node41 -->
<g id="node41" class="node"><title>Node41</title>
<g id="a_node41"><a xlink:href="DataSetIndexD_8h.html" target="_top" xlink:title="Handle read/write of Model data from/to files. ">
<polygon fill="none" stroke="red" points="1416.84,-210 1416.84,-228 1508.99,-228 1508.99,-210 1416.84,-210"/>
<text text-anchor="middle" x="1462.91" y="-216" font-family="Helvetica,sans-Serif" font-size="10.00">DataSetIndexD.h</text>
</a>
</g>
</g>
<!-- Node36&#45;&gt;Node41 -->
<g id="edge114" class="edge"><title>Node36&#45;&gt;Node41</title>
<path fill="none" stroke="midnightblue" d="M1804.72,-676.401C1755.78,-667.068 1642.91,-637.276 1642.91,-561 1642.91,-561 1642.91,-561 1642.91,-503 1642.91,-398.897 1731.55,-351.608 1666.91,-270 1623.54,-215.238 1581.61,-251.249 1513.91,-234 1509.81,-232.954 1505.53,-231.831 1501.27,-230.692"/>
<polygon fill="midnightblue" stroke="midnightblue" points="1502.02,-227.27 1491.46,-228.034 1500.2,-234.027 1502.02,-227.27"/>
</g>
<!-- Node42 -->
<g id="node42" class="node"><title>Node42</title>
<g id="a_node42"><a xlink:href="DataSetCreationPropertiesD_8h.html" target="_top" xlink:title="Handle read/write of Model data from/to files. ">
<polygon fill="none" stroke="black" points="1065.38,-327 1065.38,-345 1216.45,-345 1216.45,-327 1065.38,-327"/>
<text text-anchor="middle" x="1140.91" y="-333" font-family="Helvetica,sans-Serif" font-size="10.00">DataSetCreationPropertiesD.h</text>
</a>
</g>
</g>
<!-- Node36&#45;&gt;Node42 -->
<g id="edge112" class="edge"><title>Node36&#45;&gt;Node42</title>
<path fill="none" stroke="midnightblue" d="M1804.82,-679.398C1699.93,-676.375 1251.68,-661.57 1116.91,-626 1051.36,-608.699 978.915,-628.796 978.915,-561 978.915,-561 978.915,-561 978.915,-503 978.915,-426.871 1067.26,-372.652 1113.47,-349.501"/>
<polygon fill="midnightblue" stroke="midnightblue" points="1115.19,-352.559 1122.65,-345.035 1112.12,-346.265 1115.19,-352.559"/>
</g>
<!-- Node43 -->
<g id="node43" class="node"><title>Node43</title>
<g id="a_node43"><a xlink:href="DataSetAccessPropertiesD_8h.html" target="_top" xlink:title="Handle read/write of Model data from/to files. ">
<polygon fill="none" stroke="red" points="1071.16,-271 1071.16,-289 1216.67,-289 1216.67,-271 1071.16,-271"/>
<text text-anchor="middle" x="1143.91" y="-277" font-family="Helvetica,sans-Serif" font-size="10.00">DataSetAccessPropertiesD.h</text>
</a>
</g>
</g>
<!-- Node36&#45;&gt;Node43 -->
<g id="edge111" class="edge"><title>Node36&#45;&gt;Node43</title>
<path fill="none" stroke="midnightblue" d="M1804.93,-678.273C1747.91,-673.462 1590.85,-658.102 1463.91,-626 1322.3,-590.185 1267.3,-607.322 1154.91,-514 1082.27,-453.671 1006.63,-406.553 1055.91,-326 1065.65,-310.093 1082.97,-299.582 1099.69,-292.753"/>
<polygon fill="midnightblue" stroke="midnightblue" points="1101.25,-295.908 1109.41,-289.144 1098.81,-289.346 1101.25,-295.908"/>
</g>
<!-- Node45 -->
<g id="node45" class="node"><title>Node45</title>
<g id="a_node45"><a xlink:href="ConstFile_8h.html" target="_top" xlink:title="Handle read/write of Model data from/to files. ">
<polygon fill="none" stroke="black" points="1425.96,-551 1425.96,-569 1545.87,-569 1545.87,-551 1425.96,-551"/>
<text text-anchor="middle" x="1485.91" y="-557" font-family="Helvetica,sans-Serif" font-size="10.00">RMF/HDF5/ConstFile.h</text>
</a>
</g>
</g>
<!-- Node36&#45;&gt;Node45 -->
<g id="edge91" class="edge"><title>Node36&#45;&gt;Node45</title>
<path fill="none" stroke="midnightblue" d="M1804.52,-680.181C1733.75,-680.231 1517.03,-676.212 1473.91,-626 1462.62,-612.843 1468.84,-592.568 1475.84,-578.164"/>
<polygon fill="midnightblue" stroke="midnightblue" points="1478.95,-579.756 1480.6,-569.29 1472.78,-576.448 1478.95,-579.756"/>
</g>
<!-- Node46 -->
<g id="node46" class="node"><title>Node46</title>
<g id="a_node46"><a xlink:href="ConstGroup_8h.html" target="_top" xlink:title="Handle read/write of Model data from/to files. ">
<polygon fill="none" stroke="black" points="1708.79,-495 1708.79,-513 1787.04,-513 1787.04,-495 1708.79,-495"/>
<text text-anchor="middle" x="1747.91" y="-501" font-family="Helvetica,sans-Serif" font-size="10.00">ConstGroup.h</text>
</a>
</g>
</g>
<!-- Node36&#45;&gt;Node46 -->
<g id="edge110" class="edge"><title>Node36&#45;&gt;Node46</title>
<path fill="none" stroke="midnightblue" d="M1823.43,-671.734C1814.7,-651.081 1791.05,-595.613 1769.91,-550 1765.65,-540.801 1760.71,-530.647 1756.59,-522.316"/>
<polygon fill="midnightblue" stroke="midnightblue" points="1759.66,-520.637 1752.07,-513.245 1753.4,-523.756 1759.66,-520.637"/>
</g>
<!-- Node47 -->
<g id="node47" class="node"><title>Node47</title>
<g id="a_node47"><a xlink:href="DataSetD_8h.html" target="_top" xlink:title="Handle read/write of Model data from/to files. ">
<polygon fill="none" stroke="black" points="1833.07,-439 1833.07,-457 1900.76,-457 1900.76,-439 1833.07,-439"/>
<text text-anchor="middle" x="1866.91" y="-445" font-family="Helvetica,sans-Serif" font-size="10.00">DataSetD.h</text>
</a>
</g>
</g>
<!-- Node36&#45;&gt;Node47 -->
<g id="edge113" class="edge"><title>Node36&#45;&gt;Node47</title>
<path fill="none" stroke="midnightblue" d="M1828.34,-671.779C1834.07,-638.663 1855.56,-514.573 1863.73,-467.376"/>
<polygon fill="midnightblue" stroke="midnightblue" points="1867.21,-467.815 1865.47,-457.364 1860.31,-466.62 1867.21,-467.815"/>
</g>
<!-- Node48 -->
<g id="node48" class="node"><title>Node48</title>
<g id="a_node48"><a xlink:href="MutableAttributes_8h.html" target="_top" xlink:title="Handle read/write of Model data from/to files. ">
<polygon fill="none" stroke="black" points="2033.84,-383 2033.84,-401 2135.99,-401 2135.99,-383 2033.84,-383"/>
<text text-anchor="middle" x="2084.91" y="-389" font-family="Helvetica,sans-Serif" font-size="10.00">MutableAttributes.h</text>
</a>
</g>
</g>
<!-- Node36&#45;&gt;Node48 -->
<g id="edge123" class="edge"><title>Node36&#45;&gt;Node48</title>
<path fill="none" stroke="midnightblue" d="M1849.12,-680.073C1887.13,-678.62 1963.87,-669.735 2007.91,-626 2068.58,-565.765 2075.8,-454.674 2080.66,-411.158"/>
<polygon fill="midnightblue" stroke="midnightblue" points="2084.14,-411.561 2081.95,-401.195 2077.2,-410.666 2084.14,-411.561"/>
</g>
<!-- Node49 -->
<g id="node49" class="node"><title>Node49</title>
<g id="a_node49"><a xlink:href="File_8h.html" target="_top" xlink:title="Handle read/write of Model data from/to files. ">
<polygon fill="none" stroke="black" points="1483.02,-607 1483.02,-625 1576.81,-625 1576.81,-607 1483.02,-607"/>
<text text-anchor="middle" x="1529.91" y="-613" font-family="Helvetica,sans-Serif" font-size="10.00">RMF/HDF5/File.h</text>
</a>
</g>
</g>
<!-- Node36&#45;&gt;Node49 -->
<g id="edge115" class="edge"><title>Node36&#45;&gt;Node49</title>
<path fill="none" stroke="midnightblue" d="M1804.59,-675.265C1756.64,-665.092 1642.86,-640.959 1577.78,-627.154"/>
<polygon fill="midnightblue" stroke="midnightblue" points="1578.28,-623.682 1567.77,-625.031 1576.83,-630.53 1578.28,-623.682"/>
</g>
<!-- Node50 -->
<g id="node50" class="node"><title>Node50</title>
<g id="a_node50"><a xlink:href="Group_8h.html" target="_top" xlink:title="Handle read/write of Model data from/to files. ">
<polygon fill="none" stroke="black" points="1708.85,-551 1708.85,-569 1760.98,-569 1760.98,-551 1708.85,-551"/>
<text text-anchor="middle" x="1734.91" y="-557" font-family="Helvetica,sans-Serif" font-size="10.00">Group.h</text>
</a>
</g>
</g>
<!-- Node36&#45;&gt;Node50 -->
<g id="edge122" class="edge"><title>Node36&#45;&gt;Node50</title>
<path fill="none" stroke="midnightblue" d="M1817.84,-671.734C1806.95,-661.565 1788.46,-643.491 1774.91,-626 1763.15,-610.808 1751.87,-591.967 1744.31,-578.488"/>
<polygon fill="midnightblue" stroke="midnightblue" points="1747.19,-576.455 1739.31,-569.375 1741.05,-579.825 1747.19,-576.455"/>
</g>
<!-- Node37&#45;&gt;Node2 -->
<g id="edge61" class="edge"><title>Node37&#45;&gt;Node2</title>
<path fill="none" stroke="midnightblue" d="M1855.33,-326.9C1833.38,-313.142 1786.31,-285.223 1742.91,-270 1665.11,-242.704 1636.79,-266.279 1560.91,-234 1539.47,-224.878 1539.39,-213.036 1517.91,-204 1438.87,-170.749 1338.89,-157.841 1280.8,-152.925"/>
<polygon fill="midnightblue" stroke="midnightblue" points="1281.05,-149.433 1270.8,-152.123 1280.49,-156.411 1281.05,-149.433"/>
</g>
<!-- Node37&#45;&gt;Node29 -->
<g id="edge63" class="edge"><title>Node37&#45;&gt;Node29</title>
<path fill="none" stroke="midnightblue" d="M1939.6,-345.039C2016.22,-354.196 2128.9,-369.506 2144.91,-382 2169.72,-401.349 2172.91,-415.545 2172.91,-447 2172.91,-561 2172.91,-561 2172.91,-561 2172.91,-606.381 2161.26,-616.742 2157.91,-662 2156.67,-678.843 2152.32,-684.063 2157.91,-700 2161.84,-711.187 2169.84,-721.66 2177.31,-729.682"/>
<polygon fill="midnightblue" stroke="midnightblue" points="2174.89,-732.21 2184.43,-736.823 2179.85,-727.269 2174.89,-732.21"/>
</g>
<!-- Node37&#45;&gt;Node30 -->
<g id="edge62" class="edge"><title>Node37&#45;&gt;Node30</title>
<path fill="none" stroke="midnightblue" d="M1882.19,-326.799C1897.19,-318.185 1921,-304.504 1938.7,-294.335"/>
<polygon fill="midnightblue" stroke="midnightblue" points="1940.88,-297.118 1947.81,-289.102 1937.4,-291.048 1940.88,-297.118"/>
</g>
<!-- Node37&#45;&gt;Node31 -->
<g id="edge64" class="edge"><title>Node37&#45;&gt;Node31</title>
<path fill="none" stroke="midnightblue" d="M1908.93,-326.928C1957.78,-315.131 2038.35,-288.389 2082.91,-234 2098.93,-214.449 2108.24,-186.355 2112.95,-168.14"/>
<polygon fill="midnightblue" stroke="midnightblue" points="2116.39,-168.779 2115.3,-158.24 2109.58,-167.158 2116.39,-168.779"/>
</g>
<!-- Node37&#45;&gt;Node36 -->
<g id="edge65" class="edge"><title>Node37&#45;&gt;Node36</title>
<path fill="none" stroke="midnightblue" d="M1878.23,-345.121C1900.26,-368.355 1946.91,-437.631 1946.91,-503 1946.91,-561 1946.91,-561 1946.91,-561 1946.91,-611.184 1893.48,-649.018 1857.75,-667.48"/>
<polygon fill="midnightblue" stroke="midnightblue" points="1856.07,-664.404 1848.65,-671.96 1859.16,-670.684 1856.07,-664.404"/>
</g>
<!-- Node38&#45;&gt;Node2 -->
<g id="edge67" class="edge"><title>Node38&#45;&gt;Node2</title>
<path fill="none" stroke="midnightblue" d="M1467.57,-382.972C1439.78,-376.415 1404.55,-365.029 1377.91,-346 1343.34,-321.3 1352.33,-297.468 1319.91,-270 1293.82,-247.894 1272.7,-261.157 1251.91,-234 1237.39,-215.014 1233.59,-186.974 1232.79,-168.598"/>
<polygon fill="midnightblue" stroke="midnightblue" points="1236.29,-168.279 1232.62,-158.341 1229.29,-168.4 1236.29,-168.279"/>
</g>
<!-- Node38&#45;&gt;Node25 -->
<g id="edge89" class="edge"><title>Node38&#45;&gt;Node25</title>
<path fill="none" stroke="midnightblue" d="M1439.1,-383.334C1407.71,-377.169 1372.15,-366.049 1344.91,-346 1312.74,-322.315 1327.48,-295.727 1296.91,-270 1283.18,-258.443 1240.35,-242.119 1209.55,-231.307"/>
<polygon fill="midnightblue" stroke="midnightblue" points="1210.62,-227.972 1200.02,-228.003 1208.32,-234.586 1210.62,-227.972"/>
</g>
<!-- Node38&#45;&gt;Node29 -->
<g id="edge71" class="edge"><title>Node38&#45;&gt;Node29</title>
<path fill="none" stroke="midnightblue" d="M1439.29,-396.453C1349.36,-401.665 1203.23,-413.639 1154.91,-438 1119.27,-455.975 1092.91,-463.077 1092.91,-503 1092.91,-617 1092.91,-617 1092.91,-617 1092.91,-663.045 1114.21,-678.483 1154.91,-700 1241.2,-745.61 1922.95,-746.276 2132.71,-745.382"/>
<polygon fill="midnightblue" stroke="midnightblue" points="2132.94,-748.881 2142.93,-745.335 2132.91,-741.881 2132.94,-748.881"/>
</g>
<!-- Node38&#45;&gt;Node31 -->
<g id="edge88" class="edge"><title>Node38&#45;&gt;Node31</title>
<path fill="none" stroke="midnightblue" d="M1545.94,-382.943C1624.28,-363.206 1826.58,-308.56 1983.91,-234 2026.78,-213.689 2072.69,-182.277 2097.79,-164.173"/>
<polygon fill="midnightblue" stroke="midnightblue" points="2100.04,-166.87 2106.06,-158.151 2095.91,-161.213 2100.04,-166.87"/>
</g>
<!-- Node38&#45;&gt;Node37 -->
<g id="edge72" class="edge"><title>Node38&#45;&gt;Node37</title>
<path fill="none" stroke="midnightblue" d="M1565.68,-382.974C1629.52,-373.263 1736.89,-356.93 1804.99,-346.572"/>
<polygon fill="midnightblue" stroke="midnightblue" points="1805.79,-349.99 1815.15,-345.026 1804.74,-343.07 1805.79,-349.99"/>
</g>
<!-- Node39 -->
<g id="node39" class="node"><title>Node39</title>
<g id="a_node39"><a xlink:href="log_8h.html" target="_top" xlink:title="Functions and macros for logging. ">
<polygon fill="none" stroke="black" points="1260.85,-210 1260.85,-228 1322.98,-228 1322.98,-210 1260.85,-210"/>
<text text-anchor="middle" x="1291.91" y="-216" font-family="Helvetica,sans-Serif" font-size="10.00">RMF/log.h</text>
</a>
</g>
</g>
<!-- Node38&#45;&gt;Node39 -->
<g id="edge68" class="edge"><title>Node38&#45;&gt;Node39</title>
<path fill="none" stroke="midnightblue" d="M1516.73,-382.641C1522.11,-369.473 1530.11,-343.59 1518.91,-326 1497,-291.577 1385.25,-250.667 1327.14,-231.274"/>
<polygon fill="midnightblue" stroke="midnightblue" points="1328.21,-227.942 1317.62,-228.129 1326.02,-234.589 1328.21,-227.942"/>
</g>
<!-- Node38&#45;&gt;Node40 -->
<g id="edge73" class="edge"><title>Node38&#45;&gt;Node40</title>
<path fill="none" stroke="midnightblue" d="M1586.81,-386.611C1671.93,-380.831 1816.09,-368.828 1949.29,-345.856"/>
<polygon fill="midnightblue" stroke="midnightblue" points="1950.02,-349.281 1959.27,-344.11 1948.82,-342.386 1950.02,-349.281"/>
</g>
<!-- Node38&#45;&gt;Node41 -->
<g id="edge79" class="edge"><title>Node38&#45;&gt;Node41</title>
<path fill="none" stroke="midnightblue" d="M1523.8,-382.742C1533.53,-374.618 1547.12,-361.242 1552.91,-346 1564.92,-314.427 1570.04,-299.112 1552.91,-270 1542.03,-251.503 1521.56,-239.358 1502.89,-231.675"/>
<polygon fill="midnightblue" stroke="midnightblue" points="1503.94,-228.33 1493.35,-228.054 1501.45,-234.875 1503.94,-228.33"/>
</g>
<!-- Node38&#45;&gt;Node42 -->
<g id="edge83" class="edge"><title>Node38&#45;&gt;Node42</title>
<path fill="none" stroke="midnightblue" d="M1457.62,-382.974C1390.59,-373.243 1277.75,-356.863 1206.42,-346.508"/>
<polygon fill="midnightblue" stroke="midnightblue" points="1206.6,-342.999 1196.21,-345.026 1205.6,-349.926 1206.6,-342.999"/>
</g>
<!-- Node44 -->
<g id="node44" class="node"><title>Node44</title>
<polygon fill="none" stroke="#bfbfbf" points="1387.27,-327 1387.27,-345 1510.56,-345 1510.56,-327 1387.27,-327"/>
<text text-anchor="middle" x="1448.91" y="-333" font-family="Helvetica,sans-Serif" font-size="10.00">boost/make_shared.hpp</text>
</g>
<!-- Node38&#45;&gt;Node44 -->
<g id="edge90" class="edge"><title>Node38&#45;&gt;Node44</title>
<path fill="none" stroke="midnightblue" d="M1503.19,-382.799C1493.52,-374.631 1478.44,-361.908 1466.63,-351.943"/>
<polygon fill="midnightblue" stroke="midnightblue" points="1468.63,-349.052 1458.73,-345.279 1464.11,-354.402 1468.63,-349.052"/>
</g>
<!-- Node39&#45;&gt;Node2 -->
<g id="edge70" class="edge"><title>Node39&#45;&gt;Node2</title>
<path fill="none" stroke="midnightblue" d="M1284.92,-209.932C1275.51,-199.095 1258.6,-179.602 1246.62,-165.793"/>
<polygon fill="midnightblue" stroke="midnightblue" points="1249.1,-163.317 1239.91,-158.057 1243.82,-167.904 1249.1,-163.317"/>
</g>
<!-- Node39&#45;&gt;Node9 -->
<g id="edge69" class="edge"><title>Node39&#45;&gt;Node9</title>
<path fill="none" stroke="midnightblue" d="M1300.24,-209.968C1324.02,-187.216 1394.78,-120.945 1459.91,-74 1481.31,-58.576 1507.29,-43.3282 1525.83,-32.9895"/>
<polygon fill="midnightblue" stroke="midnightblue" points="1527.71,-35.9485 1534.78,-28.0556 1524.33,-29.8182 1527.71,-35.9485"/>
</g>
<!-- Node40&#45;&gt;Node2 -->
<g id="edge74" class="edge"><title>Node40&#45;&gt;Node2</title>
<path fill="none" stroke="midnightblue" d="M1963.29,-326.964C1925.61,-313.787 1847.48,-287.324 1779.91,-270 1700.46,-249.629 1674.71,-265.347 1598.91,-234 1576.7,-224.813 1576.26,-212.856 1553.91,-204 1461.85,-167.512 1345.41,-155.675 1281.11,-151.838"/>
<polygon fill="midnightblue" stroke="midnightblue" points="1281.04,-148.329 1270.86,-151.268 1280.65,-155.318 1281.04,-148.329"/>
</g>
<!-- Node40&#45;&gt;Node29 -->
<g id="edge75" class="edge"><title>Node40&#45;&gt;Node29</title>
<path fill="none" stroke="midnightblue" d="M2012.89,-339.796C2061.55,-345.351 2161.33,-359.242 2186.91,-382 2249.19,-437.403 2248.91,-475.647 2248.91,-559 2248.91,-617 2248.91,-617 2248.91,-617 2248.91,-654.843 2246.37,-665.922 2229.91,-700 2224.75,-710.699 2216.63,-721.155 2209.41,-729.291"/>
<polygon fill="midnightblue" stroke="midnightblue" points="2206.63,-727.141 2202.37,-736.843 2211.75,-731.914 2206.63,-727.141"/>
</g>
<!-- Node40&#45;&gt;Node30 -->
<g id="edge76" class="edge"><title>Node40&#45;&gt;Node30</title>
<path fill="none" stroke="midnightblue" d="M1982.16,-326.562C1978.83,-319.069 1973.86,-307.878 1969.68,-298.462"/>
<polygon fill="midnightblue" stroke="midnightblue" points="1972.82,-296.918 1965.56,-289.201 1966.42,-299.761 1972.82,-296.918"/>
</g>
<!-- Node40&#45;&gt;Node31 -->
<g id="edge77" class="edge"><title>Node40&#45;&gt;Node31</title>
<path fill="none" stroke="midnightblue" d="M2012.64,-335.472C2046.5,-334.444 2103.71,-326.925 2130.91,-290 2157.88,-253.393 2138.23,-196.004 2125.5,-167.408"/>
<polygon fill="midnightblue" stroke="midnightblue" points="2128.63,-165.841 2121.22,-158.268 2122.29,-168.808 2128.63,-165.841"/>
</g>
<!-- Node40&#45;&gt;Node36 -->
<g id="edge78" class="edge"><title>Node40&#45;&gt;Node36</title>
<path fill="none" stroke="midnightblue" d="M1990.63,-345.284C1997.53,-369.522 2002.91,-442.409 2002.91,-503 2002.91,-561 2002.91,-561 2002.91,-561 2002.91,-629.111 1909.64,-661.882 1858.75,-674.093"/>
<polygon fill="midnightblue" stroke="midnightblue" points="1857.86,-670.706 1848.88,-676.329 1859.41,-677.533 1857.86,-670.706"/>
</g>
<!-- Node41&#45;&gt;Node2 -->
<g id="edge80" class="edge"><title>Node41&#45;&gt;Node2</title>
<path fill="none" stroke="midnightblue" d="M1435.63,-209.932C1394.39,-197.74 1316.1,-174.593 1269.81,-160.908"/>
<polygon fill="midnightblue" stroke="midnightblue" points="1270.75,-157.536 1260.17,-158.057 1268.76,-164.249 1270.75,-157.536"/>
</g>
<!-- Node41&#45;&gt;Node29 -->
<g id="edge82" class="edge"><title>Node41&#45;&gt;Node29</title>
<path fill="none" stroke="midnightblue" d="M1477.2,-228.159C1520.86,-254.097 1646.48,-336.782 1594.91,-402 1474.23,-554.638 1168.91,-308.418 1168.91,-503 1168.91,-617 1168.91,-617 1168.91,-617 1168.91,-714.754 1912.47,-738.845 2132.98,-743.84"/>
<polygon fill="midnightblue" stroke="midnightblue" points="2133.01,-747.341 2143.09,-744.063 2133.16,-740.343 2133.01,-747.341"/>
</g>
<!-- Node41&#45;&gt;Node31 -->
<g id="edge81" class="edge"><title>Node41&#45;&gt;Node31</title>
<path fill="none" stroke="midnightblue" d="M1509.16,-214.878C1627.39,-206.755 1938.61,-184.449 2040.91,-168 2052.93,-166.069 2065.85,-163.28 2077.58,-160.473"/>
<polygon fill="midnightblue" stroke="midnightblue" points="2078.65,-163.814 2087.52,-158.022 2076.97,-157.017 2078.65,-163.814"/>
</g>
<!-- Node42&#45;&gt;Node2 -->
<g id="edge84" class="edge"><title>Node42&#45;&gt;Node2</title>
<path fill="none" stroke="midnightblue" d="M1112.62,-326.989C1094.64,-320.269 1072.78,-308.696 1061.91,-290 1057.45,-282.315 1059.77,-278.626 1061.91,-270 1069.93,-237.779 1072.19,-226.156 1096.91,-204 1121.79,-181.708 1157,-168.07 1185.35,-160.076"/>
<polygon fill="midnightblue" stroke="midnightblue" points="1186.31,-163.443 1195.07,-157.479 1184.51,-156.68 1186.31,-163.443"/>
</g>
<!-- Node42&#45;&gt;Node43 -->
<g id="edge85" class="edge"><title>Node42&#45;&gt;Node43</title>
<path fill="none" stroke="midnightblue" d="M1141.38,-326.562C1141.79,-319.308 1142.38,-308.588 1142.89,-299.369"/>
<polygon fill="midnightblue" stroke="midnightblue" points="1146.4,-299.38 1143.46,-289.201 1139.41,-298.992 1146.4,-299.38"/>
</g>
<!-- Node43&#45;&gt;Node2 -->
<g id="edge86" class="edge"><title>Node43&#45;&gt;Node2</title>
<path fill="none" stroke="midnightblue" d="M1133.89,-270.802C1117.84,-256.662 1089.66,-226.991 1104.91,-204 1122.69,-177.213 1156.65,-163.681 1185.13,-156.863"/>
<polygon fill="midnightblue" stroke="midnightblue" points="1185.91,-160.274 1194.94,-154.721 1184.42,-153.435 1185.91,-160.274"/>
</g>
<!-- Node43&#45;&gt;Node41 -->
<g id="edge87" class="edge"><title>Node43&#45;&gt;Node41</title>
<path fill="none" stroke="midnightblue" d="M1195.19,-270.98C1247.55,-262.58 1331.13,-248.598 1402.91,-234 1408.42,-232.881 1414.19,-231.632 1419.88,-230.354"/>
<polygon fill="midnightblue" stroke="midnightblue" points="1421.01,-233.685 1429.98,-228.042 1419.45,-226.862 1421.01,-233.685"/>
</g>
<!-- Node45&#45;&gt;Node2 -->
<g id="edge92" class="edge"><title>Node45&#45;&gt;Node2</title>
<path fill="none" stroke="midnightblue" d="M1425.86,-558.114C1365,-555.33 1269.2,-545.687 1192.91,-514 1144.99,-494.093 988.447,-353.63 984.915,-346 968.629,-310.822 899.885,-312.032 990.915,-204 1015.42,-174.922 1121.35,-160.261 1184.65,-153.966"/>
<polygon fill="midnightblue" stroke="midnightblue" points="1185.19,-157.431 1194.81,-152.992 1184.52,-150.463 1185.19,-157.431"/>
</g>
<!-- Node45&#45;&gt;Node46 -->
<g id="edge93" class="edge"><title>Node45&#45;&gt;Node46</title>
<path fill="none" stroke="midnightblue" d="M1524.86,-550.974C1571.13,-541.436 1648.4,-525.511 1698.75,-515.132"/>
<polygon fill="midnightblue" stroke="midnightblue" points="1699.67,-518.517 1708.76,-513.07 1698.26,-511.661 1699.67,-518.517"/>
</g>
<!-- Node46&#45;&gt;Node2 -->
<g id="edge94" class="edge"><title>Node46&#45;&gt;Node2</title>
<path fill="none" stroke="midnightblue" d="M1708.62,-497.591C1638.31,-486.811 1487.63,-458.652 1372.91,-402 1336.25,-383.893 1330.57,-373.061 1299.91,-346 1264.34,-314.595 1264.29,-296.488 1224.91,-270 1190.19,-246.643 1161.17,-268.79 1137.91,-234 1117.28,-203.133 1165.06,-176.48 1200.07,-161.885"/>
<polygon fill="midnightblue" stroke="midnightblue" points="1201.56,-165.06 1209.54,-158.095 1198.96,-158.562 1201.56,-165.06"/>
</g>
<!-- Node46&#45;&gt;Node37 -->
<g id="edge108" class="edge"><title>Node46&#45;&gt;Node37</title>
<path fill="none" stroke="midnightblue" d="M1748.88,-494.698C1751.73,-473.616 1761.76,-417.199 1790.91,-382 1802.86,-367.582 1820.69,-356.745 1836.19,-349.323"/>
<polygon fill="midnightblue" stroke="midnightblue" points="1837.79,-352.442 1845.47,-345.142 1834.91,-346.061 1837.79,-352.442"/>
</g>
<!-- Node46&#45;&gt;Node40 -->
<g id="edge95" class="edge"><title>Node46&#45;&gt;Node40</title>
<path fill="none" stroke="midnightblue" d="M1756.47,-494.977C1770.21,-482.269 1798.24,-457.005 1823.91,-438 1861.18,-410.421 1872.55,-406.489 1911.91,-382 1929.2,-371.249 1948.89,-359.287 1963.61,-350.4"/>
<polygon fill="midnightblue" stroke="midnightblue" points="1965.74,-353.207 1972.5,-345.048 1962.12,-347.211 1965.74,-353.207"/>
</g>
<!-- Node46&#45;&gt;Node42 -->
<g id="edge109" class="edge"><title>Node46&#45;&gt;Node42</title>
<path fill="none" stroke="midnightblue" d="M1708.61,-501.063C1619.88,-495.485 1398.72,-474.775 1230.91,-402 1202.61,-389.723 1174.51,-367.381 1157.43,-352.364"/>
<polygon fill="midnightblue" stroke="midnightblue" points="1159.33,-349.365 1149.56,-345.27 1154.64,-354.565 1159.33,-349.365"/>
</g>
<!-- Node46&#45;&gt;Node47 -->
<g id="edge96" class="edge"><title>Node46&#45;&gt;Node47</title>
<path fill="none" stroke="midnightblue" d="M1765.73,-494.916C1785.36,-486.008 1817.15,-471.581 1839.86,-461.276"/>
<polygon fill="midnightblue" stroke="midnightblue" points="1841.32,-464.459 1848.98,-457.14 1838.43,-458.085 1841.32,-464.459"/>
</g>
<!-- Node47&#45;&gt;Node2 -->
<g id="edge97" class="edge"><title>Node47&#45;&gt;Node2</title>
<path fill="none" stroke="midnightblue" d="M1849.37,-438.957C1788.31,-410.949 1579.52,-314.996 1407.91,-234 1354.93,-208.993 1293.21,-179.214 1259.05,-162.676"/>
<polygon fill="midnightblue" stroke="midnightblue" points="1260.3,-159.392 1249.77,-158.182 1257.25,-165.692 1260.3,-159.392"/>
</g>
<!-- Node47&#45;&gt;Node25 -->
<g id="edge107" class="edge"><title>Node47&#45;&gt;Node25</title>
<path fill="none" stroke="midnightblue" d="M1832.99,-445.184C1743.98,-440.151 1505.37,-424.872 1429.91,-402 1378.92,-386.543 1365.52,-379.281 1323.91,-346 1289.21,-318.238 1292.83,-298.726 1258.91,-270 1241.37,-255.139 1218.9,-241.893 1201.76,-232.775"/>
<polygon fill="midnightblue" stroke="midnightblue" points="1203.34,-229.653 1192.86,-228.149 1200.12,-235.865 1203.34,-229.653"/>
</g>
<!-- Node47&#45;&gt;Node29 -->
<g id="edge98" class="edge"><title>Node47&#45;&gt;Node29</title>
<path fill="none" stroke="midnightblue" d="M1874.42,-457.399C1904.18,-490.474 2017.56,-614.112 2124.91,-700 2139.52,-711.687 2157.22,-723.18 2171.03,-731.626"/>
<polygon fill="midnightblue" stroke="midnightblue" points="2169.52,-734.798 2179.89,-736.951 2173.12,-728.799 2169.52,-734.798"/>
</g>
<!-- Node47&#45;&gt;Node31 -->
<g id="edge106" class="edge"><title>Node47&#45;&gt;Node31</title>
<path fill="none" stroke="midnightblue" d="M1886.62,-438.906C1945.33,-414.378 2117.08,-339.52 2149.91,-290 2171.09,-258.067 2167.7,-240.457 2155.91,-204 2151.25,-189.558 2141.11,-175.73 2132.35,-165.683"/>
<polygon fill="midnightblue" stroke="midnightblue" points="2134.8,-163.185 2125.45,-158.203 2129.66,-167.929 2134.8,-163.185"/>
</g>
<!-- Node47&#45;&gt;Node38 -->
<g id="edge105" class="edge"><title>Node47&#45;&gt;Node38</title>
<path fill="none" stroke="midnightblue" d="M1832.97,-441.822C1773.8,-432.796 1650.93,-414.052 1575.82,-402.595"/>
<polygon fill="midnightblue" stroke="midnightblue" points="1575.96,-399.077 1565.55,-401.029 1574.91,-405.997 1575.96,-399.077"/>
</g>
<!-- Node47&#45;&gt;Node40 -->
<g id="edge99" class="edge"><title>Node47&#45;&gt;Node40</title>
<path fill="none" stroke="midnightblue" d="M1875.35,-438.932C1888.3,-426.583 1913.88,-402.289 1935.91,-382 1946.81,-371.966 1959.19,-360.827 1968.9,-352.143"/>
<polygon fill="midnightblue" stroke="midnightblue" points="1971.51,-354.501 1976.64,-345.231 1966.85,-349.278 1971.51,-354.501"/>
</g>
<!-- Node47&#45;&gt;Node48 -->
<g id="edge100" class="edge"><title>Node47&#45;&gt;Node48</title>
<path fill="none" stroke="midnightblue" d="M1899.55,-438.916C1937.63,-429.484 2000.69,-413.863 2042.52,-403.501"/>
<polygon fill="midnightblue" stroke="midnightblue" points="2043.55,-406.853 2052.41,-401.051 2041.86,-400.058 2043.55,-406.853"/>
</g>
<!-- Node48&#45;&gt;Node2 -->
<g id="edge101" class="edge"><title>Node48&#45;&gt;Node2</title>
<path fill="none" stroke="midnightblue" d="M2079.18,-382.91C2069.01,-369.166 2046.47,-341.268 2020.91,-326 1982.76,-303.208 1872.19,-280.136 1828.91,-270 1740.13,-249.203 1709.59,-272.475 1626.91,-234 1608.03,-225.213 1609.91,-212.535 1590.91,-204 1487.57,-157.572 1352.28,-149.753 1281.26,-149.191"/>
<polygon fill="midnightblue" stroke="midnightblue" points="1280.85,-145.69 1270.84,-149.157 1280.83,-152.69 1280.85,-145.69"/>
</g>
<!-- Node48&#45;&gt;Node30 -->
<g id="edge102" class="edge"><title>Node48&#45;&gt;Node30</title>
<path fill="none" stroke="midnightblue" d="M2083.05,-382.778C2079.61,-369.334 2071.11,-342.495 2054.91,-326 2039.5,-310.306 2017.52,-299.322 1998.79,-292.137"/>
<polygon fill="midnightblue" stroke="midnightblue" points="1999.94,-288.831 1989.35,-288.721 1997.56,-295.414 1999.94,-288.831"/>
</g>
<!-- Node48&#45;&gt;Node31 -->
<g id="edge103" class="edge"><title>Node48&#45;&gt;Node31</title>
<path fill="none" stroke="midnightblue" d="M2136.01,-385.763C2161.78,-380.241 2190.91,-368.965 2206.91,-346 2243,-294.225 2238.01,-258.919 2206.91,-204 2195.42,-183.696 2172.91,-170.194 2153.27,-161.768"/>
<polygon fill="midnightblue" stroke="midnightblue" points="2154.51,-158.495 2143.93,-158.033 2151.92,-164.995 2154.51,-158.495"/>
</g>
<!-- Node48&#45;&gt;Node36 -->
<g id="edge104" class="edge"><title>Node48&#45;&gt;Node36</title>
<path fill="none" stroke="midnightblue" d="M2088.36,-401.195C2094.66,-434.413 2092,-560.382 2025.91,-626 1981.29,-670.31 1903.1,-678.848 1859.03,-680.126"/>
<polygon fill="midnightblue" stroke="midnightblue" points="1858.79,-676.63 1848.86,-680.31 1858.92,-683.628 1858.79,-676.63"/>
</g>
<!-- Node49&#45;&gt;Node2 -->
<g id="edge116" class="edge"><title>Node49&#45;&gt;Node2</title>
<path fill="none" stroke="midnightblue" d="M1482.85,-608.531C1409.75,-597.138 1265.88,-569.279 1155.91,-514 1054.91,-463.223 1027.87,-439.901 964.915,-346 929.769,-293.581 917.071,-245.158 964.915,-204 997.342,-176.104 1116.97,-160.72 1184.92,-154.059"/>
<polygon fill="midnightblue" stroke="midnightblue" points="1185.34,-157.535 1194.96,-153.101 1184.67,-150.567 1185.34,-157.535"/>
</g>
<!-- Node49&#45;&gt;Node45 -->
<g id="edge121" class="edge"><title>Node49&#45;&gt;Node45</title>
<path fill="none" stroke="midnightblue" d="M1523.04,-606.562C1516.61,-598.67 1506.84,-586.677 1498.93,-576.976"/>
<polygon fill="midnightblue" stroke="midnightblue" points="1501.63,-574.743 1492.6,-569.201 1496.2,-579.165 1501.63,-574.743"/>
</g>
<!-- Node49&#45;&gt;Node50 -->
<g id="edge117" class="edge"><title>Node49&#45;&gt;Node50</title>
<path fill="none" stroke="midnightblue" d="M1560.61,-606.916C1597.6,-597.172 1659.66,-580.823 1698.89,-570.49"/>
<polygon fill="midnightblue" stroke="midnightblue" points="1699.8,-573.869 1708.58,-567.937 1698.02,-567.1 1699.8,-573.869"/>
</g>
<!-- Node50&#45;&gt;Node2 -->
<g id="edge118" class="edge"><title>Node50&#45;&gt;Node2</title>
<path fill="none" stroke="midnightblue" d="M1708.58,-555.115C1593,-537.453 1132.89,-460.616 1055.91,-346 1020.56,-293.353 1027.63,-251.259 1069.91,-204 1099.08,-171.408 1148.35,-158.437 1185.1,-153.302"/>
<polygon fill="midnightblue" stroke="midnightblue" points="1185.62,-156.765 1195.11,-152.052 1184.75,-149.819 1185.62,-156.765"/>
</g>
<!-- Node50&#45;&gt;Node46 -->
<g id="edge119" class="edge"><title>Node50&#45;&gt;Node46</title>
<path fill="none" stroke="midnightblue" d="M1736.95,-550.562C1738.71,-543.228 1741.33,-532.352 1743.57,-523.066"/>
<polygon fill="midnightblue" stroke="midnightblue" points="1747,-523.743 1745.94,-513.201 1740.2,-522.104 1747,-523.743"/>
</g>
<!-- Node50&#45;&gt;Node48 -->
<g id="edge120" class="edge"><title>Node50&#45;&gt;Node48</title>
<path fill="none" stroke="midnightblue" d="M1751.8,-550.993C1808.15,-524.265 1990.09,-437.972 2058.55,-405.507"/>
<polygon fill="midnightblue" stroke="midnightblue" points="2060.26,-408.568 2067.79,-401.121 2057.26,-402.244 2060.26,-408.568"/>
</g>
</g>
</svg>
