<?xml version="1.0" encoding="UTF-8" standalone="no"?>
<!DOCTYPE svg PUBLIC "-//W3C//DTD SVG 1.1//EN"
 "http://www.w3.org/Graphics/SVG/1.1/DTD/svg11.dtd">
<!-- Generated by graphviz version 2.34.0 (20131025.1349)
 -->
<!-- Title: TraverseHelper.h Pages: 1 -->
<svg width="3011pt" height="762pt"
 viewBox="0.00 0.00 3011.22 762.00" xmlns="http://www.w3.org/2000/svg" xmlns:xlink="http://www.w3.org/1999/xlink">
<g id="graph0" class="graph" transform="scale(1 1) rotate(0) translate(4 758)">
<title>TraverseHelper.h</title>
<!-- Node1 -->
<g id="node1" class="node"><title>Node1</title>
<polygon fill="#bfbfbf" stroke="black" points="845.831,-733 845.831,-753 938.169,-753 938.169,-733 845.831,-733"/>
<text text-anchor="middle" x="892" y="-739" font-family="Helvetica,sans-Serif" font-size="10.00">TraverseHelper.h</text>
</g>
<!-- Node2 -->
<g id="node2" class="node"><title>Node2</title>
<g id="a_node2"><a xlink:href="config_8h_source.html" target="_top" xlink:title="RMF/config.h">
<polygon fill="none" stroke="black" points="380.269,-59 380.269,-79 455.731,-79 455.731,-59 380.269,-59"/>
<text text-anchor="middle" x="418" y="-65" font-family="Helvetica,sans-Serif" font-size="10.00">RMF/config.h</text>
</a>
</g>
</g>
<!-- Node1&#45;&gt;Node2 -->
<g id="edge1" class="edge"><title>Node1&#45;&gt;Node2</title>
<path fill="none" stroke="midnightblue" d="M845.61,-741.004C662.513,-736.469 0,-714.11 0,-628 0,-628 0,-628 0,-184 0,-146.749 16.9578,-134.999 49,-116 102.228,-84.4394 282.666,-74.3514 369.94,-71.2749"/>
<polygon fill="midnightblue" stroke="midnightblue" points="370.23,-74.7672 380.106,-70.9335 369.995,-67.7712 370.23,-74.7672"/>
</g>
<!-- Node4 -->
<g id="node4" class="node"><title>Node4</title>
<g id="a_node4"><a xlink:href="CoordinateTransformer_8h.html" target="_top" xlink:title="Handle read/write of Model data from/to files. ">
<polygon fill="none" stroke="black" points="2689.6,-617 2689.6,-637 2816.4,-637 2816.4,-617 2689.6,-617"/>
<text text-anchor="middle" x="2753" y="-623" font-family="Helvetica,sans-Serif" font-size="10.00">CoordinateTransformer.h</text>
</a>
</g>
</g>
<!-- Node1&#45;&gt;Node4 -->
<g id="edge3" class="edge"><title>Node1&#45;&gt;Node4</title>
<path fill="none" stroke="midnightblue" d="M938.263,-740.511C1142.82,-733.672 1986.41,-702.797 2676,-638 2677.11,-637.896 2678.22,-637.788 2679.35,-637.677"/>
<polygon fill="midnightblue" stroke="midnightblue" points="2680.01,-641.126 2689.59,-636.597 2679.28,-634.165 2680.01,-641.126"/>
</g>
<!-- Node29 -->
<g id="node29" class="node"><title>Node29</title>
<g id="a_node29"><a xlink:href="Nullable_8h.html" target="_top" xlink:title="Handle read/write of Model data from/to files. ">
<polygon fill="none" stroke="black" points="738.764,-373 738.764,-393 799.236,-393 799.236,-373 738.764,-373"/>
<text text-anchor="middle" x="769" y="-379" font-family="Helvetica,sans-Serif" font-size="10.00">Nullable.h</text>
</a>
</g>
</g>
<!-- Node1&#45;&gt;Node29 -->
<g id="edge37" class="edge"><title>Node1&#45;&gt;Node29</title>
<path fill="none" stroke="midnightblue" d="M845.383,-738.364C704.458,-726.303 287.729,-682.414 209,-580 141.01,-491.555 588.991,-412.46 728.471,-390.212"/>
<polygon fill="midnightblue" stroke="midnightblue" points="729.399,-393.609 738.729,-388.59 728.305,-386.695 729.399,-393.609"/>
</g>
<!-- Node36 -->
<g id="node36" class="node"><title>Node36</title>
<g id="a_node36"><a xlink:href="physics_8h.html" target="_top" xlink:title="Helper functions for manipulating RMF files. ">
<polygon fill="none" stroke="black" points="654.426,-675 654.426,-695 781.574,-695 781.574,-675 654.426,-675"/>
<text text-anchor="middle" x="718" y="-681" font-family="Helvetica,sans-Serif" font-size="10.00">RMF/decorator/physics.h</text>
</a>
</g>
</g>
<!-- Node1&#45;&gt;Node36 -->
<g id="edge59" class="edge"><title>Node1&#45;&gt;Node36</title>
<path fill="none" stroke="midnightblue" d="M863.657,-732.878C834.246,-723.413 788.097,-708.56 755.642,-698.115"/>
<polygon fill="midnightblue" stroke="midnightblue" points="756.634,-694.757 746.043,-695.025 754.49,-701.421 756.634,-694.757"/>
</g>
<!-- Node38 -->
<g id="node38" class="node"><title>Node38</title>
<polygon fill="none" stroke="#bfbfbf" points="931.018,-373 931.018,-393 1040.98,-393 1040.98,-373 931.018,-373"/>
<text text-anchor="middle" x="986" y="-379" font-family="Helvetica,sans-Serif" font-size="10.00">boost/shared_ptr.hpp</text>
</g>
<!-- Node1&#45;&gt;Node38 -->
<g id="edge165" class="edge"><title>Node1&#45;&gt;Node38</title>
<path fill="none" stroke="midnightblue" d="M918.171,-732.888C953.936,-718.844 1016.64,-688.157 1043,-638 1064.93,-596.262 1013.24,-453.82 993.377,-402.564"/>
<polygon fill="midnightblue" stroke="midnightblue" points="996.567,-401.113 989.659,-393.08 990.05,-403.668 996.567,-401.113"/>
</g>
<!-- Node47 -->
<g id="node47" class="node"><title>Node47</title>
<g id="a_node47"><a xlink:href="sequence_8h.html" target="_top" xlink:title="Helper functions for manipulating RMF files. ">
<polygon fill="none" stroke="black" points="897.414,-617 897.414,-637 1034.59,-637 1034.59,-617 897.414,-617"/>
<text text-anchor="middle" x="966" y="-623" font-family="Helvetica,sans-Serif" font-size="10.00">RMF/decorator/sequence.h</text>
</a>
</g>
</g>
<!-- Node1&#45;&gt;Node47 -->
<g id="edge129" class="edge"><title>Node1&#45;&gt;Node47</title>
<path fill="none" stroke="midnightblue" d="M898.056,-732.671C910.367,-713.705 938.496,-670.371 954.431,-645.822"/>
<polygon fill="midnightblue" stroke="midnightblue" points="957.558,-647.433 960.067,-637.139 951.687,-643.622 957.558,-647.433"/>
</g>
<!-- Node48 -->
<g id="node48" class="node"><title>Node48</title>
<g id="a_node48"><a xlink:href="shape_8h.html" target="_top" xlink:title="Helper functions for manipulating RMF files. ">
<polygon fill="none" stroke="black" points="758.476,-617 758.476,-637 879.524,-637 879.524,-617 758.476,-617"/>
<text text-anchor="middle" x="819" y="-623" font-family="Helvetica,sans-Serif" font-size="10.00">RMF/decorator/shape.h</text>
</a>
</g>
</g>
<!-- Node1&#45;&gt;Node48 -->
<g id="edge141" class="edge"><title>Node1&#45;&gt;Node48</title>
<path fill="none" stroke="midnightblue" d="M886.026,-732.671C873.881,-713.705 846.133,-670.371 830.412,-645.822"/>
<polygon fill="midnightblue" stroke="midnightblue" points="833.193,-643.673 824.852,-637.139 827.298,-647.448 833.193,-643.673"/>
</g>
<!-- Node49 -->
<g id="node49" class="node"><title>Node49</title>
<g id="a_node49"><a xlink:href="alternatives_8h.html" target="_top" xlink:title="Helper functions for manipulating RMF files. ">
<polygon fill="none" stroke="black" points="1265.53,-617 1265.53,-637 1410.47,-637 1410.47,-617 1265.53,-617"/>
<text text-anchor="middle" x="1338" y="-623" font-family="Helvetica,sans-Serif" font-size="10.00">RMF/decorator/alternatives.h</text>
</a>
</g>
</g>
<!-- Node1&#45;&gt;Node49 -->
<g id="edge153" class="edge"><title>Node1&#45;&gt;Node49</title>
<path fill="none" stroke="midnightblue" d="M928.886,-732.957C966.247,-723.767 1025.68,-709.064 1077,-696 1153.36,-676.559 1242.11,-653.294 1293.97,-639.633"/>
<polygon fill="midnightblue" stroke="midnightblue" points="1295.05,-642.966 1303.83,-637.032 1293.27,-636.197 1295.05,-642.966"/>
</g>
<!-- Node3 -->
<g id="node3" class="node"><title>Node3</title>
<g id="a_node3"><a xlink:href="compiler__macros_8h.html" target="_top" xlink:title="Various compiler workarounds. ">
<polygon fill="none" stroke="black" points="1744.54,-1 1744.54,-21 1869.46,-21 1869.46,-1 1744.54,-1"/>
<text text-anchor="middle" x="1807" y="-7" font-family="Helvetica,sans-Serif" font-size="10.00">RMF/compiler_macros.h</text>
</a>
</g>
</g>
<!-- Node2&#45;&gt;Node3 -->
<g id="edge2" class="edge"><title>Node2&#45;&gt;Node3</title>
<path fill="none" stroke="midnightblue" d="M455.873,-66.4731C644.247,-58.8785 1481.26,-25.1328 1734.3,-14.931"/>
<polygon fill="midnightblue" stroke="midnightblue" points="1734.63,-18.4205 1744.48,-14.5204 1734.35,-11.4262 1734.63,-18.4205"/>
</g>
<!-- Node4&#45;&gt;Node2 -->
<g id="edge32" class="edge"><title>Node4&#45;&gt;Node2</title>
<path fill="none" stroke="midnightblue" d="M2689.59,-626.325C2481.95,-626.947 1831.03,-625.232 1749,-580 1650.32,-525.589 1672.98,-461.114 1604,-372 1553.84,-307.194 1554.74,-273.376 1484,-232 1413.2,-190.589 1381.59,-219.466 1303,-196 1257.53,-182.423 1151.26,-126.607 1105,-116 983.07,-88.0392 601.31,-75.0509 466.077,-71.2425"/>
<polygon fill="midnightblue" stroke="midnightblue" points="466.112,-67.7422 456.018,-70.9635 465.917,-74.7395 466.112,-67.7422"/>
</g>
<!-- Node4&#45;&gt;Node3 -->
<g id="edge31" class="edge"><title>Node4&#45;&gt;Node3</title>
<path fill="none" stroke="midnightblue" d="M2816.58,-620.683C2875.83,-614.443 2958.47,-602.034 2982,-580 3006.87,-556.714 3002,-540.069 3002,-506 3002,-506 3002,-506 3002,-126 3002,-12.6301 2138.67,-9.62314 1879.62,-11.2726"/>
<polygon fill="midnightblue" stroke="midnightblue" points="1879.54,-7.77299 1869.57,-11.341 1879.59,-14.7728 1879.54,-7.77299"/>
</g>
<!-- Node5 -->
<g id="node5" class="node"><title>Node5</title>
<polygon fill="none" stroke="#bfbfbf" points="2610.38,-59 2610.38,-79 2653.62,-79 2653.62,-59 2610.38,-59"/>
<text text-anchor="middle" x="2632" y="-65" font-family="Helvetica,sans-Serif" font-size="10.00">vector</text>
</g>
<!-- Node4&#45;&gt;Node5 -->
<g id="edge4" class="edge"><title>Node4&#45;&gt;Node5</title>
<path fill="none" stroke="midnightblue" d="M2752.11,-616.978C2750.23,-597.005 2746,-547.529 2746,-506 2746,-506 2746,-506 2746,-324 2746,-227.345 2676.44,-126.709 2645.99,-87.2864"/>
<polygon fill="midnightblue" stroke="midnightblue" points="2648.42,-84.7083 2639.48,-79.0189 2642.92,-89.0401 2648.42,-84.7083"/>
</g>
<!-- Node6 -->
<g id="node6" class="node"><title>Node6</title>
<g id="a_node6"><a xlink:href="Vector_8h.html" target="_top" xlink:title="Represent coordinates. ">
<polygon fill="none" stroke="black" points="1757.71,-559 1757.71,-579 1834.29,-579 1834.29,-559 1757.71,-559"/>
<text text-anchor="middle" x="1796" y="-565" font-family="Helvetica,sans-Serif" font-size="10.00">RMF/Vector.h</text>
</a>
</g>
</g>
<!-- Node4&#45;&gt;Node6 -->
<g id="edge5" class="edge"><title>Node4&#45;&gt;Node6</title>
<path fill="none" stroke="midnightblue" d="M2689.47,-622.282C2510.42,-611.805 2004.38,-582.194 1844.82,-572.857"/>
<polygon fill="midnightblue" stroke="midnightblue" points="1844.57,-569.336 1834.38,-572.246 1844.16,-576.324 1844.57,-569.336"/>
</g>
<!-- Node7 -->
<g id="node7" class="node"><title>Node7</title>
<g id="a_node7"><a xlink:href="infrastructure__macros_8h.html" target="_top" xlink:title="Various general useful macros for IMP. ">
<polygon fill="none" stroke="black" points="1882.48,-117 1882.48,-137 2003.52,-137 2003.52,-117 1882.48,-117"/>
<text text-anchor="middle" x="1943" y="-123" font-family="Helvetica,sans-Serif" font-size="10.00">infrastructure_macros.h</text>
</a>
</g>
</g>
<!-- Node4&#45;&gt;Node7 -->
<g id="edge35" class="edge"><title>Node4&#45;&gt;Node7</title>
<path fill="none" stroke="midnightblue" d="M2746.93,-616.801C2734.65,-597.265 2708,-549.833 2708,-506 2708,-506 2708,-506 2708,-324 2708,-221.223 2628.01,-210.677 2532,-174 2439.2,-138.55 2149.62,-130.41 2014.18,-128.548"/>
<polygon fill="midnightblue" stroke="midnightblue" points="2013.95,-125.045 2003.91,-128.415 2013.86,-132.045 2013.95,-125.045"/>
</g>
<!-- Node26 -->
<g id="node26" class="node"><title>Node26</title>
<polygon fill="none" stroke="#bfbfbf" points="2844.23,-559 2844.23,-579 2973.77,-579 2973.77,-559 2844.23,-559"/>
<text text-anchor="middle" x="2909" y="-565" font-family="Helvetica,sans-Serif" font-size="10.00">RMF/internal/Transform.h</text>
</g>
<!-- Node4&#45;&gt;Node26 -->
<g id="edge33" class="edge"><title>Node4&#45;&gt;Node26</title>
<path fill="none" stroke="midnightblue" d="M2778.41,-616.878C2804.44,-607.535 2845.09,-592.943 2874.12,-582.522"/>
<polygon fill="midnightblue" stroke="midnightblue" points="2875.63,-585.698 2883.86,-579.025 2873.26,-579.11 2875.63,-585.698"/>
</g>
<!-- Node27 -->
<g id="node27" class="node"><title>Node27</title>
<polygon fill="none" stroke="#bfbfbf" points="2773.94,-559 2773.94,-579 2826.06,-579 2826.06,-559 2773.94,-559"/>
<text text-anchor="middle" x="2800" y="-565" font-family="Helvetica,sans-Serif" font-size="10.00">ostream</text>
</g>
<!-- Node4&#45;&gt;Node27 -->
<g id="edge34" class="edge"><title>Node4&#45;&gt;Node27</title>
<path fill="none" stroke="midnightblue" d="M2760.76,-616.753C2767.54,-608.68 2777.54,-596.757 2785.76,-586.973"/>
<polygon fill="midnightblue" stroke="midnightblue" points="2788.64,-588.985 2792.38,-579.075 2783.27,-584.485 2788.64,-588.985"/>
</g>
<!-- Node28 -->
<g id="node28" class="node"><title>Node28</title>
<polygon fill="none" stroke="#bfbfbf" points="1312.33,-233 1312.33,-277 1421.67,-277 1421.67,-233 1312.33,-233"/>
<text text-anchor="start" x="1320.33" y="-263" font-family="Helvetica,sans-Serif" font-size="10.00">/Users/drussel/src</text>
<text text-anchor="start" x="1320.33" y="-251" font-family="Helvetica,sans-Serif" font-size="10.00">/rmf/rmf/include/RMF</text>
<text text-anchor="middle" x="1367" y="-239" font-family="Helvetica,sans-Serif" font-size="10.00">/types.h</text>
</g>
<!-- Node4&#45;&gt;Node28 -->
<g id="edge36" class="edge"><title>Node4&#45;&gt;Node28</title>
<path fill="none" stroke="midnightblue" d="M2689.36,-624.941C2456.08,-620.864 1658.97,-605.146 1611,-580 1578.8,-563.12 1439.73,-362.579 1387.2,-285.719"/>
<polygon fill="midnightblue" stroke="midnightblue" points="1390.05,-283.687 1381.52,-277.401 1384.27,-287.634 1390.05,-283.687"/>
</g>
<!-- Node6&#45;&gt;Node2 -->
<g id="edge6" class="edge"><title>Node6&#45;&gt;Node2</title>
<path fill="none" stroke="midnightblue" d="M1789.34,-558.711C1756.44,-513.615 1605.79,-316.272 1430,-232 1334.32,-186.133 1293.22,-233.593 1194,-196 1132.67,-172.763 1132.22,-136.737 1070,-116 957.978,-78.6655 597.198,-71.6323 466.146,-70.3075"/>
<polygon fill="midnightblue" stroke="midnightblue" points="466.046,-66.8065 456.014,-70.2119 465.98,-73.8062 466.046,-66.8065"/>
</g>
<!-- Node6&#45;&gt;Node7 -->
<g id="edge7" class="edge"><title>Node6&#45;&gt;Node7</title>
<path fill="none" stroke="midnightblue" d="M1834.62,-568.318C1970.13,-569.037 2418.17,-567.9 2461,-522 2518.97,-459.881 2403.79,-469.508 2373,-452 2199.88,-353.559 2017.07,-194.549 1960.62,-143.978"/>
<polygon fill="midnightblue" stroke="midnightblue" points="1962.72,-141.158 1952.94,-137.071 1958.04,-146.361 1962.72,-141.158"/>
</g>
<!-- Node15 -->
<g id="node15" class="node"><title>Node15</title>
<g id="a_node15"><a xlink:href="exceptions_8h.html" target="_top" xlink:title="Various general useful macros for IMP. ">
<polygon fill="none" stroke="black" points="1260.93,-117 1260.93,-137 1333.07,-137 1333.07,-117 1260.93,-117"/>
<text text-anchor="middle" x="1297" y="-123" font-family="Helvetica,sans-Serif" font-size="10.00">exceptions.h</text>
</a>
</g>
</g>
<!-- Node6&#45;&gt;Node15 -->
<g id="edge17" class="edge"><title>Node6&#45;&gt;Node15</title>
<path fill="none" stroke="midnightblue" d="M1800.25,-558.541C1807.07,-543.468 1821.02,-513.138 1834,-488 1873.49,-411.527 1961.8,-388.671 1919,-314 1860,-211.072 1477.43,-151.648 1343.34,-133.781"/>
<polygon fill="midnightblue" stroke="midnightblue" points="1343.75,-130.304 1333.38,-132.469 1342.84,-137.244 1343.75,-130.304"/>
</g>
<!-- Node19 -->
<g id="node19" class="node"><title>Node19</title>
<polygon fill="none" stroke="#bfbfbf" points="1843.24,-495 1843.24,-515 1958.76,-515 1958.76,-495 1843.24,-495"/>
<text text-anchor="middle" x="1901" y="-501" font-family="Helvetica,sans-Serif" font-size="10.00">boost/range/begin.hpp</text>
</g>
<!-- Node6&#45;&gt;Node19 -->
<g id="edge24" class="edge"><title>Node6&#45;&gt;Node19</title>
<path fill="none" stroke="midnightblue" d="M1811.49,-558.852C1828.71,-548.686 1856.73,-532.143 1876.83,-520.272"/>
<polygon fill="midnightblue" stroke="midnightblue" points="1878.61,-523.284 1885.44,-515.186 1875.05,-517.257 1878.61,-523.284"/>
</g>
<!-- Node20 -->
<g id="node20" class="node"><title>Node20</title>
<polygon fill="none" stroke="#bfbfbf" points="1977.13,-495 1977.13,-515 2084.87,-515 2084.87,-495 1977.13,-495"/>
<text text-anchor="middle" x="2031" y="-501" font-family="Helvetica,sans-Serif" font-size="10.00">boost/range/end.hpp</text>
</g>
<!-- Node6&#45;&gt;Node20 -->
<g id="edge25" class="edge"><title>Node6&#45;&gt;Node20</title>
<path fill="none" stroke="midnightblue" d="M1830.17,-558.985C1871.59,-548.056 1941.48,-529.618 1986.92,-517.63"/>
<polygon fill="midnightblue" stroke="midnightblue" points="1988.01,-520.961 1996.79,-515.026 1986.23,-514.193 1988.01,-520.961"/>
</g>
<!-- Node21 -->
<g id="node21" class="node"><title>Node21</title>
<polygon fill="none" stroke="#bfbfbf" points="2103.31,-489 2103.31,-521 2202.69,-521 2202.69,-489 2103.31,-489"/>
<text text-anchor="start" x="2111.31" y="-507" font-family="Helvetica,sans-Serif" font-size="10.00">boost/type_traits/is</text>
<text text-anchor="middle" x="2153" y="-495" font-family="Helvetica,sans-Serif" font-size="10.00">_convertible.hpp</text>
</g>
<!-- Node6&#45;&gt;Node21 -->
<g id="edge26" class="edge"><title>Node6&#45;&gt;Node21</title>
<path fill="none" stroke="midnightblue" d="M1834.68,-563.352C1891.6,-556.21 2001.09,-541.315 2093,-522 2093.1,-521.979 2093.2,-521.957 2093.31,-521.935"/>
<polygon fill="midnightblue" stroke="midnightblue" points="2094.01,-525.364 2103.01,-519.76 2092.48,-518.533 2094.01,-525.364"/>
</g>
<!-- Node22 -->
<g id="node22" class="node"><title>Node22</title>
<polygon fill="none" stroke="#bfbfbf" points="2220.25,-495 2220.25,-515 2315.75,-515 2315.75,-495 2220.25,-495"/>
<text text-anchor="middle" x="2268" y="-501" font-family="Helvetica,sans-Serif" font-size="10.00">boost/mpl/not.hpp</text>
</g>
<!-- Node6&#45;&gt;Node22 -->
<g id="edge27" class="edge"><title>Node6&#45;&gt;Node22</title>
<path fill="none" stroke="midnightblue" d="M1834.36,-565.847C1907.96,-561.254 2073.84,-548.666 2211,-522 2216.95,-520.844 2223.18,-519.372 2229.24,-517.791"/>
<polygon fill="midnightblue" stroke="midnightblue" points="2230.5,-521.077 2239.22,-515.064 2228.65,-514.324 2230.5,-521.077"/>
</g>
<!-- Node23 -->
<g id="node23" class="node"><title>Node23</title>
<polygon fill="none" stroke="#bfbfbf" points="1436.62,-495 1436.62,-515 1521.38,-515 1521.38,-495 1436.62,-495"/>
<text text-anchor="middle" x="1479" y="-501" font-family="Helvetica,sans-Serif" font-size="10.00">boost/array.hpp</text>
</g>
<!-- Node6&#45;&gt;Node23 -->
<g id="edge28" class="edge"><title>Node6&#45;&gt;Node23</title>
<path fill="none" stroke="midnightblue" d="M1757.45,-560.46C1700.83,-549.386 1595.03,-528.694 1531.41,-516.25"/>
<polygon fill="midnightblue" stroke="midnightblue" points="1532.06,-512.811 1521.57,-514.326 1530.71,-519.681 1532.06,-512.811"/>
</g>
<!-- Node24 -->
<g id="node24" class="node"><title>Node24</title>
<polygon fill="none" stroke="#bfbfbf" points="2333.58,-495 2333.58,-515 2452.42,-515 2452.42,-495 2333.58,-495"/>
<text text-anchor="middle" x="2393" y="-501" font-family="Helvetica,sans-Serif" font-size="10.00">boost/static_assert.hpp</text>
</g>
<!-- Node6&#45;&gt;Node24 -->
<g id="edge29" class="edge"><title>Node6&#45;&gt;Node24</title>
<path fill="none" stroke="midnightblue" d="M1834.32,-566.514C1921.67,-562.724 2142.02,-550.879 2324,-522 2332.03,-520.726 2340.51,-519.042 2348.68,-517.246"/>
<polygon fill="midnightblue" stroke="midnightblue" points="2349.47,-520.657 2358.44,-515.019 2347.91,-513.833 2349.47,-520.657"/>
</g>
<!-- Node25 -->
<g id="node25" class="node"><title>Node25</title>
<polygon fill="none" stroke="#bfbfbf" points="932.436,-175 932.436,-195 989.564,-195 989.564,-175 932.436,-175"/>
<text text-anchor="middle" x="961" y="-181" font-family="Helvetica,sans-Serif" font-size="10.00">algorithm</text>
</g>
<!-- Node6&#45;&gt;Node25 -->
<g id="edge30" class="edge"><title>Node6&#45;&gt;Node25</title>
<path fill="none" stroke="midnightblue" d="M1796.44,-558.629C1797.17,-543.677 1798.79,-513.51 1801,-488 1802.39,-471.962 1804.11,-468.074 1805,-452 1805.54,-442.237 1810.05,-438.374 1805,-430 1707.7,-268.589 1610.51,-286.216 1430,-232 1349.67,-207.874 1097.18,-192.887 999.82,-187.875"/>
<polygon fill="midnightblue" stroke="midnightblue" points="999.976,-184.379 989.811,-187.367 999.621,-191.37 999.976,-184.379"/>
</g>
<!-- Node7&#45;&gt;Node3 -->
<g id="edge11" class="edge"><title>Node7&#45;&gt;Node3</title>
<path fill="none" stroke="midnightblue" d="M1892.7,-116.976C1869.46,-110.384 1843.26,-99.1172 1826,-80 1813.96,-66.6591 1809.48,-46.2931 1807.85,-31.3258"/>
<polygon fill="midnightblue" stroke="midnightblue" points="1811.32,-30.8464 1807.08,-21.1382 1804.34,-31.3734 1811.32,-30.8464"/>
</g>
<!-- Node7&#45;&gt;Node5 -->
<g id="edge16" class="edge"><title>Node7&#45;&gt;Node5</title>
<path fill="none" stroke="midnightblue" d="M2003.54,-121.079C2144.97,-109.584 2493.19,-81.2821 2600.2,-72.5847"/>
<polygon fill="midnightblue" stroke="midnightblue" points="2600.67,-76.0582 2610.35,-71.7595 2600.1,-69.0812 2600.67,-76.0582"/>
</g>
<!-- Node8 -->
<g id="node8" class="node"><title>Node8</title>
<polygon fill="none" stroke="#bfbfbf" points="1835.22,-59 1835.22,-79 1886.78,-79 1886.78,-59 1835.22,-59"/>
<text text-anchor="middle" x="1861" y="-65" font-family="Helvetica,sans-Serif" font-size="10.00">sstream</text>
</g>
<!-- Node7&#45;&gt;Node8 -->
<g id="edge8" class="edge"><title>Node7&#45;&gt;Node8</title>
<path fill="none" stroke="midnightblue" d="M1929.46,-116.753C1916.8,-108.109 1897.68,-95.0518 1882.86,-84.9314"/>
<polygon fill="midnightblue" stroke="midnightblue" points="1884.52,-81.8245 1874.29,-79.0752 1880.57,-87.6052 1884.52,-81.8245"/>
</g>
<!-- Node9 -->
<g id="node9" class="node"><title>Node9</title>
<polygon fill="none" stroke="#bfbfbf" points="1712.83,-59 1712.83,-79 1767.17,-79 1767.17,-59 1712.83,-59"/>
<text text-anchor="middle" x="1740" y="-65" font-family="Helvetica,sans-Serif" font-size="10.00">iostream</text>
</g>
<!-- Node7&#45;&gt;Node9 -->
<g id="edge9" class="edge"><title>Node7&#45;&gt;Node9</title>
<path fill="none" stroke="midnightblue" d="M1909.93,-116.878C1873.42,-106.807 1814.8,-90.6357 1776.85,-80.165"/>
<polygon fill="midnightblue" stroke="midnightblue" points="1777.77,-76.7883 1767.2,-77.5029 1775.91,-83.5363 1777.77,-76.7883"/>
</g>
<!-- Node10 -->
<g id="node10" class="node"><title>Node10</title>
<polygon fill="none" stroke="#bfbfbf" points="1648.77,-59 1648.77,-79 1689.23,-79 1689.23,-59 1648.77,-59"/>
<text text-anchor="middle" x="1669" y="-65" font-family="Helvetica,sans-Serif" font-size="10.00">string</text>
</g>
<!-- Node7&#45;&gt;Node10 -->
<g id="edge10" class="edge"><title>Node7&#45;&gt;Node10</title>
<path fill="none" stroke="midnightblue" d="M1888.6,-116.939C1839.97,-108.505 1766.88,-95.0042 1704,-80 1702.35,-79.6067 1700.66,-79.1862 1698.97,-78.7483"/>
<polygon fill="midnightblue" stroke="midnightblue" points="1699.85,-75.3607 1689.28,-76.1214 1698.01,-82.1167 1699.85,-75.3607"/>
</g>
<!-- Node11 -->
<g id="node11" class="node"><title>Node11</title>
<polygon fill="none" stroke="#bfbfbf" points="1904.98,-59 1904.98,-79 1981.02,-79 1981.02,-59 1904.98,-59"/>
<text text-anchor="middle" x="1943" y="-65" font-family="Helvetica,sans-Serif" font-size="10.00">internal/use.h</text>
</g>
<!-- Node7&#45;&gt;Node11 -->
<g id="edge12" class="edge"><title>Node7&#45;&gt;Node11</title>
<path fill="none" stroke="midnightblue" d="M1943,-116.753C1943,-109.25 1943,-98.4238 1943,-89.0781"/>
<polygon fill="midnightblue" stroke="midnightblue" points="1946.5,-89.0752 1943,-79.0752 1939.5,-89.0752 1946.5,-89.0752"/>
</g>
<!-- Node12 -->
<g id="node12" class="node"><title>Node12</title>
<polygon fill="none" stroke="#bfbfbf" points="1999.31,-59 1999.31,-79 2088.69,-79 2088.69,-59 1999.31,-59"/>
<text text-anchor="middle" x="2044" y="-65" font-family="Helvetica,sans-Serif" font-size="10.00">boost/config.hpp</text>
</g>
<!-- Node7&#45;&gt;Node12 -->
<g id="edge13" class="edge"><title>Node7&#45;&gt;Node12</title>
<path fill="none" stroke="midnightblue" d="M1959.68,-116.753C1975.78,-107.823 2000.38,-94.1848 2018.86,-83.9388"/>
<polygon fill="midnightblue" stroke="midnightblue" points="2020.58,-86.9853 2027.63,-79.0752 2017.19,-80.8633 2020.58,-86.9853"/>
</g>
<!-- Node13 -->
<g id="node13" class="node"><title>Node13</title>
<polygon fill="none" stroke="#bfbfbf" points="1511.53,-59 1511.53,-79 1606.47,-79 1606.47,-59 1511.53,-59"/>
<text text-anchor="middle" x="1559" y="-65" font-family="Helvetica,sans-Serif" font-size="10.00">boost/version.hpp</text>
</g>
<!-- Node7&#45;&gt;Node13 -->
<g id="edge14" class="edge"><title>Node7&#45;&gt;Node13</title>
<path fill="none" stroke="midnightblue" d="M1882.15,-117.127C1809.29,-106.5 1688.15,-88.8337 1616.7,-78.4149"/>
<polygon fill="midnightblue" stroke="midnightblue" points="1616.93,-74.9118 1606.53,-76.932 1615.92,-81.8385 1616.93,-74.9118"/>
</g>
<!-- Node14 -->
<g id="node14" class="node"><title>Node14</title>
<polygon fill="none" stroke="#bfbfbf" points="2106.97,-59 2106.97,-79 2203.03,-79 2203.03,-59 2106.97,-59"/>
<text text-anchor="middle" x="2155" y="-65" font-family="Helvetica,sans-Serif" font-size="10.00">boost/foreach.hpp</text>
</g>
<!-- Node7&#45;&gt;Node14 -->
<g id="edge15" class="edge"><title>Node7&#45;&gt;Node14</title>
<path fill="none" stroke="midnightblue" d="M1977.53,-116.878C2013.91,-107.27 2071.3,-92.1104 2110.92,-81.6449"/>
<polygon fill="midnightblue" stroke="midnightblue" points="2112.06,-84.9632 2120.83,-79.0253 2110.27,-78.1954 2112.06,-84.9632"/>
</g>
<!-- Node15&#45;&gt;Node2 -->
<g id="edge21" class="edge"><title>Node15&#45;&gt;Node2</title>
<path fill="none" stroke="midnightblue" d="M1260.65,-121.414C1244.81,-119.533 1226,-117.46 1209,-116 928.005,-91.8823 589.745,-76.8906 466.175,-71.8765"/>
<polygon fill="midnightblue" stroke="midnightblue" points="466.057,-68.369 455.924,-71.4636 465.775,-75.3634 466.057,-68.369"/>
</g>
<!-- Node15&#45;&gt;Node3 -->
<g id="edge22" class="edge"><title>Node15&#45;&gt;Node3</title>
<path fill="none" stroke="midnightblue" d="M1333.08,-117.631C1366.11,-109.517 1416.07,-96.095 1458,-80 1478.78,-72.0221 1481.75,-64.631 1503,-58 1579.87,-34.0157 1671.7,-22.3249 1734.18,-16.7675"/>
<polygon fill="midnightblue" stroke="midnightblue" points="1734.67,-20.2384 1744.33,-15.8953 1734.07,-13.2641 1734.67,-20.2384"/>
</g>
<!-- Node15&#45;&gt;Node10 -->
<g id="edge20" class="edge"><title>Node15&#45;&gt;Node10</title>
<path fill="none" stroke="midnightblue" d="M1333.32,-121.221C1392.45,-113.334 1513.18,-96.7861 1615,-80 1622.63,-78.7419 1630.85,-77.2769 1638.52,-75.8626"/>
<polygon fill="midnightblue" stroke="midnightblue" points="1639.33,-79.27 1648.52,-73.9894 1638.05,-72.3896 1639.33,-79.27"/>
</g>
<!-- Node16 -->
<g id="node16" class="node"><title>Node16</title>
<polygon fill="none" stroke="#bfbfbf" points="1221.45,-59 1221.45,-79 1372.55,-79 1372.55,-59 1221.45,-59"/>
<text text-anchor="middle" x="1297" y="-65" font-family="Helvetica,sans-Serif" font-size="10.00">boost/exception/exception.hpp</text>
</g>
<!-- Node15&#45;&gt;Node16 -->
<g id="edge18" class="edge"><title>Node15&#45;&gt;Node16</title>
<path fill="none" stroke="midnightblue" d="M1297,-116.753C1297,-109.25 1297,-98.4238 1297,-89.0781"/>
<polygon fill="midnightblue" stroke="midnightblue" points="1300.5,-89.0752 1297,-79.0752 1293.5,-89.0752 1300.5,-89.0752"/>
</g>
<!-- Node17 -->
<g id="node17" class="node"><title>Node17</title>
<polygon fill="none" stroke="#bfbfbf" points="1390.6,-59 1390.6,-79 1449.4,-79 1449.4,-59 1390.6,-59"/>
<text text-anchor="middle" x="1420" y="-65" font-family="Helvetica,sans-Serif" font-size="10.00">exception</text>
</g>
<!-- Node15&#45;&gt;Node17 -->
<g id="edge19" class="edge"><title>Node15&#45;&gt;Node17</title>
<path fill="none" stroke="midnightblue" d="M1317.04,-116.878C1337.05,-107.766 1368.03,-93.6617 1390.78,-83.3028"/>
<polygon fill="midnightblue" stroke="midnightblue" points="1392.32,-86.4472 1399.97,-79.1181 1389.42,-80.0764 1392.32,-86.4472"/>
</g>
<!-- Node18 -->
<g id="node18" class="node"><title>Node18</title>
<polygon fill="none" stroke="#bfbfbf" points="1092.77,-59 1092.77,-79 1203.23,-79 1203.23,-59 1092.77,-59"/>
<text text-anchor="middle" x="1148" y="-65" font-family="Helvetica,sans-Serif" font-size="10.00">RMF/internal/errors.h</text>
</g>
<!-- Node15&#45;&gt;Node18 -->
<g id="edge23" class="edge"><title>Node15&#45;&gt;Node18</title>
<path fill="none" stroke="midnightblue" d="M1272.73,-116.878C1248.05,-107.603 1209.61,-93.1564 1181.93,-82.7515"/>
<polygon fill="midnightblue" stroke="midnightblue" points="1182.85,-79.36 1172.26,-79.1181 1180.39,-85.9125 1182.85,-79.36"/>
</g>
<!-- Node29&#45;&gt;Node2 -->
<g id="edge38" class="edge"><title>Node29&#45;&gt;Node2</title>
<path fill="none" stroke="midnightblue" d="M738.486,-375.029C695.278,-364.995 618.563,-346.532 592,-336 579.52,-331.052 494.969,-287.99 486,-278 435.996,-222.303 422.683,-129.141 419.203,-89.1679"/>
<polygon fill="midnightblue" stroke="midnightblue" points="422.691,-88.8824 418.446,-79.175 415.711,-89.4107 422.691,-88.8824"/>
</g>
<!-- Node29&#45;&gt;Node7 -->
<g id="edge56" class="edge"><title>Node29&#45;&gt;Node7</title>
<path fill="none" stroke="midnightblue" d="M796.799,-372.989C875.473,-347.749 1106.72,-275.371 1303,-232 1507.8,-186.748 1753.5,-152.276 1872.08,-136.863"/>
<polygon fill="midnightblue" stroke="midnightblue" points="1872.66,-140.318 1882.12,-135.564 1871.76,-133.376 1872.66,-140.318"/>
</g>
<!-- Node29&#45;&gt;Node15 -->
<g id="edge57" class="edge"><title>Node29&#45;&gt;Node15</title>
<path fill="none" stroke="midnightblue" d="M790.199,-372.849C811.275,-363.699 844.489,-349.135 873,-336 927.165,-311.046 941.919,-307.053 994,-278 1068.72,-236.318 1078.7,-210.678 1156,-174 1186.56,-159.5 1222.89,-147.768 1251.01,-139.782"/>
<polygon fill="midnightblue" stroke="midnightblue" points="1252.28,-143.062 1260.98,-137.011 1250.4,-136.318 1252.28,-143.062"/>
</g>
<!-- Node30 -->
<g id="node30" class="node"><title>Node30</title>
<g id="a_node30"><a xlink:href="traits_8h.html" target="_top" xlink:title="Handle read/write of Model data from/to files. ">
<polygon fill="none" stroke="black" points="666.995,-315 666.995,-335 713.005,-335 713.005,-315 666.995,-315"/>
<text text-anchor="middle" x="690" y="-321" font-family="Helvetica,sans-Serif" font-size="10.00">traits.h</text>
</a>
</g>
</g>
<!-- Node29&#45;&gt;Node30 -->
<g id="edge39" class="edge"><title>Node29&#45;&gt;Node30</title>
<path fill="none" stroke="midnightblue" d="M755.955,-372.753C743.761,-364.109 725.341,-351.052 711.064,-340.931"/>
<polygon fill="midnightblue" stroke="midnightblue" points="712.985,-338.003 702.803,-335.075 708.937,-343.714 712.985,-338.003"/>
</g>
<!-- Node32 -->
<g id="node32" class="node"><title>Node32</title>
<polygon fill="none" stroke="#bfbfbf" points="527.613,-117 527.613,-137 566.387,-137 566.387,-117 527.613,-117"/>
<text text-anchor="middle" x="547" y="-123" font-family="Helvetica,sans-Serif" font-size="10.00">limits</text>
</g>
<!-- Node29&#45;&gt;Node32 -->
<g id="edge58" class="edge"><title>Node29&#45;&gt;Node32</title>
<path fill="none" stroke="midnightblue" d="M744.125,-372.945C685.484,-351.355 542.562,-297.225 530,-278 503.326,-237.178 524.406,-176.458 537.915,-146.328"/>
<polygon fill="midnightblue" stroke="midnightblue" points="541.199,-147.569 542.286,-137.03 534.864,-144.59 541.199,-147.569"/>
</g>
<!-- Node30&#45;&gt;Node2 -->
<g id="edge40" class="edge"><title>Node30&#45;&gt;Node2</title>
<path fill="none" stroke="midnightblue" d="M666.778,-322.877C633.152,-320.127 570.506,-310.649 530,-278 466.527,-226.839 434.098,-129.725 422.772,-88.864"/>
<polygon fill="midnightblue" stroke="midnightblue" points="426.134,-87.8871 420.182,-79.1226 419.369,-89.6863 426.134,-87.8871"/>
</g>
<!-- Node30&#45;&gt;Node28 -->
<g id="edge41" class="edge"><title>Node30&#45;&gt;Node28</title>
<path fill="none" stroke="midnightblue" d="M713.304,-321.659C806.681,-312.28 1155.77,-277.216 1301.96,-262.532"/>
<polygon fill="midnightblue" stroke="midnightblue" points="1302.53,-265.993 1312.13,-261.511 1301.83,-259.028 1302.53,-265.993"/>
</g>
<!-- Node31 -->
<g id="node31" class="node"><title>Node31</title>
<polygon fill="none" stroke="#bfbfbf" points="746.197,-175 746.197,-195 837.803,-195 837.803,-175 746.197,-175"/>
<text text-anchor="middle" x="792" y="-181" font-family="Helvetica,sans-Serif" font-size="10.00">boost/cstdint.hpp</text>
</g>
<!-- Node30&#45;&gt;Node31 -->
<g id="edge42" class="edge"><title>Node30&#45;&gt;Node31</title>
<path fill="none" stroke="midnightblue" d="M694.735,-314.95C703.814,-297.949 724.752,-260.399 747,-232 755.229,-221.496 765.575,-210.78 774.271,-202.337"/>
<polygon fill="midnightblue" stroke="midnightblue" points="776.846,-204.718 781.685,-195.293 772.025,-199.643 776.846,-204.718"/>
</g>
<!-- Node30&#45;&gt;Node32 -->
<g id="edge43" class="edge"><title>Node30&#45;&gt;Node32</title>
<path fill="none" stroke="midnightblue" d="M666.8,-319.645C631.01,-312.408 564.984,-296.823 551,-278 522.221,-239.261 532.998,-178.041 541.153,-147.161"/>
<polygon fill="midnightblue" stroke="midnightblue" points="544.601,-147.831 543.961,-137.255 537.867,-145.922 544.601,-147.831"/>
</g>
<!-- Node33 -->
<g id="node33" class="node"><title>Node33</title>
<polygon fill="none" stroke="#bfbfbf" points="756.384,-245 756.384,-265 799.616,-265 799.616,-245 756.384,-245"/>
<text text-anchor="middle" x="778" y="-251" font-family="Helvetica,sans-Serif" font-size="10.00">cmath</text>
</g>
<!-- Node30&#45;&gt;Node33 -->
<g id="edge44" class="edge"><title>Node30&#45;&gt;Node33</title>
<path fill="none" stroke="midnightblue" d="M701.868,-314.829C716.25,-303.716 740.704,-284.82 758.012,-271.446"/>
<polygon fill="midnightblue" stroke="midnightblue" points="760.547,-273.91 766.32,-265.025 756.267,-268.37 760.547,-273.91"/>
</g>
<!-- Node34 -->
<g id="node34" class="node"><title>Node34</title>
<g id="a_node34"><a xlink:href="HDF5_2types_8h.html" target="_top" xlink:title="Handle read/write of Model data from/to files. ">
<polygon fill="none" stroke="red" points="560.214,-245 560.214,-265 661.786,-265 661.786,-245 560.214,-245"/>
<text text-anchor="middle" x="611" y="-251" font-family="Helvetica,sans-Serif" font-size="10.00">RMF/HDF5/types.h</text>
</a>
</g>
</g>
<!-- Node30&#45;&gt;Node34 -->
<g id="edge45" class="edge"><title>Node30&#45;&gt;Node34</title>
<path fill="none" stroke="midnightblue" d="M679.346,-314.829C666.553,-303.818 644.884,-285.166 629.373,-271.815"/>
<polygon fill="midnightblue" stroke="midnightblue" points="631.348,-268.897 621.485,-265.025 626.781,-274.202 631.348,-268.897"/>
</g>
<!-- Node34&#45;&gt;Node2 -->
<g id="edge46" class="edge"><title>Node34&#45;&gt;Node2</title>
<path fill="none" stroke="midnightblue" d="M611.5,-244.783C612.301,-220.211 610.953,-152.528 575,-116 546.562,-87.1072 501.029,-76.1332 466.304,-72.0783"/>
<polygon fill="midnightblue" stroke="midnightblue" points="466.206,-68.5508 455.906,-71.0299 465.504,-75.5155 466.206,-68.5508"/>
</g>
<!-- Node34&#45;&gt;Node18 -->
<g id="edge47" class="edge"><title>Node34&#45;&gt;Node18</title>
<path fill="none" stroke="midnightblue" d="M622.453,-244.934C643.78,-228.476 691.547,-193.581 737,-174 853.641,-123.751 999.769,-93.9918 1082.64,-79.9297"/>
<polygon fill="midnightblue" stroke="midnightblue" points="1083.39,-83.3535 1092.67,-78.2517 1082.23,-76.4494 1083.39,-83.3535"/>
</g>
<!-- Node34&#45;&gt;Node25 -->
<g id="edge53" class="edge"><title>Node34&#45;&gt;Node25</title>
<path fill="none" stroke="midnightblue" d="M662.032,-245.699C722.013,-235.678 824.72,-217.697 922.655,-195.947"/>
<polygon fill="midnightblue" stroke="midnightblue" points="923.427,-199.361 932.421,-193.761 921.898,-192.53 923.427,-199.361"/>
</g>
<!-- Node34&#45;&gt;Node31 -->
<g id="edge54" class="edge"><title>Node34&#45;&gt;Node31</title>
<path fill="none" stroke="midnightblue" d="M635.035,-244.97C666.679,-233.082 722.484,-212.116 758.323,-198.652"/>
<polygon fill="midnightblue" stroke="midnightblue" points="759.735,-201.861 767.865,-195.067 757.273,-195.308 759.735,-201.861"/>
</g>
<!-- Node34&#45;&gt;Node32 -->
<g id="edge55" class="edge"><title>Node34&#45;&gt;Node32</title>
<path fill="none" stroke="midnightblue" d="M606.397,-244.938C595.931,-224.334 570.182,-173.639 556.272,-146.255"/>
<polygon fill="midnightblue" stroke="midnightblue" points="559.383,-144.65 551.734,-137.319 553.142,-147.82 559.383,-144.65"/>
</g>
<!-- Node35 -->
<g id="node35" class="node"><title>Node35</title>
<g id="a_node35"><a xlink:href="ID_8h.html" target="_top" xlink:title="Handle read/write of Model data from/to files. ">
<polygon fill="none" stroke="black" points="855.611,-175 855.611,-195 914.389,-195 914.389,-175 855.611,-175"/>
<text text-anchor="middle" x="885" y="-181" font-family="Helvetica,sans-Serif" font-size="10.00">RMF/ID.h</text>
</a>
</g>
</g>
<!-- Node34&#45;&gt;Node35 -->
<g id="edge48" class="edge"><title>Node34&#45;&gt;Node35</title>
<path fill="none" stroke="midnightblue" d="M648.064,-244.962C692.494,-234.103 769.465,-215.215 845.454,-196.122"/>
<polygon fill="midnightblue" stroke="midnightblue" points="846.352,-199.505 855.197,-193.671 844.645,-192.716 846.352,-199.505"/>
</g>
<!-- Node35&#45;&gt;Node2 -->
<g id="edge49" class="edge"><title>Node35&#45;&gt;Node2</title>
<path fill="none" stroke="midnightblue" d="M855.338,-175.909C807.007,-162.807 708.199,-136.363 624,-116 570.036,-102.949 507.793,-89.2343 465.972,-80.2123"/>
<polygon fill="midnightblue" stroke="midnightblue" points="466.573,-76.7614 456.06,-78.0793 465.1,-83.6048 466.573,-76.7614"/>
</g>
<!-- Node35&#45;&gt;Node7 -->
<g id="edge50" class="edge"><title>Node35&#45;&gt;Node7</title>
<path fill="none" stroke="midnightblue" d="M914.745,-175.534C917.52,-174.938 920.302,-174.411 923,-174 1106.55,-146.035 1672.7,-133.035 1872.39,-129.234"/>
<polygon fill="midnightblue" stroke="midnightblue" points="1872.53,-132.732 1882.47,-129.044 1872.4,-125.734 1872.53,-132.732"/>
</g>
<!-- Node35&#45;&gt;Node15 -->
<g id="edge51" class="edge"><title>Node35&#45;&gt;Node15</title>
<path fill="none" stroke="midnightblue" d="M914.777,-175.722C917.545,-175.087 920.317,-174.499 923,-174 1065.44,-147.492 1103.83,-160.228 1247,-138 1248.25,-137.805 1249.53,-137.601 1250.81,-137.389"/>
<polygon fill="midnightblue" stroke="midnightblue" points="1251.51,-140.82 1260.75,-135.635 1250.29,-133.926 1251.51,-140.82"/>
</g>
<!-- Node35&#45;&gt;Node32 -->
<g id="edge52" class="edge"><title>Node35&#45;&gt;Node32</title>
<path fill="none" stroke="midnightblue" d="M855.259,-176.053C852.143,-175.317 849.013,-174.617 846,-174 748.28,-154.005 630.993,-138.361 576.951,-131.616"/>
<polygon fill="midnightblue" stroke="midnightblue" points="577.063,-128.103 566.71,-130.35 576.205,-135.051 577.063,-128.103"/>
</g>
<!-- Node36&#45;&gt;Node2 -->
<g id="edge60" class="edge"><title>Node36&#45;&gt;Node2</title>
<path fill="none" stroke="midnightblue" d="M654.412,-683.286C559.554,-681.055 375.879,-672.23 224,-638 138.136,-618.648 38,-658.018 38,-570 38,-570 38,-570 38,-184 38,-148.937 48.8017,-135.414 78,-116 124.914,-84.8074 288.131,-74.5964 370.164,-71.3908"/>
<polygon fill="midnightblue" stroke="midnightblue" points="370.365,-74.8858 380.228,-71.0168 370.105,-67.8906 370.365,-74.8858"/>
</g>
<!-- Node36&#45;&gt;Node6 -->
<g id="edge112" class="edge"><title>Node36&#45;&gt;Node6</title>
<path fill="none" stroke="midnightblue" d="M781.717,-683.581C913.981,-681.968 1227.7,-674.279 1488,-638 1583.87,-624.638 1694.2,-597.306 1753.31,-581.668"/>
<polygon fill="midnightblue" stroke="midnightblue" points="1754.28,-585.032 1763.04,-579.076 1752.48,-578.268 1754.28,-585.032"/>
</g>
<!-- Node36&#45;&gt;Node7 -->
<g id="edge61" class="edge"><title>Node36&#45;&gt;Node7</title>
<path fill="none" stroke="midnightblue" d="M781.657,-682.743C1105.49,-676.075 2557.49,-642.748 2628,-580 2771.13,-452.619 2657.75,-252.582 2483,-174 2401.02,-137.134 2140.58,-129.674 2013.76,-128.262"/>
<polygon fill="midnightblue" stroke="midnightblue" points="2013.79,-124.762 2003.76,-128.16 2013.72,-131.762 2013.79,-124.762"/>
</g>
<!-- Node36&#45;&gt;Node23 -->
<g id="edge115" class="edge"><title>Node36&#45;&gt;Node23</title>
<path fill="none" stroke="midnightblue" d="M781.864,-683.509C944.904,-681.738 1367.33,-673.717 1419,-638 1457.19,-611.599 1471.5,-554.724 1476.51,-524.989"/>
<polygon fill="midnightblue" stroke="midnightblue" points="1479.98,-525.451 1478.01,-515.041 1473.06,-524.409 1479.98,-525.451"/>
</g>
<!-- Node37 -->
<g id="node37" class="node"><title>Node37</title>
<g id="a_node37"><a xlink:href="NodeHandle_8h.html" target="_top" xlink:title="Handle read/write of Model data from/to files. ">
<polygon fill="none" stroke="red" points="1200.81,-495 1200.81,-515 1305.19,-515 1305.19,-495 1200.81,-495"/>
<text text-anchor="middle" x="1253" y="-501" font-family="Helvetica,sans-Serif" font-size="10.00">RMF/NodeHandle.h</text>
</a>
</g>
</g>
<!-- Node36&#45;&gt;Node37 -->
<g id="edge62" class="edge"><title>Node36&#45;&gt;Node37</title>
<path fill="none" stroke="midnightblue" d="M781.688,-680.712C855.398,-675.826 979.986,-664.226 1084,-638 1153.31,-620.525 1186.52,-633.425 1234,-580 1247.32,-565.017 1251.53,-541.936 1252.75,-525.539"/>
<polygon fill="midnightblue" stroke="midnightblue" points="1256.25,-525.579 1253.19,-515.437 1249.26,-525.275 1256.25,-525.579"/>
</g>
<!-- Node40 -->
<g id="node40" class="node"><title>Node40</title>
<g id="a_node40"><a xlink:href="constants_8h.html" target="_top" xlink:title="Various utilities for rmfing. ">
<polygon fill="none" stroke="black" points="247.209,-373 247.209,-393 338.791,-393 338.791,-373 247.209,-373"/>
<text text-anchor="middle" x="293" y="-379" font-family="Helvetica,sans-Serif" font-size="10.00">RMF/constants.h</text>
</a>
</g>
</g>
<!-- Node36&#45;&gt;Node40 -->
<g id="edge111" class="edge"><title>Node36&#45;&gt;Node40</title>
<path fill="none" stroke="midnightblue" d="M654.25,-681.81C523.206,-675.811 230.832,-654.225 171,-580 126.34,-524.598 176.229,-479.862 227,-430 239.387,-417.834 255.307,-406.637 268.408,-398.336"/>
<polygon fill="midnightblue" stroke="midnightblue" points="270.27,-401.3 276.949,-393.076 266.599,-395.34 270.27,-401.3"/>
</g>
<!-- Node41 -->
<g id="node41" class="node"><title>Node41</title>
<g id="a_node41"><a xlink:href="FileHandle_8h.html" target="_top" xlink:title="Handle read/write of Model data from/to files. ">
<polygon fill="none" stroke="red" points="1128.71,-559 1128.71,-579 1225.29,-579 1225.29,-559 1128.71,-559"/>
<text text-anchor="middle" x="1177" y="-565" font-family="Helvetica,sans-Serif" font-size="10.00">RMF/FileHandle.h</text>
</a>
</g>
</g>
<!-- Node36&#45;&gt;Node41 -->
<g id="edge88" class="edge"><title>Node36&#45;&gt;Node41</title>
<path fill="none" stroke="midnightblue" d="M781.661,-681.165C848.189,-676.786 954.946,-665.731 1043,-638 1084.22,-625.018 1128.2,-600.364 1154.11,-584.579"/>
<polygon fill="midnightblue" stroke="midnightblue" points="1156.14,-587.441 1162.8,-579.203 1152.46,-581.488 1156.14,-587.441"/>
</g>
<!-- Node42 -->
<g id="node42" class="node"><title>Node42</title>
<g id="a_node42"><a xlink:href="Decorator_8h.html" target="_top" xlink:title="Helper functions for manipulating RMF files. ">
<polygon fill="none" stroke="red" points="752.931,-559 752.931,-579 845.069,-579 845.069,-559 752.931,-559"/>
<text text-anchor="middle" x="799" y="-565" font-family="Helvetica,sans-Serif" font-size="10.00">RMF/Decorator.h</text>
</a>
</g>
</g>
<!-- Node36&#45;&gt;Node42 -->
<g id="edge97" class="edge"><title>Node36&#45;&gt;Node42</title>
<path fill="none" stroke="midnightblue" d="M707.987,-674.708C694.605,-661.136 673.996,-635.399 687,-616 699.738,-596.997 721.888,-585.838 743.144,-579.288"/>
<polygon fill="midnightblue" stroke="midnightblue" points="744.119,-582.649 752.811,-576.591 742.238,-575.907 744.119,-582.649"/>
</g>
<!-- Node43 -->
<g id="node43" class="node"><title>Node43</title>
<polygon fill="none" stroke="#bfbfbf" points="217.8,-559 217.8,-579 324.2,-579 324.2,-559 217.8,-559"/>
<text text-anchor="middle" x="271" y="-565" font-family="Helvetica,sans-Serif" font-size="10.00">RMF/internal/utility.h</text>
</g>
<!-- Node36&#45;&gt;Node43 -->
<g id="edge113" class="edge"><title>Node36&#45;&gt;Node43</title>
<path fill="none" stroke="midnightblue" d="M678.949,-674.951C640.104,-665.878 578.834,-651.371 526,-638 451.202,-619.07 364.468,-595.62 313.867,-581.788"/>
<polygon fill="midnightblue" stroke="midnightblue" points="314.509,-578.335 303.939,-579.071 312.661,-585.087 314.509,-578.335"/>
</g>
<!-- Node44 -->
<g id="node44" class="node"><title>Node44</title>
<polygon fill="none" stroke="#bfbfbf" points="474.591,-559 474.591,-579 583.409,-579 583.409,-559 474.591,-559"/>
<text text-anchor="middle" x="529" y="-565" font-family="Helvetica,sans-Serif" font-size="10.00">RMF/internal/paths.h</text>
</g>
<!-- Node36&#45;&gt;Node44 -->
<g id="edge114" class="edge"><title>Node36&#45;&gt;Node44</title>
<path fill="none" stroke="midnightblue" d="M702.853,-674.864C670.01,-655.053 592.036,-608.022 552.644,-584.261"/>
<polygon fill="midnightblue" stroke="midnightblue" points="554.328,-581.19 543.957,-579.022 550.712,-587.184 554.328,-581.19"/>
</g>
<!-- Node45 -->
<g id="node45" class="node"><title>Node45</title>
<polygon fill="none" stroke="#bfbfbf" points="341.803,-559 341.803,-579 456.197,-579 456.197,-559 341.803,-559"/>
<text text-anchor="middle" x="399" y="-565" font-family="Helvetica,sans-Serif" font-size="10.00">boost/lexical_cast.hpp</text>
</g>
<!-- Node36&#45;&gt;Node45 -->
<g id="edge116" class="edge"><title>Node36&#45;&gt;Node45</title>
<path fill="none" stroke="midnightblue" d="M692.702,-674.959C636.05,-654.714 498.891,-605.698 434.061,-582.53"/>
<polygon fill="midnightblue" stroke="midnightblue" points="434.895,-579.111 424.301,-579.042 432.54,-585.703 434.895,-579.111"/>
</g>
<!-- Node46 -->
<g id="node46" class="node"><title>Node46</title>
<g id="a_node46"><a xlink:href="alias_8h.html" target="_top" xlink:title="Helper functions for manipulating RMF files. ">
<polygon fill="none" stroke="black" points="695.547,-617 695.547,-637 740.453,-637 740.453,-617 695.547,-617"/>
<text text-anchor="middle" x="718" y="-623" font-family="Helvetica,sans-Serif" font-size="10.00">alias.h</text>
</a>
</g>
</g>
<!-- Node36&#45;&gt;Node46 -->
<g id="edge117" class="edge"><title>Node36&#45;&gt;Node46</title>
<path fill="none" stroke="midnightblue" d="M718,-674.753C718,-667.25 718,-656.424 718,-647.078"/>
<polygon fill="midnightblue" stroke="midnightblue" points="721.5,-647.075 718,-637.075 714.5,-647.075 721.5,-647.075"/>
</g>
<!-- Node37&#45;&gt;Node2 -->
<g id="edge84" class="edge"><title>Node37&#45;&gt;Node2</title>
<path fill="none" stroke="midnightblue" d="M1200.42,-500.48C1083.57,-491.612 794.381,-463.866 563,-394 444.194,-358.126 394.249,-368.192 309,-278 258.465,-224.535 231.67,-175.455 275,-116 296.552,-86.4273 337.438,-75.4532 369.99,-71.5739"/>
<polygon fill="midnightblue" stroke="midnightblue" points="370.629,-75.0275 380.231,-70.5491 369.932,-68.0623 370.629,-75.0275"/>
</g>
<!-- Node37&#45;&gt;Node5 -->
<g id="edge65" class="edge"><title>Node37&#45;&gt;Node5</title>
<path fill="none" stroke="midnightblue" d="M1283.66,-494.97C1292.16,-492.583 1301.41,-490.091 1310,-488 1386.73,-469.317 1408.38,-474.753 1484,-452 1509.21,-444.415 1513.75,-437.462 1539,-430 1618.49,-406.505 1642.02,-415.788 1722,-394 2053.32,-303.737 2128.25,-255.28 2451,-138 2503.77,-118.823 2564.86,-95.6745 2600.86,-81.9322"/>
<polygon fill="midnightblue" stroke="midnightblue" points="2602.23,-85.1556 2610.32,-78.3167 2599.73,-78.6167 2602.23,-85.1556"/>
</g>
<!-- Node37&#45;&gt;Node7 -->
<g id="edge86" class="edge"><title>Node37&#45;&gt;Node7</title>
<path fill="none" stroke="midnightblue" d="M1281.81,-494.898C1329.27,-480.095 1427.01,-450.409 1511,-430 1590.28,-410.737 1619.6,-433.464 1691,-394 1806.88,-329.957 1900.9,-194.234 1932.01,-145.71"/>
<polygon fill="midnightblue" stroke="midnightblue" points="1935,-147.537 1937.39,-137.215 1929.08,-143.796 1935,-147.537"/>
</g>
<!-- Node37&#45;&gt;Node10 -->
<g id="edge64" class="edge"><title>Node37&#45;&gt;Node10</title>
<path fill="none" stroke="midnightblue" d="M1274.07,-494.992C1330.1,-470.986 1479.98,-406.45 1501,-394 1537.56,-372.349 1552.11,-370.434 1577,-336 1635.06,-255.686 1658.87,-135.676 1666.26,-89.2747"/>
<polygon fill="midnightblue" stroke="midnightblue" points="1669.75,-89.544 1667.79,-79.1328 1662.83,-88.4965 1669.75,-89.544"/>
</g>
<!-- Node37&#45;&gt;Node15 -->
<g id="edge85" class="edge"><title>Node37&#45;&gt;Node15</title>
<path fill="none" stroke="midnightblue" d="M1272.86,-494.991C1290.81,-486.079 1317.1,-471.031 1335,-452 1351.61,-434.346 1419.65,-318.752 1430,-278 1435.03,-258.185 1442.33,-248.309 1430,-232 1394.62,-185.199 1340.4,-241.199 1303,-196 1291.92,-182.612 1291.57,-162.253 1293.28,-147.3"/>
<polygon fill="midnightblue" stroke="midnightblue" points="1296.79,-147.542 1294.86,-137.124 1289.87,-146.471 1296.79,-147.542"/>
</g>
<!-- Node37&#45;&gt;Node28 -->
<g id="edge87" class="edge"><title>Node37&#45;&gt;Node28</title>
<path fill="none" stroke="midnightblue" d="M1265.52,-494.841C1287.49,-477.878 1332.27,-439.159 1349,-394 1361.95,-359.044 1365.83,-316.097 1366.87,-287.488"/>
<polygon fill="midnightblue" stroke="midnightblue" points="1370.37,-287.361 1367.14,-277.272 1363.37,-287.176 1370.37,-287.361"/>
</g>
<!-- Node37&#45;&gt;Node29 -->
<g id="edge83" class="edge"><title>Node37&#45;&gt;Node29</title>
<path fill="none" stroke="midnightblue" d="M1215.66,-494.961C1173.12,-484.644 1101.52,-467.228 1040,-452 958.114,-431.731 862.422,-407.62 809.469,-394.24"/>
<polygon fill="midnightblue" stroke="midnightblue" points="810.018,-390.769 799.465,-391.712 808.303,-397.556 810.018,-390.769"/>
</g>
<!-- Node37&#45;&gt;Node35 -->
<g id="edge66" class="edge"><title>Node37&#45;&gt;Node35</title>
<path fill="none" stroke="midnightblue" d="M1251.07,-494.666C1245.91,-471.552 1229.86,-410.721 1197,-372 1119.54,-280.718 985.384,-222.533 921.22,-198.556"/>
<polygon fill="midnightblue" stroke="midnightblue" points="922.136,-195.164 911.543,-195.002 919.723,-201.735 922.136,-195.164"/>
</g>
<!-- Node37&#45;&gt;Node38 -->
<g id="edge63" class="edge"><title>Node37&#45;&gt;Node38</title>
<path fill="none" stroke="midnightblue" d="M1217.1,-494.907C1173.42,-483.57 1102.46,-464.202 1078,-452 1049.74,-437.906 1021.1,-415.091 1003.45,-399.823"/>
<polygon fill="midnightblue" stroke="midnightblue" points="1005.53,-396.994 995.717,-393.006 1000.9,-402.245 1005.53,-396.994"/>
</g>
<!-- Node39 -->
<g id="node39" class="node"><title>Node39</title>
<g id="a_node39"><a xlink:href="NodeConstHandle_8h.html" target="_top" xlink:title="Handle read/write of Model data from/to files. ">
<polygon fill="none" stroke="red" points="1086.97,-431 1086.97,-451 1193.03,-451 1193.03,-431 1086.97,-431"/>
<text text-anchor="middle" x="1140" y="-437" font-family="Helvetica,sans-Serif" font-size="10.00">NodeConstHandle.h</text>
</a>
</g>
</g>
<!-- Node37&#45;&gt;Node39 -->
<g id="edge67" class="edge"><title>Node37&#45;&gt;Node39</title>
<path fill="none" stroke="midnightblue" d="M1236.33,-494.852C1217.72,-484.641 1187.38,-467.994 1165.72,-456.112"/>
<polygon fill="midnightblue" stroke="midnightblue" points="1167.19,-452.928 1156.74,-451.186 1163.83,-459.065 1167.19,-452.928"/>
</g>
<!-- Node39&#45;&gt;Node2 -->
<g id="edge74" class="edge"><title>Node39&#45;&gt;Node2</title>
<path fill="none" stroke="midnightblue" d="M1086.75,-439.134C996.507,-436.744 808.18,-427.761 653,-394 576.225,-377.297 555.791,-372.092 486,-336 390.911,-286.826 338.985,-291.186 290,-196 273.73,-164.385 269.547,-145.084 290,-116 308.026,-90.3676 341.758,-78.9488 370.07,-73.8954"/>
<polygon fill="midnightblue" stroke="midnightblue" points="370.878,-77.3116 380.216,-72.3071 369.795,-70.3958 370.878,-77.3116"/>
</g>
<!-- Node39&#45;&gt;Node5 -->
<g id="edge71" class="edge"><title>Node39&#45;&gt;Node5</title>
<path fill="none" stroke="midnightblue" d="M1193.26,-431.577C1244.82,-423.136 1325.08,-409.236 1394,-394 1878.65,-286.862 2460.25,-119.965 2600.48,-79.2072"/>
<polygon fill="midnightblue" stroke="midnightblue" points="2601.55,-82.5421 2610.17,-76.3872 2599.59,-75.8209 2601.55,-82.5421"/>
</g>
<!-- Node39&#45;&gt;Node7 -->
<g id="edge76" class="edge"><title>Node39&#45;&gt;Node7</title>
<path fill="none" stroke="midnightblue" d="M1193.25,-431.54C1236,-423.974 1297.23,-411.387 1349,-394 1570.7,-319.548 1612,-266.027 1827,-174 1854.53,-162.214 1886.16,-149.742 1909.43,-140.763"/>
<polygon fill="midnightblue" stroke="midnightblue" points="1910.77,-143.995 1918.85,-137.14 1908.26,-137.461 1910.77,-143.995"/>
</g>
<!-- Node39&#45;&gt;Node9 -->
<g id="edge69" class="edge"><title>Node39&#45;&gt;Node9</title>
<path fill="none" stroke="midnightblue" d="M1142.71,-430.905C1154.56,-392.783 1205.66,-244.578 1303,-174 1303,-174 1597.08,-104.013 1702.75,-78.8645"/>
<polygon fill="midnightblue" stroke="midnightblue" points="1703.75,-82.2258 1712.66,-76.5057 1702.13,-75.416 1703.75,-82.2258"/>
</g>
<!-- Node39&#45;&gt;Node10 -->
<g id="edge70" class="edge"><title>Node39&#45;&gt;Node10</title>
<path fill="none" stroke="midnightblue" d="M1153.68,-430.826C1165.9,-422.217 1183.86,-408.52 1197,-394 1254.74,-330.205 1238.04,-288.426 1303,-232 1314.45,-222.058 1536.06,-121.959 1550,-116 1579.94,-103.202 1614.73,-89.9342 1638.93,-80.956"/>
<polygon fill="midnightblue" stroke="midnightblue" points="1640.44,-84.1302 1648.61,-77.3848 1638.02,-77.563 1640.44,-84.1302"/>
</g>
<!-- Node39&#45;&gt;Node15 -->
<g id="edge75" class="edge"><title>Node39&#45;&gt;Node15</title>
<path fill="none" stroke="midnightblue" d="M1137.68,-430.623C1130.48,-399.191 1111.56,-295.939 1156,-232 1184.95,-190.352 1236.01,-158.835 1268.09,-141.922"/>
<polygon fill="midnightblue" stroke="midnightblue" points="1270.1,-144.827 1277.39,-137.146 1266.9,-138.6 1270.1,-144.827"/>
</g>
<!-- Node39&#45;&gt;Node18 -->
<g id="edge77" class="edge"><title>Node39&#45;&gt;Node18</title>
<path fill="none" stroke="midnightblue" d="M1086.73,-437.322C1008.01,-432.624 856.311,-420.73 730,-394 709.028,-389.562 565.471,-344.965 546,-336 501.752,-315.627 476.635,-320.595 453,-278 443.081,-260.123 447.771,-251.764 453,-232 468.171,-174.657 468.847,-147.671 519,-116 565.805,-86.4429 931.176,-74.878 1082.6,-71.3238"/>
<polygon fill="midnightblue" stroke="midnightblue" points="1082.78,-74.8207 1092.69,-71.0913 1082.61,-67.8226 1082.78,-74.8207"/>
</g>
<!-- Node39&#45;&gt;Node28 -->
<g id="edge82" class="edge"><title>Node39&#45;&gt;Node28</title>
<path fill="none" stroke="midnightblue" d="M1151.99,-430.723C1163.66,-421.598 1181.82,-407.159 1197,-394 1236.45,-359.809 1242.3,-346.694 1283,-314 1296.39,-303.246 1311.67,-292.324 1325.5,-282.902"/>
<polygon fill="midnightblue" stroke="midnightblue" points="1327.56,-285.736 1333.9,-277.244 1323.65,-279.931 1327.56,-285.736"/>
</g>
<!-- Node39&#45;&gt;Node29 -->
<g id="edge73" class="edge"><title>Node39&#45;&gt;Node29</title>
<path fill="none" stroke="midnightblue" d="M1086.84,-431.977C1011.91,-420.666 876.859,-400.281 809.497,-390.113"/>
<polygon fill="midnightblue" stroke="midnightblue" points="809.697,-386.603 799.287,-388.572 808.652,-393.525 809.697,-386.603"/>
</g>
<!-- Node39&#45;&gt;Node30 -->
<g id="edge81" class="edge"><title>Node39&#45;&gt;Node30</title>
<path fill="none" stroke="midnightblue" d="M1130.94,-430.615C1115.63,-415.423 1083,-385.763 1049,-372 990.172,-348.19 800.663,-333.315 723.33,-328.099"/>
<polygon fill="midnightblue" stroke="midnightblue" points="723.398,-324.595 713.188,-327.427 722.935,-331.58 723.398,-324.595"/>
</g>
<!-- Node39&#45;&gt;Node35 -->
<g id="edge72" class="edge"><title>Node39&#45;&gt;Node35</title>
<path fill="none" stroke="midnightblue" d="M1132.79,-430.931C1122.1,-417.637 1101.24,-392.242 1082,-372 1019.29,-306.041 938.837,-233.534 903.285,-202.057"/>
<polygon fill="midnightblue" stroke="midnightblue" points="905.446,-199.296 895.633,-195.302 900.814,-204.544 905.446,-199.296"/>
</g>
<!-- Node39&#45;&gt;Node38 -->
<g id="edge68" class="edge"><title>Node39&#45;&gt;Node38</title>
<path fill="none" stroke="midnightblue" d="M1114.91,-430.878C1089.22,-421.535 1049.09,-406.943 1020.44,-396.522"/>
<polygon fill="midnightblue" stroke="midnightblue" points="1021.41,-393.154 1010.82,-393.025 1019.02,-399.732 1021.41,-393.154"/>
</g>
<!-- Node39&#45;&gt;Node40 -->
<g id="edge78" class="edge"><title>Node39&#45;&gt;Node40</title>
<path fill="none" stroke="midnightblue" d="M1086.7,-436.476C935.303,-426.466 503.711,-397.931 349.021,-387.704"/>
<polygon fill="midnightblue" stroke="midnightblue" points="349.013,-384.196 338.804,-387.028 348.551,-391.181 349.013,-384.196"/>
</g>
<!-- Node40&#45;&gt;Node2 -->
<g id="edge79" class="edge"><title>Node40&#45;&gt;Node2</title>
<path fill="none" stroke="midnightblue" d="M268.117,-372.985C227.638,-356.533 152,-317.554 152,-256 152,-256 152,-256 152,-184 152,-151.951 151.688,-136.883 176,-116 204.444,-91.5679 307.467,-79.0237 369.553,-73.5449"/>
<polygon fill="midnightblue" stroke="midnightblue" points="370.228,-77.0002 379.895,-72.6641 369.634,-70.0254 370.228,-77.0002"/>
</g>
<!-- Node40&#45;&gt;Node35 -->
<g id="edge80" class="edge"><title>Node40&#45;&gt;Node35</title>
<path fill="none" stroke="midnightblue" d="M339.018,-373.481C411.407,-359.165 555.433,-326.957 670,-278 706.657,-262.335 710.767,-248.623 747,-232 779.198,-217.228 817.544,-204.833 845.633,-196.646"/>
<polygon fill="midnightblue" stroke="midnightblue" points="846.838,-199.942 855.488,-193.823 844.91,-193.212 846.838,-199.942"/>
</g>
<!-- Node41&#45;&gt;Node2 -->
<g id="edge94" class="edge"><title>Node41&#45;&gt;Node2</title>
<path fill="none" stroke="midnightblue" d="M1128.46,-562.555C1008.17,-546.937 691.24,-492.59 486,-336 407.776,-276.318 411.489,-139.938 415.862,-89.3509"/>
<polygon fill="midnightblue" stroke="midnightblue" points="419.367,-89.4612 416.857,-79.1681 412.401,-88.7802 419.367,-89.4612"/>
</g>
<!-- Node41&#45;&gt;Node3 -->
<g id="edge95" class="edge"><title>Node41&#45;&gt;Node3</title>
<path fill="none" stroke="midnightblue" d="M1225.48,-566.199C1305.96,-562.464 1471.87,-551.587 1609,-522 2105.14,-414.954 2398.54,-513.825 2662,-80 2667.08,-71.6426 2668.73,-65.0972 2662,-58 2635.27,-29.7959 2081.71,-16.9756 1879.84,-13.2256"/>
<polygon fill="midnightblue" stroke="midnightblue" points="1879.7,-9.72247 1869.64,-13.0382 1879.57,-16.7213 1879.7,-9.72247"/>
</g>
<!-- Node41&#45;&gt;Node5 -->
<g id="edge91" class="edge"><title>Node41&#45;&gt;Node5</title>
<path fill="none" stroke="midnightblue" d="M1225.47,-564.589C1293.97,-559.113 1422.73,-546.408 1530,-522 1983.04,-418.914 2489.72,-148.601 2606.9,-84.0091"/>
<polygon fill="midnightblue" stroke="midnightblue" points="2608.79,-86.9613 2615.85,-79.0577 2605.41,-80.8362 2608.79,-86.9613"/>
</g>
<!-- Node41&#45;&gt;Node10 -->
<g id="edge90" class="edge"><title>Node41&#45;&gt;Node10</title>
<path fill="none" stroke="midnightblue" d="M1225.51,-558.952C1262.11,-551.313 1313.17,-538.907 1356,-522 1386.16,-510.096 1458.14,-471.55 1484,-452 1541.66,-408.412 1552.98,-392.556 1598,-336 1656.7,-262.25 1662.86,-231.6 1674,-138 1675.94,-121.654 1674.3,-103.001 1672.39,-89.3712"/>
<polygon fill="midnightblue" stroke="midnightblue" points="1675.82,-88.5983 1670.8,-79.2643 1668.9,-89.6869 1675.82,-88.5983"/>
</g>
<!-- Node41&#45;&gt;Node28 -->
<g id="edge96" class="edge"><title>Node41&#45;&gt;Node28</title>
<path fill="none" stroke="midnightblue" d="M1225.6,-558.886C1278.66,-545.85 1359.71,-515.979 1387,-452 1410.33,-397.299 1392.75,-326.493 1379.06,-286.689"/>
<polygon fill="midnightblue" stroke="midnightblue" points="1382.27,-285.266 1375.6,-277.03 1375.68,-287.624 1382.27,-285.266"/>
</g>
<!-- Node41&#45;&gt;Node35 -->
<g id="edge92" class="edge"><title>Node41&#45;&gt;Node35</title>
<path fill="none" stroke="midnightblue" d="M1142.26,-558.956C1078.68,-540.323 944.976,-491.026 889,-394 853.682,-332.781 870.02,-243.62 879.68,-205.004"/>
<polygon fill="midnightblue" stroke="midnightblue" points="883.12,-205.683 882.289,-195.121 876.352,-203.896 883.12,-205.683"/>
</g>
<!-- Node41&#45;&gt;Node37 -->
<g id="edge93" class="edge"><title>Node41&#45;&gt;Node37</title>
<path fill="none" stroke="midnightblue" d="M1188.21,-558.852C1200.23,-549.053 1219.5,-533.327 1233.91,-521.573"/>
<polygon fill="midnightblue" stroke="midnightblue" points="1236.2,-524.219 1241.74,-515.186 1231.78,-518.795 1236.2,-524.219"/>
</g>
<!-- Node41&#45;&gt;Node38 -->
<g id="edge89" class="edge"><title>Node41&#45;&gt;Node38</title>
<path fill="none" stroke="midnightblue" d="M1171.26,-558.8C1160.88,-542.738 1137.56,-509.269 1111,-488 1083.38,-465.887 1067.41,-474.369 1040,-452 1022.56,-437.77 1007.1,-417.01 997.236,-402.176"/>
<polygon fill="midnightblue" stroke="midnightblue" points="999.952,-399.93 991.599,-393.412 994.065,-403.716 999.952,-399.93"/>
</g>
<!-- Node42&#45;&gt;Node2 -->
<g id="edge98" class="edge"><title>Node42&#45;&gt;Node2</title>
<path fill="none" stroke="midnightblue" d="M752.651,-560.302C747.377,-559.492 742.075,-558.708 737,-558 669.187,-548.547 487.943,-560.02 431,-522 367.454,-479.571 390.242,-434.995 347,-372 316.277,-327.242 293.109,-326.641 269,-278 248.133,-235.9 246.387,-220.848 250,-174 252.006,-147.991 241.769,-135.585 259,-116 286.556,-84.6804 333.989,-74.0895 369.895,-70.7894"/>
<polygon fill="midnightblue" stroke="midnightblue" points="370.453,-74.2572 380.16,-70.0123 369.925,-67.2772 370.453,-74.2572"/>
</g>
<!-- Node42&#45;&gt;Node7 -->
<g id="edge99" class="edge"><title>Node42&#45;&gt;Node7</title>
<path fill="none" stroke="midnightblue" d="M845.073,-564.448C962.811,-555.291 1268.65,-530.974 1314,-522 1339.68,-516.918 1514.02,-459.844 1539,-452 1620.4,-426.438 1642.67,-425.406 1722,-394 1777.45,-372.048 1799.67,-376.975 1843,-336 1900.48,-281.646 1928.78,-187.411 1938.72,-147.141"/>
<polygon fill="midnightblue" stroke="midnightblue" points="1942.15,-147.829 1941.04,-137.292 1935.34,-146.22 1942.15,-147.829"/>
</g>
<!-- Node42&#45;&gt;Node10 -->
<g id="edge102" class="edge"><title>Node42&#45;&gt;Node10</title>
<path fill="none" stroke="midnightblue" d="M844.585,-558.981C846.413,-558.645 848.223,-558.317 850,-558 949.267,-540.297 977.394,-550.888 1074,-522 1349.92,-439.49 1594.75,-160.161 1654.91,-87.43"/>
<polygon fill="midnightblue" stroke="midnightblue" points="1657.97,-89.2161 1661.6,-79.2632 1652.55,-84.7789 1657.97,-89.2161"/>
</g>
<!-- Node42&#45;&gt;Node13 -->
<g id="edge104" class="edge"><title>Node42&#45;&gt;Node13</title>
<path fill="none" stroke="midnightblue" d="M752.633,-560.425C747.362,-559.593 742.066,-558.769 737,-558 680.854,-549.478 521.525,-564.624 484,-522 364.322,-386.061 376.588,-227.897 519,-116 560.049,-83.7463 1405.92,-83.5735 1458,-80 1472.07,-79.0343 1487.23,-77.6945 1501.4,-76.309"/>
<polygon fill="midnightblue" stroke="midnightblue" points="1501.92,-79.7746 1511.52,-75.2968 1501.22,-72.8094 1501.92,-79.7746"/>
</g>
<!-- Node42&#45;&gt;Node25 -->
<g id="edge107" class="edge"><title>Node42&#45;&gt;Node25</title>
<path fill="none" stroke="midnightblue" d="M790.549,-558.893C764.811,-530.012 691.432,-438.459 730,-372 746.187,-344.107 766.828,-354.843 793,-336 853.041,-292.773 916.103,-231.503 944.922,-202.475"/>
<polygon fill="midnightblue" stroke="midnightblue" points="947.581,-204.763 952.111,-195.185 942.597,-199.848 947.581,-204.763"/>
</g>
<!-- Node42&#45;&gt;Node28 -->
<g id="edge105" class="edge"><title>Node42&#45;&gt;Node28</title>
<path fill="none" stroke="midnightblue" d="M842.814,-558.945C934.326,-539.467 1142.22,-492.103 1202,-452 1268.56,-407.351 1323.16,-328.457 1349.67,-285.642"/>
<polygon fill="midnightblue" stroke="midnightblue" points="1352.67,-287.439 1354.89,-277.079 1346.7,-283.793 1352.67,-287.439"/>
</g>
<!-- Node42&#45;&gt;Node30 -->
<g id="edge108" class="edge"><title>Node42&#45;&gt;Node30</title>
<path fill="none" stroke="midnightblue" d="M752.821,-560.25C748.153,-559.483 743.483,-558.721 739,-558 687.49,-549.711 540.946,-561.619 507,-522 462.254,-469.775 490.209,-413.565 545,-372 578.176,-346.832 625.491,-335.217 656.943,-330.007"/>
<polygon fill="midnightblue" stroke="midnightblue" points="657.602,-333.447 666.958,-328.475 656.544,-326.527 657.602,-333.447"/>
</g>
<!-- Node42&#45;&gt;Node31 -->
<g id="edge106" class="edge"><title>Node42&#45;&gt;Node31</title>
<path fill="none" stroke="midnightblue" d="M754.662,-558.917C705.169,-548.412 630.704,-531.364 621,-522 578.296,-480.794 591.533,-452.726 583,-394 581.594,-384.324 577.015,-379.732 583,-372 622.06,-321.534 663.819,-362.219 722,-336 764.032,-317.059 786.355,-318.705 808,-278 820.388,-254.704 810.558,-223.845 801.753,-204.455"/>
<polygon fill="midnightblue" stroke="midnightblue" points="804.776,-202.669 797.24,-195.222 798.487,-205.743 804.776,-202.669"/>
</g>
<!-- Node42&#45;&gt;Node35 -->
<g id="edge100" class="edge"><title>Node42&#45;&gt;Node35</title>
<path fill="none" stroke="midnightblue" d="M753.019,-558.947C716.692,-550.751 670.29,-537.594 659,-522 619.903,-468.001 620.331,-426.306 659,-372 687.371,-332.156 721.114,-361.26 763,-336 795.312,-316.514 800.74,-306.901 825,-278 845.045,-254.12 863.96,-223.216 875.011,-204.001"/>
<polygon fill="midnightblue" stroke="midnightblue" points="878.16,-205.544 880.039,-195.117 872.067,-202.097 878.16,-205.544"/>
</g>
<!-- Node42&#45;&gt;Node37 -->
<g id="edge110" class="edge"><title>Node42&#45;&gt;Node37</title>
<path fill="none" stroke="midnightblue" d="M845.158,-560.108C849.829,-559.369 854.506,-558.653 859,-558 987.528,-539.32 1020.36,-539.876 1149,-522 1162.41,-520.137 1176.77,-518.011 1190.41,-515.932"/>
<polygon fill="midnightblue" stroke="midnightblue" points="1191.32,-519.333 1200.67,-514.355 1190.25,-512.414 1191.32,-519.333"/>
</g>
<!-- Node42&#45;&gt;Node38 -->
<g id="edge101" class="edge"><title>Node42&#45;&gt;Node38</title>
<path fill="none" stroke="midnightblue" d="M808.273,-558.875C837.996,-529.629 931.172,-437.948 969.392,-400.342"/>
<polygon fill="midnightblue" stroke="midnightblue" points="971.997,-402.688 976.671,-393.18 967.088,-397.699 971.997,-402.688"/>
</g>
<!-- Node42&#45;&gt;Node39 -->
<g id="edge109" class="edge"><title>Node42&#45;&gt;Node39</title>
<path fill="none" stroke="midnightblue" d="M823.524,-558.938C883.346,-536.834 1036.89,-480.1 1105.72,-454.666"/>
<polygon fill="midnightblue" stroke="midnightblue" points="1107.07,-457.898 1115.24,-451.149 1104.65,-451.332 1107.07,-457.898"/>
</g>
<!-- Node42&#45;&gt;Node40 -->
<g id="edge103" class="edge"><title>Node42&#45;&gt;Node40</title>
<path fill="none" stroke="midnightblue" d="M752.855,-560.015C748.181,-559.295 743.5,-558.609 739,-558 662.393,-547.641 456.941,-565.444 393,-522 354.853,-496.081 373.412,-466.329 345,-430 336.066,-418.577 324.044,-407.731 313.81,-399.442"/>
<polygon fill="midnightblue" stroke="midnightblue" points="315.773,-396.534 305.741,-393.125 311.457,-402.045 315.773,-396.534"/>
</g>
<!-- Node46&#45;&gt;Node2 -->
<g id="edge118" class="edge"><title>Node46&#45;&gt;Node2</title>
<path fill="none" stroke="midnightblue" d="M695.259,-625.403C597.358,-622.658 214.8,-610.073 171,-580 91.1961,-525.206 76,-480.804 76,-384 76,-384 76,-384 76,-184 76,-151.951 75.2328,-136.341 100,-116 140.328,-82.8799 291.568,-73.6009 370.058,-71.0053"/>
<polygon fill="midnightblue" stroke="midnightblue" points="370.285,-74.5001 380.173,-70.6946 370.07,-67.5034 370.285,-74.5001"/>
</g>
<!-- Node46&#45;&gt;Node6 -->
<g id="edge124" class="edge"><title>Node46&#45;&gt;Node6</title>
<path fill="none" stroke="midnightblue" d="M740.508,-617.968C743.339,-617.187 746.217,-616.501 749,-616 944.546,-580.826 1568.47,-572.188 1747.53,-570.409"/>
<polygon fill="midnightblue" stroke="midnightblue" points="1747.73,-573.907 1757.69,-570.311 1747.66,-566.908 1747.73,-573.907"/>
</g>
<!-- Node46&#45;&gt;Node7 -->
<g id="edge119" class="edge"><title>Node46&#45;&gt;Node7</title>
<path fill="none" stroke="midnightblue" d="M740.503,-617.938C743.334,-617.162 746.214,-616.485 749,-616 988.634,-574.256 1600.22,-594.966 1843,-580 1985.76,-571.2 2387.53,-627.594 2484,-522 2654.05,-335.865 2147.16,-182.206 1988.71,-139.694"/>
<polygon fill="midnightblue" stroke="midnightblue" points="1989.36,-136.243 1978.79,-137.056 1987.56,-143.008 1989.36,-136.243"/>
</g>
<!-- Node46&#45;&gt;Node23 -->
<g id="edge127" class="edge"><title>Node46&#45;&gt;Node23</title>
<path fill="none" stroke="midnightblue" d="M740.571,-618.267C743.39,-617.435 746.249,-616.654 749,-616 1026.98,-549.868 1102.55,-565.211 1385,-522 1398.43,-519.945 1412.91,-517.563 1426.39,-515.275"/>
<polygon fill="midnightblue" stroke="midnightblue" points="1427.2,-518.688 1436.47,-513.551 1426.02,-511.788 1427.2,-518.688"/>
</g>
<!-- Node46&#45;&gt;Node37 -->
<g id="edge120" class="edge"><title>Node46&#45;&gt;Node37</title>
<path fill="none" stroke="midnightblue" d="M740.55,-618.574C776.367,-606.749 843.323,-584.508 854,-580 873.776,-571.65 876.539,-564.496 897,-558 1004.83,-523.767 1037.09,-538.602 1149,-522 1162.39,-520.013 1176.75,-517.836 1190.38,-515.745"/>
<polygon fill="midnightblue" stroke="midnightblue" points="1191.29,-519.147 1200.64,-514.167 1190.23,-512.228 1191.29,-519.147"/>
</g>
<!-- Node46&#45;&gt;Node40 -->
<g id="edge123" class="edge"><title>Node46&#45;&gt;Node40</title>
<path fill="none" stroke="midnightblue" d="M695.526,-625.71C601.406,-624.267 242.254,-616.395 209,-580 183.353,-551.931 132.23,-609.108 241,-430 248.332,-417.927 259.848,-407.268 270.18,-399.258"/>
<polygon fill="midnightblue" stroke="midnightblue" points="272.472,-401.918 278.464,-393.18 268.331,-396.274 272.472,-401.918"/>
</g>
<!-- Node46&#45;&gt;Node41 -->
<g id="edge121" class="edge"><title>Node46&#45;&gt;Node41</title>
<path fill="none" stroke="midnightblue" d="M740.542,-618.138C743.366,-617.328 746.234,-616.588 749,-616 879.212,-588.307 1035.44,-576.881 1118.43,-572.492"/>
<polygon fill="midnightblue" stroke="midnightblue" points="1118.87,-575.975 1128.67,-571.967 1118.51,-568.984 1118.87,-575.975"/>
</g>
<!-- Node46&#45;&gt;Node42 -->
<g id="edge122" class="edge"><title>Node46&#45;&gt;Node42</title>
<path fill="none" stroke="midnightblue" d="M731.376,-616.753C743.878,-608.109 762.764,-595.052 777.403,-584.931"/>
<polygon fill="midnightblue" stroke="midnightblue" points="779.638,-587.641 785.873,-579.075 775.657,-581.883 779.638,-587.641"/>
</g>
<!-- Node46&#45;&gt;Node43 -->
<g id="edge125" class="edge"><title>Node46&#45;&gt;Node43</title>
<path fill="none" stroke="midnightblue" d="M695.393,-623.626C637.332,-617.461 478.03,-600.109 334.704,-580.196"/>
<polygon fill="midnightblue" stroke="midnightblue" points="334.802,-576.675 324.413,-578.758 333.833,-583.608 334.802,-576.675"/>
</g>
<!-- Node46&#45;&gt;Node44 -->
<g id="edge126" class="edge"><title>Node46&#45;&gt;Node44</title>
<path fill="none" stroke="midnightblue" d="M695.202,-619.245C664.109,-610.032 607.891,-593.375 569.527,-582.008"/>
<polygon fill="midnightblue" stroke="midnightblue" points="570.283,-578.582 559.7,-579.096 568.294,-585.293 570.283,-578.582"/>
</g>
<!-- Node46&#45;&gt;Node45 -->
<g id="edge128" class="edge"><title>Node46&#45;&gt;Node45</title>
<path fill="none" stroke="midnightblue" d="M695.314,-622.018C646.948,-613.527 532.272,-593.396 460.601,-580.814"/>
<polygon fill="midnightblue" stroke="midnightblue" points="460.807,-577.297 450.352,-579.015 459.596,-584.191 460.807,-577.297"/>
</g>
<!-- Node47&#45;&gt;Node2 -->
<g id="edge130" class="edge"><title>Node47&#45;&gt;Node2</title>
<path fill="none" stroke="midnightblue" d="M958.711,-616.937C932.699,-583.43 848.113,-463.754 889,-372 920.384,-301.572 1018,-333.104 1018,-256 1018,-256 1018,-256 1018,-184 1018,-127.948 608.626,-86.7136 466.171,-74.0618"/>
<polygon fill="midnightblue" stroke="midnightblue" points="466.256,-70.5559 455.988,-73.1659 465.643,-77.529 466.256,-70.5559"/>
</g>
<!-- Node47&#45;&gt;Node6 -->
<g id="edge136" class="edge"><title>Node47&#45;&gt;Node6</title>
<path fill="none" stroke="midnightblue" d="M1034.63,-621.37C1197.94,-610.351 1606.52,-582.784 1747.37,-573.281"/>
<polygon fill="midnightblue" stroke="midnightblue" points="1747.69,-576.768 1757.43,-572.602 1747.22,-569.783 1747.69,-576.768"/>
</g>
<!-- Node47&#45;&gt;Node7 -->
<g id="edge131" class="edge"><title>Node47&#45;&gt;Node7</title>
<path fill="none" stroke="midnightblue" d="M1034.79,-623.502C1093.75,-621.392 1180.96,-618.349 1257,-616 1293.47,-614.873 2544.56,-606.151 2570,-580 2627.45,-520.958 2525.59,-248.915 2418,-174 2385.6,-151.436 2138.04,-136.968 2013.74,-131.052"/>
<polygon fill="midnightblue" stroke="midnightblue" points="2013.71,-127.547 2003.56,-130.573 2013.38,-134.539 2013.71,-127.547"/>
</g>
<!-- Node47&#45;&gt;Node23 -->
<g id="edge139" class="edge"><title>Node47&#45;&gt;Node23</title>
<path fill="none" stroke="midnightblue" d="M1034.85,-622.73C1135.87,-617.194 1318.88,-604.148 1380,-580 1412.88,-567.008 1444.45,-540.086 1462.77,-522.547"/>
<polygon fill="midnightblue" stroke="midnightblue" points="1465.53,-524.738 1470.21,-515.232 1460.63,-519.745 1465.53,-524.738"/>
</g>
<!-- Node47&#45;&gt;Node37 -->
<g id="edge132" class="edge"><title>Node47&#45;&gt;Node37</title>
<path fill="none" stroke="midnightblue" d="M985.817,-616.922C1015.03,-603.617 1071.43,-578.208 1120,-558 1153.64,-544.005 1192.48,-528.943 1219.47,-518.65"/>
<polygon fill="midnightblue" stroke="midnightblue" points="1220.75,-521.91 1228.85,-515.084 1218.26,-515.367 1220.75,-521.91"/>
</g>
<!-- Node47&#45;&gt;Node40 -->
<g id="edge135" class="edge"><title>Node47&#45;&gt;Node40</title>
<path fill="none" stroke="midnightblue" d="M906.243,-616.998C842.687,-607.107 746.517,-591.147 711,-580 688.61,-572.973 685.638,-564.185 663,-558 588.429,-537.625 373.502,-574.758 317,-522 284.218,-491.39 286.214,-433.256 289.893,-403.146"/>
<polygon fill="midnightblue" stroke="midnightblue" points="293.379,-403.486 291.316,-393.095 286.448,-402.505 293.379,-403.486"/>
</g>
<!-- Node47&#45;&gt;Node41 -->
<g id="edge133" class="edge"><title>Node47&#45;&gt;Node41</title>
<path fill="none" stroke="midnightblue" d="M1000.37,-616.878C1036.57,-607.27 1093.69,-592.11 1133.12,-581.645"/>
<polygon fill="midnightblue" stroke="midnightblue" points="1134.23,-584.973 1142.99,-579.025 1132.43,-578.208 1134.23,-584.973"/>
</g>
<!-- Node47&#45;&gt;Node42 -->
<g id="edge134" class="edge"><title>Node47&#45;&gt;Node42</title>
<path fill="none" stroke="midnightblue" d="M938.797,-616.878C910.691,-607.453 866.658,-592.688 835.531,-582.25"/>
<polygon fill="midnightblue" stroke="midnightblue" points="836.509,-578.886 825.915,-579.025 834.283,-585.523 836.509,-578.886"/>
</g>
<!-- Node47&#45;&gt;Node43 -->
<g id="edge137" class="edge"><title>Node47&#45;&gt;Node43</title>
<path fill="none" stroke="midnightblue" d="M897.543,-616.977C894.319,-616.629 891.126,-616.301 888,-616 645.2,-592.585 580.328,-607.311 334.347,-580.057"/>
<polygon fill="midnightblue" stroke="midnightblue" points="334.717,-576.577 324.39,-578.942 333.938,-583.533 334.717,-576.577"/>
</g>
<!-- Node47&#45;&gt;Node44 -->
<g id="edge138" class="edge"><title>Node47&#45;&gt;Node44</title>
<path fill="none" stroke="midnightblue" d="M897.097,-617.166C894.022,-616.772 890.979,-616.382 888,-616 785.082,-602.809 665.566,-587.496 593.686,-578.287"/>
<polygon fill="midnightblue" stroke="midnightblue" points="593.798,-574.773 583.434,-576.974 592.908,-581.716 593.798,-574.773"/>
</g>
<!-- Node47&#45;&gt;Node45 -->
<g id="edge140" class="edge"><title>Node47&#45;&gt;Node45</title>
<path fill="none" stroke="midnightblue" d="M897.115,-617.008C894.036,-616.656 890.987,-616.319 888,-616 704.025,-596.368 654.635,-601.711 466.301,-579.962"/>
<polygon fill="midnightblue" stroke="midnightblue" points="466.688,-576.483 456.35,-578.803 465.878,-583.436 466.688,-576.483"/>
</g>
<!-- Node48&#45;&gt;Node2 -->
<g id="edge142" class="edge"><title>Node48&#45;&gt;Node2</title>
<path fill="none" stroke="midnightblue" d="M758.231,-617.303C719.073,-610.33 667.69,-598.575 625,-580 608.837,-572.967 608.569,-564.014 592,-558 452.9,-507.513 384.197,-603.977 261,-522 148.547,-447.172 114,-391.074 114,-256 114,-256 114,-256 114,-184 114,-148.709 125.887,-135.947 155,-116 189.164,-92.5924 303.773,-79.4503 369.878,-73.6474"/>
<polygon fill="midnightblue" stroke="midnightblue" points="370.386,-77.1169 380.052,-72.7786 369.79,-70.1423 370.386,-77.1169"/>
</g>
<!-- Node48&#45;&gt;Node6 -->
<g id="edge148" class="edge"><title>Node48&#45;&gt;Node6</title>
<path fill="none" stroke="midnightblue" d="M878.798,-616.985C881.907,-616.626 884.988,-616.294 888,-616 1215.26,-584.066 1611.18,-573.644 1747.3,-570.869"/>
<polygon fill="midnightblue" stroke="midnightblue" points="1747.48,-574.367 1757.41,-570.668 1747.34,-567.368 1747.48,-574.367"/>
</g>
<!-- Node48&#45;&gt;Node7 -->
<g id="edge143" class="edge"><title>Node48&#45;&gt;Node7</title>
<path fill="none" stroke="midnightblue" d="M878.041,-616.96C881.406,-616.595 884.743,-616.271 888,-616 933.521,-612.217 2500.06,-612.651 2532,-580 2589.53,-521.195 2487.91,-249.812 2380,-174 2322.63,-133.694 2122.33,-127.554 2013.95,-127.296"/>
<polygon fill="midnightblue" stroke="midnightblue" points="2013.76,-123.796 2003.75,-127.288 2013.75,-130.796 2013.76,-123.796"/>
</g>
<!-- Node48&#45;&gt;Node23 -->
<g id="edge151" class="edge"><title>Node48&#45;&gt;Node23</title>
<path fill="none" stroke="midnightblue" d="M879.563,-617.082C882.414,-616.707 885.237,-616.344 888,-616 1041.42,-596.908 1082.43,-610.489 1234,-580 1310.9,-564.531 1398.26,-535.204 1445.07,-518.49"/>
<polygon fill="midnightblue" stroke="midnightblue" points="1446.48,-521.704 1454.7,-515.025 1444.11,-515.117 1446.48,-521.704"/>
</g>
<!-- Node48&#45;&gt;Node37 -->
<g id="edge144" class="edge"><title>Node48&#45;&gt;Node37</title>
<path fill="none" stroke="midnightblue" d="M851.621,-616.98C929.082,-595.563 1124.06,-541.652 1210.55,-517.738"/>
<polygon fill="midnightblue" stroke="midnightblue" points="1211.59,-521.081 1220.3,-515.042 1209.73,-514.334 1211.59,-521.081"/>
</g>
<!-- Node48&#45;&gt;Node40 -->
<g id="edge147" class="edge"><title>Node48&#45;&gt;Node40</title>
<path fill="none" stroke="midnightblue" d="M786.417,-616.997C756.563,-608.452 711.318,-594.752 673,-580 651.1,-571.569 647.638,-564.185 625,-558 550.429,-537.625 330.756,-579.421 279,-522 249.146,-488.878 269.804,-431.472 283.521,-402.241"/>
<polygon fill="midnightblue" stroke="midnightblue" points="286.714,-403.68 287.989,-393.162 280.433,-400.589 286.714,-403.68"/>
</g>
<!-- Node48&#45;&gt;Node41 -->
<g id="edge145" class="edge"><title>Node48&#45;&gt;Node41</title>
<path fill="none" stroke="midnightblue" d="M876.917,-616.94C943.457,-606.532 1052.02,-589.55 1118.71,-579.117"/>
<polygon fill="midnightblue" stroke="midnightblue" points="1119.3,-582.568 1128.64,-577.564 1118.22,-575.652 1119.3,-582.568"/>
</g>
<!-- Node48&#45;&gt;Node42 -->
<g id="edge146" class="edge"><title>Node48&#45;&gt;Node42</title>
<path fill="none" stroke="midnightblue" d="M815.697,-616.753C812.989,-609.169 809.067,-598.188 805.705,-588.774"/>
<polygon fill="midnightblue" stroke="midnightblue" points="808.901,-587.315 802.241,-579.075 802.308,-589.67 808.901,-587.315"/>
</g>
<!-- Node48&#45;&gt;Node43 -->
<g id="edge149" class="edge"><title>Node48&#45;&gt;Node43</title>
<path fill="none" stroke="midnightblue" d="M758.32,-617.121C755.17,-616.726 752.049,-616.349 749,-616 567.868,-595.241 518.886,-602.521 334.431,-580.101"/>
<polygon fill="midnightblue" stroke="midnightblue" points="334.751,-576.614 324.399,-578.868 333.897,-583.562 334.751,-576.614"/>
</g>
<!-- Node48&#45;&gt;Node44 -->
<g id="edge150" class="edge"><title>Node48&#45;&gt;Node44</title>
<path fill="none" stroke="midnightblue" d="M772.084,-616.94C721.227,-607.12 640.064,-591.447 585.678,-580.945"/>
<polygon fill="midnightblue" stroke="midnightblue" points="586.331,-577.506 575.848,-579.047 585.003,-584.379 586.331,-577.506"/>
</g>
<!-- Node48&#45;&gt;Node45 -->
<g id="edge152" class="edge"><title>Node48&#45;&gt;Node45</title>
<path fill="none" stroke="midnightblue" d="M758.302,-617.271C755.156,-616.836 752.041,-616.411 749,-616 626.539,-599.465 593.27,-597.454 466.474,-580.039"/>
<polygon fill="midnightblue" stroke="midnightblue" points="466.755,-576.545 456.37,-578.646 465.799,-583.479 466.755,-576.545"/>
</g>
<!-- Node49&#45;&gt;Node2 -->
<g id="edge154" class="edge"><title>Node49&#45;&gt;Node2</title>
<path fill="none" stroke="midnightblue" d="M1265.46,-620.643C1221.38,-615.03 1165.09,-603.536 1120,-580 1012.96,-524.132 969.941,-504.813 922,-394 918.118,-385.026 917.928,-380.889 922,-372 925.33,-364.73 1024.97,-283.252 1031,-278 1042.16,-268.278 1056,-270.801 1056,-256 1056,-256 1056,-256 1056,-184 1056,-172.247 1266.8,-208.217 885,-116 735.049,-79.7817 551.43,-71.9754 465.986,-70.3656"/>
<polygon fill="midnightblue" stroke="midnightblue" points="465.874,-66.8633 455.817,-70.1949 465.757,-73.8623 465.874,-66.8633"/>
</g>
<!-- Node49&#45;&gt;Node6 -->
<g id="edge164" class="edge"><title>Node49&#45;&gt;Node6</title>
<path fill="none" stroke="midnightblue" d="M1410.57,-617.127C1504.72,-605.616 1666.43,-585.843 1747.16,-575.971"/>
<polygon fill="midnightblue" stroke="midnightblue" points="1748.03,-579.391 1757.53,-574.703 1747.18,-572.443 1748.03,-579.391"/>
</g>
<!-- Node49&#45;&gt;Node7 -->
<g id="edge155" class="edge"><title>Node49&#45;&gt;Node7</title>
<path fill="none" stroke="midnightblue" d="M1410.88,-626.121C1674.66,-626.205 2566.26,-623.275 2608,-580 2665.23,-520.66 2562.77,-247.784 2456,-174 2420.47,-149.444 2146.34,-135.751 2014.02,-130.512"/>
<polygon fill="midnightblue" stroke="midnightblue" points="2014.1,-127.013 2003.97,-130.12 2013.83,-134.008 2014.1,-127.013"/>
</g>
<!-- Node49&#45;&gt;Node37 -->
<g id="edge156" class="edge"><title>Node49&#45;&gt;Node37</title>
<path fill="none" stroke="midnightblue" d="M1331.61,-616.98C1317.58,-597.174 1283.87,-549.581 1265.48,-523.619"/>
<polygon fill="midnightblue" stroke="midnightblue" points="1268.1,-521.261 1259.46,-515.124 1262.39,-525.308 1268.1,-521.261"/>
</g>
<!-- Node49&#45;&gt;Node40 -->
<g id="edge159" class="edge"><title>Node49&#45;&gt;Node40</title>
<path fill="none" stroke="midnightblue" d="M1265.5,-623.948C1129.27,-619.506 840.123,-607.131 744,-580 723.34,-574.169 721.573,-564.132 701,-558 628.823,-536.488 426.117,-564.59 364,-522 322.636,-493.64 303.888,-433.562 296.735,-402.885"/>
<polygon fill="midnightblue" stroke="midnightblue" points="300.138,-402.061 294.604,-393.027 293.296,-403.54 300.138,-402.061"/>
</g>
<!-- Node49&#45;&gt;Node41 -->
<g id="edge157" class="edge"><title>Node49&#45;&gt;Node41</title>
<path fill="none" stroke="midnightblue" d="M1311.77,-616.878C1284.8,-607.494 1242.59,-592.815 1212.61,-582.386"/>
<polygon fill="midnightblue" stroke="midnightblue" points="1213.54,-579.005 1202.95,-579.025 1211.24,-585.616 1213.54,-579.005"/>
</g>
<!-- Node49&#45;&gt;Node42 -->
<g id="edge158" class="edge"><title>Node49&#45;&gt;Node42</title>
<path fill="none" stroke="midnightblue" d="M1265.31,-618.448C1156.52,-607.145 953.643,-586.067 855.313,-575.851"/>
<polygon fill="midnightblue" stroke="midnightblue" points="855.584,-572.36 845.275,-574.808 854.86,-579.323 855.584,-572.36"/>
</g>
<!-- Node50 -->
<g id="node50" class="node"><title>Node50</title>
<g id="a_node50"><a xlink:href="Enum_8h.html" target="_top" xlink:title="Handle read/write of Model data from/to files. ">
<polygon fill="none" stroke="red" points="1311.77,-175 1311.77,-195 1362.23,-195 1362.23,-175 1311.77,-175"/>
<text text-anchor="middle" x="1337" y="-181" font-family="Helvetica,sans-Serif" font-size="10.00">Enum.h</text>
</a>
</g>
</g>
<!-- Node49&#45;&gt;Node50 -->
<g id="edge160" class="edge"><title>Node49&#45;&gt;Node50</title>
<path fill="none" stroke="midnightblue" d="M1377.71,-616.965C1423.28,-604.272 1496.1,-576.36 1530,-522 1598.25,-412.574 1620.49,-332.766 1540,-232 1519.43,-206.245 1425.09,-193.837 1372.56,-188.832"/>
<polygon fill="midnightblue" stroke="midnightblue" points="1372.62,-185.323 1362.34,-187.902 1371.98,-192.294 1372.62,-185.323"/>
</g>
<!-- Node50&#45;&gt;Node2 -->
<g id="edge161" class="edge"><title>Node50&#45;&gt;Node2</title>
<path fill="none" stroke="midnightblue" d="M1320.17,-174.919C1290.85,-159.61 1228.08,-129.057 1171,-116 1036.01,-85.1185 610.261,-73.8684 466.195,-70.8885"/>
<polygon fill="midnightblue" stroke="midnightblue" points="465.986,-67.3836 455.917,-70.6801 465.844,-74.3822 465.986,-67.3836"/>
</g>
<!-- Node50&#45;&gt;Node7 -->
<g id="edge162" class="edge"><title>Node50&#45;&gt;Node7</title>
<path fill="none" stroke="midnightblue" d="M1362.27,-181.665C1449.05,-173.646 1736.99,-147.037 1871.99,-134.562"/>
<polygon fill="midnightblue" stroke="midnightblue" points="1872.58,-138.022 1882.22,-133.617 1871.94,-131.052 1872.58,-138.022"/>
</g>
<!-- Node50&#45;&gt;Node15 -->
<g id="edge163" class="edge"><title>Node50&#45;&gt;Node15</title>
<path fill="none" stroke="midnightblue" d="M1330.39,-174.753C1324.69,-166.761 1316.28,-154.998 1309.34,-145.27"/>
<polygon fill="midnightblue" stroke="midnightblue" points="1312.14,-143.178 1303.48,-137.075 1306.45,-147.247 1312.14,-143.178"/>
</g>
</g>
</svg>
