<?xml version="1.0" encoding="UTF-8" standalone="no"?>
<!DOCTYPE svg PUBLIC "-//W3C//DTD SVG 1.1//EN"
 "http://www.w3.org/Graphics/SVG/1.1/DTD/svg11.dtd">
<!-- Generated by graphviz version 2.36.0 (20140111.2315)
 -->
<!-- Title: TraverseHelper.h Pages: 1 -->
<svg width="3315pt" height="746pt"
 viewBox="0.00 0.00 3315.00 746.00" xmlns="http://www.w3.org/2000/svg" xmlns:xlink="http://www.w3.org/1999/xlink">
<g id="graph0" class="graph" transform="scale(1 1) rotate(0) translate(4 742)">
<title>TraverseHelper.h</title>
<!-- Node1 -->
<g id="node1" class="node"><title>Node1</title>
<polygon fill="#bfbfbf" stroke="black" points="1764.83,-719 1764.83,-737 1857.17,-737 1857.17,-719 1764.83,-719"/>
<text text-anchor="middle" x="1811" y="-725" font-family="Helvetica,sans-Serif" font-size="10.00">TraverseHelper.h</text>
</g>
<!-- Node2 -->
<g id="node2" class="node"><title>Node2</title>
<g id="a_node2"><a xlink:href="config_8h_source.html" target="_top" xlink:title="RMF/config.h">
<polygon fill="none" stroke="black" points="1860.27,-66 1860.27,-84 1935.73,-84 1935.73,-66 1860.27,-66"/>
<text text-anchor="middle" x="1898" y="-72" font-family="Helvetica,sans-Serif" font-size="10.00">RMF/config.h</text>
</a>
</g>
</g>
<!-- Node1&#45;&gt;Node2 -->
<g id="edge1" class="edge"><title>Node1&#45;&gt;Node2</title>
<path fill="none" stroke="midnightblue" d="M1857.31,-725.329C2081.11,-716.957 3040,-677.551 3040,-617 3040,-617 3040,-617 3040,-195 3040,-139.104 2163.11,-89.7936 1946.12,-78.4472"/>
<polygon fill="midnightblue" stroke="midnightblue" points="1946.16,-74.945 1936,-77.9205 1945.8,-81.9355 1946.16,-74.945"/>
</g>
<!-- Node4 -->
<g id="node4" class="node"><title>Node4</title>
<g id="a_node4"><a xlink:href="CoordinateTransformer_8h.html" target="_top" xlink:title="Declare the RMF::CoordinateTransformer class. ">
<polygon fill="none" stroke="black" points="3067.6,-607 3067.6,-625 3194.4,-625 3194.4,-607 3067.6,-607"/>
<text text-anchor="middle" x="3131" y="-613" font-family="Helvetica,sans-Serif" font-size="10.00">CoordinateTransformer.h</text>
</a>
</g>
</g>
<!-- Node1&#45;&gt;Node4 -->
<g id="edge3" class="edge"><title>Node1&#45;&gt;Node4</title>
<path fill="none" stroke="midnightblue" d="M1857.34,-727.107C2069.28,-727.357 2940.88,-725.697 3054,-682 3080.16,-671.894 3103.75,-648.955 3117.73,-633.219"/>
<polygon fill="midnightblue" stroke="midnightblue" points="3120.63,-635.22 3124.47,-625.345 3115.31,-630.67 3120.63,-635.22"/>
</g>
<!-- Node29 -->
<g id="node29" class="node"><title>Node29</title>
<g id="a_node29"><a xlink:href="Nullable_8h.html" target="_top" xlink:title="A helper class for allowing nice return of possibly null values. ">
<polygon fill="none" stroke="black" points="764.764,-355 764.764,-373 825.236,-373 825.236,-355 764.764,-355"/>
<text text-anchor="middle" x="795" y="-361" font-family="Helvetica,sans-Serif" font-size="10.00">Nullable.h</text>
</a>
</g>
</g>
<!-- Node1&#45;&gt;Node29 -->
<g id="edge37" class="edge"><title>Node1&#45;&gt;Node29</title>
<path fill="none" stroke="midnightblue" d="M1764.69,-726.098C1594.6,-722.586 1010.14,-708.678 931,-682 889.18,-667.903 873.473,-662.725 849,-626 796.596,-547.363 793.437,-428.091 794.302,-383.061"/>
<polygon fill="midnightblue" stroke="midnightblue" points="797.801,-383.162 794.59,-373.065 790.804,-382.96 797.801,-383.162"/>
</g>
<!-- Node36 -->
<g id="node36" class="node"><title>Node36</title>
<g id="a_node36"><a xlink:href="physics_8h.html" target="_top" xlink:title="Helper functions for manipulating RMF files. ">
<polygon fill="none" stroke="black" points="1780.43,-663 1780.43,-681 1907.57,-681 1907.57,-663 1780.43,-663"/>
<text text-anchor="middle" x="1844" y="-669" font-family="Helvetica,sans-Serif" font-size="10.00">RMF/decorator/physics.h</text>
</a>
</g>
</g>
<!-- Node1&#45;&gt;Node36 -->
<g id="edge59" class="edge"><title>Node1&#45;&gt;Node36</title>
<path fill="none" stroke="midnightblue" d="M1816.16,-718.562C1820.83,-710.909 1827.87,-699.4 1833.69,-689.864"/>
<polygon fill="midnightblue" stroke="midnightblue" points="1836.76,-691.559 1838.99,-681.201 1830.79,-687.909 1836.76,-691.559"/>
</g>
<!-- Node38 -->
<g id="node38" class="node"><title>Node38</title>
<polygon fill="none" stroke="#bfbfbf" points="1109.02,-355 1109.02,-373 1218.98,-373 1218.98,-355 1109.02,-355"/>
<text text-anchor="middle" x="1164" y="-361" font-family="Helvetica,sans-Serif" font-size="10.00">boost/shared_ptr.hpp</text>
</g>
<!-- Node1&#45;&gt;Node38 -->
<g id="edge169" class="edge"><title>Node1&#45;&gt;Node38</title>
<path fill="none" stroke="midnightblue" d="M1764.79,-726.611C1573.43,-724.402 853,-709.914 853,-617 853,-617 853,-617 853,-550 853,-533.316 1067.21,-416.901 1140.07,-377.786"/>
<polygon fill="midnightblue" stroke="midnightblue" points="1141.84,-380.81 1149,-373 1138.53,-374.64 1141.84,-380.81"/>
</g>
<!-- Node48 -->
<g id="node48" class="node"><title>Node48</title>
<g id="a_node48"><a xlink:href="sequence_8h.html" target="_top" xlink:title="Helper functions for manipulating RMF files. ">
<polygon fill="none" stroke="black" points="1642.41,-607 1642.41,-625 1779.59,-625 1779.59,-607 1642.41,-607"/>
<text text-anchor="middle" x="1711" y="-613" font-family="Helvetica,sans-Serif" font-size="10.00">RMF/decorator/sequence.h</text>
</a>
</g>
</g>
<!-- Node1&#45;&gt;Node48 -->
<g id="edge138" class="edge"><title>Node1&#45;&gt;Node48</title>
<path fill="none" stroke="midnightblue" d="M1803.48,-718.732C1786.82,-700.407 1746.58,-656.135 1725.08,-632.491"/>
<polygon fill="midnightblue" stroke="midnightblue" points="1727.65,-630.11 1718.33,-625.065 1722.47,-634.819 1727.65,-630.11"/>
</g>
<!-- Node49 -->
<g id="node49" class="node"><title>Node49</title>
<g id="a_node49"><a xlink:href="shape_8h.html" target="_top" xlink:title="Helper functions for manipulating RMF files. ">
<polygon fill="none" stroke="black" points="1936.48,-607 1936.48,-625 2057.52,-625 2057.52,-607 1936.48,-607"/>
<text text-anchor="middle" x="1997" y="-613" font-family="Helvetica,sans-Serif" font-size="10.00">RMF/decorator/shape.h</text>
</a>
</g>
</g>
<!-- Node1&#45;&gt;Node49 -->
<g id="edge149" class="edge"><title>Node1&#45;&gt;Node49</title>
<path fill="none" stroke="midnightblue" d="M1834.83,-718.901C1856.71,-710.98 1889.64,-697.82 1916,-682 1940.26,-667.438 1965.22,-646.302 1980.9,-632.125"/>
<polygon fill="midnightblue" stroke="midnightblue" points="1983.6,-634.396 1988.59,-625.051 1978.86,-629.243 1983.6,-634.396"/>
</g>
<!-- Node50 -->
<g id="node50" class="node"><title>Node50</title>
<g id="a_node50"><a xlink:href="alternatives_8h.html" target="_top" xlink:title="Helper functions for manipulating RMF files. ">
<polygon fill="none" stroke="black" points="1402.53,-607 1402.53,-625 1547.47,-625 1547.47,-607 1402.53,-607"/>
<text text-anchor="middle" x="1475" y="-613" font-family="Helvetica,sans-Serif" font-size="10.00">RMF/decorator/alternatives.h</text>
</a>
</g>
</g>
<!-- Node1&#45;&gt;Node50 -->
<g id="edge160" class="edge"><title>Node1&#45;&gt;Node50</title>
<path fill="none" stroke="midnightblue" d="M1786.29,-718.911C1727.19,-699.562 1577.52,-650.564 1509.54,-628.309"/>
<polygon fill="midnightblue" stroke="midnightblue" points="1510.34,-624.886 1499.74,-625.1 1508.16,-631.538 1510.34,-624.886"/>
</g>
<!-- Node3 -->
<g id="node3" class="node"><title>Node3</title>
<g id="a_node3"><a xlink:href="compiler__macros_8h.html" target="_top" xlink:title="Various compiler workarounds. ">
<polygon fill="none" stroke="black" points="1835.54,-1 1835.54,-19 1960.46,-19 1960.46,-1 1835.54,-1"/>
<text text-anchor="middle" x="1898" y="-7" font-family="Helvetica,sans-Serif" font-size="10.00">RMF/compiler_macros.h</text>
</a>
</g>
</g>
<!-- Node2&#45;&gt;Node3 -->
<g id="edge2" class="edge"><title>Node2&#45;&gt;Node3</title>
<path fill="none" stroke="midnightblue" d="M1898,-65.7639C1898,-56.5635 1898,-41.381 1898,-29.3326"/>
<polygon fill="midnightblue" stroke="midnightblue" points="1901.5,-29.0389 1898,-19.039 1894.5,-29.039 1901.5,-29.0389"/>
</g>
<!-- Node4&#45;&gt;Node2 -->
<g id="edge32" class="edge"><title>Node4&#45;&gt;Node2</title>
<path fill="none" stroke="midnightblue" d="M3125.13,-606.747C3111.33,-586.523 3078,-532.458 3078,-482 3078,-482 3078,-482 3078,-195 3078,-164.205 3078.88,-148.151 3054,-130 3016.89,-102.927 2273.88,-96.2509 2228,-94 2127.84,-89.086 2010.63,-82.4922 1946.34,-78.8025"/>
<polygon fill="midnightblue" stroke="midnightblue" points="1946.29,-75.2939 1936.1,-78.214 1945.89,-82.2824 1946.29,-75.2939"/>
</g>
<!-- Node4&#45;&gt;Node3 -->
<g id="edge31" class="edge"><title>Node4&#45;&gt;Node3</title>
<path fill="none" stroke="midnightblue" d="M3133.37,-606.987C3139.25,-586.426 3154,-530.038 3154,-482 3154,-482 3154,-482 3154,-139 3154,-19.2348 2238.48,-10.6713 1970.72,-10.7278"/>
<polygon fill="midnightblue" stroke="midnightblue" points="1970.71,-7.22767 1960.71,-10.734 1970.72,-14.2277 1970.71,-7.22767"/>
</g>
<!-- Node5 -->
<g id="node5" class="node"><title>Node5</title>
<polygon fill="none" stroke="#bfbfbf" points="2237.38,-66 2237.38,-84 2280.62,-84 2280.62,-66 2237.38,-66"/>
<text text-anchor="middle" x="2259" y="-72" font-family="Helvetica,sans-Serif" font-size="10.00">vector</text>
</g>
<!-- Node4&#45;&gt;Node5 -->
<g id="edge4" class="edge"><title>Node4&#45;&gt;Node5</title>
<path fill="none" stroke="midnightblue" d="M3129.45,-606.939C3125.62,-586.266 3116,-529.635 3116,-482 3116,-482 3116,-482 3116,-195 3116,-164.205 3116.68,-148.413 3092,-130 3026.84,-81.3911 2435.95,-76.508 2290.99,-76.0432"/>
<polygon fill="midnightblue" stroke="midnightblue" points="2290.97,-72.5433 2280.96,-76.016 2290.96,-79.5433 2290.97,-72.5433"/>
</g>
<!-- Node6 -->
<g id="node6" class="node"><title>Node6</title>
<g id="a_node6"><a xlink:href="Vector_8h.html" target="_top" xlink:title="Represent coordinates. ">
<polygon fill="none" stroke="black" points="2295.71,-542 2295.71,-560 2372.29,-560 2372.29,-542 2295.71,-542"/>
<text text-anchor="middle" x="2334" y="-548" font-family="Helvetica,sans-Serif" font-size="10.00">RMF/Vector.h</text>
</a>
</g>
</g>
<!-- Node4&#45;&gt;Node6 -->
<g id="edge5" class="edge"><title>Node4&#45;&gt;Node6</title>
<path fill="none" stroke="midnightblue" d="M3067.46,-609.977C2913.09,-597.775 2520.88,-566.772 2382.91,-555.866"/>
<polygon fill="midnightblue" stroke="midnightblue" points="2382.9,-552.355 2372.66,-555.056 2382.35,-559.333 2382.9,-552.355"/>
</g>
<!-- Node7 -->
<g id="node7" class="node"><title>Node7</title>
<g id="a_node7"><a xlink:href="infrastructure__macros_8h.html" target="_top" xlink:title="Various general useful macros for IMP. ">
<polygon fill="none" stroke="black" points="273.48,-131 273.48,-149 394.52,-149 394.52,-131 273.48,-131"/>
<text text-anchor="middle" x="334" y="-137" font-family="Helvetica,sans-Serif" font-size="10.00">infrastructure_macros.h</text>
</a>
</g>
</g>
<!-- Node4&#45;&gt;Node7 -->
<g id="edge35" class="edge"><title>Node4&#45;&gt;Node7</title>
<path fill="none" stroke="midnightblue" d="M3067.22,-615.17C2820.3,-615.486 1903.42,-613.481 1150,-570 1105.61,-567.438 390.114,-520.494 353,-496 297.728,-459.522 282,-431.224 282,-365 282,-365 282,-365 282,-251 282,-214.751 305.366,-177.672 320.772,-157.163"/>
<polygon fill="midnightblue" stroke="midnightblue" points="323.591,-159.24 326.987,-149.204 318.074,-154.932 323.591,-159.24"/>
</g>
<!-- Node26 -->
<g id="node26" class="node"><title>Node26</title>
<polygon fill="none" stroke="black" points="3182,-533 3182,-569 3236,-569 3236,-533 3182,-533"/>
<text text-anchor="middle" x="3208.51" y="-548" font-family="Helvetica,sans-Serif" font-size="10.00">Node26</text>
</g>
<!-- Node4&#45;&gt;Node26 -->
<g id="edge33" class="edge"><title>Node4&#45;&gt;Node26</title>
<path fill="none" stroke="midnightblue" d="M3141.2,-606.764C3150.98,-598.864 3166.22,-586.555 3179.77,-575.605"/>
<polygon fill="midnightblue" stroke="midnightblue" points="3182.35,-578.021 3187.93,-569.015 3177.96,-572.576 3182.35,-578.021"/>
</g>
<!-- Node27 -->
<g id="node27" class="node"><title>Node27</title>
<polygon fill="none" stroke="#bfbfbf" points="3253.94,-542 3253.94,-560 3306.06,-560 3306.06,-542 3253.94,-542"/>
<text text-anchor="middle" x="3280" y="-548" font-family="Helvetica,sans-Serif" font-size="10.00">ostream</text>
</g>
<!-- Node4&#45;&gt;Node27 -->
<g id="edge34" class="edge"><title>Node4&#45;&gt;Node27</title>
<path fill="none" stroke="midnightblue" d="M3153.55,-606.85C3176.75,-598.293 3213.8,-584.14 3245,-570 3248.68,-568.334 3252.52,-566.479 3256.26,-564.61"/>
<polygon fill="midnightblue" stroke="midnightblue" points="3257.87,-567.716 3265.17,-560.038 3254.68,-561.487 3257.87,-567.716"/>
</g>
<!-- Node28 -->
<g id="node28" class="node"><title>Node28</title>
<polygon fill="none" stroke="#bfbfbf" points="1593.66,-243 1593.66,-261 1666.34,-261 1666.34,-243 1593.66,-243"/>
<text text-anchor="middle" x="1630" y="-249" font-family="Helvetica,sans-Serif" font-size="10.00">RMF/types.h</text>
</g>
<!-- Node4&#45;&gt;Node28 -->
<g id="edge36" class="edge"><title>Node4&#45;&gt;Node28</title>
<path fill="none" stroke="midnightblue" d="M3067.45,-613.517C2883.73,-608.962 2360.39,-594.016 2287,-570 2206.75,-543.738 2202.44,-505.867 2128,-466 1958.68,-375.314 1742.51,-293.739 1662.05,-264.471"/>
<polygon fill="midnightblue" stroke="midnightblue" points="1663.08,-261.121 1652.49,-261.006 1660.7,-267.703 1663.08,-261.121"/>
</g>
<!-- Node6&#45;&gt;Node2 -->
<g id="edge6" class="edge"><title>Node6&#45;&gt;Node2</title>
<path fill="none" stroke="midnightblue" d="M2372.55,-549.021C2489.59,-545.657 2834.84,-532.679 2868,-496 2876.94,-486.109 2876.2,-476.514 2868,-466 2702.02,-253.152 2507.83,-461.154 2279,-318 2186.47,-260.113 2213.78,-187.489 2121,-130 2066.9,-96.4768 1993.46,-83.7642 1945.9,-78.9437"/>
<polygon fill="midnightblue" stroke="midnightblue" points="1946.15,-75.4518 1935.87,-78.005 1945.5,-82.4214 1946.15,-75.4518"/>
</g>
<!-- Node6&#45;&gt;Node7 -->
<g id="edge7" class="edge"><title>Node6&#45;&gt;Node7</title>
<path fill="none" stroke="midnightblue" d="M2295.53,-545.9C2255.48,-541.778 2190.91,-535.542 2135,-532 1790.5,-510.178 904.798,-559.942 585,-430 453.978,-376.762 367.337,-212.322 341.834,-158.354"/>
<polygon fill="midnightblue" stroke="midnightblue" points="344.928,-156.706 337.553,-149.099 338.574,-159.645 344.928,-156.706"/>
</g>
<!-- Node15 -->
<g id="node15" class="node"><title>Node15</title>
<g id="a_node15"><a xlink:href="exceptions_8h.html" target="_top" xlink:title="Declarations of the various exception types. ">
<polygon fill="none" stroke="black" points="1306.93,-131 1306.93,-149 1379.07,-149 1379.07,-131 1306.93,-131"/>
<text text-anchor="middle" x="1343" y="-137" font-family="Helvetica,sans-Serif" font-size="10.00">exceptions.h</text>
</a>
</g>
</g>
<!-- Node6&#45;&gt;Node15 -->
<g id="edge17" class="edge"><title>Node6&#45;&gt;Node15</title>
<path fill="none" stroke="midnightblue" d="M2317.12,-541.976C2297.92,-532.438 2266.12,-515.355 2242,-496 2201.28,-463.332 2198.07,-447.737 2162,-410 2064.06,-307.539 2064.14,-244.41 1935,-186 1837.93,-142.096 1511.6,-139.755 1389.57,-140.48"/>
<polygon fill="midnightblue" stroke="midnightblue" points="1389.4,-136.981 1379.43,-140.55 1389.45,-143.981 1389.4,-136.981"/>
</g>
<!-- Node19 -->
<g id="node19" class="node"><title>Node19</title>
<polygon fill="none" stroke="#bfbfbf" points="2618.24,-472 2618.24,-490 2733.76,-490 2733.76,-472 2618.24,-472"/>
<text text-anchor="middle" x="2676" y="-478" font-family="Helvetica,sans-Serif" font-size="10.00">boost/range/begin.hpp</text>
</g>
<!-- Node6&#45;&gt;Node19 -->
<g id="edge24" class="edge"><title>Node6&#45;&gt;Node19</title>
<path fill="none" stroke="midnightblue" d="M2372.74,-542.546C2426.01,-532.262 2524.84,-513.056 2609,-496 2615.19,-494.745 2621.7,-493.408 2628.13,-492.077"/>
<polygon fill="midnightblue" stroke="midnightblue" points="2629.03,-495.465 2638.1,-490.002 2627.6,-488.612 2629.03,-495.465"/>
</g>
<!-- Node20 -->
<g id="node20" class="node"><title>Node20</title>
<polygon fill="none" stroke="#bfbfbf" points="2752.13,-472 2752.13,-490 2859.87,-490 2859.87,-472 2752.13,-472"/>
<text text-anchor="middle" x="2806" y="-478" font-family="Helvetica,sans-Serif" font-size="10.00">boost/range/end.hpp</text>
</g>
<!-- Node6&#45;&gt;Node20 -->
<g id="edge25" class="edge"><title>Node6&#45;&gt;Node20</title>
<path fill="none" stroke="midnightblue" d="M2372.41,-546.002C2444.94,-538.214 2606.87,-519.679 2742,-496 2748.4,-494.879 2755.12,-493.562 2761.71,-492.192"/>
<polygon fill="midnightblue" stroke="midnightblue" points="2762.85,-495.529 2771.89,-490.015 2761.38,-488.683 2762.85,-495.529"/>
</g>
<!-- Node21 -->
<g id="node21" class="node"><title>Node21</title>
<polygon fill="none" stroke="#bfbfbf" points="2251.31,-467 2251.31,-495 2350.69,-495 2350.69,-467 2251.31,-467"/>
<text text-anchor="start" x="2259.31" y="-483" font-family="Helvetica,sans-Serif" font-size="10.00">boost/type_traits/is</text>
<text text-anchor="middle" x="2301" y="-473" font-family="Helvetica,sans-Serif" font-size="10.00">_convertible.hpp</text>
</g>
<!-- Node6&#45;&gt;Node21 -->
<g id="edge26" class="edge"><title>Node6&#45;&gt;Node21</title>
<path fill="none" stroke="midnightblue" d="M2330.08,-541.932C2325.62,-532.737 2318.14,-517.311 2311.88,-504.413"/>
<polygon fill="midnightblue" stroke="midnightblue" points="2314.91,-502.655 2307.4,-495.187 2308.62,-505.711 2314.91,-502.655"/>
</g>
<!-- Node22 -->
<g id="node22" class="node"><title>Node22</title>
<polygon fill="none" stroke="#bfbfbf" points="2368.25,-472 2368.25,-490 2463.75,-490 2463.75,-472 2368.25,-472"/>
<text text-anchor="middle" x="2416" y="-478" font-family="Helvetica,sans-Serif" font-size="10.00">boost/mpl/not.hpp</text>
</g>
<!-- Node6&#45;&gt;Node22 -->
<g id="edge27" class="edge"><title>Node6&#45;&gt;Node22</title>
<path fill="none" stroke="midnightblue" d="M2343.73,-541.932C2357.17,-530.788 2381.64,-510.491 2398.35,-496.634"/>
<polygon fill="midnightblue" stroke="midnightblue" points="2400.82,-499.135 2406.28,-490.057 2396.35,-493.746 2400.82,-499.135"/>
</g>
<!-- Node23 -->
<g id="node23" class="node"><title>Node23</title>
<polygon fill="none" stroke="#bfbfbf" points="2034.62,-472 2034.62,-490 2119.38,-490 2119.38,-472 2034.62,-472"/>
<text text-anchor="middle" x="2077" y="-478" font-family="Helvetica,sans-Serif" font-size="10.00">boost/array.hpp</text>
</g>
<!-- Node6&#45;&gt;Node23 -->
<g id="edge28" class="edge"><title>Node6&#45;&gt;Node23</title>
<path fill="none" stroke="midnightblue" d="M2303.76,-542C2257.49,-529.756 2169.04,-506.354 2117.35,-492.675"/>
<polygon fill="midnightblue" stroke="midnightblue" points="2118.08,-489.25 2107.52,-490.075 2116.29,-496.017 2118.08,-489.25"/>
</g>
<!-- Node24 -->
<g id="node24" class="node"><title>Node24</title>
<polygon fill="none" stroke="#bfbfbf" points="2481.58,-472 2481.58,-490 2600.42,-490 2600.42,-472 2481.58,-472"/>
<text text-anchor="middle" x="2541" y="-478" font-family="Helvetica,sans-Serif" font-size="10.00">boost/static_assert.hpp</text>
</g>
<!-- Node6&#45;&gt;Node24 -->
<g id="edge29" class="edge"><title>Node6&#45;&gt;Node24</title>
<path fill="none" stroke="midnightblue" d="M2358.56,-541.932C2395.36,-529.842 2464.96,-506.981 2506.74,-493.255"/>
<polygon fill="midnightblue" stroke="midnightblue" points="2508.07,-496.503 2516.47,-490.057 2505.88,-489.853 2508.07,-496.503"/>
</g>
<!-- Node25 -->
<g id="node25" class="node"><title>Node25</title>
<polygon fill="none" stroke="#bfbfbf" points="1869.44,-187 1869.44,-205 1926.56,-205 1926.56,-187 1869.44,-187"/>
<text text-anchor="middle" x="1898" y="-193" font-family="Helvetica,sans-Serif" font-size="10.00">algorithm</text>
</g>
<!-- Node6&#45;&gt;Node25 -->
<g id="edge30" class="edge"><title>Node6&#45;&gt;Node25</title>
<path fill="none" stroke="midnightblue" d="M2311.98,-541.942C2280.87,-530.319 2225.97,-508.837 2209,-496 2169.7,-466.265 2173.13,-445.549 2139,-410 2061.73,-329.529 1958.28,-244.93 1916.58,-211.659"/>
<polygon fill="midnightblue" stroke="midnightblue" points="1918.66,-208.839 1908.65,-205.358 1914.3,-214.319 1918.66,-208.839"/>
</g>
<!-- Node7&#45;&gt;Node3 -->
<g id="edge11" class="edge"><title>Node7&#45;&gt;Node3</title>
<path fill="none" stroke="midnightblue" d="M394.585,-131.515C453.857,-123.462 539.407,-109.682 569,-94 590.104,-82.8163 585.096,-65.5232 607,-56 663.067,-31.6234 1560.53,-16.1216 1825.13,-12.0647"/>
<polygon fill="midnightblue" stroke="midnightblue" points="1825.44,-15.5603 1835.39,-11.9082 1825.34,-8.56116 1825.44,-15.5603"/>
</g>
<!-- Node7&#45;&gt;Node5 -->
<g id="edge13" class="edge"><title>Node7&#45;&gt;Node5</title>
<path fill="none" stroke="midnightblue" d="M394.699,-137.941C607.55,-134.091 1339.86,-119.699 1944,-94 2047.6,-89.5932 2170.22,-81.8614 2227.09,-78.1316"/>
<polygon fill="midnightblue" stroke="midnightblue" points="2227.49,-81.6126 2237.24,-77.4623 2227.03,-74.6277 2227.49,-81.6126"/>
</g>
<!-- Node8 -->
<g id="node8" class="node"><title>Node8</title>
<polygon fill="none" stroke="#bfbfbf" points="142.219,-66 142.219,-84 193.781,-84 193.781,-66 142.219,-66"/>
<text text-anchor="middle" x="168" y="-72" font-family="Helvetica,sans-Serif" font-size="10.00">sstream</text>
</g>
<!-- Node7&#45;&gt;Node8 -->
<g id="edge8" class="edge"><title>Node7&#45;&gt;Node8</title>
<path fill="none" stroke="midnightblue" d="M306.979,-130.972C280.189,-122.721 238.173,-108.993 203,-94 199.219,-92.3882 195.282,-90.54 191.472,-88.6554"/>
<polygon fill="midnightblue" stroke="midnightblue" points="192.915,-85.4623 182.42,-84.01 189.719,-91.69 192.915,-85.4623"/>
</g>
<!-- Node9 -->
<g id="node9" class="node"><title>Node9</title>
<polygon fill="none" stroke="#bfbfbf" points="283.828,-66 283.828,-84 338.172,-84 338.172,-66 283.828,-66"/>
<text text-anchor="middle" x="311" y="-72" font-family="Helvetica,sans-Serif" font-size="10.00">iostream</text>
</g>
<!-- Node7&#45;&gt;Node9 -->
<g id="edge9" class="edge"><title>Node7&#45;&gt;Node9</title>
<path fill="none" stroke="midnightblue" d="M330.993,-130.764C327.565,-121.374 321.862,-105.752 317.422,-93.5914"/>
<polygon fill="midnightblue" stroke="midnightblue" points="320.652,-92.2322 313.935,-84.039 314.077,-94.6329 320.652,-92.2322"/>
</g>
<!-- Node10 -->
<g id="node10" class="node"><title>Node10</title>
<polygon fill="none" stroke="#bfbfbf" points="615.773,-66 615.773,-84 656.227,-84 656.227,-66 615.773,-66"/>
<text text-anchor="middle" x="636" y="-72" font-family="Helvetica,sans-Serif" font-size="10.00">string</text>
</g>
<!-- Node7&#45;&gt;Node10 -->
<g id="edge10" class="edge"><title>Node7&#45;&gt;Node10</title>
<path fill="none" stroke="midnightblue" d="M394.524,-131.13C461.393,-122.03 564.577,-106.678 602,-94 606.128,-92.6017 610.36,-90.7469 614.375,-88.759"/>
<polygon fill="midnightblue" stroke="midnightblue" points="616.038,-91.839 623.2,-84.0316 612.733,-85.6686 616.038,-91.839"/>
</g>
<!-- Node11 -->
<g id="node11" class="node"><title>Node11</title>
<polygon fill="none" stroke="black" points="212,-57 212,-93 266,-93 266,-57 212,-57"/>
<text text-anchor="middle" x="238.646" y="-72" font-family="Helvetica,sans-Serif" font-size="10.00">Node11</text>
</g>
<!-- Node7&#45;&gt;Node11 -->
<g id="edge12" class="edge"><title>Node7&#45;&gt;Node11</title>
<path fill="none" stroke="midnightblue" d="M321.58,-130.764C309.331,-122.641 290.05,-109.854 273.198,-98.6789"/>
<polygon fill="midnightblue" stroke="midnightblue" points="274.926,-95.6249 264.658,-93.015 271.057,-101.459 274.926,-95.6249"/>
</g>
<!-- Node12 -->
<g id="node12" class="node"><title>Node12</title>
<polygon fill="none" stroke="#bfbfbf" points="356.306,-66 356.306,-84 445.694,-84 445.694,-66 356.306,-66"/>
<text text-anchor="middle" x="401" y="-72" font-family="Helvetica,sans-Serif" font-size="10.00">boost/config.hpp</text>
</g>
<!-- Node7&#45;&gt;Node12 -->
<g id="edge14" class="edge"><title>Node7&#45;&gt;Node12</title>
<path fill="none" stroke="midnightblue" d="M342.759,-130.764C353.451,-120.71 371.741,-103.512 384.976,-91.0672"/>
<polygon fill="midnightblue" stroke="midnightblue" points="387.563,-93.4391 392.451,-84.039 382.768,-88.3394 387.563,-93.4391"/>
</g>
<!-- Node13 -->
<g id="node13" class="node"><title>Node13</title>
<polygon fill="none" stroke="#bfbfbf" points="-0.470215,-66 -0.470215,-84 94.4702,-84 94.4702,-66 -0.470215,-66"/>
<text text-anchor="middle" x="47" y="-72" font-family="Helvetica,sans-Serif" font-size="10.00">boost/version.hpp</text>
</g>
<!-- Node7&#45;&gt;Node13 -->
<g id="edge15" class="edge"><title>Node7&#45;&gt;Node13</title>
<path fill="none" stroke="midnightblue" d="M297.36,-130.957C245.469,-119.566 150.57,-98.7349 93.6919,-86.2494"/>
<polygon fill="midnightblue" stroke="midnightblue" points="94.3934,-82.8202 83.8755,-84.0946 92.8925,-89.6574 94.3934,-82.8202"/>
</g>
<!-- Node14 -->
<g id="node14" class="node"><title>Node14</title>
<polygon fill="none" stroke="#bfbfbf" points="463.971,-66 463.971,-84 560.029,-84 560.029,-66 463.971,-66"/>
<text text-anchor="middle" x="512" y="-72" font-family="Helvetica,sans-Serif" font-size="10.00">boost/foreach.hpp</text>
</g>
<!-- Node7&#45;&gt;Node14 -->
<g id="edge16" class="edge"><title>Node7&#45;&gt;Node14</title>
<path fill="none" stroke="midnightblue" d="M356.906,-130.893C388.014,-119.883 443.801,-100.138 479.304,-87.5721"/>
<polygon fill="midnightblue" stroke="midnightblue" points="480.923,-90.7121 489.182,-84.0761 478.587,-84.1132 480.923,-90.7121"/>
</g>
<!-- Node15&#45;&gt;Node2 -->
<g id="edge21" class="edge"><title>Node15&#45;&gt;Node2</title>
<path fill="none" stroke="midnightblue" d="M1379.27,-132.157C1383.88,-131.379 1388.55,-130.638 1393,-130 1560.29,-106.032 1760.15,-87.6844 1850.04,-79.9762"/>
<polygon fill="midnightblue" stroke="midnightblue" points="1850.52,-83.4477 1860.19,-79.111 1849.93,-76.473 1850.52,-83.4477"/>
</g>
<!-- Node15&#45;&gt;Node3 -->
<g id="edge22" class="edge"><title>Node15&#45;&gt;Node3</title>
<path fill="none" stroke="midnightblue" d="M1334.53,-130.636C1319.05,-114.355 1289.56,-78.0688 1310,-56 1344.37,-18.9003 1675.96,-12.2624 1825.49,-11.1648"/>
<polygon fill="midnightblue" stroke="midnightblue" points="1825.53,-14.6647 1835.51,-11.0976 1825.48,-7.66485 1825.53,-14.6647"/>
</g>
<!-- Node15&#45;&gt;Node10 -->
<g id="edge20" class="edge"><title>Node15&#45;&gt;Node10</title>
<path fill="none" stroke="midnightblue" d="M1306.74,-132.051C1302.13,-131.291 1297.46,-130.583 1293,-130 1230.42,-121.815 787.861,-87.6404 666.637,-78.3436"/>
<polygon fill="midnightblue" stroke="midnightblue" points="666.797,-74.8456 656.558,-77.5712 666.262,-81.8252 666.797,-74.8456"/>
</g>
<!-- Node16 -->
<g id="node16" class="node"><title>Node16</title>
<polygon fill="none" stroke="#bfbfbf" points="1319.45,-66 1319.45,-84 1470.55,-84 1470.55,-66 1319.45,-66"/>
<text text-anchor="middle" x="1395" y="-72" font-family="Helvetica,sans-Serif" font-size="10.00">boost/exception/exception.hpp</text>
</g>
<!-- Node15&#45;&gt;Node16 -->
<g id="edge18" class="edge"><title>Node15&#45;&gt;Node16</title>
<path fill="none" stroke="midnightblue" d="M1349.8,-130.764C1357.94,-120.9 1371.76,-104.159 1381.98,-91.7766"/>
<polygon fill="midnightblue" stroke="midnightblue" points="1384.7,-93.9792 1388.36,-84.039 1379.3,-89.5232 1384.7,-93.9792"/>
</g>
<!-- Node17 -->
<g id="node17" class="node"><title>Node17</title>
<polygon fill="none" stroke="#bfbfbf" points="1488.6,-66 1488.6,-84 1547.4,-84 1547.4,-66 1488.6,-66"/>
<text text-anchor="middle" x="1518" y="-72" font-family="Helvetica,sans-Serif" font-size="10.00">exception</text>
</g>
<!-- Node15&#45;&gt;Node17 -->
<g id="edge19" class="edge"><title>Node15&#45;&gt;Node17</title>
<path fill="none" stroke="midnightblue" d="M1370.42,-130.926C1398.12,-122.536 1441.99,-108.611 1479,-94 1483.33,-92.2904 1487.87,-90.344 1492.26,-88.3779"/>
<polygon fill="midnightblue" stroke="midnightblue" points="1493.86,-91.4918 1501.48,-84.1271 1490.93,-85.1346 1493.86,-91.4918"/>
</g>
<!-- Node18 -->
<g id="node18" class="node"><title>Node18</title>
<polygon fill="none" stroke="black" points="887,-57 887,-93 941,-93 941,-57 887,-57"/>
<text text-anchor="middle" x="913.515" y="-72" font-family="Helvetica,sans-Serif" font-size="10.00">Node18</text>
</g>
<!-- Node15&#45;&gt;Node18 -->
<g id="edge23" class="edge"><title>Node15&#45;&gt;Node18</title>
<path fill="none" stroke="midnightblue" d="M1306.71,-132.306C1302.1,-131.504 1297.44,-130.716 1293,-130 1168.12,-109.871 1019.45,-89.8259 951.382,-80.865"/>
<polygon fill="midnightblue" stroke="midnightblue" points="951.536,-77.3552 941.166,-79.5236 950.625,-84.2957 951.536,-77.3552"/>
</g>
<!-- Node29&#45;&gt;Node2 -->
<g id="edge38" class="edge"><title>Node29&#45;&gt;Node2</title>
<path fill="none" stroke="midnightblue" d="M825.28,-357.22C868.991,-348.832 952.287,-332.681 1023,-318 1217.21,-277.68 1272.13,-282.813 1455,-206 1521.72,-177.975 1530.59,-153.597 1599,-130 1684.62,-100.469 1789.88,-86.2597 1849.93,-80.1038"/>
<polygon fill="midnightblue" stroke="midnightblue" points="1850.64,-83.5509 1860.24,-79.0805 1849.95,-76.5851 1850.64,-83.5509"/>
</g>
<!-- Node29&#45;&gt;Node7 -->
<g id="edge56" class="edge"><title>Node29&#45;&gt;Node7</title>
<path fill="none" stroke="midnightblue" d="M785.388,-354.894C751.783,-326.974 635.534,-233.89 524,-186 484.566,-169.068 437.669,-157.878 400.334,-150.891"/>
<polygon fill="midnightblue" stroke="midnightblue" points="400.536,-147.371 390.072,-149.031 399.287,-154.258 400.536,-147.371"/>
</g>
<!-- Node29&#45;&gt;Node15 -->
<g id="edge57" class="edge"><title>Node29&#45;&gt;Node15</title>
<path fill="none" stroke="midnightblue" d="M825.359,-359.701C864.89,-354.594 935.487,-342.671 991,-318 1080.35,-278.291 1079.39,-229.406 1167,-186 1208.46,-165.46 1260.2,-153.683 1296.82,-147.371"/>
<polygon fill="midnightblue" stroke="midnightblue" points="1297.44,-150.818 1306.73,-145.733 1296.29,-143.911 1297.44,-150.818"/>
</g>
<!-- Node30 -->
<g id="node30" class="node"><title>Node30</title>
<g id="a_node30"><a xlink:href="traits_8h.html" target="_top" xlink:title="Handle read/write of Model data from/to files. ">
<polygon fill="none" stroke="black" points="829.995,-299 829.995,-317 876.005,-317 876.005,-299 829.995,-299"/>
<text text-anchor="middle" x="853" y="-305" font-family="Helvetica,sans-Serif" font-size="10.00">traits.h</text>
</a>
</g>
</g>
<!-- Node29&#45;&gt;Node30 -->
<g id="edge39" class="edge"><title>Node29&#45;&gt;Node30</title>
<path fill="none" stroke="midnightblue" d="M804.062,-354.562C812.796,-346.431 826.206,-333.946 836.781,-324.1"/>
<polygon fill="midnightblue" stroke="midnightblue" points="839.257,-326.577 844.191,-317.201 834.487,-321.454 839.257,-326.577"/>
</g>
<!-- Node32 -->
<g id="node32" class="node"><title>Node32</title>
<polygon fill="none" stroke="#bfbfbf" points="1023.61,-131 1023.61,-149 1062.39,-149 1062.39,-131 1023.61,-131"/>
<text text-anchor="middle" x="1043" y="-137" font-family="Helvetica,sans-Serif" font-size="10.00">limits</text>
</g>
<!-- Node29&#45;&gt;Node32 -->
<g id="edge58" class="edge"><title>Node29&#45;&gt;Node32</title>
<path fill="none" stroke="midnightblue" d="M825.423,-355.597C887.553,-339.797 1025.41,-301.022 1052,-262 1073.28,-230.775 1060.32,-183.902 1050.66,-158.64"/>
<polygon fill="midnightblue" stroke="midnightblue" points="1053.84,-157.183 1046.82,-149.245 1047.36,-159.826 1053.84,-157.183"/>
</g>
<!-- Node30&#45;&gt;Node2 -->
<g id="edge40" class="edge"><title>Node30&#45;&gt;Node2</title>
<path fill="none" stroke="midnightblue" d="M876.274,-305.955C955.271,-301.77 1219.45,-282.535 1421,-206 1481.43,-183.053 1484.3,-152.215 1545,-130 1649.39,-91.7976 1780.71,-80.6188 1850.03,-77.3496"/>
<polygon fill="midnightblue" stroke="midnightblue" points="1850.37,-80.8384 1860.21,-76.9061 1850.06,-73.845 1850.37,-80.8384"/>
</g>
<!-- Node30&#45;&gt;Node28 -->
<g id="edge41" class="edge"><title>Node30&#45;&gt;Node28</title>
<path fill="none" stroke="midnightblue" d="M876.254,-305.384C984.013,-297.895 1435.79,-266.497 1583.24,-256.25"/>
<polygon fill="midnightblue" stroke="midnightblue" points="1583.59,-259.734 1593.32,-255.549 1583.1,-252.751 1583.59,-259.734"/>
</g>
<!-- Node31 -->
<g id="node31" class="node"><title>Node31</title>
<polygon fill="none" stroke="#bfbfbf" points="692.197,-187 692.197,-205 783.803,-205 783.803,-187 692.197,-187"/>
<text text-anchor="middle" x="738" y="-193" font-family="Helvetica,sans-Serif" font-size="10.00">boost/cstdint.hpp</text>
</g>
<!-- Node30&#45;&gt;Node31 -->
<g id="edge42" class="edge"><title>Node30&#45;&gt;Node31</title>
<path fill="none" stroke="midnightblue" d="M829.885,-301.975C808.056,-296.05 775.922,-284.085 757,-262 745.773,-248.897 741.174,-229.454 739.294,-215.247"/>
<polygon fill="midnightblue" stroke="midnightblue" points="742.767,-214.801 738.293,-205.197 735.801,-215.495 742.767,-214.801"/>
</g>
<!-- Node30&#45;&gt;Node32 -->
<g id="edge43" class="edge"><title>Node30&#45;&gt;Node32</title>
<path fill="none" stroke="midnightblue" d="M862.164,-298.993C891.936,-272.983 986.272,-190.562 1025.56,-156.235"/>
<polygon fill="midnightblue" stroke="midnightblue" points="1028.25,-158.532 1033.48,-149.317 1023.65,-153.261 1028.25,-158.532"/>
</g>
<!-- Node33 -->
<g id="node33" class="node"><title>Node33</title>
<polygon fill="none" stroke="#bfbfbf" points="766.384,-243 766.384,-261 809.616,-261 809.616,-243 766.384,-243"/>
<text text-anchor="middle" x="788" y="-249" font-family="Helvetica,sans-Serif" font-size="10.00">cmath</text>
</g>
<!-- Node30&#45;&gt;Node33 -->
<g id="edge44" class="edge"><title>Node30&#45;&gt;Node33</title>
<path fill="none" stroke="midnightblue" d="M843.128,-298.799C833.297,-290.631 817.982,-277.908 805.987,-267.943"/>
<polygon fill="midnightblue" stroke="midnightblue" points="807.894,-264.977 797.965,-261.279 803.42,-270.361 807.894,-264.977"/>
</g>
<!-- Node34 -->
<g id="node34" class="node"><title>Node34</title>
<g id="a_node34"><a xlink:href="HDF5_2types_8h.html" target="_top" xlink:title="Handle read/write of Model data from/to files. ">
<polygon fill="none" stroke="red" points="942.214,-243 942.214,-261 1043.79,-261 1043.79,-243 942.214,-243"/>
<text text-anchor="middle" x="993" y="-249" font-family="Helvetica,sans-Serif" font-size="10.00">RMF/HDF5/types.h</text>
</a>
</g>
</g>
<!-- Node30&#45;&gt;Node34 -->
<g id="edge45" class="edge"><title>Node30&#45;&gt;Node34</title>
<path fill="none" stroke="midnightblue" d="M873.959,-298.916C897.362,-289.889 935.462,-275.193 962.242,-264.864"/>
<polygon fill="midnightblue" stroke="midnightblue" points="963.827,-268.004 971.897,-261.14 961.308,-261.473 963.827,-268.004"/>
</g>
<!-- Node34&#45;&gt;Node2 -->
<g id="edge46" class="edge"><title>Node34&#45;&gt;Node2</title>
<path fill="none" stroke="midnightblue" d="M1044.09,-248.055C1136.08,-242.277 1325.8,-228.066 1388,-206 1447.14,-185.019 1448.11,-151.683 1507,-130 1624.92,-86.5812 1774.53,-77.6576 1849.92,-76.0889"/>
<polygon fill="midnightblue" stroke="midnightblue" points="1850.12,-79.5861 1860.06,-75.9136 1850,-72.5872 1850.12,-79.5861"/>
</g>
<!-- Node34&#45;&gt;Node18 -->
<g id="edge47" class="edge"><title>Node34&#45;&gt;Node18</title>
<path fill="none" stroke="midnightblue" d="M989.19,-242.559C977.857,-217.456 944.025,-142.511 925.853,-102.256"/>
<polygon fill="midnightblue" stroke="midnightblue" points="929.003,-100.728 921.698,-93.0534 922.623,-103.608 929.003,-100.728"/>
</g>
<!-- Node34&#45;&gt;Node25 -->
<g id="edge53" class="edge"><title>Node34&#45;&gt;Node25</title>
<path fill="none" stroke="midnightblue" d="M1043.92,-247.962C1206.98,-238.232 1714.02,-207.978 1858.95,-199.33"/>
<polygon fill="midnightblue" stroke="midnightblue" points="1859.36,-202.812 1869.14,-198.722 1858.95,-195.824 1859.36,-202.812"/>
</g>
<!-- Node34&#45;&gt;Node31 -->
<g id="edge54" class="edge"><title>Node34&#45;&gt;Node31</title>
<path fill="none" stroke="midnightblue" d="M955.099,-242.974C910.153,-233.456 835.17,-217.577 786.154,-207.197"/>
<polygon fill="midnightblue" stroke="midnightblue" points="786.617,-203.718 776.109,-205.07 785.167,-210.566 786.617,-203.718"/>
</g>
<!-- Node34&#45;&gt;Node32 -->
<g id="edge55" class="edge"><title>Node34&#45;&gt;Node32</title>
<path fill="none" stroke="midnightblue" d="M996.758,-242.732C1004.87,-224.887 1024.17,-182.437 1035.09,-158.391"/>
<polygon fill="midnightblue" stroke="midnightblue" points="1038.38,-159.617 1039.33,-149.065 1032.01,-156.72 1038.38,-159.617"/>
</g>
<!-- Node35 -->
<g id="node35" class="node"><title>Node35</title>
<g id="a_node35"><a xlink:href="ID_8h.html" target="_top" xlink:title="Declaration of RMF::ID. ">
<polygon fill="none" stroke="black" points="1175.61,-187 1175.61,-205 1234.39,-205 1234.39,-187 1175.61,-187"/>
<text text-anchor="middle" x="1205" y="-193" font-family="Helvetica,sans-Serif" font-size="10.00">RMF/ID.h</text>
</a>
</g>
</g>
<!-- Node34&#45;&gt;Node35 -->
<g id="edge48" class="edge"><title>Node34&#45;&gt;Node35</title>
<path fill="none" stroke="midnightblue" d="M1024.74,-242.916C1062.33,-233.341 1124.96,-217.389 1165.61,-207.034"/>
<polygon fill="midnightblue" stroke="midnightblue" points="1166.61,-210.389 1175.44,-204.529 1164.89,-203.606 1166.61,-210.389"/>
</g>
<!-- Node35&#45;&gt;Node2 -->
<g id="edge49" class="edge"><title>Node35&#45;&gt;Node2</title>
<path fill="none" stroke="midnightblue" d="M1234.66,-190.44C1271.56,-184.156 1336.03,-171.147 1388,-150 1404.24,-143.393 1405.37,-135.554 1422,-130 1500.55,-103.764 1744.98,-85.6666 1849.64,-78.9239"/>
<polygon fill="midnightblue" stroke="midnightblue" points="1850.16,-82.398 1859.92,-78.2695 1849.72,-75.4122 1850.16,-82.398"/>
</g>
<!-- Node35&#45;&gt;Node7 -->
<g id="edge50" class="edge"><title>Node35&#45;&gt;Node7</title>
<path fill="none" stroke="midnightblue" d="M1175.52,-193.172C1053.31,-185.595 584.467,-156.528 404.713,-145.384"/>
<polygon fill="midnightblue" stroke="midnightblue" points="404.773,-141.881 394.576,-144.756 404.34,-148.868 404.773,-141.881"/>
</g>
<!-- Node35&#45;&gt;Node15 -->
<g id="edge51" class="edge"><title>Node35&#45;&gt;Node15</title>
<path fill="none" stroke="midnightblue" d="M1225.66,-186.916C1248.73,-177.889 1286.28,-163.193 1312.68,-152.864"/>
<polygon fill="midnightblue" stroke="midnightblue" points="1314.16,-156.043 1322.2,-149.14 1311.61,-149.524 1314.16,-156.043"/>
</g>
<!-- Node35&#45;&gt;Node32 -->
<g id="edge52" class="edge"><title>Node35&#45;&gt;Node32</title>
<path fill="none" stroke="midnightblue" d="M1180.75,-186.916C1151.88,-177.294 1103.69,-161.231 1072.64,-150.881"/>
<polygon fill="midnightblue" stroke="midnightblue" points="1073.41,-147.449 1062.82,-147.607 1071.2,-154.09 1073.41,-147.449"/>
</g>
<!-- Node36&#45;&gt;Node2 -->
<g id="edge60" class="edge"><title>Node36&#45;&gt;Node2</title>
<path fill="none" stroke="midnightblue" d="M1907.91,-671.196C2150.67,-671.11 3002,-662.903 3002,-552 3002,-552 3002,-552 3002,-419 3002,-290.549 2951.92,-229.341 2831,-186 2664.89,-126.462 2113.06,-88.9864 1946.2,-78.8112"/>
<polygon fill="midnightblue" stroke="midnightblue" points="1945.97,-75.2909 1935.78,-78.1806 1945.55,-82.2781 1945.97,-75.2909"/>
</g>
<!-- Node36&#45;&gt;Node6 -->
<g id="edge123" class="edge"><title>Node36&#45;&gt;Node6</title>
<path fill="none" stroke="midnightblue" d="M1907.86,-668.226C2005.03,-663.266 2184.95,-650.974 2244,-626 2275.06,-612.864 2303.84,-585.453 2320.13,-567.931"/>
<polygon fill="midnightblue" stroke="midnightblue" points="2322.98,-569.998 2327.08,-560.229 2317.78,-565.308 2322.98,-569.998"/>
</g>
<!-- Node36&#45;&gt;Node7 -->
<g id="edge61" class="edge"><title>Node36&#45;&gt;Node7</title>
<path fill="none" stroke="midnightblue" d="M1780.29,-670.167C1461.42,-665.588 54,-640.374 54,-552 54,-552 54,-552 54,-251 54,-214.28 73.691,-205.186 105,-186 152.634,-156.81 215.388,-146.01 263.156,-142.257"/>
<polygon fill="midnightblue" stroke="midnightblue" points="263.685,-145.729 273.417,-141.54 263.198,-138.746 263.685,-145.729"/>
</g>
<!-- Node36&#45;&gt;Node23 -->
<g id="edge125" class="edge"><title>Node36&#45;&gt;Node23</title>
<path fill="none" stroke="midnightblue" d="M1907.63,-664.774C1957.08,-658.599 2026.83,-646.933 2085,-626 2133.3,-608.621 2159.95,-614.226 2186,-570 2194.57,-555.448 2195.12,-546.215 2186,-532 2177.43,-518.636 2140.38,-503.449 2111.83,-493.354"/>
<polygon fill="midnightblue" stroke="midnightblue" points="2112.74,-489.966 2102.15,-490.007 2110.46,-496.582 2112.74,-489.966"/>
</g>
<!-- Node37 -->
<g id="node37" class="node"><title>Node37</title>
<g id="a_node37"><a xlink:href="NodeHandle_8h.html" target="_top" xlink:title="Declaration of NodeHandle. ">
<polygon fill="none" stroke="red" points="1152.81,-472 1152.81,-490 1257.19,-490 1257.19,-472 1152.81,-472"/>
<text text-anchor="middle" x="1205" y="-478" font-family="Helvetica,sans-Serif" font-size="10.00">RMF/NodeHandle.h</text>
</a>
</g>
</g>
<!-- Node36&#45;&gt;Node37 -->
<g id="edge62" class="edge"><title>Node36&#45;&gt;Node37</title>
<path fill="none" stroke="midnightblue" d="M1780.09,-667.831C1673.53,-662.009 1464.3,-648.139 1394,-626 1345.41,-610.7 1333.75,-601.859 1294,-570 1276.32,-555.826 1275.96,-548.088 1260,-532 1247.83,-519.736 1233.35,-506.625 1222.3,-496.907"/>
<polygon fill="midnightblue" stroke="midnightblue" points="1224.45,-494.14 1214.62,-490.207 1219.85,-499.417 1224.45,-494.14"/>
</g>
<!-- Node40 -->
<g id="node40" class="node"><title>Node40</title>
<g id="a_node40"><a xlink:href="constants_8h.html" target="_top" xlink:title="Various constants. ">
<polygon fill="none" stroke="black" points="1735.21,-355 1735.21,-373 1826.79,-373 1826.79,-355 1735.21,-355"/>
<text text-anchor="middle" x="1781" y="-361" font-family="Helvetica,sans-Serif" font-size="10.00">RMF/constants.h</text>
</a>
</g>
</g>
<!-- Node36&#45;&gt;Node40 -->
<g id="edge122" class="edge"><title>Node36&#45;&gt;Node40</title>
<path fill="none" stroke="midnightblue" d="M1840.4,-662.859C1836.58,-653.961 1830.62,-639.208 1827,-626 1802.46,-536.583 1788.05,-426.206 1783.03,-383.279"/>
<polygon fill="midnightblue" stroke="midnightblue" points="1786.49,-382.78 1781.88,-373.241 1779.54,-383.574 1786.49,-382.78"/>
</g>
<!-- Node43 -->
<g id="node43" class="node"><title>Node43</title>
<g id="a_node43"><a xlink:href="FileHandle_8h.html" target="_top" xlink:title="Declaration for RMF::FileHandle. ">
<polygon fill="none" stroke="red" points="1597.71,-542 1597.71,-560 1694.29,-560 1694.29,-542 1597.71,-542"/>
<text text-anchor="middle" x="1646" y="-548" font-family="Helvetica,sans-Serif" font-size="10.00">RMF/FileHandle.h</text>
</a>
</g>
</g>
<!-- Node36&#45;&gt;Node43 -->
<g id="edge97" class="edge"><title>Node36&#45;&gt;Node43</title>
<path fill="none" stroke="midnightblue" d="M1780.18,-666.079C1725,-660.34 1651.29,-648.602 1633,-626 1620.09,-610.046 1627.96,-585.749 1635.94,-569.391"/>
<polygon fill="midnightblue" stroke="midnightblue" points="1639.13,-570.849 1640.74,-560.378 1632.95,-567.559 1639.13,-570.849"/>
</g>
<!-- Node44 -->
<g id="node44" class="node"><title>Node44</title>
<g id="a_node44"><a xlink:href="Decorator_8h.html" target="_top" xlink:title="Mostly empty base classes for decorators and factories. ">
<polygon fill="none" stroke="red" points="1158.93,-542 1158.93,-560 1251.07,-560 1251.07,-542 1158.93,-542"/>
<text text-anchor="middle" x="1205" y="-548" font-family="Helvetica,sans-Serif" font-size="10.00">RMF/Decorator.h</text>
</a>
</g>
</g>
<!-- Node36&#45;&gt;Node44 -->
<g id="edge107" class="edge"><title>Node36&#45;&gt;Node44</title>
<path fill="none" stroke="midnightblue" d="M1780.33,-668.844C1639.55,-663.678 1310.73,-649.263 1266,-626 1242.04,-613.542 1223.96,-587.172 1213.92,-569.515"/>
<polygon fill="midnightblue" stroke="midnightblue" points="1216.78,-567.442 1208.96,-560.297 1210.62,-570.761 1216.78,-567.442"/>
</g>
<!-- Node45 -->
<g id="node45" class="node"><title>Node45</title>
<polygon fill="none" stroke="black" points="1940,-533 1940,-569 1994,-569 1994,-533 1940,-533"/>
<text text-anchor="middle" x="1966.51" y="-548" font-family="Helvetica,sans-Serif" font-size="10.00">Node45</text>
</g>
<!-- Node36&#45;&gt;Node45 -->
<g id="edge124" class="edge"><title>Node36&#45;&gt;Node45</title>
<path fill="none" stroke="midnightblue" d="M1852.45,-662.821C1870.61,-645.253 1913.95,-603.329 1941.8,-576.378"/>
<polygon fill="midnightblue" stroke="midnightblue" points="1944.46,-578.675 1949.22,-569.206 1939.59,-573.644 1944.46,-578.675"/>
</g>
<!-- Node46 -->
<g id="node46" class="node"><title>Node46</title>
<polygon fill="none" stroke="#bfbfbf" points="2011.8,-542 2011.8,-560 2126.2,-560 2126.2,-542 2011.8,-542"/>
<text text-anchor="middle" x="2069" y="-548" font-family="Helvetica,sans-Serif" font-size="10.00">boost/lexical_cast.hpp</text>
</g>
<!-- Node36&#45;&gt;Node46 -->
<g id="edge126" class="edge"><title>Node36&#45;&gt;Node46</title>
<path fill="none" stroke="midnightblue" d="M1907.83,-666.662C1966.01,-661.247 2045.85,-649.648 2066,-626 2079.01,-610.732 2077.28,-586.593 2073.94,-570.064"/>
<polygon fill="midnightblue" stroke="midnightblue" points="2077.27,-568.946 2071.53,-560.039 2070.46,-570.58 2077.27,-568.946"/>
</g>
<!-- Node47 -->
<g id="node47" class="node"><title>Node47</title>
<g id="a_node47"><a xlink:href="alias_8h.html" target="_top" xlink:title="Helper functions for manipulating RMF files. ">
<polygon fill="none" stroke="black" points="1835.55,-607 1835.55,-625 1880.45,-625 1880.45,-607 1835.55,-607"/>
<text text-anchor="middle" x="1858" y="-613" font-family="Helvetica,sans-Serif" font-size="10.00">alias.h</text>
</a>
</g>
</g>
<!-- Node36&#45;&gt;Node47 -->
<g id="edge127" class="edge"><title>Node36&#45;&gt;Node47</title>
<path fill="none" stroke="midnightblue" d="M1846.19,-662.562C1848.09,-655.228 1850.91,-644.352 1853.32,-635.066"/>
<polygon fill="midnightblue" stroke="midnightblue" points="1856.75,-635.76 1855.87,-625.201 1849.98,-634.003 1856.75,-635.76"/>
</g>
<!-- Node37&#45;&gt;Node2 -->
<g id="edge92" class="edge"><title>Node37&#45;&gt;Node2</title>
<path fill="none" stroke="midnightblue" d="M1237.51,-471.934C1271.2,-463.161 1325.12,-447.964 1370,-430 1513.68,-372.49 1548.1,-350.578 1675,-262 1757.28,-204.566 1846.42,-124.002 1882.02,-90.9955"/>
<polygon fill="midnightblue" stroke="midnightblue" points="1884.58,-93.3884 1889.51,-84.0107 1879.81,-88.267 1884.58,-93.3884"/>
</g>
<!-- Node37&#45;&gt;Node5 -->
<g id="edge65" class="edge"><title>Node37&#45;&gt;Node5</title>
<path fill="none" stroke="midnightblue" d="M1257.25,-477.607C1367.28,-471.202 1629.67,-448.697 1835,-374 2012.8,-309.319 2059.11,-279.548 2197,-150 2216.2,-131.964 2235.19,-108.185 2246.99,-92.5105"/>
<polygon fill="midnightblue" stroke="midnightblue" points="2249.92,-94.4414 2253.06,-84.323 2244.3,-90.2738 2249.92,-94.4414"/>
</g>
<!-- Node37&#45;&gt;Node7 -->
<g id="edge95" class="edge"><title>Node37&#45;&gt;Node7</title>
<path fill="none" stroke="midnightblue" d="M1152.73,-477.759C1032.88,-472.226 741.364,-456.42 647,-430 592.641,-414.781 577.585,-408.622 533,-374 527.365,-369.624 391.355,-208.873 347.496,-156.977"/>
<polygon fill="midnightblue" stroke="midnightblue" points="349.981,-154.494 340.853,-149.114 344.634,-159.012 349.981,-154.494"/>
</g>
<!-- Node37&#45;&gt;Node10 -->
<g id="edge64" class="edge"><title>Node37&#45;&gt;Node10</title>
<path fill="none" stroke="midnightblue" d="M1152.41,-478.999C1020.42,-475.246 680.868,-457.504 614,-374 545.885,-288.94 604.365,-142.831 627.548,-93.1288"/>
<polygon fill="midnightblue" stroke="midnightblue" points="630.736,-94.5737 631.901,-84.043 624.424,-91.5491 630.736,-94.5737"/>
</g>
<!-- Node37&#45;&gt;Node15 -->
<g id="edge94" class="edge"><title>Node37&#45;&gt;Node15</title>
<path fill="none" stroke="midnightblue" d="M1219.67,-471.835C1262.36,-447.079 1386.17,-368.015 1428,-262 1445.06,-218.747 1395.43,-176.129 1364.94,-154.899"/>
<polygon fill="midnightblue" stroke="midnightblue" points="1366.8,-151.934 1356.55,-149.257 1362.9,-157.742 1366.8,-151.934"/>
</g>
<!-- Node37&#45;&gt;Node28 -->
<g id="edge96" class="edge"><title>Node37&#45;&gt;Node28</title>
<path fill="none" stroke="midnightblue" d="M1227.37,-471.979C1271.39,-455.849 1371.85,-417.304 1451,-374 1467.4,-365.028 1566.77,-296.675 1609.97,-266.848"/>
<polygon fill="midnightblue" stroke="midnightblue" points="1612.05,-269.666 1618.29,-261.103 1608.07,-263.907 1612.05,-269.666"/>
</g>
<!-- Node37&#45;&gt;Node29 -->
<g id="edge91" class="edge"><title>Node37&#45;&gt;Node29</title>
<path fill="none" stroke="midnightblue" d="M1152.74,-476.62C1092.68,-471.497 991.872,-459.069 910,-430 874.259,-417.31 836.705,-393.89 814.594,-378.899"/>
<polygon fill="midnightblue" stroke="midnightblue" points="816.333,-375.846 806.115,-373.046 812.356,-381.607 816.333,-375.846"/>
</g>
<!-- Node37&#45;&gt;Node35 -->
<g id="edge66" class="edge"><title>Node37&#45;&gt;Node35</title>
<path fill="none" stroke="midnightblue" d="M1214.42,-471.908C1242.42,-446.82 1321.6,-367.834 1295,-298 1280.9,-260.992 1246.33,-228.918 1224.37,-211.334"/>
<polygon fill="midnightblue" stroke="midnightblue" points="1226.42,-208.49 1216.37,-205.12 1222.12,-214.018 1226.42,-208.49"/>
</g>
<!-- Node37&#45;&gt;Node38 -->
<g id="edge63" class="edge"><title>Node37&#45;&gt;Node38</title>
<path fill="none" stroke="midnightblue" d="M1202.05,-471.729C1195.43,-453.163 1179.27,-407.83 1170.28,-382.627"/>
<polygon fill="midnightblue" stroke="midnightblue" points="1173.58,-381.439 1166.92,-373.196 1166.98,-383.79 1173.58,-381.439"/>
</g>
<!-- Node39 -->
<g id="node39" class="node"><title>Node39</title>
<g id="a_node39"><a xlink:href="NodeConstHandle_8h.html" target="_top" xlink:title="Declaration of NodeConstHandlke. ">
<polygon fill="none" stroke="red" points="918.971,-411 918.971,-429 1025.03,-429 1025.03,-411 918.971,-411"/>
<text text-anchor="middle" x="972" y="-417" font-family="Helvetica,sans-Serif" font-size="10.00">NodeConstHandle.h</text>
</a>
</g>
</g>
<!-- Node37&#45;&gt;Node39 -->
<g id="edge67" class="edge"><title>Node37&#45;&gt;Node39</title>
<path fill="none" stroke="midnightblue" d="M1173.09,-471.92C1131.72,-461.445 1059.49,-443.154 1013.79,-431.581"/>
<polygon fill="midnightblue" stroke="midnightblue" points="1014.45,-428.139 1003.9,-429.077 1012.73,-434.925 1014.45,-428.139"/>
</g>
<!-- Node41 -->
<g id="node41" class="node"><title>Node41</title>
<g id="a_node41"><a xlink:href="enums_8h.html" target="_top" xlink:title="The various enums used in RMF. ">
<polygon fill="none" stroke="black" points="1207.6,-299 1207.6,-317 1286.4,-317 1286.4,-299 1207.6,-299"/>
<text text-anchor="middle" x="1247" y="-305" font-family="Helvetica,sans-Serif" font-size="10.00">RMF/enums.h</text>
</a>
</g>
</g>
<!-- Node37&#45;&gt;Node41 -->
<g id="edge93" class="edge"><title>Node37&#45;&gt;Node41</title>
<path fill="none" stroke="midnightblue" d="M1207.42,-471.898C1211.59,-458.501 1220.89,-431.118 1233,-410 1243.09,-392.417 1254.42,-393.173 1261,-374 1266.38,-358.32 1261.32,-339.777 1255.84,-326.518"/>
<polygon fill="midnightblue" stroke="midnightblue" points="1258.9,-324.797 1251.54,-317.172 1252.54,-327.72 1258.9,-324.797"/>
</g>
<!-- Node39&#45;&gt;Node2 -->
<g id="edge74" class="edge"><title>Node39&#45;&gt;Node2</title>
<path fill="none" stroke="midnightblue" d="M982.461,-410.779C1004.23,-393.698 1052.77,-355.797 1057,-354 1155.47,-312.193 1190.29,-339.941 1295,-318 1388.7,-298.365 1415,-299.712 1503,-262 1547,-243.144 1556.55,-234.516 1595,-206 1635.7,-175.811 1635.2,-153.679 1680,-130 1734.32,-101.29 1804.37,-87.4644 1850.2,-81.077"/>
<polygon fill="midnightblue" stroke="midnightblue" points="1850.71,-84.5395 1860.17,-79.7522 1849.79,-77.6006 1850.71,-84.5395"/>
</g>
<!-- Node39&#45;&gt;Node5 -->
<g id="edge71" class="edge"><title>Node39&#45;&gt;Node5</title>
<path fill="none" stroke="midnightblue" d="M1020.5,-410.962C1071.87,-402.327 1155.29,-387.957 1227,-374 1442.45,-332.065 1502.38,-338.819 1708,-262 1778.75,-235.566 1789.48,-213.054 1860,-186 1992.77,-135.062 2158.73,-97.1395 2227.2,-82.5525"/>
<polygon fill="midnightblue" stroke="midnightblue" points="2228.27,-85.9035 2237.33,-80.4133 2226.83,-79.0545 2228.27,-85.9035"/>
</g>
<!-- Node39&#45;&gt;Node7 -->
<g id="edge76" class="edge"><title>Node39&#45;&gt;Node7</title>
<path fill="none" stroke="midnightblue" d="M918.948,-416.206C839.16,-411.248 692.737,-398.992 647,-374 550.464,-321.25 578.305,-245.846 486,-186 459.456,-168.79 426.104,-157.963 397.41,-151.256"/>
<polygon fill="midnightblue" stroke="midnightblue" points="397.994,-147.8 387.473,-149.051 396.478,-154.634 397.994,-147.8"/>
</g>
<!-- Node39&#45;&gt;Node9 -->
<g id="edge69" class="edge"><title>Node39&#45;&gt;Node9</title>
<path fill="none" stroke="midnightblue" d="M918.731,-419.546C847.266,-418.673 717.377,-411.405 614,-374 440.333,-311.162 352.663,-312.011 264,-150 252.321,-128.659 273.55,-105.119 291.145,-90.4452"/>
<polygon fill="midnightblue" stroke="midnightblue" points="293.638,-92.9377 299.331,-84.0027 289.308,-87.437 293.638,-92.9377"/>
</g>
<!-- Node39&#45;&gt;Node10 -->
<g id="edge70" class="edge"><title>Node39&#45;&gt;Node10</title>
<path fill="none" stroke="midnightblue" d="M918.509,-418.695C865.508,-416.33 783.439,-406.977 721,-374 690.152,-357.708 681.733,-349.136 666,-318 627.606,-242.015 631.019,-136.081 634.25,-94.1352"/>
<polygon fill="midnightblue" stroke="midnightblue" points="637.745,-94.3441 635.121,-84.0793 630.771,-93.7397 637.745,-94.3441"/>
</g>
<!-- Node39&#45;&gt;Node15 -->
<g id="edge75" class="edge"><title>Node39&#45;&gt;Node15</title>
<path fill="none" stroke="midnightblue" d="M973.419,-410.836C976.267,-396.98 984.016,-368.918 1002,-354 1052.44,-312.156 1087.11,-348.731 1145,-318 1226.09,-274.95 1300.83,-191.782 1330.03,-156.953"/>
<polygon fill="midnightblue" stroke="midnightblue" points="1332.77,-159.129 1336.45,-149.193 1327.38,-154.667 1332.77,-159.129"/>
</g>
<!-- Node39&#45;&gt;Node18 -->
<g id="edge77" class="edge"><title>Node39&#45;&gt;Node18</title>
<path fill="none" stroke="midnightblue" d="M918.931,-418.045C872.723,-414.973 805.559,-404.923 756,-374 698.226,-337.95 662,-321.099 662,-253 662,-253 662,-253 662,-195 662,-101.349 806.068,-81.2862 876.342,-77.0707"/>
<polygon fill="midnightblue" stroke="midnightblue" points="876.747,-80.5544 886.552,-76.539 876.383,-73.5639 876.747,-80.5544"/>
</g>
<!-- Node39&#45;&gt;Node28 -->
<g id="edge90" class="edge"><title>Node39&#45;&gt;Node28</title>
<path fill="none" stroke="midnightblue" d="M987.387,-410.788C1018.78,-394.095 1088.23,-357.479 1100,-354 1246.57,-310.679 1292.81,-351.187 1442,-318 1500.39,-305.011 1565.83,-279.841 1602.05,-264.921"/>
<polygon fill="midnightblue" stroke="midnightblue" points="1603.58,-268.078 1611.46,-261.003 1600.89,-261.615 1603.58,-268.078"/>
</g>
<!-- Node39&#45;&gt;Node29 -->
<g id="edge73" class="edge"><title>Node39&#45;&gt;Node29</title>
<path fill="none" stroke="midnightblue" d="M945.501,-410.916C915.174,-401.663 865.326,-386.455 831.377,-376.098"/>
<polygon fill="midnightblue" stroke="midnightblue" points="831.976,-372.622 821.39,-373.051 829.934,-379.317 831.976,-372.622"/>
</g>
<!-- Node39&#45;&gt;Node30 -->
<g id="edge89" class="edge"><title>Node39&#45;&gt;Node30</title>
<path fill="none" stroke="midnightblue" d="M960.697,-410.816C948.916,-402.119 930.102,-387.752 915,-374 897.621,-358.174 879.215,-338.453 867.016,-324.908"/>
<polygon fill="midnightblue" stroke="midnightblue" points="869.554,-322.497 860.286,-317.363 864.33,-327.156 869.554,-322.497"/>
</g>
<!-- Node39&#45;&gt;Node35 -->
<g id="edge72" class="edge"><title>Node39&#45;&gt;Node35</title>
<path fill="none" stroke="midnightblue" d="M965.439,-410.898C955.529,-397.627 939.284,-371.031 953,-354 1000.08,-295.542 1054.4,-357.859 1118,-318 1158.26,-292.771 1185.52,-241.48 1197.72,-214.496"/>
<polygon fill="midnightblue" stroke="midnightblue" points="1201.01,-215.719 1201.78,-205.152 1194.59,-212.931 1201.01,-215.719"/>
</g>
<!-- Node39&#45;&gt;Node38 -->
<g id="edge68" class="edge"><title>Node39&#45;&gt;Node38</title>
<path fill="none" stroke="midnightblue" d="M1000.74,-410.916C1033.93,-401.584 1088.65,-386.193 1125.49,-375.831"/>
<polygon fill="midnightblue" stroke="midnightblue" points="1126.69,-379.128 1135.37,-373.051 1124.8,-372.39 1126.69,-379.128"/>
</g>
<!-- Node39&#45;&gt;Node40 -->
<g id="edge78" class="edge"><title>Node39&#45;&gt;Node40</title>
<path fill="none" stroke="midnightblue" d="M1025.08,-415.457C1170.63,-405.741 1575.15,-378.74 1724.58,-368.766"/>
<polygon fill="midnightblue" stroke="midnightblue" points="1725.15,-372.236 1734.89,-368.078 1724.68,-365.251 1725.15,-372.236"/>
</g>
<!-- Node39&#45;&gt;Node41 -->
<g id="edge81" class="edge"><title>Node39&#45;&gt;Node41</title>
<path fill="none" stroke="midnightblue" d="M976.767,-410.683C985.305,-396.597 1004.61,-368.197 1029,-354 1043.4,-345.614 1137.4,-328.094 1197.17,-317.56"/>
<polygon fill="midnightblue" stroke="midnightblue" points="1197.93,-320.979 1207.18,-315.804 1196.72,-314.085 1197.93,-320.979"/>
</g>
<!-- Node40&#45;&gt;Node2 -->
<g id="edge79" class="edge"><title>Node40&#45;&gt;Node2</title>
<path fill="none" stroke="midnightblue" d="M1784.38,-354.72C1800.36,-315.516 1868.58,-148.175 1890.9,-93.4182"/>
<polygon fill="midnightblue" stroke="midnightblue" points="1894.19,-94.6207 1894.72,-84.0393 1887.71,-91.9781 1894.19,-94.6207"/>
</g>
<!-- Node40&#45;&gt;Node35 -->
<g id="edge80" class="edge"><title>Node40&#45;&gt;Node35</title>
<path fill="none" stroke="midnightblue" d="M1776.85,-354.953C1764.73,-332.42 1726.95,-268.612 1675,-242 1665.44,-237.101 1356.07,-210.025 1244.57,-200.398"/>
<polygon fill="midnightblue" stroke="midnightblue" points="1244.67,-196.894 1234.41,-199.522 1244.07,-203.868 1244.67,-196.894"/>
</g>
<!-- Node41&#45;&gt;Node2 -->
<g id="edge82" class="edge"><title>Node41&#45;&gt;Node2</title>
<path fill="none" stroke="midnightblue" d="M1286.67,-302.247C1331.24,-296.133 1405.31,-283.634 1466,-262 1491.28,-252.989 1553.27,-224.192 1573,-206 1602.37,-178.92 1588.03,-152.558 1621,-130 1657.59,-104.968 1780.86,-88.3429 1849.98,-80.747"/>
<polygon fill="midnightblue" stroke="midnightblue" points="1850.61,-84.1994 1860.18,-79.6486 1849.86,-77.2397 1850.61,-84.1994"/>
</g>
<!-- Node41&#45;&gt;Node9 -->
<g id="edge88" class="edge"><title>Node41&#45;&gt;Node9</title>
<path fill="none" stroke="midnightblue" d="M1207.52,-307.374C1142.85,-306.768 1011.23,-300.383 908,-262 850.229,-240.519 848.962,-209.543 792,-186 605.354,-108.856 537.816,-160.161 347,-94 342.766,-92.5321 338.395,-90.6702 334.22,-88.7037"/>
<polygon fill="midnightblue" stroke="midnightblue" points="335.5,-85.4298 324.994,-84.0619 332.354,-91.683 335.5,-85.4298"/>
</g>
<!-- Node41&#45;&gt;Node10 -->
<g id="edge87" class="edge"><title>Node41&#45;&gt;Node10</title>
<path fill="none" stroke="midnightblue" d="M1207.38,-305.468C1133.33,-301.941 977.412,-291.185 933,-262 875.477,-224.199 907.508,-170.701 852,-130 795.701,-88.7184 711.33,-78.8077 666.518,-76.5507"/>
<polygon fill="midnightblue" stroke="midnightblue" points="666.412,-73.0436 656.278,-76.1352 666.128,-80.0378 666.412,-73.0436"/>
</g>
<!-- Node42 -->
<g id="node42" class="node"><title>Node42</title>
<g id="a_node42"><a xlink:href="Enum_8h.html" target="_top" xlink:title="Declaration of RMF::Enum. ">
<polygon fill="none" stroke="red" points="1328.77,-187 1328.77,-205 1379.23,-205 1379.23,-187 1328.77,-187"/>
<text text-anchor="middle" x="1354" y="-193" font-family="Helvetica,sans-Serif" font-size="10.00">Enum.h</text>
</a>
</g>
</g>
<!-- Node41&#45;&gt;Node42 -->
<g id="edge83" class="edge"><title>Node41&#45;&gt;Node42</title>
<path fill="none" stroke="midnightblue" d="M1286.4,-300.846C1309.59,-295.005 1337.2,-283.713 1352,-262 1361.33,-248.309 1360.62,-228.952 1358.32,-214.926"/>
<polygon fill="midnightblue" stroke="midnightblue" points="1361.72,-214.123 1356.29,-205.03 1354.87,-215.529 1361.72,-214.123"/>
</g>
<!-- Node42&#45;&gt;Node2 -->
<g id="edge84" class="edge"><title>Node42&#45;&gt;Node2</title>
<path fill="none" stroke="midnightblue" d="M1364.74,-186.998C1384.32,-172.869 1427.64,-143.7 1469,-130 1601.99,-85.9543 1769.06,-77.4293 1849.85,-76.0436"/>
<polygon fill="midnightblue" stroke="midnightblue" points="1850.25,-79.5384 1860.2,-75.8976 1850.16,-72.5391 1850.25,-79.5384"/>
</g>
<!-- Node42&#45;&gt;Node7 -->
<g id="edge85" class="edge"><title>Node42&#45;&gt;Node7</title>
<path fill="none" stroke="midnightblue" d="M1328.45,-192.699C1305.96,-190.728 1272.33,-187.914 1243,-186 930.889,-165.626 557.954,-149.854 404.874,-143.749"/>
<polygon fill="midnightblue" stroke="midnightblue" points="404.805,-140.244 394.673,-143.344 404.527,-147.238 404.805,-140.244"/>
</g>
<!-- Node42&#45;&gt;Node15 -->
<g id="edge86" class="edge"><title>Node42&#45;&gt;Node15</title>
<path fill="none" stroke="midnightblue" d="M1352.28,-186.562C1350.79,-179.228 1348.57,-168.352 1346.68,-159.066"/>
<polygon fill="midnightblue" stroke="midnightblue" points="1350.1,-158.302 1344.67,-149.201 1343.24,-159.699 1350.1,-158.302"/>
</g>
<!-- Node43&#45;&gt;Node2 -->
<g id="edge103" class="edge"><title>Node43&#45;&gt;Node2</title>
<path fill="none" stroke="midnightblue" d="M1657.99,-541.793C1683.45,-524.772 1745.34,-485.588 1803,-466 1895.98,-434.414 1952.32,-500.19 2021,-430 2097.21,-352.114 2077,-290.162 2045,-186 2036.17,-157.248 2029.67,-149.772 2007,-130 1985,-110.808 1954.97,-96.5962 1932,-87.5828"/>
<polygon fill="midnightblue" stroke="midnightblue" points="1933.23,-84.3039 1922.64,-84.0388 1930.75,-90.851 1933.23,-84.3039"/>
</g>
<!-- Node43&#45;&gt;Node3 -->
<g id="edge104" class="edge"><title>Node43&#45;&gt;Node3</title>
<path fill="none" stroke="midnightblue" d="M1681.2,-541.995C1727.32,-531.492 1810.74,-512.461 1882,-496 1913.46,-488.732 2135.05,-442.072 2165,-430 2236.67,-401.106 2264.85,-387.808 2298,-318 2347.98,-212.75 2373.54,-136.173 2289,-56 2266.4,-34.5636 2077.57,-20.8323 1970.82,-14.7067"/>
<polygon fill="midnightblue" stroke="midnightblue" points="1970.94,-11.2077 1960.76,-14.1376 1970.54,-18.1965 1970.94,-11.2077"/>
</g>
<!-- Node43&#45;&gt;Node5 -->
<g id="edge100" class="edge"><title>Node43&#45;&gt;Node5</title>
<path fill="none" stroke="midnightblue" d="M1671.34,-541.918C1719.23,-526.699 1826.33,-492.898 1917,-466 2083.64,-416.564 2186.23,-464.987 2279,-318 2324.64,-245.697 2285.41,-136.068 2267.14,-93.6347"/>
<polygon fill="midnightblue" stroke="midnightblue" points="2270.28,-92.0709 2263.01,-84.358 2263.88,-94.9172 2270.28,-92.0709"/>
</g>
<!-- Node43&#45;&gt;Node10 -->
<g id="edge99" class="edge"><title>Node43&#45;&gt;Node10</title>
<path fill="none" stroke="midnightblue" d="M1650.42,-541.907C1670.85,-503.256 1752,-335.481 1675,-242 1665.35,-230.287 1085.59,-132.192 1071,-130 919.607,-107.246 737.527,-86.907 666.479,-79.2387"/>
<polygon fill="midnightblue" stroke="midnightblue" points="666.751,-75.7479 656.434,-78.1593 666.003,-82.7078 666.751,-75.7479"/>
</g>
<!-- Node43&#45;&gt;Node28 -->
<g id="edge106" class="edge"><title>Node43&#45;&gt;Node28</title>
<path fill="none" stroke="midnightblue" d="M1646.03,-541.773C1646.09,-514.811 1645.88,-426.68 1641,-354 1639.05,-324.883 1635.02,-291.215 1632.42,-271.041"/>
<polygon fill="midnightblue" stroke="midnightblue" points="1635.89,-270.554 1631.11,-261.097 1628.95,-271.468 1635.89,-270.554"/>
</g>
<!-- Node43&#45;&gt;Node35 -->
<g id="edge101" class="edge"><title>Node43&#45;&gt;Node35</title>
<path fill="none" stroke="midnightblue" d="M1637.41,-541.808C1598.3,-504.706 1432.4,-349.574 1281,-242 1264.33,-230.159 1244.41,-218.445 1229.15,-209.939"/>
<polygon fill="midnightblue" stroke="midnightblue" points="1230.77,-206.834 1220.32,-205.084 1227.39,-212.968 1230.77,-206.834"/>
</g>
<!-- Node43&#45;&gt;Node37 -->
<g id="edge102" class="edge"><title>Node43&#45;&gt;Node37</title>
<path fill="none" stroke="midnightblue" d="M1621.48,-541.946C1610.17,-538.474 1596.51,-534.618 1584,-532 1463.35,-506.743 1431.19,-512.223 1309,-496 1295.62,-494.223 1281.27,-492.302 1267.63,-490.468"/>
<polygon fill="midnightblue" stroke="midnightblue" points="1267.75,-486.953 1257.37,-489.088 1266.81,-493.89 1267.75,-486.953"/>
</g>
<!-- Node43&#45;&gt;Node38 -->
<g id="edge98" class="edge"><title>Node43&#45;&gt;Node38</title>
<path fill="none" stroke="midnightblue" d="M1623.53,-541.91C1594.65,-531.474 1542.98,-512.675 1499,-496 1385.84,-453.096 1252.04,-400.081 1193.69,-376.848"/>
<polygon fill="midnightblue" stroke="midnightblue" points="1194.92,-373.572 1184.34,-373.122 1192.33,-380.075 1194.92,-373.572"/>
</g>
<!-- Node43&#45;&gt;Node41 -->
<g id="edge105" class="edge"><title>Node43&#45;&gt;Node41</title>
<path fill="none" stroke="midnightblue" d="M1628.32,-541.99C1606.49,-531.934 1568.4,-513.829 1537,-496 1432.24,-436.523 1313.12,-355.1 1266.84,-322.909"/>
<polygon fill="midnightblue" stroke="midnightblue" points="1268.79,-319.998 1258.58,-317.148 1264.78,-325.74 1268.79,-319.998"/>
</g>
<!-- Node44&#45;&gt;Node2 -->
<g id="edge108" class="edge"><title>Node44&#45;&gt;Node2</title>
<path fill="none" stroke="midnightblue" d="M1251.2,-543.477C1311.4,-534.606 1419.74,-517.369 1511,-496 1730.03,-444.715 1955,-477.954 1955,-253 1955,-253 1955,-253 1955,-195 1955,-154.733 1928.13,-113.658 1911.28,-91.8697"/>
<polygon fill="midnightblue" stroke="midnightblue" points="1913.97,-89.6302 1904.99,-84.0148 1908.51,-94.0073 1913.97,-89.6302"/>
</g>
<!-- Node44&#45;&gt;Node7 -->
<g id="edge109" class="edge"><title>Node44&#45;&gt;Node7</title>
<path fill="none" stroke="midnightblue" d="M1158.92,-547.161C986.05,-536.488 385.708,-499.207 382,-496 281.015,-408.673 315.638,-218.184 329.452,-158.947"/>
<polygon fill="midnightblue" stroke="midnightblue" points="332.862,-159.735 331.821,-149.191 326.06,-158.083 332.862,-159.735"/>
</g>
<!-- Node44&#45;&gt;Node10 -->
<g id="edge112" class="edge"><title>Node44&#45;&gt;Node10</title>
<path fill="none" stroke="midnightblue" d="M1158.91,-550.149C1039.56,-548.245 715.557,-528.255 512,-374 480.347,-350.013 452.199,-335.596 465,-298 496.066,-206.76 581.463,-123.782 618.492,-90.9224"/>
<polygon fill="midnightblue" stroke="midnightblue" points="621.181,-93.2209 626.412,-84.0075 616.577,-87.9478 621.181,-93.2209"/>
</g>
<!-- Node44&#45;&gt;Node13 -->
<g id="edge115" class="edge"><title>Node44&#45;&gt;Node13</title>
<path fill="none" stroke="midnightblue" d="M1158.84,-548.965C992.06,-544.969 426.638,-529.088 353,-496 172.152,-414.738 76.298,-163.476 52.7864,-93.9766"/>
<polygon fill="midnightblue" stroke="midnightblue" points="55.9905,-92.5175 49.5302,-84.1201 49.3438,-94.7133 55.9905,-92.5175"/>
</g>
<!-- Node44&#45;&gt;Node25 -->
<g id="edge118" class="edge"><title>Node44&#45;&gt;Node25</title>
<path fill="none" stroke="midnightblue" d="M1241.27,-541.916C1368.61,-513.264 1789.95,-416.023 1835,-374 1881.29,-330.824 1893.6,-251.395 1896.85,-215.487"/>
<polygon fill="midnightblue" stroke="midnightblue" points="1900.37,-215.33 1897.64,-205.094 1893.39,-214.8 1900.37,-215.33"/>
</g>
<!-- Node44&#45;&gt;Node28 -->
<g id="edge116" class="edge"><title>Node44&#45;&gt;Node28</title>
<path fill="none" stroke="midnightblue" d="M1220.17,-541.827C1271.23,-513.997 1440.51,-419.022 1564,-318 1582.97,-302.484 1602.74,-282.41 1615.64,-268.702"/>
<polygon fill="midnightblue" stroke="midnightblue" points="1618.47,-270.795 1622.71,-261.086 1613.34,-266.031 1618.47,-270.795"/>
</g>
<!-- Node44&#45;&gt;Node30 -->
<g id="edge119" class="edge"><title>Node44&#45;&gt;Node30</title>
<path fill="none" stroke="midnightblue" d="M1158.7,-545.919C1080.33,-538.43 925.338,-520.941 877,-496 809.133,-460.983 785.08,-444.615 756,-374 743.268,-343.083 787.208,-325.023 820.078,-316.087"/>
<polygon fill="midnightblue" stroke="midnightblue" points="821.02,-319.459 829.849,-313.602 819.295,-312.675 821.02,-319.459"/>
</g>
<!-- Node44&#45;&gt;Node31 -->
<g id="edge117" class="edge"><title>Node44&#45;&gt;Node31</title>
<path fill="none" stroke="midnightblue" d="M1158.62,-547.823C1069.37,-542.937 877.538,-528.847 821,-496 722.063,-438.521 730.162,-270.606 735.792,-215.068"/>
<polygon fill="midnightblue" stroke="midnightblue" points="739.285,-215.33 736.917,-205.003 732.328,-214.553 739.285,-215.33"/>
</g>
<!-- Node44&#45;&gt;Node35 -->
<g id="edge110" class="edge"><title>Node44&#45;&gt;Node35</title>
<path fill="none" stroke="midnightblue" d="M1158.84,-547.602C1089.4,-541.138 960.798,-517.346 910,-430 893.045,-400.847 938.409,-358.967 944,-354 972.846,-328.374 989.272,-336.74 1023,-318 1084.85,-283.636 1153.16,-235.136 1185.7,-211.325"/>
<polygon fill="midnightblue" stroke="midnightblue" points="1187.92,-214.041 1193.9,-205.296 1183.77,-208.402 1187.92,-214.041"/>
</g>
<!-- Node44&#45;&gt;Node37 -->
<g id="edge121" class="edge"><title>Node44&#45;&gt;Node37</title>
<path fill="none" stroke="midnightblue" d="M1205,-541.932C1205,-531.708 1205,-513.781 1205,-500.19"/>
<polygon fill="midnightblue" stroke="midnightblue" points="1208.5,-500.057 1205,-490.057 1201.5,-500.057 1208.5,-500.057"/>
</g>
<!-- Node44&#45;&gt;Node38 -->
<g id="edge111" class="edge"><title>Node44&#45;&gt;Node38</title>
<path fill="none" stroke="midnightblue" d="M1175.93,-541.99C1153.8,-534.196 1124.86,-519.945 1111,-496 1088.25,-456.701 1126.1,-405.755 1148.81,-380.543"/>
<polygon fill="midnightblue" stroke="midnightblue" points="1151.56,-382.731 1155.83,-373.034 1146.44,-377.953 1151.56,-382.731"/>
</g>
<!-- Node44&#45;&gt;Node39 -->
<g id="edge120" class="edge"><title>Node44&#45;&gt;Node39</title>
<path fill="none" stroke="midnightblue" d="M1180.31,-541.989C1153.13,-532.701 1108.58,-516.07 1073,-496 1041.35,-478.149 1008.18,-451.822 988.831,-435.576"/>
<polygon fill="midnightblue" stroke="midnightblue" points="991.085,-432.899 981.2,-429.087 986.55,-438.231 991.085,-432.899"/>
</g>
<!-- Node44&#45;&gt;Node40 -->
<g id="edge113" class="edge"><title>Node44&#45;&gt;Node40</title>
<path fill="none" stroke="midnightblue" d="M1224.03,-541.979C1261.65,-526.279 1348.34,-490.855 1423,-466 1535.77,-428.455 1671.44,-392.69 1738.78,-375.552"/>
<polygon fill="midnightblue" stroke="midnightblue" points="1739.77,-378.913 1748.6,-373.063 1738.05,-372.128 1739.77,-378.913"/>
</g>
<!-- Node44&#45;&gt;Node41 -->
<g id="edge114" class="edge"><title>Node44&#45;&gt;Node41</title>
<path fill="none" stroke="midnightblue" d="M1190.17,-541.955C1175.34,-532.967 1153.41,-516.892 1144,-496 1138.53,-483.842 1139.22,-478.445 1144,-466 1163.76,-414.597 1199.82,-421.893 1227,-374 1235.38,-359.24 1240.65,-340.561 1243.67,-327.018"/>
<polygon fill="midnightblue" stroke="midnightblue" points="1247.13,-327.545 1245.69,-317.049 1240.27,-326.155 1247.13,-327.545"/>
</g>
<!-- Node47&#45;&gt;Node2 -->
<g id="edge128" class="edge"><title>Node47&#45;&gt;Node2</title>
<path fill="none" stroke="midnightblue" d="M1880.65,-611.752C1894.1,-609.897 1911.5,-607.624 1927,-606 2038.24,-594.342 2926,-593.852 2926,-482 2926,-482 2926,-482 2926,-419 2926,-209.568 2148.54,-104.994 1945.85,-81.2894"/>
<polygon fill="midnightblue" stroke="midnightblue" points="1946.14,-77.7999 1935.81,-80.1261 1945.34,-84.7534 1946.14,-77.7999"/>
</g>
<!-- Node47&#45;&gt;Node6 -->
<g id="edge134" class="edge"><title>Node47&#45;&gt;Node6</title>
<path fill="none" stroke="midnightblue" d="M1880.64,-612.004C1953.7,-602.334 2184.32,-571.811 2285.55,-558.412"/>
<polygon fill="midnightblue" stroke="midnightblue" points="2286.06,-561.876 2295.51,-557.094 2285.14,-554.936 2286.06,-561.876"/>
</g>
<!-- Node47&#45;&gt;Node7 -->
<g id="edge129" class="edge"><title>Node47&#45;&gt;Node7</title>
<path fill="none" stroke="midnightblue" d="M1835.36,-611.482C1821.69,-609.508 1803.88,-607.206 1788,-606 1703.77,-599.606 335.224,-621.145 268,-570 192.246,-512.365 206,-460.187 206,-365 206,-365 206,-365 206,-251 206,-220.205 208.828,-208.362 230,-186 245.46,-169.671 267.846,-158.953 287.892,-152.09"/>
<polygon fill="midnightblue" stroke="midnightblue" points="289.041,-155.398 297.504,-149.023 286.913,-148.729 289.041,-155.398"/>
</g>
<!-- Node47&#45;&gt;Node23 -->
<g id="edge136" class="edge"><title>Node47&#45;&gt;Node23</title>
<path fill="none" stroke="midnightblue" d="M1863,-606.906C1873.56,-590.458 1899.74,-552.916 1931,-532 1959.81,-512.724 1996.79,-500.161 2026.32,-492.449"/>
<polygon fill="midnightblue" stroke="midnightblue" points="2027.18,-495.843 2036.03,-490.017 2025.48,-489.052 2027.18,-495.843"/>
</g>
<!-- Node47&#45;&gt;Node37 -->
<g id="edge130" class="edge"><title>Node47&#45;&gt;Node37</title>
<path fill="none" stroke="midnightblue" d="M1835.4,-611.924C1774.85,-603.639 1609.94,-580.753 1556,-570 1496,-558.039 1324.15,-513.346 1245.35,-492.646"/>
<polygon fill="midnightblue" stroke="midnightblue" points="1245.88,-489.166 1235.32,-490.008 1244.1,-495.936 1245.88,-489.166"/>
</g>
<!-- Node47&#45;&gt;Node40 -->
<g id="edge133" class="edge"><title>Node47&#45;&gt;Node40</title>
<path fill="none" stroke="midnightblue" d="M1860.61,-606.604C1865.41,-591.449 1876.23,-558.626 1888,-532 1895.31,-515.453 1902.65,-513.561 1907,-496 1910.21,-483.058 1912.77,-478.02 1907,-466 1895.8,-442.667 1835.21,-400.451 1802.3,-378.729"/>
<polygon fill="midnightblue" stroke="midnightblue" points="1804.1,-375.725 1793.82,-373.179 1800.27,-381.582 1804.1,-375.725"/>
</g>
<!-- Node47&#45;&gt;Node43 -->
<g id="edge131" class="edge"><title>Node47&#45;&gt;Node43</title>
<path fill="none" stroke="midnightblue" d="M1835.31,-608.258C1798.84,-597.421 1726.84,-576.022 1682.9,-562.965"/>
<polygon fill="midnightblue" stroke="midnightblue" points="1683.76,-559.569 1673.17,-560.075 1681.76,-566.279 1683.76,-559.569"/>
</g>
<!-- Node47&#45;&gt;Node44 -->
<g id="edge132" class="edge"><title>Node47&#45;&gt;Node44</title>
<path fill="none" stroke="midnightblue" d="M1835.33,-611.878C1821.64,-610.044 1803.83,-607.75 1788,-606 1594.89,-584.649 1365.15,-565.078 1261.13,-556.531"/>
<polygon fill="midnightblue" stroke="midnightblue" points="1261.41,-553.043 1251.16,-555.715 1260.84,-560.02 1261.41,-553.043"/>
</g>
<!-- Node47&#45;&gt;Node45 -->
<g id="edge135" class="edge"><title>Node47&#45;&gt;Node45</title>
<path fill="none" stroke="midnightblue" d="M1872.25,-606.764C1887.06,-598.202 1910.84,-584.461 1930.87,-572.885"/>
<polygon fill="midnightblue" stroke="midnightblue" points="1932.85,-575.78 1939.76,-567.745 1929.35,-569.719 1932.85,-575.78"/>
</g>
<!-- Node47&#45;&gt;Node46 -->
<g id="edge137" class="edge"><title>Node47&#45;&gt;Node46</title>
<path fill="none" stroke="midnightblue" d="M1880.58,-608.258C1916.88,-597.421 1988.55,-576.022 2032.27,-562.965"/>
<polygon fill="midnightblue" stroke="midnightblue" points="2033.37,-566.29 2041.95,-560.075 2031.37,-559.582 2033.37,-566.29"/>
</g>
<!-- Node48&#45;&gt;Node2 -->
<g id="edge139" class="edge"><title>Node48&#45;&gt;Node2</title>
<path fill="none" stroke="midnightblue" d="M1717.66,-606.623C1730.99,-590.317 1762.57,-553.99 1796,-532 1895.57,-466.502 1952.45,-506.306 2044,-430 2108.14,-376.538 2107,-336.501 2107,-253 2107,-253 2107,-253 2107,-195 2107,-121.235 2007.47,-92.6082 1945.78,-81.9495"/>
<polygon fill="midnightblue" stroke="midnightblue" points="1946.28,-78.4857 1935.85,-80.3318 1945.16,-85.3946 1946.28,-78.4857"/>
</g>
<!-- Node48&#45;&gt;Node6 -->
<g id="edge145" class="edge"><title>Node48&#45;&gt;Node6</title>
<path fill="none" stroke="midnightblue" d="M1779.75,-608.047C1906.82,-595.198 2175.49,-568.03 2285.49,-556.906"/>
<polygon fill="midnightblue" stroke="midnightblue" points="2286.03,-560.369 2295.63,-555.88 2285.33,-553.404 2286.03,-560.369"/>
</g>
<!-- Node48&#45;&gt;Node7 -->
<g id="edge140" class="edge"><title>Node48&#45;&gt;Node7</title>
<path fill="none" stroke="midnightblue" d="M1642.35,-610.546C1615.43,-608.922 1584.28,-607.194 1556,-606 1480.26,-602.803 256.169,-610.355 192,-570 93.39,-507.985 168,-425.489 168,-309 168,-309 168,-309 168,-251 168,-220.205 169.721,-207.26 192,-186 211.325,-167.559 238.172,-156.674 263.325,-150.249"/>
<polygon fill="midnightblue" stroke="midnightblue" points="264.298,-153.615 273.231,-147.918 262.695,-146.801 264.298,-153.615"/>
</g>
<!-- Node48&#45;&gt;Node23 -->
<g id="edge147" class="edge"><title>Node48&#45;&gt;Node23</title>
<path fill="none" stroke="midnightblue" d="M1725.76,-606.958C1755.66,-590.93 1825.8,-554.604 1888,-532 1934.71,-515.027 1989.81,-501.113 2028.43,-492.312"/>
<polygon fill="midnightblue" stroke="midnightblue" points="2029.38,-495.685 2038.37,-490.076 2027.84,-488.856 2029.38,-495.685"/>
</g>
<!-- Node48&#45;&gt;Node37 -->
<g id="edge141" class="edge"><title>Node48&#45;&gt;Node37</title>
<path fill="none" stroke="midnightblue" d="M1642.19,-609.024C1583.2,-602.775 1496.38,-590.882 1423,-570 1381.24,-558.115 1373.23,-548.345 1333,-532 1300.02,-518.601 1262.01,-503.837 1236.03,-493.85"/>
<polygon fill="midnightblue" stroke="midnightblue" points="1236.95,-490.455 1226.36,-490.14 1234.44,-496.99 1236.95,-490.455"/>
</g>
<!-- Node48&#45;&gt;Node40 -->
<g id="edge144" class="edge"><title>Node48&#45;&gt;Node40</title>
<path fill="none" stroke="midnightblue" d="M1713.25,-606.965C1723.04,-572 1762.07,-432.624 1776.01,-382.812"/>
<polygon fill="midnightblue" stroke="midnightblue" points="1779.4,-383.704 1778.72,-373.131 1772.66,-381.816 1779.4,-383.704"/>
</g>
<!-- Node48&#45;&gt;Node43 -->
<g id="edge142" class="edge"><title>Node48&#45;&gt;Node43</title>
<path fill="none" stroke="midnightblue" d="M1702.5,-606.764C1692.13,-596.71 1674.39,-579.512 1661.55,-567.067"/>
<polygon fill="midnightblue" stroke="midnightblue" points="1663.91,-564.485 1654.29,-560.039 1659.04,-569.512 1663.91,-564.485"/>
</g>
<!-- Node48&#45;&gt;Node44 -->
<g id="edge143" class="edge"><title>Node48&#45;&gt;Node44</title>
<path fill="none" stroke="midnightblue" d="M1644.35,-606.965C1570.8,-598.066 1448.93,-583.227 1344,-570 1316.84,-566.576 1286.71,-562.686 1261.46,-559.399"/>
<polygon fill="midnightblue" stroke="midnightblue" points="1261.69,-555.9 1251.32,-558.078 1260.79,-562.841 1261.69,-555.9"/>
</g>
<!-- Node48&#45;&gt;Node45 -->
<g id="edge146" class="edge"><title>Node48&#45;&gt;Node45</title>
<path fill="none" stroke="midnightblue" d="M1743.68,-606.957C1791.48,-595.195 1880.17,-573.367 1930.2,-561.056"/>
<polygon fill="midnightblue" stroke="midnightblue" points="1931.09,-564.442 1939.96,-558.654 1929.42,-557.645 1931.09,-564.442"/>
</g>
<!-- Node48&#45;&gt;Node46 -->
<g id="edge148" class="edge"><title>Node48&#45;&gt;Node46</title>
<path fill="none" stroke="midnightblue" d="M1777.2,-606.975C1836.64,-599.254 1926.11,-586.354 2003,-570 2012.55,-567.968 2022.78,-565.383 2032.27,-562.811"/>
<polygon fill="midnightblue" stroke="midnightblue" points="2033.5,-566.102 2042.19,-560.052 2031.62,-559.357 2033.5,-566.102"/>
</g>
<!-- Node49&#45;&gt;Node2 -->
<g id="edge150" class="edge"><title>Node49&#45;&gt;Node2</title>
<path fill="none" stroke="midnightblue" d="M2057.66,-613.952C2213.23,-610.855 2623.48,-600.011 2756,-570 2853.9,-547.83 2964,-582.378 2964,-482 2964,-482 2964,-482 2964,-419 2964,-114.979 2643.39,-182.891 2344,-130 2200,-104.561 2027.71,-87.4201 1945.8,-80.0672"/>
<polygon fill="midnightblue" stroke="midnightblue" points="1946.07,-76.5771 1935.8,-79.1776 1945.45,-83.5496 1946.07,-76.5771"/>
</g>
<!-- Node49&#45;&gt;Node6 -->
<g id="edge156" class="edge"><title>Node49&#45;&gt;Node6</title>
<path fill="none" stroke="midnightblue" d="M2040.02,-606.957C2102.93,-595.196 2219.68,-573.372 2285.54,-561.06"/>
<polygon fill="midnightblue" stroke="midnightblue" points="2286.47,-564.447 2295.65,-559.169 2285.18,-557.566 2286.47,-564.447"/>
</g>
<!-- Node49&#45;&gt;Node7 -->
<g id="edge151" class="edge"><title>Node49&#45;&gt;Node7</title>
<path fill="none" stroke="midnightblue" d="M1936.21,-609.424C1920.81,-608.152 1904.31,-606.91 1889,-606 1713,-595.542 452.639,-593.894 306,-496 252.427,-460.236 244,-429.414 244,-365 244,-365 244,-365 244,-251 244,-220.205 249.045,-210.27 268,-186 278.542,-172.502 294.273,-161.554 307.733,-153.838"/>
<polygon fill="midnightblue" stroke="midnightblue" points="309.482,-156.871 316.597,-149.02 306.139,-150.721 309.482,-156.871"/>
</g>
<!-- Node49&#45;&gt;Node23 -->
<g id="edge158" class="edge"><title>Node49&#45;&gt;Node23</title>
<path fill="none" stroke="midnightblue" d="M2057.45,-606.972C2100.99,-599.806 2154.36,-587.687 2168,-570 2178.31,-556.624 2176.6,-546.536 2168,-532 2157.06,-513.503 2136.57,-501.391 2117.8,-493.727"/>
<polygon fill="midnightblue" stroke="midnightblue" points="2118.8,-490.362 2108.21,-490.115 2116.33,-496.913 2118.8,-490.362"/>
</g>
<!-- Node49&#45;&gt;Node37 -->
<g id="edge152" class="edge"><title>Node49&#45;&gt;Node37</title>
<path fill="none" stroke="midnightblue" d="M1936.18,-609.184C1830.69,-598.964 1621.87,-578.099 1589,-570 1544.04,-558.922 1536.59,-544.481 1492,-532 1450.8,-520.468 1338.71,-502.341 1267.42,-491.373"/>
<polygon fill="midnightblue" stroke="midnightblue" points="1267.63,-487.863 1257.22,-489.808 1266.57,-494.783 1267.63,-487.863"/>
</g>
<!-- Node49&#45;&gt;Node40 -->
<g id="edge155" class="edge"><title>Node49&#45;&gt;Node40</title>
<path fill="none" stroke="midnightblue" d="M2057.78,-611.049C2086.07,-605.796 2117.31,-594.372 2135,-570 2144.92,-556.331 2144.89,-545.687 2135,-532 2105.11,-490.653 2072.62,-516.727 2026,-496 1955.43,-464.624 1943.43,-445.808 1875,-410 1852.75,-398.356 1826.99,-386.11 1808.07,-377.337"/>
<polygon fill="midnightblue" stroke="midnightblue" points="1809.4,-374.097 1798.86,-373.088 1806.47,-380.454 1809.4,-374.097"/>
</g>
<!-- Node49&#45;&gt;Node43 -->
<g id="edge153" class="edge"><title>Node49&#45;&gt;Node43</title>
<path fill="none" stroke="midnightblue" d="M1952.19,-606.957C1887.98,-595.433 1769.93,-574.244 1700.67,-561.813"/>
<polygon fill="midnightblue" stroke="midnightblue" points="1701.28,-558.367 1690.82,-560.045 1700.05,-565.256 1701.28,-558.367"/>
</g>
<!-- Node49&#45;&gt;Node44 -->
<g id="edge154" class="edge"><title>Node49&#45;&gt;Node44</title>
<path fill="none" stroke="midnightblue" d="M1936.46,-609.908C1920.98,-608.62 1904.38,-607.248 1889,-606 1656.19,-587.11 1378.74,-565.477 1261.61,-556.385"/>
<polygon fill="midnightblue" stroke="midnightblue" points="1261.69,-552.881 1251.45,-555.597 1261.15,-559.86 1261.69,-552.881"/>
</g>
<!-- Node49&#45;&gt;Node45 -->
<g id="edge157" class="edge"><title>Node49&#45;&gt;Node45</title>
<path fill="none" stroke="midnightblue" d="M1993.08,-606.764C1989.6,-599.461 1984.33,-588.388 1979.43,-578.105"/>
<polygon fill="midnightblue" stroke="midnightblue" points="1982.56,-576.539 1975.1,-569.015 1976.24,-579.548 1982.56,-576.539"/>
</g>
<!-- Node49&#45;&gt;Node46 -->
<g id="edge159" class="edge"><title>Node49&#45;&gt;Node46</title>
<path fill="none" stroke="midnightblue" d="M2006.41,-606.764C2018.01,-596.615 2037.93,-579.187 2052.18,-566.716"/>
<polygon fill="midnightblue" stroke="midnightblue" points="2054.59,-569.258 2059.81,-560.039 2049.98,-563.99 2054.59,-569.258"/>
</g>
<!-- Node50&#45;&gt;Node2 -->
<g id="edge161" class="edge"><title>Node50&#45;&gt;Node2</title>
<path fill="none" stroke="midnightblue" d="M1484.61,-606.975C1503.68,-591.286 1548.01,-555.991 1589,-532 1649.76,-496.437 1666.55,-489.25 1733,-466 1795.68,-444.072 1819.26,-460.957 1878,-430 1911.14,-412.535 1919.33,-404.557 1941,-374 2003.84,-285.401 2009.79,-223.792 1955,-130 1945.73,-114.125 1930.4,-99.9883 1917.98,-90.165"/>
<polygon fill="midnightblue" stroke="midnightblue" points="1920.03,-87.3321 1909.95,-84.085 1915.81,-92.9125 1920.03,-87.3321"/>
</g>
<!-- Node50&#45;&gt;Node6 -->
<g id="edge168" class="edge"><title>Node50&#45;&gt;Node6</title>
<path fill="none" stroke="midnightblue" d="M1547.8,-610.565C1669.46,-603.034 1921.76,-586.911 2135,-570 2186.38,-565.925 2245.14,-560.518 2285.42,-556.697"/>
<polygon fill="midnightblue" stroke="midnightblue" points="2285.88,-560.169 2295.5,-555.737 2285.21,-553.201 2285.88,-560.169"/>
</g>
<!-- Node50&#45;&gt;Node7 -->
<g id="edge162" class="edge"><title>Node50&#45;&gt;Node7</title>
<path fill="none" stroke="midnightblue" d="M1402.28,-614.309C1133.54,-611.527 209.167,-599.819 154,-570 111.912,-547.25 92,-529.843 92,-482 92,-482 92,-482 92,-251 92,-175.232 191.53,-151.405 262.93,-144.06"/>
<polygon fill="midnightblue" stroke="midnightblue" points="263.616,-147.511 273.246,-143.092 262.962,-140.542 263.616,-147.511"/>
</g>
<!-- Node50&#45;&gt;Node37 -->
<g id="edge163" class="edge"><title>Node50&#45;&gt;Node37</title>
<path fill="none" stroke="midnightblue" d="M1442.59,-606.981C1415.33,-599.518 1375.82,-586.988 1344,-570 1319.38,-556.855 1317.33,-547.316 1294,-532 1273.12,-518.296 1248.27,-504.53 1230.13,-494.922"/>
<polygon fill="midnightblue" stroke="midnightblue" points="1231.3,-491.583 1220.82,-490.039 1228.05,-497.782 1231.3,-491.583"/>
</g>
<!-- Node50&#45;&gt;Node40 -->
<g id="edge166" class="edge"><title>Node50&#45;&gt;Node40</title>
<path fill="none" stroke="midnightblue" d="M1477.6,-606.838C1483.01,-590.911 1496.74,-555.217 1518,-532 1587.67,-455.934 1699.49,-400.521 1752,-377.204"/>
<polygon fill="midnightblue" stroke="midnightblue" points="1753.63,-380.313 1761.39,-373.099 1750.82,-373.899 1753.63,-380.313"/>
</g>
<!-- Node50&#45;&gt;Node42 -->
<g id="edge167" class="edge"><title>Node50&#45;&gt;Node42</title>
<path fill="none" stroke="midnightblue" d="M1472.91,-606.802C1462.64,-566.658 1416.09,-386.884 1370,-242 1367.13,-232.99 1363.65,-223.078 1360.66,-214.856"/>
<polygon fill="midnightblue" stroke="midnightblue" points="1363.86,-213.411 1357.12,-205.237 1357.29,-215.831 1363.86,-213.411"/>
</g>
<!-- Node50&#45;&gt;Node43 -->
<g id="edge164" class="edge"><title>Node50&#45;&gt;Node43</title>
<path fill="none" stroke="midnightblue" d="M1497.01,-606.893C1526.89,-595.883 1580.48,-576.138 1614.59,-563.572"/>
<polygon fill="midnightblue" stroke="midnightblue" points="1615.91,-566.817 1624.08,-560.076 1613.49,-560.249 1615.91,-566.817"/>
</g>
<!-- Node50&#45;&gt;Node44 -->
<g id="edge165" class="edge"><title>Node50&#45;&gt;Node44</title>
<path fill="none" stroke="midnightblue" d="M1440.53,-606.957C1391.92,-595.614 1303.17,-574.907 1249.59,-562.405"/>
<polygon fill="midnightblue" stroke="midnightblue" points="1250.22,-558.959 1239.69,-560.095 1248.63,-565.775 1250.22,-558.959"/>
</g>
</g>
</svg>
