<?xml version="1.0" encoding="UTF-8" standalone="no"?>
<!DOCTYPE svg PUBLIC "-//W3C//DTD SVG 1.1//EN"
 "http://www.w3.org/Graphics/SVG/1.1/DTD/svg11.dtd">
<!-- Generated by graphviz version 2.36.0 (20140111.2315)
 -->
<!-- Title: TraverseHelper.h Pages: 1 -->
<!--zoomable 710 -->
<svg id="main" version="1.1" xmlns="http://www.w3.org/2000/svg" xmlns:xlink="http://www.w3.org/1999/xlink" xml:space="preserve" onload="init(evt)">
<style type="text/css"><![CDATA[
.edge:hover path { stroke: red; }
.edge:hover polygon { stroke: red; fill: red; }
]]></style>
<script type="text/javascript"><![CDATA[
var edges = document.getElementsByTagName('g');
if (edges && edges.length) {
  for (var i=0;i<edges.length;i++) {
    if (edges[i].id.substr(0,4)=='edge') {
      edges[i].setAttribute('class','edge');
    }
  }
}
]]></script>
        <defs>
                <circle id="rim" cx="0" cy="0" r="7"/>
                <circle id="rim2" cx="0" cy="0" r="3.5"/>
                <g id="zoomPlus">
                        <use xlink:href="#rim" fill="#404040">
                                <set attributeName="fill" to="#808080" begin="zoomplus.mouseover" end="zoomplus.mouseout"/>
                        </use>
                        <path d="M-4,0h8M0,-4v8" fill="none" stroke="white" stroke-width="1.5" pointer-events="none"/>
                </g>
                <g id="zoomMin">
                        <use xlink:href="#rim" fill="#404040">
                                <set attributeName="fill" to="#808080" begin="zoomminus.mouseover" end="zoomminus.mouseout"/>
                        </use>
                        <path d="M-4,0h8" fill="none" stroke="white" stroke-width="1.5" pointer-events="none"/>
                </g>
                <g id="dirArrow">
                        <path fill="none" stroke="white" stroke-width="1.5" d="M0,-3.0v7 M-2.5,-0.5L0,-3.0L2.5,-0.5"/>
                </g>
               <g id="resetDef">
                       <use xlink:href="#rim2" fill="#404040">
                               <set attributeName="fill" to="#808080" begin="reset.mouseover" end="reset.mouseout"/>
                       </use>
               </g>
        </defs>

<script type="text/javascript">
var viewWidth = 2883;
var viewHeight = 710;
var sectionId = 'dynsection-0';
</script>
<script xlink:href="svgpan.js"/>
<svg id="graph" class="graph">
<g id="viewport">
<title>TraverseHelper.h</title>
<!-- Node1 -->
<g id="node1" class="node"><title>Node1</title>
<polygon fill="#bfbfbf" stroke="black" points="1487.83,-683 1487.83,-701 1580.17,-701 1580.17,-683 1487.83,-683"/>
<text text-anchor="middle" x="1534" y="-689" font-family="Helvetica,sans-Serif" font-size="10.00">TraverseHelper.h</text>
</g>
<!-- Node2 -->
<g id="node2" class="node"><title>Node2</title>
<g id="a_node2"><a xlink:href="config_8h_source.html" target="_top" xlink:title="RMF/config.h">
<polygon fill="none" stroke="black" points="2157.27,-57 2157.27,-75 2232.73,-75 2232.73,-57 2157.27,-57"/>
<text text-anchor="middle" x="2195" y="-63" font-family="Helvetica,sans-Serif" font-size="10.00">RMF/config.h</text>
</a>
</g>
</g>
<!-- Node1&#45;&gt;Node2 -->
<g id="edge1" class="edge"><title>Node1&#45;&gt;Node2</title>
<path fill="none" stroke="midnightblue" d="M1580.55,-689.672C1817.13,-682.623 2875,-647.392 2875,-581 2875,-581 2875,-581 2875,-177 2875,-140.004 2855.75,-129.208 2823,-112 2772.13,-85.2727 2381.14,-72.0921 2243.09,-68.2361"/>
<polygon fill="midnightblue" stroke="midnightblue" points="2242.91,-64.7302 2232.82,-67.9537 2242.72,-71.7275 2242.91,-64.7302"/>
</g>
<!-- Node4 -->
<g id="node4" class="node"><title>Node4</title>
<g id="a_node4"><a xlink:href="CoordinateTransformer_8h.html" target="_top" xlink:title="Declare the RMF::CoordinateTransformer class. ">
<polygon fill="none" stroke="black" points="67.5996,-571 67.5996,-589 194.4,-589 194.4,-571 67.5996,-571"/>
<text text-anchor="middle" x="131" y="-577" font-family="Helvetica,sans-Serif" font-size="10.00">CoordinateTransformer.h</text>
</a>
</g>
</g>
<!-- Node1&#45;&gt;Node4 -->
<g id="edge3" class="edge"><title>Node1&#45;&gt;Node4</title>
<path fill="none" stroke="midnightblue" d="M1487.55,-691.221C1266.78,-692.033 329.251,-692.681 208,-646 181.827,-635.924 158.239,-612.977 144.261,-597.232"/>
<polygon fill="midnightblue" stroke="midnightblue" points="146.686,-594.682 137.53,-589.352 141.364,-599.229 146.686,-594.682"/>
</g>
<!-- Node29 -->
<g id="node26" class="node"><title>Node29</title>
<g id="a_node26"><a xlink:href="Nullable_8h.html" target="_top" xlink:title="A helper class for allowing nice return of possibly null values. ">
<polygon fill="none" stroke="black" points="2165.76,-337 2165.76,-355 2226.24,-355 2226.24,-337 2165.76,-337"/>
<text text-anchor="middle" x="2196" y="-343" font-family="Helvetica,sans-Serif" font-size="10.00">Nullable.h</text>
</a>
</g>
</g>
<!-- Node1&#45;&gt;Node29 -->
<g id="edge34" class="edge"><title>Node1&#45;&gt;Node29</title>
<path fill="none" stroke="midnightblue" d="M1580.25,-684.21C1704.56,-665.125 2042.08,-607.561 2124,-534 2174.68,-488.489 2189.96,-403.197 2194.34,-365.604"/>
<polygon fill="midnightblue" stroke="midnightblue" points="2197.87,-365.491 2195.41,-355.186 2190.9,-364.776 2197.87,-365.491"/>
</g>
<!-- Node36 -->
<g id="node33" class="node"><title>Node36</title>
<g id="a_node33"><a xlink:href="physics_8h.html" target="_top" xlink:title="Helper functions for manipulating RMF files. ">
<polygon fill="none" stroke="black" points="1410.43,-627 1410.43,-645 1537.57,-645 1537.57,-627 1410.43,-627"/>
<text text-anchor="middle" x="1474" y="-633" font-family="Helvetica,sans-Serif" font-size="10.00">RMF/decorator/physics.h</text>
</a>
</g>
</g>
<!-- Node1&#45;&gt;Node36 -->
<g id="edge55" class="edge"><title>Node1&#45;&gt;Node36</title>
<path fill="none" stroke="midnightblue" d="M1524.89,-682.799C1515.9,-674.711 1501.95,-662.155 1490.93,-652.234"/>
<polygon fill="midnightblue" stroke="midnightblue" points="1492.97,-649.367 1483.2,-645.279 1488.29,-654.57 1492.97,-649.367"/>
</g>
<!-- Node38 -->
<g id="node35" class="node"><title>Node38</title>
<polygon fill="none" stroke="#bfbfbf" points="1012.02,-337 1012.02,-355 1121.98,-355 1121.98,-337 1012.02,-337"/>
<text text-anchor="middle" x="1067" y="-343" font-family="Helvetica,sans-Serif" font-size="10.00">boost/shared_ptr.hpp</text>
</g>
<!-- Node1&#45;&gt;Node38 -->
<g id="edge160" class="edge"><title>Node1&#45;&gt;Node38</title>
<path fill="none" stroke="midnightblue" d="M1487.56,-690.712C1279.79,-688.353 438.708,-667.098 279,-478 270.397,-467.814 270.192,-458.009 279,-448 302.908,-420.832 817.393,-370.313 1001.89,-353.002"/>
<polygon fill="midnightblue" stroke="midnightblue" points="1002.36,-356.473 1011.99,-352.056 1001.71,-349.503 1002.36,-356.473"/>
</g>
<!-- Node48 -->
<g id="node44" class="node"><title>Node48</title>
<g id="a_node44"><a xlink:href="sequence_8h.html" target="_top" xlink:title="Helper functions for manipulating RMF files. ">
<polygon fill="none" stroke="black" points="1552.41,-571 1552.41,-589 1689.59,-589 1689.59,-571 1552.41,-571"/>
<text text-anchor="middle" x="1621" y="-577" font-family="Helvetica,sans-Serif" font-size="10.00">RMF/decorator/sequence.h</text>
</a>
</g>
</g>
<!-- Node1&#45;&gt;Node48 -->
<g id="edge131" class="edge"><title>Node1&#45;&gt;Node48</title>
<path fill="none" stroke="midnightblue" d="M1540.54,-682.732C1554.91,-664.567 1589.44,-620.906 1608.25,-597.115"/>
<polygon fill="midnightblue" stroke="midnightblue" points="1611.16,-599.079 1614.62,-589.065 1605.67,-594.737 1611.16,-599.079"/>
</g>
<!-- Node49 -->
<g id="node45" class="node"><title>Node49</title>
<g id="a_node45"><a xlink:href="shape_8h.html" target="_top" xlink:title="Helper functions for manipulating RMF files. ">
<polygon fill="none" stroke="black" points="1223.48,-571 1223.48,-589 1344.52,-589 1344.52,-571 1223.48,-571"/>
<text text-anchor="middle" x="1284" y="-577" font-family="Helvetica,sans-Serif" font-size="10.00">RMF/decorator/shape.h</text>
</a>
</g>
</g>
<!-- Node1&#45;&gt;Node49 -->
<g id="edge141" class="edge"><title>Node1&#45;&gt;Node49</title>
<path fill="none" stroke="midnightblue" d="M1505.41,-682.965C1478.09,-674.905 1436,-661.489 1401,-646 1366.45,-630.709 1328.59,-608.62 1305.56,-594.537"/>
<polygon fill="midnightblue" stroke="midnightblue" points="1307.28,-591.487 1296.94,-589.211 1303.61,-597.443 1307.28,-591.487"/>
</g>
<!-- Node50 -->
<g id="node46" class="node"><title>Node50</title>
<g id="a_node46"><a xlink:href="alternatives_8h.html" target="_top" xlink:title="Helper functions for manipulating RMF files. ">
<polygon fill="none" stroke="black" points="1745.53,-571 1745.53,-589 1890.47,-589 1890.47,-571 1745.53,-571"/>
<text text-anchor="middle" x="1818" y="-577" font-family="Helvetica,sans-Serif" font-size="10.00">RMF/decorator/alternatives.h</text>
</a>
</g>
</g>
<!-- Node1&#45;&gt;Node50 -->
<g id="edge151" class="edge"><title>Node1&#45;&gt;Node50</title>
<path fill="none" stroke="midnightblue" d="M1554.88,-682.911C1604.53,-663.682 1729.79,-615.167 1787.73,-592.723"/>
<polygon fill="midnightblue" stroke="midnightblue" points="1789.03,-595.976 1797.09,-589.1 1786.5,-589.449 1789.03,-595.976"/>
</g>
<!-- Node3 -->
<g id="node3" class="node"><title>Node3</title>
<g id="a_node3"><a xlink:href="compiler__macros_8h.html" target="_top" xlink:title="Various compiler workarounds. ">
<polygon fill="none" stroke="black" points="1091.54,-1 1091.54,-19 1216.46,-19 1216.46,-1 1091.54,-1"/>
<text text-anchor="middle" x="1154" y="-7" font-family="Helvetica,sans-Serif" font-size="10.00">RMF/compiler_macros.h</text>
</a>
</g>
</g>
<!-- Node2&#45;&gt;Node3 -->
<g id="edge2" class="edge"><title>Node2&#45;&gt;Node3</title>
<path fill="none" stroke="midnightblue" d="M2157.03,-63.0302C2003.93,-55.0885 1430.5,-25.3429 1226.56,-14.7637"/>
<polygon fill="midnightblue" stroke="midnightblue" points="1226.72,-11.2674 1216.55,-14.2445 1226.35,-18.258 1226.72,-11.2674"/>
</g>
<!-- Node4&#45;&gt;Node2 -->
<g id="edge30" class="edge"><title>Node4&#45;&gt;Node2</title>
<path fill="none" stroke="midnightblue" d="M137.3,-570.798C155.968,-547.159 213.774,-478.628 279,-448 573.729,-309.603 680.275,-379.211 1003,-336 1143.98,-317.124 1186.38,-345.929 1321,-300 1337.23,-294.462 1339.03,-288.368 1354,-280 1496.62,-200.274 1524.01,-157.305 1681,-112 1767.71,-86.9758 2036.36,-73.4658 2146.82,-68.8477"/>
<polygon fill="midnightblue" stroke="midnightblue" points="2147.16,-72.3369 2157.01,-68.4284 2146.87,-65.3428 2147.16,-72.3369"/>
</g>
<!-- Node4&#45;&gt;Node3 -->
<g id="edge29" class="edge"><title>Node4&#45;&gt;Node3</title>
<path fill="none" stroke="midnightblue" d="M107.881,-570.893C70.2739,-556.057 0,-520.743 0,-464 0,-464 0,-464 0,-121 0,-11.947 827.23,-8.70405 1080.92,-10.2736"/>
<polygon fill="midnightblue" stroke="midnightblue" points="1081.11,-13.7749 1091.14,-10.3414 1081.16,-6.77503 1081.11,-13.7749"/>
</g>
<!-- Node5 -->
<g id="node5" class="node"><title>Node5</title>
<polygon fill="none" stroke="#bfbfbf" points="506.384,-57 506.384,-75 549.616,-75 549.616,-57 506.384,-57"/>
<text text-anchor="middle" x="528" y="-63" font-family="Helvetica,sans-Serif" font-size="10.00">vector</text>
</g>
<!-- Node4&#45;&gt;Node5 -->
<g id="edge4" class="edge"><title>Node4&#45;&gt;Node5</title>
<path fill="none" stroke="midnightblue" d="M119.049,-570.99C108.366,-563.042 93.4344,-549.784 87,-534 78.2564,-512.551 84.876,-468.177 98,-448 175.371,-329.052 376,-432.898 376,-291 376,-291 376,-291 376,-177 376,-118.071 451.907,-87.4963 496.438,-74.6301"/>
<polygon fill="midnightblue" stroke="midnightblue" points="497.507,-77.966 506.222,-71.9408 495.652,-71.2163 497.507,-77.966"/>
</g>
<!-- Node6 -->
<g id="node6" class="node"><title>Node6</title>
<g id="a_node6"><a xlink:href="Vector_8h.html" target="_top" xlink:title="Represent coordinates. ">
<polygon fill="none" stroke="black" points="925.707,-515 925.707,-533 1002.29,-533 1002.29,-515 925.707,-515"/>
<text text-anchor="middle" x="964" y="-521" font-family="Helvetica,sans-Serif" font-size="10.00">RMF/Vector.h</text>
</a>
</g>
</g>
<!-- Node4&#45;&gt;Node6 -->
<g id="edge5" class="edge"><title>Node4&#45;&gt;Node6</title>
<path fill="none" stroke="midnightblue" d="M194.637,-574.875C354.926,-564.484 772.634,-537.406 915.363,-528.153"/>
<polygon fill="midnightblue" stroke="midnightblue" points="915.801,-531.632 925.554,-527.492 915.348,-524.647 915.801,-531.632"/>
</g>
<!-- Node7 -->
<g id="node7" class="node"><title>Node7</title>
<g id="a_node7"><a xlink:href="infrastructure__macros_8h.html" target="_top" xlink:title="Various general useful macros for IMP. ">
<polygon fill="none" stroke="black" points="1020.48,-113 1020.48,-131 1141.52,-131 1141.52,-113 1020.48,-113"/>
<text text-anchor="middle" x="1081" y="-119" font-family="Helvetica,sans-Serif" font-size="10.00">infrastructure_macros.h</text>
</a>
</g>
</g>
<!-- Node4&#45;&gt;Node7 -->
<g id="edge32" class="edge"><title>Node4&#45;&gt;Node7</title>
<path fill="none" stroke="midnightblue" d="M121.513,-570.823C112.719,-562.562 100.232,-548.917 95,-534 81.2269,-494.736 100.207,-474.843 132,-448 225.018,-369.463 279.909,-407.964 390,-356 537.094,-286.57 550.074,-220.576 704,-168 806.53,-132.979 932.817,-124.379 1010.09,-122.708"/>
<polygon fill="midnightblue" stroke="midnightblue" points="1010.26,-126.206 1020.19,-122.524 1010.13,-119.207 1010.26,-126.206"/>
</g>
<!-- Node27 -->
<g id="node24" class="node"><title>Node27</title>
<polygon fill="none" stroke="#bfbfbf" points="103.938,-515 103.938,-533 156.062,-533 156.062,-515 103.938,-515"/>
<text text-anchor="middle" x="130" y="-521" font-family="Helvetica,sans-Serif" font-size="10.00">ostream</text>
</g>
<!-- Node4&#45;&gt;Node27 -->
<g id="edge31" class="edge"><title>Node4&#45;&gt;Node27</title>
<path fill="none" stroke="midnightblue" d="M130.844,-570.562C130.709,-563.308 130.511,-552.588 130.34,-543.369"/>
<polygon fill="midnightblue" stroke="midnightblue" points="133.837,-543.135 130.152,-533.201 126.838,-543.265 133.837,-543.135"/>
</g>
<!-- Node28 -->
<g id="node25" class="node"><title>Node28</title>
<polygon fill="none" stroke="#bfbfbf" points="1680.66,-225 1680.66,-243 1753.34,-243 1753.34,-225 1680.66,-225"/>
<text text-anchor="middle" x="1717" y="-231" font-family="Helvetica,sans-Serif" font-size="10.00">RMF/types.h</text>
</g>
<!-- Node4&#45;&gt;Node28 -->
<g id="edge33" class="edge"><title>Node4&#45;&gt;Node28</title>
<path fill="none" stroke="midnightblue" d="M194.572,-576.897C339.522,-571.852 705.58,-557.688 1011,-534 1070.92,-529.353 1491.28,-494.735 1549,-478 1564.84,-473.406 1669.78,-423.08 1682,-412 1703.74,-392.287 1705.98,-383.203 1717,-356 1729.84,-324.305 1733.44,-313.906 1729,-280 1727.8,-270.858 1725.29,-260.932 1722.87,-252.734"/>
<polygon fill="midnightblue" stroke="midnightblue" points="1726.2,-251.656 1719.87,-243.164 1719.52,-253.753 1726.2,-251.656"/>
</g>
<!-- Node6&#45;&gt;Node2 -->
<g id="edge6" class="edge"><title>Node6&#45;&gt;Node2</title>
<path fill="none" stroke="midnightblue" d="M968.29,-514.935C976.627,-499.932 996.379,-467.489 1021,-448 1147.99,-347.48 1206.3,-366.444 1354,-300 1408.78,-275.358 1422.76,-269.798 1477,-244 1596.19,-187.315 1616.16,-148.464 1743,-112 1885.82,-70.9419 2063.29,-65.9465 2147.02,-66.1694"/>
<polygon fill="midnightblue" stroke="midnightblue" points="2147.22,-69.6704 2157.23,-66.2242 2147.25,-62.6705 2147.22,-69.6704"/>
</g>
<!-- Node6&#45;&gt;Node7 -->
<g id="edge7" class="edge"><title>Node6&#45;&gt;Node7</title>
<path fill="none" stroke="midnightblue" d="M960.316,-514.729C952.726,-498.765 933.701,-463.885 906,-448 851.961,-417.012 669.123,-458.791 628,-412 605.702,-386.628 610.758,-365.045 628,-336 645.056,-307.268 665.819,-317.952 694,-300 729.387,-277.458 737.359,-270.362 770,-244 809.683,-211.95 810.307,-190.671 856,-168 904.271,-144.05 964.35,-132.846 1010.28,-127.605"/>
<polygon fill="midnightblue" stroke="midnightblue" points="1010.88,-131.061 1020.45,-126.515 1010.13,-124.101 1010.88,-131.061"/>
</g>
<!-- Node15 -->
<g id="node14" class="node"><title>Node15</title>
<g id="a_node14"><a xlink:href="exceptions_8h.html" target="_top" xlink:title="Declarations of the various exception types. ">
<polygon fill="none" stroke="black" points="1338.93,-113 1338.93,-131 1411.07,-131 1411.07,-113 1338.93,-113"/>
<text text-anchor="middle" x="1375" y="-119" font-family="Helvetica,sans-Serif" font-size="10.00">exceptions.h</text>
</a>
</g>
</g>
<!-- Node6&#45;&gt;Node15 -->
<g id="edge16" class="edge"><title>Node6&#45;&gt;Node15</title>
<path fill="none" stroke="midnightblue" d="M962.646,-514.693C958.561,-486.824 948.861,-395.086 987,-336 1066.89,-212.23 1244.71,-154.384 1328.99,-133.136"/>
<polygon fill="midnightblue" stroke="midnightblue" points="1329.92,-136.512 1338.79,-130.724 1328.25,-129.715 1329.92,-136.512"/>
</g>
<!-- Node19 -->
<g id="node17" class="node"><title>Node19</title>
<polygon fill="none" stroke="#bfbfbf" points="538.237,-454 538.237,-472 653.763,-472 653.763,-454 538.237,-454"/>
<text text-anchor="middle" x="596" y="-460" font-family="Helvetica,sans-Serif" font-size="10.00">boost/range/begin.hpp</text>
</g>
<!-- Node6&#45;&gt;Node19 -->
<g id="edge22" class="edge"><title>Node6&#45;&gt;Node19</title>
<path fill="none" stroke="midnightblue" d="M925.397,-517.953C868.011,-510.287 756.879,-494.811 663,-478 656.32,-476.804 649.286,-475.445 642.388,-474.055"/>
<polygon fill="midnightblue" stroke="midnightblue" points="642.937,-470.594 632.437,-472.011 641.529,-477.451 642.937,-470.594"/>
</g>
<!-- Node20 -->
<g id="node18" class="node"><title>Node20</title>
<polygon fill="none" stroke="#bfbfbf" points="672.128,-454 672.128,-472 779.872,-472 779.872,-454 672.128,-454"/>
<text text-anchor="middle" x="726" y="-460" font-family="Helvetica,sans-Serif" font-size="10.00">boost/range/end.hpp</text>
</g>
<!-- Node6&#45;&gt;Node20 -->
<g id="edge23" class="edge"><title>Node6&#45;&gt;Node20</title>
<path fill="none" stroke="midnightblue" d="M931.406,-514.92C889.064,-504.423 815.055,-486.077 768.389,-474.508"/>
<polygon fill="midnightblue" stroke="midnightblue" points="769.13,-471.086 758.581,-472.077 767.445,-477.88 769.13,-471.086"/>
</g>
<!-- Node21 -->
<g id="node19" class="node"><title>Node21</title>
<polygon fill="none" stroke="#bfbfbf" points="798.313,-449 798.313,-477 897.687,-477 897.687,-449 798.313,-449"/>
<text text-anchor="start" x="806.313" y="-465" font-family="Helvetica,sans-Serif" font-size="10.00">boost/type_traits/is</text>
<text text-anchor="middle" x="848" y="-455" font-family="Helvetica,sans-Serif" font-size="10.00">_convertible.hpp</text>
</g>
<!-- Node6&#45;&gt;Node21 -->
<g id="edge24" class="edge"><title>Node6&#45;&gt;Node21</title>
<path fill="none" stroke="midnightblue" d="M947.871,-514.796C931.168,-506.301 904.547,-492.761 882.988,-481.796"/>
<polygon fill="midnightblue" stroke="midnightblue" points="884.298,-478.535 873.798,-477.121 881.125,-484.775 884.298,-478.535"/>
</g>
<!-- Node22 -->
<g id="node20" class="node"><title>Node22</title>
<polygon fill="none" stroke="#bfbfbf" points="288.251,-454 288.251,-472 383.749,-472 383.749,-454 288.251,-454"/>
<text text-anchor="middle" x="336" y="-460" font-family="Helvetica,sans-Serif" font-size="10.00">boost/mpl/not.hpp</text>
</g>
<!-- Node6&#45;&gt;Node22 -->
<g id="edge25" class="edge"><title>Node6&#45;&gt;Node22</title>
<path fill="none" stroke="midnightblue" d="M925.657,-522.122C833.37,-519.545 591.801,-510.031 393,-478 387.071,-477.045 380.85,-475.787 374.787,-474.417"/>
<polygon fill="midnightblue" stroke="midnightblue" points="375.35,-470.953 364.811,-472.039 373.727,-477.763 375.35,-470.953"/>
</g>
<!-- Node23 -->
<g id="node21" class="node"><title>Node23</title>
<polygon fill="none" stroke="#bfbfbf" points="1029.62,-454 1029.62,-472 1114.38,-472 1114.38,-454 1029.62,-454"/>
<text text-anchor="middle" x="1072" y="-460" font-family="Helvetica,sans-Serif" font-size="10.00">boost/array.hpp</text>
</g>
<!-- Node6&#45;&gt;Node23 -->
<g id="edge26" class="edge"><title>Node6&#45;&gt;Node23</title>
<path fill="none" stroke="midnightblue" d="M979.017,-514.796C996.91,-505.021 1027.03,-488.566 1048.13,-477.041"/>
<polygon fill="midnightblue" stroke="midnightblue" points="1050.01,-480 1057.11,-472.134 1046.66,-473.857 1050.01,-480"/>
</g>
<!-- Node24 -->
<g id="node22" class="node"><title>Node24</title>
<polygon fill="none" stroke="#bfbfbf" points="401.582,-454 401.582,-472 520.418,-472 520.418,-454 401.582,-454"/>
<text text-anchor="middle" x="461" y="-460" font-family="Helvetica,sans-Serif" font-size="10.00">boost/static_assert.hpp</text>
</g>
<!-- Node6&#45;&gt;Node24 -->
<g id="edge27" class="edge"><title>Node6&#45;&gt;Node24</title>
<path fill="none" stroke="midnightblue" d="M925.429,-520.312C849.322,-514.72 674.57,-500.457 529,-478 521.711,-476.876 514.022,-475.489 506.54,-474.029"/>
<polygon fill="midnightblue" stroke="midnightblue" points="507.017,-470.555 496.523,-472.012 505.635,-477.418 507.017,-470.555"/>
</g>
<!-- Node25 -->
<g id="node23" class="node"><title>Node25</title>
<polygon fill="none" stroke="#bfbfbf" points="1999.44,-169 1999.44,-187 2056.56,-187 2056.56,-169 1999.44,-169"/>
<text text-anchor="middle" x="2028" y="-175" font-family="Helvetica,sans-Serif" font-size="10.00">algorithm</text>
</g>
<!-- Node6&#45;&gt;Node25 -->
<g id="edge28" class="edge"><title>Node6&#45;&gt;Node25</title>
<path fill="none" stroke="midnightblue" d="M1002.67,-521.95C1115.95,-518.572 1445.51,-506.496 1549,-478 1753.52,-421.683 1954.53,-246.938 2011.84,-194.213"/>
<polygon fill="midnightblue" stroke="midnightblue" points="2014.56,-196.46 2019.51,-187.091 2009.8,-191.331 2014.56,-196.46"/>
</g>
<!-- Node7&#45;&gt;Node3 -->
<g id="edge11" class="edge"><title>Node7&#45;&gt;Node3</title>
<path fill="none" stroke="midnightblue" d="M1094.98,-112.747C1107.25,-104.81 1124.7,-91.7177 1135,-76 1144.27,-61.8653 1149.12,-43.1095 1151.59,-29.3791"/>
<polygon fill="midnightblue" stroke="midnightblue" points="1155.09,-29.6556 1153.15,-19.2392 1148.17,-28.5896 1155.09,-29.6556"/>
</g>
<!-- Node7&#45;&gt;Node5 -->
<g id="edge12" class="edge"><title>Node7&#45;&gt;Node5</title>
<path fill="none" stroke="midnightblue" d="M1020.24,-115.067C902.955,-103.614 649.078,-78.8232 559.818,-70.107"/>
<polygon fill="midnightblue" stroke="midnightblue" points="560.062,-66.6143 549.769,-69.1258 559.382,-73.5811 560.062,-66.6143"/>
</g>
<!-- Node8 -->
<g id="node8" class="node"><title>Node8</title>
<polygon fill="none" stroke="#bfbfbf" points="853.219,-57 853.219,-75 904.781,-75 904.781,-57 853.219,-57"/>
<text text-anchor="middle" x="879" y="-63" font-family="Helvetica,sans-Serif" font-size="10.00">sstream</text>
</g>
<!-- Node7&#45;&gt;Node8 -->
<g id="edge8" class="edge"><title>Node7&#45;&gt;Node8</title>
<path fill="none" stroke="midnightblue" d="M1050.76,-112.916C1014.39,-103.193 953.412,-86.8924 914.747,-76.5561"/>
<polygon fill="midnightblue" stroke="midnightblue" points="915.514,-73.1383 904.949,-73.937 913.706,-79.9009 915.514,-73.1383"/>
</g>
<!-- Node9 -->
<g id="node9" class="node"><title>Node9</title>
<polygon fill="none" stroke="#bfbfbf" points="1181.83,-57 1181.83,-75 1236.17,-75 1236.17,-57 1181.83,-57"/>
<text text-anchor="middle" x="1209" y="-63" font-family="Helvetica,sans-Serif" font-size="10.00">iostream</text>
</g>
<!-- Node7&#45;&gt;Node9 -->
<g id="edge9" class="edge"><title>Node7&#45;&gt;Node9</title>
<path fill="none" stroke="midnightblue" d="M1100.16,-112.916C1121.37,-103.968 1155.78,-89.4516 1180.23,-79.1378"/>
<polygon fill="midnightblue" stroke="midnightblue" points="1181.85,-82.2515 1189.71,-75.1396 1179.13,-75.8019 1181.85,-82.2515"/>
</g>
<!-- Node10 -->
<g id="node10" class="node"><title>Node10</title>
<polygon fill="none" stroke="#bfbfbf" points="794.773,-57 794.773,-75 835.227,-75 835.227,-57 794.773,-57"/>
<text text-anchor="middle" x="815" y="-63" font-family="Helvetica,sans-Serif" font-size="10.00">string</text>
</g>
<!-- Node7&#45;&gt;Node10 -->
<g id="edge10" class="edge"><title>Node7&#45;&gt;Node10</title>
<path fill="none" stroke="midnightblue" d="M1029.78,-112.998C983.796,-105.428 914.288,-93.0325 845.634,-76.1976"/>
<polygon fill="midnightblue" stroke="midnightblue" points="846.063,-72.6977 835.514,-73.6816 844.374,-79.4909 846.063,-72.6977"/>
</g>
<!-- Node12 -->
<g id="node11" class="node"><title>Node12</title>
<polygon fill="none" stroke="#bfbfbf" points="922.306,-57 922.306,-75 1011.69,-75 1011.69,-57 922.306,-57"/>
<text text-anchor="middle" x="967" y="-63" font-family="Helvetica,sans-Serif" font-size="10.00">boost/config.hpp</text>
</g>
<!-- Node7&#45;&gt;Node12 -->
<g id="edge13" class="edge"><title>Node7&#45;&gt;Node12</title>
<path fill="none" stroke="midnightblue" d="M1063.69,-112.799C1045,-103.946 1015.01,-89.7404 993.381,-79.4963"/>
<polygon fill="midnightblue" stroke="midnightblue" points="994.639,-76.2195 984.104,-75.1017 991.643,-82.5457 994.639,-76.2195"/>
</g>
<!-- Node13 -->
<g id="node12" class="node"><title>Node13</title>
<polygon fill="none" stroke="#bfbfbf" points="1254.53,-57 1254.53,-75 1349.47,-75 1349.47,-57 1254.53,-57"/>
<text text-anchor="middle" x="1302" y="-63" font-family="Helvetica,sans-Serif" font-size="10.00">boost/version.hpp</text>
</g>
<!-- Node7&#45;&gt;Node13 -->
<g id="edge14" class="edge"><title>Node7&#45;&gt;Node13</title>
<path fill="none" stroke="midnightblue" d="M1114.09,-112.916C1152.77,-103.464 1216.89,-87.7971 1259.29,-77.4352"/>
<polygon fill="midnightblue" stroke="midnightblue" points="1260.17,-80.825 1269.05,-75.0513 1258.5,-74.025 1260.17,-80.825"/>
</g>
<!-- Node14 -->
<g id="node13" class="node"><title>Node14</title>
<polygon fill="none" stroke="#bfbfbf" points="1029.97,-57 1029.97,-75 1126.03,-75 1126.03,-57 1029.97,-57"/>
<text text-anchor="middle" x="1078" y="-63" font-family="Helvetica,sans-Serif" font-size="10.00">boost/foreach.hpp</text>
</g>
<!-- Node7&#45;&gt;Node14 -->
<g id="edge15" class="edge"><title>Node7&#45;&gt;Node14</title>
<path fill="none" stroke="midnightblue" d="M1080.53,-112.562C1080.13,-105.308 1079.53,-94.5884 1079.02,-85.3691"/>
<polygon fill="midnightblue" stroke="midnightblue" points="1082.51,-84.9919 1078.46,-75.2014 1075.52,-85.3802 1082.51,-84.9919"/>
</g>
<!-- Node15&#45;&gt;Node2 -->
<g id="edge20" class="edge"><title>Node15&#45;&gt;Node2</title>
<path fill="none" stroke="midnightblue" d="M1411.24,-113.95C1415.86,-113.207 1420.53,-112.531 1425,-112 1696.98,-79.6917 2025.89,-70.2842 2147.14,-67.8075"/>
<polygon fill="midnightblue" stroke="midnightblue" points="2147.27,-71.3056 2157.2,-67.6082 2147.13,-64.307 2147.27,-71.3056"/>
</g>
<!-- Node15&#45;&gt;Node3 -->
<g id="edge21" class="edge"><title>Node15&#45;&gt;Node3</title>
<path fill="none" stroke="midnightblue" d="M1375.38,-112.896C1375.56,-99.1316 1373.8,-71.2031 1358,-56 1339.22,-37.9372 1277.27,-25.9753 1226.52,-18.9556"/>
<polygon fill="midnightblue" stroke="midnightblue" points="1226.91,-15.4768 1216.53,-17.6172 1225.98,-22.4147 1226.91,-15.4768"/>
</g>
<!-- Node15&#45;&gt;Node10 -->
<g id="edge19" class="edge"><title>Node15&#45;&gt;Node10</title>
<path fill="none" stroke="midnightblue" d="M1338.59,-118.944C1238.02,-113.106 956.956,-95.684 845.397,-75.8167"/>
<polygon fill="midnightblue" stroke="midnightblue" points="845.929,-72.3555 835.455,-73.9491 844.637,-79.2352 845.929,-72.3555"/>
</g>
<!-- Node16 -->
<g id="node15" class="node"><title>Node16</title>
<polygon fill="none" stroke="#bfbfbf" points="1481.45,-57 1481.45,-75 1632.55,-75 1632.55,-57 1481.45,-57"/>
<text text-anchor="middle" x="1557" y="-63" font-family="Helvetica,sans-Serif" font-size="10.00">boost/exception/exception.hpp</text>
</g>
<!-- Node15&#45;&gt;Node16 -->
<g id="edge17" class="edge"><title>Node15&#45;&gt;Node16</title>
<path fill="none" stroke="midnightblue" d="M1402.25,-112.916C1433.57,-103.623 1485.13,-88.3241 1520.05,-77.9643"/>
<polygon fill="midnightblue" stroke="midnightblue" points="1521.27,-81.2513 1529.86,-75.0513 1519.28,-74.5404 1521.27,-81.2513"/>
</g>
<!-- Node17 -->
<g id="node16" class="node"><title>Node17</title>
<polygon fill="none" stroke="#bfbfbf" points="1404.6,-57 1404.6,-75 1463.4,-75 1463.4,-57 1404.6,-57"/>
<text text-anchor="middle" x="1434" y="-63" font-family="Helvetica,sans-Serif" font-size="10.00">exception</text>
</g>
<!-- Node15&#45;&gt;Node17 -->
<g id="edge18" class="edge"><title>Node15&#45;&gt;Node17</title>
<path fill="none" stroke="midnightblue" d="M1383.96,-112.799C1392.8,-104.711 1406.52,-92.1549 1417.36,-82.234"/>
<polygon fill="midnightblue" stroke="midnightblue" points="1419.94,-84.6121 1424.95,-75.2786 1415.22,-79.4484 1419.94,-84.6121"/>
</g>
<!-- Node29&#45;&gt;Node2 -->
<g id="edge35" class="edge"><title>Node29&#45;&gt;Node2</title>
<path fill="none" stroke="midnightblue" d="M2226.32,-338.479C2328.99,-315.129 2651.51,-230.722 2547,-112 2527.23,-89.5415 2334.77,-75.2551 2243.09,-69.6706"/>
<polygon fill="midnightblue" stroke="midnightblue" points="2243.15,-66.1678 2232.96,-69.0638 2242.73,-73.1553 2243.15,-66.1678"/>
</g>
<!-- Node29&#45;&gt;Node7 -->
<g id="edge52" class="edge"><title>Node29&#45;&gt;Node7</title>
<path fill="none" stroke="midnightblue" d="M2172.84,-336.864C2108.56,-314.653 1922.14,-252.731 1762,-224 1572.36,-189.978 1519.91,-220.452 1330,-188 1252.46,-174.749 1163.78,-148.976 1115.98,-134.175"/>
<polygon fill="midnightblue" stroke="midnightblue" points="1116.72,-130.742 1106.14,-131.104 1114.64,-137.424 1116.72,-130.742"/>
</g>
<!-- Node29&#45;&gt;Node15 -->
<g id="edge53" class="edge"><title>Node29&#45;&gt;Node15</title>
<path fill="none" stroke="midnightblue" d="M2191.62,-336.775C2184.46,-323.791 2169.3,-298.154 2152,-280 2133.61,-260.693 2121.19,-264.384 2104,-244 2079.52,-214.98 2096.74,-188.835 2065,-168 2011.46,-132.852 1567.68,-125.033 1421.49,-123.404"/>
<polygon fill="midnightblue" stroke="midnightblue" points="1421.13,-119.9 1411.09,-123.293 1421.05,-126.899 1421.13,-119.9"/>
</g>
<!-- Node30 -->
<g id="node27" class="node"><title>Node30</title>
<g id="a_node27"><a xlink:href="traits_8h.html" target="_top" xlink:title="Handle read/write of Model data from/to files. ">
<polygon fill="none" stroke="black" points="2241,-281 2241,-299 2287,-299 2287,-281 2241,-281"/>
<text text-anchor="middle" x="2264" y="-287" font-family="Helvetica,sans-Serif" font-size="10.00">traits.h</text>
</a>
</g>
</g>
<!-- Node29&#45;&gt;Node30 -->
<g id="edge36" class="edge"><title>Node29&#45;&gt;Node30</title>
<path fill="none" stroke="midnightblue" d="M2206.33,-336.799C2216.71,-328.552 2232.95,-315.661 2245.55,-305.654"/>
<polygon fill="midnightblue" stroke="midnightblue" points="2247.92,-308.238 2253.58,-299.279 2243.57,-302.757 2247.92,-308.238"/>
</g>
<!-- Node32 -->
<g id="node29" class="node"><title>Node32</title>
<polygon fill="none" stroke="#bfbfbf" points="2292.61,-113 2292.61,-131 2331.39,-131 2331.39,-113 2292.61,-113"/>
<text text-anchor="middle" x="2312" y="-119" font-family="Helvetica,sans-Serif" font-size="10.00">limits</text>
</g>
<!-- Node29&#45;&gt;Node32 -->
<g id="edge54" class="edge"><title>Node29&#45;&gt;Node32</title>
<path fill="none" stroke="midnightblue" d="M2222.15,-336.95C2259.54,-323.955 2327.35,-294.564 2360,-244 2378.78,-214.922 2393.06,-198.659 2377,-168 2369.29,-153.282 2354.33,-142.421 2340.71,-135.06"/>
<polygon fill="midnightblue" stroke="midnightblue" points="2342.11,-131.846 2331.6,-130.519 2338.99,-138.112 2342.11,-131.846"/>
</g>
<!-- Node30&#45;&gt;Node2 -->
<g id="edge37" class="edge"><title>Node30&#45;&gt;Node2</title>
<path fill="none" stroke="midnightblue" d="M2287.06,-283.932C2308.86,-277.975 2340.96,-265.987 2360,-244 2382.66,-217.832 2386.96,-201.148 2377,-168 2368.41,-139.431 2363.86,-129.909 2340,-112 2311.69,-90.7462 2273.17,-79.4073 2242.95,-73.4299"/>
<polygon fill="midnightblue" stroke="midnightblue" points="2243.51,-69.9752 2233.04,-71.6018 2242.24,-76.8589 2243.51,-69.9752"/>
</g>
<!-- Node30&#45;&gt;Node28 -->
<g id="edge38" class="edge"><title>Node30&#45;&gt;Node28</title>
<path fill="none" stroke="midnightblue" d="M2240.85,-286.714C2158.03,-278.538 1875.49,-250.646 1763.38,-239.579"/>
<polygon fill="midnightblue" stroke="midnightblue" points="1763.69,-236.092 1753.39,-238.592 1763,-243.058 1763.69,-236.092"/>
</g>
<!-- Node31 -->
<g id="node28" class="node"><title>Node31</title>
<polygon fill="none" stroke="#bfbfbf" points="2261.2,-169 2261.2,-187 2352.8,-187 2352.8,-169 2261.2,-169"/>
<text text-anchor="middle" x="2307" y="-175" font-family="Helvetica,sans-Serif" font-size="10.00">boost/cstdint.hpp</text>
</g>
<!-- Node30&#45;&gt;Node31 -->
<g id="edge39" class="edge"><title>Node30&#45;&gt;Node31</title>
<path fill="none" stroke="midnightblue" d="M2282.13,-280.854C2296.14,-273.458 2314.54,-261.087 2323,-244 2330.48,-228.894 2324.35,-210.042 2317.63,-196.537"/>
<polygon fill="midnightblue" stroke="midnightblue" points="2320.48,-194.468 2312.59,-187.402 2314.35,-197.849 2320.48,-194.468"/>
</g>
<!-- Node30&#45;&gt;Node32 -->
<g id="edge40" class="edge"><title>Node30&#45;&gt;Node32</title>
<path fill="none" stroke="midnightblue" d="M2285.03,-280.89C2301.68,-273.514 2324.48,-261.155 2339,-244 2356.27,-223.588 2356.02,-214.274 2361,-188 2362.65,-179.266 2364.58,-176.138 2361,-168 2355.48,-155.443 2344.54,-144.853 2334.39,-137.106"/>
<polygon fill="midnightblue" stroke="midnightblue" points="2336.37,-134.22 2326.19,-131.288 2332.32,-139.929 2336.37,-134.22"/>
</g>
<!-- Node33 -->
<g id="node30" class="node"><title>Node33</title>
<polygon fill="none" stroke="#bfbfbf" points="2113.38,-225 2113.38,-243 2156.62,-243 2156.62,-225 2113.38,-225"/>
<text text-anchor="middle" x="2135" y="-231" font-family="Helvetica,sans-Serif" font-size="10.00">cmath</text>
</g>
<!-- Node30&#45;&gt;Node33 -->
<g id="edge41" class="edge"><title>Node30&#45;&gt;Node33</title>
<path fill="none" stroke="midnightblue" d="M2244.69,-280.916C2223.31,-271.968 2188.63,-257.452 2164,-247.138"/>
<polygon fill="midnightblue" stroke="midnightblue" points="2165.02,-243.773 2154.44,-243.14 2162.32,-250.23 2165.02,-243.773"/>
</g>
<!-- Node34 -->
<g id="node31" class="node"><title>Node34</title>
<g id="a_node31"><a xlink:href="HDF5_2types_8h.html" target="_top" xlink:title="Handle read/write of Model data from/to files. ">
<polygon fill="none" stroke="red" points="2213.21,-225 2213.21,-243 2314.79,-243 2314.79,-225 2213.21,-225"/>
<text text-anchor="middle" x="2264" y="-231" font-family="Helvetica,sans-Serif" font-size="10.00">RMF/HDF5/types.h</text>
</a>
</g>
</g>
<!-- Node30&#45;&gt;Node34 -->
<g id="edge42" class="edge"><title>Node30&#45;&gt;Node34</title>
<path fill="none" stroke="midnightblue" d="M2264,-280.562C2264,-273.308 2264,-262.588 2264,-253.369"/>
<polygon fill="midnightblue" stroke="midnightblue" points="2267.5,-253.201 2264,-243.201 2260.5,-253.201 2267.5,-253.201"/>
</g>
<!-- Node34&#45;&gt;Node2 -->
<g id="edge43" class="edge"><title>Node34&#45;&gt;Node2</title>
<path fill="none" stroke="midnightblue" d="M2260.48,-224.714C2256.65,-215.692 2250.36,-200.833 2245,-188 2229.65,-151.26 2211.9,-108.145 2202.22,-84.5824"/>
<polygon fill="midnightblue" stroke="midnightblue" points="2205.41,-83.1458 2198.37,-75.225 2198.93,-85.805 2205.41,-83.1458"/>
</g>
<!-- Node34&#45;&gt;Node25 -->
<g id="edge49" class="edge"><title>Node34&#45;&gt;Node25</title>
<path fill="none" stroke="midnightblue" d="M2228.92,-224.974C2185.44,-215.025 2111.59,-198.126 2066.56,-187.822"/>
<polygon fill="midnightblue" stroke="midnightblue" points="2067.12,-184.36 2056.59,-185.541 2065.55,-191.183 2067.12,-184.36"/>
</g>
<!-- Node34&#45;&gt;Node31 -->
<g id="edge50" class="edge"><title>Node34&#45;&gt;Node31</title>
<path fill="none" stroke="midnightblue" d="M2270.72,-224.562C2276.94,-216.75 2286.36,-204.919 2294.04,-195.27"/>
<polygon fill="midnightblue" stroke="midnightblue" points="2296.98,-197.205 2300.47,-187.201 2291.5,-192.844 2296.98,-197.205"/>
</g>
<!-- Node34&#45;&gt;Node32 -->
<g id="edge51" class="edge"><title>Node34&#45;&gt;Node32</title>
<path fill="none" stroke="midnightblue" d="M2259.45,-224.949C2252.89,-212.202 2242.56,-186.886 2252,-168 2258.93,-154.13 2272.4,-143.426 2284.82,-135.944"/>
<polygon fill="midnightblue" stroke="midnightblue" points="2286.54,-138.992 2293.58,-131.066 2283.14,-132.878 2286.54,-138.992"/>
</g>
<!-- Node35 -->
<g id="node32" class="node"><title>Node35</title>
<g id="a_node32"><a xlink:href="ID_8h.html" target="_top" xlink:title="Declaration of RMF::ID. ">
<polygon fill="none" stroke="black" points="1732.61,-169 1732.61,-187 1791.39,-187 1791.39,-169 1732.61,-169"/>
<text text-anchor="middle" x="1762" y="-175" font-family="Helvetica,sans-Serif" font-size="10.00">RMF/ID.h</text>
</a>
</g>
</g>
<!-- Node34&#45;&gt;Node35 -->
<g id="edge44" class="edge"><title>Node34&#45;&gt;Node35</title>
<path fill="none" stroke="midnightblue" d="M2212.93,-225.757C2208.22,-225.141 2203.52,-224.546 2199,-224 2052.74,-206.349 1878.4,-189.714 1801.62,-182.612"/>
<polygon fill="midnightblue" stroke="midnightblue" points="1801.73,-179.107 1791.45,-181.674 1801.09,-186.078 1801.73,-179.107"/>
</g>
<!-- Node35&#45;&gt;Node2 -->
<g id="edge45" class="edge"><title>Node35&#45;&gt;Node2</title>
<path fill="none" stroke="midnightblue" d="M1764.73,-168.949C1770.02,-154.74 1783.09,-125.451 1805,-112 1861.28,-77.448 2055.82,-69.4205 2147.06,-67.5594"/>
<polygon fill="midnightblue" stroke="midnightblue" points="2147.2,-71.0574 2157.14,-67.3705 2147.07,-64.0587 2147.2,-71.0574"/>
</g>
<!-- Node35&#45;&gt;Node7 -->
<g id="edge46" class="edge"><title>Node35&#45;&gt;Node7</title>
<path fill="none" stroke="midnightblue" d="M1732.3,-174.645C1631.24,-166.631 1298.82,-140.272 1151.9,-128.622"/>
<polygon fill="midnightblue" stroke="midnightblue" points="1151.89,-125.11 1141.64,-127.809 1151.34,-132.088 1151.89,-125.11"/>
</g>
<!-- Node35&#45;&gt;Node15 -->
<g id="edge47" class="edge"><title>Node35&#45;&gt;Node15</title>
<path fill="none" stroke="midnightblue" d="M1732.59,-172.897C1665.83,-163.581 1502.35,-140.769 1421.64,-129.507"/>
<polygon fill="midnightblue" stroke="midnightblue" points="1421.67,-125.978 1411.28,-128.063 1420.7,-132.911 1421.67,-125.978"/>
</g>
<!-- Node35&#45;&gt;Node32 -->
<g id="edge48" class="edge"><title>Node35&#45;&gt;Node32</title>
<path fill="none" stroke="midnightblue" d="M1791.57,-174.097C1887.07,-164.72 2186.58,-135.314 2282.29,-125.917"/>
<polygon fill="midnightblue" stroke="midnightblue" points="2282.81,-129.383 2292.42,-124.922 2282.13,-122.416 2282.81,-129.383"/>
</g>
<!-- Node36&#45;&gt;Node2 -->
<g id="edge56" class="edge"><title>Node36&#45;&gt;Node2</title>
<path fill="none" stroke="midnightblue" d="M1537.66,-633.885C1726.2,-630.299 2279.61,-617.646 2458,-590 2633.42,-562.816 2837,-641.509 2837,-464 2837,-464 2837,-464 2837,-177 2837,-143.079 2825.97,-129.64 2797,-112 2750.16,-83.4826 2377.52,-71.5163 2243.12,-68.0993"/>
<polygon fill="midnightblue" stroke="midnightblue" points="2243.19,-64.6001 2233.11,-67.8495 2243.02,-71.598 2243.19,-64.6001"/>
</g>
<!-- Node36&#45;&gt;Node6 -->
<g id="edge118" class="edge"><title>Node36&#45;&gt;Node6</title>
<path fill="none" stroke="midnightblue" d="M1410.19,-632.111C1309.41,-626.886 1118.33,-614.101 1055,-590 1025.37,-578.725 996.519,-555.39 979.505,-539.966"/>
<polygon fill="midnightblue" stroke="midnightblue" points="981.855,-537.372 972.152,-533.117 977.084,-542.494 981.855,-537.372"/>
</g>
<!-- Node36&#45;&gt;Node7 -->
<g id="edge57" class="edge"><title>Node36&#45;&gt;Node7</title>
<path fill="none" stroke="midnightblue" d="M1410.41,-632.471C1206.43,-623.844 570.472,-592.792 374,-534 323.331,-518.838 296.211,-523.352 269,-478 262.14,-466.567 262.238,-459.492 269,-448 277.122,-434.197 757.829,-173.13 773,-168 851.558,-141.435 946.608,-130.548 1010.15,-126.089"/>
<polygon fill="midnightblue" stroke="midnightblue" points="1010.71,-129.559 1020.46,-125.403 1010.25,-122.575 1010.71,-129.559"/>
</g>
<!-- Node36&#45;&gt;Node23 -->
<g id="edge119" class="edge"><title>Node36&#45;&gt;Node23</title>
<path fill="none" stroke="midnightblue" d="M1410.17,-629.402C1356.71,-623.433 1278.94,-611.738 1214,-590 1162.35,-572.713 1142.85,-573.162 1105,-534 1090.87,-519.385 1081.92,-497.598 1076.96,-482.22"/>
<polygon fill="midnightblue" stroke="midnightblue" points="1080.23,-480.942 1074.03,-472.349 1073.52,-482.931 1080.23,-480.942"/>
</g>
<!-- Node37 -->
<g id="node34" class="node"><title>Node37</title>
<g id="a_node34"><a xlink:href="NodeHandle_8h.html" target="_top" xlink:title="Declaration of NodeHandle. ">
<polygon fill="none" stroke="red" points="1435.81,-454 1435.81,-472 1540.19,-472 1540.19,-454 1435.81,-454"/>
<text text-anchor="middle" x="1488" y="-460" font-family="Helvetica,sans-Serif" font-size="10.00">RMF/NodeHandle.h</text>
</a>
</g>
</g>
<!-- Node36&#45;&gt;Node37 -->
<g id="edge58" class="edge"><title>Node36&#45;&gt;Node37</title>
<path fill="none" stroke="midnightblue" d="M1466.09,-626.876C1458.49,-618.448 1447.51,-604.494 1443,-590 1440.36,-581.512 1441.23,-578.71 1443,-570 1449.72,-536.984 1467.09,-501.5 1478.18,-481.106"/>
<polygon fill="midnightblue" stroke="midnightblue" points="1481.37,-482.584 1483.18,-472.146 1475.25,-479.172 1481.37,-482.584"/>
</g>
<!-- Node40 -->
<g id="node37" class="node"><title>Node40</title>
<g id="a_node37"><a xlink:href="constants_8h.html" target="_top" xlink:title="Various constants. ">
<polygon fill="none" stroke="black" points="2525.21,-337 2525.21,-355 2616.79,-355 2616.79,-337 2525.21,-337"/>
<text text-anchor="middle" x="2571" y="-343" font-family="Helvetica,sans-Serif" font-size="10.00">RMF/constants.h</text>
</a>
</g>
</g>
<!-- Node36&#45;&gt;Node40 -->
<g id="edge117" class="edge"><title>Node36&#45;&gt;Node40</title>
<path fill="none" stroke="midnightblue" d="M1537.58,-633.619C1769.03,-628.039 2557.63,-604.002 2644,-534 2693.04,-494.254 2680.26,-441.43 2641,-392 2629.94,-378.08 2613.34,-367.145 2599.08,-359.542"/>
<polygon fill="midnightblue" stroke="midnightblue" points="2600.64,-356.405 2590.13,-355.028 2597.49,-362.656 2600.64,-356.405"/>
</g>
<!-- Node43 -->
<g id="node40" class="node"><title>Node43</title>
<g id="a_node40"><a xlink:href="FileHandle_8h.html" target="_top" xlink:title="Declaration for RMF::FileHandle. ">
<polygon fill="none" stroke="red" points="1286.71,-515 1286.71,-533 1383.29,-533 1383.29,-515 1286.71,-515"/>
<text text-anchor="middle" x="1335" y="-521" font-family="Helvetica,sans-Serif" font-size="10.00">RMF/FileHandle.h</text>
</a>
</g>
</g>
<!-- Node36&#45;&gt;Node43 -->
<g id="edge92" class="edge"><title>Node36&#45;&gt;Node43</title>
<path fill="none" stroke="midnightblue" d="M1457.22,-626.935C1441.02,-618.757 1416.19,-605.172 1397,-590 1378.36,-575.263 1359.94,-555.041 1348.09,-541.085"/>
<polygon fill="midnightblue" stroke="midnightblue" points="1350.7,-538.753 1341.61,-533.31 1345.32,-543.233 1350.7,-538.753"/>
</g>
<!-- Node44 -->
<g id="node41" class="node"><title>Node44</title>
<g id="a_node41"><a xlink:href="Decorator_8h.html" target="_top" xlink:title="Mostly empty base classes for decorators and factories. ">
<polygon fill="none" stroke="red" points="1798.93,-515 1798.93,-533 1891.07,-533 1891.07,-515 1798.93,-515"/>
<text text-anchor="middle" x="1845" y="-521" font-family="Helvetica,sans-Serif" font-size="10.00">RMF/Decorator.h</text>
</a>
</g>
</g>
<!-- Node36&#45;&gt;Node44 -->
<g id="edge102" class="edge"><title>Node36&#45;&gt;Node44</title>
<path fill="none" stroke="midnightblue" d="M1538,-626.935C1583.5,-620.054 1645.57,-608.312 1698,-590 1716.39,-583.576 1719.33,-578.197 1737,-570 1762.89,-557.992 1792.89,-545.612 1814.69,-536.884"/>
<polygon fill="midnightblue" stroke="midnightblue" points="1816.09,-540.094 1824.08,-533.145 1813.5,-533.59 1816.09,-540.094"/>
</g>
<!-- Node46 -->
<g id="node42" class="node"><title>Node46</title>
<polygon fill="none" stroke="#bfbfbf" points="1514.8,-515 1514.8,-533 1629.2,-533 1629.2,-515 1514.8,-515"/>
<text text-anchor="middle" x="1572" y="-521" font-family="Helvetica,sans-Serif" font-size="10.00">boost/lexical_cast.hpp</text>
</g>
<!-- Node36&#45;&gt;Node46 -->
<g id="edge120" class="edge"><title>Node36&#45;&gt;Node46</title>
<path fill="none" stroke="midnightblue" d="M1481.37,-626.732C1497.62,-608.487 1536.79,-564.521 1557.92,-540.802"/>
<polygon fill="midnightblue" stroke="midnightblue" points="1560.78,-542.86 1564.81,-533.065 1555.55,-538.203 1560.78,-542.86"/>
</g>
<!-- Node47 -->
<g id="node43" class="node"><title>Node47</title>
<g id="a_node43"><a xlink:href="alias_8h.html" target="_top" xlink:title="Helper functions for manipulating RMF files. ">
<polygon fill="none" stroke="black" points="1451.55,-571 1451.55,-589 1496.45,-589 1496.45,-571 1451.55,-571"/>
<text text-anchor="middle" x="1474" y="-577" font-family="Helvetica,sans-Serif" font-size="10.00">alias.h</text>
</a>
</g>
</g>
<!-- Node36&#45;&gt;Node47 -->
<g id="edge121" class="edge"><title>Node36&#45;&gt;Node47</title>
<path fill="none" stroke="midnightblue" d="M1474,-626.562C1474,-619.308 1474,-608.588 1474,-599.369"/>
<polygon fill="midnightblue" stroke="midnightblue" points="1477.5,-599.201 1474,-589.201 1470.5,-599.201 1477.5,-599.201"/>
</g>
<!-- Node37&#45;&gt;Node2 -->
<g id="edge87" class="edge"><title>Node37&#45;&gt;Node2</title>
<path fill="none" stroke="midnightblue" d="M1514.73,-453.947C1546.41,-443.919 1596.62,-426.359 1610,-412 1669.98,-347.636 1627.26,-299.757 1672,-224 1707.48,-163.924 1718.82,-141.604 1782,-112 1845.74,-82.1338 2052.36,-71.6509 2146.94,-68.3557"/>
<polygon fill="midnightblue" stroke="midnightblue" points="2147.21,-71.8485 2157.09,-68.0147 2146.98,-64.8525 2147.21,-71.8485"/>
</g>
<!-- Node37&#45;&gt;Node5 -->
<g id="edge61" class="edge"><title>Node37&#45;&gt;Node5</title>
<path fill="none" stroke="midnightblue" d="M1435.68,-454.479C1419.17,-452.233 1400.84,-449.873 1384,-448 1202.64,-427.822 1145.89,-475.992 975,-412 775.032,-337.121 591.745,-139.901 541.519,-82.7371"/>
<polygon fill="midnightblue" stroke="midnightblue" points="544.057,-80.3219 534.852,-75.0764 538.777,-84.9175 544.057,-80.3219"/>
</g>
<!-- Node37&#45;&gt;Node7 -->
<g id="edge90" class="edge"><title>Node37&#45;&gt;Node7</title>
<path fill="none" stroke="midnightblue" d="M1453.54,-453.935C1443.42,-451.772 1432.3,-449.594 1422,-448 1260.47,-423.003 1205.22,-478.704 1056,-412 1016.46,-394.324 986.741,-378.517 995,-336 1009.88,-259.394 1052.26,-175.448 1071.41,-140.143"/>
<polygon fill="midnightblue" stroke="midnightblue" points="1074.59,-141.612 1076.35,-131.164 1068.46,-138.237 1074.59,-141.612"/>
</g>
<!-- Node37&#45;&gt;Node10 -->
<g id="edge60" class="edge"><title>Node37&#45;&gt;Node10</title>
<path fill="none" stroke="midnightblue" d="M1435.67,-454.576C1419.16,-452.335 1400.83,-449.953 1384,-448 1302.16,-438.503 1089,-448.213 1015,-412 922.658,-366.813 904.632,-334.575 856,-244 827.569,-191.05 818.747,-118.87 816.095,-85.4164"/>
<polygon fill="midnightblue" stroke="midnightblue" points="819.576,-85.027 815.392,-75.2936 812.593,-85.5121 819.576,-85.027"/>
</g>
<!-- Node37&#45;&gt;Node15 -->
<g id="edge89" class="edge"><title>Node37&#45;&gt;Node15</title>
<path fill="none" stroke="midnightblue" d="M1483.22,-453.743C1477.74,-444.016 1468.77,-427.248 1463,-412 1423.26,-307.047 1438.21,-272.776 1398,-168 1394.33,-158.449 1389.24,-148.264 1384.77,-140.003"/>
<polygon fill="midnightblue" stroke="midnightblue" points="1387.71,-138.08 1379.78,-131.053 1381.59,-141.491 1387.71,-138.08"/>
</g>
<!-- Node37&#45;&gt;Node28 -->
<g id="edge91" class="edge"><title>Node37&#45;&gt;Node28</title>
<path fill="none" stroke="midnightblue" d="M1540.42,-456.008C1576.31,-449.779 1623.46,-437.204 1658,-412 1709.24,-374.617 1716.61,-290.869 1717.25,-253.554"/>
<polygon fill="midnightblue" stroke="midnightblue" points="1720.75,-253.193 1717.26,-243.188 1713.75,-253.182 1720.75,-253.193"/>
</g>
<!-- Node37&#45;&gt;Node29 -->
<g id="edge86" class="edge"><title>Node37&#45;&gt;Node29</title>
<path fill="none" stroke="midnightblue" d="M1537.5,-453.959C1670.45,-432.364 2033.45,-373.402 2155.42,-353.592"/>
<polygon fill="midnightblue" stroke="midnightblue" points="2156.15,-357.02 2165.45,-351.961 2155.02,-350.11 2156.15,-357.02"/>
</g>
<!-- Node37&#45;&gt;Node35 -->
<g id="edge62" class="edge"><title>Node37&#45;&gt;Node35</title>
<path fill="none" stroke="midnightblue" d="M1515.03,-453.956C1536.87,-446.258 1567.15,-432.719 1587,-412 1650.43,-345.778 1608.44,-290.094 1672,-224 1686.61,-208.808 1707.44,-197.94 1725.38,-190.695"/>
<polygon fill="midnightblue" stroke="midnightblue" points="1726.89,-193.865 1735,-187.038 1724.4,-187.323 1726.89,-193.865"/>
</g>
<!-- Node37&#45;&gt;Node38 -->
<g id="edge59" class="edge"><title>Node37&#45;&gt;Node38</title>
<path fill="none" stroke="midnightblue" d="M1451.02,-453.96C1408.93,-444.632 1338.2,-428.421 1278,-412 1214.97,-394.807 1142.34,-371.694 1100.83,-358.166"/>
<polygon fill="midnightblue" stroke="midnightblue" points="1101.81,-354.805 1091.22,-355.024 1099.63,-361.458 1101.81,-354.805"/>
</g>
<!-- Node39 -->
<g id="node36" class="node"><title>Node39</title>
<g id="a_node36"><a xlink:href="NodeConstHandle_8h.html" target="_top" xlink:title="Declaration of NodeConstHandlke. ">
<polygon fill="none" stroke="red" points="1471.97,-393 1471.97,-411 1578.03,-411 1578.03,-393 1471.97,-393"/>
<text text-anchor="middle" x="1525" y="-399" font-family="Helvetica,sans-Serif" font-size="10.00">NodeConstHandle.h</text>
</a>
</g>
</g>
<!-- Node37&#45;&gt;Node39 -->
<g id="edge63" class="edge"><title>Node37&#45;&gt;Node39</title>
<path fill="none" stroke="midnightblue" d="M1493.14,-453.796C1498.61,-445.078 1507.41,-431.046 1514.38,-419.937"/>
<polygon fill="midnightblue" stroke="midnightblue" points="1517.55,-421.465 1519.9,-411.134 1511.62,-417.746 1517.55,-421.465"/>
</g>
<!-- Node41 -->
<g id="node38" class="node"><title>Node41</title>
<g id="a_node38"><a xlink:href="enums_8h.html" target="_top" xlink:title="The various enums used in RMF. ">
<polygon fill="none" stroke="black" points="1233.6,-281 1233.6,-299 1312.4,-299 1312.4,-281 1233.6,-281"/>
<text text-anchor="middle" x="1273" y="-287" font-family="Helvetica,sans-Serif" font-size="10.00">RMF/enums.h</text>
</a>
</g>
</g>
<!-- Node37&#45;&gt;Node41 -->
<g id="edge88" class="edge"><title>Node37&#45;&gt;Node41</title>
<path fill="none" stroke="midnightblue" d="M1451.4,-453.958C1441.84,-451.935 1431.55,-449.823 1422,-448 1328.36,-430.126 1060.94,-431.7 1003,-356 997.597,-348.941 997.254,-342.782 1003,-336 1030.65,-303.364 1152.91,-294.375 1223.06,-291.914"/>
<polygon fill="midnightblue" stroke="midnightblue" points="1223.55,-295.401 1233.43,-291.585 1223.33,-288.404 1223.55,-295.401"/>
</g>
<!-- Node39&#45;&gt;Node2 -->
<g id="edge70" class="edge"><title>Node39&#45;&gt;Node2</title>
<path fill="none" stroke="midnightblue" d="M1578.24,-399.347C1720.84,-394.644 2109.12,-379.962 2235,-356 2320.81,-339.666 2609,-322.353 2609,-235 2609,-235 2609,-235 2609,-177 2609,-142.605 2596.16,-130.234 2567,-112 2514.06,-78.9013 2331.37,-70.1384 2243.27,-67.8254"/>
<polygon fill="midnightblue" stroke="midnightblue" points="2243.09,-64.3201 2233.01,-67.5741 2242.92,-71.318 2243.09,-64.3201"/>
</g>
<!-- Node39&#45;&gt;Node5 -->
<g id="edge67" class="edge"><title>Node39&#45;&gt;Node5</title>
<path fill="none" stroke="midnightblue" d="M1478.24,-392.935C1435.37,-385.081 1370.34,-372.004 1315,-356 1011.55,-268.245 657.001,-121.581 556.072,-78.9552"/>
<polygon fill="midnightblue" stroke="midnightblue" points="557.418,-75.7242 546.845,-75.049 554.689,-82.1704 557.418,-75.7242"/>
</g>
<!-- Node39&#45;&gt;Node7 -->
<g id="edge72" class="edge"><title>Node39&#45;&gt;Node7</title>
<path fill="none" stroke="midnightblue" d="M1513.8,-392.801C1470.87,-361.56 1312.3,-247.722 1173,-168 1151.94,-155.947 1127.19,-143.956 1108.67,-135.387"/>
<polygon fill="midnightblue" stroke="midnightblue" points="1109.89,-132.098 1099.34,-131.117 1106.98,-138.462 1109.89,-132.098"/>
</g>
<!-- Node39&#45;&gt;Node9 -->
<g id="edge65" class="edge"><title>Node39&#45;&gt;Node9</title>
<path fill="none" stroke="midnightblue" d="M1517.19,-392.744C1475.52,-348.706 1279.27,-141.277 1223.7,-82.5359"/>
<polygon fill="midnightblue" stroke="midnightblue" points="1226.24,-80.1253 1216.82,-75.2666 1221.15,-84.9362 1226.24,-80.1253"/>
</g>
<!-- Node39&#45;&gt;Node10 -->
<g id="edge66" class="edge"><title>Node39&#45;&gt;Node10</title>
<path fill="none" stroke="midnightblue" d="M1495.37,-392.929C1464.59,-384.38 1415.12,-370.183 1373,-356 1160.89,-284.583 1115.54,-244.383 922,-132 892.2,-114.697 858.273,-93.8958 836.759,-80.5658"/>
<polygon fill="midnightblue" stroke="midnightblue" points="838.419,-77.4767 828.078,-75.1744 834.726,-83.4233 838.419,-77.4767"/>
</g>
<!-- Node39&#45;&gt;Node15 -->
<g id="edge71" class="edge"><title>Node39&#45;&gt;Node15</title>
<path fill="none" stroke="midnightblue" d="M1524.92,-392.758C1524.46,-372.73 1521.73,-320.2 1506,-280 1484.17,-224.21 1471.48,-212.16 1431,-168 1420.36,-156.393 1406.59,-145.29 1395.37,-137.016"/>
<polygon fill="midnightblue" stroke="midnightblue" points="1397.2,-134.016 1387.03,-131.032 1393.12,-139.704 1397.2,-134.016"/>
</g>
<!-- Node39&#45;&gt;Node28 -->
<g id="edge85" class="edge"><title>Node39&#45;&gt;Node28</title>
<path fill="none" stroke="midnightblue" d="M1535.66,-392.9C1547.24,-384.037 1566.18,-369.313 1582,-356 1625.92,-319.041 1675.78,-273.329 1700.83,-250.094"/>
<polygon fill="midnightblue" stroke="midnightblue" points="1703.38,-252.495 1708.32,-243.122 1698.62,-247.369 1703.38,-252.495"/>
</g>
<!-- Node39&#45;&gt;Node29 -->
<g id="edge69" class="edge"><title>Node39&#45;&gt;Node29</title>
<path fill="none" stroke="midnightblue" d="M1578.06,-396.991C1678.83,-389.337 1904.83,-371.979 2095,-356 2114.89,-354.329 2136.97,-352.373 2155.4,-350.712"/>
<polygon fill="midnightblue" stroke="midnightblue" points="2155.87,-354.184 2165.51,-349.798 2155.24,-347.213 2155.87,-354.184"/>
</g>
<!-- Node39&#45;&gt;Node30 -->
<g id="edge84" class="edge"><title>Node39&#45;&gt;Node30</title>
<path fill="none" stroke="midnightblue" d="M1578.15,-393.089C1721.6,-371.736 2113.75,-313.365 2230.67,-295.961"/>
<polygon fill="midnightblue" stroke="midnightblue" points="2231.42,-299.388 2240.8,-294.454 2230.39,-292.464 2231.42,-299.388"/>
</g>
<!-- Node39&#45;&gt;Node35 -->
<g id="edge68" class="edge"><title>Node39&#45;&gt;Node35</title>
<path fill="none" stroke="midnightblue" d="M1528.88,-392.755C1538.44,-372.72 1564.4,-320.177 1592,-280 1610.4,-253.218 1612.4,-242.658 1639,-224 1664.23,-206.307 1697.21,-194.736 1722.67,-187.763"/>
<polygon fill="midnightblue" stroke="midnightblue" points="1723.59,-191.142 1732.38,-185.226 1721.82,-184.369 1723.59,-191.142"/>
</g>
<!-- Node39&#45;&gt;Node38 -->
<g id="edge64" class="edge"><title>Node39&#45;&gt;Node38</title>
<path fill="none" stroke="midnightblue" d="M1471.57,-394.7C1387.18,-384.751 1223.32,-365.431 1132.17,-354.683"/>
<polygon fill="midnightblue" stroke="midnightblue" points="1132.57,-351.207 1122.23,-353.512 1131.75,-358.159 1132.57,-351.207"/>
</g>
<!-- Node39&#45;&gt;Node40 -->
<g id="edge73" class="edge"><title>Node39&#45;&gt;Node40</title>
<path fill="none" stroke="midnightblue" d="M1578.31,-398.248C1756.78,-389.035 2332.28,-359.324 2514.87,-349.898"/>
<polygon fill="midnightblue" stroke="midnightblue" points="2515.24,-353.383 2525.05,-349.372 2514.88,-346.393 2515.24,-353.383"/>
</g>
<!-- Node39&#45;&gt;Node41 -->
<g id="edge76" class="edge"><title>Node39&#45;&gt;Node41</title>
<path fill="none" stroke="midnightblue" d="M1506.47,-392.911C1462.69,-373.801 1352.65,-325.767 1300.82,-303.143"/>
<polygon fill="midnightblue" stroke="midnightblue" points="1302.12,-299.893 1291.56,-299.1 1299.32,-306.309 1302.12,-299.893"/>
</g>
<!-- Node40&#45;&gt;Node2 -->
<g id="edge74" class="edge"><title>Node40&#45;&gt;Node2</title>
<path fill="none" stroke="midnightblue" d="M2599.64,-336.876C2619.3,-329.968 2644.68,-318.218 2661,-300 2681.55,-277.061 2685,-265.795 2685,-235 2685,-235 2685,-235 2685,-177 2685,-146.205 2685.39,-130.8 2661,-112 2628.38,-86.8583 2355.33,-73.3207 2242.99,-68.7716"/>
<polygon fill="midnightblue" stroke="midnightblue" points="2243.08,-65.2726 2232.95,-68.3718 2242.81,-72.267 2243.08,-65.2726"/>
</g>
<!-- Node40&#45;&gt;Node35 -->
<g id="edge75" class="edge"><title>Node40&#45;&gt;Node35</title>
<path fill="none" stroke="midnightblue" d="M2531.58,-336.946C2463.43,-322.411 2319.78,-289.066 2204,-244 2185.85,-236.934 2183.65,-229.617 2165,-224 2036.18,-185.204 1875.11,-179.253 1801.73,-178.73"/>
<polygon fill="midnightblue" stroke="midnightblue" points="1801.57,-175.229 1791.55,-178.689 1801.54,-182.229 1801.57,-175.229"/>
</g>
<!-- Node41&#45;&gt;Node2 -->
<g id="edge77" class="edge"><title>Node41&#45;&gt;Node2</title>
<path fill="none" stroke="midnightblue" d="M1284.11,-280.78C1296.2,-271.814 1316.06,-257.004 1333,-244 1351.83,-229.544 1478.83,-120.482 1501,-112 1619.29,-66.7512 2009.75,-65.4436 2146.88,-66.4462"/>
<polygon fill="midnightblue" stroke="midnightblue" points="2147.04,-69.9475 2157.07,-66.5285 2147.1,-62.9477 2147.04,-69.9475"/>
</g>
<!-- Node41&#45;&gt;Node9 -->
<g id="edge83" class="edge"><title>Node41&#45;&gt;Node9</title>
<path fill="none" stroke="midnightblue" d="M1270.65,-280.836C1261.37,-248.672 1227.24,-130.269 1214.15,-84.8754"/>
<polygon fill="midnightblue" stroke="midnightblue" points="1217.44,-83.6436 1211.31,-75.0045 1210.71,-85.5827 1217.44,-83.6436"/>
</g>
<!-- Node41&#45;&gt;Node10 -->
<g id="edge82" class="edge"><title>Node41&#45;&gt;Node10</title>
<path fill="none" stroke="midnightblue" d="M1257.79,-280.854C1209.32,-255.005 1053.98,-172.94 922,-112 896.138,-100.058 866.214,-87.5846 844.599,-78.8071"/>
<polygon fill="midnightblue" stroke="midnightblue" points="845.879,-75.5496 835.296,-75.0494 843.257,-82.0401 845.879,-75.5496"/>
</g>
<!-- Node42 -->
<g id="node39" class="node"><title>Node42</title>
<g id="a_node39"><a xlink:href="Enum_8h.html" target="_top" xlink:title="Declaration of RMF::Enum. ">
<polygon fill="none" stroke="red" points="1338.77,-169 1338.77,-187 1389.23,-187 1389.23,-169 1338.77,-169"/>
<text text-anchor="middle" x="1364" y="-175" font-family="Helvetica,sans-Serif" font-size="10.00">Enum.h</text>
</a>
</g>
</g>
<!-- Node41&#45;&gt;Node42 -->
<g id="edge78" class="edge"><title>Node41&#45;&gt;Node42</title>
<path fill="none" stroke="midnightblue" d="M1279.84,-280.732C1294.93,-262.487 1331.31,-218.521 1350.93,-194.802"/>
<polygon fill="midnightblue" stroke="midnightblue" points="1353.65,-197.001 1357.33,-187.065 1348.26,-192.539 1353.65,-197.001"/>
</g>
<!-- Node42&#45;&gt;Node2 -->
<g id="edge79" class="edge"><title>Node42&#45;&gt;Node2</title>
<path fill="none" stroke="midnightblue" d="M1372.7,-168.954C1388.97,-154.478 1425.74,-124.398 1463,-112 1590.44,-69.6001 2004.97,-66.5224 2146.85,-66.7515"/>
<polygon fill="midnightblue" stroke="midnightblue" points="2146.98,-70.2517 2156.98,-66.7744 2146.99,-63.2517 2146.98,-70.2517"/>
</g>
<!-- Node42&#45;&gt;Node7 -->
<g id="edge80" class="edge"><title>Node42&#45;&gt;Node7</title>
<path fill="none" stroke="midnightblue" d="M1338.39,-172.113C1292.21,-163.302 1194.17,-144.594 1133.3,-132.98"/>
<polygon fill="midnightblue" stroke="midnightblue" points="1133.61,-129.475 1123.13,-131.039 1132.3,-136.351 1133.61,-129.475"/>
</g>
<!-- Node42&#45;&gt;Node15 -->
<g id="edge81" class="edge"><title>Node42&#45;&gt;Node15</title>
<path fill="none" stroke="midnightblue" d="M1365.72,-168.562C1367.21,-161.228 1369.43,-150.352 1371.32,-141.066"/>
<polygon fill="midnightblue" stroke="midnightblue" points="1374.76,-141.699 1373.33,-131.201 1367.9,-140.302 1374.76,-141.699"/>
</g>
<!-- Node43&#45;&gt;Node2 -->
<g id="edge98" class="edge"><title>Node43&#45;&gt;Node2</title>
<path fill="none" stroke="midnightblue" d="M1383.3,-520.976C1479.12,-516.454 1689.77,-503.833 1757,-478 1803.64,-460.079 1813.23,-447.877 1848,-412 1889.87,-368.803 1893.59,-351.906 1924,-300 1957.15,-243.405 1943.48,-214.244 1990,-168 2037.09,-121.19 2110.21,-92.4204 2155.21,-78.1076"/>
<polygon fill="midnightblue" stroke="midnightblue" points="2156.4,-81.4049 2164.92,-75.1067 2154.33,-74.7173 2156.4,-81.4049"/>
</g>
<!-- Node43&#45;&gt;Node3 -->
<g id="edge99" class="edge"><title>Node43&#45;&gt;Node3</title>
<path fill="none" stroke="midnightblue" d="M1286.71,-517.397C1249.3,-511.552 1197.09,-500.026 1156,-478 1138.53,-468.636 1141.25,-455.729 1123,-448 1006.54,-398.683 676.339,-447.678 555,-412 449.06,-380.85 338,-401.425 338,-291 338,-291 338,-291 338,-121 338,-44.6564 422.636,-73.273 497,-56 606.231,-30.6282 933.837,-17.7169 1081.01,-13.0676"/>
<polygon fill="midnightblue" stroke="midnightblue" points="1081.4,-16.5571 1091.29,-12.747 1081.18,-9.56052 1081.4,-16.5571"/>
</g>
<!-- Node43&#45;&gt;Node5 -->
<g id="edge95" class="edge"><title>Node43&#45;&gt;Node5</title>
<path fill="none" stroke="midnightblue" d="M1316.67,-514.95C1274.41,-496.447 1172.5,-452.15 1156,-448 854.614,-372.209 490,-545.77 490,-235 490,-235 490,-235 490,-177 490,-142.621 506.788,-105.346 518.047,-84.2141"/>
<polygon fill="midnightblue" stroke="midnightblue" points="521.245,-85.6632 523.032,-75.2201 515.123,-82.2696 521.245,-85.6632"/>
</g>
<!-- Node43&#45;&gt;Node10 -->
<g id="edge94" class="edge"><title>Node43&#45;&gt;Node10</title>
<path fill="none" stroke="midnightblue" d="M1322.86,-514.929C1309.68,-506.09 1288.1,-491.387 1270,-478 1252.7,-465.203 1251.69,-456.67 1232,-448 1115.37,-396.656 773.429,-424.535 666,-356 570.244,-294.911 517.99,-199.839 590,-112 614.26,-82.4071 728.826,-71.8872 784.493,-68.4797"/>
<polygon fill="midnightblue" stroke="midnightblue" points="784.699,-71.9737 794.482,-67.9063 784.297,-64.9852 784.699,-71.9737"/>
</g>
<!-- Node43&#45;&gt;Node28 -->
<g id="edge101" class="edge"><title>Node43&#45;&gt;Node28</title>
<path fill="none" stroke="midnightblue" d="M1383.34,-517.542C1452.84,-509.326 1577.33,-493.127 1620,-478 1675.18,-458.437 1691.15,-451.894 1734,-412 1778.68,-370.4 1798.14,-335.168 1772,-280 1765.71,-266.716 1753.36,-256.05 1741.95,-248.442"/>
<polygon fill="midnightblue" stroke="midnightblue" points="1743.49,-245.278 1733.14,-243.005 1739.81,-251.235 1743.49,-245.278"/>
</g>
<!-- Node43&#45;&gt;Node35 -->
<g id="edge96" class="edge"><title>Node43&#45;&gt;Node35</title>
<path fill="none" stroke="midnightblue" d="M1383.57,-518.221C1462.85,-510.123 1616.5,-493.113 1669,-478 1746.41,-455.717 1834,-483.554 1834,-403 1834,-403 1834,-403 1834,-345 1834,-285.757 1794.93,-223.713 1774.35,-195.145"/>
<polygon fill="midnightblue" stroke="midnightblue" points="1777.15,-193.049 1768.39,-187.092 1771.52,-197.213 1777.15,-193.049"/>
</g>
<!-- Node43&#45;&gt;Node37 -->
<g id="edge97" class="edge"><title>Node43&#45;&gt;Node37</title>
<path fill="none" stroke="midnightblue" d="M1355.95,-514.92C1382.13,-504.826 1427.13,-487.472 1457.22,-475.868"/>
<polygon fill="midnightblue" stroke="midnightblue" points="1458.74,-479.035 1466.81,-472.172 1456.22,-472.504 1458.74,-479.035"/>
</g>
<!-- Node43&#45;&gt;Node38 -->
<g id="edge93" class="edge"><title>Node43&#45;&gt;Node38</title>
<path fill="none" stroke="midnightblue" d="M1334.29,-514.815C1332.55,-499.612 1326.73,-466.849 1308,-448 1275.3,-415.083 1252.93,-429.613 1210,-412 1168.47,-394.962 1121.23,-372.964 1092.79,-359.426"/>
<polygon fill="midnightblue" stroke="midnightblue" points="1094.09,-356.167 1083.56,-355.013 1091.07,-362.483 1094.09,-356.167"/>
</g>
<!-- Node43&#45;&gt;Node41 -->
<g id="edge100" class="edge"><title>Node43&#45;&gt;Node41</title>
<path fill="none" stroke="midnightblue" d="M1330.01,-514.721C1320.33,-499.361 1297.53,-466.347 1270,-448 1162.75,-376.526 1070.17,-460.689 995,-356 989.816,-348.78 989.239,-342.769 995,-336 1023.73,-302.243 1151.24,-293.731 1223.18,-291.636"/>
<polygon fill="midnightblue" stroke="midnightblue" points="1223.46,-295.13 1233.37,-291.372 1223.28,-288.133 1223.46,-295.13"/>
</g>
<!-- Node44&#45;&gt;Node2 -->
<g id="edge103" class="edge"><title>Node44&#45;&gt;Node2</title>
<path fill="none" stroke="midnightblue" d="M1888.91,-514.973C1891.31,-514.622 1893.68,-514.294 1896,-514 1997.94,-501.056 2266.5,-526.671 2357,-478 2399.67,-455.05 2388.08,-424.514 2424,-392 2446.47,-371.666 2647,-265.303 2647,-235 2647,-235 2647,-235 2647,-177 2647,-139.725 2626.72,-129.855 2594,-112 2534.56,-79.5661 2335.57,-70.4437 2243.05,-67.9302"/>
<polygon fill="midnightblue" stroke="midnightblue" points="2242.93,-64.426 2232.84,-67.668 2242.75,-71.4237 2242.93,-64.426"/>
</g>
<!-- Node44&#45;&gt;Node7 -->
<g id="edge104" class="edge"><title>Node44&#45;&gt;Node7</title>
<path fill="none" stroke="midnightblue" d="M1825.28,-514.989C1787.55,-499.932 1702.29,-467.198 1628,-448 1460.6,-404.739 1399.65,-442.613 1250,-356 1161.11,-304.552 1106.02,-185.536 1087.75,-140.603"/>
<polygon fill="midnightblue" stroke="midnightblue" points="1091,-139.308 1084.07,-131.297 1084.5,-141.884 1091,-139.308"/>
</g>
<!-- Node44&#45;&gt;Node10 -->
<g id="edge107" class="edge"><title>Node44&#45;&gt;Node10</title>
<path fill="none" stroke="midnightblue" d="M1798.77,-519.178C1721.55,-512.536 1561.51,-497.666 1427,-478 1354.55,-467.407 1337.46,-458.53 1265,-448 1189.81,-437.074 987.227,-455.594 925,-412 814.701,-334.729 811.972,-145.201 814.02,-85.3947"/>
<polygon fill="midnightblue" stroke="midnightblue" points="817.524,-85.3776 814.462,-75.2347 810.53,-85.0728 817.524,-85.3776"/>
</g>
<!-- Node44&#45;&gt;Node13 -->
<g id="edge110" class="edge"><title>Node44&#45;&gt;Node13</title>
<path fill="none" stroke="midnightblue" d="M1889.48,-514.983C1891.68,-514.639 1893.86,-514.309 1896,-514 2037.21,-493.592 2082.63,-531.245 2215,-478 2297.51,-444.81 2533,-323.937 2533,-235 2533,-235 2533,-235 2533,-177 2533,-86.4881 2429.03,-128.337 2340,-112 2133.52,-74.1093 1605.46,-90.0099 1396,-76 1384.36,-75.2215 1371.93,-74.1804 1360.05,-73.0829"/>
<polygon fill="midnightblue" stroke="midnightblue" points="1360.06,-69.569 1349.78,-72.1091 1359.4,-76.5377 1360.06,-69.569"/>
</g>
<!-- Node44&#45;&gt;Node25 -->
<g id="edge113" class="edge"><title>Node44&#45;&gt;Node25</title>
<path fill="none" stroke="midnightblue" d="M1886.98,-514.936C1968,-498.167 2138,-456.595 2138,-403 2138,-403 2138,-403 2138,-345 2138,-310.579 2071.45,-229.272 2041.88,-194.843"/>
<polygon fill="midnightblue" stroke="midnightblue" points="2044.41,-192.423 2035.22,-187.157 2039.12,-197.007 2044.41,-192.423"/>
</g>
<!-- Node44&#45;&gt;Node28 -->
<g id="edge111" class="edge"><title>Node44&#45;&gt;Node28</title>
<path fill="none" stroke="midnightblue" d="M1846.71,-514.574C1853.14,-480.399 1872.37,-350.592 1810,-280 1796.11,-264.276 1775.49,-253.526 1757.2,-246.488"/>
<polygon fill="midnightblue" stroke="midnightblue" points="1758.21,-243.131 1747.62,-243.045 1755.84,-249.719 1758.21,-243.131"/>
</g>
<!-- Node44&#45;&gt;Node30 -->
<g id="edge114" class="edge"><title>Node44&#45;&gt;Node30</title>
<path fill="none" stroke="midnightblue" d="M1891.18,-520.746C1965.95,-516.359 2109.43,-504.66 2152,-478 2215.64,-438.149 2247.91,-347.739 2259.21,-309.08"/>
<polygon fill="midnightblue" stroke="midnightblue" points="2262.64,-309.816 2261.95,-299.243 2255.89,-307.936 2262.64,-309.816"/>
</g>
<!-- Node44&#45;&gt;Node31 -->
<g id="edge112" class="edge"><title>Node44&#45;&gt;Node31</title>
<path fill="none" stroke="midnightblue" d="M1889.76,-514.97C1891.87,-514.633 1893.96,-514.308 1896,-514 2023.56,-494.785 2071.97,-541.942 2184,-478 2232.71,-450.197 2324.3,-295.686 2339,-244 2341.43,-235.45 2341.7,-232.468 2339,-224 2335.57,-213.27 2328.55,-202.909 2321.96,-194.84"/>
<polygon fill="midnightblue" stroke="midnightblue" points="2324.38,-192.293 2315.16,-187.074 2319.11,-196.904 2324.38,-192.293"/>
</g>
<!-- Node44&#45;&gt;Node35 -->
<g id="edge105" class="edge"><title>Node44&#45;&gt;Node35</title>
<path fill="none" stroke="midnightblue" d="M1853.42,-514.796C1879.14,-488.678 1953.27,-405.127 1924,-336 1895.56,-268.839 1822.78,-216.312 1785.21,-192.666"/>
<polygon fill="midnightblue" stroke="midnightblue" points="1786.82,-189.545 1776.47,-187.285 1783.15,-195.507 1786.82,-189.545"/>
</g>
<!-- Node44&#45;&gt;Node37 -->
<g id="edge116" class="edge"><title>Node44&#45;&gt;Node37</title>
<path fill="none" stroke="midnightblue" d="M1798.75,-516.658C1741.23,-508.584 1640.11,-493.779 1554,-478 1547.65,-476.836 1540.97,-475.525 1534.41,-474.183"/>
<polygon fill="midnightblue" stroke="midnightblue" points="1534.74,-470.678 1524.24,-472.066 1533.32,-477.531 1534.74,-470.678"/>
</g>
<!-- Node44&#45;&gt;Node38 -->
<g id="edge106" class="edge"><title>Node44&#45;&gt;Node38</title>
<path fill="none" stroke="midnightblue" d="M1817.04,-514.971C1764.76,-500.168 1648.48,-468.241 1549,-448 1446.32,-427.108 1417.57,-437.737 1316,-412 1290.38,-405.509 1285.35,-399.457 1260,-392 1212.18,-377.934 1156.66,-365.376 1117.49,-357.124"/>
<polygon fill="midnightblue" stroke="midnightblue" points="1118.15,-353.686 1107.64,-355.069 1116.71,-360.538 1118.15,-353.686"/>
</g>
<!-- Node44&#45;&gt;Node39 -->
<g id="edge115" class="edge"><title>Node44&#45;&gt;Node39</title>
<path fill="none" stroke="midnightblue" d="M1843.75,-514.884C1840.89,-499.193 1832.27,-464.767 1810,-448 1775.98,-422.388 1661.46,-410.948 1588.36,-406.152"/>
<polygon fill="midnightblue" stroke="midnightblue" points="1588.53,-402.656 1578.33,-405.519 1588.09,-409.642 1588.53,-402.656"/>
</g>
<!-- Node44&#45;&gt;Node40 -->
<g id="edge108" class="edge"><title>Node44&#45;&gt;Node40</title>
<path fill="none" stroke="midnightblue" d="M1891.34,-521.69C2016.2,-517.815 2353.1,-504.954 2395,-478 2431.81,-454.317 2409.52,-420.196 2443,-392 2463.43,-374.797 2490.87,-364.005 2515.1,-357.32"/>
<polygon fill="midnightblue" stroke="midnightblue" points="2516.11,-360.676 2524.91,-354.785 2514.35,-353.899 2516.11,-360.676"/>
</g>
<!-- Node44&#45;&gt;Node41 -->
<g id="edge109" class="edge"><title>Node44&#45;&gt;Node41</title>
<path fill="none" stroke="midnightblue" d="M1838.39,-514.956C1823.69,-497.287 1788.3,-456.025 1772,-448 1647.95,-386.935 1593.52,-457.625 1463,-412 1426.62,-399.283 1333.64,-334.426 1292.77,-305.251"/>
<polygon fill="midnightblue" stroke="midnightblue" points="1294.61,-302.262 1284.44,-299.282 1290.53,-307.952 1294.61,-302.262"/>
</g>
<!-- Node47&#45;&gt;Node2 -->
<g id="edge122" class="edge"><title>Node47&#45;&gt;Node2</title>
<path fill="none" stroke="midnightblue" d="M1496.63,-575.515C1510.07,-573.579 1527.47,-571.304 1543,-570 1648.37,-561.152 2399.53,-581.503 2494,-534 2643.55,-458.805 2723,-402.386 2723,-235 2723,-235 2723,-235 2723,-177 2723,-143.079 2711.82,-129.89 2683,-112 2646.2,-89.155 2359.15,-74.18 2243.27,-69.0102"/>
<polygon fill="midnightblue" stroke="midnightblue" points="2243.08,-65.4983 2232.93,-68.5548 2242.77,-72.4915 2243.08,-65.4983"/>
</g>
<!-- Node47&#45;&gt;Node6 -->
<g id="edge128" class="edge"><title>Node47&#45;&gt;Node6</title>
<path fill="none" stroke="midnightblue" d="M1451.43,-576.61C1374.28,-568.442 1119.97,-541.514 1012.56,-530.141"/>
<polygon fill="midnightblue" stroke="midnightblue" points="1012.64,-526.631 1002.33,-529.058 1011.9,-533.592 1012.64,-526.631"/>
</g>
<!-- Node47&#45;&gt;Node7 -->
<g id="edge123" class="edge"><title>Node47&#45;&gt;Node7</title>
<path fill="none" stroke="midnightblue" d="M1451.35,-575.916C1414.22,-570.397 1338.47,-557.185 1278,-534 1204.44,-505.797 1194.47,-481.156 1123,-448 999.923,-390.899 920.666,-419.276 856,-300 839.901,-270.306 840.766,-254.147 856,-224 874.923,-186.552 894.482,-186.783 932,-168 963.695,-152.132 1002.03,-140.711 1031.88,-133.345"/>
<polygon fill="midnightblue" stroke="midnightblue" points="1032.74,-136.737 1041.65,-131.002 1031.11,-129.93 1032.74,-136.737"/>
</g>
<!-- Node47&#45;&gt;Node23 -->
<g id="edge129" class="edge"><title>Node47&#45;&gt;Node23</title>
<path fill="none" stroke="midnightblue" d="M1451.29,-577.056C1389.69,-571.562 1220.57,-554.947 1169,-534 1137.25,-521.106 1106.13,-495.754 1088.02,-479.359"/>
<polygon fill="midnightblue" stroke="midnightblue" points="1089.94,-476.363 1080.23,-472.124 1085.18,-481.493 1089.94,-476.363"/>
</g>
<!-- Node47&#45;&gt;Node37 -->
<g id="edge124" class="edge"><title>Node47&#45;&gt;Node37</title>
<path fill="none" stroke="midnightblue" d="M1475.01,-570.729C1477.25,-552.329 1482.69,-507.637 1485.77,-482.307"/>
<polygon fill="midnightblue" stroke="midnightblue" points="1489.27,-482.545 1487,-472.196 1482.32,-481.699 1489.27,-482.545"/>
</g>
<!-- Node47&#45;&gt;Node40 -->
<g id="edge127" class="edge"><title>Node47&#45;&gt;Node40</title>
<path fill="none" stroke="midnightblue" d="M1496.63,-575.521C1510.07,-573.586 1527.47,-571.311 1543,-570 1645.82,-561.318 2383.53,-588.747 2471,-534 2502.79,-514.103 2547.32,-407.438 2564.17,-364.713"/>
<polygon fill="midnightblue" stroke="midnightblue" points="2567.46,-365.908 2567.84,-355.32 2560.94,-363.364 2567.46,-365.908"/>
</g>
<!-- Node47&#45;&gt;Node43 -->
<g id="edge125" class="edge"><title>Node47&#45;&gt;Node43</title>
<path fill="none" stroke="midnightblue" d="M1453.19,-570.916C1429.95,-561.889 1392.13,-547.193 1365.54,-536.864"/>
<polygon fill="midnightblue" stroke="midnightblue" points="1366.54,-533.498 1355.95,-533.14 1364.01,-540.023 1366.54,-533.498"/>
</g>
<!-- Node47&#45;&gt;Node44 -->
<g id="edge126" class="edge"><title>Node47&#45;&gt;Node44</title>
<path fill="none" stroke="midnightblue" d="M1496.65,-575.703C1553.89,-567.372 1705.68,-545.279 1788.74,-533.189"/>
<polygon fill="midnightblue" stroke="midnightblue" points="1789.37,-536.634 1798.76,-531.73 1788.36,-529.707 1789.37,-536.634"/>
</g>
<!-- Node47&#45;&gt;Node46 -->
<g id="edge130" class="edge"><title>Node47&#45;&gt;Node46</title>
<path fill="none" stroke="midnightblue" d="M1488.88,-570.799C1504.66,-562.105 1529.8,-548.251 1548.31,-538.054"/>
<polygon fill="midnightblue" stroke="midnightblue" points="1550.23,-540.993 1557.3,-533.102 1546.85,-534.862 1550.23,-540.993"/>
</g>
<!-- Node48&#45;&gt;Node2 -->
<g id="edge132" class="edge"><title>Node48&#45;&gt;Node2</title>
<path fill="none" stroke="midnightblue" d="M1689.67,-573.261C1705.23,-572.076 1721.68,-570.912 1737,-570 1833.36,-564.266 2518.44,-576.723 2605,-534 2702.06,-486.096 2761,-455.234 2761,-347 2761,-347 2761,-347 2761,-177 2761,-146.205 2761.52,-130.636 2737,-112 2698.11,-82.4399 2367.95,-71.2655 2242.82,-68.0679"/>
<polygon fill="midnightblue" stroke="midnightblue" points="2242.84,-64.5676 2232.76,-67.8169 2242.67,-71.5654 2242.84,-64.5676"/>
</g>
<!-- Node48&#45;&gt;Node6 -->
<g id="edge138" class="edge"><title>Node48&#45;&gt;Node6</title>
<path fill="none" stroke="midnightblue" d="M1552.24,-573.349C1418.86,-562.386 1127.98,-538.478 1012.58,-528.993"/>
<polygon fill="midnightblue" stroke="midnightblue" points="1012.55,-525.478 1002.29,-528.147 1011.97,-532.455 1012.55,-525.478"/>
</g>
<!-- Node48&#45;&gt;Node7 -->
<g id="edge133" class="edge"><title>Node48&#45;&gt;Node7</title>
<path fill="none" stroke="midnightblue" d="M1627.26,-570.797C1636.68,-557.381 1651.99,-530.581 1638,-514 1607.32,-477.647 1473.61,-487.514 1427,-478 1370.6,-466.486 1357.64,-458.276 1301,-448 1174.94,-425.129 1138.36,-446.581 1015,-412 946.998,-392.937 870,-417.623 870,-347 870,-347 870,-347 870,-289 870,-202.463 980.983,-154.134 1041.97,-134.11"/>
<polygon fill="midnightblue" stroke="midnightblue" points="1043.19,-137.393 1051.66,-131.027 1041.07,-130.722 1043.19,-137.393"/>
</g>
<!-- Node48&#45;&gt;Node23 -->
<g id="edge139" class="edge"><title>Node48&#45;&gt;Node23</title>
<path fill="none" stroke="midnightblue" d="M1552.28,-573.993C1482.52,-567.977 1371.73,-555.849 1278,-534 1213.36,-518.934 1140.41,-491.574 1101.01,-475.893"/>
<polygon fill="midnightblue" stroke="midnightblue" points="1102.09,-472.557 1091.51,-472.079 1099.48,-479.053 1102.09,-472.557"/>
</g>
<!-- Node48&#45;&gt;Node37 -->
<g id="edge134" class="edge"><title>Node48&#45;&gt;Node37</title>
<path fill="none" stroke="midnightblue" d="M1635.39,-570.806C1655.17,-558.495 1686.64,-534.483 1671,-514 1666.66,-508.313 1583.87,-487.302 1531.14,-474.396"/>
<polygon fill="midnightblue" stroke="midnightblue" points="1531.9,-470.977 1521.35,-472.008 1530.24,-477.778 1531.9,-470.977"/>
</g>
<!-- Node48&#45;&gt;Node40 -->
<g id="edge137" class="edge"><title>Node48&#45;&gt;Node40</title>
<path fill="none" stroke="midnightblue" d="M1689.67,-573.272C1705.23,-572.086 1721.68,-570.919 1737,-570 1784.07,-567.176 2552.37,-568.042 2585,-534 2629.49,-487.579 2597,-401.481 2579.83,-364.558"/>
<polygon fill="midnightblue" stroke="midnightblue" points="2582.78,-362.627 2575.28,-355.147 2576.48,-365.673 2582.78,-362.627"/>
</g>
<!-- Node48&#45;&gt;Node43 -->
<g id="edge135" class="edge"><title>Node48&#45;&gt;Node43</title>
<path fill="none" stroke="midnightblue" d="M1578.49,-570.974C1527.66,-561.376 1442.57,-545.311 1387.63,-534.938"/>
<polygon fill="midnightblue" stroke="midnightblue" points="1388.22,-531.486 1377.74,-533.07 1386.92,-538.365 1388.22,-531.486"/>
</g>
<!-- Node48&#45;&gt;Node44 -->
<g id="edge136" class="edge"><title>Node48&#45;&gt;Node44</title>
<path fill="none" stroke="midnightblue" d="M1654.54,-570.916C1693.74,-561.464 1758.73,-545.797 1801.71,-535.435"/>
<polygon fill="midnightblue" stroke="midnightblue" points="1802.7,-538.797 1811.6,-533.051 1801.06,-531.992 1802.7,-538.797"/>
</g>
<!-- Node48&#45;&gt;Node46 -->
<g id="edge140" class="edge"><title>Node48&#45;&gt;Node46</title>
<path fill="none" stroke="midnightblue" d="M1613.34,-570.562C1606.11,-562.591 1595.08,-550.434 1586.23,-540.683"/>
<polygon fill="midnightblue" stroke="midnightblue" points="1588.75,-538.255 1579.44,-533.201 1583.57,-542.959 1588.75,-538.255"/>
</g>
<!-- Node49&#45;&gt;Node2 -->
<g id="edge142" class="edge"><title>Node49&#45;&gt;Node2</title>
<path fill="none" stroke="midnightblue" d="M1307.37,-570.958C1347.53,-557.413 1432.41,-529.965 1506,-514 1687.98,-474.52 1910,-589.209 1910,-403 1910,-403 1910,-403 1910,-345 1910,-228.108 1929.53,-168.244 2032,-112 2068.03,-92.222 2113.41,-80.6173 2147.13,-74.1618"/>
<polygon fill="midnightblue" stroke="midnightblue" points="2147.99,-77.5625 2157.2,-72.3203 2146.73,-70.6768 2147.99,-77.5625"/>
</g>
<!-- Node49&#45;&gt;Node6 -->
<g id="edge148" class="edge"><title>Node49&#45;&gt;Node6</title>
<path fill="none" stroke="midnightblue" d="M1236.44,-570.974C1176.37,-560.837 1073.53,-543.484 1012.85,-533.244"/>
<polygon fill="midnightblue" stroke="midnightblue" points="1013.2,-529.754 1002.76,-531.541 1012.04,-536.656 1013.2,-529.754"/>
</g>
<!-- Node49&#45;&gt;Node7 -->
<g id="edge143" class="edge"><title>Node49&#45;&gt;Node7</title>
<path fill="none" stroke="midnightblue" d="M1223.43,-577.536C1015.88,-571.904 342.596,-548.308 279,-478 270.056,-468.112 270.618,-458.369 279,-448 327.007,-388.616 376.488,-441.312 447,-412 630.609,-335.673 636.935,-240.726 822,-168 882.955,-144.046 956.956,-132.807 1010.22,-127.555"/>
<polygon fill="midnightblue" stroke="midnightblue" points="1010.63,-131.033 1020.26,-126.613 1009.97,-124.064 1010.63,-131.033"/>
</g>
<!-- Node49&#45;&gt;Node23 -->
<g id="edge149" class="edge"><title>Node49&#45;&gt;Node23</title>
<path fill="none" stroke="midnightblue" d="M1229.4,-570.952C1198.63,-564.532 1160.56,-553.295 1131,-534 1110.06,-520.332 1092.57,-497.022 1082.2,-481.085"/>
<polygon fill="midnightblue" stroke="midnightblue" points="1084.96,-478.898 1076.7,-472.268 1079.03,-482.604 1084.96,-478.898"/>
</g>
<!-- Node49&#45;&gt;Node37 -->
<g id="edge144" class="edge"><title>Node49&#45;&gt;Node37</title>
<path fill="none" stroke="midnightblue" d="M1279.97,-570.788C1274.02,-557.359 1264.93,-530.541 1278,-514 1296.18,-490.985 1370.62,-477.423 1425.74,-470.358"/>
<polygon fill="midnightblue" stroke="midnightblue" points="1426.29,-473.816 1435.78,-469.113 1425.43,-466.869 1426.29,-473.816"/>
</g>
<!-- Node49&#45;&gt;Node40 -->
<g id="edge147" class="edge"><title>Node49&#45;&gt;Node40</title>
<path fill="none" stroke="midnightblue" d="M1344.82,-575.248C1455.42,-568.271 1696.82,-552.335 1900,-534 2131.95,-513.069 2207.64,-571.361 2421,-478 2481.57,-451.496 2535.34,-391.497 2558.68,-362.829"/>
<polygon fill="midnightblue" stroke="midnightblue" points="2561.42,-365.009 2564.92,-355.009 2555.95,-360.643 2561.42,-365.009"/>
</g>
<!-- Node49&#45;&gt;Node43 -->
<g id="edge145" class="edge"><title>Node49&#45;&gt;Node43</title>
<path fill="none" stroke="midnightblue" d="M1291.97,-570.562C1299.5,-562.591 1310.98,-550.434 1320.19,-540.683"/>
<polygon fill="midnightblue" stroke="midnightblue" points="1322.93,-542.875 1327.25,-533.201 1317.84,-538.068 1322.93,-542.875"/>
</g>
<!-- Node49&#45;&gt;Node44 -->
<g id="edge146" class="edge"><title>Node49&#45;&gt;Node44</title>
<path fill="none" stroke="midnightblue" d="M1344.57,-573.17C1453.84,-562.652 1682.42,-540.649 1788.58,-530.431"/>
<polygon fill="midnightblue" stroke="midnightblue" points="1789.15,-533.892 1798.77,-529.45 1788.48,-526.924 1789.15,-533.892"/>
</g>
<!-- Node49&#45;&gt;Node46 -->
<g id="edge150" class="edge"><title>Node49&#45;&gt;Node46</title>
<path fill="none" stroke="midnightblue" d="M1326.81,-570.974C1377.99,-561.376 1463.67,-545.311 1519,-534.938"/>
<polygon fill="midnightblue" stroke="midnightblue" points="1519.78,-538.353 1528.96,-533.07 1518.49,-531.473 1519.78,-538.353"/>
</g>
<!-- Node50&#45;&gt;Node2 -->
<g id="edge152" class="edge"><title>Node50&#45;&gt;Node2</title>
<path fill="none" stroke="midnightblue" d="M1890.54,-578.371C2083.43,-576.247 2599.03,-567.472 2668,-534 2759.29,-489.693 2799,-448.476 2799,-347 2799,-347 2799,-347 2799,-177 2799,-146.205 2799.57,-130.57 2775,-112 2732.98,-80.2396 2374.33,-70.36 2242.97,-67.7904"/>
<polygon fill="midnightblue" stroke="midnightblue" points="2242.87,-64.288 2232.8,-67.5974 2242.74,-71.2867 2242.87,-64.288"/>
</g>
<!-- Node50&#45;&gt;Node6 -->
<g id="edge159" class="edge"><title>Node50&#45;&gt;Node6</title>
<path fill="none" stroke="midnightblue" d="M1745.35,-573.391C1729.73,-572.23 1713.32,-571.044 1698,-570 1439.9,-552.41 1130.51,-534.472 1012.74,-527.758"/>
<polygon fill="midnightblue" stroke="midnightblue" points="1012.79,-524.255 1002.61,-527.181 1012.39,-531.244 1012.79,-524.255"/>
</g>
<!-- Node50&#45;&gt;Node7 -->
<g id="edge153" class="edge"><title>Node50&#45;&gt;Node7</title>
<path fill="none" stroke="midnightblue" d="M1808.22,-570.905C1791.83,-557.644 1757.42,-531.062 1725,-514 1651.07,-475.098 1628.37,-474.081 1549,-448 1493.26,-429.684 1476.11,-434.662 1422,-412 1329.1,-373.096 1301.67,-365.312 1225,-300 1167.72,-251.208 1166.83,-226.081 1119,-168 1111,-158.291 1101.92,-147.524 1094.64,-138.956"/>
<polygon fill="midnightblue" stroke="midnightblue" points="1097.22,-136.584 1088.07,-131.243 1091.89,-141.124 1097.22,-136.584"/>
</g>
<!-- Node50&#45;&gt;Node37 -->
<g id="edge154" class="edge"><title>Node50&#45;&gt;Node37</title>
<path fill="none" stroke="midnightblue" d="M1804.4,-570.947C1781.22,-557.508 1732.26,-530.371 1688,-514 1660.05,-503.661 1583.83,-485.615 1533.97,-474.265"/>
<polygon fill="midnightblue" stroke="midnightblue" points="1534.59,-470.817 1524.07,-472.019 1533.04,-477.643 1534.59,-470.817"/>
</g>
<!-- Node50&#45;&gt;Node40 -->
<g id="edge157" class="edge"><title>Node50&#45;&gt;Node40</title>
<path fill="none" stroke="midnightblue" d="M1890.7,-577.614C2084.06,-573.575 2598.04,-560.395 2623,-534 2666.36,-488.145 2649.24,-449.399 2623,-392 2617.05,-378.977 2605.26,-368.279 2594.41,-360.586"/>
<polygon fill="midnightblue" stroke="midnightblue" points="2596.31,-357.651 2586.04,-355.074 2592.47,-363.497 2596.31,-357.651"/>
</g>
<!-- Node50&#45;&gt;Node42 -->
<g id="edge158" class="edge"><title>Node50&#45;&gt;Node42</title>
<path fill="none" stroke="midnightblue" d="M1890.78,-577.287C2087.06,-572.369 2614.6,-557.062 2644,-534 2713.55,-479.432 2693.99,-391.283 2625,-336 2556.56,-281.158 2318.87,-312.024 2232,-300 2048.86,-274.651 2006.06,-249.933 1823,-224 1665.89,-201.743 1476.96,-186.978 1399.62,-181.444"/>
<polygon fill="midnightblue" stroke="midnightblue" points="1399.69,-177.94 1389.47,-180.724 1399.2,-184.922 1399.69,-177.94"/>
</g>
<!-- Node50&#45;&gt;Node43 -->
<g id="edge155" class="edge"><title>Node50&#45;&gt;Node43</title>
<path fill="none" stroke="midnightblue" d="M1746.21,-570.974C1650.28,-560.249 1482.11,-541.447 1393.47,-531.537"/>
<polygon fill="midnightblue" stroke="midnightblue" points="1393.65,-528.036 1383.33,-530.403 1392.88,-534.993 1393.65,-528.036"/>
</g>
<!-- Node50&#45;&gt;Node44 -->
<g id="edge156" class="edge"><title>Node50&#45;&gt;Node44</title>
<path fill="none" stroke="midnightblue" d="M1822.22,-570.562C1826.01,-562.989 1831.68,-551.639 1836.42,-542.162"/>
<polygon fill="midnightblue" stroke="midnightblue" points="1839.56,-543.711 1840.9,-533.201 1833.3,-540.58 1839.56,-543.711"/>
</g>
</g>
</svg>
        <g id="navigator" transform="translate(0 0)" fill="#404254">
                <rect fill="#f2f5e9" fill-opacity="0.5" stroke="#606060" stroke-width=".5" x="0" y="0" width="60" height="60"/>
                <use id="zoomplus" xlink:href="#zoomPlus" x="17" y="9" onmousedown="handleZoom(evt,'in')"/>
                <use id="zoomminus" xlink:href="#zoomMin" x="42" y="9" onmousedown="handleZoom(evt,'out')"/>
                <use id="reset" xlink:href="#resetDef" x="30" y="36" onmousedown="handleReset()"/>
                <g id="arrowUp" xlink:href="#dirArrow" transform="translate(30 24)" onmousedown="handlePan(0,-1)">
                  <use xlink:href="#rim" fill="#404040">
                        <set attributeName="fill" to="#808080" begin="arrowUp.mouseover" end="arrowUp.mouseout"/>
                  </use>
                  <path fill="none" stroke="white" stroke-width="1.5" d="M0,-3.0v7 M-2.5,-0.5L0,-3.0L2.5,-0.5"/>
                </g>
                <g id="arrowRight" xlink:href="#dirArrow" transform="rotate(90) translate(36 -43)" onmousedown="handlePan(1,0)">
                  <use xlink:href="#rim" fill="#404040">
                        <set attributeName="fill" to="#808080" begin="arrowRight.mouseover" end="arrowRight.mouseout"/>
                  </use>
                  <path fill="none" stroke="white" stroke-width="1.5" d="M0,-3.0v7 M-2.5,-0.5L0,-3.0L2.5,-0.5"/>
                </g>
                <g id="arrowDown" xlink:href="#dirArrow" transform="rotate(180) translate(-30 -48)" onmousedown="handlePan(0,1)">
                  <use xlink:href="#rim" fill="#404040">
                        <set attributeName="fill" to="#808080" begin="arrowDown.mouseover" end="arrowDown.mouseout"/>
                  </use>
                  <path fill="none" stroke="white" stroke-width="1.5" d="M0,-3.0v7 M-2.5,-0.5L0,-3.0L2.5,-0.5"/>
                </g>
                <g id="arrowLeft" xlink:href="#dirArrow" transform="rotate(270) translate(-36 17)" onmousedown="handlePan(-1,0)">
                  <use xlink:href="#rim" fill="#404040">
                        <set attributeName="fill" to="#808080" begin="arrowLeft.mouseover" end="arrowLeft.mouseout"/>
                  </use>
                  <path fill="none" stroke="white" stroke-width="1.5" d="M0,-3.0v7 M-2.5,-0.5L0,-3.0L2.5,-0.5"/>
                </g>
        </g>
        <svg viewBox="0 0 15 15" width="100%" height="30px" preserveAspectRatio="xMaxYMin meet">
         <g id="arrow_out" transform="scale(0.3 0.3)">
          <a xlink:href="TraverseHelper_8h__incl_org.svg" target="_base">
           <rect id="button" ry="5" rx="5" y="6" x="6" height="38" width="38"
                fill="#f2f5e9" fill-opacity="0.5" stroke="#606060" stroke-width="1.0"/>
           <path id="arrow"
             d="M 11.500037,31.436501 C 11.940474,20.09759 22.043105,11.32322 32.158766,21.979434 L 37.068811,17.246167 C 37.068811,17.246167 37.088388,32 37.088388,32 L 22.160133,31.978069 C 22.160133,31.978069 26.997745,27.140456 26.997745,27.140456 C 18.528582,18.264221 13.291696,25.230495 11.500037,31.436501 z"
             style="fill:#404040;"/>
          </a>
         </g>
        </svg>
</svg>
