<?xml version="1.0" encoding="UTF-8" standalone="no"?>
<!DOCTYPE svg PUBLIC "-//W3C//DTD SVG 1.1//EN"
 "http://www.w3.org/Graphics/SVG/1.1/DTD/svg11.dtd">
<!-- Generated by graphviz version 2.36.0 (20140111.2315)
 -->
<!-- Title: types.h Pages: 1 -->
<!--zoomable 476 -->
<svg id="main" version="1.1" xmlns="http://www.w3.org/2000/svg" xmlns:xlink="http://www.w3.org/1999/xlink" xml:space="preserve" onload="init(evt)">
<style type="text/css"><![CDATA[
.edge:hover path { stroke: red; }
.edge:hover polygon { stroke: red; fill: red; }
]]></style>
<script type="text/javascript"><![CDATA[
var edges = document.getElementsByTagName('g');
if (edges && edges.length) {
  for (var i=0;i<edges.length;i++) {
    if (edges[i].id.substr(0,4)=='edge') {
      edges[i].setAttribute('class','edge');
    }
  }
}
]]></script>
        <defs>
                <circle id="rim" cx="0" cy="0" r="7"/>
                <circle id="rim2" cx="0" cy="0" r="3.5"/>
                <g id="zoomPlus">
                        <use xlink:href="#rim" fill="#404040">
                                <set attributeName="fill" to="#808080" begin="zoomplus.mouseover" end="zoomplus.mouseout"/>
                        </use>
                        <path d="M-4,0h8M0,-4v8" fill="none" stroke="white" stroke-width="1.5" pointer-events="none"/>
                </g>
                <g id="zoomMin">
                        <use xlink:href="#rim" fill="#404040">
                                <set attributeName="fill" to="#808080" begin="zoomminus.mouseover" end="zoomminus.mouseout"/>
                        </use>
                        <path d="M-4,0h8" fill="none" stroke="white" stroke-width="1.5" pointer-events="none"/>
                </g>
                <g id="dirArrow">
                        <path fill="none" stroke="white" stroke-width="1.5" d="M0,-3.0v7 M-2.5,-0.5L0,-3.0L2.5,-0.5"/>
                </g>
               <g id="resetDef">
                       <use xlink:href="#rim2" fill="#404040">
                               <set attributeName="fill" to="#808080" begin="reset.mouseover" end="reset.mouseout"/>
                       </use>
               </g>
        </defs>

<script type="text/javascript">
var viewWidth = 1571;
var viewHeight = 476;
var sectionId = 'dynsection-1';
</script>
<script xlink:href="svgpan.js"/>
<svg id="graph" class="graph">
<g id="viewport">
<title>types.h</title>
<!-- Node1 -->
<g id="node1" class="node"><title>Node1</title>
<polygon fill="#bfbfbf" stroke="black" points="997.879,-449 997.879,-467 1046.12,-467 1046.12,-449 997.879,-449"/>
<text text-anchor="middle" x="1022" y="-455" font-family="Helvetica,sans-Serif" font-size="10.00">types.h</text>
</g>
<!-- Node2 -->
<g id="node2" class="node"><title>Node2</title>
<g id="a_node2"><a xlink:href="traits_8h.html" target="_top" xlink:title="Handle read/write of Model data from/to files. ">
<polygon fill="none" stroke="black" points="963.995,-393 963.995,-411 1010,-411 1010,-393 963.995,-393"/>
<text text-anchor="middle" x="987" y="-399" font-family="Helvetica,sans-Serif" font-size="10.00">traits.h</text>
</a>
</g>
</g>
<!-- Node1&#45;&gt;Node2 -->
<g id="edge1" class="edge"><title>Node1&#45;&gt;Node2</title>
<path fill="none" stroke="midnightblue" d="M1011.07,-440.138C1004.83,-430.503 997.275,-418.853 992.316,-411.201"/>
<polygon fill="midnightblue" stroke="midnightblue" points="1008.16,-442.075 1016.53,-448.562 1014.03,-438.267 1008.16,-442.075"/>
</g>
<!-- Node4 -->
<g id="node4" class="node"><title>Node4</title>
<g id="a_node4"><a xlink:href="NodeConstHandle_8h.html" target="_top" xlink:title="Declaration of NodeConstHandlke. ">
<polygon fill="none" stroke="black" points="962.971,-281 962.971,-299 1069.03,-299 1069.03,-281 962.971,-281"/>
<text text-anchor="middle" x="1016" y="-287" font-family="Helvetica,sans-Serif" font-size="10.00">NodeConstHandle.h</text>
</a>
</g>
</g>
<!-- Node1&#45;&gt;Node4 -->
<g id="edge78" class="edge"><title>Node1&#45;&gt;Node4</title>
<path fill="none" stroke="midnightblue" d="M1021.33,-438.586C1020.04,-402.744 1017.22,-324.883 1016.3,-299.317"/>
<polygon fill="midnightblue" stroke="midnightblue" points="1017.85,-439.126 1021.71,-448.993 1024.85,-438.874 1017.85,-439.126"/>
</g>
<!-- Node19 -->
<g id="node19" class="node"><title>Node19</title>
<g id="a_node19"><a xlink:href="NodeHandle_8h.html" target="_top" xlink:title="Declaration of NodeHandle. ">
<polygon fill="none" stroke="black" points="547.032,-225 547.032,-243 626.968,-243 626.968,-225 547.032,-225"/>
<text text-anchor="middle" x="587" y="-231" font-family="Helvetica,sans-Serif" font-size="10.00">NodeHandle.h</text>
</a>
</g>
</g>
<!-- Node1&#45;&gt;Node19 -->
<g id="edge79" class="edge"><title>Node1&#45;&gt;Node19</title>
<path fill="none" stroke="midnightblue" d="M987.458,-455.155C942.517,-451.62 862.483,-441.394 801,-412 707.043,-367.081 619.289,-271.954 594.16,-243.323"/>
<polygon fill="midnightblue" stroke="midnightblue" points="987.337,-458.655 997.562,-455.882 987.839,-451.673 987.337,-458.655"/>
</g>
<!-- Node20 -->
<g id="node20" class="node"><title>Node20</title>
<g id="a_node20"><a xlink:href="FileHandle_8h.html" target="_top" xlink:title="Declaration for RMF::FileHandle. ">
<polygon fill="none" stroke="black" points="614.929,-169 614.929,-187 687.071,-187 687.071,-169 614.929,-169"/>
<text text-anchor="middle" x="651" y="-175" font-family="Helvetica,sans-Serif" font-size="10.00">FileHandle.h</text>
</a>
</g>
</g>
<!-- Node1&#45;&gt;Node20 -->
<g id="edge81" class="edge"><title>Node1&#45;&gt;Node20</title>
<path fill="none" stroke="midnightblue" d="M987.899,-454.263C929.129,-447.484 815,-424.359 815,-347 815,-347 815,-347 815,-289 815,-227.975 735.713,-198.632 687.397,-186.417"/>
<polygon fill="midnightblue" stroke="midnightblue" points="987.537,-457.745 997.849,-455.316 988.273,-450.783 987.537,-457.745"/>
</g>
<!-- Node24 -->
<g id="node24" class="node"><title>Node24</title>
<g id="a_node24"><a xlink:href="FileConstHandle_8h.html" target="_top" xlink:title="Handle read/write of Model data from/to files. ">
<polygon fill="none" stroke="black" points="1102.87,-225 1102.87,-243 1201.13,-243 1201.13,-225 1102.87,-225"/>
<text text-anchor="middle" x="1152" y="-231" font-family="Helvetica,sans-Serif" font-size="10.00">FileConstHandle.h</text>
</a>
</g>
</g>
<!-- Node1&#45;&gt;Node24 -->
<g id="edge80" class="edge"><title>Node1&#45;&gt;Node24</title>
<path fill="none" stroke="midnightblue" d="M1031.93,-440.042C1058.15,-395.274 1128.49,-275.15 1147.31,-243.005"/>
<polygon fill="midnightblue" stroke="midnightblue" points="1028.81,-438.438 1026.78,-448.836 1034.85,-441.975 1028.81,-438.438"/>
</g>
<!-- Node31 -->
<g id="node31" class="node"><title>Node31</title>
<g id="a_node31"><a xlink:href="names_8h.html" target="_top" xlink:title="Functions to check if names are valid. ">
<polygon fill="none" stroke="black" points="1124.82,-393 1124.82,-411 1179.18,-411 1179.18,-393 1124.82,-393"/>
<text text-anchor="middle" x="1152" y="-399" font-family="Helvetica,sans-Serif" font-size="10.00">names.h</text>
</a>
</g>
</g>
<!-- Node1&#45;&gt;Node31 -->
<g id="edge77" class="edge"><title>Node1&#45;&gt;Node31</title>
<path fill="none" stroke="midnightblue" d="M1050.74,-445.063C1075.54,-434.758 1110.71,-420.15 1132.4,-411.14"/>
<polygon fill="midnightblue" stroke="midnightblue" points="1049.35,-441.847 1041.46,-448.916 1052.04,-448.312 1049.35,-441.847"/>
</g>
<!-- Node3 -->
<g id="node3" class="node"><title>Node3</title>
<g id="a_node3"><a xlink:href="keys_8h.html" target="_top" xlink:title="Declarations of the various key types. ">
<polygon fill="none" stroke="black" points="946.549,-337 946.549,-355 991.451,-355 991.451,-337 946.549,-337"/>
<text text-anchor="middle" x="969" y="-343" font-family="Helvetica,sans-Serif" font-size="10.00">keys.h</text>
</a>
</g>
</g>
<!-- Node2&#45;&gt;Node3 -->
<g id="edge2" class="edge"><title>Node2&#45;&gt;Node3</title>
<path fill="none" stroke="midnightblue" d="M980.979,-382.937C977.85,-373.549 974.179,-362.538 971.734,-355.201"/>
<polygon fill="midnightblue" stroke="midnightblue" points="977.705,-384.182 984.188,-392.562 984.346,-381.969 977.705,-384.182"/>
</g>
<!-- Node2&#45;&gt;Node4 -->
<g id="edge76" class="edge"><title>Node2&#45;&gt;Node4</title>
<path fill="none" stroke="midnightblue" d="M992.35,-383.097C994.764,-374.864 997.605,-364.958 1000,-356 1005.46,-335.567 1011.25,-311.334 1014.13,-299.032"/>
<polygon fill="midnightblue" stroke="midnightblue" points="988.979,-382.151 989.495,-392.734 995.691,-384.139 988.979,-382.151"/>
</g>
<!-- Node30 -->
<g id="node30" class="node"><title>Node30</title>
<g id="a_node30"><a xlink:href="Nullable_8h.html" target="_top" xlink:title="A helper class for allowing nice return of possibly null values. ">
<polygon fill="none" stroke="black" points="867.764,-337 867.764,-355 928.236,-355 928.236,-337 867.764,-337"/>
<text text-anchor="middle" x="898" y="-343" font-family="Helvetica,sans-Serif" font-size="10.00">Nullable.h</text>
</a>
</g>
</g>
<!-- Node2&#45;&gt;Node30 -->
<g id="edge72" class="edge"><title>Node2&#45;&gt;Node30</title>
<path fill="none" stroke="midnightblue" d="M964.827,-387.546C948.022,-377.35 925.484,-363.676 911.353,-355.102"/>
<polygon fill="midnightblue" stroke="midnightblue" points="963.118,-390.604 973.483,-392.799 966.749,-384.619 963.118,-390.604"/>
</g>
<!-- Node3&#45;&gt;Node4 -->
<g id="edge3" class="edge"><title>Node3&#45;&gt;Node4</title>
<path fill="none" stroke="midnightblue" d="M983.159,-328.732C991.642,-318.986 1002.06,-307.011 1008.86,-299.201"/>
<polygon fill="midnightblue" stroke="midnightblue" points="980.269,-326.722 976.344,-336.562 985.549,-331.317 980.269,-326.722"/>
</g>
<!-- Node5 -->
<g id="node5" class="node"><title>Node5</title>
<g id="a_node5"><a xlink:href="Decorator_8h.html" target="_top" xlink:title="Mostly empty base classes for decorators and factories. ">
<polygon fill="none" stroke="black" points="452.15,-169 452.15,-187 519.85,-187 519.85,-169 452.15,-169"/>
<text text-anchor="middle" x="486" y="-175" font-family="Helvetica,sans-Serif" font-size="10.00">Decorator.h</text>
</a>
</g>
</g>
<!-- Node4&#45;&gt;Node5 -->
<g id="edge4" class="edge"><title>Node4&#45;&gt;Node5</title>
<path fill="none" stroke="midnightblue" d="M967.214,-278.875C861.067,-256.844 611.376,-205.022 520.146,-186.087"/>
<polygon fill="midnightblue" stroke="midnightblue" points="966.525,-282.306 977.028,-280.911 967.948,-275.452 966.525,-282.306"/>
</g>
<!-- Node10 -->
<g id="node10" class="node"><title>Node10</title>
<g id="a_node10"><a xlink:href="benchmark__rmf_8cpp_source.html" target="_top" xlink:title="benchmark_rmf.cpp">
<polygon fill="none" stroke="black" points="889.815,-1 889.815,-19 994.185,-19 994.185,-1 889.815,-1"/>
<text text-anchor="middle" x="942" y="-7" font-family="Helvetica,sans-Serif" font-size="10.00">benchmark_rmf.cpp</text>
</a>
</g>
</g>
<!-- Node4&#45;&gt;Node10 -->
<g id="edge71" class="edge"><title>Node4&#45;&gt;Node10</title>
<path fill="none" stroke="midnightblue" d="M1021.58,-271.083C1027.8,-249.475 1037,-211.947 1037,-179 1037,-179 1037,-179 1037,-121 1037,-72.5519 983.562,-34.9009 956.844,-19.1035"/>
<polygon fill="midnightblue" stroke="midnightblue" points="1018.18,-270.239 1018.66,-280.823 1024.88,-272.247 1018.18,-270.239"/>
</g>
<!-- Node4&#45;&gt;Node19 -->
<g id="edge32" class="edge"><title>Node4&#45;&gt;Node19</title>
<path fill="none" stroke="midnightblue" d="M952.944,-281.063C863.417,-269.794 702.039,-249.48 627.169,-240.056"/>
<polygon fill="midnightblue" stroke="midnightblue" points="952.607,-284.548 962.966,-282.324 953.481,-277.603 952.607,-284.548"/>
</g>
<!-- Node21 -->
<g id="node21" class="node"><title>Node21</title>
<g id="a_node21"><a xlink:href="validate_8h.html" target="_top" xlink:title="Support for validating the data in a file. ">
<polygon fill="none" stroke="black" points="1064.6,-113 1064.6,-131 1123.4,-131 1123.4,-113 1064.6,-113"/>
<text text-anchor="middle" x="1094" y="-119" font-family="Helvetica,sans-Serif" font-size="10.00">validate.h</text>
</a>
</g>
</g>
<!-- Node4&#45;&gt;Node21 -->
<g id="edge70" class="edge"><title>Node4&#45;&gt;Node21</title>
<path fill="none" stroke="midnightblue" d="M1030.27,-273.261C1037.21,-264.996 1045.28,-254.436 1051,-244 1072.85,-204.115 1087.18,-150.961 1092.1,-131.012"/>
<polygon fill="midnightblue" stroke="midnightblue" points="1027.5,-271.102 1023.58,-280.942 1032.78,-275.7 1027.5,-271.102"/>
</g>
<!-- Node4&#45;&gt;Node24 -->
<g id="edge61" class="edge"><title>Node4&#45;&gt;Node24</title>
<path fill="none" stroke="midnightblue" d="M1045.72,-277.199C1071.69,-266.888 1108.71,-252.19 1131.5,-243.14"/>
<polygon fill="midnightblue" stroke="midnightblue" points="1044.36,-273.972 1036.36,-280.916 1046.95,-280.478 1044.36,-273.972"/>
</g>
<!-- Node29 -->
<g id="node29" class="node"><title>Node29</title>
<g id="a_node29"><a xlink:href="utility_8h.html" target="_top" xlink:title="Helper functions for manipulating RMF files. ">
<polygon fill="none" stroke="black" points="962.807,-225 962.807,-243 1009.19,-243 1009.19,-225 962.807,-225"/>
<text text-anchor="middle" x="986" y="-231" font-family="Helvetica,sans-Serif" font-size="10.00">utility.h</text>
</a>
</g>
</g>
<!-- Node4&#45;&gt;Node29 -->
<g id="edge69" class="edge"><title>Node4&#45;&gt;Node29</title>
<path fill="none" stroke="midnightblue" d="M1006.3,-271.54C1001.01,-262.025 994.72,-250.695 990.556,-243.201"/>
<polygon fill="midnightblue" stroke="midnightblue" points="1003.4,-273.521 1011.31,-280.562 1009.52,-270.121 1003.4,-273.521"/>
</g>
<!-- Node6 -->
<g id="node6" class="node"><title>Node6</title>
<g id="a_node6"><a xlink:href="alias_8h.html" target="_top" xlink:title="Helper functions for manipulating RMF files. ">
<polygon fill="none" stroke="black" points="698.547,-113 698.547,-131 743.453,-131 743.453,-113 698.547,-113"/>
<text text-anchor="middle" x="721" y="-119" font-family="Helvetica,sans-Serif" font-size="10.00">alias.h</text>
</a>
</g>
</g>
<!-- Node5&#45;&gt;Node6 -->
<g id="edge5" class="edge"><title>Node5&#45;&gt;Node6</title>
<path fill="none" stroke="midnightblue" d="M529.886,-168.013C571.115,-159.395 634.455,-145.705 689,-132 692.022,-131.241 695.194,-130.401 698.316,-129.549"/>
<polygon fill="midnightblue" stroke="midnightblue" points="528.977,-164.627 519.9,-170.092 530.403,-171.48 528.977,-164.627"/>
</g>
<!-- Node8 -->
<g id="node8" class="node"><title>Node8</title>
<g id="a_node8"><a xlink:href="physics_8h.html" target="_top" xlink:title="Helper functions for manipulating RMF files. ">
<polygon fill="none" stroke="black" points="788.158,-57 788.158,-75 845.842,-75 845.842,-57 788.158,-57"/>
<text text-anchor="middle" x="817" y="-63" font-family="Helvetica,sans-Serif" font-size="10.00">physics.h</text>
</a>
</g>
</g>
<!-- Node5&#45;&gt;Node8 -->
<g id="edge15" class="edge"><title>Node5&#45;&gt;Node8</title>
<path fill="none" stroke="midnightblue" d="M508.751,-163.832C524.11,-154.91 544.82,-142.821 563,-132 577.737,-123.229 580.011,-118.203 596,-112 672.874,-82.177 697.373,-93.2727 778,-76 781.261,-75.3013 784.671,-74.5482 788.058,-73.7857"/>
<polygon fill="midnightblue" stroke="midnightblue" points="506.843,-160.892 499.95,-168.937 510.356,-166.947 506.843,-160.892"/>
</g>
<!-- Node11 -->
<g id="node11" class="node"><title>Node11</title>
<g id="a_node11"><a xlink:href="external_8h.html" target="_top" xlink:title="Helper functions for manipulating RMF files. ">
<polygon fill="none" stroke="black" points="47.042,-113 47.042,-131 106.958,-131 106.958,-113 47.042,-113"/>
<text text-anchor="middle" x="77" y="-119" font-family="Helvetica,sans-Serif" font-size="10.00">external.h</text>
</a>
</g>
</g>
<!-- Node5&#45;&gt;Node11 -->
<g id="edge11" class="edge"><title>Node5&#45;&gt;Node11</title>
<path fill="none" stroke="midnightblue" d="M441.738,-173.144C372.101,-166.734 232.848,-152.529 116,-132 113.126,-131.495 110.145,-130.913 107.169,-130.294"/>
<polygon fill="midnightblue" stroke="midnightblue" points="441.623,-176.648 451.899,-174.069 442.258,-169.676 441.623,-176.648"/>
</g>
<!-- Node12 -->
<g id="node12" class="node"><title>Node12</title>
<g id="a_node12"><a xlink:href="feature_8h.html" target="_top" xlink:title="Helper functions for manipulating RMF files. ">
<polygon fill="none" stroke="black" points="295.264,-113 295.264,-131 350.736,-131 350.736,-113 295.264,-113"/>
<text text-anchor="middle" x="323" y="-119" font-family="Helvetica,sans-Serif" font-size="10.00">feature.h</text>
</a>
</g>
</g>
<!-- Node5&#45;&gt;Node12 -->
<g id="edge13" class="edge"><title>Node5&#45;&gt;Node12</title>
<path fill="none" stroke="midnightblue" d="M451.983,-165.731C420.695,-155.365 375.068,-140.25 347.303,-131.051"/>
<polygon fill="midnightblue" stroke="midnightblue" points="451.004,-169.093 461.597,-168.916 453.205,-162.448 451.004,-169.093"/>
</g>
<!-- Node13 -->
<g id="node13" class="node"><title>Node13</title>
<g id="a_node13"><a xlink:href="publication_8h.html" target="_top" xlink:title="Helper functions for manipulating RMF files. ">
<polygon fill="none" stroke="black" points="368.924,-113 368.924,-131 441.076,-131 441.076,-113 368.924,-113"/>
<text text-anchor="middle" x="405" y="-119" font-family="Helvetica,sans-Serif" font-size="10.00">publication.h</text>
</a>
</g>
</g>
<!-- Node5&#45;&gt;Node13 -->
<g id="edge16" class="edge"><title>Node5&#45;&gt;Node13</title>
<path fill="none" stroke="midnightblue" d="M464.965,-162.976C449.769,-152.846 429.776,-139.517 417.153,-131.102"/>
<polygon fill="midnightblue" stroke="midnightblue" points="463.436,-166.164 473.698,-168.799 467.319,-160.339 463.436,-166.164"/>
</g>
<!-- Node14 -->
<g id="node14" class="node"><title>Node14</title>
<g id="a_node14"><a xlink:href="sequence_8h.html" target="_top" xlink:title="Helper functions for manipulating RMF files. ">
<polygon fill="none" stroke="black" points="702.146,-57 702.146,-75 769.854,-75 769.854,-57 702.146,-57"/>
<text text-anchor="middle" x="736" y="-63" font-family="Helvetica,sans-Serif" font-size="10.00">sequence.h</text>
</a>
</g>
</g>
<!-- Node5&#45;&gt;Node14 -->
<g id="edge18" class="edge"><title>Node5&#45;&gt;Node14</title>
<path fill="none" stroke="midnightblue" d="M500.25,-161.48C514.69,-146.663 538.357,-124.76 563,-112 607.921,-88.7401 665.774,-76.8567 701.879,-71.2924"/>
<polygon fill="midnightblue" stroke="midnightblue" points="497.574,-159.215 493.23,-168.879 502.652,-164.033 497.574,-159.215"/>
</g>
<!-- Node15 -->
<g id="node15" class="node"><title>Node15</title>
<g id="a_node15"><a xlink:href="shape_8h.html" target="_top" xlink:title="Helper functions for manipulating RMF files. ">
<polygon fill="none" stroke="black" points="459.207,-113 459.207,-131 510.793,-131 510.793,-113 459.207,-113"/>
<text text-anchor="middle" x="485" y="-119" font-family="Helvetica,sans-Serif" font-size="10.00">shape.h</text>
</a>
</g>
</g>
<!-- Node5&#45;&gt;Node15 -->
<g id="edge22" class="edge"><title>Node5&#45;&gt;Node15</title>
<path fill="none" stroke="midnightblue" d="M485.654,-158.329C485.483,-149.077 485.285,-138.38 485.152,-131.201"/>
<polygon fill="midnightblue" stroke="midnightblue" points="482.159,-158.629 485.844,-168.562 489.158,-158.499 482.159,-158.629"/>
</g>
<!-- Node16 -->
<g id="node16" class="node"><title>Node16</title>
<g id="a_node16"><a xlink:href="bond_8h.html" target="_top" xlink:title="Helper functions for manipulating RMF files. ">
<polygon fill="none" stroke="black" points="124.707,-113 124.707,-131 171.293,-131 171.293,-113 124.707,-113"/>
<text text-anchor="middle" x="148" y="-119" font-family="Helvetica,sans-Serif" font-size="10.00">bond.h</text>
</a>
</g>
</g>
<!-- Node5&#45;&gt;Node16 -->
<g id="edge25" class="edge"><title>Node5&#45;&gt;Node16</title>
<path fill="none" stroke="midnightblue" d="M441.561,-172.275C381.731,-165.503 272.147,-151.649 180,-132 177.178,-131.398 174.237,-130.688 171.333,-129.935"/>
<polygon fill="midnightblue" stroke="midnightblue" points="441.458,-175.786 451.785,-173.418 442.236,-168.829 441.458,-175.786"/>
</g>
<!-- Node17 -->
<g id="node17" class="node"><title>Node17</title>
<g id="a_node17"><a xlink:href="representation_8h.html" target="_top" xlink:title="Helper functions for manipulating RMF files. ">
<polygon fill="none" stroke="black" points="188.865,-113 188.865,-131 277.135,-131 277.135,-113 188.865,-113"/>
<text text-anchor="middle" x="233" y="-119" font-family="Helvetica,sans-Serif" font-size="10.00">representation.h</text>
</a>
</g>
</g>
<!-- Node5&#45;&gt;Node17 -->
<g id="edge27" class="edge"><title>Node5&#45;&gt;Node17</title>
<path fill="none" stroke="midnightblue" d="M442.273,-167.667C393.871,-157.336 316.651,-140.854 270.779,-131.064"/>
<polygon fill="midnightblue" stroke="midnightblue" points="441.631,-171.109 452.142,-169.773 443.093,-164.263 441.631,-171.109"/>
</g>
<!-- Node18 -->
<g id="node18" class="node"><title>Node18</title>
<g id="a_node18"><a xlink:href="alternatives_8h.html" target="_top" xlink:title="Helper functions for manipulating RMF files. ">
<polygon fill="none" stroke="black" points="605.261,-113 605.261,-131 680.739,-131 680.739,-113 605.261,-113"/>
<text text-anchor="middle" x="643" y="-119" font-family="Helvetica,sans-Serif" font-size="10.00">alternatives.h</text>
</a>
</g>
</g>
<!-- Node5&#45;&gt;Node18 -->
<g id="edge29" class="edge"><title>Node5&#45;&gt;Node18</title>
<path fill="none" stroke="midnightblue" d="M519.157,-165.596C549.282,-155.234 592.964,-140.21 619.592,-131.051"/>
<polygon fill="midnightblue" stroke="midnightblue" points="517.822,-162.353 509.504,-168.916 520.099,-168.973 517.822,-162.353"/>
</g>
<!-- Node7 -->
<g id="node7" class="node"><title>Node7</title>
<g id="a_node7"><a xlink:href="decorators_8h.html" target="_top" xlink:title="Import all the decorators headers. ">
<polygon fill="none" stroke="black" points="369.207,-1 369.207,-19 440.793,-19 440.793,-1 369.207,-1"/>
<text text-anchor="middle" x="405" y="-7" font-family="Helvetica,sans-Serif" font-size="10.00">decorators.h</text>
</a>
</g>
</g>
<!-- Node6&#45;&gt;Node7 -->
<g id="edge6" class="edge"><title>Node6&#45;&gt;Node7</title>
<path fill="none" stroke="midnightblue" d="M689.193,-109.539C652.729,-96.4382 591.139,-74.4258 538,-56 499.999,-42.8233 455.733,-27.9383 429.064,-19.0209"/>
<polygon fill="midnightblue" stroke="midnightblue" points="688.189,-112.897 698.784,-112.988 690.558,-106.31 688.189,-112.897"/>
</g>
<!-- Node6&#45;&gt;Node8 -->
<g id="edge7" class="edge"><title>Node6&#45;&gt;Node8</title>
<path fill="none" stroke="midnightblue" d="M744.416,-107.829C762.593,-97.6041 787.213,-83.7552 802.597,-75.1017"/>
<polygon fill="midnightblue" stroke="midnightblue" points="742.58,-104.845 735.58,-112.799 746.012,-110.946 742.58,-104.845"/>
</g>
<!-- Node8&#45;&gt;Node7 -->
<g id="edge8" class="edge"><title>Node8&#45;&gt;Node7</title>
<path fill="none" stroke="midnightblue" d="M778.308,-56.0543C778.205,-56.0361 778.103,-56.018 778,-56 655.126,-34.4735 507.666,-19.9955 440.933,-14.0488"/>
<polygon fill="midnightblue" stroke="midnightblue" points="777.62,-59.4858 788.106,-57.9705 778.964,-52.616 777.62,-59.4858"/>
</g>
<!-- Node9 -->
<g id="node9" class="node"><title>Node9</title>
<g id="a_node9"><a xlink:href="TraverseHelper_8h.html" target="_top" xlink:title="A helper function for managing data when traversing an RMF. ">
<polygon fill="none" stroke="black" points="689.831,-1 689.831,-19 782.169,-19 782.169,-1 689.831,-1"/>
<text text-anchor="middle" x="736" y="-7" font-family="Helvetica,sans-Serif" font-size="10.00">TraverseHelper.h</text>
</a>
</g>
</g>
<!-- Node8&#45;&gt;Node9 -->
<g id="edge9" class="edge"><title>Node8&#45;&gt;Node9</title>
<path fill="none" stroke="midnightblue" d="M795.965,-50.9765C780.769,-40.8457 760.776,-27.5171 748.153,-19.1017"/>
<polygon fill="midnightblue" stroke="midnightblue" points="794.436,-54.1637 804.698,-56.7986 798.319,-48.3393 794.436,-54.1637"/>
</g>
<!-- Node8&#45;&gt;Node10 -->
<g id="edge10" class="edge"><title>Node8&#45;&gt;Node10</title>
<path fill="none" stroke="midnightblue" d="M844.95,-52.9258C868.784,-42.6293 902.394,-28.1098 923.158,-19.1396"/>
<polygon fill="midnightblue" stroke="midnightblue" points="843.506,-49.7368 835.714,-56.9157 846.282,-56.1628 843.506,-49.7368"/>
</g>
<!-- Node11&#45;&gt;Node7 -->
<g id="edge12" class="edge"><title>Node11&#45;&gt;Node7</title>
<path fill="none" stroke="midnightblue" d="M106.187,-109.248C140.383,-95.6642 198.874,-72.9983 250,-56 292.942,-41.7226 343.391,-27.55 374.785,-19.0322"/>
<polygon fill="midnightblue" stroke="midnightblue" points="104.794,-106.036 96.8016,-112.992 107.387,-112.538 104.794,-106.036"/>
</g>
<!-- Node12&#45;&gt;Node7 -->
<g id="edge14" class="edge"><title>Node12&#45;&gt;Node7</title>
<path fill="none" stroke="midnightblue" d="M335.213,-104.617C353.058,-80.6776 385.59,-37.0381 398.988,-19.0649"/>
<polygon fill="midnightblue" stroke="midnightblue" points="332.334,-102.623 329.163,-112.732 337.946,-106.806 332.334,-102.623"/>
</g>
<!-- Node13&#45;&gt;Node7 -->
<g id="edge17" class="edge"><title>Node13&#45;&gt;Node7</title>
<path fill="none" stroke="midnightblue" d="M405,-102.678C405,-78.3886 405,-36.563 405,-19.0649"/>
<polygon fill="midnightblue" stroke="midnightblue" points="401.5,-102.732 405,-112.732 408.5,-102.732 401.5,-102.732"/>
</g>
<!-- Node14&#45;&gt;Node7 -->
<g id="edge19" class="edge"><title>Node14&#45;&gt;Node7</title>
<path fill="none" stroke="midnightblue" d="M691.855,-56.6747C690.556,-56.4452 689.269,-56.2198 688,-56 599.52,-40.6734 495.122,-24.5886 441.238,-16.4342"/>
<polygon fill="midnightblue" stroke="midnightblue" points="691.47,-60.1617 701.933,-58.492 692.712,-53.2728 691.47,-60.1617"/>
</g>
<!-- Node14&#45;&gt;Node9 -->
<g id="edge20" class="edge"><title>Node14&#45;&gt;Node9</title>
<path fill="none" stroke="midnightblue" d="M736,-46.3288C736,-37.0774 736,-26.3798 736,-19.2014"/>
<polygon fill="midnightblue" stroke="midnightblue" points="732.5,-46.5625 736,-56.5625 739.5,-46.5625 732.5,-46.5625"/>
</g>
<!-- Node14&#45;&gt;Node10 -->
<g id="edge21" class="edge"><title>Node14&#45;&gt;Node10</title>
<path fill="none" stroke="midnightblue" d="M776.701,-54.3309C816.278,-43.9562 875.512,-28.4288 911.286,-19.0513"/>
<polygon fill="midnightblue" stroke="midnightblue" points="775.626,-50.9943 766.84,-56.9157 777.401,-57.7655 775.626,-50.9943"/>
</g>
<!-- Node15&#45;&gt;Node7 -->
<g id="edge23" class="edge"><title>Node15&#45;&gt;Node7</title>
<path fill="none" stroke="midnightblue" d="M473.085,-104.617C455.675,-80.6776 423.937,-37.0381 410.865,-19.0649"/>
<polygon fill="midnightblue" stroke="midnightblue" points="470.275,-106.703 478.987,-112.732 475.936,-102.586 470.275,-106.703"/>
</g>
<!-- Node15&#45;&gt;Node9 -->
<g id="edge24" class="edge"><title>Node15&#45;&gt;Node9</title>
<path fill="none" stroke="midnightblue" d="M512.677,-108.871C564.276,-86.2574 673.882,-38.2231 717.516,-19.1004"/>
<polygon fill="midnightblue" stroke="midnightblue" points="511.211,-105.692 503.457,-112.911 514.021,-112.103 511.211,-105.692"/>
</g>
<!-- Node16&#45;&gt;Node7 -->
<g id="edge26" class="edge"><title>Node16&#45;&gt;Node7</title>
<path fill="none" stroke="midnightblue" d="M176.339,-108.871C229.171,-86.2574 341.397,-38.2231 386.074,-19.1004"/>
<polygon fill="midnightblue" stroke="midnightblue" points="174.714,-105.759 166.898,-112.911 177.468,-112.194 174.714,-105.759"/>
</g>
<!-- Node17&#45;&gt;Node7 -->
<g id="edge28" class="edge"><title>Node17&#45;&gt;Node7</title>
<path fill="none" stroke="midnightblue" d="M254.453,-107.28C290.736,-84.0756 363.117,-37.7858 392.334,-19.1004"/>
<polygon fill="midnightblue" stroke="midnightblue" points="252.186,-104.575 245.648,-112.911 255.958,-110.472 252.186,-104.575"/>
</g>
<!-- Node18&#45;&gt;Node7 -->
<g id="edge30" class="edge"><title>Node18&#45;&gt;Node7</title>
<path fill="none" stroke="midnightblue" d="M616.143,-108.587C566.967,-85.8585 463.729,-38.1436 422.526,-19.1004"/>
<polygon fill="midnightblue" stroke="midnightblue" points="614.954,-111.893 625.499,-112.911 617.89,-105.539 614.954,-111.893"/>
</g>
<!-- Node18&#45;&gt;Node9 -->
<g id="edge31" class="edge"><title>Node18&#45;&gt;Node9</title>
<path fill="none" stroke="midnightblue" d="M654.887,-104.559C664.735,-91.1845 679.29,-71.9771 693,-56 704.541,-42.5513 718.942,-27.8657 727.803,-19.0474"/>
<polygon fill="midnightblue" stroke="midnightblue" points="651.958,-102.635 648.888,-112.776 657.612,-106.763 651.958,-102.635"/>
</g>
<!-- Node19&#45;&gt;Node5 -->
<g id="edge33" class="edge"><title>Node19&#45;&gt;Node5</title>
<path fill="none" stroke="midnightblue" d="M562.628,-219.969C543.479,-209.731 517.413,-195.795 501.153,-187.102"/>
<polygon fill="midnightblue" stroke="midnightblue" points="561.191,-223.17 571.66,-224.799 564.492,-216.997 561.191,-223.17"/>
</g>
<!-- Node19&#45;&gt;Node6 -->
<g id="edge34" class="edge"><title>Node19&#45;&gt;Node6</title>
<path fill="none" stroke="midnightblue" d="M636.1,-221.999C656.851,-215.2 679.891,-204.506 696,-188 711.707,-171.906 717.787,-144.885 719.938,-131.312"/>
<polygon fill="midnightblue" stroke="midnightblue" points="634.992,-218.678 626.45,-224.945 637.036,-225.373 634.992,-218.678"/>
</g>
<!-- Node19&#45;&gt;Node8 -->
<g id="edge50" class="edge"><title>Node19&#45;&gt;Node8</title>
<path fill="none" stroke="midnightblue" d="M637.327,-228.067C671.015,-222.679 714.895,-211.435 747,-188 787.772,-158.238 808.501,-96.9604 814.84,-75.0275"/>
<polygon fill="midnightblue" stroke="midnightblue" points="636.605,-224.635 627.224,-229.557 637.627,-231.56 636.605,-224.635"/>
</g>
<!-- Node19&#45;&gt;Node10 -->
<g id="edge60" class="edge"><title>Node19&#45;&gt;Node10</title>
<path fill="none" stroke="midnightblue" d="M637.08,-230.765C725.058,-223.742 904.693,-194.806 975,-76 986.731,-56.1774 965.102,-31.687 951.619,-19.1848"/>
<polygon fill="midnightblue" stroke="midnightblue" points="636.79,-227.277 627.073,-231.501 637.303,-234.258 636.79,-227.277"/>
</g>
<!-- Node19&#45;&gt;Node11 -->
<g id="edge48" class="edge"><title>Node19&#45;&gt;Node11</title>
<path fill="none" stroke="midnightblue" d="M536.847,-228.973C473.201,-223.179 360.345,-210.615 266,-188 202.563,-172.794 130.37,-144.867 96.4936,-131.104"/>
<polygon fill="midnightblue" stroke="midnightblue" points="536.736,-232.477 547.007,-229.878 537.357,-225.504 536.736,-232.477"/>
</g>
<!-- Node19&#45;&gt;Node12 -->
<g id="edge49" class="edge"><title>Node19&#45;&gt;Node12</title>
<path fill="none" stroke="midnightblue" d="M536.778,-223.611C503.333,-216.329 458.918,-204.647 422,-188 386.949,-172.195 350.281,-144.797 333.06,-131.176"/>
<polygon fill="midnightblue" stroke="midnightblue" points="536.276,-227.082 546.784,-225.73 537.727,-220.234 536.276,-227.082"/>
</g>
<!-- Node19&#45;&gt;Node13 -->
<g id="edge51" class="edge"><title>Node19&#45;&gt;Node13</title>
<path fill="none" stroke="midnightblue" d="M536.765,-226.582C506.951,-220.661 469.855,-209.378 443,-188 423.773,-172.695 412.292,-144.814 407.549,-131.082"/>
<polygon fill="midnightblue" stroke="midnightblue" points="536.51,-230.094 546.978,-228.461 537.777,-223.21 536.51,-230.094"/>
</g>
<!-- Node19&#45;&gt;Node14 -->
<g id="edge52" class="edge"><title>Node19&#45;&gt;Node14</title>
<path fill="none" stroke="midnightblue" d="M637.086,-223.38C683.385,-211.287 748.08,-185.272 769,-132 777.327,-110.796 757.629,-87.2751 745.2,-75.1784"/>
<polygon fill="midnightblue" stroke="midnightblue" points="636.082,-220.023 627.216,-225.823 637.764,-226.818 636.082,-220.023"/>
</g>
<!-- Node19&#45;&gt;Node15 -->
<g id="edge53" class="edge"><title>Node19&#45;&gt;Node15</title>
<path fill="none" stroke="midnightblue" d="M572.877,-217.214C560.994,-203.987 543.507,-184.65 528,-168 515.922,-155.032 501.672,-140.211 492.989,-131.234"/>
<polygon fill="midnightblue" stroke="midnightblue" points="570.517,-219.826 579.799,-224.934 575.729,-215.153 570.517,-219.826"/>
</g>
<!-- Node19&#45;&gt;Node16 -->
<g id="edge54" class="edge"><title>Node19&#45;&gt;Node16</title>
<path fill="none" stroke="midnightblue" d="M536.92,-226.795C484.727,-219.734 400.826,-206.703 330,-188 269.175,-171.938 199.817,-144.535 167.054,-131.021"/>
<polygon fill="midnightblue" stroke="midnightblue" points="536.548,-230.277 546.923,-228.128 537.473,-223.338 536.548,-230.277"/>
</g>
<!-- Node19&#45;&gt;Node17 -->
<g id="edge55" class="edge"><title>Node19&#45;&gt;Node17</title>
<path fill="none" stroke="midnightblue" d="M536.859,-224.609C495.342,-217.015 435.094,-204.498 384,-188 333.21,-171.601 276.05,-144.477 248.927,-131.047"/>
<polygon fill="midnightblue" stroke="midnightblue" points="536.269,-228.059 546.731,-226.386 537.51,-221.169 536.269,-228.059"/>
</g>
<!-- Node19&#45;&gt;Node18 -->
<g id="edge56" class="edge"><title>Node19&#45;&gt;Node18</title>
<path fill="none" stroke="midnightblue" d="M590.295,-214.645C593.192,-201.193 598.188,-182.779 606,-168 613.563,-153.693 626.125,-139.692 634.483,-131.203"/>
<polygon fill="midnightblue" stroke="midnightblue" points="586.835,-214.101 588.338,-224.588 593.703,-215.452 586.835,-214.101"/>
</g>
<!-- Node19&#45;&gt;Node20 -->
<g id="edge35" class="edge"><title>Node19&#45;&gt;Node20</title>
<path fill="none" stroke="midnightblue" d="M604.599,-218.151C616.389,-208.203 631.475,-195.474 641.188,-187.279"/>
<polygon fill="midnightblue" stroke="midnightblue" points="602.106,-215.675 596.72,-224.799 606.62,-221.025 602.106,-215.675"/>
</g>
<!-- Node22 -->
<g id="node22" class="node"><title>Node22</title>
<g id="a_node22"><a xlink:href="Label_8h.html" target="_top" xlink:title="Declaration of RMF::Label. ">
<polygon fill="none" stroke="black" points="46.5962,-169 46.5962,-187 95.4038,-187 95.4038,-169 46.5962,-169"/>
<text text-anchor="middle" x="71" y="-175" font-family="Helvetica,sans-Serif" font-size="10.00">Label.h</text>
</a>
</g>
</g>
<!-- Node19&#45;&gt;Node22 -->
<g id="edge57" class="edge"><title>Node19&#45;&gt;Node22</title>
<path fill="none" stroke="midnightblue" d="M536.392,-227.89C455.262,-219.671 291.075,-202.92 152,-188 133.008,-185.963 111.521,-183.571 95.4522,-181.766"/>
<polygon fill="midnightblue" stroke="midnightblue" points="536.506,-231.42 546.808,-228.945 537.211,-224.455 536.506,-231.42"/>
</g>
<!-- Node20&#45;&gt;Node6 -->
<g id="edge36" class="edge"><title>Node20&#45;&gt;Node6</title>
<path fill="none" stroke="midnightblue" d="M669.874,-162.44C682.823,-152.451 699.541,-139.554 710.268,-131.279"/>
<polygon fill="midnightblue" stroke="midnightblue" points="667.412,-159.919 661.631,-168.799 671.687,-165.462 667.412,-159.919"/>
</g>
<!-- Node20&#45;&gt;Node8 -->
<g id="edge39" class="edge"><title>Node20&#45;&gt;Node8</title>
<path fill="none" stroke="midnightblue" d="M696.851,-166.152C720.071,-159.089 747.764,-148.128 769,-132 789.779,-116.219 805.702,-89.0568 812.857,-75.3823"/>
<polygon fill="midnightblue" stroke="midnightblue" points="695.837,-162.801 687.205,-168.943 697.784,-169.525 695.837,-162.801"/>
</g>
<!-- Node20&#45;&gt;Node10 -->
<g id="edge47" class="edge"><title>Node20&#45;&gt;Node10</title>
<path fill="none" stroke="midnightblue" d="M696.98,-167.095C725.67,-159.803 762.762,-148.303 793,-132 853.717,-99.2644 913.663,-40.3557 934.387,-19.004"/>
<polygon fill="midnightblue" stroke="midnightblue" points="696.081,-163.712 687.207,-169.5 697.754,-170.509 696.081,-163.712"/>
</g>
<!-- Node20&#45;&gt;Node11 -->
<g id="edge37" class="edge"><title>Node20&#45;&gt;Node11</title>
<path fill="none" stroke="midnightblue" d="M604.457,-173.469C483.188,-164.213 163.592,-139.454 116,-132 113.117,-131.548 110.13,-131.003 107.151,-130.406"/>
<polygon fill="midnightblue" stroke="midnightblue" points="604.306,-176.967 614.543,-174.238 604.838,-169.987 604.306,-176.967"/>
</g>
<!-- Node20&#45;&gt;Node12 -->
<g id="edge38" class="edge"><title>Node20&#45;&gt;Node12</title>
<path fill="none" stroke="midnightblue" d="M604.282,-171.024C546.619,-163.362 445.676,-149.012 360,-132 357.017,-131.408 353.912,-130.738 350.824,-130.037"/>
<polygon fill="midnightblue" stroke="midnightblue" points="604.16,-174.538 614.532,-172.376 605.076,-167.599 604.16,-174.538"/>
</g>
<!-- Node20&#45;&gt;Node13 -->
<g id="edge40" class="edge"><title>Node20&#45;&gt;Node13</title>
<path fill="none" stroke="midnightblue" d="M604.713,-166.84C557.389,-156.451 484.845,-140.527 441.447,-131.001"/>
<polygon fill="midnightblue" stroke="midnightblue" points="604.184,-170.307 614.702,-169.032 605.685,-163.469 604.184,-170.307"/>
</g>
<!-- Node20&#45;&gt;Node14 -->
<g id="edge41" class="edge"><title>Node20&#45;&gt;Node14</title>
<path fill="none" stroke="midnightblue" d="M697.243,-168.247C717.67,-161.833 739.783,-150.818 752,-132 763.644,-114.065 750.284,-88.3322 741.848,-75.2765"/>
<polygon fill="midnightblue" stroke="midnightblue" points="696.065,-164.943 687.401,-171.041 697.977,-171.677 696.065,-164.943"/>
</g>
<!-- Node20&#45;&gt;Node15 -->
<g id="edge42" class="edge"><title>Node20&#45;&gt;Node15</title>
<path fill="none" stroke="midnightblue" d="M616.357,-165.731C584.493,-155.365 538.027,-140.25 509.75,-131.051"/>
<polygon fill="midnightblue" stroke="midnightblue" points="615.556,-169.15 626.148,-168.916 617.721,-162.494 615.556,-169.15"/>
</g>
<!-- Node20&#45;&gt;Node16 -->
<g id="edge43" class="edge"><title>Node20&#45;&gt;Node16</title>
<path fill="none" stroke="midnightblue" d="M604.662,-173.635C502.524,-166.044 260.7,-147.078 180,-132 177.164,-131.47 174.214,-130.804 171.305,-130.075"/>
<polygon fill="midnightblue" stroke="midnightblue" points="604.448,-177.128 614.679,-174.376 604.964,-170.148 604.448,-177.128"/>
</g>
<!-- Node20&#45;&gt;Node17 -->
<g id="edge44" class="edge"><title>Node20&#45;&gt;Node17</title>
<path fill="none" stroke="midnightblue" d="M604.769,-171.983C535.401,-164.302 400.32,-148.745 286,-132 283.137,-131.581 280.191,-131.131 277.223,-130.664"/>
<polygon fill="midnightblue" stroke="midnightblue" points="604.597,-175.486 614.921,-173.103 605.365,-168.528 604.597,-175.486"/>
</g>
<!-- Node20&#45;&gt;Node18 -->
<g id="edge45" class="edge"><title>Node20&#45;&gt;Node18</title>
<path fill="none" stroke="midnightblue" d="M648.279,-158.633C646.898,-149.313 645.29,-138.459 644.215,-131.201"/>
<polygon fill="midnightblue" stroke="midnightblue" points="644.822,-159.183 649.75,-168.562 651.747,-158.158 644.822,-159.183"/>
</g>
<!-- Node20&#45;&gt;Node21 -->
<g id="edge46" class="edge"><title>Node20&#45;&gt;Node21</title>
<path fill="none" stroke="midnightblue" d="M697.29,-171.357C788.436,-160.247 988.855,-135.817 1064.4,-126.608"/>
<polygon fill="midnightblue" stroke="midnightblue" points="696.756,-167.897 687.253,-172.581 697.603,-174.845 696.756,-167.897"/>
</g>
<!-- Node23 -->
<g id="node23" class="node"><title>Node23</title>
<g id="a_node23"><a xlink:href="labels_8h.html" target="_top" xlink:title="Helper functions for manipulating RMF files. ">
<polygon fill="none" stroke="black" points="-0.233887,-57 -0.233887,-75 50.2339,-75 50.2339,-57 -0.233887,-57"/>
<text text-anchor="middle" x="25" y="-63" font-family="Helvetica,sans-Serif" font-size="10.00">labels.h</text>
</a>
</g>
</g>
<!-- Node22&#45;&gt;Node23 -->
<g id="edge58" class="edge"><title>Node22&#45;&gt;Node23</title>
<path fill="none" stroke="midnightblue" d="M56.5051,-160.885C49.919,-152.751 42.5905,-142.417 38,-132 29.5538,-112.834 26.5464,-88.0663 25.5135,-75.3492"/>
<polygon fill="midnightblue" stroke="midnightblue" points="54.049,-163.399 63.1957,-168.746 59.3797,-158.862 54.049,-163.399"/>
</g>
<!-- Node23&#45;&gt;Node7 -->
<g id="edge59" class="edge"><title>Node23&#45;&gt;Node7</title>
<path fill="none" stroke="midnightblue" d="M60.5075,-59.9542C132.819,-49.6784 296.45,-26.4255 369.095,-16.1023"/>
<polygon fill="midnightblue" stroke="midnightblue" points="59.931,-56.5009 50.5229,-61.3731 60.9159,-63.4312 59.931,-56.5009"/>
</g>
<!-- Node24&#45;&gt;Node10 -->
<g id="edge68" class="edge"><title>Node24&#45;&gt;Node10</title>
<path fill="none" stroke="midnightblue" d="M1153.23,-214.626C1154.01,-189.476 1152.17,-143.828 1132,-112 1097.71,-57.8843 1024.09,-30.9469 979.227,-19.0599"/>
<polygon fill="midnightblue" stroke="midnightblue" points="1149.72,-214.735 1152.72,-224.896 1156.71,-215.082 1149.72,-214.735"/>
</g>
<!-- Node24&#45;&gt;Node20 -->
<g id="edge62" class="edge"><title>Node24&#45;&gt;Node20</title>
<path fill="none" stroke="midnightblue" d="M1092.48,-226.585C987.537,-215.273 772.62,-192.109 687.185,-182.9"/>
<polygon fill="midnightblue" stroke="midnightblue" points="1092.27,-230.083 1102.59,-227.674 1093.02,-223.123 1092.27,-230.083"/>
</g>
<!-- Node24&#45;&gt;Node21 -->
<g id="edge67" class="edge"><title>Node24&#45;&gt;Node21</title>
<path fill="none" stroke="midnightblue" d="M1142.86,-215.657C1130.13,-191.529 1107.6,-148.801 1098.25,-131.065"/>
<polygon fill="midnightblue" stroke="midnightblue" points="1139.88,-217.519 1147.64,-224.732 1146.07,-214.254 1139.88,-217.519"/>
</g>
<!-- Node25 -->
<g id="node25" class="node"><title>Node25</title>
<g id="a_node25"><a xlink:href="info_8h.html" target="_top" xlink:title="Show info about the file. ">
<polygon fill="none" stroke="black" points="1382.77,-169 1382.77,-187 1423.23,-187 1423.23,-169 1382.77,-169"/>
<text text-anchor="middle" x="1403" y="-175" font-family="Helvetica,sans-Serif" font-size="10.00">info.h</text>
</a>
</g>
</g>
<!-- Node24&#45;&gt;Node25 -->
<g id="edge63" class="edge"><title>Node24&#45;&gt;Node25</title>
<path fill="none" stroke="midnightblue" d="M1207.67,-223.109C1252.55,-214.79 1317.16,-202.031 1373,-188 1376.16,-187.205 1379.49,-186.288 1382.74,-185.35"/>
<polygon fill="midnightblue" stroke="midnightblue" points="1206.76,-219.718 1197.56,-224.971 1208.03,-226.603 1206.76,-219.718"/>
</g>
<!-- Node26 -->
<g id="node26" class="node"><title>Node26</title>
<g id="a_node26"><a xlink:href="RestoreCurrentFrame_8h.html" target="_top" xlink:title="Restore the current frame when exiting a scope. ">
<polygon fill="none" stroke="black" points="1441.2,-169 1441.2,-187 1562.8,-187 1562.8,-169 1441.2,-169"/>
<text text-anchor="middle" x="1502" y="-175" font-family="Helvetica,sans-Serif" font-size="10.00">RestoreCurrentFrame.h</text>
</a>
</g>
</g>
<!-- Node24&#45;&gt;Node26 -->
<g id="edge64" class="edge"><title>Node24&#45;&gt;Node26</title>
<path fill="none" stroke="midnightblue" d="M1211.38,-223.838C1278.36,-213.505 1386.22,-196.864 1450,-187.024"/>
<polygon fill="midnightblue" stroke="midnightblue" points="1210.75,-220.394 1201.4,-225.378 1211.82,-227.312 1210.75,-220.394"/>
</g>
<!-- Node27 -->
<g id="node27" class="node"><title>Node27</title>
<g id="a_node27"><a xlink:href="SetCurrentFrame_8h.html" target="_top" xlink:title="Temporarily change the current frame. ">
<polygon fill="none" stroke="black" points="1179.21,-169 1179.21,-187 1280.79,-187 1280.79,-169 1179.21,-169"/>
<text text-anchor="middle" x="1230" y="-175" font-family="Helvetica,sans-Serif" font-size="10.00">SetCurrentFrame.h</text>
</a>
</g>
</g>
<!-- Node24&#45;&gt;Node27 -->
<g id="edge65" class="edge"><title>Node24&#45;&gt;Node27</title>
<path fill="none" stroke="midnightblue" d="M1172.26,-218.976C1186.89,-208.846 1206.14,-195.517 1218.3,-187.102"/>
<polygon fill="midnightblue" stroke="midnightblue" points="1170.08,-216.229 1163.85,-224.799 1174.06,-221.984 1170.08,-216.229"/>
</g>
<!-- Node28 -->
<g id="node28" class="node"><title>Node28</title>
<g id="a_node28"><a xlink:href="signature_8h.html" target="_top" xlink:title="Return a (long) string describing a file that can be compared. ">
<polygon fill="none" stroke="black" points="1299.26,-169 1299.26,-187 1364.74,-187 1364.74,-169 1299.26,-169"/>
<text text-anchor="middle" x="1332" y="-175" font-family="Helvetica,sans-Serif" font-size="10.00">signature.h</text>
</a>
</g>
</g>
<!-- Node24&#45;&gt;Node28 -->
<g id="edge66" class="edge"><title>Node24&#45;&gt;Node28</title>
<path fill="none" stroke="midnightblue" d="M1188.67,-221.999C1223.24,-211.627 1274.24,-196.329 1305.16,-187.051"/>
<polygon fill="midnightblue" stroke="midnightblue" points="1187.52,-218.69 1178.95,-224.916 1189.53,-225.394 1187.52,-218.69"/>
</g>
<!-- Node30&#45;&gt;Node4 -->
<g id="edge73" class="edge"><title>Node30&#45;&gt;Node4</title>
<path fill="none" stroke="midnightblue" d="M924.987,-332.65C947.447,-322.372 978.786,-308.03 998.213,-299.14"/>
<polygon fill="midnightblue" stroke="midnightblue" points="923.302,-329.572 915.666,-336.916 926.215,-335.937 923.302,-329.572"/>
</g>
<!-- Node30&#45;&gt;Node9 -->
<g id="edge75" class="edge"><title>Node30&#45;&gt;Node9</title>
<path fill="none" stroke="midnightblue" d="M900.993,-326.548C907.975,-276.759 920.078,-137.918 854,-56 836.518,-34.3271 807.34,-23.0828 782.374,-17.254"/>
<polygon fill="midnightblue" stroke="midnightblue" points="897.488,-326.319 899.455,-336.73 904.409,-327.364 897.488,-326.319"/>
</g>
<!-- Node30&#45;&gt;Node19 -->
<g id="edge74" class="edge"><title>Node30&#45;&gt;Node19</title>
<path fill="none" stroke="midnightblue" d="M865.677,-333.567C802.606,-311.259 664.529,-262.422 609.902,-243.1"/>
<polygon fill="midnightblue" stroke="midnightblue" points="864.537,-336.877 875.131,-336.911 866.871,-330.277 864.537,-336.877"/>
</g>
</g>
</svg>
        <g id="navigator" transform="translate(0 0)" fill="#404254">
                <rect fill="#f2f5e9" fill-opacity="0.5" stroke="#606060" stroke-width=".5" x="0" y="0" width="60" height="60"/>
                <use id="zoomplus" xlink:href="#zoomPlus" x="17" y="9" onmousedown="handleZoom(evt,'in')"/>
                <use id="zoomminus" xlink:href="#zoomMin" x="42" y="9" onmousedown="handleZoom(evt,'out')"/>
                <use id="reset" xlink:href="#resetDef" x="30" y="36" onmousedown="handleReset()"/>
                <g id="arrowUp" xlink:href="#dirArrow" transform="translate(30 24)" onmousedown="handlePan(0,-1)">
                  <use xlink:href="#rim" fill="#404040">
                        <set attributeName="fill" to="#808080" begin="arrowUp.mouseover" end="arrowUp.mouseout"/>
                  </use>
                  <path fill="none" stroke="white" stroke-width="1.5" d="M0,-3.0v7 M-2.5,-0.5L0,-3.0L2.5,-0.5"/>
                </g>
                <g id="arrowRight" xlink:href="#dirArrow" transform="rotate(90) translate(36 -43)" onmousedown="handlePan(1,0)">
                  <use xlink:href="#rim" fill="#404040">
                        <set attributeName="fill" to="#808080" begin="arrowRight.mouseover" end="arrowRight.mouseout"/>
                  </use>
                  <path fill="none" stroke="white" stroke-width="1.5" d="M0,-3.0v7 M-2.5,-0.5L0,-3.0L2.5,-0.5"/>
                </g>
                <g id="arrowDown" xlink:href="#dirArrow" transform="rotate(180) translate(-30 -48)" onmousedown="handlePan(0,1)">
                  <use xlink:href="#rim" fill="#404040">
                        <set attributeName="fill" to="#808080" begin="arrowDown.mouseover" end="arrowDown.mouseout"/>
                  </use>
                  <path fill="none" stroke="white" stroke-width="1.5" d="M0,-3.0v7 M-2.5,-0.5L0,-3.0L2.5,-0.5"/>
                </g>
                <g id="arrowLeft" xlink:href="#dirArrow" transform="rotate(270) translate(-36 17)" onmousedown="handlePan(-1,0)">
                  <use xlink:href="#rim" fill="#404040">
                        <set attributeName="fill" to="#808080" begin="arrowLeft.mouseover" end="arrowLeft.mouseout"/>
                  </use>
                  <path fill="none" stroke="white" stroke-width="1.5" d="M0,-3.0v7 M-2.5,-0.5L0,-3.0L2.5,-0.5"/>
                </g>
        </g>
        <svg viewBox="0 0 15 15" width="100%" height="30px" preserveAspectRatio="xMaxYMin meet">
         <g id="arrow_out" transform="scale(0.3 0.3)">
          <a xlink:href="types_8h__dep__incl_org.svg" target="_base">
           <rect id="button" ry="5" rx="5" y="6" x="6" height="38" width="38"
                fill="#f2f5e9" fill-opacity="0.5" stroke="#606060" stroke-width="1.0"/>
           <path id="arrow"
             d="M 11.500037,31.436501 C 11.940474,20.09759 22.043105,11.32322 32.158766,21.979434 L 37.068811,17.246167 C 37.068811,17.246167 37.088388,32 37.088388,32 L 22.160133,31.978069 C 22.160133,31.978069 26.997745,27.140456 26.997745,27.140456 C 18.528582,18.264221 13.291696,25.230495 11.500037,31.436501 z"
             style="fill:#404040;"/>
          </a>
         </g>
        </svg>
</svg>
