<?xml version="1.0" encoding="UTF-8" standalone="no"?>
<!DOCTYPE svg PUBLIC "-//W3C//DTD SVG 1.1//EN"
 "http://www.w3.org/Graphics/SVG/1.1/DTD/svg11.dtd">
<!-- Generated by graphviz version 2.34.0 (20131025.1349)
 -->
<!-- Title: types.h Pages: 1 -->
<!--zoomable 320 -->
<svg id="main" version="1.1" xmlns="http://www.w3.org/2000/svg" xmlns:xlink="http://www.w3.org/1999/xlink" xml:space="preserve" onload="init(evt)">
<style type="text/css"><![CDATA[
.edge:hover path { stroke: red; }
.edge:hover polygon { stroke: red; fill: red; }
]]></style>
<script type="text/javascript"><![CDATA[
var edges = document.getElementsByTagName('g');
if (edges && edges.length) {
  for (var i=0;i<edges.length;i++) {
    if (edges[i].id.substr(0,4)=='edge') {
      edges[i].setAttribute('class','edge');
    }
  }
}
]]></script>
        <defs>
                <circle id="rim" cx="0" cy="0" r="7"/>
                <circle id="rim2" cx="0" cy="0" r="3.5"/>
                <g id="zoomPlus">
                        <use xlink:href="#rim" fill="#404040">
                                <set attributeName="fill" to="#808080" begin="zoomplus.mouseover" end="zoomplus.mouseout"/>
                        </use>
                        <path d="M-4,0h8M0,-4v8" fill="none" stroke="white" stroke-width="1.5" pointer-events="none"/>
                </g>
                <g id="zoomMin">
                        <use xlink:href="#rim" fill="#404040">
                                <set attributeName="fill" to="#808080" begin="zoomminus.mouseover" end="zoomminus.mouseout"/>
                        </use>
                        <path d="M-4,0h8" fill="none" stroke="white" stroke-width="1.5" pointer-events="none"/>
                </g>
                <g id="dirArrow">
                        <path fill="none" stroke="white" stroke-width="1.5" d="M0,-3.0v7 M-2.5,-0.5L0,-3.0L2.5,-0.5"/>
                </g>
               <g id="resetDef">
                       <use xlink:href="#rim2" fill="#404040">
                               <set attributeName="fill" to="#808080" begin="reset.mouseover" end="reset.mouseout"/>
                       </use>
               </g>
        </defs>

<script type="text/javascript">
var viewWidth = 1223;
var viewHeight = 320;
var sectionId = 'dynsection-0';
</script>
<script xlink:href="svgpan.js"/>
<svg id="graph" class="graph">
<g id="viewport">
<title>types.h</title>
<!-- Node1 -->
<g id="node1" class="node"><title>Node1</title>
<polygon fill="#bfbfbf" stroke="black" points="53.8794,-291 53.8794,-311 102.121,-311 102.121,-291 53.8794,-291"/>
<text text-anchor="middle" x="78" y="-297" font-family="Helvetica,sans-Serif" font-size="10.00">types.h</text>
</g>
<!-- Node2 -->
<g id="node2" class="node"><title>Node2</title>
<g id="a_node2"><a xlink:href="config_8h_source.html" target="_top" xlink:title="RMF/config.h">
<polygon fill="none" stroke="black" points="-0.731445,-59 -0.731445,-79 74.7314,-79 74.7314,-59 -0.731445,-59"/>
<text text-anchor="middle" x="37" y="-65" font-family="Helvetica,sans-Serif" font-size="10.00">RMF/config.h</text>
</a>
</g>
</g>
<!-- Node1&#45;&gt;Node2 -->
<g id="edge1" class="edge"><title>Node1&#45;&gt;Node2</title>
<path fill="none" stroke="midnightblue" d="M72.4632,-290.857C67.283,-281.83 59.7914,-267.463 56,-254 39.5694,-195.655 37.0387,-123.323 36.843,-89.3445"/>
<polygon fill="midnightblue" stroke="midnightblue" points="40.3432,-89.0145 36.8522,-79.0114 33.3432,-89.0082 40.3432,-89.0145"/>
</g>
<!-- Node4 -->
<g id="node4" class="node"><title>Node4</title>
<g id="a_node4"><a xlink:href="default__types_8h.html" target="_top" xlink:title="Default implementation for types.h. ">
<polygon fill="none" stroke="black" points="64.8672,-233 64.8672,-253 173.133,-253 173.133,-233 64.8672,-233"/>
<text text-anchor="middle" x="119" y="-239" font-family="Helvetica,sans-Serif" font-size="10.00">RMF/default_types.h</text>
</a>
</g>
</g>
<!-- Node1&#45;&gt;Node4 -->
<g id="edge3" class="edge"><title>Node1&#45;&gt;Node4</title>
<path fill="none" stroke="midnightblue" d="M84.7703,-290.753C90.6213,-282.761 99.2339,-270.998 106.356,-261.27"/>
<polygon fill="midnightblue" stroke="midnightblue" points="109.272,-263.211 112.356,-253.075 103.624,-259.076 109.272,-263.211"/>
</g>
<!-- Node3 -->
<g id="node3" class="node"><title>Node3</title>
<g id="a_node3"><a xlink:href="compiler__macros_8h.html" target="_top" xlink:title="Various compiler workarounds. ">
<polygon fill="none" stroke="black" points="40.5444,-1 40.5444,-21 165.456,-21 165.456,-1 40.5444,-1"/>
<text text-anchor="middle" x="103" y="-7" font-family="Helvetica,sans-Serif" font-size="10.00">RMF/compiler_macros.h</text>
</a>
</g>
</g>
<!-- Node2&#45;&gt;Node3 -->
<g id="edge2" class="edge"><title>Node2&#45;&gt;Node3</title>
<path fill="none" stroke="midnightblue" d="M47.8986,-58.7527C57.7978,-50.3534 72.6078,-37.7874 84.3814,-27.7976"/>
<polygon fill="midnightblue" stroke="midnightblue" points="86.9436,-30.2138 92.3042,-21.0752 82.4147,-24.8762 86.9436,-30.2138"/>
</g>
<!-- Node4&#45;&gt;Node2 -->
<g id="edge4" class="edge"><title>Node4&#45;&gt;Node2</title>
<path fill="none" stroke="midnightblue" d="M114.591,-232.753C101.577,-205.454 63.1496,-124.85 45.7438,-88.3406"/>
<polygon fill="midnightblue" stroke="midnightblue" points="48.8933,-86.8136 41.4305,-79.2932 42.5746,-89.8261 48.8933,-86.8136"/>
</g>
<!-- Node5 -->
<g id="node5" class="node"><title>Node5</title>
<g id="a_node5"><a xlink:href="Vector_8h.html" target="_top" xlink:title="Represent coordinates. ">
<polygon fill="none" stroke="black" points="636.926,-175 636.926,-195 689.074,-195 689.074,-175 636.926,-175"/>
<text text-anchor="middle" x="663" y="-181" font-family="Helvetica,sans-Serif" font-size="10.00">Vector.h</text>
</a>
</g>
</g>
<!-- Node4&#45;&gt;Node5 -->
<g id="edge5" class="edge"><title>Node4&#45;&gt;Node5</title>
<path fill="none" stroke="midnightblue" d="M173.15,-236.426C283.775,-225.038 533.149,-199.367 626.664,-189.74"/>
<polygon fill="midnightblue" stroke="midnightblue" points="627.176,-193.206 636.765,-188.701 626.459,-186.243 627.176,-193.206"/>
</g>
<!-- Node5&#45;&gt;Node2 -->
<g id="edge6" class="edge"><title>Node5&#45;&gt;Node2</title>
<path fill="none" stroke="midnightblue" d="M636.67,-182.131C574.837,-177.453 415.702,-163.728 285,-138 209.344,-123.108 122.889,-97.3581 74.6442,-82.18"/>
<polygon fill="midnightblue" stroke="midnightblue" points="75.5368,-78.7914 64.9468,-79.1093 73.4236,-85.4649 75.5368,-78.7914"/>
</g>
<!-- Node6 -->
<g id="node6" class="node"><title>Node6</title>
<g id="a_node6"><a xlink:href="infrastructure__macros_8h.html" target="_top" xlink:title="Various general useful macros for IMP. ">
<polygon fill="none" stroke="black" points="602.48,-117 602.48,-137 723.52,-137 723.52,-117 602.48,-117"/>
<text text-anchor="middle" x="663" y="-123" font-family="Helvetica,sans-Serif" font-size="10.00">infrastructure_macros.h</text>
</a>
</g>
</g>
<!-- Node5&#45;&gt;Node6 -->
<g id="edge7" class="edge"><title>Node5&#45;&gt;Node6</title>
<path fill="none" stroke="midnightblue" d="M663,-174.753C663,-167.25 663,-156.424 663,-147.078"/>
<polygon fill="midnightblue" stroke="midnightblue" points="666.5,-147.075 663,-137.075 659.5,-147.075 666.5,-147.075"/>
</g>
<!-- Node15 -->
<g id="node15" class="node"><title>Node15</title>
<g id="a_node15"><a xlink:href="exceptions_8h.html" target="_top" xlink:title="Various general useful macros for IMP. ">
<polygon fill="none" stroke="black" points="293.926,-117 293.926,-137 366.074,-137 366.074,-117 293.926,-117"/>
<text text-anchor="middle" x="330" y="-123" font-family="Helvetica,sans-Serif" font-size="10.00">exceptions.h</text>
</a>
</g>
</g>
<!-- Node5&#45;&gt;Node15 -->
<g id="edge17" class="edge"><title>Node5&#45;&gt;Node15</title>
<path fill="none" stroke="midnightblue" d="M636.87,-179.606C580.534,-170.132 447.017,-147.679 376.108,-135.754"/>
<polygon fill="midnightblue" stroke="midnightblue" points="376.559,-132.281 366.117,-134.074 375.398,-139.184 376.559,-132.281"/>
</g>
<!-- Node19 -->
<g id="node19" class="node"><title>Node19</title>
<polygon fill="none" stroke="#bfbfbf" points="741.237,-117 741.237,-137 856.763,-137 856.763,-117 741.237,-117"/>
<text text-anchor="middle" x="799" y="-123" font-family="Helvetica,sans-Serif" font-size="10.00">boost/range/begin.hpp</text>
</g>
<!-- Node5&#45;&gt;Node19 -->
<g id="edge24" class="edge"><title>Node5&#45;&gt;Node19</title>
<path fill="none" stroke="midnightblue" d="M685.153,-174.878C707.48,-165.685 742.148,-151.409 767.365,-141.026"/>
<polygon fill="midnightblue" stroke="midnightblue" points="768.942,-144.162 776.856,-137.118 766.277,-137.689 768.942,-144.162"/>
</g>
<!-- Node20 -->
<g id="node20" class="node"><title>Node20</title>
<polygon fill="none" stroke="#bfbfbf" points="875.128,-117 875.128,-137 982.872,-137 982.872,-117 875.128,-117"/>
<text text-anchor="middle" x="929" y="-123" font-family="Helvetica,sans-Serif" font-size="10.00">boost/range/end.hpp</text>
</g>
<!-- Node5&#45;&gt;Node20 -->
<g id="edge25" class="edge"><title>Node5&#45;&gt;Node20</title>
<path fill="none" stroke="midnightblue" d="M689.478,-178.426C732.866,-169.291 819.903,-150.968 876.249,-139.106"/>
<polygon fill="midnightblue" stroke="midnightblue" points="876.986,-142.527 886.05,-137.042 875.544,-135.677 876.986,-142.527"/>
</g>
<!-- Node21 -->
<g id="node21" class="node"><title>Node21</title>
<polygon fill="none" stroke="#bfbfbf" points="1000.44,-117 1000.44,-137 1057.56,-137 1057.56,-117 1000.44,-117"/>
<text text-anchor="middle" x="1029" y="-123" font-family="Helvetica,sans-Serif" font-size="10.00">algorithm</text>
</g>
<!-- Node5&#45;&gt;Node21 -->
<g id="edge26" class="edge"><title>Node5&#45;&gt;Node21</title>
<path fill="none" stroke="midnightblue" d="M689.114,-181.397C743.367,-175.764 872.349,-161.202 990.131,-137.978"/>
<polygon fill="midnightblue" stroke="midnightblue" points="990.916,-141.39 1000.04,-135.999 989.544,-134.526 990.916,-141.39"/>
</g>
<!-- Node6&#45;&gt;Node3 -->
<g id="edge11" class="edge"><title>Node6&#45;&gt;Node3</title>
<path fill="none" stroke="midnightblue" d="M649.266,-116.856C622.53,-99.1308 565.213,-61.5172 555,-58 486.816,-34.5178 285.436,-21.1126 175.921,-15.3692"/>
<polygon fill="midnightblue" stroke="midnightblue" points="175.784,-11.8575 165.617,-14.8372 175.423,-18.8482 175.784,-11.8575"/>
</g>
<!-- Node7 -->
<g id="node7" class="node"><title>Node7</title>
<polygon fill="none" stroke="#bfbfbf" points="602.219,-59 602.219,-79 653.781,-79 653.781,-59 602.219,-59"/>
<text text-anchor="middle" x="628" y="-65" font-family="Helvetica,sans-Serif" font-size="10.00">sstream</text>
</g>
<!-- Node6&#45;&gt;Node7 -->
<g id="edge8" class="edge"><title>Node6&#45;&gt;Node7</title>
<path fill="none" stroke="midnightblue" d="M657.22,-116.753C652.277,-108.843 645.023,-97.2372 638.98,-87.5683"/>
<polygon fill="midnightblue" stroke="midnightblue" points="641.94,-85.7002 633.672,-79.0752 636.004,-89.4102 641.94,-85.7002"/>
</g>
<!-- Node8 -->
<g id="node8" class="node"><title>Node8</title>
<polygon fill="none" stroke="#bfbfbf" points="671.828,-59 671.828,-79 726.172,-79 726.172,-59 671.828,-59"/>
<text text-anchor="middle" x="699" y="-65" font-family="Helvetica,sans-Serif" font-size="10.00">iostream</text>
</g>
<!-- Node6&#45;&gt;Node8 -->
<g id="edge9" class="edge"><title>Node6&#45;&gt;Node8</title>
<path fill="none" stroke="midnightblue" d="M668.945,-116.753C674.03,-108.843 681.49,-97.2372 687.706,-87.5683"/>
<polygon fill="midnightblue" stroke="midnightblue" points="690.702,-89.3797 693.166,-79.0752 684.814,-85.5943 690.702,-89.3797"/>
</g>
<!-- Node9 -->
<g id="node9" class="node"><title>Node9</title>
<polygon fill="none" stroke="#bfbfbf" points="505.773,-59 505.773,-79 546.227,-79 546.227,-59 505.773,-59"/>
<text text-anchor="middle" x="526" y="-65" font-family="Helvetica,sans-Serif" font-size="10.00">string</text>
</g>
<!-- Node6&#45;&gt;Node9 -->
<g id="edge10" class="edge"><title>Node6&#45;&gt;Node9</title>
<path fill="none" stroke="midnightblue" d="M640.684,-116.878C617.658,-107.466 581.6,-92.7268 556.07,-82.2913"/>
<polygon fill="midnightblue" stroke="midnightblue" points="557.096,-78.9296 546.515,-78.3857 554.447,-85.4092 557.096,-78.9296"/>
</g>
<!-- Node10 -->
<g id="node10" class="node"><title>Node10</title>
<polygon fill="none" stroke="#bfbfbf" points="743.98,-59 743.98,-79 820.02,-79 820.02,-59 743.98,-59"/>
<text text-anchor="middle" x="782" y="-65" font-family="Helvetica,sans-Serif" font-size="10.00">internal/use.h</text>
</g>
<!-- Node6&#45;&gt;Node10 -->
<g id="edge12" class="edge"><title>Node6&#45;&gt;Node10</title>
<path fill="none" stroke="midnightblue" d="M682.384,-116.878C701.661,-107.807 731.451,-93.7876 753.436,-83.4418"/>
<polygon fill="midnightblue" stroke="midnightblue" points="755.066,-86.543 762.624,-79.1181 752.086,-80.2093 755.066,-86.543"/>
</g>
<!-- Node11 -->
<g id="node11" class="node"><title>Node11</title>
<polygon fill="none" stroke="#bfbfbf" points="838.306,-59 838.306,-79 927.694,-79 927.694,-59 838.306,-59"/>
<text text-anchor="middle" x="883" y="-65" font-family="Helvetica,sans-Serif" font-size="10.00">boost/config.hpp</text>
</g>
<!-- Node6&#45;&gt;Node11 -->
<g id="edge13" class="edge"><title>Node6&#45;&gt;Node11</title>
<path fill="none" stroke="midnightblue" d="M698.836,-116.878C736.743,-107.229 796.644,-91.9816 837.775,-81.5118"/>
<polygon fill="midnightblue" stroke="midnightblue" points="838.716,-84.884 847.543,-79.0253 836.989,-78.1003 838.716,-84.884"/>
</g>
<!-- Node12 -->
<g id="node12" class="node"><title>Node12</title>
<polygon fill="none" stroke="#bfbfbf" points="945.53,-59 945.53,-79 1040.47,-79 1040.47,-59 945.53,-59"/>
<text text-anchor="middle" x="993" y="-65" font-family="Helvetica,sans-Serif" font-size="10.00">boost/version.hpp</text>
</g>
<!-- Node6&#45;&gt;Node12 -->
<g id="edge14" class="edge"><title>Node6&#45;&gt;Node12</title>
<path fill="none" stroke="midnightblue" d="M717.147,-116.987C770.091,-108.149 853.279,-94.1965 935.41,-80.0927"/>
<polygon fill="midnightblue" stroke="midnightblue" points="936.156,-83.5159 945.418,-78.3723 934.97,-76.6171 936.156,-83.5159"/>
</g>
<!-- Node13 -->
<g id="node13" class="node"><title>Node13</title>
<polygon fill="none" stroke="#bfbfbf" points="1057.97,-59 1057.97,-79 1154.03,-79 1154.03,-59 1057.97,-59"/>
<text text-anchor="middle" x="1106" y="-65" font-family="Helvetica,sans-Serif" font-size="10.00">boost/foreach.hpp</text>
</g>
<!-- Node6&#45;&gt;Node13 -->
<g id="edge15" class="edge"><title>Node6&#45;&gt;Node13</title>
<path fill="none" stroke="midnightblue" d="M723.568,-117.114C726.417,-116.73 729.239,-116.357 732,-116 869.329,-98.255 906.914,-100.158 1047.53,-80.1417"/>
<polygon fill="midnightblue" stroke="midnightblue" points="1048.43,-83.5479 1057.83,-78.6621 1047.43,-76.6189 1048.43,-83.5479"/>
</g>
<!-- Node14 -->
<g id="node14" class="node"><title>Node14</title>
<polygon fill="none" stroke="#bfbfbf" points="1172.38,-59 1172.38,-79 1215.62,-79 1215.62,-59 1172.38,-59"/>
<text text-anchor="middle" x="1194" y="-65" font-family="Helvetica,sans-Serif" font-size="10.00">vector</text>
</g>
<!-- Node6&#45;&gt;Node14 -->
<g id="edge16" class="edge"><title>Node6&#45;&gt;Node14</title>
<path fill="none" stroke="midnightblue" d="M723.555,-117.012C726.408,-116.655 729.234,-116.316 732,-116 919.719,-94.5773 972.719,-116.961 1162.14,-79.7293"/>
<polygon fill="midnightblue" stroke="midnightblue" points="1163.03,-83.122 1172.15,-77.7326 1161.66,-76.2573 1163.03,-83.122"/>
</g>
<!-- Node15&#45;&gt;Node2 -->
<g id="edge21" class="edge"><title>Node15&#45;&gt;Node2</title>
<path fill="none" stroke="midnightblue" d="M293.659,-119.08C246.479,-110.092 161.583,-93.9062 89,-80 87.561,-79.7243 86.0996,-79.4442 84.6243,-79.1612"/>
<polygon fill="midnightblue" stroke="midnightblue" points="85.253,-75.7181 74.7725,-77.2703 83.9335,-82.5926 85.253,-75.7181"/>
</g>
<!-- Node15&#45;&gt;Node3 -->
<g id="edge22" class="edge"><title>Node15&#45;&gt;Node3</title>
<path fill="none" stroke="midnightblue" d="M293.599,-122.442C240.739,-116.552 146.374,-103.073 122,-80 108.948,-67.6443 104.614,-47.1349 103.294,-31.8653"/>
<polygon fill="midnightblue" stroke="midnightblue" points="106.767,-31.2461 102.777,-21.4316 99.7758,-31.5926 106.767,-31.2461"/>
</g>
<!-- Node15&#45;&gt;Node9 -->
<g id="edge20" class="edge"><title>Node15&#45;&gt;Node9</title>
<path fill="none" stroke="midnightblue" d="M365.374,-116.951C397.253,-108.643 445.6,-95.6642 496.005,-80.1819"/>
<polygon fill="midnightblue" stroke="midnightblue" points="497.255,-83.4589 505.772,-77.1578 495.184,-76.772 497.255,-83.4589"/>
</g>
<!-- Node16 -->
<g id="node16" class="node"><title>Node16</title>
<polygon fill="none" stroke="#bfbfbf" points="131.451,-59 131.451,-79 282.549,-79 282.549,-59 131.451,-59"/>
<text text-anchor="middle" x="207" y="-65" font-family="Helvetica,sans-Serif" font-size="10.00">boost/exception/exception.hpp</text>
</g>
<!-- Node15&#45;&gt;Node16 -->
<g id="edge18" class="edge"><title>Node15&#45;&gt;Node16</title>
<path fill="none" stroke="midnightblue" d="M309.964,-116.878C289.951,-107.766 258.971,-93.6617 236.219,-83.3028"/>
<polygon fill="midnightblue" stroke="midnightblue" points="237.579,-80.0764 227.027,-79.1181 234.678,-86.4472 237.579,-80.0764"/>
</g>
<!-- Node17 -->
<g id="node17" class="node"><title>Node17</title>
<polygon fill="none" stroke="#bfbfbf" points="300.596,-59 300.596,-79 359.404,-79 359.404,-59 300.596,-59"/>
<text text-anchor="middle" x="330" y="-65" font-family="Helvetica,sans-Serif" font-size="10.00">exception</text>
</g>
<!-- Node15&#45;&gt;Node17 -->
<g id="edge19" class="edge"><title>Node15&#45;&gt;Node17</title>
<path fill="none" stroke="midnightblue" d="M330,-116.753C330,-109.25 330,-98.4238 330,-89.0781"/>
<polygon fill="midnightblue" stroke="midnightblue" points="333.5,-89.0752 330,-79.0752 326.5,-89.0752 333.5,-89.0752"/>
</g>
<!-- Node18 -->
<g id="node18" class="node"><title>Node18</title>
<polygon fill="none" stroke="#bfbfbf" points="377.766,-59 377.766,-79 488.234,-79 488.234,-59 377.766,-59"/>
<text text-anchor="middle" x="433" y="-65" font-family="Helvetica,sans-Serif" font-size="10.00">RMF/internal/errors.h</text>
</g>
<!-- Node15&#45;&gt;Node18 -->
<g id="edge23" class="edge"><title>Node15&#45;&gt;Node18</title>
<path fill="none" stroke="midnightblue" d="M347.008,-116.753C363.432,-107.823 388.517,-94.1848 407.363,-83.9388"/>
<polygon fill="midnightblue" stroke="midnightblue" points="409.194,-86.9267 416.308,-79.0752 405.851,-80.7769 409.194,-86.9267"/>
</g>
</g>
</svg>
        <g id="navigator" transform="translate(0 0)" fill="#404254">
                <rect fill="#f2f5e9" fill-opacity="0.5" stroke="#606060" stroke-width=".5" x="0" y="0" width="60" height="60"/>
                <use id="zoomplus" xlink:href="#zoomPlus" x="17" y="9" onmousedown="handleZoom(evt,'in')"/>
                <use id="zoomminus" xlink:href="#zoomMin" x="42" y="9" onmousedown="handleZoom(evt,'out')"/>
                <use id="reset" xlink:href="#resetDef" x="30" y="36" onmousedown="handleReset()"/>
                <g id="arrowUp" xlink:href="#dirArrow" transform="translate(30 24)" onmousedown="handlePan(0,-1)">
                  <use xlink:href="#rim" fill="#404040">
                        <set attributeName="fill" to="#808080" begin="arrowUp.mouseover" end="arrowUp.mouseout"/>
                  </use>
                  <path fill="none" stroke="white" stroke-width="1.5" d="M0,-3.0v7 M-2.5,-0.5L0,-3.0L2.5,-0.5"/>
                </g>
                <g id="arrowRight" xlink:href="#dirArrow" transform="rotate(90) translate(36 -43)" onmousedown="handlePan(1,0)">
                  <use xlink:href="#rim" fill="#404040">
                        <set attributeName="fill" to="#808080" begin="arrowRight.mouseover" end="arrowRight.mouseout"/>
                  </use>
                  <path fill="none" stroke="white" stroke-width="1.5" d="M0,-3.0v7 M-2.5,-0.5L0,-3.0L2.5,-0.5"/>
                </g>
                <g id="arrowDown" xlink:href="#dirArrow" transform="rotate(180) translate(-30 -48)" onmousedown="handlePan(0,1)">
                  <use xlink:href="#rim" fill="#404040">
                        <set attributeName="fill" to="#808080" begin="arrowDown.mouseover" end="arrowDown.mouseout"/>
                  </use>
                  <path fill="none" stroke="white" stroke-width="1.5" d="M0,-3.0v7 M-2.5,-0.5L0,-3.0L2.5,-0.5"/>
                </g>
                <g id="arrowLeft" xlink:href="#dirArrow" transform="rotate(270) translate(-36 17)" onmousedown="handlePan(-1,0)">
                  <use xlink:href="#rim" fill="#404040">
                        <set attributeName="fill" to="#808080" begin="arrowLeft.mouseover" end="arrowLeft.mouseout"/>
                  </use>
                  <path fill="none" stroke="white" stroke-width="1.5" d="M0,-3.0v7 M-2.5,-0.5L0,-3.0L2.5,-0.5"/>
                </g>
        </g>
        <svg viewBox="0 0 15 15" width="100%" height="30px" preserveAspectRatio="xMaxYMin meet">
         <g id="arrow_out" transform="scale(0.3 0.3)">
          <a xlink:href="types_8h__incl_org.svg" target="_base">
           <rect id="button" ry="5" rx="5" y="6" x="6" height="38" width="38"
                fill="#f2f5e9" fill-opacity="0.5" stroke="#606060" stroke-width="1.0"/>
           <path id="arrow"
             d="M 11.500037,31.436501 C 11.940474,20.09759 22.043105,11.32322 32.158766,21.979434 L 37.068811,17.246167 C 37.068811,17.246167 37.088388,32 37.088388,32 L 22.160133,31.978069 C 22.160133,31.978069 26.997745,27.140456 26.997745,27.140456 C 18.528582,18.264221 13.291696,25.230495 11.500037,31.436501 z"
             style="fill:#404040;"/>
          </a>
         </g>
        </svg>
</svg>
