<?xml version="1.0" encoding="UTF-8" standalone="no"?>
<!DOCTYPE svg PUBLIC "-//W3C//DTD SVG 1.1//EN"
 "http://www.w3.org/Graphics/SVG/1.1/DTD/svg11.dtd">
<!-- Generated by graphviz version 2.36.0 (20140111.2315)
 -->
<!-- Title: types.h Pages: 1 -->
<svg width="1679pt" height="280pt"
 viewBox="0.00 0.00 1679.28 280.00" xmlns="http://www.w3.org/2000/svg" xmlns:xlink="http://www.w3.org/1999/xlink">
<g id="graph0" class="graph" transform="scale(1 1) rotate(0) translate(4 276)">
<title>types.h</title>
<!-- Node1 -->
<g id="node1" class="node"><title>Node1</title>
<polygon fill="#bfbfbf" stroke="black" points="1400.88,-253 1400.88,-271 1449.12,-271 1449.12,-253 1400.88,-253"/>
<text text-anchor="middle" x="1425" y="-259" font-family="Helvetica,sans-Serif" font-size="10.00">types.h</text>
</g>
<!-- Node2 -->
<g id="node2" class="node"><title>Node2</title>
<g id="a_node2"><a xlink:href="config_8h_source.html" target="_top" xlink:title="RMF/config.h">
<polygon fill="none" stroke="black" points="1061.27,-66 1061.27,-84 1136.73,-84 1136.73,-66 1061.27,-66"/>
<text text-anchor="middle" x="1099" y="-72" font-family="Helvetica,sans-Serif" font-size="10.00">RMF/config.h</text>
</a>
</g>
</g>
<!-- Node1&#45;&gt;Node2 -->
<g id="edge1" class="edge"><title>Node1&#45;&gt;Node2</title>
<path fill="none" stroke="midnightblue" d="M1449.14,-257.175C1520.95,-244.875 1724.14,-202.834 1658,-130 1623.93,-92.4826 1276.51,-80.2872 1147.17,-77.0291"/>
<polygon fill="midnightblue" stroke="midnightblue" points="1146.87,-73.5209 1136.79,-76.7752 1146.7,-80.5188 1146.87,-73.5209"/>
</g>
<!-- Node4 -->
<g id="node4" class="node"><title>Node4</title>
<g id="a_node4"><a xlink:href="Vector_8h.html" target="_top" xlink:title="Represent coordinates. ">
<polygon fill="none" stroke="black" points="1145.93,-197 1145.93,-215 1198.07,-215 1198.07,-197 1145.93,-197"/>
<text text-anchor="middle" x="1172" y="-203" font-family="Helvetica,sans-Serif" font-size="10.00">Vector.h</text>
</a>
</g>
</g>
<!-- Node1&#45;&gt;Node4 -->
<g id="edge3" class="edge"><title>Node1&#45;&gt;Node4</title>
<path fill="none" stroke="midnightblue" d="M1400.74,-255.822C1356.1,-246.294 1260.72,-225.937 1208.33,-214.754"/>
<polygon fill="midnightblue" stroke="midnightblue" points="1208.96,-211.31 1198.45,-212.646 1207.5,-218.156 1208.96,-211.31"/>
</g>
<!-- Node3 -->
<g id="node3" class="node"><title>Node3</title>
<g id="a_node3"><a xlink:href="compiler__macros_8h.html" target="_top" xlink:title="Various compiler workarounds. ">
<polygon fill="none" stroke="black" points="652.544,-1 652.544,-19 777.456,-19 777.456,-1 652.544,-1"/>
<text text-anchor="middle" x="715" y="-7" font-family="Helvetica,sans-Serif" font-size="10.00">RMF/compiler_macros.h</text>
</a>
</g>
</g>
<!-- Node2&#45;&gt;Node3 -->
<g id="edge2" class="edge"><title>Node2&#45;&gt;Node3</title>
<path fill="none" stroke="midnightblue" d="M1081.02,-65.9813C1072.39,-62.4304 1061.82,-58.5002 1052,-56 962.633,-33.2525 856.832,-21.5099 787.94,-15.8121"/>
<polygon fill="midnightblue" stroke="midnightblue" points="787.878,-12.2959 777.629,-14.9818 787.316,-19.2733 787.878,-12.2959"/>
</g>
<!-- Node4&#45;&gt;Node2 -->
<g id="edge4" class="edge"><title>Node4&#45;&gt;Node2</title>
<path fill="none" stroke="midnightblue" d="M1145.84,-205.486C1076.55,-206.156 891.012,-203.751 853,-160 806.175,-106.106 875.579,-143.274 1052,-94 1058.04,-92.3135 1064.38,-90.1585 1070.39,-87.9299"/>
<polygon fill="midnightblue" stroke="midnightblue" points="1072,-91.0578 1080.06,-84.1799 1069.47,-84.5311 1072,-91.0578"/>
</g>
<!-- Node5 -->
<g id="node5" class="node"><title>Node5</title>
<g id="a_node5"><a xlink:href="infrastructure__macros_8h.html" target="_top" xlink:title="Various general useful macros for IMP. ">
<polygon fill="none" stroke="black" points="405.48,-136 405.48,-154 526.52,-154 526.52,-136 405.48,-136"/>
<text text-anchor="middle" x="466" y="-142" font-family="Helvetica,sans-Serif" font-size="10.00">infrastructure_macros.h</text>
</a>
</g>
</g>
<!-- Node4&#45;&gt;Node5 -->
<g id="edge5" class="edge"><title>Node4&#45;&gt;Node5</title>
<path fill="none" stroke="midnightblue" d="M1145.61,-202.795C1045.9,-194.461 689.961,-164.716 536.855,-151.921"/>
<polygon fill="midnightblue" stroke="midnightblue" points="536.885,-148.412 526.628,-151.067 536.302,-155.387 536.885,-148.412"/>
</g>
<!-- Node14 -->
<g id="node14" class="node"><title>Node14</title>
<g id="a_node14"><a xlink:href="exceptions_8h.html" target="_top" xlink:title="Declarations of the various exception types. ">
<polygon fill="none" stroke="black" points="733.926,-136 733.926,-154 806.074,-154 806.074,-136 733.926,-136"/>
<text text-anchor="middle" x="770" y="-142" font-family="Helvetica,sans-Serif" font-size="10.00">exceptions.h</text>
</a>
</g>
</g>
<!-- Node4&#45;&gt;Node14 -->
<g id="edge15" class="edge"><title>Node4&#45;&gt;Node14</title>
<path fill="none" stroke="midnightblue" d="M1145.73,-202.961C1086.94,-198.111 940.457,-184.428 820,-160 815.454,-159.078 810.716,-157.961 806.046,-156.765"/>
<polygon fill="midnightblue" stroke="midnightblue" points="806.601,-153.29 796.034,-154.065 804.778,-160.048 806.601,-153.29"/>
</g>
<!-- Node18 -->
<g id="node18" class="node"><title>Node18</title>
<polygon fill="none" stroke="#bfbfbf" points="862.237,-136 862.237,-154 977.763,-154 977.763,-136 862.237,-136"/>
<text text-anchor="middle" x="920" y="-142" font-family="Helvetica,sans-Serif" font-size="10.00">boost/range/begin.hpp</text>
</g>
<!-- Node4&#45;&gt;Node18 -->
<g id="edge22" class="edge"><title>Node4&#45;&gt;Node18</title>
<path fill="none" stroke="midnightblue" d="M1145.51,-198.797C1102.5,-188.729 1017.04,-168.72 964.559,-156.432"/>
<polygon fill="midnightblue" stroke="midnightblue" points="965.059,-152.955 954.525,-154.083 963.463,-159.771 965.059,-152.955"/>
</g>
<!-- Node19 -->
<g id="node19" class="node"><title>Node19</title>
<polygon fill="none" stroke="#bfbfbf" points="996.128,-136 996.128,-154 1103.87,-154 1103.87,-136 996.128,-136"/>
<text text-anchor="middle" x="1050" y="-142" font-family="Helvetica,sans-Serif" font-size="10.00">boost/range/end.hpp</text>
</g>
<!-- Node4&#45;&gt;Node19 -->
<g id="edge23" class="edge"><title>Node4&#45;&gt;Node19</title>
<path fill="none" stroke="midnightblue" d="M1155.29,-196.92C1134.87,-187.045 1100.09,-170.223 1076.12,-158.633"/>
<polygon fill="midnightblue" stroke="midnightblue" points="1077.42,-155.375 1066.9,-154.172 1074.38,-161.676 1077.42,-155.375"/>
</g>
<!-- Node20 -->
<g id="node20" class="node"><title>Node20</title>
<polygon fill="none" stroke="#bfbfbf" points="1122.31,-131 1122.31,-159 1221.69,-159 1221.69,-131 1122.31,-131"/>
<text text-anchor="start" x="1130.31" y="-147" font-family="Helvetica,sans-Serif" font-size="10.00">boost/type_traits/is</text>
<text text-anchor="middle" x="1172" y="-137" font-family="Helvetica,sans-Serif" font-size="10.00">_convertible.hpp</text>
</g>
<!-- Node4&#45;&gt;Node20 -->
<g id="edge24" class="edge"><title>Node4&#45;&gt;Node20</title>
<path fill="none" stroke="midnightblue" d="M1172,-196.796C1172,-189.711 1172,-179.115 1172,-169.431"/>
<polygon fill="midnightblue" stroke="midnightblue" points="1175.5,-169.121 1172,-159.121 1168.5,-169.122 1175.5,-169.121"/>
</g>
<!-- Node21 -->
<g id="node21" class="node"><title>Node21</title>
<polygon fill="none" stroke="#bfbfbf" points="1239.25,-136 1239.25,-154 1334.75,-154 1334.75,-136 1239.25,-136"/>
<text text-anchor="middle" x="1287" y="-142" font-family="Helvetica,sans-Serif" font-size="10.00">boost/mpl/not.hpp</text>
</g>
<!-- Node4&#45;&gt;Node21 -->
<g id="edge25" class="edge"><title>Node4&#45;&gt;Node21</title>
<path fill="none" stroke="midnightblue" d="M1187.99,-196.796C1207.21,-186.933 1239.7,-170.269 1262.19,-158.731"/>
<polygon fill="midnightblue" stroke="midnightblue" points="1263.85,-161.813 1271.15,-154.134 1260.65,-155.585 1263.85,-161.813"/>
</g>
<!-- Node22 -->
<g id="node22" class="node"><title>Node22</title>
<polygon fill="none" stroke="#bfbfbf" points="1352.62,-136 1352.62,-154 1437.38,-154 1437.38,-136 1352.62,-136"/>
<text text-anchor="middle" x="1395" y="-142" font-family="Helvetica,sans-Serif" font-size="10.00">boost/array.hpp</text>
</g>
<!-- Node4&#45;&gt;Node22 -->
<g id="edge26" class="edge"><title>Node4&#45;&gt;Node22</title>
<path fill="none" stroke="midnightblue" d="M1198.09,-198.185C1231.63,-189.409 1291.68,-173.661 1343,-160 1347.07,-158.918 1351.31,-157.783 1355.54,-156.649"/>
<polygon fill="midnightblue" stroke="midnightblue" points="1356.56,-159.999 1365.31,-154.025 1354.74,-153.239 1356.56,-159.999"/>
</g>
<!-- Node23 -->
<g id="node23" class="node"><title>Node23</title>
<polygon fill="none" stroke="#bfbfbf" points="1455.58,-136 1455.58,-154 1574.42,-154 1574.42,-136 1455.58,-136"/>
<text text-anchor="middle" x="1515" y="-142" font-family="Helvetica,sans-Serif" font-size="10.00">boost/static_assert.hpp</text>
</g>
<!-- Node4&#45;&gt;Node23 -->
<g id="edge27" class="edge"><title>Node4&#45;&gt;Node23</title>
<path fill="none" stroke="midnightblue" d="M1198.12,-201.043C1246.92,-193.577 1355.2,-176.662 1446,-160 1452.7,-158.77 1459.76,-157.411 1466.7,-156.038"/>
<polygon fill="midnightblue" stroke="midnightblue" points="1467.61,-159.426 1476.73,-154.031 1466.23,-152.562 1467.61,-159.426"/>
</g>
<!-- Node24 -->
<g id="node24" class="node"><title>Node24</title>
<polygon fill="none" stroke="#bfbfbf" points="1592.44,-136 1592.44,-154 1649.56,-154 1649.56,-136 1592.44,-136"/>
<text text-anchor="middle" x="1621" y="-142" font-family="Helvetica,sans-Serif" font-size="10.00">algorithm</text>
</g>
<!-- Node4&#45;&gt;Node24 -->
<g id="edge28" class="edge"><title>Node4&#45;&gt;Node24</title>
<path fill="none" stroke="midnightblue" d="M1198.34,-204.334C1264.1,-202.197 1440.46,-193.529 1583,-160 1586.05,-159.283 1589.19,-158.391 1592.29,-157.407"/>
<polygon fill="midnightblue" stroke="midnightblue" points="1593.65,-160.641 1601.95,-154.052 1591.35,-154.029 1593.65,-160.641"/>
</g>
<!-- Node5&#45;&gt;Node3 -->
<g id="edge9" class="edge"><title>Node5&#45;&gt;Node3</title>
<path fill="none" stroke="midnightblue" d="M498.07,-135.983C526.129,-128.055 567.248,-114.174 599,-94 619.427,-81.022 618.744,-70.6585 638,-56 654.222,-43.6513 674.127,-32.1008 689.635,-23.7943"/>
<polygon fill="midnightblue" stroke="midnightblue" points="691.422,-26.8094 698.65,-19.0634 688.169,-20.611 691.422,-26.8094"/>
</g>
<!-- Node6 -->
<g id="node6" class="node"><title>Node6</title>
<polygon fill="none" stroke="#bfbfbf" points="333.219,-66 333.219,-84 384.781,-84 384.781,-66 333.219,-66"/>
<text text-anchor="middle" x="359" y="-72" font-family="Helvetica,sans-Serif" font-size="10.00">sstream</text>
</g>
<!-- Node5&#45;&gt;Node6 -->
<g id="edge6" class="edge"><title>Node5&#45;&gt;Node6</title>
<path fill="none" stroke="midnightblue" d="M453.306,-135.932C435.287,-124.481 402.063,-103.367 380.25,-89.5048"/>
<polygon fill="midnightblue" stroke="midnightblue" points="381.995,-86.4668 371.678,-84.057 378.241,-92.3747 381.995,-86.4668"/>
</g>
<!-- Node7 -->
<g id="node7" class="node"><title>Node7</title>
<polygon fill="none" stroke="#bfbfbf" points="402.828,-66 402.828,-84 457.172,-84 457.172,-66 402.828,-66"/>
<text text-anchor="middle" x="430" y="-72" font-family="Helvetica,sans-Serif" font-size="10.00">iostream</text>
</g>
<!-- Node5&#45;&gt;Node7 -->
<g id="edge7" class="edge"><title>Node5&#45;&gt;Node7</title>
<path fill="none" stroke="midnightblue" d="M461.729,-135.932C456.154,-125.401 446.252,-106.698 438.989,-92.9783"/>
<polygon fill="midnightblue" stroke="midnightblue" points="442.038,-91.2573 434.265,-84.057 435.851,-94.5325 442.038,-91.2573"/>
</g>
<!-- Node8 -->
<g id="node8" class="node"><title>Node8</title>
<polygon fill="none" stroke="#bfbfbf" points="646.773,-66 646.773,-84 687.227,-84 687.227,-66 646.773,-66"/>
<text text-anchor="middle" x="667" y="-72" font-family="Helvetica,sans-Serif" font-size="10.00">string</text>
</g>
<!-- Node5&#45;&gt;Node8 -->
<g id="edge8" class="edge"><title>Node5&#45;&gt;Node8</title>
<path fill="none" stroke="midnightblue" d="M499.937,-135.926C534.16,-127.302 588.193,-112.361 633,-94 636.612,-92.5201 640.346,-90.7779 643.959,-88.9702"/>
<polygon fill="midnightblue" stroke="midnightblue" points="645.857,-91.9265 653.071,-84.1677 642.593,-85.7339 645.857,-91.9265"/>
</g>
<!-- Node9 -->
<g id="node9" class="node"><title>Node9</title>
<polygon fill="none" stroke="black" points="475,-57 475,-93 529,-93 529,-57 475,-57"/>
<text text-anchor="middle" x="501.734" y="-72" font-family="Helvetica,sans-Serif" font-size="10.00">Node9</text>
</g>
<!-- Node5&#45;&gt;Node9 -->
<g id="edge10" class="edge"><title>Node5&#45;&gt;Node9</title>
<path fill="none" stroke="midnightblue" d="M470.271,-135.932C474.694,-127.578 481.839,-114.081 488.231,-102.009"/>
<polygon fill="midnightblue" stroke="midnightblue" points="491.328,-103.639 492.914,-93.1634 485.141,-100.364 491.328,-103.639"/>
</g>
<!-- Node10 -->
<g id="node10" class="node"><title>Node10</title>
<polygon fill="none" stroke="#bfbfbf" points="547.384,-66 547.384,-84 590.616,-84 590.616,-66 547.384,-66"/>
<text text-anchor="middle" x="569" y="-72" font-family="Helvetica,sans-Serif" font-size="10.00">vector</text>
</g>
<!-- Node5&#45;&gt;Node10 -->
<g id="edge11" class="edge"><title>Node5&#45;&gt;Node10</title>
<path fill="none" stroke="midnightblue" d="M478.22,-135.932C495.488,-124.532 527.261,-103.556 548.262,-89.6909"/>
<polygon fill="midnightblue" stroke="midnightblue" points="550.379,-92.4875 556.796,-84.057 546.522,-86.6457 550.379,-92.4875"/>
</g>
<!-- Node11 -->
<g id="node11" class="node"><title>Node11</title>
<polygon fill="none" stroke="#bfbfbf" points="-0.694336,-66 -0.694336,-84 88.6943,-84 88.6943,-66 -0.694336,-66"/>
<text text-anchor="middle" x="44" y="-72" font-family="Helvetica,sans-Serif" font-size="10.00">boost/config.hpp</text>
</g>
<!-- Node5&#45;&gt;Node11 -->
<g id="edge12" class="edge"><title>Node5&#45;&gt;Node11</title>
<path fill="none" stroke="midnightblue" d="M405.458,-139.265C332.011,-132.723 204.763,-118.817 98,-94 90.3034,-92.2109 82.1465,-89.7833 74.5678,-87.2907"/>
<polygon fill="midnightblue" stroke="midnightblue" points="75.6198,-83.9515 65.0252,-84.0247 73.353,-90.5743 75.6198,-83.9515"/>
</g>
<!-- Node12 -->
<g id="node12" class="node"><title>Node12</title>
<polygon fill="none" stroke="#bfbfbf" points="106.53,-66 106.53,-84 201.47,-84 201.47,-66 106.53,-66"/>
<text text-anchor="middle" x="154" y="-72" font-family="Helvetica,sans-Serif" font-size="10.00">boost/version.hpp</text>
</g>
<!-- Node5&#45;&gt;Node12 -->
<g id="edge13" class="edge"><title>Node5&#45;&gt;Node12</title>
<path fill="none" stroke="midnightblue" d="M415.573,-135.962C363.657,-127.265 280.606,-112.175 210,-94 202.367,-92.0352 194.247,-89.6191 186.626,-87.2023"/>
<polygon fill="midnightblue" stroke="midnightblue" points="187.572,-83.8295 176.98,-84.0628 185.406,-90.4858 187.572,-83.8295"/>
</g>
<!-- Node13 -->
<g id="node13" class="node"><title>Node13</title>
<polygon fill="none" stroke="#bfbfbf" points="218.971,-66 218.971,-84 315.029,-84 315.029,-66 218.971,-66"/>
<text text-anchor="middle" x="267" y="-72" font-family="Helvetica,sans-Serif" font-size="10.00">boost/foreach.hpp</text>
</g>
<!-- Node5&#45;&gt;Node13 -->
<g id="edge14" class="edge"><title>Node5&#45;&gt;Node13</title>
<path fill="none" stroke="midnightblue" d="M442.391,-135.932C407.083,-123.868 340.388,-101.077 300.192,-87.3419"/>
<polygon fill="midnightblue" stroke="midnightblue" points="301.173,-83.9786 290.579,-84.057 298.91,-90.6026 301.173,-83.9786"/>
</g>
<!-- Node14&#45;&gt;Node2 -->
<g id="edge19" class="edge"><title>Node14&#45;&gt;Node2</title>
<path fill="none" stroke="midnightblue" d="M796.321,-135.997C803.916,-133.86 812.247,-131.681 820,-130 921.976,-107.894 951.158,-120.81 1052,-94 1058.32,-92.3205 1064.96,-90.0853 1071.19,-87.7628"/>
<polygon fill="midnightblue" stroke="midnightblue" points="1072.5,-91.0068 1080.55,-84.1084 1069.96,-84.4865 1072.5,-91.0068"/>
</g>
<!-- Node14&#45;&gt;Node3 -->
<g id="edge20" class="edge"><title>Node14&#45;&gt;Node3</title>
<path fill="none" stroke="midnightblue" d="M762.492,-135.805C754.279,-126.4 741.314,-110.18 734,-94 724.501,-72.9864 719.524,-46.7621 717.084,-29.4808"/>
<polygon fill="midnightblue" stroke="midnightblue" points="720.501,-28.6025 715.777,-19.1195 713.557,-29.479 720.501,-28.6025"/>
</g>
<!-- Node14&#45;&gt;Node8 -->
<g id="edge18" class="edge"><title>Node14&#45;&gt;Node8</title>
<path fill="none" stroke="midnightblue" d="M757.78,-135.932C740.512,-124.532 708.739,-103.556 687.738,-89.6909"/>
<polygon fill="midnightblue" stroke="midnightblue" points="689.478,-86.6457 679.204,-84.057 685.621,-92.4875 689.478,-86.6457"/>
</g>
<!-- Node15 -->
<g id="node15" class="node"><title>Node15</title>
<polygon fill="none" stroke="#bfbfbf" points="815.451,-66 815.451,-84 966.549,-84 966.549,-66 815.451,-66"/>
<text text-anchor="middle" x="891" y="-72" font-family="Helvetica,sans-Serif" font-size="10.00">boost/exception/exception.hpp</text>
</g>
<!-- Node14&#45;&gt;Node15 -->
<g id="edge16" class="edge"><title>Node14&#45;&gt;Node15</title>
<path fill="none" stroke="midnightblue" d="M784.355,-135.932C804.914,-124.379 842.975,-102.989 867.627,-89.1352"/>
<polygon fill="midnightblue" stroke="midnightblue" points="869.66,-92.0075 876.663,-84.057 866.231,-85.9051 869.66,-92.0075"/>
</g>
<!-- Node16 -->
<g id="node16" class="node"><title>Node16</title>
<polygon fill="none" stroke="#bfbfbf" points="984.596,-66 984.596,-84 1043.4,-84 1043.4,-66 984.596,-66"/>
<text text-anchor="middle" x="1014" y="-72" font-family="Helvetica,sans-Serif" font-size="10.00">exception</text>
</g>
<!-- Node14&#45;&gt;Node16 -->
<g id="edge17" class="edge"><title>Node14&#45;&gt;Node16</title>
<path fill="none" stroke="midnightblue" d="M797.972,-135.93C805.136,-133.928 812.839,-131.833 820,-130 888.513,-112.461 908.101,-116.938 975,-94 979.691,-92.3916 984.576,-90.4042 989.239,-88.3433"/>
<polygon fill="midnightblue" stroke="midnightblue" points="990.766,-91.4932 998.362,-84.1074 987.818,-85.1441 990.766,-91.4932"/>
</g>
<!-- Node17 -->
<g id="node17" class="node"><title>Node17</title>
<polygon fill="none" stroke="black" points="743,-57 743,-93 797,-93 797,-57 743,-57"/>
<text text-anchor="middle" x="769.515" y="-72" font-family="Helvetica,sans-Serif" font-size="10.00">Node17</text>
</g>
<!-- Node14&#45;&gt;Node17 -->
<g id="edge21" class="edge"><title>Node14&#45;&gt;Node17</title>
<path fill="none" stroke="midnightblue" d="M770,-135.932C770,-127.906 770,-115.132 770,-103.435"/>
<polygon fill="midnightblue" stroke="midnightblue" points="773.5,-103.163 770,-93.1634 766.5,-103.163 773.5,-103.163"/>
</g>
</g>
</svg>
