<?xml version="1.0" encoding="UTF-8" standalone="no"?>
<!DOCTYPE svg PUBLIC "-//W3C//DTD SVG 1.1//EN"
 "http://www.w3.org/Graphics/SVG/1.1/DTD/svg11.dtd">
<!-- Generated by graphviz version 2.34.0 (20131025.1349)
 -->
<!-- Title: types.h Pages: 1 -->
<svg width="1223pt" height="320pt"
 viewBox="0.00 0.00 1223.00 320.00" xmlns="http://www.w3.org/2000/svg" xmlns:xlink="http://www.w3.org/1999/xlink">
<g id="graph0" class="graph" transform="scale(1 1) rotate(0) translate(4 316)">
<title>types.h</title>
<!-- Node1 -->
<g id="node1" class="node"><title>Node1</title>
<polygon fill="#bfbfbf" stroke="black" points="53.8794,-291 53.8794,-311 102.121,-311 102.121,-291 53.8794,-291"/>
<text text-anchor="middle" x="78" y="-297" font-family="Helvetica,sans-Serif" font-size="10.00">types.h</text>
</g>
<!-- Node2 -->
<g id="node2" class="node"><title>Node2</title>
<g id="a_node2"><a xlink:href="config_8h_source.html" target="_top" xlink:title="RMF/config.h">
<polygon fill="none" stroke="black" points="-0.731445,-59 -0.731445,-79 74.7314,-79 74.7314,-59 -0.731445,-59"/>
<text text-anchor="middle" x="37" y="-65" font-family="Helvetica,sans-Serif" font-size="10.00">RMF/config.h</text>
</a>
</g>
</g>
<!-- Node1&#45;&gt;Node2 -->
<g id="edge1" class="edge"><title>Node1&#45;&gt;Node2</title>
<path fill="none" stroke="midnightblue" d="M72.4632,-290.857C67.283,-281.83 59.7914,-267.463 56,-254 39.5694,-195.655 37.0387,-123.323 36.843,-89.3445"/>
<polygon fill="midnightblue" stroke="midnightblue" points="40.3432,-89.0145 36.8522,-79.0114 33.3432,-89.0082 40.3432,-89.0145"/>
</g>
<!-- Node4 -->
<g id="node4" class="node"><title>Node4</title>
<g id="a_node4"><a xlink:href="default__types_8h.html" target="_top" xlink:title="Default implementation for types.h. ">
<polygon fill="none" stroke="black" points="64.8672,-233 64.8672,-253 173.133,-253 173.133,-233 64.8672,-233"/>
<text text-anchor="middle" x="119" y="-239" font-family="Helvetica,sans-Serif" font-size="10.00">RMF/default_types.h</text>
</a>
</g>
</g>
<!-- Node1&#45;&gt;Node4 -->
<g id="edge3" class="edge"><title>Node1&#45;&gt;Node4</title>
<path fill="none" stroke="midnightblue" d="M84.7703,-290.753C90.6213,-282.761 99.2339,-270.998 106.356,-261.27"/>
<polygon fill="midnightblue" stroke="midnightblue" points="109.272,-263.211 112.356,-253.075 103.624,-259.076 109.272,-263.211"/>
</g>
<!-- Node3 -->
<g id="node3" class="node"><title>Node3</title>
<g id="a_node3"><a xlink:href="compiler__macros_8h.html" target="_top" xlink:title="Various compiler workarounds. ">
<polygon fill="none" stroke="black" points="40.5444,-1 40.5444,-21 165.456,-21 165.456,-1 40.5444,-1"/>
<text text-anchor="middle" x="103" y="-7" font-family="Helvetica,sans-Serif" font-size="10.00">RMF/compiler_macros.h</text>
</a>
</g>
</g>
<!-- Node2&#45;&gt;Node3 -->
<g id="edge2" class="edge"><title>Node2&#45;&gt;Node3</title>
<path fill="none" stroke="midnightblue" d="M47.8986,-58.7527C57.7978,-50.3534 72.6078,-37.7874 84.3814,-27.7976"/>
<polygon fill="midnightblue" stroke="midnightblue" points="86.9436,-30.2138 92.3042,-21.0752 82.4147,-24.8762 86.9436,-30.2138"/>
</g>
<!-- Node4&#45;&gt;Node2 -->
<g id="edge4" class="edge"><title>Node4&#45;&gt;Node2</title>
<path fill="none" stroke="midnightblue" d="M114.591,-232.753C101.577,-205.454 63.1496,-124.85 45.7438,-88.3406"/>
<polygon fill="midnightblue" stroke="midnightblue" points="48.8933,-86.8136 41.4305,-79.2932 42.5746,-89.8261 48.8933,-86.8136"/>
</g>
<!-- Node5 -->
<g id="node5" class="node"><title>Node5</title>
<g id="a_node5"><a xlink:href="Vector_8h.html" target="_top" xlink:title="Represent coordinates. ">
<polygon fill="none" stroke="black" points="198.926,-175 198.926,-195 251.074,-195 251.074,-175 198.926,-175"/>
<text text-anchor="middle" x="225" y="-181" font-family="Helvetica,sans-Serif" font-size="10.00">Vector.h</text>
</a>
</g>
</g>
<!-- Node4&#45;&gt;Node5 -->
<g id="edge5" class="edge"><title>Node4&#45;&gt;Node5</title>
<path fill="none" stroke="midnightblue" d="M136.504,-232.753C153.483,-223.783 179.458,-210.06 198.881,-199.799"/>
<polygon fill="midnightblue" stroke="midnightblue" points="200.615,-202.841 207.822,-195.075 197.345,-196.652 200.615,-202.841"/>
</g>
<!-- Node5&#45;&gt;Node2 -->
<g id="edge6" class="edge"><title>Node5&#45;&gt;Node2</title>
<path fill="none" stroke="midnightblue" d="M210.469,-174.883C189.475,-161.743 149.402,-136.775 115,-116 97.1685,-105.232 76.9002,-93.2878 61.4944,-84.2695"/>
<polygon fill="midnightblue" stroke="midnightblue" points="62.9955,-81.0929 52.5957,-79.0691 59.4635,-87.1366 62.9955,-81.0929"/>
</g>
<!-- Node6 -->
<g id="node6" class="node"><title>Node6</title>
<g id="a_node6"><a xlink:href="infrastructure__macros_8h.html" target="_top" xlink:title="Various general useful macros for IMP. ">
<polygon fill="none" stroke="black" points="638.48,-117 638.48,-137 759.52,-137 759.52,-117 638.48,-117"/>
<text text-anchor="middle" x="699" y="-123" font-family="Helvetica,sans-Serif" font-size="10.00">infrastructure_macros.h</text>
</a>
</g>
</g>
<!-- Node5&#45;&gt;Node6 -->
<g id="edge7" class="edge"><title>Node5&#45;&gt;Node6</title>
<path fill="none" stroke="midnightblue" d="M251.159,-180.909C322.229,-172.513 520.721,-149.062 628.014,-136.387"/>
<polygon fill="midnightblue" stroke="midnightblue" points="628.585,-139.844 638.105,-135.194 627.764,-132.892 628.585,-139.844"/>
</g>
<!-- Node15 -->
<g id="node15" class="node"><title>Node15</title>
<g id="a_node15"><a xlink:href="exceptions_8h.html" target="_top" xlink:title="Various general useful macros for IMP. ">
<polygon fill="none" stroke="black" points="188.926,-117 188.926,-137 261.074,-137 261.074,-117 188.926,-117"/>
<text text-anchor="middle" x="225" y="-123" font-family="Helvetica,sans-Serif" font-size="10.00">exceptions.h</text>
</a>
</g>
</g>
<!-- Node5&#45;&gt;Node15 -->
<g id="edge17" class="edge"><title>Node5&#45;&gt;Node15</title>
<path fill="none" stroke="midnightblue" d="M225,-174.753C225,-167.25 225,-156.424 225,-147.078"/>
<polygon fill="midnightblue" stroke="midnightblue" points="228.5,-147.075 225,-137.075 221.5,-147.075 228.5,-147.075"/>
</g>
<!-- Node19 -->
<g id="node19" class="node"><title>Node19</title>
<polygon fill="none" stroke="#bfbfbf" points="777.436,-117 777.436,-137 834.564,-137 834.564,-117 777.436,-117"/>
<text text-anchor="middle" x="806" y="-123" font-family="Helvetica,sans-Serif" font-size="10.00">algorithm</text>
</g>
<!-- Node5&#45;&gt;Node19 -->
<g id="edge24" class="edge"><title>Node5&#45;&gt;Node19</title>
<path fill="none" stroke="midnightblue" d="M251.201,-183.383C328.693,-181.222 563.55,-172.249 767.093,-137.874"/>
<polygon fill="midnightblue" stroke="midnightblue" points="767.802,-141.304 777.067,-136.165 766.62,-134.405 767.802,-141.304"/>
</g>
<!-- Node6&#45;&gt;Node3 -->
<g id="edge11" class="edge"><title>Node6&#45;&gt;Node3</title>
<path fill="none" stroke="midnightblue" d="M675.904,-116.878C654.192,-108.091 620.942,-94.0926 593,-80 575.576,-71.2121 573.566,-64.011 555,-58 486.392,-35.7875 285.194,-21.8382 175.817,-15.6801"/>
<polygon fill="midnightblue" stroke="midnightblue" points="175.705,-12.1686 165.526,-15.1085 175.317,-19.1578 175.705,-12.1686"/>
</g>
<!-- Node7 -->
<g id="node7" class="node"><title>Node7</title>
<polygon fill="none" stroke="#bfbfbf" points="602.219,-59 602.219,-79 653.781,-79 653.781,-59 602.219,-59"/>
<text text-anchor="middle" x="628" y="-65" font-family="Helvetica,sans-Serif" font-size="10.00">sstream</text>
</g>
<!-- Node6&#45;&gt;Node7 -->
<g id="edge8" class="edge"><title>Node6&#45;&gt;Node7</title>
<path fill="none" stroke="midnightblue" d="M687.276,-116.753C676.523,-108.272 660.385,-95.543 647.661,-85.5073"/>
<polygon fill="midnightblue" stroke="midnightblue" points="649.525,-82.52 639.506,-79.0752 645.19,-88.0162 649.525,-82.52"/>
</g>
<!-- Node8 -->
<g id="node8" class="node"><title>Node8</title>
<polygon fill="none" stroke="#bfbfbf" points="671.828,-59 671.828,-79 726.172,-79 726.172,-59 671.828,-59"/>
<text text-anchor="middle" x="699" y="-65" font-family="Helvetica,sans-Serif" font-size="10.00">iostream</text>
</g>
<!-- Node6&#45;&gt;Node8 -->
<g id="edge9" class="edge"><title>Node6&#45;&gt;Node8</title>
<path fill="none" stroke="midnightblue" d="M699,-116.753C699,-109.25 699,-98.4238 699,-89.0781"/>
<polygon fill="midnightblue" stroke="midnightblue" points="702.5,-89.0752 699,-79.0752 695.5,-89.0752 702.5,-89.0752"/>
</g>
<!-- Node9 -->
<g id="node9" class="node"><title>Node9</title>
<polygon fill="none" stroke="#bfbfbf" points="505.773,-59 505.773,-79 546.227,-79 546.227,-59 505.773,-59"/>
<text text-anchor="middle" x="526" y="-65" font-family="Helvetica,sans-Serif" font-size="10.00">string</text>
</g>
<!-- Node6&#45;&gt;Node9 -->
<g id="edge10" class="edge"><title>Node6&#45;&gt;Node9</title>
<path fill="none" stroke="midnightblue" d="M670.82,-116.878C639.285,-106.67 588.395,-90.1972 556.1,-79.7433"/>
<polygon fill="midnightblue" stroke="midnightblue" points="556.908,-76.3261 546.316,-76.5763 554.752,-82.9859 556.908,-76.3261"/>
</g>
<!-- Node10 -->
<g id="node10" class="node"><title>Node10</title>
<polygon fill="none" stroke="#bfbfbf" points="743.98,-59 743.98,-79 820.02,-79 820.02,-59 743.98,-59"/>
<text text-anchor="middle" x="782" y="-65" font-family="Helvetica,sans-Serif" font-size="10.00">internal/use.h</text>
</g>
<!-- Node6&#45;&gt;Node10 -->
<g id="edge12" class="edge"><title>Node6&#45;&gt;Node10</title>
<path fill="none" stroke="midnightblue" d="M712.706,-116.753C725.517,-108.109 744.87,-95.0518 759.87,-84.9314"/>
<polygon fill="midnightblue" stroke="midnightblue" points="762.217,-87.5696 768.549,-79.0752 758.302,-81.7669 762.217,-87.5696"/>
</g>
<!-- Node11 -->
<g id="node11" class="node"><title>Node11</title>
<polygon fill="none" stroke="#bfbfbf" points="838.306,-59 838.306,-79 927.694,-79 927.694,-59 838.306,-59"/>
<text text-anchor="middle" x="883" y="-65" font-family="Helvetica,sans-Serif" font-size="10.00">boost/config.hpp</text>
</g>
<!-- Node6&#45;&gt;Node11 -->
<g id="edge13" class="edge"><title>Node6&#45;&gt;Node11</title>
<path fill="none" stroke="midnightblue" d="M728.972,-116.878C760.207,-107.372 809.296,-92.4317 843.638,-81.9798"/>
<polygon fill="midnightblue" stroke="midnightblue" points="844.798,-85.2854 853.345,-79.0253 842.76,-78.5886 844.798,-85.2854"/>
</g>
<!-- Node12 -->
<g id="node12" class="node"><title>Node12</title>
<polygon fill="none" stroke="#bfbfbf" points="945.53,-59 945.53,-79 1040.47,-79 1040.47,-59 945.53,-59"/>
<text text-anchor="middle" x="993" y="-65" font-family="Helvetica,sans-Serif" font-size="10.00">boost/version.hpp</text>
</g>
<!-- Node6&#45;&gt;Node12 -->
<g id="edge14" class="edge"><title>Node6&#45;&gt;Node12</title>
<path fill="none" stroke="midnightblue" d="M746.563,-116.94C798.122,-107.12 880.405,-91.4467 935.54,-80.9448"/>
<polygon fill="midnightblue" stroke="midnightblue" points="936.337,-84.356 945.505,-79.0466 935.027,-77.4796 936.337,-84.356"/>
</g>
<!-- Node13 -->
<g id="node13" class="node"><title>Node13</title>
<polygon fill="none" stroke="#bfbfbf" points="1057.97,-59 1057.97,-79 1154.03,-79 1154.03,-59 1057.97,-59"/>
<text text-anchor="middle" x="1106" y="-65" font-family="Helvetica,sans-Serif" font-size="10.00">boost/foreach.hpp</text>
</g>
<!-- Node6&#45;&gt;Node13 -->
<g id="edge15" class="edge"><title>Node6&#45;&gt;Node13</title>
<path fill="none" stroke="midnightblue" d="M759.574,-117.163C762.422,-116.766 765.242,-116.377 768,-116 889.585,-99.4023 922.842,-98.8989 1047.86,-80.1189"/>
<polygon fill="midnightblue" stroke="midnightblue" points="1048.46,-83.5686 1057.82,-78.6133 1047.41,-76.6472 1048.46,-83.5686"/>
</g>
<!-- Node14 -->
<g id="node14" class="node"><title>Node14</title>
<polygon fill="none" stroke="#bfbfbf" points="1172.38,-59 1172.38,-79 1215.62,-79 1215.62,-59 1172.38,-59"/>
<text text-anchor="middle" x="1194" y="-65" font-family="Helvetica,sans-Serif" font-size="10.00">vector</text>
</g>
<!-- Node6&#45;&gt;Node14 -->
<g id="edge16" class="edge"><title>Node6&#45;&gt;Node14</title>
<path fill="none" stroke="midnightblue" d="M759.558,-117.038C762.41,-116.674 765.235,-116.326 768,-116 939.821,-95.7338 988.486,-114.55 1162.16,-79.7437"/>
<polygon fill="midnightblue" stroke="midnightblue" points="1163.04,-83.1355 1172.14,-77.7115 1161.65,-76.2761 1163.04,-83.1355"/>
</g>
<!-- Node15&#45;&gt;Node2 -->
<g id="edge21" class="edge"><title>Node15&#45;&gt;Node2</title>
<path fill="none" stroke="midnightblue" d="M194.376,-116.878C162.463,-107.372 112.306,-92.4317 77.2178,-81.9798"/>
<polygon fill="midnightblue" stroke="midnightblue" points="77.8823,-78.5258 67.2992,-79.0253 75.8839,-85.2345 77.8823,-78.5258"/>
</g>
<!-- Node15&#45;&gt;Node3 -->
<g id="edge22" class="edge"><title>Node15&#45;&gt;Node3</title>
<path fill="none" stroke="midnightblue" d="M188.795,-118.157C166.555,-111.546 139.138,-99.8739 122,-80 110.263,-66.389 105.738,-46.0623 104.014,-31.1779"/>
<polygon fill="midnightblue" stroke="midnightblue" points="107.489,-30.7317 103.168,-21.0578 100.513,-31.3145 107.489,-30.7317"/>
</g>
<!-- Node15&#45;&gt;Node9 -->
<g id="edge20" class="edge"><title>Node15&#45;&gt;Node9</title>
<path fill="none" stroke="midnightblue" d="M261.475,-121.771C312.148,-115.474 406.776,-102.198 495.573,-80.0529"/>
<polygon fill="midnightblue" stroke="midnightblue" points="496.7,-83.3778 505.532,-77.525 494.978,-76.5929 496.7,-83.3778"/>
</g>
<!-- Node16 -->
<g id="node16" class="node"><title>Node16</title>
<polygon fill="none" stroke="#bfbfbf" points="131.451,-59 131.451,-79 282.549,-79 282.549,-59 131.451,-59"/>
<text text-anchor="middle" x="207" y="-65" font-family="Helvetica,sans-Serif" font-size="10.00">boost/exception/exception.hpp</text>
</g>
<!-- Node15&#45;&gt;Node16 -->
<g id="edge18" class="edge"><title>Node15&#45;&gt;Node16</title>
<path fill="none" stroke="midnightblue" d="M222.028,-116.753C219.59,-109.169 216.06,-98.1881 213.034,-88.7739"/>
<polygon fill="midnightblue" stroke="midnightblue" points="216.309,-87.5244 209.917,-79.0752 209.645,-89.6665 216.309,-87.5244"/>
</g>
<!-- Node17 -->
<g id="node17" class="node"><title>Node17</title>
<polygon fill="none" stroke="#bfbfbf" points="300.596,-59 300.596,-79 359.404,-79 359.404,-59 300.596,-59"/>
<text text-anchor="middle" x="330" y="-65" font-family="Helvetica,sans-Serif" font-size="10.00">exception</text>
</g>
<!-- Node15&#45;&gt;Node17 -->
<g id="edge19" class="edge"><title>Node15&#45;&gt;Node17</title>
<path fill="none" stroke="midnightblue" d="M242.339,-116.753C259.158,-107.783 284.887,-94.0601 304.128,-83.7986"/>
<polygon fill="midnightblue" stroke="midnightblue" points="305.808,-86.8694 312.984,-79.0752 302.513,-80.6929 305.808,-86.8694"/>
</g>
<!-- Node18 -->
<g id="node18" class="node"><title>Node18</title>
<polygon fill="none" stroke="#bfbfbf" points="377.766,-59 377.766,-79 488.234,-79 488.234,-59 377.766,-59"/>
<text text-anchor="middle" x="433" y="-65" font-family="Helvetica,sans-Serif" font-size="10.00">RMF/internal/errors.h</text>
</g>
<!-- Node15&#45;&gt;Node18 -->
<g id="edge23" class="edge"><title>Node15&#45;&gt;Node18</title>
<path fill="none" stroke="midnightblue" d="M258.882,-116.878C294.493,-107.29 350.637,-92.1748 389.5,-81.7116"/>
<polygon fill="midnightblue" stroke="midnightblue" points="390.731,-85.0048 399.477,-79.0253 388.911,-78.2455 390.731,-85.0048"/>
</g>
</g>
</svg>
