<?xml version="1.0" encoding="UTF-8" standalone="no"?>
<!DOCTYPE svg PUBLIC "-//W3C//DTD SVG 1.1//EN"
 "http://www.w3.org/Graphics/SVG/1.1/DTD/svg11.dtd">
<!-- Generated by graphviz version 2.36.0 (20140111.2315)
 -->
<!-- Title: types.h Pages: 1 -->
<!--zoomable 262 -->
<svg id="main" version="1.1" xmlns="http://www.w3.org/2000/svg" xmlns:xlink="http://www.w3.org/1999/xlink" xml:space="preserve" onload="init(evt)">
<style type="text/css"><![CDATA[
.edge:hover path { stroke: red; }
.edge:hover polygon { stroke: red; fill: red; }
]]></style>
<script type="text/javascript"><![CDATA[
var edges = document.getElementsByTagName('g');
if (edges && edges.length) {
  for (var i=0;i<edges.length;i++) {
    if (edges[i].id.substr(0,4)=='edge') {
      edges[i].setAttribute('class','edge');
    }
  }
}
]]></script>
        <defs>
                <circle id="rim" cx="0" cy="0" r="7"/>
                <circle id="rim2" cx="0" cy="0" r="3.5"/>
                <g id="zoomPlus">
                        <use xlink:href="#rim" fill="#404040">
                                <set attributeName="fill" to="#808080" begin="zoomplus.mouseover" end="zoomplus.mouseout"/>
                        </use>
                        <path d="M-4,0h8M0,-4v8" fill="none" stroke="white" stroke-width="1.5" pointer-events="none"/>
                </g>
                <g id="zoomMin">
                        <use xlink:href="#rim" fill="#404040">
                                <set attributeName="fill" to="#808080" begin="zoomminus.mouseover" end="zoomminus.mouseout"/>
                        </use>
                        <path d="M-4,0h8" fill="none" stroke="white" stroke-width="1.5" pointer-events="none"/>
                </g>
                <g id="dirArrow">
                        <path fill="none" stroke="white" stroke-width="1.5" d="M0,-3.0v7 M-2.5,-0.5L0,-3.0L2.5,-0.5"/>
                </g>
               <g id="resetDef">
                       <use xlink:href="#rim2" fill="#404040">
                               <set attributeName="fill" to="#808080" begin="reset.mouseover" end="reset.mouseout"/>
                       </use>
               </g>
        </defs>

<script type="text/javascript">
var viewWidth = 1373;
var viewHeight = 262;
var sectionId = 'dynsection-0';
</script>
<script xlink:href="svgpan.js"/>
<svg id="graph" class="graph">
<g id="viewport">
<title>types.h</title>
<!-- Node1 -->
<g id="node1" class="node"><title>Node1</title>
<polygon fill="#bfbfbf" stroke="black" points="388.879,-235 388.879,-253 437.121,-253 437.121,-235 388.879,-235"/>
<text text-anchor="middle" x="413" y="-241" font-family="Helvetica,sans-Serif" font-size="10.00">types.h</text>
</g>
<!-- Node2 -->
<g id="node2" class="node"><title>Node2</title>
<g id="a_node2"><a xlink:href="config_8h_source.html" target="_top" xlink:title="RMF/config.h">
<polygon fill="none" stroke="black" points="-0.731445,-57 -0.731445,-75 74.7314,-75 74.7314,-57 -0.731445,-57"/>
<text text-anchor="middle" x="37" y="-63" font-family="Helvetica,sans-Serif" font-size="10.00">RMF/config.h</text>
</a>
</g>
</g>
<!-- Node1&#45;&gt;Node2 -->
<g id="edge1" class="edge"><title>Node1&#45;&gt;Node2</title>
<path fill="none" stroke="midnightblue" d="M388.522,-235.43C341.42,-220.455 235.453,-184.766 152,-142 116.39,-123.751 78.0318,-97.1854 55.8421,-81.0572"/>
<polygon fill="midnightblue" stroke="midnightblue" points="57.7724,-78.1324 47.6406,-75.0344 53.6291,-83.7745 57.7724,-78.1324"/>
</g>
<!-- Node4 -->
<g id="node4" class="node"><title>Node4</title>
<g id="a_node4"><a xlink:href="Vector_8h.html" target="_top" xlink:title="Represent coordinates. ">
<polygon fill="none" stroke="black" points="739.926,-179 739.926,-197 792.074,-197 792.074,-179 739.926,-179"/>
<text text-anchor="middle" x="766" y="-185" font-family="Helvetica,sans-Serif" font-size="10.00">Vector.h</text>
</a>
</g>
</g>
<!-- Node1&#45;&gt;Node4 -->
<g id="edge3" class="edge"><title>Node1&#45;&gt;Node4</title>
<path fill="none" stroke="midnightblue" d="M437.263,-239.288C498.134,-229.977 657.589,-205.584 729.681,-194.556"/>
<polygon fill="midnightblue" stroke="midnightblue" points="730.306,-198.001 739.662,-193.029 729.247,-191.082 730.306,-198.001"/>
</g>
<!-- Node3 -->
<g id="node3" class="node"><title>Node3</title>
<g id="a_node3"><a xlink:href="compiler__macros_8h.html" target="_top" xlink:title="Various compiler workarounds. ">
<polygon fill="none" stroke="black" points="40.5444,-1 40.5444,-19 165.456,-19 165.456,-1 40.5444,-1"/>
<text text-anchor="middle" x="103" y="-7" font-family="Helvetica,sans-Serif" font-size="10.00">RMF/compiler_macros.h</text>
</a>
</g>
</g>
<!-- Node2&#45;&gt;Node3 -->
<g id="edge2" class="edge"><title>Node2&#45;&gt;Node3</title>
<path fill="none" stroke="midnightblue" d="M47.024,-56.7986C57.1031,-48.552 72.859,-35.6608 85.0902,-25.6535"/>
<polygon fill="midnightblue" stroke="midnightblue" points="87.3584,-28.3199 92.8817,-19.2786 82.9257,-22.9022 87.3584,-28.3199"/>
</g>
<!-- Node4&#45;&gt;Node2 -->
<g id="edge4" class="edge"><title>Node4&#45;&gt;Node2</title>
<path fill="none" stroke="midnightblue" d="M739.665,-186.815C664.246,-185.824 441.29,-179.671 261,-142 188.715,-126.896 107.296,-95.9344 65.354,-78.8952"/>
<polygon fill="midnightblue" stroke="midnightblue" points="66.6332,-75.637 56.053,-75.081 63.9772,-82.1136 66.6332,-75.637"/>
</g>
<!-- Node5 -->
<g id="node5" class="node"><title>Node5</title>
<g id="a_node5"><a xlink:href="infrastructure__macros_8h.html" target="_top" xlink:title="Various general useful macros for IMP. ">
<polygon fill="none" stroke="black" points="439.48,-118 439.48,-136 560.52,-136 560.52,-118 439.48,-118"/>
<text text-anchor="middle" x="500" y="-124" font-family="Helvetica,sans-Serif" font-size="10.00">infrastructure_macros.h</text>
</a>
</g>
</g>
<!-- Node4&#45;&gt;Node5 -->
<g id="edge5" class="edge"><title>Node4&#45;&gt;Node5</title>
<path fill="none" stroke="midnightblue" d="M739.522,-181.127C694.492,-171.139 602.447,-150.723 546.49,-138.312"/>
<polygon fill="midnightblue" stroke="midnightblue" points="547.001,-134.84 536.481,-136.092 545.485,-141.674 547.001,-134.84"/>
</g>
<!-- Node14 -->
<g id="node13" class="node"><title>Node14</title>
<g id="a_node13"><a xlink:href="exceptions_8h.html" target="_top" xlink:title="Declarations of the various exception types. ">
<polygon fill="none" stroke="black" points="269.926,-118 269.926,-136 342.074,-136 342.074,-118 269.926,-118"/>
<text text-anchor="middle" x="306" y="-124" font-family="Helvetica,sans-Serif" font-size="10.00">exceptions.h</text>
</a>
</g>
</g>
<!-- Node4&#45;&gt;Node14 -->
<g id="edge14" class="edge"><title>Node4&#45;&gt;Node14</title>
<path fill="none" stroke="midnightblue" d="M739.616,-183.616C664.281,-173.953 447.486,-146.147 352.042,-133.905"/>
<polygon fill="midnightblue" stroke="midnightblue" points="352.469,-130.432 342.105,-132.631 351.579,-137.375 352.469,-130.432"/>
</g>
<!-- Node18 -->
<g id="node16" class="node"><title>Node18</title>
<polygon fill="none" stroke="#bfbfbf" points="578.237,-118 578.237,-136 693.763,-136 693.763,-118 578.237,-118"/>
<text text-anchor="middle" x="636" y="-124" font-family="Helvetica,sans-Serif" font-size="10.00">boost/range/begin.hpp</text>
</g>
<!-- Node4&#45;&gt;Node18 -->
<g id="edge20" class="edge"><title>Node4&#45;&gt;Node18</title>
<path fill="none" stroke="midnightblue" d="M748.197,-178.92C726.245,-168.957 688.713,-151.923 663.156,-140.325"/>
<polygon fill="midnightblue" stroke="midnightblue" points="664.558,-137.117 654.006,-136.172 661.665,-143.492 664.558,-137.117"/>
</g>
<!-- Node19 -->
<g id="node17" class="node"><title>Node19</title>
<polygon fill="none" stroke="#bfbfbf" points="712.128,-118 712.128,-136 819.872,-136 819.872,-118 712.128,-118"/>
<text text-anchor="middle" x="766" y="-124" font-family="Helvetica,sans-Serif" font-size="10.00">boost/range/end.hpp</text>
</g>
<!-- Node4&#45;&gt;Node19 -->
<g id="edge21" class="edge"><title>Node4&#45;&gt;Node19</title>
<path fill="none" stroke="midnightblue" d="M766,-178.796C766,-170.43 766,-157.171 766,-146.297"/>
<polygon fill="midnightblue" stroke="midnightblue" points="769.5,-146.134 766,-136.134 762.5,-146.134 769.5,-146.134"/>
</g>
<!-- Node20 -->
<g id="node18" class="node"><title>Node20</title>
<polygon fill="none" stroke="#bfbfbf" points="838.313,-113 838.313,-141 937.687,-141 937.687,-113 838.313,-113"/>
<text text-anchor="start" x="846.313" y="-129" font-family="Helvetica,sans-Serif" font-size="10.00">boost/type_traits/is</text>
<text text-anchor="middle" x="888" y="-119" font-family="Helvetica,sans-Serif" font-size="10.00">_convertible.hpp</text>
</g>
<!-- Node4&#45;&gt;Node20 -->
<g id="edge22" class="edge"><title>Node4&#45;&gt;Node20</title>
<path fill="none" stroke="midnightblue" d="M782.708,-178.92C800.374,-170.377 828.793,-156.633 851.656,-145.576"/>
<polygon fill="midnightblue" stroke="midnightblue" points="853.268,-148.685 860.747,-141.18 850.22,-142.383 853.268,-148.685"/>
</g>
<!-- Node21 -->
<g id="node19" class="node"><title>Node21</title>
<polygon fill="none" stroke="#bfbfbf" points="955.251,-118 955.251,-136 1050.75,-136 1050.75,-118 955.251,-118"/>
<text text-anchor="middle" x="1003" y="-124" font-family="Helvetica,sans-Serif" font-size="10.00">boost/mpl/not.hpp</text>
</g>
<!-- Node4&#45;&gt;Node21 -->
<g id="edge23" class="edge"><title>Node4&#45;&gt;Node21</title>
<path fill="none" stroke="midnightblue" d="M792.269,-180.461C832.999,-170.321 911.776,-150.71 960.625,-138.549"/>
<polygon fill="midnightblue" stroke="midnightblue" points="961.712,-141.885 970.57,-136.073 960.021,-135.093 961.712,-141.885"/>
</g>
<!-- Node22 -->
<g id="node20" class="node"><title>Node22</title>
<polygon fill="none" stroke="#bfbfbf" points="1068.62,-118 1068.62,-136 1153.38,-136 1153.38,-118 1068.62,-118"/>
<text text-anchor="middle" x="1111" y="-124" font-family="Helvetica,sans-Serif" font-size="10.00">boost/array.hpp</text>
</g>
<!-- Node4&#45;&gt;Node22 -->
<g id="edge24" class="edge"><title>Node4&#45;&gt;Node22</title>
<path fill="none" stroke="midnightblue" d="M792.441,-183.935C844.022,-177.736 961.556,-162.535 1059,-142 1063.73,-141.004 1068.66,-139.84 1073.53,-138.616"/>
<polygon fill="midnightblue" stroke="midnightblue" points="1074.55,-141.968 1083.34,-136.055 1072.78,-135.195 1074.55,-141.968"/>
</g>
<!-- Node23 -->
<g id="node21" class="node"><title>Node23</title>
<polygon fill="none" stroke="#bfbfbf" points="1171.58,-118 1171.58,-136 1290.42,-136 1290.42,-118 1171.58,-118"/>
<text text-anchor="middle" x="1231" y="-124" font-family="Helvetica,sans-Serif" font-size="10.00">boost/static_assert.hpp</text>
</g>
<!-- Node4&#45;&gt;Node23 -->
<g id="edge25" class="edge"><title>Node4&#45;&gt;Node23</title>
<path fill="none" stroke="midnightblue" d="M792.523,-184.79C856.374,-179.294 1023.6,-163.862 1162,-142 1169.3,-140.846 1177.01,-139.456 1184.52,-138.005"/>
<polygon fill="midnightblue" stroke="midnightblue" points="1185.46,-141.388 1194.58,-136.006 1184.09,-134.522 1185.46,-141.388"/>
</g>
<!-- Node24 -->
<g id="node22" class="node"><title>Node24</title>
<polygon fill="none" stroke="#bfbfbf" points="1308.44,-118 1308.44,-136 1365.56,-136 1365.56,-118 1308.44,-118"/>
<text text-anchor="middle" x="1337" y="-124" font-family="Helvetica,sans-Serif" font-size="10.00">algorithm</text>
</g>
<!-- Node4&#45;&gt;Node24 -->
<g id="edge26" class="edge"><title>Node4&#45;&gt;Node24</title>
<path fill="none" stroke="midnightblue" d="M792.164,-187.257C870.231,-187.502 1107.95,-184.444 1299,-142 1302.23,-141.283 1305.55,-140.358 1308.82,-139.325"/>
<polygon fill="midnightblue" stroke="midnightblue" points="1310.07,-142.597 1318.36,-136.002 1307.76,-135.987 1310.07,-142.597"/>
</g>
<!-- Node5&#45;&gt;Node3 -->
<g id="edge9" class="edge"><title>Node5&#45;&gt;Node3</title>
<path fill="none" stroke="midnightblue" d="M494.282,-117.819C483.232,-102.725 457.339,-70.7008 427,-56 383.994,-35.1611 257.498,-22.2728 175.877,-15.8881"/>
<polygon fill="midnightblue" stroke="midnightblue" points="175.899,-12.3796 165.66,-15.1044 175.363,-19.3591 175.899,-12.3796"/>
</g>
<!-- Node6 -->
<g id="node6" class="node"><title>Node6</title>
<polygon fill="none" stroke="#bfbfbf" points="474.219,-57 474.219,-75 525.781,-75 525.781,-57 474.219,-57"/>
<text text-anchor="middle" x="500" y="-63" font-family="Helvetica,sans-Serif" font-size="10.00">sstream</text>
</g>
<!-- Node5&#45;&gt;Node6 -->
<g id="edge6" class="edge"><title>Node5&#45;&gt;Node6</title>
<path fill="none" stroke="midnightblue" d="M500,-117.796C500,-109.43 500,-96.1713 500,-85.2974"/>
<polygon fill="midnightblue" stroke="midnightblue" points="503.5,-85.134 500,-75.134 496.5,-85.1341 503.5,-85.134"/>
</g>
<!-- Node7 -->
<g id="node7" class="node"><title>Node7</title>
<polygon fill="none" stroke="#bfbfbf" points="543.828,-57 543.828,-75 598.172,-75 598.172,-57 543.828,-57"/>
<text text-anchor="middle" x="571" y="-63" font-family="Helvetica,sans-Serif" font-size="10.00">iostream</text>
</g>
<!-- Node5&#45;&gt;Node7 -->
<g id="edge7" class="edge"><title>Node5&#45;&gt;Node7</title>
<path fill="none" stroke="midnightblue" d="M509.872,-117.796C521.106,-108.462 539.669,-93.0352 553.398,-81.6273"/>
<polygon fill="midnightblue" stroke="midnightblue" points="555.757,-84.2171 561.212,-75.134 551.284,-78.8334 555.757,-84.2171"/>
</g>
<!-- Node8 -->
<g id="node8" class="node"><title>Node8</title>
<polygon fill="none" stroke="#bfbfbf" points="377.773,-57 377.773,-75 418.227,-75 418.227,-57 377.773,-57"/>
<text text-anchor="middle" x="398" y="-63" font-family="Helvetica,sans-Serif" font-size="10.00">string</text>
</g>
<!-- Node5&#45;&gt;Node8 -->
<g id="edge8" class="edge"><title>Node5&#45;&gt;Node8</title>
<path fill="none" stroke="midnightblue" d="M485.817,-117.796C468.994,-108.065 440.727,-91.7144 420.815,-80.197"/>
<polygon fill="midnightblue" stroke="midnightblue" points="422.471,-77.1114 412.062,-75.134 418.966,-83.1708 422.471,-77.1114"/>
</g>
<!-- Node10 -->
<g id="node9" class="node"><title>Node10</title>
<polygon fill="none" stroke="#bfbfbf" points="616.384,-57 616.384,-75 659.616,-75 659.616,-57 616.384,-57"/>
<text text-anchor="middle" x="638" y="-63" font-family="Helvetica,sans-Serif" font-size="10.00">vector</text>
</g>
<!-- Node5&#45;&gt;Node10 -->
<g id="edge10" class="edge"><title>Node5&#45;&gt;Node10</title>
<path fill="none" stroke="midnightblue" d="M518.899,-117.92C542.304,-107.914 582.395,-90.7732 609.53,-79.1719"/>
<polygon fill="midnightblue" stroke="midnightblue" points="611.067,-82.3212 618.886,-75.1717 608.316,-75.8847 611.067,-82.3212"/>
</g>
<!-- Node11 -->
<g id="node10" class="node"><title>Node11</title>
<polygon fill="none" stroke="#bfbfbf" points="677.306,-57 677.306,-75 766.694,-75 766.694,-57 677.306,-57"/>
<text text-anchor="middle" x="722" y="-63" font-family="Helvetica,sans-Serif" font-size="10.00">boost/config.hpp</text>
</g>
<!-- Node5&#45;&gt;Node11 -->
<g id="edge11" class="edge"><title>Node5&#45;&gt;Node11</title>
<path fill="none" stroke="midnightblue" d="M530.403,-117.92C569.733,-107.467 638.353,-89.2304 681.912,-77.654"/>
<polygon fill="midnightblue" stroke="midnightblue" points="682.844,-81.028 691.609,-75.0769 681.046,-74.2628 682.844,-81.028"/>
</g>
<!-- Node12 -->
<g id="node11" class="node"><title>Node12</title>
<polygon fill="none" stroke="#bfbfbf" points="784.53,-57 784.53,-75 879.47,-75 879.47,-57 784.53,-57"/>
<text text-anchor="middle" x="832" y="-63" font-family="Helvetica,sans-Serif" font-size="10.00">boost/version.hpp</text>
</g>
<!-- Node5&#45;&gt;Node12 -->
<g id="edge12" class="edge"><title>Node5&#45;&gt;Node12</title>
<path fill="none" stroke="midnightblue" d="M538.642,-117.942C548.528,-115.94 559.148,-113.842 569,-112 639.583,-98.8042 721.115,-85.09 774.458,-76.3232"/>
<polygon fill="midnightblue" stroke="midnightblue" points="775.108,-79.7634 784.41,-74.6913 773.975,-72.8557 775.108,-79.7634"/>
</g>
<!-- Node13 -->
<g id="node12" class="node"><title>Node13</title>
<polygon fill="none" stroke="#bfbfbf" points="896.971,-57 896.971,-75 993.029,-75 993.029,-57 896.971,-57"/>
<text text-anchor="middle" x="945" y="-63" font-family="Helvetica,sans-Serif" font-size="10.00">boost/foreach.hpp</text>
</g>
<!-- Node5&#45;&gt;Node13 -->
<g id="edge13" class="edge"><title>Node5&#45;&gt;Node13</title>
<path fill="none" stroke="midnightblue" d="M536.418,-117.989C546.901,-115.852 558.375,-113.674 569,-112 706.773,-90.2919 744.911,-94.905 886.868,-76.0951"/>
<polygon fill="midnightblue" stroke="midnightblue" points="887.374,-79.5586 896.82,-74.7608 886.443,-72.6207 887.374,-79.5586"/>
</g>
<!-- Node14&#45;&gt;Node2 -->
<g id="edge18" class="edge"><title>Node14&#45;&gt;Node2</title>
<path fill="none" stroke="midnightblue" d="M269.721,-118.043C221.489,-107.464 136.205,-88.7587 83.3579,-77.1677"/>
<polygon fill="midnightblue" stroke="midnightblue" points="84.0805,-73.7431 73.5629,-75.0194 82.5808,-80.5806 84.0805,-73.7431"/>
</g>
<!-- Node14&#45;&gt;Node3 -->
<g id="edge19" class="edge"><title>Node14&#45;&gt;Node3</title>
<path fill="none" stroke="midnightblue" d="M269.82,-120.448C222.415,-112.474 142.853,-96.4592 122,-76 109.551,-63.7856 105.149,-43.901 103.649,-29.3369"/>
<polygon fill="midnightblue" stroke="midnightblue" points="107.121,-28.7933 102.97,-19.0456 100.136,-29.2544 107.121,-28.7933"/>
</g>
<!-- Node14&#45;&gt;Node8 -->
<g id="edge17" class="edge"><title>Node14&#45;&gt;Node8</title>
<path fill="none" stroke="midnightblue" d="M318.792,-117.796C333.76,-108.197 358.772,-92.1571 376.686,-80.6686"/>
<polygon fill="midnightblue" stroke="midnightblue" points="378.788,-83.4786 385.316,-75.134 375.009,-77.5862 378.788,-83.4786"/>
</g>
<!-- Node15 -->
<g id="node14" class="node"><title>Node15</title>
<polygon fill="none" stroke="#bfbfbf" points="131.451,-57 131.451,-75 282.549,-75 282.549,-57 131.451,-57"/>
<text text-anchor="middle" x="207" y="-63" font-family="Helvetica,sans-Serif" font-size="10.00">boost/exception/exception.hpp</text>
</g>
<!-- Node14&#45;&gt;Node15 -->
<g id="edge15" class="edge"><title>Node14&#45;&gt;Node15</title>
<path fill="none" stroke="midnightblue" d="M292.234,-117.796C275.98,-108.109 248.718,-91.8623 229.407,-80.3536"/>
<polygon fill="midnightblue" stroke="midnightblue" points="231.031,-77.2469 220.649,-75.134 227.447,-83.2601 231.031,-77.2469"/>
</g>
<!-- Node16 -->
<g id="node15" class="node"><title>Node16</title>
<polygon fill="none" stroke="#bfbfbf" points="300.596,-57 300.596,-75 359.404,-75 359.404,-57 300.596,-57"/>
<text text-anchor="middle" x="330" y="-63" font-family="Helvetica,sans-Serif" font-size="10.00">exception</text>
</g>
<!-- Node14&#45;&gt;Node16 -->
<g id="edge16" class="edge"><title>Node14&#45;&gt;Node16</title>
<path fill="none" stroke="midnightblue" d="M309.337,-117.796C312.812,-109.254 318.362,-95.6109 322.835,-84.6138"/>
<polygon fill="midnightblue" stroke="midnightblue" points="326.165,-85.7158 326.691,-75.134 319.681,-83.0782 326.165,-85.7158"/>
</g>
</g>
</svg>
        <g id="navigator" transform="translate(0 0)" fill="#404254">
                <rect fill="#f2f5e9" fill-opacity="0.5" stroke="#606060" stroke-width=".5" x="0" y="0" width="60" height="60"/>
                <use id="zoomplus" xlink:href="#zoomPlus" x="17" y="9" onmousedown="handleZoom(evt,'in')"/>
                <use id="zoomminus" xlink:href="#zoomMin" x="42" y="9" onmousedown="handleZoom(evt,'out')"/>
                <use id="reset" xlink:href="#resetDef" x="30" y="36" onmousedown="handleReset()"/>
                <g id="arrowUp" xlink:href="#dirArrow" transform="translate(30 24)" onmousedown="handlePan(0,-1)">
                  <use xlink:href="#rim" fill="#404040">
                        <set attributeName="fill" to="#808080" begin="arrowUp.mouseover" end="arrowUp.mouseout"/>
                  </use>
                  <path fill="none" stroke="white" stroke-width="1.5" d="M0,-3.0v7 M-2.5,-0.5L0,-3.0L2.5,-0.5"/>
                </g>
                <g id="arrowRight" xlink:href="#dirArrow" transform="rotate(90) translate(36 -43)" onmousedown="handlePan(1,0)">
                  <use xlink:href="#rim" fill="#404040">
                        <set attributeName="fill" to="#808080" begin="arrowRight.mouseover" end="arrowRight.mouseout"/>
                  </use>
                  <path fill="none" stroke="white" stroke-width="1.5" d="M0,-3.0v7 M-2.5,-0.5L0,-3.0L2.5,-0.5"/>
                </g>
                <g id="arrowDown" xlink:href="#dirArrow" transform="rotate(180) translate(-30 -48)" onmousedown="handlePan(0,1)">
                  <use xlink:href="#rim" fill="#404040">
                        <set attributeName="fill" to="#808080" begin="arrowDown.mouseover" end="arrowDown.mouseout"/>
                  </use>
                  <path fill="none" stroke="white" stroke-width="1.5" d="M0,-3.0v7 M-2.5,-0.5L0,-3.0L2.5,-0.5"/>
                </g>
                <g id="arrowLeft" xlink:href="#dirArrow" transform="rotate(270) translate(-36 17)" onmousedown="handlePan(-1,0)">
                  <use xlink:href="#rim" fill="#404040">
                        <set attributeName="fill" to="#808080" begin="arrowLeft.mouseover" end="arrowLeft.mouseout"/>
                  </use>
                  <path fill="none" stroke="white" stroke-width="1.5" d="M0,-3.0v7 M-2.5,-0.5L0,-3.0L2.5,-0.5"/>
                </g>
        </g>
        <svg viewBox="0 0 15 15" width="100%" height="30px" preserveAspectRatio="xMaxYMin meet">
         <g id="arrow_out" transform="scale(0.3 0.3)">
          <a xlink:href="types_8h__incl_org.svg" target="_base">
           <rect id="button" ry="5" rx="5" y="6" x="6" height="38" width="38"
                fill="#f2f5e9" fill-opacity="0.5" stroke="#606060" stroke-width="1.0"/>
           <path id="arrow"
             d="M 11.500037,31.436501 C 11.940474,20.09759 22.043105,11.32322 32.158766,21.979434 L 37.068811,17.246167 C 37.068811,17.246167 37.088388,32 37.088388,32 L 22.160133,31.978069 C 22.160133,31.978069 26.997745,27.140456 26.997745,27.140456 C 18.528582,18.264221 13.291696,25.230495 11.500037,31.436501 z"
             style="fill:#404040;"/>
          </a>
         </g>
        </svg>
</svg>
