<?xml version="1.0" encoding="UTF-8" standalone="no"?>
<!DOCTYPE svg PUBLIC "-//W3C//DTD SVG 1.1//EN"
 "http://www.w3.org/Graphics/SVG/1.1/DTD/svg11.dtd">
<!-- Generated by graphviz version 2.34.0 (20131025.1349)
 -->
<!-- Title: types.h Pages: 1 -->
<svg width="1571pt" height="494pt"
 viewBox="0.00 0.00 1571.00 494.00" xmlns="http://www.w3.org/2000/svg" xmlns:xlink="http://www.w3.org/1999/xlink">
<g id="graph0" class="graph" transform="scale(1 1) rotate(0) translate(4 490)">
<title>types.h</title>
<!-- Node1 -->
<g id="node1" class="node"><title>Node1</title>
<polygon fill="#bfbfbf" stroke="black" points="997.879,-465 997.879,-485 1046.12,-485 1046.12,-465 997.879,-465"/>
<text text-anchor="middle" x="1022" y="-471" font-family="Helvetica,sans-Serif" font-size="10.00">types.h</text>
</g>
<!-- Node2 -->
<g id="node2" class="node"><title>Node2</title>
<g id="a_node2"><a xlink:href="traits_8h.html" target="_top" xlink:title="Handle read/write of Model data from/to files. ">
<polygon fill="none" stroke="black" points="963.995,-407 963.995,-427 1010,-427 1010,-407 963.995,-407"/>
<text text-anchor="middle" x="987" y="-413" font-family="Helvetica,sans-Serif" font-size="10.00">traits.h</text>
</a>
</g>
</g>
<!-- Node1&#45;&gt;Node2 -->
<g id="edge1" class="edge"><title>Node1&#45;&gt;Node2</title>
<path fill="none" stroke="midnightblue" d="M1010.89,-456.22C1004.83,-446.524 997.582,-434.931 992.672,-427.075"/>
<polygon fill="midnightblue" stroke="midnightblue" points="1007.95,-458.128 1016.22,-464.753 1013.89,-454.418 1007.95,-458.128"/>
</g>
<!-- Node4 -->
<g id="node4" class="node"><title>Node4</title>
<g id="a_node4"><a xlink:href="NodeConstHandle_8h.html" target="_top" xlink:title="Handle read/write of Model data from/to files. ">
<polygon fill="none" stroke="black" points="962.971,-291 962.971,-311 1069.03,-311 1069.03,-291 962.971,-291"/>
<text text-anchor="middle" x="1016" y="-297" font-family="Helvetica,sans-Serif" font-size="10.00">NodeConstHandle.h</text>
</a>
</g>
</g>
<!-- Node1&#45;&gt;Node4 -->
<g id="edge78" class="edge"><title>Node1&#45;&gt;Node4</title>
<path fill="none" stroke="midnightblue" d="M1021.31,-454.297C1020.02,-417.202 1017.27,-338.3 1016.32,-311.293"/>
<polygon fill="midnightblue" stroke="midnightblue" points="1017.83,-454.881 1021.68,-464.753 1024.83,-454.637 1017.83,-454.881"/>
</g>
<!-- Node19 -->
<g id="node19" class="node"><title>Node19</title>
<g id="a_node19"><a xlink:href="NodeHandle_8h.html" target="_top" xlink:title="Handle read/write of Model data from/to files. ">
<polygon fill="none" stroke="black" points="547.032,-233 547.032,-253 626.968,-253 626.968,-233 547.032,-233"/>
<text text-anchor="middle" x="587" y="-239" font-family="Helvetica,sans-Serif" font-size="10.00">NodeHandle.h</text>
</a>
</g>
</g>
<!-- Node1&#45;&gt;Node19 -->
<g id="edge79" class="edge"><title>Node1&#45;&gt;Node19</title>
<path fill="none" stroke="midnightblue" d="M987.726,-472.171C942.755,-468.615 862.352,-458.22 801,-428 706.497,-381.451 619.787,-283.308 594.437,-253.065"/>
<polygon fill="midnightblue" stroke="midnightblue" points="987.604,-475.671 997.831,-472.901 988.109,-468.689 987.604,-475.671"/>
</g>
<!-- Node20 -->
<g id="node20" class="node"><title>Node20</title>
<g id="a_node20"><a xlink:href="FileHandle_8h.html" target="_top" xlink:title="Handle read/write of Model data from/to files. ">
<polygon fill="none" stroke="black" points="614.929,-175 614.929,-195 687.071,-195 687.071,-175 614.929,-175"/>
<text text-anchor="middle" x="651" y="-181" font-family="Helvetica,sans-Serif" font-size="10.00">FileHandle.h</text>
</a>
</g>
</g>
<!-- Node1&#45;&gt;Node20 -->
<g id="edge81" class="edge"><title>Node1&#45;&gt;Node20</title>
<path fill="none" stroke="midnightblue" d="M987.899,-470.729C929.129,-463.013 815,-437.987 815,-360 815,-360 815,-360 815,-300 815,-238.278 735.713,-207.274 687.397,-194.11"/>
<polygon fill="midnightblue" stroke="midnightblue" points="987.5,-474.207 997.849,-471.94 988.345,-467.258 987.5,-474.207"/>
</g>
<!-- Node24 -->
<g id="node24" class="node"><title>Node24</title>
<g id="a_node24"><a xlink:href="FileConstHandle_8h.html" target="_top" xlink:title="Handle read/write of Model data from/to files. ">
<polygon fill="none" stroke="black" points="1102.87,-233 1102.87,-253 1201.13,-253 1201.13,-233 1102.87,-233"/>
<text text-anchor="middle" x="1152" y="-239" font-family="Helvetica,sans-Serif" font-size="10.00">FileConstHandle.h</text>
</a>
</g>
</g>
<!-- Node1&#45;&gt;Node24 -->
<g id="edge80" class="edge"><title>Node1&#45;&gt;Node24</title>
<path fill="none" stroke="midnightblue" d="M1032.12,-456.1C1058.24,-409.876 1127.29,-287.724 1146.8,-253.204"/>
<polygon fill="midnightblue" stroke="midnightblue" points="1028.97,-454.556 1027.1,-464.984 1035.06,-458 1028.97,-454.556"/>
</g>
<!-- Node31 -->
<g id="node31" class="node"><title>Node31</title>
<g id="a_node31"><a xlink:href="names_8h.html" target="_top" xlink:title="Handle read/write of Model data from/to files. ">
<polygon fill="none" stroke="black" points="1124.82,-407 1124.82,-427 1179.18,-427 1179.18,-407 1124.82,-407"/>
<text text-anchor="middle" x="1152" y="-413" font-family="Helvetica,sans-Serif" font-size="10.00">names.h</text>
</a>
</g>
</g>
<!-- Node1&#45;&gt;Node31 -->
<g id="edge77" class="edge"><title>Node1&#45;&gt;Node31</title>
<path fill="none" stroke="midnightblue" d="M1052.57,-460.831C1076.65,-450.459 1109.59,-436.269 1130.83,-427.118"/>
<polygon fill="midnightblue" stroke="midnightblue" points="1050.98,-457.707 1043.18,-464.878 1053.74,-464.136 1050.98,-457.707"/>
</g>
<!-- Node3 -->
<g id="node3" class="node"><title>Node3</title>
<g id="a_node3"><a xlink:href="keys_8h.html" target="_top" xlink:title="Handle read/write of Model data from/to files. ">
<polygon fill="none" stroke="black" points="946.549,-349 946.549,-369 991.451,-369 991.451,-349 946.549,-349"/>
<text text-anchor="middle" x="969" y="-355" font-family="Helvetica,sans-Serif" font-size="10.00">keys.h</text>
</a>
</g>
</g>
<!-- Node2&#45;&gt;Node3 -->
<g id="edge2" class="edge"><title>Node2&#45;&gt;Node3</title>
<path fill="none" stroke="midnightblue" d="M980.897,-397.012C977.863,-387.574 974.338,-376.607 971.917,-369.075"/>
<polygon fill="midnightblue" stroke="midnightblue" points="977.635,-398.304 984.028,-406.753 984.3,-396.161 977.635,-398.304"/>
</g>
<!-- Node2&#45;&gt;Node4 -->
<g id="edge76" class="edge"><title>Node2&#45;&gt;Node4</title>
<path fill="none" stroke="midnightblue" d="M992.55,-397.084C994.929,-388.795 997.687,-378.938 1000,-370 1005.41,-349.101 1011.03,-324.389 1013.96,-311.271"/>
<polygon fill="midnightblue" stroke="midnightblue" points="989.136,-396.289 989.71,-406.868 995.859,-398.24 989.136,-396.289"/>
</g>
<!-- Node30 -->
<g id="node30" class="node"><title>Node30</title>
<g id="a_node30"><a xlink:href="Nullable_8h.html" target="_top" xlink:title="Handle read/write of Model data from/to files. ">
<polygon fill="none" stroke="black" points="867.764,-349 867.764,-369 928.236,-369 928.236,-349 867.764,-349"/>
<text text-anchor="middle" x="898" y="-355" font-family="Helvetica,sans-Serif" font-size="10.00">Nullable.h</text>
</a>
</g>
</g>
<!-- Node2&#45;&gt;Node30 -->
<g id="edge72" class="edge"><title>Node2&#45;&gt;Node30</title>
<path fill="none" stroke="midnightblue" d="M963.404,-401.153C947.194,-390.953 926.196,-377.741 912.423,-369.075"/>
<polygon fill="midnightblue" stroke="midnightblue" points="961.976,-404.389 972.303,-406.753 965.704,-398.465 961.976,-404.389"/>
</g>
<!-- Node3&#45;&gt;Node4 -->
<g id="edge3" class="edge"><title>Node3&#45;&gt;Node4</title>
<path fill="none" stroke="midnightblue" d="M983.421,-340.818C991.658,-331.003 1001.65,-319.093 1008.38,-311.075"/>
<polygon fill="midnightblue" stroke="midnightblue" points="980.509,-338.843 976.761,-348.753 985.871,-343.343 980.509,-338.843"/>
</g>
<!-- Node5 -->
<g id="node5" class="node"><title>Node5</title>
<g id="a_node5"><a xlink:href="Decorator_8h.html" target="_top" xlink:title="Helper functions for manipulating RMF files. ">
<polygon fill="none" stroke="black" points="452.15,-175 452.15,-195 519.85,-195 519.85,-175 452.15,-175"/>
<text text-anchor="middle" x="486" y="-181" font-family="Helvetica,sans-Serif" font-size="10.00">Decorator.h</text>
</a>
</g>
</g>
<!-- Node4&#45;&gt;Node5 -->
<g id="edge4" class="edge"><title>Node4&#45;&gt;Node5</title>
<path fill="none" stroke="midnightblue" d="M963.959,-288.806C855.97,-265.579 610.109,-212.695 519.954,-193.303"/>
<polygon fill="midnightblue" stroke="midnightblue" points="963.456,-292.278 973.969,-290.959 964.928,-285.435 963.456,-292.278"/>
</g>
<!-- Node10 -->
<g id="node10" class="node"><title>Node10</title>
<g id="a_node10"><a xlink:href="benchmark__rmf_8cpp_source.html" target="_top" xlink:title="benchmark_rmf.cpp">
<polygon fill="none" stroke="black" points="889.815,-1 889.815,-21 994.185,-21 994.185,-1 889.815,-1"/>
<text text-anchor="middle" x="942" y="-7" font-family="Helvetica,sans-Serif" font-size="10.00">benchmark_rmf.cpp</text>
</a>
</g>
</g>
<!-- Node4&#45;&gt;Node10 -->
<g id="edge71" class="edge"><title>Node4&#45;&gt;Node10</title>
<path fill="none" stroke="midnightblue" d="M1021.68,-281.046C1027.9,-258.582 1037,-219.916 1037,-186 1037,-186 1037,-186 1037,-126 1037,-77.0503 984.67,-37.9643 957.687,-21.0641"/>
<polygon fill="midnightblue" stroke="midnightblue" points="1018.23,-280.365 1018.83,-290.943 1024.96,-282.301 1018.23,-280.365"/>
</g>
<!-- Node4&#45;&gt;Node19 -->
<g id="edge32" class="edge"><title>Node4&#45;&gt;Node19</title>
<path fill="none" stroke="midnightblue" d="M952.944,-291.769C863.417,-280.082 702.039,-259.017 627.169,-249.244"/>
<polygon fill="midnightblue" stroke="midnightblue" points="952.597,-295.253 962.966,-293.077 953.503,-288.312 952.597,-295.253"/>
</g>
<!-- Node21 -->
<g id="node21" class="node"><title>Node21</title>
<g id="a_node21"><a xlink:href="validate_8h.html" target="_top" xlink:title="Handle read/write of Model data from/to files. ">
<polygon fill="none" stroke="black" points="1064.6,-117 1064.6,-137 1123.4,-137 1123.4,-117 1064.6,-117"/>
<text text-anchor="middle" x="1094" y="-123" font-family="Helvetica,sans-Serif" font-size="10.00">validate.h</text>
</a>
</g>
</g>
<!-- Node4&#45;&gt;Node21 -->
<g id="edge70" class="edge"><title>Node4&#45;&gt;Node21</title>
<path fill="none" stroke="midnightblue" d="M1031.08,-282.945C1037.85,-274.641 1045.54,-264.253 1051,-254 1072.85,-213 1086.9,-158.708 1091.92,-137.271"/>
<polygon fill="midnightblue" stroke="midnightblue" points="1028.26,-280.855 1024.48,-290.751 1033.61,-285.375 1028.26,-280.855"/>
</g>
<!-- Node4&#45;&gt;Node24 -->
<g id="edge61" class="edge"><title>Node4&#45;&gt;Node24</title>
<path fill="none" stroke="midnightblue" d="M1047.65,-286.969C1072.86,-276.585 1107.53,-262.31 1129.86,-253.118"/>
<polygon fill="midnightblue" stroke="midnightblue" points="1046.07,-283.834 1038.15,-290.878 1048.73,-290.307 1046.07,-283.834"/>
</g>
<!-- Node29 -->
<g id="node29" class="node"><title>Node29</title>
<g id="a_node29"><a xlink:href="utility_8h.html" target="_top" xlink:title="Helper functions for manipulating RMF files. ">
<polygon fill="none" stroke="black" points="962.807,-233 962.807,-253 1009.19,-253 1009.19,-233 962.807,-233"/>
<text text-anchor="middle" x="986" y="-239" font-family="Helvetica,sans-Serif" font-size="10.00">utility.h</text>
</a>
</g>
</g>
<!-- Node4&#45;&gt;Node29 -->
<g id="edge69" class="edge"><title>Node4&#45;&gt;Node29</title>
<path fill="none" stroke="midnightblue" d="M1006.31,-281.92C1001.15,-272.285 995.027,-260.85 990.862,-253.075"/>
<polygon fill="midnightblue" stroke="midnightblue" points="1003.24,-283.591 1011.05,-290.753 1009.41,-280.285 1003.24,-283.591"/>
</g>
<!-- Node6 -->
<g id="node6" class="node"><title>Node6</title>
<g id="a_node6"><a xlink:href="alias_8h.html" target="_top" xlink:title="Helper functions for manipulating RMF files. ">
<polygon fill="none" stroke="black" points="698.547,-117 698.547,-137 743.453,-137 743.453,-117 698.547,-117"/>
<text text-anchor="middle" x="721" y="-123" font-family="Helvetica,sans-Serif" font-size="10.00">alias.h</text>
</a>
</g>
</g>
<!-- Node5&#45;&gt;Node6 -->
<g id="edge5" class="edge"><title>Node5&#45;&gt;Node6</title>
<path fill="none" stroke="midnightblue" d="M529.969,-175.098C571.255,-166.489 634.634,-152.629 689,-138 692.035,-137.183 695.214,-136.266 698.34,-135.327"/>
<polygon fill="midnightblue" stroke="midnightblue" points="529.049,-171.714 519.967,-177.171 530.469,-178.569 529.049,-171.714"/>
</g>
<!-- Node8 -->
<g id="node8" class="node"><title>Node8</title>
<g id="a_node8"><a xlink:href="physics_8h.html" target="_top" xlink:title="Helper functions for manipulating RMF files. ">
<polygon fill="none" stroke="black" points="788.158,-59 788.158,-79 845.842,-79 845.842,-59 788.158,-59"/>
<text text-anchor="middle" x="817" y="-65" font-family="Helvetica,sans-Serif" font-size="10.00">physics.h</text>
</a>
</g>
</g>
<!-- Node5&#45;&gt;Node8 -->
<g id="edge15" class="edge"><title>Node5&#45;&gt;Node8</title>
<path fill="none" stroke="midnightblue" d="M509.903,-169.783C524.928,-160.784 544.678,-148.843 562,-138 577.256,-128.45 579.318,-122.756 596,-116 672.427,-85.0487 697.588,-98.2471 778,-80 781.272,-79.2575 784.688,-78.4419 788.079,-77.6067"/>
<polygon fill="midnightblue" stroke="midnightblue" points="508.012,-166.835 501.223,-174.969 511.602,-172.845 508.012,-166.835"/>
</g>
<!-- Node11 -->
<g id="node11" class="node"><title>Node11</title>
<g id="a_node11"><a xlink:href="external_8h.html" target="_top" xlink:title="Helper functions for manipulating RMF files. ">
<polygon fill="none" stroke="black" points="47.042,-117 47.042,-137 106.958,-137 106.958,-117 47.042,-117"/>
<text text-anchor="middle" x="77" y="-123" font-family="Helvetica,sans-Serif" font-size="10.00">external.h</text>
</a>
</g>
</g>
<!-- Node5&#45;&gt;Node11 -->
<g id="edge11" class="edge"><title>Node5&#45;&gt;Node11</title>
<path fill="none" stroke="midnightblue" d="M441.949,-180.352C372.322,-174.177 232.751,-160.132 116,-138 113.116,-137.453 110.128,-136.817 107.148,-136.135"/>
<polygon fill="midnightblue" stroke="midnightblue" points="441.839,-183.856 452.106,-181.241 442.449,-176.883 441.839,-183.856"/>
</g>
<!-- Node12 -->
<g id="node12" class="node"><title>Node12</title>
<g id="a_node12"><a xlink:href="feature_8h.html" target="_top" xlink:title="Helper functions for manipulating RMF files. ">
<polygon fill="none" stroke="black" points="295.264,-117 295.264,-137 350.736,-137 350.736,-117 295.264,-117"/>
<text text-anchor="middle" x="323" y="-123" font-family="Helvetica,sans-Serif" font-size="10.00">feature.h</text>
</a>
</g>
</g>
<!-- Node5&#45;&gt;Node12 -->
<g id="edge13" class="edge"><title>Node5&#45;&gt;Node12</title>
<path fill="none" stroke="midnightblue" d="M449.635,-171.506C419.192,-161.048 376.477,-146.373 349.27,-137.025"/>
<polygon fill="midnightblue" stroke="midnightblue" points="448.854,-174.939 459.448,-174.878 451.128,-168.319 448.854,-174.939"/>
</g>
<!-- Node13 -->
<g id="node13" class="node"><title>Node13</title>
<g id="a_node13"><a xlink:href="publication_8h.html" target="_top" xlink:title="Helper functions for manipulating RMF files. ">
<polygon fill="none" stroke="black" points="368.924,-117 368.924,-137 441.076,-137 441.076,-117 368.924,-117"/>
<text text-anchor="middle" x="405" y="-123" font-family="Helvetica,sans-Serif" font-size="10.00">publication.h</text>
</a>
</g>
</g>
<!-- Node5&#45;&gt;Node13 -->
<g id="edge16" class="edge"><title>Node5&#45;&gt;Node13</title>
<path fill="none" stroke="midnightblue" d="M464.11,-168.866C449.415,-158.707 430.544,-145.66 418.127,-137.075"/>
<polygon fill="midnightblue" stroke="midnightblue" points="462.409,-171.945 472.624,-174.753 466.389,-166.187 462.409,-171.945"/>
</g>
<!-- Node14 -->
<g id="node14" class="node"><title>Node14</title>
<g id="a_node14"><a xlink:href="sequence_8h.html" target="_top" xlink:title="Helper functions for manipulating RMF files. ">
<polygon fill="none" stroke="black" points="702.146,-59 702.146,-79 769.854,-79 769.854,-59 702.146,-59"/>
<text text-anchor="middle" x="736" y="-65" font-family="Helvetica,sans-Serif" font-size="10.00">sequence.h</text>
</a>
</g>
</g>
<!-- Node5&#45;&gt;Node14 -->
<g id="edge18" class="edge"><title>Node5&#45;&gt;Node14</title>
<path fill="none" stroke="midnightblue" d="M501.05,-166.767C515.469,-151.297 538.591,-129.071 563,-116 607.795,-92.0123 665.938,-79.9017 702.108,-74.2816"/>
<polygon fill="midnightblue" stroke="midnightblue" points="498.104,-164.805 493.981,-174.565 503.29,-169.506 498.104,-164.805"/>
</g>
<!-- Node15 -->
<g id="node15" class="node"><title>Node15</title>
<g id="a_node15"><a xlink:href="shape_8h.html" target="_top" xlink:title="Helper functions for manipulating RMF files. ">
<polygon fill="none" stroke="black" points="459.207,-117 459.207,-137 510.793,-137 510.793,-117 459.207,-117"/>
<text text-anchor="middle" x="485" y="-123" font-family="Helvetica,sans-Serif" font-size="10.00">shape.h</text>
</a>
</g>
</g>
<!-- Node5&#45;&gt;Node15 -->
<g id="edge22" class="edge"><title>Node5&#45;&gt;Node15</title>
<path fill="none" stroke="midnightblue" d="M485.655,-164.707C485.488,-155.338 485.295,-144.526 485.162,-137.075"/>
<polygon fill="midnightblue" stroke="midnightblue" points="482.157,-164.817 485.835,-174.753 489.156,-164.692 482.157,-164.817"/>
</g>
<!-- Node16 -->
<g id="node16" class="node"><title>Node16</title>
<g id="a_node16"><a xlink:href="bond_8h.html" target="_top" xlink:title="Helper functions for manipulating RMF files. ">
<polygon fill="none" stroke="black" points="124.707,-117 124.707,-137 171.293,-137 171.293,-117 124.707,-117"/>
<text text-anchor="middle" x="148" y="-123" font-family="Helvetica,sans-Serif" font-size="10.00">bond.h</text>
</a>
</g>
</g>
<!-- Node5&#45;&gt;Node16 -->
<g id="edge25" class="edge"><title>Node5&#45;&gt;Node16</title>
<path fill="none" stroke="midnightblue" d="M441.477,-179.479C381.554,-172.903 271.865,-159.127 180,-138 177.164,-137.348 174.215,-136.569 171.305,-135.738"/>
<polygon fill="midnightblue" stroke="midnightblue" points="441.4,-182.991 451.718,-180.586 442.152,-176.032 441.4,-182.991"/>
</g>
<!-- Node17 -->
<g id="node17" class="node"><title>Node17</title>
<g id="a_node17"><a xlink:href="representation_8h.html" target="_top" xlink:title="Helper functions for manipulating RMF files. ">
<polygon fill="none" stroke="black" points="188.865,-117 188.865,-137 277.135,-137 277.135,-117 188.865,-117"/>
<text text-anchor="middle" x="233" y="-123" font-family="Helvetica,sans-Serif" font-size="10.00">representation.h</text>
</a>
</g>
</g>
<!-- Node5&#45;&gt;Node17 -->
<g id="edge27" class="edge"><title>Node5&#45;&gt;Node17</title>
<path fill="none" stroke="midnightblue" d="M442.181,-174.301C394.812,-163.816 319.917,-147.239 273.77,-137.024"/>
<polygon fill="midnightblue" stroke="midnightblue" points="441.622,-177.762 452.142,-176.506 443.135,-170.927 441.622,-177.762"/>
</g>
<!-- Node18 -->
<g id="node18" class="node"><title>Node18</title>
<g id="a_node18"><a xlink:href="alternatives_8h.html" target="_top" xlink:title="Helper functions for manipulating RMF files. ">
<polygon fill="none" stroke="black" points="605.261,-117 605.261,-137 680.739,-137 680.739,-117 605.261,-117"/>
<text text-anchor="middle" x="643" y="-123" font-family="Helvetica,sans-Serif" font-size="10.00">alternatives.h</text>
</a>
</g>
</g>
<!-- Node5&#45;&gt;Node18 -->
<g id="edge29" class="edge"><title>Node5&#45;&gt;Node18</title>
<path fill="none" stroke="midnightblue" d="M521.026,-171.506C550.349,-161.048 591.491,-146.373 617.697,-137.025"/>
<polygon fill="midnightblue" stroke="midnightblue" points="519.817,-168.222 511.574,-174.878 522.169,-174.815 519.817,-168.222"/>
</g>
<!-- Node7 -->
<g id="node7" class="node"><title>Node7</title>
<g id="a_node7"><a xlink:href="decorators_8h.html" target="_top" xlink:title="Import all the decorators headers. ">
<polygon fill="none" stroke="black" points="369.207,-1 369.207,-21 440.793,-21 440.793,-1 369.207,-1"/>
<text text-anchor="middle" x="405" y="-7" font-family="Helvetica,sans-Serif" font-size="10.00">decorators.h</text>
</a>
</g>
</g>
<!-- Node6&#45;&gt;Node7 -->
<g id="edge6" class="edge"><title>Node6&#45;&gt;Node7</title>
<path fill="none" stroke="midnightblue" d="M688.923,-113.828C652.448,-100.047 591.074,-77.0362 538,-58 501.319,-44.8434 458.717,-30.2245 431.811,-21.0727"/>
<polygon fill="midnightblue" stroke="midnightblue" points="687.931,-117.195 698.522,-117.46 690.407,-110.648 687.931,-117.195"/>
</g>
<!-- Node6&#45;&gt;Node8 -->
<g id="edge7" class="edge"><title>Node6&#45;&gt;Node8</title>
<path fill="none" stroke="midnightblue" d="M745.963,-111.438C763.513,-101.201 786.448,-87.8221 801.443,-79.0752"/>
<polygon fill="midnightblue" stroke="midnightblue" points="743.727,-108.691 736.852,-116.753 747.254,-114.737 743.727,-108.691"/>
</g>
<!-- Node8&#45;&gt;Node7 -->
<g id="edge8" class="edge"><title>Node8&#45;&gt;Node7</title>
<path fill="none" stroke="midnightblue" d="M778.309,-58.0588C778.206,-58.0391 778.103,-58.0195 778,-58 655.386,-34.8187 507.798,-20.6003 440.983,-14.8907"/>
<polygon fill="midnightblue" stroke="midnightblue" points="777.618,-61.4899 788.128,-60.1572 779.081,-54.6445 777.618,-61.4899"/>
</g>
<!-- Node9 -->
<g id="node9" class="node"><title>Node9</title>
<g id="a_node9"><a xlink:href="TraverseHelper_8h.html" target="_top" xlink:title="Helper functions for manipulating RMF files. ">
<polygon fill="none" stroke="black" points="689.831,-1 689.831,-21 782.169,-21 782.169,-1 689.831,-1"/>
<text text-anchor="middle" x="736" y="-7" font-family="Helvetica,sans-Serif" font-size="10.00">TraverseHelper.h</text>
</a>
</g>
</g>
<!-- Node8&#45;&gt;Node9 -->
<g id="edge9" class="edge"><title>Node8&#45;&gt;Node9</title>
<path fill="none" stroke="midnightblue" d="M795.11,-52.8661C780.415,-42.7069 761.544,-29.6601 749.127,-21.0752"/>
<polygon fill="midnightblue" stroke="midnightblue" points="793.409,-55.9448 803.624,-58.7527 797.389,-50.1869 793.409,-55.9448"/>
</g>
<!-- Node8&#45;&gt;Node10 -->
<g id="edge10" class="edge"><title>Node8&#45;&gt;Node10</title>
<path fill="none" stroke="midnightblue" d="M846.704,-54.6927C869.829,-44.3328 901.311,-30.2285 921.647,-21.1181"/>
<polygon fill="midnightblue" stroke="midnightblue" points="845.057,-51.5954 837.362,-58.878 847.919,-57.9836 845.057,-51.5954"/>
</g>
<!-- Node11&#45;&gt;Node7 -->
<g id="edge12" class="edge"><title>Node11&#45;&gt;Node7</title>
<path fill="none" stroke="midnightblue" d="M107.832,-112.951C142.203,-98.6239 199.592,-75.3507 250,-58 291.405,-43.7483 339.905,-29.7843 371.478,-21.0496"/>
<polygon fill="midnightblue" stroke="midnightblue" points="106.228,-109.829 98.3552,-116.919 108.931,-116.286 106.228,-109.829"/>
</g>
<!-- Node12&#45;&gt;Node7 -->
<g id="edge14" class="edge"><title>Node12&#45;&gt;Node7</title>
<path fill="none" stroke="midnightblue" d="M335.762,-108.257C353.47,-83.6399 384.842,-40.0248 398.426,-21.1394"/>
<polygon fill="midnightblue" stroke="midnightblue" points="332.708,-106.509 329.71,-116.671 338.391,-110.597 332.708,-106.509"/>
</g>
<!-- Node13&#45;&gt;Node7 -->
<g id="edge17" class="edge"><title>Node13&#45;&gt;Node7</title>
<path fill="none" stroke="midnightblue" d="M405,-106.603C405,-81.7305 405,-39.6088 405,-21.1394"/>
<polygon fill="midnightblue" stroke="midnightblue" points="401.5,-106.671 405,-116.671 408.5,-106.671 401.5,-106.671"/>
</g>
<!-- Node14&#45;&gt;Node7 -->
<g id="edge19" class="edge"><title>Node14&#45;&gt;Node7</title>
<path fill="none" stroke="midnightblue" d="M691.861,-58.7268C690.56,-58.4784 689.271,-58.2356 688,-58 599.413,-41.5808 494.624,-25.3843 440.827,-17.3034"/>
<polygon fill="midnightblue" stroke="midnightblue" points="691.461,-62.2151 701.948,-60.7118 692.812,-55.3468 691.461,-62.2151"/>
</g>
<!-- Node14&#45;&gt;Node9 -->
<g id="edge20" class="edge"><title>Node14&#45;&gt;Node9</title>
<path fill="none" stroke="midnightblue" d="M736,-48.7065C736,-39.3384 736,-28.5262 736,-21.0752"/>
<polygon fill="midnightblue" stroke="midnightblue" points="732.5,-48.7527 736,-58.7527 739.5,-48.7528 732.5,-48.7527"/>
</g>
<!-- Node14&#45;&gt;Node10 -->
<g id="edge21" class="edge"><title>Node14&#45;&gt;Node10</title>
<path fill="none" stroke="midnightblue" d="M779.472,-56.1825C818.076,-45.6881 873.668,-30.5757 908.8,-21.0253"/>
<polygon fill="midnightblue" stroke="midnightblue" points="778.288,-52.8773 769.556,-58.878 780.124,-59.6321 778.288,-52.8773"/>
</g>
<!-- Node15&#45;&gt;Node7 -->
<g id="edge23" class="edge"><title>Node15&#45;&gt;Node7</title>
<path fill="none" stroke="midnightblue" d="M472.549,-108.257C455.274,-83.6399 424.666,-40.0248 411.414,-21.1394"/>
<polygon fill="midnightblue" stroke="midnightblue" points="469.844,-110.496 478.453,-116.671 475.574,-106.475 469.844,-110.496"/>
</g>
<!-- Node15&#45;&gt;Node9 -->
<g id="edge24" class="edge"><title>Node15&#45;&gt;Node9</title>
<path fill="none" stroke="midnightblue" d="M514.412,-112.642C566.146,-89.1448 672.111,-41.0173 716.137,-21.0217"/>
<polygon fill="midnightblue" stroke="midnightblue" points="512.774,-109.542 505.116,-116.864 515.668,-115.915 512.774,-109.542"/>
</g>
<!-- Node16&#45;&gt;Node7 -->
<g id="edge26" class="edge"><title>Node16&#45;&gt;Node7</title>
<path fill="none" stroke="midnightblue" d="M177.382,-112.774C207.976,-99.0222 257.303,-76.9029 300,-58 329.117,-45.1092 362.853,-30.3632 384.061,-21.1164"/>
<polygon fill="midnightblue" stroke="midnightblue" points="175.824,-109.637 168.139,-116.931 178.695,-116.021 175.824,-109.637"/>
</g>
<!-- Node17&#45;&gt;Node7 -->
<g id="edge28" class="edge"><title>Node17&#45;&gt;Node7</title>
<path fill="none" stroke="midnightblue" d="M255.161,-111.312C291.182,-87.4373 361.4,-40.8973 391.15,-21.1799"/>
<polygon fill="midnightblue" stroke="midnightblue" points="253.187,-108.422 246.785,-116.864 257.054,-114.256 253.187,-108.422"/>
</g>
<!-- Node18&#45;&gt;Node7 -->
<g id="edge30" class="edge"><title>Node18&#45;&gt;Node7</title>
<path fill="none" stroke="midnightblue" d="M614.805,-112.495C565.639,-88.9448 465.493,-40.9757 423.835,-21.0217"/>
<polygon fill="midnightblue" stroke="midnightblue" points="613.395,-115.7 623.926,-116.864 616.419,-109.387 613.395,-115.7"/>
</g>
<!-- Node18&#45;&gt;Node9 -->
<g id="edge31" class="edge"><title>Node18&#45;&gt;Node9</title>
<path fill="none" stroke="midnightblue" d="M654.86,-108.716C664.668,-94.7133 679.18,-74.6477 693,-58 704.033,-44.7102 717.826,-30.3026 726.771,-21.2194"/>
<polygon fill="midnightblue" stroke="midnightblue" points="651.975,-106.734 649.149,-116.945 657.726,-110.725 651.975,-106.734"/>
</g>
<!-- Node19&#45;&gt;Node5 -->
<g id="edge33" class="edge"><title>Node19&#45;&gt;Node5</title>
<path fill="none" stroke="midnightblue" d="M561.502,-227.863C542.945,-217.573 518.362,-203.944 502.368,-195.075"/>
<polygon fill="midnightblue" stroke="midnightblue" points="559.879,-230.965 570.322,-232.753 563.273,-224.843 559.879,-230.965"/>
</g>
<!-- Node19&#45;&gt;Node6 -->
<g id="edge34" class="edge"><title>Node19&#45;&gt;Node6</title>
<path fill="none" stroke="midnightblue" d="M636.706,-230.471C657.356,-223.49 680.149,-212.614 696,-196 711.976,-179.255 717.901,-151.452 719.971,-137.137"/>
<polygon fill="midnightblue" stroke="midnightblue" points="635.577,-227.157 627.092,-233.502 637.682,-233.833 635.577,-227.157"/>
</g>
<!-- Node19&#45;&gt;Node8 -->
<g id="edge50" class="edge"><title>Node19&#45;&gt;Node8</title>
<path fill="none" stroke="midnightblue" d="M637.436,-236.997C671.435,-231.505 715.79,-220.013 748,-196 789.19,-165.292 808.769,-102.417 814.846,-79.0278"/>
<polygon fill="midnightblue" stroke="midnightblue" points="636.616,-233.58 627.241,-238.516 637.648,-240.504 636.616,-233.58"/>
</g>
<!-- Node19&#45;&gt;Node10 -->
<g id="edge60" class="edge"><title>Node19&#45;&gt;Node10</title>
<path fill="none" stroke="midnightblue" d="M637.245,-239.181C725.486,-231.121 905.522,-200.018 975,-80 986.834,-59.5581 965.712,-34.2445 952.127,-21.0161"/>
<polygon fill="midnightblue" stroke="midnightblue" points="636.876,-235.699 627.208,-240.034 637.469,-242.674 636.876,-235.699"/>
</g>
<!-- Node19&#45;&gt;Node11 -->
<g id="edge48" class="edge"><title>Node19&#45;&gt;Node11</title>
<path fill="none" stroke="midnightblue" d="M536.914,-238.564C471.49,-233.279 353.767,-221.023 256,-196 196.099,-180.668 128.749,-151.719 96.3952,-137.033"/>
<polygon fill="midnightblue" stroke="midnightblue" points="536.71,-242.059 546.954,-239.354 537.259,-235.08 536.71,-242.059"/>
</g>
<!-- Node19&#45;&gt;Node12 -->
<g id="edge49" class="edge"><title>Node19&#45;&gt;Node12</title>
<path fill="none" stroke="midnightblue" d="M537.002,-232.571C503.472,-225.173 458.873,-213.218 422,-196 387.048,-179.679 350.912,-151.435 333.556,-137.024"/>
<polygon fill="midnightblue" stroke="midnightblue" points="536.52,-236.047 547.031,-234.721 537.987,-229.202 536.52,-236.047"/>
</g>
<!-- Node19&#45;&gt;Node13 -->
<g id="edge51" class="edge"><title>Node19&#45;&gt;Node13</title>
<path fill="none" stroke="midnightblue" d="M536.996,-235.456C507.056,-229.402 469.747,-217.86 443,-196 423.733,-180.253 412.531,-152.013 407.755,-137.374"/>
<polygon fill="midnightblue" stroke="midnightblue" points="536.366,-238.899 546.841,-237.306 537.659,-232.02 536.366,-238.899"/>
</g>
<!-- Node19&#45;&gt;Node14 -->
<g id="edge52" class="edge"><title>Node19&#45;&gt;Node14</title>
<path fill="none" stroke="midnightblue" d="M637.226,-231.648C683.63,-218.861 748.402,-191.831 769,-138 777.347,-116.185 758.133,-91.8311 745.649,-79.0158"/>
<polygon fill="midnightblue" stroke="midnightblue" points="636.121,-228.319 627.333,-234.238 637.893,-235.091 636.121,-228.319"/>
</g>
<!-- Node19&#45;&gt;Node15 -->
<g id="edge53" class="edge"><title>Node19&#45;&gt;Node15</title>
<path fill="none" stroke="midnightblue" d="M572.481,-224.914C560.643,-211.069 543.419,-191.119 528,-174 516.294,-161.003 502.424,-146.284 493.667,-137.072"/>
<polygon fill="midnightblue" stroke="midnightblue" points="569.939,-227.328 579.091,-232.666 575.266,-222.786 569.939,-227.328"/>
</g>
<!-- Node19&#45;&gt;Node16 -->
<g id="edge54" class="edge"><title>Node19&#45;&gt;Node16</title>
<path fill="none" stroke="midnightblue" d="M536.71,-236.251C483.102,-229.427 396.053,-216.341 323,-196 264.909,-179.825 199.387,-151.516 167.511,-137.058"/>
<polygon fill="midnightblue" stroke="midnightblue" points="536.289,-239.726 546.646,-237.493 537.157,-232.78 536.289,-239.726"/>
</g>
<!-- Node19&#45;&gt;Node17 -->
<g id="edge55" class="edge"><title>Node19&#45;&gt;Node17</title>
<path fill="none" stroke="midnightblue" d="M536.796,-233.852C494.578,-226.278 432.968,-213.522 381,-196 331.698,-179.377 276.81,-151.521 249.836,-137.166"/>
<polygon fill="midnightblue" stroke="midnightblue" points="536.371,-237.331 546.827,-235.62 537.586,-230.438 536.371,-237.331"/>
</g>
<!-- Node19&#45;&gt;Node18 -->
<g id="edge56" class="edge"><title>Node19&#45;&gt;Node18</title>
<path fill="none" stroke="midnightblue" d="M590.211,-222.774C593.063,-208.717 598.039,-189.483 606,-174 613.311,-159.781 625.451,-145.81 633.82,-137.065"/>
<polygon fill="midnightblue" stroke="midnightblue" points="586.74,-222.297 588.362,-232.767 593.623,-223.571 586.74,-222.297"/>
</g>
<!-- Node19&#45;&gt;Node20 -->
<g id="edge35" class="edge"><title>Node19&#45;&gt;Node20</title>
<path fill="none" stroke="midnightblue" d="M605.289,-225.997C616.746,-215.972 631.095,-203.417 640.628,-195.075"/>
<polygon fill="midnightblue" stroke="midnightblue" points="602.789,-223.534 597.568,-232.753 607.399,-228.802 602.789,-223.534"/>
</g>
<!-- Node22 -->
<g id="node22" class="node"><title>Node22</title>
<g id="a_node22"><a xlink:href="Label_8h.html" target="_top" xlink:title="Helper functions for manipulating RMF files. ">
<polygon fill="none" stroke="black" points="46.5962,-175 46.5962,-195 95.4038,-195 95.4038,-175 46.5962,-175"/>
<text text-anchor="middle" x="71" y="-181" font-family="Helvetica,sans-Serif" font-size="10.00">Label.h</text>
</a>
</g>
</g>
<!-- Node19&#45;&gt;Node22 -->
<g id="edge57" class="edge"><title>Node19&#45;&gt;Node22</title>
<path fill="none" stroke="midnightblue" d="M536.374,-236.936C455.218,-228.754 290.997,-211.928 152,-196 132.996,-193.822 111.51,-191.16 95.4443,-189.131"/>
<polygon fill="midnightblue" stroke="midnightblue" points="536.492,-240.466 546.793,-237.985 537.194,-233.501 536.492,-240.466"/>
</g>
<!-- Node20&#45;&gt;Node6 -->
<g id="edge36" class="edge"><title>Node20&#45;&gt;Node6</title>
<path fill="none" stroke="midnightblue" d="M670.64,-168.288C683.23,-158.216 699.127,-145.498 709.656,-137.075"/>
<polygon fill="midnightblue" stroke="midnightblue" points="668.181,-165.773 662.559,-174.753 672.554,-171.239 668.181,-165.773"/>
</g>
<!-- Node20&#45;&gt;Node8 -->
<g id="edge39" class="edge"><title>Node20&#45;&gt;Node8</title>
<path fill="none" stroke="midnightblue" d="M696.995,-172.904C720.254,-165.683 747.938,-154.479 769,-138 789.941,-121.616 805.576,-93.6549 812.714,-79.223"/>
<polygon fill="midnightblue" stroke="midnightblue" points="695.929,-169.57 687.33,-175.759 697.912,-176.283 695.929,-169.57"/>
</g>
<!-- Node20&#45;&gt;Node10 -->
<g id="edge47" class="edge"><title>Node20&#45;&gt;Node10</title>
<path fill="none" stroke="midnightblue" d="M697.142,-174.085C726.125,-166.687 763.634,-154.916 794,-138 854.433,-104.335 912.984,-43.789 933.914,-21.0013"/>
<polygon fill="midnightblue" stroke="midnightblue" points="696.141,-170.726 687.271,-176.52 697.818,-177.522 696.141,-170.726"/>
</g>
<!-- Node20&#45;&gt;Node11 -->
<g id="edge37" class="edge"><title>Node20&#45;&gt;Node11</title>
<path fill="none" stroke="midnightblue" d="M604.857,-180.241C479.419,-169.995 139.941,-142.07 116,-138 113.106,-137.508 110.111,-136.908 107.128,-136.249"/>
<polygon fill="midnightblue" stroke="midnightblue" points="604.665,-183.737 614.917,-181.063 605.235,-176.76 604.665,-183.737"/>
</g>
<!-- Node20&#45;&gt;Node12 -->
<g id="edge38" class="edge"><title>Node20&#45;&gt;Node12</title>
<path fill="none" stroke="midnightblue" d="M604.213,-178.177C546.48,-170.63 445.468,-156.25 360,-138 357.007,-137.361 353.894,-136.628 350.803,-135.857"/>
<polygon fill="midnightblue" stroke="midnightblue" points="604.109,-181.692 614.476,-179.506 605.008,-174.75 604.109,-181.692"/>
</g>
<!-- Node20&#45;&gt;Node13 -->
<g id="edge40" class="edge"><title>Node20&#45;&gt;Node13</title>
<path fill="none" stroke="midnightblue" d="M604.713,-173.463C557.389,-162.69 484.845,-146.176 441.447,-136.297"/>
<polygon fill="midnightblue" stroke="midnightblue" points="604.174,-176.93 614.702,-175.737 605.728,-170.105 604.174,-176.93"/>
</g>
<!-- Node20&#45;&gt;Node14 -->
<g id="edge41" class="edge"><title>Node20&#45;&gt;Node14</title>
<path fill="none" stroke="midnightblue" d="M697.046,-174.862C717.542,-168.254 739.771,-157.008 752,-138 763.943,-119.437 750.818,-92.899 742.232,-79.1077"/>
<polygon fill="midnightblue" stroke="midnightblue" points="695.792,-171.582 687.175,-177.746 697.755,-178.301 695.792,-171.582"/>
</g>
<!-- Node20&#45;&gt;Node15 -->
<g id="edge42" class="edge"><title>Node20&#45;&gt;Node15</title>
<path fill="none" stroke="midnightblue" d="M614.28,-171.612C582.95,-161.043 538.691,-146.113 510.935,-136.749"/>
<polygon fill="midnightblue" stroke="midnightblue" points="613.366,-174.998 623.96,-174.878 615.603,-168.365 613.366,-174.998"/>
</g>
<!-- Node20&#45;&gt;Node16 -->
<g id="edge43" class="edge"><title>Node20&#45;&gt;Node16</title>
<path fill="none" stroke="midnightblue" d="M604.37,-179.995C493.609,-170.403 220.903,-146.297 180,-138 177.262,-137.445 174.426,-136.746 171.624,-135.977"/>
<polygon fill="midnightblue" stroke="midnightblue" points="604.305,-183.502 614.57,-180.877 604.908,-176.528 604.305,-183.502"/>
</g>
<!-- Node20&#45;&gt;Node17 -->
<g id="edge44" class="edge"><title>Node20&#45;&gt;Node17</title>
<path fill="none" stroke="midnightblue" d="M604.732,-179.086C535.317,-171.507 400.176,-155.949 286,-138 283.132,-137.549 280.182,-137.061 277.211,-136.551"/>
<polygon fill="midnightblue" stroke="midnightblue" points="604.572,-182.59 614.891,-180.19 605.327,-175.63 604.572,-182.59"/>
</g>
<!-- Node20&#45;&gt;Node18 -->
<g id="edge45" class="edge"><title>Node20&#45;&gt;Node18</title>
<path fill="none" stroke="midnightblue" d="M648.244,-164.707C646.905,-155.338 645.361,-144.526 644.296,-137.075"/>
<polygon fill="midnightblue" stroke="midnightblue" points="644.8,-165.348 649.679,-174.753 651.729,-164.358 644.8,-165.348"/>
</g>
<!-- Node20&#45;&gt;Node21 -->
<g id="edge46" class="edge"><title>Node20&#45;&gt;Node21</title>
<path fill="none" stroke="midnightblue" d="M697.29,-178.148C788.436,-166.627 988.855,-141.291 1064.4,-131.741"/>
<polygon fill="midnightblue" stroke="midnightblue" points="696.735,-174.691 687.253,-179.417 697.613,-181.635 696.735,-174.691"/>
</g>
<!-- Node23 -->
<g id="node23" class="node"><title>Node23</title>
<g id="a_node23"><a xlink:href="labels_8h.html" target="_top" xlink:title="Helper functions for manipulating RMF files. ">
<polygon fill="none" stroke="black" points="-0.233887,-59 -0.233887,-79 50.2339,-79 50.2339,-59 -0.233887,-59"/>
<text text-anchor="middle" x="25" y="-65" font-family="Helvetica,sans-Serif" font-size="10.00">labels.h</text>
</a>
</g>
</g>
<!-- Node22&#45;&gt;Node23 -->
<g id="edge58" class="edge"><title>Node22&#45;&gt;Node23</title>
<path fill="none" stroke="midnightblue" d="M56.1857,-167.128C49.6688,-158.864 42.4901,-148.456 38,-138 29.4635,-118.12 26.5045,-92.5784 25.4999,-79.1648"/>
<polygon fill="midnightblue" stroke="midnightblue" points="53.5253,-169.403 62.5971,-174.876 58.9184,-164.94 53.5253,-169.403"/>
</g>
<!-- Node23&#45;&gt;Node7 -->
<g id="edge59" class="edge"><title>Node23&#45;&gt;Node7</title>
<path fill="none" stroke="midnightblue" d="M60.5075,-62.7673C132.819,-52.111 296.45,-27.9968 369.095,-17.2913"/>
<polygon fill="midnightblue" stroke="midnightblue" points="59.9058,-59.3181 50.5229,-64.2387 60.9264,-66.2433 59.9058,-59.3181"/>
</g>
<!-- Node24&#45;&gt;Node10 -->
<g id="edge68" class="edge"><title>Node24&#45;&gt;Node10</title>
<path fill="none" stroke="midnightblue" d="M1153.35,-222.863C1154.27,-196.728 1152.59,-149.32 1132,-116 1098.5,-61.7742 1026.07,-33.7628 980.944,-21.0241"/>
<polygon fill="midnightblue" stroke="midnightblue" points="1149.85,-222.783 1152.82,-232.953 1156.84,-223.15 1149.85,-222.783"/>
</g>
<!-- Node24&#45;&gt;Node20 -->
<g id="edge62" class="edge"><title>Node24&#45;&gt;Node20</title>
<path fill="none" stroke="midnightblue" d="M1092.48,-235.347C987.537,-223.617 772.62,-199.594 687.185,-190.045"/>
<polygon fill="midnightblue" stroke="midnightblue" points="1092.26,-238.845 1102.59,-236.477 1093.04,-231.888 1092.26,-238.845"/>
</g>
<!-- Node24&#45;&gt;Node21 -->
<g id="edge67" class="edge"><title>Node24&#45;&gt;Node21</title>
<path fill="none" stroke="midnightblue" d="M1142.64,-223.602C1130.06,-198.873 1108.17,-155.858 1098.65,-137.139"/>
<polygon fill="midnightblue" stroke="midnightblue" points="1139.6,-225.345 1147.25,-232.671 1145.84,-222.171 1139.6,-225.345"/>
</g>
<!-- Node25 -->
<g id="node25" class="node"><title>Node25</title>
<g id="a_node25"><a xlink:href="info_8h.html" target="_top" xlink:title="Helper functions for manipulating RMF files. ">
<polygon fill="none" stroke="black" points="1382.77,-175 1382.77,-195 1423.23,-195 1423.23,-175 1382.77,-175"/>
<text text-anchor="middle" x="1403" y="-181" font-family="Helvetica,sans-Serif" font-size="10.00">info.h</text>
</a>
</g>
</g>
<!-- Node24&#45;&gt;Node25 -->
<g id="edge63" class="edge"><title>Node24&#45;&gt;Node25</title>
<path fill="none" stroke="midnightblue" d="M1211.66,-231.534C1256.39,-223.216 1318.94,-210.583 1373,-196 1376.18,-195.142 1379.52,-194.137 1382.76,-193.101"/>
<polygon fill="midnightblue" stroke="midnightblue" points="1210.74,-228.143 1201.54,-233.398 1212.01,-235.027 1210.74,-228.143"/>
</g>
<!-- Node26 -->
<g id="node26" class="node"><title>Node26</title>
<g id="a_node26"><a xlink:href="RestoreCurrentFrame_8h.html" target="_top" xlink:title="Handle read/write of Model data from/to files. ">
<polygon fill="none" stroke="black" points="1441.2,-175 1441.2,-195 1562.8,-195 1562.8,-175 1441.2,-175"/>
<text text-anchor="middle" x="1502" y="-181" font-family="Helvetica,sans-Serif" font-size="10.00">RestoreCurrentFrame.h</text>
</a>
</g>
</g>
<!-- Node24&#45;&gt;Node26 -->
<g id="edge64" class="edge"><title>Node24&#45;&gt;Node26</title>
<path fill="none" stroke="midnightblue" d="M1211.57,-232.469C1277.04,-221.994 1381.42,-205.292 1445.61,-195.023"/>
<polygon fill="midnightblue" stroke="midnightblue" points="1210.73,-229.059 1201.4,-234.095 1211.83,-235.971 1210.73,-229.059"/>
</g>
<!-- Node27 -->
<g id="node27" class="node"><title>Node27</title>
<g id="a_node27"><a xlink:href="SetCurrentFrame_8h.html" target="_top" xlink:title="Handle read/write of Model data from/to files. ">
<polygon fill="none" stroke="black" points="1179.21,-175 1179.21,-195 1280.79,-195 1280.79,-175 1179.21,-175"/>
<text text-anchor="middle" x="1230" y="-181" font-family="Helvetica,sans-Serif" font-size="10.00">SetCurrentFrame.h</text>
</a>
</g>
</g>
<!-- Node24&#45;&gt;Node27 -->
<g id="edge65" class="edge"><title>Node24&#45;&gt;Node27</title>
<path fill="none" stroke="midnightblue" d="M1173.08,-226.866C1187.23,-216.707 1205.4,-203.66 1217.36,-195.075"/>
<polygon fill="midnightblue" stroke="midnightblue" points="1170.96,-224.077 1164.88,-232.753 1175.04,-229.764 1170.96,-224.077"/>
</g>
<!-- Node28 -->
<g id="node28" class="node"><title>Node28</title>
<g id="a_node28"><a xlink:href="signature_8h.html" target="_top" xlink:title="Helper functions for manipulating RMF files. ">
<polygon fill="none" stroke="black" points="1299.26,-175 1299.26,-195 1364.74,-195 1364.74,-175 1299.26,-175"/>
<text text-anchor="middle" x="1332" y="-181" font-family="Helvetica,sans-Serif" font-size="10.00">signature.h</text>
</a>
</g>
</g>
<!-- Node24&#45;&gt;Node28 -->
<g id="edge66" class="edge"><title>Node24&#45;&gt;Node28</title>
<path fill="none" stroke="midnightblue" d="M1191.28,-229.778C1224.95,-219.303 1272.68,-204.454 1302.99,-195.025"/>
<polygon fill="midnightblue" stroke="midnightblue" points="1189.83,-226.565 1181.32,-232.878 1191.91,-233.249 1189.83,-226.565"/>
</g>
<!-- Node30&#45;&gt;Node4 -->
<g id="edge73" class="edge"><title>Node30&#45;&gt;Node4</title>
<path fill="none" stroke="midnightblue" d="M926.333,-344.554C948.135,-334.207 977.676,-320.188 996.787,-311.118"/>
<polygon fill="midnightblue" stroke="midnightblue" points="924.755,-341.429 917.221,-348.878 927.756,-347.752 924.755,-341.429"/>
</g>
<!-- Node30&#45;&gt;Node9 -->
<g id="edge75" class="edge"><title>Node30&#45;&gt;Node9</title>
<path fill="none" stroke="midnightblue" d="M901.206,-338.844C908.708,-287.226 921.973,-143.382 854,-58 836.608,-36.1532 807.431,-24.6615 782.443,-18.6274"/>
<polygon fill="midnightblue" stroke="midnightblue" points="897.719,-338.489 899.64,-348.908 904.636,-339.565 897.719,-338.489"/>
</g>
<!-- Node30&#45;&gt;Node19 -->
<g id="edge74" class="edge"><title>Node30&#45;&gt;Node19</title>
<path fill="none" stroke="midnightblue" d="M863.821,-345.471C800.619,-322.304 666.899,-273.288 611.666,-253.042"/>
<polygon fill="midnightblue" stroke="midnightblue" points="862.743,-348.804 873.336,-348.959 865.152,-342.231 862.743,-348.804"/>
</g>
</g>
</svg>
