<?xml version="1.0" encoding="UTF-8" standalone="no"?>
<!DOCTYPE svg PUBLIC "-//W3C//DTD SVG 1.1//EN"
 "http://www.w3.org/Graphics/SVG/1.1/DTD/svg11.dtd">
<!-- Generated by graphviz version 2.34.0 (20131025.1349)
 -->
<!-- Title: types.h Pages: 1 -->
<!--zoomable 332 -->
<svg id="main" version="1.1" xmlns="http://www.w3.org/2000/svg" xmlns:xlink="http://www.w3.org/1999/xlink" xml:space="preserve" onload="init(evt)">
<style type="text/css"><![CDATA[
.edge:hover path { stroke: red; }
.edge:hover polygon { stroke: red; fill: red; }
]]></style>
<script type="text/javascript"><![CDATA[
var edges = document.getElementsByTagName('g');
if (edges && edges.length) {
  for (var i=0;i<edges.length;i++) {
    if (edges[i].id.substr(0,4)=='edge') {
      edges[i].setAttribute('class','edge');
    }
  }
}
]]></script>
        <defs>
                <circle id="rim" cx="0" cy="0" r="7"/>
                <circle id="rim2" cx="0" cy="0" r="3.5"/>
                <g id="zoomPlus">
                        <use xlink:href="#rim" fill="#404040">
                                <set attributeName="fill" to="#808080" begin="zoomplus.mouseover" end="zoomplus.mouseout"/>
                        </use>
                        <path d="M-4,0h8M0,-4v8" fill="none" stroke="white" stroke-width="1.5" pointer-events="none"/>
                </g>
                <g id="zoomMin">
                        <use xlink:href="#rim" fill="#404040">
                                <set attributeName="fill" to="#808080" begin="zoomminus.mouseover" end="zoomminus.mouseout"/>
                        </use>
                        <path d="M-4,0h8" fill="none" stroke="white" stroke-width="1.5" pointer-events="none"/>
                </g>
                <g id="dirArrow">
                        <path fill="none" stroke="white" stroke-width="1.5" d="M0,-3.0v7 M-2.5,-0.5L0,-3.0L2.5,-0.5"/>
                </g>
               <g id="resetDef">
                       <use xlink:href="#rim2" fill="#404040">
                               <set attributeName="fill" to="#808080" begin="reset.mouseover" end="reset.mouseout"/>
                       </use>
               </g>
        </defs>

<script type="text/javascript">
var viewWidth = 1536;
var viewHeight = 332;
var sectionId = 'dynsection-0';
</script>
<script xlink:href="svgpan.js"/>
<svg id="graph" class="graph">
<g id="viewport">
<title>types.h</title>
<!-- Node1 -->
<g id="node1" class="node"><title>Node1</title>
<polygon fill="#bfbfbf" stroke="black" points="53.8794,-303 53.8794,-323 102.121,-323 102.121,-303 53.8794,-303"/>
<text text-anchor="middle" x="78" y="-309" font-family="Helvetica,sans-Serif" font-size="10.00">types.h</text>
</g>
<!-- Node2 -->
<g id="node2" class="node"><title>Node2</title>
<g id="a_node2"><a xlink:href="config_8h_source.html" target="_top" xlink:title="RMF/config.h">
<polygon fill="none" stroke="black" points="-0.731445,-59 -0.731445,-79 74.7314,-79 74.7314,-59 -0.731445,-59"/>
<text text-anchor="middle" x="37" y="-65" font-family="Helvetica,sans-Serif" font-size="10.00">RMF/config.h</text>
</a>
</g>
</g>
<!-- Node1&#45;&gt;Node2 -->
<g id="edge1" class="edge"><title>Node1&#45;&gt;Node2</title>
<path fill="none" stroke="midnightblue" d="M72.4447,-302.862C67.2507,-293.839 59.7492,-279.475 56,-266 38.5455,-203.267 36.5462,-125.385 36.6664,-89.6223"/>
<polygon fill="midnightblue" stroke="midnightblue" points="40.1704,-89.2257 36.7692,-79.1917 33.1707,-89.1567 40.1704,-89.2257"/>
</g>
<!-- Node4 -->
<g id="node4" class="node"><title>Node4</title>
<g id="a_node4"><a xlink:href="default__types_8h.html" target="_top" xlink:title="Default implementation for types.h. ">
<polygon fill="none" stroke="black" points="64.8672,-245 64.8672,-265 173.133,-265 173.133,-245 64.8672,-245"/>
<text text-anchor="middle" x="119" y="-251" font-family="Helvetica,sans-Serif" font-size="10.00">RMF/default_types.h</text>
</a>
</g>
</g>
<!-- Node1&#45;&gt;Node4 -->
<g id="edge3" class="edge"><title>Node1&#45;&gt;Node4</title>
<path fill="none" stroke="midnightblue" d="M84.7703,-302.753C90.6213,-294.761 99.2339,-282.998 106.356,-273.27"/>
<polygon fill="midnightblue" stroke="midnightblue" points="109.272,-275.211 112.356,-265.075 103.624,-271.076 109.272,-275.211"/>
</g>
<!-- Node3 -->
<g id="node3" class="node"><title>Node3</title>
<g id="a_node3"><a xlink:href="compiler__macros_8h.html" target="_top" xlink:title="Various compiler workarounds. ">
<polygon fill="none" stroke="black" points="40.5444,-1 40.5444,-21 165.456,-21 165.456,-1 40.5444,-1"/>
<text text-anchor="middle" x="103" y="-7" font-family="Helvetica,sans-Serif" font-size="10.00">RMF/compiler_macros.h</text>
</a>
</g>
</g>
<!-- Node2&#45;&gt;Node3 -->
<g id="edge2" class="edge"><title>Node2&#45;&gt;Node3</title>
<path fill="none" stroke="midnightblue" d="M47.8986,-58.7527C57.7978,-50.3534 72.6078,-37.7874 84.3814,-27.7976"/>
<polygon fill="midnightblue" stroke="midnightblue" points="86.9436,-30.2138 92.3042,-21.0752 82.4147,-24.8762 86.9436,-30.2138"/>
</g>
<!-- Node4&#45;&gt;Node2 -->
<g id="edge4" class="edge"><title>Node4&#45;&gt;Node2</title>
<path fill="none" stroke="midnightblue" d="M114.934,-244.875C102.173,-216.241 62.7395,-127.757 45.3657,-88.7719"/>
<polygon fill="midnightblue" stroke="midnightblue" points="48.3585,-86.889 41.0909,-79.1797 41.9647,-89.7384 48.3585,-86.889"/>
</g>
<!-- Node5 -->
<g id="node5" class="node"><title>Node5</title>
<g id="a_node5"><a xlink:href="Vector_8h.html" target="_top" xlink:title="Represent coordinates. ">
<polygon fill="none" stroke="black" points="902.926,-187 902.926,-207 955.074,-207 955.074,-187 902.926,-187"/>
<text text-anchor="middle" x="929" y="-193" font-family="Helvetica,sans-Serif" font-size="10.00">Vector.h</text>
</a>
</g>
</g>
<!-- Node4&#45;&gt;Node5 -->
<g id="edge5" class="edge"><title>Node4&#45;&gt;Node5</title>
<path fill="none" stroke="midnightblue" d="M173.404,-250.239C327.452,-239.589 763.805,-209.421 892.712,-200.509"/>
<polygon fill="midnightblue" stroke="midnightblue" points="893.107,-203.99 902.842,-199.808 892.624,-197.007 893.107,-203.99"/>
</g>
<!-- Node5&#45;&gt;Node2 -->
<g id="edge6" class="edge"><title>Node5&#45;&gt;Node2</title>
<path fill="none" stroke="midnightblue" d="M902.633,-196.374C814.335,-197.148 521.306,-195.857 285,-150 205.145,-134.504 115.121,-101.31 68.6075,-82.9235"/>
<polygon fill="midnightblue" stroke="midnightblue" points="69.6778,-79.5822 59.0927,-79.1282 67.0843,-86.0841 69.6778,-79.5822"/>
</g>
<!-- Node6 -->
<g id="node6" class="node"><title>Node6</title>
<g id="a_node6"><a xlink:href="infrastructure__macros_8h.html" target="_top" xlink:title="Various general useful macros for IMP. ">
<polygon fill="none" stroke="black" points="602.48,-123 602.48,-143 723.52,-143 723.52,-123 602.48,-123"/>
<text text-anchor="middle" x="663" y="-129" font-family="Helvetica,sans-Serif" font-size="10.00">infrastructure_macros.h</text>
</a>
</g>
</g>
<!-- Node5&#45;&gt;Node6 -->
<g id="edge7" class="edge"><title>Node5&#45;&gt;Node6</title>
<path fill="none" stroke="midnightblue" d="M902.522,-189.829C858.111,-179.477 767.967,-158.466 711.816,-145.378"/>
<polygon fill="midnightblue" stroke="midnightblue" points="712.279,-141.892 701.745,-143.031 710.69,-148.71 712.279,-141.892"/>
</g>
<!-- Node15 -->
<g id="node15" class="node"><title>Node15</title>
<g id="a_node15"><a xlink:href="exceptions_8h.html" target="_top" xlink:title="Various general useful macros for IMP. ">
<polygon fill="none" stroke="black" points="293.926,-123 293.926,-143 366.074,-143 366.074,-123 293.926,-123"/>
<text text-anchor="middle" x="330" y="-129" font-family="Helvetica,sans-Serif" font-size="10.00">exceptions.h</text>
</a>
</g>
</g>
<!-- Node5&#45;&gt;Node15 -->
<g id="edge17" class="edge"><title>Node5&#45;&gt;Node15</title>
<path fill="none" stroke="midnightblue" d="M902.877,-193.296C810.09,-183.692 495.59,-151.14 376.352,-138.798"/>
<polygon fill="midnightblue" stroke="midnightblue" points="376.408,-135.285 366.101,-137.737 375.687,-142.248 376.408,-135.285"/>
</g>
<!-- Node19 -->
<g id="node19" class="node"><title>Node19</title>
<polygon fill="none" stroke="#bfbfbf" points="741.237,-123 741.237,-143 856.763,-143 856.763,-123 741.237,-123"/>
<text text-anchor="middle" x="799" y="-129" font-family="Helvetica,sans-Serif" font-size="10.00">boost/range/begin.hpp</text>
</g>
<!-- Node5&#45;&gt;Node19 -->
<g id="edge24" class="edge"><title>Node5&#45;&gt;Node19</title>
<path fill="none" stroke="midnightblue" d="M910.097,-186.985C888.242,-176.561 852.062,-159.307 826.954,-147.332"/>
<polygon fill="midnightblue" stroke="midnightblue" points="828.459,-144.172 817.926,-143.026 825.445,-150.49 828.459,-144.172"/>
</g>
<!-- Node20 -->
<g id="node20" class="node"><title>Node20</title>
<polygon fill="none" stroke="#bfbfbf" points="875.128,-123 875.128,-143 982.872,-143 982.872,-123 875.128,-123"/>
<text text-anchor="middle" x="929" y="-129" font-family="Helvetica,sans-Serif" font-size="10.00">boost/range/end.hpp</text>
</g>
<!-- Node5&#45;&gt;Node20 -->
<g id="edge25" class="edge"><title>Node5&#45;&gt;Node20</title>
<path fill="none" stroke="midnightblue" d="M929,-186.852C929,-178.06 929,-164.498 929,-153.313"/>
<polygon fill="midnightblue" stroke="midnightblue" points="932.5,-153.186 929,-143.186 925.5,-153.186 932.5,-153.186"/>
</g>
<!-- Node21 -->
<g id="node21" class="node"><title>Node21</title>
<polygon fill="none" stroke="#bfbfbf" points="1001.31,-117 1001.31,-149 1100.69,-149 1100.69,-117 1001.31,-117"/>
<text text-anchor="start" x="1009.31" y="-135" font-family="Helvetica,sans-Serif" font-size="10.00">boost/type_traits/is</text>
<text text-anchor="middle" x="1051" y="-123" font-family="Helvetica,sans-Serif" font-size="10.00">_convertible.hpp</text>
</g>
<!-- Node5&#45;&gt;Node21 -->
<g id="edge26" class="edge"><title>Node5&#45;&gt;Node21</title>
<path fill="none" stroke="midnightblue" d="M946.74,-186.985C963.856,-178.286 990.335,-164.83 1012.32,-153.655"/>
<polygon fill="midnightblue" stroke="midnightblue" points="1014.1,-156.677 1021.43,-149.026 1010.93,-150.436 1014.1,-156.677"/>
</g>
<!-- Node22 -->
<g id="node22" class="node"><title>Node22</title>
<polygon fill="none" stroke="#bfbfbf" points="1118.25,-123 1118.25,-143 1213.75,-143 1213.75,-123 1118.25,-123"/>
<text text-anchor="middle" x="1166" y="-129" font-family="Helvetica,sans-Serif" font-size="10.00">boost/mpl/not.hpp</text>
</g>
<!-- Node5&#45;&gt;Node22 -->
<g id="edge27" class="edge"><title>Node5&#45;&gt;Node22</title>
<path fill="none" stroke="midnightblue" d="M955.283,-189.488C990.385,-180.745 1054.48,-164.616 1109,-150 1114.02,-148.654 1119.28,-147.215 1124.5,-145.773"/>
<polygon fill="midnightblue" stroke="midnightblue" points="1125.69,-149.074 1134.38,-143.018 1123.81,-142.331 1125.69,-149.074"/>
</g>
<!-- Node23 -->
<g id="node23" class="node"><title>Node23</title>
<polygon fill="none" stroke="#bfbfbf" points="1231.62,-123 1231.62,-143 1316.38,-143 1316.38,-123 1231.62,-123"/>
<text text-anchor="middle" x="1274" y="-129" font-family="Helvetica,sans-Serif" font-size="10.00">boost/array.hpp</text>
</g>
<!-- Node5&#45;&gt;Node23 -->
<g id="edge28" class="edge"><title>Node5&#45;&gt;Node23</title>
<path fill="none" stroke="midnightblue" d="M955.107,-193.17C1006.59,-187.312 1124.67,-172.492 1222,-150 1227.05,-148.834 1232.32,-147.433 1237.49,-145.951"/>
<polygon fill="midnightblue" stroke="midnightblue" points="1238.63,-149.262 1247.21,-143.043 1236.63,-142.555 1238.63,-149.262"/>
</g>
<!-- Node24 -->
<g id="node24" class="node"><title>Node24</title>
<polygon fill="none" stroke="#bfbfbf" points="1334.58,-123 1334.58,-143 1453.42,-143 1453.42,-123 1334.58,-123"/>
<text text-anchor="middle" x="1394" y="-129" font-family="Helvetica,sans-Serif" font-size="10.00">boost/static_assert.hpp</text>
</g>
<!-- Node5&#45;&gt;Node24 -->
<g id="edge29" class="edge"><title>Node5&#45;&gt;Node24</title>
<path fill="none" stroke="midnightblue" d="M955.091,-193.989C1018.68,-188.867 1186.57,-174.013 1325,-150 1332.58,-148.685 1340.58,-147.057 1348.34,-145.347"/>
<polygon fill="midnightblue" stroke="midnightblue" points="1349.37,-148.702 1358.34,-143.072 1347.82,-141.876 1349.37,-148.702"/>
</g>
<!-- Node25 -->
<g id="node25" class="node"><title>Node25</title>
<polygon fill="none" stroke="#bfbfbf" points="1471.44,-123 1471.44,-143 1528.56,-143 1528.56,-123 1471.44,-123"/>
<text text-anchor="middle" x="1500" y="-129" font-family="Helvetica,sans-Serif" font-size="10.00">algorithm</text>
</g>
<!-- Node5&#45;&gt;Node25 -->
<g id="edge30" class="edge"><title>Node5&#45;&gt;Node25</title>
<path fill="none" stroke="midnightblue" d="M955.26,-196.599C1033.59,-197.779 1271.98,-196.967 1462,-150 1465.44,-149.15 1468.97,-148.03 1472.43,-146.777"/>
<polygon fill="midnightblue" stroke="midnightblue" points="1473.86,-149.974 1481.84,-143.005 1471.26,-143.476 1473.86,-149.974"/>
</g>
<!-- Node6&#45;&gt;Node3 -->
<g id="edge11" class="edge"><title>Node6&#45;&gt;Node3</title>
<path fill="none" stroke="midnightblue" d="M651.43,-122.973C628.112,-104.968 575.916,-65.6602 555,-58 487.284,-33.1998 285.704,-20.3594 176.035,-15.0463"/>
<polygon fill="midnightblue" stroke="midnightblue" points="175.872,-11.5347 165.717,-14.5555 175.539,-18.5268 175.872,-11.5347"/>
</g>
<!-- Node7 -->
<g id="node7" class="node"><title>Node7</title>
<polygon fill="none" stroke="#bfbfbf" points="602.219,-59 602.219,-79 653.781,-79 653.781,-59 602.219,-59"/>
<text text-anchor="middle" x="628" y="-65" font-family="Helvetica,sans-Serif" font-size="10.00">sstream</text>
</g>
<!-- Node6&#45;&gt;Node7 -->
<g id="edge8" class="edge"><title>Node6&#45;&gt;Node7</title>
<path fill="none" stroke="midnightblue" d="M657.836,-122.852C652.666,-113.694 644.574,-99.3592 638.121,-87.9279"/>
<polygon fill="midnightblue" stroke="midnightblue" points="641.149,-86.1735 633.186,-79.1858 635.054,-89.6147 641.149,-86.1735"/>
</g>
<!-- Node8 -->
<g id="node8" class="node"><title>Node8</title>
<polygon fill="none" stroke="#bfbfbf" points="671.828,-59 671.828,-79 726.172,-79 726.172,-59 671.828,-59"/>
<text text-anchor="middle" x="699" y="-65" font-family="Helvetica,sans-Serif" font-size="10.00">iostream</text>
</g>
<!-- Node6&#45;&gt;Node8 -->
<g id="edge9" class="edge"><title>Node6&#45;&gt;Node8</title>
<path fill="none" stroke="midnightblue" d="M668.312,-122.852C673.629,-113.694 681.953,-99.3592 688.59,-87.9279"/>
<polygon fill="midnightblue" stroke="midnightblue" points="691.672,-89.5912 693.666,-79.1858 685.618,-86.0763 691.672,-89.5912"/>
</g>
<!-- Node9 -->
<g id="node9" class="node"><title>Node9</title>
<polygon fill="none" stroke="#bfbfbf" points="505.773,-59 505.773,-79 546.227,-79 546.227,-59 505.773,-59"/>
<text text-anchor="middle" x="526" y="-65" font-family="Helvetica,sans-Serif" font-size="10.00">string</text>
</g>
<!-- Node6&#45;&gt;Node9 -->
<g id="edge10" class="edge"><title>Node6&#45;&gt;Node9</title>
<path fill="none" stroke="midnightblue" d="M643.079,-122.985C619.946,-112.516 581.583,-95.1544 555.11,-83.1739"/>
<polygon fill="midnightblue" stroke="midnightblue" points="556.499,-79.9606 545.945,-79.0262 553.612,-86.3379 556.499,-79.9606"/>
</g>
<!-- Node10 -->
<g id="node10" class="node"><title>Node10</title>
<polygon fill="none" stroke="#bfbfbf" points="743.98,-59 743.98,-79 820.02,-79 820.02,-59 743.98,-59"/>
<text text-anchor="middle" x="782" y="-65" font-family="Helvetica,sans-Serif" font-size="10.00">internal/use.h</text>
</g>
<!-- Node6&#45;&gt;Node10 -->
<g id="edge12" class="edge"><title>Node6&#45;&gt;Node10</title>
<path fill="none" stroke="midnightblue" d="M680.304,-122.985C700.133,-112.653 732.845,-95.6101 755.802,-83.6496"/>
<polygon fill="midnightblue" stroke="midnightblue" points="757.424,-86.7508 764.675,-79.0262 754.19,-80.5429 757.424,-86.7508"/>
</g>
<!-- Node11 -->
<g id="node11" class="node"><title>Node11</title>
<polygon fill="none" stroke="#bfbfbf" points="838.306,-59 838.306,-79 927.694,-79 927.694,-59 838.306,-59"/>
<text text-anchor="middle" x="883" y="-65" font-family="Helvetica,sans-Serif" font-size="10.00">boost/config.hpp</text>
</g>
<!-- Node6&#45;&gt;Node11 -->
<g id="edge13" class="edge"><title>Node6&#45;&gt;Node11</title>
<path fill="none" stroke="midnightblue" d="M694.99,-122.985C733.605,-112.102 798.644,-93.7731 841.196,-81.7811"/>
<polygon fill="midnightblue" stroke="midnightblue" points="842.296,-85.1076 850.972,-79.0262 840.397,-78.37 842.296,-85.1076"/>
</g>
<!-- Node12 -->
<g id="node12" class="node"><title>Node12</title>
<polygon fill="none" stroke="#bfbfbf" points="945.53,-59 945.53,-79 1040.47,-79 1040.47,-59 945.53,-59"/>
<text text-anchor="middle" x="993" y="-65" font-family="Helvetica,sans-Serif" font-size="10.00">boost/version.hpp</text>
</g>
<!-- Node6&#45;&gt;Node12 -->
<g id="edge14" class="edge"><title>Node6&#45;&gt;Node12</title>
<path fill="none" stroke="midnightblue" d="M700.163,-122.999C710.451,-120.612 721.638,-118.113 732,-116 736.985,-114.983 859.748,-93.3999 935.108,-80.1637"/>
<polygon fill="midnightblue" stroke="midnightblue" points="936.166,-83.5315 945.41,-78.3544 934.955,-76.637 936.166,-83.5315"/>
</g>
<!-- Node13 -->
<g id="node13" class="node"><title>Node13</title>
<polygon fill="none" stroke="#bfbfbf" points="1057.97,-59 1057.97,-79 1154.03,-79 1154.03,-59 1057.97,-59"/>
<text text-anchor="middle" x="1106" y="-65" font-family="Helvetica,sans-Serif" font-size="10.00">boost/foreach.hpp</text>
</g>
<!-- Node6&#45;&gt;Node13 -->
<g id="edge15" class="edge"><title>Node6&#45;&gt;Node13</title>
<path fill="none" stroke="midnightblue" d="M698.298,-122.994C709.065,-120.469 720.972,-117.898 732,-116 868.464,-92.5092 906.873,-99.8883 1047.52,-80.1322"/>
<polygon fill="midnightblue" stroke="midnightblue" points="1048.43,-83.5392 1057.83,-78.6621 1047.44,-76.6094 1048.43,-83.5392"/>
</g>
<!-- Node14 -->
<g id="node14" class="node"><title>Node14</title>
<polygon fill="none" stroke="#bfbfbf" points="1172.38,-59 1172.38,-79 1215.62,-79 1215.62,-59 1172.38,-59"/>
<text text-anchor="middle" x="1194" y="-65" font-family="Helvetica,sans-Serif" font-size="10.00">vector</text>
</g>
<!-- Node6&#45;&gt;Node14 -->
<g id="edge16" class="edge"><title>Node6&#45;&gt;Node14</title>
<path fill="none" stroke="midnightblue" d="M697.557,-122.956C708.506,-120.368 720.702,-117.772 732,-116 918.655,-86.7207 972.683,-116.693 1162.14,-79.7224"/>
<polygon fill="midnightblue" stroke="midnightblue" points="1163.02,-83.1158 1172.15,-77.7326 1161.66,-76.2502 1163.02,-83.1158"/>
</g>
<!-- Node15&#45;&gt;Node2 -->
<g id="edge21" class="edge"><title>Node15&#45;&gt;Node2</title>
<path fill="none" stroke="midnightblue" d="M293.779,-124.335C241.203,-113.21 143.651,-92.5678 85.0991,-80.178"/>
<polygon fill="midnightblue" stroke="midnightblue" points="85.5005,-76.6855 74.9925,-78.0394 84.0513,-83.5338 85.5005,-76.6855"/>
</g>
<!-- Node15&#45;&gt;Node3 -->
<g id="edge22" class="edge"><title>Node15&#45;&gt;Node3</title>
<path fill="none" stroke="midnightblue" d="M293.558,-127.336C240.645,-119.848 146.212,-103.555 122,-80 109.118,-67.4671 104.759,-46.9835 103.387,-31.7682"/>
<polygon fill="midnightblue" stroke="midnightblue" points="106.86,-31.1761 102.827,-21.3789 99.87,-31.5526 106.86,-31.1761"/>
</g>
<!-- Node15&#45;&gt;Node9 -->
<g id="edge20" class="edge"><title>Node15&#45;&gt;Node9</title>
<path fill="none" stroke="midnightblue" d="M359.952,-122.972C391.544,-113.383 442.997,-97.5834 496.155,-80.216"/>
<polygon fill="midnightblue" stroke="midnightblue" points="497.333,-83.5132 505.745,-77.0718 495.152,-76.8617 497.333,-83.5132"/>
</g>
<!-- Node16 -->
<g id="node16" class="node"><title>Node16</title>
<polygon fill="none" stroke="#bfbfbf" points="131.451,-59 131.451,-79 282.549,-79 282.549,-59 131.451,-59"/>
<text text-anchor="middle" x="207" y="-65" font-family="Helvetica,sans-Serif" font-size="10.00">boost/exception/exception.hpp</text>
</g>
<!-- Node15&#45;&gt;Node16 -->
<g id="edge18" class="edge"><title>Node15&#45;&gt;Node16</title>
<path fill="none" stroke="midnightblue" d="M312.115,-122.985C291.619,-112.653 257.807,-95.6101 234.079,-83.6496"/>
<polygon fill="midnightblue" stroke="midnightblue" points="235.412,-80.402 224.907,-79.0262 232.261,-86.6528 235.412,-80.402"/>
</g>
<!-- Node17 -->
<g id="node17" class="node"><title>Node17</title>
<polygon fill="none" stroke="#bfbfbf" points="300.596,-59 300.596,-79 359.404,-79 359.404,-59 300.596,-59"/>
<text text-anchor="middle" x="330" y="-65" font-family="Helvetica,sans-Serif" font-size="10.00">exception</text>
</g>
<!-- Node15&#45;&gt;Node17 -->
<g id="edge19" class="edge"><title>Node15&#45;&gt;Node17</title>
<path fill="none" stroke="midnightblue" d="M330,-122.852C330,-114.06 330,-100.498 330,-89.3131"/>
<polygon fill="midnightblue" stroke="midnightblue" points="333.5,-89.1858 330,-79.1858 326.5,-89.1859 333.5,-89.1858"/>
</g>
<!-- Node18 -->
<g id="node18" class="node"><title>Node18</title>
<polygon fill="none" stroke="#bfbfbf" points="377.766,-59 377.766,-79 488.234,-79 488.234,-59 377.766,-59"/>
<text text-anchor="middle" x="433" y="-65" font-family="Helvetica,sans-Serif" font-size="10.00">RMF/internal/errors.h</text>
</g>
<!-- Node15&#45;&gt;Node18 -->
<g id="edge23" class="edge"><title>Node15&#45;&gt;Node18</title>
<path fill="none" stroke="midnightblue" d="M345.198,-122.852C362.009,-112.732 389.322,-96.2919 409.024,-84.4324"/>
<polygon fill="midnightblue" stroke="midnightblue" points="410.977,-87.3417 417.74,-79.1858 407.367,-81.3444 410.977,-87.3417"/>
</g>
</g>
</svg>
        <g id="navigator" transform="translate(0 0)" fill="#404254">
                <rect fill="#f2f5e9" fill-opacity="0.5" stroke="#606060" stroke-width=".5" x="0" y="0" width="60" height="60"/>
                <use id="zoomplus" xlink:href="#zoomPlus" x="17" y="9" onmousedown="handleZoom(evt,'in')"/>
                <use id="zoomminus" xlink:href="#zoomMin" x="42" y="9" onmousedown="handleZoom(evt,'out')"/>
                <use id="reset" xlink:href="#resetDef" x="30" y="36" onmousedown="handleReset()"/>
                <g id="arrowUp" xlink:href="#dirArrow" transform="translate(30 24)" onmousedown="handlePan(0,-1)">
                  <use xlink:href="#rim" fill="#404040">
                        <set attributeName="fill" to="#808080" begin="arrowUp.mouseover" end="arrowUp.mouseout"/>
                  </use>
                  <path fill="none" stroke="white" stroke-width="1.5" d="M0,-3.0v7 M-2.5,-0.5L0,-3.0L2.5,-0.5"/>
                </g>
                <g id="arrowRight" xlink:href="#dirArrow" transform="rotate(90) translate(36 -43)" onmousedown="handlePan(1,0)">
                  <use xlink:href="#rim" fill="#404040">
                        <set attributeName="fill" to="#808080" begin="arrowRight.mouseover" end="arrowRight.mouseout"/>
                  </use>
                  <path fill="none" stroke="white" stroke-width="1.5" d="M0,-3.0v7 M-2.5,-0.5L0,-3.0L2.5,-0.5"/>
                </g>
                <g id="arrowDown" xlink:href="#dirArrow" transform="rotate(180) translate(-30 -48)" onmousedown="handlePan(0,1)">
                  <use xlink:href="#rim" fill="#404040">
                        <set attributeName="fill" to="#808080" begin="arrowDown.mouseover" end="arrowDown.mouseout"/>
                  </use>
                  <path fill="none" stroke="white" stroke-width="1.5" d="M0,-3.0v7 M-2.5,-0.5L0,-3.0L2.5,-0.5"/>
                </g>
                <g id="arrowLeft" xlink:href="#dirArrow" transform="rotate(270) translate(-36 17)" onmousedown="handlePan(-1,0)">
                  <use xlink:href="#rim" fill="#404040">
                        <set attributeName="fill" to="#808080" begin="arrowLeft.mouseover" end="arrowLeft.mouseout"/>
                  </use>
                  <path fill="none" stroke="white" stroke-width="1.5" d="M0,-3.0v7 M-2.5,-0.5L0,-3.0L2.5,-0.5"/>
                </g>
        </g>
        <svg viewBox="0 0 15 15" width="100%" height="30px" preserveAspectRatio="xMaxYMin meet">
         <g id="arrow_out" transform="scale(0.3 0.3)">
          <a xlink:href="types_8h__incl_org.svg" target="_base">
           <rect id="button" ry="5" rx="5" y="6" x="6" height="38" width="38"
                fill="#f2f5e9" fill-opacity="0.5" stroke="#606060" stroke-width="1.0"/>
           <path id="arrow"
             d="M 11.500037,31.436501 C 11.940474,20.09759 22.043105,11.32322 32.158766,21.979434 L 37.068811,17.246167 C 37.068811,17.246167 37.088388,32 37.088388,32 L 22.160133,31.978069 C 22.160133,31.978069 26.997745,27.140456 26.997745,27.140456 C 18.528582,18.264221 13.291696,25.230495 11.500037,31.436501 z"
             style="fill:#404040;"/>
          </a>
         </g>
        </svg>
</svg>
