<?xml version="1.0" encoding="UTF-8" standalone="no"?>
<!DOCTYPE svg PUBLIC "-//W3C//DTD SVG 1.1//EN"
 "http://www.w3.org/Graphics/SVG/1.1/DTD/svg11.dtd">
<!-- Generated by graphviz version 2.34.0 (20131025.1349)
 -->
<!-- Title: Vector.h Pages: 1 -->
<svg width="1223pt" height="204pt"
 viewBox="0.00 0.00 1223.00 204.00" xmlns="http://www.w3.org/2000/svg" xmlns:xlink="http://www.w3.org/1999/xlink">
<g id="graph0" class="graph" transform="scale(1 1) rotate(0) translate(4 200)">
<title>Vector.h</title>
<!-- Node1 -->
<g id="node1" class="node"><title>Node1</title>
<polygon fill="#bfbfbf" stroke="black" points="487.926,-175 487.926,-195 540.074,-195 540.074,-175 487.926,-175"/>
<text text-anchor="middle" x="514" y="-181" font-family="Helvetica,sans-Serif" font-size="10.00">Vector.h</text>
</g>
<!-- Node2 -->
<g id="node2" class="node"><title>Node2</title>
<g id="a_node2"><a xlink:href="config_8h_source.html" target="_top" xlink:title="RMF/config.h">
<polygon fill="none" stroke="black" points="-0.731445,-59 -0.731445,-79 74.7314,-79 74.7314,-59 -0.731445,-59"/>
<text text-anchor="middle" x="37" y="-65" font-family="Helvetica,sans-Serif" font-size="10.00">RMF/config.h</text>
</a>
</g>
</g>
<!-- Node1&#45;&gt;Node2 -->
<g id="edge1" class="edge"><title>Node1&#45;&gt;Node2</title>
<path fill="none" stroke="midnightblue" d="M487.771,-179.344C445.08,-171.628 357.994,-155.316 285,-138 211.191,-120.49 126.108,-96.2675 77.2316,-81.9567"/>
<polygon fill="midnightblue" stroke="midnightblue" points="77.9497,-78.5199 67.3686,-79.0594 75.9767,-85.2361 77.9497,-78.5199"/>
</g>
<!-- Node4 -->
<g id="node4" class="node"><title>Node4</title>
<g id="a_node4"><a xlink:href="infrastructure__macros_8h.html" target="_top" xlink:title="Various general useful macros for IMP. ">
<polygon fill="none" stroke="black" points="638.48,-117 638.48,-137 759.52,-137 759.52,-117 638.48,-117"/>
<text text-anchor="middle" x="699" y="-123" font-family="Helvetica,sans-Serif" font-size="10.00">infrastructure_macros.h</text>
</a>
</g>
</g>
<!-- Node1&#45;&gt;Node4 -->
<g id="edge3" class="edge"><title>Node1&#45;&gt;Node4</title>
<path fill="none" stroke="midnightblue" d="M540.114,-176.095C571.159,-166.698 623.29,-150.918 659.328,-140.009"/>
<polygon fill="midnightblue" stroke="midnightblue" points="660.478,-143.318 669.035,-137.071 658.45,-136.618 660.478,-143.318"/>
</g>
<!-- Node13 -->
<g id="node13" class="node"><title>Node13</title>
<g id="a_node13"><a xlink:href="exceptions_8h.html" target="_top" xlink:title="Various general useful macros for IMP. ">
<polygon fill="none" stroke="black" points="293.926,-117 293.926,-137 366.074,-137 366.074,-117 293.926,-117"/>
<text text-anchor="middle" x="330" y="-123" font-family="Helvetica,sans-Serif" font-size="10.00">exceptions.h</text>
</a>
</g>
</g>
<!-- Node1&#45;&gt;Node13 -->
<g id="edge13" class="edge"><title>Node1&#45;&gt;Node13</title>
<path fill="none" stroke="midnightblue" d="M487.637,-175.977C456.664,-166.55 404.98,-150.82 369.281,-139.955"/>
<polygon fill="midnightblue" stroke="midnightblue" points="370.252,-136.592 359.667,-137.029 368.214,-143.289 370.252,-136.592"/>
</g>
<!-- Node17 -->
<g id="node17" class="node"><title>Node17</title>
<polygon fill="none" stroke="#bfbfbf" points="777.436,-117 777.436,-137 834.564,-137 834.564,-117 777.436,-117"/>
<text text-anchor="middle" x="806" y="-123" font-family="Helvetica,sans-Serif" font-size="10.00">algorithm</text>
</g>
<!-- Node1&#45;&gt;Node17 -->
<g id="edge20" class="edge"><title>Node1&#45;&gt;Node17</title>
<path fill="none" stroke="midnightblue" d="M540.096,-179.965C584.603,-172.935 678.222,-157.507 767.415,-137.988"/>
<polygon fill="midnightblue" stroke="midnightblue" points="768.415,-141.351 777.424,-135.776 766.905,-134.516 768.415,-141.351"/>
</g>
<!-- Node3 -->
<g id="node3" class="node"><title>Node3</title>
<g id="a_node3"><a xlink:href="compiler__macros_8h.html" target="_top" xlink:title="Various compiler workarounds. ">
<polygon fill="none" stroke="black" points="40.5444,-1 40.5444,-21 165.456,-21 165.456,-1 40.5444,-1"/>
<text text-anchor="middle" x="103" y="-7" font-family="Helvetica,sans-Serif" font-size="10.00">RMF/compiler_macros.h</text>
</a>
</g>
</g>
<!-- Node2&#45;&gt;Node3 -->
<g id="edge2" class="edge"><title>Node2&#45;&gt;Node3</title>
<path fill="none" stroke="midnightblue" d="M47.8986,-58.7527C57.7978,-50.3534 72.6078,-37.7874 84.3814,-27.7976"/>
<polygon fill="midnightblue" stroke="midnightblue" points="86.9436,-30.2138 92.3042,-21.0752 82.4147,-24.8762 86.9436,-30.2138"/>
</g>
<!-- Node4&#45;&gt;Node3 -->
<g id="edge7" class="edge"><title>Node4&#45;&gt;Node3</title>
<path fill="none" stroke="midnightblue" d="M675.904,-116.878C654.192,-108.091 620.942,-94.0926 593,-80 575.576,-71.2121 573.566,-64.011 555,-58 486.392,-35.7875 285.194,-21.8382 175.817,-15.6801"/>
<polygon fill="midnightblue" stroke="midnightblue" points="175.705,-12.1686 165.526,-15.1085 175.317,-19.1578 175.705,-12.1686"/>
</g>
<!-- Node5 -->
<g id="node5" class="node"><title>Node5</title>
<polygon fill="none" stroke="#bfbfbf" points="602.219,-59 602.219,-79 653.781,-79 653.781,-59 602.219,-59"/>
<text text-anchor="middle" x="628" y="-65" font-family="Helvetica,sans-Serif" font-size="10.00">sstream</text>
</g>
<!-- Node4&#45;&gt;Node5 -->
<g id="edge4" class="edge"><title>Node4&#45;&gt;Node5</title>
<path fill="none" stroke="midnightblue" d="M687.276,-116.753C676.523,-108.272 660.385,-95.543 647.661,-85.5073"/>
<polygon fill="midnightblue" stroke="midnightblue" points="649.525,-82.52 639.506,-79.0752 645.19,-88.0162 649.525,-82.52"/>
</g>
<!-- Node6 -->
<g id="node6" class="node"><title>Node6</title>
<polygon fill="none" stroke="#bfbfbf" points="671.828,-59 671.828,-79 726.172,-79 726.172,-59 671.828,-59"/>
<text text-anchor="middle" x="699" y="-65" font-family="Helvetica,sans-Serif" font-size="10.00">iostream</text>
</g>
<!-- Node4&#45;&gt;Node6 -->
<g id="edge5" class="edge"><title>Node4&#45;&gt;Node6</title>
<path fill="none" stroke="midnightblue" d="M699,-116.753C699,-109.25 699,-98.4238 699,-89.0781"/>
<polygon fill="midnightblue" stroke="midnightblue" points="702.5,-89.0752 699,-79.0752 695.5,-89.0752 702.5,-89.0752"/>
</g>
<!-- Node7 -->
<g id="node7" class="node"><title>Node7</title>
<polygon fill="none" stroke="#bfbfbf" points="505.773,-59 505.773,-79 546.227,-79 546.227,-59 505.773,-59"/>
<text text-anchor="middle" x="526" y="-65" font-family="Helvetica,sans-Serif" font-size="10.00">string</text>
</g>
<!-- Node4&#45;&gt;Node7 -->
<g id="edge6" class="edge"><title>Node4&#45;&gt;Node7</title>
<path fill="none" stroke="midnightblue" d="M670.82,-116.878C639.285,-106.67 588.395,-90.1972 556.1,-79.7433"/>
<polygon fill="midnightblue" stroke="midnightblue" points="556.908,-76.3261 546.316,-76.5763 554.752,-82.9859 556.908,-76.3261"/>
</g>
<!-- Node8 -->
<g id="node8" class="node"><title>Node8</title>
<polygon fill="none" stroke="#bfbfbf" points="743.98,-59 743.98,-79 820.02,-79 820.02,-59 743.98,-59"/>
<text text-anchor="middle" x="782" y="-65" font-family="Helvetica,sans-Serif" font-size="10.00">internal/use.h</text>
</g>
<!-- Node4&#45;&gt;Node8 -->
<g id="edge8" class="edge"><title>Node4&#45;&gt;Node8</title>
<path fill="none" stroke="midnightblue" d="M712.706,-116.753C725.517,-108.109 744.87,-95.0518 759.87,-84.9314"/>
<polygon fill="midnightblue" stroke="midnightblue" points="762.217,-87.5696 768.549,-79.0752 758.302,-81.7669 762.217,-87.5696"/>
</g>
<!-- Node9 -->
<g id="node9" class="node"><title>Node9</title>
<polygon fill="none" stroke="#bfbfbf" points="838.306,-59 838.306,-79 927.694,-79 927.694,-59 838.306,-59"/>
<text text-anchor="middle" x="883" y="-65" font-family="Helvetica,sans-Serif" font-size="10.00">boost/config.hpp</text>
</g>
<!-- Node4&#45;&gt;Node9 -->
<g id="edge9" class="edge"><title>Node4&#45;&gt;Node9</title>
<path fill="none" stroke="midnightblue" d="M728.972,-116.878C760.207,-107.372 809.296,-92.4317 843.638,-81.9798"/>
<polygon fill="midnightblue" stroke="midnightblue" points="844.798,-85.2854 853.345,-79.0253 842.76,-78.5886 844.798,-85.2854"/>
</g>
<!-- Node10 -->
<g id="node10" class="node"><title>Node10</title>
<polygon fill="none" stroke="#bfbfbf" points="945.53,-59 945.53,-79 1040.47,-79 1040.47,-59 945.53,-59"/>
<text text-anchor="middle" x="993" y="-65" font-family="Helvetica,sans-Serif" font-size="10.00">boost/version.hpp</text>
</g>
<!-- Node4&#45;&gt;Node10 -->
<g id="edge10" class="edge"><title>Node4&#45;&gt;Node10</title>
<path fill="none" stroke="midnightblue" d="M746.563,-116.94C798.122,-107.12 880.405,-91.4467 935.54,-80.9448"/>
<polygon fill="midnightblue" stroke="midnightblue" points="936.337,-84.356 945.505,-79.0466 935.027,-77.4796 936.337,-84.356"/>
</g>
<!-- Node11 -->
<g id="node11" class="node"><title>Node11</title>
<polygon fill="none" stroke="#bfbfbf" points="1057.97,-59 1057.97,-79 1154.03,-79 1154.03,-59 1057.97,-59"/>
<text text-anchor="middle" x="1106" y="-65" font-family="Helvetica,sans-Serif" font-size="10.00">boost/foreach.hpp</text>
</g>
<!-- Node4&#45;&gt;Node11 -->
<g id="edge11" class="edge"><title>Node4&#45;&gt;Node11</title>
<path fill="none" stroke="midnightblue" d="M759.574,-117.163C762.422,-116.766 765.242,-116.377 768,-116 889.585,-99.4023 922.842,-98.8989 1047.86,-80.1189"/>
<polygon fill="midnightblue" stroke="midnightblue" points="1048.46,-83.5686 1057.82,-78.6133 1047.41,-76.6472 1048.46,-83.5686"/>
</g>
<!-- Node12 -->
<g id="node12" class="node"><title>Node12</title>
<polygon fill="none" stroke="#bfbfbf" points="1172.38,-59 1172.38,-79 1215.62,-79 1215.62,-59 1172.38,-59"/>
<text text-anchor="middle" x="1194" y="-65" font-family="Helvetica,sans-Serif" font-size="10.00">vector</text>
</g>
<!-- Node4&#45;&gt;Node12 -->
<g id="edge12" class="edge"><title>Node4&#45;&gt;Node12</title>
<path fill="none" stroke="midnightblue" d="M759.558,-117.038C762.41,-116.674 765.235,-116.326 768,-116 939.821,-95.7338 988.486,-114.55 1162.16,-79.7437"/>
<polygon fill="midnightblue" stroke="midnightblue" points="1163.04,-83.1355 1172.14,-77.7115 1161.65,-76.2761 1163.04,-83.1355"/>
</g>
<!-- Node13&#45;&gt;Node2 -->
<g id="edge17" class="edge"><title>Node13&#45;&gt;Node2</title>
<path fill="none" stroke="midnightblue" d="M293.659,-119.08C246.479,-110.092 161.583,-93.9062 89,-80 87.561,-79.7243 86.0996,-79.4442 84.6243,-79.1612"/>
<polygon fill="midnightblue" stroke="midnightblue" points="85.253,-75.7181 74.7725,-77.2703 83.9335,-82.5926 85.253,-75.7181"/>
</g>
<!-- Node13&#45;&gt;Node3 -->
<g id="edge18" class="edge"><title>Node13&#45;&gt;Node3</title>
<path fill="none" stroke="midnightblue" d="M293.599,-122.442C240.739,-116.552 146.374,-103.073 122,-80 108.948,-67.6443 104.614,-47.1349 103.294,-31.8653"/>
<polygon fill="midnightblue" stroke="midnightblue" points="106.767,-31.2461 102.777,-21.4316 99.7758,-31.5926 106.767,-31.2461"/>
</g>
<!-- Node13&#45;&gt;Node7 -->
<g id="edge16" class="edge"><title>Node13&#45;&gt;Node7</title>
<path fill="none" stroke="midnightblue" d="M365.374,-116.951C397.253,-108.643 445.6,-95.6642 496.005,-80.1819"/>
<polygon fill="midnightblue" stroke="midnightblue" points="497.255,-83.4589 505.772,-77.1578 495.184,-76.772 497.255,-83.4589"/>
</g>
<!-- Node14 -->
<g id="node14" class="node"><title>Node14</title>
<polygon fill="none" stroke="#bfbfbf" points="131.451,-59 131.451,-79 282.549,-79 282.549,-59 131.451,-59"/>
<text text-anchor="middle" x="207" y="-65" font-family="Helvetica,sans-Serif" font-size="10.00">boost/exception/exception.hpp</text>
</g>
<!-- Node13&#45;&gt;Node14 -->
<g id="edge14" class="edge"><title>Node13&#45;&gt;Node14</title>
<path fill="none" stroke="midnightblue" d="M309.964,-116.878C289.951,-107.766 258.971,-93.6617 236.219,-83.3028"/>
<polygon fill="midnightblue" stroke="midnightblue" points="237.579,-80.0764 227.027,-79.1181 234.678,-86.4472 237.579,-80.0764"/>
</g>
<!-- Node15 -->
<g id="node15" class="node"><title>Node15</title>
<polygon fill="none" stroke="#bfbfbf" points="300.596,-59 300.596,-79 359.404,-79 359.404,-59 300.596,-59"/>
<text text-anchor="middle" x="330" y="-65" font-family="Helvetica,sans-Serif" font-size="10.00">exception</text>
</g>
<!-- Node13&#45;&gt;Node15 -->
<g id="edge15" class="edge"><title>Node13&#45;&gt;Node15</title>
<path fill="none" stroke="midnightblue" d="M330,-116.753C330,-109.25 330,-98.4238 330,-89.0781"/>
<polygon fill="midnightblue" stroke="midnightblue" points="333.5,-89.0752 330,-79.0752 326.5,-89.0752 333.5,-89.0752"/>
</g>
<!-- Node16 -->
<g id="node16" class="node"><title>Node16</title>
<polygon fill="none" stroke="#bfbfbf" points="377.766,-59 377.766,-79 488.234,-79 488.234,-59 377.766,-59"/>
<text text-anchor="middle" x="433" y="-65" font-family="Helvetica,sans-Serif" font-size="10.00">RMF/internal/errors.h</text>
</g>
<!-- Node13&#45;&gt;Node16 -->
<g id="edge19" class="edge"><title>Node13&#45;&gt;Node16</title>
<path fill="none" stroke="midnightblue" d="M347.008,-116.753C363.432,-107.823 388.517,-94.1848 407.363,-83.9388"/>
<polygon fill="midnightblue" stroke="midnightblue" points="409.194,-86.9267 416.308,-79.0752 405.851,-80.7769 409.194,-86.9267"/>
</g>
</g>
</svg>
