<?xml version="1.0" encoding="UTF-8" standalone="no"?>
<!DOCTYPE svg PUBLIC "-//W3C//DTD SVG 1.1//EN"
 "http://www.w3.org/Graphics/SVG/1.1/DTD/svg11.dtd">
<!-- Generated by graphviz version 2.34.0 (20131025.1349)
 -->
<!-- Title: Vector.h Pages: 1 -->
<!--zoomable 216 -->
<svg id="main" version="1.1" xmlns="http://www.w3.org/2000/svg" xmlns:xlink="http://www.w3.org/1999/xlink" xml:space="preserve" onload="init(evt)">
<style type="text/css"><![CDATA[
.edge:hover path { stroke: red; }
.edge:hover polygon { stroke: red; fill: red; }
]]></style>
<script type="text/javascript"><![CDATA[
var edges = document.getElementsByTagName('g');
if (edges && edges.length) {
  for (var i=0;i<edges.length;i++) {
    if (edges[i].id.substr(0,4)=='edge') {
      edges[i].setAttribute('class','edge');
    }
  }
}
]]></script>
        <defs>
                <circle id="rim" cx="0" cy="0" r="7"/>
                <circle id="rim2" cx="0" cy="0" r="3.5"/>
                <g id="zoomPlus">
                        <use xlink:href="#rim" fill="#404040">
                                <set attributeName="fill" to="#808080" begin="zoomplus.mouseover" end="zoomplus.mouseout"/>
                        </use>
                        <path d="M-4,0h8M0,-4v8" fill="none" stroke="white" stroke-width="1.5" pointer-events="none"/>
                </g>
                <g id="zoomMin">
                        <use xlink:href="#rim" fill="#404040">
                                <set attributeName="fill" to="#808080" begin="zoomminus.mouseover" end="zoomminus.mouseout"/>
                        </use>
                        <path d="M-4,0h8" fill="none" stroke="white" stroke-width="1.5" pointer-events="none"/>
                </g>
                <g id="dirArrow">
                        <path fill="none" stroke="white" stroke-width="1.5" d="M0,-3.0v7 M-2.5,-0.5L0,-3.0L2.5,-0.5"/>
                </g>
               <g id="resetDef">
                       <use xlink:href="#rim2" fill="#404040">
                               <set attributeName="fill" to="#808080" begin="reset.mouseover" end="reset.mouseout"/>
                       </use>
               </g>
        </defs>

<script type="text/javascript">
var viewWidth = 1572;
var viewHeight = 216;
var sectionId = 'dynsection-0';
</script>
<script xlink:href="svgpan.js"/>
<svg id="graph" class="graph">
<g id="viewport">
<title>Vector.h</title>
<!-- Node1 -->
<g id="node1" class="node"><title>Node1</title>
<polygon fill="#bfbfbf" stroke="black" points="999.926,-187 999.926,-207 1052.07,-207 1052.07,-187 999.926,-187"/>
<text text-anchor="middle" x="1026" y="-193" font-family="Helvetica,sans-Serif" font-size="10.00">Vector.h</text>
</g>
<!-- Node2 -->
<g id="node2" class="node"><title>Node2</title>
<g id="a_node2"><a xlink:href="config_8h_source.html" target="_top" xlink:title="RMF/config.h">
<polygon fill="none" stroke="black" points="-0.731445,-59 -0.731445,-79 74.7314,-79 74.7314,-59 -0.731445,-59"/>
<text text-anchor="middle" x="37" y="-65" font-family="Helvetica,sans-Serif" font-size="10.00">RMF/config.h</text>
</a>
</g>
</g>
<!-- Node1&#45;&gt;Node2 -->
<g id="edge1" class="edge"><title>Node1&#45;&gt;Node2</title>
<path fill="none" stroke="midnightblue" d="M999.662,-195.248C884.706,-191.828 426.368,-176.751 285,-150 204.866,-134.836 114.612,-101.358 68.2282,-82.8787"/>
<polygon fill="midnightblue" stroke="midnightblue" points="69.3315,-79.5501 58.7477,-79.0663 66.7198,-86.0446 69.3315,-79.5501"/>
</g>
<!-- Node4 -->
<g id="node4" class="node"><title>Node4</title>
<g id="a_node4"><a xlink:href="infrastructure__macros_8h.html" target="_top" xlink:title="Various general useful macros for IMP. ">
<polygon fill="none" stroke="black" points="638.48,-123 638.48,-143 759.52,-143 759.52,-123 638.48,-123"/>
<text text-anchor="middle" x="699" y="-129" font-family="Helvetica,sans-Serif" font-size="10.00">infrastructure_macros.h</text>
</a>
</g>
</g>
<!-- Node1&#45;&gt;Node4 -->
<g id="edge3" class="edge"><title>Node1&#45;&gt;Node4</title>
<path fill="none" stroke="midnightblue" d="M999.915,-191.805C953.252,-184.199 852.463,-167.311 768,-150 760.96,-148.557 753.539,-146.939 746.277,-145.302"/>
<polygon fill="midnightblue" stroke="midnightblue" points="747.053,-141.889 736.525,-143.071 745.492,-148.713 747.053,-141.889"/>
</g>
<!-- Node13 -->
<g id="node13" class="node"><title>Node13</title>
<g id="a_node13"><a xlink:href="exceptions_8h.html" target="_top" xlink:title="Declarations of the various exception types. ">
<polygon fill="none" stroke="black" points="293.926,-123 293.926,-143 366.074,-143 366.074,-123 293.926,-123"/>
<text text-anchor="middle" x="330" y="-129" font-family="Helvetica,sans-Serif" font-size="10.00">exceptions.h</text>
</a>
</g>
</g>
<!-- Node1&#45;&gt;Node13 -->
<g id="edge13" class="edge"><title>Node1&#45;&gt;Node13</title>
<path fill="none" stroke="midnightblue" d="M999.566,-193.645C895.126,-184.342 510.414,-150.071 376.401,-138.133"/>
<polygon fill="midnightblue" stroke="midnightblue" points="376.347,-134.615 366.076,-137.214 375.725,-141.587 376.347,-134.615"/>
</g>
<!-- Node17 -->
<g id="node17" class="node"><title>Node17</title>
<polygon fill="none" stroke="#bfbfbf" points="777.237,-123 777.237,-143 892.763,-143 892.763,-123 777.237,-123"/>
<text text-anchor="middle" x="835" y="-129" font-family="Helvetica,sans-Serif" font-size="10.00">boost/range/begin.hpp</text>
</g>
<!-- Node1&#45;&gt;Node17 -->
<g id="edge20" class="edge"><title>Node1&#45;&gt;Node17</title>
<path fill="none" stroke="midnightblue" d="M999.843,-187.509C966.923,-176.823 910.154,-158.396 872.59,-146.202"/>
<polygon fill="midnightblue" stroke="midnightblue" points="873.602,-142.851 863.01,-143.092 871.441,-149.509 873.602,-142.851"/>
</g>
<!-- Node18 -->
<g id="node18" class="node"><title>Node18</title>
<polygon fill="none" stroke="#bfbfbf" points="911.128,-123 911.128,-143 1018.87,-143 1018.87,-123 911.128,-123"/>
<text text-anchor="middle" x="965" y="-129" font-family="Helvetica,sans-Serif" font-size="10.00">boost/range/end.hpp</text>
</g>
<!-- Node1&#45;&gt;Node18 -->
<g id="edge21" class="edge"><title>Node1&#45;&gt;Node18</title>
<path fill="none" stroke="midnightblue" d="M1017,-186.852C1007.63,-177.327 992.749,-162.204 981.303,-150.571"/>
<polygon fill="midnightblue" stroke="midnightblue" points="983.546,-147.86 974.038,-143.186 978.556,-152.769 983.546,-147.86"/>
</g>
<!-- Node19 -->
<g id="node19" class="node"><title>Node19</title>
<polygon fill="none" stroke="#bfbfbf" points="1037.31,-117 1037.31,-149 1136.69,-149 1136.69,-117 1037.31,-117"/>
<text text-anchor="start" x="1045.31" y="-135" font-family="Helvetica,sans-Serif" font-size="10.00">boost/type_traits/is</text>
<text text-anchor="middle" x="1087" y="-123" font-family="Helvetica,sans-Serif" font-size="10.00">_convertible.hpp</text>
</g>
<!-- Node1&#45;&gt;Node19 -->
<g id="edge22" class="edge"><title>Node1&#45;&gt;Node19</title>
<path fill="none" stroke="midnightblue" d="M1035,-186.852C1042.79,-178.937 1054.38,-167.156 1064.64,-156.724"/>
<polygon fill="midnightblue" stroke="midnightblue" points="1067.29,-159.023 1071.81,-149.44 1062.3,-154.114 1067.29,-159.023"/>
</g>
<!-- Node20 -->
<g id="node20" class="node"><title>Node20</title>
<polygon fill="none" stroke="#bfbfbf" points="1154.25,-123 1154.25,-143 1249.75,-143 1249.75,-123 1154.25,-123"/>
<text text-anchor="middle" x="1202" y="-129" font-family="Helvetica,sans-Serif" font-size="10.00">boost/mpl/not.hpp</text>
</g>
<!-- Node1&#45;&gt;Node20 -->
<g id="edge23" class="edge"><title>Node1&#45;&gt;Node20</title>
<path fill="none" stroke="midnightblue" d="M1051.59,-186.985C1081.96,-176.286 1132.76,-158.39 1166.82,-146.394"/>
<polygon fill="midnightblue" stroke="midnightblue" points="1168.11,-149.65 1176.38,-143.026 1165.78,-143.048 1168.11,-149.65"/>
</g>
<!-- Node21 -->
<g id="node21" class="node"><title>Node21</title>
<polygon fill="none" stroke="#bfbfbf" points="1267.62,-123 1267.62,-143 1352.38,-143 1352.38,-123 1267.62,-123"/>
<text text-anchor="middle" x="1310" y="-129" font-family="Helvetica,sans-Serif" font-size="10.00">boost/array.hpp</text>
</g>
<!-- Node1&#45;&gt;Node21 -->
<g id="edge24" class="edge"><title>Node1&#45;&gt;Node21</title>
<path fill="none" stroke="midnightblue" d="M1052.29,-191.695C1095.51,-184.415 1184.14,-168.632 1258,-150 1262.79,-148.793 1267.78,-147.412 1272.71,-145.978"/>
<polygon fill="midnightblue" stroke="midnightblue" points="1274.05,-149.229 1282.62,-143.001 1272.04,-142.525 1274.05,-149.229"/>
</g>
<!-- Node22 -->
<g id="node22" class="node"><title>Node22</title>
<polygon fill="none" stroke="#bfbfbf" points="1370.58,-123 1370.58,-143 1489.42,-143 1489.42,-123 1370.58,-123"/>
<text text-anchor="middle" x="1430" y="-129" font-family="Helvetica,sans-Serif" font-size="10.00">boost/static_assert.hpp</text>
</g>
<!-- Node1&#45;&gt;Node22 -->
<g id="edge25" class="edge"><title>Node1&#45;&gt;Node22</title>
<path fill="none" stroke="midnightblue" d="M1052.19,-193.229C1108.8,-187.059 1246.69,-171.057 1361,-150 1368.48,-148.621 1376.38,-146.974 1384.06,-145.269"/>
<polygon fill="midnightblue" stroke="midnightblue" points="1384.99,-148.646 1393.96,-143.012 1383.43,-141.821 1384.99,-148.646"/>
</g>
<!-- Node23 -->
<g id="node23" class="node"><title>Node23</title>
<polygon fill="none" stroke="#bfbfbf" points="1507.44,-123 1507.44,-143 1564.56,-143 1564.56,-123 1507.44,-123"/>
<text text-anchor="middle" x="1536" y="-129" font-family="Helvetica,sans-Serif" font-size="10.00">algorithm</text>
</g>
<!-- Node1&#45;&gt;Node23 -->
<g id="edge26" class="edge"><title>Node1&#45;&gt;Node23</title>
<path fill="none" stroke="midnightblue" d="M1052.31,-196.185C1124.65,-196.111 1332.18,-191.959 1498,-150 1501.26,-149.175 1504.61,-148.113 1507.89,-146.93"/>
<polygon fill="midnightblue" stroke="midnightblue" points="1509.45,-150.079 1517.44,-143.13 1506.86,-143.575 1509.45,-150.079"/>
</g>
<!-- Node3 -->
<g id="node3" class="node"><title>Node3</title>
<g id="a_node3"><a xlink:href="compiler__macros_8h.html" target="_top" xlink:title="Various compiler workarounds. ">
<polygon fill="none" stroke="black" points="40.5444,-1 40.5444,-21 165.456,-21 165.456,-1 40.5444,-1"/>
<text text-anchor="middle" x="103" y="-7" font-family="Helvetica,sans-Serif" font-size="10.00">RMF/compiler_macros.h</text>
</a>
</g>
</g>
<!-- Node2&#45;&gt;Node3 -->
<g id="edge2" class="edge"><title>Node2&#45;&gt;Node3</title>
<path fill="none" stroke="midnightblue" d="M47.8986,-58.7527C57.7978,-50.3534 72.6078,-37.7874 84.3814,-27.7976"/>
<polygon fill="midnightblue" stroke="midnightblue" points="86.9436,-30.2138 92.3042,-21.0752 82.4147,-24.8762 86.9436,-30.2138"/>
</g>
<!-- Node4&#45;&gt;Node3 -->
<g id="edge7" class="edge"><title>Node4&#45;&gt;Node3</title>
<path fill="none" stroke="midnightblue" d="M679.65,-122.998C658.245,-112.927 622.835,-95.9302 593,-80 575.785,-70.8082 573.566,-64.011 555,-58 486.392,-35.7875 285.194,-21.8382 175.817,-15.6801"/>
<polygon fill="midnightblue" stroke="midnightblue" points="175.705,-12.1686 165.526,-15.1085 175.317,-19.1578 175.705,-12.1686"/>
</g>
<!-- Node5 -->
<g id="node5" class="node"><title>Node5</title>
<polygon fill="none" stroke="#bfbfbf" points="602.219,-59 602.219,-79 653.781,-79 653.781,-59 602.219,-59"/>
<text text-anchor="middle" x="628" y="-65" font-family="Helvetica,sans-Serif" font-size="10.00">sstream</text>
</g>
<!-- Node4&#45;&gt;Node5 -->
<g id="edge4" class="edge"><title>Node4&#45;&gt;Node5</title>
<path fill="none" stroke="midnightblue" d="M688.524,-122.852C677.407,-113.144 659.63,-97.6205 646.212,-85.9034"/>
<polygon fill="midnightblue" stroke="midnightblue" points="648.354,-83.1271 638.519,-79.1858 643.749,-88.3997 648.354,-83.1271"/>
</g>
<!-- Node6 -->
<g id="node6" class="node"><title>Node6</title>
<polygon fill="none" stroke="#bfbfbf" points="671.828,-59 671.828,-79 726.172,-79 726.172,-59 671.828,-59"/>
<text text-anchor="middle" x="699" y="-65" font-family="Helvetica,sans-Serif" font-size="10.00">iostream</text>
</g>
<!-- Node4&#45;&gt;Node6 -->
<g id="edge5" class="edge"><title>Node4&#45;&gt;Node6</title>
<path fill="none" stroke="midnightblue" d="M699,-122.852C699,-114.06 699,-100.498 699,-89.3131"/>
<polygon fill="midnightblue" stroke="midnightblue" points="702.5,-89.1858 699,-79.1858 695.5,-89.1859 702.5,-89.1858"/>
</g>
<!-- Node7 -->
<g id="node7" class="node"><title>Node7</title>
<polygon fill="none" stroke="#bfbfbf" points="505.773,-59 505.773,-79 546.227,-79 546.227,-59 505.773,-59"/>
<text text-anchor="middle" x="526" y="-65" font-family="Helvetica,sans-Serif" font-size="10.00">string</text>
</g>
<!-- Node4&#45;&gt;Node7 -->
<g id="edge6" class="edge"><title>Node4&#45;&gt;Node7</title>
<path fill="none" stroke="midnightblue" d="M673.844,-122.985C642.591,-111.784 589.325,-92.6946 555.983,-80.7455"/>
<polygon fill="midnightblue" stroke="midnightblue" points="556.917,-77.362 546.322,-77.2831 554.555,-83.9516 556.917,-77.362"/>
</g>
<!-- Node8 -->
<g id="node8" class="node"><title>Node8</title>
<polygon fill="none" stroke="#bfbfbf" points="743.98,-59 743.98,-79 820.02,-79 820.02,-59 743.98,-59"/>
<text text-anchor="middle" x="782" y="-65" font-family="Helvetica,sans-Serif" font-size="10.00">internal/use.h</text>
</g>
<!-- Node4&#45;&gt;Node8 -->
<g id="edge8" class="edge"><title>Node4&#45;&gt;Node8</title>
<path fill="none" stroke="midnightblue" d="M711.247,-122.852C724.487,-112.961 745.811,-97.0326 761.592,-85.2443"/>
<polygon fill="midnightblue" stroke="midnightblue" points="763.786,-87.9745 769.703,-79.1858 759.597,-82.3664 763.786,-87.9745"/>
</g>
<!-- Node9 -->
<g id="node9" class="node"><title>Node9</title>
<polygon fill="none" stroke="#bfbfbf" points="838.384,-59 838.384,-79 881.616,-79 881.616,-59 838.384,-59"/>
<text text-anchor="middle" x="860" y="-65" font-family="Helvetica,sans-Serif" font-size="10.00">vector</text>
</g>
<!-- Node4&#45;&gt;Node9 -->
<g id="edge9" class="edge"><title>Node4&#45;&gt;Node9</title>
<path fill="none" stroke="midnightblue" d="M722.411,-122.985C750.505,-112.166 797.713,-93.9863 828.862,-81.9912"/>
<polygon fill="midnightblue" stroke="midnightblue" points="830.292,-85.1911 838.366,-78.3312 827.776,-78.6587 830.292,-85.1911"/>
</g>
<!-- Node10 -->
<g id="node10" class="node"><title>Node10</title>
<polygon fill="none" stroke="#bfbfbf" points="899.306,-59 899.306,-79 988.694,-79 988.694,-59 899.306,-59"/>
<text text-anchor="middle" x="944" y="-65" font-family="Helvetica,sans-Serif" font-size="10.00">boost/config.hpp</text>
</g>
<!-- Node4&#45;&gt;Node10 -->
<g id="edge10" class="edge"><title>Node4&#45;&gt;Node10</title>
<path fill="none" stroke="midnightblue" d="M734.625,-122.985C777.9,-112.033 850.976,-93.5408 898.343,-81.5541"/>
<polygon fill="midnightblue" stroke="midnightblue" points="899.496,-84.8726 908.332,-79.0262 897.779,-78.0865 899.496,-84.8726"/>
</g>
<!-- Node11 -->
<g id="node11" class="node"><title>Node11</title>
<polygon fill="none" stroke="#bfbfbf" points="1006.53,-59 1006.53,-79 1101.47,-79 1101.47,-59 1006.53,-59"/>
<text text-anchor="middle" x="1054" y="-65" font-family="Helvetica,sans-Serif" font-size="10.00">boost/version.hpp</text>
</g>
<!-- Node4&#45;&gt;Node11 -->
<g id="edge11" class="edge"><title>Node4&#45;&gt;Node11</title>
<path fill="none" stroke="midnightblue" d="M735.779,-122.955C746.165,-120.542 757.498,-118.04 768,-116 865.976,-96.9648 893.656,-96.8875 996.257,-80.0904"/>
<polygon fill="midnightblue" stroke="midnightblue" points="997.129,-83.4939 1006.43,-78.4115 995.988,-76.5875 997.129,-83.4939"/>
</g>
<!-- Node12 -->
<g id="node12" class="node"><title>Node12</title>
<polygon fill="none" stroke="#bfbfbf" points="1118.97,-59 1118.97,-79 1215.03,-79 1215.03,-59 1118.97,-59"/>
<text text-anchor="middle" x="1167" y="-65" font-family="Helvetica,sans-Serif" font-size="10.00">boost/foreach.hpp</text>
</g>
<!-- Node4&#45;&gt;Node12 -->
<g id="edge12" class="edge"><title>Node4&#45;&gt;Node12</title>
<path fill="none" stroke="midnightblue" d="M734.289,-122.937C745.055,-120.411 756.964,-117.853 768,-116 915.491,-91.2334 956.874,-100.782 1108.67,-80.0969"/>
<polygon fill="midnightblue" stroke="midnightblue" points="1109.41,-83.5286 1118.83,-78.69 1108.45,-76.5947 1109.41,-83.5286"/>
</g>
<!-- Node13&#45;&gt;Node2 -->
<g id="edge17" class="edge"><title>Node13&#45;&gt;Node2</title>
<path fill="none" stroke="midnightblue" d="M293.779,-124.335C241.203,-113.21 143.651,-92.5678 85.0991,-80.178"/>
<polygon fill="midnightblue" stroke="midnightblue" points="85.5005,-76.6855 74.9925,-78.0394 84.0513,-83.5338 85.5005,-76.6855"/>
</g>
<!-- Node13&#45;&gt;Node3 -->
<g id="edge18" class="edge"><title>Node13&#45;&gt;Node3</title>
<path fill="none" stroke="midnightblue" d="M293.558,-127.336C240.645,-119.848 146.212,-103.555 122,-80 109.118,-67.4671 104.759,-46.9835 103.387,-31.7682"/>
<polygon fill="midnightblue" stroke="midnightblue" points="106.86,-31.1761 102.827,-21.3789 99.87,-31.5526 106.86,-31.1761"/>
</g>
<!-- Node13&#45;&gt;Node7 -->
<g id="edge16" class="edge"><title>Node13&#45;&gt;Node7</title>
<path fill="none" stroke="midnightblue" d="M359.952,-122.972C391.544,-113.383 442.997,-97.5834 496.155,-80.216"/>
<polygon fill="midnightblue" stroke="midnightblue" points="497.333,-83.5132 505.745,-77.0718 495.152,-76.8617 497.333,-83.5132"/>
</g>
<!-- Node14 -->
<g id="node14" class="node"><title>Node14</title>
<polygon fill="none" stroke="#bfbfbf" points="131.451,-59 131.451,-79 282.549,-79 282.549,-59 131.451,-59"/>
<text text-anchor="middle" x="207" y="-65" font-family="Helvetica,sans-Serif" font-size="10.00">boost/exception/exception.hpp</text>
</g>
<!-- Node13&#45;&gt;Node14 -->
<g id="edge14" class="edge"><title>Node13&#45;&gt;Node14</title>
<path fill="none" stroke="midnightblue" d="M312.115,-122.985C291.619,-112.653 257.807,-95.6101 234.079,-83.6496"/>
<polygon fill="midnightblue" stroke="midnightblue" points="235.412,-80.402 224.907,-79.0262 232.261,-86.6528 235.412,-80.402"/>
</g>
<!-- Node15 -->
<g id="node15" class="node"><title>Node15</title>
<polygon fill="none" stroke="#bfbfbf" points="300.596,-59 300.596,-79 359.404,-79 359.404,-59 300.596,-59"/>
<text text-anchor="middle" x="330" y="-65" font-family="Helvetica,sans-Serif" font-size="10.00">exception</text>
</g>
<!-- Node13&#45;&gt;Node15 -->
<g id="edge15" class="edge"><title>Node13&#45;&gt;Node15</title>
<path fill="none" stroke="midnightblue" d="M330,-122.852C330,-114.06 330,-100.498 330,-89.3131"/>
<polygon fill="midnightblue" stroke="midnightblue" points="333.5,-89.1858 330,-79.1858 326.5,-89.1859 333.5,-89.1858"/>
</g>
<!-- Node16 -->
<g id="node16" class="node"><title>Node16</title>
<polygon fill="none" stroke="#bfbfbf" points="377.766,-59 377.766,-79 488.234,-79 488.234,-59 377.766,-59"/>
<text text-anchor="middle" x="433" y="-65" font-family="Helvetica,sans-Serif" font-size="10.00">RMF/internal/errors.h</text>
</g>
<!-- Node13&#45;&gt;Node16 -->
<g id="edge19" class="edge"><title>Node13&#45;&gt;Node16</title>
<path fill="none" stroke="midnightblue" d="M345.198,-122.852C362.009,-112.732 389.322,-96.2919 409.024,-84.4324"/>
<polygon fill="midnightblue" stroke="midnightblue" points="410.977,-87.3417 417.74,-79.1858 407.367,-81.3444 410.977,-87.3417"/>
</g>
</g>
</svg>
        <g id="navigator" transform="translate(0 0)" fill="#404254">
                <rect fill="#f2f5e9" fill-opacity="0.5" stroke="#606060" stroke-width=".5" x="0" y="0" width="60" height="60"/>
                <use id="zoomplus" xlink:href="#zoomPlus" x="17" y="9" onmousedown="handleZoom(evt,'in')"/>
                <use id="zoomminus" xlink:href="#zoomMin" x="42" y="9" onmousedown="handleZoom(evt,'out')"/>
                <use id="reset" xlink:href="#resetDef" x="30" y="36" onmousedown="handleReset()"/>
                <g id="arrowUp" xlink:href="#dirArrow" transform="translate(30 24)" onmousedown="handlePan(0,-1)">
                  <use xlink:href="#rim" fill="#404040">
                        <set attributeName="fill" to="#808080" begin="arrowUp.mouseover" end="arrowUp.mouseout"/>
                  </use>
                  <path fill="none" stroke="white" stroke-width="1.5" d="M0,-3.0v7 M-2.5,-0.5L0,-3.0L2.5,-0.5"/>
                </g>
                <g id="arrowRight" xlink:href="#dirArrow" transform="rotate(90) translate(36 -43)" onmousedown="handlePan(1,0)">
                  <use xlink:href="#rim" fill="#404040">
                        <set attributeName="fill" to="#808080" begin="arrowRight.mouseover" end="arrowRight.mouseout"/>
                  </use>
                  <path fill="none" stroke="white" stroke-width="1.5" d="M0,-3.0v7 M-2.5,-0.5L0,-3.0L2.5,-0.5"/>
                </g>
                <g id="arrowDown" xlink:href="#dirArrow" transform="rotate(180) translate(-30 -48)" onmousedown="handlePan(0,1)">
                  <use xlink:href="#rim" fill="#404040">
                        <set attributeName="fill" to="#808080" begin="arrowDown.mouseover" end="arrowDown.mouseout"/>
                  </use>
                  <path fill="none" stroke="white" stroke-width="1.5" d="M0,-3.0v7 M-2.5,-0.5L0,-3.0L2.5,-0.5"/>
                </g>
                <g id="arrowLeft" xlink:href="#dirArrow" transform="rotate(270) translate(-36 17)" onmousedown="handlePan(-1,0)">
                  <use xlink:href="#rim" fill="#404040">
                        <set attributeName="fill" to="#808080" begin="arrowLeft.mouseover" end="arrowLeft.mouseout"/>
                  </use>
                  <path fill="none" stroke="white" stroke-width="1.5" d="M0,-3.0v7 M-2.5,-0.5L0,-3.0L2.5,-0.5"/>
                </g>
        </g>
        <svg viewBox="0 0 15 15" width="100%" height="30px" preserveAspectRatio="xMaxYMin meet">
         <g id="arrow_out" transform="scale(0.3 0.3)">
          <a xlink:href="Vector_8h__incl_org.svg" target="_base">
           <rect id="button" ry="5" rx="5" y="6" x="6" height="38" width="38"
                fill="#f2f5e9" fill-opacity="0.5" stroke="#606060" stroke-width="1.0"/>
           <path id="arrow"
             d="M 11.500037,31.436501 C 11.940474,20.09759 22.043105,11.32322 32.158766,21.979434 L 37.068811,17.246167 C 37.068811,17.246167 37.088388,32 37.088388,32 L 22.160133,31.978069 C 22.160133,31.978069 26.997745,27.140456 26.997745,27.140456 C 18.528582,18.264221 13.291696,25.230495 11.500037,31.436501 z"
             style="fill:#404040;"/>
          </a>
         </g>
        </svg>
</svg>
