<?xml version="1.0" encoding="UTF-8" standalone="no"?>
<!DOCTYPE svg PUBLIC "-//W3C//DTD SVG 1.1//EN"
 "http://www.w3.org/Graphics/SVG/1.1/DTD/svg11.dtd">
<!-- Generated by graphviz version 2.36.0 (20140111.2315)
 -->
<!-- Title: Vector.h Pages: 1 -->
<!--zoomable 224 -->
<svg id="main" version="1.1" xmlns="http://www.w3.org/2000/svg" xmlns:xlink="http://www.w3.org/1999/xlink" xml:space="preserve" onload="init(evt)">
<style type="text/css"><![CDATA[
.edge:hover path { stroke: red; }
.edge:hover polygon { stroke: red; fill: red; }
]]></style>
<script type="text/javascript"><![CDATA[
var edges = document.getElementsByTagName('g');
if (edges && edges.length) {
  for (var i=0;i<edges.length;i++) {
    if (edges[i].id.substr(0,4)=='edge') {
      edges[i].setAttribute('class','edge');
    }
  }
}
]]></script>
        <defs>
                <circle id="rim" cx="0" cy="0" r="7"/>
                <circle id="rim2" cx="0" cy="0" r="3.5"/>
                <g id="zoomPlus">
                        <use xlink:href="#rim" fill="#404040">
                                <set attributeName="fill" to="#808080" begin="zoomplus.mouseover" end="zoomplus.mouseout"/>
                        </use>
                        <path d="M-4,0h8M0,-4v8" fill="none" stroke="white" stroke-width="1.5" pointer-events="none"/>
                </g>
                <g id="zoomMin">
                        <use xlink:href="#rim" fill="#404040">
                                <set attributeName="fill" to="#808080" begin="zoomminus.mouseover" end="zoomminus.mouseout"/>
                        </use>
                        <path d="M-4,0h8" fill="none" stroke="white" stroke-width="1.5" pointer-events="none"/>
                </g>
                <g id="dirArrow">
                        <path fill="none" stroke="white" stroke-width="1.5" d="M0,-3.0v7 M-2.5,-0.5L0,-3.0L2.5,-0.5"/>
                </g>
               <g id="resetDef">
                       <use xlink:href="#rim2" fill="#404040">
                               <set attributeName="fill" to="#808080" begin="reset.mouseover" end="reset.mouseout"/>
                       </use>
               </g>
        </defs>

<script type="text/javascript">
var viewWidth = 1515;
var viewHeight = 224;
var sectionId = 'dynsection-0';
</script>
<script xlink:href="svgpan.js"/>
<svg id="graph" class="graph">
<g id="viewport">
<title>Vector.h</title>
<!-- Node1 -->
<g id="node1" class="node"><title>Node1</title>
<polygon fill="#bfbfbf" stroke="black" points="942.926,-197 942.926,-215 995.074,-215 995.074,-197 942.926,-197"/>
<text text-anchor="middle" x="969" y="-203" font-family="Helvetica,sans-Serif" font-size="10.00">Vector.h</text>
</g>
<!-- Node2 -->
<g id="node2" class="node"><title>Node2</title>
<g id="a_node2"><a xlink:href="config_8h_source.html" target="_top" xlink:title="RMF/config.h">
<polygon fill="none" stroke="black" points="-0.731445,-66 -0.731445,-84 74.7314,-84 74.7314,-66 -0.731445,-66"/>
<text text-anchor="middle" x="37" y="-72" font-family="Helvetica,sans-Serif" font-size="10.00">RMF/config.h</text>
</a>
</g>
</g>
<!-- Node1&#45;&gt;Node2 -->
<g id="edge1" class="edge"><title>Node1&#45;&gt;Node2</title>
<path fill="none" stroke="midnightblue" d="M942.865,-204.192C833.793,-200.679 414.565,-185.744 285,-160 202.511,-143.61 109.725,-107.039 64.607,-88.0154"/>
<polygon fill="midnightblue" stroke="midnightblue" points="65.7851,-84.713 55.2132,-84.0167 63.0434,-91.1538 65.7851,-84.713"/>
</g>
<!-- Node4 -->
<g id="node4" class="node"><title>Node4</title>
<g id="a_node4"><a xlink:href="infrastructure__macros_8h.html" target="_top" xlink:title="Various general useful macros for IMP. ">
<polygon fill="none" stroke="black" points="581.48,-136 581.48,-154 702.52,-154 702.52,-136 581.48,-136"/>
<text text-anchor="middle" x="642" y="-142" font-family="Helvetica,sans-Serif" font-size="10.00">infrastructure_macros.h</text>
</a>
</g>
</g>
<!-- Node1&#45;&gt;Node4 -->
<g id="edge3" class="edge"><title>Node1&#45;&gt;Node4</title>
<path fill="none" stroke="midnightblue" d="M942.586,-200.639C895.827,-192.865 795.445,-175.928 711,-160 704.382,-158.752 697.417,-157.392 690.561,-156.028"/>
<polygon fill="midnightblue" stroke="midnightblue" points="691.14,-152.574 680.647,-154.036 689.761,-159.437 691.14,-152.574"/>
</g>
<!-- Node13 -->
<g id="node13" class="node"><title>Node13</title>
<g id="a_node13"><a xlink:href="exceptions_8h.html" target="_top" xlink:title="Declarations of the various exception types. ">
<polygon fill="none" stroke="black" points="293.926,-136 293.926,-154 366.074,-154 366.074,-136 293.926,-136"/>
<text text-anchor="middle" x="330" y="-142" font-family="Helvetica,sans-Serif" font-size="10.00">exceptions.h</text>
</a>
</g>
</g>
<!-- Node1&#45;&gt;Node13 -->
<g id="edge13" class="edge"><title>Node1&#45;&gt;Node13</title>
<path fill="none" stroke="midnightblue" d="M942.759,-202.577C845.106,-193.561 501.919,-161.874 376.416,-150.286"/>
<polygon fill="midnightblue" stroke="midnightblue" points="376.637,-146.791 366.358,-149.357 375.994,-153.762 376.637,-146.791"/>
</g>
<!-- Node17 -->
<g id="node17" class="node"><title>Node17</title>
<polygon fill="none" stroke="#bfbfbf" points="720.237,-136 720.237,-154 835.763,-154 835.763,-136 720.237,-136"/>
<text text-anchor="middle" x="778" y="-142" font-family="Helvetica,sans-Serif" font-size="10.00">boost/range/begin.hpp</text>
</g>
<!-- Node1&#45;&gt;Node17 -->
<g id="edge20" class="edge"><title>Node1&#45;&gt;Node17</title>
<path fill="none" stroke="midnightblue" d="M942.843,-196.92C909.503,-186.621 851.701,-168.766 814.161,-157.17"/>
<polygon fill="midnightblue" stroke="midnightblue" points="814.735,-153.684 804.147,-154.077 812.669,-160.372 814.735,-153.684"/>
</g>
<!-- Node18 -->
<g id="node18" class="node"><title>Node18</title>
<polygon fill="none" stroke="#bfbfbf" points="854.128,-136 854.128,-154 961.872,-154 961.872,-136 854.128,-136"/>
<text text-anchor="middle" x="908" y="-142" font-family="Helvetica,sans-Serif" font-size="10.00">boost/range/end.hpp</text>
</g>
<!-- Node1&#45;&gt;Node18 -->
<g id="edge21" class="edge"><title>Node1&#45;&gt;Node18</title>
<path fill="none" stroke="midnightblue" d="M960.518,-196.796C951.049,-187.638 935.517,-172.615 923.795,-161.277"/>
<polygon fill="midnightblue" stroke="midnightblue" points="926.031,-158.571 916.41,-154.134 921.164,-163.602 926.031,-158.571"/>
</g>
<!-- Node19 -->
<g id="node19" class="node"><title>Node19</title>
<polygon fill="none" stroke="#bfbfbf" points="980.313,-131 980.313,-159 1079.69,-159 1079.69,-131 980.313,-131"/>
<text text-anchor="start" x="988.313" y="-147" font-family="Helvetica,sans-Serif" font-size="10.00">boost/type_traits/is</text>
<text text-anchor="middle" x="1030" y="-137" font-family="Helvetica,sans-Serif" font-size="10.00">_convertible.hpp</text>
</g>
<!-- Node1&#45;&gt;Node19 -->
<g id="edge22" class="edge"><title>Node1&#45;&gt;Node19</title>
<path fill="none" stroke="midnightblue" d="M977.482,-196.796C985.595,-188.949 998.16,-176.796 1008.97,-166.345"/>
<polygon fill="midnightblue" stroke="midnightblue" points="1011.68,-168.59 1016.43,-159.121 1006.81,-163.558 1011.68,-168.59"/>
</g>
<!-- Node20 -->
<g id="node20" class="node"><title>Node20</title>
<polygon fill="none" stroke="#bfbfbf" points="1097.25,-136 1097.25,-154 1192.75,-154 1192.75,-136 1097.25,-136"/>
<text text-anchor="middle" x="1145" y="-142" font-family="Helvetica,sans-Serif" font-size="10.00">boost/mpl/not.hpp</text>
</g>
<!-- Node1&#45;&gt;Node20 -->
<g id="edge23" class="edge"><title>Node1&#45;&gt;Node20</title>
<path fill="none" stroke="midnightblue" d="M993.103,-196.92C1023.69,-186.665 1076.63,-168.919 1111.23,-157.319"/>
<polygon fill="midnightblue" stroke="midnightblue" points="1112.54,-160.574 1120.91,-154.077 1110.31,-153.937 1112.54,-160.574"/>
</g>
<!-- Node21 -->
<g id="node21" class="node"><title>Node21</title>
<polygon fill="none" stroke="#bfbfbf" points="1210.62,-136 1210.62,-154 1295.38,-154 1295.38,-136 1210.62,-136"/>
<text text-anchor="middle" x="1253" y="-142" font-family="Helvetica,sans-Serif" font-size="10.00">boost/array.hpp</text>
</g>
<!-- Node1&#45;&gt;Node21 -->
<g id="edge24" class="edge"><title>Node1&#45;&gt;Node21</title>
<path fill="none" stroke="midnightblue" d="M995.223,-200.543C1038.35,-193.074 1126.85,-177.15 1201,-160 1205.42,-158.977 1210.04,-157.838 1214.62,-156.665"/>
<polygon fill="midnightblue" stroke="midnightblue" points="1215.7,-159.998 1224.48,-154.071 1213.92,-153.228 1215.7,-159.998"/>
</g>
<!-- Node22 -->
<g id="node22" class="node"><title>Node22</title>
<polygon fill="none" stroke="#bfbfbf" points="1313.58,-136 1313.58,-154 1432.42,-154 1432.42,-136 1313.58,-136"/>
<text text-anchor="middle" x="1373" y="-142" font-family="Helvetica,sans-Serif" font-size="10.00">boost/static_assert.hpp</text>
</g>
<!-- Node1&#45;&gt;Node22 -->
<g id="edge25" class="edge"><title>Node1&#45;&gt;Node22</title>
<path fill="none" stroke="midnightblue" d="M995.152,-202.089C1051.68,-195.663 1189.42,-179.297 1304,-160 1311.13,-158.8 1318.64,-157.407 1325.99,-155.975"/>
<polygon fill="midnightblue" stroke="midnightblue" points="1326.72,-159.398 1335.84,-154.012 1325.35,-152.533 1326.72,-159.398"/>
</g>
<!-- Node23 -->
<g id="node23" class="node"><title>Node23</title>
<polygon fill="none" stroke="#bfbfbf" points="1450.44,-136 1450.44,-154 1507.56,-154 1507.56,-136 1450.44,-136"/>
<text text-anchor="middle" x="1479" y="-142" font-family="Helvetica,sans-Serif" font-size="10.00">algorithm</text>
</g>
<!-- Node1&#45;&gt;Node23 -->
<g id="edge26" class="edge"><title>Node1&#45;&gt;Node23</title>
<path fill="none" stroke="midnightblue" d="M995.211,-204.856C1067.3,-203.956 1274.26,-197.991 1441,-160 1444.05,-159.304 1447.2,-158.426 1450.3,-157.451"/>
<polygon fill="midnightblue" stroke="midnightblue" points="1451.66,-160.686 1459.96,-154.106 1449.37,-154.072 1451.66,-160.686"/>
</g>
<!-- Node3 -->
<g id="node3" class="node"><title>Node3</title>
<g id="a_node3"><a xlink:href="compiler__macros_8h.html" target="_top" xlink:title="Various compiler workarounds. ">
<polygon fill="none" stroke="black" points="40.5444,-1 40.5444,-19 165.456,-19 165.456,-1 40.5444,-1"/>
<text text-anchor="middle" x="103" y="-7" font-family="Helvetica,sans-Serif" font-size="10.00">RMF/compiler_macros.h</text>
</a>
</g>
</g>
<!-- Node2&#45;&gt;Node3 -->
<g id="edge2" class="edge"><title>Node2&#45;&gt;Node3</title>
<path fill="none" stroke="midnightblue" d="M45.6283,-65.7639C56.161,-55.7099 74.1778,-38.5121 87.2154,-26.0672"/>
<polygon fill="midnightblue" stroke="midnightblue" points="89.7613,-28.4755 94.5782,-19.039 84.928,-23.412 89.7613,-28.4755"/>
</g>
<!-- Node4&#45;&gt;Node3 -->
<g id="edge7" class="edge"><title>Node4&#45;&gt;Node3</title>
<path fill="none" stroke="midnightblue" d="M619.274,-135.922C596.942,-127.395 562.46,-112.615 536,-94 516.465,-80.2572 519.513,-66.3764 498,-56 442.762,-29.3566 273.868,-18.019 175.733,-13.5762"/>
<polygon fill="midnightblue" stroke="midnightblue" points="175.732,-10.0729 165.588,-13.1301 175.424,-17.0662 175.732,-10.0729"/>
</g>
<!-- Node5 -->
<g id="node5" class="node"><title>Node5</title>
<polygon fill="none" stroke="#bfbfbf" points="545.219,-66 545.219,-84 596.781,-84 596.781,-66 545.219,-66"/>
<text text-anchor="middle" x="571" y="-72" font-family="Helvetica,sans-Serif" font-size="10.00">sstream</text>
</g>
<!-- Node4&#45;&gt;Node5 -->
<g id="edge4" class="edge"><title>Node4&#45;&gt;Node5</title>
<path fill="none" stroke="midnightblue" d="M633.577,-135.932C622.047,-124.89 601.136,-104.863 586.68,-91.017"/>
<polygon fill="midnightblue" stroke="midnightblue" points="589.055,-88.4462 579.412,-84.057 584.214,-93.5016 589.055,-88.4462"/>
</g>
<!-- Node6 -->
<g id="node6" class="node"><title>Node6</title>
<polygon fill="none" stroke="#bfbfbf" points="614.828,-66 614.828,-84 669.172,-84 669.172,-66 614.828,-66"/>
<text text-anchor="middle" x="642" y="-72" font-family="Helvetica,sans-Serif" font-size="10.00">iostream</text>
</g>
<!-- Node4&#45;&gt;Node6 -->
<g id="edge5" class="edge"><title>Node4&#45;&gt;Node6</title>
<path fill="none" stroke="midnightblue" d="M642,-135.932C642,-125.708 642,-107.781 642,-94.1895"/>
<polygon fill="midnightblue" stroke="midnightblue" points="645.5,-94.057 642,-84.057 638.5,-94.0571 645.5,-94.057"/>
</g>
<!-- Node7 -->
<g id="node7" class="node"><title>Node7</title>
<polygon fill="none" stroke="#bfbfbf" points="448.773,-66 448.773,-84 489.227,-84 489.227,-66 448.773,-66"/>
<text text-anchor="middle" x="469" y="-72" font-family="Helvetica,sans-Serif" font-size="10.00">string</text>
</g>
<!-- Node4&#45;&gt;Node7 -->
<g id="edge6" class="edge"><title>Node4&#45;&gt;Node7</title>
<path fill="none" stroke="midnightblue" d="M616.21,-135.939C587.978,-126.835 541.587,-111.052 503,-94 499.495,-92.4511 495.853,-90.6923 492.312,-88.8956"/>
<polygon fill="midnightblue" stroke="midnightblue" points="493.815,-85.7317 483.336,-84.1688 490.554,-91.9253 493.815,-85.7317"/>
</g>
<!-- Node8 -->
<g id="node8" class="node"><title>Node8</title>
<polygon fill="none" stroke="black" points="687,-57 687,-93 741,-93 741,-57 687,-57"/>
<text text-anchor="middle" x="713.734" y="-72" font-family="Helvetica,sans-Serif" font-size="10.00">Node8</text>
</g>
<!-- Node4&#45;&gt;Node8 -->
<g id="edge8" class="edge"><title>Node4&#45;&gt;Node8</title>
<path fill="none" stroke="midnightblue" d="M650.542,-135.932C659.821,-127.169 675.093,-112.745 688.33,-100.244"/>
<polygon fill="midnightblue" stroke="midnightblue" points="690.96,-102.574 695.827,-93.1634 686.154,-97.4851 690.96,-102.574"/>
</g>
<!-- Node9 -->
<g id="node9" class="node"><title>Node9</title>
<polygon fill="none" stroke="#bfbfbf" points="759.384,-66 759.384,-84 802.616,-84 802.616,-66 759.384,-66"/>
<text text-anchor="middle" x="781" y="-72" font-family="Helvetica,sans-Serif" font-size="10.00">vector</text>
</g>
<!-- Node4&#45;&gt;Node9 -->
<g id="edge9" class="edge"><title>Node4&#45;&gt;Node9</title>
<path fill="none" stroke="midnightblue" d="M660.985,-135.848C682.758,-126.353 719.391,-109.928 750,-94 752.835,-92.525 755.779,-90.9175 758.675,-89.2902"/>
<polygon fill="midnightblue" stroke="midnightblue" points="760.656,-92.1884 767.571,-84.161 757.159,-86.1243 760.656,-92.1884"/>
</g>
<!-- Node10 -->
<g id="node10" class="node"><title>Node10</title>
<polygon fill="none" stroke="#bfbfbf" points="820.306,-66 820.306,-84 909.694,-84 909.694,-66 820.306,-66"/>
<text text-anchor="middle" x="865" y="-72" font-family="Helvetica,sans-Serif" font-size="10.00">boost/config.hpp</text>
</g>
<!-- Node4&#45;&gt;Node10 -->
<g id="edge10" class="edge"><title>Node4&#45;&gt;Node10</title>
<path fill="none" stroke="midnightblue" d="M670.198,-135.976C703.821,-126.335 761.672,-109.513 811,-94 817.714,-91.8886 824.871,-89.5588 831.706,-87.2957"/>
<polygon fill="midnightblue" stroke="midnightblue" points="833.022,-90.5464 841.4,-84.0607 830.806,-83.9064 833.022,-90.5464"/>
</g>
<!-- Node11 -->
<g id="node11" class="node"><title>Node11</title>
<polygon fill="none" stroke="#bfbfbf" points="927.53,-66 927.53,-84 1022.47,-84 1022.47,-66 927.53,-66"/>
<text text-anchor="middle" x="975" y="-72" font-family="Helvetica,sans-Serif" font-size="10.00">boost/version.hpp</text>
</g>
<!-- Node4&#45;&gt;Node11 -->
<g id="edge11" class="edge"><title>Node4&#45;&gt;Node11</title>
<path fill="none" stroke="midnightblue" d="M680.646,-135.96C690.531,-133.959 701.15,-131.855 711,-130 802.767,-112.714 827.274,-116.109 918,-94 925.94,-92.0651 934.389,-89.6173 942.282,-87.1552"/>
<polygon fill="midnightblue" stroke="midnightblue" points="943.451,-90.4558 951.903,-84.0666 941.312,-83.7909 943.451,-90.4558"/>
</g>
<!-- Node12 -->
<g id="node12" class="node"><title>Node12</title>
<polygon fill="none" stroke="#bfbfbf" points="1039.97,-66 1039.97,-84 1136.03,-84 1136.03,-66 1039.97,-66"/>
<text text-anchor="middle" x="1088" y="-72" font-family="Helvetica,sans-Serif" font-size="10.00">boost/foreach.hpp</text>
</g>
<!-- Node4&#45;&gt;Node12 -->
<g id="edge12" class="edge"><title>Node4&#45;&gt;Node12</title>
<path fill="none" stroke="midnightblue" d="M678.417,-135.986C688.9,-133.849 700.374,-131.672 711,-130 852.379,-107.749 890.994,-123.688 1031,-94 1039.37,-92.2247 1048.27,-89.7252 1056.48,-87.1524"/>
<polygon fill="midnightblue" stroke="midnightblue" points="1057.65,-90.4512 1066.07,-84.0215 1055.48,-83.7965 1057.65,-90.4512"/>
</g>
<!-- Node13&#45;&gt;Node2 -->
<g id="edge17" class="edge"><title>Node13&#45;&gt;Node2</title>
<path fill="none" stroke="midnightblue" d="M293.724,-137.977C246.256,-129.753 160.68,-113.754 89,-94 82.1313,-92.1071 74.8515,-89.7895 67.983,-87.4553"/>
<polygon fill="midnightblue" stroke="midnightblue" points="68.9048,-84.0698 58.31,-84.0709 66.5931,-90.6771 68.9048,-84.0698"/>
</g>
<!-- Node13&#45;&gt;Node3 -->
<g id="edge18" class="edge"><title>Node13&#45;&gt;Node3</title>
<path fill="none" stroke="midnightblue" d="M293.866,-139.905C240.871,-133.163 145.768,-118.028 122,-94 105.126,-76.9419 102.012,-48.1487 101.992,-29.3587"/>
<polygon fill="midnightblue" stroke="midnightblue" points="105.496,-29.2423 102.284,-19.1463 98.4993,-29.042 105.496,-29.2423"/>
</g>
<!-- Node13&#45;&gt;Node7 -->
<g id="edge16" class="edge"><title>Node13&#45;&gt;Node7</title>
<path fill="none" stroke="midnightblue" d="M349.841,-135.894C372.157,-126.57 409.292,-110.421 440,-94 442.645,-92.5854 445.379,-91.0263 448.061,-89.4353"/>
<polygon fill="midnightblue" stroke="midnightblue" points="450.105,-92.2875 456.788,-84.0662 446.437,-86.3255 450.105,-92.2875"/>
</g>
<!-- Node14 -->
<g id="node14" class="node"><title>Node14</title>
<polygon fill="none" stroke="#bfbfbf" points="131.451,-66 131.451,-84 282.549,-84 282.549,-66 131.451,-66"/>
<text text-anchor="middle" x="207" y="-72" font-family="Helvetica,sans-Serif" font-size="10.00">boost/exception/exception.hpp</text>
</g>
<!-- Node13&#45;&gt;Node14 -->
<g id="edge14" class="edge"><title>Node13&#45;&gt;Node14</title>
<path fill="none" stroke="midnightblue" d="M315.407,-135.932C294.416,-124.328 255.476,-102.8 230.427,-88.9518"/>
<polygon fill="midnightblue" stroke="midnightblue" points="232.019,-85.8323 221.574,-84.057 228.632,-91.9584 232.019,-85.8323"/>
</g>
<!-- Node15 -->
<g id="node15" class="node"><title>Node15</title>
<polygon fill="none" stroke="#bfbfbf" points="300.596,-66 300.596,-84 359.404,-84 359.404,-66 300.596,-66"/>
<text text-anchor="middle" x="330" y="-72" font-family="Helvetica,sans-Serif" font-size="10.00">exception</text>
</g>
<!-- Node13&#45;&gt;Node15 -->
<g id="edge15" class="edge"><title>Node13&#45;&gt;Node15</title>
<path fill="none" stroke="midnightblue" d="M330,-135.932C330,-125.708 330,-107.781 330,-94.1895"/>
<polygon fill="midnightblue" stroke="midnightblue" points="333.5,-94.057 330,-84.057 326.5,-94.0571 333.5,-94.057"/>
</g>
<!-- Node16 -->
<g id="node16" class="node"><title>Node16</title>
<polygon fill="none" stroke="black" points="377,-57 377,-93 431,-93 431,-57 377,-57"/>
<text text-anchor="middle" x="403.515" y="-72" font-family="Helvetica,sans-Serif" font-size="10.00">Node16</text>
</g>
<!-- Node13&#45;&gt;Node16 -->
<g id="edge19" class="edge"><title>Node13&#45;&gt;Node16</title>
<path fill="none" stroke="midnightblue" d="M338.779,-135.932C348.316,-127.169 364.012,-112.745 377.616,-100.244"/>
<polygon fill="midnightblue" stroke="midnightblue" points="380.327,-102.507 385.322,-93.1634 375.591,-97.3525 380.327,-102.507"/>
</g>
</g>
</svg>
        <g id="navigator" transform="translate(0 0)" fill="#404254">
                <rect fill="#f2f5e9" fill-opacity="0.5" stroke="#606060" stroke-width=".5" x="0" y="0" width="60" height="60"/>
                <use id="zoomplus" xlink:href="#zoomPlus" x="17" y="9" onmousedown="handleZoom(evt,'in')"/>
                <use id="zoomminus" xlink:href="#zoomMin" x="42" y="9" onmousedown="handleZoom(evt,'out')"/>
                <use id="reset" xlink:href="#resetDef" x="30" y="36" onmousedown="handleReset()"/>
                <g id="arrowUp" xlink:href="#dirArrow" transform="translate(30 24)" onmousedown="handlePan(0,-1)">
                  <use xlink:href="#rim" fill="#404040">
                        <set attributeName="fill" to="#808080" begin="arrowUp.mouseover" end="arrowUp.mouseout"/>
                  </use>
                  <path fill="none" stroke="white" stroke-width="1.5" d="M0,-3.0v7 M-2.5,-0.5L0,-3.0L2.5,-0.5"/>
                </g>
                <g id="arrowRight" xlink:href="#dirArrow" transform="rotate(90) translate(36 -43)" onmousedown="handlePan(1,0)">
                  <use xlink:href="#rim" fill="#404040">
                        <set attributeName="fill" to="#808080" begin="arrowRight.mouseover" end="arrowRight.mouseout"/>
                  </use>
                  <path fill="none" stroke="white" stroke-width="1.5" d="M0,-3.0v7 M-2.5,-0.5L0,-3.0L2.5,-0.5"/>
                </g>
                <g id="arrowDown" xlink:href="#dirArrow" transform="rotate(180) translate(-30 -48)" onmousedown="handlePan(0,1)">
                  <use xlink:href="#rim" fill="#404040">
                        <set attributeName="fill" to="#808080" begin="arrowDown.mouseover" end="arrowDown.mouseout"/>
                  </use>
                  <path fill="none" stroke="white" stroke-width="1.5" d="M0,-3.0v7 M-2.5,-0.5L0,-3.0L2.5,-0.5"/>
                </g>
                <g id="arrowLeft" xlink:href="#dirArrow" transform="rotate(270) translate(-36 17)" onmousedown="handlePan(-1,0)">
                  <use xlink:href="#rim" fill="#404040">
                        <set attributeName="fill" to="#808080" begin="arrowLeft.mouseover" end="arrowLeft.mouseout"/>
                  </use>
                  <path fill="none" stroke="white" stroke-width="1.5" d="M0,-3.0v7 M-2.5,-0.5L0,-3.0L2.5,-0.5"/>
                </g>
        </g>
        <svg viewBox="0 0 15 15" width="100%" height="30px" preserveAspectRatio="xMaxYMin meet">
         <g id="arrow_out" transform="scale(0.3 0.3)">
          <a xlink:href="Vector_8h__incl_org.svg" target="_base">
           <rect id="button" ry="5" rx="5" y="6" x="6" height="38" width="38"
                fill="#f2f5e9" fill-opacity="0.5" stroke="#606060" stroke-width="1.0"/>
           <path id="arrow"
             d="M 11.500037,31.436501 C 11.940474,20.09759 22.043105,11.32322 32.158766,21.979434 L 37.068811,17.246167 C 37.068811,17.246167 37.088388,32 37.088388,32 L 22.160133,31.978069 C 22.160133,31.978069 26.997745,27.140456 26.997745,27.140456 C 18.528582,18.264221 13.291696,25.230495 11.500037,31.436501 z"
             style="fill:#404040;"/>
          </a>
         </g>
        </svg>
</svg>
