<?xml version="1.0" encoding="UTF-8" standalone="no"?>
<!DOCTYPE svg PUBLIC "-//W3C//DTD SVG 1.1//EN"
 "http://www.w3.org/Graphics/SVG/1.1/DTD/svg11.dtd">
<!-- Generated by graphviz version 2.36.0 (20140111.2315)
 -->
<!-- Title: Vector.h Pages: 1 -->
<svg width="1408pt" height="206pt"
 viewBox="0.00 0.00 1408.00 206.00" xmlns="http://www.w3.org/2000/svg" xmlns:xlink="http://www.w3.org/1999/xlink">
<g id="graph0" class="graph" transform="scale(1 1) rotate(0) translate(4 202)">
<title>Vector.h</title>
<!-- Node1 -->
<g id="node1" class="node"><title>Node1</title>
<polygon fill="#bfbfbf" stroke="black" points="835.926,-179 835.926,-197 888.074,-197 888.074,-179 835.926,-179"/>
<text text-anchor="middle" x="862" y="-185" font-family="Helvetica,sans-Serif" font-size="10.00">Vector.h</text>
</g>
<!-- Node2 -->
<g id="node2" class="node"><title>Node2</title>
<g id="a_node2"><a xlink:href="config_8h_source.html" target="_top" xlink:title="RMF/config.h">
<polygon fill="none" stroke="black" points="-0.731445,-57 -0.731445,-75 74.7314,-75 74.7314,-57 -0.731445,-57"/>
<text text-anchor="middle" x="37" y="-63" font-family="Helvetica,sans-Serif" font-size="10.00">RMF/config.h</text>
</a>
</g>
</g>
<!-- Node1&#45;&gt;Node2 -->
<g id="edge1" class="edge"><title>Node1&#45;&gt;Node2</title>
<path fill="none" stroke="midnightblue" d="M835.651,-186.193C731.265,-182.831 346.657,-168.848 228,-142 166.068,-127.987 97.7849,-97.1292 62.0181,-79.6764"/>
<polygon fill="midnightblue" stroke="midnightblue" points="63.3405,-76.4258 52.8246,-75.1344 60.2399,-82.7017 63.3405,-76.4258"/>
</g>
<!-- Node4 -->
<g id="node4" class="node"><title>Node4</title>
<g id="a_node4"><a xlink:href="infrastructure__macros_8h.html" target="_top" xlink:title="Various general useful macros for IMP. ">
<polygon fill="none" stroke="black" points="474.48,-118 474.48,-136 595.52,-136 595.52,-118 474.48,-118"/>
<text text-anchor="middle" x="535" y="-124" font-family="Helvetica,sans-Serif" font-size="10.00">infrastructure_macros.h</text>
</a>
</g>
</g>
<!-- Node1&#45;&gt;Node4 -->
<g id="edge3" class="edge"><title>Node1&#45;&gt;Node4</title>
<path fill="none" stroke="midnightblue" d="M835.586,-182.639C788.827,-174.865 688.445,-157.928 604,-142 597.382,-140.752 590.417,-139.392 583.561,-138.028"/>
<polygon fill="midnightblue" stroke="midnightblue" points="584.14,-134.574 573.647,-136.036 582.761,-141.437 584.14,-134.574"/>
</g>
<!-- Node13 -->
<g id="node12" class="node"><title>Node13</title>
<g id="a_node12"><a xlink:href="exceptions_8h.html" target="_top" xlink:title="Declarations of the various exception types. ">
<polygon fill="none" stroke="black" points="236.926,-118 236.926,-136 309.074,-136 309.074,-118 236.926,-118"/>
<text text-anchor="middle" x="273" y="-124" font-family="Helvetica,sans-Serif" font-size="10.00">exceptions.h</text>
</a>
</g>
</g>
<!-- Node1&#45;&gt;Node13 -->
<g id="edge12" class="edge"><title>Node1&#45;&gt;Node13</title>
<path fill="none" stroke="midnightblue" d="M835.548,-184.35C743.526,-175.132 436.616,-144.389 319.216,-132.629"/>
<polygon fill="midnightblue" stroke="midnightblue" points="319.414,-129.132 309.115,-131.618 318.717,-136.097 319.414,-129.132"/>
</g>
<!-- Node17 -->
<g id="node15" class="node"><title>Node17</title>
<polygon fill="none" stroke="#bfbfbf" points="613.237,-118 613.237,-136 728.763,-136 728.763,-118 613.237,-118"/>
<text text-anchor="middle" x="671" y="-124" font-family="Helvetica,sans-Serif" font-size="10.00">boost/range/begin.hpp</text>
</g>
<!-- Node1&#45;&gt;Node17 -->
<g id="edge18" class="edge"><title>Node1&#45;&gt;Node17</title>
<path fill="none" stroke="midnightblue" d="M835.843,-178.92C802.503,-168.621 744.701,-150.766 707.161,-139.17"/>
<polygon fill="midnightblue" stroke="midnightblue" points="707.735,-135.684 697.147,-136.077 705.669,-142.372 707.735,-135.684"/>
</g>
<!-- Node18 -->
<g id="node16" class="node"><title>Node18</title>
<polygon fill="none" stroke="#bfbfbf" points="747.128,-118 747.128,-136 854.872,-136 854.872,-118 747.128,-118"/>
<text text-anchor="middle" x="801" y="-124" font-family="Helvetica,sans-Serif" font-size="10.00">boost/range/end.hpp</text>
</g>
<!-- Node1&#45;&gt;Node18 -->
<g id="edge19" class="edge"><title>Node1&#45;&gt;Node18</title>
<path fill="none" stroke="midnightblue" d="M853.518,-178.796C844.049,-169.638 828.517,-154.615 816.795,-143.277"/>
<polygon fill="midnightblue" stroke="midnightblue" points="819.031,-140.571 809.41,-136.134 814.164,-145.602 819.031,-140.571"/>
</g>
<!-- Node19 -->
<g id="node17" class="node"><title>Node19</title>
<polygon fill="none" stroke="#bfbfbf" points="873.313,-113 873.313,-141 972.687,-141 972.687,-113 873.313,-113"/>
<text text-anchor="start" x="881.313" y="-129" font-family="Helvetica,sans-Serif" font-size="10.00">boost/type_traits/is</text>
<text text-anchor="middle" x="923" y="-119" font-family="Helvetica,sans-Serif" font-size="10.00">_convertible.hpp</text>
</g>
<!-- Node1&#45;&gt;Node19 -->
<g id="edge20" class="edge"><title>Node1&#45;&gt;Node19</title>
<path fill="none" stroke="midnightblue" d="M870.482,-178.796C878.595,-170.949 891.16,-158.796 901.965,-148.345"/>
<polygon fill="midnightblue" stroke="midnightblue" points="904.679,-150.59 909.434,-141.121 899.812,-145.558 904.679,-150.59"/>
</g>
<!-- Node20 -->
<g id="node18" class="node"><title>Node20</title>
<polygon fill="none" stroke="#bfbfbf" points="990.251,-118 990.251,-136 1085.75,-136 1085.75,-118 990.251,-118"/>
<text text-anchor="middle" x="1038" y="-124" font-family="Helvetica,sans-Serif" font-size="10.00">boost/mpl/not.hpp</text>
</g>
<!-- Node1&#45;&gt;Node20 -->
<g id="edge21" class="edge"><title>Node1&#45;&gt;Node20</title>
<path fill="none" stroke="midnightblue" d="M886.103,-178.92C916.693,-168.665 969.632,-150.919 1004.23,-139.319"/>
<polygon fill="midnightblue" stroke="midnightblue" points="1005.54,-142.574 1013.91,-136.077 1003.31,-135.937 1005.54,-142.574"/>
</g>
<!-- Node21 -->
<g id="node19" class="node"><title>Node21</title>
<polygon fill="none" stroke="#bfbfbf" points="1103.62,-118 1103.62,-136 1188.38,-136 1188.38,-118 1103.62,-118"/>
<text text-anchor="middle" x="1146" y="-124" font-family="Helvetica,sans-Serif" font-size="10.00">boost/array.hpp</text>
</g>
<!-- Node1&#45;&gt;Node21 -->
<g id="edge22" class="edge"><title>Node1&#45;&gt;Node21</title>
<path fill="none" stroke="midnightblue" d="M888.223,-182.543C931.346,-175.074 1019.85,-159.15 1094,-142 1098.42,-140.977 1103.04,-139.838 1107.62,-138.665"/>
<polygon fill="midnightblue" stroke="midnightblue" points="1108.7,-141.998 1117.48,-136.071 1106.92,-135.228 1108.7,-141.998"/>
</g>
<!-- Node22 -->
<g id="node20" class="node"><title>Node22</title>
<polygon fill="none" stroke="#bfbfbf" points="1206.58,-118 1206.58,-136 1325.42,-136 1325.42,-118 1206.58,-118"/>
<text text-anchor="middle" x="1266" y="-124" font-family="Helvetica,sans-Serif" font-size="10.00">boost/static_assert.hpp</text>
</g>
<!-- Node1&#45;&gt;Node22 -->
<g id="edge23" class="edge"><title>Node1&#45;&gt;Node22</title>
<path fill="none" stroke="midnightblue" d="M888.152,-184.089C944.683,-177.663 1082.42,-161.297 1197,-142 1204.13,-140.8 1211.64,-139.407 1218.99,-137.975"/>
<polygon fill="midnightblue" stroke="midnightblue" points="1219.72,-141.398 1228.84,-136.012 1218.35,-134.533 1219.72,-141.398"/>
</g>
<!-- Node23 -->
<g id="node21" class="node"><title>Node23</title>
<polygon fill="none" stroke="#bfbfbf" points="1343.44,-118 1343.44,-136 1400.56,-136 1400.56,-118 1343.44,-118"/>
<text text-anchor="middle" x="1372" y="-124" font-family="Helvetica,sans-Serif" font-size="10.00">algorithm</text>
</g>
<!-- Node1&#45;&gt;Node23 -->
<g id="edge24" class="edge"><title>Node1&#45;&gt;Node23</title>
<path fill="none" stroke="midnightblue" d="M888.211,-186.856C960.302,-185.956 1167.26,-179.991 1334,-142 1337.05,-141.304 1340.2,-140.426 1343.3,-139.451"/>
<polygon fill="midnightblue" stroke="midnightblue" points="1344.66,-142.686 1352.96,-136.106 1342.37,-136.072 1344.66,-142.686"/>
</g>
<!-- Node3 -->
<g id="node3" class="node"><title>Node3</title>
<g id="a_node3"><a xlink:href="compiler__macros_8h.html" target="_top" xlink:title="Various compiler workarounds. ">
<polygon fill="none" stroke="black" points="40.5444,-1 40.5444,-19 165.456,-19 165.456,-1 40.5444,-1"/>
<text text-anchor="middle" x="103" y="-7" font-family="Helvetica,sans-Serif" font-size="10.00">RMF/compiler_macros.h</text>
</a>
</g>
</g>
<!-- Node2&#45;&gt;Node3 -->
<g id="edge2" class="edge"><title>Node2&#45;&gt;Node3</title>
<path fill="none" stroke="midnightblue" d="M47.024,-56.7986C57.1031,-48.552 72.859,-35.6608 85.0902,-25.6535"/>
<polygon fill="midnightblue" stroke="midnightblue" points="87.3584,-28.3199 92.8817,-19.2786 82.9257,-22.9022 87.3584,-28.3199"/>
</g>
<!-- Node4&#45;&gt;Node3 -->
<g id="edge7" class="edge"><title>Node4&#45;&gt;Node3</title>
<path fill="none" stroke="midnightblue" d="M523.721,-117.784C500.462,-100.993 447.625,-63.6818 427,-56 344.363,-25.2213 242.771,-15.2247 175.621,-12.1229"/>
<polygon fill="midnightblue" stroke="midnightblue" points="175.698,-8.62314 165.559,-11.6979 175.403,-15.6169 175.698,-8.62314"/>
</g>
<!-- Node5 -->
<g id="node5" class="node"><title>Node5</title>
<polygon fill="none" stroke="#bfbfbf" points="474.219,-57 474.219,-75 525.781,-75 525.781,-57 474.219,-57"/>
<text text-anchor="middle" x="500" y="-63" font-family="Helvetica,sans-Serif" font-size="10.00">sstream</text>
</g>
<!-- Node4&#45;&gt;Node5 -->
<g id="edge4" class="edge"><title>Node4&#45;&gt;Node5</title>
<path fill="none" stroke="midnightblue" d="M530.133,-117.796C524.962,-109.078 516.638,-95.0461 510.047,-83.9371"/>
<polygon fill="midnightblue" stroke="midnightblue" points="512.938,-81.9489 504.825,-75.134 506.917,-85.5203 512.938,-81.9489"/>
</g>
<!-- Node6 -->
<g id="node6" class="node"><title>Node6</title>
<polygon fill="none" stroke="#bfbfbf" points="543.828,-57 543.828,-75 598.172,-75 598.172,-57 543.828,-57"/>
<text text-anchor="middle" x="571" y="-63" font-family="Helvetica,sans-Serif" font-size="10.00">iostream</text>
</g>
<!-- Node4&#45;&gt;Node6 -->
<g id="edge5" class="edge"><title>Node4&#45;&gt;Node6</title>
<path fill="none" stroke="midnightblue" d="M540.006,-117.796C545.325,-109.078 553.887,-95.0461 560.666,-83.9371"/>
<polygon fill="midnightblue" stroke="midnightblue" points="563.816,-85.4935 566.037,-75.134 557.84,-81.8474 563.816,-85.4935"/>
</g>
<!-- Node7 -->
<g id="node7" class="node"><title>Node7</title>
<polygon fill="none" stroke="#bfbfbf" points="377.773,-57 377.773,-75 418.227,-75 418.227,-57 377.773,-57"/>
<text text-anchor="middle" x="398" y="-63" font-family="Helvetica,sans-Serif" font-size="10.00">string</text>
</g>
<!-- Node4&#45;&gt;Node7 -->
<g id="edge6" class="edge"><title>Node4&#45;&gt;Node7</title>
<path fill="none" stroke="midnightblue" d="M516.238,-117.92C493.003,-107.914 453.202,-90.7732 426.263,-79.1719"/>
<polygon fill="midnightblue" stroke="midnightblue" points="427.544,-75.9126 416.975,-75.1717 424.775,-82.3417 427.544,-75.9126"/>
</g>
<!-- Node9 -->
<g id="node8" class="node"><title>Node9</title>
<polygon fill="none" stroke="#bfbfbf" points="616.384,-57 616.384,-75 659.616,-75 659.616,-57 616.384,-57"/>
<text text-anchor="middle" x="638" y="-63" font-family="Helvetica,sans-Serif" font-size="10.00">vector</text>
</g>
<!-- Node4&#45;&gt;Node9 -->
<g id="edge8" class="edge"><title>Node4&#45;&gt;Node9</title>
<path fill="none" stroke="midnightblue" d="M549.322,-117.796C566.31,-108.065 594.854,-91.7144 614.961,-80.197"/>
<polygon fill="midnightblue" stroke="midnightblue" points="616.862,-83.1416 623.8,-75.134 613.383,-77.0675 616.862,-83.1416"/>
</g>
<!-- Node10 -->
<g id="node9" class="node"><title>Node10</title>
<polygon fill="none" stroke="#bfbfbf" points="677.306,-57 677.306,-75 766.694,-75 766.694,-57 677.306,-57"/>
<text text-anchor="middle" x="722" y="-63" font-family="Helvetica,sans-Serif" font-size="10.00">boost/config.hpp</text>
</g>
<!-- Node4&#45;&gt;Node10 -->
<g id="edge9" class="edge"><title>Node4&#45;&gt;Node10</title>
<path fill="none" stroke="midnightblue" d="M560.609,-117.92C593.251,-107.621 649.843,-89.7662 686.596,-78.1701"/>
<polygon fill="midnightblue" stroke="midnightblue" points="687.917,-81.4236 696.4,-75.0769 685.811,-74.748 687.917,-81.4236"/>
</g>
<!-- Node11 -->
<g id="node10" class="node"><title>Node11</title>
<polygon fill="none" stroke="#bfbfbf" points="784.53,-57 784.53,-75 879.47,-75 879.47,-57 784.53,-57"/>
<text text-anchor="middle" x="832" y="-63" font-family="Helvetica,sans-Serif" font-size="10.00">boost/version.hpp</text>
</g>
<!-- Node4&#45;&gt;Node11 -->
<g id="edge10" class="edge"><title>Node4&#45;&gt;Node11</title>
<path fill="none" stroke="midnightblue" d="M574.4,-117.968C584.078,-116.006 594.412,-113.919 604,-112 664.688,-99.8544 734.511,-86.1069 780.731,-77.0382"/>
<polygon fill="midnightblue" stroke="midnightblue" points="781.659,-80.4229 790.798,-75.0636 780.311,-73.5537 781.659,-80.4229"/>
</g>
<!-- Node12 -->
<g id="node11" class="node"><title>Node12</title>
<polygon fill="none" stroke="#bfbfbf" points="896.971,-57 896.971,-75 993.029,-75 993.029,-57 896.971,-57"/>
<text text-anchor="middle" x="945" y="-63" font-family="Helvetica,sans-Serif" font-size="10.00">boost/foreach.hpp</text>
</g>
<!-- Node4&#45;&gt;Node12 -->
<g id="edge11" class="edge"><title>Node4&#45;&gt;Node12</title>
<path fill="none" stroke="midnightblue" d="M572.149,-117.937C582.437,-115.847 593.628,-113.707 604,-112 726.355,-91.8606 760.327,-93.8074 886.742,-76.1361"/>
<polygon fill="midnightblue" stroke="midnightblue" points="887.401,-79.5778 896.813,-74.7142 886.422,-72.6465 887.401,-79.5778"/>
</g>
<!-- Node13&#45;&gt;Node2 -->
<g id="edge16" class="edge"><title>Node13&#45;&gt;Node2</title>
<path fill="none" stroke="midnightblue" d="M240.68,-117.92C198.693,-107.423 125.307,-89.0767 79.0325,-77.5081"/>
<polygon fill="midnightblue" stroke="midnightblue" points="79.8578,-74.1068 69.3074,-75.0769 78.16,-80.8978 79.8578,-74.1068"/>
</g>
<!-- Node13&#45;&gt;Node3 -->
<g id="edge17" class="edge"><title>Node13&#45;&gt;Node3</title>
<path fill="none" stroke="midnightblue" d="M236.879,-123.43C202.719,-119.081 152.302,-107.393 122,-76 110.016,-63.5849 105.528,-44.041 103.88,-29.6229"/>
<polygon fill="midnightblue" stroke="midnightblue" points="107.349,-29.0887 103.078,-19.3928 100.371,-29.6358 107.349,-29.0887"/>
</g>
<!-- Node13&#45;&gt;Node7 -->
<g id="edge15" class="edge"><title>Node13&#45;&gt;Node7</title>
<path fill="none" stroke="midnightblue" d="M290.119,-117.92C311.133,-108.001 346.997,-91.0734 371.563,-79.4784"/>
<polygon fill="midnightblue" stroke="midnightblue" points="373.138,-82.6054 380.687,-75.1717 370.15,-76.2751 373.138,-82.6054"/>
</g>
<!-- Node14 -->
<g id="node13" class="node"><title>Node14</title>
<polygon fill="none" stroke="#bfbfbf" points="131.451,-57 131.451,-75 282.549,-75 282.549,-57 131.451,-57"/>
<text text-anchor="middle" x="207" y="-63" font-family="Helvetica,sans-Serif" font-size="10.00">boost/exception/exception.hpp</text>
</g>
<!-- Node13&#45;&gt;Node14 -->
<g id="edge13" class="edge"><title>Node13&#45;&gt;Node14</title>
<path fill="none" stroke="midnightblue" d="M263.823,-117.796C253.479,-108.55 236.449,-93.3257 223.725,-81.9513"/>
<polygon fill="midnightblue" stroke="midnightblue" points="225.887,-79.1893 216.099,-75.134 221.222,-84.4081 225.887,-79.1893"/>
</g>
<!-- Node15 -->
<g id="node14" class="node"><title>Node15</title>
<polygon fill="none" stroke="#bfbfbf" points="300.596,-57 300.596,-75 359.404,-75 359.404,-57 300.596,-57"/>
<text text-anchor="middle" x="330" y="-63" font-family="Helvetica,sans-Serif" font-size="10.00">exception</text>
</g>
<!-- Node13&#45;&gt;Node15 -->
<g id="edge14" class="edge"><title>Node13&#45;&gt;Node15</title>
<path fill="none" stroke="midnightblue" d="M280.926,-117.796C289.689,-108.726 304.008,-93.9035 314.924,-82.6054"/>
<polygon fill="midnightblue" stroke="midnightblue" points="317.711,-84.7578 322.142,-75.134 312.676,-79.8941 317.711,-84.7578"/>
</g>
</g>
</svg>
